<?xml version='1.0' encoding='UTF-8' standalone='no'?>
<!-- Created with Fritzing (http://www.fritzing.org/) -->
<svg xmlns="http://www.w3.org/2000/svg" height="0.75in" id="svg2" width="0.7in" y="0in" x="0in"  viewBox="0 0 50.4 54" version="1.2" gorn="0">
    <desc >
        <referenceFile >Adafruit_BME280_breadboard.svg</referenceFile>
    </desc>
    <metadata id="metadata500" />
    <defs id="defs498" />
    <desc id="desc4" >Fritzing breadboard generated by brd2svg</desc>
    <g id="icon"  gorn="0.4">
        <path style="fill:#014cb1;stroke:none;stroke-width:0" d="m 43.2,54 -36,0 A 7.2,7.2 0 0 1 0,46.8 L 0,7.2 A 7.2,7.2 0 0 1 7.2,0 l 36,0 a 7.2,7.2 0 0 1 7.2,7.2 l 0,39.6 A 7.2,7.2 0 0 1 43.2,54 M 2.18268,46.8 a 1.417325,1.417325 0 1 0 2.83465,0 1.417325,1.417325 0 1 0 -2.83465,0 z m 7.2,0 a 1.417325,1.417325 0 1 0 2.83465,0 1.417325,1.417325 0 1 0 -2.83465,0 z m 7.20002,0 a 1.417325,1.417325 0 1 0 2.83465,0 1.417325,1.417325 0 1 0 -2.83465,0 z m 7.2,0 a 1.417325,1.417325 0 1 0 2.83465,0 1.417325,1.417325 0 1 0 -2.83465,0 z m 7.2,0 a 1.417325,1.417325 0 1 0 2.83465,0 1.417325,1.417325 0 1 0 -2.83465,0 z m 7.2,0 a 1.417325,1.417325 0 1 0 2.83465,0 1.417325,1.417325 0 1 0 -2.83465,0 z m 7.2,0 a 1.417325,1.417325 0 1 0 2.83465,0 1.417325,1.417325 0 1 0 -2.83465,0 z M 4.08189,7.2 a 3.11811,3.11811 0 1 0 6.23622,0 3.11811,3.11811 0 1 0 -6.23622,0 z m 36.00001,0 a 3.11811,3.11811 0 1 0 6.23622,0 3.11811,3.11811 0 1 0 -6.23622,0 z" id="path8"  gorn="0.4.0"/>
        <g id="g10"  gorn="0.4.1">
            <title id="title12" >layer 21</title>
            <g id="g14"  gorn="0.4.1.1">
                <title id="title16" >text:BME280</title>
                <text style="font-size:4.17600012px;font-family:OCRA;text-anchor:start;fill:#ffffff;stroke:none;stroke-width:0" font-size="4.176" id="text18" y="6.1199999" x="16.200001"  gorn="0.4.1.1.1">BME280</text>
            </g>
            <g id="g20"  gorn="0.4.1.2">
                <title id="title22" >text:VIN</title>
                <text style="font-size:3.34080005px;font-family:OCRA;text-anchor:end;fill:#ffffff;stroke:none;stroke-width:0" font-size="3.3408" id="text24" y="44.020802" x="7.5599999"  gorn="0.4.1.2.1">VIN</text>
            </g>
            <g id="g26"  gorn="0.4.1.3">
                <title id="title28" >text:3Vo</title>
                <text style="font-size:3.34080005px;font-family:OCRA;text-anchor:end;fill:#ffffff;stroke:none;stroke-width:0" font-size="3.3408" id="text30" y="53.380798" x="14.4"  gorn="0.4.1.3.1">3Vo</text>
            </g>
            <g id="g32"  gorn="0.4.1.4">
                <title id="title34" >text:GND</title>
                <text style="font-size:3.34080005px;font-family:OCRA;text-anchor:end;fill:#ffffff;stroke:none;stroke-width:0" font-size="3.3408" id="text36" y="44.020802" x="22.32"  gorn="0.4.1.4.1">GND</text>
            </g>
            <g id="g38"  gorn="0.4.1.5">
                <title id="title40" >text:SCK</title>
                <text style="font-size:3.34080005px;font-family:OCRA;text-anchor:end;fill:#ffffff;stroke:none;stroke-width:0" font-size="3.3408" id="text42" y="53.380798" x="29.16"  gorn="0.4.1.5.1">SCK</text>
            </g>
            <g id="g44"  gorn="0.4.1.6">
                <title id="title46" >text:SDO</title>
                <text style="font-size:3.34080005px;font-family:OCRA;text-anchor:end;fill:#ffffff;stroke:none;stroke-width:0" font-size="3.3408" id="text48" y="44.020802" x="36.720001"  gorn="0.4.1.6.1">SDO</text>
            </g>
            <g id="g50"  gorn="0.4.1.7">
                <title id="title52" >text:SDI</title>
                <text style="font-size:3.34080005px;font-family:OCRA;text-anchor:end;fill:#ffffff;stroke:none;stroke-width:0" font-size="3.3408" id="text54" y="53.380798" x="43.200001"  gorn="0.4.1.7.1">SDI</text>
            </g>
            <g id="g56"  gorn="0.4.1.8">
                <title id="title58" >text:CS</title>
                <text style="font-size:3.34080005px;font-family:OCRA;text-anchor:end;fill:#ffffff;stroke:none;stroke-width:0" font-size="3.3408" id="text60" y="44.020802" x="49.68"  gorn="0.4.1.8.1">CS</text>
            </g>
            <g id="g62"  gorn="0.4.1.9">
                <title id="title64" >text:Pressure
Temp+Humidity</title>
                <g  transform="translate(0,-1.58688)">
                    <g >
                        <g id="g66"  gorn="0.4.1.9.1.0.0">
                            <text style="font-size:3.17375994px;font-family:OCRA;text-anchor:middle;fill:#ffffff;stroke:none;stroke-width:0" font-size="3.17376" id="text68" y="12.7469" x="25.92"  gorn="0.4.1.9.1.0.0.0">Pressure</text>
                        </g>
                    </g>
                </g>
                <g  transform="translate(0,1.58688)">
                    <g >
                        <g id="g70"  gorn="0.4.1.9.2.0.0">
                            <text style="font-size:3.17375994px;font-family:OCRA;text-anchor:middle;fill:#ffffff;stroke:none;stroke-width:0" font-size="3.17376" id="text72" y="12.7469" x="25.92"  gorn="0.4.1.9.2.0.0.0">Temp+Humidity</text>
                        </g>
                    </g>
                </g>
            </g>
            <g id="g74"  gorn="0.4.1.10">
                <title id="title76" >element:C1</title>
                <g id="g78"  gorn="0.4.1.10.1">
                    <title id="title80" >package:0805-NO</title>
                    <line style="stroke:#ffffff;stroke-width:0.86400002;stroke-linecap:round" x2="6.48" id="line82" y1="36"  y2="38.880001" x1="6.48" gorn="0.4.1.10.1.1"/>
                </g>
            </g>
            <g id="g84"  gorn="0.4.1.11">
                <title id="title86" >element:C3</title>
                <g id="g88"  gorn="0.4.1.11.1">
                    <title id="title90" >package:0805-NO</title>
                    <line style="stroke:#ffffff;stroke-width:0.86400002;stroke-linecap:round" x2="6.8400002" id="line92" y1="18.360001"  y2="21.24" x1="6.8400002" gorn="0.4.1.11.1.1"/>
                </g>
            </g>
            <g id="g94"  gorn="0.4.1.12">
                <title id="title96" >element:D2</title>
                <g id="g98"  gorn="0.4.1.12.1">
                    <title id="title100" >package:SOD-323</title>
                    <line style="stroke:#ffffff;stroke-width:0.57599998;stroke-linecap:round" x2="36.045399" id="line102" y1="23.5842"  y2="23.5842" x1="41.7146" gorn="0.4.1.12.1.1"/>
                    <line style="stroke:#ffffff;stroke-width:0.57599998;stroke-linecap:round" x2="41.7146" id="line104" y1="19.615801"  y2="19.615801" x1="36.045399" gorn="0.4.1.12.1.2"/>
                    <line style="stroke:#ffffff;stroke-width:0.57599998;stroke-linecap:round" x2="37.887798" id="line106" y1="21.6"  y2="22.7339" x1="39.588699" gorn="0.4.1.12.1.3"/>
                    <line style="stroke:#ffffff;stroke-width:0.57599998;stroke-linecap:round" x2="37.887798" id="line108" y1="22.7339"  y2="20.466101" x1="37.887798" gorn="0.4.1.12.1.4"/>
                    <line style="stroke:#ffffff;stroke-width:0.57599998;stroke-linecap:round" x2="39.588699" id="line110" y1="20.466101"  y2="21.6" x1="37.887798" gorn="0.4.1.12.1.5"/>
                    <g id="g112"  gorn="0.4.1.12.1.6">
                        <title id="title114" >polygon</title>
                        <path style="fill:none;stroke:#ffffff;stroke-width:0.57599998;stroke-linecap:round" d="m 39.1635,21.6 -0.8504,0.5669 0,-1.1338 0.8504,0.5669 -0.8504,0 0.8504,0" id="path116"  gorn="0.4.1.12.1.6.1"/>
                    </g>
                </g>
            </g>
            <g id="g118"  gorn="0.4.1.13">
                <title id="title120" >element:JP2</title>
                <g id="g122"  gorn="0.4.1.13.1">
                    <title id="title124" >package:1X07_ROUND_70</title>
                </g>
            </g>
            <g id="g126"  gorn="0.4.1.14">
                <title id="title128" >element:Q3</title>
                <g id="g130"  gorn="0.4.1.14.1">
                    <title id="title132" >package:SOT23-WIDE</title>
                    <line style="stroke:#ffffff;stroke-width:0.57599998;stroke-linecap:round" x2="27.780701" id="line134" y1="34.1507"  y2="37.872002" x1="27.780701" gorn="0.4.1.14.1.1"/>
                    <line style="stroke:#ffffff;stroke-width:0.57599998;stroke-linecap:round" x2="25.062799" id="line136" y1="37.872002"  y2="37.872002" x1="27.780701" gorn="0.4.1.14.1.2"/>
                    <line style="stroke:#ffffff;stroke-width:0.57599998;stroke-linecap:round" x2="18.299299" id="line138" y1="37.872002"  y2="34.1507" x1="18.299299" gorn="0.4.1.14.1.3"/>
                    <line style="stroke:#ffffff;stroke-width:0.57599998;stroke-linecap:round" x2="18.299299" id="line140" y1="37.872002"  y2="37.872002" x1="21.0172" gorn="0.4.1.14.1.4"/>
                    <line style="stroke:#ffffff;stroke-width:0.57599998;stroke-linecap:round" x2="23.7101" id="line142" y1="34.127998"  y2="34.127998" x1="22.409599" gorn="0.4.1.14.1.5"/>
                </g>
            </g>
            <g id="g144"  gorn="0.4.1.15">
                <title id="title146" >element:Q4</title>
                <g id="g148"  gorn="0.4.1.15.1">
                    <title id="title150" >package:SOT23-WIDE</title>
                    <line style="stroke:#ffffff;stroke-width:0.57599998;stroke-linecap:round" x2="44.700699" id="line152" y1="33.070702"  y2="36.792" x1="44.700699" gorn="0.4.1.15.1.1"/>
                    <line style="stroke:#ffffff;stroke-width:0.57599998;stroke-linecap:round" x2="41.9828" id="line154" y1="36.792"  y2="36.792" x1="44.700699" gorn="0.4.1.15.1.2"/>
                    <line style="stroke:#ffffff;stroke-width:0.57599998;stroke-linecap:round" x2="35.219299" id="line156" y1="36.792"  y2="33.070702" x1="35.219299" gorn="0.4.1.15.1.3"/>
                    <line style="stroke:#ffffff;stroke-width:0.57599998;stroke-linecap:round" x2="35.219299" id="line158" y1="36.792"  y2="36.792" x1="37.937199" gorn="0.4.1.15.1.4"/>
                    <line style="stroke:#ffffff;stroke-width:0.57599998;stroke-linecap:round" x2="40.6301" id="line160" y1="33.048"  y2="33.048" x1="39.329601" gorn="0.4.1.15.1.5"/>
                </g>
            </g>
            <g id="g162"  gorn="0.4.1.16">
                <title id="title164" >element:R1</title>
                <g id="g166"  gorn="0.4.1.16.1">
                    <title id="title168" >package:0805-NO</title>
                    <line style="stroke:#ffffff;stroke-width:0.86400002;stroke-linecap:round" x2="39.959999" id="line170" y1="25.559999"  y2="28.440001" x1="39.959999" gorn="0.4.1.16.1.1"/>
                </g>
            </g>
            <g id="g172"  gorn="0.4.1.17">
                <title id="title174" >element:R2</title>
                <g id="g176"  gorn="0.4.1.17.1">
                    <title id="title178" >package:0805-NO</title>
                    <line style="stroke:#ffffff;stroke-width:0.86400002;stroke-linecap:round" x2="23.040001" id="line180" y1="27"  y2="29.879999" x1="23.040001" gorn="0.4.1.17.1.1"/>
                </g>
            </g>
            <g id="g182"  gorn="0.4.1.18">
                <title id="title184" >element:R4</title>
                <g id="g186"  gorn="0.4.1.18.1">
                    <title id="title188" >package:_0805MP</title>
                    <line style="stroke:#ffffff;stroke-width:0.57599998;stroke-linecap:round" x2="13.32" id="line190" y1="22.68"  y2="22.68" x1="16.200001" gorn="0.4.1.18.1.1"/>
                </g>
            </g>
            <g id="g192"  gorn="0.4.1.19">
                <title id="title194" >element:R7</title>
                <g id="g196"  gorn="0.4.1.19.1">
                    <title id="title198" >package:0805-NO</title>
                    <line style="stroke:#ffffff;stroke-width:0.86400002;stroke-linecap:round" x2="16.200001" id="line200" y1="35.279999"  y2="35.279999" x1="13.32" gorn="0.4.1.19.1.1"/>
                </g>
            </g>
            <g id="g202"  gorn="0.4.1.20">
                <title id="title204" >element:R8</title>
                <g id="g206"  gorn="0.4.1.20.1">
                    <title id="title208" >package:0805-NO</title>
                    <line style="stroke:#ffffff;stroke-width:0.86400002;stroke-linecap:round" x2="32.400002" id="line210" y1="35.279999"  y2="35.279999" x1="29.52" gorn="0.4.1.20.1.1"/>
                </g>
            </g>
            <g id="g212"  gorn="0.4.1.21">
                <title id="title214" >element:U$2</title>
                <g id="g216"  gorn="0.4.1.21.1">
                    <title id="title218" >package:ADAFRUIT_2.5MM</title>
                </g>
            </g>
            <g id="g220"  gorn="0.4.1.22">
                <title id="title222" >element:U$5</title>
                <g id="g224"  gorn="0.4.1.22.1">
                    <title id="title226" >package:FIDUCIAL_1MM</title>
                </g>
            </g>
            <g id="g228"  gorn="0.4.1.23">
                <title id="title230" >element:U$6</title>
                <g id="g232"  gorn="0.4.1.23.1">
                    <title id="title234" >package:ADAFRUIT_2.5MM</title>
                </g>
            </g>
            <g id="g236"  gorn="0.4.1.24">
                <title id="title238" >element:U$7</title>
                <g id="g240"  gorn="0.4.1.24.1">
                    <title id="title242" >package:MOUNTINGHOLE_2.0_PLATED</title>
                    <circle style="fill:none;stroke:#ffffff;stroke-width:0.57599998" cx="7.1999998" id="circle244" cy="7.1999998" r="5.1023598"  gorn="0.4.1.24.1.1"/>
                </g>
            </g>
            <g id="g246"  gorn="0.4.1.25">
                <title id="title248" >element:U$8</title>
                <g id="g250"  gorn="0.4.1.25.1">
                    <title id="title252" >package:MOUNTINGHOLE_2.0_PLATED</title>
                    <circle style="fill:none;stroke:#ffffff;stroke-width:0.57599998" cx="43.200001" id="circle254" cy="7.1999998" r="5.1023598"  gorn="0.4.1.25.1.1"/>
                </g>
            </g>
            <g id="g256"  gorn="0.4.1.26">
                <title id="title258" >element:U$15</title>
                <g id="g260"  gorn="0.4.1.26.1">
                    <title id="title262" >package:FIDUCIAL_1MM</title>
                </g>
            </g>
            <g id="g264"  gorn="0.4.1.27">
                <title id="title266" >element:U$20</title>
                <g id="g268"  gorn="0.4.1.27.1">
                    <title id="title270" >package:PCBFEAT-REV-040</title>
                </g>
            </g>
            <g id="g272"  gorn="0.4.1.28">
                <title id="title274" >element:U1</title>
                <g id="g276"  gorn="0.4.1.28.1">
                    <title id="title278" >package:BME280</title>
                    <line style="stroke:#ffffff;stroke-width:0.36000001;stroke-linecap:round" x2="29.0268" id="line280" y1="14.8932"  y2="22.546801" x1="29.0268" gorn="0.4.1.28.1.1"/>
                    <line style="stroke:#ffffff;stroke-width:0.36000001;stroke-linecap:round" x2="21.373199" id="line282" y1="14.8932"  y2="22.546801" x1="21.373199" gorn="0.4.1.28.1.2"/>
                    <circle style="fill:none;stroke:#ffffff;stroke-width:0.99212402" cx="28.034599" id="circle284" cy="24.247601" r="0.56692898"  gorn="0.4.1.28.1.3"/>
                </g>
            </g>
            <g id="g286"  gorn="0.4.1.29">
                <title id="title288" >element:U2</title>
                <g id="g290"  gorn="0.4.1.29.1">
                    <title id="title292" >package:SOT23-5</title>
                    <line style="stroke:#ffffff;stroke-width:0.57599998;stroke-linecap:round" x2="2.1628399" id="line294" y1="26.1723"  y2="30.707701" x1="2.1628399" gorn="0.4.1.29.1.1"/>
                    <line style="stroke:#ffffff;stroke-width:0.57599998;stroke-linecap:round" x2="11.5172" id="line296" y1="26.1723"  y2="30.707701" x1="11.5172" gorn="0.4.1.29.1.2"/>
                    <line style="stroke:#ffffff;stroke-width:0.57599998;stroke-linecap:round" x2="7.9738598" id="line298" y1="25.4636"  y2="25.4636" x1="5.70614" gorn="0.4.1.29.1.3"/>
                </g>
            </g>
        </g>
        <rect style="fill:#9a916c;stroke:none;stroke-width:0" height="4.2519698" id="connector0pin" width="3.68504" y="35.313999" x="1.9445699"  gorn="0.4.2"/>
        <rect style="fill:#9a916c;stroke:none;stroke-width:0" height="4.2519698" id="connector1pin" width="3.68504" y="35.313999" x="7.33039"  gorn="0.4.3"/>
        <rect style="fill:#9a916c;stroke:none;stroke-width:0" height="4.2519698" id="connector2pin" width="3.68504" y="17.674" x="2.30457"  gorn="0.4.4"/>
        <rect style="fill:#9a916c;stroke:none;stroke-width:0" height="4.2519698" id="connector3pin" width="3.68504" y="17.674" x="7.6903901"  gorn="0.4.5"/>
        <g  transform="matrix(-1,0,0,-1,70.56,43.2)">
            <g >
                <g id="g304"  gorn="0.4.6.0.0">
                    <rect style="fill:#9a916c;stroke:none;stroke-width:0" height="2.26772" id="connector4pin" width="3.8267701" y="20.466101" x="33.3666"  gorn="0.4.6.0.0.0"/>
                </g>
            </g>
        </g>
        <g  transform="matrix(-1,0,0,-1,84.96,43.2)">
            <g >
                <g id="g307"  gorn="0.4.7.0.0">
                    <rect style="fill:#9a916c;stroke:none;stroke-width:0" height="2.26772" id="connector5pin" width="3.8267701" y="20.466101" x="40.566601"  gorn="0.4.7.0.0.0"/>
                </g>
            </g>
        </g>
        <circle style="fill:none;stroke:#9a916c;stroke-width:1.10267997" cx="3.5999999" id="connector6pin" connectorname="VIN" cy="46.799999" r="1.96866"  gorn="0.4.8"/>
        <circle style="fill:none;stroke:#9a916c;stroke-width:1.10267997" cx="10.8" id="connector7pin" connectorname="3.3V" cy="46.799999" r="1.96866"  gorn="0.4.9"/>
        <circle style="fill:none;stroke:#9a916c;stroke-width:1.10267997" cx="18" id="connector8pin" connectorname="GND" cy="46.799999" r="1.96866"  gorn="0.4.10"/>
        <circle style="fill:none;stroke:#9a916c;stroke-width:1.10267997" cx="25.200001" id="connector9pin" connectorname="SCK/SCL" cy="46.799999" r="1.96866"  gorn="0.4.11"/>
        <circle style="fill:none;stroke:#9a916c;stroke-width:1.10267997" cx="32.400002" id="connector10pin" connectorname="SDO/ADR" cy="46.799999" r="1.96866"  gorn="0.4.12"/>
        <circle style="fill:none;stroke:#9a916c;stroke-width:1.10267997" cx="39.599998" id="connector11pin" connectorname="SDI/SDA" cy="46.799999" r="1.96866"  gorn="0.4.13"/>
        <circle style="fill:none;stroke:#9a916c;stroke-width:1.10267997" cx="46.799999" id="connector12pin" connectorname="CS" cy="46.799999" r="1.96866"  gorn="0.4.14"/>
        <g  transform="matrix(-1,0,0,-1,51.4658,66.3307)">
            <g >
                <g id="g317"  gorn="0.4.15.0.0">
                    <rect style="fill:#9a916c;stroke:none;stroke-width:0" height="3.4015801" id="connector13pin" width="2.83465" y="31.4646" x="24.315599"  gorn="0.4.15.0.0.0"/>
                </g>
            </g>
        </g>
        <g  transform="matrix(-1,0,0,-1,40.6942,66.3307)">
            <g >
                <g id="g320"  gorn="0.4.16.0.0">
                    <rect style="fill:#9a916c;stroke:none;stroke-width:0" height="3.4015801" id="connector14pin" width="2.83465" y="31.4646" x="18.929701"  gorn="0.4.16.0.0.0"/>
                </g>
            </g>
        </g>
        <g  transform="matrix(-1,0,0,-1,46.08,77.6693)">
            <g >
                <g id="g323"  gorn="0.4.17.0.0">
                    <rect style="fill:#9a916c;stroke:none;stroke-width:0" height="3.4015801" id="connector15pin" width="2.83465" y="37.1339" x="21.6227"  gorn="0.4.17.0.0.0"/>
                </g>
            </g>
        </g>
        <g  transform="matrix(-1,0,0,-1,85.3056,64.1707)">
            <g >
                <g id="g326"  gorn="0.4.18.0.0">
                    <rect style="fill:#9a916c;stroke:none;stroke-width:0" height="3.4015801" id="connector16pin" width="2.83465" y="30.3846" x="41.2356"  gorn="0.4.18.0.0.0"/>
                </g>
            </g>
        </g>
        <g  transform="matrix(-1,0,0,-1,74.5344,64.1707)">
            <g >
                <g id="g329"  gorn="0.4.19.0.0">
                    <rect style="fill:#9a916c;stroke:none;stroke-width:0" height="3.4015801" id="connector17pin" width="2.83465" y="30.3846" x="35.849701"  gorn="0.4.19.0.0.0"/>
                </g>
            </g>
        </g>
        <g  transform="matrix(-1,0,0,-1,79.92,75.5093)">
            <g >
                <g id="g332"  gorn="0.4.20.0.0">
                    <rect style="fill:#9a916c;stroke:none;stroke-width:0" height="3.4015801" id="connector18pin" width="2.83465" y="36.053902" x="38.542702"  gorn="0.4.20.0.0.0"/>
                </g>
            </g>
        </g>
        <rect style="fill:#9a916c;stroke:none;stroke-width:0" height="4.2519698" id="connector19pin" width="3.68504" y="24.874001" x="35.424599"  gorn="0.4.21"/>
        <rect style="fill:#9a916c;stroke:none;stroke-width:0" height="4.2519698" id="connector20pin" width="3.68504" y="24.874001" x="40.810398"  gorn="0.4.22"/>
        <rect style="fill:#9a916c;stroke:none;stroke-width:0" height="4.2519698" id="connector21pin" width="3.68504" y="26.313999" x="18.504601"  gorn="0.4.23"/>
        <rect style="fill:#9a916c;stroke:none;stroke-width:0" height="4.2519698" id="connector22pin" width="3.68504" y="26.313999" x="23.8904"  gorn="0.4.24"/>
        <g  transform="matrix(0,1,-1,0,34.56,5.04)">
            <g >
                <g id="g339"  gorn="0.4.25.0.0">
                    <rect style="fill:#9a916c;stroke:none;stroke-width:0" height="3.68504" id="connector23pin" width="3.4015801" y="17.957399" x="13.0592"  gorn="0.4.25.0.0.0"/>
                </g>
            </g>
        </g>
        <g  transform="matrix(0,1,-1,0,40.32,10.8)">
            <g >
                <g id="g342"  gorn="0.4.26.0.0">
                    <rect style="fill:#9a916c;stroke:none;stroke-width:0" height="3.68504" id="connector24pin" width="3.4015801" y="23.7174" x="13.0592"  gorn="0.4.26.0.0.0"/>
                </g>
            </g>
        </g>
        <g  transform="matrix(0,-1,1,0,-23.2129,52.7329)">
            <g >
                <g id="g345"  gorn="0.4.27.0.0">
                    <rect style="fill:#9a916c;stroke:none;stroke-width:0" height="4.2519698" id="connector25pin" width="3.68504" y="35.846901" x="12.9174"  gorn="0.4.27.0.0.0"/>
                </g>
            </g>
        </g>
        <g  transform="matrix(0,-1,1,0,-17.8271,47.3471)">
            <g >
                <g id="g348"  gorn="0.4.28.0.0">
                    <rect style="fill:#9a916c;stroke:none;stroke-width:0" height="4.2519698" id="connector26pin" width="3.68504" y="30.4611" x="12.9174"  gorn="0.4.28.0.0.0"/>
                </g>
            </g>
        </g>
        <g  transform="matrix(0,-1,1,0,-7.01292,68.9329)">
            <g >
                <g id="g351"  gorn="0.4.29.0.0">
                    <rect style="fill:#9a916c;stroke:none;stroke-width:0" height="4.2519698" id="connector27pin" width="3.68504" y="35.846901" x="29.117399"  gorn="0.4.29.0.0.0"/>
                </g>
            </g>
        </g>
        <g  transform="matrix(0,-1,1,0,-1.62708,63.5471)">
            <g >
                <g id="g354"  gorn="0.4.30.0.0">
                    <rect style="fill:#9a916c;stroke:none;stroke-width:0" height="4.2519698" id="connector28pin" width="3.68504" y="30.4611" x="29.117399"  gorn="0.4.30.0.0.0"/>
                </g>
            </g>
        </g>
        <rect style="fill:#9a916c;stroke:none;stroke-width:0" height="2.83465" id="connector29pin" ry="1.41732" width="2.83465" y="12.9827" x="1.46268"  gorn="0.4.31" rx="1.41732"/>
        <circle style="fill:none;stroke:#9a916c;stroke-width:1.44000006" cx="7.1999998" id="connector30pin" connectorname="P$1" cy="7.1999998" r="3.83811"  gorn="0.4.32"/>
        <circle style="fill:none;stroke:#9a916c;stroke-width:1.44000006" cx="43.200001" id="connector31pin" connectorname="P$1" cy="7.1999998" r="3.83811"  gorn="0.4.33"/>
        <rect style="fill:#9a916c;stroke:none;stroke-width:0" height="2.83465" id="connector32pin" ry="1.41732" width="2.83465" y="35.662701" x="46.4627"  gorn="0.4.34" rx="1.41732"/>
        <g  transform="matrix(0,1,-1,0,49.5893,-6.33827)">
            <g >
                <g id="g361"  gorn="0.4.35.0.0">
                    <rect style="fill:#9a916c;stroke:none;stroke-width:0" height="0.99212402" id="connector33pin" width="1.98426" y="21.129499" x="26.9716"  gorn="0.4.35.0.0.0"/>
                </g>
            </g>
        </g>
        <g  transform="matrix(0,1,-1,0,47.7468,-4.49574)">
            <g >
                <g id="g364"  gorn="0.4.36.0.0">
                    <rect style="fill:#9a916c;stroke:none;stroke-width:0" height="0.99212402" id="connector34pin" width="1.98426" y="21.129499" x="25.1292"  gorn="0.4.36.0.0.0"/>
                </g>
            </g>
        </g>
        <g  transform="matrix(0,1,-1,0,45.9042,-2.65323)">
            <g >
                <g id="g367"  gorn="0.4.37.0.0">
                    <rect style="fill:#9a916c;stroke:none;stroke-width:0" height="0.99212402" id="connector35pin" width="1.98426" y="21.129499" x="23.2866"  gorn="0.4.37.0.0.0"/>
                </g>
            </g>
        </g>
        <g  transform="matrix(0,1,-1,0,44.0618,-0.810706)">
            <g >
                <g id="g370"  gorn="0.4.38.0.0">
                    <rect style="fill:#9a916c;stroke:none;stroke-width:0" height="0.99212402" id="connector36pin" width="1.98426" y="21.129499" x="21.444099"  gorn="0.4.38.0.0.0"/>
                </g>
            </g>
        </g>
        <g  transform="matrix(0,1,-1,0,38.2507,-6.62173)">
            <g >
                <g id="g373"  gorn="0.4.39.0.0">
                    <rect style="fill:#9a916c;stroke:none;stroke-width:0" height="0.99212402" id="connector37pin" width="1.98426" y="15.3184" x="21.444099"  gorn="0.4.39.0.0.0"/>
                </g>
            </g>
        </g>
        <g  transform="matrix(0,1,-1,0,40.0932,-8.46425)">
            <g >
                <g id="g376"  gorn="0.4.40.0.0">
                    <rect style="fill:#9a916c;stroke:none;stroke-width:0" height="0.99212402" id="connector38pin" width="1.98426" y="15.3184" x="23.2866"  gorn="0.4.40.0.0.0"/>
                </g>
            </g>
        </g>
        <g  transform="matrix(0,1,-1,0,41.9358,-10.3068)">
            <g >
                <g id="g379"  gorn="0.4.41.0.0">
                    <rect style="fill:#9a916c;stroke:none;stroke-width:0" height="0.99212402" id="connector39pin" width="1.98426" y="15.3184" x="25.1292"  gorn="0.4.41.0.0.0"/>
                </g>
            </g>
        </g>
        <g  transform="matrix(0,1,-1,0,43.7782,-12.1493)">
            <g >
                <g id="g382"  gorn="0.4.42.0.0">
                    <rect style="fill:#9a916c;stroke:none;stroke-width:0" height="0.99212402" id="connector40pin" width="1.98426" y="15.3184" x="26.9716"  gorn="0.4.42.0.0.0"/>
                </g>
            </g>
        </g>
        <rect style="fill:#9a916c;stroke:none;stroke-width:0" height="3.4015801" id="connector41pin" width="1.55905" y="30.4245" x="3.3675599"  gorn="0.4.43"/>
        <rect style="fill:#9a916c;stroke:none;stroke-width:0" height="3.4015801" id="connector42pin" width="1.55905" y="30.4245" x="6.0604701"  gorn="0.4.44"/>
        <rect style="fill:#9a916c;stroke:none;stroke-width:0" height="3.4015801" id="connector43pin" width="1.55905" y="30.4245" x="8.7533998"  gorn="0.4.45"/>
        <rect style="fill:#9a916c;stroke:none;stroke-width:0" height="3.4015801" id="connector44pin" width="1.55905" y="23.0539" x="8.7533998"  gorn="0.4.46"/>
        <rect style="fill:#9a916c;stroke:none;stroke-width:0" height="3.4015801" id="connector45pin" width="1.55905" y="23.0539" x="3.3675599"  gorn="0.4.47"/>
    </g>
    <g  transform="translate(3.6455,35.6685)">
        <g >
            <g id="0805-cap"  gorn="0.5.0.0">
                <path style="fill:#dcdcdc" d="m 5.386,3.543 -5.103,0 C 0.127,3.543 0,3.416 0,3.26 L 0,0.283 C 0,0.127 0.127,0 0.283,0 l 5.102,0 c 0.157,0 0.283,0.127 0.283,0.283 l 0,2.977 C 5.669,3.416 5.542,3.543 5.386,3.543 Z" id="path391"  gorn="0.5.0.0.0"/>
                <rect style="fill:#6e554b" height="3.543" id="rect393" width="3.543" y="0" x="1.063"  gorn="0.5.0.0.1"/>
            </g>
        </g>
    </g>
    <g  transform="translate(4.0055,18.0285)">
        <g >
            <g id="g395"  gorn="0.6.0.0">
                <path style="fill:#dcdcdc" d="m 5.386,3.543 -5.103,0 C 0.127,3.543 0,3.416 0,3.26 L 0,0.283 C 0,0.127 0.127,0 0.283,0 l 5.102,0 c 0.157,0 0.283,0.127 0.283,0.283 l 0,2.977 C 5.669,3.416 5.542,3.543 5.386,3.543 Z" id="path397"  gorn="0.6.0.0.0"/>
                <rect style="fill:#6e554b" height="3.543" id="rect399" width="3.543" y="0" x="1.063"  gorn="0.6.0.0.1"/>
            </g>
        </g>
    </g>
    <g  transform="translate(35.3365,19.8285)">
        <g >
            <g id="sod-323"  gorn="0.7.0.0">
                <g  transform="matrix(-1,0,0,-1,7.087,3.543)">
                    <g >
                        <g id="g402"  gorn="0.7.0.0.0.0.0">
                            <rect style="fill:#dcdcdc" height="0.850003" id="rect404" width="7.0869999" y="1.346" x="0"  gorn="0.7.0.0.0.0.0.0"/>
                            <rect style="fill:#303030" height="3.543" id="rect406" width="4.8189998" y="0" x="1.1339999"  gorn="0.7.0.0.0.0.0.1"/>
                        </g>
                    </g>
                </g>
            </g>
        </g>
    </g>
    <g  transform="translate(18.788,32.173)">
        <g >
            <g id="sot23-wide"  gorn="0.8.0.0">
                <g  transform="matrix(-1,0,0,-1,8.50399,7.65403)">
                    <g >
                        <g id="g409"  gorn="0.8.0.0.0.0.0">
                            <g id="g411"  gorn="0.8.0.0.0.0.0.0">
                                <rect style="fill:#dcdcdc" height="2.9760001" id="rect413" width="1.4170001" y="4.677" x="0.850003"  gorn="0.8.0.0.0.0.0.0.0"/>
                                <rect style="fill:#dcdcdc" height="2.9760001" id="rect415" width="1.4170001" y="4.677" x="6.2360001"  gorn="0.8.0.0.0.0.0.0.1"/>
                                <rect style="fill:#dcdcdc" height="3.118" id="rect417" width="1.4170001" y="0" x="3.543"  gorn="0.8.0.0.0.0.0.0.2"/>
                                <rect style="fill:#303030" height="3.6849999" id="rect419" width="8.5039902" y="1.984" x="0"  gorn="0.8.0.0.0.0.0.0.3"/>
                            </g>
                        </g>
                    </g>
                </g>
            </g>
        </g>
    </g>
    <g  transform="translate(35.708,31.093)">
        <g >
            <g id="g421"  gorn="0.9.0.0">
                <g  transform="matrix(-1,0,0,-1,8.50399,7.65403)">
                    <g >
                        <g id="g423"  gorn="0.9.0.0.0.0.0">
                            <g id="g425"  gorn="0.9.0.0.0.0.0.0">
                                <rect style="fill:#dcdcdc" height="2.9760001" id="rect427" width="1.4170001" y="4.677" x="0.850003"  gorn="0.9.0.0.0.0.0.0.0"/>
                                <rect style="fill:#dcdcdc" height="2.9760001" id="rect429" width="1.4170001" y="4.677" x="6.2360001"  gorn="0.9.0.0.0.0.0.0.1"/>
                                <rect style="fill:#dcdcdc" height="3.118" id="rect431" width="1.4170001" y="0" x="3.543"  gorn="0.9.0.0.0.0.0.0.2"/>
                                <rect style="fill:#303030" height="3.6849999" id="rect433" width="8.5039902" y="1.984" x="0"  gorn="0.9.0.0.0.0.0.0.3"/>
                            </g>
                        </g>
                    </g>
                </g>
            </g>
        </g>
    </g>
    <g  transform="translate(37.1255,25.2285)">
        <g >
            <g id="0805-res"  gorn="0.10.0.0">
                <path style="fill:#dcdcdc" d="m 5.386,3.543 -5.103,0 C 0.127,3.543 0,3.416 0,3.26 L 0,0.283 C 0,0.127 0.127,0 0.283,0 l 5.102,0 c 0.157,0 0.283,0.127 0.283,0.283 l 0,2.977 C 5.669,3.416 5.542,3.543 5.386,3.543 Z" id="path436"  gorn="0.10.0.0.0"/>
                <rect style="fill:#333333" height="3.543" id="rect438" width="3.543" y="0" x="1.063"  gorn="0.10.0.0.1"/>
            </g>
        </g>
    </g>
    <g  transform="translate(20.2055,26.6685)">
        <g >
            <g id="g440"  gorn="0.11.0.0">
                <path style="fill:#dcdcdc" d="m 5.386,3.543 -5.103,0 C 0.127,3.543 0,3.416 0,3.26 L 0,0.283 C 0,0.127 0.127,0 0.283,0 l 5.102,0 c 0.157,0 0.283,0.127 0.283,0.283 l 0,2.977 C 5.669,3.416 5.542,3.543 5.386,3.543 Z" id="path442"  gorn="0.11.0.0.0"/>
                <rect style="fill:#333333" height="3.543" id="rect444" width="3.543" y="0" x="1.063"  gorn="0.11.0.0.1"/>
            </g>
        </g>
    </g>
    <g  transform="translate(11.9255,20.9085)">
        <g >
            <g id="g446"  gorn="0.12.0.0">
                <g  transform="matrix(0,1,-1,0,4.606,-1.063)">
                    <g >
                        <g id="g448"  gorn="0.12.0.0.0.0.0">
                            <path style="fill:#dcdcdc" d="m 5.386,3.543 -5.103,0 C 0.127,3.543 0,3.416 0,3.26 L 0,0.283 C 0,0.127 0.127,0 0.283,0 l 5.102,0 c 0.157,0 0.283,0.127 0.283,0.283 l 0,2.977 C 5.669,3.416 5.542,3.543 5.386,3.543 Z" id="path450"  gorn="0.12.0.0.0.0.0.0"/>
                            <rect style="fill:#333333" height="3.543" id="rect452" width="3.543" y="0" x="1.063"  gorn="0.12.0.0.0.0.0.1"/>
                        </g>
                    </g>
                </g>
            </g>
        </g>
    </g>
    <g  transform="translate(11.9255,33.5085)">
        <g >
            <g id="g454"  gorn="0.13.0.0">
                <g  transform="matrix(0,-1,1,0,1.063,4.606)">
                    <g >
                        <g id="g456"  gorn="0.13.0.0.0.0.0">
                            <path style="fill:#dcdcdc" d="m 5.386,3.543 -5.103,0 C 0.127,3.543 0,3.416 0,3.26 L 0,0.283 C 0,0.127 0.127,0 0.283,0 l 5.102,0 c 0.157,0 0.283,0.127 0.283,0.283 l 0,2.977 C 5.669,3.416 5.542,3.543 5.386,3.543 Z" id="path458"  gorn="0.13.0.0.0.0.0.0"/>
                            <rect style="fill:#333333" height="3.543" id="rect460" width="3.543" y="0" x="1.063"  gorn="0.13.0.0.0.0.0.1"/>
                        </g>
                    </g>
                </g>
            </g>
        </g>
    </g>
    <g  transform="translate(28.1255,33.5085)">
        <g >
            <g id="g462"  gorn="0.14.0.0">
                <g  transform="matrix(0,-1,1,0,1.063,4.606)">
                    <g >
                        <g id="g464"  gorn="0.14.0.0.0.0.0">
                            <path style="fill:#dcdcdc" d="m 5.386,3.543 -5.103,0 C 0.127,3.543 0,3.416 0,3.26 L 0,0.283 C 0,0.127 0.127,0 0.283,0 l 5.102,0 c 0.157,0 0.283,0.127 0.283,0.283 l 0,2.977 C 5.669,3.416 5.542,3.543 5.386,3.543 Z" id="path466"  gorn="0.14.0.0.0.0.0.0"/>
                            <rect style="fill:#333333" height="3.543" id="rect468" width="3.543" y="0" x="1.063"  gorn="0.14.0.0.0.0.0.1"/>
                        </g>
                    </g>
                </g>
            </g>
        </g>
    </g>
    <g  transform="translate(40.6821,11.8263)">
        <g >
            <g id="adafruit_2.5mm"  gorn="0.15.0.0">
                <path style="fill:#9fbbe0" d="M 9.747,3.082 C 9.724,2.94 9.647,2.899 9.461,2.839 9.31903,2.794 8.37202,2.492 8.37202,2.492 c 0,0 -0.66,-0.249 -1.15,0.103 C 7.156,2.643 7.088,2.697 7.019,2.755 7.077,2.686 7.131,2.618 7.178,2.552 7.53,2.062 7.279,1.402 7.279,1.402 7.279,1.402 6.976,0.455 6.93,0.313 6.87,0.127 6.83,0.05 6.687,0.028 6.545,0.005 6.483,0.066 6.369,0.225 6.282,0.345 5.702,1.153 5.702,1.153 c 0,0 -0.441,0.551 -0.257,1.126 C 5.47,2.356 5.5,2.438 5.534,2.521 5.486,2.445 5.438,2.372 5.39,2.307 5.032,1.821 4.328,1.855 4.328,1.855 c 0,0 -0.995,-0.004 -1.143,-0.004 -0.195,0 -0.281,0.014 -0.347,0.143 -0.065,0.128 -0.027,0.206 0.089,0.364 0.088,0.12 0.677,0.921002 0.677,0.921002 0,0 0.388,0.59 0.991001,0.592 0.081,0 0.168,-0.003 0.257,-0.01 C 4.765,3.883 4.681,3.907 4.604,3.932 4.031,4.122 3.845998,4.802998 3.845998,4.802998 3.845998,4.802998 3.536,5.747 3.489,5.888 3.428,6.074 3.416,6.16 3.518,6.262 3.62,6.364 3.706,6.352 3.892,6.29 4.033,6.244 4.977,5.931 4.977,5.931 c 0,0 0.681,-0.187 0.868997,-0.760003 0.025,-0.077 0.049,-0.16 0.07,-0.247 C 5.91,5.014 5.907,5.1 5.907,5.181 c 0.004,0.603 0.594,0.99 0.594,0.99 0,0 0.802001,0.588 0.922003,0.675 C 7.58102,6.962 7.659,7 7.78802,6.935 7.91597,6.869 7.93102,6.783 7.93001,6.588 7.929,6.439 7.92403,5.445 7.92403,5.445 7.92403,5.445 7.95701,4.74 7.47,4.383 7.40498,4.335 7.33198,4.287 7.25602,4.24 c 0.083,0.034 0.165,0.064 0.242,0.088 0.575,0.183 1.125,-0.259 1.125,-0.259 0,0 0.80696,-0.5809998 0.92699,-0.6679998 C 9.70898,3.286 9.76903,3.224 9.747,3.082 Z M 6.322,2.35 C 6.43,2.367 6.484,2.598 6.442,2.865 6.4,3.132 6.278,3.335 6.169,3.318 6.061,3.301 6.007,3.07 6.049,2.803 6.091,2.535 6.213,2.332 6.322,2.35 Z M 4.933,3.059 C 4.983,2.961 5.219,2.981 5.46,3.104 5.701,3.227 5.857,3.406 5.807,3.503 5.757,3.601 5.521,3.581 5.28,3.458 5.038,3.335 4.883,3.157 4.933,3.059 Z M 5.665,4.393 C 5.474,4.584 5.256,4.677 5.178,4.599 5.101,4.521 5.193,4.303 5.384,4.112 5.575,3.92 5.793,3.827 5.871,3.905 5.949,3.983 5.857,4.201 5.665,4.393 Z M 6.719,4.842 C 6.6210001,4.892 6.442,4.737 6.319,4.496 6.196,4.254 6.175,4.018 6.273,3.968 6.371,3.918 6.55,4.073 6.673,4.314 6.796,4.556 6.817,4.792 6.719,4.842 Z M 6.973,3.725 C 6.706,3.767 6.475,3.714 6.457,3.606 6.44,3.497 6.643,3.375 6.91,3.332 7.177,3.289 7.408,3.343 7.425,3.451 7.443,3.56 7.24003,3.682 6.973,3.725 Z" id="path471"  gorn="0.15.0.0.0"/>
            </g>
        </g>
    </g>
    <g  transform="translate(22.3654,15.078219)">
        <g >
            <g id="bme280"  gorn="0.16.0.0">
                <g  transform="matrix(0,1,-1,0,6.37795,0.70866)">
                    <g >
                        <g id="g474"  gorn="0.16.0.0.0.0.0">
                            <metadata id="metadata15" >
                                <rdf:RDF xmlns:rdf="http://www.w3.org/1999/02/22-rdf-syntax-ns#">
                                    <cc:Work xmlns:cc="http://creativecommons.org/ns#" rdf:about="" xmlns:rdf="http://www.w3.org/1999/02/22-rdf-syntax-ns#">
                                        <dc:format xmlns:dc="http://purl.org/dc/elements/1.1/">image/svg+xml</dc:format>
                                        <dc:type rdf:resource="http://purl.org/dc/dcmitype/StillImage" xmlns:dc="http://purl.org/dc/elements/1.1/" xmlns:rdf="http://www.w3.org/1999/02/22-rdf-syntax-ns#"/>
                                        <dc:title xmlns:dc="http://purl.org/dc/elements/1.1/"/>
                                    </cc:Work>
                                </rdf:RDF>
                            </metadata>
                            <defs id="defs13" />
                            <g  transform="matrix(1.56238,0,0,1.44742,-0.708661,-3.79797)">
                                <g >
                                    <g id="g3350"  gorn="0.16.0.0.0.0.0.2.0.0">
                                        <g  transform="matrix(0.941756,0,0,0.932305,0,0.475924)">
                                            <g >
                                                <g id="g3346"  gorn="0.16.0.0.0.0.0.2.0.0.0.0.0"/>
                                            </g>
                                        </g>
                                        <g  transform="matrix(0,1.07942,-0.926421,0,6.96668,2.62397)">
                                            <g >
                                                <g id="g3339"  gorn="0.16.0.0.0.0.0.2.0.0.1.0.0">
                                                    <g  transform="matrix(0.941756,0,0,0.932305,0,0.475924)">
                                                        <g >
                                                            <path style="fill:#b4b4b4" d="M 0,6.4616 0,3.39797 C 0,3.08348 0.250848,2.82917 0.561046,2.82917 l 3.69423,0 c 0.309406,0 0.561046,0.254318 0.561046,0.568805 l 0,3.06362 C 4.81632,6.77528 4.56547,7.0304 4.25527,7.0304 l -3.69423,0 C 0.250848,7.0296 0,6.77528 0,6.4616 Z" id="path5"  nodetypes="ssssssscs" gorn="0.16.0.0.0.0.0.2.0.0.1.0.0.0.0.0"/>
                                                        </g>
                                                    </g>
                                                    <g  transform="matrix(0.941756,0,0,0.932305,0,0.475924)">
                                                        <g >
                                                            <path style="fill:#dcdcdc" d="M 0.376726,3.40126 C 0.376722,3.2761 0.477223,3.17341 0.600669,3.17341 l 3.68217,0 c 0.123446,0 0.22394,0.10269 0.223944,0.227843 l 7.34e-5,3.03826 c 3.1e-6,0.125153 -0.100498,0.227843 -0.223944,0.227843 l -3.68216996,0 c -0.123446,0 -0.22394,-0.10269 -0.223944,-0.227843 z" id="path7"  nodetypes="sssssssss" gorn="0.16.0.0.0.0.0.2.0.0.1.0.0.1.0.0"/>
                                                        </g>
                                                    </g>
                                                    <ellipse cx="1.18454" id="circle9" ry="0.49099001" cy="4.20502"  gorn="0.16.0.0.0.0.0.2.0.0.1.0.0.2" rx="0.44865799"/>
                                                </g>
                                            </g>
                                        </g>
                                    </g>
                                </g>
                            </g>
                        </g>
                    </g>
                </g>
            </g>
        </g>
    </g>
    <g  transform="translate(2.72999,24.613)">
        <g >
            <g id="sot23-5"  gorn="0.17.0.0">
                <g id="g486"  gorn="0.17.0.0.0">
                    <rect style="fill:#dcdcdc" height="7.6540298" id="rect488" width="1.1339999" y="0" x="0.850003"  gorn="0.17.0.0.0.0"/>
                    <rect style="fill:#dcdcdc" height="7.6540298" id="rect490" width="1.1339999" y="0" x="6.2360001"  gorn="0.17.0.0.0.1"/>
                    <rect style="fill:#dcdcdc" height="3.118" id="rect492" width="1.1339999" y="4.5349998" x="3.543"  gorn="0.17.0.0.0.2"/>
                    <rect style="fill:#303030" height="4.5349998" id="rect494" width="8.2200203" y="1.559" x="0"  gorn="0.17.0.0.0.3"/>
                </g>
            </g>
        </g>
    </g>
</svg>
