<?xml version='1.0' encoding='UTF-8' standalone='no'?>
<!-- Created with Fritzing (http://www.fritzing.org/) -->
<svg xmlns="http://www.w3.org/2000/svg" height="0.75in" id="svg2" width="0.7in" y="0in" x="0in"  viewBox="0 0 50.4 54" version="1.2" gorn="0">
    <desc id="desc4899" >
        <referenceFile >Adafruit_BME280_breadboard.svg</referenceFile>
    </desc>
    <metadata id="metadata500" >
        <rdf:RDF xmlns:rdf="http://www.w3.org/1999/02/22-rdf-syntax-ns#">
            <cc:Work xmlns:cc="http://creativecommons.org/ns#" rdf:about="" xmlns:rdf="http://www.w3.org/1999/02/22-rdf-syntax-ns#">
                <dc:title xmlns:dc="http://purl.org/dc/elements/1.1/"/>
            </cc:Work>
        </rdf:RDF>
    </metadata>
    <defs id="defs498" />
    <desc id="desc4" >Fritzing breadboard generated by brd2svg</desc>
    <path d="M 43.2,54 H 7.2 A 7.2,7.2 0 0 1 0,46.8 V 7.2 A 7.2,7.2 0 0 1 7.2,0 h 36 a 7.2,7.2 0 0 1 7.2,7.2 V 46.8 A 7.2,7.2 0 0 1 43.2,54 M 2.18268,46.8 a 1.417325,1.417325 0 1 0 2.83465,0 1.417325,1.417325 0 1 0 -2.83465,0 z m 7.2,0 a 1.417325,1.417325 0 1 0 2.83465,0 1.417325,1.417325 0 1 0 -2.83465,0 z m 7.20002,0 a 1.417325,1.417325 0 1 0 2.83465,0 1.417325,1.417325 0 1 0 -2.83465,0 z m 7.2,0 a 1.417325,1.417325 0 1 0 2.83465,0 1.417325,1.417325 0 1 0 -2.83465,0 z m 7.2,0 a 1.417325,1.417325 0 1 0 2.83465,0 1.417325,1.417325 0 1 0 -2.83465,0 z m 7.2,0 a 1.417325,1.417325 0 1 0 2.83465,0 1.417325,1.417325 0 1 0 -2.83465,0 z m 7.2,0 a 1.417325,1.417325 0 1 0 2.83465,0 1.417325,1.417325 0 1 0 -2.83465,0 z M 4.08189,7.2 a 3.11811,3.11811 0 1 0 6.23622,0 3.11811,3.11811 0 1 0 -6.23622,0 z m 36.00001,0 a 3.11811,3.11811 0 1 0 6.23622,0 3.11811,3.11811 0 1 0 -6.23622,0 z" id="path8" stroke="none" fill="#014cb1"  stroke-width="0" gorn="0.4"/>
    <g  transform="matrix(1,0,0,0.99999255,2.1009934,-0.08935776)">
        <g >
            <g >
                <g id="g14"  gorn="0.5.0.0.0">
                    <title id="title16" >text:BME280</title>
                    <text style="font-family:OCRA;text-anchor:start;" font-size="3.3408" id="text18" stroke="none" fill="#ffffff" y="6.1199999" x="16.200001"  stroke-width="0" gorn="0.5.0.0.0.1">MPRLS</text>
                </g>
            </g>
        </g>
    </g>
    <g id="g20"  gorn="0.6">
        <title id="title22" >text:VIN</title>
        <text style="font-family:OCRA;text-anchor:end;" font-size="2.67264" id="text24" stroke="none" fill="#ffffff" y="44.020802" x="7.5599999"  stroke-width="0" gorn="0.6.1">VIN</text>
    </g>
    <g id="g26"  gorn="0.7">
        <title id="title28" >text:3Vo</title>
        <text style="font-family:OCRA;text-anchor:end;" font-size="2.67264" id="text30" stroke="none" fill="#ffffff" y="53.380798" x="14.4"  stroke-width="0" gorn="0.7.1">3Vo</text>
    </g>
    <g id="g32"  gorn="0.8">
        <title id="title34" >text:GND</title>
        <text style="font-family:OCRA;text-anchor:end;" font-size="2.67264" id="text36" stroke="none" fill="#ffffff" y="44.020802" x="22.32"  stroke-width="0" gorn="0.8.1">GND</text>
    </g>
    <g id="g38"  gorn="0.9">
        <title id="title40" >text:SCK</title>
        <text style="font-family:OCRA;text-anchor:end;" font-size="2.67264" id="text42" stroke="none" fill="#ffffff" y="53.380798" x="29.16"  stroke-width="0" gorn="0.9.1">SCL</text>
    </g>
    <g id="g44"  gorn="0.10">
        <title id="title46" >text:SDO</title>
        <text style="font-family:OCRA;text-anchor:end;" font-size="2.67264" id="text48" stroke="none" fill="#ffffff" y="44.020802" x="36.720001"  stroke-width="0" gorn="0.10.1">SDA</text>
    </g>
    <g id="g50"  gorn="0.11">
        <title id="title52" >text:EOC</title>
        <text style="font-family:OCRA;text-anchor:end;" font-size="2.67264" id="text54" stroke="none" fill="#ffffff" y="53.380798" x="43.200001"  stroke-width="0" gorn="0.11.1">EOC</text>
    </g>
    <g id="g56"  gorn="0.12">
        <title id="title58" >text:CS</title>
        <text style="font-family:OCRA;text-anchor:end;" font-size="2.67264" id="text60" stroke="none" fill="#ffffff" y="44.020802" x="49.68"  stroke-width="0" gorn="0.12.1">RST</text>
    </g>
    <g id="g62"  gorn="0.13">
        <title id="title64" >text:Pressure
Temp+Humidity</title>
        <g  transform="translate(0,-1.58688)">
            <g >
                <g >
                    <g id="g4933"  gorn="0.13.1.0.0.0">
                        <g id="g66"  gorn="0.13.1.0.0.0.0">
                            <text style="font-family:OCRA;text-anchor:middle;" font-size="2.53901" id="text68" stroke="none" fill="#ffffff" y="12.7469" x="25.92"  stroke-width="0" gorn="0.13.1.0.0.0.0.0">Pressure</text>
                        </g>
                    </g>
                </g>
            </g>
        </g>
        <g  transform="translate(0,1.58688)">
            <g >
                <g >
                    <g id="g4937"  gorn="0.13.2.0.0.0">
                        <g id="g70"  gorn="0.13.2.0.0.0.0">
                            <text style="font-family:OCRA;text-anchor:middle;" font-size="2.53901" id="text72" stroke="none" fill="#ffffff" y="12.7469" x="25.92"  stroke-width="0" gorn="0.13.2.0.0.0.0.0"/>
                        </g>
                    </g>
                </g>
            </g>
        </g>
    </g>
    <g id="g118"  gorn="0.14">
        <title id="title120" >element:JP2</title>
        <g id="g122"  gorn="0.14.1">
            <title id="title124" >package:1X07_ROUND_70</title>
        </g>
    </g>
    <g id="g212"  gorn="0.15">
        <title id="title214" >element:U$2</title>
        <g id="g216"  gorn="0.15.1">
            <title id="title218" >package:ADAFRUIT_2.5MM</title>
        </g>
    </g>
    <g id="g220"  gorn="0.16">
        <title id="title222" >element:U$5</title>
        <g id="g224"  gorn="0.16.1">
            <title id="title226" >package:FIDUCIAL_1MM</title>
        </g>
    </g>
    <g id="g228"  gorn="0.17">
        <title id="title230" >element:U$6</title>
        <g id="g232"  gorn="0.17.1">
            <title id="title234" >package:ADAFRUIT_2.5MM</title>
        </g>
    </g>
    <g id="g236"  gorn="0.18">
        <title id="title238" >element:U$7</title>
        <g id="g240"  gorn="0.18.1">
            <title id="title242" >package:MOUNTINGHOLE_2.0_PLATED</title>
            <circle cx="7.1999998" id="circle244" stroke="#ffffff" fill="none" cy="7.1999998" r="5.1023598"  stroke-width="0.57599998" gorn="0.18.1.1"/>
        </g>
    </g>
    <g id="g246"  gorn="0.19">
        <title id="title248" >element:U$8</title>
        <g id="g250"  gorn="0.19.1">
            <title id="title252" >package:MOUNTINGHOLE_2.0_PLATED</title>
            <circle cx="43.200001" id="circle254" stroke="#ffffff" fill="none" cy="7.1999998" r="5.1023598"  stroke-width="0.57599998" gorn="0.19.1.1"/>
        </g>
    </g>
    <g id="g256"  gorn="0.20">
        <title id="title258" >element:U$15</title>
        <g id="g260"  gorn="0.20.1">
            <title id="title262" >package:FIDUCIAL_1MM</title>
        </g>
    </g>
    <g id="g264"  gorn="0.21">
        <title id="title266" >element:U$20</title>
        <g id="g268"  gorn="0.21.1">
            <title id="title270" >package:PCBFEAT-REV-040</title>
        </g>
    </g>
    <circle cx="3.5999999" id="connector6pin" stroke="#9a916c" fill="none" connectorname="VIN" r="1.96866" cy="46.799999"  stroke-width="1.10267997" gorn="0.22"/>
    <circle cx="10.8" id="connector7pin" stroke="#9a916c" fill="none" connectorname="3.3V" r="1.96866" cy="46.799999"  stroke-width="1.10267997" gorn="0.23"/>
    <circle cx="18" id="connector8pin" stroke="#9a916c" fill="none" connectorname="GND" r="1.96866" cy="46.799999"  stroke-width="1.10267997" gorn="0.24"/>
    <circle cx="25.200001" id="connector9pin" stroke="#9a916c" fill="none" connectorname="SCK/SCL" r="1.96866" cy="46.799999"  stroke-width="1.10267997" gorn="0.25"/>
    <circle cx="32.400002" id="connector10pin" stroke="#9a916c" fill="none" connectorname="SDO/ADR" r="1.96866" cy="46.799999"  stroke-width="1.10267997" gorn="0.26"/>
    <circle cx="39.599998" id="connector11pin" stroke="#9a916c" fill="none" connectorname="SDI/SDA" r="1.96866" cy="46.799999"  stroke-width="1.10267997" gorn="0.27"/>
    <circle cx="46.799999" id="connector12pin" stroke="#9a916c" fill="none" connectorname="CS" r="1.96866" cy="46.799999"  stroke-width="1.10267997" gorn="0.28"/>
    <circle cx="7.1999998" id="connector30pin" stroke="#9a916c" fill="none" connectorname="P$1" r="3.83811" cy="7.1999998"  stroke-width="1.44000006" gorn="0.29"/>
    <circle cx="43.200001" id="connector31pin" stroke="#9a916c" fill="none" connectorname="P$1" r="3.83811" cy="7.1999998"  stroke-width="1.44000006" gorn="0.30"/>
    <g  transform="translate(40.6821,11.8263)">
        <g >
            <g >
                <g id="g5243"  gorn="0.31.0.0.0">
                    <g id="adafruit_2.5mm"  gorn="0.31.0.0.0.0">
                        <path style="fill:#9fbbe0" d="M 9.747,3.082 C 9.724,2.94 9.647,2.899 9.461,2.839 9.31903,2.794 8.37202,2.492 8.37202,2.492 c 0,0 -0.66,-0.249 -1.15,0.103 C 7.156,2.643 7.088,2.697 7.019,2.755 7.077,2.686 7.131,2.618 7.178,2.552 7.53,2.062 7.279,1.402 7.279,1.402 7.279,1.402 6.976,0.455 6.93,0.313 6.87,0.127 6.83,0.05 6.687,0.028 6.545,0.005 6.483,0.066 6.369,0.225 6.282,0.345 5.702,1.153 5.702,1.153 c 0,0 -0.441,0.551 -0.257,1.126 C 5.47,2.356 5.5,2.438 5.534,2.521 5.486,2.445 5.438,2.372 5.39,2.307 5.032,1.821 4.328,1.855 4.328,1.855 c 0,0 -0.995,-0.004 -1.143,-0.004 -0.195,0 -0.281,0.014 -0.347,0.143 -0.065,0.128 -0.027,0.206 0.089,0.364 0.088,0.12 0.677,0.921002 0.677,0.921002 0,0 0.388,0.59 0.991001,0.592 0.081,0 0.168,-0.003 0.257,-0.01 C 4.765,3.883 4.681,3.907 4.604,3.932 4.031,4.122 3.845998,4.802998 3.845998,4.802998 3.845998,4.802998 3.536,5.747 3.489,5.888 3.428,6.074 3.416,6.16 3.518,6.262 3.62,6.364 3.706,6.352 3.892,6.29 4.033,6.244 4.977,5.931 4.977,5.931 c 0,0 0.681,-0.187 0.868997,-0.760003 0.025,-0.077 0.049,-0.16 0.07,-0.247 C 5.91,5.014 5.907,5.1 5.907,5.181 c 0.004,0.603 0.594,0.99 0.594,0.99 0,0 0.802001,0.588 0.922003,0.675 C 7.58102,6.962 7.659,7 7.78802,6.935 7.91597,6.869 7.93102,6.783 7.93001,6.588 7.929,6.439 7.92403,5.445 7.92403,5.445 7.92403,5.445 7.95701,4.74 7.47,4.383 7.40498,4.335 7.33198,4.287 7.25602,4.24 c 0.083,0.034 0.165,0.064 0.242,0.088 0.575,0.183 1.125,-0.259 1.125,-0.259 0,0 0.80696,-0.5809998 0.92699,-0.6679998 C 9.70898,3.286 9.76903,3.224 9.747,3.082 Z M 6.322,2.35 C 6.43,2.367 6.484,2.598 6.442,2.865 6.4,3.132 6.278,3.335 6.169,3.318 6.061,3.301 6.007,3.07 6.049,2.803 6.091,2.535 6.213,2.332 6.322,2.35 Z M 4.933,3.059 C 4.983,2.961 5.219,2.981 5.46,3.104 5.701,3.227 5.857,3.406 5.807,3.503 5.757,3.601 5.521,3.581 5.28,3.458 5.038,3.335 4.883,3.157 4.933,3.059 Z M 5.665,4.393 C 5.474,4.584 5.256,4.677 5.178,4.599 5.101,4.521 5.193,4.303 5.384,4.112 5.575,3.92 5.793,3.827 5.871,3.905 5.949,3.983 5.857,4.201 5.665,4.393 Z M 6.719,4.842 C 6.6210001,4.892 6.442,4.737 6.319,4.496 6.196,4.254 6.175,4.018 6.273,3.968 6.371,3.918 6.55,4.073 6.673,4.314 6.796,4.556 6.817,4.792 6.719,4.842 Z M 6.973,3.725 C 6.706,3.767 6.475,3.714 6.457,3.606 6.44,3.497 6.643,3.375 6.91,3.332 7.177,3.289 7.408,3.343 7.425,3.451 7.443,3.56 7.24003,3.682 6.973,3.725 Z" id="path471"  gorn="0.31.0.0.0.0.0"/>
                    </g>
                </g>
            </g>
        </g>
    </g>
</svg>
