<?xml version='1.0' encoding='UTF-8' standalone='no'?>
<svg xmlns="http://www.w3.org/2000/svg" width="153" version="1.2" height="189" viewBox="0 0 122.4 151.2">
 <defs/>
 <desc>Fritzing schematic generated by brd2svg</desc>
 <g id="schematic">
  <rect width="93.15" x="14.4" y="14.4" fill="none" height="122.4" stroke="#000000" stroke-linejoin="round" stroke-linecap="round" stroke-width="0.9"/>
  <text x="61.2" y="61.5" font-family="&apos;Droid Sans&apos;" text-anchor="middle" id="label" font-size="3.5">3.5in</text>
  <text x="61.2" y="65" font-family="&apos;Droid Sans&apos;" text-anchor="middle" id="label" font-size="3.5">TFT</text>
  <text x="61.2" y="68.5" font-family="&apos;Droid Sans&apos;" text-anchor="middle" id="label" font-size="3.5">480x320</text>
  <text x="61.2" y="72" font-family="&apos;Droid Sans&apos;" text-anchor="middle" id="label" font-size="3.5">Touch</text>
  <text x="61.2" y="75.4999" font-family="&apos;Droid Sans&apos;" text-anchor="middle" id="label" font-size="3.5">+</text>
  <text x="61.2" y="78.9998" font-family="&apos;Droid Sans&apos;" text-anchor="middle" id="label" font-size="3.5">MicroSD</text>
  <line fill="none" stroke="#787878" stroke-linejoin="round" stroke-linecap="round" y1="36" stroke-width="0.699998" x1="0.349999" y2="36" x2="14.4"/>
  <rect width="14.4" y="35.65" fill="none" height="0.699998" id="connector109pin" stroke-width="0" connectorName="Card Detect"/>
  <rect width="0" y="35.65" fill="none" height="0.699998" id="connector109terminal" stroke-width="0"/>
  <text x="15.8" y="36.7" font-family="&apos;Droid Sans&apos;" fill="#8c8c8c" text-anchor="start" id="label109" font-size="3.5">Card Detect</text>
  <line fill="none" stroke="#787878" stroke-linejoin="round" stroke-linecap="round" y1="43.2" stroke-width="0.699998" x1="0.349999" y2="43.2" x2="14.4"/>
  <rect width="14.4" y="42.85" fill="none" height="0.699998" id="connector108pin" stroke-width="0" connectorName="Card CS"/>
  <rect width="0" y="42.85" fill="none" height="0.699998" id="connector108terminal" stroke-width="0"/>
  <text x="15.8" y="43.9" font-family="&apos;Droid Sans&apos;" fill="#8c8c8c" text-anchor="start" id="label108" font-size="3.5">Card CS</text>
  <line fill="none" stroke="#787878" stroke-linejoin="round" stroke-linecap="round" y1="50.4" stroke-width="0.699998" x1="0.349999" y2="50.4" x2="14.4"/>
  <rect width="14.4" y="50.05" fill="none" height="0.699998" id="connector72pin" stroke-width="0" connectorName="CS"/>
  <rect width="0" y="50.05" fill="none" height="0.699998" id="connector72terminal" stroke-width="0"/>
  <text x="15.8" y="51.1" font-family="&apos;Droid Sans&apos;" fill="#8c8c8c" text-anchor="start" id="label72" font-size="3.5">CS</text>
  <line fill="none" stroke="#787878" stroke-linejoin="round" stroke-linecap="round" y1="57.6" stroke-width="0.699998" x1="0.349999" y2="57.6" x2="14.4"/>
  <rect width="14.4" y="57.25" fill="none" height="0.699998" id="connector73pin" stroke-width="0" connectorName="C/D"/>
  <rect width="0" y="57.25" fill="none" height="0.699998" id="connector73terminal" stroke-width="0"/>
  <text x="15.8" y="58.3" font-family="&apos;Droid Sans&apos;" fill="#8c8c8c" text-anchor="start" id="label73" font-size="3.5">C/D</text>
  <line fill="none" stroke="#787878" stroke-linejoin="round" stroke-linecap="round" y1="64.8" stroke-width="0.699998" x1="0.349999" y2="64.8" x2="14.4"/>
  <rect width="14.4" y="64.45" fill="none" height="0.699998" id="connector74pin" stroke-width="0" connectorName="WR/SPI CLK"/>
  <rect width="0" y="64.45" fill="none" height="0.699998" id="connector74terminal" stroke-width="0"/>
  <text x="15.8" y="65.5" font-family="&apos;Droid Sans&apos;" fill="#8c8c8c" text-anchor="start" id="label74" font-size="3.5">WR/SPI CLK</text>
  <line fill="none" stroke="#787878" stroke-linejoin="round" stroke-linecap="round" y1="72" stroke-width="0.699998" x1="0.349999" y2="72" x2="14.4"/>
  <rect width="14.4" y="71.65" fill="none" height="0.699998" id="connector94pin" stroke-width="0" connectorName="MISO"/>
  <rect width="0" y="71.65" fill="none" height="0.699998" id="connector94terminal" stroke-width="0"/>
  <text x="15.8" y="72.6998" font-family="&apos;Droid Sans&apos;" fill="#8c8c8c" text-anchor="start" id="label94" font-size="3.5">MISO</text>
  <line fill="none" stroke="#787878" stroke-linejoin="round" stroke-linecap="round" y1="79.2" stroke-width="0.699998" x1="0.349999" y2="79.2" x2="14.4"/>
  <rect width="14.4" y="78.8501" fill="none" height="0.699998" id="connector95pin" stroke-width="0" connectorName="MOSI"/>
  <rect width="0" y="78.8501" fill="none" height="0.699998" id="connector95terminal" stroke-width="0"/>
  <text x="15.8" y="79.8998" font-family="&apos;Droid Sans&apos;" fill="#8c8c8c" text-anchor="start" id="label95" font-size="3.5">MOSI</text>
  <line fill="none" stroke="#787878" stroke-linejoin="round" stroke-linecap="round" y1="86.4" stroke-width="0.699998" x1="0.349999" y2="86.4" x2="14.4"/>
  <rect width="14.4" y="86.0501" fill="none" height="0.699998" id="connector77pin" stroke-width="0" connectorName="Backlite/Lite"/>
  <rect width="0" y="86.0501" fill="none" height="0.699998" id="connector77terminal" stroke-width="0"/>
  <text x="15.8" y="87.0998" font-family="&apos;Droid Sans&apos;" fill="#8c8c8c" text-anchor="start" id="label77" font-size="3.5">Backlite/Lite</text>
  <line fill="none" stroke="#787878" stroke-linejoin="round" stroke-linecap="round" y1="93.6" stroke-width="0.699998" x1="0.349999" y2="93.6" x2="14.4"/>
  <rect width="14.4" y="93.2501" fill="none" height="0.699998" id="connector78pin" stroke-width="0" connectorName="LCD_X+"/>
  <rect width="0" y="93.2501" fill="none" height="0.699998" id="connector78terminal" stroke-width="0"/>
  <text x="15.8" y="94.2998" font-family="&apos;Droid Sans&apos;" fill="#8c8c8c" text-anchor="start" id="label78" font-size="3.5">LCD_X+</text>
  <line fill="none" stroke="#787878" stroke-linejoin="round" stroke-linecap="round" y1="100.8" stroke-width="0.699998" x1="0.349999" y2="100.8" x2="14.4"/>
  <rect width="14.4" y="100.45" fill="none" height="0.699998" id="connector80pin" stroke-width="0" connectorName="LCD_X-"/>
  <rect width="0" y="100.45" fill="none" height="0.699998" id="connector80terminal" stroke-width="0"/>
  <text x="15.8" y="101.5" font-family="&apos;Droid Sans&apos;" fill="#8c8c8c" text-anchor="start" id="label80" font-size="3.5">LCD_X-</text>
  <line fill="none" stroke="#787878" stroke-linejoin="round" stroke-linecap="round" y1="108" stroke-width="0.699998" x1="0.349999" y2="108" x2="14.4"/>
  <rect width="14.4" y="107.65" fill="none" height="0.699998" id="connector79pin" stroke-width="0" connectorName="LCD_Y+"/>
  <rect width="0" y="107.65" fill="none" height="0.699998" id="connector79terminal" stroke-width="0"/>
  <text x="15.8" y="108.7" font-family="&apos;Droid Sans&apos;" fill="#8c8c8c" text-anchor="start" id="label79" font-size="3.5">LCD_Y+</text>
  <line fill="none" stroke="#787878" stroke-linejoin="round" stroke-linecap="round" y1="115.2" stroke-width="0.699998" x1="0.349999" y2="115.2" x2="14.4"/>
  <rect width="14.4" y="114.85" fill="none" height="0.699998" id="connector81pin" stroke-width="0" connectorName="LCD_Y-"/>
  <rect width="0" y="114.85" fill="none" height="0.699998" id="connector81terminal" stroke-width="0"/>
  <text x="15.8" y="115.9" font-family="&apos;Droid Sans&apos;" fill="#8c8c8c" text-anchor="start" id="label81" font-size="3.5">LCD_Y-</text>
  <line fill="none" stroke="#787878" stroke-linejoin="round" stroke-linecap="round" y1="36" stroke-width="0.699998" x1="107.65" y2="36" x2="122.05"/>
  <rect width="14.4" x="108" y="35.65" fill="none" connectorname="RST" height="0.699998" id="connector76pin" stroke-width="0"/>
  <rect width="0" x="122.4" y="35.65" fill="none" height="0.699998" id="connector76terminal" stroke-width="0"/>
  <text x="106.6" y="36.7" font-family="&apos;Droid Sans&apos;" fill="#8c8c8c" text-anchor="end" id="label76" font-size="3.5">RST</text>
  <line fill="none" stroke="#787878" stroke-linejoin="round" stroke-linecap="round" y1="43.2" stroke-width="0.699998" x1="107.65" y2="43.2" x2="122.05"/>
  <rect width="14.4" x="108" y="42.85" fill="none" connectorname="RD" height="0.699998" id="connector75pin" stroke-width="0"/>
  <rect width="0" x="122.4" y="42.85" fill="none" height="0.699998" id="connector75terminal" stroke-width="0"/>
  <text x="106.6" y="43.9" font-family="&apos;Droid Sans&apos;" fill="#8c8c8c" text-anchor="end" id="label75" font-size="3.5">RD</text>
  <line fill="none" stroke="#787878" stroke-linejoin="round" stroke-linecap="round" y1="50.4" stroke-width="0.699998" x1="107.65" y2="50.4" x2="122.05"/>
  <rect width="14.4" x="108" y="50.05" fill="none" connectorname="LCD_DATA0_5V" height="0.699998" id="connector82pin" stroke-width="0"/>
  <rect width="0" x="122.4" y="50.05" fill="none" height="0.699998" id="connector82terminal" stroke-width="0"/>
  <text x="106.6" y="51.1" font-family="&apos;Droid Sans&apos;" fill="#8c8c8c" text-anchor="end" id="label82" font-size="3.5">LCD_DATA0_5V</text>
  <line fill="none" stroke="#787878" stroke-linejoin="round" stroke-linecap="round" y1="57.6" stroke-width="0.699998" x1="107.65" y2="57.6" x2="122.05"/>
  <rect width="14.4" x="108" y="57.25" fill="none" connectorname="LCD_DATA1_5V" height="0.699998" id="connector83pin" stroke-width="0"/>
  <rect width="0" x="122.4" y="57.25" fill="none" height="0.699998" id="connector83terminal" stroke-width="0"/>
  <text x="106.6" y="58.3" font-family="&apos;Droid Sans&apos;" fill="#8c8c8c" text-anchor="end" id="label83" font-size="3.5">LCD_DATA1_5V</text>
  <line fill="none" stroke="#787878" stroke-linejoin="round" stroke-linecap="round" y1="64.8" stroke-width="0.699998" x1="107.65" y2="64.8" x2="122.05"/>
  <rect width="14.4" x="108" y="64.45" fill="none" connectorname="LCD_DATA2_5V" height="0.699998" id="connector84pin" stroke-width="0"/>
  <rect width="0" x="122.4" y="64.45" fill="none" height="0.699998" id="connector84terminal" stroke-width="0"/>
  <text x="106.6" y="65.5" font-family="&apos;Droid Sans&apos;" fill="#8c8c8c" text-anchor="end" id="label84" font-size="3.5">LCD_DATA2_5V</text>
  <line fill="none" stroke="#787878" stroke-linejoin="round" stroke-linecap="round" y1="72" stroke-width="0.699998" x1="107.65" y2="72" x2="122.05"/>
  <rect width="14.4" x="108" y="71.65" fill="none" connectorname="LCD_DATA3_5V" height="0.699998" id="connector85pin" stroke-width="0"/>
  <rect width="0" x="122.4" y="71.65" fill="none" height="0.699998" id="connector85terminal" stroke-width="0"/>
  <text x="106.6" y="72.6998" font-family="&apos;Droid Sans&apos;" fill="#8c8c8c" text-anchor="end" id="label85" font-size="3.5">LCD_DATA3_5V</text>
  <line fill="none" stroke="#787878" stroke-linejoin="round" stroke-linecap="round" y1="79.2" stroke-width="0.699998" x1="107.65" y2="79.2" x2="122.05"/>
  <rect width="14.4" x="108" y="78.8501" fill="none" connectorname="LCD_DATA4_5V" height="0.699998" id="connector86pin" stroke-width="0"/>
  <rect width="0" x="122.4" y="78.8501" fill="none" height="0.699998" id="connector86terminal" stroke-width="0"/>
  <text x="106.6" y="79.8998" font-family="&apos;Droid Sans&apos;" fill="#8c8c8c" text-anchor="end" id="label86" font-size="3.5">LCD_DATA4_5V</text>
  <line fill="none" stroke="#787878" stroke-linejoin="round" stroke-linecap="round" y1="86.4" stroke-width="0.699998" x1="107.65" y2="86.4" x2="122.05"/>
  <rect width="14.4" x="108" y="86.0501" fill="none" connectorname="LCD_DATA5_5V" height="0.699998" id="connector87pin" stroke-width="0"/>
  <rect width="0" x="122.4" y="86.0501" fill="none" height="0.699998" id="connector87terminal" stroke-width="0"/>
  <text x="106.6" y="87.0998" font-family="&apos;Droid Sans&apos;" fill="#8c8c8c" text-anchor="end" id="label87" font-size="3.5">LCD_DATA5_5V</text>
  <line fill="none" stroke="#787878" stroke-linejoin="round" stroke-linecap="round" y1="93.6" stroke-width="0.699998" x1="107.65" y2="93.6" x2="122.05"/>
  <rect width="14.4" x="108" y="93.2501" fill="none" connectorname="LCD_DATA6_5V" height="0.699998" id="connector88pin" stroke-width="0"/>
  <rect width="0" x="122.4" y="93.2501" fill="none" height="0.699998" id="connector88terminal" stroke-width="0"/>
  <text x="106.6" y="94.2998" font-family="&apos;Droid Sans&apos;" fill="#8c8c8c" text-anchor="end" id="label88" font-size="3.5">LCD_DATA6_5V</text>
  <line fill="none" stroke="#787878" stroke-linejoin="round" stroke-linecap="round" y1="100.8" stroke-width="0.699998" x1="107.65" y2="100.8" x2="122.05"/>
  <rect width="14.4" x="108" y="100.45" fill="none" connectorname="LCD_DATA7_5V" height="0.699998" id="connector89pin" stroke-width="0"/>
  <rect width="0" x="122.4" y="100.45" fill="none" height="0.699998" id="connector89terminal" stroke-width="0"/>
  <text x="106.6" y="101.5" font-family="&apos;Droid Sans&apos;" fill="#8c8c8c" text-anchor="end" id="label89" font-size="3.5">LCD_DATA7_5V</text>
  <line fill="none" stroke="#787878" stroke-linejoin="round" stroke-linecap="round" y1="108" stroke-width="0.699998" x1="107.65" y2="108" x2="122.05"/>
  <rect width="14.4" x="108" y="107.65" fill="none" connectorname="IM0" height="0.699998" id="connector107pin" stroke-width="0"/>
  <rect width="0" x="122.4" y="107.65" fill="none" height="0.699998" id="connector107terminal" stroke-width="0"/>
  <text x="106.6" y="108.7" font-family="&apos;Droid Sans&apos;" fill="#8c8c8c" text-anchor="end" id="label107" font-size="3.5">IM0</text>
  <line fill="none" stroke="#787878" stroke-linejoin="round" stroke-linecap="round" y1="115.2" stroke-width="0.699998" x1="107.65" y2="115.2" x2="122.05"/>
  <rect width="14.4" x="108" y="114.85" fill="none" connectorname="IM1" height="0.699998" id="connector106pin" stroke-width="0"/>
  <rect width="0" x="122.4" y="114.85" fill="none" height="0.699998" id="connector106terminal" stroke-width="0"/>
  <text x="106.6" y="115.9" font-family="&apos;Droid Sans&apos;" fill="#8c8c8c" text-anchor="end" id="label106" font-size="3.5">IM1</text>
  <line fill="none" stroke="#787878" stroke-linejoin="round" stroke-linecap="round" y1="122.4" stroke-width="0.699998" x1="107.65" y2="122.4" x2="122.05"/>
  <rect width="14.4" x="108" y="122.05" fill="none" connectorname="IM2" height="0.699998" id="connector105pin" stroke-width="0"/>
  <rect width="0" x="122.4" y="122.05" fill="none" height="0.699998" id="connector105terminal" stroke-width="0"/>
  <text x="106.6" y="123.1" font-family="&apos;Droid Sans&apos;" fill="#8c8c8c" text-anchor="end" id="label105" font-size="3.5">IM2</text>
  <line fill="none" stroke="#787878" stroke-linejoin="round" stroke-linecap="round" y1="0.349999" stroke-width="0.699998" x1="57.6" y2="14.4" x2="57.6"/>
  <rect width="0.699998" x="57.25" fill="none" connectorname="3-5V" height="14.4" id="connector71pin" stroke-width="0"/>
  <rect width="0.699998" x="57.25" fill="none" height="0" id="connector71terminal" stroke-width="0"/>
  <text x="0" y="0" font-family="&apos;Droid Sans&apos;" fill="#8c8c8c" text-anchor="end" id="label71" font-size="3.5" transform="matrix(0 -1 1 0 59 16)">3-5V</text>
  <line fill="none" stroke="#787878" stroke-linejoin="round" stroke-linecap="round" y1="0.349999" stroke-width="0.699998" x1="64.8" y2="14.4" x2="64.8"/>
  <rect width="0.699998" x="64.45" fill="none" connectorname="3.3V out" height="14.4" id="connector92pin" stroke-width="0"/>
  <rect width="0.699998" x="64.45" fill="none" height="0" id="connector92terminal" stroke-width="0"/>
  <text x="0" y="0" font-family="&apos;Droid Sans&apos;" fill="#8c8c8c" text-anchor="end" id="label92" font-size="3.5" transform="matrix(0 -1 1 0 66.2 16)">3.3V out</text>
  <line fill="none" stroke="#787878" stroke-linejoin="round" stroke-linecap="round" y1="136.8" stroke-width="0.699998" x1="57.6" y2="150.85" x2="57.6"/>
  <rect width="0.699998" x="57.25" y="136.8" fill="none" connectorname="GND" height="14.4" id="connector70pin" stroke-width="0"/>
  <rect width="0.699998" x="57.25" y="151.2" fill="none" height="0" id="connector70terminal" stroke-width="0"/>
  <text x="0" y="0" font-family="&apos;Droid Sans&apos;" fill="#8c8c8c" id="label70" font-size="3.5" transform="matrix(0 -1 1 0 59 135.2)">GND</text>
  <rect width="0.699998" x="57.25" fill="none" connectorname="3-5V" height="14.4" id="connector91pin" stroke-width="0"/>
  <rect width="0.699998" x="57.25" fill="none" height="0" id="connector91terminal" stroke-width="0"/>
  <rect width="0.699998" x="64.45" fill="none" connectorname="3.3V out" height="14.4" id="connector126pin" stroke-width="0"/>
  <rect width="0.699998" x="64.45" fill="none" height="0" id="connector126terminal" stroke-width="0"/>
  <rect width="0.699998" x="57.25" y="136.8" fill="none" connectorname="GND" height="14.4" id="connector90pin" stroke-width="0"/>
  <rect width="0.699998" x="57.25" y="151.2" fill="none" height="0" id="connector90terminal" stroke-width="0"/>
  <rect width="0.699998" x="57.25" y="136.8" fill="none" connectorname="GND" height="14.4" id="connector104pin" stroke-width="0"/>
  <rect width="0.699998" x="57.25" y="151.2" fill="none" height="0" id="connector104terminal" stroke-width="0"/>
  <rect width="14.4" y="50.05" fill="none" height="0.699998" id="connector96pin" stroke-width="0" connectorName="CS"/>
  <rect width="0" y="50.05" fill="none" height="0.699998" id="connector96terminal" stroke-width="0"/>
  <rect width="14.4" y="57.25" fill="none" height="0.699998" id="connector97pin" stroke-width="0" connectorName="C/D"/>
  <rect width="0" y="57.25" fill="none" height="0.699998" id="connector97terminal" stroke-width="0"/>
  <rect width="14.4" y="64.45" fill="none" height="0.699998" id="connector93pin" stroke-width="0" connectorName="WR/SPI CLK"/>
  <rect width="0" y="64.45" fill="none" height="0.699998" id="connector93terminal" stroke-width="0"/>
  <rect width="14.4" y="86.0501" fill="none" height="0.699998" id="connector99pin" stroke-width="0" connectorName="Backlite/Lite"/>
  <rect width="0" y="86.0501" fill="none" height="0.699998" id="connector99terminal" stroke-width="0"/>
  <rect width="14.4" y="93.2501" fill="none" height="0.699998" id="connector101pin" stroke-width="0" connectorName="LCD_X+"/>
  <rect width="0" y="93.2501" fill="none" height="0.699998" id="connector101terminal" stroke-width="0"/>
  <rect width="14.4" y="100.45" fill="none" height="0.699998" id="connector103pin" stroke-width="0" connectorName="LCD_X-"/>
  <rect width="0" y="100.45" fill="none" height="0.699998" id="connector103terminal" stroke-width="0"/>
  <rect width="14.4" y="107.65" fill="none" height="0.699998" id="connector100pin" stroke-width="0" connectorName="LCD_Y+"/>
  <rect width="0" y="107.65" fill="none" height="0.699998" id="connector100terminal" stroke-width="0"/>
  <rect width="14.4" y="114.85" fill="none" height="0.699998" id="connector102pin" stroke-width="0" connectorName="LCD_Y-"/>
  <rect width="0" y="114.85" fill="none" height="0.699998" id="connector102terminal" stroke-width="0"/>
  <rect width="14.4" x="108" y="35.65" fill="none" connectorname="RST" height="0.699998" id="connector98pin" stroke-width="0"/>
  <rect width="0" x="122.4" y="35.65" fill="none" height="0.699998" id="connector98terminal" stroke-width="0"/>
  <rect width="14.4" x="108" y="122.05" fill="none" connectorname="IM2" height="0.699998" id="connector127pin" stroke-width="0"/>
  <rect width="0" x="122.4" y="122.05" fill="none" height="0.699998" id="connector127terminal" stroke-width="0"/>
 </g>
</svg>
