<?xml version="1.0" encoding="utf-8"?>
<!-- Generator: Adobe Illustrator 20.0.0, SVG Export Plug-In . SVG Version: 6.00 Build 0)  -->
<svg version="1.2" baseProfile="tiny" id="Layer_1" xmlns="http://www.w3.org/2000/svg" xmlns:xlink="http://www.w3.org/1999/xlink"
	 x="0px" y="0px" width="57.6px" height="72px" viewBox="0 0 57.6 72" xml:space="preserve">
<desc>
	<referenceFile>9dof rev a_schematic.svg</referenceFile>
</desc>
<desc>Fritzing schematic generated by brd2svg</desc>
<g id="schematic">
	
		<rect x="14.4" y="14.4" fill="none" stroke="#000000" stroke-width="0.9" stroke-linecap="round" stroke-linejoin="round" width="28.35" height="43.2"/>
	<text id="label" transform="matrix(1 0 0 1 22.3663 33.1371)" font-family="'DroidSans'" font-size="3.5px">Adafruit</text>
	<text transform="matrix(1 0 0 1 24.8021 36.6371)" font-family="'DroidSans'" font-size="3.5px">F</text>
	<text transform="matrix(1 0 0 1 26.5213 36.6371)" font-family="'DroidSans'" font-size="3.5px">l</text>
	<text transform="matrix(1 0 0 1 27.4271 36.6371)" font-family="'DroidSans'" font-size="3.5px">o</text>
	<text transform="matrix(1 0 0 1 29.4471 36.6371)" font-family="'DroidSans'" font-size="3.5px">r</text>
	<text transform="matrix(1 0 0 1 30.8089 36.6371)" font-family="'DroidSans'" font-size="3.5px">a</text>
	<text id="label_2_" transform="matrix(1 0 0 1 21.0756 40.1371)" font-family="'DroidSans'" font-size="3.5px">LSM9DSO</text>
	
		<line fill="none" stroke="#787878" stroke-width="0.7" stroke-linecap="round" stroke-linejoin="round" x1="0.35" y1="28.8" x2="14.4" y2="28.8"/>
	<rect id="connector17pin" x="0" y="28.45" fill="none" width="14.4" height="0.7"/>
	<rect id="connector17terminal" x="0" y="28.45" fill="none" width="0" height="0.7"/>
	<text id="label17" transform="matrix(1 0 0 1 15.8 29.5)" fill="#8C8C8C" font-family="'DroidSans'" font-size="3.5px">SCL</text>
	
		<line fill="none" stroke="#787878" stroke-width="0.7" stroke-linecap="round" stroke-linejoin="round" x1="42.85" y1="28.8" x2="57.25" y2="28.8"/>
	<rect id="connector19pin" x="43.2" y="28.45" fill="none" width="14.4" height="0.7"/>
	<rect id="connector19terminal" x="57.6" y="28.45" fill="none" width="0" height="0.7"/>
	<text transform="matrix(1 0 0 1 35.4955 29.5)" fill="#8C8C8C" font-family="'DroidSans'" font-size="3.5px">S</text>
	<text transform="matrix(1 0 0 1 37.312 29.5)" fill="#8C8C8C" font-family="'DroidSans'" font-size="3.5px">D</text>
	<text transform="matrix(1 0 0 1 39.6723 29.5)" fill="#8C8C8C" font-family="'DroidSans'" font-size="3.5px">A</text>
	
		<line fill="none" stroke="#787878" stroke-width="0.7" stroke-linecap="round" stroke-linejoin="round" x1="28.8" y1="0.35" x2="28.8" y2="14.4"/>
	<rect id="connector45pin" x="28.45" fill="none" width="0.7" height="14.4"/>
	<polygon id="connector45terminal" fill="none" points="28.45,0 29.15,0 29.15,0 	"/>
	<g transform="matrix(1, 0, 0, 1, 30.2, 16)">
		<g>
			<g>
				<g transform="rotate(270)">
					<g>
						<g>
							
								<text id="label45" transform="matrix(1 0 0 1 -6.7812 1.120703e-05)" fill="#8C8C8C" font-family="'DroidSans'" font-size="3.5px">3.3V</text>
						</g>
					</g>
				</g>
			</g>
		</g>
	</g>
	
		<line fill="none" stroke="#787878" stroke-width="0.7" stroke-linecap="round" stroke-linejoin="round" x1="28.8" y1="57.6" x2="28.8" y2="71.65"/>
	<rect id="connector8pin" x="28.45" y="57.6" fill="none" width="0.7" height="14.4"/>
	<polygon id="connector8terminal" fill="none" points="28.45,72 29.15,72 29.15,72 	"/>
	<g transform="matrix(1, 0, 0, 1, 30.2, 56)">
		<g>
			<g>
				<g transform="rotate(270)">
					<g>
						<g>
							<text id="label8" transform="matrix(1 0 0 1 0 1.120703e-05)" fill="#8C8C8C" font-family="'DroidSans'" font-size="3.5px">GND</text>
						</g>
					</g>
				</g>
			</g>
		</g>
	</g>
	<rect id="connector18pin" x="0" y="28.45" fill="none" width="14.4" height="0.7"/>
	<rect id="connector18terminal" x="0" y="28.45" fill="none" width="0" height="0.7"/>
	<rect id="connector20pin" x="43.2" y="28.45" fill="none" width="14.4" height="0.7"/>
	<rect id="connector20terminal" x="57.6" y="28.45" fill="none" width="0" height="0.7"/>
</g>
</svg>
