<?xml version='1.0' encoding='utf-8'?>
<!-- Generator: Adobe Illustrator 20.0.0, SVG Export Plug-In . SVG Version: 6.00 Build 0)  -->
<svg xmlns="http://www.w3.org/2000/svg" x="0px" y="0px" id="Layer_1" baseProfile="tiny"  height="1.5in" xmlns:xml="http://www.w3.org/XML/1998/namespace" viewBox="0 0 86.4 108" version="1.2" xml:space="preserve" width="1.2in" gorn="0">
    <desc >
        <referenceFile >Adafruit FONA 808_schematic.svg</referenceFile>
    </desc>
    <desc >Fritzing schematic generated by brd2svg</desc>
    <g id="schematic"  gorn="0.2">
        <rect x="14.4" y="14.4" stroke-linejoin="round" fill="none"  height="79.2" stroke-width="0.9" stroke-linecap="round" width="57.15" stroke="#000000"/>
        <g  transform="matrix(1 0 0 1 36.8315 43.4)">
            <g >
                <text font-family="'DroidSans'" id="label"  font-size="2.8" gorn="0.2.1.0.0">Adafruit</text>
            </g>
        </g>
        <g  transform="matrix(1 0 0 1 38.702 46.9)">
            <g >
                <text font-family="'DroidSans'" id="label_1_"  font-size="2.8" gorn="0.2.2.0.0">FONA</text>
            </g>
        </g>
        <g  transform="matrix(1 0 0 1 40.3084 50.4)">
            <g >
                <text font-family="'DroidSans'" id="label_2_"  font-size="2.8" gorn="0.2.3.0.0">808</text>
            </g>
        </g>
        <line x1="0.35" y2="28.8" stroke-linejoin="round" fill="none"  stroke-width="0.7" stroke-linecap="round" y1="28.8" x2="14.4" stroke="#787878"/>
        <rect y="28.45" id="connector94pin" fill="none"  height="0.7" width="14.4" gorn="0.2.5"/>
        <rect y="28.45" id="connector94terminal" fill="none"  height="0.7" width="0" gorn="0.2.6"/>
        <g  transform="matrix(1 0 0 1 15.8 29.5)">
            <g >
                <text font-family="'DroidSans'" id="label94" fill="#8C8C8C"  font-size="2.8" gorn="0.2.7.0.0">Reset</text>
            </g>
        </g>
        <line x1="0.35" y2="36" stroke-linejoin="round" fill="none"  stroke-width="0.7" stroke-linecap="round" y1="36" x2="14.4" stroke="#787878"/>
        <rect y="35.65" id="connector95pin" fill="none"  height="0.7" width="14.4" gorn="0.2.9"/>
        <rect y="35.65" id="connector95terminal" fill="none"  height="0.7" width="0" gorn="0.2.10"/>
        <g  transform="matrix(1 0 0 1 15.8 36.7)">
            <g >
                <text font-family="'DroidSans'" id="label95" fill="#8C8C8C"  font-size="2.8" gorn="0.2.11.0.0">RXD</text>
            </g>
        </g>
        <line x1="0.35" y2="43.2" stroke-linejoin="round" fill="none"  stroke-width="0.7" stroke-linecap="round" y1="43.2" x2="14.4" stroke="#787878"/>
        <rect y="42.85" id="connector96pin" fill="none"  height="0.7" width="14.4" gorn="0.2.13"/>
        <rect y="42.85" id="connector96terminal" fill="none"  height="0.7" width="0" gorn="0.2.14"/>
        <g  transform="matrix(1 0 0 1 15.8 43.9)">
            <g >
                <text font-family="'DroidSans'" id="label96" fill="#8C8C8C"  font-size="2.8" gorn="0.2.15.0.0">TXD</text>
            </g>
        </g>
        <line x1="0.35" y2="50.4" stroke-linejoin="round" fill="none"  stroke-width="0.7" stroke-linecap="round" y1="50.4" x2="14.4" stroke="#787878"/>
        <rect y="50.05" id="connector97pin" fill="none"  height="0.7" width="14.4" gorn="0.2.17"/>
        <rect y="50.05" id="connector97terminal" fill="none"  height="0.7" width="0" gorn="0.2.18"/>
        <g  transform="matrix(1 0 0 1 15.8 51.1)">
            <g >
                <text font-family="'DroidSans'" fill="#8C8C8C"  font-size="2.8">R</text>
            </g>
        </g>
        <g  transform="matrix(1 0 0 1 17.8303 51.1)">
            <g >
                <text font-family="'DroidSans'" fill="#8C8C8C"  font-size="2.8">T</text>
            </g>
        </g>
        <g  transform="matrix(1 0 0 1 19.6125 51.1)">
            <g >
                <text font-family="'DroidSans'" fill="#8C8C8C"  font-size="2.8">S</text>
            </g>
        </g>
        <line x1="0.35" y2="57.6" stroke-linejoin="round" fill="none"  stroke-width="0.7" stroke-linecap="round" y1="57.6" x2="14.4" stroke="#787878"/>
        <rect y="57.25" id="connector98pin" fill="none"  height="0.7" width="14.4" gorn="0.2.23"/>
        <rect y="57.25" id="connector98terminal" fill="none"  height="0.7" width="0" gorn="0.2.24"/>
        <g  transform="matrix(1 0 0 1 15.8 58.3)">
            <g >
                <text font-family="'DroidSans'" id="label98" fill="#8C8C8C"  font-size="2.8" gorn="0.2.25.0.0">Key</text>
            </g>
        </g>
        <line x1="0.35" y2="64.8" stroke-linejoin="round" fill="none"  stroke-width="0.7" stroke-linecap="round" y1="64.8" x2="14.4" stroke="#787878"/>
        <rect y="64.45" id="connector99pin" fill="none"  height="0.7" width="14.4" gorn="0.2.27"/>
        <rect y="64.45" id="connector99terminal" fill="none"  height="0.7" width="0" gorn="0.2.28"/>
        <g  transform="matrix(1 0 0 1 15.8 65.5)">
            <g >
                <text font-family="'DroidSans'" id="label99" fill="#8C8C8C"  font-size="2.8" gorn="0.2.29.0.0">RI</text>
            </g>
        </g>
        <line x1="0.35" y2="72" stroke-linejoin="round" fill="none"  stroke-width="0.7" stroke-linecap="round" y1="72" x2="14.4" stroke="#787878"/>
        <rect y="71.65" id="connector100pin" fill="none"  height="0.7" width="14.4" gorn="0.2.31"/>
        <rect y="71.65" id="connector100terminal" fill="none"  height="0.7" width="0" gorn="0.2.32"/>
        <g  transform="matrix(1 0 0 1 15.8 72.6998)">
            <g >
                <text font-family="'DroidSans'" id="label100" fill="#8C8C8C"  font-size="2.8" gorn="0.2.33.0.0">PwrStat</text>
            </g>
        </g>
        <line x1="0.35" y2="79.2" stroke-linejoin="round" fill="none"  stroke-width="0.7" stroke-linecap="round" y1="79.2" x2="14.4" stroke="#787878"/>
        <rect y="78.85" id="connector101pin" fill="none"  height="0.7" width="14.4" gorn="0.2.35"/>
        <rect y="78.85" id="connector101terminal" fill="none"  height="0.7" width="0" gorn="0.2.36"/>
        <g  transform="matrix(1 0 0 1 15.8 79.8998)">
            <g >
                <text font-family="'DroidSans'" id="label101" fill="#8C8C8C"  font-size="2.8" gorn="0.2.37.0.0">NetStat</text>
            </g>
        </g>
        <line x1="71.65" y2="28.8" stroke-linejoin="round" fill="none"  stroke-width="0.7" stroke-linecap="round" y1="28.8" x2="86.05" stroke="#787878"/>
        <rect x="72" y="28.45" id="connector102pin" fill="none"  height="0.7" width="14.4" gorn="0.2.39"/>
        <rect x="86.4" y="28.45" id="connector102terminal" fill="none"  height="0.7" width="0" gorn="0.2.40"/>
        <g  transform="matrix(1 0 0 1 63.101 29.5)">
            <g >
                <text font-family="'DroidSans'" id="label102" fill="#8C8C8C"  font-size="2.8" gorn="0.2.41.0.0">Mic+</text>
            </g>
        </g>
        <line x1="71.65" y2="36" stroke-linejoin="round" fill="none"  stroke-width="0.7" stroke-linecap="round" y1="36" x2="86.05" stroke="#787878"/>
        <rect x="72" y="35.65" id="connector103pin" fill="none"  height="0.7" width="14.4" gorn="0.2.43"/>
        <rect x="86.4" y="35.65" id="connector103terminal" fill="none"  height="0.7" width="0" gorn="0.2.44"/>
        <g  transform="matrix(1 0 0 1 63.9025 36.7)">
            <g >
                <text font-family="'DroidSans'" id="label103" fill="#8C8C8C"  font-size="2.8" gorn="0.2.45.0.0">Mic-</text>
            </g>
        </g>
        <line x1="71.65" y2="43.2" stroke-linejoin="round" fill="none"  stroke-width="0.7" stroke-linecap="round" y1="43.2" x2="86.05" stroke="#787878"/>
        <rect x="72" y="42.85" id="connector104pin" fill="none"  height="0.7" width="14.4" gorn="0.2.47"/>
        <rect x="86.4" y="42.85" id="connector104terminal" fill="none"  height="0.7" width="0" gorn="0.2.48"/>
        <g  transform="matrix(1 0 0 1 56.0685 43.9)">
            <g >
                <text font-family="'DroidSans'" id="label104" fill="#8C8C8C"  font-size="2.8" gorn="0.2.49.0.0">Speaker+</text>
            </g>
        </g>
        <line x1="71.65" y2="50.4" stroke-linejoin="round" fill="none"  stroke-width="0.7" stroke-linecap="round" y1="50.4" x2="86.05" stroke="#787878"/>
        <rect x="72" y="50.05" id="connector105pin" fill="none"  height="0.7" width="14.4" gorn="0.2.51"/>
        <rect x="86.4" y="50.05" id="connector105terminal" fill="none"  height="0.7" width="0" gorn="0.2.52"/>
        <g  transform="matrix(1 0 0 1 56.87 51.1)">
            <g >
                <text font-family="'DroidSans'" id="label105" fill="#8C8C8C"  font-size="2.8" gorn="0.2.53.0.0">Speaker-</text>
            </g>
        </g>
        <line x1="71.65" y2="57.6" stroke-linejoin="round" fill="none"  stroke-width="0.7" stroke-linecap="round" y1="57.6" x2="86.05" stroke="#787878"/>
        <rect x="72" y="57.25" id="connector0pin" fill="none"  height="0.7" width="14.4" gorn="0.2.55"/>
        <rect x="86.4" y="57.25" id="connector0terminal" fill="none"  height="0.7" width="0" gorn="0.2.56"/>
        <g  transform="matrix(1 0 0 1 63.9674 58.3)">
            <g >
                <text font-family="'DroidSans'" id="label0" fill="#8C8C8C"  font-size="2.8" gorn="0.2.57.0.0">ADC</text>
            </g>
        </g>
        <line x1="71.65" y2="64.8" stroke-linejoin="round" fill="none"  stroke-width="0.7" stroke-linecap="round" y1="64.8" x2="86.05" stroke="#787878"/>
        <rect x="72" y="64.45" id="connector108pin" fill="none"  height="0.7" width="14.4" gorn="0.2.59"/>
        <rect x="86.4" y="64.45" id="connector108terminal" fill="none"  height="0.7" width="0" gorn="0.2.60"/>
        <g  transform="matrix(1 0 0 1 62.4447 65.5)">
            <g >
                <text font-family="'DroidSans'" id="label108" fill="#8C8C8C"  font-size="2.8" gorn="0.2.61.0.0">PWM</text>
            </g>
        </g>
        <line x1="71.65" y2="72" stroke-linejoin="round" fill="none"  stroke-width="0.7" stroke-linecap="round" y1="72" x2="86.05" stroke="#787878"/>
        <rect x="72" y="71.65" id="connector89pin" fill="none"  height="0.7" width="14.4" gorn="0.2.63"/>
        <rect x="86.4" y="71.65" id="connector89terminal" fill="none"  height="0.7" width="0" gorn="0.2.64"/>
        <g  transform="matrix(1 0 0 1 58.0817 72.6998)">
            <g >
                <text font-family="'DroidSans'" id="label89" fill="#8C8C8C"  font-size="2.8" gorn="0.2.65.0.0">Buzzer+</text>
            </g>
        </g>
        <line x1="71.65" y2="79.2" stroke-linejoin="round" fill="none"  stroke-width="0.7" stroke-linecap="round" y1="79.2" x2="86.05" stroke="#787878"/>
        <rect x="72" y="78.85" id="connector88pin" fill="none"  height="0.7" width="14.4" gorn="0.2.67"/>
        <rect x="86.4" y="78.85" id="connector88terminal" fill="none"  height="0.7" width="0" gorn="0.2.68"/>
        <g  transform="matrix(1 0 0 1 58.8832 79.8998)">
            <g >
                <text font-family="'DroidSans'" id="label88" fill="#8C8C8C"  font-size="2.8" gorn="0.2.69.0.0">Buzzer-</text>
            </g>
        </g>
        <line x1="43.2" y2="14.4" stroke-linejoin="round" fill="none"  stroke-width="0.7" stroke-linecap="round" y1="0.35" x2="43.2" stroke="#787878"/>
        <rect x="42.85" id="connector90pin" fill="none"  height="14.4" width="0.7" gorn="0.2.71"/>
        <polygon id="connector90terminal" fill="none"  points="42.85,0 43.55,0 43.55,0 " gorn="0.2.72"/>
        <g  transform="matrix(1, 0, 0, 1, 44.6, 16)">
            <g >
                <g >
                    <g  transform="rotate(270)">
                        <g >
                            <g >
                                <g  transform="matrix(1 0 0 1 -5.8428 -2.241406e-05)">
                                    <g >
                                        <text font-family="'DroidSans'" id="label90" fill="#8C8C8C"  font-size="2.8" gorn="0.2.73.0.0.0.0.0.0.0.0">+5V</text>
                                    </g>
                                </g>
                            </g>
                        </g>
                    </g>
                </g>
            </g>
        </g>
        <line x1="50.4" y2="14.4" stroke-linejoin="round" fill="none"  stroke-width="0.7" stroke-linecap="round" y1="0.35" x2="50.4" stroke="#787878"/>
        <rect x="50.05" id="connector93pin" fill="none"  height="14.4" width="0.7" gorn="0.2.75"/>
        <polygon id="connector93terminal" fill="none"  points="50.05,0 50.75,0 50.75,0 " gorn="0.2.76"/>
        <g  transform="matrix(1, 0, 0, 1, 51.8, 16)">
            <g >
                <g >
                    <g  transform="rotate(270)">
                        <g >
                            <g >
                                <g  transform="matrix(1 0 0 1 -4.9131 -1.120703e-05)">
                                    <g >
                                        <text font-family="'DroidSans'" id="label93" fill="#8C8C8C"  font-size="2.8" gorn="0.2.77.0.0.0.0.0.0.0.0">Vio</text>
                                    </g>
                                </g>
                            </g>
                        </g>
                    </g>
                </g>
            </g>
        </g>
        <line x1="43.2" y2="107.65" stroke-linejoin="round" fill="none"  stroke-width="0.7" stroke-linecap="round" y1="93.6" x2="43.2" stroke="#787878"/>
        <rect x="42.85" y="93.6" id="connector92pin" fill="none"  height="14.4" width="0.7" gorn="0.2.79"/>
        <polygon id="connector92terminal" fill="none"  points="42.85,108 43.55,108 43.55,108 " gorn="0.2.80"/>
        <g  transform="matrix(1, 0, 0, 1, 44.6, 92.0002)">
            <g >
                <g >
                    <g  transform="rotate(270)">
                        <g >
                            <g >
                                <g  transform="matrix(1 0 0 1 1.980000e-04 -2.241406e-05)">
                                    <g >
                                        <text font-family="'DroidSans'" id="label92" fill="#8C8C8C"  font-size="2.8" gorn="0.2.81.0.0.0.0.0.0.0.0">GND</text>
                                    </g>
                                </g>
                            </g>
                        </g>
                    </g>
                </g>
            </g>
        </g>
        <rect x="72" y="71.65" id="connector91pin" fill="none"  height="0.7" width="14.4" gorn="0.2.82"/>
        <rect x="86.4" y="71.65" id="connector91terminal" fill="none"  height="0.7" width="0" gorn="0.2.83"/>
        <rect x="42.85" y="93.6" id="connector215pin" fill="none"  height="14.4" width="0.7" gorn="0.2.84"/>
        <polygon id="connector215terminal" fill="none"  points="42.85,108 43.55,108 43.55,108 " gorn="0.2.85"/>
        <rect x="42.85" y="93.6" id="connector216pin" fill="none"  height="14.4" width="0.7" gorn="0.2.86"/>
        <polygon id="connector216terminal" fill="none"  points="42.85,108 43.55,108 43.55,108 " gorn="0.2.87"/>
        <rect x="42.85" y="93.6" id="connector217pin" fill="none"  height="14.4" width="0.7" gorn="0.2.88"/>
        <polygon id="connector217terminal" fill="none"  points="42.85,108 43.55,108 43.55,108 " gorn="0.2.89"/>
        <rect x="42.85" y="93.6" id="connector218pin" fill="none"  height="14.4" width="0.7" gorn="0.2.90"/>
        <polygon id="connector218terminal" fill="none"  points="42.85,108 43.55,108 43.55,108 " gorn="0.2.91"/>
    </g>
</svg>
