<?xml version='1.0' encoding='utf-8'?>
<!DOCTYPE svg>
<!-- Generator: Adobe Illustrator 12.0.0, SVG Export Plug-In . SVG Version: 6.00 Build 51448)  -->
<svg xmlns="http://www.w3.org/2000/svg" xml:space="preserve" gorn="0" xmlns:xml="http://www.w3.org/XML/1998/namespace" id="Layer_1"  height="64.8" viewBox="0 0 100.8 64.8" overflow="visible" enable-background="new 0 0 100.8 64.8" width="100.8" version="1.1">
    <desc>
        <referenceFile>Adafruit_BMP180_schematic.svg</referenceFile>
    </desc>
    <desc >Fritzing schematic generated by brd2svg</desc>
    <g gorn="0.1" id="schematic" >
        <rect x="14.4" stroke-linecap="round" stroke="#000000"  height="36" stroke-linejoin="round" width="71.551" fill="none" y="14.4" stroke-width="0.9"/>
        <g transform="matrix(1 0 0 1 43.8906 28.7993)" >
            <text font-size="3.5" gorn="0.1.1.0" id="label"  font-family="'DroidSans'">BMP180</text>
        </g>
        <line x2="14.4" y1="28.8" stroke-linecap="round" stroke="#787878"  y2="28.8" x1="0.35" stroke-linejoin="round" fill="none" stroke-width="0.7"/>
        <rect gorn="0.1.3" id="connector7pin"  height="0.7" width="14.4" fill="none" y="28.45"/>
        <rect gorn="0.1.4" id="connector7terminal"  height="0.7" width="0" fill="none" y="28.45"/>
        <g transform="matrix(1 0 0 1 15.7998 29.4995)" >
            <text font-size="3.5" gorn="0.1.5.0" id="label7"  font-family="'DroidSans'" fill="#8C8C8C">SCL</text>
        </g>
        <rect x="100.8" gorn="0.1.6"  height="0.7" width="0" fill="none" y="28.45"/>
        <line x2="50.4" y1="0.35" stroke-linecap="round" stroke="#787878"  y2="14.4" x1="50.4" stroke-linejoin="round" fill="none" stroke-width="0.7"/>
        <rect x="50.05" gorn="0.1.8" id="connector4pin"  height="14.4" width="0.7" fill="none"/>
        <polygon gorn="0.1.9" points="50.05,0 50.75,0 50.75,0 " id="connector4terminal"  fill="none"/>
        <g transform="matrix(1, 0, 0, 1, 51.8, 16)" >
            <g >
                <g transform="rotate(270)" >
                    <g >
                        <g transform="matrix(1 0 0 1 -5.8433 -6.713867e-004)" >
                            <text font-size="3.5" gorn="0.1.10.0.0.0.0.0" id="label4"  font-family="'DroidSans'" fill="#8C8C8C">+5V</text>
                        </g>
                    </g>
                </g>
            </g>
        </g>
        <line x2="57.6" y1="0.35" stroke-linecap="round" stroke="#787878"  y2="14.4" x1="57.6" stroke-linejoin="round" fill="none" stroke-width="0.7"/>
        <rect x="57.25" gorn="0.1.12" id="connector5pin"  height="14.4" width="0.701" fill="none"/>
        <polygon gorn="0.1.13" points="57.25,0 57.951,0 57.951,0 " id="connector5terminal"  fill="none"/>
        <g transform="matrix(1, 0, 0, 1, 59, 16)" >
            <g >
                <g transform="rotate(270)" >
                    <g >
                        <g transform="matrix(1 0 0 1 -7.771 -4.882813e-004)" >
                            <text font-size="3.5" gorn="0.1.14.0.0.0.0.0" id="label5"  font-family="'DroidSans'" fill="#8C8C8C">+3V3</text>
                        </g>
                    </g>
                </g>
            </g>
        </g>
        <line x2="50.4" y1="50.4" stroke-linecap="round" stroke="#787878"  y2="64.451" x1="50.4" stroke-linejoin="round" fill="none" stroke-width="0.7"/>
        <rect x="50.05" gorn="0.1.16" id="connector6pin"  height="14.4" width="0.7" fill="none" y="50.4"/>
        <polygon gorn="0.1.17" points="50.05,64.8 50.75,64.8 50.75,64.8 " id="connector6terminal"  fill="none"/>
        <g transform="matrix(1, 0, 0, 1, 51.8, 48.8)" >
            <g >
                <g transform="rotate(270)" >
                    <g >
                        <g transform="matrix(1 0 0 1 6.713867e-004 -6.713867e-004)" >
                            <text font-size="3.5" gorn="0.1.18.0.0.0.0.0" id="label6"  font-family="'DroidSans'" fill="#8C8C8C">GND</text>
                        </g>
                    </g>
                </g>
            </g>
        </g>
        <line x2="14.4" y1="37.8" stroke-linecap="round" stroke="#787878"  y2="37.8" x1="0.35" stroke-linejoin="round" fill="none" stroke-width="0.7"/>
        <rect gorn="0.1.20" id="connector8pin"  height="0.699" width="14.4" fill="none" y="37.451"/>
        <rect x="-0.0144" id="connector8terminal" stroke="none" height="0.001398" width="0.0288" fill="none" stroke-width="0" y="37.7998"/>
        <rect gorn="0.1.21" id="connector7terminal_1_"  height="0.699" width="0" fill="none" y="37.451"/>
        <g transform="matrix(1 0 0 1 15.7998 38.4995)" >
            <text font-size="3.5" gorn="0.1.22.0" id="label7_1_"  font-family="'DroidSans'" fill="#8C8C8C">SDA</text>
        </g>
    </g>
</svg>
