<?xml version='1.0' encoding='utf-8'?>
<!-- Generator: Adobe Illustrator 20.0.0, SVG Export Plug-In . SVG Version: 6.00 Build 0)  -->
<svg xmlns="http://www.w3.org/2000/svg" viewBox="0 0 50.4 14.4" x="0px"  y="0px" height="0.2in" gorn="0" version="1.2" xml:space="preserve" id="Layer_1" width="0.7in" xmlns:xml="http://www.w3.org/XML/1998/namespace" baseProfile="tiny">
    <desc >
        <referenceFile >Adafruit LED Sequin_schematic.svg</referenceFile>
    </desc>
    <desc >Fritzing schematic generated by brd2svg</desc>
    <g  gorn="0.2" id="schematic">
        <rect x="14.4"  y="0.45" stroke="#000000" stroke-linejoin="round" stroke-width="0.9" height="13.5" stroke-linecap="round" width="21.15" fill="none"/>
        <g  transform="matrix(1 0 0 1 18.8315 4.8596)">
            <g >
                <text  font-family="DroidSans" font-size="2.8" gorn="0.2.1.0.0" id="label">Adafruit</text>
            </g>
        </g>
        <g  transform="matrix(1 0 0 1 22.2195 8.3596)">
            <g >
                <text  font-family="DroidSans" font-size="2.8" gorn="0.2.2.0.0" id="label_1_">LED</text>
            </g>
        </g>
        <g  transform="matrix(1 0 0 1 19.8159 11.8596)">
            <g >
                <text  font-family="DroidSans" font-size="2.8" gorn="0.2.3.0.0" id="label_2_">Sequin</text>
            </g>
        </g>
        <path  gorn="0.2.4" id="connector9pin" fill="none" d="M35.65,7.2L35.65,7.2L35.65,7.2z"/>
        <path  gorn="0.2.5" id="connector9terminal" fill="none" d="M35.65,7.2L35.65,7.2L35.65,7.2z"/>
        <path  gorn="0.2.6" id="connector10pin" fill="none" d="M35.65,7.2L35.65,7.2L35.65,7.2z"/>
        <path  gorn="0.2.7" id="connector10terminal" fill="none" d="M35.65,7.2L35.65,7.2L35.65,7.2z"/>
        <line x1="0.35" x2="14.4"  stroke="#787878" stroke-linejoin="round" stroke-width="0.7" stroke-linecap="round" fill="none" y1="7.2" y2="7.2"/>
        <rect  y="6.85" height="0.7" gorn="0.2.9" id="connector5pin" width="14.4" fill="none"/>
        <rect  y="6.85" height="0.7" gorn="0.2.10" id="connector5terminal" width="0" fill="none"/>
        <g  transform="matrix(1 0 0 1 15.8 7.9)">
            <g >
                <text  font-family="DroidSans" font-size="2.8" gorn="0.2.11.0.0" id="label5" fill="#8C8C8C">+</text>
            </g>
        </g>
        <line x1="35.65" x2="50.05"  stroke="#787878" stroke-linejoin="round" stroke-width="0.7" stroke-linecap="round" fill="none" y1="7.2" y2="7.2"/>
        <rect x="36"  y="6.85" height="0.7" gorn="0.2.13" id="connector7pin" width="14.4" fill="none"/>
        <rect x="50.4"  y="6.85" height="0.7" gorn="0.2.14" id="connector7terminal" width="0" fill="none"/>
        <g  transform="matrix(1 0 0 1 33.4738 7.9)">
            <g >
                <text  font-family="DroidSans" font-size="2.8" gorn="0.2.15.0.0" id="label7" fill="#8C8C8C">-</text>
            </g>
        </g>
    </g>
</svg>
