<?xml version='1.0' encoding='UTF-8' standalone='no'?>
<!-- Created with Fritzing (http://www.fritzing.org/) -->
<svg xmlns="http://www.w3.org/2000/svg"  width="1.5in" x="0in" version="1.2" y="0in" height="2.7in" viewBox="0 0 108 194.4" baseProfile="tiny">
 <desc >Fritzing schematic generated by brd2svg</desc>
 <g  id="schematic">
  <rect  width="78.75" x="14.4" y="14.4" fill="none" height="165.6" stroke="#000000" stroke-linejoin="round" stroke-linecap="round" stroke-width="0.9"/>
  <text  x="54" y="79.6003" font-family="'Droid Sans'" fill="#000000" text-anchor="middle" stroke="none" id="label" font-size="3.5">Audio</text>
  <text  x="54" y="83.1002" font-family="'Droid Sans'" fill="#000000" text-anchor="middle" stroke="none" id="label" font-size="3.5">FX</text>
  <text  x="54" y="86.6002" font-family="'Droid Sans'" fill="#000000" text-anchor="middle" stroke="none" id="label" font-size="3.5">Sound</text>
  <text  x="54" y="90.1001" font-family="'Droid Sans'" fill="#000000" text-anchor="middle" stroke="none" id="label" font-size="3.5">Board</text>
  <text  x="54" y="93.6" font-family="'Droid Sans'" fill="#000000" text-anchor="middle" stroke="none" id="label" font-size="3.5">+</text>
  <text  x="54" y="97.0999" font-family="'Droid Sans'" fill="#000000" text-anchor="middle" stroke="none" id="label" font-size="3.5">2x2W</text>
  <text  x="54" y="100.6" font-family="'Droid Sans'" fill="#000000" text-anchor="middle" stroke="none" id="label" font-size="3.5">Amp</text>
  <line  fill="none" stroke="#787878" stroke-linejoin="round" stroke-linecap="round" y1="28.8" stroke-width="0.699998" x1="0.349999" y2="28.8" x2="14.4"/>
  <rect  width="14.4" x="0" y="28.45" fill="none" height="0.699998" id="connector35pin" stroke-width="0" connectorName="PWRBUTTON"/>
  <rect  width="0" x="0" y="28.45" fill="none" height="0.699998" id="connector35terminal" stroke-width="0"/>
  <text  x="15.8" y="29.5" font-family="'Droid Sans'" fill="#8c8c8c" text-anchor="start" stroke="none" id="label35" font-size="3.5">PWRBUTTON</text>
  <line  fill="none" stroke="#787878" stroke-linejoin="round" stroke-linecap="round" y1="36" stroke-width="0.699998" x1="0.349999" y2="36" x2="14.4"/>
  <rect  width="14.4" x="0" y="35.65" fill="none" height="0.699998" id="connector36pin" stroke-width="0" connectorName="TX"/>
  <rect  width="0" x="0" y="35.65" fill="none" height="0.699998" id="connector36terminal" stroke-width="0"/>
  <text  x="15.8" y="36.7" font-family="'Droid Sans'" fill="#8c8c8c" text-anchor="start" stroke="none" id="label36" font-size="3.5">TX</text>
  <line  fill="none" stroke="#787878" stroke-linejoin="round" stroke-linecap="round" y1="43.2" stroke-width="0.699998" x1="0.349999" y2="43.2" x2="14.4"/>
  <rect  width="14.4" x="0" y="42.85" fill="none" height="0.699998" id="connector37pin" stroke-width="0" connectorName="RX"/>
  <rect  width="0" x="0" y="42.85" fill="none" height="0.699998" id="connector37terminal" stroke-width="0"/>
  <text  x="15.8" y="43.9" font-family="'Droid Sans'" fill="#8c8c8c" text-anchor="start" stroke="none" id="label37" font-size="3.5">RX</text>
  <line  fill="none" stroke="#787878" stroke-linejoin="round" stroke-linecap="round" y1="50.4" stroke-width="0.699998" x1="0.349999" y2="50.4" x2="14.4"/>
  <rect  width="14.4" x="0" y="50.05" fill="none" height="0.699998" id="connector38pin" stroke-width="0" connectorName="UG"/>
  <rect  width="0" x="0" y="50.05" fill="none" height="0.699998" id="connector38terminal" stroke-width="0"/>
  <text  x="15.8" y="51.1" font-family="'Droid Sans'" fill="#8c8c8c" text-anchor="start" stroke="none" id="label38" font-size="3.5">UG</text>
  <line  fill="none" stroke="#787878" stroke-linejoin="round" stroke-linecap="round" y1="57.6" stroke-width="0.699998" x1="0.349999" y2="57.6" x2="14.4"/>
  <rect  width="14.4" x="0" y="57.25" fill="none" height="0.699998" id="connector39pin" stroke-width="0" connectorName="VOL+"/>
  <rect  width="0" x="0" y="57.25" fill="none" height="0.699998" id="connector39terminal" stroke-width="0"/>
  <text  x="15.8" y="58.3" font-family="'Droid Sans'" fill="#8c8c8c" text-anchor="start" stroke="none" id="label39" font-size="3.5">VOL+</text>
  <line  fill="none" stroke="#787878" stroke-linejoin="round" stroke-linecap="round" y1="64.8" stroke-width="0.699998" x1="0.349999" y2="64.8" x2="14.4"/>
  <rect  width="14.4" x="0" y="64.45" fill="none" height="0.699998" id="connector40pin" stroke-width="0" connectorName="VOL-"/>
  <rect  width="0" x="0" y="64.45" fill="none" height="0.699998" id="connector40terminal" stroke-width="0"/>
  <text  x="15.8" y="65.5" font-family="'Droid Sans'" fill="#8c8c8c" text-anchor="start" stroke="none" id="label40" font-size="3.5">VOL-</text>
  <line  fill="none" stroke="#787878" stroke-linejoin="round" stroke-linecap="round" y1="72" stroke-width="0.699998" x1="0.349999" y2="72" x2="14.4"/>
  <rect  width="14.4" x="0" y="71.65" fill="none" height="0.699998" id="connector41pin" stroke-width="0" connectorName="CS"/>
  <rect  width="0" x="0" y="71.65" fill="none" height="0.699998" id="connector41terminal" stroke-width="0"/>
  <text  x="15.8" y="72.6998" font-family="'Droid Sans'" fill="#8c8c8c" text-anchor="start" stroke="none" id="label41" font-size="3.5">CS</text>
  <line  fill="none" stroke="#787878" stroke-linejoin="round" stroke-linecap="round" y1="79.2" stroke-width="0.699998" x1="0.349999" y2="79.2" x2="14.4"/>
  <rect  width="14.4" x="0" y="78.8501" fill="none" height="0.699998" id="connector71pin" stroke-width="0" connectorName="RST"/>
  <rect  width="0" x="0" y="78.8501" fill="none" height="0.699998" id="connector71terminal" stroke-width="0"/>
  <text  x="15.8" y="79.8998" font-family="'Droid Sans'" fill="#8c8c8c" text-anchor="start" stroke="none" id="label71" font-size="3.5">RST</text>
  <line  fill="none" stroke="#787878" stroke-linejoin="round" stroke-linecap="round" y1="86.4" stroke-width="0.699998" x1="0.349999" y2="86.4" x2="14.4"/>
  <rect  width="14.4" x="0" y="86.0501" fill="none" height="0.699998" id="connector70pin" stroke-width="0" connectorName="0"/>
  <rect  width="0" x="0" y="86.0501" fill="none" height="0.699998" id="connector70terminal" stroke-width="0"/>
  <text  x="15.8" y="87.0998" font-family="'Droid Sans'" fill="#8c8c8c" text-anchor="start" stroke="none" id="label70" font-size="3.5">0</text>
  <line  fill="none" stroke="#787878" stroke-linejoin="round" stroke-linecap="round" y1="93.6" stroke-width="0.699998" x1="0.349999" y2="93.6" x2="14.4"/>
  <rect  width="14.4" x="0" y="93.2501" fill="none" height="0.699998" id="connector69pin" stroke-width="0" connectorName="1"/>
  <rect  width="0" x="0" y="93.2501" fill="none" height="0.699998" id="connector69terminal" stroke-width="0"/>
  <text  x="15.8" y="94.2998" font-family="'Droid Sans'" fill="#8c8c8c" text-anchor="start" stroke="none" id="label69" font-size="3.5">1</text>
  <line  fill="none" stroke="#787878" stroke-linejoin="round" stroke-linecap="round" y1="100.8" stroke-width="0.699998" x1="0.349999" y2="100.8" x2="14.4"/>
  <rect  width="14.4" x="0" y="100.45" fill="none" height="0.699998" id="connector68pin" stroke-width="0" connectorName="2"/>
  <rect  width="0" x="0" y="100.45" fill="none" height="0.699998" id="connector68terminal" stroke-width="0"/>
  <text  x="15.8" y="101.5" font-family="'Droid Sans'" fill="#8c8c8c" text-anchor="start" stroke="none" id="label68" font-size="3.5">2</text>
  <line  fill="none" stroke="#787878" stroke-linejoin="round" stroke-linecap="round" y1="108" stroke-width="0.699998" x1="0.349999" y2="108" x2="14.4"/>
  <rect  width="14.4" x="0" y="107.65" fill="none" height="0.699998" id="connector67pin" stroke-width="0" connectorName="3"/>
  <rect  width="0" x="0" y="107.65" fill="none" height="0.699998" id="connector67terminal" stroke-width="0"/>
  <text  x="15.8" y="108.7" font-family="'Droid Sans'" fill="#8c8c8c" text-anchor="start" stroke="none" id="label67" font-size="3.5">3</text>
  <line  fill="none" stroke="#787878" stroke-linejoin="round" stroke-linecap="round" y1="115.2" stroke-width="0.699998" x1="0.349999" y2="115.2" x2="14.4"/>
  <rect  width="14.4" x="0" y="114.85" fill="none" height="0.699998" id="connector66pin" stroke-width="0" connectorName="4"/>
  <rect  width="0" x="0" y="114.85" fill="none" height="0.699998" id="connector66terminal" stroke-width="0"/>
  <text  x="15.8" y="115.9" font-family="'Droid Sans'" fill="#8c8c8c" text-anchor="start" stroke="none" id="label66" font-size="3.5">4</text>
  <line  fill="none" stroke="#787878" stroke-linejoin="round" stroke-linecap="round" y1="122.4" stroke-width="0.699998" x1="0.349999" y2="122.4" x2="14.4"/>
  <rect  width="14.4" x="0" y="122.05" fill="none" height="0.699998" id="connector65pin" stroke-width="0" connectorName="5"/>
  <rect  width="0" x="0" y="122.05" fill="none" height="0.699998" id="connector65terminal" stroke-width="0"/>
  <text  x="15.8" y="123.1" font-family="'Droid Sans'" fill="#8c8c8c" text-anchor="start" stroke="none" id="label65" font-size="3.5">5</text>
  <line  fill="none" stroke="#787878" stroke-linejoin="round" stroke-linecap="round" y1="129.6" stroke-width="0.699998" x1="0.349999" y2="129.6" x2="14.4"/>
  <rect  width="14.4" x="0" y="129.25" fill="none" height="0.699998" id="connector64pin" stroke-width="0" connectorName="6"/>
  <rect  width="0" x="0" y="129.25" fill="none" height="0.699998" id="connector64terminal" stroke-width="0"/>
  <text  x="15.8" y="130.3" font-family="'Droid Sans'" fill="#8c8c8c" text-anchor="start" stroke="none" id="label64" font-size="3.5">6</text>
  <line  fill="none" stroke="#787878" stroke-linejoin="round" stroke-linecap="round" y1="136.8" stroke-width="0.699998" x1="0.349999" y2="136.8" x2="14.4"/>
  <rect  width="14.4" x="0" y="136.45" fill="none" height="0.699998" id="connector63pin" stroke-width="0" connectorName="7"/>
  <rect  width="0" x="0" y="136.45" fill="none" height="0.699998" id="connector63terminal" stroke-width="0"/>
  <text  x="15.8" y="137.5" font-family="'Droid Sans'" fill="#8c8c8c" text-anchor="start" stroke="none" id="label63" font-size="3.5">7</text>
  <line  fill="none" stroke="#787878" stroke-linejoin="round" stroke-linecap="round" y1="144" stroke-width="0.699998" x1="0.349999" y2="144" x2="14.4"/>
  <rect  width="14.4" x="0" y="143.65" fill="none" height="0.699998" id="connector62pin" stroke-width="0" connectorName="8"/>
  <rect  width="0" x="0" y="143.65" fill="none" height="0.699998" id="connector62terminal" stroke-width="0"/>
  <text  x="15.8" y="144.7" font-family="'Droid Sans'" fill="#8c8c8c" text-anchor="start" stroke="none" id="label62" font-size="3.5">8</text>
  <line  fill="none" stroke="#787878" stroke-linejoin="round" stroke-linecap="round" y1="151.2" stroke-width="0.699998" x1="0.349999" y2="151.2" x2="14.4"/>
  <rect  width="14.4" x="0" y="150.85" fill="none" height="0.699998" id="connector61pin" stroke-width="0" connectorName="9"/>
  <rect  width="0" x="0" y="150.85" fill="none" height="0.699998" id="connector61terminal" stroke-width="0"/>
  <text  x="15.8" y="151.9" font-family="'Droid Sans'" fill="#8c8c8c" text-anchor="start" stroke="none" id="label61" font-size="3.5">9</text>
  <line  fill="none" stroke="#787878" stroke-linejoin="round" stroke-linecap="round" y1="158.4" stroke-width="0.699998" x1="0.349999" y2="158.4" x2="14.4"/>
  <rect  width="14.4" x="0" y="158.05" fill="none" height="0.699998" id="connector60pin" stroke-width="0" connectorName="10"/>
  <rect  width="0" x="0" y="158.05" fill="none" height="0.699998" id="connector60terminal" stroke-width="0"/>
  <text  x="15.8" y="159.1" font-family="'Droid Sans'" fill="#8c8c8c" text-anchor="start" stroke="none" id="label60" font-size="3.5">10</text>
  <line  fill="none" stroke="#787878" stroke-linejoin="round" stroke-linecap="round" y1="165.6" stroke-width="0.699998" x1="0.349999" y2="165.6" x2="14.4"/>
  <rect  width="14.4" x="0" y="165.25" fill="none" height="0.699998" id="connector59pin" stroke-width="0" connectorName="ACT"/>
  <rect  width="0" x="0" y="165.25" fill="none" height="0.699998" id="connector59terminal" stroke-width="0"/>
  <text  x="15.8" y="166.3" font-family="'Droid Sans'" fill="#8c8c8c" text-anchor="start" stroke="none" id="label59" font-size="3.5">ACT</text>
  <line  fill="none" stroke="#787878" stroke-linejoin="round" stroke-linecap="round" y1="28.8" stroke-width="0.699998" x1="93.2501" y2="28.8" x2="107.65"/>
  <rect  width="14.4" x="93.6" y="28.45" fill="none" connectorname="R+" height="0.699998" id="connector76pin" stroke-width="0"/>
  <rect  width="0" x="108" y="28.45" fill="none" height="0.699998" id="connector76terminal" stroke-width="0"/>
  <text  x="92.2003" y="29.5" font-family="'Droid Sans'" fill="#8c8c8c" text-anchor="end" stroke="none" id="label76" font-size="3.5">R+</text>
  <line  fill="none" stroke="#787878" stroke-linejoin="round" stroke-linecap="round" y1="36" stroke-width="0.699998" x1="93.2501" y2="36" x2="107.65"/>
  <rect  width="14.4" x="93.6" y="35.65" fill="none" connectorname="R-" height="0.699998" id="connector77pin" stroke-width="0"/>
  <rect  width="0" x="108" y="35.65" fill="none" height="0.699998" id="connector77terminal" stroke-width="0"/>
  <text  x="92.2003" y="36.7" font-family="'Droid Sans'" fill="#8c8c8c" text-anchor="end" stroke="none" id="label77" font-size="3.5">R-</text>
  <line  fill="none" stroke="#787878" stroke-linejoin="round" stroke-linecap="round" y1="43.2" stroke-width="0.699998" x1="93.2501" y2="43.2" x2="107.65"/>
  <rect  width="14.4" x="93.6" y="42.85" fill="none" connectorname="L+" height="0.699998" id="connector75pin" stroke-width="0"/>
  <rect  width="0" x="108" y="42.85" fill="none" height="0.699998" id="connector75terminal" stroke-width="0"/>
  <text  x="92.2003" y="43.9" font-family="'Droid Sans'" fill="#8c8c8c" text-anchor="end" stroke="none" id="label75" font-size="3.5">L+</text>
  <line  fill="none" stroke="#787878" stroke-linejoin="round" stroke-linecap="round" y1="50.4" stroke-width="0.699998" x1="93.2501" y2="50.4" x2="107.65"/>
  <rect  width="14.4" x="93.6" y="50.05" fill="none" connectorname="L-" height="0.699998" id="connector74pin" stroke-width="0"/>
  <rect  width="0" x="108" y="50.05" fill="none" height="0.699998" id="connector74terminal" stroke-width="0"/>
  <text  x="92.2003" y="51.1" font-family="'Droid Sans'" fill="#8c8c8c" text-anchor="end" stroke="none" id="label74" font-size="3.5">L-</text>
  <line  fill="none" stroke="#787878" stroke-linejoin="round" stroke-linecap="round" y1="57.6" stroke-width="0.699998" x1="93.2501" y2="57.6" x2="107.65"/>
  <rect  width="14.4" x="93.6" y="57.25" fill="none" connectorname="R" height="0.699998" id="connector43pin" stroke-width="0"/>
  <rect  width="0" x="108" y="57.25" fill="none" height="0.699998" id="connector43terminal" stroke-width="0"/>
  <text  x="92.2003" y="58.3" font-family="'Droid Sans'" fill="#8c8c8c" text-anchor="end" stroke="none" id="label43" font-size="3.5">R</text>
  <line  fill="none" stroke="#787878" stroke-linejoin="round" stroke-linecap="round" y1="64.8" stroke-width="0.699998" x1="93.2501" y2="64.8" x2="107.65"/>
  <rect  width="14.4" x="93.6" y="64.45" fill="none" connectorname="L" height="0.699998" id="connector44pin" stroke-width="0"/>
  <rect  width="0" x="108" y="64.45" fill="none" height="0.699998" id="connector44terminal" stroke-width="0"/>
  <text  x="92.2003" y="65.5" font-family="'Droid Sans'" fill="#8c8c8c" text-anchor="end" stroke="none" id="label44" font-size="3.5">L</text>
  <line  fill="none" stroke="#787878" stroke-linejoin="round" stroke-linecap="round" y1="0.349999" stroke-width="0.699998" x1="50.4" y2="14.4" x2="50.4"/>
  <rect  width="0.699998" x="50.05" y="0" fill="none" connectorname="VIN" height="14.4" id="connector32pin" stroke-width="0"/>
  <rect  width="0.699998" x="50.05" y="0" fill="none" height="0" id="connector32terminal" stroke-width="0"/>
  <g  transform="matrix(1, 0, 0, 1, 51.8, 16)">
   <g  transform="rotate(270)">
    <text  x="0" y="0" font-family="'Droid Sans'" fill="#8c8c8c" text-anchor="end" stroke="none" id="label32" font-size="3.5">VIN</text>
   </g>
  </g>
  <line  fill="none" stroke="#787878" stroke-linejoin="round" stroke-linecap="round" y1="0.349999" stroke-width="0.699998" x1="57.6" y2="14.4" x2="57.6"/>
  <rect  width="0.699998" x="57.25" y="0" fill="none" connectorname="VBUS" height="14.4" id="connector34pin" stroke-width="0"/>
  <rect  width="0.699998" x="57.25" y="0" fill="none" height="0" id="connector34terminal" stroke-width="0"/>
  <g  transform="matrix(1, 0, 0, 1, 59, 16)">
   <g  transform="rotate(270)">
    <text  x="0" y="0" font-family="'Droid Sans'" fill="#8c8c8c" text-anchor="end" stroke="none" id="label34" font-size="3.5">VBUS</text>
   </g>
  </g>
  <line  fill="none" stroke="#787878" stroke-linejoin="round" stroke-linecap="round" y1="180" stroke-width="0.699998" x1="50.4" y2="194.05" x2="50.4"/>
  <rect  width="0.699998" x="50.05" y="180" fill="none" connectorname="GND" height="14.4" id="connector33pin" stroke-width="0"/>
  <rect  width="0.699998" x="50.05" y="194.4" fill="none" height="0" id="connector33terminal" stroke-width="0"/>
  <g  transform="matrix(1, 0, 0, 1, 51.8, 178.4)">
   <g  transform="rotate(270)">
    <text  x="0" y="0" font-family="'Droid Sans'" fill="#8c8c8c" text-anchor="start" stroke="none" id="label33" font-size="3.5">GND</text>
   </g>
  </g>
  <rect  width="0.699998" x="50.05" y="180" fill="none" connectorname="GND" height="14.4" id="connector45pin" stroke-width="0"/>
  <rect  width="0.699998" x="50.05" y="194.4" fill="none" height="0" id="connector45terminal" stroke-width="0"/>
  <rect  width="0.699998" x="50.05" y="180" fill="none" connectorname="GND" height="14.4" id="connector42pin" stroke-width="0"/>
  <rect  width="0.699998" x="50.05" y="194.4" fill="none" height="0" id="connector42terminal" stroke-width="0"/>
  <rect  width="0.699998" x="50.05" y="180" fill="none" connectorname="GND" height="14.4" id="connector58pin" stroke-width="0"/>
  <rect  width="0.699998" x="50.05" y="194.4" fill="none" height="0" id="connector58terminal" stroke-width="0"/>
 </g>
</svg>
