<?xml version="1.0" encoding="utf-8"?>
<!-- Generator: Adobe Illustrator 20.0.0, SVG Export Plug-In . SVG Version: 6.00 Build 0)  -->
<svg version="1.2" baseProfile="tiny" id="Layer_1" xmlns="http://www.w3.org/2000/svg" xmlns:xlink="http://www.w3.org/1999/xlink"
	 x="0px" y="0px" width="57.6px" height="64.8px" viewBox="0 0 57.6 64.8" xml:space="preserve">
<desc>
	<referenceFile>Flora_GPS_v0.2_schematic.svg</referenceFile>
</desc>
<desc>Fritzing schematic generated by brd2svg</desc>
<g id="schematic">
	
		<rect x="14.4" y="14.4" fill="none" stroke="#000000" stroke-width="0.9" stroke-linecap="round" stroke-linejoin="round" width="28.35" height="36"/>
	<text id="label_1_" transform="matrix(1 0 0 1 26.0269 34.9167)" font-family="'DroidSans'" font-size="3.5px">GPS</text>
	<text transform="matrix(1 0 0 1 25.2183 31.4165)" font-family="'DroidSans'" font-size="3.5px">F</text>
	<text transform="matrix(1 0 0 1 26.9375 31.4165)" font-family="'DroidSans'" font-size="3.5px">l</text>
	<text transform="matrix(1 0 0 1 27.8433 31.4165)" font-family="'DroidSans'" font-size="3.5px">o</text>
	<text transform="matrix(1 0 0 1 29.8633 31.4165)" font-family="'DroidSans'" font-size="3.5px">r</text>
	<text transform="matrix(1 0 0 1 31.2251 31.4165)" font-family="'DroidSans'" font-size="3.5px">a</text>
	<text id="label_3_" transform="matrix(1 0 0 1 22.7827 27.9163)" font-family="'DroidSans'" font-size="3.5px">Adafruit</text>
	
		<line fill="none" stroke="#787878" stroke-width="0.7" stroke-linecap="round" stroke-linejoin="round" x1="0.35" y1="28.8" x2="14.4" y2="28.8"/>
	<rect id="connector15pin" y="28.45" fill="none" width="14.4" height="0.7"/>
	<rect id="connector15terminal" y="28.45" fill="none" width="0" height="0.7"/>
	<text id="label15" transform="matrix(1 0 0 1 15.8 29.5)" fill="#8C8C8C" font-family="'DroidSans'" font-size="3.5px">FIX</text>
	
		<line fill="none" stroke="#787878" stroke-width="0.7" stroke-linecap="round" stroke-linejoin="round" x1="42.85" y1="28.8" x2="57.25" y2="28.8"/>
	<rect id="connector16pin" x="43.2" y="28.45" fill="none" width="14.4" height="0.7"/>
	<rect id="connector16terminal" x="57.6" y="28.45" fill="none" width="0" height="0.7"/>
	<text id="label16" transform="matrix(1 0 0 1 38.0693 29.5)" fill="#8C8C8C" font-family="'DroidSans'" font-size="3.5px">TX</text>
	
		<line fill="none" stroke="#787878" stroke-width="0.7" stroke-linecap="round" stroke-linejoin="round" x1="42.85" y1="36" x2="57.25" y2="36"/>
	<rect id="connector13pin" x="43.2" y="35.65" fill="none" width="14.4" height="0.7"/>
	<rect id="connector13terminal" x="57.6" y="35.65" fill="none" width="0" height="0.7"/>
	<text id="label13" transform="matrix(1 0 0 1 37.8215 36.7)" fill="#8C8C8C" font-family="'DroidSans'" font-size="3.5px">RX</text>
	
		<line fill="none" stroke="#787878" stroke-width="0.7" stroke-linecap="round" stroke-linejoin="round" x1="28.8" y1="0.35" x2="28.8" y2="14.4"/>
	<rect id="connector0pin" x="28.45" fill="none" width="0.7" height="14.4"/>
	<polygon id="connector0terminal" fill="none" points="28.45,0 29.15,0 29.15,0 	"/>
	<g transform="matrix(1, 0, 0, 1, 30.2, 16)">
		<g>
			<g>
				<g>
					<g>
						<g transform="rotate(270)">
							<g>
								<g>
									<g>
										<g>
											
												<text id="label0" transform="matrix(1 0 0 1 -6.7812 1.120703e-05)" fill="#8C8C8C" font-family="'DroidSans'" font-size="3.5px">3.3V</text>
										</g>
									</g>
								</g>
							</g>
						</g>
					</g>
				</g>
			</g>
		</g>
	</g>
	
		<line fill="none" stroke="#787878" stroke-width="0.7" stroke-linecap="round" stroke-linejoin="round" x1="36" y1="0.35" x2="36" y2="14.4"/>
	<rect id="connector14pin" x="35.65" fill="none" width="0.7" height="14.4"/>
	<polygon id="connector14terminal" fill="none" points="35.65,0 36.35,0 36.35,0 	"/>
	<g transform="matrix(1, 0, 0, 1, 37.4, 16)">
		<g>
			<g>
				<g>
					<g>
						<g transform="rotate(270)">
							<g>
								<g>
									<g>
										<g>
											<text transform="matrix(1 0 0 1 -5.9082 2.241406e-05)" fill="#8C8C8C" font-family="'DroidSans'" font-size="3.5px">B</text>
											<text transform="matrix(1 0 0 1 -3.7344 2.241406e-05)" fill="#8C8C8C" font-family="'DroidSans'" font-size="3.5px">A</text>
											<text transform="matrix(1 0 0 1 -1.8174 2.241406e-05)" fill="#8C8C8C" font-family="'DroidSans'" font-size="3.5px">T</text>
										</g>
									</g>
								</g>
							</g>
						</g>
					</g>
				</g>
			</g>
		</g>
	</g>
	
		<line fill="none" stroke="#787878" stroke-width="0.7" stroke-linecap="round" stroke-linejoin="round" x1="28.8" y1="50.4" x2="28.8" y2="64.45"/>
	<rect id="connector7pin" x="28.45" y="50.4" fill="none" width="0.7" height="14.4"/>
	<polygon id="connector7terminal" fill="none" points="28.45,64.8 29.15,64.8 29.15,64.8 	"/>
	<g transform="matrix(1, 0, 0, 1, 30.2, 48.8)">
		<g>
			<g>
				<g>
					<g>
						<g transform="rotate(270)">
							<g>
								<g>
									<g>
										<g>
											
												<text id="label7" transform="matrix(1 0 0 1 1.943125e-04 1.120703e-05)" fill="#8C8C8C" font-family="'DroidSans'" font-size="3.5px">GND</text>
										</g>
									</g>
								</g>
							</g>
						</g>
					</g>
				</g>
			</g>
		</g>
	</g>
	<rect id="connector8pin" x="28.45" y="50.4" fill="none" width="0.7" height="14.4"/>
	<polygon id="connector8terminal" fill="none" points="28.45,64.8 29.15,64.8 29.15,64.8 	"/>
</g>
</svg>
