<?xml version="1.0" encoding="utf-8"?>
<!-- Generator: Adobe Illustrator 20.0.0, SVG Export Plug-In . SVG Version: 6.00 Build 0)  -->
<svg version="1.2" baseProfile="tiny" id="Layer_1" xmlns="http://www.w3.org/2000/svg" xmlns:xlink="http://www.w3.org/1999/xlink"
	 x="0px" y="0px" width="86.4px" height="64.8px" viewBox="0 0 86.4 64.8" xml:space="preserve">
<desc>
	<referenceFile>Flora_TCS34725_v0.1_schematic.svg</referenceFile>
</desc>
<desc>Fritzing schematic generated by brd2svg</desc>
<g id="schematic">
	
		<rect x="14.4" y="14.4" fill="none" stroke="#000000" stroke-width="0.9" stroke-linecap="round" stroke-linejoin="round" width="57.15" height="36"/>
	<text transform="matrix(1 0 0 1 39.308 32.3999)" font-family="'DroidSans'" font-size="3.5px">F</text>
	<text transform="matrix(1 0 0 1 41.0273 32.3999)" font-family="'DroidSans'" font-size="3.5px">l</text>
	<text transform="matrix(1 0 0 1 41.933 32.3999)" font-family="'DroidSans'" font-size="3.5px">o</text>
	<text transform="matrix(1 0 0 1 43.953 32.3999)" font-family="'DroidSans'" font-size="3.5px">r</text>
	<text transform="matrix(1 0 0 1 45.3148 32.3999)" font-family="'DroidSans'" font-size="3.5px">a</text>
	<text transform="matrix(1 0 0 1 35.6015 35.8999)" font-family="'DroidSans'" font-size="3.5px">T</text>
	<text transform="matrix(1 0 0 1 37.3139 35.8999)" font-family="'DroidSans'" font-size="3.5px">C</text>
	<text transform="matrix(1 0 0 1 39.4247 35.8999)" font-family="'DroidSans'" font-size="3.5px">S</text>
	<text transform="matrix(1 0 0 1 41.2411 35.8999)" font-family="'DroidSans'" font-size="3.5px">3</text>
	<text transform="matrix(1 0 0 1 43.1689 35.8999)" font-family="'DroidSans'" font-size="3.5px">4</text>
	<text transform="matrix(1 0 0 1 45.0966 35.8999)" font-family="'DroidSans'" font-size="3.5px">7</text>
	<text transform="matrix(1 0 0 1 47.0243 35.8999)" font-family="'DroidSans'" font-size="3.5px">2</text>
	<text transform="matrix(1 0 0 1 48.9521 35.8999)" font-family="'DroidSans'" font-size="3.5px">5</text>
	<text id="label_3_" transform="matrix(1 0 0 1 36.8725 28.9003)" font-family="'DroidSans'" font-size="3.5px">Adafruit</text>
	
		<line fill="none" stroke="#787878" stroke-width="0.7" stroke-linecap="round" stroke-linejoin="round" x1="0.35" y1="28.8" x2="14.4" y2="28.8"/>
	<rect id="connector19pin" y="28.45" fill="none" width="14.4" height="0.7"/>
	<rect id="connector19terminal" y="28.45" fill="none" width="0" height="0.7"/>
	<text id="label19" transform="matrix(1 0 0 1 15.8 29.5)" fill="#8C8C8C" font-family="'DroidSans'" font-size="3.5px">SCL</text>
	
		<line fill="none" stroke="#787878" stroke-width="0.7" stroke-linecap="round" stroke-linejoin="round" x1="71.65" y1="28.8" x2="86.05" y2="28.8"/>
	<rect id="connector17pin" x="72" y="28.45" fill="none" width="14.4" height="0.7"/>
	<rect id="connector17terminal" x="86.4" y="28.45" fill="none" width="0" height="0.7"/>
	<text transform="matrix(1 0 0 1 64.2956 29.5)" fill="#8C8C8C" font-family="'DroidSans'" font-size="3.5px">S</text>
	<text transform="matrix(1 0 0 1 66.112 29.5)" fill="#8C8C8C" font-family="'DroidSans'" font-size="3.5px">D</text>
	<text transform="matrix(1 0 0 1 68.4723 29.5)" fill="#8C8C8C" font-family="'DroidSans'" font-size="3.5px">A</text>
	
		<line fill="none" stroke="#787878" stroke-width="0.7" stroke-linecap="round" stroke-linejoin="round" x1="43.2" y1="0.35" x2="43.2" y2="14.4"/>
	<rect id="connector15pin" x="42.85" fill="none" width="0.7" height="14.4"/>
	<polygon id="connector15terminal" fill="none" points="42.85,0 43.55,0 43.55,0 	"/>
	<g transform="matrix(1, 0, 0, 1, 44.6, 16)">
		<g>
			<g>
				<g>
					<g>
						<g>
							<g transform="rotate(270)">
								<g>
									<g>
										<g>
											<g>
												<g>
													
														<text id="label15" transform="matrix(1 0 0 1 -6.7812 -2.241406e-05)" fill="#8C8C8C" font-family="'DroidSans'" font-size="3.5px">3.3V</text>
												</g>
											</g>
										</g>
									</g>
								</g>
							</g>
						</g>
					</g>
				</g>
			</g>
		</g>
	</g>
	
		<line fill="none" stroke="#787878" stroke-width="0.7" stroke-linecap="round" stroke-linejoin="round" x1="43.2" y1="50.4" x2="43.2" y2="64.45"/>
	<rect id="connector16pin" x="42.85" y="50.4" fill="none" width="0.7" height="14.4"/>
	<polygon id="connector16terminal" fill="none" points="42.85,64.8 43.55,64.8 43.55,64.8 	"/>
	<g transform="matrix(1, 0, 0, 1, 44.6, 48.8)">
		<g>
			<g>
				<g>
					<g>
						<g>
							<g transform="rotate(270)">
								<g>
									<g>
										<g>
											<g>
												<g>
													
														<text id="label16" transform="matrix(1 0 0 1 1.943125e-04 -2.241406e-05)" fill="#8C8C8C" font-family="'DroidSans'" font-size="3.5px">GND</text>
												</g>
											</g>
										</g>
									</g>
								</g>
							</g>
						</g>
					</g>
				</g>
			</g>
		</g>
	</g>
	<rect id="connector20pin" y="28.45" fill="none" width="14.4" height="0.7"/>
	<rect id="connector20terminal" y="28.45" fill="none" width="0" height="0.7"/>
	<rect id="connector18pin" x="72" y="28.45" fill="none" width="14.4" height="0.7"/>
	<rect id="connector18terminal" x="86.4" y="28.45" fill="none" width="0" height="0.7"/>
</g>
</svg>
