<?xml version="1.0" encoding="utf-8"?>
<!-- Generator: Adobe Illustrator 20.0.0, SVG Export Plug-In . SVG Version: 6.00 Build 0)  -->
<svg version="1.2" baseProfile="tiny" id="Layer_1" xmlns="http://www.w3.org/2000/svg" xmlns:xlink="http://www.w3.org/1999/xlink"
	 x="0px" y="0px" width="57.6px" height="64.8px" viewBox="0 0 57.6 64.8" xml:space="preserve">
<desc>
	<referenceFile>flora lux v0.2_schematic.svg</referenceFile>
</desc>
<desc>Fritzing schematic generated by brd2svg</desc>
<g id="schematic">
	
		<rect x="14.4" y="14.4" fill="none" stroke="#000000" stroke-width="0.9" stroke-linecap="round" stroke-linejoin="round" width="28.35" height="36"/>
	<text transform="matrix(1 0 0 1 24.5995 36.2659)" font-family="'DroidSans'" font-size="3.5px">F</text>
	<text transform="matrix(1 0 0 1 26.3188 36.2659)" font-family="'DroidSans'" font-size="3.5px">l</text>
	<text transform="matrix(1 0 0 1 27.2245 36.2659)" font-family="'DroidSans'" font-size="3.5px">o</text>
	<text transform="matrix(1 0 0 1 29.2446 36.2659)" font-family="'DroidSans'" font-size="3.5px">r</text>
	<text transform="matrix(1 0 0 1 30.6064 36.2659)" font-family="'DroidSans'" font-size="3.5px">a</text>
	<text transform="matrix(1 0 0 1 22.0173 39.7659)" font-family="'DroidSans'" font-size="3.5px">T</text>
	<text transform="matrix(1 0 0 1 23.7995 39.7659)" font-family="'DroidSans'" font-size="3.5px">S</text>
	<text transform="matrix(1 0 0 1 25.6164 39.7659)" font-family="'DroidSans'" font-size="3.5px">L</text>
	<text transform="matrix(1 0 0 1 27.3356 39.7659)" font-family="'DroidSans'" font-size="3.5px">2</text>
	<text transform="matrix(1 0 0 1 29.2634 39.7659)" font-family="'DroidSans'" font-size="3.5px">5</text>
	<text transform="matrix(1 0 0 1 31.1911 39.7659)" font-family="'DroidSans'" font-size="3.5px">6</text>
	<text transform="matrix(1 0 0 1 33.1188 39.7659)" font-family="'DroidSans'" font-size="3.5px">1</text>
	<text id="label_3_" transform="matrix(1 0 0 1 22.1638 32.7663)" font-family="'DroidSans'" font-size="3.5px">Adafruit</text>
	
		<line fill="none" stroke="#787878" stroke-width="0.7" stroke-linecap="round" stroke-linejoin="round" x1="0.35" y1="28.8" x2="14.4" y2="28.8"/>
	<rect id="connector9pin" x="0" y="28.45" fill="none" width="14.4" height="0.7"/>
	<rect id="connector9terminal" x="0" y="28.45" fill="none" width="0" height="0.7"/>
	<text id="label9" transform="matrix(1 0 0 1 15.8 29.5)" fill="#8C8C8C" font-family="'DroidSans'" font-size="3.5px">SCL</text>
	
		<line fill="none" stroke="#787878" stroke-width="0.7" stroke-linecap="round" stroke-linejoin="round" x1="42.85" y1="28.8" x2="57.25" y2="28.8"/>
	<rect id="connector11pin" x="43.2" y="28.45" fill="none" width="14.4" height="0.7"/>
	<rect id="connector11terminal" x="57.6" y="28.45" fill="none" width="0" height="0.7"/>
	<text transform="matrix(1 0 0 1 35.4955 29.5)" fill="#8C8C8C" font-family="'DroidSans'" font-size="3.5px">S</text>
	<text transform="matrix(1 0 0 1 37.312 29.5)" fill="#8C8C8C" font-family="'DroidSans'" font-size="3.5px">D</text>
	<text transform="matrix(1 0 0 1 39.6723 29.5)" fill="#8C8C8C" font-family="'DroidSans'" font-size="3.5px">A</text>
	
		<line fill="none" stroke="#787878" stroke-width="0.7" stroke-linecap="round" stroke-linejoin="round" x1="28.8" y1="0.35" x2="28.8" y2="14.4"/>
	<rect id="connector19pin" x="28.45" fill="none" width="0.7" height="14.4"/>
	<polygon id="connector19terminal" fill="none" points="28.45,0 29.15,0 29.15,0 	"/>
	<g transform="matrix(1, 0, 0, 1, 30.2, 16)">
		<g>
			<g>
				<g>
					<g>
						<g>
							<g transform="rotate(270)">
								<g>
									<g>
										<g>
											<g>
												<g>
													
														<text id="label19" transform="matrix(1 0 0 1 -6.7812 1.120703e-05)" fill="#8C8C8C" font-family="'DroidSans'" font-size="3.5px">3.3V</text>
												</g>
											</g>
										</g>
									</g>
								</g>
							</g>
						</g>
					</g>
				</g>
			</g>
		</g>
	</g>
	
		<line fill="none" stroke="#787878" stroke-width="0.7" stroke-linecap="round" stroke-linejoin="round" x1="28.8" y1="50.4" x2="28.8" y2="64.45"/>
	<rect id="connector4pin" x="28.45" y="50.4" fill="none" width="0.7" height="14.4"/>
	<polygon id="connector4terminal" fill="none" points="28.45,64.8 29.15,64.8 29.15,64.8 	"/>
	<g transform="matrix(1, 0, 0, 1, 30.2, 48.8)">
		<g>
			<g>
				<g>
					<g>
						<g>
							<g transform="rotate(270)">
								<g>
									<g>
										<g>
											<g>
												<g>
													
														<text id="label4" transform="matrix(1 0 0 1 1.943125e-04 1.120703e-05)" fill="#8C8C8C" font-family="'DroidSans'" font-size="3.5px">GND</text>
												</g>
											</g>
										</g>
									</g>
								</g>
							</g>
						</g>
					</g>
				</g>
			</g>
		</g>
	</g>
	<rect id="connector10pin" x="0" y="28.45" fill="none" width="14.4" height="0.7"/>
	<rect id="connector10terminal" x="0" y="28.45" fill="none" width="0" height="0.7"/>
	<rect id="connector12pin" x="43.2" y="28.45" fill="none" width="14.4" height="0.7"/>
	<rect id="connector12terminal" x="57.6" y="28.45" fill="none" width="0" height="0.7"/>
</g>
</svg>
