<?xml version="1.0" encoding="utf-8"?>
<!-- Generator: Adobe Illustrator 20.0.0, SVG Export Plug-In . SVG Version: 6.00 Build 0)  -->
<svg version="1.2" baseProfile="tiny" id="Layer_1" xmlns="http://www.w3.org/2000/svg" xmlns:xlink="http://www.w3.org/1999/xlink"
	 x="0px" y="0px" width="72px" height="79.2px" viewBox="0 0 72 79.2" xml:space="preserve">
<desc>
	<referenceFile>Flora BLE Friend rev B_schematic.svg</referenceFile>
</desc>
<desc>Fritzing schematic generated by brd2svg</desc>
<g id="schematic">
	
		<rect x="14.4" y="14.4" fill="none" stroke="#000000" stroke-width="0.9" stroke-linecap="round" stroke-linejoin="round" width="42.75" height="50.4"/>
	<text id="label_1_" transform="matrix(1 0 0 1 29.162 40.7644)" font-family="'DroidSans'" font-size="3.5px">Bluefruit</text>
	<text transform="matrix(1 0 0 1 32.0873 37.2642)" font-family="'DroidSans'" font-size="3.5px">F</text>
	<text transform="matrix(1 0 0 1 33.8065 37.2642)" font-family="'DroidSans'" font-size="3.5px">l</text>
	<text transform="matrix(1 0 0 1 34.7123 37.2642)" font-family="'DroidSans'" font-size="3.5px">o</text>
	<text transform="matrix(1 0 0 1 36.7323 37.2642)" font-family="'DroidSans'" font-size="3.5px">r</text>
	<text transform="matrix(1 0 0 1 38.0941 37.2642)" font-family="'DroidSans'" font-size="3.5px">a</text>
	<text id="label_4_" transform="matrix(1 0 0 1 29.6512 33.7639)" font-family="'DroidSans'" font-size="3.5px">Adafruit</text>
	<text id="label_2_" transform="matrix(1 0 0 1 34.2363 44.2644)" font-family="'DroidSans'" font-size="3.5px">LE</text>
	
		<line fill="none" stroke="#787878" stroke-width="0.7" stroke-linecap="round" stroke-linejoin="round" x1="0.35" y1="28.8" x2="14.4" y2="28.8"/>
	<rect id="connector31pin" y="28.45" fill="none" width="14.4" height="0.7"/>
	<rect id="connector31terminal" y="28.45" fill="none" width="0" height="0.7"/>
	<text id="label31" transform="matrix(1 0 0 1 15.8 29.5)" fill="#8C8C8C" font-family="'DroidSans'" font-size="3.5px">MODE</text>
	
		<line fill="none" stroke="#787878" stroke-width="0.7" stroke-linecap="round" stroke-linejoin="round" x1="57.25" y1="28.8" x2="71.65" y2="28.8"/>
	<rect id="connector32pin" x="57.6" y="28.45" fill="none" width="14.4" height="0.7"/>
	<rect id="connector32terminal" x="72" y="28.45" fill="none" width="0" height="0.7"/>
	<text transform="matrix(1 0 0 1 49.9417 29.5)" fill="#8C8C8C" font-family="'DroidSans'" font-size="3.5px">T</text>
	<text transform="matrix(1 0 0 1 51.7581 29.5)" fill="#8C8C8C" font-family="'DroidSans'" font-size="3.5px">X</text>
	<text transform="matrix(1 0 0 1 53.6024 29.5)" fill="#8C8C8C" font-family="'DroidSans'" font-size="3.5px">O</text>
	
		<line fill="none" stroke="#787878" stroke-width="0.7" stroke-linecap="round" stroke-linejoin="round" x1="57.25" y1="36" x2="71.65" y2="36"/>
	<rect id="connector24pin" x="57.6" y="35.65" fill="none" width="14.4" height="0.7"/>
	<rect id="connector24terminal" x="72" y="35.65" fill="none" width="0" height="0.7"/>
	<text id="label24" transform="matrix(1 0 0 1 51.0355 36.7)" fill="#8C8C8C" font-family="'DroidSans'" font-size="3.5px">RXI</text>
	
		<line fill="none" stroke="#787878" stroke-width="0.7" stroke-linecap="round" stroke-linejoin="round" x1="36" y1="0.35" x2="36" y2="14.4"/>
	<rect id="connector0pin" x="35.65" fill="none" width="0.7" height="14.4"/>
	<polygon id="connector0terminal" fill="none" points="35.65,0 36.35,0 36.35,0 	"/>
	<g transform="matrix(1, 0, 0, 1, 37.4, 16)">
		<g>
			<g>
				<g transform="rotate(270)">
					<g>
						<g>
							
								<text id="label0" transform="matrix(1 0 0 1 -6.7812 2.241406e-05)" fill="#8C8C8C" font-family="'DroidSans'" font-size="3.5px">3.3V</text>
						</g>
					</g>
				</g>
			</g>
		</g>
	</g>
	
		<line fill="none" stroke="#787878" stroke-width="0.7" stroke-linecap="round" stroke-linejoin="round" x1="36" y1="64.8" x2="36" y2="78.85"/>
	<rect id="connector15pin" x="35.65" y="64.8" fill="none" width="0.7" height="14.4"/>
	<polygon id="connector15terminal" fill="none" points="35.65,79.2 36.35,79.2 36.35,79.2 	"/>
	<g transform="matrix(1, 0, 0, 1, 37.4, 63.2)">
		<g>
			<g>
				<g transform="rotate(270)">
					<g>
						<g>
							
								<text id="label15" transform="matrix(1 0 0 1 -1.943125e-04 2.241406e-05)" fill="#8C8C8C" font-family="'DroidSans'" font-size="3.5px">GND</text>
						</g>
					</g>
				</g>
			</g>
		</g>
	</g>
</g>
</svg>
