<?xml version='1.0' encoding='utf-8'?>
<!-- Generator: Adobe Illustrator 20.0.0, SVG Export Plug-In . SVG Version: 6.00 Build 0)  -->
<svg xmlns="http://www.w3.org/2000/svg" version="1.2" width="1in" height="1.2in" baseProfile="tiny" xml:space="preserve"  x="0px" y="0px" viewBox="0 0 72 86.4" xmlns:xml="http://www.w3.org/XML/1998/namespace" id="Layer_1" gorn="0">
    <desc>
        <referenceFile>Adafruit Si4713 Stereo FM Transmitter_schematic.svg</referenceFile>
    </desc>
    <desc >Fritzing schematic generated by brd2svg</desc>
    <g  id="schematic" gorn="0.1">
        <rect stroke="#000000" width="42.75" fill="none" stroke-linejoin="round" height="57.6"  x="14.4" stroke-width="0.9" y="14.4" stroke-linecap="round"/>
        <g  transform="matrix(1 0 0 1 29.6315 32.7)">
            <text font-size="2.8"  font-family="'DroidSans'" id="label" gorn="0.1.1.0">Adafruit</text>
        </g>
        <g  transform="matrix(1 0 0 1 30.7833 36.2)">
            <text font-size="2.8"  font-family="'DroidSans'" id="label_1_" gorn="0.1.2.0">Si4713</text>
        </g>
        <g  transform="matrix(1 0 0 1 30.9175 39.7)">
            <text font-size="2.8"  font-family="'DroidSans'" id="label_2_" gorn="0.1.3.0">Stereo</text>
        </g>
        <g  transform="matrix(1 0 0 1 33.6177 43.2)">
            <text font-size="2.8"  font-family="'DroidSans'" id="label_3_" gorn="0.1.4.0">FM</text>
        </g>
        <g  transform="matrix(1 0 0 1 26.8732 46.7)">
            <text font-size="2.8"  font-family="'DroidSans'">T</text>
        </g>
        <g  transform="matrix(1 0 0 1 28.5499 46.7)">
            <text font-size="2.8"  font-family="'DroidSans'">r</text>
        </g>
        <g  transform="matrix(1 0 0 1 29.9117 46.7)">
            <text font-size="2.8"  font-family="'DroidSans'">a</text>
        </g>
        <g  transform="matrix(1 0 0 1 31.7697 46.7)">
            <text font-size="2.8"  font-family="'DroidSans'">n</text>
        </g>
        <g  transform="matrix(1 0 0 1 33.8302 46.7)">
            <text font-size="2.8"  font-family="'DroidSans'">s</text>
        </g>
        <g  transform="matrix(1 0 0 1 35.4093 46.7)">
            <text font-size="2.8"  font-family="'DroidSans'">m</text>
        </g>
        <g  transform="matrix(1 0 0 1 38.5455 46.7)">
            <text font-size="2.8"  font-family="'DroidSans'">i</text>
        </g>
        <g  transform="matrix(1 0 0 1 39.4513 46.7)">
            <text font-size="2.8"  font-family="'DroidSans'">t</text>
        </g>
        <g  transform="matrix(1 0 0 1 40.6715 46.7)">
            <text font-size="2.8"  font-family="'DroidSans'">t</text>
        </g>
        <g  transform="matrix(1 0 0 1 41.8575 46.7)">
            <text font-size="2.8"  font-family="'DroidSans'">e</text>
        </g>
        <g  transform="matrix(1 0 0 1 43.7306 46.7)">
            <text font-size="2.8"  font-family="'DroidSans'">r</text>
        </g>
        <line y2="28.8" stroke="#787878" x1="0.35" x2="14.4" fill="none" stroke-linejoin="round"  stroke-width="0.7" stroke-linecap="round" y1="28.8"/>
        <rect width="14.4" fill="none" height="0.7"  y="28.45" id="connector0pin" gorn="0.1.17"/>
        <rect width="0" fill="none" height="0.7"  y="28.45" id="connector0terminal" gorn="0.1.18"/>
        <g  transform="matrix(1 0 0 1 15.8 29.5)">
            <text fill="#8C8C8C" font-size="2.8"  font-family="'DroidSans'" id="label0" gorn="0.1.19.0">ANT</text>
        </g>
        <line y2="36" stroke="#787878" x1="0.35" x2="14.4" fill="none" stroke-linejoin="round"  stroke-width="0.7" stroke-linecap="round" y1="36"/>
        <rect width="14.4" fill="none" height="0.7"  y="35.65" id="connector31pin" gorn="0.1.21"/>
        <rect width="0" fill="none" height="0.7"  y="35.65" id="connector31terminal" gorn="0.1.22"/>
        <g  transform="matrix(1 0 0 1 15.8 36.7)">
            <text fill="#8C8C8C" font-size="2.8"  font-family="'DroidSans'" id="label31" gorn="0.1.23.0">RST</text>
        </g>
        <line y2="43.2" stroke="#787878" x1="0.35" x2="14.4" fill="none" stroke-linejoin="round"  stroke-width="0.7" stroke-linecap="round" y1="43.2"/>
        <rect width="14.4" fill="none" height="0.7"  y="42.85" id="connector30pin" gorn="0.1.25"/>
        <rect width="0" fill="none" height="0.7"  y="42.85" id="connector30terminal" gorn="0.1.26"/>
        <g  transform="matrix(1 0 0 1 15.8 43.9)">
            <text fill="#8C8C8C" font-size="2.8"  font-family="'DroidSans'" id="label30" gorn="0.1.27.0">CS</text>
        </g>
        <line y2="50.4" stroke="#787878" x1="0.35" x2="14.4" fill="none" stroke-linejoin="round"  stroke-width="0.7" stroke-linecap="round" y1="50.4"/>
        <rect width="14.4" fill="none" height="0.7"  y="50.05" id="connector29pin" gorn="0.1.29"/>
        <rect width="0" fill="none" height="0.7"  y="50.05" id="connector29terminal" gorn="0.1.30"/>
        <g  transform="matrix(1 0 0 1 15.8 51.1)">
            <text fill="#8C8C8C" font-size="2.8"  font-family="'DroidSans'" id="label29" gorn="0.1.31.0">SCL</text>
        </g>
        <line y2="57.6" stroke="#787878" x1="0.35" x2="14.4" fill="none" stroke-linejoin="round"  stroke-width="0.7" stroke-linecap="round" y1="57.6"/>
        <rect width="14.4" fill="none" height="0.7"  y="57.25" id="connector28pin" gorn="0.1.33"/>
        <rect width="0" fill="none" height="0.7"  y="57.25" id="connector28terminal" gorn="0.1.34"/>
        <g  transform="matrix(1 0 0 1 15.8 58.3)">
            <text fill="#8C8C8C" font-size="2.8"  font-family="'DroidSans'">S</text>
        </g>
        <g  transform="matrix(1 0 0 1 17.6164 58.3)">
            <text fill="#8C8C8C" font-size="2.8"  font-family="'DroidSans'">D</text>
        </g>
        <g  transform="matrix(1 0 0 1 19.9767 58.3)">
            <text fill="#8C8C8C" font-size="2.8"  font-family="'DroidSans'">A</text>
        </g>
        <line y2="28.8" stroke="#787878" x1="57.25" x2="71.65" fill="none" stroke-linejoin="round"  stroke-width="0.7" stroke-linecap="round" y1="28.8"/>
        <rect width="14.4" fill="none" height="0.7"  x="57.6" y="28.45" id="connector27pin" gorn="0.1.39"/>
        <rect width="0" fill="none" height="0.7"  x="72" y="28.45" id="connector27terminal" gorn="0.1.40"/>
        <g  transform="matrix(1 0 0 1 49.8409 29.5)">
            <text fill="#8C8C8C" font-size="2.8"  font-family="'DroidSans'" id="label27" gorn="0.1.41.0">GP1</text>
        </g>
        <line y2="36" stroke="#787878" x1="57.25" x2="71.65" fill="none" stroke-linejoin="round"  stroke-width="0.7" stroke-linecap="round" y1="36"/>
        <rect width="14.4" fill="none" height="0.7"  x="57.6" y="35.65" id="connector26pin" gorn="0.1.43"/>
        <rect width="0" fill="none" height="0.7"  x="72" y="35.65" id="connector26terminal" gorn="0.1.44"/>
        <g  transform="matrix(1 0 0 1 49.8409 36.7)">
            <text fill="#8C8C8C" font-size="2.8"  font-family="'DroidSans'" id="label26" gorn="0.1.45.0">GP2</text>
        </g>
        <line y2="43.2" stroke="#787878" x1="57.25" x2="71.65" fill="none" stroke-linejoin="round"  stroke-width="0.7" stroke-linecap="round" y1="43.2"/>
        <rect width="14.4" fill="none" height="0.7"  x="57.6" y="42.85" id="connector21pin" gorn="0.1.47"/>
        <rect width="0" fill="none" height="0.7"  x="72" y="42.85" id="connector21terminal" gorn="0.1.48"/>
        <g  transform="matrix(1 0 0 1 50.398 43.9)">
            <text fill="#8C8C8C" font-size="2.8"  font-family="'DroidSans'" id="label21" gorn="0.1.49.0">RIN</text>
        </g>
        <line y2="50.4" stroke="#787878" x1="57.25" x2="71.65" fill="none" stroke-linejoin="round"  stroke-width="0.7" stroke-linecap="round" y1="50.4"/>
        <rect width="14.4" fill="none" height="0.7"  x="57.6" y="50.05" id="connector22pin" gorn="0.1.51"/>
        <rect width="0" fill="none" height="0.7"  x="72" y="50.05" id="connector22terminal" gorn="0.1.52"/>
        <g  transform="matrix(1 0 0 1 50.7432 51.1)">
            <text fill="#8C8C8C" font-size="2.8"  font-family="'DroidSans'" id="label22" gorn="0.1.53.0">LIN</text>
        </g>
        <line y2="14.4" stroke="#787878" x1="36" x2="36" fill="none" stroke-linejoin="round"  stroke-width="0.7" stroke-linecap="round" y1="0.35"/>
        <rect width="0.7" fill="none" height="14.4"  x="35.65" id="connector23pin" gorn="0.1.55"/>
        <polygon points="35.65,0 36.35,0 36.35,0 " fill="none"  id="connector23terminal" gorn="0.1.56"/>
        <g  transform="matrix(1, 0, 0, 1, 37.4, 16)">
            <g >
                <g  transform="rotate(270)">
                    <g >
                        <g  transform="matrix(1 0 0 1 -5.7256 2.241406e-05)">
                            <text fill="#8C8C8C" font-size="2.8"  font-family="'DroidSans'" id="label23" gorn="0.1.57.0.0.0.0.0">VIN</text>
                        </g>
                    </g>
                </g>
            </g>
        </g>
        <line y2="14.4" stroke="#787878" x1="43.2" x2="43.2" fill="none" stroke-linejoin="round"  stroke-width="0.7" stroke-linecap="round" y1="0.35"/>
        <rect width="0.7" fill="none" height="14.4"  x="42.85" id="connector25pin" gorn="0.1.59"/>
        <polygon points="42.85,0 43.55,0 43.55,0 " fill="none"  id="connector25terminal" gorn="0.1.60"/>
        <g  transform="matrix(1, 0, 0, 1, 44.6, 16)">
            <g >
                <g  transform="rotate(270)">
                    <g >
                        <g  transform="matrix(1 0 0 1 -7.7705 -2.241406e-05)">
                            <text fill="#8C8C8C" font-size="2.8"  font-family="'DroidSans'" id="label25" gorn="0.1.61.0.0.0.0.0">+3V3</text>
                        </g>
                    </g>
                </g>
            </g>
        </g>
        <line y2="86.05" stroke="#787878" x1="36" x2="36" fill="none" stroke-linejoin="round"  stroke-width="0.7" stroke-linecap="round" y1="72"/>
        <rect width="0.7" fill="none" height="14.4"  x="35.65" y="72" id="connector24pin" gorn="0.1.63"/>
        <polygon points="35.65,86.4 36.35,86.4 36.35,86.4 " fill="none"  id="connector24terminal" gorn="0.1.64"/>
        <g  transform="matrix(1, 0, 0, 1, 37.4, 70.4)">
            <g >
                <g  transform="rotate(270)">
                    <g >
                        <g  transform="matrix(1 0 0 1 -3.886250e-04 2.241406e-05)">
                            <text fill="#8C8C8C" font-size="2.8"  font-family="'DroidSans'" id="label24" gorn="0.1.65.0.0.0.0.0">GND</text>
                        </g>
                    </g>
                </g>
            </g>
        </g>
    </g>
</svg>
