<?xml version="1.0" encoding="utf-8"?>
<!-- Generator: Adobe Illustrator 20.0.0, SVG Export Plug-In . SVG Version: 6.00 Build 0)  -->
<svg version="1.2" baseProfile="tiny" id="Layer_1" xmlns="http://www.w3.org/2000/svg" xmlns:xlink="http://www.w3.org/1999/xlink"
	 x="0px" y="0px" width="72px" height="64.8px" viewBox="0 0 72 64.8" xml:space="preserve">
<desc>
	<referenceFile>gemma3v3minib_schematic.svg</referenceFile>
</desc>
<desc>Fritzing schematic generated by brd2svg</desc>
<g id="schematic">
	
		<rect x="14.4" y="14.4" fill="none" stroke="#000000" stroke-width="0.9" stroke-linecap="round" stroke-linejoin="round" width="42.75" height="36"/>
	<text id="label" transform="matrix(1 0 0 1 29.8672 29.9203)" font-family="'DroidSans'" font-size="3.5px">Adafruit</text>
	<text id="label_1_" transform="matrix(1 0 0 1 29.9944 33.9297)" font-family="'DroidSans'" font-size="3.5px">GEMMA</text>
	
		<line fill="none" stroke="#787878" stroke-width="0.7" stroke-linecap="round" stroke-linejoin="round" x1="0.35" y1="28.8" x2="14.4" y2="28.8"/>
	<rect id="connector1pin" y="28.45" fill="none" width="14.4" height="0.7"/>
	<rect id="connector1terminal" y="28.45" fill="none" width="0" height="0.7"/>
	<text id="label1" transform="matrix(1 0 0 1 15.8 29.5)" fill="#8C8C8C" font-family="'DroidSans'" font-size="3.5px">B0</text>
	
		<line fill="none" stroke="#787878" stroke-width="0.7" stroke-linecap="round" stroke-linejoin="round" x1="0.35" y1="36" x2="14.4" y2="36"/>
	<rect id="connector2pin" y="35.65" fill="none" width="14.4" height="0.7"/>
	<rect id="connector2terminal" y="35.65" fill="none" width="0" height="0.7"/>
	<text id="label2" transform="matrix(1 0 0 1 15.8 36.7)" fill="#8C8C8C" font-family="'DroidSans'" font-size="3.5px">B1</text>
	
		<line fill="none" stroke="#787878" stroke-width="0.7" stroke-linecap="round" stroke-linejoin="round" x1="57.25" y1="28.8" x2="71.65" y2="28.8"/>
	<rect id="connector3pin" x="57.6" y="28.45" fill="none" width="14.4" height="0.7"/>
	<rect id="connector3terminal" x="72" y="28.45" fill="none" width="0" height="0.7"/>
	<text id="label3" transform="matrix(1 0 0 1 52.0984 29.5)" fill="#8C8C8C" font-family="'DroidSans'" font-size="3.5px">B2</text>
	
		<line fill="none" stroke="#787878" stroke-width="0.7" stroke-linecap="round" stroke-linejoin="round" x1="36" y1="0.35" x2="36" y2="14.4"/>
	<rect id="connector0pin" x="35.65" fill="none" width="0.7" height="14.4"/>
	<polygon id="connector0terminal" fill="none" points="35.65,0 36.35,0 36.35,0 	"/>
	<g transform="matrix(1, 0, 0, 1, 37.4, 16)">
		<g>
			<g>
				<g>
					<g transform="rotate(270)">
						<g>
							<g>
								<g>
									
										<text id="label0" transform="matrix(1 0 0 1 -6.7812 2.241406e-05)" fill="#8C8C8C" font-family="'DroidSans'" font-size="3.5px">3.3V</text>
								</g>
							</g>
						</g>
					</g>
				</g>
			</g>
		</g>
	</g>
	
		<line fill="none" stroke="#787878" stroke-width="0.7" stroke-linecap="round" stroke-linejoin="round" x1="43.2" y1="0.35" x2="43.2" y2="14.4"/>
	<rect id="connector50pin" x="42.85" fill="none" width="0.7" height="14.4"/>
	<polygon id="connector50terminal" fill="none" points="42.85,0 43.55,0 43.55,0 	"/>
	<g transform="matrix(1, 0, 0, 1, 44.6, 16)">
		<g>
			<g>
				<g>
					<g transform="rotate(270)">
						<g>
							<g>
								<g>
									<text transform="matrix(1 0 0 1 -7.1504 -2.241406e-05)" fill="#8C8C8C" font-family="'DroidSans'" font-size="3.5px">V</text>
									<text transform="matrix(1 0 0 1 -5.2671 -2.241406e-05)" fill="#8C8C8C" font-family="'DroidSans'" font-size="3.5px">o</text>
									<text transform="matrix(1 0 0 1 -3.2471 -2.241406e-05)" fill="#8C8C8C" font-family="'DroidSans'" font-size="3.5px">u</text>
									<text transform="matrix(1 0 0 1 -1.186 -2.241406e-05)" fill="#8C8C8C" font-family="'DroidSans'" font-size="3.5px">t</text>
								</g>
							</g>
						</g>
					</g>
				</g>
			</g>
		</g>
	</g>
	
		<line fill="none" stroke="#787878" stroke-width="0.7" stroke-linecap="round" stroke-linejoin="round" x1="36" y1="50.4" x2="36" y2="64.45"/>
	<rect id="connector18pin" x="35.65" y="50.4" fill="none" width="0.7" height="14.4"/>
	<polygon id="connector18terminal" fill="none" points="35.65,64.8 36.35,64.8 36.35,64.8 	"/>
	<g transform="matrix(1, 0, 0, 1, 37.4, 48.8)">
		<g>
			<g>
				<g>
					<g transform="rotate(270)">
						<g>
							<g>
								<g>
									
										<text id="label18" transform="matrix(1 0 0 1 1.943125e-04 2.241406e-05)" fill="#8C8C8C" font-family="'DroidSans'" font-size="3.5px">GND</text>
								</g>
							</g>
						</g>
					</g>
				</g>
			</g>
		</g>
	</g>
</g>
</svg>
