<?xml version="1.0" encoding="utf-8"?>
<!-- Generator: Adobe Illustrator 20.0.0, SVG Export Plug-In . SVG Version: 6.00 Build 0)  -->
<svg version="1.2" baseProfile="tiny" id="Layer_1" xmlns="http://www.w3.org/2000/svg" xmlns:xlink="http://www.w3.org/1999/xlink"
	 x="0px" y="0px" width="57.6px" height="72px" viewBox="0 0 57.6 72" xml:space="preserve">
<desc>
	<referenceFile>gemma microB rev B_schematic.svg</referenceFile>
</desc>
<desc>Fritzing schematic generated by brd2svg</desc>
<g id="schematic">
	
		<rect x="14.4" y="14.4" fill="none" stroke="#000000" stroke-width="0.9" stroke-linecap="round" stroke-linejoin="round" width="28.35" height="43.2"/>
	<text id="label" transform="matrix(1 0 0 1 22.9695 34.6)" font-family="'DroidSans'" font-size="3.5px">Adafruit</text>
	<text id="label_1_" transform="matrix(1 0 0 1 23.0965 38.1)" font-family="'DroidSans'" font-size="3.5px">GEMMA</text>
	
		<line fill="none" stroke="#787878" stroke-width="0.7" stroke-linecap="round" stroke-linejoin="round" x1="0.35" y1="28.8" x2="14.4" y2="28.8"/>
	<rect id="connector1pin" x="0" y="28.45" fill="none" width="14.4" height="0.7"/>
	<rect id="connector1terminal" x="0" y="28.45" fill="none" width="0" height="0.7"/>
	<text id="label1" transform="matrix(1 0 0 1 15.8 29.5)" fill="#8C8C8C" font-family="'DroidSans'" font-size="3.5px">B0</text>
	
		<line fill="none" stroke="#787878" stroke-width="0.7" stroke-linecap="round" stroke-linejoin="round" x1="0.35" y1="36" x2="14.4" y2="36"/>
	<rect id="connector2pin" x="0" y="35.65" fill="none" width="14.4" height="0.7"/>
	<rect id="connector2terminal" x="0" y="35.65" fill="none" width="0" height="0.7"/>
	<text id="label2" transform="matrix(1 0 0 1 15.8 36.7)" fill="#8C8C8C" font-family="'DroidSans'" font-size="3.5px">B1</text>
	
		<line fill="none" stroke="#787878" stroke-width="0.7" stroke-linecap="round" stroke-linejoin="round" x1="42.85" y1="28.8" x2="57.25" y2="28.8"/>
	<rect id="connector3pin" x="43.2" y="28.45" fill="none" width="14.4" height="0.7"/>
	<rect id="connector3terminal" x="57.6" y="28.45" fill="none" width="0" height="0.7"/>
	<text id="label3" transform="matrix(1 0 0 1 37.6984 29.5)" fill="#8C8C8C" font-family="'DroidSans'" font-size="3.5px">B2</text>
	
		<line fill="none" stroke="#787878" stroke-width="0.7" stroke-linecap="round" stroke-linejoin="round" x1="28.8" y1="0.35" x2="28.8" y2="14.4"/>
	<rect id="connector0pin" x="28.45" fill="none" width="0.7" height="14.4"/>
	<polygon id="connector0terminal" fill="none" points="28.45,0 29.15,0 29.15,0 	"/>
	<g transform="matrix(1, 0, 0, 1, 30.2, 16)">
		<g>
			<g>
				<g>
					<g transform="rotate(270)">
						<g>
							<g>
								<g>
									
										<text id="label0" transform="matrix(1 0 0 1 -6.7812 1.120703e-05)" fill="#8C8C8C" font-family="'DroidSans'" font-size="3.5px">3.3V</text>
								</g>
							</g>
						</g>
					</g>
				</g>
			</g>
		</g>
	</g>
	
		<line fill="none" stroke="#787878" stroke-width="0.7" stroke-linecap="round" stroke-linejoin="round" x1="36" y1="0.35" x2="36" y2="14.4"/>
	<rect id="connector69pin" x="35.65" fill="none" width="0.7" height="14.4"/>
	<polygon id="connector69terminal" fill="none" points="35.65,0 36.35,0 36.35,0 	"/>
	<g transform="matrix(1, 0, 0, 1, 37.4, 16)">
		<g>
			<g>
				<g>
					<g transform="rotate(270)">
						<g>
							<g>
								<g>
									<text transform="matrix(1 0 0 1 -7.1504 2.241406e-05)" fill="#8C8C8C" font-family="'DroidSans'" font-size="3.5px">V</text>
									<text transform="matrix(1 0 0 1 -5.2671 2.241406e-05)" fill="#8C8C8C" font-family="'DroidSans'" font-size="3.5px">o</text>
									<text transform="matrix(1 0 0 1 -3.2471 2.241406e-05)" fill="#8C8C8C" font-family="'DroidSans'" font-size="3.5px">u</text>
									<text transform="matrix(1 0 0 1 -1.186 2.241406e-05)" fill="#8C8C8C" font-family="'DroidSans'" font-size="3.5px">t</text>
								</g>
							</g>
						</g>
					</g>
				</g>
			</g>
		</g>
	</g>
	
		<line fill="none" stroke="#787878" stroke-width="0.7" stroke-linecap="round" stroke-linejoin="round" x1="28.8" y1="57.6" x2="28.8" y2="71.65"/>
	<rect id="connector18pin" x="28.45" y="57.6" fill="none" width="0.7" height="14.4"/>
	<polygon id="connector18terminal" fill="none" points="28.45,72 29.15,72 29.15,72 	"/>
	<g transform="matrix(1, 0, 0, 1, 30.2, 56)">
		<g>
			<g>
				<g>
					<g transform="rotate(270)">
						<g>
							<g>
								<g>
									
										<text id="label18" transform="matrix(1 0 0 1 0 1.120703e-05)" fill="#8C8C8C" font-family="'DroidSans'" font-size="3.5px">GND</text>
								</g>
							</g>
						</g>
					</g>
				</g>
			</g>
		</g>
	</g>
</g>
</svg>
