<?xml version="1.0" encoding="utf-8"?>
<!-- Generator: Adobe Illustrator 20.0.0, SVG Export Plug-In . SVG Version: 6.00 Build 0)  -->
<svg version="1.2" baseProfile="tiny" id="Layer_1" xmlns="http://www.w3.org/2000/svg" xmlns:xlink="http://www.w3.org/1999/xlink"
	 x="0px" y="0px" width="115.2px" height="36px" viewBox="0 0 115.2 36" xml:space="preserve">
<desc>
	<referenceFile>prefix0000_f4be6e4fb114b97faa8eefb5f65e6d53_1_schematic.svg</referenceFile>
</desc>
<desc>Fritzing schematic generated by brd2svg</desc>
<g id="schematic">
	
		<rect x="0.45" y="0.45" fill="none" stroke="#000000" stroke-width="0.9" stroke-linecap="round" stroke-linejoin="round" width="114.75" height="21.15"/>
	<text id="label" transform="matrix(1 0 0 1 52.0301 10.9)" font-family="'DroidSans'" font-size="3.5px">JST 3-pin</text>
	<polygon fill="none" points="57.6,21.6 57.6,21.6 57.6,21.6 	"/>
	<polygon fill="none" points="57.6,21.6 57.6,21.6 57.6,21.6 	"/>
	<polygon fill="none" points="57.6,21.6 57.6,21.6 57.6,21.6 	"/>
	<polygon fill="none" points="57.6,21.6 57.6,21.6 57.6,21.6 	"/>
	<polygon fill="none" points="57.6,21.6 57.6,21.6 57.6,21.6 	"/>
	<polygon fill="none" points="57.6,21.6 57.6,21.6 57.6,21.6 	"/>
	
		<line fill="none" stroke="#787878" stroke-width="0.7" stroke-linecap="round" stroke-linejoin="round" x1="43.2" y1="21.6" x2="43.2" y2="35.65"/>
	<rect id="connector0pin" x="42.85" y="21.6" fill="none" width="0.7" height="14.4"/>
	<polygon fill="none" points="42.85,36 43.55,36 43.55,36 	"/>
	<g transform="matrix(1, 0, 0, 1, 44.6, 20)">
		<g>
			<g>
				<g>
					<g>
						<g transform="rotate(270)">
							<g>
								<g>
									<g>
										<g>
											
												<text id="label0" transform="matrix(1 0 0 1 0 -2.241406e-05)" fill="#8C8C8C" font-family="'DroidSans'" font-size="3.5px">L</text>
										</g>
									</g>
								</g>
							</g>
						</g>
					</g>
				</g>
			</g>
		</g>
	</g>
	
		<line fill="none" stroke="#787878" stroke-width="0.7" stroke-linecap="round" stroke-linejoin="round" x1="50.4" y1="21.6" x2="50.4" y2="35.65"/>
	<rect id="connector1pin" x="50.05" y="21.6" fill="none" width="0.7" height="14.4"/>
	<polygon fill="none" points="50.05,36 50.75,36 50.75,36 	"/>
	<g transform="matrix(1, 0, 0, 1, 51.8, 20)">
		<g>
			<g>
				<g>
					<g>
						<g transform="rotate(270)">
							<g>
								<g>
									<g>
										<g>
											
												<text id="label1" transform="matrix(1 0 0 1 0 -1.120703e-05)" fill="#8C8C8C" font-family="'DroidSans'" font-size="3.5px">M</text>
										</g>
									</g>
								</g>
							</g>
						</g>
					</g>
				</g>
			</g>
		</g>
	</g>
	
		<line fill="none" stroke="#787878" stroke-width="0.7" stroke-linecap="round" stroke-linejoin="round" x1="57.6" y1="21.6" x2="57.6" y2="35.65"/>
	<rect id="connector2pin" x="57.25" y="21.6" fill="none" width="0.7" height="14.4"/>
	<polygon fill="none" points="57.25,36 57.95,36 57.95,36 	"/>
	<g transform="matrix(1, 0, 0, 1, 59, 20)">
		<g>
			<g>
				<g>
					<g>
						<g transform="rotate(270)">
							<g>
								<g>
									<g>
										<g>
											<text id="label2" fill="#8C8C8C" font-family="'DroidSans'" font-size="3.5px">R</text>
										</g>
									</g>
								</g>
							</g>
						</g>
					</g>
				</g>
			</g>
		</g>
	</g>
</g>
</svg>
