<?xml version='1.0' encoding='utf-8'?>
<!-- Generator: Adobe Illustrator 20.0.0, SVG Export Plug-In . SVG Version: 6.00 Build 0)  -->
<svg xmlns="http://www.w3.org/2000/svg" baseProfile="tiny" height="1in" gorn="0" xml:space="preserve" width="0.506222in" version="1.2" xmlns:xml="http://www.w3.org/XML/1998/namespace"  id="Layer_1" x="0px" y="0px" viewBox="0 0 36.448 72">
    <desc>
        <referenceFile>Adafruit Micro Lipo_schematic.svg</referenceFile>
    </desc>
    <desc >Fritzing schematic generated by brd2svg</desc>
    <g gorn="0.1"  id="schematic">
        <rect height="43.2" stroke-linecap="round" width="35.549" fill="none"  stroke-width="0.8986" x="0.449" y="14.4" stroke="#000000" stroke-linejoin="round"/>
        <g transform="matrix(1 0 0 1 12.0804 29)" >
            <text font-size="2.8" gorn="0.1.1.0" font-family="'DroidSans'"  id="label">Adafruit</text>
        </g>
        <g transform="matrix(1 0 0 1 13.9551 32.5)" >
            <text font-size="2.8" gorn="0.1.2.0" font-family="'DroidSans'"  id="label_1_">Micro</text>
        </g>
        <g transform="matrix(1 0 0 1 15.101 36)" >
            <text font-size="2.8" gorn="0.1.3.0" font-family="'DroidSans'"  id="label_2_">Lipo</text>
        </g>
        <line x1="17.999" stroke-linecap="round" x2="17.999" fill="none"  stroke-width="0.7" stroke="#787878" stroke-linejoin="round" y1="0.35" y2="14.4"/>
        <rect height="14.4" gorn="0.1.5" width="0.7" fill="none"  id="connector17pin" x="17.649"/>
        <polygon gorn="0.1.6" fill="none"  id="connector17terminal" points="17.649,0 18.349,0 18.349,0 "/>
        <g transform="matrix(1, 0, 0, 1, 59, 16)" >
            <g >
                <g transform="rotate(270)" >
                    <g >
                        <g transform="matrix(1 0 0 1 -3.915 -39.6011)" >
                            <text font-size="2.8" gorn="0.1.7.0.0.0.0.0" font-family="'DroidSans'" fill="#8C8C8C"  id="label17">5V</text>
                        </g>
                    </g>
                </g>
            </g>
        </g>
        <line x1="25.199" stroke-linecap="round" x2="25.199" fill="none"  stroke-width="0.7" stroke="#787878" stroke-linejoin="round" y1="0.35" y2="14.4"/>
        <rect height="14.4" gorn="0.1.9" width="0.7" fill="none"  id="connector15pin" x="24.849"/>
        <polygon gorn="0.1.10" fill="none"  id="connector15terminal" points="24.849,0 25.549,0 25.549,0 "/>
        <g transform="matrix(1, 0, 0, 1, 66.2, 16)" >
            <g >
                <g transform="rotate(270)" >
                    <g >
                        <g transform="matrix(1 0 0 1 -7.8955 -39.6011)" >
                            <text font-size="2.8" font-family="'DroidSans'" fill="#8C8C8C" >V</text>
                        </g>
                        <g transform="matrix(1 0 0 1 -5.9082 -39.6011)" >
                            <text font-size="2.8" font-family="'DroidSans'" fill="#8C8C8C" >B</text>
                        </g>
                        <g transform="matrix(1 0 0 1 -3.7344 -39.6011)" >
                            <text font-size="2.8" font-family="'DroidSans'" fill="#8C8C8C" >A</text>
                        </g>
                        <g transform="matrix(1 0 0 1 -1.8164 -39.6011)" >
                            <text font-size="2.8" font-family="'DroidSans'" fill="#8C8C8C" >T</text>
                        </g>
                    </g>
                </g>
            </g>
        </g>
        <line x1="17.999" stroke-linecap="round" x2="17.999" fill="none"  stroke-width="0.7" stroke="#787878" stroke-linejoin="round" y1="57.6" y2="71.65"/>
        <rect height="14.4" gorn="0.1.13" width="0.7" fill="none"  id="connector16pin" x="17.649" y="57.6"/>
        <polygon gorn="0.1.14" fill="none"  id="connector16terminal" points="17.649,72 18.349,72 18.349,72 "/>
        <g transform="matrix(1, 0, 0, 1, 59, 56)" >
            <g >
                <g transform="rotate(270)" >
                    <g >
                        <g transform="matrix(1 0 0 1 0 -39.6011)" >
                            <text font-size="2.8" gorn="0.1.15.0.0.0.0.0" font-family="'DroidSans'" fill="#8C8C8C"  id="label16">GND</text>
                        </g>
                    </g>
                </g>
            </g>
        </g>
        <rect height="14.4" gorn="0.1.16" width="0.7" fill="none"  id="connector18pin" x="17.649" y="57.6"/>
        <polygon gorn="0.1.17" fill="none"  id="connector18terminal" points="17.649,72 18.349,72 18.349,72 "/>
        <rect height="14.4" gorn="0.1.18" width="0.7" fill="none"  id="connector48pin" x="17.649" y="57.6"/>
        <polygon gorn="0.1.19" fill="none"  id="connector48terminal" points="17.649,72 18.349,72 18.349,72 "/>
        <rect height="14.4" gorn="0.1.20" width="0.7" fill="none"  id="connector49pin" x="17.649" y="57.6"/>
        <polygon gorn="0.1.21" fill="none"  id="connector49terminal" points="17.649,72 18.349,72 18.349,72 "/>
        <rect height="14.4" gorn="0.1.22" width="0.7" fill="none"  id="connector50pin" x="17.649" y="57.6"/>
        <polygon gorn="0.1.23" fill="none"  id="connector50terminal" points="17.649,72 18.349,72 18.349,72 "/>
        <rect height="14.4" gorn="0.1.24" width="0.7" fill="none"  id="connector51pin" x="17.649" y="57.6"/>
        <polygon gorn="0.1.25" fill="none"  id="connector51terminal" points="17.649,72 18.349,72 18.349,72 "/>
    </g>
</svg>
