<?xml version='1.0' encoding='UTF-8' standalone='no'?>
<!-- Created with Fritzing (http://www.fritzing.org/) -->
<svg xmlns="http://www.w3.org/2000/svg"  width="1.4in" x="0in" version="1.2" y="0in" height="1in" viewBox="0 0 100.8 72" baseProfile="tiny">
 <desc >Fritzing schematic generated by brd2svg</desc>
 <g  id="schematic">
  <rect  width="71.55" x="14.4" y="14.4" fill="none" height="43.2" stroke="#000000" stroke-linejoin="round" stroke-linecap="round" stroke-width="0.9"/>
  <text  x="50.4" y="29" font-family="'Droid Sans'" fill="#000000" text-anchor="middle" stroke="none" id="label" font-size="3.5">PowerBoost</text>
  <text  x="50.4" y="32.5" font-family="'Droid Sans'" fill="#000000" text-anchor="middle" stroke="none" id="label" font-size="3.5">1000</text>
  <text  x="50.4" y="36" font-family="'Droid Sans'" fill="#000000" text-anchor="middle" stroke="none" id="label" font-size="3.5">Basic</text>
  <line  fill="none" stroke="#787878" stroke-linejoin="round" stroke-linecap="round" y1="28.8" stroke-width="0.699998" x1="0.349999" y2="28.8" x2="14.4"/>
  <rect  width="14.4" x="0" y="28.45" fill="none" height="0.699998" id="connector23pin" stroke-width="0" connectorName="VBAT"/>
  <rect  width="0" x="0" y="28.45" fill="none" height="0.699998" id="connector23terminal" stroke-width="0"/>
  <text  x="15.8" y="29.5" font-family="'Droid Sans'" fill="#8c8c8c" text-anchor="start" stroke="none" id="label23" font-size="3.5">VBAT</text>
  <line  fill="none" stroke="#787878" stroke-linejoin="round" stroke-linecap="round" y1="28.8" stroke-width="0.699998" x1="86.0501" y2="28.8" x2="100.45"/>
  <rect  width="14.4" x="86.4" y="28.45" fill="none" connectorname="ENABLE" height="0.699998" id="connector25pin" stroke-width="0"/>
  <rect  width="0" x="100.8" y="28.45" fill="none" height="0.699998" id="connector25terminal" stroke-width="0"/>
  <text  x="85.0003" y="29.5" font-family="'Droid Sans'" fill="#8c8c8c" text-anchor="end" stroke="none" id="label25" font-size="3.5">ENABLE</text>
  <line  fill="none" stroke="#787878" stroke-linejoin="round" stroke-linecap="round" y1="36" stroke-width="0.699998" x1="86.0501" y2="36" x2="100.45"/>
  <rect  width="14.4" x="86.4" y="35.65" fill="none" connectorname="LBO" height="0.699998" id="connector26pin" stroke-width="0"/>
  <rect  width="0" x="100.8" y="35.65" fill="none" height="0.699998" id="connector26terminal" stroke-width="0"/>
  <text  x="85.0003" y="36.7" font-family="'Droid Sans'" fill="#8c8c8c" text-anchor="end" stroke="none" id="label26" font-size="3.5">LBO</text>
  <line  fill="none" stroke="#787878" stroke-linejoin="round" stroke-linecap="round" y1="0.349999" stroke-width="0.699998" x1="50.4" y2="14.4" x2="50.4"/>
  <rect  width="0.699998" x="50.05" y="0" fill="none" connectorname="5.0V" height="14.4" id="connector28pin" stroke-width="0"/>
  <rect  width="0.699998" x="50.05" y="0" fill="none" height="0" id="connector28terminal" stroke-width="0"/>
  <g  transform="matrix(1, 0, 0, 1, 51.8, 16)">
   <g  transform="rotate(270)">
    <text  x="0" y="0" font-family="'Droid Sans'" fill="#8c8c8c" text-anchor="end" stroke="none" id="label28" font-size="3.5">5.0V</text>
   </g>
  </g>
  <line  fill="none" stroke="#787878" stroke-linejoin="round" stroke-linecap="round" y1="57.6" stroke-width="0.699998" x1="50.4" y2="71.65" x2="50.4"/>
  <rect  width="0.699998" x="50.05" y="57.6" fill="none" connectorname="GND" height="14.4" id="connector24pin" stroke-width="0"/>
  <rect  width="0.699998" x="50.05" y="72" fill="none" height="0" id="connector24terminal" stroke-width="0"/>
  <g  transform="matrix(1, 0, 0, 1, 51.8, 56)">
   <g  transform="rotate(270)">
    <text  x="0" y="0" font-family="'Droid Sans'" fill="#8c8c8c" text-anchor="start" stroke="none" id="label24" font-size="3.5">GND</text>
   </g>
  </g>
  <rect  width="0.699998" x="50.05" y="0" fill="none" connectorname="5.0V" height="14.4" id="connector85pin" stroke-width="0"/>
  <rect  width="0.699998" x="50.05" y="0" fill="none" height="0" id="connector85terminal" stroke-width="0"/>
  <rect  width="0.699998" x="50.05" y="57.6" fill="none" connectorname="GND" height="14.4" id="connector27pin" stroke-width="0"/>
  <rect  width="0.699998" x="50.05" y="72" fill="none" height="0" id="connector27terminal" stroke-width="0"/>
  <rect  width="0.699998" x="50.05" y="57.6" fill="none" connectorname="GND" height="14.4" id="connector84pin" stroke-width="0"/>
  <rect  width="0.699998" x="50.05" y="72" fill="none" height="0" id="connector84terminal" stroke-width="0"/>
  <rect  width="0.699998" x="50.05" y="57.6" fill="none" connectorname="GND" height="14.4" id="connector86pin" stroke-width="0"/>
  <rect  width="0.699998" x="50.05" y="72" fill="none" height="0" id="connector86terminal" stroke-width="0"/>
  <rect  width="14.4" x="0" y="28.45" fill="none" height="0.699998" id="connector87pin" stroke-width="0" connectorName="VBAT"/>
  <rect  width="0" x="0" y="28.45" fill="none" height="0.699998" id="connector87terminal" stroke-width="0"/>
 </g>
</svg>
