<?xml version='1.0' encoding='UTF-8' standalone='no'?>
<svg xmlns="http://www.w3.org/2000/svg" width="126" version="1.2" height="90" viewBox="0 0 100.8 72">
 <defs/>
 <desc>Fritzing schematic generated by brd2svg</desc>
 <g id="schematic">
  <rect width="71.55" x="14.4" y="14.4" fill="none" height="43.2" stroke="#000000" stroke-linejoin="round" stroke-linecap="round" stroke-width="0.9"/>
  <text x="50.4" y="29" font-family="&apos;Droid Sans&apos;" text-anchor="middle" id="label" font-size="3.5">PowerBoost</text>
  <text x="50.4" y="32.5" font-family="&apos;Droid Sans&apos;" text-anchor="middle" id="label" font-size="3.5">500</text>
  <text x="50.4" y="36" font-family="&apos;Droid Sans&apos;" text-anchor="middle" id="label" font-size="3.5">Basic</text>
  <line fill="none" stroke="#787878" stroke-linejoin="round" stroke-linecap="round" y1="28.8" stroke-width="0.699998" x1="0.349999" y2="28.8" x2="14.4"/>
  <rect width="14.4" y="28.45" fill="none" height="0.699998" id="connector1pin" stroke-width="0" connectorName="VBAT"/>
  <rect width="0" y="28.45" fill="none" height="0.699998" id="connector1terminal" stroke-width="0"/>
  <text x="15.8" y="29.5" font-family="&apos;Droid Sans&apos;" fill="#8c8c8c" text-anchor="start" id="label1" font-size="3.5">VBAT</text>
  <text x="7.2" y="27.75" font-family="Droid Sans" fill="#8c8c8c" text-anchor="middle" stroke-width="0" font-size="2.5">2</text>
  <line fill="none" stroke="#787878" stroke-linejoin="round" stroke-linecap="round" y1="28.8" stroke-width="0.699998" x1="86.0501" y2="28.8" x2="100.45"/>
  <rect width="14.4" x="86.4" y="28.45" fill="none" connectorname="ENABLE" height="0.699998" id="connector22pin" stroke-width="0"/>
  <rect width="0" x="100.8" y="28.45" fill="none" height="0.699998" id="connector22terminal" stroke-width="0"/>
  <text x="85.0003" y="29.5" font-family="&apos;Droid Sans&apos;" fill="#8c8c8c" text-anchor="end" id="label22" font-size="3.5">ENABLE</text>
  <text x="93.6" y="27.75" font-family="Droid Sans" fill="#8c8c8c" text-anchor="middle" stroke-width="0" font-size="2.5">23</text>
  <line fill="none" stroke="#787878" stroke-linejoin="round" stroke-linecap="round" y1="36" stroke-width="0.699998" x1="86.0501" y2="36" x2="100.45"/>
  <rect width="14.4" x="86.4" y="35.65" fill="none" connectorname="LBO" height="0.699998" id="connector23pin" stroke-width="0"/>
  <rect width="0" x="100.8" y="35.65" fill="none" height="0.699998" id="connector23terminal" stroke-width="0"/>
  <text x="85.0003" y="36.7" font-family="&apos;Droid Sans&apos;" fill="#8c8c8c" text-anchor="end" id="label23" font-size="3.5">LBO</text>
  <text x="93.6" y="34.95" font-family="Droid Sans" fill="#8c8c8c" text-anchor="middle" stroke-width="0" font-size="2.5">24</text>
  <line fill="none" stroke="#787878" stroke-linejoin="round" stroke-linecap="round" y1="0.349999" stroke-width="0.699998" x1="50.4" y2="14.4" x2="50.4"/>
  <rect width="0.699998" x="50.05" fill="none" connectorname="5.0V" height="14.4" id="connector17pin" stroke-width="0"/>
  <rect width="0.699998" x="50.05" fill="none" height="0" id="connector17terminal" stroke-width="0"/>
  <text x="0" y="0" font-family="&apos;Droid Sans&apos;" fill="#8c8c8c" text-anchor="end" id="label17" font-size="3.5" transform="matrix(0 -1 1 0 51.8 16)">5.0V</text>
  <text x="0" y="0" font-family="Droid Sans" fill="#8c8c8c" text-anchor="middle" stroke-width="0" font-size="2.5" transform="matrix(0 -1 1 0 49.35 7.2)">18</text>
  <line fill="none" stroke="#787878" stroke-linejoin="round" stroke-linecap="round" y1="57.6" stroke-width="0.699998" x1="50.4" y2="71.65" x2="50.4"/>
  <rect width="0.699998" x="50.05" y="57.6" fill="none" connectorname="GND" height="14.4" id="connector0pin" stroke-width="0"/>
  <rect width="0.699998" x="50.05" y="72" fill="none" height="0" id="connector0terminal" stroke-width="0"/>
  <text x="0" y="0" font-family="&apos;Droid Sans&apos;" fill="#8c8c8c" id="label0" font-size="3.5" transform="matrix(0 -1 1 0 51.8 56)">GND</text>
  <text x="0" y="0" font-family="Droid Sans" fill="#8c8c8c" text-anchor="middle" stroke-width="0" font-size="2.5" transform="matrix(0 -1 1 0 49.35 64.8)">1</text>
  <rect width="0.699998" x="50.05" fill="none" connectorname="5.0V" height="14.4" id="connector25pin" stroke-width="0"/>
  <rect width="0.699998" x="50.05" fill="none" height="0" id="connector25terminal" stroke-width="0"/>
  <rect width="0.699998" x="50.05" fill="none" connectorname="5.0V" height="14.4" id="connector82pin" stroke-width="0"/>
  <rect width="0.699998" x="50.05" fill="none" height="0" id="connector82terminal" stroke-width="0"/>
  <rect width="0.699998" x="50.05" y="57.6" fill="none" connectorname="GND" height="14.4" id="connector24pin" stroke-width="0"/>
  <rect width="0.699998" x="50.05" y="72" fill="none" height="0" id="connector24terminal" stroke-width="0"/>
  <rect width="0.699998" x="50.05" y="57.6" fill="none" connectorname="GND" height="14.4" id="connector14pin" stroke-width="0"/>
  <rect width="0.699998" x="50.05" y="72" fill="none" height="0" id="connector14terminal" stroke-width="0"/>
  <rect width="0.699998" x="50.05" y="57.6" fill="none" connectorname="GND" height="14.4" id="connector81pin" stroke-width="0"/>
  <rect width="0.699998" x="50.05" y="72" fill="none" height="0" id="connector81terminal" stroke-width="0"/>
  <rect width="14.4" y="28.45" fill="none" height="0.699998" id="connector20pin" stroke-width="0" connectorName="VBAT"/>
  <rect width="0" y="28.45" fill="none" height="0.699998" id="connector20terminal" stroke-width="0"/>
  <rect width="0.699998" x="50.05" y="57.6" fill="none" connectorname="GND" height="14.4" id="connector21pin" stroke-width="0"/>
  <rect width="0.699998" x="50.05" y="72" fill="none" height="0" id="connector21terminal" stroke-width="0"/>
 </g>
</svg>
