<?xml version='1.0' encoding='utf-8'?>
<!-- Generator: Adobe Illustrator 20.0.0, SVG Export Plug-In . SVG Version: 6.00 Build 0)  -->
<svg xmlns="http://www.w3.org/2000/svg" version="1.2"  id="Layer_1" gorn="0" baseProfile="tiny" viewBox="0 0 93.6 151.2" xml:space="preserve" width="1.3in" xmlns:xml="http://www.w3.org/XML/1998/namespace" height="2.1in" x="0px" y="0px">
    <desc>
        <referenceFile>Adafruit 2.4 Touchscreen TFT Breakout w:MicroSD_schematic.svg</referenceFile>
    </desc>
    <desc >Fritzing schematic generated by brd2svg</desc>
    <g  id="schematic" gorn="0.1">
        <rect stroke-width="0.9"  stroke-linejoin="round" fill="none" stroke="#000000" stroke-linecap="round" width="64.35" height="122.4" x="14.4" y="14.4"/>
        <g  transform="matrix(1 0 0 1 40.4315 61.5)">
            <text  id="label" gorn="0.1.1.0" font-size="2.8" font-family="'DroidSans'">Adafruit</text>
        </g>
        <g  transform="matrix(1 0 0 1 44.4031 65)">
            <text  id="label_1_" gorn="0.1.2.0" font-size="2.8" font-family="'DroidSans'">2.4</text>
        </g>
        <g  transform="matrix(1 0 0 1 36.9144 68.5)">
            <text  font-size="2.8" font-family="'DroidSans'">T</text>
        </g>
        <g  transform="matrix(1 0 0 1 38.5208 68.5)">
            <text  font-size="2.8" font-family="'DroidSans'">o</text>
        </g>
        <g  transform="matrix(1 0 0 1 40.5408 68.5)">
            <text  font-size="2.8" font-family="'DroidSans'">u</text>
        </g>
        <g  transform="matrix(1 0 0 1 42.6019 68.5)">
            <text  font-size="2.8" font-family="'DroidSans'">c</text>
        </g>
        <g  transform="matrix(1 0 0 1 44.222 68.5)">
            <text  font-size="2.8" font-family="'DroidSans'">h</text>
        </g>
        <g  transform="matrix(1 0 0 1 46.283 68.5)">
            <text  font-size="2.8" font-family="'DroidSans'">s</text>
        </g>
        <g  transform="matrix(1 0 0 1 47.8621 68.5)">
            <text  font-size="2.8" font-family="'DroidSans'">c</text>
        </g>
        <g  transform="matrix(1 0 0 1 49.4822 68.5)">
            <text  font-size="2.8" font-family="'DroidSans'">r</text>
        </g>
        <g  transform="matrix(1 0 0 1 50.8782 68.5)">
            <text  font-size="2.8" font-family="'DroidSans'">e</text>
        </g>
        <g  transform="matrix(1 0 0 1 52.7513 68.5)">
            <text  font-size="2.8" font-family="'DroidSans'">e</text>
        </g>
        <g  transform="matrix(1 0 0 1 54.6243 68.5)">
            <text  font-size="2.8" font-family="'DroidSans'">n</text>
        </g>
        <g  transform="matrix(1 0 0 1 44.1237 72)">
            <text  id="label_3_" gorn="0.1.14.0" font-size="2.8" font-family="'DroidSans'">TFT</text>
        </g>
        <g  transform="matrix(1 0 0 1 39.6479 75.4999)">
            <text  id="label_4_" gorn="0.1.15.0" font-size="2.8" font-family="'DroidSans'">Breakout</text>
        </g>
        <g  transform="matrix(1 0 0 1 38.426 78.9998)">
            <text  id="label_5_" gorn="0.1.16.0" font-size="2.8" font-family="'DroidSans'">w:MicroSD</text>
        </g>
        <line stroke-width="0.7"  stroke-linejoin="round" y1="28.8" y2="28.8" fill="none" x1="0.35" x2="14.4" stroke="#787878" stroke-linecap="round"/>
        <rect  id="connector19pin" gorn="0.1.18" fill="none" width="14.4" height="0.7" y="28.45"/>
        <rect  id="connector19terminal" gorn="0.1.19" fill="none" width="0" height="0.7" y="28.45"/>
        <g  transform="matrix(1 0 0 1 15.8 29.5)">
            <text  id="label19" gorn="0.1.20.0" font-size="2.8" fill="#8C8C8C" font-family="'DroidSans'">D7</text>
        </g>
        <line stroke-width="0.7"  stroke-linejoin="round" y1="36" y2="36" fill="none" x1="0.35" x2="14.4" stroke="#787878" stroke-linecap="round"/>
        <rect  id="connector18pin" gorn="0.1.22" fill="none" width="14.4" height="0.7" y="35.65"/>
        <rect  id="connector18terminal" gorn="0.1.23" fill="none" width="0" height="0.7" y="35.65"/>
        <g  transform="matrix(1 0 0 1 15.8 36.7)">
            <text  id="label18" gorn="0.1.24.0" font-size="2.8" fill="#8C8C8C" font-family="'DroidSans'">D6</text>
        </g>
        <line stroke-width="0.7"  stroke-linejoin="round" y1="43.2" y2="43.2" fill="none" x1="0.35" x2="14.4" stroke="#787878" stroke-linecap="round"/>
        <rect  id="connector17pin" gorn="0.1.26" fill="none" width="14.4" height="0.7" y="42.85"/>
        <rect  id="connector17terminal" gorn="0.1.27" fill="none" width="0" height="0.7" y="42.85"/>
        <g  transform="matrix(1 0 0 1 15.8 43.9)">
            <text  id="label17" gorn="0.1.28.0" font-size="2.8" fill="#8C8C8C" font-family="'DroidSans'">D5</text>
        </g>
        <line stroke-width="0.7"  stroke-linejoin="round" y1="50.4" y2="50.4" fill="none" x1="0.35" x2="14.4" stroke="#787878" stroke-linecap="round"/>
        <rect  id="connector16pin" gorn="0.1.30" fill="none" width="14.4" height="0.7" y="50.05"/>
        <rect  id="connector16terminal" gorn="0.1.31" fill="none" width="0" height="0.7" y="50.05"/>
        <g  transform="matrix(1 0 0 1 15.8 51.1)">
            <text  id="label16" gorn="0.1.32.0" font-size="2.8" fill="#8C8C8C" font-family="'DroidSans'">D4</text>
        </g>
        <line stroke-width="0.7"  stroke-linejoin="round" y1="57.6" y2="57.6" fill="none" x1="0.35" x2="14.4" stroke="#787878" stroke-linecap="round"/>
        <rect  id="connector15pin" gorn="0.1.34" fill="none" width="14.4" height="0.7" y="57.25"/>
        <rect  id="connector15terminal" gorn="0.1.35" fill="none" width="0" height="0.7" y="57.25"/>
        <g  transform="matrix(1 0 0 1 15.8 58.3)">
            <text  id="label15" gorn="0.1.36.0" font-size="2.8" fill="#8C8C8C" font-family="'DroidSans'">D3</text>
        </g>
        <line stroke-width="0.7"  stroke-linejoin="round" y1="64.8" y2="64.8" fill="none" x1="0.35" x2="14.4" stroke="#787878" stroke-linecap="round"/>
        <rect  id="connector14pin" gorn="0.1.38" fill="none" width="14.4" height="0.7" y="64.45"/>
        <rect  id="connector14terminal" gorn="0.1.39" fill="none" width="0" height="0.7" y="64.45"/>
        <g  transform="matrix(1 0 0 1 15.8 65.5)">
            <text  id="label14" gorn="0.1.40.0" font-size="2.8" fill="#8C8C8C" font-family="'DroidSans'">D2</text>
        </g>
        <line stroke-width="0.7"  stroke-linejoin="round" y1="72" y2="72" fill="none" x1="0.35" x2="14.4" stroke="#787878" stroke-linecap="round"/>
        <rect  id="connector13pin" gorn="0.1.42" fill="none" width="14.4" height="0.7" y="71.65"/>
        <rect  id="connector13terminal" gorn="0.1.43" fill="none" width="0" height="0.7" y="71.65"/>
        <g  transform="matrix(1 0 0 1 15.8 72.6998)">
            <text  id="label13" gorn="0.1.44.0" font-size="2.8" fill="#8C8C8C" font-family="'DroidSans'">D1</text>
        </g>
        <line stroke-width="0.7"  stroke-linejoin="round" y1="79.2" y2="79.2" fill="none" x1="0.35" x2="14.4" stroke="#787878" stroke-linecap="round"/>
        <rect  id="connector12pin" gorn="0.1.46" fill="none" width="14.4" height="0.7" y="78.85"/>
        <rect  id="connector12terminal" gorn="0.1.47" fill="none" width="0" height="0.7" y="78.85"/>
        <g  transform="matrix(1 0 0 1 15.8 79.8998)">
            <text  id="label12" gorn="0.1.48.0" font-size="2.8" fill="#8C8C8C" font-family="'DroidSans'">D0</text>
        </g>
        <line stroke-width="0.7"  stroke-linejoin="round" y1="86.4" y2="86.4" fill="none" x1="0.35" x2="14.4" stroke="#787878" stroke-linecap="round"/>
        <rect  id="connector7pin" gorn="0.1.50" fill="none" width="14.4" height="0.7" y="86.05"/>
        <rect  id="connector7terminal" gorn="0.1.51" fill="none" width="0" height="0.7" y="86.05"/>
        <g  transform="matrix(1 0 0 1 15.8 87.0998)">
            <text  id="label7" gorn="0.1.52.0" font-size="2.8" fill="#8C8C8C" font-family="'DroidSans'">LITE</text>
        </g>
        <line stroke-width="0.7"  stroke-linejoin="round" y1="93.6" y2="93.6" fill="none" x1="0.35" x2="14.4" stroke="#787878" stroke-linecap="round"/>
        <rect  id="connector6pin" gorn="0.1.54" fill="none" width="14.4" height="0.7" y="93.25"/>
        <rect  id="connector6terminal" gorn="0.1.55" fill="none" width="0" height="0.7" y="93.25"/>
        <g  transform="matrix(1 0 0 1 15.8 94.2998)">
            <text  id="label6" gorn="0.1.56.0" font-size="2.8" fill="#8C8C8C" font-family="'DroidSans'">RST</text>
        </g>
        <line stroke-width="0.7"  stroke-linejoin="round" y1="100.8" y2="100.8" fill="none" x1="0.35" x2="14.4" stroke="#787878" stroke-linecap="round"/>
        <rect  id="connector5pin" gorn="0.1.58" fill="none" width="14.4" height="0.7" y="100.45"/>
        <rect  id="connector5terminal" gorn="0.1.59" fill="none" width="0" height="0.7" y="100.45"/>
        <g  transform="matrix(1 0 0 1 15.8 101.5)">
            <text  id="label5" gorn="0.1.60.0" font-size="2.8" fill="#8C8C8C" font-family="'DroidSans'">RD</text>
        </g>
        <line stroke-width="0.7"  stroke-linejoin="round" y1="108" y2="108" fill="none" x1="0.35" x2="14.4" stroke="#787878" stroke-linecap="round"/>
        <rect  id="connector4pin" gorn="0.1.62" fill="none" width="14.4" height="0.7" y="107.65"/>
        <rect  id="connector4terminal" gorn="0.1.63" fill="none" width="0" height="0.7" y="107.65"/>
        <g  transform="matrix(1 0 0 1 15.8 108.7)">
            <text  id="label4" gorn="0.1.64.0" font-size="2.8" fill="#8C8C8C" font-family="'DroidSans'">WR</text>
        </g>
        <line stroke-width="0.7"  stroke-linejoin="round" y1="115.2" y2="115.2" fill="none" x1="0.35" x2="14.4" stroke="#787878" stroke-linecap="round"/>
        <rect  id="connector3pin" gorn="0.1.66" fill="none" width="14.4" height="0.7" y="114.85"/>
        <rect  id="connector3terminal" gorn="0.1.67" fill="none" width="0" height="0.7" y="114.85"/>
        <g  transform="matrix(1 0 0 1 15.8 115.9)">
            <text  id="label3" gorn="0.1.68.0" font-size="2.8" fill="#8C8C8C" font-family="'DroidSans'">C/D</text>
        </g>
        <line stroke-width="0.7"  stroke-linejoin="round" y1="122.4" y2="122.4" fill="none" x1="0.35" x2="14.4" stroke="#787878" stroke-linecap="round"/>
        <rect  id="connector2pin" gorn="0.1.70" fill="none" width="14.4" height="0.7" y="122.05"/>
        <rect  id="connector2terminal" gorn="0.1.71" fill="none" width="0" height="0.7" y="122.05"/>
        <g  transform="matrix(1 0 0 1 15.8 123.1)">
            <text  id="label2" gorn="0.1.72.0" font-size="2.8" fill="#8C8C8C" font-family="'DroidSans'">CS</text>
        </g>
        <line stroke-width="0.7"  stroke-linejoin="round" y1="28.8" y2="28.8" fill="none" x1="78.85" x2="93.25" stroke="#787878" stroke-linecap="round"/>
        <rect  id="connector39pin" gorn="0.1.74" fill="none" width="14.4" height="0.7" x="79.2" y="28.45"/>
        <rect  id="connector39terminal" gorn="0.1.75" fill="none" width="0" height="0.7" x="93.6" y="28.45"/>
        <g  transform="matrix(1 0 0 1 63.0449 29.5)">
            <text  id="label39" gorn="0.1.76.0" font-size="2.8" fill="#8C8C8C" font-family="'DroidSans'">CARDDET</text>
        </g>
        <line stroke-width="0.7"  stroke-linejoin="round" y1="36" y2="36" fill="none" x1="78.85" x2="93.25" stroke="#787878" stroke-linecap="round"/>
        <rect  id="connector38pin" gorn="0.1.78" fill="none" width="14.4" height="0.7" x="79.2" y="35.65"/>
        <rect  id="connector38terminal" gorn="0.1.79" fill="none" width="0" height="0.7" x="93.6" y="35.65"/>
        <g  transform="matrix(1 0 0 1 68.2231 36.7)">
            <text  id="label38" gorn="0.1.80.0" font-size="2.8" fill="#8C8C8C" font-family="'DroidSans'">SD_CS</text>
        </g>
        <line stroke-width="0.7"  stroke-linejoin="round" y1="43.2" y2="43.2" fill="none" x1="78.85" x2="93.25" stroke="#787878" stroke-linecap="round"/>
        <rect  id="connector37pin" gorn="0.1.82" fill="none" width="14.4" height="0.7" x="79.2" y="42.85"/>
        <rect  id="connector37terminal" gorn="0.1.83" fill="none" width="0" height="0.7" x="93.6" y="42.85"/>
        <g  transform="matrix(1 0 0 1 71.6411 43.9)">
            <text  id="label37" gorn="0.1.84.0" font-size="2.8" fill="#8C8C8C" font-family="'DroidSans'">IM3</text>
        </g>
        <line stroke-width="0.7"  stroke-linejoin="round" y1="50.4" y2="50.4" fill="none" x1="78.85" x2="93.25" stroke="#787878" stroke-linecap="round"/>
        <rect  id="connector36pin" gorn="0.1.86" fill="none" width="14.4" height="0.7" x="79.2" y="50.05"/>
        <rect  id="connector36terminal" gorn="0.1.87" fill="none" width="0" height="0.7" x="93.6" y="50.05"/>
        <g  transform="matrix(1 0 0 1 71.6411 51.1)">
            <text  id="label36" gorn="0.1.88.0" font-size="2.8" fill="#8C8C8C" font-family="'DroidSans'">IM2</text>
        </g>
        <line stroke-width="0.7"  stroke-linejoin="round" y1="57.6" y2="57.6" fill="none" x1="78.85" x2="93.25" stroke="#787878" stroke-linecap="round"/>
        <rect  id="connector35pin" gorn="0.1.90" fill="none" width="14.4" height="0.7" x="79.2" y="57.25"/>
        <rect  id="connector35terminal" gorn="0.1.91" fill="none" width="0" height="0.7" x="93.6" y="57.25"/>
        <g  transform="matrix(1 0 0 1 71.6411 58.3)">
            <text  id="label35" gorn="0.1.92.0" font-size="2.8" fill="#8C8C8C" font-family="'DroidSans'">IM1</text>
        </g>
        <line stroke-width="0.7"  stroke-linejoin="round" y1="64.8" y2="64.8" fill="none" x1="78.85" x2="93.25" stroke="#787878" stroke-linecap="round"/>
        <rect  id="connector34pin" gorn="0.1.94" fill="none" width="14.4" height="0.7" x="79.2" y="64.45"/>
        <rect  id="connector34terminal" gorn="0.1.95" fill="none" width="0" height="0.7" x="93.6" y="64.45"/>
        <g  transform="matrix(1 0 0 1 71.6411 65.5)">
            <text  id="label34" gorn="0.1.96.0" font-size="2.8" fill="#8C8C8C" font-family="'DroidSans'">IM0</text>
        </g>
        <line stroke-width="0.7"  stroke-linejoin="round" y1="72" y2="72" fill="none" x1="78.85" x2="93.25" stroke="#787878" stroke-linecap="round"/>
        <rect  id="connector10pin" gorn="0.1.98" fill="none" width="14.4" height="0.7" x="79.2" y="71.65"/>
        <rect  id="connector10terminal" gorn="0.1.99" fill="none" width="0" height="0.7" x="93.6" y="71.65"/>
        <g  transform="matrix(1 0 0 1 74.76 72.6998)">
            <text  id="label10" gorn="0.1.100.0" font-size="2.8" fill="#8C8C8C" font-family="'DroidSans'">X-</text>
        </g>
        <line stroke-width="0.7"  stroke-linejoin="round" y1="79.2" y2="79.2" fill="none" x1="78.85" x2="93.25" stroke="#787878" stroke-linecap="round"/>
        <rect  id="connector11pin" gorn="0.1.102" fill="none" width="14.4" height="0.7" x="79.2" y="78.85"/>
        <rect  id="connector11terminal" gorn="0.1.103" fill="none" width="0" height="0.7" x="93.6" y="78.85"/>
        <g  transform="matrix(1 0 0 1 74.8301 79.8998)">
            <text  id="label11" gorn="0.1.104.0" font-size="2.8" fill="#8C8C8C" font-family="'DroidSans'">Y-</text>
        </g>
        <line stroke-width="0.7"  stroke-linejoin="round" y1="86.4" y2="86.4" fill="none" x1="78.85" x2="93.25" stroke="#787878" stroke-linecap="round"/>
        <rect  id="connector8pin" gorn="0.1.106" fill="none" width="14.4" height="0.7" x="79.2" y="86.05"/>
        <rect  id="connector8terminal" gorn="0.1.107" fill="none" width="0" height="0.7" x="93.6" y="86.05"/>
        <g  transform="matrix(1 0 0 1 73.9585 87.0998)">
            <text  id="label8" gorn="0.1.108.0" font-size="2.8" fill="#8C8C8C" font-family="'DroidSans'">X+</text>
        </g>
        <line stroke-width="0.7"  stroke-linejoin="round" y1="93.6" y2="93.6" fill="none" x1="78.85" x2="93.25" stroke="#787878" stroke-linecap="round"/>
        <rect  id="connector9pin" gorn="0.1.110" fill="none" width="14.4" height="0.7" x="79.2" y="93.25"/>
        <rect  id="connector9terminal" gorn="0.1.111" fill="none" width="0" height="0.7" x="93.6" y="93.25"/>
        <g  transform="matrix(1 0 0 1 74.0286 94.2998)">
            <text  id="label9" gorn="0.1.112.0" font-size="2.8" fill="#8C8C8C" font-family="'DroidSans'">Y+</text>
        </g>
        <line stroke-width="0.7"  stroke-linejoin="round" y1="100.8" y2="100.8" fill="none" x1="78.85" x2="93.25" stroke="#787878" stroke-linecap="round"/>
        <rect  id="connector25pin" gorn="0.1.114" fill="none" width="14.4" height="0.7" x="79.2" y="100.45"/>
        <rect  id="connector25terminal" gorn="0.1.115" fill="none" width="0" height="0.7" x="93.6" y="100.45"/>
        <g  transform="matrix(1 0 0 1 69.1545 101.5)">
            <text  id="label25" gorn="0.1.116.0" font-size="2.8" fill="#8C8C8C" font-family="'DroidSans'">MOSI</text>
        </g>
        <line stroke-width="0.7"  stroke-linejoin="round" y1="108" y2="108" fill="none" x1="78.85" x2="93.25" stroke="#787878" stroke-linecap="round"/>
        <rect  id="connector24pin" gorn="0.1.118" fill="none" width="14.4" height="0.7" x="79.2" y="107.65"/>
        <rect  id="connector24terminal" gorn="0.1.119" fill="none" width="0" height="0.7" x="93.6" y="107.65"/>
        <g  transform="matrix(1 0 0 1 69.1545 108.7)">
            <text  id="label24" gorn="0.1.120.0" font-size="2.8" fill="#8C8C8C" font-family="'DroidSans'">MISO</text>
        </g>
        <line stroke-width="0.7"  stroke-linejoin="round" y1="0.35" y2="14.4" fill="none" x1="43.2" x2="43.2" stroke="#787878" stroke-linecap="round"/>
        <rect  id="connector1pin" gorn="0.1.122" fill="none" width="0.7" height="14.4" x="42.85"/>
        <polygon  id="connector1terminal" gorn="0.1.123" fill="none" points="42.85,0 43.55,0 43.55,0 "/>
        <g  transform="matrix(1, 0, 0, 1, 44.6, 16)">
            <g >
                <g  transform="rotate(270)">
                    <g >
                        <g  transform="matrix(1 0 0 1 -5.7256 -2.241406e-05)">
                            <text  id="label1" gorn="0.1.124.0.0.0.0.0" font-size="2.8" fill="#8C8C8C" font-family="'DroidSans'">VIN</text>
                        </g>
                    </g>
                </g>
            </g>
        </g>
        <line stroke-width="0.7"  stroke-linejoin="round" y1="0.35" y2="14.4" fill="none" x1="50.4" x2="50.4" stroke="#787878" stroke-linecap="round"/>
        <rect  id="connector22pin" gorn="0.1.126" fill="none" width="0.7" height="14.4" x="50.05"/>
        <polygon  id="connector22terminal" gorn="0.1.127" fill="none" points="50.05,0 50.75,0 50.75,0 "/>
        <g  transform="matrix(1, 0, 0, 1, 51.8, 16)">
            <g >
                <g  transform="rotate(270)">
                    <g >
                        <g  transform="matrix(1 0 0 1 -5.8428 -1.120703e-05)">
                            <text  id="label22" gorn="0.1.128.0.0.0.0.0" font-size="2.8" fill="#8C8C8C" font-family="'DroidSans'">+3V</text>
                        </g>
                    </g>
                </g>
            </g>
        </g>
        <line stroke-width="0.7"  stroke-linejoin="round" y1="136.8" y2="150.85" fill="none" x1="43.2" x2="43.2" stroke="#787878" stroke-linecap="round"/>
        <rect  id="connector0pin" gorn="0.1.130" fill="none" width="0.7" height="14.4" x="42.85" y="136.8"/>
        <polygon  id="connector0terminal" gorn="0.1.131" fill="none" points="42.85,151.2 43.55,151.2 43.55,151.2 "/>
        <g  transform="matrix(1, 0, 0, 1, 44.6, 135.2)">
            <g >
                <g  transform="rotate(270)">
                    <g >
                        <g  transform="matrix(1 0 0 1 -1.983125e-04 -2.241406e-05)">
                            <text  id="label0" gorn="0.1.132.0.0.0.0.0" font-size="2.8" fill="#8C8C8C" font-family="'DroidSans'">GND</text>
                        </g>
                    </g>
                </g>
            </g>
        </g>
        <rect  id="connector21pin" gorn="0.1.133" fill="none" width="0.7" height="14.4" x="42.85"/>
        <polygon  id="connector21terminal" gorn="0.1.134" fill="none" points="42.85,0 43.55,0 43.55,0 "/>
        <rect  id="connector20pin" gorn="0.1.135" fill="none" width="0.7" height="14.4" x="42.85" y="136.8"/>
        <polygon  id="connector20terminal" gorn="0.1.136" fill="none" points="42.85,151.2 43.55,151.2 43.55,151.2 "/>
        <rect  id="connector33pin" gorn="0.1.137" fill="none" width="14.4" height="0.7" x="79.2" y="71.65"/>
        <rect  id="connector33terminal" gorn="0.1.138" fill="none" width="0" height="0.7" x="93.6" y="71.65"/>
        <rect  id="connector32pin" gorn="0.1.139" fill="none" width="14.4" height="0.7" x="79.2" y="78.85"/>
        <rect  id="connector32terminal" gorn="0.1.140" fill="none" width="0" height="0.7" x="93.6" y="78.85"/>
        <rect  id="connector31pin" gorn="0.1.141" fill="none" width="14.4" height="0.7" x="79.2" y="86.05"/>
        <rect  id="connector31terminal" gorn="0.1.142" fill="none" width="0" height="0.7" x="93.6" y="86.05"/>
        <rect  id="connector30pin" gorn="0.1.143" fill="none" width="14.4" height="0.7" x="79.2" y="93.25"/>
        <rect  id="connector30terminal" gorn="0.1.144" fill="none" width="0" height="0.7" x="93.6" y="93.25"/>
        <rect  id="connector29pin" gorn="0.1.145" fill="none" width="14.4" height="0.7" y="86.05"/>
        <rect  id="connector29terminal" gorn="0.1.146" fill="none" width="0" height="0.7" y="86.05"/>
        <rect  id="connector28pin" gorn="0.1.147" fill="none" width="14.4" height="0.7" y="93.25"/>
        <rect  id="connector28terminal" gorn="0.1.148" fill="none" width="0" height="0.7" y="93.25"/>
        <rect  id="connector27pin" gorn="0.1.149" fill="none" width="14.4" height="0.7" y="107.65"/>
        <rect  id="connector27terminal" gorn="0.1.150" fill="none" width="0" height="0.7" y="107.65"/>
        <rect  id="connector26pin" gorn="0.1.151" fill="none" width="14.4" height="0.7" y="122.05"/>
        <rect  id="connector26terminal" gorn="0.1.152" fill="none" width="0" height="0.7" y="122.05"/>
        <rect  id="connector23pin" gorn="0.1.153" fill="none" width="14.4" height="0.7" y="114.85"/>
        <rect  id="connector23terminal" gorn="0.1.154" fill="none" width="0" height="0.7" y="114.85"/>
    </g>
</svg>
