<?xml version='1.0' encoding='utf-8'?>
<!-- Generator: Adobe Illustrator 20.0.0, SVG Export Plug-In . SVG Version: 6.00 Build 0)  -->
<svg xmlns="http://www.w3.org/2000/svg" version="1.2" width="1.1in" height="2.7in" baseProfile="tiny" xml:space="preserve"  x="0px" y="0px" viewBox="0 0 79.2 194.4" xmlns:xml="http://www.w3.org/XML/1998/namespace" id="Layer_1" gorn="0">
    <desc>
        <referenceFile>Adafruit 40-pin TFT Friend_schematic.svg</referenceFile>
    </desc>
    <desc >Fritzing schematic generated by brd2svg</desc>
    <g  id="schematic" gorn="0.1">
        <rect stroke="#000000" width="49.95" fill="none" stroke-linejoin="round" height="165.6"  x="14.4" stroke-width="0.9" y="14.4" stroke-linecap="round"/>
        <g  transform="matrix(1 0 0 1 33.2315 86.6002)">
            <text font-size="2.8"  font-family="'DroidSans'" id="label" gorn="0.1.1.0">Adafruit</text>
        </g>
        <g  transform="matrix(1 0 0 1 34.6004 90.1001)">
            <text font-size="2.8"  font-family="'DroidSans'" id="label_1_" gorn="0.1.2.0">40-pin</text>
        </g>
        <g  transform="matrix(1 0 0 1 36.9237 93.6)">
            <text font-size="2.8"  font-family="'DroidSans'" id="label_2_" gorn="0.1.3.0">TFT</text>
        </g>
        <g  transform="matrix(1 0 0 1 34.597 97.0999)">
            <text font-size="2.8"  font-family="'DroidSans'" id="label_3_" gorn="0.1.4.0">Friend</text>
        </g>
        <line y2="28.8" stroke="#787878" x1="0.35" x2="14.4" fill="none" stroke-linejoin="round"  stroke-width="0.7" stroke-linecap="round" y1="28.8"/>
        <rect width="14.4" fill="none" height="0.7"  y="28.45" id="connector108pin" gorn="0.1.6"/>
        <rect width="0" fill="none" height="0.7"  y="28.45" id="connector108terminal" gorn="0.1.7"/>
        <g  transform="matrix(1 0 0 1 15.8 29.5)">
            <text fill="#8C8C8C" font-size="2.8"  font-family="'DroidSans'" id="label108" gorn="0.1.8.0">R0</text>
        </g>
        <line y2="36" stroke="#787878" x1="0.35" x2="14.4" fill="none" stroke-linejoin="round"  stroke-width="0.7" stroke-linecap="round" y1="36"/>
        <rect width="14.4" fill="none" height="0.7"  y="35.65" id="connector107pin" gorn="0.1.10"/>
        <rect width="0" fill="none" height="0.7"  y="35.65" id="connector107terminal" gorn="0.1.11"/>
        <g  transform="matrix(1 0 0 1 15.8 36.7)">
            <text fill="#8C8C8C" font-size="2.8"  font-family="'DroidSans'" id="label107" gorn="0.1.12.0">R1</text>
        </g>
        <line y2="43.2" stroke="#787878" x1="0.35" x2="14.4" fill="none" stroke-linejoin="round"  stroke-width="0.7" stroke-linecap="round" y1="43.2"/>
        <rect width="14.4" fill="none" height="0.7"  y="42.85" id="connector106pin" gorn="0.1.14"/>
        <rect width="0" fill="none" height="0.7"  y="42.85" id="connector106terminal" gorn="0.1.15"/>
        <g  transform="matrix(1 0 0 1 15.8 43.9)">
            <text fill="#8C8C8C" font-size="2.8"  font-family="'DroidSans'" id="label106" gorn="0.1.16.0">R2</text>
        </g>
        <line y2="50.4" stroke="#787878" x1="0.35" x2="14.4" fill="none" stroke-linejoin="round"  stroke-width="0.7" stroke-linecap="round" y1="50.4"/>
        <rect width="14.4" fill="none" height="0.7"  y="50.05" id="connector105pin" gorn="0.1.18"/>
        <rect width="0" fill="none" height="0.7"  y="50.05" id="connector105terminal" gorn="0.1.19"/>
        <g  transform="matrix(1 0 0 1 15.8 51.1)">
            <text fill="#8C8C8C" font-size="2.8"  font-family="'DroidSans'" id="label105" gorn="0.1.20.0">R3</text>
        </g>
        <line y2="57.6" stroke="#787878" x1="0.35" x2="14.4" fill="none" stroke-linejoin="round"  stroke-width="0.7" stroke-linecap="round" y1="57.6"/>
        <rect width="14.4" fill="none" height="0.7"  y="57.25" id="connector104pin" gorn="0.1.22"/>
        <rect width="0" fill="none" height="0.7"  y="57.25" id="connector104terminal" gorn="0.1.23"/>
        <g  transform="matrix(1 0 0 1 15.8 58.3)">
            <text fill="#8C8C8C" font-size="2.8"  font-family="'DroidSans'" id="label104" gorn="0.1.24.0">R4</text>
        </g>
        <line y2="64.8" stroke="#787878" x1="0.35" x2="14.4" fill="none" stroke-linejoin="round"  stroke-width="0.7" stroke-linecap="round" y1="64.8"/>
        <rect width="14.4" fill="none" height="0.7"  y="64.45" id="connector103pin" gorn="0.1.26"/>
        <rect width="0" fill="none" height="0.7"  y="64.45" id="connector103terminal" gorn="0.1.27"/>
        <g  transform="matrix(1 0 0 1 15.8 65.5)">
            <text fill="#8C8C8C" font-size="2.8"  font-family="'DroidSans'" id="label103" gorn="0.1.28.0">R5</text>
        </g>
        <line y2="72" stroke="#787878" x1="0.35" x2="14.4" fill="none" stroke-linejoin="round"  stroke-width="0.7" stroke-linecap="round" y1="72"/>
        <rect width="14.4" fill="none" height="0.7"  y="71.65" id="connector102pin" gorn="0.1.30"/>
        <rect width="0" fill="none" height="0.7"  y="71.65" id="connector102terminal" gorn="0.1.31"/>
        <g  transform="matrix(1 0 0 1 15.8 72.6998)">
            <text fill="#8C8C8C" font-size="2.8"  font-family="'DroidSans'" id="label102" gorn="0.1.32.0">R6</text>
        </g>
        <line y2="79.2" stroke="#787878" x1="0.35" x2="14.4" fill="none" stroke-linejoin="round"  stroke-width="0.7" stroke-linecap="round" y1="79.2"/>
        <rect width="14.4" fill="none" height="0.7"  y="78.85" id="connector101pin" gorn="0.1.34"/>
        <rect width="0" fill="none" height="0.7"  y="78.85" id="connector101terminal" gorn="0.1.35"/>
        <g  transform="matrix(1 0 0 1 15.8 79.8998)">
            <text fill="#8C8C8C" font-size="2.8"  font-family="'DroidSans'" id="label101" gorn="0.1.36.0">R7</text>
        </g>
        <line y2="86.4" stroke="#787878" x1="0.35" x2="14.4" fill="none" stroke-linejoin="round"  stroke-width="0.7" stroke-linecap="round" y1="86.4"/>
        <rect width="14.4" fill="none" height="0.7"  y="86.05" id="connector7pin" gorn="0.1.38"/>
        <rect width="0" fill="none" height="0.7"  y="86.05" id="connector7terminal" gorn="0.1.39"/>
        <g  transform="matrix(1 0 0 1 15.8 87.0998)">
            <text fill="#8C8C8C" font-size="2.8"  font-family="'DroidSans'" id="label7" gorn="0.1.40.0">B0</text>
        </g>
        <line y2="93.6" stroke="#787878" x1="0.35" x2="14.4" fill="none" stroke-linejoin="round"  stroke-width="0.7" stroke-linecap="round" y1="93.6"/>
        <rect width="14.4" fill="none" height="0.7"  y="93.25" id="connector6pin" gorn="0.1.42"/>
        <rect width="0" fill="none" height="0.7"  y="93.25" id="connector6terminal" gorn="0.1.43"/>
        <g  transform="matrix(1 0 0 1 15.8 94.2998)">
            <text fill="#8C8C8C" font-size="2.8"  font-family="'DroidSans'" id="label6" gorn="0.1.44.0">B1</text>
        </g>
        <line y2="100.8" stroke="#787878" x1="0.35" x2="14.4" fill="none" stroke-linejoin="round"  stroke-width="0.7" stroke-linecap="round" y1="100.8"/>
        <rect width="14.4" fill="none" height="0.7"  y="100.45" id="connector5pin" gorn="0.1.46"/>
        <rect width="0" fill="none" height="0.7"  y="100.45" id="connector5terminal" gorn="0.1.47"/>
        <g  transform="matrix(1 0 0 1 15.8 101.5)">
            <text fill="#8C8C8C" font-size="2.8"  font-family="'DroidSans'" id="label5" gorn="0.1.48.0">B2</text>
        </g>
        <line y2="108" stroke="#787878" x1="0.35" x2="14.4" fill="none" stroke-linejoin="round"  stroke-width="0.7" stroke-linecap="round" y1="108"/>
        <rect width="14.4" fill="none" height="0.7"  y="107.65" id="connector4pin" gorn="0.1.50"/>
        <rect width="0" fill="none" height="0.7"  y="107.65" id="connector4terminal" gorn="0.1.51"/>
        <g  transform="matrix(1 0 0 1 15.8 108.7)">
            <text fill="#8C8C8C" font-size="2.8"  font-family="'DroidSans'" id="label4" gorn="0.1.52.0">B3</text>
        </g>
        <line y2="115.2" stroke="#787878" x1="0.35" x2="14.4" fill="none" stroke-linejoin="round"  stroke-width="0.7" stroke-linecap="round" y1="115.2"/>
        <rect width="14.4" fill="none" height="0.7"  y="114.85" id="connector3pin" gorn="0.1.54"/>
        <rect width="0" fill="none" height="0.7"  y="114.85" id="connector3terminal" gorn="0.1.55"/>
        <g  transform="matrix(1 0 0 1 15.8 115.9)">
            <text fill="#8C8C8C" font-size="2.8"  font-family="'DroidSans'" id="label3" gorn="0.1.56.0">B4</text>
        </g>
        <line y2="122.4" stroke="#787878" x1="0.35" x2="14.4" fill="none" stroke-linejoin="round"  stroke-width="0.7" stroke-linecap="round" y1="122.4"/>
        <rect width="14.4" fill="none" height="0.7"  y="122.05" id="connector2pin" gorn="0.1.58"/>
        <rect width="0" fill="none" height="0.7"  y="122.05" id="connector2terminal" gorn="0.1.59"/>
        <g  transform="matrix(1 0 0 1 15.8 123.1)">
            <text fill="#8C8C8C" font-size="2.8"  font-family="'DroidSans'" id="label2" gorn="0.1.60.0">B5</text>
        </g>
        <line y2="129.6" stroke="#787878" x1="0.35" x2="14.4" fill="none" stroke-linejoin="round"  stroke-width="0.7" stroke-linecap="round" y1="129.6"/>
        <rect width="14.4" fill="none" height="0.7"  y="129.25" id="connector1pin" gorn="0.1.62"/>
        <rect width="0" fill="none" height="0.7"  y="129.25" id="connector1terminal" gorn="0.1.63"/>
        <g  transform="matrix(1 0 0 1 15.8 130.3)">
            <text fill="#8C8C8C" font-size="2.8"  font-family="'DroidSans'" id="label1" gorn="0.1.64.0">B6</text>
        </g>
        <line y2="136.8" stroke="#787878" x1="0.35" x2="14.4" fill="none" stroke-linejoin="round"  stroke-width="0.7" stroke-linecap="round" y1="136.8"/>
        <rect width="14.4" fill="none" height="0.7"  y="136.45" id="connector0pin" gorn="0.1.66"/>
        <rect width="0" fill="none" height="0.7"  y="136.45" id="connector0terminal" gorn="0.1.67"/>
        <g  transform="matrix(1 0 0 1 15.8 137.5)">
            <text fill="#8C8C8C" font-size="2.8"  font-family="'DroidSans'" id="label0" gorn="0.1.68.0">B7</text>
        </g>
        <line y2="144" stroke="#787878" x1="0.35" x2="14.4" fill="none" stroke-linejoin="round"  stroke-width="0.7" stroke-linecap="round" y1="144"/>
        <rect width="14.4" fill="none" height="0.7"  y="143.65" id="connector112pin" gorn="0.1.70"/>
        <rect width="0" fill="none" height="0.7"  y="143.65" id="connector112terminal" gorn="0.1.71"/>
        <g  transform="matrix(1 0 0 1 15.8 144.7)">
            <text fill="#8C8C8C" font-size="2.8"  font-family="'DroidSans'" id="label112" gorn="0.1.72.0">XR</text>
        </g>
        <line y2="151.2" stroke="#787878" x1="0.35" x2="14.4" fill="none" stroke-linejoin="round"  stroke-width="0.7" stroke-linecap="round" y1="151.2"/>
        <rect width="14.4" fill="none" height="0.7"  y="150.85" id="connector111pin" gorn="0.1.74"/>
        <rect width="0" fill="none" height="0.7"  y="150.85" id="connector111terminal" gorn="0.1.75"/>
        <g  transform="matrix(1 0 0 1 15.8 151.9)">
            <text fill="#8C8C8C" font-size="2.8"  font-family="'DroidSans'" id="label111" gorn="0.1.76.0">YD</text>
        </g>
        <line y2="158.4" stroke="#787878" x1="0.35" x2="14.4" fill="none" stroke-linejoin="round"  stroke-width="0.7" stroke-linecap="round" y1="158.4"/>
        <rect width="14.4" fill="none" height="0.7"  y="158.05" id="connector110pin" gorn="0.1.78"/>
        <rect width="0" fill="none" height="0.7"  y="158.05" id="connector110terminal" gorn="0.1.79"/>
        <g  transform="matrix(1 0 0 1 15.8 159.1)">
            <text fill="#8C8C8C" font-size="2.8"  font-family="'DroidSans'" id="label110" gorn="0.1.80.0">XL</text>
        </g>
        <line y2="165.6" stroke="#787878" x1="0.35" x2="14.4" fill="none" stroke-linejoin="round"  stroke-width="0.7" stroke-linecap="round" y1="165.6"/>
        <rect width="14.4" fill="none" height="0.7"  y="165.25" id="connector109pin" gorn="0.1.82"/>
        <rect width="0" fill="none" height="0.7"  y="165.25" id="connector109terminal" gorn="0.1.83"/>
        <g  transform="matrix(1 0 0 1 15.8 166.3)">
            <text fill="#8C8C8C" font-size="2.8"  font-family="'DroidSans'" id="label109" gorn="0.1.84.0">YU</text>
        </g>
        <line y2="28.8" stroke="#787878" x1="64.45" x2="78.85" fill="none" stroke-linejoin="round"  stroke-width="0.7" stroke-linecap="round" y1="28.8"/>
        <rect width="14.4" fill="none" height="0.7"  x="64.8" y="28.45" id="connector84pin" gorn="0.1.86"/>
        <rect width="0" fill="none" height="0.7"  x="79.2" y="28.45" id="connector84terminal" gorn="0.1.87"/>
        <g  transform="matrix(1 0 0 1 55.4122 29.5)">
            <text fill="#8C8C8C" font-size="2.8"  font-family="'DroidSans'" id="label84" gorn="0.1.88.0">LEDK</text>
        </g>
        <line y2="36" stroke="#787878" x1="64.45" x2="78.85" fill="none" stroke-linejoin="round"  stroke-width="0.7" stroke-linecap="round" y1="36"/>
        <rect width="14.4" fill="none" height="0.7"  x="64.8" y="35.65" id="connector82pin" gorn="0.1.90"/>
        <rect width="0" fill="none" height="0.7"  x="79.2" y="35.65" id="connector82terminal" gorn="0.1.91"/>
        <g  transform="matrix(1 0 0 1 55.2447 36.7)">
            <text fill="#8C8C8C" font-size="2.8"  font-family="'DroidSans'" id="label82" gorn="0.1.92.0">PWM</text>
        </g>
        <line y2="43.2" stroke="#787878" x1="64.45" x2="78.85" fill="none" stroke-linejoin="round"  stroke-width="0.7" stroke-linecap="round" y1="43.2"/>
        <rect width="14.4" fill="none" height="0.7"  x="64.8" y="42.85" id="connector38pin" gorn="0.1.94"/>
        <rect width="0" fill="none" height="0.7"  x="79.2" y="42.85" id="connector38terminal" gorn="0.1.95"/>
        <g  transform="matrix(1 0 0 1 59.0575 43.9)">
            <text fill="#8C8C8C" font-size="2.8"  font-family="'DroidSans'" id="label38" gorn="0.1.96.0">G0</text>
        </g>
        <line y2="50.4" stroke="#787878" x1="64.45" x2="78.85" fill="none" stroke-linejoin="round"  stroke-width="0.7" stroke-linecap="round" y1="50.4"/>
        <rect width="14.4" fill="none" height="0.7"  x="64.8" y="50.05" id="connector37pin" gorn="0.1.98"/>
        <rect width="0" fill="none" height="0.7"  x="79.2" y="50.05" id="connector37terminal" gorn="0.1.99"/>
        <g  transform="matrix(1 0 0 1 59.0575 51.1)">
            <text fill="#8C8C8C" font-size="2.8"  font-family="'DroidSans'" id="label37" gorn="0.1.100.0">G1</text>
        </g>
        <line y2="57.6" stroke="#787878" x1="64.45" x2="78.85" fill="none" stroke-linejoin="round"  stroke-width="0.7" stroke-linecap="round" y1="57.6"/>
        <rect width="14.4" fill="none" height="0.7"  x="64.8" y="57.25" id="connector36pin" gorn="0.1.102"/>
        <rect width="0" fill="none" height="0.7"  x="79.2" y="57.25" id="connector36terminal" gorn="0.1.103"/>
        <g  transform="matrix(1 0 0 1 59.0575 58.3)">
            <text fill="#8C8C8C" font-size="2.8"  font-family="'DroidSans'" id="label36" gorn="0.1.104.0">G2</text>
        </g>
        <line y2="64.8" stroke="#787878" x1="64.45" x2="78.85" fill="none" stroke-linejoin="round"  stroke-width="0.7" stroke-linecap="round" y1="64.8"/>
        <rect width="14.4" fill="none" height="0.7"  x="64.8" y="64.45" id="connector35pin" gorn="0.1.106"/>
        <rect width="0" fill="none" height="0.7"  x="79.2" y="64.45" id="connector35terminal" gorn="0.1.107"/>
        <g  transform="matrix(1 0 0 1 59.0575 65.5)">
            <text fill="#8C8C8C" font-size="2.8"  font-family="'DroidSans'" id="label35" gorn="0.1.108.0">G3</text>
        </g>
        <line y2="72" stroke="#787878" x1="64.45" x2="78.85" fill="none" stroke-linejoin="round"  stroke-width="0.7" stroke-linecap="round" y1="72"/>
        <rect width="14.4" fill="none" height="0.7"  x="64.8" y="71.65" id="connector34pin" gorn="0.1.110"/>
        <rect width="0" fill="none" height="0.7"  x="79.2" y="71.65" id="connector34terminal" gorn="0.1.111"/>
        <g  transform="matrix(1 0 0 1 59.0575 72.6998)">
            <text fill="#8C8C8C" font-size="2.8"  font-family="'DroidSans'" id="label34" gorn="0.1.112.0">G4</text>
        </g>
        <line y2="79.2" stroke="#787878" x1="64.45" x2="78.85" fill="none" stroke-linejoin="round"  stroke-width="0.7" stroke-linecap="round" y1="79.2"/>
        <rect width="14.4" fill="none" height="0.7"  x="64.8" y="78.85" id="connector33pin" gorn="0.1.114"/>
        <rect width="0" fill="none" height="0.7"  x="79.2" y="78.85" id="connector33terminal" gorn="0.1.115"/>
        <g  transform="matrix(1 0 0 1 59.0575 79.8998)">
            <text fill="#8C8C8C" font-size="2.8"  font-family="'DroidSans'" id="label33" gorn="0.1.116.0">G5</text>
        </g>
        <line y2="86.4" stroke="#787878" x1="64.45" x2="78.85" fill="none" stroke-linejoin="round"  stroke-width="0.7" stroke-linecap="round" y1="86.4"/>
        <rect width="14.4" fill="none" height="0.7"  x="64.8" y="86.05" id="connector32pin" gorn="0.1.118"/>
        <rect width="0" fill="none" height="0.7"  x="79.2" y="86.05" id="connector32terminal" gorn="0.1.119"/>
        <g  transform="matrix(1 0 0 1 59.0575 87.0998)">
            <text fill="#8C8C8C" font-size="2.8"  font-family="'DroidSans'" id="label32" gorn="0.1.120.0">G6</text>
        </g>
        <line y2="93.6" stroke="#787878" x1="64.45" x2="78.85" fill="none" stroke-linejoin="round"  stroke-width="0.7" stroke-linecap="round" y1="93.6"/>
        <rect width="14.4" fill="none" height="0.7"  x="64.8" y="93.25" id="connector31pin" gorn="0.1.122"/>
        <rect width="0" fill="none" height="0.7"  x="79.2" y="93.25" id="connector31terminal" gorn="0.1.123"/>
        <g  transform="matrix(1 0 0 1 59.0575 94.2998)">
            <text fill="#8C8C8C" font-size="2.8"  font-family="'DroidSans'" id="label31" gorn="0.1.124.0">G7</text>
        </g>
        <line y2="100.8" stroke="#787878" x1="64.45" x2="78.85" fill="none" stroke-linejoin="round"  stroke-width="0.7" stroke-linecap="round" y1="100.8"/>
        <rect width="14.4" fill="none" height="0.7"  x="64.8" y="100.45" id="connector22pin" gorn="0.1.126"/>
        <rect width="0" fill="none" height="0.7"  x="79.2" y="100.45" id="connector22terminal" gorn="0.1.127"/>
        <g  transform="matrix(1 0 0 1 57.5433 101.5)">
            <text fill="#8C8C8C" font-size="2.8"  font-family="'DroidSans'" id="label22" gorn="0.1.128.0">CLK</text>
        </g>
        <line y2="108" stroke="#787878" x1="64.45" x2="78.85" fill="none" stroke-linejoin="round"  stroke-width="0.7" stroke-linecap="round" y1="108"/>
        <rect width="14.4" fill="none" height="0.7"  x="64.8" y="107.65" id="connector21pin" gorn="0.1.130"/>
        <rect width="0" fill="none" height="0.7"  x="79.2" y="107.65" id="connector21terminal" gorn="0.1.131"/>
        <g  transform="matrix(1 0 0 1 50.909 108.7)">
            <text fill="#8C8C8C" font-size="2.8"  font-family="'DroidSans'" id="label21" gorn="0.1.132.0">ON/OFF</text>
        </g>
        <line y2="115.2" stroke="#787878" x1="64.45" x2="78.85" fill="none" stroke-linejoin="round"  stroke-width="0.7" stroke-linecap="round" y1="115.2"/>
        <rect width="14.4" fill="none" height="0.7"  x="64.8" y="114.85" id="connector20pin" gorn="0.1.134"/>
        <rect width="0" fill="none" height="0.7"  x="79.2" y="114.85" id="connector20terminal" gorn="0.1.135"/>
        <g  transform="matrix(1 0 0 1 52.6231 115.9)">
            <text fill="#8C8C8C" font-size="2.8"  font-family="'DroidSans'" id="label20" gorn="0.1.136.0">HSYNC</text>
        </g>
        <line y2="122.4" stroke="#787878" x1="64.45" x2="78.85" fill="none" stroke-linejoin="round"  stroke-width="0.7" stroke-linecap="round" y1="122.4"/>
        <rect width="14.4" fill="none" height="0.7"  x="64.8" y="122.05" id="connector19pin" gorn="0.1.138"/>
        <rect width="0" fill="none" height="0.7"  x="79.2" y="122.05" id="connector19terminal" gorn="0.1.139"/>
        <g  transform="matrix(1 0 0 1 53.0897 123.1)">
            <text fill="#8C8C8C" font-size="2.8"  font-family="'DroidSans'" id="label19" gorn="0.1.140.0">VSYNC</text>
        </g>
        <line y2="129.6" stroke="#787878" x1="64.45" x2="78.85" fill="none" stroke-linejoin="round"  stroke-width="0.7" stroke-linecap="round" y1="129.6"/>
        <rect width="14.4" fill="none" height="0.7"  x="64.8" y="129.25" id="connector18pin" gorn="0.1.142"/>
        <rect width="0" fill="none" height="0.7"  x="79.2" y="129.25" id="connector18terminal" gorn="0.1.143"/>
        <g  transform="matrix(1 0 0 1 59.1583 130.3)">
            <text fill="#8C8C8C" font-size="2.8"  font-family="'DroidSans'" id="label18" gorn="0.1.144.0">DE</text>
        </g>
        <line y2="14.4" stroke="#787878" x1="28.8" x2="28.8" fill="none" stroke-linejoin="round"  stroke-width="0.7" stroke-linecap="round" y1="0.35"/>
        <rect width="0.7" fill="none" height="14.4"  x="28.45" y="0" id="connector86pin" gorn="0.1.146"/>
        <polygon points="28.45,0 29.15,0 29.15,0 " fill="none"  id="connector86terminal" gorn="0.1.147"/>
        <g  transform="matrix(1, 0, 0, 1, 30.2, 16)">
            <g >
                <g  transform="rotate(270)">
                    <g >
                        <g  transform="matrix(1 0 0 1 -5.7246 1.120703e-05)">
                            <text fill="#8C8C8C" font-size="2.8"  font-family="'DroidSans'" id="label86" gorn="0.1.148.0.0.0.0.0">VIN</text>
                        </g>
                    </g>
                </g>
            </g>
        </g>
        <line y2="14.4" stroke="#787878" x1="36" x2="36" fill="none" stroke-linejoin="round"  stroke-width="0.7" stroke-linecap="round" y1="0.35"/>
        <rect width="0.7" fill="none" height="14.4"  x="35.65" y="0" id="connector81pin" gorn="0.1.150"/>
        <polygon points="35.65,0 36.35,0 36.35,0 " fill="none"  id="connector81terminal" gorn="0.1.151"/>
        <g  transform="matrix(1, 0, 0, 1, 37.4, 16)">
            <g >
                <g  transform="rotate(270)">
                    <g >
                        <g  transform="matrix(1 0 0 1 -7.7705 2.241406e-05)">
                            <text fill="#8C8C8C" font-size="2.8"  font-family="'DroidSans'" id="label81" gorn="0.1.152.0.0.0.0.0">+3V3</text>
                        </g>
                    </g>
                </g>
            </g>
        </g>
        <line y2="14.4" stroke="#787878" x1="43.2" x2="43.2" fill="none" stroke-linejoin="round"  stroke-width="0.7" stroke-linecap="round" y1="0.35"/>
        <rect width="0.7" fill="none" height="14.4"  x="42.85" y="0" id="connector83pin" gorn="0.1.154"/>
        <polygon points="42.85,0 43.55,0 43.55,0 " fill="none"  id="connector83terminal" gorn="0.1.155"/>
        <g  transform="matrix(1, 0, 0, 1, 44.6, 16)">
            <g >
                <g  transform="rotate(270)">
                    <g >
                        <g  transform="matrix(1 0 0 1 -7.7705 -2.241406e-05)">
                            <text fill="#8C8C8C" font-size="2.8"  font-family="'DroidSans'" id="label83" gorn="0.1.156.0.0.0.0.0">+24V</text>
                        </g>
                    </g>
                </g>
            </g>
        </g>
        <line y2="194.05" stroke="#787878" x1="36" x2="36" fill="none" stroke-linejoin="round"  stroke-width="0.7" stroke-linecap="round" y1="180"/>
        <rect width="0.7" fill="none" height="14.4"  x="35.65" y="180" id="connector23pin" gorn="0.1.158"/>
        <polygon points="35.65,194.4 36.35,194.4 36.35,194.4 " fill="none"  id="connector23terminal" gorn="0.1.159"/>
        <g  transform="matrix(1, 0, 0, 1, 37.4, 178.4)">
            <g >
                <g  transform="rotate(270)">
                    <g >
                        <g  transform="matrix(1 0 0 1 -3.966250e-04 2.241406e-05)">
                            <text fill="#8C8C8C" font-size="2.8"  font-family="'DroidSans'" id="label23" gorn="0.1.160.0.0.0.0.0">GND</text>
                        </g>
                    </g>
                </g>
            </g>
        </g>
        <rect width="0.7" fill="none" height="14.4"  x="35.65" y="180" id="connector85pin" gorn="0.1.161"/>
        <polygon points="35.65,194.4 36.35,194.4 36.35,194.4 " fill="none"  id="connector85terminal" gorn="0.1.162"/>
    </g>
</svg>
