<?xml version="1.0" encoding="utf-8"?>
<!-- Generator: Adobe Illustrator 20.0.0, SVG Export Plug-In . SVG Version: 6.00 Build 0)  -->
<svg version="1.2" baseProfile="tiny" id="Layer_1" xmlns="http://www.w3.org/2000/svg" xmlns:xlink="http://www.w3.org/1999/xlink"
	 x="0px" y="0px" width="79.2px" height="72px" viewBox="0 0 79.2 72" xml:space="preserve">
<desc>
	<referenceFile>TMP006_v0.1_schematic.svg</referenceFile>
</desc>
<desc>Fritzing schematic generated by brd2svg</desc>
<g id="schematic">
	
		<rect x="14.4" y="14.4" fill="none" stroke="#000000" stroke-width="0.9" stroke-linecap="round" stroke-linejoin="round" width="49.95" height="43.2"/>
	<text id="label" transform="matrix(1 0 0 1 33.2691 32.5)" font-family="'DroidSans'" font-size="3.5px">Adafruit</text>
	<text id="label_1_" transform="matrix(1 0 0 1 33.2691 36)" font-family="'DroidSans'" font-size="3.5px">TMP006</text>
	
		<line fill="none" stroke="#787878" stroke-width="0.7" stroke-linecap="round" stroke-linejoin="round" x1="0.35" y1="28.8" x2="14.4" y2="28.8"/>
	<rect id="connector10pin" x="0" y="28.45" fill="none" width="14.4" height="0.7"/>
	<rect id="connector10terminal" x="0" y="28.45" fill="none" width="0" height="0.7"/>
	<text id="label10" transform="matrix(1 0 0 1 15.8 29.5)" fill="#8C8C8C" font-family="'DroidSans'" font-size="3.5px">ADDR0</text>
	
		<line fill="none" stroke="#787878" stroke-width="0.7" stroke-linecap="round" stroke-linejoin="round" x1="0.35" y1="36" x2="14.4" y2="36"/>
	<rect id="connector9pin" x="0" y="35.65" fill="none" width="14.4" height="0.7"/>
	<rect id="connector9terminal" x="0" y="35.65" fill="none" width="0" height="0.7"/>
	<text id="label9" transform="matrix(1 0 0 1 15.8 36.7)" fill="#8C8C8C" font-family="'DroidSans'" font-size="3.5px">ADDR1</text>
	
		<line fill="none" stroke="#787878" stroke-width="0.7" stroke-linecap="round" stroke-linejoin="round" x1="0.35" y1="43.2" x2="14.4" y2="43.2"/>
	<rect id="connector8pin" x="0" y="42.85" fill="none" width="14.4" height="0.7"/>
	<rect id="connector8terminal" x="0" y="42.85" fill="none" width="0" height="0.7"/>
	<text transform="matrix(1 0 0 1 15.8 43.9)" fill="#8C8C8C" font-family="'DroidSans'" font-size="3.5px">D</text>
	<text transform="matrix(1 0 0 1 18.1945 43.9)" fill="#8C8C8C" font-family="'DroidSans'" font-size="3.5px">R</text>
	<text transform="matrix(1 0 0 1 20.259 43.9)" fill="#8C8C8C" font-family="'DroidSans'" font-size="3.5px">D</text>
	<text transform="matrix(1 0 0 1 22.5832 43.9)" fill="#8C8C8C" font-family="'DroidSans'" font-size="3.5px">Y</text>
	
		<line fill="none" stroke="#787878" stroke-width="0.7" stroke-linecap="round" stroke-linejoin="round" x1="64.45" y1="28.8" x2="78.85" y2="28.8"/>
	<rect id="connector6pin" x="64.8" y="28.45" fill="none" width="14.4" height="0.7"/>
	<rect id="connector6terminal" x="79.2" y="28.45" fill="none" width="0" height="0.7"/>
	<text transform="matrix(1 0 0 1 57.0956 29.5)" fill="#8C8C8C" font-family="'DroidSans'" font-size="3.5px">S</text>
	<text transform="matrix(1 0 0 1 58.912 29.5)" fill="#8C8C8C" font-family="'DroidSans'" font-size="3.5px">D</text>
	<text transform="matrix(1 0 0 1 61.2723 29.5)" fill="#8C8C8C" font-family="'DroidSans'" font-size="3.5px">A</text>
	
		<line fill="none" stroke="#787878" stroke-width="0.7" stroke-linecap="round" stroke-linejoin="round" x1="64.45" y1="36" x2="78.85" y2="36"/>
	<rect id="connector7pin" x="64.8" y="35.65" fill="none" width="14.4" height="0.7"/>
	<rect id="connector7terminal" x="79.2" y="35.65" fill="none" width="0" height="0.7"/>
	<text id="label7" transform="matrix(1 0 0 1 57.7535 36.7)" fill="#8C8C8C" font-family="'DroidSans'" font-size="3.5px">SCL</text>
	
		<line fill="none" stroke="#787878" stroke-width="0.7" stroke-linecap="round" stroke-linejoin="round" x1="36" y1="0.35" x2="36" y2="14.4"/>
	<rect id="connector4pin" x="35.65" fill="none" width="0.7" height="14.4"/>
	<polygon id="connector4terminal" fill="none" points="35.65,0 36.35,0 36.35,0 	"/>
	<g transform="matrix(1, 0, 0, 1, 37.4, 16)">
		<g>
			<g>
				<g>
					<g transform="rotate(270)">
						<g>
							<g>
								<g>
									<text transform="matrix(1 0 0 1 -6.0684 2.241406e-05)" fill="#8C8C8C" font-family="'DroidSans'" font-size="3.5px">V</text>
									<text transform="matrix(1 0 0 1 -4.1509 2.241406e-05)" fill="#8C8C8C" font-family="'DroidSans'" font-size="3.5px">C</text>
									<text transform="matrix(1 0 0 1 -2.1104 2.241406e-05)" fill="#8C8C8C" font-family="'DroidSans'" font-size="3.5px">C</text>
								</g>
							</g>
						</g>
					</g>
				</g>
			</g>
		</g>
	</g>
	
		<line fill="none" stroke="#787878" stroke-width="0.7" stroke-linecap="round" stroke-linejoin="round" x1="36" y1="57.6" x2="36" y2="71.65"/>
	<rect id="connector5pin" x="35.65" y="57.6" fill="none" width="0.7" height="14.4"/>
	<polygon id="connector5terminal" fill="none" points="35.65,72 36.35,72 36.35,72 	"/>
	<g transform="matrix(1, 0, 0, 1, 37.4, 56)">
		<g>
			<g>
				<g>
					<g transform="rotate(270)">
						<g>
							<g>
								<g>
									
										<text id="label5" transform="matrix(1 0 0 1 0 2.241406e-05)" fill="#8C8C8C" font-family="'DroidSans'" font-size="3.5px">GND</text>
								</g>
							</g>
						</g>
					</g>
				</g>
			</g>
		</g>
	</g>
</g>
</svg>
