<?xml version="1.0" encoding="UTF-8" standalone="no"?>
<!-- Created with Inkscape (http://www.inkscape.org/) -->

<svg
   xmlns:dc="http://purl.org/dc/elements/1.1/"
   xmlns:cc="http://creativecommons.org/ns#"
   xmlns:rdf="http://www.w3.org/1999/02/22-rdf-syntax-ns#"
   xmlns:svg="http://www.w3.org/2000/svg"
   xmlns="http://www.w3.org/2000/svg"
   version="1.1"
   width="72"
   height="54"
   id="svg4364">
  <defs
     id="defs4366" />
  <metadata
     id="metadata4369">
    <rdf:RDF>
      <cc:Work
         rdf:about="">
        <dc:format>image/svg+xml</dc:format>
        <dc:type
           rdf:resource="http://purl.org/dc/dcmitype/StillImage" />
        <dc:title></dc:title>
      </cc:Work>
    </rdf:RDF>
  </metadata>
  <g
     transform="translate(0,-998.362)"
     id="layer1"
     style="display:inline" />
  <g
     id="pcb">
    <g
       id="copper0">
      <path
         d="m 65.25,27 a 2.25,2.25 0 0 1 -4.5,0 2.25,2.25 0 1 1 4.5,0 z"
         id="connector1pin"
         style="fill:none;stroke:#f6ca34;stroke-width:1.79999995;stroke-linecap:round;stroke-linejoin:round;stroke-miterlimit:4;stroke-opacity:1;stroke-dasharray:none;stroke-dashoffset:0;display:inline" />
      <path
         d="m 47.25,27 a 2.25,2.25 0 0 1 -4.5,0 2.25,2.25 0 1 1 4.5,0 z"
         id="connector2pin"
         style="fill:none;stroke:#f6ca34;stroke-width:1.79999995;stroke-linecap:round;stroke-linejoin:round;stroke-miterlimit:4;stroke-opacity:1;stroke-dasharray:none;stroke-dashoffset:0;display:inline" />
      <path
         d="m 56.25,45 a 2.25,2.25 0 0 1 -4.5,0 2.25,2.25 0 1 1 4.5,0 z"
         id="connector3pin"
         style="fill:none;stroke:#f6ca34;stroke-width:1.79999995;stroke-linecap:round;stroke-linejoin:round;stroke-miterlimit:4;stroke-opacity:1;stroke-dasharray:none;stroke-dashoffset:0;display:inline" />
    </g>
    <g
       id="copper1">
      <path
         d="m 65.25,27 a 2.25,2.25 0 0 1 -4.5,0 2.25,2.25 0 1 1 4.5,0 z"
         id="connector1pin"
         style="fill:none;stroke:#f6ca34;stroke-width:1.79999995;stroke-linecap:round;stroke-linejoin:round;stroke-miterlimit:4;stroke-opacity:1;stroke-dasharray:none;stroke-dashoffset:0;display:inline" />
      <path
         d="m 47.25,27 a 2.25,2.25 0 0 1 -4.5,0 2.25,2.25 0 1 1 4.5,0 z"
         id="connector2pin"
         style="fill:none;stroke:#f6ca34;stroke-width:1.79999995;stroke-linecap:round;stroke-linejoin:round;stroke-miterlimit:4;stroke-opacity:1;stroke-dasharray:none;stroke-dashoffset:0;display:inline" />
      <path
         d="m 56.25,45 a 2.25,2.25 0 0 1 -4.5,0 2.25,2.25 0 1 1 4.5,0 z"
         id="connector3pin"
         style="fill:none;stroke:#f6ca34;stroke-width:1.79999995;stroke-linecap:round;stroke-linejoin:round;stroke-miterlimit:4;stroke-opacity:1;stroke-dasharray:none;stroke-dashoffset:0;display:inline" />
    </g>
    <g
       id="silkscreen">
      <rect
         width="54"
         height="36"
         x="9"
         y="9"
         id="rect9719"
         style="fill:none;stroke:#ffffff;stroke-width:0.89999998;stroke-linecap:butt;stroke-linejoin:round;stroke-miterlimit:4;stroke-opacity:1;stroke-dasharray:none;stroke-dashoffset:0.28800001" />
    </g>
  </g>
</svg>
