<?xml version='1.0' encoding='UTF-8' standalone='no'?>
<!-- Created with Fritzing (http://www.fritzing.org/) -->
<svg xmlns="http://www.w3.org/2000/svg" viewBox="0 0 50.4 46.8" x="0in" height="0.65in" y="0in"  width="0.7in" baseProfile="tiny" version="1.2">
    <desc>
        <referenceFile>Adafruit_DRV2605L_pcb.svg</referenceFile>
    </desc>
    <desc >Fritzing footprint generated by brd2svg</desc>
    <g  id="silkscreen" gorn="0.1">
        <path fill="none"  d="M0.288,39.4006L0.288,7.39937A6.912,6.912,0,0,1,7.4057,0.288L42.9943,0.288A6.912,6.912,0,0,1,50.112,7.39937L50.112,39.4006A6.912,6.912,0,0,1,42.9943,46.512L7.4057,46.512A6.912,6.912,0,0,1,0.288,39.4006" stroke="white" stroke-width="0.576"/>
        <g >
            <title >element:JP1</title>
            <g >
                <title >package:1X05_ROUND_FULL_76</title>
            </g>
        </g>
        <g >
            <title >element:U1</title>
            <g >
                <title >package:PSOP10</title>
                <line stroke-linecap="round" x1="21.515"  stroke="white" x2="20.6646" y1="19.2246" stroke-width="0.36" y2="19.2246"/>
                <line stroke-linecap="round" x1="20.6646"  stroke="white" x2="20.6646" y1="19.2246" stroke-width="0.36" y2="28.2954"/>
                <line stroke-linecap="round" x1="20.6646"  stroke="white" x2="21.515" y1="28.2954" stroke-width="0.36" y2="28.2954"/>
                <line stroke-linecap="round" x1="28.885"  stroke="white" x2="29.7354" y1="28.2954" stroke-width="0.36" y2="28.2954"/>
                <line stroke-linecap="round" x1="29.7354"  stroke="white" x2="29.7354" y1="28.2954" stroke-width="0.36" y2="19.2246"/>
                <line stroke-linecap="round" x1="29.7354"  stroke="white" x2="28.885" y1="19.2246" stroke-width="0.36" y2="19.2246"/>
                <circle fill="none" r="0.566929"  cy="30.138" stroke="white" stroke-width="1.152" cx="20.2393"/>
            </g>
        </g>
    </g>
    <g  id="copper1" gorn="0.2">
        <g  id="copper0" gorn="0.2.0">
            <rect fill="#F7BD13" x="29.5654" height="5.66929" y="2.92535"  width="5.66929" id="connector15pad" stroke="none" gorn="0.2.0.0" stroke-width="0"/>
            <circle fill="none" r="2.07666"  cy="41.76" id="connector6pad" stroke="#F7BD13" gorn="0.2.0.1" stroke-width="1.31868" cx="10.8" connectorname="VIN"/>
            <circle fill="none" r="2.07666"  cy="41.76" id="connector7pad" stroke="#F7BD13" gorn="0.2.0.2" stroke-width="1.31868" cx="18" connectorname="GND"/>
            <rect fill="#F7BD13" x="15.1654" height="5.66929" y="2.92535"  width="5.66929" id="connector16pad" stroke="none" gorn="0.2.0.3" stroke-width="0"/>
            <circle fill="none" r="2.07666"  cy="41.76" id="connector8pad" stroke="#F7BD13" gorn="0.2.0.4" stroke-width="1.31868" cx="25.2" connectorname="SCL"/>
            <circle fill="none" r="2.07666"  cy="41.76" id="connector9pad" stroke="#F7BD13" gorn="0.2.0.5" stroke-width="1.31868" cx="32.4" connectorname="SDA"/>
            <circle fill="none" r="2.07666"  cy="41.76" id="connector10pad" stroke="#F7BD13" gorn="0.2.0.6" stroke-width="1.31868" cx="39.6" connectorname="IN/TRIG"/>
        </g>
    </g>
</svg>
