<?xml version='1.0' encoding='UTF-8' standalone='no'?>
<!-- Created with Fritzing (http://www.fritzing.org/) -->
<svg xmlns="http://www.w3.org/2000/svg" version="1.2" baseProfile="tiny" x="0in"  viewBox="0 0 46.8 36" width="0.65in" height="0.5in" y="0in">
    <desc>
        <referenceFile>Adafruit I2S Mic_pcb.svg</referenceFile>
    </desc>
    <desc >Fritzing footprint generated by brd2svg</desc>
    <g id="silkscreen"  gorn="0.1">
        <path d="M0.288,7.3728A6.912,6.912,0,0,1,7.39937,0.288L39.4006,0.288A6.912,6.912,0,0,1,46.512,7.3728L46.512,28.6272A6.912,6.912,0,0,1,39.4006,35.712L7.39937,35.712A6.912,6.912,0,0,1,0.288,28.6272L0.288,7.3728" stroke="white"  stroke-width="0.576" fill="none"/>
        <line stroke="white" x2="18.36" stroke-linecap="round"  x1="12.24" stroke-width="0.72" y2="14.04" y1="14.04"/>
        <line stroke="white" x2="16.92" stroke-linecap="round"  x1="18.36" stroke-width="0.72" y2="12.96" y1="14.04"/>
        <line stroke="white" x2="16.92" stroke-linecap="round"  x1="16.92" stroke-width="0.72" y2="15.12" y1="12.96"/>
        <line stroke="white" x2="18.36" stroke-linecap="round"  x1="16.92" stroke-width="0.72" y2="14.04" y1="15.12"/>
        <g >
            <title >element:JP2</title>
            <g >
                <title >package:1X06_ROUND</title>
            </g>
        </g>
        <g >
            <title >element:U$5</title>
            <g >
                <title >package:ADAFRUIT_3.5MM</title>
            </g>
        </g>
        <g >
            <title >element:U$6</title>
            <g >
                <title >package:MOUNTINGHOLE_2.5_PLATED</title>
                <circle cy="7.2" stroke="white"  stroke-width="0.576" r="5.66929" fill="none" cx="7.2"/>
            </g>
        </g>
        <g >
            <title >element:U$12</title>
            <g >
                <title >package:MOUNTINGHOLE_2.5_PLATED</title>
                <circle cy="7.2" stroke="white"  stroke-width="0.576" r="5.66929" fill="none" cx="39.6"/>
            </g>
        </g>
    </g>
    <g id="copper1"  gorn="0.2">
        <g id="copper0"  gorn="0.2.0">
            <circle cy="28.8" id="connector1pad" stroke="#F7BD13"  stroke-width="0.95868" gorn="0.2.0.0" r="1.89666" fill="none" connectorname="VDD" cx="41.4"/>
            <circle cy="28.8" id="connector5pad" stroke="#F7BD13"  stroke-width="0.95868" gorn="0.2.0.1" r="1.89666" fill="none" connectorname="WS" cx="12.6"/>
            <circle cy="28.8" id="connector2pad" stroke="#F7BD13"  stroke-width="0.95868" gorn="0.2.0.2" r="1.89666" fill="none" connectorname="GND" cx="34.2"/>
            <circle cy="28.8" id="connector6pad" stroke="#F7BD13"  stroke-width="0.95868" gorn="0.2.0.3" r="1.89666" fill="none" connectorname="SELECT" cx="5.4"/>
            <circle cy="28.8" id="connector3pad" stroke="#F7BD13"  stroke-width="0.95868" gorn="0.2.0.4" r="1.89666" fill="none" connectorname="BCLK" cx="27"/>
            <circle cy="28.8" id="connector4pad" stroke="#F7BD13"  stroke-width="0.95868" gorn="0.2.0.5" r="1.89666" fill="none" connectorname="DATA" cx="19.8"/>
            <circle cy="13.8274" id="connector0pad" stroke="#F7BD13"  stroke-width="0.850392" gorn="0.2.0.6" r="1.87795" fill="none" connectorname="GND" cx="23.4"/>
        </g>
    </g>
</svg>
