<?xml version='1.0' encoding='UTF-8' standalone='no'?>
<!-- Created with Fritzing (http://www.fritzing.org/) -->
<svg xmlns="http://www.w3.org/2000/svg" width="0.8in" x="0in" gorn="0" height="1.1in" id="svg2"  viewBox="0 0 57.6 79.2" y="0in" version="1.2">
    <desc>
        <referenceFile>Adafruit AT42QT1010_pcb.svg</referenceFile>
    </desc>
    <metadata id="metadata49" >
        <rdf:RDF xmlns:rdf="http://www.w3.org/1999/02/22-rdf-syntax-ns#">
            <cc:Work rdf:about="" xmlns:cc="http://creativecommons.org/ns#" xmlns:rdf="http://www.w3.org/1999/02/22-rdf-syntax-ns#">
                <dc:format xmlns:dc="http://purl.org/dc/elements/1.1/">image/svg+xml</dc:format>
                <dc:type xmlns:dc="http://purl.org/dc/elements/1.1/" xmlns:rdf="http://www.w3.org/1999/02/22-rdf-syntax-ns#" rdf:resource="http://purl.org/dc/dcmitype/StillImage"/>
            </cc:Work>
        </rdf:RDF>
    </metadata>
    <defs id="defs47" />
    <desc id="desc4" >Fritzing footprint generated by brd2svg</desc>
    <g gorn="0.3" id="silkscreen" >
        <path gorn="0.3.0" stroke="white" stroke-width="0.576" d="M7.416,78.912A6.912,6.912,0,0,1,0.288,71.7643L0.288,7.43566A6.912,6.912,0,0,1,7.416,0.288L50.184,0.288A6.912,6.912,0,0,1,57.312,7.43566L57.312,71.7643A6.912,6.912,0,0,1,50.184,78.912L7.416,78.912M25.3462,6.18803a3.25531,3.25531,0,1,0,6.51061,0,3.25531,3.25531,0,1,0,-6.51061,0z" id="path7"  fill="none"/>
        <g gorn="0.3.1" id="g9" >
            <title id="title11" >element:SW1</title>
            <g gorn="0.3.1.1" id="g13" >
                <title id="title15" >package:CAPTOUCH_SIMPLE_12.5MM</title>
                <path gorn="0.3.1.1.1" stroke="white" stroke-width="0.36" d="M19.389,11.9055A9.21262,9.21262,0,0,0,10.1764,21.1181" id="path17"  fill="none"/>
                <line gorn="0.3.1.1.2" y1="11.9055" stroke="white" stroke-width="0.36" id="line19" x2="37.8142"  stroke-linecap="round" y2="11.9055" x1="19.389"/>
                <path gorn="0.3.1.1.3" stroke="white" stroke-width="0.36" d="M47.0268,21.1181A9.21262,9.21262,0,0,0,37.8142,11.9055" id="path21"  fill="none"/>
                <line gorn="0.3.1.1.4" y1="21.1181" stroke="white" stroke-width="0.36" id="line23" x2="47.0268"  stroke-linecap="round" y2="39.5433" x1="47.0268"/>
                <path gorn="0.3.1.1.5" stroke="white" stroke-width="0.36" d="M37.8142,48.7559A9.21262,9.21262,0,0,0,47.0268,39.5433" id="path25"  fill="none"/>
                <line gorn="0.3.1.1.6" y1="48.7559" stroke="white" stroke-width="0.36" id="line27" x2="19.389"  stroke-linecap="round" y2="48.7559" x1="37.8142"/>
                <path gorn="0.3.1.1.7" stroke="white" stroke-width="0.36" d="M10.1764,39.5433A9.21262,9.21262,0,0,0,19.389,48.7559" id="path29"  fill="none"/>
                <line gorn="0.3.1.1.8" y1="39.5433" stroke="white" stroke-width="0.36" id="line31" x2="10.1764"  stroke-linecap="round" y2="21.1181" x1="10.1764"/>
            </g>
        </g>
    </g>
    <g gorn="0.4" id="copper1" >
        <g gorn="0.4.0" id="copper0" >
            <circle r="0" gorn="0.4.0.0" cy="73.8" stroke-width="0" stroke="#F7BD13" id="connector9pad" cx="39.4016"  fill="none" connectorname="CAPPAD"/>
            <circle r="2.07666" gorn="0.4.0.1" cy="73.8" stroke-width="1.31868" stroke="#F7BD13" id="connector2pad" cx="25.0016"  fill="none" connectorname="OUT"/>
            <circle r="2.07666" gorn="0.4.0.2" cy="73.8" stroke-width="1.31868" stroke="#F7BD13" id="connector1pad" cx="32.2016"  fill="none" connectorname="VDD"/>
            <circle r="2.07666" gorn="0.4.0.3" cy="73.8" stroke-width="1.31868" stroke="#F7BD13" id="connector3pad" cx="17.8016"  fill="none" connectorname="GND"/>
            <circle r="4.26331" gorn="0.4.0.4" cy="72" stroke-width="1.44" stroke="#F7BD13" id="connector5pad" cx="7.2"  fill="none" connectorname="P$1"/>
            <circle r="4.26331" gorn="0.4.0.5" cy="72" stroke-width="1.44" stroke="#F7BD13" id="connector6pad" cx="50.4"  fill="none" connectorname="P$1"/>
            <circle r="4.26331" gorn="0.4.0.6" cy="7.2" stroke-width="1.44" stroke="#F7BD13" id="connector7pad" cx="7.2"  fill="none" connectorname="P$1"/>
            <circle r="4.26331" gorn="0.4.0.7" cy="7.2" stroke-width="1.44" stroke="#F7BD13" id="connector8pad" cx="50.4"  fill="none" connectorname="P$1"/>
            <circle r="2.07666" gorn="0.4.0.8" cy="73.8" stroke-width="1.31868" stroke="#F7BD13" id="connector0pad" cx="39.4016"  fill="none" connectorname="LEDA"/>
        </g>
    </g>
</svg>
