<?xml version='1.0' encoding='UTF-8' standalone='no'?>
<!-- Created with Fritzing (http://www.fritzing.org/) -->
<svg xmlns="http://www.w3.org/2000/svg" version="1.2"  width="0.750213in" baseProfile="tiny" height="0.750008in" x="0in" viewBox="0 0 54.0153 54.0006" y="0in">
    <desc>
        <referenceFile>Adafruit_ADXL326_pcb.svg</referenceFile>
    </desc>
    <desc >Fritzing footprint generated by brd2svg</desc>
    <g  gorn="0.1" id="silkscreen">
        <path fill="none" stroke-width="0.576" d="M53.7273,7.41118L53.7273,46.5894A6.912,6.912,0,0,1,46.6041,53.7126L7.41125,53.7126A6.912,6.912,0,0,1,0.288,46.5894L0.288,7.41118A6.912,6.912,0,0,1,7.41125,0.288L46.6041,0.288A6.912,6.912,0,0,1,53.7273,7.41118"  stroke="white"/>
        <line stroke-width="0.72"  stroke-linecap="round" y1="12.9963" x1="30.9458" y2="12.9963" x2="21.5858" stroke="white"/>
        <line stroke-width="0.72"  stroke-linecap="round" y1="12.9963" x1="21.5858" y2="14.4363" x2="23.0258" stroke="white"/>
        <line stroke-width="0.72"  stroke-linecap="round" y1="12.9963" x1="21.5858" y2="11.5563" x2="23.0258" stroke="white"/>
        <line stroke-width="0.72"  stroke-linecap="round" y1="17.3163" x1="35.2658" y2="25.9563" x2="35.2658" stroke="white"/>
        <line stroke-width="0.72"  stroke-linecap="round" y1="25.9563" x1="35.2658" y2="23.7963" x2="36.7058" stroke="white"/>
        <line stroke-width="0.72"  stroke-linecap="round" y1="25.9563" x1="35.2658" y2="23.7963" x2="33.8258" stroke="white"/>
        <line stroke-width="1.152"  stroke-linecap="round" y1="52.5963" x1="41.3858" y2="50.7963" x2="43.5458" stroke="white"/>
        <line stroke-width="1.152"  stroke-linecap="round" y1="50.7963" x1="43.5458" y2="50.7963" x2="39.2258" stroke="white"/>
        <line stroke-width="1.152"  stroke-linecap="round" y1="50.7963" x1="39.2258" y2="52.5963" x2="41.3858" stroke="white"/>
        <line stroke-width="1.152"  stroke-linecap="round" y1="52.5963" x1="34.1858" y2="50.7963" x2="36.3458" stroke="white"/>
        <line stroke-width="1.152"  stroke-linecap="round" y1="50.7963" x1="36.3458" y2="50.7963" x2="32.0258" stroke="white"/>
        <line stroke-width="1.152"  stroke-linecap="round" y1="50.7963" x1="32.0258" y2="52.5963" x2="34.1858" stroke="white"/>
        <line stroke-width="1.152"  stroke-linecap="round" y1="52.5963" x1="26.9858" y2="50.7963" x2="29.1458" stroke="white"/>
        <line stroke-width="1.152"  stroke-linecap="round" y1="50.7963" x1="29.1458" y2="50.7963" x2="24.8258" stroke="white"/>
        <line stroke-width="1.152"  stroke-linecap="round" y1="50.7963" x1="24.8258" y2="52.5963" x2="26.9858" stroke="white"/>
        <line stroke-width="1.152"  stroke-linecap="round" y1="52.5963" x1="7.54582" y2="52.5963" x2="3.94583" stroke="white"/>
        <line stroke-width="1.152"  stroke-linecap="round" y1="52.5963" x1="3.94583" y2="50.7963" x2="5.74583" stroke="white"/>
        <line stroke-width="1.152"  stroke-linecap="round" y1="50.7963" x1="5.74583" y2="52.5963" x2="7.54582" stroke="white"/>
        <line stroke-width="1.152"  stroke-linecap="round" y1="52.5963" x1="12.5858" y2="50.7963" x2="14.7458" stroke="white"/>
        <line stroke-width="1.152"  stroke-linecap="round" y1="50.7963" x1="14.7458" y2="50.7963" x2="10.4258" stroke="white"/>
        <line stroke-width="1.152"  stroke-linecap="round" y1="50.7963" x1="10.4258" y2="52.5963" x2="12.5858" stroke="white"/>
        <line stroke-width="1.152"  stroke-linecap="round" y1="50.7963" x1="19.7858" y2="52.5963" x2="17.6258" stroke="white"/>
        <line stroke-width="1.152"  stroke-linecap="round" y1="52.5963" x1="17.6258" y2="52.5963" x2="21.9458" stroke="white"/>
        <line stroke-width="1.152"  stroke-linecap="round" y1="52.5963" x1="21.9458" y2="50.7963" x2="19.7858" stroke="white"/>
        <circle fill="none" stroke-width="0.72" r="2.27678" cy="12.9963" cx="35.2658"  stroke="white"/>
        <circle fill="none" stroke-width="0.72" r="0.72" cy="12.9963" cx="35.2658"  stroke="white"/>
        <g >
            <title >element:JP2</title>
            <g >
                <title >package:1X07_ROUND_76</title>
            </g>
        </g>
    </g>
    <g  gorn="0.2" id="copper1">
        <g  gorn="0.2.0" id="copper0">
            <circle fill="none" stroke-width="1.31868" r="2.07666" cy="46.8363" cx="19.7858"  gorn="0.2.0.0" stroke="#F7BD13" connectorname="GND" id="connector33pad"/>
            <circle fill="none" stroke-width="1.41732" r="3.54331" cy="7.23629" cx="7.18583"  gorn="0.2.0.1" stroke="#F7BD13" connectorname="P$1" id="connector41pad"/>
            <circle fill="none" stroke-width="1.31868" r="2.07666" cy="46.8363" cx="48.5858"  gorn="0.2.0.2" stroke="#F7BD13" connectorname="TEST" id="connector37pad"/>
            <circle fill="none" stroke-width="1.31868" r="2.07666" cy="46.8363" cx="5.38583"  gorn="0.2.0.3" stroke="#F7BD13" connectorname="VIN" id="connector31pad"/>
            <circle fill="none" stroke-width="1.31868" r="2.07666" cy="46.8363" cx="34.1858"  gorn="0.2.0.4" stroke="#F7BD13" connectorname="YOUT" id="connector35pad"/>
            <circle fill="none" stroke-width="1.31868" r="2.07666" cy="46.8363" cx="12.5858"  gorn="0.2.0.5" stroke="#F7BD13" connectorname="+3V3" id="connector32pad"/>
            <circle fill="none" stroke-width="1.31868" r="2.07666" cy="46.8363" cx="26.9858"  gorn="0.2.0.6" stroke="#F7BD13" connectorname="ZOUT" id="connector34pad"/>
            <circle fill="none" stroke-width="1.31868" r="2.07666" cy="46.8363" cx="41.3858"  gorn="0.2.0.7" stroke="#F7BD13" connectorname="XOUT" id="connector36pad"/>
            <circle fill="none" stroke-width="1.41732" r="3.54331" cy="7.23629" cx="46.7858"  gorn="0.2.0.8" stroke="#F7BD13" connectorname="P$1" id="connector40pad"/>
        </g>
    </g>
</svg>
