<?xml version='1.0' encoding='UTF-8' standalone='no'?>
<!-- Created with Fritzing (http://www.fritzing.org/) -->
<svg xmlns="http://www.w3.org/2000/svg" baseProfile="tiny"  viewBox="0 0 122.4 126" height="1.75in" y="0in" version="1.2" x="0in" width="1.7in">
    <desc>
        <referenceFile>Adafruit 1.44 inch TFT_pcb.svg</referenceFile>
    </desc>
    <desc >Fritzing footprint generated by brd2svg</desc>
    <g gorn="0.1"  id="silkscreen">
        <path  d="M107.78,111.378L114.946,111.378A6.912,6.912,0,0,1,122.112,118.545A6.912,6.912,0,0,1,114.946,125.712L7.45409,125.712A6.912,6.912,0,0,1,0.288,118.545A6.912,6.912,0,0,1,7.45409,111.378L14.6202,111.378L14.6202,14.6222L7.45409,14.6222A6.912,6.912,0,0,1,0.288,7.4551A6.912,6.912,0,0,1,7.45409,0.288L114.946,0.288A6.912,6.912,0,0,1,122.112,7.4551A6.912,6.912,0,0,1,114.946,14.6222L107.78,14.6222L107.78,111.378" stroke="white" stroke-width="0.576" fill="none"/>
        <g >
            <title >element:IC1</title>
            <g >
                <title >package:SO16</title>
            </g>
        </g>
        <g >
            <title >element:JP1</title>
            <g >
                <title >package:1X11_ROUND_76</title>
            </g>
        </g>
        <g >
            <title >element:Q2</title>
            <g >
                <title >package:MICROSD</title>
            </g>
        </g>
        <g >
            <title >element:TFT2</title>
            <g >
                <title >package:TFT_1.44IN_128_128</title>
                <line  stroke="white" stroke-width="0.576" x1="106.56" x2="15.84" stroke-linecap="round" y2="108.36" y1="108.36"/>
                <line  stroke="white" stroke-width="0.576" x1="15.84" x2="15.84" stroke-linecap="round" y2="2.16" y1="108.36"/>
                <line  stroke="white" stroke-width="0.576" x1="15.84" x2="106.56" stroke-linecap="round" y2="2.16" y1="2.16"/>
                <line  stroke="white" stroke-width="0.576" x1="106.56" x2="106.56" stroke-linecap="round" y2="108.36" y1="2.16"/>
            </g>
        </g>
    </g>
    <g gorn="0.2"  id="copper1">
        <g gorn="0.2.0"  id="copper0">
            <circle connectorname="+3V3" gorn="0.2.0.0"  stroke="#F7BD13" cy="120.6" stroke-width="1.31868" fill="none" id="connector1pad" cx="32.4" r="2.07666"/>
            <circle connectorname="P$1" gorn="0.2.0.1"  stroke="#F7BD13" cy="7.2" stroke-width="1.44" fill="none" id="connector25pad" cx="7.2" r="4.26331"/>
            <circle connectorname="GND" gorn="0.2.0.2"  stroke="#F7BD13" cy="120.6" stroke-width="1.31868" fill="none" id="connector2pad" cx="39.6" r="2.07666"/>
            <circle connectorname="SCK" gorn="0.2.0.3"  stroke="#F7BD13" cy="120.6" stroke-width="1.31868" fill="none" id="connector3pad" cx="46.8" r="2.07666"/>
            <circle connectorname="MISO" gorn="0.2.0.4"  stroke="#F7BD13" cy="120.6" stroke-width="1.31868" fill="none" id="connector4pad" cx="54" r="2.07666"/>
            <circle connectorname="MOSI" gorn="0.2.0.5"  stroke="#F7BD13" cy="120.6" stroke-width="1.31868" fill="none" id="connector5pad" cx="61.2" r="2.07666"/>
            <circle connectorname="TFTCS" gorn="0.2.0.6"  stroke="#F7BD13" cy="120.6" stroke-width="1.31868" fill="none" id="connector6pad" cx="68.4" r="2.07666"/>
            <circle connectorname="P$1" gorn="0.2.0.7"  stroke="#F7BD13" cy="118.8" stroke-width="1.44" fill="none" id="connector27pad" cx="7.2" r="4.26331"/>
            <circle connectorname="RESET" gorn="0.2.0.8"  stroke="#F7BD13" cy="120.6" stroke-width="1.31868" fill="none" id="connector7pad" cx="75.6" r="2.07666"/>
            <circle connectorname="TFTDC" gorn="0.2.0.9"  stroke="#F7BD13" cy="120.6" stroke-width="1.31868" fill="none" id="connector8pad" cx="82.8" r="2.07666"/>
            <circle connectorname="CARDCS" gorn="0.2.0.10"  stroke="#F7BD13" cy="120.6" stroke-width="1.31868" fill="none" id="connector9pad" cx="90" r="2.07666"/>
            <circle connectorname="LITE" gorn="0.2.0.11"  stroke="#F7BD13" cy="120.6" stroke-width="1.31868" fill="none" id="connector10pad" cx="97.2" r="2.07666"/>
            <circle connectorname="P$1" gorn="0.2.0.12"  stroke="#F7BD13" cy="7.2" stroke-width="1.44" fill="none" id="connector26pad" cx="115.2" r="4.26331"/>
            <circle connectorname="P$1" gorn="0.2.0.13"  stroke="#F7BD13" cy="118.8" stroke-width="1.44" fill="none" id="connector28pad" cx="115.2" r="4.26331"/>
            <circle connectorname="VIN" gorn="0.2.0.14"  stroke="#F7BD13" cy="120.6" stroke-width="1.31868" fill="none" id="connector0pad" cx="25.2" r="2.07666"/>
        </g>
    </g>
</svg>
