<?xml version='1.0' encoding='UTF-8' standalone='no'?>
<!-- Created with Fritzing (http://www.fritzing.org/) -->
<svg xmlns="http://www.w3.org/2000/svg"  x="0in" y="0in" baseProfile="tiny" viewBox="0 0 50.4 107.49" width="0.7in" height="1.49291in" version="1.2">
    <desc>
        <referenceFile>Adafruit Pro Trinket 3.3V 12MHz_pcb.svg</referenceFile>
    </desc>
    <desc >Fritzing footprint generated by brd2svg</desc>
    <g  gorn="0.1" id="silkscreen">
        <path  stroke-width="0.576" d="M50.112,102.01L48.6885,103.621L36.4104,103.621L32.8515,107.202L7.04983,107.202L3.49097,103.621L0.288,103.621L0.288,7.30001A5.112,5.112,0,0,1,5.62629,1.92892L44.7737,1.92892A5.112,5.112,0,0,1,50.112,7.30001L50.112,102.01M30.0234,13.8897a0.704126,0.704126,0,1,0,1.40826,0,0.704126,0.704126,0,1,0,-1.40826,0zM18.9683,13.8897a0.704126,0.704126,0,1,0,1.40826,0,0.704126,0.704126,0,1,0,-1.40826,0zM2.56989,6.68976a2.83011,2.83011,0,1,0,5.66022,0,2.83011,2.83011,0,1,0,-5.66022,0zM42.1699,6.68976a2.83011,2.83011,0,1,0,5.66022,0,2.83011,2.83011,0,1,0,-5.66022,0zM22.3699,79.7695a2.83011,2.83011,0,1,0,5.66022,0,2.83011,2.83011,0,1,0,-5.66022,0z" stroke="white" fill="none"/>
        <line  stroke-width="0.72" y2="80.8495" x2="29.16" stroke-linecap="round" stroke="white" y1="74.7295" x1="29.16"/>
        <line  stroke-width="0.72" y2="80.8495" x2="37.8" stroke-linecap="round" stroke="white" y1="80.8495" x1="29.16"/>
        <line  stroke-width="0.72" y2="74.7295" x2="37.8" stroke-linecap="round" stroke="white" y1="80.8495" x1="37.8"/>
        <line  stroke-width="0.72" y2="74.7295" x2="29.16" stroke-linecap="round" stroke="white" y1="74.7295" x1="37.8"/>
        <g >
            <title >element:BAT</title>
            <g >
                <title >package:JSTPH2</title>
            </g>
        </g>
        <g >
            <title >element:CN1</title>
            <g >
                <title >package:4UCONN_20329</title>
                <line  stroke-width="0.36" y2="17.0078" x2="30.0189" stroke-linecap="round" stroke="white" y1="17.0078" x1="32.2866"/>
                <line  stroke-width="0.36" y2="17.0078" x2="18.1134" stroke-linecap="round" stroke="white" y1="17.0078" x1="20.3811"/>
                <line  stroke-width="0.36" y2="1.70078" x2="35.9716" stroke-linecap="round" stroke="white" y1="4.25197" x1="35.9716"/>
                <line  stroke-width="0.36" y2="1.70078" x2="14.4284" stroke-linecap="round" stroke="white" y1="1.70078" x1="35.9716"/>
                <line  stroke-width="0.36" y2="4.25197" x2="14.4284" stroke-linecap="round" stroke="white" y1="1.70078" x1="14.4284"/>
            </g>
        </g>
        <g >
            <title >element:JP1</title>
            <g >
                <title >package:1X12-CB</title>
            </g>
        </g>
        <g >
            <title >element:JP4</title>
            <g >
                <title >package:1X12-CB</title>
            </g>
        </g>
        <g >
            <title >element:U$9</title>
            <g >
                <title >package:ADAFRUIT_9MM</title>
            </g>
        </g>
        <line  stroke-width="0.576" y2="0.288" x2="39.515" stroke="white" fill-opacity="1" y1="0.288" fill="none" x1="10.885"/>
        <line  stroke-width="0.576" y2="0.288" x2="10.885" stroke="white" fill-opacity="1" y1="1.64976" fill="none" x1="10.885"/>
        <line  stroke-width="0.576" y2="0.288" x2="39.515" stroke="white" fill-opacity="1" y1="1.64976" fill="none" x1="39.515"/>
    </g>
    <g  gorn="0.2" id="copper1">
        <g  gorn="0.2.0" id="copper0">
            <circle  connectorname="A6" cy="57.0897" stroke-width="1.10268" gorn="0.2.0.0" id="connector81pad" stroke="#F7BD13" r="1.96866" fill="none" cx="10.8"/>
            <circle  connectorname="D8" cy="42.6897" stroke-width="1.08" gorn="0.2.0.1" id="connector73pad" stroke="#F7BD13" r="1.98" fill="none" cx="46.8"/>
            <circle  connectorname="A0" cy="57.0897" stroke-width="1.08" gorn="0.2.0.2" id="connector89pad" stroke="#F7BD13" r="1.98" fill="none" cx="3.6"/>
            <circle  connectorname="VBAT" cy="13.8897" stroke-width="1.08" gorn="0.2.0.3" id="connector69pad" stroke="#F7BD13" r="1.98" fill="none" cx="46.8"/>
            <circle  connectorname="D3" cy="71.4897" stroke-width="1.08" gorn="0.2.0.4" id="connector77pad" stroke="#F7BD13" r="1.98" fill="none" cx="46.8"/>
            <circle  connectorname="D11" cy="28.2897" stroke-width="1.08" gorn="0.2.0.5" id="connector85pad" stroke="#F7BD13" r="1.98" fill="none" cx="3.6"/>
            <circle  connectorname="A4" cy="85.8895" stroke-width="1.08" gorn="0.2.0.6" id="connector93pad" stroke="#F7BD13" r="1.98" fill="none" cx="3.6"/>
            <circle  connectorname="VBUS" cy="28.2897" stroke-width="1.08" gorn="0.2.0.7" id="connector71pad" stroke="#F7BD13" r="1.98" fill="none" cx="46.8"/>
            <circle  connectorname="D5" cy="57.0897" stroke-width="1.08" gorn="0.2.0.8" id="connector75pad" stroke="#F7BD13" r="1.98" fill="none" cx="46.8"/>
            <circle  connectorname="RXD" cy="85.8895" stroke-width="1.08" gorn="0.2.0.9" id="connector79pad" stroke="#F7BD13" r="1.98" fill="none" cx="46.8"/>
            <circle  connectorname="D9" cy="13.8897" stroke-width="1.08" gorn="0.2.0.10" id="connector83pad" stroke="#F7BD13" r="1.98" fill="none" cx="3.6"/>
            <circle  connectorname="D13" cy="42.6897" stroke-width="1.08" gorn="0.2.0.11" id="connector87pad" stroke="#F7BD13" r="1.98" fill="none" cx="3.6"/>
            <circle  connectorname="A2" cy="71.4897" stroke-width="1.08" gorn="0.2.0.12" id="connector91pad" stroke="#F7BD13" r="1.98" fill="none" cx="3.6"/>
            <circle  connectorname="GND" cy="100.29" stroke-width="1.08" gorn="0.2.0.13" id="connector25pad" stroke="#F7BD13" r="1.98" fill="none" cx="7.2"/>
            <circle  connectorname="GND" cy="100.29" stroke-width="1.08" gorn="0.2.0.14" id="connector26pad" stroke="#F7BD13" r="1.98" fill="none" cx="14.4"/>
            <circle  connectorname="VBUS" cy="100.29" stroke-width="1.08" gorn="0.2.0.15" id="connector27pad" stroke="#F7BD13" r="1.98" fill="none" cx="21.6"/>
            <circle  connectorname="RXD" cy="100.29" stroke-width="1.08" gorn="0.2.0.16" id="connector28pad" stroke="#F7BD13" r="1.98" fill="none" cx="28.8"/>
            <circle  connectorname="TXD" cy="100.29" stroke-width="1.08" gorn="0.2.0.17" id="connector29pad" stroke="#F7BD13" r="1.98" fill="none" cx="36"/>
            <circle  connectorname="DTR/RTS" cy="100.29" stroke-width="1.08" gorn="0.2.0.18" id="connector30pad" stroke="#F7BD13" r="1.98" fill="none" cx="43.2"/>
            <circle  connectorname="GND" cy="21.0897" stroke-width="1.08" gorn="0.2.0.19" id="connector70pad" stroke="#F7BD13" r="1.98" fill="none" cx="46.8"/>
            <circle  connectorname="+3V3" cy="35.4897" stroke-width="1.08" gorn="0.2.0.20" id="connector72pad" stroke="#F7BD13" r="1.98" fill="none" cx="46.8"/>
            <circle  connectorname="D6" cy="49.8897" stroke-width="1.08" gorn="0.2.0.21" id="connector74pad" stroke="#F7BD13" r="1.98" fill="none" cx="46.8"/>
            <circle  connectorname="D4" cy="64.2897" stroke-width="1.08" gorn="0.2.0.22" id="connector76pad" stroke="#F7BD13" r="1.98" fill="none" cx="46.8"/>
            <circle  connectorname="TXD" cy="78.6895" stroke-width="1.08" gorn="0.2.0.23" id="connector78pad" stroke="#F7BD13" r="1.98" fill="none" cx="46.8"/>
            <circle  connectorname="RESET" cy="93.0895" stroke-width="1.08" gorn="0.2.0.24" id="connector80pad" stroke="#F7BD13" r="1.98" fill="none" cx="46.8"/>
            <circle  connectorname="A7" cy="64.2897" stroke-width="1.10268" gorn="0.2.0.25" id="connector82pad" stroke="#F7BD13" r="1.96866" fill="none" cx="10.8"/>
            <circle  connectorname="D10" cy="21.0897" stroke-width="1.08" gorn="0.2.0.26" id="connector84pad" stroke="#F7BD13" r="1.98" fill="none" cx="3.6"/>
            <circle  connectorname="D12" cy="35.4897" stroke-width="1.08" gorn="0.2.0.27" id="connector86pad" stroke="#F7BD13" r="1.98" fill="none" cx="3.6"/>
            <circle  connectorname="AREF" cy="49.8897" stroke-width="1.08" gorn="0.2.0.28" id="connector88pad" stroke="#F7BD13" r="1.98" fill="none" cx="3.6"/>
            <circle  connectorname="A1" cy="64.2897" stroke-width="1.08" gorn="0.2.0.29" id="connector90pad" stroke="#F7BD13" r="1.98" fill="none" cx="3.6"/>
            <circle  connectorname="A3" cy="78.6895" stroke-width="1.08" gorn="0.2.0.30" id="connector92pad" stroke="#F7BD13" r="1.98" fill="none" cx="3.6"/>
            <circle  connectorname="A5" cy="93.0895" stroke-width="1.08" gorn="0.2.0.31" id="connector94pad" stroke="#F7BD13" r="1.98" fill="none" cx="3.6"/>
        </g>
    </g>
</svg>
