<?xml version='1.0' encoding='UTF-8' standalone='no'?>
<!-- Created with Fritzing (http://www.fritzing.org/) -->
<svg xmlns="http://www.w3.org/2000/svg" y="0in" baseProfile="tiny" viewBox="0 0 28.8 36" x="0in" version="1.2" width="0.4in"  height="0.5in">
    <desc>
        <referenceFile>Adafruit GA1A1S202WP_pcb.svg</referenceFile>
    </desc>
    <desc >Fritzing footprint generated by brd2svg</desc>
    <g gorn="0.1" id="silkscreen" >
        <path stroke-width="0.576" d="M7.344,0.288L21.456,0.288A6.912,6.912,0,0,1,28.512,7.3728L28.512,28.6272A6.912,6.912,0,0,1,21.456,35.712L7.344,35.712A6.912,6.912,0,0,1,0.288,28.6272L0.288,7.3728A6.912,6.912,0,0,1,7.344,0.288" stroke="white" fill="none" />
        <g >
            <title >element:JP1</title>
            <g >
                <title >package:1X03_ROUND</title>
            </g>
        </g>
        <g >
            <title >element:U$3</title>
            <g >
                <title >package:MOUNTINGHOLE_2.5_PLATED</title>
                <circle cx="14.4" stroke-width="0.576" cy="7.2" stroke="white" fill="none" r="5.66929" />
            </g>
        </g>
        <g >
            <title >element:U1</title>
            <g >
                <title >package:GA1A1S202WP</title>
                <line stroke-width="0.36" stroke-linecap="round" stroke="white" x1="14.9669" y1="18.5358"  x2="13.8331" y2="18.5358"/>
                <line stroke-width="0.36" stroke-linecap="round" stroke="white" x1="17.2346" y1="21.0869"  x2="17.2346" y2="22.7877"/>
                <line stroke-width="0.36" stroke-linecap="round" stroke="white" x1="14.9669" y1="25.3389"  x2="13.8331" y2="25.3389"/>
                <line stroke-width="0.36" stroke-linecap="round" stroke="white" x1="11.5654" y1="21.0869"  x2="11.5654" y2="22.7877"/>
                <circle cx="9.98078" stroke-width="0.708661" cy="18.8464" stroke="white" fill="none" r="0.354331" />
                <circle cx="14.4" stroke-width="0.36" cy="19.9531" stroke="white" fill="none" r="0.283465" />
            </g>
        </g>
    </g>
    <g gorn="0.2" id="copper1" >
        <g gorn="0.2.0" id="copper0" >
            <circle cx="14.4" stroke-width="1.44" cy="7.2" stroke="#F7BD13" fill="none" gorn="0.2.0.0" id="connector9pad" connectorname="P$1" r="4.26331" />
            <circle cx="7.2" stroke-width="0.95868" cy="32.3773" stroke="#F7BD13" fill="none" gorn="0.2.0.1" id="connector4pad" connectorname="VCC" r="1.89666" />
            <rect stroke-width="0.95868" stroke="#F7BD13" y="30.4807" fill="none" x="5.30334" width="3.79332"  height="3.79332"/>
            <circle cx="14.4" stroke-width="0.95868" cy="32.3773" stroke="#F7BD13" fill="none" gorn="0.2.0.3" id="connector5pad" connectorname="OUT" r="1.89666" />
            <circle cx="21.6" stroke-width="0.95868" cy="32.3773" stroke="#F7BD13" fill="none" gorn="0.2.0.4" id="connector6pad" connectorname="GND" r="1.89666" />
        </g>
    </g>
</svg>
