<?xml version='1.0' encoding='UTF-8' standalone='no'?>
<!-- Created with Fritzing (http://www.fritzing.org/) -->
<svg xmlns="http://www.w3.org/2000/svg" version="1.2" height="0.7in" width="0.65in" x="0in" y="0in" viewBox="0 0 46.8 50.4"  baseProfile="tiny">
    <desc >
        <referenceFile >VCNL4010_pcb.svg</referenceFile>
    </desc>
    <desc >Fritzing footprint generated by brd2svg</desc>
    <g gorn="0.2"  id="silkscreen">
        <path  fill="none" stroke="white" d="M39.4006,50.112L7.39937,50.112A6.912,6.912,0,0,1,0.288,42.9943L0.288,7.4057A6.912,6.912,0,0,1,7.39937,0.288L39.4006,0.288A6.912,6.912,0,0,1,46.512,7.4057L46.512,42.9943A6.912,6.912,0,0,1,39.4006,50.112" stroke-width="0.576"/>
        <g >
            <title >element:JP2</title>
            <g >
                <title >package:1X06_ROUND_76</title>
            </g>
        </g>
        <g >
            <title >element:U1</title>
            <g >
                <title >package:VCNL4010</title>
                <line stroke-linecap="round" x2="17.8016" y1="16.0016"  stroke="white" y2="21.0685" x1="17.8016" stroke-width="0.576"/>
                <line stroke-linecap="round" x2="17.8016" y1="27.1984"  stroke="white" y2="23.5488" x1="17.8016" stroke-width="0.576"/>
                <line stroke-linecap="round" x2="28.9984" y1="16.0016"  stroke="white" y2="22.4858" x1="28.9984" stroke-width="0.576"/>
                <line stroke-linecap="round" x2="28.9984" y1="27.1984"  stroke="white" y2="24.6827" x1="28.9984" stroke-width="0.576"/>
            </g>
        </g>
        <g >
            <title >element:U2</title>
            <g >
                <title >package:SOT23-5</title>
                <line stroke-linecap="round" x2="0.722837" y1="18.6123"  stroke="white" y2="23.1477" x1="0.722837" stroke-width="0.576"/>
                <line stroke-linecap="round" x2="10.0772" y1="18.6123"  stroke="white" y2="23.1477" x1="10.0772" stroke-width="0.576"/>
                <line stroke-linecap="round" x2="6.53386" y1="17.9036"  stroke="white" y2="17.9036" x1="4.26614" stroke-width="0.576"/>
            </g>
        </g>
    </g>
    <g gorn="0.3"  id="copper1">
        <g gorn="0.3.0"  id="copper0">
            <circle cy="45.36" cx="41.4" gorn="0.3.0.0" connectorname="INT"  fill="none" stroke="#F7BD13" id="connector15pad" r="2.07666" stroke-width="1.31868"/>
            <circle cy="45.36" cx="34.2" gorn="0.3.0.1" connectorname="SDA"  fill="none" stroke="#F7BD13" id="connector16pad" r="2.07666" stroke-width="1.31868"/>
            <circle cy="45.36" cx="27" gorn="0.3.0.2" connectorname="SCL"  fill="none" stroke="#F7BD13" id="connector17pad" r="2.07666" stroke-width="1.31868"/>
            <circle cy="45.36" cx="19.8" gorn="0.3.0.3" connectorname="GND"  fill="none" stroke="#F7BD13" id="connector18pad" r="2.07666" stroke-width="1.31868"/>
            <circle cy="45.36" cx="12.6" gorn="0.3.0.4" connectorname="3.3V"  fill="none" stroke="#F7BD13" id="connector19pad" r="2.07666" stroke-width="1.31868"/>
            <circle cy="45.36" cx="5.4" gorn="0.3.0.5" connectorname="VIN"  fill="none" stroke="#F7BD13" id="connector20pad" r="2.07666" stroke-width="1.31868"/>
            <circle cy="7.2" cx="7.2" gorn="0.3.0.6" connectorname="P$1"  fill="none" stroke="#F7BD13" id="connector25pad" r="4.26331" stroke-width="1.44"/>
            <circle cy="7.2" cx="39.6" gorn="0.3.0.7" connectorname="P$1"  fill="none" stroke="#F7BD13" id="connector26pad" r="4.26331" stroke-width="1.44"/>
        </g>
    </g>
</svg>
