<?xml version='1.0' encoding='UTF-8' standalone='no'?>
<!-- Created with Fritzing (http://www.fritzing.org/) -->
<svg xmlns="http://www.w3.org/2000/svg" y="0in" height="1.1in" viewBox="0 0 72 79.2" version="1.2" width="1in"  x="0in" baseProfile="tiny">
    <desc>
        <referenceFile>Adafruit MAX31865_pcb.svg</referenceFile>
    </desc>
    <desc >Fritzing footprint generated by brd2svg</desc>
    <g id="silkscreen" gorn="0.1" >
        <path stroke="white" fill="none" d="M7.4304,78.912A6.912,6.912,0,0,1,0.288,71.7643L0.288,7.43566A6.912,6.912,0,0,1,7.4304,0.288L64.5696,0.288A6.912,6.912,0,0,1,71.712,7.43566L71.712,71.7643A6.912,6.912,0,0,1,64.5696,78.912L7.4304,78.912"  stroke-width="0.576"/>
        <line x2="64.8" stroke="white" stroke-linecap="round" x1="44.64" y2="42.48"  y1="42.48" stroke-width="0.72"/>
        <line x2="64.8" stroke="white" stroke-linecap="round" x1="64.8" y2="48.24"  y1="42.48" stroke-width="0.72"/>
        <line x2="44.64" stroke="white" stroke-linecap="round" x1="64.8" y2="48.24"  y1="48.24" stroke-width="0.72"/>
        <line x2="44.64" stroke="white" stroke-linecap="round" x1="44.64" y2="42.48"  y1="48.24" stroke-width="0.72"/>
        <g >
            <title >element:JP1</title>
            <g >
                <title >package:1X08_ROUND_70</title>
            </g>
        </g>
        <g >
            <title >element:X1</title>
            <g >
                <title >package:TERMBLOCK_1X2-3.5MM</title>
                <line x2="55.7178" stroke="white" stroke-linecap="round" x1="55.7178" y2="4.20378"  y1="20.0778" stroke-width="0.576"/>
                <line x2="55.7178" stroke="white" stroke-linecap="round" x1="55.7178" y2="0.235276"  y1="4.20378" stroke-width="0.576"/>
                <line x2="35.8753" stroke="white" stroke-linecap="round" x1="55.7178" y2="0.235276"  y1="0.235276" stroke-width="0.576"/>
                <line x2="35.8753" stroke="white" stroke-linecap="round" x1="35.8753" y2="4.20378"  y1="0.235276" stroke-width="0.576"/>
                <line x2="35.8753" stroke="white" stroke-linecap="round" x1="35.8753" y2="20.0778"  y1="4.20378" stroke-width="0.576"/>
                <line x2="55.7178" stroke="white" stroke-linecap="round" x1="35.8753" y2="20.0778"  y1="20.0778" stroke-width="0.576"/>
                <line x2="35.8753" stroke="white" stroke-linecap="round" x1="55.7178" y2="4.20378"  y1="4.20378" stroke-width="0.576"/>
            </g>
        </g>
        <g >
            <title >element:X2</title>
            <g >
                <title >package:TERMBLOCK_1X2-3.5MM</title>
                <line x2="35.9178" stroke="white" stroke-linecap="round" x1="35.9178" y2="4.20378"  y1="20.0778" stroke-width="0.576"/>
                <line x2="35.9178" stroke="white" stroke-linecap="round" x1="35.9178" y2="0.235276"  y1="4.20378" stroke-width="0.576"/>
                <line x2="16.0753" stroke="white" stroke-linecap="round" x1="35.9178" y2="0.235276"  y1="0.235276" stroke-width="0.576"/>
                <line x2="16.0753" stroke="white" stroke-linecap="round" x1="16.0753" y2="4.20378"  y1="0.235276" stroke-width="0.576"/>
                <line x2="16.0753" stroke="white" stroke-linecap="round" x1="16.0753" y2="20.0778"  y1="4.20378" stroke-width="0.576"/>
                <line x2="35.9178" stroke="white" stroke-linecap="round" x1="16.0753" y2="20.0778"  y1="20.0778" stroke-width="0.576"/>
                <line x2="16.0753" stroke="white" stroke-linecap="round" x1="35.9178" y2="4.20378"  y1="4.20378" stroke-width="0.576"/>
            </g>
        </g>
    </g>
    <g id="copper1" gorn="0.2" >
        <g id="copper0" gorn="0.2.0" >
            <circle stroke="#F7BD13" id="connector73pad" fill="none" gorn="0.2.0.0" cx="21.1776" r="2.25666" cy="10.44" connectorname="FORCE-"  stroke-width="1.67868"/>
            <circle stroke="#F7BD13" id="connector43pad" fill="none" gorn="0.2.0.1" cx="7.2" r="4.26331" cy="7.2" connectorname="P$1"  stroke-width="1.44"/>
            <circle stroke="#F7BD13" id="connector71pad" fill="none" gorn="0.2.0.2" cx="40.9776" r="2.25666" cy="10.44" connectorname="RTDIN+"  stroke-width="1.67868"/>
            <circle stroke="#F7BD13" id="connector20pad" fill="none" gorn="0.2.0.3" cx="10.8" r="1.96866" cy="71.64" connectorname="VIN"  stroke-width="1.10268"/>
            <circle stroke="#F7BD13" id="connector21pad" fill="none" gorn="0.2.0.4" cx="18" r="1.96866" cy="71.64" connectorname="GND"  stroke-width="1.10268"/>
            <circle stroke="#F7BD13" id="connector44pad" fill="none" gorn="0.2.0.5" cx="64.8" r="4.26331" cy="7.2" connectorname="P$1"  stroke-width="1.44"/>
            <circle stroke="#F7BD13" id="connector22pad" fill="none" gorn="0.2.0.6" cx="25.2" r="1.96866" cy="71.64" connectorname="3.3V"  stroke-width="1.10268"/>
            <circle stroke="#F7BD13" id="connector23pad" fill="none" gorn="0.2.0.7" cx="32.4" r="1.96866" cy="71.64" connectorname="SCLK"  stroke-width="1.10268"/>
            <circle stroke="#F7BD13" id="connector24pad" fill="none" gorn="0.2.0.8" cx="39.6" r="1.96866" cy="71.64" connectorname="SDO"  stroke-width="1.10268"/>
            <circle stroke="#F7BD13" id="connector25pad" fill="none" gorn="0.2.0.9" cx="46.8" r="1.96866" cy="71.64" connectorname="SDI"  stroke-width="1.10268"/>
            <circle stroke="#F7BD13" id="connector26pad" fill="none" gorn="0.2.0.10" cx="54" r="1.96866" cy="71.64" connectorname="CS"  stroke-width="1.10268"/>
            <circle stroke="#F7BD13" id="connector27pad" fill="none" gorn="0.2.0.11" cx="61.2" r="1.96866" cy="71.64" connectorname="DRDY"  stroke-width="1.10268"/>
            <circle stroke="#F7BD13" id="connector72pad" fill="none" gorn="0.2.0.12" cx="50.8989" r="2.25666" cy="10.44" connectorname="FORCE+"  stroke-width="1.67868"/>
            <circle stroke="#F7BD13" id="connector74pad" fill="none" gorn="0.2.0.13" cx="31.0989" r="2.25666" cy="10.44" connectorname="RTDIN-"  stroke-width="1.67868"/>
        </g>
    </g>
</svg>
