<?xml version='1.0' encoding='UTF-8' standalone='no'?>
<!-- Created with Fritzing (http://www.fritzing.org/) -->
<svg xmlns="http://www.w3.org/2000/svg" viewBox="0 0 50.4 54" width="0.7in" height="0.75in" y="0in" baseProfile="tiny" x="0in" version="1.2" >
    <desc>
        <referenceFile>Adafruit TPL5111 Reset Enable Timer_pcb.svg</referenceFile>
    </desc>
    <desc >Fritzing footprint generated by brd2svg</desc>
    <g id="silkscreen" gorn="0.1" >
        <path d="M0.288,46.5888L0.288,7.41118A6.912,6.912,0,0,1,7.4057,0.288L42.9943,0.288A6.912,6.912,0,0,1,50.112,7.41118L50.112,46.5888A6.912,6.912,0,0,1,42.9943,53.712L7.4057,53.712A6.912,6.912,0,0,1,0.288,46.5888" stroke="white" stroke-width="0.576" fill="none" />
        <g >
            <title >element:B1</title>
            <g >
                <title >package:JSTPH2</title>
            </g>
        </g>
        <g >
            <title >element:JP1</title>
            <g >
                <title >package:1X05_ROUND_76</title>
            </g>
        </g>
        <g >
            <title >element:SW1</title>
            <g >
                <title >package:EVQ-Q2_SMALLER</title>
                <line y2="3.24567" stroke="white" x2="16.6961" stroke-linecap="round" stroke-width="0.576" y1="21.9543" x1="16.6961" />
                <line y2="21.9543" stroke="white" x2="33.7039" stroke-linecap="round" stroke-width="0.576" y1="3.24567" x1="33.7039" />
                <line y2="21.9543" stroke="white" x2="21.7984" stroke-linecap="round" stroke-width="0.576" y1="21.9543" x1="28.6016" />
                <line y2="3.24567" stroke="white" x2="28.6016" stroke-linecap="round" stroke-width="0.576" y1="3.24567" x1="21.7984" />
                <circle cy="12.6" stroke="white" cx="25.2" stroke-width="0.576" fill="none" r="4.26132" />
                <circle cy="12.6" stroke="white" cx="25.2" stroke-width="0.576" fill="none" r="2.83465" />
            </g>
        </g>
    </g>
    <g id="copper1" gorn="0.2" >
        <g id="copper0" gorn="0.2.0" >
            <circle cy="7.2" stroke="#F7BD13" id="connector19pad" cx="43.2" stroke-width="1.44" fill="none" connectorname="P$1" r="4.26331" gorn="0.2.0.0" />
            <circle cy="46.8" stroke="#F7BD13" id="connector6pad" cx="10.8" stroke-width="1.31868" fill="none" connectorname="VDD" r="2.07666" gorn="0.2.0.1" />
            <circle cy="46.8" stroke="#F7BD13" id="connector7pad" cx="18" stroke-width="1.31868" fill="none" connectorname="GND" r="2.07666" gorn="0.2.0.2" />
            <circle cy="46.8" stroke="#F7BD13" id="connector8pad" cx="25.2" stroke-width="1.31868" fill="none" connectorname="DELAY" r="2.07666" gorn="0.2.0.3" />
            <circle cy="46.8" stroke="#F7BD13" id="connector9pad" cx="32.4" stroke-width="1.31868" fill="none" connectorname="ENOUT" r="2.07666" gorn="0.2.0.4" />
            <circle cy="7.2" stroke="#F7BD13" id="connector20pad" cx="7.2" stroke-width="1.44" fill="none" connectorname="P$1" r="4.26331" gorn="0.2.0.5" />
            <circle cy="46.8" stroke="#F7BD13" id="connector10pad" cx="39.6" stroke-width="1.31868" fill="none" connectorname="DONE" r="2.07666" gorn="0.2.0.6" />
        </g>
    </g>
</svg>
