<?xml version='1.0' encoding='UTF-8' standalone='no'?>
<!-- Created with Fritzing (http://www.fritzing.org/) -->
<svg xmlns="http://www.w3.org/2000/svg" y="0in" width="0.8in" height="0.7in" version="1.2" viewBox="0 0 57.6 50.4" x="0in"  baseProfile="tiny">
    <desc>
        <referenceFile>Adafruit MMA8451_pcb.svg</referenceFile>
    </desc>
    <desc >Fritzing footprint generated by brd2svg</desc>
    <g id="silkscreen" gorn="0.1" >
        <path stroke="white" stroke-width="0.576" fill="none" d="M0.288,42.9943L0.288,7.4057A6.912,6.912,0,0,1,7.416,0.288L50.184,0.288A6.912,6.912,0,0,1,57.312,7.4057L57.312,42.9943A6.912,6.912,0,0,1,50.184,50.112L7.416,50.112A6.912,6.912,0,0,1,0.288,42.9943" />
        <line stroke="white" y2="12.96" stroke-linecap="round" x1="40.896" y1="7.92" stroke-width="0.72"  x2="40.896"/>
        <line stroke="white" y2="11.52" stroke-linecap="round" x1="40.896" y1="12.96" stroke-width="0.72"  x2="42.336"/>
        <line stroke="white" y2="11.52" stroke-linecap="round" x1="40.896" y1="12.96" stroke-width="0.72"  x2="39.456"/>
        <line stroke="white" y2="5.76" stroke-linecap="round" x1="38.736" y1="5.76" stroke-width="0.72"  x2="33.696"/>
        <line stroke="white" y2="5.76" stroke-linecap="round" x1="35.136" y1="7.2" stroke-width="0.72"  x2="33.696"/>
        <line stroke="white" y2="4.32" stroke-linecap="round" x1="33.696" y1="5.76" stroke-width="0.72"  x2="35.136"/>
        <circle r="0.72" stroke="white" stroke-width="0.72" fill="none"  cx="40.896" cy="5.76"/>
        <circle r="2.03646" stroke="white" stroke-width="0.72" fill="none"  cx="40.896" cy="5.76"/>
        <g >
            <title >element:JP1</title>
            <g >
                <title >package:1X08_ROUND_70</title>
            </g>
        </g>
    </g>
    <g id="copper1" gorn="0.2" >
        <g id="copper0" gorn="0.2.0" >
            <circle r="4.26331" stroke="#F7BD13" id="connector35pad" gorn="0.2.0.0" stroke-width="1.44" fill="none"  cx="50.4" connectorname="P$1" cy="7.2"/>
            <circle r="1.96866" stroke="#F7BD13" id="connector10pad" gorn="0.2.0.1" stroke-width="1.10268" fill="none"  cx="54" connectorname="SA0" cy="43.2"/>
            <circle r="1.96866" stroke="#F7BD13" id="connector11pad" gorn="0.2.0.2" stroke-width="1.10268" fill="none"  cx="46.8" connectorname="SDA" cy="43.2"/>
            <circle r="1.96866" stroke="#F7BD13" id="connector12pad" gorn="0.2.0.3" stroke-width="1.10268" fill="none"  cx="39.6" connectorname="SCL" cy="43.2"/>
            <circle r="1.96866" stroke="#F7BD13" id="connector13pad" gorn="0.2.0.4" stroke-width="1.10268" fill="none"  cx="32.4" connectorname="INT1" cy="43.2"/>
            <circle r="1.96866" stroke="#F7BD13" id="connector14pad" gorn="0.2.0.5" stroke-width="1.10268" fill="none"  cx="25.2" connectorname="INT2" cy="43.2"/>
            <circle r="1.96866" stroke="#F7BD13" id="connector15pad" gorn="0.2.0.6" stroke-width="1.10268" fill="none"  cx="18" connectorname="+3V3" cy="43.2"/>
            <circle r="1.96866" stroke="#F7BD13" id="connector16pad" gorn="0.2.0.7" stroke-width="1.10268" fill="none"  cx="10.8" connectorname="GND" cy="43.2"/>
            <circle r="4.26331" stroke="#F7BD13" id="connector34pad" gorn="0.2.0.8" stroke-width="1.44" fill="none"  cx="7.2" connectorname="P$1" cy="7.2"/>
            <circle r="1.96866" stroke="#F7BD13" id="connector17pad" gorn="0.2.0.9" stroke-width="1.10268" fill="none"  cx="3.6" connectorname="VIN" cy="43.2"/>
        </g>
    </g>
</svg>
