<?xml version='1.0' encoding='UTF-8' standalone='no'?>
<!-- Created with Fritzing (http://www.fritzing.org/) -->
<svg xmlns="http://www.w3.org/2000/svg" viewBox="0 0 46.8 58.4447" y="0in" height="0.811732in" version="1.2"  x="0in" width="0.65in" baseProfile="tiny">
    <desc>
        <referenceFile>Adafruit_AD8495_pcb.svg</referenceFile>
    </desc>
    <desc >Fritzing footprint generated by brd2svg</desc>
    <g  gorn="0.1" id="silkscreen">
        <path stroke-width="0.576" stroke="white" d="M7.39937,58.1567A6.912,6.912,0,0,1,0.288,51.0277L0.288,8.25343A6.912,6.912,0,0,1,7.39937,1.1244L39.4006,1.1244A6.912,6.912,0,0,1,46.512,8.25343L46.512,51.0277A6.912,6.912,0,0,1,39.4006,58.1567L7.39937,58.1567" fill="none" />
        <g >
            <title >element:U1</title>
            <g >
                <title >package:MSOP8_0.65MM</title>
                <line y1="32.5927" stroke-width="0.576" y2="32.5927" stroke="white" x2="19.508" stroke-linecap="round"  x1="28.012"/>
                <line y1="41.0967" stroke-width="0.576" y2="41.0967" stroke="white" x2="28.012" stroke-linecap="round"  x1="19.508"/>
                <circle r="0.425197" stroke-width="1.728" stroke="white" cy="30.6085" fill="none"  cx="21.2088"/>
            </g>
        </g>
        <g >
            <title >element:X1</title>
            <g >
                <title >package:TERMBLOCK_1X2-3.5MM</title>
                <line y1="19.8426" stroke-width="0.576" y2="3.9685" stroke="white" x2="33.3978" stroke-linecap="round"  x1="33.3978"/>
                <line y1="3.9685" stroke-width="0.576" y2="0" stroke="white" x2="33.3978" stroke-linecap="round"  x1="33.3978"/>
                <line y1="0" stroke-width="0.576" y2="0" stroke="white" x2="13.5553" stroke-linecap="round"  x1="33.3978"/>
                <line y1="0" stroke-width="0.576" y2="3.9685" stroke="white" x2="13.5553" stroke-linecap="round"  x1="13.5553"/>
                <line y1="3.9685" stroke-width="0.576" y2="19.8426" stroke="white" x2="13.5553" stroke-linecap="round"  x1="13.5553"/>
                <line y1="19.8426" stroke-width="0.576" y2="19.8426" stroke="white" x2="33.3978" stroke-linecap="round"  x1="13.5553"/>
                <line y1="3.9685" stroke-width="0.576" y2="3.9685" stroke="white" x2="13.5553" stroke-linecap="round"  x1="33.3978"/>
            </g>
        </g>
        <line y1="0.288" stroke-width="0.576" fill-opacity="1" y2="0.288" stroke="white" fill="none" x2="33.3978"  x1="13.5553"/>
        <line y1="0.844726" stroke-width="0.576" fill-opacity="1" y2="0.288" stroke="white" fill="none" x2="13.5553"  x1="13.5553"/>
        <line y1="0.844726" stroke-width="0.576" fill-opacity="1" y2="0.288" stroke="white" fill="none" x2="33.3978"  x1="33.3978"/>
    </g>
    <g  gorn="0.2" id="copper1">
        <g  gorn="0.2.0" id="copper0">
            <circle r="2.25666" stroke-width="1.67868" stroke="#F7BD13" cy="10.2047" fill="none"  gorn="0.2.0.0" id="connector37pad" cx="18.6576" connectorname="IN-"/>
            <circle r="4.26331" stroke-width="1.44" stroke="#F7BD13" cy="8.0447" fill="none"  gorn="0.2.0.1" id="connector27pad" cx="39.6" connectorname="P$1"/>
            <circle r="4.26331" stroke-width="1.44" stroke="#F7BD13" cy="8.0447" fill="none"  gorn="0.2.0.2" id="connector28pad" cx="7.2" connectorname="P$1"/>
            <circle r="1.89666" stroke-width="0.95868" stroke="#F7BD13" cy="51.2447" fill="none"  gorn="0.2.0.3" id="connector15pad" cx="33.12" connectorname="VIN"/>
            <rect stroke-width="0.95868" stroke="#F7BD13" y="49.3481" height="3.79332" fill="none"  x="31.2233" width="3.79332"/>
            <circle r="1.89666" stroke-width="0.95868" stroke="#F7BD13" cy="51.2447" fill="none"  gorn="0.2.0.5" id="connector16pad" cx="25.92" connectorname="GND"/>
            <circle r="1.89666" stroke-width="0.95868" stroke="#F7BD13" cy="51.2447" fill="none"  gorn="0.2.0.6" id="connector17pad" cx="18.72" connectorname="OUT"/>
            <circle r="1.89666" stroke-width="0.95868" stroke="#F7BD13" cy="51.2447" fill="none"  gorn="0.2.0.7" id="connector18pad" cx="11.52" connectorname="GND"/>
            <circle r="2.25666" stroke-width="1.67868" stroke="#F7BD13" cy="10.2047" fill="none"  gorn="0.2.0.8" id="connector38pad" cx="28.5789" connectorname="IN+"/>
        </g>
    </g>
</svg>
