<?xml version='1.0' encoding='UTF-8' standalone='no'?>
<!-- Created with Fritzing (http://www.fritzing.org/) -->
<svg xmlns="http://www.w3.org/2000/svg" y="0in" x="0in"  viewBox="0 0 54 54" width="0.75in" height="0.75in" baseProfile="tiny" version="1.2">
    <desc>
        <referenceFile>Adafruit_ADXL377_pcb.svg</referenceFile>
    </desc>
    <desc >Fritzing footprint generated by brd2svg</desc>
    <g  gorn="0.1" id="silkscreen">
        <path d="M53.712,7.41118L53.712,46.5888A6.912,6.912,0,0,1,46.5888,53.712L7.41118,53.712A6.912,6.912,0,0,1,0.288,46.5888L0.288,7.41118A6.912,6.912,0,0,1,7.41118,0.288L46.5888,0.288A6.912,6.912,0,0,1,53.712,7.41118"  stroke="white" stroke-width="0.576" fill="none"/>
        <line  stroke="white" x2="43.56" x1="43.56" stroke-linecap="round" stroke-width="0.72" y1="20.16" y2="14.76"/>
        <line  stroke="white" x2="42.12" x1="43.56" stroke-linecap="round" stroke-width="0.72" y1="14.76" y2="16.2"/>
        <line  stroke="white" x2="45" x1="43.56" stroke-linecap="round" stroke-width="0.72" y1="14.76" y2="16.2"/>
        <line  stroke="white" x2="51.48" x1="45.72" stroke-linecap="round" stroke-width="0.72" y1="22.32" y2="22.32"/>
        <line  stroke="white" x2="51.48" x1="50.04" stroke-linecap="round" stroke-width="0.72" y1="20.88" y2="22.32"/>
        <line  stroke="white" x2="50.04" x1="51.48" stroke-linecap="round" stroke-width="0.72" y1="22.32" y2="23.76"/>
        <circle r="0.72"  stroke="white" cy="22.32" stroke-width="0.72" cx="43.56" fill="none"/>
        <circle r="2.03646"  stroke="white" cy="22.32" stroke-width="0.72" cx="43.56" fill="none"/>
        <g >
            <title >element:JP2</title>
            <g >
                <title >package:1X07_ROUND_70</title>
            </g>
        </g>
    </g>
    <g  gorn="0.2" id="copper1">
        <g  gorn="0.2.0" id="copper0">
            <circle r="4.03937"  stroke="#F7BD13" gorn="0.2.0.0" cy="36" stroke-width="0.992124" cx="46.8" connectorname="P$1" fill="none" id="connector23pad"/>
            <circle r="1.96866"  stroke="#F7BD13" gorn="0.2.0.1" cy="48.6" stroke-width="1.10268" cx="5.4" connectorname="VIN" fill="none" id="connector13pad"/>
            <rect y="46.6313" x="3.43134"  stroke="#F7BD13" stroke-width="1.10268" width="3.93732" height="3.93732" fill="none"/>
            <circle r="1.96866"  stroke="#F7BD13" gorn="0.2.0.3" cy="48.6" stroke-width="1.10268" cx="12.6" connectorname="3.3V" fill="none" id="connector14pad"/>
            <circle r="1.96866"  stroke="#F7BD13" gorn="0.2.0.4" cy="48.6" stroke-width="1.10268" cx="19.8" connectorname="GND" fill="none" id="connector15pad"/>
            <circle r="1.96866"  stroke="#F7BD13" gorn="0.2.0.5" cy="48.6" stroke-width="1.10268" cx="27" connectorname="SELFTEST" fill="none" id="connector16pad"/>
            <circle r="1.96866"  stroke="#F7BD13" gorn="0.2.0.6" cy="48.6" stroke-width="1.10268" cx="34.2" connectorname="ZOUT" fill="none" id="connector17pad"/>
            <circle r="1.96866"  stroke="#F7BD13" gorn="0.2.0.7" cy="48.6" stroke-width="1.10268" cx="41.4" connectorname="YOUT" fill="none" id="connector18pad"/>
            <circle r="1.96866"  stroke="#F7BD13" gorn="0.2.0.8" cy="48.6" stroke-width="1.10268" cx="48.6" connectorname="XOUT" fill="none" id="connector19pad"/>
            <circle r="4.03937"  stroke="#F7BD13" gorn="0.2.0.9" cy="7.2" stroke-width="0.992124" cx="46.8" connectorname="P$1" fill="none" id="connector20pad"/>
            <circle r="4.03937"  stroke="#F7BD13" gorn="0.2.0.10" cy="7.2" stroke-width="0.992124" cx="7.2" connectorname="P$1" fill="none" id="connector21pad"/>
            <circle r="4.03937"  stroke="#F7BD13" gorn="0.2.0.11" cy="36" stroke-width="0.992124" cx="7.2" connectorname="P$1" fill="none" id="connector22pad"/>
        </g>
    </g>
</svg>
