<?xml version='1.0' encoding='UTF-8' standalone='no'?>
<!-- Created with Fritzing (http://www.fritzing.org/) -->
<svg xmlns="http://www.w3.org/2000/svg" baseProfile="tiny" viewBox="0 0 50.4 54" version="1.2" y="0in" height="0.75in"  width="0.7in" x="0in">
    <desc>
        <referenceFile>Adafruit_BME280_pcb.svg</referenceFile>
    </desc>
    <desc >Fritzing footprint generated by brd2svg</desc>
    <g id="silkscreen"  gorn="0.1">
        <path stroke="white" d="M42.9943,53.712L7.4057,53.712A6.912,6.912,0,0,1,0.288,46.5888L0.288,7.41118A6.912,6.912,0,0,1,7.4057,0.288L42.9943,0.288A6.912,6.912,0,0,1,50.112,7.41118L50.112,46.5888A6.912,6.912,0,0,1,42.9943,53.712"  fill="none" stroke-width="0.576"/>
        <g >
            <title >element:JP2</title>
            <g >
                <title >package:1X07_ROUND_70</title>
            </g>
        </g>
    </g>
    <g id="copper1"  gorn="0.2">
        <g id="copper0"  gorn="0.2.0">
            <circle stroke="#F7BD13" id="connector6pad"  fill="none" cy="46.8" stroke-width="1.10268" r="1.96866" cx="3.6" connectorname="VIN" gorn="0.2.0.0"/>
            <circle stroke="#F7BD13" id="connector7pad"  fill="none" cy="46.8" stroke-width="1.10268" r="1.96866" cx="10.8" connectorname="3.3V" gorn="0.2.0.1"/>
            <circle stroke="#F7BD13" id="connector8pad"  fill="none" cy="46.8" stroke-width="1.10268" r="1.96866" cx="18" connectorname="GND" gorn="0.2.0.2"/>
            <circle stroke="#F7BD13" id="connector9pad"  fill="none" cy="46.8" stroke-width="1.10268" r="1.96866" cx="25.2" connectorname="SCK/SCL" gorn="0.2.0.3"/>
            <circle stroke="#F7BD13" id="connector10pad"  fill="none" cy="46.8" stroke-width="1.10268" r="1.96866" cx="32.4" connectorname="SDO/ADR" gorn="0.2.0.4"/>
            <circle stroke="#F7BD13" id="connector11pad"  fill="none" cy="46.8" stroke-width="1.10268" r="1.96866" cx="39.6" connectorname="SDI/SDA" gorn="0.2.0.5"/>
            <circle stroke="#F7BD13" id="connector12pad"  fill="none" cy="46.8" stroke-width="1.10268" r="1.96866" cx="46.8" connectorname="CS" gorn="0.2.0.6"/>
        </g>
    </g>
</svg>
