<?xml version='1.0' encoding='UTF-8' standalone='no'?>
<!-- Created with Fritzing (http://www.fritzing.org/) -->
<svg xmlns="http://www.w3.org/2000/svg" viewBox="0 0 59.76 38.9593" width="0.83in"  version="1.2" baseProfile="tiny" x="0in" y="0in" height="0.541102in">
    <desc>
        <referenceFile>Adafruit USB Mini-B Breakout_pcb.svg</referenceFile>
    </desc>
    <desc >Fritzing footprint generated by brd2svg</desc>
    <g gorn="0.1"  id="silkscreen">
        <path stroke-width="0.576" fill="none"  d="M7.41859,1.43023L52.3414,1.43023A6.912,6.912,0,0,1,59.472,8.52379L59.472,31.5778A6.912,6.912,0,0,1,52.3414,38.6713L7.41859,38.6713A6.912,6.912,0,0,1,0.288,31.5778L0.288,8.52379A6.912,6.912,0,0,1,7.41859,1.43023M34.9869,15.874a1.12932,1.12932,0,1,0,2.25865,0,1.12932,1.12932,0,1,0,-2.25865,0zM22.5145,15.874a1.12932,1.12932,0,1,0,2.25865,0,1.12932,1.12932,0,1,0,-2.25865,0z" stroke="white"/>
        <g >
            <title >element:JP2</title>
            <g >
                <title >package:1X05_ROUND_70</title>
            </g>
        </g>
        <g >
            <title >element:U$4</title>
            <g >
                <title >package:ADAFRUIT_3.5MM</title>
            </g>
        </g>
        <g >
            <title >element:X1</title>
            <g >
                <title >package:USB-MINIB_LARGER</title>
                <line x1="40.9351" x2="40.9351" stroke-width="0.576"  stroke="white" stroke-linecap="round" y1="11.3386" y2="18.9922"/>
                <line x1="18.8249" x2="18.8249" stroke-width="0.576"  stroke="white" stroke-linecap="round" y1="18.9922" y2="11.3386"/>
                <line x1="38.9508" x2="35.8327" stroke-width="0.576"  stroke="white" stroke-linecap="round" y1="26.0788" y2="26.0788"/>
                <line x1="23.9273" x2="20.8092" stroke-width="0.576"  stroke="white" stroke-linecap="round" y1="26.0788" y2="26.0788"/>
            </g>
        </g>
        <line x1="15.565" x2="44.28" stroke-width="0.576" fill-opacity="1" fill="none"  stroke="white" y1="0.288" y2="0.288"/>
        <line x1="15.565" x2="15.565" stroke-width="0.576" fill-opacity="1" fill="none"  stroke="white" y1="1.15937" y2="0.288"/>
        <line x1="44.28" x2="44.28" stroke-width="0.576" fill-opacity="1" fill="none"  stroke="white" y1="1.15937" y2="0.288"/>
    </g>
    <g gorn="0.2"  id="copper1">
        <g gorn="0.2.0"  id="copper0">
            <circle stroke-width="1.10268" gorn="0.2.0.0" r="1.96866" fill="none"  id="connector7pad" stroke="#F7BD13" cx="15.48" connectorname="GND" cy="35.3593"/>
            <rect stroke-width="1.10268" width="3.93732" fill="none"  stroke="#F7BD13" x="13.5113" y="33.3907" height="3.93732"/>
            <circle stroke-width="1.10268" gorn="0.2.0.2" r="1.96866" fill="none"  id="connector8pad" stroke="#F7BD13" cx="22.68" connectorname="ID" cy="35.3593"/>
            <circle stroke-width="1.10268" gorn="0.2.0.3" r="1.96866" fill="none"  id="connector9pad" stroke="#F7BD13" cx="29.88" connectorname="D+" cy="35.3593"/>
            <circle stroke-width="1.10268" gorn="0.2.0.4" r="1.96866" fill="none"  id="connector10pad" stroke="#F7BD13" cx="37.08" connectorname="D-" cy="35.3593"/>
            <circle stroke-width="1.10268" gorn="0.2.0.5" r="1.96866" fill="none"  id="connector11pad" stroke="#F7BD13" cx="44.28" connectorname="VBUS" cy="35.3593"/>
            <circle stroke-width="1.44" gorn="0.2.0.6" r="4.26331" fill="none"  id="connector12pad" stroke="#F7BD13" cx="7.2" connectorname="P$1" cy="8.35934"/>
            <circle stroke-width="1.44" gorn="0.2.0.7" r="4.26331" fill="none"  id="connector13pad" stroke="#F7BD13" cx="52.56" connectorname="P$1" cy="8.35934"/>
        </g>
    </g>
</svg>
