<?xml version='1.0' encoding='UTF-8' standalone='no'?>
<!-- Created with Fritzing (http://www.fritzing.org/) -->
<svg xmlns="http://www.w3.org/2000/svg" x="0in" y="0in" version="1.2" viewBox="0 0 61.3247 79.2" baseProfile="tiny"  height="1.1in" width="0.851732in">
    <desc >
        <referenceFile >Stereo 2.8W Class D Audio Amplifier - I2C Control AGC - TPA2016_pcb.svg</referenceFile>
    </desc>
    <desc >Fritzing footprint generated by brd2svg</desc>
    <g gorn="0.2" id="silkscreen" >
        <path d="M7.42039,0.288L53.7808,0.288A6.912,6.912,0,0,1,60.9132,7.43566L60.9132,71.7643A6.912,6.912,0,0,1,53.7808,78.912L7.42039,78.912A6.912,6.912,0,0,1,0.288,71.7643L0.288,7.43566A6.912,6.912,0,0,1,7.42039,0.288" stroke="white" fill="none" stroke-width="0.576" />
        <g >
            <title >element:IC1</title>
            <g >
                <title >package:QFN20_4MM</title>
                <line stroke-linecap="round" stroke="white" x2="26.3707" stroke-width="0.576" x1="26.3707"  y1="44.212" y2="45.6293"/>
                <line stroke-linecap="round" stroke="white" x2="27.788" stroke-width="0.576" x1="26.3707"  y1="45.6293" y2="45.6293"/>
                <line stroke-linecap="round" stroke="white" x2="26.3707" stroke-width="0.576" x1="26.3707"  y1="35.708" y2="34.2907"/>
                <line stroke-linecap="round" stroke="white" x2="27.788" stroke-width="0.576" x1="26.3707"  y1="34.2907" y2="34.2907"/>
                <line stroke-linecap="round" stroke="white" x2="37.7093" stroke-width="0.576" x1="37.7093"  y1="44.212" y2="45.6293"/>
                <line stroke-linecap="round" stroke="white" x2="36.292" stroke-width="0.576" x1="37.7093"  y1="45.6293" y2="45.6293"/>
                <line stroke-linecap="round" stroke="white" x2="37.7093" stroke-width="0.576" x1="37.7093"  y1="35.708" y2="34.2907"/>
                <line stroke-linecap="round" stroke="white" x2="36.292" stroke-width="0.576" x1="37.7093"  y1="34.2907" y2="34.2907"/>
                <circle stroke="white" fill="none" cx="27.0793" stroke-width="0.576" cy="47.0466"  r="0.354331"/>
            </g>
        </g>
        <g >
            <title >element:J1</title>
            <g >
                <title >package:TERMBLOCK_1X2-3.5MM</title>
                <line stroke-linecap="round" stroke="white" x2="57.3562" stroke-width="0.576" x1="41.4822"  y1="60.0378" y2="60.0378"/>
                <line stroke-linecap="round" stroke="white" x2="61.3247" stroke-width="0.576" x1="57.3562"  y1="60.0378" y2="60.0378"/>
                <line stroke-linecap="round" stroke="white" x2="61.3247" stroke-width="0.576" x1="61.3247"  y1="60.0378" y2="40.1953"/>
                <line stroke-linecap="round" stroke="white" x2="57.3562" stroke-width="0.576" x1="61.3247"  y1="40.1953" y2="40.1953"/>
                <line stroke-linecap="round" stroke="white" x2="41.4822" stroke-width="0.576" x1="57.3562"  y1="40.1953" y2="40.1953"/>
                <line stroke-linecap="round" stroke="white" x2="41.4822" stroke-width="0.576" x1="41.4822"  y1="40.1953" y2="60.0378"/>
                <line stroke-linecap="round" stroke="white" x2="57.3562" stroke-width="0.576" x1="57.3562"  y1="60.0378" y2="40.1953"/>
            </g>
        </g>
        <g >
            <title >element:J2</title>
            <g >
                <title >package:TERMBLOCK_1X2-3.5MM</title>
                <line stroke-linecap="round" stroke="white" x2="57.3562" stroke-width="0.576" x1="41.4822"  y1="38.4378" y2="38.4378"/>
                <line stroke-linecap="round" stroke="white" x2="61.3247" stroke-width="0.576" x1="57.3562"  y1="38.4378" y2="38.4378"/>
                <line stroke-linecap="round" stroke="white" x2="61.3247" stroke-width="0.576" x1="61.3247"  y1="38.4378" y2="18.5953"/>
                <line stroke-linecap="round" stroke="white" x2="57.3562" stroke-width="0.576" x1="61.3247"  y1="18.5953" y2="18.5953"/>
                <line stroke-linecap="round" stroke="white" x2="41.4822" stroke-width="0.576" x1="57.3562"  y1="18.5953" y2="18.5953"/>
                <line stroke-linecap="round" stroke="white" x2="41.4822" stroke-width="0.576" x1="41.4822"  y1="18.5953" y2="38.4378"/>
                <line stroke-linecap="round" stroke="white" x2="57.3562" stroke-width="0.576" x1="57.3562"  y1="38.4378" y2="18.5953"/>
            </g>
        </g>
        <g >
            <title >element:JP1</title>
            <g >
                <title >package:1X10_ROUND70</title>
            </g>
        </g>
        <line stroke="white" x2="61.0367" fill="none" stroke-width="0.576" x1="61.2"  fill-opacity="1" y1="60.0378" y2="60.0378"/>
        <line stroke="white" x2="61.0367" fill="none" stroke-width="0.576" x1="61.2"  fill-opacity="1" y1="40.1953" y2="40.1953"/>
        <line stroke="white" x2="61.0367" fill="none" stroke-width="0.576" x1="61.0367"  fill-opacity="1" y1="60.0378" y2="40.1953"/>
        <line stroke="white" x2="61.0367" fill="none" stroke-width="0.576" x1="61.2"  fill-opacity="1" y1="38.4378" y2="38.4378"/>
        <line stroke="white" x2="61.0367" fill="none" stroke-width="0.576" x1="61.2"  fill-opacity="1" y1="18.5953" y2="18.5953"/>
        <line stroke="white" x2="61.0367" fill="none" stroke-width="0.576" x1="61.0367"  fill-opacity="1" y1="38.4378" y2="18.5953"/>
    </g>
    <g gorn="0.3" id="copper1" >
        <g gorn="0.3.0" id="copper0" >
            <circle gorn="0.3.0.0" id="connector54pad" stroke="#F7BD13" fill="none" cx="51.12" connectorname="OUT_R_N" stroke-width="1.67868" cy="33.6189"  r="2.25666"/>
            <circle gorn="0.3.0.1" id="connector62pad" stroke="#F7BD13" fill="none" cx="4.32" connectorname="SCL" stroke-width="1.10268" cy="57.6"  r="1.96866"/>
            <circle gorn="0.3.0.2" id="connector58pad" stroke="#F7BD13" fill="none" cx="4.32" connectorname="IN_R_N" stroke-width="1.10268" cy="28.8"  r="1.96866"/>
            <circle gorn="0.3.0.3" id="connector52pad" stroke="#F7BD13" fill="none" cx="51.12" connectorname="OUT_L_P" stroke-width="1.67868" cy="55.2189"  r="2.25666"/>
            <circle gorn="0.3.0.4" id="connector56pad" stroke="#F7BD13" fill="none" cx="4.32" connectorname="GND" stroke-width="1.10268" cy="14.4"  r="1.96866"/>
            <circle gorn="0.3.0.5" id="connector60pad" stroke="#F7BD13" fill="none" cx="4.32" connectorname="IN_L_P" stroke-width="1.10268" cy="43.2"  r="1.96866"/>
            <circle gorn="0.3.0.6" id="connector64pad" stroke="#F7BD13" fill="none" cx="4.32" connectorname="I2C_VCC" stroke-width="1.10268" cy="72"  r="1.96866"/>
            <circle gorn="0.3.0.7" id="connector72pad" stroke="#F7BD13" fill="none" cx="54" connectorname="P$1" stroke-width="2.12599" cy="7.2"  r="4.6063"/>
            <circle gorn="0.3.0.8" id="connector51pad" stroke="#F7BD13" fill="none" cx="51.12" connectorname="OUT_L_N" stroke-width="1.67868" cy="45.2976"  r="2.25666"/>
            <circle gorn="0.3.0.9" id="connector53pad" stroke="#F7BD13" fill="none" cx="51.12" connectorname="OUT_R_P" stroke-width="1.67868" cy="23.6976"  r="2.25666"/>
            <circle gorn="0.3.0.10" id="connector55pad" stroke="#F7BD13" fill="none" cx="4.32" connectorname="VDD" stroke-width="1.10268" cy="7.2"  r="1.96866"/>
            <rect x="2.35134" y="5.23134" stroke="#F7BD13" fill="none" stroke-width="1.10268"  height="3.93732" width="3.93732"/>
            <circle gorn="0.3.0.12" id="connector57pad" stroke="#F7BD13" fill="none" cx="4.32" connectorname="SHUTDOWN" stroke-width="1.10268" cy="21.6"  r="1.96866"/>
            <circle gorn="0.3.0.13" id="connector59pad" stroke="#F7BD13" fill="none" cx="4.32" connectorname="IN_R_P" stroke-width="1.10268" cy="36"  r="1.96866"/>
            <circle gorn="0.3.0.14" id="connector61pad" stroke="#F7BD13" fill="none" cx="4.32" connectorname="IN_L_N" stroke-width="1.10268" cy="50.4"  r="1.96866"/>
            <circle gorn="0.3.0.15" id="connector63pad" stroke="#F7BD13" fill="none" cx="4.32" connectorname="SDA" stroke-width="1.10268" cy="64.8"  r="1.96866"/>
            <circle gorn="0.3.0.16" id="connector71pad" stroke="#F7BD13" fill="none" cx="54" connectorname="P$1" stroke-width="2.12599" cy="72"  r="4.6063"/>
        </g>
    </g>
</svg>
