<?xml version='1.0' encoding='UTF-8' standalone='no'?>
<!-- Created with Fritzing (http://www.fritzing.org/) -->
<svg xmlns="http://www.w3.org/2000/svg" y="0in" height="0.7in" baseProfile="tiny" viewBox="0 0 57.6 50.4"  version="1.2" width="0.8in" x="0in">
    <desc >
        <referenceFile >Adafruit VL53L0X_pcb.svg</referenceFile>
    </desc>
    <desc >Fritzing footprint generated by brd2svg</desc>
    <g gorn="0.2"  id="silkscreen">
        <path stroke-width="0.576" d="M50.184,50.112L7.416,50.112A6.912,6.912,0,0,1,0.288,42.9943L0.288,7.4057A6.912,6.912,0,0,1,7.416,0.288L50.184,0.288A6.912,6.912,0,0,1,57.312,7.4057L57.312,42.9943A6.912,6.912,0,0,1,50.184,50.112" stroke="white" fill="none" />
        <g >
            <title >element:JP1</title>
            <g >
                <title >package:1X07_ROUND_70</title>
            </g>
        </g>
    </g>
    <g gorn="0.3"  id="copper1">
        <g gorn="0.3.0"  id="copper0">
            <circle stroke-width="1.44" gorn="0.3.0.0" stroke="#F7BD13" fill="none"  connectorname="P$1" cy="7.2" r="4.26331" cx="7.2" id="connector35pad"/>
            <circle stroke-width="1.10268" gorn="0.3.0.1" stroke="#F7BD13" fill="none"  connectorname="VIN" cy="43.2" r="1.96866" cx="7.2" id="connector10pad"/>
            <circle stroke-width="1.10268" gorn="0.3.0.2" stroke="#F7BD13" fill="none"  connectorname="2.8V" cy="43.2" r="1.96866" cx="14.4" id="connector11pad"/>
            <circle stroke-width="1.10268" gorn="0.3.0.3" stroke="#F7BD13" fill="none"  connectorname="GND" cy="43.2" r="1.96866" cx="21.6" id="connector12pad"/>
            <circle stroke-width="1.10268" gorn="0.3.0.4" stroke="#F7BD13" fill="none"  connectorname="GPIO" cy="43.2" r="1.96866" cx="28.8" id="connector13pad"/>
            <circle stroke-width="1.10268" gorn="0.3.0.5" stroke="#F7BD13" fill="none"  connectorname="XSHUT" cy="43.2" r="1.96866" cx="36" id="connector14pad"/>
            <circle stroke-width="1.10268" gorn="0.3.0.6" stroke="#F7BD13" fill="none"  connectorname="SCL" cy="43.2" r="1.96866" cx="43.2" id="connector15pad"/>
            <circle stroke-width="1.10268" gorn="0.3.0.7" stroke="#F7BD13" fill="none"  connectorname="SDA" cy="43.2" r="1.96866" cx="50.4" id="connector16pad"/>
            <circle stroke-width="1.44" gorn="0.3.0.8" stroke="#F7BD13" fill="none"  connectorname="P$1" cy="7.2" r="4.26331" cx="50.4" id="connector36pad"/>
        </g>
    </g>
</svg>
