<?xml version='1.0' encoding='UTF-8' standalone='no'?>
<!-- Created with Fritzing (http://www.fritzing.org/) -->
<svg xmlns="http://www.w3.org/2000/svg" width="0.905546in" version="1.2"  x="0in" y="0in" height="0.905546in" baseProfile="tiny" viewBox="0 0 65.1993 65.1993">
    <desc >
        <referenceFile >Adafruit NeoPixel Jewel_pcb.svg</referenceFile>
    </desc>
    <desc >Fritzing footprint generated by brd2svg</desc>
    <g  id="silkscreen" gorn="0.2">
        <path fill="none" stroke-width="0.576" stroke="white" d="M0.288,32.5997a32.3117,32.3117,0,1,1,64.6233,0,32.3117,32.3117,0,1,1,-64.6233,0zM56.6987,32.5997a2.83011,2.83011,0,1,0,5.66022,0,2.83011,2.83011,0,1,0,-5.66022,0zM2.84041,32.5997a2.83011,2.83011,0,1,0,5.66022,0,2.83011,2.83011,0,1,0,-5.66022,0z" />
        <g >
            <title >element:LED1</title>
            <g >
                <title >package:WS2812B-NARROW</title>
                <line stroke-linecap="round" stroke-width="0.36" stroke="white"  y1="39.6863" y2="39.6863" x1="39.6863" x2="25.5131"/>
                <line stroke-linecap="round" stroke-width="0.36" stroke="white"  y1="39.6863" y2="28.0642" x1="25.5131" x2="25.5131"/>
                <line stroke-linecap="round" stroke-width="0.36" stroke="white"  y1="28.0642" y2="25.5131" x1="25.5131" x2="25.5131"/>
                <line stroke-linecap="round" stroke-width="0.36" stroke="white"  y1="25.5131" y2="25.5131" x1="25.5131" x2="28.0642"/>
                <line stroke-linecap="round" stroke-width="0.36" stroke="white"  y1="25.5131" y2="25.5131" x1="28.0642" x2="39.6863"/>
                <line stroke-linecap="round" stroke-width="0.36" stroke="white"  y1="25.5131" y2="39.6863" x1="39.6863" x2="39.6863"/>
                <line stroke-linecap="round" stroke-width="0.36" stroke="white"  y1="28.0642" y2="25.5131" x1="25.5131" x2="28.0642"/>
                <line stroke-linecap="round" stroke-width="0.36" stroke="white"  y1="25.5131" y2="24.5209" x1="28.0642" x2="29.0563"/>
                <line stroke-linecap="round" stroke-width="0.36" stroke="white"  y1="24.5209" y2="23.2453" x1="29.0563" x2="27.7808"/>
                <line stroke-linecap="round" stroke-width="0.36" stroke="white"  y1="23.2453" y2="25.5131" x1="27.7808" x2="25.5131"/>
                <circle fill="none" r="4.8769" stroke-width="0.36" stroke="white"  cx="32.5997" cy="32.5997"/>
            </g>
        </g>
        <g >
            <title >element:LED2</title>
            <g >
                <title >package:WS2812B-NARROW</title>
                <line stroke-linecap="round" stroke-width="0.36" stroke="white"  y1="17.0091" y2="17.0091" x1="39.6863" x2="25.5131"/>
                <line stroke-linecap="round" stroke-width="0.36" stroke="white"  y1="17.0091" y2="5.38706" x1="25.5131" x2="25.5131"/>
                <line stroke-linecap="round" stroke-width="0.36" stroke="white"  y1="5.38706" y2="2.83588" x1="25.5131" x2="25.5131"/>
                <line stroke-linecap="round" stroke-width="0.36" stroke="white"  y1="2.83588" y2="2.83588" x1="25.5131" x2="28.0642"/>
                <line stroke-linecap="round" stroke-width="0.36" stroke="white"  y1="2.83588" y2="2.83588" x1="28.0642" x2="39.6863"/>
                <line stroke-linecap="round" stroke-width="0.36" stroke="white"  y1="2.83588" y2="17.0091" x1="39.6863" x2="39.6863"/>
                <line stroke-linecap="round" stroke-width="0.36" stroke="white"  y1="5.38706" y2="2.83588" x1="25.5131" x2="28.0642"/>
                <line stroke-linecap="round" stroke-width="0.36" stroke="white"  y1="2.83588" y2="1.84375" x1="28.0642" x2="29.0563"/>
                <line stroke-linecap="round" stroke-width="0.36" stroke="white"  y1="1.84375" y2="0.568161" x1="29.0563" x2="27.7808"/>
                <line stroke-linecap="round" stroke-width="0.36" stroke="white"  y1="0.568161" y2="2.83588" x1="27.7808" x2="25.5131"/>
                <circle fill="none" r="4.8769" stroke-width="0.36" stroke="white"  cx="32.5997" cy="9.92246"/>
            </g>
        </g>
        <g >
            <title >element:LED3</title>
            <g >
                <title >package:WS2812B-NARROW</title>
                <line stroke-linecap="round" stroke-width="0.36" stroke="white"  y1="30.9416" y2="18.6672" x1="49.5648" x2="42.4782"/>
                <line stroke-linecap="round" stroke-width="0.36" stroke="white"  y1="18.6672" y2="12.8562" x1="42.4782" x2="52.5432"/>
                <line stroke-linecap="round" stroke-width="0.36" stroke="white"  y1="12.8562" y2="11.5806" x1="52.5432" x2="54.7526"/>
                <line stroke-linecap="round" stroke-width="0.36" stroke="white"  y1="11.5806" y2="13.7899" x1="54.7526" x2="56.0282"/>
                <line stroke-linecap="round" stroke-width="0.36" stroke="white"  y1="13.7899" y2="23.855" x1="56.0282" x2="61.8392"/>
                <line stroke-linecap="round" stroke-width="0.36" stroke="white"  y1="23.855" y2="30.9416" x1="61.8392" x2="49.5648"/>
                <line stroke-linecap="round" stroke-width="0.36" stroke="white"  y1="12.8562" y2="13.7899" x1="52.5432" x2="56.0282"/>
                <line stroke-linecap="round" stroke-width="0.36" stroke="white"  y1="13.7899" y2="14.1531" x1="56.0282" x2="57.3834"/>
                <line stroke-linecap="round" stroke-width="0.36" stroke="white"  y1="14.1531" y2="12.4106" x1="57.3834" x2="57.8503"/>
                <line stroke-linecap="round" stroke-width="0.36" stroke="white"  y1="12.4106" y2="11.5806" x1="57.8503" x2="54.7526"/>
                <circle fill="none" r="4.8769" stroke-width="0.36" stroke="white"  cx="52.1587" cy="21.2611"/>
            </g>
        </g>
        <g >
            <title >element:LED4</title>
            <g >
                <title >package:WS2812B-NARROW</title>
                <line stroke-linecap="round" stroke-width="0.36" stroke="white"  y1="46.5321" y2="34.2577" x1="42.4782" x2="49.5648"/>
                <line stroke-linecap="round" stroke-width="0.36" stroke="white"  y1="34.2577" y2="40.0688" x1="49.5648" x2="59.6298"/>
                <line stroke-linecap="round" stroke-width="0.36" stroke="white"  y1="40.0688" y2="41.3443" x1="59.6298" x2="61.8392"/>
                <line stroke-linecap="round" stroke-width="0.36" stroke="white"  y1="41.3443" y2="43.5537" x1="61.8392" x2="60.5636"/>
                <line stroke-linecap="round" stroke-width="0.36" stroke="white"  y1="43.5537" y2="53.6188" x1="60.5636" x2="54.7526"/>
                <line stroke-linecap="round" stroke-width="0.36" stroke="white"  y1="53.6188" y2="46.5321" x1="54.7526" x2="42.4782"/>
                <line stroke-linecap="round" stroke-width="0.36" stroke="white"  y1="40.0688" y2="43.5537" x1="59.6298" x2="60.5636"/>
                <line stroke-linecap="round" stroke-width="0.36" stroke="white"  y1="43.5537" y2="44.909" x1="60.5636" x2="60.9268"/>
                <line stroke-linecap="round" stroke-width="0.36" stroke="white"  y1="44.909" y2="44.4421" x1="60.9268" x2="62.6692"/>
                <line stroke-linecap="round" stroke-width="0.36" stroke="white"  y1="44.4421" y2="41.3443" x1="62.6692" x2="61.8392"/>
                <circle fill="none" r="4.8769" stroke-width="0.36" stroke="white"  cx="52.1587" cy="43.9382"/>
            </g>
        </g>
        <g >
            <title >element:LED5</title>
            <g >
                <title >package:WS2812B-NARROW</title>
                <line stroke-linecap="round" stroke-width="0.36" stroke="white"  y1="48.7571" y2="48.7571" x1="25.5131" x2="39.6863"/>
                <line stroke-linecap="round" stroke-width="0.36" stroke="white"  y1="48.7571" y2="60.3792" x1="39.6863" x2="39.6863"/>
                <line stroke-linecap="round" stroke-width="0.36" stroke="white"  y1="60.3792" y2="62.9304" x1="39.6863" x2="39.6863"/>
                <line stroke-linecap="round" stroke-width="0.36" stroke="white"  y1="62.9304" y2="62.9304" x1="39.6863" x2="37.1351"/>
                <line stroke-linecap="round" stroke-width="0.36" stroke="white"  y1="62.9304" y2="62.9304" x1="37.1351" x2="25.5131"/>
                <line stroke-linecap="round" stroke-width="0.36" stroke="white"  y1="62.9304" y2="48.7571" x1="25.5131" x2="25.5131"/>
                <line stroke-linecap="round" stroke-width="0.36" stroke="white"  y1="60.3792" y2="62.9304" x1="39.6863" x2="37.1351"/>
                <line stroke-linecap="round" stroke-width="0.36" stroke="white"  y1="62.9304" y2="63.9225" x1="37.1351" x2="36.143"/>
                <line stroke-linecap="round" stroke-width="0.36" stroke="white"  y1="63.9225" y2="65.1981" x1="36.143" x2="37.4185"/>
                <line stroke-linecap="round" stroke-width="0.36" stroke="white"  y1="65.1981" y2="62.9304" x1="37.4185" x2="39.6863"/>
                <circle fill="none" r="4.8769" stroke-width="0.36" stroke="white"  cx="32.5997" cy="55.8438"/>
            </g>
        </g>
        <g >
            <title >element:LED6</title>
            <g >
                <title >package:WS2812B-NARROW</title>
                <line stroke-linecap="round" stroke-width="0.36" stroke="white"  y1="34.2577" y2="46.5321" x1="15.6345" x2="22.7211"/>
                <line stroke-linecap="round" stroke-width="0.36" stroke="white"  y1="46.5321" y2="52.3431" x1="22.7211" x2="12.6561"/>
                <line stroke-linecap="round" stroke-width="0.36" stroke="white"  y1="52.3431" y2="53.6188" x1="12.6561" x2="10.4467"/>
                <line stroke-linecap="round" stroke-width="0.36" stroke="white"  y1="53.6188" y2="51.4094" x1="10.4467" x2="9.17114"/>
                <line stroke-linecap="round" stroke-width="0.36" stroke="white"  y1="51.4094" y2="41.3443" x1="9.17114" x2="3.36011"/>
                <line stroke-linecap="round" stroke-width="0.36" stroke="white"  y1="41.3443" y2="34.2577" x1="3.36011" x2="15.6345"/>
                <line stroke-linecap="round" stroke-width="0.36" stroke="white"  y1="52.3431" y2="51.4094" x1="12.6561" x2="9.17114"/>
                <line stroke-linecap="round" stroke-width="0.36" stroke="white"  y1="51.4094" y2="51.0462" x1="9.17114" x2="7.81589"/>
                <line stroke-linecap="round" stroke-width="0.36" stroke="white"  y1="51.0462" y2="52.7887" x1="7.81589" x2="7.34897"/>
                <line stroke-linecap="round" stroke-width="0.36" stroke="white"  y1="52.7887" y2="53.6188" x1="7.34897" x2="10.4467"/>
                <circle fill="none" r="4.8769" stroke-width="0.36" stroke="white"  cx="13.0406" cy="43.9382"/>
            </g>
        </g>
        <g >
            <title >element:LED7</title>
            <g >
                <title >package:WS2812B-NARROW</title>
                <line stroke-linecap="round" stroke-width="0.36" stroke="white"  y1="18.6672" y2="30.9416" x1="22.7211" x2="15.6345"/>
                <line stroke-linecap="round" stroke-width="0.36" stroke="white"  y1="30.9416" y2="25.1305" x1="15.6345" x2="5.5695"/>
                <line stroke-linecap="round" stroke-width="0.36" stroke="white"  y1="25.1305" y2="23.855" x1="5.5695" x2="3.36011"/>
                <line stroke-linecap="round" stroke-width="0.36" stroke="white"  y1="23.855" y2="21.6456" x1="3.36011" x2="4.6357"/>
                <line stroke-linecap="round" stroke-width="0.36" stroke="white"  y1="21.6456" y2="11.5806" x1="4.6357" x2="10.4467"/>
                <line stroke-linecap="round" stroke-width="0.36" stroke="white"  y1="11.5806" y2="18.6672" x1="10.4467" x2="22.7211"/>
                <line stroke-linecap="round" stroke-width="0.36" stroke="white"  y1="25.1305" y2="21.6456" x1="5.5695" x2="4.6357"/>
                <line stroke-linecap="round" stroke-width="0.36" stroke="white"  y1="21.6456" y2="20.2903" x1="4.6357" x2="4.27255"/>
                <line stroke-linecap="round" stroke-width="0.36" stroke="white"  y1="20.2903" y2="20.7572" x1="4.27255" x2="2.53007"/>
                <line stroke-linecap="round" stroke-width="0.36" stroke="white"  y1="20.7572" y2="23.855" x1="2.53007" x2="3.36011"/>
                <circle fill="none" r="4.8769" stroke-width="0.36" stroke="white"  cx="13.0406" cy="21.2611"/>
            </g>
        </g>
        <g >
            <title >element:U$3</title>
            <g >
                <title >package:ADAFRUIT_5MM</title>
            </g>
        </g>
    </g>
    <g  id="copper1" gorn="0.3">
        <g  id="copper0" gorn="0.3.0">
            <circle fill="none" r="1.98" stroke-width="1.08" connectorname="1" stroke="#F7BD13"  id="connector46pad" gorn="0.3.0.0" cx="26.0703" cy="21.2491"/>
            <circle fill="none" r="1.98" stroke-width="1.08" connectorname="GND" stroke="#F7BD13"  id="connector15pad" gorn="0.3.0.1" cx="44.5254" cy="32.9049"/>
            <circle fill="none" r="1.98" stroke-width="1.08" connectorname="GND" stroke="#F7BD13"  id="connector16pad" gorn="0.3.0.2" cx="39.1193" cy="20.6942"/>
            <circle fill="none" r="1.98" stroke-width="1.08" connectorname="N$13" stroke="#F7BD13"  id="connector17pad" gorn="0.3.0.3" cx="26.815" cy="43.8329"/>
            <circle fill="none" r="1.98" stroke-width="1.08" connectorname="VDD" stroke="#F7BD13"  id="connector47pad" gorn="0.3.0.4" cx="38.391" cy="44.3385"/>
        </g>
    </g>
</svg>
