<?xml version='1.0' encoding='UTF-8' standalone='no'?>
<!-- Created with Fritzing (http://www.fritzing.org/) -->
<svg xmlns="http://www.w3.org/2000/svg" viewBox="0 0 57.6 82.8" baseProfile="tiny" width="0.8in" y="0in" version="1.2"  x="0in" height="1.15in">
    <desc>
        <referenceFile>Adafruit AT42QT1012_pcb.svg</referenceFile>
    </desc>
    <desc >Fritzing footprint generated by brd2svg</desc>
    <g gorn="0.1" id="silkscreen" >
        <path d="M0.288,7.43789A6.912,6.912,0,0,1,7.416,0.288L50.184,0.288A6.912,6.912,0,0,1,57.312,7.43789L57.312,75.3624A6.912,6.912,0,0,1,50.184,82.512L7.416,82.512A6.912,6.912,0,0,1,0.288,75.3624L0.288,7.43789M25.3462,6.18803a3.25531,3.25531,0,1,0,6.51061,0,3.25531,3.25531,0,1,0,-6.51061,0z" stroke="white"  fill="none" stroke-width="0.576"/>
        <g >
            <title >element:SW1</title>
            <g >
                <title >package:CAPTOUCH_SIMPLE_12.5MM</title>
                <path d="M19.389,12.6255A9.21262,9.21262,0,0,0,10.1764,21.8381" stroke="white"  fill="none" stroke-width="0.36"/>
                <line stroke-linecap="round" y2="12.6255" stroke="white"  x1="19.389" x2="37.8142" stroke-width="0.36" y1="12.6255"/>
                <path d="M47.0268,21.8381A9.21262,9.21262,0,0,0,37.8142,12.6255" stroke="white"  fill="none" stroke-width="0.36"/>
                <line stroke-linecap="round" y2="40.2633" stroke="white"  x1="47.0268" x2="47.0268" stroke-width="0.36" y1="21.8381"/>
                <path d="M37.8142,49.4759A9.21262,9.21262,0,0,0,47.0268,40.2633" stroke="white"  fill="none" stroke-width="0.36"/>
                <line stroke-linecap="round" y2="49.4759" stroke="white"  x1="37.8142" x2="19.389" stroke-width="0.36" y1="49.4759"/>
                <path d="M10.1764,40.2633A9.21262,9.21262,0,0,0,19.389,49.4759" stroke="white"  fill="none" stroke-width="0.36"/>
                <line stroke-linecap="round" y2="21.8381" stroke="white"  x1="10.1764" x2="10.1764" stroke-width="0.36" y1="40.2633"/>
            </g>
        </g>
    </g>
    <g gorn="0.2" id="copper1" >
        <g gorn="0.2.0" id="copper0" >
            <circle connectorname="CAPPAD" stroke="#F7BD13" cx="43.0299" gorn="0.2.0.0" cy="77.4" r="0" id="connector10pad"  fill="none" stroke-width="0"/>
            <circle connectorname="TIME" stroke="#F7BD13" cx="28.6299" gorn="0.2.0.1" cy="77.4" r="1.96866" id="connector2pad"  fill="none" stroke-width="1.10268"/>
            <circle connectorname="VDD" stroke="#F7BD13" cx="35.8299" gorn="0.2.0.2" cy="77.4" r="1.96866" id="connector1pad"  fill="none" stroke-width="1.10268"/>
            <circle connectorname="OUT" stroke="#F7BD13" cx="21.4299" gorn="0.2.0.3" cy="77.4" r="1.96866" id="connector3pad"  fill="none" stroke-width="1.10268"/>
            <circle connectorname="GND" stroke="#F7BD13" cx="14.2299" gorn="0.2.0.4" cy="77.4" r="1.96866" id="connector4pad"  fill="none" stroke-width="1.10268"/>
            <rect stroke="none" width="3.6" gorn="0.2.0.5" y="47.0169" id="connector5pad"  fill="#F7BD13" x="26.8016" stroke-width="0" height="1.8"/>
            <circle connectorname="LEDA" stroke="#F7BD13" cx="43.0299" gorn="0.2.0.6" cy="77.4" r="1.96866" id="connector0pad"  fill="none" stroke-width="1.10268"/>
        </g>
    </g>
</svg>
