<?xml version='1.0' encoding='UTF-8' standalone='no'?>
<!-- Created with Fritzing (http://www.fritzing.org/) -->
<svg xmlns="http://www.w3.org/2000/svg" version="1.2" x="0in" viewBox="0 0 54 46.8"  height="0.65in" baseProfile="tiny" width="0.75in" y="0in">
    <desc>
        <referenceFile>Adafruit_TSL2561_pcb.svg</referenceFile>
    </desc>
    <desc >Fritzing footprint generated by brd2svg</desc>
    <g gorn="0.1"  id="silkscreen">
        <path d="M46.5888,46.512L7.41118,46.512A6.912,6.912,0,0,1,0.288,39.4006L0.288,7.39937A6.912,6.912,0,0,1,7.41118,0.288L46.5888,0.288A6.912,6.912,0,0,1,53.712,7.39937L53.712,39.4006A6.912,6.912,0,0,1,46.5888,46.512" fill="none"  stroke-width="0.576" stroke="white"/>
        <g >
            <title >element:JP1</title>
            <g >
                <title >package:1X07_ROUND_76</title>
            </g>
        </g>
        <g >
            <title >element:U$20</title>
            <g >
                <title >package:ADAFRUIT_5MM</title>
            </g>
        </g>
    </g>
    <g gorn="0.2"  id="copper1">
        <g gorn="0.2.0"  id="copper0">
            <circle cy="39.6" r="2.07666" cx="5.4" fill="none" gorn="0.2.0.0"  stroke-width="1.31868" stroke="#F7BD13" id="connector6pad" connectorname="VIN"/>
            <rect x="3.32334" fill="none"  stroke-width="1.31868" stroke="#F7BD13" height="4.15332" width="4.15332" y="37.5233"/>
            <circle cy="39.6" r="2.07666" cx="12.6" fill="none" gorn="0.2.0.2"  stroke-width="1.31868" stroke="#F7BD13" id="connector7pad" connectorname="GND"/>
            <circle cy="39.6" r="2.07666" cx="19.8" fill="none" gorn="0.2.0.3"  stroke-width="1.31868" stroke="#F7BD13" id="connector8pad" connectorname="3.3V"/>
            <circle cy="39.6" r="2.07666" cx="27" fill="none" gorn="0.2.0.4"  stroke-width="1.31868" stroke="#F7BD13" id="connector9pad" connectorname="ADDR"/>
            <circle cy="39.6" r="2.07666" cx="34.2" fill="none" gorn="0.2.0.5"  stroke-width="1.31868" stroke="#F7BD13" id="connector10pad" connectorname="INT"/>
            <circle cy="39.6" r="2.07666" cx="41.4" fill="none" gorn="0.2.0.6"  stroke-width="1.31868" stroke="#F7BD13" id="connector11pad" connectorname="SDA"/>
            <circle cy="39.6" r="2.07666" cx="48.6" fill="none" gorn="0.2.0.7"  stroke-width="1.31868" stroke="#F7BD13" id="connector12pad" connectorname="SCL"/>
        </g>
    </g>
</svg>
