<?xml version='1.0' encoding='UTF-8' standalone='no'?>
<!-- Created with Fritzing (http://www.fritzing.org/) -->
<svg xmlns="http://www.w3.org/2000/svg" version="1.2" height="0.8in" width="0.9in" x="0in" y="0in" viewBox="0 0 64.8 57.6"  baseProfile="tiny">
    <desc >
        <referenceFile >LSM303DLHC_pcb.svg</referenceFile>
    </desc>
    <desc >Fritzing footprint generated by brd2svg</desc>
    <g gorn="0.2"  id="silkscreen">
        <path  fill="none" stroke="white" d="M0.288,50.184L0.288,7.416A6.912,6.912,0,0,1,7.42399,0.288L57.376,0.288A6.912,6.912,0,0,1,64.512,7.416L64.512,50.184A6.912,6.912,0,0,1,57.376,57.312L7.42399,57.312A6.912,6.912,0,0,1,0.288,50.184" stroke-width="0.576"/>
        <line stroke-linecap="round" x2="61.2" y1="27.36"  stroke="white" y2="23.04" x1="61.2" stroke-width="1.152"/>
        <line stroke-linecap="round" x2="59.76" y1="23.04"  stroke="white" y2="24.48" x1="61.2" stroke-width="1.152"/>
        <line stroke-linecap="round" x2="62.64" y1="24.48"  stroke="white" y2="24.48" x1="59.76" stroke-width="1.152"/>
        <line stroke-linecap="round" x2="61.2" y1="24.48"  stroke="white" y2="23.04" x1="62.64" stroke-width="1.152"/>
        <line stroke-linecap="round" x2="54" y1="31.68"  stroke="white" y2="33.12" x1="54" stroke-width="1.152"/>
        <line stroke-linecap="round" x2="52.56" y1="33.12"  stroke="white" y2="31.68" x1="54" stroke-width="1.152"/>
        <line stroke-linecap="round" x2="54" y1="31.68"  stroke="white" y2="30.24" x1="52.56" stroke-width="1.152"/>
        <line stroke-linecap="round" x2="54" y1="30.24"  stroke="white" y2="31.68" x1="54" stroke-width="1.152"/>
        <line stroke-linecap="round" x2="52.56" y1="31.68"  stroke="white" y2="31.68" x1="54" stroke-width="1.152"/>
        <line stroke-linecap="round" x2="54" y1="31.68"  stroke="white" y2="31.68" x1="56.88" stroke-width="1.152"/>
        <circle cy="31.68" cx="61.2"  fill="none" stroke="white" stroke-width="0.72" r="0.72"/>
        <circle cy="31.68" cx="61.2"  fill="none" stroke="white" stroke-width="0.72" r="2.27683"/>
        <g >
            <title >element:JP1</title>
            <g >
                <title >package:1X08_ROUND_76</title>
            </g>
        </g>
        <g >
            <title >element:U1</title>
            <g >
                <title >package:LGA14</title>
                <line stroke-linecap="round" x2="31.1358" y1="21.7134"  stroke="white" y2="21.7134" x1="28.868" stroke-width="0.576"/>
                <line stroke-linecap="round" x2="37.372" y1="21.7134"  stroke="white" y2="21.7134" x1="35.1042" stroke-width="0.576"/>
                <line stroke-linecap="round" x2="35.1042" y1="35.8866"  stroke="white" y2="35.8866" x1="37.372" stroke-width="0.576"/>
                <line stroke-linecap="round" x2="28.868" y1="35.8866"  stroke="white" y2="35.8866" x1="31.1358" stroke-width="0.576"/>
                <circle cy="20.2961" cx="30.2854"  fill="none" stroke="white" stroke-width="0.708661" r="0.425197"/>
            </g>
        </g>
    </g>
    <g gorn="0.3"  id="copper1">
        <g gorn="0.3.0"  id="copper0">
            <circle cy="7.2" cx="57.6" gorn="0.3.0.0" connectorname="P$1"  fill="none" stroke="#F7BD13" id="connector40pad" stroke-width="0.992124" r="4.03937"/>
            <circle cy="50.4" cx="7.2" gorn="0.3.0.1" connectorname="SCL"  fill="none" stroke="#F7BD13" id="connector17pad" stroke-width="1.31868" r="2.07666"/>
            <circle cy="50.4" cx="14.4" gorn="0.3.0.2" connectorname="SDA"  fill="none" stroke="#F7BD13" id="connector18pad" stroke-width="1.31868" r="2.07666"/>
            <circle cy="50.4" cx="21.6" gorn="0.3.0.3" connectorname="INT2"  fill="none" stroke="#F7BD13" id="connector19pad" stroke-width="1.31868" r="2.07666"/>
            <circle cy="50.4" cx="28.8" gorn="0.3.0.4" connectorname="INT1"  fill="none" stroke="#F7BD13" id="connector20pad" stroke-width="1.31868" r="2.07666"/>
            <circle cy="50.4" cx="36" gorn="0.3.0.5" connectorname="DRDY"  fill="none" stroke="#F7BD13" id="connector21pad" stroke-width="1.31868" r="2.07666"/>
            <circle cy="7.2" cx="7.2" gorn="0.3.0.6" connectorname="P$1"  fill="none" stroke="#F7BD13" id="connector39pad" stroke-width="0.992124" r="4.03937"/>
            <circle cy="50.4" cx="43.2" gorn="0.3.0.7" connectorname="GND"  fill="none" stroke="#F7BD13" id="connector22pad" stroke-width="1.31868" r="2.07666"/>
            <circle cy="50.4" cx="50.4" gorn="0.3.0.8" connectorname="VIN"  fill="none" stroke="#F7BD13" id="connector23pad" stroke-width="1.31868" r="2.07666"/>
            <circle cy="50.4" cx="57.6" gorn="0.3.0.9" connectorname="3.3V"  fill="none" stroke="#F7BD13" id="connector24pad" stroke-width="1.31868" r="2.07666"/>
        </g>
    </g>
</svg>
