<?xml version='1.0' encoding='UTF-8' standalone='no'?>
<!-- Created with Fritzing (http://www.fritzing.org/) -->
<svg xmlns="http://www.w3.org/2000/svg"  width="0.555in" version="1.2" x="0in" viewBox="0 0 39.96 72" y="0in" height="1in" baseProfile="tiny">
    <desc >
        <referenceFile >max9814_pcb.svg</referenceFile>
    </desc>
    <desc >Fritzing footprint generated by brd2svg</desc>
    <g id="silkscreen"  gorn="0.2">
        <path  stroke="white" stroke-width="0.576" fill="none" d="M34.3498,71.712L5.61016,71.712A5.112,5.112,0,0,1,0.288,66.3552L0.288,5.6448A5.112,5.112,0,0,1,5.61016,0.288L34.3498,0.288A5.112,5.112,0,0,1,39.672,5.6448L39.672,66.3552A5.112,5.112,0,0,1,34.3498,71.712"/>
        <g >
            <title >element:J2</title>
            <g >
                <title >package:1X05_ROUND_76</title>
            </g>
        </g>
        <g >
            <title >element:Q1</title>
            <g >
                <title >package:9.7ELECTRET</title>
                <circle  stroke="white" stroke-width="0.36" cx="20.16" fill="none" r="13.6092" cy="20.52"/>
                <circle  stroke="white" stroke-width="0.36" cx="20.16" fill="none" r="12.189" cy="20.52"/>
            </g>
        </g>
    </g>
    <g id="copper1"  gorn="0.3">
        <g id="copper0"  gorn="0.3.0">
            <circle id="connector6pad"  stroke="#F7BD13" gorn="0.3.0.0" stroke-width="1.31868" cx="26.64" connectorname="VDD" fill="none" r="2.07666" cy="68.04"/>
            <circle id="connector12pad"  stroke="#F7BD13" gorn="0.3.0.1" stroke-width="1.44" cx="34.2" connectorname="P$1" fill="none" r="3.83811" cy="5.76"/>
            <circle id="connector7pad"  stroke="#F7BD13" gorn="0.3.0.2" stroke-width="1.31868" cx="19.44" connectorname="GAIN" fill="none" r="2.07666" cy="68.04"/>
            <circle id="connector8pad"  stroke="#F7BD13" gorn="0.3.0.3" stroke-width="1.31868" cx="12.24" connectorname="OUTPUT" fill="none" r="2.07666" cy="68.04"/>
            <circle id="connector13pad"  stroke="#F7BD13" gorn="0.3.0.4" stroke-width="1.44" cx="5.76" connectorname="P$1" fill="none" r="3.83811" cy="5.76"/>
            <circle id="connector9pad"  stroke="#F7BD13" gorn="0.3.0.5" stroke-width="1.31868" cx="5.04" connectorname="A/R" fill="none" r="2.07666" cy="68.04"/>
            <circle id="connector5pad"  stroke="#F7BD13" gorn="0.3.0.6" stroke-width="1.31868" cx="33.84" connectorname="GND" fill="none" r="2.07666" cy="68.04"/>
        </g>
    </g>
</svg>
