<?xml version='1.0' encoding='UTF-8' standalone='no'?>
<!-- Created with Fritzing (http://www.fritzing.org/) -->
<svg xmlns="http://www.w3.org/2000/svg" width="1.75492in" version="1.2"  x="0in" y="0in" height="1.75492in" baseProfile="tiny" viewBox="0 0 126.354 126.354">
    <desc >
        <referenceFile >Adafruit 16 NeoPixel Ring_pcb.svg</referenceFile>
    </desc>
    <desc >Fritzing footprint generated by brd2svg</desc>
    <g  id="silkscreen" gorn="0.2">
        <path fill="none" stroke-width="0.576" stroke="white" d="M0.288,63a62.712,62.712,0,1,1,125.424,0,62.712,62.712,0,1,1,-125.424,0z" />
        <g >
            <title >element:LED2</title>
            <g >
                <title >package:WS2812B-NARROW</title>
                <line stroke-linecap="round" stroke-width="0.36" stroke="white"  y1="17.4432" y2="22.8671" x1="52.0271" x2="38.9328"/>
                <line stroke-linecap="round" stroke-width="0.36" stroke="white"  y1="22.8671" y2="12.1298" x1="38.9328" x2="34.4852"/>
                <line stroke-linecap="round" stroke-width="0.36" stroke="white"  y1="12.1298" y2="9.77278" x1="34.4852" x2="33.5089"/>
                <line stroke-linecap="round" stroke-width="0.36" stroke="white"  y1="9.77278" y2="8.79646" x1="33.5089" x2="35.8659"/>
                <line stroke-linecap="round" stroke-width="0.36" stroke="white"  y1="8.79646" y2="4.34889" x1="35.8659" x2="46.6032"/>
                <line stroke-linecap="round" stroke-width="0.36" stroke="white"  y1="4.34889" y2="17.4432" x1="46.6032" x2="52.0271"/>
                <line stroke-linecap="round" stroke-width="0.36" stroke="white"  y1="12.1298" y2="8.79646" x1="34.4852" x2="35.8659"/>
                <line stroke-linecap="round" stroke-width="0.36" stroke="white"  y1="8.79646" y2="7.50017" x1="35.8659" x2="36.4028"/>
                <line stroke-linecap="round" stroke-width="0.36" stroke="white"  y1="7.50017" y2="6.80985" x1="36.4028" x2="34.7362"/>
                <line stroke-linecap="round" stroke-width="0.36" stroke="white"  y1="6.80985" y2="9.77278" x1="34.7362" x2="33.5089"/>
                <circle fill="none" r="4.8769" stroke-width="0.36" stroke="white"  cx="42.768" cy="13.608"/>
            </g>
        </g>
        <g >
            <title >element:LED3</title>
            <g >
                <title >package:WS2812B-NARROW</title>
                <line stroke-linecap="round" stroke-width="0.36" stroke="white"  y1="24.84" y2="34.862" x1="35.222" x2="25.2"/>
                <line stroke-linecap="round" stroke-width="0.36" stroke="white"  y1="34.862" y2="26.644" x1="25.2" x2="16.982"/>
                <line stroke-linecap="round" stroke-width="0.36" stroke="white"  y1="26.644" y2="24.84" x1="16.982" x2="15.178"/>
                <line stroke-linecap="round" stroke-width="0.36" stroke="white"  y1="24.84" y2="23.036" x1="15.178" x2="16.982"/>
                <line stroke-linecap="round" stroke-width="0.36" stroke="white"  y1="23.036" y2="14.818" x1="16.982" x2="25.2"/>
                <line stroke-linecap="round" stroke-width="0.36" stroke="white"  y1="14.818" y2="24.84" x1="25.2" x2="35.222"/>
                <line stroke-linecap="round" stroke-width="0.36" stroke="white"  y1="26.644" y2="23.036" x1="16.982" x2="16.982"/>
                <line stroke-linecap="round" stroke-width="0.36" stroke="white"  y1="23.036" y2="21.633" x1="16.982" x2="16.982"/>
                <line stroke-linecap="round" stroke-width="0.36" stroke="white"  y1="21.633" y2="21.633" x1="16.982" x2="15.178"/>
                <line stroke-linecap="round" stroke-width="0.36" stroke="white"  y1="21.633" y2="24.84" x1="15.178" x2="15.178"/>
                <circle fill="none" r="4.8769" stroke-width="0.36" stroke="white"  cx="25.2" cy="24.84"/>
            </g>
        </g>
        <g >
            <title >element:LED4</title>
            <g >
                <title >package:WS2812B-NARROW</title>
                <line stroke-linecap="round" stroke-width="0.36" stroke="white"  y1="39.0048" y2="52.0991" x1="22.5791" x2="17.1552"/>
                <line stroke-linecap="round" stroke-width="0.36" stroke="white"  y1="52.0991" y2="47.6515" x1="17.1552" x2="6.41788"/>
                <line stroke-linecap="round" stroke-width="0.36" stroke="white"  y1="47.6515" y2="46.6752" x1="6.41788" x2="4.06089"/>
                <line stroke-linecap="round" stroke-width="0.36" stroke="white"  y1="46.6752" y2="44.3182" x1="4.06089" x2="5.03719"/>
                <line stroke-linecap="round" stroke-width="0.36" stroke="white"  y1="44.3182" y2="33.5809" x1="5.03719" x2="9.48478"/>
                <line stroke-linecap="round" stroke-width="0.36" stroke="white"  y1="33.5809" y2="39.0048" x1="9.48478" x2="22.5791"/>
                <line stroke-linecap="round" stroke-width="0.36" stroke="white"  y1="47.6515" y2="44.3182" x1="6.41788" x2="5.03719"/>
                <line stroke-linecap="round" stroke-width="0.36" stroke="white"  y1="44.3182" y2="43.022" x1="5.03719" x2="4.50026"/>
                <line stroke-linecap="round" stroke-width="0.36" stroke="white"  y1="43.022" y2="43.7124" x1="4.50026" x2="2.83362"/>
                <line stroke-linecap="round" stroke-width="0.36" stroke="white"  y1="43.7124" y2="46.6752" x1="2.83362" x2="4.06089"/>
                <circle fill="none" r="4.8769" stroke-width="0.36" stroke="white"  cx="13.32" cy="42.84"/>
            </g>
        </g>
        <g >
            <title >element:LED6</title>
            <g >
                <title >package:WS2812B-NARROW</title>
                <line stroke-linecap="round" stroke-width="0.36" stroke="white"  y1="73.9008" y2="86.9954" x1="17.5152" x2="22.9391"/>
                <line stroke-linecap="round" stroke-width="0.36" stroke="white"  y1="86.9954" y2="91.4429" x1="22.9391" x2="12.2018"/>
                <line stroke-linecap="round" stroke-width="0.36" stroke="white"  y1="91.4429" y2="92.4192" x1="12.2018" x2="9.84478"/>
                <line stroke-linecap="round" stroke-width="0.36" stroke="white"  y1="92.4192" y2="90.0619" x1="9.84478" x2="8.86846"/>
                <line stroke-linecap="round" stroke-width="0.36" stroke="white"  y1="90.0619" y2="79.3246" x1="8.86846" x2="4.42089"/>
                <line stroke-linecap="round" stroke-width="0.36" stroke="white"  y1="79.3246" y2="73.9008" x1="4.42089" x2="17.5152"/>
                <line stroke-linecap="round" stroke-width="0.36" stroke="white"  y1="91.4429" y2="90.0619" x1="12.2018" x2="8.86846"/>
                <line stroke-linecap="round" stroke-width="0.36" stroke="white"  y1="90.0619" y2="89.5255" x1="8.86846" x2="7.57217"/>
                <line stroke-linecap="round" stroke-width="0.36" stroke="white"  y1="89.5255" y2="91.1916" x1="7.57217" x2="6.88185"/>
                <line stroke-linecap="round" stroke-width="0.36" stroke="white"  y1="91.1916" y2="92.4192" x1="6.88185" x2="9.84478"/>
                <circle fill="none" r="4.8769" stroke-width="0.36" stroke="white"  cx="13.68" cy="83.16"/>
            </g>
        </g>
        <g >
            <title >element:LED7</title>
            <g >
                <title >package:WS2812B-NARROW</title>
                <line stroke-linecap="round" stroke-width="0.36" stroke="white"  y1="90.5623" y2="100.584" x1="25.128" x2="35.15"/>
                <line stroke-linecap="round" stroke-width="0.36" stroke="white"  y1="100.584" y2="108.802" x1="35.15" x2="26.932"/>
                <line stroke-linecap="round" stroke-width="0.36" stroke="white"  y1="108.802" y2="110.606" x1="26.932" x2="25.128"/>
                <line stroke-linecap="round" stroke-width="0.36" stroke="white"  y1="110.606" y2="108.802" x1="25.128" x2="23.324"/>
                <line stroke-linecap="round" stroke-width="0.36" stroke="white"  y1="108.802" y2="100.584" x1="23.324" x2="15.106"/>
                <line stroke-linecap="round" stroke-width="0.36" stroke="white"  y1="100.584" y2="90.5623" x1="15.106" x2="25.128"/>
                <line stroke-linecap="round" stroke-width="0.36" stroke="white"  y1="108.802" y2="108.802" x1="26.932" x2="23.324"/>
                <line stroke-linecap="round" stroke-width="0.36" stroke="white"  y1="108.802" y2="108.802" x1="23.324" x2="21.921"/>
                <line stroke-linecap="round" stroke-width="0.36" stroke="white"  y1="108.802" y2="110.606" x1="21.921" x2="21.921"/>
                <line stroke-linecap="round" stroke-width="0.36" stroke="white"  y1="110.606" y2="110.606" x1="21.921" x2="25.128"/>
                <circle fill="none" r="4.8769" stroke-width="0.36" stroke="white"  cx="25.128" cy="100.584"/>
            </g>
        </g>
        <g >
            <title >element:LED8</title>
            <g >
                <title >package:WS2812B-NARROW</title>
                <line stroke-linecap="round" stroke-width="0.36" stroke="white"  y1="103.493" y2="108.917" x1="38.9328" x2="52.0271"/>
                <line stroke-linecap="round" stroke-width="0.36" stroke="white"  y1="108.917" y2="119.654" x1="52.0271" x2="47.5795"/>
                <line stroke-linecap="round" stroke-width="0.36" stroke="white"  y1="119.654" y2="122.011" x1="47.5795" x2="46.6032"/>
                <line stroke-linecap="round" stroke-width="0.36" stroke="white"  y1="122.011" y2="121.035" x1="46.6032" x2="44.2462"/>
                <line stroke-linecap="round" stroke-width="0.36" stroke="white"  y1="121.035" y2="116.587" x1="44.2462" x2="33.5089"/>
                <line stroke-linecap="round" stroke-width="0.36" stroke="white"  y1="116.587" y2="103.493" x1="33.5089" x2="38.9328"/>
                <line stroke-linecap="round" stroke-width="0.36" stroke="white"  y1="119.654" y2="121.035" x1="47.5795" x2="44.2462"/>
                <line stroke-linecap="round" stroke-width="0.36" stroke="white"  y1="121.035" y2="121.572" x1="44.2462" x2="42.95"/>
                <line stroke-linecap="round" stroke-width="0.36" stroke="white"  y1="121.572" y2="123.238" x1="42.95" x2="43.6404"/>
                <line stroke-linecap="round" stroke-width="0.36" stroke="white"  y1="123.238" y2="122.011" x1="43.6404" x2="46.6032"/>
                <circle fill="none" r="4.8769" stroke-width="0.36" stroke="white"  cx="42.768" cy="112.752"/>
            </g>
        </g>
        <g >
            <title >element:LED10</title>
            <g >
                <title >package:WS2812B-NARROW</title>
                <line stroke-linecap="round" stroke-width="0.36" stroke="white"  y1="109.205" y2="103.781" x1="74.2608" x2="87.3554"/>
                <line stroke-linecap="round" stroke-width="0.36" stroke="white"  y1="103.781" y2="114.518" x1="87.3554" x2="91.8029"/>
                <line stroke-linecap="round" stroke-width="0.36" stroke="white"  y1="114.518" y2="116.875" x1="91.8029" x2="92.7792"/>
                <line stroke-linecap="round" stroke-width="0.36" stroke="white"  y1="116.875" y2="117.852" x1="92.7792" x2="90.4219"/>
                <line stroke-linecap="round" stroke-width="0.36" stroke="white"  y1="117.852" y2="122.299" x1="90.4219" x2="79.6846"/>
                <line stroke-linecap="round" stroke-width="0.36" stroke="white"  y1="122.299" y2="109.205" x1="79.6846" x2="74.2608"/>
                <line stroke-linecap="round" stroke-width="0.36" stroke="white"  y1="114.518" y2="117.852" x1="91.8029" x2="90.4219"/>
                <line stroke-linecap="round" stroke-width="0.36" stroke="white"  y1="117.852" y2="119.148" x1="90.4219" x2="89.8855"/>
                <line stroke-linecap="round" stroke-width="0.36" stroke="white"  y1="119.148" y2="119.838" x1="89.8855" x2="91.5516"/>
                <line stroke-linecap="round" stroke-width="0.36" stroke="white"  y1="119.838" y2="116.875" x1="91.5516" x2="92.7792"/>
                <circle fill="none" r="4.8769" stroke-width="0.36" stroke="white"  cx="83.52" cy="113.04"/>
            </g>
        </g>
        <g >
            <title >element:LED11</title>
            <g >
                <title >package:WS2812B-NARROW</title>
                <line stroke-linecap="round" stroke-width="0.36" stroke="white"  y1="101.16" y2="91.1383" x1="91.1383" x2="101.16"/>
                <line stroke-linecap="round" stroke-width="0.36" stroke="white"  y1="91.1383" y2="99.3564" x1="101.16" x2="109.378"/>
                <line stroke-linecap="round" stroke-width="0.36" stroke="white"  y1="99.3564" y2="101.16" x1="109.378" x2="111.182"/>
                <line stroke-linecap="round" stroke-width="0.36" stroke="white"  y1="101.16" y2="102.964" x1="111.182" x2="109.378"/>
                <line stroke-linecap="round" stroke-width="0.36" stroke="white"  y1="102.964" y2="111.182" x1="109.378" x2="101.16"/>
                <line stroke-linecap="round" stroke-width="0.36" stroke="white"  y1="111.182" y2="101.16" x1="101.16" x2="91.1383"/>
                <line stroke-linecap="round" stroke-width="0.36" stroke="white"  y1="99.3564" y2="102.964" x1="109.378" x2="109.378"/>
                <line stroke-linecap="round" stroke-width="0.36" stroke="white"  y1="102.964" y2="104.367" x1="109.378" x2="109.378"/>
                <line stroke-linecap="round" stroke-width="0.36" stroke="white"  y1="104.367" y2="104.367" x1="109.378" x2="111.182"/>
                <line stroke-linecap="round" stroke-width="0.36" stroke="white"  y1="104.367" y2="101.16" x1="111.182" x2="111.182"/>
                <circle fill="none" r="4.8769" stroke-width="0.36" stroke="white"  cx="101.16" cy="101.16"/>
            </g>
        </g>
        <g >
            <title >element:LED12</title>
            <g >
                <title >package:WS2812B-NARROW</title>
                <line stroke-linecap="round" stroke-width="0.36" stroke="white"  y1="87.3554" y2="74.2608" x1="103.781" x2="109.205"/>
                <line stroke-linecap="round" stroke-width="0.36" stroke="white"  y1="74.2608" y2="78.7082" x1="109.205" x2="119.942"/>
                <line stroke-linecap="round" stroke-width="0.36" stroke="white"  y1="78.7082" y2="79.6846" x1="119.942" x2="122.299"/>
                <line stroke-linecap="round" stroke-width="0.36" stroke="white"  y1="79.6846" y2="82.0418" x1="122.299" x2="121.323"/>
                <line stroke-linecap="round" stroke-width="0.36" stroke="white"  y1="82.0418" y2="92.7792" x1="121.323" x2="116.875"/>
                <line stroke-linecap="round" stroke-width="0.36" stroke="white"  y1="92.7792" y2="87.3554" x1="116.875" x2="103.781"/>
                <line stroke-linecap="round" stroke-width="0.36" stroke="white"  y1="78.7082" y2="82.0418" x1="119.942" x2="121.323"/>
                <line stroke-linecap="round" stroke-width="0.36" stroke="white"  y1="82.0418" y2="83.3378" x1="121.323" x2="121.86"/>
                <line stroke-linecap="round" stroke-width="0.36" stroke="white"  y1="83.3378" y2="82.6474" x1="121.86" x2="123.526"/>
                <line stroke-linecap="round" stroke-width="0.36" stroke="white"  y1="82.6474" y2="79.6846" x1="123.526" x2="122.299"/>
                <circle fill="none" r="4.8769" stroke-width="0.36" stroke="white"  cx="113.04" cy="83.52"/>
            </g>
        </g>
        <g >
            <title >element:LED14</title>
            <g >
                <title >package:WS2812B-NARROW</title>
                <line stroke-linecap="round" stroke-width="0.36" stroke="white"  y1="51.7391" y2="38.6448" x1="109.205" x2="103.781"/>
                <line stroke-linecap="round" stroke-width="0.36" stroke="white"  y1="38.6448" y2="34.1972" x1="103.781" x2="114.518"/>
                <line stroke-linecap="round" stroke-width="0.36" stroke="white"  y1="34.1972" y2="33.2209" x1="114.518" x2="116.875"/>
                <line stroke-linecap="round" stroke-width="0.36" stroke="white"  y1="33.2209" y2="35.5779" x1="116.875" x2="117.852"/>
                <line stroke-linecap="round" stroke-width="0.36" stroke="white"  y1="35.5779" y2="46.3152" x1="117.852" x2="122.299"/>
                <line stroke-linecap="round" stroke-width="0.36" stroke="white"  y1="46.3152" y2="51.7391" x1="122.299" x2="109.205"/>
                <line stroke-linecap="round" stroke-width="0.36" stroke="white"  y1="34.1972" y2="35.5779" x1="114.518" x2="117.852"/>
                <line stroke-linecap="round" stroke-width="0.36" stroke="white"  y1="35.5779" y2="36.1148" x1="117.852" x2="119.148"/>
                <line stroke-linecap="round" stroke-width="0.36" stroke="white"  y1="36.1148" y2="34.4482" x1="119.148" x2="119.838"/>
                <line stroke-linecap="round" stroke-width="0.36" stroke="white"  y1="34.4482" y2="33.2209" x1="119.838" x2="116.875"/>
                <circle fill="none" r="4.8769" stroke-width="0.36" stroke="white"  cx="113.04" cy="42.48"/>
            </g>
        </g>
        <g >
            <title >element:LED15</title>
            <g >
                <title >package:WS2812B-NARROW</title>
                <line stroke-linecap="round" stroke-width="0.36" stroke="white"  y1="35.222" y2="25.2" x1="101.52" x2="91.4983"/>
                <line stroke-linecap="round" stroke-width="0.36" stroke="white"  y1="25.2" y2="16.982" x1="91.4983" x2="99.7164"/>
                <line stroke-linecap="round" stroke-width="0.36" stroke="white"  y1="16.982" y2="15.178" x1="99.7164" x2="101.52"/>
                <line stroke-linecap="round" stroke-width="0.36" stroke="white"  y1="15.178" y2="16.982" x1="101.52" x2="103.324"/>
                <line stroke-linecap="round" stroke-width="0.36" stroke="white"  y1="16.982" y2="25.2" x1="103.324" x2="111.542"/>
                <line stroke-linecap="round" stroke-width="0.36" stroke="white"  y1="25.2" y2="35.222" x1="111.542" x2="101.52"/>
                <line stroke-linecap="round" stroke-width="0.36" stroke="white"  y1="16.982" y2="16.982" x1="99.7164" x2="103.324"/>
                <line stroke-linecap="round" stroke-width="0.36" stroke="white"  y1="16.982" y2="16.982" x1="103.324" x2="104.727"/>
                <line stroke-linecap="round" stroke-width="0.36" stroke="white"  y1="16.982" y2="15.178" x1="104.727" x2="104.727"/>
                <line stroke-linecap="round" stroke-width="0.36" stroke="white"  y1="15.178" y2="15.178" x1="104.727" x2="101.52"/>
                <circle fill="none" r="4.8769" stroke-width="0.36" stroke="white"  cx="101.52" cy="25.2"/>
            </g>
        </g>
        <g >
            <title >element:LED16</title>
            <g >
                <title >package:WS2812B-NARROW</title>
                <line stroke-linecap="round" stroke-width="0.36" stroke="white"  y1="22.6511" y2="17.2272" x1="87.3554" x2="74.2608"/>
                <line stroke-linecap="round" stroke-width="0.36" stroke="white"  y1="17.2272" y2="6.48988" x1="74.2608" x2="78.7082"/>
                <line stroke-linecap="round" stroke-width="0.36" stroke="white"  y1="6.48988" y2="4.13289" x1="78.7082" x2="79.6846"/>
                <line stroke-linecap="round" stroke-width="0.36" stroke="white"  y1="4.13289" y2="5.10919" x1="79.6846" x2="82.0418"/>
                <line stroke-linecap="round" stroke-width="0.36" stroke="white"  y1="5.10919" y2="9.55678" x1="82.0418" x2="92.7792"/>
                <line stroke-linecap="round" stroke-width="0.36" stroke="white"  y1="9.55678" y2="22.6511" x1="92.7792" x2="87.3554"/>
                <line stroke-linecap="round" stroke-width="0.36" stroke="white"  y1="6.48988" y2="5.10919" x1="78.7082" x2="82.0418"/>
                <line stroke-linecap="round" stroke-width="0.36" stroke="white"  y1="5.10919" y2="4.57226" x1="82.0418" x2="83.3378"/>
                <line stroke-linecap="round" stroke-width="0.36" stroke="white"  y1="4.57226" y2="2.90562" x1="83.3378" x2="82.6474"/>
                <line stroke-linecap="round" stroke-width="0.36" stroke="white"  y1="2.90562" y2="4.13289" x1="82.6474" x2="79.6846"/>
                <circle fill="none" r="4.8769" stroke-width="0.36" stroke="white"  cx="83.52" cy="13.392"/>
            </g>
        </g>
        <line fill="none" stroke-width="0.576" stroke="white" fill-opacity="1"  y1="126.066" y2="126.066" x1="55.5534" x2="69.7266"/>
        <line fill="none" stroke-width="0.576" stroke="white" fill-opacity="1"  y1="126.066" y2="126" x1="55.5534" x2="55.5534"/>
        <line fill="none" stroke-width="0.576" stroke="white" fill-opacity="1"  y1="126.066" y2="126" x1="69.7266" x2="69.7266"/>
        <line fill="none" stroke-width="0.576" stroke="white" fill-opacity="1"  y1="70.8066" y2="70.8066" x1="126" x2="126.066"/>
        <line fill="none" stroke-width="0.576" stroke="white" fill-opacity="1"  y1="56.6334" y2="56.6334" x1="126" x2="126.066"/>
        <line fill="none" stroke-width="0.576" stroke="white" fill-opacity="1"  y1="70.8066" y2="56.6334" x1="126.066" x2="126.066"/>
    </g>
    <g  id="copper1" gorn="0.3">
        <g  id="copper0" gorn="0.3.0">
            <circle fill="none" r="1.98" stroke-width="1.08" connectorname="IN" stroke="#F7BD13"  id="connector18pad" gorn="0.3.0.0" cx="30.024" cy="13.248"/>
            <circle fill="none" r="1.98" stroke-width="1.08" connectorname="OUT" stroke="#F7BD13"  id="connector19pad" gorn="0.3.0.1" cx="74.664" cy="4.464"/>
            <circle fill="none" r="1.98" stroke-width="1.08" connectorname="+5V" stroke="#F7BD13"  id="connector20pad" gorn="0.3.0.2" cx="13.248" cy="95.976"/>
            <circle fill="none" r="1.98" stroke-width="1.08" connectorname="GND" stroke="#F7BD13"  id="connector21pad" gorn="0.3.0.3" cx="96.12" cy="112.68"/>
            <circle fill="none" r="1.98" stroke-width="1.08" connectorname="+5V" stroke="#F7BD13"  id="connector22pad" gorn="0.3.0.4" cx="4.464" cy="74.304"/>
            <circle fill="none" r="1.98" stroke-width="1.08" connectorname="GND" stroke="#F7BD13"  id="connector23pad" gorn="0.3.0.5" cx="112.68" cy="96.048"/>
        </g>
    </g>
</svg>
