<?xml version='1.0' encoding='UTF-8' standalone='no'?>
<!-- Created with Fritzing (http://www.fritzing.org/) -->
<svg xmlns="http://www.w3.org/2000/svg" viewBox="0 0 72 72" x="0in" y="0in" baseProfile="tiny" height="1in" version="1.2" width="1in" >
    <desc >
        <referenceFile >Adafruit AMG8833 8x8 GRID EYE_pcb.svg</referenceFile>
    </desc>
    <desc >Fritzing footprint generated by brd2svg</desc>
    <g gorn="0.2" id="silkscreen" >
        <path d="M0.288,64.5696L0.288,7.4304A6.912,6.912,0,0,1,7.4304,0.288L64.5696,0.288A6.912,6.912,0,0,1,71.712,7.4304L71.712,64.5696A6.912,6.912,0,0,1,64.5696,71.712L7.4304,71.712A6.912,6.912,0,0,1,0.288,64.5696" stroke="white" fill="none"  stroke-width="0.576"/>
        <g >
            <title >element:U1</title>
            <g >
                <title >package:AMG8833</title>
                <line y2="47.622" x2="21.1692" y1="47.622" stroke="white" x1="16.6337"  stroke-linecap="round" stroke-width="0.36"/>
                <line y2="24.378" x2="21.1692" y1="24.378" stroke="white" x1="16.6337"  stroke-linecap="round" stroke-width="0.36"/>
                <line y2="31.748" x2="13.5156" y1="37.4173" stroke="white" x1="13.5156"  stroke-linecap="round" stroke-width="0.36"/>
                <line y2="40.252" x2="46.9644" y1="31.748" stroke="white" x1="46.9644"  stroke-linecap="round" stroke-width="0.36"/>
                <line y2="24.378" x2="43.8463" y1="24.378" stroke="white" x1="39.3108"  stroke-linecap="round" stroke-width="0.36"/>
                <line y2="47.622" x2="43.8463" y1="47.622" stroke="white" x1="39.3108"  stroke-linecap="round" stroke-width="0.36"/>
                <circle r="0.850392" cx="10.9644" stroke="white" fill="none"  stroke-width="1.728" cy="46.2047"/>
            </g>
        </g>
    </g>
    <g gorn="0.3" id="copper1" >
        <g gorn="0.3.0" id="copper0" >
            <circle r="4.26331" gorn="0.3.0.0" connectorname="P$1" cx="7.2" stroke="#F7BD13" id="connector49pad" fill="none"  stroke-width="1.44" cy="64.8"/>
            <circle r="4.26331" gorn="0.3.0.1" connectorname="P$1" cx="7.2" stroke="#F7BD13" id="connector47pad" fill="none"  stroke-width="1.44" cy="7.2"/>
            <circle r="1.96866" gorn="0.3.0.2" connectorname="VIN" cx="18" stroke="#F7BD13" id="connector14pad" fill="none"  stroke-width="1.10268" cy="64.8"/>
            <circle r="1.96866" gorn="0.3.0.3" connectorname="3.3V" cx="25.2" stroke="#F7BD13" id="connector15pad" fill="none"  stroke-width="1.10268" cy="64.8"/>
            <circle r="1.96866" gorn="0.3.0.4" connectorname="GND" cx="32.4" stroke="#F7BD13" id="connector16pad" fill="none"  stroke-width="1.10268" cy="64.8"/>
            <circle r="1.96866" gorn="0.3.0.5" connectorname="SDA" cx="39.6" stroke="#F7BD13" id="connector17pad" fill="none"  stroke-width="1.10268" cy="64.8"/>
            <circle r="1.96866" gorn="0.3.0.6" connectorname="SCL" cx="46.8" stroke="#F7BD13" id="connector18pad" fill="none"  stroke-width="1.10268" cy="64.8"/>
            <circle r="1.96866" gorn="0.3.0.7" connectorname="INT" cx="54" stroke="#F7BD13" id="connector19pad" fill="none"  stroke-width="1.10268" cy="64.8"/>
            <circle r="1.96866" gorn="0.3.0.8" connectorname="1" cx="18" stroke="#F7BD13" id="connector20pad" fill="none"  stroke-width="1.10268" cy="7.2"/>
            <circle r="1.96866" gorn="0.3.0.9" connectorname="2" cx="25.2" stroke="#F7BD13" id="connector21pad" fill="none"  stroke-width="1.10268" cy="7.2"/>
            <circle r="1.96866" gorn="0.3.0.10" connectorname="3" cx="32.4" stroke="#F7BD13" id="connector22pad" fill="none"  stroke-width="1.10268" cy="7.2"/>
            <circle r="4.26331" gorn="0.3.0.11" connectorname="P$1" cx="64.8" stroke="#F7BD13" id="connector46pad" fill="none"  stroke-width="1.44" cy="64.8"/>
            <circle r="1.96866" gorn="0.3.0.12" connectorname="4" cx="39.6" stroke="#F7BD13" id="connector23pad" fill="none"  stroke-width="1.10268" cy="7.2"/>
            <circle r="4.26331" gorn="0.3.0.13" connectorname="P$1" cx="64.8" stroke="#F7BD13" id="connector48pad" fill="none"  stroke-width="1.44" cy="7.2"/>
            <circle r="1.96866" gorn="0.3.0.14" connectorname="5" cx="46.8" stroke="#F7BD13" id="connector24pad" fill="none"  stroke-width="1.10268" cy="7.2"/>
            <circle r="1.96866" gorn="0.3.0.15" connectorname="6" cx="54" stroke="#F7BD13" id="connector25pad" fill="none"  stroke-width="1.10268" cy="7.2"/>
        </g>
    </g>
</svg>
