<?xml version='1.0' encoding='UTF-8' standalone='no'?>
<!-- Created with Fritzing (http://www.fritzing.org/) -->
<svg xmlns="http://www.w3.org/2000/svg" width="1.45in" version="1.2"  x="0in" y="0in" height="1.45in" baseProfile="tiny" viewBox="0 0 104.4 104.4">
    <desc >
        <referenceFile >Adafruit 12 NeoPixel Ring_pcb.svg</referenceFile>
    </desc>
    <desc >Fritzing footprint generated by brd2svg</desc>
    <g  id="silkscreen" gorn="0.2">
        <path fill="none" stroke-width="0.576" stroke="white" d="M0.288,52.2A51.912,51.912,0,0,1,52.2,0.288A51.912,51.912,0,0,1,104.112,52.2A51.912,51.912,0,0,1,52.2,104.112A51.912,51.912,0,0,1,0.288,52.2" />
        <g >
            <title >element:LED2</title>
            <g >
                <title >package:WS2812B-NARROW</title>
                <line stroke-linecap="round" stroke-width="0.36" stroke="white"  y1="25.7156" y2="18.629" x1="75.6742" x2="63.3995"/>
                <line stroke-linecap="round" stroke-width="0.36" stroke="white"  y1="18.629" y2="8.56404" x1="63.3995" x2="69.2105"/>
                <line stroke-linecap="round" stroke-width="0.36" stroke="white"  y1="8.56404" y2="6.35463" x1="69.2105" x2="70.4861"/>
                <line stroke-linecap="round" stroke-width="0.36" stroke="white"  y1="6.35463" y2="7.6302" x1="70.4861" x2="72.6955"/>
                <line stroke-linecap="round" stroke-width="0.36" stroke="white"  y1="7.6302" y2="13.4412" x1="72.6955" x2="82.7604"/>
                <line stroke-linecap="round" stroke-width="0.36" stroke="white"  y1="13.4412" y2="25.7156" x1="82.7604" x2="75.6742"/>
                <line stroke-linecap="round" stroke-width="0.36" stroke="white"  y1="8.56404" y2="7.6302" x1="69.2105" x2="72.6955"/>
                <line stroke-linecap="round" stroke-width="0.36" stroke="white"  y1="7.6302" y2="7.2671" x1="72.6955" x2="74.0506"/>
                <line stroke-linecap="round" stroke-width="0.36" stroke="white"  y1="7.2671" y2="5.52459" x1="74.0506" x2="73.584"/>
                <line stroke-linecap="round" stroke-width="0.36" stroke="white"  y1="5.52459" y2="6.35463" x1="73.584" x2="70.4861"/>
                <circle fill="none" r="4.8769" stroke-width="0.36" stroke="white"  cx="73.08" cy="16.0351"/>
            </g>
        </g>
        <g >
            <title >element:LED3</title>
            <g >
                <title >package:WS2812B-NARROW</title>
                <line stroke-linecap="round" stroke-width="0.36" stroke="white"  y1="41.0005" y2="28.7261" x1="85.7707" x2="78.6845"/>
                <line stroke-linecap="round" stroke-width="0.36" stroke="white"  y1="28.7261" y2="22.9151" x1="78.6845" x2="88.7494"/>
                <line stroke-linecap="round" stroke-width="0.36" stroke="white"  y1="22.9151" y2="21.6395" x1="88.7494" x2="90.959"/>
                <line stroke-linecap="round" stroke-width="0.36" stroke="white"  y1="21.6395" y2="23.8489" x1="90.959" x2="92.2342"/>
                <line stroke-linecap="round" stroke-width="0.36" stroke="white"  y1="23.8489" y2="33.9139" x1="92.2342" x2="98.0453"/>
                <line stroke-linecap="round" stroke-width="0.36" stroke="white"  y1="33.9139" y2="41.0005" x1="98.0453" x2="85.7707"/>
                <line stroke-linecap="round" stroke-width="0.36" stroke="white"  y1="22.9151" y2="23.8489" x1="88.7494" x2="92.2342"/>
                <line stroke-linecap="round" stroke-width="0.36" stroke="white"  y1="23.8489" y2="24.212" x1="92.2342" x2="93.5899"/>
                <line stroke-linecap="round" stroke-width="0.36" stroke="white"  y1="24.212" y2="22.4695" x1="93.5899" x2="94.0565"/>
                <line stroke-linecap="round" stroke-width="0.36" stroke="white"  y1="22.4695" y2="21.6395" x1="94.0565" x2="90.959"/>
                <circle fill="none" r="4.8769" stroke-width="0.36" stroke="white"  cx="88.3649" cy="31.32"/>
            </g>
        </g>
        <g >
            <title >element:LED5</title>
            <g >
                <title >package:WS2812B-NARROW</title>
                <line stroke-linecap="round" stroke-width="0.36" stroke="white"  y1="75.6742" y2="63.3995" x1="78.6845" x2="85.7707"/>
                <line stroke-linecap="round" stroke-width="0.36" stroke="white"  y1="63.3995" y2="69.2105" x1="85.7707" x2="95.8363"/>
                <line stroke-linecap="round" stroke-width="0.36" stroke="white"  y1="69.2105" y2="70.4861" x1="95.8363" x2="98.0453"/>
                <line stroke-linecap="round" stroke-width="0.36" stroke="white"  y1="70.4861" y2="72.6955" x1="98.0453" x2="96.7694"/>
                <line stroke-linecap="round" stroke-width="0.36" stroke="white"  y1="72.6955" y2="82.7604" x1="96.7694" x2="90.959"/>
                <line stroke-linecap="round" stroke-width="0.36" stroke="white"  y1="82.7604" y2="75.6742" x1="90.959" x2="78.6845"/>
                <line stroke-linecap="round" stroke-width="0.36" stroke="white"  y1="69.2105" y2="72.6955" x1="95.8363" x2="96.7694"/>
                <line stroke-linecap="round" stroke-width="0.36" stroke="white"  y1="72.6955" y2="74.0506" x1="96.7694" x2="97.133"/>
                <line stroke-linecap="round" stroke-width="0.36" stroke="white"  y1="74.0506" y2="73.584" x1="97.133" x2="98.8754"/>
                <line stroke-linecap="round" stroke-width="0.36" stroke="white"  y1="73.584" y2="70.4861" x1="98.8754" x2="98.0453"/>
                <circle fill="none" r="4.8769" stroke-width="0.36" stroke="white"  cx="88.3649" cy="73.08"/>
            </g>
        </g>
        <g >
            <title >element:LED6</title>
            <g >
                <title >package:WS2812B-NARROW</title>
                <line stroke-linecap="round" stroke-width="0.36" stroke="white"  y1="85.7707" y2="78.6845" x1="63.3995" x2="75.6742"/>
                <line stroke-linecap="round" stroke-width="0.36" stroke="white"  y1="78.6845" y2="88.7494" x1="75.6742" x2="81.4846"/>
                <line stroke-linecap="round" stroke-width="0.36" stroke="white"  y1="88.7494" y2="90.959" x1="81.4846" x2="82.7604"/>
                <line stroke-linecap="round" stroke-width="0.36" stroke="white"  y1="90.959" y2="92.2342" x1="82.7604" x2="80.5514"/>
                <line stroke-linecap="round" stroke-width="0.36" stroke="white"  y1="92.2342" y2="98.0453" x1="80.5514" x2="70.4861"/>
                <line stroke-linecap="round" stroke-width="0.36" stroke="white"  y1="98.0453" y2="85.7707" x1="70.4861" x2="63.3995"/>
                <line stroke-linecap="round" stroke-width="0.36" stroke="white"  y1="88.7494" y2="92.2342" x1="81.4846" x2="80.5514"/>
                <line stroke-linecap="round" stroke-width="0.36" stroke="white"  y1="92.2342" y2="93.5899" x1="80.5514" x2="80.1878"/>
                <line stroke-linecap="round" stroke-width="0.36" stroke="white"  y1="93.5899" y2="94.0565" x1="80.1878" x2="81.9302"/>
                <line stroke-linecap="round" stroke-width="0.36" stroke="white"  y1="94.0565" y2="90.959" x1="81.9302" x2="82.7604"/>
                <circle fill="none" r="4.8769" stroke-width="0.36" stroke="white"  cx="73.08" cy="88.3649"/>
            </g>
        </g>
        <g >
            <title >element:LED8</title>
            <g >
                <title >package:WS2812B-NARROW</title>
                <line stroke-linecap="round" stroke-width="0.36" stroke="white"  y1="78.6845" y2="85.7707" x1="28.7261" x2="41.0005"/>
                <line stroke-linecap="round" stroke-width="0.36" stroke="white"  y1="85.7707" y2="95.8363" x1="41.0005" x2="35.1895"/>
                <line stroke-linecap="round" stroke-width="0.36" stroke="white"  y1="95.8363" y2="98.0453" x1="35.1895" x2="33.9139"/>
                <line stroke-linecap="round" stroke-width="0.36" stroke="white"  y1="98.0453" y2="96.7694" x1="33.9139" x2="31.7045"/>
                <line stroke-linecap="round" stroke-width="0.36" stroke="white"  y1="96.7694" y2="90.959" x1="31.7045" x2="21.6395"/>
                <line stroke-linecap="round" stroke-width="0.36" stroke="white"  y1="90.959" y2="78.6845" x1="21.6395" x2="28.7261"/>
                <line stroke-linecap="round" stroke-width="0.36" stroke="white"  y1="95.8363" y2="96.7694" x1="35.1895" x2="31.7045"/>
                <line stroke-linecap="round" stroke-width="0.36" stroke="white"  y1="96.7694" y2="97.133" x1="31.7045" x2="30.3492"/>
                <line stroke-linecap="round" stroke-width="0.36" stroke="white"  y1="97.133" y2="98.8754" x1="30.3492" x2="30.8161"/>
                <line stroke-linecap="round" stroke-width="0.36" stroke="white"  y1="98.8754" y2="98.0453" x1="30.8161" x2="33.9139"/>
                <circle fill="none" r="4.8769" stroke-width="0.36" stroke="white"  cx="31.32" cy="88.3649"/>
            </g>
        </g>
        <g >
            <title >element:LED9</title>
            <g >
                <title >package:WS2812B-NARROW</title>
                <line stroke-linecap="round" stroke-width="0.36" stroke="white"  y1="63.3995" y2="75.6742" x1="18.629" x2="25.7156"/>
                <line stroke-linecap="round" stroke-width="0.36" stroke="white"  y1="75.6742" y2="81.4846" x1="25.7156" x2="15.6506"/>
                <line stroke-linecap="round" stroke-width="0.36" stroke="white"  y1="81.4846" y2="82.7604" x1="15.6506" x2="13.4412"/>
                <line stroke-linecap="round" stroke-width="0.36" stroke="white"  y1="82.7604" y2="80.5514" x1="13.4412" x2="12.1656"/>
                <line stroke-linecap="round" stroke-width="0.36" stroke="white"  y1="80.5514" y2="70.4861" x1="12.1656" x2="6.35463"/>
                <line stroke-linecap="round" stroke-width="0.36" stroke="white"  y1="70.4861" y2="63.3995" x1="6.35463" x2="18.629"/>
                <line stroke-linecap="round" stroke-width="0.36" stroke="white"  y1="81.4846" y2="80.5514" x1="15.6506" x2="12.1656"/>
                <line stroke-linecap="round" stroke-width="0.36" stroke="white"  y1="80.5514" y2="80.1878" x1="12.1656" x2="10.8104"/>
                <line stroke-linecap="round" stroke-width="0.36" stroke="white"  y1="80.1878" y2="81.9302" x1="10.8104" x2="10.3435"/>
                <line stroke-linecap="round" stroke-width="0.36" stroke="white"  y1="81.9302" y2="82.7604" x1="10.3435" x2="13.4412"/>
                <circle fill="none" r="4.8769" stroke-width="0.36" stroke="white"  cx="16.0351" cy="73.08"/>
            </g>
        </g>
        <g >
            <title >element:LED11</title>
            <g >
                <title >package:WS2812B-NARROW</title>
                <line stroke-linecap="round" stroke-width="0.36" stroke="white"  y1="28.7261" y2="41.0005" x1="25.7156" x2="18.629"/>
                <line stroke-linecap="round" stroke-width="0.36" stroke="white"  y1="41.0005" y2="35.1895" x1="18.629" x2="8.56404"/>
                <line stroke-linecap="round" stroke-width="0.36" stroke="white"  y1="35.1895" y2="33.9139" x1="8.56404" x2="6.35463"/>
                <line stroke-linecap="round" stroke-width="0.36" stroke="white"  y1="33.9139" y2="31.7045" x1="6.35463" x2="7.6302"/>
                <line stroke-linecap="round" stroke-width="0.36" stroke="white"  y1="31.7045" y2="21.6395" x1="7.6302" x2="13.4412"/>
                <line stroke-linecap="round" stroke-width="0.36" stroke="white"  y1="21.6395" y2="28.7261" x1="13.4412" x2="25.7156"/>
                <line stroke-linecap="round" stroke-width="0.36" stroke="white"  y1="35.1895" y2="31.7045" x1="8.56404" x2="7.6302"/>
                <line stroke-linecap="round" stroke-width="0.36" stroke="white"  y1="31.7045" y2="30.3492" x1="7.6302" x2="7.2671"/>
                <line stroke-linecap="round" stroke-width="0.36" stroke="white"  y1="30.3492" y2="30.8161" x1="7.2671" x2="5.52459"/>
                <line stroke-linecap="round" stroke-width="0.36" stroke="white"  y1="30.8161" y2="33.9139" x1="5.52459" x2="6.35463"/>
                <circle fill="none" r="4.8769" stroke-width="0.36" stroke="white"  cx="16.0351" cy="31.32"/>
            </g>
        </g>
        <g >
            <title >element:LED12</title>
            <g >
                <title >package:WS2812B-NARROW</title>
                <line stroke-linecap="round" stroke-width="0.36" stroke="white"  y1="18.629" y2="25.7156" x1="41.0005" x2="28.7261"/>
                <line stroke-linecap="round" stroke-width="0.36" stroke="white"  y1="25.7156" y2="15.6506" x1="28.7261" x2="22.9151"/>
                <line stroke-linecap="round" stroke-width="0.36" stroke="white"  y1="15.6506" y2="13.4412" x1="22.9151" x2="21.6395"/>
                <line stroke-linecap="round" stroke-width="0.36" stroke="white"  y1="13.4412" y2="12.1656" x1="21.6395" x2="23.8489"/>
                <line stroke-linecap="round" stroke-width="0.36" stroke="white"  y1="12.1656" y2="6.35463" x1="23.8489" x2="33.9139"/>
                <line stroke-linecap="round" stroke-width="0.36" stroke="white"  y1="6.35463" y2="18.629" x1="33.9139" x2="41.0005"/>
                <line stroke-linecap="round" stroke-width="0.36" stroke="white"  y1="15.6506" y2="12.1656" x1="22.9151" x2="23.8489"/>
                <line stroke-linecap="round" stroke-width="0.36" stroke="white"  y1="12.1656" y2="10.8104" x1="23.8489" x2="24.212"/>
                <line stroke-linecap="round" stroke-width="0.36" stroke="white"  y1="10.8104" y2="10.3435" x1="24.212" x2="22.4695"/>
                <line stroke-linecap="round" stroke-width="0.36" stroke="white"  y1="10.3435" y2="13.4412" x1="22.4695" x2="21.6395"/>
                <circle fill="none" r="4.8769" stroke-width="0.36" stroke="white"  cx="31.32" cy="16.0351"/>
            </g>
        </g>
    </g>
    <g  id="copper1" gorn="0.3">
        <g  id="copper0" gorn="0.3.0">
            <circle fill="none" r="1.98" stroke-width="1.08" connectorname="N$13" stroke="#F7BD13"  id="connector17pad" gorn="0.3.0.0" cx="64.8405" cy="5.03955"/>
            <circle fill="none" r="1.98" stroke-width="1.08" connectorname="N$14" stroke="#F7BD13"  id="connector18pad" gorn="0.3.0.1" cx="17.6077" cy="17.6054"/>
            <circle fill="none" r="1.98" stroke-width="1.08" connectorname="VDD" stroke="#F7BD13"  id="connector19pad" gorn="0.3.0.2" cx="39.5662" cy="99.3722"/>
            <circle fill="none" r="1.98" stroke-width="1.08" connectorname="GND" stroke="#F7BD13"  id="connector20pad" gorn="0.3.0.3" cx="86.8032" cy="86.8046"/>
        </g>
    </g>
</svg>
