<?xml version='1.0' encoding='UTF-8' standalone='no'?>
<!-- Created with Fritzing (http://www.fritzing.org/) -->
<svg xmlns="http://www.w3.org/2000/svg" viewBox="0 0 124.05 50.4" baseProfile="tiny"  y="0in" version="1.2" x="0in" height="0.7in" width="1.72291in">
    <desc>
        <referenceFile>Adafruit_Metro_Mini_pcb.svg</referenceFile>
    </desc>
    <desc >Fritzing footprint generated by brd2svg</desc>
    <g  gorn="0.1" id="silkscreen">
        <path d="M1.9301,5.98217A5.472,5.472,0,0,1,7.66339,0.288L118.028,0.288A5.472,5.472,0,0,1,123.762,5.98217L123.762,44.4178A5.472,5.472,0,0,1,118.028,50.112L7.66339,50.112A5.472,5.472,0,0,1,1.9301,44.4178L1.9301,32.3177L2.64676,31.6059L2.64676,18.0823L1.9301,17.3705L1.9301,5.98217M13.1856,19.6724a0.704126,0.704126,0,1,0,1.40826,0,0.704126,0.704126,0,1,0,-1.40826,0zM13.1856,30.7276a0.704126,0.704126,0,1,0,1.40826,0,0.704126,0.704126,0,1,0,-1.40826,0zM4.21965,5.4a2.83011,2.83011,0,1,0,5.66022,0,2.83011,2.83011,0,1,0,-5.66022,0zM4.21965,45a2.83011,2.83011,0,1,0,5.66022,0,2.83011,2.83011,0,1,0,-5.66022,0zM115.82,5.4a2.83011,2.83011,0,1,0,5.66022,0,2.83011,2.83011,0,1,0,-5.66022,0zM115.1,45a2.83011,2.83011,0,1,0,5.66022,0,2.83011,2.83011,0,1,0,-5.66022,0z"  fill="none" stroke-width="0.576" stroke="white"/>
        <g >
            <title >element:JP3</title>
            <g >
                <title >package:1X08_ROUND_70</title>
            </g>
        </g>
        <g >
            <title >element:JP4</title>
            <g >
                <title >package:1X08_ROUND_70</title>
            </g>
        </g>
        <g >
            <title >element:U$7</title>
            <g >
                <title >package:METROMINI_SILK</title>
            </g>
        </g>
        <g >
            <title >element:U2</title>
            <g >
                <title >package:MLF32-TH</title>
                <line  stroke-linecap="round" y1="25.6787" x1="104.069" y2="26.8813" x2="104.069" stroke-width="0.72" stroke="white"/>
                <line  stroke-linecap="round" y1="35.0994" x1="95.8514" y2="35.0994" x2="94.6483" stroke-width="0.72" stroke="white"/>
                <line  stroke-linecap="round" y1="26.8813" x1="86.4302" y2="25.6787" x2="86.4302" stroke-width="0.72" stroke="white"/>
                <line  stroke-linecap="round" y1="17.4606" x1="94.6483" y2="17.4606" x2="95.8514" stroke-width="0.72" stroke="white"/>
                <circle  r="0.425197" fill="none" cx="101.463" stroke-width="0.72" cy="26.28" stroke="white"/>
            </g>
        </g>
        <g >
            <title >element:X3</title>
            <g >
                <title >package:4UCONN_20329</title>
                <line  stroke-linecap="round" y1="18.1134" x1="17.0078" y2="20.3811" x2="17.0078" stroke-width="0.36" stroke="white"/>
                <line  stroke-linecap="round" y1="30.0189" x1="17.0078" y2="32.2866" x2="17.0078" stroke-width="0.36" stroke="white"/>
                <line  stroke-linecap="round" y1="14.4284" x1="4.25197" y2="14.4284" x2="1.70078" stroke-width="0.36" stroke="white"/>
                <line  stroke-linecap="round" y1="14.4284" x1="1.70078" y2="35.9716" x2="1.70078" stroke-width="0.36" stroke="white"/>
                <line  stroke-linecap="round" y1="35.9716" x1="1.70078" y2="35.9716" x2="4.25197" stroke-width="0.36" stroke="white"/>
            </g>
        </g>
        <line  y1="39.515" fill="none" x1="0.288" y2="39.515" x2="1.64976" stroke-width="0.576" stroke="white" fill-opacity="1"/>
        <line  y1="10.885" fill="none" x1="0.288" y2="10.885" x2="1.64976" stroke-width="0.576" stroke="white" fill-opacity="1"/>
        <line  y1="39.515" fill="none" x1="0.288" y2="10.885" x2="0.288" stroke-width="0.576" stroke="white" fill-opacity="1"/>
    </g>
    <g  gorn="0.2" id="copper1">
        <g  gorn="0.2.0" id="copper0">
            <circle  r="1.96866" gorn="0.2.0.0" id="connector22pad" fill="none" connectorname="AD5/SCL" cx="109.65" stroke-width="1.10268" cy="46.8" stroke="#F7BD13"/>
            <circle  r="1.96866" gorn="0.2.0.1" id="connector23pad" fill="none" connectorname="AD4/SDA" cx="102.45" stroke-width="1.10268" cy="46.8" stroke="#F7BD13"/>
            <circle  r="1.96866" gorn="0.2.0.2" id="connector24pad" fill="none" connectorname="AD3" cx="95.2495" stroke-width="1.10268" cy="46.8" stroke="#F7BD13"/>
            <circle  r="1.96866" gorn="0.2.0.3" id="connector25pad" fill="none" connectorname="AD2" cx="88.0495" stroke-width="1.10268" cy="46.8" stroke="#F7BD13"/>
            <circle  r="1.96866" gorn="0.2.0.4" id="connector26pad" fill="none" connectorname="AD1" cx="80.8495" stroke-width="1.10268" cy="46.8" stroke="#F7BD13"/>
            <circle  r="1.96866" gorn="0.2.0.5" id="connector27pad" fill="none" connectorname="AD0" cx="73.6495" stroke-width="1.10268" cy="46.8" stroke="#F7BD13"/>
            <circle  r="1.96866" gorn="0.2.0.6" id="connector28pad" fill="none" connectorname="IO13" cx="16.0497" stroke-width="1.10268" cy="3.6" stroke="#F7BD13"/>
            <circle  r="1.96866" gorn="0.2.0.7" id="connector29pad" fill="none" connectorname="IO12" cx="23.2497" stroke-width="1.10268" cy="3.6" stroke="#F7BD13"/>
            <circle  r="1.96866" gorn="0.2.0.8" id="connector30pad" fill="none" connectorname="IO11" cx="30.4497" stroke-width="1.10268" cy="3.6" stroke="#F7BD13"/>
            <circle  r="1.96866" gorn="0.2.0.9" id="connector31pad" fill="none" connectorname="IO10" cx="37.6497" stroke-width="1.10268" cy="3.6" stroke="#F7BD13"/>
            <circle  r="1.96866" gorn="0.2.0.10" id="connector32pad" fill="none" connectorname="IO9" cx="44.8497" stroke-width="1.10268" cy="3.6" stroke="#F7BD13"/>
            <circle  r="1.96866" gorn="0.2.0.11" id="connector33pad" fill="none" connectorname="IO8" cx="52.0497" stroke-width="1.10268" cy="3.6" stroke="#F7BD13"/>
            <circle  r="1.96866" gorn="0.2.0.12" id="connector34pad" fill="none" connectorname="IO7" cx="59.2497" stroke-width="1.10268" cy="3.6" stroke="#F7BD13"/>
            <circle  r="1.96866" gorn="0.2.0.13" id="connector35pad" fill="none" connectorname="IO6" cx="66.4497" stroke-width="1.10268" cy="3.6" stroke="#F7BD13"/>
            <circle  r="1.96866" gorn="0.2.0.14" id="connector36pad" fill="none" connectorname="IO5" cx="73.6495" stroke-width="1.10268" cy="3.6" stroke="#F7BD13"/>
            <circle  r="1.96866" gorn="0.2.0.15" id="connector37pad" fill="none" connectorname="IO4" cx="80.8495" stroke-width="1.10268" cy="3.6" stroke="#F7BD13"/>
            <circle  r="1.96866" gorn="0.2.0.16" id="connector38pad" fill="none" connectorname="IO3" cx="88.0495" stroke-width="1.10268" cy="3.6" stroke="#F7BD13"/>
            <circle  r="1.96866" gorn="0.2.0.17" id="connector39pad" fill="none" connectorname="IO2" cx="95.2495" stroke-width="1.10268" cy="3.6" stroke="#F7BD13"/>
            <circle  r="1.96866" gorn="0.2.0.18" id="connector40pad" fill="none" connectorname="IO1" cx="102.45" stroke-width="1.10268" cy="3.6" stroke="#F7BD13"/>
            <circle  r="1.96866" gorn="0.2.0.19" id="connector41pad" fill="none" connectorname="IO0" cx="109.65" stroke-width="1.10268" cy="3.6" stroke="#F7BD13"/>
            <circle  r="1.96866" gorn="0.2.0.20" id="connector42pad" fill="none" connectorname="VBUS" cx="16.0497" stroke-width="1.10268" cy="46.8" stroke="#F7BD13"/>
            <circle  r="1.96866" gorn="0.2.0.21" id="connector43pad" fill="none" connectorname="RESET" cx="23.2497" stroke-width="1.10268" cy="46.8" stroke="#F7BD13"/>
            <circle  r="1.96866" gorn="0.2.0.22" id="connector44pad" fill="none" connectorname="3.3V" cx="30.4497" stroke-width="1.10268" cy="46.8" stroke="#F7BD13"/>
            <circle  r="1.96866" gorn="0.2.0.23" id="connector45pad" fill="none" connectorname="+5V" cx="37.6497" stroke-width="1.10268" cy="46.8" stroke="#F7BD13"/>
            <circle  r="1.96866" gorn="0.2.0.24" id="connector46pad" fill="none" connectorname="GND" cx="44.8497" stroke-width="1.10268" cy="46.8" stroke="#F7BD13"/>
            <circle  r="1.96866" gorn="0.2.0.25" id="connector47pad" fill="none" connectorname="GND" cx="52.0497" stroke-width="1.10268" cy="46.8" stroke="#F7BD13"/>
            <circle  r="1.96866" gorn="0.2.0.26" id="connector48pad" fill="none" connectorname="VIN" cx="59.2497" stroke-width="1.10268" cy="46.8" stroke="#F7BD13"/>
            <circle  r="1.96866" gorn="0.2.0.27" id="connector49pad" fill="none" connectorname="AREF" cx="66.4497" stroke-width="1.10268" cy="46.8" stroke="#F7BD13"/>
        </g>
    </g>
</svg>
