<?xml version='1.0' encoding='UTF-8' standalone='no'?>
<!-- Created with Fritzing (http://www.fritzing.org/) -->
<svg xmlns="http://www.w3.org/2000/svg" width="1.49606in" baseProfile="tiny" viewBox="0 0 107.716 80.8106"  x="0in" height="1.12237in" y="0in" version="1.2">
    <desc >
        <referenceFile >Adafruit OLED Monochrome 128x64 0.96 inch_pcb.svg</referenceFile>
    </desc>
    <desc >Fritzing footprint generated by brd2svg</desc>
    <g  id="silkscreen" gorn="0.2">
        <path fill="none"  stroke="white" d="M11.5659,80.5226A11.0506,11.0505,0,0,1,0.288,69.2646L0.288,10.1619A10.3656,10.3655,0,0,1,11.5659,0.311427L96.1502,0.311427A11.0506,11.0505,0,0,1,107.428,11.5691L107.428,69.2646A11.0506,11.0505,0,0,1,96.1502,80.5226L11.5659,80.5226M31.0496,74.8801a0.278929,0.278927,0,1,0,0.557858,0,0.278929,0.278927,0,1,0,-0.557858,0zM76.4042,74.8801a0.278929,0.278927,0,1,0,0.557858,0,0.278929,0.278927,0,1,0,-0.557858,0z" stroke-width="0.576"/>
        <g >
            <title >element:JP1</title>
            <g >
                <title >package:1X08_ROUND_70</title>
            </g>
        </g>
        <g >
            <title >element:U1</title>
            <g >
                <title >package:UG-2864HSWEG01_0.96IN_WRAPAROUND</title>
                <line x2="91.8482"  stroke="white" stroke-linecap="round" stroke-width="0.36" y1="18.7265" y2="18.7265" x1="16.1546"/>
                <line x2="91.8482"  stroke="white" stroke-linecap="round" stroke-width="0.36" y1="18.7265" y2="73.3213" x1="91.8482"/>
                <line x2="16.1631"  stroke="white" stroke-linecap="round" stroke-width="0.36" y1="73.3213" y2="73.3213" x1="91.8482"/>
                <line x2="16.1546"  stroke="white" stroke-linecap="round" stroke-width="0.36" y1="73.3213" y2="18.7265" x1="16.1631"/>
            </g>
        </g>
    </g>
    <g  id="copper1" gorn="0.3">
        <g  id="copper0" gorn="0.3.0">
            <circle fill="none" r="1.96866"  stroke="#F7BD13" id="connector6pad" stroke-width="1.10268" gorn="0.3.0.0" cx="35.8582" cy="8.72589" connectorname="SCLK_SCK"/>
            <circle fill="none" r="1.96866"  stroke="#F7BD13" id="connector12pad" stroke-width="1.10268" gorn="0.3.0.1" cx="79.0582" cy="8.72589" connectorname="GND"/>
            <circle fill="none" r="4.03937"  stroke="#F7BD13" id="connector14pad" stroke-width="0.992124" gorn="0.3.0.2" cx="8.50392" cy="72.3061" connectorname="P$1"/>
            <circle fill="none" r="1.96866"  stroke="#F7BD13" id="connector7pad" stroke-width="1.10268" gorn="0.3.0.3" cx="43.0582" cy="8.72589" connectorname="DC_SA0"/>
            <circle fill="none" r="4.03937"  stroke="#F7BD13" id="connector16pad" stroke-width="0.992124" gorn="0.3.0.4" cx="8.50392" cy="8.52746" connectorname="P$1"/>
            <circle fill="none" r="1.96866"  stroke="#F7BD13" id="connector8pad" stroke-width="1.10268" gorn="0.3.0.5" cx="50.2582" cy="8.72589" connectorname="RESET"/>
            <circle fill="none" r="4.03937"  stroke="#F7BD13" id="connector13pad" stroke-width="0.992124" gorn="0.3.0.6" cx="99.2124" cy="8.52746" connectorname="P$1"/>
            <circle fill="none" r="1.96866"  stroke="#F7BD13" id="connector9pad" stroke-width="1.10268" gorn="0.3.0.7" cx="57.4582" cy="8.72589" connectorname="CS"/>
            <circle fill="none" r="4.03937"  stroke="#F7BD13" id="connector15pad" stroke-width="0.992124" gorn="0.3.0.8" cx="99.2124" cy="72.3061" connectorname="P$1"/>
            <circle fill="none" r="1.96866"  stroke="#F7BD13" id="connector10pad" stroke-width="1.10268" gorn="0.3.0.9" cx="64.6582" cy="8.72589" connectorname="3.3V"/>
            <circle fill="none" r="1.96866"  stroke="#F7BD13" id="connector11pad" stroke-width="1.10268" gorn="0.3.0.10" cx="71.8582" cy="8.72589" connectorname="VIN"/>
            <circle fill="none" r="1.96866"  stroke="#F7BD13" id="connector5pad" stroke-width="1.10268" gorn="0.3.0.11" cx="28.6582" cy="8.72589" connectorname="MOSI_SDA"/>
        </g>
    </g>
</svg>
