<?xml version='1.0' encoding='UTF-8' standalone='no'?>
<!-- Created with Fritzing (http://www.fritzing.org/) -->
<svg xmlns="http://www.w3.org/2000/svg" baseProfile="tiny"  width="0.7in" x="0in" y="0in" version="1.2" viewBox="0 0 50.4 50.4" height="0.7in">
    <desc>
        <referenceFile>Adafruit_BMP183_pcb.svg</referenceFile>
    </desc>
    <desc >Fritzing footprint generated by brd2svg</desc>
    <g  gorn="0.1" id="silkscreen">
        <path stroke="white"  d="M42.9943,50.112L7.4057,50.112A6.912,6.912,0,0,1,0.288,42.9943L0.288,7.4057A6.912,6.912,0,0,1,7.4057,0.288L42.9943,0.288A6.912,6.912,0,0,1,50.112,7.4057L50.112,42.9943A6.912,6.912,0,0,1,42.9943,50.112" stroke-width="0.576" fill="none"/>
        <g >
            <title >element:JP2</title>
            <g >
                <title >package:1X07_ROUND_70</title>
            </g>
        </g>
        <g >
            <title >element:U3</title>
            <g >
                <title >package:BMP18X_EXTENDED</title>
                <line x1="30.7276" stroke="white"  stroke-linecap="round" stroke-width="0.36" y2="27.411" y1="15.789" x2="30.7276"/>
                <line x1="30.7276" stroke="white"  stroke-linecap="round" stroke-width="0.36" y2="27.411" y1="27.411" x2="19.6724"/>
                <line x1="19.6724" stroke="white"  stroke-linecap="round" stroke-width="0.36" y2="15.789" y1="27.411" x2="19.6724"/>
                <line x1="19.6724" stroke="white"  stroke-linecap="round" stroke-width="0.36" y2="15.789" y1="15.789" x2="30.7276"/>
                <circle stroke="white" r="0.566929" cy="13.2378" cx="20.948"  stroke-width="0.992124" fill="none"/>
            </g>
        </g>
    </g>
    <g  gorn="0.2" id="copper1">
        <g  gorn="0.2.0" id="copper0">
            <circle connectorname="VIN" stroke="#F7BD13" r="1.96866" cy="43.2" cx="3.6"  gorn="0.2.0.0" stroke-width="1.10268" id="connector10pad" fill="none"/>
            <circle connectorname="+3V3" stroke="#F7BD13" r="1.96866" cy="43.2" cx="10.8"  gorn="0.2.0.1" stroke-width="1.10268" id="connector11pad" fill="none"/>
            <circle connectorname="GND" stroke="#F7BD13" r="1.96866" cy="43.2" cx="18"  gorn="0.2.0.2" stroke-width="1.10268" id="connector12pad" fill="none"/>
            <circle connectorname="SCK" stroke="#F7BD13" r="1.96866" cy="43.2" cx="25.2"  gorn="0.2.0.3" stroke-width="1.10268" id="connector13pad" fill="none"/>
            <circle connectorname="SDO" stroke="#F7BD13" r="1.96866" cy="43.2" cx="32.4"  gorn="0.2.0.4" stroke-width="1.10268" id="connector14pad" fill="none"/>
            <circle connectorname="SDI" stroke="#F7BD13" r="1.96866" cy="43.2" cx="39.6"  gorn="0.2.0.5" stroke-width="1.10268" id="connector15pad" fill="none"/>
            <circle connectorname="CS" stroke="#F7BD13" r="1.96866" cy="43.2" cx="46.8"  gorn="0.2.0.6" stroke-width="1.10268" id="connector16pad" fill="none"/>
        </g>
    </g>
</svg>
