<?xml version='1.0' encoding='UTF-8' standalone='no'?>
<!-- Created with Fritzing (http://www.fritzing.org/) -->
<svg xmlns="http://www.w3.org/2000/svg" baseProfile="tiny" version="1.2" viewBox="0 0 61.2 72" height="1in" y="0in"  x="0in" width="0.85in">
    <desc >
        <referenceFile >Adafruit PCF8523 RTC_pcb.svg</referenceFile>
    </desc>
    <desc >Fritzing footprint generated by brd2svg</desc>
    <g  gorn="0.2" id="silkscreen">
        <path stroke="white" d="M47.3607,0.288L53.7798,0.288A6.912,6.912,0,0,1,60.912,7.4304L60.912,64.5696A6.912,6.912,0,0,1,53.7798,71.712L7.42025,71.712A6.912,6.912,0,0,1,0.288,64.5696L0.288,7.4304A6.912,6.912,0,0,1,7.42025,0.288L16.6921,0.288L21.3787,4.98131A6.912,6.912,0,0,0,26.4221,7.07328L37.6309,7.07328A6.912,6.912,0,0,0,42.6741,4.98131L47.3607,0.288"  stroke-width="0.576" fill="none"/>
        <g >
            <title >element:B1</title>
            <g >
                <title >package:CR1220</title>
                <line y1="24.48" stroke="white" x1="3.24" stroke-linecap="round"  y2="24.48" stroke-width="0.576" x2="13.32"/>
                <line y1="24.48" stroke="white" x1="13.32" stroke-linecap="round"  y2="30.24" stroke-width="0.576" x2="13.32"/>
                <line y1="30.24" stroke="white" x1="13.32" stroke-linecap="round"  y2="38.16" stroke-width="0.576" x2="21.24"/>
                <line y1="38.16" stroke="white" x1="21.24" stroke-linecap="round"  y2="38.16" stroke-width="0.576" x2="42.84"/>
                <line y1="38.16" stroke="white" x1="42.84" stroke-linecap="round"  y2="30.24" stroke-width="0.576" x2="50.76"/>
                <line y1="30.24" stroke="white" x1="50.76" stroke-linecap="round"  y2="24.48" stroke-width="0.576" x2="50.76"/>
                <line y1="24.48" stroke="white" x1="50.76" stroke-linecap="round"  y2="24.48" stroke-width="0.576" x2="60.84"/>
                <line y1="24.48" stroke="white" x1="60.84" stroke-linecap="round"  y2="14.4" stroke-width="0.576" x2="60.84"/>
                <line y1="14.4" stroke="white" x1="60.84" stroke-linecap="round"  y2="14.4" stroke-width="0.576" x2="50.76"/>
                <line y1="14.4" stroke="white" x1="50.76" stroke-linecap="round"  y2="0.72" stroke-width="0.576" x2="50.76"/>
                <line y1="0.72" stroke="white" x1="13.32" stroke-linecap="round"  y2="14.4" stroke-width="0.576" x2="13.32"/>
                <line y1="14.4" stroke="white" x1="13.32" stroke-linecap="round"  y2="14.4" stroke-width="0.576" x2="3.24"/>
                <line y1="14.4" stroke="white" x1="3.24" stroke-linecap="round"  y2="24.48" stroke-width="0.576" x2="3.24"/>
            </g>
        </g>
        <g >
            <title >element:IC1</title>
            <g >
                <title >package:SOIC8_150MIL</title>
                <line y1="54.3231" stroke="white" x1="27.3458" stroke-linecap="round"  y2="54.3231" stroke-width="0.576" x2="16.5742"/>
                <line y1="40.7169" stroke="white" x1="16.5742" stroke-linecap="round"  y2="40.7169" stroke-width="0.576" x2="27.3458"/>
                <circle stroke="white" cx="24.48" r="0.72" cy="52.992"  stroke-width="0.576" fill="none"/>
            </g>
        </g>
        <g >
            <title >element:Q1</title>
            <g >
                <title >package:CRYSTAL_8X3.8</title>
                <line y1="45.0907" stroke="white" x1="35.2318" stroke-linecap="round"  y2="45.0907" stroke-width="0.576" x2="34.098"/>
                <line y1="45.0907" stroke="white" x1="34.098" stroke-linecap="round"  y2="56.4293" stroke-width="0.576" x2="34.098"/>
                <line y1="56.4293" stroke="white" x1="34.098" stroke-linecap="round"  y2="56.4293" stroke-width="0.576" x2="35.2318"/>
                <line y1="56.4293" stroke="white" x1="40.6176" stroke-linecap="round"  y2="56.4293" stroke-width="0.576" x2="50.8224"/>
                <line y1="45.0907" stroke="white" x1="40.6176" stroke-linecap="round"  y2="45.0907" stroke-width="0.576" x2="50.8224"/>
                <line y1="45.0907" stroke="white" x1="56.2082" stroke-linecap="round"  y2="45.0907" stroke-width="0.576" x2="57.342"/>
                <line y1="45.0907" stroke="white" x1="57.342" stroke-linecap="round"  y2="56.4293" stroke-width="0.576" x2="57.342"/>
                <line y1="56.4293" stroke="white" x1="57.342" stroke-linecap="round"  y2="56.4293" stroke-width="0.576" x2="56.2082"/>
                <circle stroke="white" cx="55.296" r="0.916409" cy="50.688"  stroke-width="0.864" fill="none"/>
            </g>
        </g>
    </g>
    <g  gorn="0.3" id="copper1">
        <g  gorn="0.3.0" id="copper0">
            <circle stroke="#F7BD13" cx="54" r="3.83811" connectorname="P$1" cy="64.8"  gorn="0.3.0.0" stroke-width="1.44" fill="none" id="connector33pad"/>
            <circle stroke="#F7BD13" cx="10.8" r="2.07666" connectorname="GND" cy="64.8"  gorn="0.3.0.1" stroke-width="1.31868" fill="none" id="connector21pad"/>
            <circle stroke="#F7BD13" cx="25.2" r="2.07666" connectorname="SDA" cy="64.8"  gorn="0.3.0.2" stroke-width="1.31868" fill="none" id="connector19pad"/>
            <circle stroke="#F7BD13" cx="32.4" r="2.07666" connectorname="SCL" cy="64.8"  gorn="0.3.0.3" stroke-width="1.31868" fill="none" id="connector18pad"/>
            <circle stroke="#F7BD13" cx="18" r="2.07666" connectorname="VCC" cy="64.8"  gorn="0.3.0.4" stroke-width="1.31868" fill="none" id="connector20pad"/>
            <circle stroke="#F7BD13" cx="7.2" r="3.83811" connectorname="P$1" cy="7.2"  gorn="0.3.0.5" stroke-width="1.44" fill="none" id="connector32pad"/>
            <circle stroke="#F7BD13" cx="39.6" r="2.07666" connectorname="SQW" cy="64.8"  gorn="0.3.0.6" stroke-width="1.31868" fill="none" id="connector17pad"/>
        </g>
    </g>
</svg>
