<?xml version='1.0' encoding='UTF-8' standalone='no'?>
<!-- Created with Fritzing (http://www.fritzing.org/) -->
<svg xmlns="http://www.w3.org/2000/svg"  baseProfile="tiny" version="1.2" height="1.07291in" y="0in" width="0.6in" x="0in" viewBox="0 0 43.2 77.2495">
    <desc>
        <referenceFile>Adafruit Trinket M0_pcb.svg</referenceFile>
    </desc>
    <desc >Fritzing footprint generated by brd2svg</desc>
    <g  gorn="0.1" id="silkscreen">
        <path  d="M42.912,5.49862L42.912,70.53L40.7808,72.6739L31.5456,72.6739L27.2832,76.9615L7.39202,76.9615L2.4192,71.9593L0.288,71.9593L0.288,5.49862A3.312,3.312,0,0,1,3.84,1.92546L13.7856,1.92546L14.8512,2.99741L28.3488,2.99741L29.4144,1.92546L39.36,1.92546A3.312,3.312,0,0,1,42.912,5.49862M26.4234,13.8897a0.704126,0.704126,0,1,0,1.40826,0,0.704126,0.704126,0,1,0,-1.40826,0zM15.3683,13.8897a0.704126,0.704126,0,1,0,1.40826,0,0.704126,0.704126,0,1,0,-1.40826,0zM1.48989,20.0097a2.83011,2.83011,0,1,0,5.66022,0,2.83011,2.83011,0,1,0,-5.66022,0zM36.0499,20.0097a2.83011,2.83011,0,1,0,5.66022,0,2.83011,2.83011,0,1,0,-5.66022,0z" fill="none" stroke="white" stroke-width="0.576"/>
        <g >
            <title >element:BAT</title>
            <g >
                <title >package:JSTPH2</title>
            </g>
        </g>
        <g >
            <title >element:CN1</title>
            <g >
                <title >package:4UCONN_20329_V2</title>
                <line  stroke-linecap="round" y2="17.0078" stroke="white" y1="17.0078" x1="28.6866" stroke-width="0.36" x2="26.4189"/>
                <line  stroke-linecap="round" y2="17.0078" stroke="white" y1="17.0078" x1="16.7811" stroke-width="0.36" x2="14.5134"/>
                <line  stroke-linecap="round" y2="1.70078" stroke="white" y1="4.25197" x1="32.3716" stroke-width="0.36" x2="32.3716"/>
                <line  stroke-linecap="round" y2="1.70078" stroke="white" y1="1.70078" x1="32.3716" stroke-width="0.36" x2="10.8284"/>
                <line  stroke-linecap="round" y2="4.25197" stroke="white" y1="1.70078" x1="10.8284" stroke-width="0.36" x2="10.8284"/>
            </g>
        </g>
        <g >
            <title >element:IC3</title>
            <g >
                <title >package:QFN32_5MM</title>
                <line  stroke-linecap="round" y2="36.7065" stroke="white" y1="35.0058" x1="16.9849" stroke-width="0.36" x2="16.9849"/>
                <line  stroke-linecap="round" y2="36.7065" stroke="white" y1="36.7065" x1="16.9849" stroke-width="0.36" x2="18.6857"/>
                <line  stroke-linecap="round" y2="21.3994" stroke="white" y1="23.1002" x1="16.9849" stroke-width="0.36" x2="16.9849"/>
                <line  stroke-linecap="round" y2="21.3994" stroke="white" y1="21.3994" x1="16.9849" stroke-width="0.36" x2="18.6857"/>
                <line  stroke-linecap="round" y2="36.7065" stroke="white" y1="36.7065" x1="30.5911" stroke-width="0.36" x2="32.2919"/>
                <line  stroke-linecap="round" y2="35.0058" stroke="white" y1="36.7065" x1="32.2919" stroke-width="0.36" x2="32.2919"/>
                <line  stroke-linecap="round" y2="21.3994" stroke="white" y1="21.3994" x1="30.5911" stroke-width="0.36" x2="32.2919"/>
                <line  stroke-linecap="round" y2="23.1002" stroke="white" y1="21.3994" x1="32.2919" stroke-width="0.36" x2="32.2919"/>
            </g>
        </g>
        <g >
            <title >element:U$1</title>
            <g >
                <title >package:TRINKET_M0_BOTTOM</title>
            </g>
        </g>
        <g >
            <title >element:U$20</title>
            <g >
                <title >package:TRINKET_M0_TOP</title>
            </g>
        </g>
        <line  fill="none" y2="0.288" stroke="white" y1="0.288" fill-opacity="1" x1="7.28503" stroke-width="0.576" x2="35.915"/>
        <line  fill="none" y2="0.288" stroke="white" y1="1.64976" fill-opacity="1" x1="7.28503" stroke-width="0.576" x2="7.28503"/>
        <line  fill="none" y2="0.288" stroke="white" y1="1.64976" fill-opacity="1" x1="35.915" stroke-width="0.576" x2="35.915"/>
    </g>
    <g  gorn="0.2" id="copper1">
        <g  gorn="0.2.0" id="copper0">
            <circle  fill="none" cy="26.8497" gorn="0.2.0.0" id="connector65pad" r="2.07666" connectorname="VBUS" stroke="#F7BD13" cx="39.6" stroke-width="1.31868"/>
            <circle  fill="none" cy="34.0497" gorn="0.2.0.1" id="connector57pad" r="2.07666" connectorname="GND" stroke="#F7BD13" cx="3.672" stroke-width="1.31868"/>
            <circle  fill="none" cy="55.6497" gorn="0.2.0.2" id="connector61pad" r="2.07666" connectorname="3.3V" stroke="#F7BD13" cx="39.6" stroke-width="1.31868"/>
            <circle  fill="none" cy="66.4497" gorn="0.2.0.3" id="connector85pad" r="3.83811" connectorname="P$1" stroke="#F7BD13" cx="5.4" stroke-width="1.44"/>
            <circle  fill="none" cy="48.4497" gorn="0.2.0.4" id="connector59pad" r="2.07666" connectorname="D3_A3_PA07_RXD_SCK" stroke="#F7BD13" cx="3.672" stroke-width="1.31868"/>
            <circle  fill="none" cy="41.2497" gorn="0.2.0.5" id="connector63pad" r="2.07666" connectorname="D1_A0_PA02" stroke="#F7BD13" cx="39.6" stroke-width="1.31868"/>
            <circle  fill="none" cy="26.8497" gorn="0.2.0.6" id="connector56pad" r="2.07666" connectorname="VBAT" stroke="#F7BD13" cx="3.672" stroke-width="1.31868"/>
            <circle  fill="none" cy="41.2497" gorn="0.2.0.7" id="connector58pad" r="2.07666" connectorname="D4_A2_PA06_TXD_MOSI" stroke="#F7BD13" cx="3.672" stroke-width="1.31868"/>
            <circle  fill="none" cy="55.6497" gorn="0.2.0.8" id="connector60pad" r="2.07666" connectorname="!RESET" stroke="#F7BD13" cx="3.672" stroke-width="1.31868"/>
            <circle  fill="none" cy="48.4497" gorn="0.2.0.9" id="connector62pad" r="2.07666" connectorname="D2_A1_PA09_SCL_MISO" stroke="#F7BD13" cx="39.6" stroke-width="1.31868"/>
            <circle  fill="none" cy="34.0497" gorn="0.2.0.10" id="connector64pad" r="2.07666" connectorname="D0_A4_PA08_SDA" stroke="#F7BD13" cx="39.6" stroke-width="1.31868"/>
            <circle  fill="none" cy="66.4497" gorn="0.2.0.11" id="connector86pad" r="3.83811" connectorname="P$1" stroke="#F7BD13" cx="37.8" stroke-width="1.44"/>
        </g>
    </g>
</svg>
