<?xml version='1.0' encoding='UTF-8' standalone='no'?>
<!-- Created with Fritzing (http://www.fritzing.org/) -->
<svg xmlns="http://www.w3.org/2000/svg"  y="0in" version="1.2" baseProfile="tiny" viewBox="0 0 102.09 50.4" width="1.41791in" height="0.7in" x="0in">
    <desc >
        <referenceFile >Itsy Bitsy 32u4 3V rev B_pcb.svg</referenceFile>
    </desc>
    <desc >Fritzing footprint generated by brd2svg</desc>
    <g  id="silkscreen" gorn="0.2">
        <path  fill="none" stroke-width="0.576" stroke="white" d="M1.57049,33.7413L3.00236,32.3177L3.00236,18.0823L1.57049,16.6587L1.57049,3.84686A3.312,3.312,0,0,1,5.15017,0.288L98.2224,0.288A3.312,3.312,0,0,1,101.802,3.84686L101.802,46.5531A3.312,3.312,0,0,1,98.2224,50.112L5.15017,50.112A3.312,3.312,0,0,1,1.57049,46.5531L1.57049,33.7413M13.1856,19.6724a0.704126,0.704126,0,1,0,1.40826,0,0.704126,0.704126,0,1,0,-1.40826,0zM13.1856,30.7276a0.704126,0.704126,0,1,0,1.40826,0,0.704126,0.704126,0,1,0,-1.40826,0z"/>
        <g >
            <title >element:IC1</title>
            <g >
                <title >package:TQFN44_7MM</title>
                <line  y1="22.8765" stroke-linecap="round" x2="41.9381" stroke-width="0.36" x1="43.5416" stroke="white" y2="24.48"/>
                <line  y1="24.48" stroke-linecap="round" x2="43.5416" stroke-width="0.36" x1="41.9381" stroke="white" y2="26.0835"/>
                <line  y1="11.6518" stroke-linecap="round" x2="56.3697" stroke-width="0.36" x1="54.7662" stroke="white" y2="10.0483"/>
                <line  y1="10.0483" stroke-linecap="round" x2="57.9732" stroke-width="0.36" x1="56.3697" stroke="white" y2="11.6518"/>
                <line  y1="37.3082" stroke-linecap="round" x2="56.3697" stroke-width="0.36" x1="54.7662" stroke="white" y2="38.9117"/>
                <line  y1="38.9117" stroke-linecap="round" x2="57.9732" stroke-width="0.36" x1="56.3697" stroke="white" y2="37.3082"/>
                <line  y1="22.8765" stroke-linecap="round" x2="70.8014" stroke-width="0.36" x1="69.1979" stroke="white" y2="24.48"/>
                <line  y1="24.48" stroke-linecap="round" x2="69.1979" stroke-width="0.36" x1="70.8014" stroke="white" y2="26.0835"/>
                <circle  cx="56.478" r="0.36" fill="none" cy="40.1344" stroke-width="1.152" stroke="white"/>
            </g>
        </g>
        <g >
            <title >element:JP2</title>
            <g >
                <title >package:1X14_ROUND70</title>
            </g>
        </g>
        <g >
            <title >element:JP4</title>
            <g >
                <title >package:1X14_ROUND70</title>
            </g>
        </g>
        <g >
            <title >element:X3</title>
            <g >
                <title >package:4UCONN_20329_V2</title>
                <line  y1="18.1134" stroke-linecap="round" x2="17.0078" stroke-width="0.36" x1="17.0078" stroke="white" y2="20.3811"/>
                <line  y1="30.0189" stroke-linecap="round" x2="17.0078" stroke-width="0.36" x1="17.0078" stroke="white" y2="32.2866"/>
                <line  y1="14.4284" stroke-linecap="round" x2="1.70078" stroke-width="0.36" x1="4.25197" stroke="white" y2="14.4284"/>
                <line  y1="14.4284" stroke-linecap="round" x2="1.70078" stroke-width="0.36" x1="1.70078" stroke="white" y2="35.9716"/>
                <line  y1="35.9716" stroke-linecap="round" x2="4.25197" stroke-width="0.36" x1="1.70078" stroke="white" y2="35.9716"/>
            </g>
        </g>
        <line  y1="39.515" fill="none" fill-opacity="1" x2="1.28976" stroke-width="0.576" x1="0.288" stroke="white" y2="39.515"/>
        <line  y1="10.885" fill="none" fill-opacity="1" x2="1.28976" stroke-width="0.576" x1="0.288" stroke="white" y2="10.885"/>
        <line  y1="39.515" fill="none" fill-opacity="1" x2="0.288" stroke-width="0.576" x1="0.288" stroke="white" y2="10.885"/>
    </g>
    <g  id="copper1" gorn="0.3">
        <g  id="copper0" gorn="0.3.0">
            <circle  cx="91.2895" r="1.89666" id="connector86pad" fill="none" gorn="0.3.0.0" cy="3.6" stroke-width="0.95868" connectorname="D1" stroke="#F7BD13"/>
            <circle  cx="33.6897" r="1.89666" id="connector78pad" fill="none" gorn="0.3.0.1" cy="3.6" stroke-width="0.95868" connectorname="D12" stroke="#F7BD13"/>
            <circle  cx="55.2897" r="1.89666" id="connector94pad" fill="none" gorn="0.3.0.2" cy="46.8" stroke-width="0.95868" connectorname="A3" stroke="#F7BD13"/>
            <circle  cx="4.88976" r="1.89666" id="connector74pad" fill="none" gorn="0.3.0.3" cy="3.6" stroke-width="0.95868" connectorname="VBAT" stroke="#F7BD13"/>
            <circle  cx="62.4897" r="1.89666" id="connector82pad" fill="none" gorn="0.3.0.4" cy="3.6" stroke-width="0.95868" connectorname="D7" stroke="#F7BD13"/>
            <circle  cx="84.0895" r="1.89666" id="connector90pad" fill="none" gorn="0.3.0.5" cy="46.8" stroke-width="0.95868" connectorname="MOSI" stroke="#F7BD13"/>
            <circle  cx="26.4897" r="1.89666" id="connector98pad" fill="none" gorn="0.3.0.6" cy="46.8" stroke-width="0.95868" connectorname="VMAX" stroke="#F7BD13"/>
            <circle  cx="98.4895" r="1.89666" id="connector72pad" fill="none" gorn="0.3.0.7" cy="32.4" stroke-width="0.95868" connectorname="GND" stroke="#F7BD13"/>
            <circle  cx="19.2897" r="1.89666" id="connector76pad" fill="none" gorn="0.3.0.8" cy="3.6" stroke-width="0.95868" connectorname="VBUS" stroke="#F7BD13"/>
            <circle  cx="48.0897" r="1.89666" id="connector80pad" fill="none" gorn="0.3.0.9" cy="3.6" stroke-width="0.95868" connectorname="D10" stroke="#F7BD13"/>
            <circle  cx="76.8895" r="1.89666" id="connector84pad" fill="none" gorn="0.3.0.10" cy="3.6" stroke-width="0.95868" connectorname="SCL" stroke="#F7BD13"/>
            <circle  cx="98.4895" r="1.89666" id="connector88pad" fill="none" gorn="0.3.0.11" cy="46.8" stroke-width="0.95868" connectorname="GND" stroke="#F7BD13"/>
            <circle  cx="69.6897" r="1.89666" id="connector92pad" fill="none" gorn="0.3.0.12" cy="46.8" stroke-width="0.95868" connectorname="A5" stroke="#F7BD13"/>
            <circle  cx="40.8897" r="1.89666" id="connector96pad" fill="none" gorn="0.3.0.13" cy="46.8" stroke-width="0.95868" connectorname="A1" stroke="#F7BD13"/>
            <circle  cx="12.0897" r="1.89666" id="connector100pad" fill="none" gorn="0.3.0.14" cy="46.8" stroke-width="0.95868" connectorname="+3V3" stroke="#F7BD13"/>
            <circle  cx="98.4895" r="1.89666" id="connector73pad" fill="none" gorn="0.3.0.15" cy="39.6" stroke-width="0.95868" connectorname="EN" stroke="#F7BD13"/>
            <circle  cx="12.0897" r="1.89666" id="connector75pad" fill="none" gorn="0.3.0.16" cy="3.6" stroke-width="0.95868" connectorname="GND" stroke="#F7BD13"/>
            <circle  cx="26.4897" r="1.89666" id="connector77pad" fill="none" gorn="0.3.0.17" cy="3.6" stroke-width="0.95868" connectorname="D13" stroke="#F7BD13"/>
            <circle  cx="40.8897" r="1.89666" id="connector79pad" fill="none" gorn="0.3.0.18" cy="3.6" stroke-width="0.95868" connectorname="D11" stroke="#F7BD13"/>
            <circle  cx="55.2897" r="1.89666" id="connector81pad" fill="none" gorn="0.3.0.19" cy="3.6" stroke-width="0.95868" connectorname="D9" stroke="#F7BD13"/>
            <circle  cx="69.6897" r="1.89666" id="connector83pad" fill="none" gorn="0.3.0.20" cy="3.6" stroke-width="0.95868" connectorname="D5_OUT" stroke="#F7BD13"/>
            <circle  cx="84.0895" r="1.89666" id="connector85pad" fill="none" gorn="0.3.0.21" cy="3.6" stroke-width="0.95868" connectorname="SDA" stroke="#F7BD13"/>
            <circle  cx="98.4895" r="1.89666" id="connector87pad" fill="none" gorn="0.3.0.22" cy="3.6" stroke-width="0.95868" connectorname="D0" stroke="#F7BD13"/>
            <circle  cx="91.2895" r="1.89666" id="connector89pad" fill="none" gorn="0.3.0.23" cy="46.8" stroke-width="0.95868" connectorname="MISO" stroke="#F7BD13"/>
            <circle  cx="76.8895" r="1.89666" id="connector91pad" fill="none" gorn="0.3.0.24" cy="46.8" stroke-width="0.95868" connectorname="SCK" stroke="#F7BD13"/>
            <circle  cx="62.4897" r="1.89666" id="connector93pad" fill="none" gorn="0.3.0.25" cy="46.8" stroke-width="0.95868" connectorname="A4" stroke="#F7BD13"/>
            <circle  cx="48.0897" r="1.89666" id="connector95pad" fill="none" gorn="0.3.0.26" cy="46.8" stroke-width="0.95868" connectorname="A2" stroke="#F7BD13"/>
            <circle  cx="33.6897" r="1.89666" id="connector97pad" fill="none" gorn="0.3.0.27" cy="46.8" stroke-width="0.95868" connectorname="A0" stroke="#F7BD13"/>
            <circle  cx="19.2897" r="1.89666" id="connector99pad" fill="none" gorn="0.3.0.28" cy="46.8" stroke-width="0.95868" connectorname="AREF" stroke="#F7BD13"/>
            <circle  cx="4.88976" r="1.89666" id="connector101pad" fill="none" gorn="0.3.0.29" cy="46.8" stroke-width="0.95868" connectorname="RST" stroke="#F7BD13"/>
            <circle  cx="98.4895" r="1.89666" id="connector69pad" fill="none" gorn="0.3.0.30" cy="10.8" stroke-width="0.95868" connectorname="D4" stroke="#F7BD13"/>
            <circle  cx="98.4895" r="1.89666" id="connector70pad" fill="none" gorn="0.3.0.31" cy="18" stroke-width="0.95868" connectorname="D6" stroke="#F7BD13"/>
            <circle  cx="98.4895" r="1.89666" id="connector71pad" fill="none" gorn="0.3.0.32" cy="25.2" stroke-width="0.95868" connectorname="D8" stroke="#F7BD13"/>
        </g>
    </g>
</svg>
