<?xml version='1.0' encoding='UTF-8' standalone='no'?>
<!-- Created with Fritzing (http://www.fritzing.org/) -->
<svg xmlns="http://www.w3.org/2000/svg" viewBox="0 0 153.799 82.08" width="2.1361in" baseProfile="tiny" y="0in"  version="1.2" x="0in" height="1.14in">
    <desc>
        <referenceFile>Adafruit USB Serial Char LCD Backpack_pcb.svg</referenceFile>
    </desc>
    <desc >Fritzing footprint generated by brd2svg</desc>
    <g gorn="0.1"  id="silkscreen">
        <path d="M1.44303,81.792L1.44303,0.288L153.511,0.288L153.511,81.792L1.44303,81.792M14.7447,12.4838a1.12932,1.12932,0,1,0,2.25865,0,1.12932,1.12932,0,1,0,-2.25865,0zM14.7447,24.9562a1.12932,1.12932,0,1,0,2.25865,0,1.12932,1.12932,0,1,0,-2.25865,0zM4.00422,74.7806a4.24743,4.24743,0,1,0,8.49485,0,4.24743,4.24743,0,1,0,-8.49485,0z" fill="none" stroke-width="0.576" stroke="white" />
        <g >
            <title >element:CN1</title>
            <g >
                <title >package:USB-MINIB_LARGER</title>
                <line y2="15.7771" stroke-width="0.288" stroke="white" y1="15.7768" x1="3.10082"  stroke-linecap="round" x2="3.10082"/>
                <line y2="7.6649" stroke-width="0.36" stroke="white" y1="7.6649" x1="11.3386"  stroke-linecap="round" x2="18.9922"/>
                <line y2="29.7751" stroke-width="0.36" stroke="white" y1="29.7751" x1="18.9922"  stroke-linecap="round" x2="11.3386"/>
                <line y2="12.7673" stroke-width="0.36" stroke="white" y1="9.64915" x1="26.0788"  stroke-linecap="round" x2="26.0788"/>
                <line y2="27.7908" stroke-width="0.36" stroke="white" y1="24.6727" x1="26.0788"  stroke-linecap="round" x2="26.0788"/>
            </g>
        </g>
        <g >
            <title >element:CN3</title>
            <g >
                <title >package:JSTPH3</title>
                <line y2="43.7074" stroke-width="0.36" stroke="white" y1="62.1326" x1="3.50078"  stroke-linecap="round" x2="3.50078"/>
                <line y2="38.7468" stroke-width="0.36" stroke="white" y1="38.7468" x1="13.422"  stroke-linecap="round" x2="24.7607"/>
                <line y2="41.1562" stroke-width="0.36" stroke="white" y1="38.7468" x1="24.7607"  stroke-linecap="round" x2="24.7607"/>
                <line y2="41.1562" stroke-width="0.36" stroke="white" y1="41.1562" x1="24.7607"  stroke-linecap="round" x2="17.674"/>
                <line y2="50.794" stroke-width="0.36" stroke="white" y1="41.1562" x1="17.674"  stroke-linecap="round" x2="17.674"/>
                <line y2="64.6838" stroke-width="0.36" stroke="white" y1="60.7153" x1="17.674"  stroke-linecap="round" x2="17.674"/>
                <line y2="64.6838" stroke-width="0.36" stroke="white" y1="64.6838" x1="17.674"  stroke-linecap="round" x2="24.7607"/>
                <line y2="67.0932" stroke-width="0.36" stroke="white" y1="64.6838" x1="24.7607"  stroke-linecap="round" x2="24.7607"/>
                <line y2="67.0932" stroke-width="0.36" stroke="white" y1="67.0932" x1="24.7607"  stroke-linecap="round" x2="13.422"/>
            </g>
        </g>
        <g >
            <title >element:IC2</title>
            <g >
                <title >package:TQFP32-08</title>
                <line y2="26.0646" stroke-width="0.432" stroke="white" y1="26.0646" x1="63.2239"  stroke-linecap="round" x2="83.0945"/>
                <line y2="45.9354" stroke-width="0.432" stroke="white" y1="26.0646" x1="83.0945"  stroke-linecap="round" x2="83.0945"/>
                <line y2="45.9354" stroke-width="0.432" stroke="white" y1="45.9354" x1="83.0945"  stroke-linecap="round" x2="64.2303"/>
                <line y2="26.0646" stroke-width="0.432" stroke="white" y1="44.9292" x1="63.2239"  stroke-linecap="round" x2="63.2239"/>
                <line y2="45.9354" stroke-width="0.432" stroke="white" y1="44.9292" x1="63.2239"  stroke-linecap="round" x2="64.2303"/>
                <circle fill="none" stroke-width="0.432" r="1.0182" stroke="white"  cy="43.776" cx="65.3833"/>
            </g>
        </g>
        <g >
            <title >element:ISP6</title>
            <g >
                <title >package:ISP6</title>
                <line y2="65.245" stroke-width="0.36" stroke="white" y1="22.045" x1="152.385"  stroke-linecap="round" x2="152.385"/>
                <line y2="65.245" stroke-width="0.36" stroke="white" y1="65.245" x1="152.385"  stroke-linecap="round" x2="126.465"/>
                <line y2="46.525" stroke-width="0.36" stroke="white" y1="65.245" x1="126.465"  stroke-linecap="round" x2="126.465"/>
                <line y2="22.045" stroke-width="0.36" stroke="white" y1="40.045" x1="126.465"  stroke-linecap="round" x2="126.465"/>
                <line y2="22.045" stroke-width="0.36" stroke="white" y1="22.045" x1="126.465"  stroke-linecap="round" x2="152.385"/>
                <line y2="63.085" stroke-width="0.36" stroke="white" y1="24.205" x1="150.225"  stroke-linecap="round" x2="150.225"/>
                <line y2="63.085" stroke-width="0.36" stroke="white" y1="63.085" x1="150.225"  stroke-linecap="round" x2="128.625"/>
                <line y2="46.525" stroke-width="0.36" stroke="white" y1="63.085" x1="128.625"  stroke-linecap="round" x2="128.625"/>
                <line y2="46.525" stroke-width="0.36" stroke="white" y1="46.525" x1="128.625"  stroke-linecap="round" x2="126.465"/>
                <line y2="40.045" stroke-width="0.36" stroke="white" y1="46.525" x1="126.465"  stroke-linecap="round" x2="126.465"/>
                <line y2="40.045" stroke-width="0.36" stroke="white" y1="40.045" x1="126.465"  stroke-linecap="round" x2="128.625"/>
                <line y2="24.205" stroke-width="0.36" stroke="white" y1="40.045" x1="128.625"  stroke-linecap="round" x2="128.625"/>
                <line y2="24.205" stroke-width="0.36" stroke="white" y1="24.205" x1="128.625"  stroke-linecap="round" x2="150.225"/>
            </g>
        </g>
        <g >
            <title >element:JP1</title>
            <g >
                <title >package:1X18-BIG</title>
                <line y2="71.28" stroke-width="0.432" stroke="white" y1="71.28" x1="130.399"  stroke-linecap="round" x2="133.999"/>
                <line y2="73.08" stroke-width="0.432" stroke="white" y1="71.28" x1="133.999"  stroke-linecap="round" x2="135.799"/>
                <line y2="76.68" stroke-width="0.432" stroke="white" y1="73.08" x1="135.799"  stroke-linecap="round" x2="135.799"/>
                <line y2="78.48" stroke-width="0.432" stroke="white" y1="76.68" x1="135.799"  stroke-linecap="round" x2="133.999"/>
                <line y2="71.28" stroke-width="0.432" stroke="white" y1="73.08" x1="135.799"  stroke-linecap="round" x2="137.599"/>
                <line y2="71.28" stroke-width="0.432" stroke="white" y1="71.28" x1="137.599"  stroke-linecap="round" x2="141.199"/>
                <line y2="73.08" stroke-width="0.432" stroke="white" y1="71.28" x1="141.199"  stroke-linecap="round" x2="142.999"/>
                <line y2="76.68" stroke-width="0.432" stroke="white" y1="73.08" x1="142.999"  stroke-linecap="round" x2="142.999"/>
                <line y2="78.48" stroke-width="0.432" stroke="white" y1="76.68" x1="142.999"  stroke-linecap="round" x2="141.199"/>
                <line y2="78.48" stroke-width="0.432" stroke="white" y1="78.48" x1="141.199"  stroke-linecap="round" x2="137.599"/>
                <line y2="76.68" stroke-width="0.432" stroke="white" y1="78.48" x1="137.599"  stroke-linecap="round" x2="135.799"/>
                <line y2="71.28" stroke-width="0.432" stroke="white" y1="73.08" x1="121.399"  stroke-linecap="round" x2="123.199"/>
                <line y2="71.28" stroke-width="0.432" stroke="white" y1="71.28" x1="123.199"  stroke-linecap="round" x2="126.799"/>
                <line y2="73.08" stroke-width="0.432" stroke="white" y1="71.28" x1="126.799"  stroke-linecap="round" x2="128.599"/>
                <line y2="76.68" stroke-width="0.432" stroke="white" y1="73.08" x1="128.599"  stroke-linecap="round" x2="128.599"/>
                <line y2="78.48" stroke-width="0.432" stroke="white" y1="76.68" x1="128.599"  stroke-linecap="round" x2="126.799"/>
                <line y2="78.48" stroke-width="0.432" stroke="white" y1="78.48" x1="126.799"  stroke-linecap="round" x2="123.199"/>
                <line y2="76.68" stroke-width="0.432" stroke="white" y1="78.48" x1="123.199"  stroke-linecap="round" x2="121.399"/>
                <line y2="73.08" stroke-width="0.432" stroke="white" y1="71.28" x1="130.399"  stroke-linecap="round" x2="128.599"/>
                <line y2="78.48" stroke-width="0.432" stroke="white" y1="76.68" x1="128.599"  stroke-linecap="round" x2="130.399"/>
                <line y2="78.48" stroke-width="0.432" stroke="white" y1="78.48" x1="133.999"  stroke-linecap="round" x2="130.399"/>
                <line y2="71.28" stroke-width="0.432" stroke="white" y1="71.28" x1="108.799"  stroke-linecap="round" x2="112.399"/>
                <line y2="73.08" stroke-width="0.432" stroke="white" y1="71.28" x1="112.399"  stroke-linecap="round" x2="114.199"/>
                <line y2="76.68" stroke-width="0.432" stroke="white" y1="73.08" x1="114.199"  stroke-linecap="round" x2="114.199"/>
                <line y2="78.48" stroke-width="0.432" stroke="white" y1="76.68" x1="114.199"  stroke-linecap="round" x2="112.399"/>
                <line y2="71.28" stroke-width="0.432" stroke="white" y1="73.08" x1="114.199"  stroke-linecap="round" x2="115.999"/>
                <line y2="71.28" stroke-width="0.432" stroke="white" y1="71.28" x1="115.999"  stroke-linecap="round" x2="119.599"/>
                <line y2="73.08" stroke-width="0.432" stroke="white" y1="71.28" x1="119.599"  stroke-linecap="round" x2="121.399"/>
                <line y2="76.68" stroke-width="0.432" stroke="white" y1="73.08" x1="121.399"  stroke-linecap="round" x2="121.399"/>
                <line y2="78.48" stroke-width="0.432" stroke="white" y1="76.68" x1="121.399"  stroke-linecap="round" x2="119.599"/>
                <line y2="78.48" stroke-width="0.432" stroke="white" y1="78.48" x1="119.599"  stroke-linecap="round" x2="115.999"/>
                <line y2="76.68" stroke-width="0.432" stroke="white" y1="78.48" x1="115.999"  stroke-linecap="round" x2="114.199"/>
                <line y2="71.28" stroke-width="0.432" stroke="white" y1="73.08" x1="99.7992"  stroke-linecap="round" x2="101.599"/>
                <line y2="71.28" stroke-width="0.432" stroke="white" y1="71.28" x1="101.599"  stroke-linecap="round" x2="105.199"/>
                <line y2="73.08" stroke-width="0.432" stroke="white" y1="71.28" x1="105.199"  stroke-linecap="round" x2="106.999"/>
                <line y2="76.68" stroke-width="0.432" stroke="white" y1="73.08" x1="106.999"  stroke-linecap="round" x2="106.999"/>
                <line y2="78.48" stroke-width="0.432" stroke="white" y1="76.68" x1="106.999"  stroke-linecap="round" x2="105.199"/>
                <line y2="78.48" stroke-width="0.432" stroke="white" y1="78.48" x1="105.199"  stroke-linecap="round" x2="101.599"/>
                <line y2="76.68" stroke-width="0.432" stroke="white" y1="78.48" x1="101.599"  stroke-linecap="round" x2="99.7992"/>
                <line y2="73.08" stroke-width="0.432" stroke="white" y1="71.28" x1="108.799"  stroke-linecap="round" x2="106.999"/>
                <line y2="78.48" stroke-width="0.432" stroke="white" y1="76.68" x1="106.999"  stroke-linecap="round" x2="108.799"/>
                <line y2="78.48" stroke-width="0.432" stroke="white" y1="78.48" x1="112.399"  stroke-linecap="round" x2="108.799"/>
                <line y2="71.28" stroke-width="0.432" stroke="white" y1="71.28" x1="87.1992"  stroke-linecap="round" x2="90.7992"/>
                <line y2="73.08" stroke-width="0.432" stroke="white" y1="71.28" x1="90.7992"  stroke-linecap="round" x2="92.5992"/>
                <line y2="76.68" stroke-width="0.432" stroke="white" y1="73.08" x1="92.5992"  stroke-linecap="round" x2="92.5992"/>
                <line y2="78.48" stroke-width="0.432" stroke="white" y1="76.68" x1="92.5992"  stroke-linecap="round" x2="90.7992"/>
                <line y2="71.28" stroke-width="0.432" stroke="white" y1="73.08" x1="92.5992"  stroke-linecap="round" x2="94.3992"/>
                <line y2="71.28" stroke-width="0.432" stroke="white" y1="71.28" x1="94.3992"  stroke-linecap="round" x2="97.9992"/>
                <line y2="73.08" stroke-width="0.432" stroke="white" y1="71.28" x1="97.9992"  stroke-linecap="round" x2="99.7992"/>
                <line y2="76.68" stroke-width="0.432" stroke="white" y1="73.08" x1="99.7992"  stroke-linecap="round" x2="99.7992"/>
                <line y2="78.48" stroke-width="0.432" stroke="white" y1="76.68" x1="99.7992"  stroke-linecap="round" x2="97.9992"/>
                <line y2="78.48" stroke-width="0.432" stroke="white" y1="78.48" x1="97.9992"  stroke-linecap="round" x2="94.3992"/>
                <line y2="76.68" stroke-width="0.432" stroke="white" y1="78.48" x1="94.3992"  stroke-linecap="round" x2="92.5992"/>
                <line y2="71.28" stroke-width="0.432" stroke="white" y1="73.08" x1="78.1992"  stroke-linecap="round" x2="79.9992"/>
                <line y2="71.28" stroke-width="0.432" stroke="white" y1="71.28" x1="79.9992"  stroke-linecap="round" x2="83.5992"/>
                <line y2="73.08" stroke-width="0.432" stroke="white" y1="71.28" x1="83.5992"  stroke-linecap="round" x2="85.3992"/>
                <line y2="76.68" stroke-width="0.432" stroke="white" y1="73.08" x1="85.3992"  stroke-linecap="round" x2="85.3992"/>
                <line y2="78.48" stroke-width="0.432" stroke="white" y1="76.68" x1="85.3992"  stroke-linecap="round" x2="83.5992"/>
                <line y2="78.48" stroke-width="0.432" stroke="white" y1="78.48" x1="83.5992"  stroke-linecap="round" x2="79.9992"/>
                <line y2="76.68" stroke-width="0.432" stroke="white" y1="78.48" x1="79.9992"  stroke-linecap="round" x2="78.1992"/>
                <line y2="73.08" stroke-width="0.432" stroke="white" y1="71.28" x1="87.1992"  stroke-linecap="round" x2="85.3992"/>
                <line y2="78.48" stroke-width="0.432" stroke="white" y1="76.68" x1="85.3992"  stroke-linecap="round" x2="87.1992"/>
                <line y2="78.48" stroke-width="0.432" stroke="white" y1="78.48" x1="90.7992"  stroke-linecap="round" x2="87.1992"/>
                <line y2="71.28" stroke-width="0.432" stroke="white" y1="71.28" x1="65.5993"  stroke-linecap="round" x2="69.1993"/>
                <line y2="73.08" stroke-width="0.432" stroke="white" y1="71.28" x1="69.1993"  stroke-linecap="round" x2="70.9993"/>
                <line y2="76.68" stroke-width="0.432" stroke="white" y1="73.08" x1="70.9993"  stroke-linecap="round" x2="70.9993"/>
                <line y2="78.48" stroke-width="0.432" stroke="white" y1="76.68" x1="70.9993"  stroke-linecap="round" x2="69.1993"/>
                <line y2="71.28" stroke-width="0.432" stroke="white" y1="73.08" x1="70.9993"  stroke-linecap="round" x2="72.7992"/>
                <line y2="71.28" stroke-width="0.432" stroke="white" y1="71.28" x1="72.7992"  stroke-linecap="round" x2="76.3992"/>
                <line y2="73.08" stroke-width="0.432" stroke="white" y1="71.28" x1="76.3992"  stroke-linecap="round" x2="78.1992"/>
                <line y2="76.68" stroke-width="0.432" stroke="white" y1="73.08" x1="78.1992"  stroke-linecap="round" x2="78.1992"/>
                <line y2="78.48" stroke-width="0.432" stroke="white" y1="76.68" x1="78.1992"  stroke-linecap="round" x2="76.3992"/>
                <line y2="78.48" stroke-width="0.432" stroke="white" y1="78.48" x1="76.3992"  stroke-linecap="round" x2="72.7992"/>
                <line y2="76.68" stroke-width="0.432" stroke="white" y1="78.48" x1="72.7992"  stroke-linecap="round" x2="70.9993"/>
                <line y2="71.28" stroke-width="0.432" stroke="white" y1="73.08" x1="56.5993"  stroke-linecap="round" x2="58.3993"/>
                <line y2="71.28" stroke-width="0.432" stroke="white" y1="71.28" x1="58.3993"  stroke-linecap="round" x2="61.9993"/>
                <line y2="73.08" stroke-width="0.432" stroke="white" y1="71.28" x1="61.9993"  stroke-linecap="round" x2="63.7993"/>
                <line y2="76.68" stroke-width="0.432" stroke="white" y1="73.08" x1="63.7993"  stroke-linecap="round" x2="63.7993"/>
                <line y2="78.48" stroke-width="0.432" stroke="white" y1="76.68" x1="63.7993"  stroke-linecap="round" x2="61.9993"/>
                <line y2="78.48" stroke-width="0.432" stroke="white" y1="78.48" x1="61.9993"  stroke-linecap="round" x2="58.3993"/>
                <line y2="76.68" stroke-width="0.432" stroke="white" y1="78.48" x1="58.3993"  stroke-linecap="round" x2="56.5993"/>
                <line y2="73.08" stroke-width="0.432" stroke="white" y1="71.28" x1="65.5993"  stroke-linecap="round" x2="63.7993"/>
                <line y2="78.48" stroke-width="0.432" stroke="white" y1="76.68" x1="63.7993"  stroke-linecap="round" x2="65.5993"/>
                <line y2="78.48" stroke-width="0.432" stroke="white" y1="78.48" x1="69.1993"  stroke-linecap="round" x2="65.5993"/>
                <line y2="71.28" stroke-width="0.432" stroke="white" y1="71.28" x1="43.9993"  stroke-linecap="round" x2="47.5993"/>
                <line y2="73.08" stroke-width="0.432" stroke="white" y1="71.28" x1="47.5993"  stroke-linecap="round" x2="49.3993"/>
                <line y2="76.68" stroke-width="0.432" stroke="white" y1="73.08" x1="49.3993"  stroke-linecap="round" x2="49.3993"/>
                <line y2="78.48" stroke-width="0.432" stroke="white" y1="76.68" x1="49.3993"  stroke-linecap="round" x2="47.5993"/>
                <line y2="71.28" stroke-width="0.432" stroke="white" y1="73.08" x1="49.3993"  stroke-linecap="round" x2="51.1993"/>
                <line y2="71.28" stroke-width="0.432" stroke="white" y1="71.28" x1="51.1993"  stroke-linecap="round" x2="54.7993"/>
                <line y2="73.08" stroke-width="0.432" stroke="white" y1="71.28" x1="54.7993"  stroke-linecap="round" x2="56.5993"/>
                <line y2="76.68" stroke-width="0.432" stroke="white" y1="73.08" x1="56.5993"  stroke-linecap="round" x2="56.5993"/>
                <line y2="78.48" stroke-width="0.432" stroke="white" y1="76.68" x1="56.5993"  stroke-linecap="round" x2="54.7993"/>
                <line y2="78.48" stroke-width="0.432" stroke="white" y1="78.48" x1="54.7993"  stroke-linecap="round" x2="51.1993"/>
                <line y2="76.68" stroke-width="0.432" stroke="white" y1="78.48" x1="51.1993"  stroke-linecap="round" x2="49.3993"/>
                <line y2="71.28" stroke-width="0.432" stroke="white" y1="73.08" x1="34.9993"  stroke-linecap="round" x2="36.7993"/>
                <line y2="71.28" stroke-width="0.432" stroke="white" y1="71.28" x1="36.7993"  stroke-linecap="round" x2="40.3993"/>
                <line y2="73.08" stroke-width="0.432" stroke="white" y1="71.28" x1="40.3993"  stroke-linecap="round" x2="42.1993"/>
                <line y2="76.68" stroke-width="0.432" stroke="white" y1="73.08" x1="42.1993"  stroke-linecap="round" x2="42.1993"/>
                <line y2="78.48" stroke-width="0.432" stroke="white" y1="76.68" x1="42.1993"  stroke-linecap="round" x2="40.3993"/>
                <line y2="78.48" stroke-width="0.432" stroke="white" y1="78.48" x1="40.3993"  stroke-linecap="round" x2="36.7993"/>
                <line y2="76.68" stroke-width="0.432" stroke="white" y1="78.48" x1="36.7993"  stroke-linecap="round" x2="34.9993"/>
                <line y2="73.08" stroke-width="0.432" stroke="white" y1="71.28" x1="43.9993"  stroke-linecap="round" x2="42.1993"/>
                <line y2="78.48" stroke-width="0.432" stroke="white" y1="76.68" x1="42.1993"  stroke-linecap="round" x2="43.9993"/>
                <line y2="78.48" stroke-width="0.432" stroke="white" y1="78.48" x1="47.5993"  stroke-linecap="round" x2="43.9993"/>
                <line y2="71.28" stroke-width="0.432" stroke="white" y1="71.28" x1="22.3993"  stroke-linecap="round" x2="25.9993"/>
                <line y2="73.08" stroke-width="0.432" stroke="white" y1="71.28" x1="25.9993"  stroke-linecap="round" x2="27.7993"/>
                <line y2="76.68" stroke-width="0.432" stroke="white" y1="73.08" x1="27.7993"  stroke-linecap="round" x2="27.7993"/>
                <line y2="78.48" stroke-width="0.432" stroke="white" y1="76.68" x1="27.7993"  stroke-linecap="round" x2="25.9993"/>
                <line y2="71.28" stroke-width="0.432" stroke="white" y1="73.08" x1="27.7993"  stroke-linecap="round" x2="29.5993"/>
                <line y2="71.28" stroke-width="0.432" stroke="white" y1="71.28" x1="29.5993"  stroke-linecap="round" x2="33.1993"/>
                <line y2="73.08" stroke-width="0.432" stroke="white" y1="71.28" x1="33.1993"  stroke-linecap="round" x2="34.9993"/>
                <line y2="76.68" stroke-width="0.432" stroke="white" y1="73.08" x1="34.9993"  stroke-linecap="round" x2="34.9993"/>
                <line y2="78.48" stroke-width="0.432" stroke="white" y1="76.68" x1="34.9993"  stroke-linecap="round" x2="33.1993"/>
                <line y2="78.48" stroke-width="0.432" stroke="white" y1="78.48" x1="33.1993"  stroke-linecap="round" x2="29.5993"/>
                <line y2="76.68" stroke-width="0.432" stroke="white" y1="78.48" x1="29.5993"  stroke-linecap="round" x2="27.7993"/>
                <line y2="73.08" stroke-width="0.432" stroke="white" y1="71.28" x1="22.3993"  stroke-linecap="round" x2="20.5993"/>
                <line y2="78.48" stroke-width="0.432" stroke="white" y1="76.68" x1="20.5993"  stroke-linecap="round" x2="22.3993"/>
                <line y2="78.48" stroke-width="0.432" stroke="white" y1="78.48" x1="25.9993"  stroke-linecap="round" x2="22.3993"/>
                <line y2="71.28" stroke-width="0.432" stroke="white" y1="73.08" x1="142.999"  stroke-linecap="round" x2="144.799"/>
                <line y2="71.28" stroke-width="0.432" stroke="white" y1="71.28" x1="144.799"  stroke-linecap="round" x2="148.399"/>
                <line y2="73.08" stroke-width="0.432" stroke="white" y1="71.28" x1="148.399"  stroke-linecap="round" x2="150.199"/>
                <line y2="76.68" stroke-width="0.432" stroke="white" y1="73.08" x1="150.199"  stroke-linecap="round" x2="150.199"/>
                <line y2="78.48" stroke-width="0.432" stroke="white" y1="76.68" x1="150.199"  stroke-linecap="round" x2="148.399"/>
                <line y2="78.48" stroke-width="0.432" stroke="white" y1="78.48" x1="148.399"  stroke-linecap="round" x2="144.799"/>
                <line y2="76.68" stroke-width="0.432" stroke="white" y1="78.48" x1="144.799"  stroke-linecap="round" x2="142.999"/>
                <line y2="76.68" stroke-width="0.432" stroke="white" y1="73.08" x1="20.5993"  stroke-linecap="round" x2="20.5993"/>
            </g>
        </g>
        <g >
            <title >element:U$1</title>
            <g >
                <title >package:1X10-BIG</title>
                <line y2="13.68" stroke-width="0.36" stroke="white" y1="13.68" x1="150.199"  stroke-linecap="round" x2="78.1992"/>
                <line y2="6.48" stroke-width="0.36" stroke="white" y1="13.68" x1="78.1992"  stroke-linecap="round" x2="78.1992"/>
                <line y2="6.48" stroke-width="0.36" stroke="white" y1="6.48" x1="78.1992"  stroke-linecap="round" x2="150.199"/>
                <line y2="13.68" stroke-width="0.36" stroke="white" y1="6.48" x1="150.199"  stroke-linecap="round" x2="150.199"/>
            </g>
        </g>
        <g >
            <title >element:USB</title>
            <g >
                <title >package:1X05</title>
                <line y2="38.6589" stroke-width="0.432" stroke="white" y1="35.0589" x1="41.6466"  stroke-linecap="round" x2="41.6466"/>
                <line y2="40.4589" stroke-width="0.432" stroke="white" y1="38.6589" x1="41.6466"  stroke-linecap="round" x2="39.8466"/>
                <line y2="40.4589" stroke-width="0.432" stroke="white" y1="40.4589" x1="39.8466"  stroke-linecap="round" x2="36.2466"/>
                <line y2="38.6589" stroke-width="0.432" stroke="white" y1="40.4589" x1="36.2466"  stroke-linecap="round" x2="34.4466"/>
                <line y2="27.8589" stroke-width="0.432" stroke="white" y1="26.0589" x1="39.8466"  stroke-linecap="round" x2="41.6466"/>
                <line y2="31.4589" stroke-width="0.432" stroke="white" y1="27.8589" x1="41.6466"  stroke-linecap="round" x2="41.6466"/>
                <line y2="33.2589" stroke-width="0.432" stroke="white" y1="31.4589" x1="41.6466"  stroke-linecap="round" x2="39.8466"/>
                <line y2="33.2589" stroke-width="0.432" stroke="white" y1="33.2589" x1="39.8466"  stroke-linecap="round" x2="36.2466"/>
                <line y2="31.4589" stroke-width="0.432" stroke="white" y1="33.2589" x1="36.2466"  stroke-linecap="round" x2="34.4466"/>
                <line y2="27.8589" stroke-width="0.432" stroke="white" y1="31.4589" x1="34.4466"  stroke-linecap="round" x2="34.4466"/>
                <line y2="26.0589" stroke-width="0.432" stroke="white" y1="27.8589" x1="34.4466"  stroke-linecap="round" x2="36.2466"/>
                <line y2="33.2589" stroke-width="0.432" stroke="white" y1="35.0589" x1="41.6466"  stroke-linecap="round" x2="39.8466"/>
                <line y2="35.0589" stroke-width="0.432" stroke="white" y1="33.2589" x1="36.2466"  stroke-linecap="round" x2="34.4466"/>
                <line y2="35.0589" stroke-width="0.432" stroke="white" y1="38.6589" x1="34.4466"  stroke-linecap="round" x2="34.4466"/>
                <line y2="17.0589" stroke-width="0.432" stroke="white" y1="13.4589" x1="41.6466"  stroke-linecap="round" x2="41.6466"/>
                <line y2="18.8589" stroke-width="0.432" stroke="white" y1="17.0589" x1="41.6466"  stroke-linecap="round" x2="39.8466"/>
                <line y2="18.8589" stroke-width="0.432" stroke="white" y1="18.8589" x1="39.8466"  stroke-linecap="round" x2="36.2466"/>
                <line y2="17.0589" stroke-width="0.432" stroke="white" y1="18.8589" x1="36.2466"  stroke-linecap="round" x2="34.4466"/>
                <line y2="20.6589" stroke-width="0.432" stroke="white" y1="18.8589" x1="39.8466"  stroke-linecap="round" x2="41.6466"/>
                <line y2="24.2589" stroke-width="0.432" stroke="white" y1="20.6589" x1="41.6466"  stroke-linecap="round" x2="41.6466"/>
                <line y2="26.0589" stroke-width="0.432" stroke="white" y1="24.2589" x1="41.6466"  stroke-linecap="round" x2="39.8466"/>
                <line y2="26.0589" stroke-width="0.432" stroke="white" y1="26.0589" x1="39.8466"  stroke-linecap="round" x2="36.2466"/>
                <line y2="24.2589" stroke-width="0.432" stroke="white" y1="26.0589" x1="36.2466"  stroke-linecap="round" x2="34.4466"/>
                <line y2="20.6589" stroke-width="0.432" stroke="white" y1="24.2589" x1="34.4466"  stroke-linecap="round" x2="34.4466"/>
                <line y2="18.8589" stroke-width="0.432" stroke="white" y1="20.6589" x1="34.4466"  stroke-linecap="round" x2="36.2466"/>
                <line y2="11.6589" stroke-width="0.432" stroke="white" y1="11.6589" x1="39.8466"  stroke-linecap="round" x2="36.2466"/>
                <line y2="11.6589" stroke-width="0.432" stroke="white" y1="13.4589" x1="41.6466"  stroke-linecap="round" x2="39.8466"/>
                <line y2="13.4589" stroke-width="0.432" stroke="white" y1="11.6589" x1="36.2466"  stroke-linecap="round" x2="34.4466"/>
                <line y2="13.4589" stroke-width="0.432" stroke="white" y1="17.0589" x1="34.4466"  stroke-linecap="round" x2="34.4466"/>
                <line y2="45.8589" stroke-width="0.432" stroke="white" y1="42.2589" x1="41.6466"  stroke-linecap="round" x2="41.6466"/>
                <line y2="47.6589" stroke-width="0.432" stroke="white" y1="45.8589" x1="41.6466"  stroke-linecap="round" x2="39.8466"/>
                <line y2="47.6589" stroke-width="0.432" stroke="white" y1="47.6589" x1="39.8466"  stroke-linecap="round" x2="36.2466"/>
                <line y2="45.8589" stroke-width="0.432" stroke="white" y1="47.6589" x1="36.2466"  stroke-linecap="round" x2="34.4466"/>
                <line y2="40.4589" stroke-width="0.432" stroke="white" y1="42.2589" x1="41.6466"  stroke-linecap="round" x2="39.8466"/>
                <line y2="42.2589" stroke-width="0.432" stroke="white" y1="40.4589" x1="36.2466"  stroke-linecap="round" x2="34.4466"/>
                <line y2="42.2589" stroke-width="0.432" stroke="white" y1="45.8589" x1="34.4466"  stroke-linecap="round" x2="34.4466"/>
            </g>
        </g>
        <line y2="33.035" fill="none" stroke-width="0.576" stroke="white" y1="33.035" x1="0.288"  fill-opacity="1" x2="1.15937"/>
        <line y2="4.32" fill="none" stroke-width="0.576" stroke="white" y1="4.32" x1="0.288"  fill-opacity="1" x2="1.15937"/>
        <line y2="4.32" fill="none" stroke-width="0.576" stroke="white" y1="33.035" x1="0.288"  fill-opacity="1" x2="0.288"/>
    </g>
    <g gorn="0.2"  id="copper1">
        <g gorn="0.2.0"  id="copper0">
            <circle gorn="0.2.0.0" fill="none" stroke-width="1.08" r="1.98" connectorname="GND" stroke="#F7BD13"  cy="50.845" cx="143.025" id="connector65pad"/>
            <circle gorn="0.2.0.1" fill="none" stroke-width="1.08" r="1.98" connectorname="RED" stroke="#F7BD13"  cy="74.88" cx="132.199" id="connector81pad"/>
            <circle gorn="0.2.0.2" fill="none" stroke-width="1.08" r="1.98" connectorname="PB0" stroke="#F7BD13"  cy="10.08" cx="103.399" id="connector113pad"/>
            <circle gorn="0.2.0.3" fill="none" stroke-width="1.08" r="1.98" connectorname="DB1" stroke="#F7BD13"  cy="74.88" cx="74.5992" id="connector73pad"/>
            <circle gorn="0.2.0.4" fill="none" stroke-width="1.08" r="1.98" connectorname="RS" stroke="#F7BD13"  cy="74.88" cx="45.7993" id="connector69pad"/>
            <circle gorn="0.2.0.5" fill="none" stroke-width="1.08" r="1.98" connectorname="DB5" stroke="#F7BD13"  cy="74.88" cx="103.399" id="connector77pad"/>
            <circle gorn="0.2.0.6" fill="none" stroke-width="1.08" r="1.98" connectorname="GND" stroke="#F7BD13"  cy="10.08" cx="132.199" id="connector109pad"/>
            <circle gorn="0.2.0.7" fill="none" stroke-width="0.576" r="1.728" connectorname="VBUS" stroke="#F7BD13"  cy="15.2589" cx="38.0466" id="connector117pad"/>
            <path d="m34.0722,13.5309,7.9488,0,0,3.456,-7.9488,0,0,-3.456M36.3186,15.2589a1.728,1.728,0,1,0,3.456,0,1.728,1.728,0,1,0,-3.456,0z" fill="#F7BD13" stroke-width="0" stroke="none" />
            <circle gorn="0.2.0.9" fill="none" stroke-width="1.08" r="1.98" connectorname="MOSI" stroke="#F7BD13"  cy="43.645" cx="143.025" id="connector63pad"/>
            <circle gorn="0.2.0.10" fill="none" stroke-width="1.08" r="1.98" connectorname="+5V" stroke="#F7BD13"  cy="74.88" cx="31.3993" id="connector67pad"/>
            <circle gorn="0.2.0.11" fill="none" stroke-width="1.08" r="1.98" connectorname="EN" stroke="#F7BD13"  cy="74.88" cx="60.1993" id="connector71pad"/>
            <circle gorn="0.2.0.12" fill="none" stroke-width="1.08" r="1.98" connectorname="DB3" stroke="#F7BD13"  cy="74.88" cx="88.9992" id="connector75pad"/>
            <circle gorn="0.2.0.13" fill="none" stroke-width="1.08" r="1.98" connectorname="DB7" stroke="#F7BD13"  cy="74.88" cx="117.799" id="connector79pad"/>
            <circle gorn="0.2.0.14" fill="none" stroke-width="1.08" r="1.98" connectorname="BLUE" stroke="#F7BD13"  cy="74.88" cx="146.599" id="connector83pad"/>
            <circle gorn="0.2.0.15" fill="none" stroke-width="1.08" r="1.98" connectorname="+5V" stroke="#F7BD13"  cy="10.08" cx="146.599" id="connector107pad"/>
            <circle gorn="0.2.0.16" fill="none" stroke-width="1.08" r="1.98" connectorname="RX" stroke="#F7BD13"  cy="10.08" cx="117.799" id="connector111pad"/>
            <circle gorn="0.2.0.17" fill="none" stroke-width="1.08" r="1.98" connectorname="PC4" stroke="#F7BD13"  cy="10.08" cx="88.9992" id="connector115pad"/>
            <circle gorn="0.2.0.18" fill="none" stroke-width="0.576" r="1.728" connectorname="D+" stroke="#F7BD13"  cy="29.6589" cx="38.0466" id="connector119pad"/>
            <path d="m34.0722,27.9309,7.9488,0,0,3.456,-7.9488,0,0,-3.456M36.3186,29.6589a1.728,1.728,0,1,0,3.456,0,1.728,1.728,0,1,0,-3.456,0z" fill="#F7BD13" stroke-width="0" stroke="none" />
            <circle gorn="0.2.0.20" fill="none" stroke-width="1.08" r="1.98" connectorname="RST" stroke="#F7BD13"  cy="50.845" cx="135.825" id="connector64pad"/>
            <circle gorn="0.2.0.21" fill="none" stroke-width="1.08" r="1.98" connectorname="GND" stroke="#F7BD13"  cy="74.88" cx="24.1993" id="connector66pad"/>
            <circle gorn="0.2.0.22" fill="none" stroke-width="1.08" r="1.98" connectorname="CONTRAST" stroke="#F7BD13"  cy="74.88" cx="38.5993" id="connector68pad"/>
            <circle gorn="0.2.0.23" fill="none" stroke-width="1.08" r="1.98" connectorname="RW" stroke="#F7BD13"  cy="74.88" cx="52.9993" id="connector70pad"/>
            <circle gorn="0.2.0.24" fill="none" stroke-width="1.08" r="1.98" connectorname="DB0" stroke="#F7BD13"  cy="74.88" cx="67.3993" id="connector72pad"/>
            <circle gorn="0.2.0.25" fill="none" stroke-width="1.08" r="1.98" connectorname="DB2" stroke="#F7BD13"  cy="74.88" cx="81.7992" id="connector74pad"/>
            <circle gorn="0.2.0.26" fill="none" stroke-width="1.08" r="1.98" connectorname="DB4" stroke="#F7BD13"  cy="74.88" cx="96.1992" id="connector76pad"/>
            <circle gorn="0.2.0.27" fill="none" stroke-width="1.08" r="1.98" connectorname="DB6" stroke="#F7BD13"  cy="74.88" cx="110.599" id="connector78pad"/>
            <circle gorn="0.2.0.28" fill="none" stroke-width="1.08" r="1.98" connectorname="+5V" stroke="#F7BD13"  cy="74.88" cx="124.999" id="connector80pad"/>
            <circle gorn="0.2.0.29" fill="none" stroke-width="1.08" r="1.98" connectorname="GREEN" stroke="#F7BD13"  cy="74.88" cx="139.399" id="connector82pad"/>
            <circle gorn="0.2.0.30" fill="none" stroke-width="1.08" r="1.98" connectorname="+3V3" stroke="#F7BD13"  cy="10.08" cx="139.399" id="connector108pad"/>
            <circle gorn="0.2.0.31" fill="none" stroke-width="1.08" r="1.98" connectorname="RST" stroke="#F7BD13"  cy="10.08" cx="124.999" id="connector110pad"/>
            <circle gorn="0.2.0.32" fill="none" stroke-width="1.08" r="1.98" connectorname="TX" stroke="#F7BD13"  cy="10.08" cx="110.599" id="connector112pad"/>
            <circle gorn="0.2.0.33" fill="none" stroke-width="1.08" r="1.98" connectorname="PC2" stroke="#F7BD13"  cy="10.08" cx="96.1992" id="connector114pad"/>
            <circle gorn="0.2.0.34" fill="none" stroke-width="1.08" r="1.98" connectorname="PC7" stroke="#F7BD13"  cy="10.08" cx="81.7992" id="connector116pad"/>
            <circle gorn="0.2.0.35" fill="none" stroke-width="0.576" r="1.728" connectorname="D-" stroke="#F7BD13"  cy="22.4589" cx="38.0466" id="connector118pad"/>
            <path d="m34.0722,20.7309,7.9488,0,0,3.456,-7.9488,0,0,-3.456M36.3186,22.4589a1.728,1.728,0,1,0,3.456,0,1.728,1.728,0,1,0,-3.456,0z" fill="#F7BD13" stroke-width="0" stroke="none" />
            <circle gorn="0.2.0.37" fill="none" stroke-width="0.576" r="1.728" connectorname="GND" stroke="#F7BD13"  cy="36.8589" cx="38.0466" id="connector120pad"/>
            <path d="m34.0722,35.1309,7.9488,0,0,3.456,-7.9488,0,0,-3.456M36.3186,36.8589a1.728,1.728,0,1,0,3.456,0,1.728,1.728,0,1,0,-3.456,0z" fill="#F7BD13" stroke-width="0" stroke="none" />
            <circle gorn="0.2.0.39" fill="none" stroke-width="1.08" r="1.98" connectorname="MISO" stroke="#F7BD13"  cy="36.445" cx="135.825" id="connector60pad"/>
            <circle gorn="0.2.0.40" fill="none" stroke-width="1.08" r="1.98" connectorname="+5V" stroke="#F7BD13"  cy="36.445" cx="143.025" id="connector61pad"/>
            <circle gorn="0.2.0.41" fill="none" stroke-width="1.08" r="1.98" connectorname="SCK" stroke="#F7BD13"  cy="43.645" cx="135.825" id="connector62pad"/>
        </g>
    </g>
</svg>
