<?xml version='1.0' encoding='UTF-8' standalone='no'?>
<!-- Created with Fritzing (http://www.fritzing.org/) -->
<svg xmlns="http://www.w3.org/2000/svg" width="1.25984in" baseProfile="tiny" viewBox="0 0 90.7085 65.1969"  x="0in" height="0.905512in" y="0in" version="1.2">
    <desc >
        <referenceFile >Adafruit OLED Monochrome 128x32 SPI_pcb.svg</referenceFile>
    </desc>
    <desc >Fritzing footprint generated by brd2svg</desc>
    <g  id="silkscreen" gorn="0.2">
        <path fill="none"  stroke="white" d="M0.288,56.48L0.288,8.71682A8.21534,8.21534,0,0,1,8.73792,0.288L81.9706,0.288A8.21506,8.21506,0,0,1,90.4205,8.71682L90.4205,56.48A8.21621,8.21621,0,0,1,81.9706,64.9089L8.73792,64.9089A8.21621,8.21621,0,0,1,0.288,56.48M78.7507,19.6866a0.845856,0.845856,0,1,0,1.69172,0,0.845856,0.845856,0,1,0,-1.69172,0zM78.7507,45.9071a0.845856,0.845856,0,1,0,1.69172,0,0.845856,0.845856,0,1,0,-1.69172,0z" stroke-width="0.576"/>
        <g >
            <title >element:JP1</title>
            <g >
                <title >package:1X08_ROUND_76</title>
            </g>
        </g>
        <g >
            <title >element:LCD1</title>
            <g >
                <title >package:UG-2832HSWEG04_WRAPAROUND</title>
                <line x2="1.36063"  stroke="white" stroke-linecap="round" stroke-width="0.36" y1="16.9937" y2="16.9937" x1="86.4"/>
                <line x2="86.4"  stroke="white" stroke-linecap="round" stroke-width="0.36" y1="16.9937" y2="49.0961" x1="86.4"/>
                <line x2="1.36063"  stroke="white" stroke-linecap="round" stroke-width="0.36" y1="49.0961" y2="49.0961" x1="86.4"/>
                <line x2="1.36063"  stroke="white" stroke-linecap="round" stroke-width="0.36" y1="16.9937" y2="49.0961" x1="1.36063"/>
            </g>
        </g>
        <g >
            <title >element:U1</title>
            <g >
                <title >package:SOIC16</title>
            </g>
        </g>
    </g>
    <g  id="copper1" gorn="0.3">
        <g  id="copper0" gorn="0.3.0">
            <circle fill="none" r="2.07666"  stroke="#F7BD13" id="connector6pad" stroke-width="1.31868" gorn="0.3.0.0" cx="27.3543" cy="57.2769" connectorname="RESET"/>
            <circle fill="none" r="2.07666"  stroke="#F7BD13" id="connector12pad" stroke-width="1.31868" gorn="0.3.0.1" cx="70.5543" cy="57.2769" connectorname="GND"/>
            <circle fill="none" r="3.54331"  stroke="#F7BD13" id="connector14pad" stroke-width="1.41732" gorn="0.3.0.2" cx="8.50392" cy="8.27719" connectorname="P$1"/>
            <circle fill="none" r="2.07666"  stroke="#F7BD13" id="connector7pad" stroke-width="1.31868" gorn="0.3.0.3" cx="34.5543" cy="57.2769" connectorname="DC"/>
            <circle fill="none" r="3.54331"  stroke="#F7BD13" id="connector16pad" stroke-width="1.41732" gorn="0.3.0.4" cx="81.751" cy="8.27719" connectorname="P$1"/>
            <circle fill="none" r="2.07666"  stroke="#F7BD13" id="connector8pad" stroke-width="1.31868" gorn="0.3.0.5" cx="41.7543" cy="57.2769" connectorname="SCLK"/>
            <circle fill="none" r="3.54331"  stroke="#F7BD13" id="connector13pad" stroke-width="1.41732" gorn="0.3.0.6" cx="8.50392" cy="56.6929" connectorname="P$1"/>
            <circle fill="none" r="2.07666"  stroke="#F7BD13" id="connector9pad" stroke-width="1.31868" gorn="0.3.0.7" cx="48.9543" cy="57.2769" connectorname="MOSI"/>
            <circle fill="none" r="3.54331"  stroke="#F7BD13" id="connector15pad" stroke-width="1.41732" gorn="0.3.0.8" cx="81.751" cy="56.6929" connectorname="P$1"/>
            <circle fill="none" r="2.07666"  stroke="#F7BD13" id="connector10pad" stroke-width="1.31868" gorn="0.3.0.9" cx="56.1543" cy="57.2769" connectorname="VIN"/>
            <circle fill="none" r="2.07666"  stroke="#F7BD13" id="connector11pad" stroke-width="1.31868" gorn="0.3.0.10" cx="63.3543" cy="57.2769" connectorname="3.3V"/>
            <circle fill="none" r="2.07666"  stroke="#F7BD13" id="connector5pad" stroke-width="1.31868" gorn="0.3.0.11" cx="20.1543" cy="57.2769" connectorname="CS"/>
        </g>
    </g>
</svg>
