<?xml version='1.0' encoding='UTF-8' standalone='no'?>
<!-- Created with Fritzing (http://www.fritzing.org/) -->
<svg xmlns="http://www.w3.org/2000/svg" width="1.37795in" x="0in" y="0in" baseProfile="tiny" viewBox="0 0 99.2124 99.2124" version="1.2" height="1.37795in" >
    <desc >
        <referenceFile >MCP73833_pcb.svg</referenceFile>
    </desc>
    <desc >Fritzing footprint generated by brd2svg</desc>
    <g gorn="0.2"  id="silkscreen">
        <path d="M0.288,90.4702L0.288,8.7426A8.21592,8.21592,0,0,1,8.7426,0.288L90.4702,0.288A8.21563,8.21563,0,0,1,98.9244,8.7426L98.9244,90.4702A8.21592,8.21592,0,0,1,90.4702,98.9244L8.7426,98.9244A8.21563,8.21563,0,0,1,0.288,90.4702M54.7132,16.2878a1.12932,1.12932,0,1,0,2.25865,0,1.12932,1.12932,0,1,0,-2.25865,0zM42.2407,16.2878a1.12932,1.12932,0,1,0,2.25865,0,1.12932,1.12932,0,1,0,-2.25865,0z" stroke="white" stroke-width="0.576"  fill="none"/>
        <line y1="40.1726" y2="25.7726" x1="97.2" stroke="white" stroke-width="0.864"  x2="97.2" stroke-linecap="round"/>
        <line y1="25.7726" y2="40.1726" x1="83.52" stroke="white" stroke-width="0.864"  x2="83.52" stroke-linecap="round"/>
        <line y1="54.5726" y2="68.9726" x1="83.52" stroke="white" stroke-width="0.864"  x2="83.52" stroke-linecap="round"/>
        <line y1="68.9726" y2="54.5726" x1="97.2" stroke="white" stroke-width="0.864"  x2="97.2" stroke-linecap="round"/>
        <line y1="25.7726" y2="25.7726" x1="83.52" stroke="white" stroke-width="0.864"  x2="97.2" stroke-linecap="round"/>
        <line y1="68.9726" y2="68.9726" x1="83.52" stroke="white" stroke-width="0.864"  x2="97.2" stroke-linecap="round"/>
        <line y1="40.1726" y2="40.1726" x1="83.52" stroke="white" stroke-width="0.864"  x2="97.2" stroke-linecap="round"/>
        <line y1="40.1726" y2="54.5726" x1="97.2" stroke="white" stroke-width="0.864"  x2="97.2" stroke-linecap="round"/>
        <line y1="54.5726" y2="54.5726" x1="97.2" stroke="white" stroke-width="0.864"  x2="83.52" stroke-linecap="round"/>
        <line y1="68.9726" y2="68.9726" x1="83.52" stroke="white" stroke-width="0.864"  x2="77.76" stroke-linecap="round"/>
        <line y1="68.9726" y2="54.5726" x1="77.76" stroke="white" stroke-width="0.864"  x2="77.76" stroke-linecap="round"/>
        <line y1="54.5726" y2="54.5726" x1="77.76" stroke="white" stroke-width="0.864"  x2="83.52" stroke-linecap="round"/>
        <line y1="54.5726" y2="40.1726" x1="83.52" stroke="white" stroke-width="0.864"  x2="83.52" stroke-linecap="round"/>
        <line y1="40.1726" y2="40.1726" x1="83.52" stroke="white" stroke-width="0.864"  x2="77.76" stroke-linecap="round"/>
        <line y1="40.1726" y2="54.5726" x1="77.76" stroke="white" stroke-width="0.864"  x2="77.76" stroke-linecap="round"/>
        <line y1="25.7726" y2="25.7726" x1="83.52" stroke="white" stroke-width="0.864"  x2="77.76" stroke-linecap="round"/>
        <line y1="25.7726" y2="40.1726" x1="77.76" stroke="white" stroke-width="0.864"  x2="77.76" stroke-linecap="round"/>
        <g >
            <title >element:CN1</title>
            <g >
                <title >package:USB-MINIB_LARGER</title>
                <line y1="3.51468" y2="3.51468" x1="52.5495" stroke="white" stroke-width="0.288"  x2="52.5492" stroke-linecap="round"/>
                <line y1="11.7524" y2="19.406" x1="60.6614" stroke="white" stroke-width="0.36"  x2="60.6614" stroke-linecap="round"/>
                <line y1="19.406" y2="11.7524" x1="38.5512" stroke="white" stroke-width="0.36"  x2="38.5512" stroke-linecap="round"/>
                <line y1="26.4926" y2="26.4926" x1="58.6772" stroke="white" stroke-width="0.36"  x2="55.5591" stroke-linecap="round"/>
                <line y1="26.4926" y2="26.4926" x1="43.6535" stroke="white" stroke-width="0.36"  x2="40.5354" stroke-linecap="round"/>
            </g>
        </g>
        <g >
            <title >element:CN2</title>
            <g >
                <title >package:JSTPH2</title>
                <line y1="96.9163" y2="96.9163" x1="75.8578" stroke="white" stroke-width="0.36"  x2="63.102" stroke-linecap="round"/>
                <line y1="86.9954" y2="75.6569" x1="58.1414" stroke="white" stroke-width="0.36"  x2="58.1414" stroke-linecap="round"/>
                <line y1="75.6569" y2="75.6569" x1="58.1414" stroke="white" stroke-width="0.36"  x2="60.5508" stroke-linecap="round"/>
                <line y1="75.6569" y2="82.7431" x1="60.5508" stroke="white" stroke-width="0.36"  x2="60.5508" stroke-linecap="round"/>
                <line y1="82.7431" y2="82.7431" x1="60.5508" stroke="white" stroke-width="0.36"  x2="64.5193" stroke-linecap="round"/>
                <line y1="82.7431" y2="82.7431" x1="74.4408" stroke="white" stroke-width="0.36"  x2="78.4094" stroke-linecap="round"/>
                <line y1="82.7431" y2="75.6569" x1="78.4094" stroke="white" stroke-width="0.36"  x2="78.4094" stroke-linecap="round"/>
                <line y1="75.6569" y2="75.6569" x1="78.4094" stroke="white" stroke-width="0.36"  x2="80.8186" stroke-linecap="round"/>
                <line y1="75.6569" y2="86.9954" x1="80.8186" stroke="white" stroke-width="0.36"  x2="80.8186" stroke-linecap="round"/>
            </g>
        </g>
        <g >
            <title >element:CN3</title>
            <g >
                <title >package:JSTPH2</title>
                <line y1="96.9163" y2="96.9163" x1="35.538" stroke="white" stroke-width="0.36"  x2="22.782" stroke-linecap="round"/>
                <line y1="86.9954" y2="75.6569" x1="17.8214" stroke="white" stroke-width="0.36"  x2="17.8214" stroke-linecap="round"/>
                <line y1="75.6569" y2="75.6569" x1="17.8214" stroke="white" stroke-width="0.36"  x2="20.2308" stroke-linecap="round"/>
                <line y1="75.6569" y2="82.7431" x1="20.2308" stroke="white" stroke-width="0.36"  x2="20.2308" stroke-linecap="round"/>
                <line y1="82.7431" y2="82.7431" x1="20.2308" stroke="white" stroke-width="0.36"  x2="24.1993" stroke-linecap="round"/>
                <line y1="82.7431" y2="82.7431" x1="34.1207" stroke="white" stroke-width="0.36"  x2="38.0892" stroke-linecap="round"/>
                <line y1="82.7431" y2="75.6569" x1="38.0892" stroke="white" stroke-width="0.36"  x2="38.0892" stroke-linecap="round"/>
                <line y1="75.6569" y2="75.6569" x1="38.0892" stroke="white" stroke-width="0.36"  x2="40.4986" stroke-linecap="round"/>
                <line y1="75.6569" y2="86.9954" x1="40.4986" stroke="white" stroke-width="0.36"  x2="40.4986" stroke-linecap="round"/>
            </g>
        </g>
        <g >
            <title >element:JP1</title>
            <g >
                <title >package:1X02_OVAL</title>
            </g>
        </g>
        <g >
            <title >element:JP3</title>
            <g >
                <title >package:1X02_OVAL</title>
            </g>
        </g>
        <g >
            <title >element:JP5</title>
            <g >
                <title >package:1X02_OVAL</title>
            </g>
        </g>
        <g >
            <title >element:JP6</title>
            <g >
                <title >package:1X02_OVAL</title>
            </g>
        </g>
        <g >
            <title >element:R4</title>
            <g >
                <title >package:0805-THM</title>
                <path d="M10.08,57.8126A0.72,0.72,0,0,0,10.8,58.5326" stroke="white" stroke-width="0.432"  fill="none"/>
                <path d="M15.84,58.5326A0.72,0.72,0,0,0,16.56,57.8126" stroke="white" stroke-width="0.432"  fill="none"/>
                <path d="M16.56,41.2526A0.72,0.72,0,0,0,15.84,40.5326" stroke="white" stroke-width="0.432"  fill="none"/>
                <path d="M10.8,40.5326A0.72,0.72,0,0,0,10.08,41.2526" stroke="white" stroke-width="0.432"  fill="none"/>
                <line y1="58.5326" y2="58.5326" x1="15.84" stroke="white" stroke-width="0.432"  x2="10.8" stroke-linecap="round"/>
                <line y1="57.8126" y2="56.7326" x1="10.08" stroke="white" stroke-width="0.432"  x2="10.08" stroke-linecap="round"/>
                <line y1="56.3726" y2="56.7326" x1="10.44" stroke="white" stroke-width="0.432"  x2="10.08" stroke-linecap="round"/>
                <line y1="57.8126" y2="56.7326" x1="16.56" stroke="white" stroke-width="0.432"  x2="16.56" stroke-linecap="round"/>
                <line y1="56.3726" y2="56.7326" x1="16.2" stroke="white" stroke-width="0.432"  x2="16.56" stroke-linecap="round"/>
                <line y1="42.6926" y2="42.3326" x1="10.44" stroke="white" stroke-width="0.432"  x2="10.08" stroke-linecap="round"/>
                <line y1="42.6926" y2="56.3726" x1="10.44" stroke="white" stroke-width="0.432"  x2="10.44" stroke-linecap="round"/>
                <line y1="42.6926" y2="42.3326" x1="16.2" stroke="white" stroke-width="0.432"  x2="16.56" stroke-linecap="round"/>
                <line y1="42.6926" y2="56.3726" x1="16.2" stroke="white" stroke-width="0.432"  x2="16.2" stroke-linecap="round"/>
                <line y1="41.2526" y2="42.3326" x1="10.08" stroke="white" stroke-width="0.432"  x2="10.08" stroke-linecap="round"/>
                <line y1="41.2526" y2="42.3326" x1="16.56" stroke="white" stroke-width="0.432"  x2="16.56" stroke-linecap="round"/>
                <line y1="40.5326" y2="40.5326" x1="15.84" stroke="white" stroke-width="0.432"  x2="10.8" stroke-linecap="round"/>
            </g>
        </g>
        <g >
            <title >element:R7</title>
            <g >
                <title >package:0805-THM</title>
                <path d="M2.88,57.8126A0.72,0.72,0,0,0,3.6,58.5326" stroke="white" stroke-width="0.432"  fill="none"/>
                <path d="M8.64,58.5326A0.72,0.72,0,0,0,9.36,57.8126" stroke="white" stroke-width="0.432"  fill="none"/>
                <path d="M9.36,41.2526A0.72,0.72,0,0,0,8.64,40.5326" stroke="white" stroke-width="0.432"  fill="none"/>
                <path d="M3.6,40.5326A0.72,0.72,0,0,0,2.88,41.2526" stroke="white" stroke-width="0.432"  fill="none"/>
                <line y1="58.5326" y2="58.5326" x1="8.64" stroke="white" stroke-width="0.432"  x2="3.6" stroke-linecap="round"/>
                <line y1="57.8126" y2="56.7326" x1="2.88" stroke="white" stroke-width="0.432"  x2="2.88" stroke-linecap="round"/>
                <line y1="56.3726" y2="56.7326" x1="3.24" stroke="white" stroke-width="0.432"  x2="2.88" stroke-linecap="round"/>
                <line y1="57.8126" y2="56.7326" x1="9.36" stroke="white" stroke-width="0.432"  x2="9.36" stroke-linecap="round"/>
                <line y1="56.3726" y2="56.7326" x1="9" stroke="white" stroke-width="0.432"  x2="9.36" stroke-linecap="round"/>
                <line y1="42.6926" y2="42.3326" x1="3.24" stroke="white" stroke-width="0.432"  x2="2.88" stroke-linecap="round"/>
                <line y1="42.6926" y2="56.3726" x1="3.24" stroke="white" stroke-width="0.432"  x2="3.24" stroke-linecap="round"/>
                <line y1="42.6926" y2="42.3326" x1="9" stroke="white" stroke-width="0.432"  x2="9.36" stroke-linecap="round"/>
                <line y1="42.6926" y2="56.3726" x1="9" stroke="white" stroke-width="0.432"  x2="9" stroke-linecap="round"/>
                <line y1="41.2526" y2="42.3326" x1="2.88" stroke="white" stroke-width="0.432"  x2="2.88" stroke-linecap="round"/>
                <line y1="41.2526" y2="42.3326" x1="9.36" stroke="white" stroke-width="0.432"  x2="9.36" stroke-linecap="round"/>
                <line y1="40.5326" y2="40.5326" x1="8.64" stroke="white" stroke-width="0.432"  x2="3.6" stroke-linecap="round"/>
            </g>
        </g>
    </g>
    <g gorn="0.3"  id="copper1">
        <g gorn="0.3.0"  id="copper0">
            <circle connectorname="GND" cx="6.12" gorn="0.3.0.0" cy="63.9326" r="1.764" stroke="#F7BD13" stroke-width="1.224"  fill="none" id="connector50pad"/>
            <circle connectorname="P$1" cx="8.50392" gorn="0.3.0.1" cy="8.50392" r="3.54331" stroke="#F7BD13" stroke-width="1.41732"  fill="none" id="connector58pad"/>
            <circle connectorname="GND" cx="13.32" gorn="0.3.0.2" cy="63.9326" r="1.764" stroke="#F7BD13" stroke-width="1.224"  fill="none" id="connector48pad"/>
            <circle connectorname="P$1" cx="90.7085" gorn="0.3.0.3" cy="90.7085" r="3.54331" stroke="#F7BD13" stroke-width="1.41732"  fill="none" id="connector56pad"/>
            <circle connectorname="GND" cx="77.76" gorn="0.3.0.4" cy="9.21262" r="1.70532" stroke="#F7BD13" stroke-width="0.576"  fill="none" id="connector26pad"/>
            <path d="m76.0543,5.29036,3.41065,0,0,7.84447,-3.41065,0,0,-7.84447M76.0543,9.21262a1.70532,1.70532,0,1,0,3.41065,0,1.70532,1.70532,0,1,0,-3.41065,0z" stroke="none" stroke-width="0"  fill="#F7BD13"/>
            <circle connectorname="5.0V" cx="70.56" gorn="0.3.0.6" cy="9.21262" r="1.70532" stroke="#F7BD13" stroke-width="0.576"  fill="none" id="connector27pad"/>
            <path d="m68.8547,5.29036,3.41065,0,0,7.84447,-3.41065,0,0,-7.84447M68.8547,9.21262a1.70532,1.70532,0,1,0,3.41065,0,1.70532,1.70532,0,1,0,-3.41065,0z" stroke="none" stroke-width="0"  fill="#F7BD13"/>
            <circle connectorname="GND" cx="88.56" gorn="0.3.0.8" cy="29.3726" r="1.70532" stroke="#F7BD13" stroke-width="0.576"  fill="none" id="connector29pad"/>
            <path d="m84.6374,27.6673,7.84447,0,0,3.41065,-7.84447,0,0,-3.41065M86.8543,29.3726a1.70532,1.70532,0,1,0,3.41065,0,1.70532,1.70532,0,1,0,-3.41065,0z" stroke="none" stroke-width="0"  fill="#F7BD13"/>
            <circle connectorname="BATT" cx="88.56" gorn="0.3.0.10" cy="36.5726" r="1.70532" stroke="#F7BD13" stroke-width="0.576"  fill="none" id="connector30pad"/>
            <path d="m84.6374,34.8673,7.84447,0,0,3.41065,-7.84447,0,0,-3.41065M86.8543,36.5726a1.70532,1.70532,0,1,0,3.41065,0,1.70532,1.70532,0,1,0,-3.41065,0z" stroke="none" stroke-width="0"  fill="#F7BD13"/>
            <circle connectorname="P$1" cx="90.7085" gorn="0.3.0.12" cy="8.50392" r="3.54331" stroke="#F7BD13" stroke-width="1.41732"  fill="none" id="connector57pad"/>
            <circle connectorname="P$1" cx="8.50392" gorn="0.3.0.13" cy="90.7085" r="3.54331" stroke="#F7BD13" stroke-width="1.41732"  fill="none" id="connector59pad"/>
            <circle connectorname="GND" cx="88.56" gorn="0.3.0.14" cy="58.1726" r="1.70532" stroke="#F7BD13" stroke-width="0.576"  fill="none" id="connector32pad"/>
            <path d="m84.6374,56.4673,7.84447,0,0,3.41065,-7.84447,0,0,-3.41065M86.8543,58.1726a1.70532,1.70532,0,1,0,3.41065,0,1.70532,1.70532,0,1,0,-3.41065,0z" stroke="none" stroke-width="0"  fill="#F7BD13"/>
            <circle connectorname="BATT" cx="88.56" gorn="0.3.0.16" cy="65.3726" r="1.70532" stroke="#F7BD13" stroke-width="0.576"  fill="none" id="connector33pad"/>
            <path d="m84.6374,63.6673,7.84447,0,0,3.41065,-7.84447,0,0,-3.41065M86.8543,65.3726a1.70532,1.70532,0,1,0,3.41065,0,1.70532,1.70532,0,1,0,-3.41065,0z" stroke="none" stroke-width="0"  fill="#F7BD13"/>
            <circle connectorname="STAT1" cx="88.56" gorn="0.3.0.18" cy="43.7726" r="1.70532" stroke="#F7BD13" stroke-width="0.576"  fill="none" id="connector34pad"/>
            <path d="m84.6374,42.0673,7.84447,0,0,3.41065,-7.84447,0,0,-3.41065M86.8543,43.7726a1.70532,1.70532,0,1,0,3.41065,0,1.70532,1.70532,0,1,0,-3.41065,0z" stroke="none" stroke-width="0"  fill="#F7BD13"/>
            <circle connectorname="STAT2" cx="88.56" gorn="0.3.0.20" cy="50.9726" r="1.70532" stroke="#F7BD13" stroke-width="0.576"  fill="none" id="connector35pad"/>
            <path d="m84.6374,49.2673,7.84447,0,0,3.41065,-7.84447,0,0,-3.41065M86.8543,50.9726a1.70532,1.70532,0,1,0,3.41065,0,1.70532,1.70532,0,1,0,-3.41065,0z" stroke="none" stroke-width="0"  fill="#F7BD13"/>
        </g>
    </g>
</svg>
