<?xml version='1.0' encoding='UTF-8' standalone='no'?>
<!-- Created with Fritzing (http://www.fritzing.org/) -->
<svg xmlns="http://www.w3.org/2000/svg" viewBox="0 0 57.6 50.4" y="0in" width="0.8in" baseProfile="tiny" height="0.7in"  version="1.2" x="0in">
    <desc>
        <referenceFile>Adafruit Push Button Powerswitch_pcb.svg</referenceFile>
    </desc>
    <desc >Fritzing footprint generated by brd2svg</desc>
    <g id="silkscreen"  gorn="0.1">
        <path stroke-width="0.576"  fill="none" stroke="white" d="M51.966,0.288A5.112,5.112,0,0,1,57.312,5.62629L57.312,44.7737A5.112,5.112,0,0,1,51.966,50.112L5.634,50.112A5.112,5.112,0,0,1,0.288,44.7737L0.288,5.62629A5.112,5.112,0,0,1,5.634,0.288L51.966,0.288M39.276,25.2a2.268,2.268,0,1,0,4.536,0,2.268,2.268,0,1,0,-4.536,0zM13.788,25.2a2.268,2.268,0,1,0,4.536,0,2.268,2.268,0,1,0,-4.536,0zM48.1595,5.76a3.6805,3.6805,0,1,0,7.36099,0,3.6805,3.6805,0,1,0,-7.36099,0zM48.1595,44.64a3.6805,3.6805,0,1,0,7.36099,0,3.6805,3.6805,0,1,0,-7.36099,0zM2.0795,5.76a3.6805,3.6805,0,1,0,7.36099,0,3.6805,3.6805,0,1,0,-7.36099,0zM2.0795,44.64a3.6805,3.6805,0,1,0,7.36099,0,3.6805,3.6805,0,1,0,-7.36099,0z"/>
        <g >
            <title >element:IC1</title>
            <g >
                <title >package:MC14093B-TSSOP14</title>
            </g>
        </g>
        <g >
            <title >element:S1</title>
            <g >
                <title >package:B3F-40XX-ROUND</title>
                <line y2="19.8" stroke-linecap="round" stroke-width="0.432" y1="30.6"  stroke="white" x1="23.4" x2="23.4"/>
                <line y2="19.8" stroke-linecap="round" stroke-width="0.432" y1="19.8"  stroke="white" x1="34.2" x2="23.4"/>
                <line y2="30.6" stroke-linecap="round" stroke-width="0.432" y1="19.8"  stroke="white" x1="34.2" x2="34.2"/>
                <line y2="30.6" stroke-linecap="round" stroke-width="0.432" y1="30.6"  stroke="white" x1="23.4" x2="34.2"/>
                <line y2="20.52" stroke-linecap="round" stroke-width="0.144" y1="29.88"  stroke="white" x1="24.12" x2="24.12"/>
                <line y2="20.52" stroke-linecap="round" stroke-width="0.144" y1="20.52"  stroke="white" x1="33.48" x2="24.12"/>
                <line y2="29.88" stroke-linecap="round" stroke-width="0.144" y1="20.52"  stroke="white" x1="33.48" x2="33.48"/>
                <line y2="29.88" stroke-linecap="round" stroke-width="0.144" y1="29.88"  stroke="white" x1="24.12" x2="33.48"/>
                <line y2="28.08" stroke-linecap="round" stroke-width="0.432" y1="28.08"  stroke="white" x1="11.52" x2="10.44"/>
                <line y2="22.32" stroke-linecap="round" stroke-width="0.432" y1="28.08"  stroke="white" x1="11.52" x2="11.52"/>
                <line y2="22.32" stroke-linecap="round" stroke-width="0.432" y1="28.08"  stroke="white" x1="10.44" x2="10.44"/>
                <line y2="22.32" stroke-linecap="round" stroke-width="0.432" y1="22.32"  stroke="white" x1="10.44" x2="11.52"/>
                <line y2="10.8" stroke-linecap="round" stroke-width="0.432" y1="7.92"  stroke="white" x1="14.4" x2="11.52"/>
                <line y2="20.16" stroke-linecap="round" stroke-width="0.432" y1="10.8"  stroke="white" x1="11.52" x2="11.52"/>
                <line y2="7.92" stroke-linecap="round" stroke-width="0.432" y1="7.92"  stroke="white" x1="14.4" x2="18"/>
                <line y2="7.92" stroke-linecap="round" stroke-width="0.432" y1="7.92"  stroke="white" x1="25.56" x2="32.04"/>
                <line y2="7.92" stroke-linecap="round" stroke-width="0.432" y1="10.8"  stroke="white" x1="46.08" x2="43.2"/>
                <line y2="7.92" stroke-linecap="round" stroke-width="0.432" y1="7.92"  stroke="white" x1="43.2" x2="39.6"/>
                <line y2="42.48" stroke-linecap="round" stroke-width="0.432" y1="42.48"  stroke="white" x1="25.56" x2="32.04"/>
                <line y2="42.48" stroke-linecap="round" stroke-width="0.432" y1="42.48"  stroke="white" x1="39.6" x2="43.2"/>
                <line y2="39.6" stroke-linecap="round" stroke-width="0.432" y1="42.48"  stroke="white" x1="43.2" x2="46.08"/>
                <line y2="30.24" stroke-linecap="round" stroke-width="0.432" y1="39.6"  stroke="white" x1="46.08" x2="46.08"/>
                <line y2="30.24" stroke-linecap="round" stroke-width="0.432" y1="39.6"  stroke="white" x1="11.52" x2="11.52"/>
                <line y2="42.48" stroke-linecap="round" stroke-width="0.432" y1="39.6"  stroke="white" x1="11.52" x2="14.4"/>
                <line y2="42.48" stroke-linecap="round" stroke-width="0.432" y1="42.48"  stroke="white" x1="14.4" x2="18"/>
                <line y2="22.32" stroke-linecap="round" stroke-width="0.432" y1="28.08"  stroke="white" x1="47.16" x2="47.16"/>
                <line y2="28.08" stroke-linecap="round" stroke-width="0.432" y1="28.08"  stroke="white" x1="47.16" x2="46.08"/>
                <line y2="22.32" stroke-linecap="round" stroke-width="0.432" y1="22.32"  stroke="white" x1="46.08" x2="47.16"/>
                <line y2="11.52" stroke-linecap="round" stroke-width="0.432" y1="10.8"  stroke="white" x1="11.52" x2="10.8"/>
                <line y2="20.16" stroke-linecap="round" stroke-width="0.432" y1="11.52"  stroke="white" x1="10.8" x2="10.8"/>
                <line y2="20.16" stroke-linecap="round" stroke-width="0.432" y1="20.16"  stroke="white" x1="10.8" x2="11.52"/>
                <line y2="22.32" stroke-linecap="round" stroke-width="0.432" y1="20.16"  stroke="white" x1="11.52" x2="11.52"/>
                <line y2="30.24" stroke-linecap="round" stroke-width="0.432" y1="30.24"  stroke="white" x1="10.8" x2="11.52"/>
                <line y2="28.08" stroke-linecap="round" stroke-width="0.432" y1="30.24"  stroke="white" x1="11.52" x2="11.52"/>
                <line y2="38.88" stroke-linecap="round" stroke-width="0.432" y1="30.24"  stroke="white" x1="10.8" x2="10.8"/>
                <line y2="38.88" stroke-linecap="round" stroke-width="0.432" y1="39.6"  stroke="white" x1="11.52" x2="10.8"/>
                <line y2="22.32" stroke-linecap="round" stroke-width="0.432" y1="28.08"  stroke="white" x1="46.08" x2="46.08"/>
                <line y2="20.16" stroke-linecap="round" stroke-width="0.432" y1="22.32"  stroke="white" x1="46.08" x2="46.08"/>
                <line y2="30.24" stroke-linecap="round" stroke-width="0.432" y1="30.24"  stroke="white" x1="46.08" x2="46.8"/>
                <line y2="28.08" stroke-linecap="round" stroke-width="0.432" y1="30.24"  stroke="white" x1="46.08" x2="46.08"/>
                <line y2="38.88" stroke-linecap="round" stroke-width="0.432" y1="30.24"  stroke="white" x1="46.8" x2="46.8"/>
                <line y2="39.6" stroke-linecap="round" stroke-width="0.432" y1="38.88"  stroke="white" x1="46.8" x2="46.08"/>
                <line y2="20.16" stroke-linecap="round" stroke-width="0.432" y1="20.16"  stroke="white" x1="46.08" x2="46.8"/>
                <line y2="10.8" stroke-linecap="round" stroke-width="0.432" y1="20.16"  stroke="white" x1="46.08" x2="46.08"/>
                <line y2="20.16" stroke-linecap="round" stroke-width="0.432" y1="11.52"  stroke="white" x1="46.8" x2="46.8"/>
                <line y2="11.52" stroke-linecap="round" stroke-width="0.432" y1="10.8"  stroke="white" x1="46.08" x2="46.8"/>
                <circle cy="25.2" stroke-width="0.432" r="10.08"  fill="none" stroke="white" cx="28.8"/>
                <circle cy="25.2" stroke-width="0.144" r="2.88"  fill="none" stroke="white" cx="28.8"/>
                <circle cy="25.2" stroke-width="0.144" r="2.16"  fill="none" stroke="white" cx="28.8"/>
            </g>
        </g>
    </g>
    <g id="copper1"  gorn="0.2">
        <g id="copper0"  gorn="0.2.0">
            <circle cy="28.8" id="connector1pad" stroke-width="1.08" r="1.98"  fill="none" stroke="#F7BD13" cx="54" gorn="0.2.0.0" connectorname="GND"/>
            <circle cy="14.4" id="connector7pad" stroke-width="1.08" r="1.98"  fill="none" stroke="#F7BD13" cx="3.6" gorn="0.2.0.1" connectorname="IN"/>
            <circle cy="21.6" id="connector2pad" stroke-width="1.08" r="1.98"  fill="none" stroke="#F7BD13" cx="54" gorn="0.2.0.2" connectorname="OUT"/>
            <circle cy="14.4" id="connector3pad" stroke-width="1.08" r="1.98"  fill="none" stroke="#F7BD13" cx="54" gorn="0.2.0.3" connectorname="IN"/>
            <circle cy="36" id="connector4pad" stroke-width="1.08" r="1.98"  fill="none" stroke="#F7BD13" cx="3.6" gorn="0.2.0.4" connectorname="OFF"/>
            <circle cy="28.8" id="connector5pad" stroke-width="1.08" r="1.98"  fill="none" stroke="#F7BD13" cx="3.6" gorn="0.2.0.5" connectorname="GND"/>
            <circle cy="21.6" id="connector6pad" stroke-width="1.08" r="1.98"  fill="none" stroke="#F7BD13" cx="3.6" gorn="0.2.0.6" connectorname="OUT"/>
            <circle cy="36" id="connector0pad" stroke-width="1.08" r="1.98"  fill="none" stroke="#F7BD13" cx="54" gorn="0.2.0.7" connectorname="OFF"/>
        </g>
    </g>
</svg>
