<?xml version='1.0' encoding='UTF-8' standalone='no'?>
<!-- Created with Fritzing (http://www.fritzing.org/) -->
<svg xmlns="http://www.w3.org/2000/svg" height="0.975in" baseProfile="tiny"  version="1.2" viewBox="0 0 64.8 70.2" x="0in" width="0.9in" y="0in">
    <desc >
        <referenceFile >coin12mm - switched_pcb.svg</referenceFile>
    </desc>
    <desc >Fritzing footprint generated by brd2svg</desc>
    <g  gorn="0.2" id="silkscreen">
        <path stroke="white"  fill="none" d="M7.42399,0.288L15.9365,0.288A3.312,3.312,0,0,1,18.4594,1.33376L21.0077,3.88383A3.312,3.312,0,0,0,23.5307,4.9296L41.2693,4.9296A3.312,3.312,0,0,0,43.7923,3.88383L46.3406,1.33376A3.312,3.312,0,0,1,48.8635,0.288L57.376,0.288A6.912,6.912,0,0,1,64.512,7.42889L64.512,62.7711A6.912,6.912,0,0,1,57.376,69.912L7.42399,69.912A6.912,6.912,0,0,1,0.288,62.7711L0.288,7.42889A6.912,6.912,0,0,1,7.42399,0.288M27.0187,48.96a1.12932,1.12932,0,1,0,2.25865,0,1.12932,1.12932,0,1,0,-2.25865,0zM35.5226,48.96a1.12932,1.12932,0,1,0,2.25865,0,1.12932,1.12932,0,1,0,-2.25865,0z" stroke-width="0.576"/>
        <g >
            <title >element:B1</title>
            <g >
                <title >package:CR1220</title>
                <line stroke="white"  stroke-linecap="round" x1="3.6" x2="13.68" y1="24.12" y2="24.12" stroke-width="0.576"/>
                <line stroke="white"  stroke-linecap="round" x1="13.68" x2="13.68" y1="24.12" y2="29.88" stroke-width="0.576"/>
                <line stroke="white"  stroke-linecap="round" x1="13.68" x2="21.6" y1="29.88" y2="37.8" stroke-width="0.576"/>
                <line stroke="white"  stroke-linecap="round" x1="21.6" x2="43.2" y1="37.8" y2="37.8" stroke-width="0.576"/>
                <line stroke="white"  stroke-linecap="round" x1="43.2" x2="51.12" y1="37.8" y2="29.88" stroke-width="0.576"/>
                <line stroke="white"  stroke-linecap="round" x1="51.12" x2="51.12" y1="29.88" y2="24.12" stroke-width="0.576"/>
                <line stroke="white"  stroke-linecap="round" x1="51.12" x2="61.2" y1="24.12" y2="24.12" stroke-width="0.576"/>
                <line stroke="white"  stroke-linecap="round" x1="61.2" x2="61.2" y1="24.12" y2="14.04" stroke-width="0.576"/>
                <line stroke="white"  stroke-linecap="round" x1="61.2" x2="51.12" y1="14.04" y2="14.04" stroke-width="0.576"/>
                <line stroke="white"  stroke-linecap="round" x1="51.12" x2="51.12" y1="14.04" y2="0.36" stroke-width="0.576"/>
                <line stroke="white"  stroke-linecap="round" x1="13.68" x2="13.68" y1="0.36" y2="14.04" stroke-width="0.576"/>
                <line stroke="white"  stroke-linecap="round" x1="13.68" x2="3.6" y1="14.04" y2="14.04" stroke-width="0.576"/>
                <line stroke="white"  stroke-linecap="round" x1="3.6" x2="3.6" y1="14.04" y2="24.12" stroke-width="0.576"/>
            </g>
        </g>
        <g >
            <title >element:SW1</title>
            <g >
                <title >package:EG1390</title>
                <line stroke="white"  stroke-linecap="round" x1="42.6047" x2="22.1953" y1="53.9207" y2="53.9207" stroke-width="0.36"/>
                <line stroke="white"  stroke-linecap="round" x1="22.1953" x2="22.1953" y1="53.9207" y2="43.9993" stroke-width="0.36"/>
                <line stroke="white"  stroke-linecap="round" x1="22.1953" x2="42.6047" y1="43.9993" y2="43.9993" stroke-width="0.36"/>
                <line stroke="white"  stroke-linecap="round" x1="42.6047" x2="42.6047" y1="43.9993" y2="53.9207" stroke-width="0.36"/>
            </g>
        </g>
    </g>
    <g  gorn="0.3" id="copper1">
        <g  gorn="0.3.0" id="copper0">
            <circle connectorname="GND" stroke="#F7BD13" cx="43.2"  cy="66.24" fill="none" gorn="0.3.0.0" r="1.98" id="connector3pad" stroke-width="1.08"/>
            <rect height="0.01008" stroke="none"  fill="none" gorn="0.3.0.1" x="43.195" id="connector3terminal" width="0.01008" y="68.755" stroke-width="0"/>
            <circle connectorname="GND" stroke="#F7BD13" cx="36"  cy="66.24" fill="none" gorn="0.3.0.2" r="1.98" id="connector4pad" stroke-width="1.08"/>
            <rect height="0.01008" stroke="none"  fill="none" gorn="0.3.0.3" x="35.995" id="connector4terminal" width="0.01008" y="68.755" stroke-width="0"/>
            <circle connectorname="ON" stroke="#F7BD13" cx="28.8"  cy="66.24" fill="none" gorn="0.3.0.4" r="1.98" id="connector5pad" stroke-width="1.08"/>
            <rect height="0.01008" stroke="none"  fill="none" gorn="0.3.0.5" x="28.795" id="connector5terminal" width="0.01008" y="68.755" stroke-width="0"/>
            <circle connectorname="SW" stroke="#F7BD13" cx="21.6"  cy="66.24" fill="none" gorn="0.3.0.6" r="1.98" id="connector6pad" stroke-width="1.08"/>
            <rect height="0.01008" stroke="none"  fill="none" gorn="0.3.0.7" x="21.595" id="connector6terminal" width="0.01008" y="68.755" stroke-width="0"/>
        </g>
    </g>
</svg>
