<?xml version='1.0' encoding='UTF-8' standalone='no'?>
<!-- Created with Fritzing (http://www.fritzing.org/) -->
<svg xmlns="http://www.w3.org/2000/svg" width="0.6in" x="0in" height="0.805in" baseProfile="tiny" viewBox="0 0 43.2 57.96" y="0in"  version="1.2">
    <desc >
        <referenceFile >FET_I2CShifter_v0.2_pcb.svg</referenceFile>
    </desc>
    <desc >Fritzing footprint generated by brd2svg</desc>
    <g gorn="0.2" id="silkscreen" >
        <path d="M35.808,57.672L7.39202,57.672A6.912,6.912,0,0,1,0.288,50.5436L0.288,7.41643A6.912,6.912,0,0,1,7.39202,0.288L35.808,0.288A6.912,6.912,0,0,1,42.912,7.41643L42.912,50.5436A6.912,6.912,0,0,1,35.808,57.672" stroke="white" fill="none"  stroke-width="0.576"/>
        <g >
            <title >element:JP3</title>
            <g >
                <title >package:1X06-CLEANBIG</title>
            </g>
        </g>
        <g >
            <title >element:JP4</title>
            <g >
                <title >package:1X06-CLEANBIG</title>
            </g>
        </g>
    </g>
    <g gorn="0.3" id="copper1" >
        <g gorn="0.3.0" id="copper0" >
            <circle gorn="0.3.0.0" cy="39.96" stroke="#F7BD13" cx="7.2" fill="none" r="1.98" connectorname="A4" id="connector6pad"  stroke-width="1.08"/>
            <circle gorn="0.3.0.1" cy="32.76" stroke="#F7BD13" cx="7.2" fill="none" r="1.98" connectorname="A3" id="connector7pad"  stroke-width="1.08"/>
            <circle gorn="0.3.0.2" cy="25.56" stroke="#F7BD13" cx="7.2" fill="none" r="1.98" connectorname="A2" id="connector8pad"  stroke-width="1.08"/>
            <circle gorn="0.3.0.3" cy="18.36" stroke="#F7BD13" cx="7.2" fill="none" r="1.98" connectorname="A1" id="connector9pad"  stroke-width="1.08"/>
            <circle gorn="0.3.0.4" cy="11.16" stroke="#F7BD13" cx="7.2" fill="none" r="1.98" connectorname="LV" id="connector10pad"  stroke-width="1.08"/>
            <circle gorn="0.3.0.5" cy="47.16" stroke="#F7BD13" cx="36" fill="none" r="1.98" connectorname="GND" id="connector11pad"  stroke-width="1.08"/>
            <circle gorn="0.3.0.6" cy="39.96" stroke="#F7BD13" cx="36" fill="none" r="1.98" connectorname="B4" id="connector12pad"  stroke-width="1.08"/>
            <circle gorn="0.3.0.7" cy="32.76" stroke="#F7BD13" cx="36" fill="none" r="1.98" connectorname="B3" id="connector13pad"  stroke-width="1.08"/>
            <circle gorn="0.3.0.8" cy="25.56" stroke="#F7BD13" cx="36" fill="none" r="1.98" connectorname="B2" id="connector14pad"  stroke-width="1.08"/>
            <circle gorn="0.3.0.9" cy="18.36" stroke="#F7BD13" cx="36" fill="none" r="1.98" connectorname="B1" id="connector15pad"  stroke-width="1.08"/>
            <circle gorn="0.3.0.10" cy="11.16" stroke="#F7BD13" cx="36" fill="none" r="1.98" connectorname="HV" id="connector16pad"  stroke-width="1.08"/>
            <circle gorn="0.3.0.11" cy="47.16" stroke="#F7BD13" cx="7.2" fill="none" r="1.98" connectorname="GND" id="connector5pad"  stroke-width="1.08"/>
        </g>
    </g>
</svg>
