<?xml version='1.0' encoding='UTF-8' standalone='no'?>
<!-- Created with Fritzing (http://www.fritzing.org/) -->
<svg xmlns="http://www.w3.org/2000/svg"  viewBox="0 0 142.143 63.1446" y="0in" width="1.97421in" x="0in" baseProfile="tiny" version="1.2" height="0.877008in">
    <desc>
        <referenceFile>Adafruit I2C+SPI LCD Backpack_pcb.svg</referenceFile>
    </desc>
    <desc >Fritzing footprint generated by brd2svg</desc>
    <g  gorn="0.1" id="silkscreen">
        <path stroke-width="0.576" stroke="white"  d="M0.288,62.8566L0.288,0.288L141.855,0.288L141.855,62.8566L0.288,62.8566M131.306,7.30829a3.6805,3.6805,0,1,0,7.36099,0,3.6805,3.6805,0,1,0,-7.36099,0z" fill="none"/>
        <g >
            <title >element:IC1</title>
            <g >
                <title >package:SO18W</title>
            </g>
        </g>
        <g >
            <title >element:IC2</title>
            <g >
                <title >package:SO16</title>
                <line y1="35.6763" stroke-width="0.432" stroke="white"  x2="89.9856" x1="63.3458" stroke-linecap="round" y2="35.6763"/>
                <path stroke-width="0.432" stroke="white"  d="M63.3458,24.5883A1.08,1.08,0,0,0,62.2658,25.6683" fill="none"/>
                <path stroke-width="0.432" stroke="white"  d="M89.9856,35.6763A1.08,1.08,0,0,0,91.0656,34.5963" fill="none"/>
                <path stroke-width="0.432" stroke="white"  d="M62.2658,34.5963A1.08,1.08,0,0,0,63.3458,35.6763" fill="none"/>
                <path stroke-width="0.432" stroke="white"  d="M91.0656,25.6683A1.08,1.08,0,0,0,89.9856,24.5883" fill="none"/>
                <line y1="24.5883" stroke-width="0.432" stroke="white"  x2="63.3458" x1="89.9856" stroke-linecap="round" y2="24.5883"/>
                <line y1="25.6683" stroke-width="0.432" stroke="white"  x2="62.2658" x1="62.2658" stroke-linecap="round" y2="34.5963"/>
                <line y1="34.5963" stroke-width="0.432" stroke="white"  x2="91.0656" x1="91.0656" stroke-linecap="round" y2="31.5723"/>
                <line y1="31.5723" stroke-width="0.432" stroke="white"  x2="91.0656" x1="91.0656" stroke-linecap="round" y2="28.6923"/>
                <line y1="28.6923" stroke-width="0.432" stroke="white"  x2="91.0656" x1="91.0656" stroke-linecap="round" y2="25.6683"/>
                <path stroke-width="0.432" stroke="white"  d="M91.0656,28.6923A1.44,1.44,0,1,0,91.0656,31.5723" fill="none"/>
                <line y1="25.5963" stroke-width="0.144" stroke="white"  x2="62.2658" x1="91.0656" stroke-linecap="round" y2="25.5963"/>
            </g>
        </g>
        <g >
            <title >element:J1</title>
            <g >
                <title >package:1X05-3.5MM</title>
                <line y1="42.8145" stroke-width="0.36" stroke="white"  x2="90.3938" x1="90.3938" stroke-linecap="round" y2="58.8019"/>
                <line y1="58.8019" stroke-width="0.36" stroke="white"  x2="90.3938" x1="90.3938" stroke-linecap="round" y2="62.657"/>
                <line y1="62.657" stroke-width="0.36" stroke="white"  x2="141.417" x1="90.3938" stroke-linecap="round" y2="62.657"/>
                <line y1="62.657" stroke-width="0.36" stroke="white"  x2="141.417" x1="141.417" stroke-linecap="round" y2="58.8019"/>
                <line y1="58.8019" stroke-width="0.36" stroke="white"  x2="141.417" x1="141.417" stroke-linecap="round" y2="42.8145"/>
                <line y1="42.8145" stroke-width="0.36" stroke="white"  x2="90.3938" x1="141.417" stroke-linecap="round" y2="42.8145"/>
                <line y1="58.8019" stroke-width="0.36" stroke="white"  x2="141.417" x1="90.3938" stroke-linecap="round" y2="58.8019"/>
            </g>
        </g>
        <g >
            <title >element:JP1</title>
            <g >
                <title >package:1X16</title>
                <line y1="9.10829" stroke-width="0.432" stroke="white"  x2="20.5058" x1="22.3058" stroke-linecap="round" y2="10.9083"/>
                <line y1="10.9083" stroke-width="0.432" stroke="white"  x2="16.9058" x1="20.5058" stroke-linecap="round" y2="10.9083"/>
                <line y1="10.9083" stroke-width="0.432" stroke="white"  x2="15.1058" x1="16.9058" stroke-linecap="round" y2="9.10829"/>
                <line y1="9.10829" stroke-width="0.432" stroke="white"  x2="15.1058" x1="15.1058" stroke-linecap="round" y2="5.50828"/>
                <line y1="5.50828" stroke-width="0.432" stroke="white"  x2="16.9058" x1="15.1058" stroke-linecap="round" y2="3.70828"/>
                <line y1="3.70828" stroke-width="0.432" stroke="white"  x2="20.5058" x1="16.9058" stroke-linecap="round" y2="3.70828"/>
                <line y1="3.70828" stroke-width="0.432" stroke="white"  x2="22.3058" x1="20.5058" stroke-linecap="round" y2="5.50828"/>
                <line y1="10.9083" stroke-width="0.432" stroke="white"  x2="31.3058" x1="34.9058" stroke-linecap="round" y2="10.9083"/>
                <line y1="10.9083" stroke-width="0.432" stroke="white"  x2="29.5058" x1="31.3058" stroke-linecap="round" y2="9.10829"/>
                <line y1="9.10829" stroke-width="0.432" stroke="white"  x2="29.5058" x1="29.5058" stroke-linecap="round" y2="5.50828"/>
                <line y1="5.50828" stroke-width="0.432" stroke="white"  x2="31.3058" x1="29.5058" stroke-linecap="round" y2="3.70828"/>
                <line y1="9.10829" stroke-width="0.432" stroke="white"  x2="27.7058" x1="29.5058" stroke-linecap="round" y2="10.9083"/>
                <line y1="10.9083" stroke-width="0.432" stroke="white"  x2="24.1058" x1="27.7058" stroke-linecap="round" y2="10.9083"/>
                <line y1="10.9083" stroke-width="0.432" stroke="white"  x2="22.3058" x1="24.1058" stroke-linecap="round" y2="9.10829"/>
                <line y1="9.10829" stroke-width="0.432" stroke="white"  x2="22.3058" x1="22.3058" stroke-linecap="round" y2="5.50828"/>
                <line y1="5.50828" stroke-width="0.432" stroke="white"  x2="24.1058" x1="22.3058" stroke-linecap="round" y2="3.70828"/>
                <line y1="3.70828" stroke-width="0.432" stroke="white"  x2="27.7058" x1="24.1058" stroke-linecap="round" y2="3.70828"/>
                <line y1="3.70828" stroke-width="0.432" stroke="white"  x2="29.5058" x1="27.7058" stroke-linecap="round" y2="5.50828"/>
                <line y1="9.10829" stroke-width="0.432" stroke="white"  x2="42.1058" x1="43.9058" stroke-linecap="round" y2="10.9083"/>
                <line y1="10.9083" stroke-width="0.432" stroke="white"  x2="38.5058" x1="42.1058" stroke-linecap="round" y2="10.9083"/>
                <line y1="10.9083" stroke-width="0.432" stroke="white"  x2="36.7058" x1="38.5058" stroke-linecap="round" y2="9.10829"/>
                <line y1="9.10829" stroke-width="0.432" stroke="white"  x2="36.7058" x1="36.7058" stroke-linecap="round" y2="5.50828"/>
                <line y1="5.50828" stroke-width="0.432" stroke="white"  x2="38.5058" x1="36.7058" stroke-linecap="round" y2="3.70828"/>
                <line y1="3.70828" stroke-width="0.432" stroke="white"  x2="42.1058" x1="38.5058" stroke-linecap="round" y2="3.70828"/>
                <line y1="3.70828" stroke-width="0.432" stroke="white"  x2="43.9058" x1="42.1058" stroke-linecap="round" y2="5.50828"/>
                <line y1="10.9083" stroke-width="0.432" stroke="white"  x2="36.7058" x1="34.9058" stroke-linecap="round" y2="9.10829"/>
                <line y1="5.50828" stroke-width="0.432" stroke="white"  x2="34.9058" x1="36.7058" stroke-linecap="round" y2="3.70828"/>
                <line y1="3.70828" stroke-width="0.432" stroke="white"  x2="34.9058" x1="31.3058" stroke-linecap="round" y2="3.70828"/>
                <line y1="10.9083" stroke-width="0.432" stroke="white"  x2="52.9058" x1="56.5058" stroke-linecap="round" y2="10.9083"/>
                <line y1="10.9083" stroke-width="0.432" stroke="white"  x2="51.1058" x1="52.9058" stroke-linecap="round" y2="9.10829"/>
                <line y1="9.10829" stroke-width="0.432" stroke="white"  x2="51.1058" x1="51.1058" stroke-linecap="round" y2="5.50828"/>
                <line y1="5.50828" stroke-width="0.432" stroke="white"  x2="52.9058" x1="51.1058" stroke-linecap="round" y2="3.70828"/>
                <line y1="9.10829" stroke-width="0.432" stroke="white"  x2="49.3058" x1="51.1058" stroke-linecap="round" y2="10.9083"/>
                <line y1="10.9083" stroke-width="0.432" stroke="white"  x2="45.7058" x1="49.3058" stroke-linecap="round" y2="10.9083"/>
                <line y1="10.9083" stroke-width="0.432" stroke="white"  x2="43.9058" x1="45.7058" stroke-linecap="round" y2="9.10829"/>
                <line y1="9.10829" stroke-width="0.432" stroke="white"  x2="43.9058" x1="43.9058" stroke-linecap="round" y2="5.50828"/>
                <line y1="5.50828" stroke-width="0.432" stroke="white"  x2="45.7058" x1="43.9058" stroke-linecap="round" y2="3.70828"/>
                <line y1="3.70828" stroke-width="0.432" stroke="white"  x2="49.3058" x1="45.7058" stroke-linecap="round" y2="3.70828"/>
                <line y1="3.70828" stroke-width="0.432" stroke="white"  x2="51.1058" x1="49.3058" stroke-linecap="round" y2="5.50828"/>
                <line y1="9.10829" stroke-width="0.432" stroke="white"  x2="63.7058" x1="65.5058" stroke-linecap="round" y2="10.9083"/>
                <line y1="10.9083" stroke-width="0.432" stroke="white"  x2="60.1058" x1="63.7058" stroke-linecap="round" y2="10.9083"/>
                <line y1="10.9083" stroke-width="0.432" stroke="white"  x2="58.3058" x1="60.1058" stroke-linecap="round" y2="9.10829"/>
                <line y1="9.10829" stroke-width="0.432" stroke="white"  x2="58.3058" x1="58.3058" stroke-linecap="round" y2="5.50828"/>
                <line y1="5.50828" stroke-width="0.432" stroke="white"  x2="60.1058" x1="58.3058" stroke-linecap="round" y2="3.70828"/>
                <line y1="3.70828" stroke-width="0.432" stroke="white"  x2="63.7058" x1="60.1058" stroke-linecap="round" y2="3.70828"/>
                <line y1="3.70828" stroke-width="0.432" stroke="white"  x2="65.5058" x1="63.7058" stroke-linecap="round" y2="5.50828"/>
                <line y1="10.9083" stroke-width="0.432" stroke="white"  x2="58.3058" x1="56.5058" stroke-linecap="round" y2="9.10829"/>
                <line y1="5.50828" stroke-width="0.432" stroke="white"  x2="56.5058" x1="58.3058" stroke-linecap="round" y2="3.70828"/>
                <line y1="3.70828" stroke-width="0.432" stroke="white"  x2="56.5058" x1="52.9058" stroke-linecap="round" y2="3.70828"/>
                <line y1="10.9083" stroke-width="0.432" stroke="white"  x2="74.5056" x1="78.1056" stroke-linecap="round" y2="10.9083"/>
                <line y1="10.9083" stroke-width="0.432" stroke="white"  x2="72.7056" x1="74.5056" stroke-linecap="round" y2="9.10829"/>
                <line y1="9.10829" stroke-width="0.432" stroke="white"  x2="72.7056" x1="72.7056" stroke-linecap="round" y2="5.50828"/>
                <line y1="5.50828" stroke-width="0.432" stroke="white"  x2="74.5056" x1="72.7056" stroke-linecap="round" y2="3.70828"/>
                <line y1="9.10829" stroke-width="0.432" stroke="white"  x2="70.9058" x1="72.7056" stroke-linecap="round" y2="10.9083"/>
                <line y1="10.9083" stroke-width="0.432" stroke="white"  x2="67.3058" x1="70.9058" stroke-linecap="round" y2="10.9083"/>
                <line y1="10.9083" stroke-width="0.432" stroke="white"  x2="65.5058" x1="67.3058" stroke-linecap="round" y2="9.10829"/>
                <line y1="9.10829" stroke-width="0.432" stroke="white"  x2="65.5058" x1="65.5058" stroke-linecap="round" y2="5.50828"/>
                <line y1="5.50828" stroke-width="0.432" stroke="white"  x2="67.3058" x1="65.5058" stroke-linecap="round" y2="3.70828"/>
                <line y1="3.70828" stroke-width="0.432" stroke="white"  x2="70.9058" x1="67.3058" stroke-linecap="round" y2="3.70828"/>
                <line y1="3.70828" stroke-width="0.432" stroke="white"  x2="72.7056" x1="70.9058" stroke-linecap="round" y2="5.50828"/>
                <line y1="9.10829" stroke-width="0.432" stroke="white"  x2="85.3056" x1="87.1056" stroke-linecap="round" y2="10.9083"/>
                <line y1="10.9083" stroke-width="0.432" stroke="white"  x2="81.7056" x1="85.3056" stroke-linecap="round" y2="10.9083"/>
                <line y1="10.9083" stroke-width="0.432" stroke="white"  x2="79.9056" x1="81.7056" stroke-linecap="round" y2="9.10829"/>
                <line y1="9.10829" stroke-width="0.432" stroke="white"  x2="79.9056" x1="79.9056" stroke-linecap="round" y2="5.50828"/>
                <line y1="5.50828" stroke-width="0.432" stroke="white"  x2="81.7056" x1="79.9056" stroke-linecap="round" y2="3.70828"/>
                <line y1="3.70828" stroke-width="0.432" stroke="white"  x2="85.3056" x1="81.7056" stroke-linecap="round" y2="3.70828"/>
                <line y1="3.70828" stroke-width="0.432" stroke="white"  x2="87.1056" x1="85.3056" stroke-linecap="round" y2="5.50828"/>
                <line y1="10.9083" stroke-width="0.432" stroke="white"  x2="79.9056" x1="78.1056" stroke-linecap="round" y2="9.10829"/>
                <line y1="5.50828" stroke-width="0.432" stroke="white"  x2="78.1056" x1="79.9056" stroke-linecap="round" y2="3.70828"/>
                <line y1="3.70828" stroke-width="0.432" stroke="white"  x2="78.1056" x1="74.5056" stroke-linecap="round" y2="3.70828"/>
                <line y1="10.9083" stroke-width="0.432" stroke="white"  x2="96.1056" x1="99.7056" stroke-linecap="round" y2="10.9083"/>
                <line y1="10.9083" stroke-width="0.432" stroke="white"  x2="94.3056" x1="96.1056" stroke-linecap="round" y2="9.10829"/>
                <line y1="9.10829" stroke-width="0.432" stroke="white"  x2="94.3056" x1="94.3056" stroke-linecap="round" y2="5.50828"/>
                <line y1="5.50828" stroke-width="0.432" stroke="white"  x2="96.1056" x1="94.3056" stroke-linecap="round" y2="3.70828"/>
                <line y1="9.10829" stroke-width="0.432" stroke="white"  x2="92.5056" x1="94.3056" stroke-linecap="round" y2="10.9083"/>
                <line y1="10.9083" stroke-width="0.432" stroke="white"  x2="88.9056" x1="92.5056" stroke-linecap="round" y2="10.9083"/>
                <line y1="10.9083" stroke-width="0.432" stroke="white"  x2="87.1056" x1="88.9056" stroke-linecap="round" y2="9.10829"/>
                <line y1="9.10829" stroke-width="0.432" stroke="white"  x2="87.1056" x1="87.1056" stroke-linecap="round" y2="5.50828"/>
                <line y1="5.50828" stroke-width="0.432" stroke="white"  x2="88.9056" x1="87.1056" stroke-linecap="round" y2="3.70828"/>
                <line y1="3.70828" stroke-width="0.432" stroke="white"  x2="92.5056" x1="88.9056" stroke-linecap="round" y2="3.70828"/>
                <line y1="3.70828" stroke-width="0.432" stroke="white"  x2="94.3056" x1="92.5056" stroke-linecap="round" y2="5.50828"/>
                <line y1="9.10829" stroke-width="0.432" stroke="white"  x2="106.906" x1="108.706" stroke-linecap="round" y2="10.9083"/>
                <line y1="10.9083" stroke-width="0.432" stroke="white"  x2="103.306" x1="106.906" stroke-linecap="round" y2="10.9083"/>
                <line y1="10.9083" stroke-width="0.432" stroke="white"  x2="101.506" x1="103.306" stroke-linecap="round" y2="9.10829"/>
                <line y1="9.10829" stroke-width="0.432" stroke="white"  x2="101.506" x1="101.506" stroke-linecap="round" y2="5.50828"/>
                <line y1="5.50828" stroke-width="0.432" stroke="white"  x2="103.306" x1="101.506" stroke-linecap="round" y2="3.70828"/>
                <line y1="3.70828" stroke-width="0.432" stroke="white"  x2="106.906" x1="103.306" stroke-linecap="round" y2="3.70828"/>
                <line y1="3.70828" stroke-width="0.432" stroke="white"  x2="108.706" x1="106.906" stroke-linecap="round" y2="5.50828"/>
                <line y1="10.9083" stroke-width="0.432" stroke="white"  x2="101.506" x1="99.7056" stroke-linecap="round" y2="9.10829"/>
                <line y1="5.50828" stroke-width="0.432" stroke="white"  x2="99.7056" x1="101.506" stroke-linecap="round" y2="3.70828"/>
                <line y1="3.70828" stroke-width="0.432" stroke="white"  x2="99.7056" x1="96.1056" stroke-linecap="round" y2="3.70828"/>
                <line y1="10.9083" stroke-width="0.432" stroke="white"  x2="117.706" x1="121.306" stroke-linecap="round" y2="10.9083"/>
                <line y1="10.9083" stroke-width="0.432" stroke="white"  x2="115.906" x1="117.706" stroke-linecap="round" y2="9.10829"/>
                <line y1="9.10829" stroke-width="0.432" stroke="white"  x2="115.906" x1="115.906" stroke-linecap="round" y2="5.50828"/>
                <line y1="5.50828" stroke-width="0.432" stroke="white"  x2="117.706" x1="115.906" stroke-linecap="round" y2="3.70828"/>
                <line y1="9.10829" stroke-width="0.432" stroke="white"  x2="114.106" x1="115.906" stroke-linecap="round" y2="10.9083"/>
                <line y1="10.9083" stroke-width="0.432" stroke="white"  x2="110.506" x1="114.106" stroke-linecap="round" y2="10.9083"/>
                <line y1="10.9083" stroke-width="0.432" stroke="white"  x2="108.706" x1="110.506" stroke-linecap="round" y2="9.10829"/>
                <line y1="9.10829" stroke-width="0.432" stroke="white"  x2="108.706" x1="108.706" stroke-linecap="round" y2="5.50828"/>
                <line y1="5.50828" stroke-width="0.432" stroke="white"  x2="110.506" x1="108.706" stroke-linecap="round" y2="3.70828"/>
                <line y1="3.70828" stroke-width="0.432" stroke="white"  x2="114.106" x1="110.506" stroke-linecap="round" y2="3.70828"/>
                <line y1="3.70828" stroke-width="0.432" stroke="white"  x2="115.906" x1="114.106" stroke-linecap="round" y2="5.50828"/>
                <line y1="9.10829" stroke-width="0.432" stroke="white"  x2="123.106" x1="123.106" stroke-linecap="round" y2="5.50828"/>
                <line y1="10.9083" stroke-width="0.432" stroke="white"  x2="123.106" x1="121.306" stroke-linecap="round" y2="9.10829"/>
                <line y1="5.50828" stroke-width="0.432" stroke="white"  x2="121.306" x1="123.106" stroke-linecap="round" y2="3.70828"/>
                <line y1="3.70828" stroke-width="0.432" stroke="white"  x2="121.306" x1="117.706" stroke-linecap="round" y2="3.70828"/>
                <line y1="9.10829" stroke-width="0.432" stroke="white"  x2="13.3058" x1="15.1058" stroke-linecap="round" y2="10.9083"/>
                <line y1="10.9083" stroke-width="0.432" stroke="white"  x2="9.70582" x1="13.3058" stroke-linecap="round" y2="10.9083"/>
                <line y1="10.9083" stroke-width="0.432" stroke="white"  x2="7.90582" x1="9.70582" stroke-linecap="round" y2="9.10829"/>
                <line y1="9.10829" stroke-width="0.432" stroke="white"  x2="7.90582" x1="7.90582" stroke-linecap="round" y2="5.50828"/>
                <line y1="5.50828" stroke-width="0.432" stroke="white"  x2="9.70582" x1="7.90582" stroke-linecap="round" y2="3.70828"/>
                <line y1="3.70828" stroke-width="0.432" stroke="white"  x2="13.3058" x1="9.70582" stroke-linecap="round" y2="3.70828"/>
                <line y1="3.70828" stroke-width="0.432" stroke="white"  x2="15.1058" x1="13.3058" stroke-linecap="round" y2="5.50828"/>
            </g>
        </g>
    </g>
    <g  gorn="0.2" id="copper1">
        <g  gorn="0.2.0" id="copper0">
            <circle cx="115.906" stroke-width="1.67868" stroke="#F7BD13"  r="2.25666" cy="52.4523" gorn="0.2.0.0" fill="none" id="connector49pad" connectorname="CLOCK"/>
            <circle cx="25.9058" stroke-width="0.72" stroke="#F7BD13"  r="1.8" cy="7.30829" gorn="0.2.0.1" fill="none" id="connector65pad" connectorname="DB7"/>
            <path stroke-width="0" stroke="none"  d="m24.1058,3.16828,3.6,0,0,8.28,-3.6,0,0,-8.28M24.1058,7.30829a1.8,1.8,0,1,0,3.6,0,1.8,1.8,0,1,0,-3.6,0z" fill="#F7BD13"/>
            <circle cx="83.5056" stroke-width="0.72" stroke="#F7BD13"  r="1.8" cy="7.30829" gorn="0.2.0.3" fill="none" id="connector57pad" connectorname="E"/>
            <path stroke-width="0" stroke="none"  d="m81.7056,3.16828,3.6,0,0,8.28,-3.6,0,0,-8.28M81.7056,7.30829a1.8,1.8,0,1,0,3.6,0,1.8,1.8,0,1,0,-3.6,0z" fill="#F7BD13"/>
            <circle cx="112.306" stroke-width="0.72" stroke="#F7BD13"  r="1.8" cy="7.30829" gorn="0.2.0.5" fill="none" id="connector53pad" connectorname="VCC"/>
            <path stroke-width="0" stroke="none"  d="m110.506,3.16828,3.6,0,0,8.28,-3.6,0,0,-8.28M110.506,7.30829a1.8,1.8,0,1,0,3.6,0,1.8,1.8,0,1,0,-3.6,0z" fill="#F7BD13"/>
            <circle cx="54.7058" stroke-width="0.72" stroke="#F7BD13"  r="1.8" cy="7.30829" gorn="0.2.0.7" fill="none" id="connector61pad" connectorname="DB3"/>
            <path stroke-width="0" stroke="none"  d="m52.9058,3.16828,3.6,0,0,8.28,-3.6,0,0,-8.28M52.9058,7.30829a1.8,1.8,0,1,0,3.6,0,1.8,1.8,0,1,0,-3.6,0z" fill="#F7BD13"/>
            <circle cx="135.748" stroke-width="1.67868" stroke="#F7BD13"  r="2.25666" cy="52.4523" gorn="0.2.0.9" fill="none" id="connector47pad" connectorname="GND"/>
            <circle cx="96.0631" stroke-width="1.67868" stroke="#F7BD13"  r="2.25666" cy="52.4523" gorn="0.2.0.10" fill="none" id="connector51pad" connectorname="LATCH"/>
            <circle cx="97.9056" stroke-width="0.72" stroke="#F7BD13"  r="1.8" cy="7.30829" gorn="0.2.0.11" fill="none" id="connector55pad" connectorname="RS"/>
            <path stroke-width="0" stroke="none"  d="m96.1056,3.16828,3.6,0,0,8.28,-3.6,0,0,-8.28M96.1056,7.30829a1.8,1.8,0,1,0,3.6,0,1.8,1.8,0,1,0,-3.6,0z" fill="#F7BD13"/>
            <circle cx="69.1058" stroke-width="0.72" stroke="#F7BD13"  r="1.8" cy="7.30829" gorn="0.2.0.13" fill="none" id="connector59pad" connectorname="DB1"/>
            <path stroke-width="0" stroke="none"  d="m67.3058,3.16828,3.6,0,0,8.28,-3.6,0,0,-8.28M67.3058,7.30829a1.8,1.8,0,1,0,3.6,0,1.8,1.8,0,1,0,-3.6,0z" fill="#F7BD13"/>
            <circle cx="40.3058" stroke-width="0.72" stroke="#F7BD13"  r="1.8" cy="7.30829" gorn="0.2.0.15" fill="none" id="connector63pad" connectorname="DB5"/>
            <path stroke-width="0" stroke="none"  d="m38.5058,3.16828,3.6,0,0,8.28,-3.6,0,0,-8.28M38.5058,7.30829a1.8,1.8,0,1,0,3.6,0,1.8,1.8,0,1,0,-3.6,0z" fill="#F7BD13"/>
            <circle cx="11.5058" stroke-width="0.72" stroke="#F7BD13"  r="1.8" cy="7.30829" gorn="0.2.0.17" fill="none" id="connector67pad" connectorname="LEDK"/>
            <path stroke-width="0" stroke="none"  d="m9.70582,3.16828,3.6,0,0,8.28,-3.6,0,0,-8.28M9.70582,7.30829a1.8,1.8,0,1,0,3.6,0,1.8,1.8,0,1,0,-3.6,0z" fill="#F7BD13"/>
            <circle cx="125.827" stroke-width="1.67868" stroke="#F7BD13"  r="2.25666" cy="52.4523" gorn="0.2.0.19" fill="none" id="connector48pad" connectorname="VCC"/>
            <circle cx="105.985" stroke-width="1.67868" stroke="#F7BD13"  r="2.25666" cy="52.4523" gorn="0.2.0.20" fill="none" id="connector50pad" connectorname="DATA"/>
            <circle cx="119.506" stroke-width="0.72" stroke="#F7BD13"  r="1.8" cy="7.30829" gorn="0.2.0.21" fill="none" id="connector52pad" connectorname="GND"/>
            <path stroke-width="0" stroke="none"  d="m117.706,3.16828,3.6,0,0,8.28,-3.6,0,0,-8.28M117.706,7.30829a1.8,1.8,0,1,0,3.6,0,1.8,1.8,0,1,0,-3.6,0z" fill="#F7BD13"/>
            <circle cx="105.106" stroke-width="0.72" stroke="#F7BD13"  r="1.8" cy="7.30829" gorn="0.2.0.23" fill="none" id="connector54pad" connectorname="CONTRAST"/>
            <path stroke-width="0" stroke="none"  d="m103.306,3.16828,3.6,0,0,8.28,-3.6,0,0,-8.28M103.306,7.30829a1.8,1.8,0,1,0,3.6,0,1.8,1.8,0,1,0,-3.6,0z" fill="#F7BD13"/>
            <circle cx="90.7056" stroke-width="0.72" stroke="#F7BD13"  r="1.8" cy="7.30829" gorn="0.2.0.25" fill="none" id="connector56pad" connectorname="GND"/>
            <path stroke-width="0" stroke="none"  d="m88.9056,3.16828,3.6,0,0,8.28,-3.6,0,0,-8.28M88.9056,7.30829a1.8,1.8,0,1,0,3.6,0,1.8,1.8,0,1,0,-3.6,0z" fill="#F7BD13"/>
            <circle cx="76.3056" stroke-width="0.72" stroke="#F7BD13"  r="1.8" cy="7.30829" gorn="0.2.0.27" fill="none" id="connector58pad" connectorname="DB0"/>
            <path stroke-width="0" stroke="none"  d="m74.5056,3.16828,3.6,0,0,8.28,-3.6,0,0,-8.28M74.5056,7.30829a1.8,1.8,0,1,0,3.6,0,1.8,1.8,0,1,0,-3.6,0z" fill="#F7BD13"/>
            <circle cx="61.9058" stroke-width="0.72" stroke="#F7BD13"  r="1.8" cy="7.30829" gorn="0.2.0.29" fill="none" id="connector60pad" connectorname="DB2"/>
            <path stroke-width="0" stroke="none"  d="m60.1058,3.16828,3.6,0,0,8.28,-3.6,0,0,-8.28M60.1058,7.30829a1.8,1.8,0,1,0,3.6,0,1.8,1.8,0,1,0,-3.6,0z" fill="#F7BD13"/>
            <circle cx="47.5058" stroke-width="0.72" stroke="#F7BD13"  r="1.8" cy="7.30829" gorn="0.2.0.31" fill="none" id="connector62pad" connectorname="DB4"/>
            <path stroke-width="0" stroke="none"  d="m45.7058,3.16828,3.6,0,0,8.28,-3.6,0,0,-8.28M45.7058,7.30829a1.8,1.8,0,1,0,3.6,0,1.8,1.8,0,1,0,-3.6,0z" fill="#F7BD13"/>
            <circle cx="33.1058" stroke-width="0.72" stroke="#F7BD13"  r="1.8" cy="7.30829" gorn="0.2.0.33" fill="none" id="connector64pad" connectorname="DB6"/>
            <path stroke-width="0" stroke="none"  d="m31.3058,3.16828,3.6,0,0,8.28,-3.6,0,0,-8.28M31.3058,7.30829a1.8,1.8,0,1,0,3.6,0,1.8,1.8,0,1,0,-3.6,0z" fill="#F7BD13"/>
            <circle cx="18.7058" stroke-width="0.72" stroke="#F7BD13"  r="1.8" cy="7.30829" gorn="0.2.0.35" fill="none" id="connector66pad" connectorname="VCC"/>
            <path stroke-width="0" stroke="none"  d="m16.9058,3.16828,3.6,0,0,8.28,-3.6,0,0,-8.28M16.9058,7.30829a1.8,1.8,0,1,0,3.6,0,1.8,1.8,0,1,0,-3.6,0z" fill="#F7BD13"/>
        </g>
    </g>
</svg>
