<?xml version='1.0' encoding='UTF-8' standalone='no'?>
<!-- Created with Fritzing (http://www.fritzing.org/) -->
<svg xmlns="http://www.w3.org/2000/svg" x="0in" baseProfile="tiny"  height="0.755in" viewBox="0 0 50.4 54.36" width="0.7in" version="1.2" y="0in">
    <desc>
        <referenceFile>Adafruit_BMP180_pcb.svg</referenceFile>
    </desc>
    <desc >Fritzing footprint generated by brd2svg</desc>
    <g gorn="0.1" id="silkscreen" >
        <path d="M42.9943,54.072L7.4057,54.072A6.912,6.912,0,0,1,0.288,46.9483L0.288,7.41168A6.912,6.912,0,0,1,7.4057,0.288L42.9943,0.288A6.912,6.912,0,0,1,50.112,7.41168L50.112,46.9483A6.912,6.912,0,0,1,42.9943,54.072" stroke="white"  fill="none" stroke-width="0.576"/>
        <g >
            <title >element:JP1</title>
            <g >
                <title >package:1X05_ROUND_70</title>
            </g>
        </g>
        <g >
            <title >element:U3</title>
            <g >
                <title >package:BMP180_EXTENDED</title>
                <line x2="30.7276" y1="15.789" stroke-linecap="round" stroke="white"  y2="27.411" x1="30.7276" stroke-width="0.36"/>
                <line x2="19.6724" y1="27.411" stroke-linecap="round" stroke="white"  y2="27.411" x1="30.7276" stroke-width="0.36"/>
                <line x2="19.6724" y1="27.411" stroke-linecap="round" stroke="white"  y2="15.789" x1="19.6724" stroke-width="0.36"/>
                <line x2="30.7276" y1="15.789" stroke-linecap="round" stroke="white"  y2="15.789" x1="19.6724" stroke-width="0.36"/>
                <circle cy="13.2378" stroke="white"  cx="20.948" r="0.566929" fill="none" stroke-width="0.992124"/>
            </g>
        </g>
    </g>
    <g gorn="0.2" id="copper1" >
        <g gorn="0.2.0" id="copper0" >
            <circle connectorname="+5V" cy="50.4" gorn="0.2.0.0" stroke="#F7BD13" id="connector4pad"  cx="10.8" r="1.96866" fill="none" stroke-width="1.10268"/>
            <rect x="8.8313" stroke="#F7BD13"  height="3.93732" width="3.93732" fill="none" y="48.4313" stroke-width="1.10268"/>
            <circle connectorname="+3V3" cy="50.4" gorn="0.2.0.2" stroke="#F7BD13" id="connector5pad"  cx="18" r="1.96866" fill="none" stroke-width="1.10268"/>
            <circle connectorname="GND" cy="50.4" gorn="0.2.0.3" stroke="#F7BD13" id="connector6pad"  cx="25.2" r="1.96866" fill="none" stroke-width="1.10268"/>
            <circle connectorname="SCL_5.0V" cy="50.4" gorn="0.2.0.4" stroke="#F7BD13" id="connector7pad"  cx="32.4" r="1.96866" fill="none" stroke-width="1.10268"/>
            <circle connectorname="SDA_5.0V" cy="50.4" gorn="0.2.0.5" stroke="#F7BD13" id="connector8pad"  cx="39.6" r="1.96866" fill="none" stroke-width="1.10268"/>
        </g>
    </g>
</svg>
