<?xml version='1.0' encoding='UTF-8' standalone='no'?>
<!-- Created with Fritzing (http://www.fritzing.org/) -->
<svg xmlns="http://www.w3.org/2000/svg" y="0in" x="0in" height="0.797008in" baseProfile="tiny" width="2.73421in" viewBox="0 0 196.863 57.3846"  version="1.2">
    <desc >
        <referenceFile >Adafruit USB Boarduino_pcb.svg</referenceFile>
    </desc>
    <desc >Fritzing footprint generated by brd2svg</desc>
    <g id="silkscreen" gorn="0.2" >
        <path d="M0.288,57.0966L0.288,0.288L196.575,0.288L196.575,57.0966L0.288,57.0966M15.3711,22.4561a1.12932,1.12932,0,1,0,2.25865,0,1.12932,1.12932,0,1,0,-2.25865,0zM15.3711,34.9285a1.12932,1.12932,0,1,0,2.25865,0,1.12932,1.12932,0,1,0,-2.25865,0zM173.556,33.0123a2.83011,2.83011,0,1,0,5.66022,0,2.83011,2.83011,0,1,0,-5.66022,0zM3.99572,7.09228a2.83011,2.83011,0,1,0,5.66022,0,2.83011,2.83011,0,1,0,-5.66022,0zM4.71572,50.2923a2.83011,2.83011,0,1,0,5.66022,0,2.83011,2.83011,0,1,0,-5.66022,0z"  fill="none" stroke="white" stroke-width="0.576"/>
        <circle cy="34.4523" r="2.16" cx="183.946"  fill="none" stroke="white" stroke-width="0.864"/>
        <g >
            <title >element:IC1</title>
            <g >
                <title >package:DIL28/3</title>
                <line x2="172.426" y2="47.4123" x1="71.6258" y1="47.4123"  stroke="white" stroke-linecap="round" stroke-width="0.432"/>
                <line x2="71.6258" y2="18.6123" x1="172.426" y1="18.6123"  stroke="white" stroke-linecap="round" stroke-width="0.432"/>
                <line x2="71.6258" y2="40.2123" x1="71.6258" y1="47.4123"  stroke="white" stroke-linecap="round" stroke-width="0.432"/>
                <line x2="172.426" y2="40.2123" x1="172.426" y1="47.4123"  stroke="white" stroke-linecap="round" stroke-width="0.432"/>
                <line x2="172.426" y2="25.8123" x1="172.426" y1="18.6123"  stroke="white" stroke-linecap="round" stroke-width="0.432"/>
                <path d="M172.426,30.1323A2.88,2.88,0,1,0,172.426,35.8923"  fill="none" stroke="white" stroke-width="0.432"/>
                <line x2="71.6258" y2="40.2123" x1="172.426" y1="40.2123"  stroke="white" stroke-linecap="round" stroke-width="0.432"/>
                <line x2="172.426" y2="35.8923" x1="172.426" y1="40.2123"  stroke="white" stroke-linecap="round" stroke-width="0.432"/>
                <line x2="71.6258" y2="25.8123" x1="71.6258" y1="40.2123"  stroke="white" stroke-linecap="round" stroke-width="0.432"/>
                <line x2="71.6258" y2="25.8123" x1="172.426" y1="25.8123"  stroke="white" stroke-linecap="round" stroke-width="0.432"/>
                <line x2="172.426" y2="30.1323" x1="172.426" y1="25.8123"  stroke="white" stroke-linecap="round" stroke-width="0.432"/>
                <line x2="71.6258" y2="18.6123" x1="71.6258" y1="25.8123"  stroke="white" stroke-linecap="round" stroke-width="0.432"/>
            </g>
        </g>
        <g >
            <title >element:IC2</title>
            <g >
                <title >package:TSSOP28</title>
                <line x2="59.8904" y2="46.7858" x1="32.9612" y1="46.7858"  stroke="white" stroke-linecap="round" stroke-width="0.72"/>
                <line x2="59.8904" y2="31.4788" x1="59.8904" y1="46.7858"  stroke="white" stroke-linecap="round" stroke-width="0.72"/>
                <line x2="32.9612" y2="31.4788" x1="59.8904" y1="31.4788"  stroke="white" stroke-linecap="round" stroke-width="0.72"/>
                <line x2="32.9612" y2="46.7858" x1="32.9612" y1="31.4788"  stroke="white" stroke-linecap="round" stroke-width="0.72"/>
                <circle cy="43.1008" r="0.316914" cx="34.8038"  fill="none" stroke="white" stroke-width="0.72"/>
            </g>
        </g>
        <g >
            <title >element:JD1</title>
            <g >
                <title >package:1X08-CLEANBIG</title>
            </g>
        </g>
        <g >
            <title >element:JD2</title>
            <g >
                <title >package:1X08-CLEANBIG</title>
            </g>
        </g>
        <g >
            <title >element:JP3</title>
            <g >
                <title >package:2X03</title>
                <line x2="181.066" y2="37.3323" x1="182.866" y1="35.5323"  stroke="white" stroke-linecap="round" stroke-width="0.432"/>
                <line x2="182.866" y2="42.7323" x1="181.066" y1="40.9323"  stroke="white" stroke-linecap="round" stroke-width="0.432"/>
                <line x2="181.066" y2="44.5323" x1="182.866" y1="42.7323"  stroke="white" stroke-linecap="round" stroke-width="0.432"/>
                <line x2="182.866" y2="49.9323" x1="181.066" y1="48.1323"  stroke="white" stroke-linecap="round" stroke-width="0.432"/>
                <line x2="193.666" y2="35.5323" x1="182.866" y1="35.5323"  stroke="white" stroke-linecap="round" stroke-width="0.432"/>
                <line x2="195.466" y2="37.3323" x1="193.666" y1="35.5323"  stroke="white" stroke-linecap="round" stroke-width="0.432"/>
                <line x2="195.466" y2="40.9323" x1="195.466" y1="37.3323"  stroke="white" stroke-linecap="round" stroke-width="0.432"/>
                <line x2="193.666" y2="42.7323" x1="195.466" y1="40.9323"  stroke="white" stroke-linecap="round" stroke-width="0.432"/>
                <line x2="195.466" y2="44.5323" x1="193.666" y1="42.7323"  stroke="white" stroke-linecap="round" stroke-width="0.432"/>
                <line x2="195.466" y2="48.1323" x1="195.466" y1="44.5323"  stroke="white" stroke-linecap="round" stroke-width="0.432"/>
                <line x2="193.666" y2="49.9323" x1="195.466" y1="48.1323"  stroke="white" stroke-linecap="round" stroke-width="0.432"/>
                <line x2="182.866" y2="42.7323" x1="193.666" y1="42.7323"  stroke="white" stroke-linecap="round" stroke-width="0.432"/>
                <line x2="182.866" y2="49.9323" x1="193.666" y1="49.9323"  stroke="white" stroke-linecap="round" stroke-width="0.432"/>
                <line x2="181.066" y2="48.1323" x1="181.066" y1="44.5323"  stroke="white" stroke-linecap="round" stroke-width="0.432"/>
                <line x2="181.066" y2="40.9323" x1="181.066" y1="37.3323"  stroke="white" stroke-linecap="round" stroke-width="0.432"/>
                <line x2="181.066" y2="51.7323" x1="182.866" y1="49.9323"  stroke="white" stroke-linecap="round" stroke-width="0.432"/>
                <line x2="182.866" y2="57.1323" x1="181.066" y1="55.3323"  stroke="white" stroke-linecap="round" stroke-width="0.432"/>
                <line x2="195.466" y2="51.7323" x1="193.666" y1="49.9323"  stroke="white" stroke-linecap="round" stroke-width="0.432"/>
                <line x2="195.466" y2="55.3323" x1="195.466" y1="51.7323"  stroke="white" stroke-linecap="round" stroke-width="0.432"/>
                <line x2="193.666" y2="57.1323" x1="195.466" y1="55.3323"  stroke="white" stroke-linecap="round" stroke-width="0.432"/>
                <line x2="182.866" y2="57.1323" x1="193.666" y1="57.1323"  stroke="white" stroke-linecap="round" stroke-width="0.432"/>
                <line x2="181.066" y2="55.3323" x1="181.066" y1="51.7323"  stroke="white" stroke-linecap="round" stroke-width="0.432"/>
            </g>
        </g>
        <g >
            <title >element:S1</title>
            <g >
                <title >package:EVQ-Q2</title>
                <line x2="179.402" y2="6.73795" x1="179.402" y1="25.4466"  stroke="white" stroke-linecap="round" stroke-width="0.36"/>
                <line x2="196.41" y2="6.73795" x1="179.402" y1="6.73795"  stroke="white" stroke-linecap="round" stroke-width="0.36"/>
                <line x2="196.41" y2="25.4466" x1="196.41" y1="6.73795"  stroke="white" stroke-linecap="round" stroke-width="0.36"/>
                <line x2="179.402" y2="25.4466" x1="196.41" y1="25.4466"  stroke="white" stroke-linecap="round" stroke-width="0.36"/>
                <circle cy="16.0923" r="4.26132" cx="187.906"  fill="none" stroke="white" stroke-width="0.36"/>
                <circle cy="16.0923" r="2.83465" cx="187.906"  fill="none" stroke="white" stroke-width="0.36"/>
            </g>
        </g>
        <g >
            <title >element:USB</title>
            <g >
                <title >package:USB-MINIB</title>
                <line x2="26.7052" y2="39.7474" x1="26.7052" y1="17.6372"  stroke="white" stroke-linecap="round" stroke-width="0.36"/>
                <line x2="0.626457" y2="39.7474" x1="0.626457" y1="17.6372"  stroke="white" stroke-linecap="round" stroke-width="0.36"/>
                <line x2="19.6186" y2="17.6372" x1="11.965" y1="17.6372"  stroke="white" stroke-linecap="round" stroke-width="0.36"/>
                <line x2="11.965" y2="39.7474" x1="19.6186" y1="39.7474"  stroke="white" stroke-linecap="round" stroke-width="0.36"/>
                <line x2="26.7052" y2="22.7395" x1="26.7052" y1="19.6214"  stroke="white" stroke-linecap="round" stroke-width="0.36"/>
                <line x2="26.7052" y2="37.7631" x1="26.7052" y1="34.645"  stroke="white" stroke-linecap="round" stroke-width="0.36"/>
            </g>
        </g>
    </g>
    <g id="copper1" gorn="0.3" >
        <g id="copper0" gorn="0.3.0" >
            <circle connectorname="D11" id="connector97pad" cy="46.3323" r="1.908" cx="191.866" gorn="0.3.0.0"  fill="none" stroke="#F7BD13" stroke-width="0.936"/>
            <circle connectorname="D3" id="connector81pad" cy="3.49228" r="1.98" cx="96.8256" gorn="0.3.0.1"  fill="none" stroke="#F7BD13" stroke-width="1.08"/>
            <circle connectorname="A1" id="connector73pad" cy="53.8923" r="1.98" cx="140.026" gorn="0.3.0.2"  fill="none" stroke="#F7BD13" stroke-width="1.08"/>
            <circle connectorname="D11" id="connector89pad" cy="53.8923" r="1.98" cx="89.6256" gorn="0.3.0.3"  fill="none" stroke="#F7BD13" stroke-width="1.08"/>
            <circle connectorname="A5" id="connector77pad" cy="53.8923" r="1.98" cx="168.826" gorn="0.3.0.4"  fill="none" stroke="#F7BD13" stroke-width="1.08"/>
            <circle connectorname="D7" id="connector85pad" cy="3.49228" r="1.98" cx="68.0258" gorn="0.3.0.5"  fill="none" stroke="#F7BD13" stroke-width="1.08"/>
            <circle connectorname="AREF" id="connector93pad" cy="53.8923" r="1.98" cx="118.426" gorn="0.3.0.6"  fill="none" stroke="#F7BD13" stroke-width="1.08"/>
            <circle connectorname="GND" id="connector101pad" cy="3.49228" r="1.908" cx="154.426" gorn="0.3.0.7"  fill="none" stroke="#F7BD13" stroke-width="0.936"/>
            <circle connectorname="A3" id="connector75pad" cy="53.8923" r="1.98" cx="154.426" gorn="0.3.0.8"  fill="none" stroke="#F7BD13" stroke-width="1.08"/>
            <circle connectorname="TXD" id="connector79pad" cy="3.49228" r="1.98" cx="111.226" gorn="0.3.0.9"  fill="none" stroke="#F7BD13" stroke-width="1.08"/>
            <circle connectorname="D5" id="connector83pad" cy="3.49228" r="1.98" cx="82.4256" gorn="0.3.0.10"  fill="none" stroke="#F7BD13" stroke-width="1.08"/>
            <circle connectorname="D9" id="connector87pad" cy="53.8923" r="1.98" cx="75.2256" gorn="0.3.0.11"  fill="none" stroke="#F7BD13" stroke-width="1.08"/>
            <circle connectorname="D13" id="connector91pad" cy="53.8923" r="1.98" cx="104.026" gorn="0.3.0.12"  fill="none" stroke="#F7BD13" stroke-width="1.08"/>
            <circle connectorname="VCC" id="connector95pad" cy="39.1323" r="1.908" cx="191.866" gorn="0.3.0.13"  fill="none" stroke="#F7BD13" stroke-width="0.936"/>
            <circle connectorname="GND" id="connector99pad" cy="53.5323" r="1.908" cx="191.866" gorn="0.3.0.14"  fill="none" stroke="#F7BD13" stroke-width="0.936"/>
            <circle connectorname="RST" id="connector103pad" cy="3.49228" r="1.908" cx="168.826" gorn="0.3.0.15"  fill="none" stroke="#F7BD13" stroke-width="0.936"/>
            <circle connectorname="A0" id="connector72pad" cy="53.8923" r="1.98" cx="132.826" gorn="0.3.0.16"  fill="none" stroke="#F7BD13" stroke-width="1.08"/>
            <circle connectorname="A2" id="connector74pad" cy="53.8923" r="1.98" cx="147.226" gorn="0.3.0.17"  fill="none" stroke="#F7BD13" stroke-width="1.08"/>
            <circle connectorname="A4" id="connector76pad" cy="53.8923" r="1.98" cx="161.626" gorn="0.3.0.18"  fill="none" stroke="#F7BD13" stroke-width="1.08"/>
            <circle connectorname="RXD" id="connector78pad" cy="3.49228" r="1.98" cx="118.426" gorn="0.3.0.19"  fill="none" stroke="#F7BD13" stroke-width="1.08"/>
            <circle connectorname="D2" id="connector80pad" cy="3.49228" r="1.98" cx="104.026" gorn="0.3.0.20"  fill="none" stroke="#F7BD13" stroke-width="1.08"/>
            <circle connectorname="D4" id="connector82pad" cy="3.49228" r="1.98" cx="89.6256" gorn="0.3.0.21"  fill="none" stroke="#F7BD13" stroke-width="1.08"/>
            <circle connectorname="D6" id="connector84pad" cy="3.49228" r="1.98" cx="75.2256" gorn="0.3.0.22"  fill="none" stroke="#F7BD13" stroke-width="1.08"/>
            <circle connectorname="D8" id="connector86pad" cy="53.8923" r="1.98" cx="68.0258" gorn="0.3.0.23"  fill="none" stroke="#F7BD13" stroke-width="1.08"/>
            <circle connectorname="D10" id="connector88pad" cy="53.8923" r="1.98" cx="82.4256" gorn="0.3.0.24"  fill="none" stroke="#F7BD13" stroke-width="1.08"/>
            <circle connectorname="D12" id="connector90pad" cy="53.8923" r="1.98" cx="96.8256" gorn="0.3.0.25"  fill="none" stroke="#F7BD13" stroke-width="1.08"/>
            <circle connectorname="GND" id="connector92pad" cy="53.8923" r="1.98" cx="111.226" gorn="0.3.0.26"  fill="none" stroke="#F7BD13" stroke-width="1.08"/>
            <circle connectorname="D12" id="connector94pad" cy="39.1323" r="1.908" cx="184.666" gorn="0.3.0.27"  fill="none" stroke="#F7BD13" stroke-width="0.936"/>
            <circle connectorname="D13" id="connector96pad" cy="46.3323" r="1.908" cx="184.666" gorn="0.3.0.28"  fill="none" stroke="#F7BD13" stroke-width="0.936"/>
            <circle connectorname="RST" id="connector98pad" cy="53.5323" r="1.908" cx="184.666" gorn="0.3.0.29"  fill="none" stroke="#F7BD13" stroke-width="0.936"/>
            <circle connectorname="VCC" id="connector100pad" cy="3.49228" r="1.908" cx="147.226" gorn="0.3.0.30"  fill="none" stroke="#F7BD13" stroke-width="0.936"/>
            <circle connectorname="3V" id="connector102pad" cy="3.49228" r="1.908" cx="161.626" gorn="0.3.0.31"  fill="none" stroke="#F7BD13" stroke-width="0.936"/>
        </g>
    </g>
</svg>
