<?xml version='1.0' encoding='UTF-8' standalone='no'?>
<!-- Created with Fritzing (http://www.fritzing.org/) -->
<svg xmlns="http://www.w3.org/2000/svg"  viewBox="0 0 57.6 57.6" x="0in" y="0in" version="1.2" height="0.8in" baseProfile="tiny" width="0.8in">
    <desc>
        <referenceFile>Adafruit_BMP085_pcb.svg</referenceFile>
    </desc>
    <desc >Fritzing footprint generated by brd2svg</desc>
    <g gorn="0.1"  id="silkscreen">
        <path  stroke-width="0.576" stroke="white" fill="none" d="M0.288,7.416A6.912,6.912,0,0,1,7.416,0.288L50.184,0.288A6.912,6.912,0,0,1,57.312,7.416L57.312,50.184A6.912,6.912,0,0,1,50.184,57.312L7.416,57.312A6.912,6.912,0,0,1,0.288,50.184L0.288,7.416"/>
        <line y1="54.72"  stroke-width="1.152" y2="54.72" stroke="white" x2="16.56" stroke-linecap="round" x1="12.24"/>
        <line y1="54.72"  stroke-width="1.152" y2="56.16" stroke="white" x2="14.4" stroke-linecap="round" x1="16.56"/>
        <line y1="56.16"  stroke-width="1.152" y2="54.72" stroke="white" x2="12.24" stroke-linecap="round" x1="14.4"/>
        <line y1="54.36"  stroke-width="1.152" y2="55.8" stroke="white" x2="19.44" stroke-linecap="round" x1="21.6"/>
        <line y1="55.8"  stroke-width="1.152" y2="55.8" stroke="white" x2="23.76" stroke-linecap="round" x1="19.44"/>
        <line y1="55.8"  stroke-width="1.152" y2="54.36" stroke="white" x2="21.6" stroke-linecap="round" x1="23.76"/>
        <line y1="54.36"  stroke-width="1.152" y2="55.8" stroke="white" x2="26.64" stroke-linecap="round" x1="28.8"/>
        <line y1="55.8"  stroke-width="1.152" y2="55.8" stroke="white" x2="30.96" stroke-linecap="round" x1="26.64"/>
        <line y1="55.8"  stroke-width="1.152" y2="54.36" stroke="white" x2="28.8" stroke-linecap="round" x1="30.96"/>
        <line y1="54.36"  stroke-width="1.152" y2="55.8" stroke="white" x2="5.04" stroke-linecap="round" x1="7.2"/>
        <line y1="55.8"  stroke-width="1.152" y2="55.8" stroke="white" x2="9.36" stroke-linecap="round" x1="5.04"/>
        <line y1="55.8"  stroke-width="1.152" y2="54.36" stroke="white" x2="7.2" stroke-linecap="round" x1="9.36"/>
        <line y1="54.36"  stroke-width="1.152" y2="55.8" stroke="white" x2="33.84" stroke-linecap="round" x1="36"/>
        <line y1="55.8"  stroke-width="1.152" y2="55.8" stroke="white" x2="38.16" stroke-linecap="round" x1="33.84"/>
        <line y1="55.8"  stroke-width="1.152" y2="54.36" stroke="white" x2="36" stroke-linecap="round" x1="38.16"/>
        <line y1="54.36"  stroke-width="1.152" y2="54.36" stroke="white" x2="45.36" stroke-linecap="round" x1="41.04"/>
        <line y1="54.36"  stroke-width="1.152" y2="55.8" stroke="white" x2="43.2" stroke-linecap="round" x1="45.36"/>
        <line y1="55.8"  stroke-width="1.152" y2="54.36" stroke="white" x2="41.04" stroke-linecap="round" x1="43.2"/>
        <line y1="54.36"  stroke-width="1.152" y2="55.8" stroke="white" x2="48.24" stroke-linecap="round" x1="50.4"/>
        <line y1="55.8"  stroke-width="1.152" y2="55.8" stroke="white" x2="52.56" stroke-linecap="round" x1="48.24"/>
        <line y1="55.8"  stroke-width="1.152" y2="54.36" stroke="white" x2="50.4" stroke-linecap="round" x1="52.56"/>
        <g >
            <title >element:JP2</title>
            <g >
                <title >package:1X07_ROUND_76</title>
            </g>
        </g>
        <g >
            <title >element:U1</title>
            <g >
                <title >package:BMP085</title>
                <line y1="15.9534"  stroke-width="0.576" y2="15.9534" stroke="white" x2="21.7134" stroke-linecap="round" x1="26.674"/>
                <line y1="15.9534"  stroke-width="0.576" y2="17.3707" stroke="white" x2="21.7134" stroke-linecap="round" x1="21.7134"/>
                <line y1="15.9534"  stroke-width="0.576" y2="15.9534" stroke="white" x2="35.8866" stroke-linecap="round" x1="30.926"/>
                <line y1="15.9534"  stroke-width="0.576" y2="17.3707" stroke="white" x2="35.8866" stroke-linecap="round" x1="35.8866"/>
                <line y1="28.7093"  stroke-width="0.576" y2="30.1266" stroke="white" x2="21.7134" stroke-linecap="round" x1="21.7134"/>
                <line y1="30.1266"  stroke-width="0.576" y2="30.1266" stroke="white" x2="26.674" stroke-linecap="round" x1="21.7134"/>
                <line y1="30.1266"  stroke-width="0.576" y2="30.1266" stroke="white" x2="35.8866" stroke-linecap="round" x1="30.926"/>
                <line y1="30.1266"  stroke-width="0.576" y2="28.7093" stroke="white" x2="35.8866" stroke-linecap="round" x1="35.8866"/>
                <circle cy="15.9534"  stroke-width="0.992124" stroke="white" fill="none" cx="19.5874" r="0.566929"/>
            </g>
        </g>
    </g>
    <g gorn="0.2"  id="copper1">
        <g gorn="0.2.0"  id="copper0">
            <circle cy="7.2" gorn="0.2.0.0"  stroke-width="1.13386" stroke="#F7BD13" fill="none" id="connector29pad" connectorname="P$1" cx="50.4" r="3.68504"/>
            <circle cy="50.4" gorn="0.2.0.1"  stroke-width="1.31868" stroke="#F7BD13" fill="none" id="connector6pad" connectorname="VIN" cx="7.2" r="2.07666"/>
            <circle cy="50.4" gorn="0.2.0.2"  stroke-width="1.31868" stroke="#F7BD13" fill="none" id="connector7pad" connectorname="+3V3" cx="14.4" r="2.07666"/>
            <circle cy="50.4" gorn="0.2.0.3"  stroke-width="1.31868" stroke="#F7BD13" fill="none" id="connector8pad" connectorname="SCL" cx="21.6" r="2.07666"/>
            <circle cy="50.4" gorn="0.2.0.4"  stroke-width="1.31868" stroke="#F7BD13" fill="none" id="connector9pad" connectorname="SDA" cx="28.8" r="2.07666"/>
            <circle cy="50.4" gorn="0.2.0.5"  stroke-width="1.31868" stroke="#F7BD13" fill="none" id="connector10pad" connectorname="XCLR" cx="36" r="2.07666"/>
            <circle cy="50.4" gorn="0.2.0.6"  stroke-width="1.31868" stroke="#F7BD13" fill="none" id="connector11pad" connectorname="EOC" cx="43.2" r="2.07666"/>
            <circle cy="50.4" gorn="0.2.0.7"  stroke-width="1.31868" stroke="#F7BD13" fill="none" id="connector12pad" connectorname="GND" cx="50.4" r="2.07666"/>
            <circle cy="7.2" gorn="0.2.0.8"  stroke-width="1.13386" stroke="#F7BD13" fill="none" id="connector28pad" connectorname="P$1" cx="7.2" r="3.68504"/>
        </g>
    </g>
</svg>
