<?xml version='1.0' encoding='UTF-8' standalone='no'?>
<!-- Created with Fritzing (http://www.fritzing.org/) -->
<svg xmlns="http://www.w3.org/2000/svg" baseProfile="tiny" viewBox="0 0 109.65 64.8" height="0.9in" width="1.52291in" y="0in"  version="1.2" x="0in">
    <desc>
        <referenceFile>EZ-SFX Mini rev D_pcb.svg</referenceFile>
    </desc>
    <desc >Fritzing footprint generated by brd2svg</desc>
    <g id="silkscreen"  gorn="0.1">
        <path  stroke="white" fill="none" d="M1.9291,5.64A5.112,5.112,0,0,1,7.30073,0.288L103.99,0.288A5.112,5.112,0,0,1,109.362,5.64L109.362,59.16A5.112,5.112,0,0,1,103.99,64.512L7.30073,64.512A5.112,5.112,0,0,1,1.9291,59.16L1.9291,5.64M13.1856,26.8724a0.704126,0.704126,0,1,0,1.40826,0,0.704126,0.704126,0,1,0,-1.40826,0zM13.1856,37.9276a0.704126,0.704126,0,1,0,1.40826,0,0.704126,0.704126,0,1,0,-1.40826,0z" stroke-width="0.576"/>
        <g >
            <title >element:JP1</title>
            <g >
                <title >package:1X11_ROUND_76</title>
            </g>
        </g>
        <g >
            <title >element:JP2</title>
            <g >
                <title >package:1X11_ROUND_76</title>
            </g>
        </g>
        <g >
            <title >element:U1</title>
            <g >
                <title >package:SOIC8_208MIL</title>
                <line x1="91.2758" y1="37.7631" y2="37.7631" x2="80.5039" stroke-linecap="round"  stroke="white" stroke-width="0.576"/>
                <line x1="80.5039" y1="24.1569" y2="24.1569" x2="91.2758" stroke-linecap="round"  stroke="white" stroke-width="0.576"/>
                <circle cx="88.4095"  stroke="white" fill="none" stroke-width="0.576" r="0.72" cy="36.432"/>
            </g>
        </g>
        <g >
            <title >element:U2</title>
            <g >
                <title >package:LQFP48</title>
                <line x1="58.5241" y1="39.4639" y2="22.4561" x2="58.5241" stroke-linecap="round"  stroke="white" stroke-width="0.576"/>
                <line x1="57.6737" y1="21.6057" y2="21.6057" x2="40.6658" stroke-linecap="round"  stroke="white" stroke-width="0.576"/>
                <line x1="39.8154" y1="22.4561" y2="39.4639" x2="39.8154" stroke-linecap="round"  stroke="white" stroke-width="0.576"/>
                <line x1="39.8154" y1="39.4639" y2="40.3143" x2="40.6658" stroke-linecap="round"  stroke="white" stroke-width="0.576"/>
                <line x1="40.6658" y1="40.3143" y2="40.3143" x2="57.6737" stroke-linecap="round"  stroke="white" stroke-width="0.576"/>
                <line x1="57.6737" y1="40.3143" y2="39.4639" x2="58.5241" stroke-linecap="round"  stroke="white" stroke-width="0.576"/>
                <line x1="58.5241" y1="22.4561" y2="21.6057" x2="57.6737" stroke-linecap="round"  stroke="white" stroke-width="0.576"/>
                <line x1="40.6658" y1="21.6057" y2="22.4561" x2="39.8154" stroke-linecap="round"  stroke="white" stroke-width="0.576"/>
                <circle cx="38.6703"  stroke="white" fill="none" stroke-width="1.152" r="0.425197" cy="43.149"/>
            </g>
        </g>
        <g >
            <title >element:X1</title>
            <g >
                <title >package:4UCONN_20329_V2</title>
                <line x1="17.0078" y1="25.3134" y2="27.5811" x2="17.0078" stroke-linecap="round"  stroke="white" stroke-width="0.36"/>
                <line x1="17.0078" y1="37.2189" y2="39.4866" x2="17.0078" stroke-linecap="round"  stroke="white" stroke-width="0.36"/>
                <line x1="4.25197" y1="21.6284" y2="21.6284" x2="1.70078" stroke-linecap="round"  stroke="white" stroke-width="0.36"/>
                <line x1="1.70078" y1="21.6284" y2="43.1716" x2="1.70078" stroke-linecap="round"  stroke="white" stroke-width="0.36"/>
                <line x1="1.70078" y1="43.1716" y2="43.1716" x2="4.25197" stroke-linecap="round"  stroke="white" stroke-width="0.36"/>
            </g>
        </g>
        <g >
            <title >element:X2</title>
            <g >
                <title >package:JSTPH2</title>
            </g>
        </g>
        <line x1="0.288" fill-opacity="1" y1="46.715" y2="46.715" x2="1.64976"  stroke="white" fill="none" stroke-width="0.576"/>
        <line x1="0.288" fill-opacity="1" y1="18.085" y2="18.085" x2="1.64976"  stroke="white" fill="none" stroke-width="0.576"/>
        <line x1="0.288" fill-opacity="1" y1="46.715" y2="18.085" x2="0.288"  stroke="white" fill="none" stroke-width="0.576"/>
    </g>
    <g id="copper1"  gorn="0.2">
        <g id="copper0"  gorn="0.2.0">
            <circle cx="7.76974" id="connector97pad"  stroke="#F7BD13" fill="none" connectorname="P$1" stroke-width="1.44" r="4.26331" cy="58.68" gorn="0.2.0.0"/>
            <circle cx="103.53" id="connector99pad"  stroke="#F7BD13" fill="none" connectorname="P$1" stroke-width="1.44" r="4.26331" cy="58.68" gorn="0.2.0.1"/>
            <circle cx="94.1695" id="connector30pad"  stroke="#F7BD13" fill="none" connectorname="GND" stroke-width="1.31868" r="2.07666" cy="61.2" gorn="0.2.0.2"/>
            <circle cx="86.9695" id="connector31pad"  stroke="#F7BD13" fill="none" connectorname="ACT" stroke-width="1.31868" r="2.07666" cy="61.2" gorn="0.2.0.3"/>
            <circle cx="79.7695" id="connector32pad"  stroke="#F7BD13" fill="none" connectorname="GPIO0_7" stroke-width="1.31868" r="2.07666" cy="61.2" gorn="0.2.0.4"/>
            <circle cx="72.5695" id="connector33pad"  stroke="#F7BD13" fill="none" connectorname="GPIO0_6" stroke-width="1.31868" r="2.07666" cy="61.2" gorn="0.2.0.5"/>
            <circle cx="65.3697" id="connector34pad"  stroke="#F7BD13" fill="none" connectorname="GPIO0_5" stroke-width="1.31868" r="2.07666" cy="61.2" gorn="0.2.0.6"/>
            <circle cx="58.1697" id="connector35pad"  stroke="#F7BD13" fill="none" connectorname="GPIO0_4" stroke-width="1.31868" r="2.07666" cy="61.2" gorn="0.2.0.7"/>
            <circle cx="50.9697" id="connector36pad"  stroke="#F7BD13" fill="none" connectorname="GPIO0_3" stroke-width="1.31868" r="2.07666" cy="61.2" gorn="0.2.0.8"/>
            <circle cx="43.7697" id="connector37pad"  stroke="#F7BD13" fill="none" connectorname="GPIO0_2" stroke-width="1.31868" r="2.07666" cy="61.2" gorn="0.2.0.9"/>
            <circle cx="36.5697" id="connector38pad"  stroke="#F7BD13" fill="none" connectorname="GPIO0_1" stroke-width="1.31868" r="2.07666" cy="61.2" gorn="0.2.0.10"/>
            <circle cx="29.3697" id="connector39pad"  stroke="#F7BD13" fill="none" connectorname="GPIO0_0" stroke-width="1.31868" r="2.07666" cy="61.2" gorn="0.2.0.11"/>
            <circle cx="22.1697" id="connector40pad"  stroke="#F7BD13" fill="none" connectorname="RST" stroke-width="1.31868" r="2.07666" cy="61.2" gorn="0.2.0.12"/>
            <circle cx="22.1697" id="connector41pad"  stroke="#F7BD13" fill="none" connectorname="VIN" stroke-width="1.31868" r="2.07666" cy="3.6" gorn="0.2.0.13"/>
            <circle cx="29.3697" id="connector42pad"  stroke="#F7BD13" fill="none" connectorname="GND" stroke-width="1.31868" r="2.07666" cy="3.6" gorn="0.2.0.14"/>
            <circle cx="36.5697" id="connector43pad"  stroke="#F7BD13" fill="none" connectorname="VBUS" stroke-width="1.31868" r="2.07666" cy="3.6" gorn="0.2.0.15"/>
            <circle cx="43.7697" id="connector44pad"  stroke="#F7BD13" fill="none" connectorname="TX" stroke-width="1.31868" r="2.07666" cy="3.6" gorn="0.2.0.16"/>
            <circle cx="50.9697" id="connector45pad"  stroke="#F7BD13" fill="none" connectorname="RX_5V" stroke-width="1.31868" r="2.07666" cy="3.6" gorn="0.2.0.17"/>
            <circle cx="58.1697" id="connector46pad"  stroke="#F7BD13" fill="none" connectorname="UG" stroke-width="1.31868" r="2.07666" cy="3.6" gorn="0.2.0.18"/>
            <circle cx="65.3697" id="connector47pad"  stroke="#F7BD13" fill="none" connectorname="CS" stroke-width="1.31868" r="2.07666" cy="3.6" gorn="0.2.0.19"/>
            <circle cx="7.76974" id="connector96pad"  stroke="#F7BD13" fill="none" connectorname="P$1" stroke-width="1.44" r="4.26331" cy="6.12" gorn="0.2.0.20"/>
            <circle cx="72.5695" id="connector48pad"  stroke="#F7BD13" fill="none" connectorname="GND" stroke-width="1.31868" r="2.07666" cy="3.6" gorn="0.2.0.21"/>
            <circle cx="103.53" id="connector98pad"  stroke="#F7BD13" fill="none" connectorname="P$1" stroke-width="1.44" r="4.26331" cy="6.12" gorn="0.2.0.22"/>
            <circle cx="79.7695" id="connector49pad"  stroke="#F7BD13" fill="none" connectorname="R_AC" stroke-width="1.31868" r="2.07666" cy="3.6" gorn="0.2.0.23"/>
            <circle cx="86.9695" id="connector50pad"  stroke="#F7BD13" fill="none" connectorname="L_AC" stroke-width="1.31868" r="2.07666" cy="3.6" gorn="0.2.0.24"/>
            <circle cx="94.1695" id="connector51pad"  stroke="#F7BD13" fill="none" connectorname="GND" stroke-width="1.31868" r="2.07666" cy="3.6" gorn="0.2.0.25"/>
        </g>
    </g>
</svg>
