<?xml version='1.0' encoding='UTF-8' standalone='no'?>
<!-- Created with Fritzing (http://www.fritzing.org/) -->
<svg xmlns="http://www.w3.org/2000/svg" width="0.95in" x="0in" height="1.1in" baseProfile="tiny" viewBox="0 0 68.4 79.2" y="0in"  version="1.2">
    <desc >
        <referenceFile >MAX98306_v0.4_pcb.svg</referenceFile>
    </desc>
    <desc >Fritzing footprint generated by brd2svg</desc>
    <g gorn="0.2" id="silkscreen" >
        <path d="M7.42738,78.912A6.912,6.912,0,0,1,0.288,71.7643L0.288,7.43566A6.912,6.912,0,0,1,7.42738,0.288L60.9726,0.288A6.912,6.912,0,0,1,68.112,7.43566L68.112,71.7643A6.912,6.912,0,0,1,60.9726,78.912L7.42738,78.912" stroke="white" fill="none"  stroke-width="0.576"/>
        <circle cy="33.12" stroke="white" cx="33.84" fill="none" r="0.72"  stroke-width="1.152"/>
        <g >
            <title >element:J1</title>
            <g >
                <title >package:TERMBLOCK_1X2-3.5MM</title>
                <line y2="39.1578" stroke="white" x1="46.5222" y1="39.1578" x2="62.3962"  stroke-width="0.576" stroke-linecap="round"/>
                <line y2="39.1578" stroke="white" x1="62.3962" y1="39.1578" x2="66.3647"  stroke-width="0.576" stroke-linecap="round"/>
                <line y2="19.3153" stroke="white" x1="66.3647" y1="39.1578" x2="66.3647"  stroke-width="0.576" stroke-linecap="round"/>
                <line y2="19.3153" stroke="white" x1="66.3647" y1="19.3153" x2="62.3962"  stroke-width="0.576" stroke-linecap="round"/>
                <line y2="19.3153" stroke="white" x1="62.3962" y1="19.3153" x2="46.5222"  stroke-width="0.576" stroke-linecap="round"/>
                <line y2="39.1578" stroke="white" x1="46.5222" y1="19.3153" x2="46.5222"  stroke-width="0.576" stroke-linecap="round"/>
                <line y2="19.3153" stroke="white" x1="62.3962" y1="39.1578" x2="62.3962"  stroke-width="0.576" stroke-linecap="round"/>
            </g>
        </g>
        <g >
            <title >element:J2</title>
            <g >
                <title >package:TERMBLOCK_1X2-3.5MM</title>
                <line y2="60.7578" stroke="white" x1="46.5222" y1="60.7578" x2="62.3962"  stroke-width="0.576" stroke-linecap="round"/>
                <line y2="60.7578" stroke="white" x1="62.3962" y1="60.7578" x2="66.3647"  stroke-width="0.576" stroke-linecap="round"/>
                <line y2="40.9153" stroke="white" x1="66.3647" y1="60.7578" x2="66.3647"  stroke-width="0.576" stroke-linecap="round"/>
                <line y2="40.9153" stroke="white" x1="66.3647" y1="40.9153" x2="62.3962"  stroke-width="0.576" stroke-linecap="round"/>
                <line y2="40.9153" stroke="white" x1="62.3962" y1="40.9153" x2="46.5222"  stroke-width="0.576" stroke-linecap="round"/>
                <line y2="60.7578" stroke="white" x1="46.5222" y1="40.9153" x2="46.5222"  stroke-width="0.576" stroke-linecap="round"/>
                <line y2="40.9153" stroke="white" x1="62.3962" y1="60.7578" x2="62.3962"  stroke-width="0.576" stroke-linecap="round"/>
            </g>
        </g>
        <g >
            <title >element:JP1</title>
            <g >
                <title >package:2X04</title>
                <line y2="64.8" stroke="white" x1="44.64" y1="66.6" x2="42.84"  stroke-width="0.432" stroke-linecap="round"/>
                <line y2="66.6" stroke="white" x1="39.24" y1="64.8" x2="37.44"  stroke-width="0.432" stroke-linecap="round"/>
                <line y2="64.8" stroke="white" x1="37.44" y1="66.6" x2="35.64"  stroke-width="0.432" stroke-linecap="round"/>
                <line y2="66.6" stroke="white" x1="32.04" y1="64.8" x2="30.24"  stroke-width="0.432" stroke-linecap="round"/>
                <line y2="64.8" stroke="white" x1="30.24" y1="66.6" x2="28.44"  stroke-width="0.432" stroke-linecap="round"/>
                <line y2="66.6" stroke="white" x1="24.84" y1="64.8" x2="23.04"  stroke-width="0.432" stroke-linecap="round"/>
                <line y2="77.4" stroke="white" x1="44.64" y1="66.6" x2="44.64"  stroke-width="0.432" stroke-linecap="round"/>
                <line y2="79.2" stroke="white" x1="44.64" y1="77.4" x2="42.84"  stroke-width="0.432" stroke-linecap="round"/>
                <line y2="79.2" stroke="white" x1="42.84" y1="79.2" x2="39.24"  stroke-width="0.432" stroke-linecap="round"/>
                <line y2="77.4" stroke="white" x1="39.24" y1="79.2" x2="37.44"  stroke-width="0.432" stroke-linecap="round"/>
                <line y2="79.2" stroke="white" x1="37.44" y1="77.4" x2="35.64"  stroke-width="0.432" stroke-linecap="round"/>
                <line y2="79.2" stroke="white" x1="35.64" y1="79.2" x2="32.04"  stroke-width="0.432" stroke-linecap="round"/>
                <line y2="77.4" stroke="white" x1="32.04" y1="79.2" x2="30.24"  stroke-width="0.432" stroke-linecap="round"/>
                <line y2="79.2" stroke="white" x1="30.24" y1="77.4" x2="28.44"  stroke-width="0.432" stroke-linecap="round"/>
                <line y2="79.2" stroke="white" x1="28.44" y1="79.2" x2="24.84"  stroke-width="0.432" stroke-linecap="round"/>
                <line y2="77.4" stroke="white" x1="24.84" y1="79.2" x2="23.04"  stroke-width="0.432" stroke-linecap="round"/>
                <line y2="66.6" stroke="white" x1="37.44" y1="77.4" x2="37.44"  stroke-width="0.432" stroke-linecap="round"/>
                <line y2="66.6" stroke="white" x1="30.24" y1="77.4" x2="30.24"  stroke-width="0.432" stroke-linecap="round"/>
                <line y2="66.6" stroke="white" x1="23.04" y1="77.4" x2="23.04"  stroke-width="0.432" stroke-linecap="round"/>
                <line y2="64.8" stroke="white" x1="28.44" y1="64.8" x2="24.84"  stroke-width="0.432" stroke-linecap="round"/>
                <line y2="64.8" stroke="white" x1="35.64" y1="64.8" x2="32.04"  stroke-width="0.432" stroke-linecap="round"/>
                <line y2="64.8" stroke="white" x1="42.84" y1="64.8" x2="39.24"  stroke-width="0.432" stroke-linecap="round"/>
                <line y2="64.8" stroke="white" x1="23.04" y1="66.6" x2="21.24"  stroke-width="0.432" stroke-linecap="round"/>
                <line y2="66.6" stroke="white" x1="17.64" y1="64.8" x2="15.84"  stroke-width="0.432" stroke-linecap="round"/>
                <line y2="79.2" stroke="white" x1="23.04" y1="77.4" x2="21.24"  stroke-width="0.432" stroke-linecap="round"/>
                <line y2="79.2" stroke="white" x1="21.24" y1="79.2" x2="17.64"  stroke-width="0.432" stroke-linecap="round"/>
                <line y2="77.4" stroke="white" x1="17.64" y1="79.2" x2="15.84"  stroke-width="0.432" stroke-linecap="round"/>
                <line y2="66.6" stroke="white" x1="15.84" y1="77.4" x2="15.84"  stroke-width="0.432" stroke-linecap="round"/>
                <line y2="64.8" stroke="white" x1="21.24" y1="64.8" x2="17.64"  stroke-width="0.432" stroke-linecap="round"/>
            </g>
        </g>
        <g >
            <title >element:JP3</title>
            <g >
                <title >package:1X09_ROUND_70</title>
            </g>
        </g>
    </g>
    <g gorn="0.3" id="copper1" >
        <g gorn="0.3.0" id="copper0" >
            <circle gorn="0.3.0.0" cy="18" stroke="#F7BD13" cx="7.2" fill="none" r="1.96866" connectorname="GND" id="connector38pad"  stroke-width="1.10268"/>
            <circle gorn="0.3.0.1" cy="32.4" stroke="#F7BD13" cx="7.2" fill="none" r="1.96866" connectorname="IN_LEFT+" id="connector36pad"  stroke-width="1.10268"/>
            <circle gorn="0.3.0.2" cy="72" stroke="#F7BD13" cx="61.2" fill="none" r="4.26331" connectorname="P$1" id="connector48pad"  stroke-width="1.44"/>
            <circle gorn="0.3.0.3" cy="24.4176" stroke="#F7BD13" cx="56.16" fill="none" r="2.25666" connectorname="LOUT-" id="connector19pad"  stroke-width="1.67868"/>
            <circle gorn="0.3.0.4" cy="34.3389" stroke="#F7BD13" cx="56.16" fill="none" r="2.25666" connectorname="LOUT+" id="connector20pad"  stroke-width="1.67868"/>
            <circle gorn="0.3.0.5" cy="25.2" stroke="#F7BD13" cx="7.2" fill="none" r="1.96866" connectorname="SHUTDOWN" id="connector37pad"  stroke-width="1.10268"/>
            <circle gorn="0.3.0.6" cy="46.0176" stroke="#F7BD13" cx="56.16" fill="none" r="2.25666" connectorname="ROUT+" id="connector21pad"  stroke-width="1.67868"/>
            <circle gorn="0.3.0.7" cy="10.8" stroke="#F7BD13" cx="7.2" fill="none" r="1.96866" connectorname="VDD" id="connector39pad"  stroke-width="1.10268"/>
            <circle gorn="0.3.0.8" cy="55.9389" stroke="#F7BD13" cx="56.16" fill="none" r="2.25666" connectorname="ROUT-" id="connector22pad"  stroke-width="1.67868"/>
            <circle gorn="0.3.0.9" cy="68.4" stroke="#F7BD13" cx="41.04" fill="none" r="1.908" connectorname="9DB" id="connector23pad"  stroke-width="0.936"/>
            <circle gorn="0.3.0.10" cy="75.6" stroke="#F7BD13" cx="41.04" fill="none" r="1.908" connectorname="GAIN1" id="connector24pad"  stroke-width="0.936"/>
            <circle gorn="0.3.0.11" cy="68.4" stroke="#F7BD13" cx="33.84" fill="none" r="1.908" connectorname="VDD" id="connector25pad"  stroke-width="0.936"/>
            <circle gorn="0.3.0.12" cy="75.6" stroke="#F7BD13" cx="33.84" fill="none" r="1.908" connectorname="GAIN1" id="connector26pad"  stroke-width="0.936"/>
            <circle gorn="0.3.0.13" cy="6.84" stroke="#F7BD13" cx="61.2" fill="none" r="4.26331" connectorname="P$1" id="connector49pad"  stroke-width="1.44"/>
            <circle gorn="0.3.0.14" cy="68.4" stroke="#F7BD13" cx="26.64" fill="none" r="1.908" connectorname="15DB" id="connector27pad"  stroke-width="0.936"/>
            <circle gorn="0.3.0.15" cy="75.6" stroke="#F7BD13" cx="26.64" fill="none" r="1.908" connectorname="GAIN1" id="connector28pad"  stroke-width="0.936"/>
            <circle gorn="0.3.0.16" cy="68.4" stroke="#F7BD13" cx="19.44" fill="none" r="1.908" connectorname="GND" id="connector29pad"  stroke-width="0.936"/>
            <circle gorn="0.3.0.17" cy="75.6" stroke="#F7BD13" cx="19.44" fill="none" r="1.908" connectorname="GAIN1" id="connector30pad"  stroke-width="0.936"/>
            <circle gorn="0.3.0.18" cy="68.4" stroke="#F7BD13" cx="7.2" fill="none" r="1.96866" connectorname="GAIN1" id="connector31pad"  stroke-width="1.10268"/>
            <circle gorn="0.3.0.19" cy="61.2" stroke="#F7BD13" cx="7.2" fill="none" r="1.96866" connectorname="GAIN2" id="connector32pad"  stroke-width="1.10268"/>
            <circle gorn="0.3.0.20" cy="54" stroke="#F7BD13" cx="7.2" fill="none" r="1.96866" connectorname="IN_RIGHT+" id="connector33pad"  stroke-width="1.10268"/>
            <circle gorn="0.3.0.21" cy="46.8" stroke="#F7BD13" cx="7.2" fill="none" r="1.96866" connectorname="IN_RIGHT-" id="connector34pad"  stroke-width="1.10268"/>
            <circle gorn="0.3.0.22" cy="39.6" stroke="#F7BD13" cx="7.2" fill="none" r="1.96866" connectorname="IN_LEFT-" id="connector35pad"  stroke-width="1.10268"/>
        </g>
    </g>
</svg>
