<?xml version='1.0' encoding='UTF-8' standalone='no'?>
<!-- Created with Fritzing (http://www.fritzing.org/) -->
<svg xmlns="http://www.w3.org/2000/svg"  gorn="0" width="0.7in" id="svg2" viewBox="0 0 50.4 38.88" x="0in" version="1.2" y="0in" height="0.54in">
    <desc>
        <referenceFile>Adafruit 2x5 SWD Breakout_pcb.svg</referenceFile>
    </desc>
    <metadata  id="metadata97">
        <rdf:RDF xmlns:rdf="http://www.w3.org/1999/02/22-rdf-syntax-ns#">
            <cc:Work xmlns:cc="http://creativecommons.org/ns#" xmlns:rdf="http://www.w3.org/1999/02/22-rdf-syntax-ns#" rdf:about="">
                <dc:format xmlns:dc="http://purl.org/dc/elements/1.1/">image/svg+xml</dc:format>
                <dc:type xmlns:dc="http://purl.org/dc/elements/1.1/" rdf:resource="http://purl.org/dc/dcmitype/StillImage" xmlns:rdf="http://www.w3.org/1999/02/22-rdf-syntax-ns#"/>
            </cc:Work>
        </rdf:RDF>
    </metadata>
    <defs  id="defs95"/>
    <desc  id="desc4">Fritzing footprint generated by brd2svg</desc>
    <g  gorn="0.3" id="silkscreen">
        <path  d="M3.84686,0.288L46.5531,0.288A3.312,3.312,0,0,1,50.112,3.83467L50.112,35.0454A3.312,3.312,0,0,1,46.5531,38.592L3.84686,38.592A3.312,3.312,0,0,1,0.288,35.0454L0.288,3.83467A3.312,3.312,0,0,1,3.84686,0.288M24.0707,14.04a1.12932,1.12932,0,1,0,2.25865,0,1.12932,1.12932,0,1,0,-2.25865,0zM24.0707,24.84a1.12932,1.12932,0,1,0,2.25865,0,1.12932,1.12932,0,1,0,-2.25865,0z" gorn="0.3.0" stroke-width="0.576" id="path7" stroke="white" fill="none"/>
        <g  gorn="0.3.1" id="g9">
            <title  id="title11">element:JP1</title>
            <g  gorn="0.3.1.1" id="g13">
                <title  id="title15">package:1X05_ROUND_FULL_76</title>
            </g>
        </g>
        <g  gorn="0.3.2" id="g17">
            <title  id="title19">element:JP2</title>
            <g  gorn="0.3.2.1" id="g21">
                <title  id="title23">package:1X05_ROUND_FULL_76</title>
            </g>
        </g>
        <g  gorn="0.3.3" id="g25">
            <title  id="title27">element:X1</title>
            <g  gorn="0.3.3.1" id="g29">
                <title  id="title31">package:2X05_1.27MM_BOX_POSTS</title>
                <line y2="1.0148"  gorn="0.3.3.1.1" stroke-linecap="round" y1="10.3692" stroke-width="0.36" x1="32.8535" id="line33" stroke="white" x2="32.8535"/>
                <line y2="1.0148"  gorn="0.3.3.1.2" stroke-linecap="round" y1="1.0148" stroke-width="0.36" x1="32.8535" id="line35" stroke="white" x2="17.5465"/>
                <line y2="10.3692"  gorn="0.3.3.1.3" stroke-linecap="round" y1="1.0148" stroke-width="0.36" x1="17.5465" id="line37" stroke="white" x2="17.5465"/>
                <line y2="37.8652"  gorn="0.3.3.1.4" stroke-linecap="round" y1="28.5108" stroke-width="0.36" x1="32.8535" id="line39" stroke="white" x2="32.8535"/>
                <line y2="37.8652"  gorn="0.3.3.1.5" stroke-linecap="round" y1="37.8652" stroke-width="0.36" x1="32.8535" id="line41" stroke="white" x2="17.5465"/>
                <line y2="28.5108"  gorn="0.3.3.1.6" stroke-linecap="round" y1="37.8652" stroke-width="0.36" x1="17.5465" id="line43" stroke="white" x2="17.5465"/>
                <g  gorn="0.3.3.1.7" id="g45">
                    <title  id="title47">polygon</title>
                    <path  d="M13.8614,1.0148L16.6961,2.43212L13.8614,3.84945L13.8614,1.0148M14.04,1.10409L14.04,3.76016L14.04,1.10409M14.4,1.28409L14.4,3.58016L14.4,1.28409M14.76,1.46409L14.76,3.40016L14.76,1.46409M15.12,1.64409L15.12,3.22016L15.12,1.64409M15.48,1.82409L15.48,3.04016L15.48,1.82409M15.84,2.00409L15.84,2.86016L15.84,2.00409M16.2,2.18409L16.2,2.68016L16.2,2.18409" gorn="0.3.3.1.7.1" stroke-linecap="round" stroke-width="0.36" id="path49" stroke="white" fill="none"/>
                </g>
            </g>
        </g>
    </g>
    <g  gorn="0.4" id="copper1">
        <g  gorn="0.4.0" id="copper0">
            <circle cx="46.8" r="2.07666"  gorn="0.4.0.0" cy="5.04" stroke-width="1.31868" connectorname="SWIO" id="connector2pad" stroke="#F7BD13" fill="none"/>
            <circle cx="46.8" r="2.07666"  gorn="0.4.0.1" cy="12.24" stroke-width="1.31868" connectorname="CLK" id="connector3pad" stroke="#F7BD13" fill="none"/>
            <circle cx="46.8" r="2.07666"  gorn="0.4.0.2" cy="19.44" stroke-width="1.31868" connectorname="SWO" id="connector4pad" stroke="#F7BD13" fill="none"/>
            <circle cx="46.8" r="2.07666"  gorn="0.4.0.3" cy="26.64" stroke-width="1.31868" connectorname="NC" id="connector5pad" stroke="#F7BD13" fill="none"/>
            <circle cx="46.8" r="2.07666"  gorn="0.4.0.4" cy="33.84" stroke-width="1.31868" connectorname="RESET" id="connector6pad" stroke="#F7BD13" fill="none"/>
            <circle cx="3.6" r="2.07666"  gorn="0.4.0.5" cy="5.04" stroke-width="1.31868" connectorname="VREF" id="connector7pad" stroke="#F7BD13" fill="none"/>
            <circle cx="3.6" r="2.07666"  gorn="0.4.0.6" cy="12.24" stroke-width="1.31868" connectorname="GND" id="connector8pad" stroke="#F7BD13" fill="none"/>
            <circle cx="3.6" r="2.07666"  gorn="0.4.0.7" cy="19.44" stroke-width="1.31868" connectorname="GND2" id="connector9pad" stroke="#F7BD13" fill="none"/>
            <circle cx="3.6" r="2.07666"  gorn="0.4.0.8" cy="26.64" stroke-width="1.31868" connectorname="KEY" id="connector10pad" stroke="#F7BD13" fill="none"/>
            <circle cx="3.6" r="2.07666"  gorn="0.4.0.9" cy="33.84" stroke-width="1.31868" connectorname="GNDD" id="connector11pad" stroke="#F7BD13" fill="none"/>
        </g>
    </g>
</svg>
