<?xml version='1.0' encoding='UTF-8' standalone='no'?>
<!-- Created with Fritzing (http://www.fritzing.org/) -->
<svg xmlns="http://www.w3.org/2000/svg" x="0in" version="1.2" baseProfile="tiny" height="0.8in" y="0in" viewBox="0 0 72 57.6"  width="1in">
    <desc>
        <referenceFile>Adafruit_ADXL345_pcb.svg</referenceFile>
    </desc>
    <desc >Fritzing footprint generated by brd2svg</desc>
    <g gorn="0.1"  id="silkscreen">
        <path d="M7.4304,0.288L64.5696,0.288A6.912,6.912,0,0,1,71.712,7.416L71.712,50.184A6.912,6.912,0,0,1,64.5696,57.312L7.4304,57.312A6.912,6.912,0,0,1,0.288,50.184L0.288,7.416A6.912,6.912,0,0,1,7.4304,0.288" stroke="white" fill="none" stroke-width="0.576" />
        <line y2="14.472" x1="61.848" stroke="white" stroke-linecap="round" y1="17.352" stroke-width="0.72" x2="61.848" />
        <line y2="14.4" x1="61.848" stroke="white" stroke-linecap="round" y1="14.472" stroke-width="0.72" x2="61.848" />
        <line y2="15.192" x1="61.848" stroke="white" stroke-linecap="round" y1="14.4" stroke-width="0.72" x2="61.056" />
        <line y2="15.192" x1="61.056" stroke="white" stroke-linecap="round" y1="15.192" stroke-width="0.72" x2="62.568" />
        <line y2="15.192" x1="62.64" stroke="white" stroke-linecap="round" y1="15.192" stroke-width="0.72" x2="62.568" />
        <line y2="14.472" x1="62.568" stroke="white" stroke-linecap="round" y1="15.192" stroke-width="0.72" x2="61.848" />
        <line y2="23.328" x1="67.176" stroke="white" stroke-linecap="round" y1="23.328" stroke-width="0.72" x2="70.056" />
        <line y2="23.328" x1="70.056" stroke="white" stroke-linecap="round" y1="23.328" stroke-width="0.72" x2="70.128" />
        <line y2="22.536" x1="70.128" stroke="white" stroke-linecap="round" y1="23.328" stroke-width="0.72" x2="69.336" />
        <line y2="24.048" x1="69.336" stroke="white" stroke-linecap="round" y1="22.536" stroke-width="0.72" x2="69.336" />
        <line y2="24.048" x1="69.336" stroke="white" stroke-linecap="round" y1="24.12" stroke-width="0.72" x2="69.336" />
        <line y2="23.328" x1="69.336" stroke="white" stroke-linecap="round" y1="24.048" stroke-width="0.72" x2="70.056" />
        <line y2="47.52" x1="6.48" stroke="white" stroke-linecap="round" y1="47.52" stroke-width="1.152" x2="9.36" />
        <line y2="46.08" x1="9.36" stroke="white" stroke-linecap="round" y1="47.52" stroke-width="1.152" x2="7.92" />
        <line y2="47.52" x1="7.92" stroke="white" stroke-linecap="round" y1="46.08" stroke-width="1.152" x2="6.48" />
        <line y2="46.08" x1="13.68" stroke="white" stroke-linecap="round" y1="46.08" stroke-width="1.152" x2="16.56" />
        <line y2="47.52" x1="16.56" stroke="white" stroke-linecap="round" y1="46.08" stroke-width="1.152" x2="15.12" />
        <line y2="46.08" x1="15.12" stroke="white" stroke-linecap="round" y1="47.52" stroke-width="1.152" x2="13.68" />
        <line y2="47.52" x1="28.08" stroke="white" stroke-linecap="round" y1="47.52" stroke-width="1.152" x2="30.96" />
        <line y2="46.08" x1="30.96" stroke="white" stroke-linecap="round" y1="47.52" stroke-width="1.152" x2="29.52" />
        <line y2="47.52" x1="29.52" stroke="white" stroke-linecap="round" y1="46.08" stroke-width="1.152" x2="28.08" />
        <line y2="46.08" x1="38.16" stroke="white" stroke-linecap="round" y1="46.08" stroke-width="1.152" x2="35.28" />
        <line y2="47.52" x1="35.28" stroke="white" stroke-linecap="round" y1="46.08" stroke-width="1.152" x2="36.72" />
        <line y2="46.08" x1="36.72" stroke="white" stroke-linecap="round" y1="47.52" stroke-width="1.152" x2="38.16" />
        <line y2="46.08" x1="42.48" stroke="white" stroke-linecap="round" y1="46.08" stroke-width="1.152" x2="45.36" />
        <line y2="47.52" x1="45.36" stroke="white" stroke-linecap="round" y1="46.08" stroke-width="1.152" x2="43.92" />
        <line y2="46.08" x1="43.92" stroke="white" stroke-linecap="round" y1="47.52" stroke-width="1.152" x2="42.48" />
        <line y2="46.08" x1="49.68" stroke="white" stroke-linecap="round" y1="46.08" stroke-width="1.152" x2="52.56" />
        <line y2="47.52" x1="52.56" stroke="white" stroke-linecap="round" y1="46.08" stroke-width="1.152" x2="51.12" />
        <line y2="46.08" x1="51.12" stroke="white" stroke-linecap="round" y1="47.52" stroke-width="1.152" x2="49.68" />
        <line y2="47.52" x1="56.88" stroke="white" stroke-linecap="round" y1="47.52" stroke-width="1.152" x2="59.76" />
        <line y2="46.08" x1="59.76" stroke="white" stroke-linecap="round" y1="47.52" stroke-width="1.152" x2="58.32" />
        <line y2="47.52" x1="58.32" stroke="white" stroke-linecap="round" y1="46.08" stroke-width="1.152" x2="56.88" />
        <line y2="47.52" x1="64.08" stroke="white" stroke-linecap="round" y1="47.52" stroke-width="1.152" x2="66.96" />
        <line y2="46.08" x1="66.96" stroke="white" stroke-linecap="round" y1="47.52" stroke-width="1.152" x2="65.52" />
        <line y2="47.52" x1="65.52" stroke="white" stroke-linecap="round" y1="46.08" stroke-width="1.152" x2="64.08" />
        <circle r="1.872" stroke="white" cy="18.432" fill="none" stroke-width="0.72"  cx="65.952"/>
        <circle r="0.072" stroke="white" cy="18.504" fill="none" stroke-width="0.72"  cx="65.952"/>
        <circle r="0.576" stroke="white" cy="11.52" fill="none" stroke-width="1.296"  cx="43.2"/>
        <g >
            <title >element:JP1</title>
            <g >
                <title >package:1X09_ROUND_70</title>
            </g>
        </g>
        <g >
            <title >element:U$7</title>
            <g >
                <title >package:ADAFRUIT_TEXT_20MM</title>
            </g>
        </g>
    </g>
    <g gorn="0.2"  id="copper1">
        <g gorn="0.2.0"  id="copper0">
            <circle r="1.96866" stroke="#F7BD13" cy="51.84" gorn="0.2.0.0" fill="none" stroke-width="1.10268"  id="connector6pad" cx="7.92" connectorname="VIN"/>
            <circle r="1.96866" stroke="#F7BD13" cy="51.84" gorn="0.2.0.1" fill="none" stroke-width="1.10268"  id="connector7pad" cx="15.12" connectorname="3.3V"/>
            <circle r="1.96866" stroke="#F7BD13" cy="51.84" gorn="0.2.0.2" fill="none" stroke-width="1.10268"  id="connector8pad" cx="22.32" connectorname="GND"/>
            <circle r="4.03937" stroke="#F7BD13" cy="7.2" gorn="0.2.0.3" fill="none" stroke-width="0.992124"  id="connector35pad" cx="64.8" connectorname="P$1"/>
            <circle r="1.96866" stroke="#F7BD13" cy="51.84" gorn="0.2.0.4" fill="none" stroke-width="1.10268"  id="connector9pad" cx="29.52" connectorname="CS"/>
            <circle r="1.96866" stroke="#F7BD13" cy="51.84" gorn="0.2.0.5" fill="none" stroke-width="1.10268"  id="connector10pad" cx="36.72" connectorname="INT1"/>
            <circle r="1.96866" stroke="#F7BD13" cy="51.84" gorn="0.2.0.6" fill="none" stroke-width="1.10268"  id="connector11pad" cx="43.92" connectorname="INT2"/>
            <circle r="1.96866" stroke="#F7BD13" cy="51.84" gorn="0.2.0.7" fill="none" stroke-width="1.10268"  id="connector12pad" cx="51.12" connectorname="SDO/ADDR"/>
            <circle r="1.96866" stroke="#F7BD13" cy="51.84" gorn="0.2.0.8" fill="none" stroke-width="1.10268"  id="connector13pad" cx="58.32" connectorname="SDA/SDIO"/>
            <circle r="1.96866" stroke="#F7BD13" cy="51.84" gorn="0.2.0.9" fill="none" stroke-width="1.10268"  id="connector14pad" cx="65.52" connectorname="SCL"/>
            <circle r="4.03937" stroke="#F7BD13" cy="7.2" gorn="0.2.0.10" fill="none" stroke-width="0.992124"  id="connector36pad" cx="7.2" connectorname="P$1"/>
        </g>
    </g>
</svg>
