<?xml version='1.0' encoding='UTF-8' standalone='no'?>
<!-- Created with Fritzing (http://www.fritzing.org/) -->
<svg xmlns="http://www.w3.org/2000/svg"  width="1.44119in" version="1.2" x="0in" viewBox="0 0 103.766 72" y="0in" height="1in" baseProfile="tiny">
    <desc >
        <referenceFile >MicroSD_pcb.svg</referenceFile>
    </desc>
    <desc >Fritzing footprint generated by brd2svg</desc>
    <g id="silkscreen"  gorn="0.2">
        <path  stroke="white" stroke-width="0.576" fill="none" d="M103.478,66.3552A5.112,5.112,0,0,1,98.1072,71.712L19.3471,71.712A5.112,5.112,0,0,1,13.9771,66.3552L13.9771,5.6448A5.112,5.112,0,0,1,19.3471,0.288L98.1072,0.288A5.112,5.112,0,0,1,103.478,5.6448L103.478,66.3552M18.1354,7.2a2.83011,2.83011,0,1,0,5.66022,0,2.83011,2.83011,0,1,0,-5.66022,0zM18.1354,64.8a2.83011,2.83011,0,1,0,5.66022,0,2.83011,2.83011,0,1,0,-5.66022,0zM75.7354,7.2a2.83011,2.83011,0,1,0,5.66022,0,2.83011,2.83011,0,1,0,-5.66022,0zM75.7354,64.8a2.83011,2.83011,0,1,0,5.66022,0,2.83011,2.83011,0,1,0,-5.66022,0z"/>
        <g >
            <title >element:IC1</title>
            <g >
                <title >package:SO16</title>
                <line  y1="46.44" stroke-linecap="round" stroke="white" y2="19.8" stroke-width="0.432" x1="79.0697" x2="79.0697"/>
                <path  stroke="white" stroke-width="0.432" fill="none" d="M67.9815,46.44A1.08,1.08,0,0,0,69.0615,47.52"/>
                <path  stroke="white" stroke-width="0.432" fill="none" d="M79.0697,19.8A1.08,1.08,0,0,0,77.9897,18.72"/>
                <path  stroke="white" stroke-width="0.432" fill="none" d="M77.9897,47.52A1.08,1.08,0,0,0,79.0697,46.44"/>
                <path  stroke="white" stroke-width="0.432" fill="none" d="M69.0615,18.72A1.08,1.08,0,0,0,67.9815,19.8"/>
                <line  y1="19.8" stroke-linecap="round" stroke="white" y2="46.44" stroke-width="0.432" x1="67.9815" x2="67.9815"/>
                <line  y1="47.52" stroke-linecap="round" stroke="white" y2="47.52" stroke-width="0.432" x1="69.0615" x2="77.9897"/>
                <line  y1="18.72" stroke-linecap="round" stroke="white" y2="18.72" stroke-width="0.432" x1="77.9897" x2="74.9657"/>
                <line  y1="18.72" stroke-linecap="round" stroke="white" y2="18.72" stroke-width="0.432" x1="74.9657" x2="72.0857"/>
                <line  y1="18.72" stroke-linecap="round" stroke="white" y2="18.72" stroke-width="0.432" x1="72.0857" x2="69.0615"/>
                <path  stroke="white" stroke-width="0.432" fill="none" d="M72.0857,18.72A1.44,1.44,0,1,0,74.9657,18.72"/>
                <line  y1="18.72" stroke-linecap="round" stroke="white" y2="47.52" stroke-width="0.144" x1="68.9895" x2="68.9895"/>
            </g>
        </g>
        <g >
            <title >element:JP1</title>
            <g >
                <title >package:1X08-BIG</title>
                <line  y1="65.16" stroke-linecap="round" stroke="white" y2="7.56" stroke-width="0.36" x1="96.5657" x2="96.5657"/>
                <line  y1="7.56" stroke-linecap="round" stroke="white" y2="7.56" stroke-width="0.36" x1="96.5657" x2="103.766"/>
                <line  y1="7.56" stroke-linecap="round" stroke="white" y2="65.16" stroke-width="0.36" x1="103.766" x2="103.766"/>
                <line  y1="65.16" stroke-linecap="round" stroke="white" y2="65.16" stroke-width="0.36" x1="103.766" x2="96.5657"/>
            </g>
        </g>
        <g >
            <title >element:X1</title>
            <g >
                <title >package:MICROSD</title>
                <line  y1="53.4104" stroke-linecap="round" stroke="white" y2="56.245" stroke-width="0.36" x1="15.4889" x2="15.4889"/>
                <line  y1="56.245" stroke-linecap="round" stroke="white" y2="56.245" stroke-width="0.36" x1="15.4889" x2="58.2921"/>
                <line  y1="56.245" stroke-linecap="round" stroke="white" y2="16.56" stroke-width="0.36" x1="58.2921" x2="58.2921"/>
                <line  y1="16.56" stroke-linecap="round" stroke="white" y2="16.56" stroke-width="0.36" x1="58.2921" x2="17.4732"/>
                <line  y1="16.56" stroke-linecap="round" stroke="white" y2="19.3946" stroke-width="0.36" x1="17.4732" x2="17.4732"/>
                <path  stroke="white" stroke-width="0.36" fill="none" d="M20.0244,21.3789A2.28536,2.28536,0,0,0,17.4732,19.3946"/>
                <line  y1="21.3789" stroke-linecap="round" stroke="white" y2="48.875" stroke-width="0.36" x1="20.0244" x2="20.0244"/>
                <path  stroke="white" stroke-width="0.36" fill="none" d="M15.4889,53.4104A4.53543,4.53543,0,0,0,20.0244,48.875"/>
                <path  stroke="white" stroke-width="0.36" fill="none" d="M16.7362,17.6939A3.40158,3.40158,0,0,0,13.3346,21.0954"/>
                <line  y1="21.0954" stroke-linecap="round" stroke="white" y2="47.1742" stroke-width="0.36" x1="13.3346" x2="13.3346"/>
                <path  stroke="white" stroke-width="0.36" fill="none" d="M13.3346,47.1742A3.41336,3.41336,0,0,0,16.4527,50.8592"/>
                <path  stroke="white" stroke-width="0.36" fill="none" d="M14.185,17.6939A3.40158,3.40158,0,0,0,10.7834,21.0954"/>
                <line  y1="21.0954" stroke-linecap="round" stroke="white" y2="47.1742" stroke-width="0.36" x1="10.7834" x2="10.7834"/>
                <path  stroke="white" stroke-width="0.36" fill="none" d="M10.7834,47.1742A3.41336,3.41336,0,0,0,13.9015,50.8592"/>
                <path  stroke="white" stroke-width="0.36" fill="none" d="M3.41336,17.6939A3.40158,3.40158,0,0,0,0.0117904,21.0954"/>
                <line  y1="21.0954" stroke-linecap="round" stroke="white" y2="47.1742" stroke-width="0.36" x1="0.0117904" x2="0.0117904"/>
                <path  stroke="white" stroke-width="0.36" fill="none" d="M0.0117904,47.1742A3.41336,3.41336,0,0,0,3.1299,50.8592"/>
            </g>
        </g>
        <line  y1="56.245" stroke="white" fill-opacity="1" y2="56.245" stroke-width="0.576" x1="0.288" fill="none" x2="13.7655"/>
        <line  y1="16.56" stroke="white" fill-opacity="1" y2="16.56" stroke-width="0.576" x1="0.288" fill="none" x2="13.7655"/>
        <line  y1="56.245" stroke="white" fill-opacity="1" y2="16.56" stroke-width="0.576" x1="0.288" fill="none" x2="0.288"/>
    </g>
    <g id="copper1"  gorn="0.3">
        <g id="copper0"  gorn="0.3.0">
            <circle id="connector38pad"  stroke="#F7BD13" stroke-width="1.08" gorn="0.3.0.0" cx="100.166" connectorname="CS" r="1.98" fill="none" cy="18.36"/>
            <circle id="connector34pad"  stroke="#F7BD13" stroke-width="1.08" gorn="0.3.0.1" cx="100.166" connectorname="GND" r="1.98" fill="none" cy="47.16"/>
            <circle id="connector32pad"  stroke="#F7BD13" stroke-width="1.08" gorn="0.3.0.2" cx="100.166" connectorname="VCC" r="1.98" fill="none" cy="61.56"/>
            <circle id="connector36pad"  stroke="#F7BD13" stroke-width="1.08" gorn="0.3.0.3" cx="100.166" connectorname="DO" r="1.98" fill="none" cy="32.76"/>
            <circle id="connector33pad"  stroke="#F7BD13" stroke-width="1.08" gorn="0.3.0.4" cx="100.166" connectorname="+3V3" r="1.98" fill="none" cy="54.36"/>
            <circle id="connector35pad"  stroke="#F7BD13" stroke-width="1.08" gorn="0.3.0.5" cx="100.166" connectorname="CLK" r="1.98" fill="none" cy="39.96"/>
            <circle id="connector37pad"  stroke="#F7BD13" stroke-width="1.08" gorn="0.3.0.6" cx="100.166" connectorname="DI" r="1.98" fill="none" cy="25.56"/>
            <circle id="connector39pad"  stroke="#F7BD13" stroke-width="1.08" gorn="0.3.0.7" cx="100.166" connectorname="CD" r="1.98" fill="none" cy="11.16"/>
        </g>
    </g>
</svg>
