<?xml version='1.0' encoding='UTF-8' standalone='no'?>
<!-- Created with Fritzing (http://www.fritzing.org/) -->
<svg xmlns="http://www.w3.org/2000/svg" y="0in" height="0.6in" version="1.2" width="0.4in" viewBox="0 0 28.8 43.2" baseProfile="tiny" x="0in" >
    <desc >
        <referenceFile >DS2413_pcb.svg</referenceFile>
    </desc>
    <desc >Fritzing footprint generated by brd2svg</desc>
    <g  id="silkscreen" gorn="0.2">
        <path stroke-width="0.576" d="M0.288,3.84A3.312,3.312,0,0,1,3.816,0.288L24.984,0.288A3.312,3.312,0,0,1,28.512,3.84L28.512,39.36A3.312,3.312,0,0,1,24.984,42.912L3.816,42.912A3.312,3.312,0,0,1,0.288,39.36L0.288,3.84" fill="none" stroke="white" />
        <g >
            <title >element:CN1</title>
            <g >
                <title >package:1X04-CLEANBIG</title>
            </g>
        </g>
        <g >
            <title >element:U$3</title>
            <g >
                <title >package:ADAFRUIT_3.5MM</title>
            </g>
        </g>
        <g >
            <title >element:U$4</title>
            <g >
                <title >package:MOUNTINGHOLE_2.5_PLATED</title>
                <circle r="5.66929" cx="14.4" stroke-width="0.576" cy="7.2" fill="none" stroke="white" />
            </g>
        </g>
        <g >
            <title >element:U1</title>
            <g >
                <title >package:DS2413_TSOC6L</title>
                <line stroke-width="0.36" stroke-linecap="round" y1="17.9376" stroke="white" x2="20.0693" x1="20.0693" y2="17.0873" />
                <line stroke-width="0.36" stroke-linecap="round" y1="17.0873" stroke="white" x2="8.73072" x1="20.0693" y2="17.0873" />
                <line stroke-width="0.36" stroke-linecap="round" y1="17.0873" stroke="white" x2="8.73072" x1="8.73072" y2="17.9376" />
                <line stroke-width="0.36" stroke-linecap="round" y1="28.1424" stroke="white" x2="20.0693" x1="20.0693" y2="28.9927" />
                <line stroke-width="0.36" stroke-linecap="round" y1="28.9927" stroke="white" x2="8.73072" x1="20.0693" y2="28.9927" />
                <line stroke-width="0.36" stroke-linecap="round" y1="28.9927" stroke="white" x2="8.73072" x1="8.73072" y2="28.1424" />
            </g>
        </g>
    </g>
    <g  id="copper1" gorn="0.3">
        <g  id="copper0" gorn="0.3.0">
            <circle r="1.98" cx="10.8" stroke-width="1.08" connectorname="PIOA" cy="39.6" fill="none" stroke="#F7BD13"  id="connector6pad" gorn="0.3.0.0"/>
            <circle r="1.98" cx="18" stroke-width="1.08" connectorname="IO" cy="39.6" fill="none" stroke="#F7BD13"  id="connector7pad" gorn="0.3.0.1"/>
            <circle r="1.98" cx="25.2" stroke-width="1.08" connectorname="GND" cy="39.6" fill="none" stroke="#F7BD13"  id="connector8pad" gorn="0.3.0.2"/>
            <circle r="4.26331" cx="14.4" stroke-width="1.44" connectorname="P$1" cy="7.2" fill="none" stroke="#F7BD13"  id="connector10pad" gorn="0.3.0.3"/>
            <circle r="1.98" cx="3.6" stroke-width="1.08" connectorname="PIOB" cy="39.6" fill="none" stroke="#F7BD13"  id="connector5pad" gorn="0.3.0.4"/>
        </g>
    </g>
</svg>
