<?xml version='1.0' encoding='UTF-8' standalone='no'?>
<!-- Created with Fritzing (http://www.fritzing.org/) -->
<svg xmlns="http://www.w3.org/2000/svg" width="1.3in"  y="0in" version="1.2" baseProfile="tiny" x="0in" viewBox="0 0 93.6 57.6" height="0.8in">
    <desc>
        <referenceFile>Adafruit LSM9DS1_pcb.svg</referenceFile>
    </desc>
    <desc >Fritzing footprint generated by brd2svg</desc>
    <g  id="silkscreen" gorn="0.1">
        <path  stroke-width="0.576" d="M0.288,50.184L0.288,7.416A6.912,6.912,0,0,1,7.44372,0.288L86.1566,0.288A6.912,6.912,0,0,1,93.312,7.416L93.312,50.184A6.912,6.912,0,0,1,86.1566,57.312L7.44372,57.312A6.912,6.912,0,0,1,0.288,50.184" fill="none" stroke="white"/>
        <line x1="81.72"  stroke-width="0.72" x2="85.68" y2="15.12" stroke-linecap="round" stroke="white" y1="15.12"/>
        <line x1="85.68"  stroke-width="0.72" x2="83.88" y2="13.32" stroke-linecap="round" stroke="white" y1="15.12"/>
        <line x1="83.88"  stroke-width="0.72" x2="83.52" y2="13.32" stroke-linecap="round" stroke="white" y1="13.32"/>
        <line x1="83.52"  stroke-width="0.72" x2="81.72" y2="15.12" stroke-linecap="round" stroke="white" y1="13.32"/>
        <line x1="82.44"  stroke-width="0.72" x2="82.8" y2="14.76" stroke-linecap="round" stroke="white" y1="14.76"/>
        <line x1="82.8"  stroke-width="0.72" x2="84.6" y2="14.76" stroke-linecap="round" stroke="white" y1="14.76"/>
        <line x1="84.6"  stroke-width="0.72" x2="84.6" y2="14.4" stroke-linecap="round" stroke="white" y1="14.76"/>
        <line x1="84.6"  stroke-width="0.72" x2="83.88" y2="13.68" stroke-linecap="round" stroke="white" y1="14.4"/>
        <line x1="83.88"  stroke-width="0.72" x2="82.8" y2="14.76" stroke-linecap="round" stroke="white" y1="13.68"/>
        <line x1="87.48"  stroke-width="0.72" x2="87.48" y2="30.96" stroke-linecap="round" stroke="white" y1="28.08"/>
        <line x1="87.48"  stroke-width="0.72" x2="89.28" y2="29.16" stroke-linecap="round" stroke="white" y1="30.96"/>
        <line x1="89.28"  stroke-width="0.72" x2="87.48" y2="27.36" stroke-linecap="round" stroke="white" y1="29.16"/>
        <line x1="87.48"  stroke-width="0.72" x2="87.48" y2="28.08" stroke-linecap="round" stroke="white" y1="27.36"/>
        <line x1="87.48"  stroke-width="0.72" x2="88.56" y2="29.16" stroke-linecap="round" stroke="white" y1="28.08"/>
        <line x1="88.56"  stroke-width="0.72" x2="87.84" y2="29.16" stroke-linecap="round" stroke="white" y1="29.16"/>
        <g >
            <title >element:JP4</title>
            <g >
                <title >package:1X09_ROUND_70</title>
            </g>
        </g>
    </g>
    <g  id="copper1" gorn="0.2">
        <g  id="copper0" gorn="0.2.0">
            <circle cx="46.8"  id="connector49pad" stroke-width="1.10268" r="1.96866" connectorname="SDA" gorn="0.2.0.0" cy="50.4" fill="none" stroke="#F7BD13"/>
            <circle cx="7.2"  id="connector81pad" stroke-width="1.44" r="4.26331" connectorname="P$1" gorn="0.2.0.1" cy="7.2" fill="none" stroke="#F7BD13"/>
            <circle cx="75.6"  id="connector45pad" stroke-width="1.10268" r="1.96866" connectorname="SDO_M" gorn="0.2.0.2" cy="50.4" fill="none" stroke="#F7BD13"/>
            <circle cx="18"  id="connector53pad" stroke-width="1.10268" r="1.96866" connectorname="VIN" gorn="0.2.0.3" cy="50.4" fill="none" stroke="#F7BD13"/>
            <circle cx="61.2"  id="connector47pad" stroke-width="1.10268" r="1.96866" connectorname="CS_MAG" gorn="0.2.0.4" cy="50.4" fill="none" stroke="#F7BD13"/>
            <circle cx="32.4"  id="connector51pad" stroke-width="1.10268" r="1.96866" connectorname="GND" gorn="0.2.0.5" cy="50.4" fill="none" stroke="#F7BD13"/>
            <circle cx="86.4"  id="connector79pad" stroke-width="1.44" r="4.26331" connectorname="P$1" gorn="0.2.0.6" cy="50.4" fill="none" stroke="#F7BD13"/>
            <circle cx="61.2"  id="connector44pad" stroke-width="1.10268" r="1.96866" connectorname="INT_M" gorn="0.2.0.7" cy="7.2" fill="none" stroke="#F7BD13"/>
            <circle cx="68.4"  id="connector46pad" stroke-width="1.10268" r="1.96866" connectorname="SDO_AG" gorn="0.2.0.8" cy="50.4" fill="none" stroke="#F7BD13"/>
            <circle cx="54"  id="connector48pad" stroke-width="1.10268" r="1.96866" connectorname="CS_AG" gorn="0.2.0.9" cy="50.4" fill="none" stroke="#F7BD13"/>
            <circle cx="39.6"  id="connector50pad" stroke-width="1.10268" r="1.96866" connectorname="SCL" gorn="0.2.0.10" cy="50.4" fill="none" stroke="#F7BD13"/>
            <circle cx="25.2"  id="connector52pad" stroke-width="1.10268" r="1.96866" connectorname="VDD" gorn="0.2.0.11" cy="50.4" fill="none" stroke="#F7BD13"/>
            <circle cx="7.2"  id="connector78pad" stroke-width="1.44" r="4.26331" connectorname="P$1" gorn="0.2.0.12" cy="50.4" fill="none" stroke="#F7BD13"/>
            <circle cx="86.4"  id="connector80pad" stroke-width="1.44" r="4.26331" connectorname="P$1" gorn="0.2.0.13" cy="7.2" fill="none" stroke="#F7BD13"/>
            <circle cx="32.4"  id="connector40pad" stroke-width="1.10268" r="1.96866" connectorname="DEN" gorn="0.2.0.14" cy="7.2" fill="none" stroke="#F7BD13"/>
            <circle cx="39.6"  id="connector41pad" stroke-width="1.10268" r="1.96866" connectorname="INT2_AG" gorn="0.2.0.15" cy="7.2" fill="none" stroke="#F7BD13"/>
            <circle cx="46.8"  id="connector42pad" stroke-width="1.10268" r="1.96866" connectorname="INT1_AG" gorn="0.2.0.16" cy="7.2" fill="none" stroke="#F7BD13"/>
            <circle cx="54"  id="connector43pad" stroke-width="1.10268" r="1.96866" connectorname="DRDY_M" gorn="0.2.0.17" cy="7.2" fill="none" stroke="#F7BD13"/>
        </g>
    </g>
</svg>
