<?xml version='1.0' encoding='UTF-8' standalone='no'?>
<!-- Created with Fritzing (http://www.fritzing.org/) -->
<svg xmlns="http://www.w3.org/2000/svg" baseProfile="tiny" height="1.095in" viewBox="0 0 90 78.84" version="1.2" x="0in"  y="0in" width="1.25in">
    <desc >
        <referenceFile >Adafruit 0.96in 160x80 TFT Display_pcb.svg</referenceFile>
    </desc>
    <desc >Fritzing footprint generated by brd2svg</desc>
    <g gorn="0.2"  id="silkscreen">
        <path stroke-width="0.576" d="M14.5958,7.43537L14.5958,14.5828L75.4042,14.5828L75.4042,7.43537A6.912,6.912,0,0,1,82.5581,0.288A6.912,6.912,0,0,1,89.712,7.43537L89.712,71.4046A6.912,6.912,0,0,1,82.5581,78.552L7.44192,78.552A6.912,6.912,0,0,1,0.288,71.4046L0.288,7.43537A6.912,6.912,0,0,1,7.44192,0.288A6.912,6.912,0,0,1,14.5958,7.43537M77.1977,14.4a0.562393,0.562393,0,1,0,1.12478,0,0.562393,0.562393,0,1,0,-1.12478,0zM79.7177,14.4a0.562393,0.562393,0,1,0,1.12478,0,0.562393,0.562393,0,1,0,-1.12478,0zM82.2377,14.4a0.562393,0.562393,0,1,0,1.12478,0,0.562393,0.562393,0,1,0,-1.12478,0zM84.7577,14.4a0.562393,0.562393,0,1,0,1.12478,0,0.562393,0.562393,0,1,0,-1.12478,0zM87.2777,14.4a0.562393,0.562393,0,1,0,1.12478,0,0.562393,0.562393,0,1,0,-1.12478,0zM1.59761,14.4a0.562393,0.562393,0,1,0,1.12478,0,0.562393,0.562393,0,1,0,-1.12478,0zM4.11761,14.4a0.562393,0.562393,0,1,0,1.12478,0,0.562393,0.562393,0,1,0,-1.12478,0zM6.63761,14.4a0.562393,0.562393,0,1,0,1.12478,0,0.562393,0.562393,0,1,0,-1.12478,0zM9.15761,14.4a0.562393,0.562393,0,1,0,1.12478,0,0.562393,0.562393,0,1,0,-1.12478,0zM11.6776,14.4a0.562393,0.562393,0,1,0,1.12478,0,0.562393,0.562393,0,1,0,-1.12478,0z"  fill="none" stroke="white"/>
        <g >
            <title >element:CN1</title>
            <g >
                <title >package:MICROSD</title>
            </g>
        </g>
        <g >
            <title >element:JP1</title>
            <g >
                <title >package:1X11_ROUND</title>
            </g>
        </g>
        <g >
            <title >element:U$2</title>
            <g >
                <title >package:TFT_0.96IN_160X80</title>
                <line y1="64.8737" y2="20.0863" stroke-width="0.36" stroke-linecap="round"  x1="83.52" stroke="white" x2="83.52"/>
                <line y1="20.0863" y2="20.0863" stroke-width="0.36" stroke-linecap="round"  x1="83.52" stroke="white" x2="6.98457"/>
                <line y1="20.0863" y2="64.8737" stroke-width="0.36" stroke-linecap="round"  x1="6.98457" stroke="white" x2="6.98457"/>
                <line y1="64.8737" y2="64.8737" stroke-width="0.36" stroke-linecap="round"  x1="6.98457" stroke="white" x2="83.52"/>
                <line y1="63.7399" y2="21.2201" stroke-width="0.36" stroke-linecap="round"  x1="8.4019" stroke="white" x2="8.4019"/>
                <line y1="21.2201" y2="21.2201" stroke-width="0.36" stroke-linecap="round"  x1="8.4019" stroke="white" x2="81.5357"/>
                <line y1="21.2201" y2="63.7399" stroke-width="0.36" stroke-linecap="round"  x1="81.5357" stroke="white" x2="81.5357"/>
                <line y1="63.7399" y2="63.7399" stroke-width="0.36" stroke-linecap="round"  x1="81.5357" stroke="white" x2="8.4019"/>
                <line y1="58.9209" y2="26.0391" stroke-width="0.36" stroke-linecap="round"  x1="12.6539" stroke="white" x2="12.6539"/>
                <line y1="26.0391" y2="26.0391" stroke-width="0.36" stroke-linecap="round"  x1="12.6539" stroke="white" x2="69.8003"/>
                <line y1="26.0391" y2="58.9209" stroke-width="0.36" stroke-linecap="round"  x1="69.8003" stroke="white" x2="69.8003"/>
                <line y1="58.9209" y2="58.9209" stroke-width="0.36" stroke-linecap="round"  x1="69.8003" stroke="white" x2="12.6539"/>
            </g>
        </g>
        <g >
            <title >element:U3</title>
            <g >
                <title >package:SOIC16</title>
            </g>
        </g>
    </g>
    <g gorn="0.3"  id="copper1">
        <g gorn="0.3.0"  id="copper0">
            <circle gorn="0.3.0.0" connectorname="3.3V" stroke-width="0.95868" r="1.89666"  fill="none" id="connector1pad" stroke="#F7BD13" cy="72" cx="16.2"/>
            <circle gorn="0.3.0.1" connectorname="P$1" stroke-width="1.44" r="4.26331"  fill="none" id="connector25pad" stroke="#F7BD13" cy="7.2" cx="7.2"/>
            <circle gorn="0.3.0.2" connectorname="GND" stroke-width="0.95868" r="1.89666"  fill="none" id="connector2pad" stroke="#F7BD13" cy="72" cx="23.4"/>
            <circle gorn="0.3.0.3" connectorname="SCK" stroke-width="0.95868" r="1.89666"  fill="none" id="connector3pad" stroke="#F7BD13" cy="72" cx="30.6"/>
            <circle gorn="0.3.0.4" connectorname="MISO_3V" stroke-width="0.95868" r="1.89666"  fill="none" id="connector4pad" stroke="#F7BD13" cy="72" cx="37.8"/>
            <circle gorn="0.3.0.5" connectorname="MOSI" stroke-width="0.95868" r="1.89666"  fill="none" id="connector5pad" stroke="#F7BD13" cy="72" cx="45"/>
            <circle gorn="0.3.0.6" connectorname="TFTCS" stroke-width="0.95868" r="1.89666"  fill="none" id="connector6pad" stroke="#F7BD13" cy="72" cx="52.2"/>
            <circle gorn="0.3.0.7" connectorname="!TFTRST" stroke-width="0.95868" r="1.89666"  fill="none" id="connector7pad" stroke="#F7BD13" cy="72" cx="59.4"/>
            <circle gorn="0.3.0.8" connectorname="DC" stroke-width="0.95868" r="1.89666"  fill="none" id="connector8pad" stroke="#F7BD13" cy="72" cx="66.6"/>
            <circle gorn="0.3.0.9" connectorname="SDCS" stroke-width="0.95868" r="1.89666"  fill="none" id="connector9pad" stroke="#F7BD13" cy="72" cx="73.8"/>
            <circle gorn="0.3.0.10" connectorname="BACKLIGHT" stroke-width="0.95868" r="1.89666"  fill="none" id="connector10pad" stroke="#F7BD13" cy="72" cx="81"/>
            <circle gorn="0.3.0.11" connectorname="P$1" stroke-width="1.44" r="4.26331"  fill="none" id="connector24pad" stroke="#F7BD13" cy="7.2" cx="82.8"/>
            <circle gorn="0.3.0.12" connectorname="VIN" stroke-width="0.95868" r="1.89666"  fill="none" id="connector0pad" stroke="#F7BD13" cy="72" cx="9"/>
        </g>
    </g>
</svg>
