<?xml version='1.0' encoding='UTF-8' standalone='no'?>
<!-- Created with Fritzing (http://www.fritzing.org/) -->
<svg xmlns="http://www.w3.org/2000/svg" x="0in" width="0.65in" viewBox="0 0 46.8 43.2" y="0in" baseProfile="tiny" version="1.2"  height="0.6in">
    <desc>
        <referenceFile>protrinket backpack_pcb.svg</referenceFile>
    </desc>
    <desc >Fritzing footprint generated by brd2svg</desc>
    <g gorn="0.1" id="silkscreen" >
        <path stroke-width="0.576" fill="none" stroke="white" d="M46.512,7.39202L46.512,35.808A6.912,6.912,0,0,1,39.4006,42.912L7.39937,42.912A6.912,6.912,0,0,1,0.288,35.808L0.288,7.39202A6.912,6.912,0,0,1,7.39937,0.288L39.4006,0.288A6.912,6.912,0,0,1,46.512,7.39202" />
        <line stroke-linecap="round" stroke-width="0.72" stroke="white" x1="25.56" x2="25.56" y1="0.36" y2="14.04" />
        <line stroke-linecap="round" stroke-width="0.72" stroke="white" x1="25.56" x2="32.04" y1="14.04" y2="14.04" />
        <line stroke-linecap="round" stroke-width="0.72" stroke="white" x1="32.04" x2="32.04" y1="14.04" y2="0.36" />
        <line stroke-linecap="round" stroke-width="0.72" stroke="white" x1="32.04" x2="25.56" y1="0.36" y2="0.36" />
        <g >
            <title >element:CN2</title>
            <g >
                <title >package:JSTPH2</title>
                <line stroke-linecap="round" stroke-width="0.576" stroke="white" x1="45.2239" x2="45.2239" y1="19.542" y2="32.298" />
                <line stroke-linecap="round" stroke-width="0.576" stroke="white" x1="35.3027" x2="23.9641" y1="37.2586" y2="37.2586" />
                <line stroke-linecap="round" stroke-width="0.576" stroke="white" x1="23.9641" x2="23.9641" y1="37.2586" y2="34.8492" />
                <line stroke-linecap="round" stroke-width="0.576" stroke="white" x1="23.9641" x2="31.0507" y1="34.8492" y2="34.8492" />
                <line stroke-linecap="round" stroke-width="0.576" stroke="white" x1="31.0507" x2="31.0507" y1="34.8492" y2="30.8807" />
                <line stroke-linecap="round" stroke-width="0.576" stroke="white" x1="31.0507" x2="31.0507" y1="20.9593" y2="16.9908" />
                <line stroke-linecap="round" stroke-width="0.576" stroke="white" x1="31.0507" x2="23.9641" y1="16.9908" y2="16.9908" />
                <line stroke-linecap="round" stroke-width="0.576" stroke="white" x1="23.9641" x2="23.9641" y1="16.9908" y2="14.5814" />
                <line stroke-linecap="round" stroke-width="0.576" stroke="white" x1="23.9641" x2="35.3027" y1="14.5814" y2="14.5814" />
            </g>
        </g>
        <g >
            <title >element:U$10</title>
            <g >
                <title >package:MOUNTINGHOLE_2.5_PLATED</title>
                <circle cy="7.2" stroke-width="0.576" fill="none" stroke="white" cx="39.6" r="5.66929" />
            </g>
        </g>
    </g>
    <g gorn="0.2" id="copper1" >
        <g gorn="0.2.0" id="copper0" >
            <circle cy="3.6" stroke-width="1.10268" gorn="0.2.0.0" fill="none" stroke="#F7BD13" cx="28.8" id="connector17pad" r="1.96866" connectorname="SW1" />
            <circle cy="7.2" stroke-width="1.44" gorn="0.2.0.1" fill="none" stroke="#F7BD13" cx="39.6" id="connector26pad" r="4.26331" connectorname="P$1" />
            <circle cy="3.6" stroke-width="1.31868" gorn="0.2.0.2" fill="none" stroke="#F7BD13" cx="21.6" id="connector13pad" r="2.07666" connectorname="VBUS" />
            <circle cy="3.6" stroke-width="1.31868" gorn="0.2.0.3" fill="none" stroke="#F7BD13" cx="14.4" id="connector14pad" r="2.07666" connectorname="GND" />
            <circle cy="3.6" stroke-width="1.31868" gorn="0.2.0.4" fill="none" stroke="#F7BD13" cx="7.2" id="connector15pad" r="2.07666" connectorname="VBAT" />
            <circle cy="10.8" stroke-width="1.10268" gorn="0.2.0.5" fill="none" stroke="#F7BD13" cx="28.8" id="connector16pad" r="1.96866" connectorname="SW2" />
        </g>
    </g>
</svg>
