<?xml version='1.0' encoding='UTF-8' standalone='no'?>
<!-- Created with Fritzing (http://www.fritzing.org/) -->
<svg xmlns="http://www.w3.org/2000/svg" width="1.4in" baseProfile="tiny" viewBox="0 0 100.8 82.8"  x="0in" height="1.15in" y="0in" version="1.2">
    <desc >
        <referenceFile >Adafruit OLED Color 0.96 inch 96x64 w microSD_pcb.svg</referenceFile>
    </desc>
    <desc >Fritzing footprint generated by brd2svg</desc>
    <g  id="silkscreen" gorn="0.2">
        <path fill="none"  stroke="white" d="M100.512,7.43789L100.512,75.3624A6.912,6.912,0,0,1,93.353,82.512L7.44689,82.512A6.912,6.912,0,0,1,0.288,75.3624L0.288,7.43789A6.912,6.912,0,0,1,7.44689,0.288L93.353,0.288A6.912,6.912,0,0,1,100.512,7.43789M26.5935,75.7188a1.12932,1.12932,0,1,0,2.25865,0,1.12932,1.12932,0,1,0,-2.25865,0zM71.9479,75.7188a1.12932,1.12932,0,1,0,2.25865,0,1.12932,1.12932,0,1,0,-2.25865,0z" stroke-width="0.576"/>
        <g >
            <title >element:CN1</title>
            <g >
                <title >package:MICROSD</title>
            </g>
        </g>
        <g >
            <title >element:JP2</title>
            <g >
                <title >package:1X10_ROUND_76</title>
            </g>
        </g>
        <g >
            <title >element:LCD1</title>
            <g >
                <title >package:UG-9664HDDAG01_WRAPAROUND</title>
            </g>
        </g>
        <g >
            <title >element:U2</title>
            <g >
                <title >package:SOIC16</title>
            </g>
        </g>
    </g>
    <g  id="copper1" gorn="0.3">
        <g  id="copper0" gorn="0.3.0">
            <circle fill="none" r="2.07666"  stroke="#F7BD13" id="connector6pad" stroke-width="1.31868" gorn="0.3.0.0" cx="75.7418" cy="6.97607" connectorname="SD_MISO"/>
            <circle fill="none" r="4.03937"  stroke="#F7BD13" id="connector18pad" stroke-width="0.992124" gorn="0.3.0.1" cx="7.2" cy="75.6" connectorname="P$1"/>
            <circle fill="none" r="2.07666"  stroke="#F7BD13" id="connector14pad" stroke-width="1.31868" gorn="0.3.0.2" cx="18.1418" cy="6.97607" connectorname="GND"/>
            <circle fill="none" r="2.07666"  stroke="#F7BD13" id="connector7pad" stroke-width="1.31868" gorn="0.3.0.3" cx="68.5418" cy="6.97607" connectorname="MOSI"/>
            <circle fill="none" r="4.03937"  stroke="#F7BD13" id="connector16pad" stroke-width="0.992124" gorn="0.3.0.4" cx="93.6" cy="75.6" connectorname="P$1"/>
            <circle fill="none" r="2.07666"  stroke="#F7BD13" id="connector8pad" stroke-width="1.31868" gorn="0.3.0.5" cx="61.3418" cy="6.97607" connectorname="SCK"/>
            <circle fill="none" r="2.07666"  stroke="#F7BD13" id="connector13pad" stroke-width="1.31868" gorn="0.3.0.6" cx="25.3418" cy="6.97607" connectorname="V+"/>
            <circle fill="none" r="2.07666"  stroke="#F7BD13" id="connector9pad" stroke-width="1.31868" gorn="0.3.0.7" cx="54.1418" cy="6.97607" connectorname="DC"/>
            <circle fill="none" r="4.03937"  stroke="#F7BD13" id="connector15pad" stroke-width="0.992124" gorn="0.3.0.8" cx="93.6" cy="7.2" connectorname="P$1"/>
            <circle fill="none" r="2.07666"  stroke="#F7BD13" id="connector10pad" stroke-width="1.31868" gorn="0.3.0.9" cx="46.9418" cy="6.97607" connectorname="RESET"/>
            <circle fill="none" r="4.03937"  stroke="#F7BD13" id="connector17pad" stroke-width="0.992124" gorn="0.3.0.10" cx="7.2" cy="7.2" connectorname="P$1"/>
            <circle fill="none" r="2.07666"  stroke="#F7BD13" id="connector11pad" stroke-width="1.31868" gorn="0.3.0.11" cx="39.7418" cy="6.97607" connectorname="OLED_CS"/>
            <circle fill="none" r="2.07666"  stroke="#F7BD13" id="connector12pad" stroke-width="1.31868" gorn="0.3.0.12" cx="32.5418" cy="6.97607" connectorname="SD_CS"/>
            <circle fill="none" r="2.07666"  stroke="#F7BD13" id="connector5pad" stroke-width="1.31868" gorn="0.3.0.13" cx="82.9418" cy="6.97607" connectorname="SD_CD"/>
            <rect width="4.15332" fill="none"  stroke="#F7BD13" stroke-width="1.31868" x="80.8654" height="4.15332" y="4.8994"/>
        </g>
    </g>
</svg>
