<?xml version='1.0' encoding='UTF-8' standalone='no'?>
<!-- Created with Fritzing (http://www.fritzing.org/) -->
<svg xmlns="http://www.w3.org/2000/svg" viewBox="0 0 50.4 50.4" version="1.2"  baseProfile="tiny" width="0.7in" y="0in" x="0in" height="0.7in">
    <desc >
        <referenceFile >Adafruit APDS-9960_pcb.svg</referenceFile>
    </desc>
    <desc >Fritzing footprint generated by brd2svg</desc>
    <g  id="silkscreen" gorn="0.2">
        <path d="M50.112,7.4057L50.112,42.9943A6.912,6.912,0,0,1,42.9943,50.112L7.4057,50.112A6.912,6.912,0,0,1,0.288,42.9943L0.288,7.4057A6.912,6.912,0,0,1,7.4057,0.288L42.9943,0.288A6.912,6.912,0,0,1,50.112,7.4057" fill="none"  stroke="white" stroke-width="0.576"/>
        <g >
            <title >element:JP1</title>
            <g >
                <title >package:1X06_ROUND_76</title>
            </g>
        </g>
    </g>
    <g  id="copper1" gorn="0.3">
        <g  id="copper0" gorn="0.3.0">
            <circle fill="none" cy="7.2"  stroke="#F7BD13" cx="43.2" id="connector29pad" connectorname="P$1" stroke-width="1.44" gorn="0.3.0.0" r="4.26331"/>
            <circle fill="none" cy="43.2"  stroke="#F7BD13" cx="7.2" id="connector8pad" connectorname="VIN" stroke-width="1.31868" gorn="0.3.0.1" r="2.07666"/>
            <circle fill="none" cy="43.2"  stroke="#F7BD13" cx="14.4" id="connector9pad" connectorname="3.3V" stroke-width="1.31868" gorn="0.3.0.2" r="2.07666"/>
            <circle fill="none" cy="43.2"  stroke="#F7BD13" cx="21.6" id="connector10pad" connectorname="GND" stroke-width="1.31868" gorn="0.3.0.3" r="2.07666"/>
            <circle fill="none" cy="43.2"  stroke="#F7BD13" cx="28.8" id="connector11pad" connectorname="SCL" stroke-width="1.31868" gorn="0.3.0.4" r="2.07666"/>
            <circle fill="none" cy="43.2"  stroke="#F7BD13" cx="36" id="connector12pad" connectorname="SDA" stroke-width="1.31868" gorn="0.3.0.5" r="2.07666"/>
            <circle fill="none" cy="43.2"  stroke="#F7BD13" cx="43.2" id="connector13pad" connectorname="INT" stroke-width="1.31868" gorn="0.3.0.6" r="2.07666"/>
            <circle fill="none" cy="7.2"  stroke="#F7BD13" cx="7.2" id="connector28pad" connectorname="P$1" stroke-width="1.44" gorn="0.3.0.7" r="4.26331"/>
        </g>
    </g>
</svg>
