<?xml version='1.0' encoding='UTF-8' standalone='no'?>
<!-- Created with Fritzing (http://www.fritzing.org/) -->
<svg xmlns="http://www.w3.org/2000/svg" width="1.1011in" viewBox="0 0 79.2792 57.6" version="1.2" height="0.8in"  baseProfile="tiny" x="0in" y="0in">
    <desc >
        <referenceFile >Adafruit AR1100 Breakout_pcb.svg</referenceFile>
    </desc>
    <desc >Fritzing footprint generated by brd2svg</desc>
    <g gorn="0.2"  id="silkscreen">
        <path stroke-width="0.576" fill="none" stroke="white" d="M7.5145,0.288L71.8437,0.288A6.912,6.912,0,0,1,78.9912,7.416L78.9912,50.184A6.912,6.912,0,0,1,71.8437,57.312L7.5145,57.312A6.912,6.912,0,0,1,0.366793,50.184L0.366793,7.416A6.912,6.912,0,0,1,7.5145,0.288M14.7447,22.5638a1.12932,1.12932,0,1,0,2.25865,0,1.12932,1.12932,0,1,0,-2.25865,0zM14.7447,35.0362a1.12932,1.12932,0,1,0,2.25865,0,1.12932,1.12932,0,1,0,-2.25865,0z" />
        <g >
            <title >element:IC1</title>
            <g >
                <title >package:TSSOP20-5.3MMBODY</title>
                <line stroke-width="0.432" x2="51.3745" stroke="white" stroke-linecap="round" y1="31.6506" y2="13.7094"  x1="51.3745"/>
                <line stroke-width="0.432" x2="51.3745" stroke="white" stroke-linecap="round" y1="13.7094" y2="13.7094"  x1="34.4642"/>
                <line stroke-width="0.432" x2="34.4642" stroke="white" stroke-linecap="round" y1="13.7094" y2="31.6506"  x1="34.4642"/>
                <line stroke-width="0.432" x2="34.4642" stroke="white" stroke-linecap="round" y1="31.6506" y2="31.6506"  x1="51.3745"/>
                <line stroke-width="0.144" x2="50.7265" stroke="white" stroke-linecap="round" y1="31.0026" y2="14.3574"  x1="50.7265"/>
                <line stroke-width="0.144" x2="50.7265" stroke="white" stroke-linecap="round" y1="14.3574" y2="14.3574"  x1="35.1122"/>
                <line stroke-width="0.144" x2="35.1122" stroke="white" stroke-linecap="round" y1="14.3574" y2="31.0026"  x1="35.1122"/>
                <line stroke-width="0.144" x2="35.1122" stroke="white" stroke-linecap="round" y1="31.0026" y2="31.0026"  x1="50.7265"/>
                <circle stroke-width="0.432" fill="none" stroke="white" r="1.296" cx="46.3753"  cy="29.1306"/>
            </g>
        </g>
        <g >
            <title >element:U$7</title>
            <g >
                <title >package:FPC_CONN_1MM_DUAL_4P</title>
                <line stroke-width="0.36" x2="66.3193" stroke="white" stroke-linecap="round" y1="36.1474" y2="18.5726"  x1="66.3193"/>
                <line stroke-width="0.36" x2="79.0754" stroke="white" stroke-linecap="round" y1="18.5726" y2="18.5726"  x1="66.3193"/>
                <line stroke-width="0.36" x2="79.0754" stroke="white" stroke-linecap="round" y1="18.5726" y2="36.1474"  x1="79.0754"/>
                <line stroke-width="0.36" x2="66.3193" stroke="white" stroke-linecap="round" y1="36.1474" y2="36.1474"  x1="79.0754"/>
            </g>
        </g>
        <g >
            <title >element:U$17</title>
            <g >
                <title >package:ADAFRUIT_TEXT_20MM</title>
            </g>
        </g>
        <g >
            <title >element:X1</title>
            <g >
                <title >package:USB-MINIB</title>
            </g>
        </g>
        <line stroke-width="0.576" fill="none" x2="0.0793699" stroke="white" fill-opacity="1" y1="43.115" y2="43.115"  x1="0.288"/>
        <line stroke-width="0.576" fill="none" x2="0.0793699" stroke="white" fill-opacity="1" y1="14.4" y2="14.4"  x1="0.288"/>
        <line stroke-width="0.576" fill="none" x2="0.288" stroke="white" fill-opacity="1" y1="43.115" y2="14.4"  x1="0.288"/>
    </g>
    <g gorn="0.3"  id="copper1">
        <g gorn="0.3.0"  id="copper0">
            <circle stroke-width="1.44" fill="none" stroke="#F7BD13" gorn="0.3.0.0" r="4.26331" cx="72.0792"  cy="7.2" id="connector54pad" connectorname="P$1"/>
            <circle stroke-width="1.08" fill="none" stroke="#F7BD13" gorn="0.3.0.1" r="1.98" cx="50.4793"  cy="54" id="connector11pad" connectorname="X+"/>
            <circle stroke-width="1.08" fill="none" stroke="#F7BD13" gorn="0.3.0.2" r="1.98" cx="43.2793"  cy="54" id="connector12pad" connectorname="Y+"/>
            <circle stroke-width="1.08" fill="none" stroke="#F7BD13" gorn="0.3.0.3" r="1.98" cx="36.0793"  cy="54" id="connector13pad" connectorname="Y-"/>
            <circle stroke-width="1.08" fill="none" stroke="#F7BD13" gorn="0.3.0.4" r="1.98" cx="28.8793"  cy="54" id="connector14pad" connectorname="X-"/>
            <circle stroke-width="1.08" fill="none" stroke="#F7BD13" gorn="0.3.0.5" r="1.98" cx="50.4793"  cy="3.6" id="connector15pad" connectorname="V+"/>
            <circle stroke-width="1.08" fill="none" stroke="#F7BD13" gorn="0.3.0.6" r="1.98" cx="43.2793"  cy="3.6" id="connector16pad" connectorname="GND"/>
            <circle stroke-width="1.44" fill="none" stroke="#F7BD13" gorn="0.3.0.7" r="4.26331" cx="7.27934"  cy="50.4" id="connector52pad" connectorname="P$1"/>
            <circle stroke-width="1.08" fill="none" stroke="#F7BD13" gorn="0.3.0.8" r="1.98" cx="36.0793"  cy="3.6" id="connector17pad" connectorname="TX"/>
            <circle stroke-width="1.08" fill="none" stroke="#F7BD13" gorn="0.3.0.9" r="1.98" cx="28.8793"  cy="3.6" id="connector18pad" connectorname="RX"/>
            <circle stroke-width="1.44" fill="none" stroke="#F7BD13" gorn="0.3.0.10" r="4.26331" cx="7.27934"  cy="7.2" id="connector53pad" connectorname="P$1"/>
            <circle stroke-width="1.44" fill="none" stroke="#F7BD13" gorn="0.3.0.11" r="4.26331" cx="72.0792"  cy="50.4" id="connector55pad" connectorname="P$1"/>
        </g>
    </g>
</svg>
