<?xml version='1.0' encoding='UTF-8' standalone='no'?>
<!-- Created with Fritzing (http://www.fritzing.org/) -->
<svg xmlns="http://www.w3.org/2000/svg" baseProfile="tiny" height="2.1in" viewBox="0 0 203.101 151.2"  version="1.2" y="0in" width="2.82085in" x="0in">
    <desc>
        <referenceFile>Adafruit_Metro_No_Headers_pcb.svg</referenceFile>
    </desc>
    <desc >Fritzing footprint generated by brd2svg</desc>
    <g gorn="0.1" id="silkscreen" >
        <path stroke-width="0.576" stroke="white" fill="none"  d="M195.633,36.8681L202.813,44.0407L202.813,136.567L195.633,143.739L195.633,148.088A2.54665,2.54665,0,0,1,192.807,150.912L11.7912,150.912A2.54665,2.54665,0,0,1,8.96458,148.088L8.96458,3.11185A2.54665,2.54665,0,0,1,11.7912,0.288L191.326,0.288L195.633,4.59154L195.633,36.8681M19.4519,93.6677a1.12932,1.12932,0,1,0,2.25865,0,1.12932,1.12932,0,1,0,-2.25865,0zM19.4519,102.172a1.12932,1.12932,0,1,0,2.25865,0,1.12932,1.12932,0,1,0,-2.25865,0zM12.1935,129.168a1.97972,1.97972,0,1,0,3.95943,0,1.97972,1.97972,0,1,0,-3.95943,0zM24.666,129.168a2.26318,2.26318,0,1,0,4.52636,0,2.26318,2.26318,0,1,0,-4.52636,0zM20.2371,37.6724a0.704126,0.704126,0,1,0,1.40826,0,0.704126,0.704126,0,1,0,-1.40826,0zM20.2371,48.7276a0.704126,0.704126,0,1,0,1.40826,0,0.704126,0.704126,0,1,0,-1.40826,0zM191.654,50.4a4.24743,4.24743,0,1,0,8.49485,0,4.24743,4.24743,0,1,0,-8.49485,0zM191.654,129.6a4.24743,4.24743,0,1,0,8.49485,0,4.24743,4.24743,0,1,0,-8.49485,0zM47.6538,7.2a4.24743,4.24743,0,1,0,8.49485,0,4.24743,4.24743,0,1,0,-8.49485,0zM44.0538,144a4.24743,4.24743,0,1,0,8.49485,0,4.24743,4.24743,0,1,0,-8.49485,0z"/>
        <circle r="1.01823" stroke-width="0.864" cx="184.021" stroke="white" fill="none" cy="61.56" />
        <g >
            <title >element:AD</title>
            <g >
                <title >package:1X06_OVAL</title>
            </g>
        </g>
        <g >
            <title >element:IOH</title>
            <g >
                <title >package:1X10_OVAL</title>
            </g>
        </g>
        <g >
            <title >element:IOL</title>
            <g >
                <title >package:1X08_OVAL</title>
            </g>
        </g>
        <g >
            <title >element:ON/OFF</title>
            <g >
                <title >package:EG1390</title>
                <line x2="15.6206" y1="108.125" x1="15.6206" stroke-width="0.36" y2="87.7154" stroke="white" stroke-linecap="round" />
                <line x2="25.5419" y1="87.7154" x1="15.6206" stroke-width="0.36" y2="87.7154" stroke="white" stroke-linecap="round" />
                <line x2="25.5419" y1="87.7154" x1="25.5419" stroke-width="0.36" y2="108.125" stroke="white" stroke-linecap="round" />
                <line x2="15.6206" y1="108.125" x1="25.5419" stroke-width="0.36" y2="108.125" stroke="white" stroke-linecap="round" />
            </g>
        </g>
        <g >
            <title >element:PC1</title>
            <g >
                <title >package:PANASONIC_D</title>
                <line x2="53.5607" y1="131.252" x1="60.0803" stroke-width="0.576" y2="131.252" stroke="white" stroke-linecap="round" />
                <line x2="53.5607" y1="131.252" x1="53.5607" stroke-width="0.576" y2="117.647" stroke="white" stroke-linecap="round" />
                <line x2="58.3795" y1="117.647" x1="53.5607" stroke-width="0.576" y2="112.828" stroke="white" stroke-linecap="round" />
                <line x2="60.0803" y1="112.828" x1="58.3795" stroke-width="0.576" y2="112.828" stroke="white" stroke-linecap="round" />
                <line x2="67.1669" y1="112.828" x1="65.4661" stroke-width="0.576" y2="112.828" stroke="white" stroke-linecap="round" />
                <line x2="71.9858" y1="112.828" x1="67.1669" stroke-width="0.576" y2="117.647" stroke="white" stroke-linecap="round" />
                <line x2="71.9858" y1="117.647" x1="71.9858" stroke-width="0.576" y2="131.252" stroke="white" stroke-linecap="round" />
                <line x2="65.4661" y1="131.252" x1="71.9858" stroke-width="0.576" y2="131.252" stroke="white" stroke-linecap="round" />
            </g>
        </g>
        <g >
            <title >element:PC2</title>
            <g >
                <title >package:PANASONIC_D</title>
                <line x2="79.1136" y1="102.125" x1="79.1136" stroke-width="0.576" y2="108.644" stroke="white" stroke-linecap="round" />
                <line x2="65.5075" y1="108.644" x1="79.1136" stroke-width="0.576" y2="108.644" stroke="white" stroke-linecap="round" />
                <line x2="60.6887" y1="108.644" x1="65.5075" stroke-width="0.576" y2="103.825" stroke="white" stroke-linecap="round" />
                <line x2="60.6887" y1="103.825" x1="60.6887" stroke-width="0.576" y2="102.125" stroke="white" stroke-linecap="round" />
                <line x2="60.6887" y1="96.7392" x1="60.6887" stroke-width="0.576" y2="95.0386" stroke="white" stroke-linecap="round" />
                <line x2="65.5075" y1="95.0386" x1="60.6887" stroke-width="0.576" y2="90.2196" stroke="white" stroke-linecap="round" />
                <line x2="79.1136" y1="90.2196" x1="65.5075" stroke-width="0.576" y2="90.2196" stroke="white" stroke-linecap="round" />
                <line x2="79.1136" y1="90.2196" x1="79.1136" stroke-width="0.576" y2="96.7392" stroke="white" stroke-linecap="round" />
            </g>
        </g>
        <g >
            <title >element:POWER</title>
            <g >
                <title >package:1X08_OVAL</title>
            </g>
        </g>
        <g >
            <title >element:RESET</title>
            <g >
                <title >package:EVQ-Q2</title>
                <line x2="17.3469" y1="19.6639" x1="36.0556" stroke-width="0.576" y2="19.6639" stroke="white" stroke-linecap="round" />
                <line x2="36.0556" y1="2.65607" x1="17.3469" stroke-width="0.576" y2="2.65607" stroke="white" stroke-linecap="round" />
                <line x2="36.0556" y1="7.75843" x1="36.0556" stroke-width="0.576" y2="14.5616" stroke="white" stroke-linecap="round" />
                <line x2="17.3469" y1="14.5616" x1="17.3469" stroke-width="0.576" y2="7.75843" stroke="white" stroke-linecap="round" />
                <circle r="4.26132" stroke-width="0.576" cx="26.7012" stroke="white" fill="none" cy="11.16" />
                <circle r="2.83465" stroke-width="0.576" cx="26.7012" stroke="white" fill="none" cy="11.16" />
            </g>
        </g>
        <g >
            <title >element:U$11</title>
            <g >
                <title >package:METROSILK_TOP</title>
            </g>
        </g>
        <g >
            <title >element:U$14</title>
            <g >
                <title >package:METROSILK_BOT</title>
            </g>
        </g>
        <g >
            <title >element:U1</title>
            <g >
                <title >package:SOT223-R</title>
                <line x2="40.1028" y1="108.424" x1="50.3076" stroke-width="0.576" y2="108.424" stroke="white" stroke-linecap="round" />
                <line x2="40.1028" y1="89.4319" x1="50.3076" stroke-width="0.576" y2="89.4319" stroke="white" stroke-linecap="round" />
                <line x2="40.1028" y1="108.424" x1="40.1028" stroke-width="0.576" y2="89.4319" stroke="white" stroke-linecap="round" />
                <line x2="50.3076" y1="108.22" x1="50.3076" stroke-width="0.576" y2="96.876" stroke="white" stroke-linecap="round" />
                <line x2="50.3076" y1="96.66" x1="50.3076" stroke-width="0.576" y2="89.6357" stroke="white" stroke-linecap="round" />
            </g>
        </g>
        <g >
            <title >element:X1</title>
            <g >
                <title >package:DCJACK_2MM_SMT</title>
                <path stroke-width="0.36" stroke="white" fill="none"  d="M2.83465,116.412A2.83465,2.83465,0,0,0,0,119.246"/>
                <line x2="0" y1="119.246" x1="0" stroke-width="0.36" y2="139.09" stroke="white" stroke-linecap="round" />
                <path stroke-width="0.36" stroke="white" fill="none"  d="M0,139.09A2.83465,2.83465,0,0,0,2.83465,141.924"/>
                <line x2="43.2397" y1="141.924" x1="43.2397" stroke-width="0.36" y2="133.397" stroke="white" stroke-linecap="round" />
                <line x2="39.685" y1="133.397" x1="43.2397" stroke-width="0.36" y2="133.397" stroke="white" stroke-linecap="round" />
                <line x2="39.685" y1="133.397" x1="39.685" stroke-width="0.36" y2="116.412" stroke="white" stroke-linecap="round" />
                <line x2="2.83465" y1="116.412" x1="9.44503" stroke-width="0.36" y2="116.412" stroke="white" stroke-linecap="round" />
                <line x2="18.6746" y1="116.412" x1="27.445" stroke-width="0.36" y2="116.412" stroke="white" stroke-linecap="round" />
                <line x2="36.6746" y1="116.412" x1="39.685" stroke-width="0.36" y2="116.412" stroke="white" stroke-linecap="round" />
                <line x2="9.39967" y1="141.924" x1="2.83465" stroke-width="0.36" y2="141.924" stroke="white" stroke-linecap="round" />
                <line x2="27.3997" y1="141.924" x1="18.6746" stroke-width="0.36" y2="141.924" stroke="white" stroke-linecap="round" />
                <line x2="43.2397" y1="141.924" x1="36.6746" stroke-width="0.36" y2="141.924" stroke="white" stroke-linecap="round" />
            </g>
        </g>
        <g >
            <title >element:X3</title>
            <g >
                <title >package:4UCONN_20329</title>
                <line x2="24.0593" y1="36.1134" x1="24.0593" stroke-width="0.36" y2="38.3811" stroke="white" stroke-linecap="round" />
                <line x2="24.0593" y1="48.0189" x1="24.0593" stroke-width="0.36" y2="50.2866" stroke="white" stroke-linecap="round" />
                <line x2="8.75225" y1="32.4284" x1="11.3034" stroke-width="0.36" y2="32.4284" stroke="white" stroke-linecap="round" />
                <line x2="8.75225" y1="32.4284" x1="8.75225" stroke-width="0.36" y2="53.9716" stroke="white" stroke-linecap="round" />
                <line x2="11.3034" y1="53.9716" x1="8.75225" stroke-width="0.36" y2="53.9716" stroke="white" stroke-linecap="round" />
            </g>
        </g>
        <g >
            <title >element:ZU4</title>
            <g >
                <title >package:TQFP32-08</title>
                <line x2="147.319" y1="85.9709" x1="161.37" stroke-width="0.432" y2="71.9202" stroke="white" stroke-linecap="round" />
                <line x2="161.37" y1="71.9202" x1="147.319" stroke-width="0.432" y2="57.8694" stroke="white" stroke-linecap="round" />
                <line x2="174.709" y1="57.8694" x1="161.37" stroke-width="0.432" y2="71.2086" stroke="white" stroke-linecap="round" />
                <line x2="161.37" y1="72.6314" x1="174.709" stroke-width="0.432" y2="85.9709" stroke="white" stroke-linecap="round" />
                <line x2="174.709" y1="72.6314" x1="174.709" stroke-width="0.432" y2="71.2086" stroke="white" stroke-linecap="round" />
                <circle r="1.0182" stroke-width="0.432" cx="172.367" stroke="white" fill="none" cy="71.9202" />
            </g>
        </g>
        <line x2="8.7012" y1="145.44" x1="0.288" stroke-width="0.576" y2="145.44" stroke="white" fill="none" fill-opacity="1" />
        <line x2="8.7012" y1="116.412" x1="0.288" stroke-width="0.576" y2="116.412" stroke="white" fill="none" fill-opacity="1" />
        <line x2="0.288" y1="145.44" x1="0.288" stroke-width="0.576" y2="116.412" stroke="white" fill="none" fill-opacity="1" />
        <line x2="8.7012" y1="57.515" x1="7.05146" stroke-width="0.576" y2="57.515" stroke="white" fill="none" fill-opacity="1" />
        <line x2="8.7012" y1="28.885" x1="7.05146" stroke-width="0.576" y2="28.885" stroke="white" fill="none" fill-opacity="1" />
        <line x2="7.05146" y1="57.515" x1="7.05146" stroke-width="0.576" y2="28.885" stroke="white" fill="none" fill-opacity="1" />
    </g>
    <g gorn="0.2" id="copper1" >
        <g gorn="0.2.0" id="copper0" >
            <circle gorn="0.2.0.0" r="1.77732" stroke-width="0.72" cx="159.901" stroke="#F7BD13" id="connector1pad" fill="none" cy="144"  connectorname="AD1"/>
            <path stroke-width="0" stroke="none" fill="#F7BD13"  d="m158.124,139.912,3.55465,0,0,8.17567,-3.55465,0,0,-8.17567M158.124,144a1.77732,1.77732,0,1,0,3.55465,0,1.77732,1.77732,0,1,0,-3.55465,0z"/>
            <circle gorn="0.2.0.2" r="1.77732" stroke-width="0.72" cx="167.101" stroke="#F7BD13" id="connector2pad" fill="none" cy="144"  connectorname="AD2"/>
            <path stroke-width="0" stroke="none" fill="#F7BD13"  d="m165.324,139.912,3.55465,0,0,8.17567,-3.55465,0,0,-8.17567M165.324,144a1.77732,1.77732,0,1,0,3.55465,0,1.77732,1.77732,0,1,0,-3.55465,0z"/>
            <circle gorn="0.2.0.4" r="1.77732" stroke-width="0.72" cx="174.301" stroke="#F7BD13" id="connector3pad" fill="none" cy="144"  connectorname="AD3"/>
            <path stroke-width="0" stroke="none" fill="#F7BD13"  d="m172.524,139.912,3.55465,0,0,8.17567,-3.55465,0,0,-8.17567M172.524,144a1.77732,1.77732,0,1,0,3.55465,0,1.77732,1.77732,0,1,0,-3.55465,0z"/>
            <circle gorn="0.2.0.6" r="1.77732" stroke-width="0.72" cx="181.501" stroke="#F7BD13" id="connector4pad" fill="none" cy="144"  connectorname="AD4/SDA"/>
            <path stroke-width="0" stroke="none" fill="#F7BD13"  d="m179.724,139.912,3.55465,0,0,8.17567,-3.55465,0,0,-8.17567M179.724,144a1.77732,1.77732,0,1,0,3.55465,0,1.77732,1.77732,0,1,0,-3.55465,0z"/>
            <circle gorn="0.2.0.8" r="1.77732" stroke-width="0.72" cx="188.701" stroke="#F7BD13" id="connector5pad" fill="none" cy="144"  connectorname="AD5/SCL"/>
            <path stroke-width="0" stroke="none" fill="#F7BD13"  d="m186.924,139.912,3.55465,0,0,8.17567,-3.55465,0,0,-8.17567M186.924,144a1.77732,1.77732,0,1,0,3.55465,0,1.77732,1.77732,0,1,0,-3.55465,0z"/>
            <circle gorn="0.2.0.10" r="1.96866" stroke-width="1.10268" cx="188.701" stroke="#F7BD13" id="connector45pad" fill="none" cy="64.8"  connectorname="MISO"/>
            <circle gorn="0.2.0.11" r="1.96866" stroke-width="1.10268" cx="195.901" stroke="#F7BD13" id="connector46pad" fill="none" cy="64.8"  connectorname="VCCIO"/>
            <circle gorn="0.2.0.12" r="1.96866" stroke-width="1.10268" cx="188.701" stroke="#F7BD13" id="connector47pad" fill="none" cy="72"  connectorname="SCK"/>
            <circle gorn="0.2.0.13" r="1.96866" stroke-width="1.10268" cx="195.901" stroke="#F7BD13" id="connector48pad" fill="none" cy="72"  connectorname="MOSI"/>
            <circle gorn="0.2.0.14" r="1.96866" stroke-width="1.10268" cx="188.701" stroke="#F7BD13" id="connector49pad" fill="none" cy="79.2"  connectorname="RESET"/>
            <circle gorn="0.2.0.15" r="1.96866" stroke-width="1.10268" cx="195.901" stroke="#F7BD13" id="connector50pad" fill="none" cy="79.2"  connectorname="GND"/>
            <circle gorn="0.2.0.16" r="1.77732" stroke-width="0.72" cx="61.9812" stroke="#F7BD13" id="connector51pad" fill="none" cy="7.2"  connectorname="AD5/SCL"/>
            <path stroke-width="0" stroke="none" fill="#F7BD13"  d="m60.2039,3.11216,3.55465,0,0,8.17567,-3.55465,0,0,-8.17567M60.2039,7.2a1.77732,1.77732,0,1,0,3.55465,0,1.77732,1.77732,0,1,0,-3.55465,0z"/>
            <circle gorn="0.2.0.18" r="1.77732" stroke-width="0.72" cx="69.1812" stroke="#F7BD13" id="connector52pad" fill="none" cy="7.2"  connectorname="AD4/SDA"/>
            <path stroke-width="0" stroke="none" fill="#F7BD13"  d="m67.4039,3.11216,3.55465,0,0,8.17567,-3.55465,0,0,-8.17567M67.4039,7.2a1.77732,1.77732,0,1,0,3.55465,0,1.77732,1.77732,0,1,0,-3.55465,0z"/>
            <circle gorn="0.2.0.20" r="1.77732" stroke-width="0.72" cx="76.3812" stroke="#F7BD13" id="connector53pad" fill="none" cy="7.2"  connectorname="AREF"/>
            <path stroke-width="0" stroke="none" fill="#F7BD13"  d="m74.6042,3.11216,3.55465,0,0,8.17567,-3.55465,0,0,-8.17567M74.6042,7.2a1.77732,1.77732,0,1,0,3.55465,0,1.77732,1.77732,0,1,0,-3.55465,0z"/>
            <circle gorn="0.2.0.22" r="1.77732" stroke-width="0.72" cx="83.5812" stroke="#F7BD13" id="connector54pad" fill="none" cy="7.2"  connectorname="GND"/>
            <path stroke-width="0" stroke="none" fill="#F7BD13"  d="m81.8042,3.11216,3.55465,0,0,8.17567,-3.55465,0,0,-8.17567M81.8042,7.2a1.77732,1.77732,0,1,0,3.55465,0,1.77732,1.77732,0,1,0,-3.55465,0z"/>
            <circle gorn="0.2.0.24" r="1.77732" stroke-width="0.72" cx="90.7812" stroke="#F7BD13" id="connector55pad" fill="none" cy="7.2"  connectorname="SCK"/>
            <path stroke-width="0" stroke="none" fill="#F7BD13"  d="m89.0042,3.11216,3.55465,0,0,8.17567,-3.55465,0,0,-8.17567M89.0042,7.2a1.77732,1.77732,0,1,0,3.55465,0,1.77732,1.77732,0,1,0,-3.55465,0z"/>
            <circle gorn="0.2.0.26" r="1.77732" stroke-width="0.72" cx="97.9812" stroke="#F7BD13" id="connector56pad" fill="none" cy="7.2"  connectorname="MISO"/>
            <path stroke-width="0" stroke="none" fill="#F7BD13"  d="m96.2042,3.11216,3.55465,0,0,8.17567,-3.55465,0,0,-8.17567M96.2042,7.2a1.77732,1.77732,0,1,0,3.55465,0,1.77732,1.77732,0,1,0,-3.55465,0z"/>
            <circle gorn="0.2.0.28" r="1.77732" stroke-width="0.72" cx="105.181" stroke="#F7BD13" id="connector57pad" fill="none" cy="7.2"  connectorname="MOSI"/>
            <path stroke-width="0" stroke="none" fill="#F7BD13"  d="m103.404,3.11216,3.55465,0,0,8.17567,-3.55465,0,0,-8.17567M103.404,7.2a1.77732,1.77732,0,1,0,3.55465,0,1.77732,1.77732,0,1,0,-3.55465,0z"/>
            <circle gorn="0.2.0.30" r="1.77732" stroke-width="0.72" cx="112.381" stroke="#F7BD13" id="connector58pad" fill="none" cy="7.2"  connectorname="SS"/>
            <path stroke-width="0" stroke="none" fill="#F7BD13"  d="m110.604,3.11216,3.55465,0,0,8.17567,-3.55465,0,0,-8.17567M110.604,7.2a1.77732,1.77732,0,1,0,3.55465,0,1.77732,1.77732,0,1,0,-3.55465,0z"/>
            <circle gorn="0.2.0.32" r="1.77732" stroke-width="0.72" cx="119.581" stroke="#F7BD13" id="connector59pad" fill="none" cy="7.2"  connectorname="IO9"/>
            <path stroke-width="0" stroke="none" fill="#F7BD13"  d="m117.804,3.11216,3.55465,0,0,8.17567,-3.55465,0,0,-8.17567M117.804,7.2a1.77732,1.77732,0,1,0,3.55465,0,1.77732,1.77732,0,1,0,-3.55465,0z"/>
            <circle gorn="0.2.0.34" r="1.77732" stroke-width="0.72" cx="126.781" stroke="#F7BD13" id="connector60pad" fill="none" cy="7.2"  connectorname="IO8"/>
            <path stroke-width="0" stroke="none" fill="#F7BD13"  d="m125.004,3.11216,3.55465,0,0,8.17567,-3.55465,0,0,-8.17567M125.004,7.2a1.77732,1.77732,0,1,0,3.55465,0,1.77732,1.77732,0,1,0,-3.55465,0z"/>
            <circle gorn="0.2.0.36" r="1.77732" stroke-width="0.72" cx="138.301" stroke="#F7BD13" id="connector61pad" fill="none" cy="7.2"  connectorname="IO7"/>
            <path stroke-width="0" stroke="none" fill="#F7BD13"  d="m136.524,3.11216,3.55465,0,0,8.17567,-3.55465,0,0,-8.17567M136.524,7.2a1.77732,1.77732,0,1,0,3.55465,0,1.77732,1.77732,0,1,0,-3.55465,0z"/>
            <circle gorn="0.2.0.38" r="1.77732" stroke-width="0.72" cx="145.501" stroke="#F7BD13" id="connector62pad" fill="none" cy="7.2"  connectorname="IO6"/>
            <path stroke-width="0" stroke="none" fill="#F7BD13"  d="m143.724,3.11216,3.55465,0,0,8.17567,-3.55465,0,0,-8.17567M143.724,7.2a1.77732,1.77732,0,1,0,3.55465,0,1.77732,1.77732,0,1,0,-3.55465,0z"/>
            <circle gorn="0.2.0.40" r="1.77732" stroke-width="0.72" cx="152.701" stroke="#F7BD13" id="connector63pad" fill="none" cy="7.2"  connectorname="IO5"/>
            <path stroke-width="0" stroke="none" fill="#F7BD13"  d="m150.924,3.11216,3.55465,0,0,8.17567,-3.55465,0,0,-8.17567M150.924,7.2a1.77732,1.77732,0,1,0,3.55465,0,1.77732,1.77732,0,1,0,-3.55465,0z"/>
            <circle gorn="0.2.0.42" r="1.77732" stroke-width="0.72" cx="159.901" stroke="#F7BD13" id="connector64pad" fill="none" cy="7.2"  connectorname="IO4"/>
            <path stroke-width="0" stroke="none" fill="#F7BD13"  d="m158.124,3.11216,3.55465,0,0,8.17567,-3.55465,0,0,-8.17567M158.124,7.2a1.77732,1.77732,0,1,0,3.55465,0,1.77732,1.77732,0,1,0,-3.55465,0z"/>
            <circle gorn="0.2.0.44" r="1.77732" stroke-width="0.72" cx="167.101" stroke="#F7BD13" id="connector65pad" fill="none" cy="7.2"  connectorname="IO3"/>
            <path stroke-width="0" stroke="none" fill="#F7BD13"  d="m165.324,3.11216,3.55465,0,0,8.17567,-3.55465,0,0,-8.17567M165.324,7.2a1.77732,1.77732,0,1,0,3.55465,0,1.77732,1.77732,0,1,0,-3.55465,0z"/>
            <circle gorn="0.2.0.46" r="1.77732" stroke-width="0.72" cx="174.301" stroke="#F7BD13" id="connector66pad" fill="none" cy="7.2"  connectorname="IO2"/>
            <path stroke-width="0" stroke="none" fill="#F7BD13"  d="m172.524,3.11216,3.55465,0,0,8.17567,-3.55465,0,0,-8.17567M172.524,7.2a1.77732,1.77732,0,1,0,3.55465,0,1.77732,1.77732,0,1,0,-3.55465,0z"/>
            <circle gorn="0.2.0.48" r="1.77732" stroke-width="0.72" cx="181.501" stroke="#F7BD13" id="connector67pad" fill="none" cy="7.2"  connectorname="IO1"/>
            <path stroke-width="0" stroke="none" fill="#F7BD13"  d="m179.724,3.11216,3.55465,0,0,8.17567,-3.55465,0,0,-8.17567M179.724,7.2a1.77732,1.77732,0,1,0,3.55465,0,1.77732,1.77732,0,1,0,-3.55465,0z"/>
            <circle gorn="0.2.0.50" r="1.77732" stroke-width="0.72" cx="188.701" stroke="#F7BD13" id="connector68pad" fill="none" cy="7.2"  connectorname="IO0"/>
            <path stroke-width="0" stroke="none" fill="#F7BD13"  d="m186.924,3.11216,3.55465,0,0,8.17567,-3.55465,0,0,-8.17567M186.924,7.2a1.77732,1.77732,0,1,0,3.55465,0,1.77732,1.77732,0,1,0,-3.55465,0z"/>
            <circle gorn="0.2.0.52" r="1.77732" stroke-width="0.72" cx="95.1012" stroke="#F7BD13" id="connector85pad" fill="none" cy="144"  connectorname="+5V"/>
            <path stroke-width="0" stroke="none" fill="#F7BD13"  d="m93.3242,139.912,3.55465,0,0,8.17567,-3.55465,0,0,-8.17567M93.3242,144a1.77732,1.77732,0,1,0,3.55465,0,1.77732,1.77732,0,1,0,-3.55465,0z"/>
            <circle gorn="0.2.0.54" r="1.77732" stroke-width="0.72" cx="102.301" stroke="#F7BD13" id="connector86pad" fill="none" cy="144"  connectorname="RESET"/>
            <path stroke-width="0" stroke="none" fill="#F7BD13"  d="m100.524,139.912,3.55465,0,0,8.17567,-3.55465,0,0,-8.17567M100.524,144a1.77732,1.77732,0,1,0,3.55465,0,1.77732,1.77732,0,1,0,-3.55465,0z"/>
            <circle gorn="0.2.0.56" r="1.77732" stroke-width="0.72" cx="109.501" stroke="#F7BD13" id="connector87pad" fill="none" cy="144"  connectorname="3.3V"/>
            <path stroke-width="0" stroke="none" fill="#F7BD13"  d="m107.724,139.912,3.55465,0,0,8.17567,-3.55465,0,0,-8.17567M107.724,144a1.77732,1.77732,0,1,0,3.55465,0,1.77732,1.77732,0,1,0,-3.55465,0z"/>
            <circle gorn="0.2.0.58" r="1.77732" stroke-width="0.72" cx="116.701" stroke="#F7BD13" id="connector88pad" fill="none" cy="144"  connectorname="+5V"/>
            <path stroke-width="0" stroke="none" fill="#F7BD13"  d="m114.924,139.912,3.55465,0,0,8.17567,-3.55465,0,0,-8.17567M114.924,144a1.77732,1.77732,0,1,0,3.55465,0,1.77732,1.77732,0,1,0,-3.55465,0z"/>
            <circle gorn="0.2.0.60" r="1.77732" stroke-width="0.72" cx="123.901" stroke="#F7BD13" id="connector89pad" fill="none" cy="144"  connectorname="GND"/>
            <path stroke-width="0" stroke="none" fill="#F7BD13"  d="m122.124,139.912,3.55465,0,0,8.17567,-3.55465,0,0,-8.17567M122.124,144a1.77732,1.77732,0,1,0,3.55465,0,1.77732,1.77732,0,1,0,-3.55465,0z"/>
            <circle gorn="0.2.0.62" r="1.77732" stroke-width="0.72" cx="131.101" stroke="#F7BD13" id="connector90pad" fill="none" cy="144"  connectorname="GND"/>
            <path stroke-width="0" stroke="none" fill="#F7BD13"  d="m129.324,139.912,3.55465,0,0,8.17567,-3.55465,0,0,-8.17567M129.324,144a1.77732,1.77732,0,1,0,3.55465,0,1.77732,1.77732,0,1,0,-3.55465,0z"/>
            <circle gorn="0.2.0.64" r="1.77732" stroke-width="0.72" cx="138.301" stroke="#F7BD13" id="connector91pad" fill="none" cy="144"  connectorname="VIN"/>
            <path stroke-width="0" stroke="none" fill="#F7BD13"  d="m136.524,139.912,3.55465,0,0,8.17567,-3.55465,0,0,-8.17567M136.524,144a1.77732,1.77732,0,1,0,3.55465,0,1.77732,1.77732,0,1,0,-3.55465,0z"/>
            <circle gorn="0.2.0.66" r="1.77732" stroke-width="0.72" cx="152.701" stroke="#F7BD13" id="connector0pad" fill="none" cy="144"  connectorname="AD0"/>
            <path stroke-width="0" stroke="none" fill="#F7BD13"  d="m150.924,139.912,3.55465,0,0,8.17567,-3.55465,0,0,-8.17567M150.924,144a1.77732,1.77732,0,1,0,3.55465,0,1.77732,1.77732,0,1,0,-3.55465,0z"/>
        </g>
    </g>
</svg>
