<?xml version='1.0' encoding='UTF-8' standalone='no'?>
<!-- Created with Fritzing (http://www.fritzing.org/) -->
<svg xmlns="http://www.w3.org/2000/svg" viewBox="0 0 50.04 50.76" width="0.695in"  baseProfile="tiny" height="0.705in" x="0in" y="0in" version="1.2">
    <desc>
        <referenceFile>Adafruit SGP30_pcb.svg</referenceFile>
    </desc>
    <desc >Fritzing footprint generated by brd2svg</desc>
    <g  id="silkscreen" gorn="0.1">
        <path stroke="white"  stroke-width="0.576" d="M0.288,43.3537L0.288,7.40628A6.912,6.912,0,0,1,7.40513,0.288L42.6349,0.288A6.912,6.912,0,0,1,49.752,7.40628L49.752,43.3537A6.912,6.912,0,0,1,42.6349,50.472L7.40513,50.472A6.912,6.912,0,0,1,0.288,43.3537" fill="none"/>
        <g >
            <title >element:JP2</title>
            <g >
                <title >package:1X05_ROUND</title>
            </g>
        </g>
    </g>
    <g  id="copper1" gorn="0.2">
        <g  id="copper0" gorn="0.2.0">
            <circle stroke="#F7BD13"  cx="10.8" stroke-width="0.95868" id="connector13pad" connectorname="VIN" gorn="0.2.0.0" cy="43.56" fill="none" r="1.89666"/>
            <circle stroke="#F7BD13"  cx="42.84" stroke-width="1.44" id="connector40pad" connectorname="P$1" gorn="0.2.0.1" cy="7.56" fill="none" r="4.26331"/>
            <circle stroke="#F7BD13"  cx="18" stroke-width="0.95868" id="connector14pad" connectorname="V+" gorn="0.2.0.2" cy="43.56" fill="none" r="1.89666"/>
            <circle stroke="#F7BD13"  cx="25.2" stroke-width="0.95868" id="connector15pad" connectorname="GND" gorn="0.2.0.3" cy="43.56" fill="none" r="1.89666"/>
            <circle stroke="#F7BD13"  cx="32.4" stroke-width="0.95868" id="connector16pad" connectorname="SCL" gorn="0.2.0.4" cy="43.56" fill="none" r="1.89666"/>
            <circle stroke="#F7BD13"  cx="39.6" stroke-width="0.95868" id="connector17pad" connectorname="SDA" gorn="0.2.0.5" cy="43.56" fill="none" r="1.89666"/>
            <circle stroke="#F7BD13"  cx="7.2" stroke-width="1.44" id="connector39pad" connectorname="P$1" gorn="0.2.0.6" cy="7.56" fill="none" r="4.26331"/>
        </g>
    </g>
</svg>
