<?xml version='1.0' encoding='UTF-8' standalone='no'?>
<!-- Created with Fritzing (http://www.fritzing.org/) -->
<svg xmlns="http://www.w3.org/2000/svg" version="1.2" height="1.5011in" width="0.8in" viewBox="0 0 57.6 108.079"  x="0in" y="0in" baseProfile="tiny">
    <desc >
        <referenceFile >FadeCandy USB NeoPixel Driver_pcb.svg</referenceFile>
    </desc>
    <desc >Fritzing footprint generated by brd2svg</desc>
    <g  id="silkscreen" gorn="0.2">
        <path fill="none" stroke-width="0.576" d="M0.288,3.94776A3.312,3.312,0,0,1,3.852,0.366947L53.748,0.366947A3.312,3.312,0,0,1,57.312,3.94776L57.312,104.211A3.312,3.312,0,0,1,53.748,107.791L3.852,107.791A3.312,3.312,0,0,1,0.288,104.211L0.288,3.94776M33.9069,15.874a1.12932,1.12932,0,1,0,2.25865,0,1.12932,1.12932,0,1,0,-2.25865,0zM21.4345,15.874a1.12932,1.12932,0,1,0,2.25865,0,1.12932,1.12932,0,1,0,-2.25865,0z"  stroke="white"/>
        <g >
            <title >element:J1</title>
            <g >
                <title >package:USB-MINIB</title>
                <line y2="26.0788" x1="39.8551" x2="17.7449" stroke-width="0.36"  stroke-linecap="round" stroke="white" y1="26.0788"/>
                <line y2="0" x1="39.8551" x2="17.7449" stroke-width="0.36"  stroke-linecap="round" stroke="white" y1="0"/>
                <line y2="18.9922" x1="39.8551" x2="39.8551" stroke-width="0.36"  stroke-linecap="round" stroke="white" y1="11.3386"/>
                <line y2="11.3386" x1="17.7449" x2="17.7449" stroke-width="0.36"  stroke-linecap="round" stroke="white" y1="18.9922"/>
                <line y2="26.0788" x1="37.8708" x2="34.7527" stroke-width="0.36"  stroke-linecap="round" stroke="white" y1="26.0788"/>
                <line y2="26.0788" x1="22.8473" x2="19.7292" stroke-width="0.36"  stroke-linecap="round" stroke="white" y1="26.0788"/>
            </g>
        </g>
        <g >
            <title >element:J2</title>
            <g >
                <title >package:2X08</title>
                <line y2="108.079" x1="0" x2="1.8" stroke-width="0.432"  stroke-linecap="round" stroke="white" y1="106.279"/>
                <line y2="106.279" x1="5.4" x2="7.2" stroke-width="0.432"  stroke-linecap="round" stroke="white" y1="108.079"/>
                <line y2="108.079" x1="7.2" x2="9" stroke-width="0.432"  stroke-linecap="round" stroke="white" y1="106.279"/>
                <line y2="106.279" x1="12.6" x2="14.4" stroke-width="0.432"  stroke-linecap="round" stroke="white" y1="108.079"/>
                <line y2="108.079" x1="14.4" x2="16.2" stroke-width="0.432"  stroke-linecap="round" stroke="white" y1="106.279"/>
                <line y2="106.279" x1="19.8" x2="21.6" stroke-width="0.432"  stroke-linecap="round" stroke="white" y1="108.079"/>
                <line y2="108.079" x1="21.6" x2="23.4" stroke-width="0.432"  stroke-linecap="round" stroke="white" y1="106.279"/>
                <line y2="106.279" x1="27" x2="28.8" stroke-width="0.432"  stroke-linecap="round" stroke="white" y1="108.079"/>
                <line y2="108.079" x1="28.8" x2="30.6" stroke-width="0.432"  stroke-linecap="round" stroke="white" y1="106.279"/>
                <line y2="106.279" x1="34.2" x2="36" stroke-width="0.432"  stroke-linecap="round" stroke="white" y1="108.079"/>
                <line y2="108.079" x1="36" x2="37.8" stroke-width="0.432"  stroke-linecap="round" stroke="white" y1="106.279"/>
                <line y2="106.279" x1="41.4" x2="43.2" stroke-width="0.432"  stroke-linecap="round" stroke="white" y1="108.079"/>
                <line y2="95.4792" x1="0" x2="0" stroke-width="0.432"  stroke-linecap="round" stroke="white" y1="106.279"/>
                <line y2="93.6792" x1="0" x2="1.8" stroke-width="0.432"  stroke-linecap="round" stroke="white" y1="95.4792"/>
                <line y2="93.6792" x1="1.8" x2="5.4" stroke-width="0.432"  stroke-linecap="round" stroke="white" y1="93.6792"/>
                <line y2="95.4792" x1="5.4" x2="7.2" stroke-width="0.432"  stroke-linecap="round" stroke="white" y1="93.6792"/>
                <line y2="93.6792" x1="7.2" x2="9" stroke-width="0.432"  stroke-linecap="round" stroke="white" y1="95.4792"/>
                <line y2="93.6792" x1="9" x2="12.6" stroke-width="0.432"  stroke-linecap="round" stroke="white" y1="93.6792"/>
                <line y2="95.4792" x1="12.6" x2="14.4" stroke-width="0.432"  stroke-linecap="round" stroke="white" y1="93.6792"/>
                <line y2="93.6792" x1="14.4" x2="16.2" stroke-width="0.432"  stroke-linecap="round" stroke="white" y1="95.4792"/>
                <line y2="93.6792" x1="16.2" x2="19.8" stroke-width="0.432"  stroke-linecap="round" stroke="white" y1="93.6792"/>
                <line y2="95.4792" x1="19.8" x2="21.6" stroke-width="0.432"  stroke-linecap="round" stroke="white" y1="93.6792"/>
                <line y2="93.6792" x1="21.6" x2="23.4" stroke-width="0.432"  stroke-linecap="round" stroke="white" y1="95.4792"/>
                <line y2="93.6792" x1="23.4" x2="27" stroke-width="0.432"  stroke-linecap="round" stroke="white" y1="93.6792"/>
                <line y2="95.4792" x1="27" x2="28.8" stroke-width="0.432"  stroke-linecap="round" stroke="white" y1="93.6792"/>
                <line y2="93.6792" x1="28.8" x2="30.6" stroke-width="0.432"  stroke-linecap="round" stroke="white" y1="95.4792"/>
                <line y2="93.6792" x1="30.6" x2="34.2" stroke-width="0.432"  stroke-linecap="round" stroke="white" y1="93.6792"/>
                <line y2="95.4792" x1="34.2" x2="36" stroke-width="0.432"  stroke-linecap="round" stroke="white" y1="93.6792"/>
                <line y2="93.6792" x1="36" x2="37.8" stroke-width="0.432"  stroke-linecap="round" stroke="white" y1="95.4792"/>
                <line y2="93.6792" x1="37.8" x2="41.4" stroke-width="0.432"  stroke-linecap="round" stroke="white" y1="93.6792"/>
                <line y2="95.4792" x1="41.4" x2="43.2" stroke-width="0.432"  stroke-linecap="round" stroke="white" y1="93.6792"/>
                <line y2="93.6792" x1="43.2" x2="45" stroke-width="0.432"  stroke-linecap="round" stroke="white" y1="95.4792"/>
                <line y2="93.6792" x1="45" x2="48.6" stroke-width="0.432"  stroke-linecap="round" stroke="white" y1="93.6792"/>
                <line y2="95.4792" x1="48.6" x2="50.4" stroke-width="0.432"  stroke-linecap="round" stroke="white" y1="93.6792"/>
                <line y2="108.079" x1="50.4" x2="48.6" stroke-width="0.432"  stroke-linecap="round" stroke="white" y1="106.279"/>
                <line y2="108.079" x1="43.2" x2="45" stroke-width="0.432"  stroke-linecap="round" stroke="white" y1="106.279"/>
                <line y2="106.279" x1="7.2" x2="7.2" stroke-width="0.432"  stroke-linecap="round" stroke="white" y1="95.4792"/>
                <line y2="106.279" x1="14.4" x2="14.4" stroke-width="0.432"  stroke-linecap="round" stroke="white" y1="95.4792"/>
                <line y2="106.279" x1="21.6" x2="21.6" stroke-width="0.432"  stroke-linecap="round" stroke="white" y1="95.4792"/>
                <line y2="106.279" x1="28.8" x2="28.8" stroke-width="0.432"  stroke-linecap="round" stroke="white" y1="95.4792"/>
                <line y2="106.279" x1="36" x2="36" stroke-width="0.432"  stroke-linecap="round" stroke="white" y1="95.4792"/>
                <line y2="106.279" x1="43.2" x2="43.2" stroke-width="0.432"  stroke-linecap="round" stroke="white" y1="95.4792"/>
                <line y2="106.279" x1="50.4" x2="50.4" stroke-width="0.432"  stroke-linecap="round" stroke="white" y1="95.4792"/>
                <line y2="108.079" x1="45" x2="48.6" stroke-width="0.432"  stroke-linecap="round" stroke="white" y1="108.079"/>
                <line y2="108.079" x1="37.8" x2="41.4" stroke-width="0.432"  stroke-linecap="round" stroke="white" y1="108.079"/>
                <line y2="108.079" x1="30.6" x2="34.2" stroke-width="0.432"  stroke-linecap="round" stroke="white" y1="108.079"/>
                <line y2="108.079" x1="23.4" x2="27" stroke-width="0.432"  stroke-linecap="round" stroke="white" y1="108.079"/>
                <line y2="108.079" x1="16.2" x2="19.8" stroke-width="0.432"  stroke-linecap="round" stroke="white" y1="108.079"/>
                <line y2="108.079" x1="9" x2="12.6" stroke-width="0.432"  stroke-linecap="round" stroke="white" y1="108.079"/>
                <line y2="108.079" x1="1.8" x2="5.4" stroke-width="0.432"  stroke-linecap="round" stroke="white" y1="108.079"/>
                <line y2="93.6792" x1="50.4" x2="52.2" stroke-width="0.432"  stroke-linecap="round" stroke="white" y1="95.4792"/>
                <line y2="93.6792" x1="52.2" x2="55.8" stroke-width="0.432"  stroke-linecap="round" stroke="white" y1="93.6792"/>
                <line y2="95.4792" x1="55.8" x2="57.6" stroke-width="0.432"  stroke-linecap="round" stroke="white" y1="93.6792"/>
                <line y2="108.079" x1="57.6" x2="55.8" stroke-width="0.432"  stroke-linecap="round" stroke="white" y1="106.279"/>
                <line y2="108.079" x1="50.4" x2="52.2" stroke-width="0.432"  stroke-linecap="round" stroke="white" y1="106.279"/>
                <line y2="106.279" x1="57.6" x2="57.6" stroke-width="0.432"  stroke-linecap="round" stroke="white" y1="95.4792"/>
                <line y2="108.079" x1="52.2" x2="55.8" stroke-width="0.432"  stroke-linecap="round" stroke="white" y1="108.079"/>
            </g>
        </g>
        <g >
            <title >element:U$2</title>
            <g >
                <title >package:ADAFRUIT_TEXT_20MM</title>
            </g>
        </g>
        <g >
            <title >element:U1</title>
            <g >
                <title >package:LQFP48</title>
                <line y2="65.8063" x1="26.8469" x2="26.0674" stroke-width="0.72"  stroke-linecap="round" stroke="white" y1="65.0268"/>
                <line y2="65.8063" x1="26.0674" x2="8.49262" stroke-width="0.72"  stroke-linecap="round" stroke="white" y1="65.8063"/>
                <line y2="65.0268" x1="8.49262" x2="7.71307" stroke-width="0.72"  stroke-linecap="round" stroke="white" y1="65.8063"/>
                <line y2="47.452" x1="7.71307" x2="7.71307" stroke-width="0.72"  stroke-linecap="round" stroke="white" y1="65.0268"/>
                <line y2="46.6724" x1="7.71307" x2="8.49262" stroke-width="0.72"  stroke-linecap="round" stroke="white" y1="47.452"/>
                <line y2="46.6724" x1="8.49262" x2="26.0674" stroke-width="0.72"  stroke-linecap="round" stroke="white" y1="46.6724"/>
                <line y2="47.452" x1="26.0674" x2="26.8469" stroke-width="0.72"  stroke-linecap="round" stroke="white" y1="46.6724"/>
                <line y2="65.0268" x1="26.8469" x2="26.8469" stroke-width="0.72"  stroke-linecap="round" stroke="white" y1="47.452"/>
                <circle cx="22.9493" cy="50.5701" fill="none" stroke-width="0.72" r="1.70078"  stroke="white"/>
            </g>
        </g>
        <g >
            <title >element:U3</title>
            <g >
                <title >package:TSSOP20</title>
                <line y2="64.4899" x1="38.8891" x2="38.8891" stroke-width="0.432"  stroke-linecap="round" stroke="white" y1="46.5489"/>
                <line y2="64.4899" x1="51.8309" x2="38.8891" stroke-width="0.432"  stroke-linecap="round" stroke="white" y1="64.4899"/>
                <line y2="46.5489" x1="51.8309" x2="51.8309" stroke-width="0.432"  stroke-linecap="round" stroke="white" y1="64.4899"/>
                <line y2="46.5489" x1="38.8891" x2="51.8309" stroke-width="0.432"  stroke-linecap="round" stroke="white" y1="46.5489"/>
                <line y2="63.8419" x1="39.5371" x2="39.5371" stroke-width="0.144"  stroke-linecap="round" stroke="white" y1="47.1969"/>
                <line y2="63.8419" x1="51.1829" x2="39.5371" stroke-width="0.144"  stroke-linecap="round" stroke="white" y1="63.8419"/>
                <line y2="47.1969" x1="51.1829" x2="51.1829" stroke-width="0.144"  stroke-linecap="round" stroke="white" y1="63.8419"/>
                <line y2="47.1969" x1="39.5371" x2="51.1829" stroke-width="0.144"  stroke-linecap="round" stroke="white" y1="47.1969"/>
                <circle cx="41.904" cy="49.0689" fill="none" stroke-width="0.432" r="1.296"  stroke="white"/>
            </g>
        </g>
        <line y2="0.288" x1="14.485" fill="none" x2="43.2" stroke-width="0.576" fill-opacity="1"  stroke="white" y1="0.288"/>
        <line y2="0.288" x1="14.485" fill="none" x2="14.485" stroke-width="0.576" fill-opacity="1"  stroke="white" y1="0.0793699"/>
        <line y2="0.288" x1="43.2" fill="none" x2="43.2" stroke-width="0.576" fill-opacity="1"  stroke="white" y1="0.0793699"/>
    </g>
    <g  id="copper1" gorn="0.3">
        <g  id="copper0" gorn="0.3.0">
            <circle cx="3.6" cy="104.479" fill="none" connectorname="GND" stroke-width="1.08" r="1.98"  id="connector45pad" gorn="0.3.0.0" stroke="#F7BD13"/>
            <circle cx="3.6" cy="97.2792" fill="none" connectorname="2" stroke-width="1.08" r="1.98"  id="connector46pad" gorn="0.3.0.1" stroke="#F7BD13"/>
            <circle cx="10.8" cy="104.479" fill="none" connectorname="GND" stroke-width="1.08" r="1.98"  id="connector47pad" gorn="0.3.0.2" stroke="#F7BD13"/>
            <circle cx="10.8" cy="97.2792" fill="none" connectorname="4" stroke-width="1.08" r="1.98"  id="connector48pad" gorn="0.3.0.3" stroke="#F7BD13"/>
            <circle cx="18" cy="104.479" fill="none" connectorname="GND" stroke-width="1.08" r="1.98"  id="connector49pad" gorn="0.3.0.4" stroke="#F7BD13"/>
            <circle cx="18" cy="97.2792" fill="none" connectorname="N$36" stroke-width="1.08" r="1.98"  id="connector50pad" gorn="0.3.0.5" stroke="#F7BD13"/>
            <circle cx="25.2" cy="104.479" fill="none" connectorname="GND" stroke-width="1.08" r="1.98"  id="connector51pad" gorn="0.3.0.6" stroke="#F7BD13"/>
            <circle cx="25.2" cy="97.2792" fill="none" connectorname="8" stroke-width="1.08" r="1.98"  id="connector52pad" gorn="0.3.0.7" stroke="#F7BD13"/>
            <circle cx="32.4" cy="104.479" fill="none" connectorname="GND" stroke-width="1.08" r="1.98"  id="connector53pad" gorn="0.3.0.8" stroke="#F7BD13"/>
            <circle cx="32.4" cy="97.2792" fill="none" connectorname="10" stroke-width="1.08" r="1.98"  id="connector54pad" gorn="0.3.0.9" stroke="#F7BD13"/>
            <circle cx="39.6" cy="104.479" fill="none" connectorname="GND" stroke-width="1.08" r="1.98"  id="connector55pad" gorn="0.3.0.10" stroke="#F7BD13"/>
            <circle cx="39.6" cy="97.2792" fill="none" connectorname="12" stroke-width="1.08" r="1.98"  id="connector56pad" gorn="0.3.0.11" stroke="#F7BD13"/>
            <circle cx="46.8" cy="104.479" fill="none" connectorname="GND" stroke-width="1.08" r="1.98"  id="connector57pad" gorn="0.3.0.12" stroke="#F7BD13"/>
            <circle cx="46.8" cy="97.2792" fill="none" connectorname="14" stroke-width="1.08" r="1.98"  id="connector58pad" gorn="0.3.0.13" stroke="#F7BD13"/>
            <circle cx="54" cy="104.479" fill="none" connectorname="GND" stroke-width="1.08" r="1.98"  id="connector59pad" gorn="0.3.0.14" stroke="#F7BD13"/>
            <circle cx="54" cy="97.2792" fill="none" connectorname="16" stroke-width="1.08" r="1.98"  id="connector60pad" gorn="0.3.0.15" stroke="#F7BD13"/>
            <circle cx="3.6" cy="3.67937" fill="none" connectorname="GND" stroke-width="1.08" r="1.98"  id="connector61pad" gorn="0.3.0.16" stroke="#F7BD13"/>
            <circle cx="54" cy="3.67937" fill="none" connectorname="GND" stroke-width="1.08" r="1.98"  id="connector62pad" gorn="0.3.0.17" stroke="#F7BD13"/>
        </g>
    </g>
</svg>
