<?xml version='1.0' encoding='UTF-8' standalone='no'?>
<!-- Created with Fritzing (http://www.fritzing.org/) -->
<svg xmlns="http://www.w3.org/2000/svg" height="0.8in" viewBox="0 0 57.6 57.6" y="0in" baseProfile="tiny"  x="0in" width="0.8in" version="1.2">
    <desc >
        <referenceFile >Adafruit TCS34725 RGB Color Sensor_pcb.svg</referenceFile>
    </desc>
    <desc >Fritzing footprint generated by brd2svg</desc>
    <g id="silkscreen"  gorn="0.2">
        <path stroke="white"  d="M7.416,57.312A6.912,6.912,0,0,1,0.288,50.184L0.288,7.416A6.912,6.912,0,0,1,7.416,0.288L50.184,0.288A6.912,6.912,0,0,1,57.312,7.416L57.312,50.184A6.912,6.912,0,0,1,50.184,57.312L7.416,57.312" fill="none" stroke-width="0.576"/>
        <g >
            <title >element:JP1</title>
            <g >
                <title >package:1X07_ROUND_70</title>
            </g>
        </g>
        <g >
            <title >element:U$18</title>
            <g >
                <title >package:ADAFRUIT_5MM</title>
            </g>
        </g>
    </g>
    <g id="copper1"  gorn="0.3">
        <g id="copper0"  gorn="0.3.0">
            <circle stroke="#F7BD13" id="connector8pad" cy="53.28"  r="1.96866" connectorname="VIN" gorn="0.3.0.0" fill="none" stroke-width="1.10268" cx="50.4"/>
            <circle stroke="#F7BD13" id="connector9pad" cy="53.28"  r="1.96866" connectorname="GND" gorn="0.3.0.1" fill="none" stroke-width="1.10268" cx="43.2"/>
            <circle stroke="#F7BD13" id="connector39pad" cy="7.2"  r="4.26331" connectorname="P$1" gorn="0.3.0.2" fill="none" stroke-width="1.44" cx="50.4"/>
            <circle stroke="#F7BD13" id="connector10pad" cy="53.28"  r="1.96866" connectorname="+3V3" gorn="0.3.0.3" fill="none" stroke-width="1.10268" cx="36"/>
            <circle stroke="#F7BD13" id="connector11pad" cy="53.28"  r="1.96866" connectorname="SCL_5V" gorn="0.3.0.4" fill="none" stroke-width="1.10268" cx="28.8"/>
            <circle stroke="#F7BD13" id="connector12pad" cy="53.28"  r="1.96866" connectorname="SDA_5V" gorn="0.3.0.5" fill="none" stroke-width="1.10268" cx="21.6"/>
            <circle stroke="#F7BD13" id="connector13pad" cy="53.28"  r="1.96866" connectorname="INT" gorn="0.3.0.6" fill="none" stroke-width="1.10268" cx="14.4"/>
            <circle stroke="#F7BD13" id="connector14pad" cy="53.28"  r="1.96866" connectorname="LED_EN" gorn="0.3.0.7" fill="none" stroke-width="1.10268" cx="7.2"/>
            <circle stroke="#F7BD13" id="connector38pad" cy="7.2"  r="4.26331" connectorname="P$1" gorn="0.3.0.8" fill="none" stroke-width="1.44" cx="7.2"/>
        </g>
    </g>
</svg>
