<?xml version='1.0' encoding='UTF-8' standalone='no'?>
<!-- Created with Fritzing (http://www.fritzing.org/) -->
<svg xmlns="http://www.w3.org/2000/svg" width="1.088in" x="0in" y="0in" baseProfile="tiny" viewBox="0 0 78.336 175.967" version="1.2" height="2.44398in" >
    <desc >
        <referenceFile >VS1053_pcb.svg</referenceFile>
    </desc>
    <desc >Fritzing footprint generated by brd2svg</desc>
    <g gorn="0.2"  id="silkscreen">
        <path d="M56.0351,163.337A5.472,5.472,0,0,1,50.3174,157.596L23.1586,157.596A5.472,5.472,0,0,1,17.4409,163.337L7.43508,163.337A6.912,6.912,0,0,1,0.288,156.161L0.288,7.46446A6.912,6.912,0,0,1,7.43508,0.288L70.9009,0.288A6.912,6.912,0,0,1,78.048,7.46446L78.048,156.161A6.912,6.912,0,0,1,70.9009,163.337L56.0351,163.337" stroke="white" stroke-width="0.576"  fill="none"/>
        <line y1="136.225" y2="138.385" x1="59.76" stroke="white" stroke-width="0.72"  x2="59.76" stroke-linecap="round"/>
        <line y1="138.385" y2="138.385" x1="59.76" stroke="white" stroke-width="0.72"  x2="74.88" stroke-linecap="round"/>
        <line y1="138.385" y2="136.225" x1="74.88" stroke="white" stroke-width="0.72"  x2="74.88" stroke-linecap="round"/>
        <g >
            <title >element:C1</title>
            <g >
                <title >package:PANASONIC_C</title>
                <line y1="10.0545" y2="10.0545" x1="55.2529" stroke="white" stroke-width="0.288"  x2="59.9301" stroke-linecap="round"/>
                <line y1="10.0545" y2="20.9678" x1="59.9301" stroke="white" stroke-width="0.288"  x2="59.9301" stroke-linecap="round"/>
                <line y1="20.9678" y2="24.7946" x1="59.9301" stroke="white" stroke-width="0.288"  x2="56.1033" stroke-linecap="round"/>
                <line y1="24.7946" y2="24.7946" x1="56.1033" stroke="white" stroke-width="0.288"  x2="55.2529" stroke-linecap="round"/>
                <line y1="24.7946" y2="24.7946" x1="49.8671" stroke="white" stroke-width="0.288"  x2="49.0167" stroke-linecap="round"/>
                <line y1="24.7946" y2="20.9678" x1="49.0167" stroke="white" stroke-width="0.288"  x2="45.1899" stroke-linecap="round"/>
                <line y1="20.9678" y2="10.0545" x1="45.1899" stroke="white" stroke-width="0.288"  x2="45.1899" stroke-linecap="round"/>
                <line y1="10.0545" y2="10.0545" x1="45.1899" stroke="white" stroke-width="0.288"  x2="49.8671" stroke-linecap="round"/>
                <path d="M54.9695,23.9442A6.95066,6.95066,0,0,0,54.9695,10.9049" stroke="white" stroke-width="0.288"  fill="none"/>
                <path d="M50.1505,10.9049A6.95066,6.95066,0,0,0,50.1505,23.9442" stroke="white" stroke-width="0.288"  fill="none"/>
            </g>
        </g>
        <g >
            <title >element:C2</title>
            <g >
                <title >package:PANASONIC_C</title>
                <line y1="10.0545" y2="10.0545" x1="38.6929" stroke="white" stroke-width="0.288"  x2="43.3701" stroke-linecap="round"/>
                <line y1="10.0545" y2="20.9678" x1="43.3701" stroke="white" stroke-width="0.288"  x2="43.3701" stroke-linecap="round"/>
                <line y1="20.9678" y2="24.7946" x1="43.3701" stroke="white" stroke-width="0.288"  x2="39.5433" stroke-linecap="round"/>
                <line y1="24.7946" y2="24.7946" x1="39.5433" stroke="white" stroke-width="0.288"  x2="38.6929" stroke-linecap="round"/>
                <line y1="24.7946" y2="24.7946" x1="33.3071" stroke="white" stroke-width="0.288"  x2="32.4567" stroke-linecap="round"/>
                <line y1="24.7946" y2="20.9678" x1="32.4567" stroke="white" stroke-width="0.288"  x2="28.6299" stroke-linecap="round"/>
                <line y1="20.9678" y2="10.0545" x1="28.6299" stroke="white" stroke-width="0.288"  x2="28.6299" stroke-linecap="round"/>
                <line y1="10.0545" y2="10.0545" x1="28.6299" stroke="white" stroke-width="0.288"  x2="33.3071" stroke-linecap="round"/>
                <path d="M38.4095,23.9442A6.95066,6.95066,0,0,0,38.4095,10.9049" stroke="white" stroke-width="0.288"  fill="none"/>
                <path d="M33.5905,10.9049A6.95066,6.95066,0,0,0,33.5905,23.9442" stroke="white" stroke-width="0.288"  fill="none"/>
            </g>
        </g>
        <g >
            <title >element:CN1</title>
            <g >
                <title >package:MICROSD</title>
                <line y1="117.941" y2="117.941" x1="20.4322" stroke="white" stroke-width="0.36"  x2="18.5896" stroke-linecap="round"/>
                <line y1="117.941" y2="119.359" x1="18.5896" stroke="white" stroke-width="0.36"  x2="18.5896" stroke-linecap="round"/>
                <line y1="119.359" y2="119.359" x1="18.5896" stroke="white" stroke-width="0.36"  x2="17.8809" stroke-linecap="round"/>
                <line y1="119.359" y2="153.233" x1="17.8809" stroke="white" stroke-width="0.36"  x2="17.8809" stroke-linecap="round"/>
                <line y1="117.941" y2="117.941" x1="26.9518" stroke="white" stroke-width="0.36"  x2="37.44" stroke-linecap="round"/>
                <line y1="117.941" y2="117.941" x1="43.818" stroke="white" stroke-width="0.36"  x2="58.1329" stroke-linecap="round"/>
                <line y1="117.941" y2="155.784" x1="58.1329" stroke="white" stroke-width="0.36"  x2="58.1329" stroke-linecap="round"/>
            </g>
        </g>
        <g >
            <title >element:JP2</title>
            <g >
                <title >package:1X16_ROUND</title>
            </g>
        </g>
        <g >
            <title >element:JP3</title>
            <g >
                <title >package:1X16_ROUND</title>
            </g>
        </g>
        <g >
            <title >element:U$55</title>
            <g >
                <title >package:ADAFRUIT_TEXT_20MM</title>
            </g>
        </g>
        <g >
            <title >element:U1</title>
            <g >
                <title >package:LQFP48</title>
                <line y1="57.3789" y2="57.3789" x1="31.0961" stroke="white" stroke-width="0.576"  x2="48.1039" stroke-linecap="round"/>
                <line y1="56.5285" y2="39.5207" x1="48.9543" stroke="white" stroke-width="0.576"  x2="48.9543" stroke-linecap="round"/>
                <line y1="38.6703" y2="38.6703" x1="48.1039" stroke="white" stroke-width="0.576"  x2="31.0961" stroke-linecap="round"/>
                <line y1="38.6703" y2="39.5207" x1="31.0961" stroke="white" stroke-width="0.576"  x2="30.2457" stroke-linecap="round"/>
                <line y1="39.5207" y2="56.5285" x1="30.2457" stroke="white" stroke-width="0.576"  x2="30.2457" stroke-linecap="round"/>
                <line y1="56.5285" y2="57.3789" x1="30.2457" stroke="white" stroke-width="0.576"  x2="31.0961" stroke-linecap="round"/>
                <line y1="57.3789" y2="56.5285" x1="48.1039" stroke="white" stroke-width="0.576"  x2="48.9543" stroke-linecap="round"/>
                <line y1="39.5207" y2="38.6703" x1="48.9543" stroke="white" stroke-width="0.576"  x2="48.1039" stroke-linecap="round"/>
                <circle cx="27.411" cy="37.525" r="0.425197" stroke="white" stroke-width="1.152"  fill="none"/>
            </g>
        </g>
        <g >
            <title >element:U3</title>
            <g >
                <title >package:SOIC16</title>
                <line y1="107.05" y2="96.2784" x1="52.1172" stroke="white" stroke-width="0.576"  x2="52.1172" stroke-linecap="round"/>
                <line y1="107.05" y2="96.2784" x1="23.7708" stroke="white" stroke-width="0.576"  x2="23.7708" stroke-linecap="round"/>
                <circle cx="50.688" cy="99.1447" r="0.72" stroke="white" stroke-width="0.576"  fill="none"/>
            </g>
        </g>
        <g >
            <title >element:Y1</title>
            <g >
                <title >package:CRYSTAL_3.2X2.5</title>
                <line y1="69.2068" y2="69.2068" x1="30.439" stroke="white" stroke-width="0.576"  x2="42.061" stroke-linecap="round"/>
                <line y1="78.5614" y2="78.5614" x1="30.439" stroke="white" stroke-width="0.576"  x2="42.061" stroke-linecap="round"/>
                <line y1="69.2068" y2="78.5614" x1="30.439" stroke="white" stroke-width="0.576"  x2="30.439" stroke-linecap="round"/>
                <line y1="69.2068" y2="78.5614" x1="42.061" stroke="white" stroke-width="0.576"  x2="42.061" stroke-linecap="round"/>
            </g>
        </g>
        <line y1="175.679" y2="175.679" x1="17.8809" stroke="white" stroke-width="0.576"  fill="none" x2="58.1329" fill-opacity="1"/>
        <line y1="175.679" y2="163.585" x1="17.8809" stroke="white" stroke-width="0.576"  fill="none" x2="17.8809" fill-opacity="1"/>
        <line y1="175.679" y2="163.585" x1="58.1329" stroke="white" stroke-width="0.576"  fill="none" x2="58.1329" fill-opacity="1"/>
    </g>
    <g gorn="0.3"  id="copper1">
        <g gorn="0.3.0"  id="copper0">
            <circle connectorname="P$1" cx="68.76" gorn="0.3.0.0" cy="152.785" r="4.97197" stroke="#F7BD13" stroke-width="1.44"  fill="none" id="connector122pad"/>
            <circle connectorname="P$1" cx="8.28" gorn="0.3.0.1" cy="9.86458" r="4.97197" stroke="#F7BD13" stroke-width="1.44"  fill="none" id="connector124pad"/>
            <circle connectorname="R_OUT" cx="72" gorn="0.3.0.2" cy="23.1846" r="1.89666" stroke="#F7BD13" stroke-width="0.95868"  fill="none" id="connector51pad"/>
            <circle connectorname="L_OUT" cx="72" gorn="0.3.0.3" cy="30.3846" r="1.89666" stroke="#F7BD13" stroke-width="0.95868"  fill="none" id="connector52pad"/>
            <circle connectorname="AGND" cx="72" gorn="0.3.0.4" cy="37.5846" r="1.89666" stroke="#F7BD13" stroke-width="0.95868"  fill="none" id="connector53pad"/>
            <circle connectorname="AGND" cx="72" gorn="0.3.0.5" cy="44.7846" r="1.89666" stroke="#F7BD13" stroke-width="0.95868"  fill="none" id="connector54pad"/>
            <circle connectorname="GND" cx="72" gorn="0.3.0.6" cy="51.9846" r="1.89666" stroke="#F7BD13" stroke-width="0.95868"  fill="none" id="connector55pad"/>
            <circle connectorname="DREQ" cx="72" gorn="0.3.0.7" cy="59.1846" r="1.89666" stroke="#F7BD13" stroke-width="0.95868"  fill="none" id="connector56pad"/>
            <circle connectorname="VIN" cx="72" gorn="0.3.0.8" cy="66.3846" r="1.89666" stroke="#F7BD13" stroke-width="0.95868"  fill="none" id="connector57pad"/>
            <circle connectorname="3.3V" cx="72" gorn="0.3.0.9" cy="73.5847" r="1.89666" stroke="#F7BD13" stroke-width="0.95868"  fill="none" id="connector58pad"/>
            <circle connectorname="GND" cx="72" gorn="0.3.0.10" cy="80.7847" r="1.89666" stroke="#F7BD13" stroke-width="0.95868"  fill="none" id="connector59pad"/>
            <circle connectorname="MISO" cx="72" gorn="0.3.0.11" cy="87.9847" r="1.89666" stroke="#F7BD13" stroke-width="0.95868"  fill="none" id="connector60pad"/>
            <circle connectorname="MOSI_5V" cx="72" gorn="0.3.0.12" cy="95.1847" r="1.89666" stroke="#F7BD13" stroke-width="0.95868"  fill="none" id="connector61pad"/>
            <circle connectorname="SCLK_5V" cx="72" gorn="0.3.0.13" cy="102.385" r="1.89666" stroke="#F7BD13" stroke-width="0.95868"  fill="none" id="connector62pad"/>
            <circle connectorname="P$1" cx="8.28" gorn="0.3.0.14" cy="152.785" r="4.97197" stroke="#F7BD13" stroke-width="1.44"  fill="none" id="connector121pad"/>
            <circle connectorname="RST_5V" cx="72" gorn="0.3.0.15" cy="109.585" r="1.89666" stroke="#F7BD13" stroke-width="0.95868"  fill="none" id="connector63pad"/>
            <circle connectorname="P$1" cx="68.76" gorn="0.3.0.16" cy="9.86458" r="4.97197" stroke="#F7BD13" stroke-width="1.44"  fill="none" id="connector123pad"/>
            <circle connectorname="CS_5V" cx="72" gorn="0.3.0.17" cy="116.785" r="1.89666" stroke="#F7BD13" stroke-width="0.95868"  fill="none" id="connector64pad"/>
            <circle connectorname="SDCS_5V" cx="72" gorn="0.3.0.18" cy="123.985" r="1.89666" stroke="#F7BD13" stroke-width="0.95868"  fill="none" id="connector65pad"/>
            <circle connectorname="XDCS_5V" cx="72" gorn="0.3.0.19" cy="131.185" r="1.89666" stroke="#F7BD13" stroke-width="0.95868"  fill="none" id="connector66pad"/>
            <circle connectorname="LINE2" cx="7.2" gorn="0.3.0.20" cy="23.1846" r="1.89666" stroke="#F7BD13" stroke-width="0.95868"  fill="none" id="connector67pad"/>
            <circle connectorname="MIC_P" cx="7.2" gorn="0.3.0.21" cy="30.3846" r="1.89666" stroke="#F7BD13" stroke-width="0.95868"  fill="none" id="connector68pad"/>
            <circle connectorname="MIC_N" cx="7.2" gorn="0.3.0.22" cy="37.5846" r="1.89666" stroke="#F7BD13" stroke-width="0.95868"  fill="none" id="connector69pad"/>
            <circle connectorname="AGND" cx="7.2" gorn="0.3.0.23" cy="44.7846" r="1.89666" stroke="#F7BD13" stroke-width="0.95868"  fill="none" id="connector70pad"/>
            <circle connectorname="3.3V" cx="7.2" gorn="0.3.0.24" cy="51.9846" r="1.89666" stroke="#F7BD13" stroke-width="0.95868"  fill="none" id="connector71pad"/>
            <circle connectorname="GPIO0" cx="7.2" gorn="0.3.0.25" cy="59.1846" r="1.89666" stroke="#F7BD13" stroke-width="0.95868"  fill="none" id="connector72pad"/>
            <circle connectorname="GPIO1" cx="7.2" gorn="0.3.0.26" cy="66.3846" r="1.89666" stroke="#F7BD13" stroke-width="0.95868"  fill="none" id="connector73pad"/>
            <circle connectorname="GPIO2" cx="7.2" gorn="0.3.0.27" cy="73.5847" r="1.89666" stroke="#F7BD13" stroke-width="0.95868"  fill="none" id="connector74pad"/>
            <circle connectorname="GPIO3" cx="7.2" gorn="0.3.0.28" cy="80.7847" r="1.89666" stroke="#F7BD13" stroke-width="0.95868"  fill="none" id="connector75pad"/>
            <circle connectorname="GPIO4" cx="7.2" gorn="0.3.0.29" cy="87.9847" r="1.89666" stroke="#F7BD13" stroke-width="0.95868"  fill="none" id="connector76pad"/>
            <circle connectorname="GPIO5" cx="7.2" gorn="0.3.0.30" cy="95.1847" r="1.89666" stroke="#F7BD13" stroke-width="0.95868"  fill="none" id="connector77pad"/>
            <circle connectorname="GPIO6" cx="7.2" gorn="0.3.0.31" cy="102.385" r="1.89666" stroke="#F7BD13" stroke-width="0.95868"  fill="none" id="connector78pad"/>
            <circle connectorname="GPIO7" cx="7.2" gorn="0.3.0.32" cy="109.585" r="1.89666" stroke="#F7BD13" stroke-width="0.95868"  fill="none" id="connector79pad"/>
            <circle connectorname="TX" cx="7.2" gorn="0.3.0.33" cy="116.785" r="1.89666" stroke="#F7BD13" stroke-width="0.95868"  fill="none" id="connector80pad"/>
            <circle connectorname="RX_5V" cx="7.2" gorn="0.3.0.34" cy="123.985" r="1.89666" stroke="#F7BD13" stroke-width="0.95868"  fill="none" id="connector81pad"/>
            <circle connectorname="SD_DETECT" cx="7.2" gorn="0.3.0.35" cy="131.185" r="1.89666" stroke="#F7BD13" stroke-width="0.95868"  fill="none" id="connector82pad"/>
        </g>
    </g>
</svg>
