<?xml version='1.0' encoding='UTF-8' standalone='no'?>
<!-- Created with Fritzing (http://www.fritzing.org/) -->
<svg xmlns="http://www.w3.org/2000/svg" x="0in" version="1.2" y="0in" width="1.7in" height="1.4in" viewBox="0 0 122.4 100.8" baseProfile="tiny" >
    <desc>
        <referenceFile>Adafruit 1.27 inch 16-bit Color OLED w microSD holder_pcb.svg</referenceFile>
    </desc>
    <desc >Fritzing footprint generated by brd2svg</desc>
    <g  gorn="0.1" id="silkscreen">
        <path fill="none" stroke="white" stroke-width="0.576"  d="M111.363,86.1941L114.946,86.1941A6.912,6.912,0,0,1,122.112,93.353A6.912,6.912,0,0,1,114.946,100.512L7.45409,100.512A6.912,6.912,0,0,1,0.288,93.353A6.912,6.912,0,0,1,7.45409,86.1941L11.0372,86.1941L11.0372,14.6057L7.45409,14.6057A6.912,6.912,0,0,1,0.288,7.44689A6.912,6.912,0,0,1,7.45409,0.288L114.946,0.288A6.912,6.912,0,0,1,122.112,7.44689A6.912,6.912,0,0,1,114.946,14.6057L111.363,14.6057L111.363,86.1941"/>
        <line y1="15.48" y2="18.7342" x1="109.44" stroke="white" stroke-width="0.72" x2="109.44"  stroke-linecap="round"/>
        <line y1="21.5688" y2="24.823" x1="109.44" stroke="white" stroke-width="0.72" x2="109.44"  stroke-linecap="round"/>
        <line y1="27.6576" y2="30.9118" x1="109.44" stroke="white" stroke-width="0.72" x2="109.44"  stroke-linecap="round"/>
        <line y1="33.7465" y2="37.0007" x1="109.44" stroke="white" stroke-width="0.72" x2="109.44"  stroke-linecap="round"/>
        <line y1="39.8353" y2="43.0895" x1="109.44" stroke="white" stroke-width="0.72" x2="109.44"  stroke-linecap="round"/>
        <line y1="45.9241" y2="49.1782" x1="109.44" stroke="white" stroke-width="0.72" x2="109.44"  stroke-linecap="round"/>
        <line y1="52.0129" y2="55.2671" x1="109.44" stroke="white" stroke-width="0.72" x2="109.44"  stroke-linecap="round"/>
        <line y1="58.1018" y2="61.3559" x1="109.44" stroke="white" stroke-width="0.72" x2="109.44"  stroke-linecap="round"/>
        <line y1="64.1905" y2="67.4447" x1="109.44" stroke="white" stroke-width="0.72" x2="109.44"  stroke-linecap="round"/>
        <line y1="70.2793" y2="73.5336" x1="109.44" stroke="white" stroke-width="0.72" x2="109.44"  stroke-linecap="round"/>
        <line y1="76.3682" y2="79.6226" x1="109.44" stroke="white" stroke-width="0.72" x2="109.44"  stroke-linecap="round"/>
        <line y1="82.4573" y2="85.711" x1="109.44" stroke="white" stroke-width="0.72" x2="109.44"  stroke-linecap="round"/>
        <line y1="88.5456" y2="91.8" x1="109.44" stroke="white" stroke-width="0.72" x2="109.44"  stroke-linecap="round"/>
        <line y1="91.8" y2="91.8" x1="109.44" stroke="white" stroke-width="0.72" x2="106.433"  stroke-linecap="round"/>
        <line y1="91.8" y2="91.8" x1="103.598" stroke="white" stroke-width="0.72" x2="100.59"  stroke-linecap="round"/>
        <line y1="91.8" y2="91.8" x1="97.7558" stroke="white" stroke-width="0.72" x2="94.7484"  stroke-linecap="round"/>
        <line y1="91.8" y2="91.8" x1="91.9138" stroke="white" stroke-width="0.72" x2="88.9063"  stroke-linecap="round"/>
        <line y1="91.8" y2="91.8" x1="86.0717" stroke="white" stroke-width="0.72" x2="83.0642"  stroke-linecap="round"/>
        <line y1="91.8" y2="91.8" x1="80.2296" stroke="white" stroke-width="0.72" x2="77.2222"  stroke-linecap="round"/>
        <line y1="91.8" y2="91.8" x1="74.3875" stroke="white" stroke-width="0.72" x2="71.3804"  stroke-linecap="round"/>
        <line y1="91.8" y2="91.8" x1="68.5457" stroke="white" stroke-width="0.72" x2="65.5384"  stroke-linecap="round"/>
        <line y1="91.8" y2="91.8" x1="62.7037" stroke="white" stroke-width="0.72" x2="59.6963"  stroke-linecap="round"/>
        <line y1="91.8" y2="91.8" x1="56.8616" stroke="white" stroke-width="0.72" x2="53.8543"  stroke-linecap="round"/>
        <line y1="91.8" y2="91.8" x1="51.0196" stroke="white" stroke-width="0.72" x2="48.0122"  stroke-linecap="round"/>
        <line y1="91.8" y2="91.8" x1="45.1776" stroke="white" stroke-width="0.72" x2="42.1702"  stroke-linecap="round"/>
        <line y1="91.8" y2="91.8" x1="39.3355" stroke="white" stroke-width="0.72" x2="36.3282"  stroke-linecap="round"/>
        <line y1="91.8" y2="91.8" x1="33.4935" stroke="white" stroke-width="0.72" x2="30.4861"  stroke-linecap="round"/>
        <line y1="91.8" y2="91.8" x1="27.6515" stroke="white" stroke-width="0.72" x2="24.6441"  stroke-linecap="round"/>
        <line y1="91.8" y2="91.8" x1="21.8094" stroke="white" stroke-width="0.72" x2="18.802"  stroke-linecap="round"/>
        <line y1="91.8" y2="91.8" x1="15.9674" stroke="white" stroke-width="0.72" x2="12.96"  stroke-linecap="round"/>
        <line y1="91.8" y2="88.5456" x1="12.96" stroke="white" stroke-width="0.72" x2="12.96"  stroke-linecap="round"/>
        <line y1="85.711" y2="82.4573" x1="12.96" stroke="white" stroke-width="0.72" x2="12.96"  stroke-linecap="round"/>
        <line y1="79.6226" y2="76.3682" x1="12.96" stroke="white" stroke-width="0.72" x2="12.96"  stroke-linecap="round"/>
        <line y1="73.5336" y2="70.2793" x1="12.96" stroke="white" stroke-width="0.72" x2="12.96"  stroke-linecap="round"/>
        <line y1="67.4447" y2="64.1905" x1="12.96" stroke="white" stroke-width="0.72" x2="12.96"  stroke-linecap="round"/>
        <line y1="61.3559" y2="58.1018" x1="12.96" stroke="white" stroke-width="0.72" x2="12.96"  stroke-linecap="round"/>
        <line y1="55.2671" y2="52.0129" x1="12.96" stroke="white" stroke-width="0.72" x2="12.96"  stroke-linecap="round"/>
        <line y1="49.1782" y2="45.9241" x1="12.96" stroke="white" stroke-width="0.72" x2="12.96"  stroke-linecap="round"/>
        <line y1="43.0895" y2="39.8353" x1="12.96" stroke="white" stroke-width="0.72" x2="12.96"  stroke-linecap="round"/>
        <line y1="37.0007" y2="33.7465" x1="12.96" stroke="white" stroke-width="0.72" x2="12.96"  stroke-linecap="round"/>
        <line y1="30.9118" y2="27.6576" x1="12.96" stroke="white" stroke-width="0.72" x2="12.96"  stroke-linecap="round"/>
        <line y1="24.823" y2="21.5688" x1="12.96" stroke="white" stroke-width="0.72" x2="12.96"  stroke-linecap="round"/>
        <line y1="18.7342" y2="15.48" x1="12.96" stroke="white" stroke-width="0.72" x2="12.96"  stroke-linecap="round"/>
        <line y1="15.48" y2="15.48" x1="12.96" stroke="white" stroke-width="0.72" x2="15.9674"  stroke-linecap="round"/>
        <line y1="15.48" y2="15.48" x1="18.802" stroke="white" stroke-width="0.72" x2="21.8094"  stroke-linecap="round"/>
        <line y1="15.48" y2="15.48" x1="24.6441" stroke="white" stroke-width="0.72" x2="27.6515"  stroke-linecap="round"/>
        <line y1="15.48" y2="15.48" x1="30.4861" stroke="white" stroke-width="0.72" x2="33.4935"  stroke-linecap="round"/>
        <line y1="15.48" y2="15.48" x1="36.3282" stroke="white" stroke-width="0.72" x2="39.3355"  stroke-linecap="round"/>
        <line y1="15.48" y2="15.48" x1="42.1702" stroke="white" stroke-width="0.72" x2="45.1776"  stroke-linecap="round"/>
        <line y1="15.48" y2="15.48" x1="48.0122" stroke="white" stroke-width="0.72" x2="51.0196"  stroke-linecap="round"/>
        <line y1="15.48" y2="15.48" x1="53.8543" stroke="white" stroke-width="0.72" x2="56.8616"  stroke-linecap="round"/>
        <line y1="15.48" y2="15.48" x1="59.6963" stroke="white" stroke-width="0.72" x2="62.7037"  stroke-linecap="round"/>
        <line y1="15.48" y2="15.48" x1="65.5384" stroke="white" stroke-width="0.72" x2="68.5457"  stroke-linecap="round"/>
        <line y1="15.48" y2="15.48" x1="71.3804" stroke="white" stroke-width="0.72" x2="74.3875"  stroke-linecap="round"/>
        <line y1="15.48" y2="15.48" x1="77.2222" stroke="white" stroke-width="0.72" x2="80.2296"  stroke-linecap="round"/>
        <line y1="15.48" y2="15.48" x1="83.0642" stroke="white" stroke-width="0.72" x2="86.0717"  stroke-linecap="round"/>
        <line y1="15.48" y2="15.48" x1="88.9063" stroke="white" stroke-width="0.72" x2="91.9138"  stroke-linecap="round"/>
        <line y1="15.48" y2="15.48" x1="94.7484" stroke="white" stroke-width="0.72" x2="97.7558"  stroke-linecap="round"/>
        <line y1="15.48" y2="15.48" x1="100.59" stroke="white" stroke-width="0.72" x2="103.598"  stroke-linecap="round"/>
        <line y1="15.48" y2="15.48" x1="106.433" stroke="white" stroke-width="0.72" x2="109.44"  stroke-linecap="round"/>
        <line y1="23.04" y2="23.0265" x1="99.72" stroke="white" stroke-width="0.72" x2="96.8234"  stroke-linecap="round"/>
        <line y1="23.0134" y2="22.9999" x1="93.9888" stroke="white" stroke-width="0.72" x2="91.0922"  stroke-linecap="round"/>
        <line y1="22.9867" y2="22.9732" x1="88.2576" stroke="white" stroke-width="0.72" x2="85.3618"  stroke-linecap="round"/>
        <line y1="22.96" y2="22.9465" x1="82.5271" stroke="white" stroke-width="0.72" x2="79.6306"  stroke-linecap="round"/>
        <line y1="22.9334" y2="22.9199" x1="76.7959" stroke="white" stroke-width="0.72" x2="73.8994"  stroke-linecap="round"/>
        <line y1="22.9067" y2="22.8933" x1="71.0648" stroke="white" stroke-width="0.72" x2="68.1684"  stroke-linecap="round"/>
        <line y1="22.8801" y2="22.8666" x1="65.3337" stroke="white" stroke-width="0.72" x2="62.4373"  stroke-linecap="round"/>
        <line y1="22.8534" y2="22.8399" x1="59.6027" stroke="white" stroke-width="0.72" x2="56.7063"  stroke-linecap="round"/>
        <line y1="22.8267" y2="22.8133" x1="53.8716" stroke="white" stroke-width="0.72" x2="50.9752"  stroke-linecap="round"/>
        <line y1="22.8001" y2="22.7866" x1="48.1406" stroke="white" stroke-width="0.72" x2="45.2442"  stroke-linecap="round"/>
        <line y1="22.7735" y2="22.76" x1="42.4096" stroke="white" stroke-width="0.72" x2="39.5132"  stroke-linecap="round"/>
        <line y1="22.7468" y2="22.7333" x1="36.6785" stroke="white" stroke-width="0.72" x2="33.7821"  stroke-linecap="round"/>
        <line y1="22.7201" y2="22.7066" x1="30.9475" stroke="white" stroke-width="0.72" x2="28.0511"  stroke-linecap="round"/>
        <line y1="22.6935" y2="22.68" x1="25.2164" stroke="white" stroke-width="0.72" x2="22.32"  stroke-linecap="round"/>
        <line y1="22.68" y2="25.8888" x1="22.32" stroke="white" stroke-width="0.72" x2="22.32"  stroke-linecap="round"/>
        <line y1="28.7235" y2="31.9323" x1="22.32" stroke="white" stroke-width="0.72" x2="22.32"  stroke-linecap="round"/>
        <line y1="34.7669" y2="37.9758" x1="22.32" stroke="white" stroke-width="0.72" x2="22.32"  stroke-linecap="round"/>
        <line y1="40.8104" y2="44.0192" x1="22.32" stroke="white" stroke-width="0.72" x2="22.32"  stroke-linecap="round"/>
        <line y1="46.8539" y2="50.0627" x1="22.32" stroke="white" stroke-width="0.72" x2="22.32"  stroke-linecap="round"/>
        <line y1="52.8973" y2="56.1061" x1="22.32" stroke="white" stroke-width="0.72" x2="22.32"  stroke-linecap="round"/>
        <line y1="58.9408" y2="62.1496" x1="22.32" stroke="white" stroke-width="0.72" x2="22.32"  stroke-linecap="round"/>
        <line y1="64.9842" y2="68.1931" x1="22.32" stroke="white" stroke-width="0.72" x2="22.32"  stroke-linecap="round"/>
        <line y1="71.0277" y2="74.2363" x1="22.32" stroke="white" stroke-width="0.72" x2="22.32"  stroke-linecap="round"/>
        <line y1="77.071" y2="80.28" x1="22.32" stroke="white" stroke-width="0.72" x2="22.32"  stroke-linecap="round"/>
        <line y1="80.28" y2="80.28" x1="22.32" stroke="white" stroke-width="0.72" x2="25.2421"  stroke-linecap="round"/>
        <line y1="80.28" y2="80.28" x1="28.0768" stroke="white" stroke-width="0.72" x2="30.9989"  stroke-linecap="round"/>
        <line y1="80.28" y2="80.28" x1="33.8335" stroke="white" stroke-width="0.72" x2="36.7556"  stroke-linecap="round"/>
        <line y1="80.28" y2="80.28" x1="39.5903" stroke="white" stroke-width="0.72" x2="42.5124"  stroke-linecap="round"/>
        <line y1="80.28" y2="80.28" x1="45.347" stroke="white" stroke-width="0.72" x2="48.2692"  stroke-linecap="round"/>
        <line y1="80.28" y2="80.28" x1="51.1038" stroke="white" stroke-width="0.72" x2="54.0259"  stroke-linecap="round"/>
        <line y1="80.28" y2="80.28" x1="56.8606" stroke="white" stroke-width="0.72" x2="59.7827"  stroke-linecap="round"/>
        <line y1="80.28" y2="80.28" x1="62.6173" stroke="white" stroke-width="0.72" x2="65.5394"  stroke-linecap="round"/>
        <line y1="80.28" y2="80.28" x1="68.3741" stroke="white" stroke-width="0.72" x2="71.2962"  stroke-linecap="round"/>
        <line y1="80.28" y2="80.28" x1="74.1312" stroke="white" stroke-width="0.72" x2="77.053"  stroke-linecap="round"/>
        <line y1="80.28" y2="80.28" x1="79.8876" stroke="white" stroke-width="0.72" x2="82.8094"  stroke-linecap="round"/>
        <line y1="80.28" y2="80.28" x1="85.6447" stroke="white" stroke-width="0.72" x2="88.5665"  stroke-linecap="round"/>
        <line y1="80.28" y2="80.28" x1="91.4011" stroke="white" stroke-width="0.72" x2="94.3236"  stroke-linecap="round"/>
        <line y1="80.28" y2="80.28" x1="97.1582" stroke="white" stroke-width="0.72" x2="100.08"  stroke-linecap="round"/>
        <line y1="80.28" y2="77.107" x1="100.08" stroke="white" stroke-width="0.72" x2="100.06"  stroke-linecap="round"/>
        <line y1="74.2723" y2="71.0996" x1="100.043" stroke="white" stroke-width="0.72" x2="100.022"  stroke-linecap="round"/>
        <line y1="68.2651" y2="65.0922" x1="100.004" stroke="white" stroke-width="0.72" x2="99.9842"  stroke-linecap="round"/>
        <line y1="62.2576" y2="59.0848" x1="99.967" stroke="white" stroke-width="0.72" x2="99.9468"  stroke-linecap="round"/>
        <line y1="56.2501" y2="53.0773" x1="99.9288" stroke="white" stroke-width="0.72" x2="99.9086"  stroke-linecap="round"/>
        <line y1="50.2427" y2="47.0699" x1="99.8914" stroke="white" stroke-width="0.72" x2="99.8712"  stroke-linecap="round"/>
        <line y1="44.2352" y2="41.0624" x1="99.8532" stroke="white" stroke-width="0.72" x2="99.833"  stroke-linecap="round"/>
        <line y1="38.2278" y2="35.0549" x1="99.8158" stroke="white" stroke-width="0.72" x2="99.7956"  stroke-linecap="round"/>
        <line y1="32.2204" y2="29.0475" x1="99.7776" stroke="white" stroke-width="0.72" x2="99.7574"  stroke-linecap="round"/>
        <line y1="26.2129" y2="23.04" x1="99.7402" stroke="white" stroke-width="0.72" x2="99.72"  stroke-linecap="round"/>
        <g >
            <title >element:CN1</title>
            <g >
                <title >package:MICROSD</title>
            </g>
        </g>
        <g >
            <title >element:JP1</title>
            <g >
                <title >package:1X11_ROUND</title>
            </g>
        </g>
        <g >
            <title >element:U1</title>
            <g >
                <title >package:FPC_XF2M-3015-1A</title>
            </g>
        </g>
        <g >
            <title >element:U4</title>
            <g >
                <title >package:SOIC16</title>
            </g>
        </g>
    </g>
    <g  gorn="0.2" id="copper1">
        <g  gorn="0.2.0" id="copper0">
            <circle cx="32.4" connectorname="CLK" fill="none" cy="7.2" stroke="#F7BD13" stroke-width="0.95868"  r="1.89666" gorn="0.2.0.0" id="connector6pad"/>
            <circle cx="7.2" connectorname="P$1" fill="none" cy="7.2" stroke="#F7BD13" stroke-width="1.44"  r="4.26331" gorn="0.2.0.1" id="connector18pad"/>
            <circle cx="90" connectorname="VIN" fill="none" cy="7.2" stroke="#F7BD13" stroke-width="0.95868"  r="1.89666" gorn="0.2.0.2" id="connector14pad"/>
            <circle cx="39.6" connectorname="DC" fill="none" cy="7.2" stroke="#F7BD13" stroke-width="0.95868"  r="1.89666" gorn="0.2.0.3" id="connector7pad"/>
            <circle cx="115.2" connectorname="P$1" fill="none" cy="93.6" stroke="#F7BD13" stroke-width="1.44"  r="4.26331" gorn="0.2.0.4" id="connector16pad"/>
            <circle cx="46.8" connectorname="RESET" fill="none" cy="7.2" stroke="#F7BD13" stroke-width="0.95868"  r="1.89666" gorn="0.2.0.5" id="connector8pad"/>
            <circle cx="82.8" connectorname="3.3V" fill="none" cy="7.2" stroke="#F7BD13" stroke-width="0.95868"  r="1.89666" gorn="0.2.0.6" id="connector13pad"/>
            <circle cx="54" connectorname="OLEDCS" fill="none" cy="7.2" stroke="#F7BD13" stroke-width="0.95868"  r="1.89666" gorn="0.2.0.7" id="connector9pad"/>
            <circle cx="97.2" connectorname="GND" fill="none" cy="7.2" stroke="#F7BD13" stroke-width="0.95868"  r="1.89666" gorn="0.2.0.8" id="connector15pad"/>
            <circle cx="61.2" connectorname="SDCS" fill="none" cy="7.2" stroke="#F7BD13" stroke-width="0.95868"  r="1.89666" gorn="0.2.0.9" id="connector10pad"/>
            <circle cx="7.2" connectorname="P$1" fill="none" cy="93.6" stroke="#F7BD13" stroke-width="1.44"  r="4.26331" gorn="0.2.0.10" id="connector17pad"/>
            <circle cx="68.4" connectorname="MISO" fill="none" cy="7.2" stroke="#F7BD13" stroke-width="0.95868"  r="1.89666" gorn="0.2.0.11" id="connector11pad"/>
            <circle cx="115.2" connectorname="P$1" fill="none" cy="7.2" stroke="#F7BD13" stroke-width="1.44"  r="4.26331" gorn="0.2.0.12" id="connector19pad"/>
            <circle cx="75.6" connectorname="SD_CD" fill="none" cy="7.2" stroke="#F7BD13" stroke-width="0.95868"  r="1.89666" gorn="0.2.0.13" id="connector12pad"/>
            <circle cx="25.2" connectorname="MOSI" fill="none" cy="7.2" stroke="#F7BD13" stroke-width="0.95868"  r="1.89666" gorn="0.2.0.14" id="connector5pad"/>
            <rect x="23.3033" fill="none" y="5.30334" stroke="#F7BD13" stroke-width="0.95868" width="3.79332" height="3.79332" />
        </g>
    </g>
</svg>
