<?xml version='1.0' encoding='UTF-8' standalone='no'?>
<!-- Created with Fritzing (http://www.fritzing.org/) -->
<svg xmlns="http://www.w3.org/2000/svg" baseProfile="tiny"  viewBox="0 0 50.4 36" x="0in" y="0in" height="0.5in" version="1.2" width="0.7in">
    <desc>
        <referenceFile>Adafruit SHT31-D_pcb.svg</referenceFile>
    </desc>
    <desc >Fritzing footprint generated by brd2svg</desc>
    <g  id="silkscreen" gorn="0.1">
        <path stroke-width="0.576"  fill="none" stroke="white" d="M50.112,7.3728L50.112,28.6272A6.912,6.912,0,0,1,42.9943,35.712L7.4057,35.712A6.912,6.912,0,0,1,0.288,28.6272L0.288,7.3728A6.912,6.912,0,0,1,7.4057,0.288L42.9943,0.288A6.912,6.912,0,0,1,50.112,7.3728"/>
        <g >
            <title >element:JP2</title>
            <g >
                <title >package:1X07_ROUND_70</title>
            </g>
        </g>
        <g >
            <title >element:U$1</title>
            <g >
                <title >package:MOUNTINGHOLE_2.5_PLATED</title>
                <circle stroke-width="0.576"  cx="7.2" fill="none" stroke="white" r="5.66929" cy="7.2"/>
            </g>
        </g>
        <g >
            <title >element:U$2</title>
            <g >
                <title >package:MOUNTINGHOLE_2.5_PLATED</title>
                <circle stroke-width="0.576"  cx="43.2" fill="none" stroke="white" r="5.66929" cy="7.2"/>
            </g>
        </g>
    </g>
    <g  id="copper1" gorn="0.2">
        <g  id="copper0" gorn="0.2.0">
            <circle stroke-width="1.10268"  cx="3.6" connectorname="VIN" fill="none" id="connector4pad" stroke="#F7BD13" r="1.96866" gorn="0.2.0.0" cy="28.8"/>
            <circle stroke-width="1.44"  cx="7.2" connectorname="P$1" fill="none" id="connector19pad" stroke="#F7BD13" r="4.26331" gorn="0.2.0.1" cy="7.2"/>
            <circle stroke-width="1.10268"  cx="10.8" connectorname="GND" fill="none" id="connector5pad" stroke="#F7BD13" r="1.96866" gorn="0.2.0.2" cy="28.8"/>
            <circle stroke-width="1.10268"  cx="18" connectorname="SCL" fill="none" id="connector6pad" stroke="#F7BD13" r="1.96866" gorn="0.2.0.3" cy="28.8"/>
            <circle stroke-width="1.10268"  cx="25.2" connectorname="SDA" fill="none" id="connector7pad" stroke="#F7BD13" r="1.96866" gorn="0.2.0.4" cy="28.8"/>
            <circle stroke-width="1.10268"  cx="32.4" connectorname="ADDR" fill="none" id="connector8pad" stroke="#F7BD13" r="1.96866" gorn="0.2.0.5" cy="28.8"/>
            <circle stroke-width="1.10268"  cx="39.6" connectorname="RST" fill="none" id="connector9pad" stroke="#F7BD13" r="1.96866" gorn="0.2.0.6" cy="28.8"/>
            <circle stroke-width="1.44"  cx="43.2" connectorname="P$1" fill="none" id="connector20pad" stroke="#F7BD13" r="4.26331" gorn="0.2.0.7" cy="7.2"/>
            <circle stroke-width="1.10268"  cx="46.8" connectorname="ALERT" fill="none" id="connector10pad" stroke="#F7BD13" r="1.96866" gorn="0.2.0.8" cy="28.8"/>
        </g>
    </g>
</svg>
