<?xml version='1.0' encoding='UTF-8' standalone='no'?>
<!-- Created with Fritzing (http://www.fritzing.org/) -->
<svg xmlns="http://www.w3.org/2000/svg"  x="0in" baseProfile="tiny" y="0in" version="1.2" viewBox="0 0 57.6 50.4" width="0.8in" height="0.7in">
    <desc >
        <referenceFile >Adafruit CCS811_pcb.svg</referenceFile>
    </desc>
    <desc >Fritzing footprint generated by brd2svg</desc>
    <g  id="silkscreen" gorn="0.2">
        <path stroke-width="0.576"  d="M57.312,7.4057L57.312,42.9943A6.912,6.912,0,0,1,50.184,50.112L7.416,50.112A6.912,6.912,0,0,1,0.288,42.9943L0.288,7.4057A6.912,6.912,0,0,1,7.416,0.288L50.184,0.288A6.912,6.912,0,0,1,57.312,7.4057" stroke="white" fill="none"/>
        <g >
            <title >element:JP3</title>
            <g >
                <title >package:1X08_ROUND_70</title>
            </g>
        </g>
    </g>
    <g  id="copper1" gorn="0.3">
        <g  id="copper0" gorn="0.3.0">
            <circle stroke-width="1.44" r="4.26331" connectorname="P$1"  stroke="#F7BD13" fill="none" cx="50.4" cy="7.2" id="connector45pad" gorn="0.3.0.0"/>
            <circle stroke-width="1.10268" r="1.96866" connectorname="VIN"  stroke="#F7BD13" fill="none" cx="3.6" cy="43.2" id="connector12pad" gorn="0.3.0.1"/>
            <circle stroke-width="1.10268" r="1.96866" connectorname="3.3V"  stroke="#F7BD13" fill="none" cx="10.8" cy="43.2" id="connector13pad" gorn="0.3.0.2"/>
            <circle stroke-width="1.10268" r="1.96866" connectorname="GND"  stroke="#F7BD13" fill="none" cx="18" cy="43.2" id="connector14pad" gorn="0.3.0.3"/>
            <circle stroke-width="1.10268" r="1.96866" connectorname="SDA"  stroke="#F7BD13" fill="none" cx="25.2" cy="43.2" id="connector15pad" gorn="0.3.0.4"/>
            <circle stroke-width="1.10268" r="1.96866" connectorname="SCL"  stroke="#F7BD13" fill="none" cx="32.4" cy="43.2" id="connector16pad" gorn="0.3.0.5"/>
            <circle stroke-width="1.10268" r="1.96866" connectorname="!WAKE"  stroke="#F7BD13" fill="none" cx="39.6" cy="43.2" id="connector17pad" gorn="0.3.0.6"/>
            <circle stroke-width="1.10268" r="1.96866" connectorname="!RESET"  stroke="#F7BD13" fill="none" cx="46.8" cy="43.2" id="connector18pad" gorn="0.3.0.7"/>
            <circle stroke-width="1.10268" r="1.96866" connectorname="!INT"  stroke="#F7BD13" fill="none" cx="54" cy="43.2" id="connector19pad" gorn="0.3.0.8"/>
            <circle stroke-width="1.44" r="4.26331" connectorname="P$1"  stroke="#F7BD13" fill="none" cx="7.2" cy="7.2" id="connector44pad" gorn="0.3.0.9"/>
        </g>
    </g>
</svg>
