<?xml version='1.0' encoding='UTF-8' standalone='no'?>
<!-- Created with Fritzing (http://www.fritzing.org/) -->
<svg xmlns="http://www.w3.org/2000/svg" version="1.2" baseProfile="tiny" x="0in" y="0in" height="1.49291in" width="0.7in"  viewBox="0 0 50.4 107.49">
    <desc >
        <referenceFile >Adafruit Pro Trinket 5V_pcb.svg</referenceFile>
    </desc>
    <desc >Fritzing footprint generated by brd2svg</desc>
    <g gorn="0.2" id="silkscreen" >
        <path stroke-width="0.576" fill="none"  stroke="white" d="M50.112,102.368L49.0443,103.621L36.4104,103.621L32.8515,107.202L7.04983,107.202L3.49097,103.621L0.288,103.621L0.288,7.30001A5.112,5.112,0,0,1,5.62629,1.92892L44.7737,1.92892A5.112,5.112,0,0,1,50.112,7.30001L50.112,102.368M30.0234,13.8897a0.704126,0.704126,0,1,0,1.40826,0,0.704126,0.704126,0,1,0,-1.40826,0zM18.9683,13.8897a0.704126,0.704126,0,1,0,1.40826,0,0.704126,0.704126,0,1,0,-1.40826,0zM2.56989,6.68976a2.83011,2.83011,0,1,0,5.66022,0,2.83011,2.83011,0,1,0,-5.66022,0zM42.1699,6.68976a2.83011,2.83011,0,1,0,5.66022,0,2.83011,2.83011,0,1,0,-5.66022,0zM22.3699,79.7695a2.83011,2.83011,0,1,0,5.66022,0,2.83011,2.83011,0,1,0,-5.66022,0z"/>
        <line stroke-width="0.72" y1="74.7295" y2="80.8495" x1="29.16" x2="29.16" stroke-linecap="round"  stroke="white"/>
        <line stroke-width="0.72" y1="80.8495" y2="80.8495" x1="29.16" x2="37.8" stroke-linecap="round"  stroke="white"/>
        <line stroke-width="0.72" y1="80.8495" y2="74.7295" x1="37.8" x2="37.8" stroke-linecap="round"  stroke="white"/>
        <line stroke-width="0.72" y1="74.7295" y2="74.7295" x1="37.8" x2="29.16" stroke-linecap="round"  stroke="white"/>
        <g >
            <title >element:BAT</title>
            <g >
                <title >package:JSTPH2</title>
            </g>
        </g>
        <g >
            <title >element:CN1</title>
            <g >
                <title >package:4UCONN_20329_V2</title>
                <line stroke-width="0.36" y1="17.0078" y2="17.0078" x1="32.2866" x2="30.0189" stroke-linecap="round"  stroke="white"/>
                <line stroke-width="0.36" y1="17.0078" y2="17.0078" x1="20.3811" x2="18.1134" stroke-linecap="round"  stroke="white"/>
                <line stroke-width="0.36" y1="4.25197" y2="1.70078" x1="35.9716" x2="35.9716" stroke-linecap="round"  stroke="white"/>
                <line stroke-width="0.36" y1="1.70078" y2="1.70078" x1="35.9716" x2="14.4284" stroke-linecap="round"  stroke="white"/>
                <line stroke-width="0.36" y1="1.70078" y2="4.25197" x1="14.4284" x2="14.4284" stroke-linecap="round"  stroke="white"/>
            </g>
        </g>
        <g >
            <title >element:JP1</title>
            <g >
                <title >package:1X12-CB</title>
            </g>
        </g>
        <g >
            <title >element:JP4</title>
            <g >
                <title >package:1X12-CB</title>
            </g>
        </g>
        <g >
            <title >element:U$9</title>
            <g >
                <title >package:ADAFRUIT_9MM</title>
            </g>
        </g>
        <line stroke-width="0.576" fill-opacity="1" y1="0.288" fill="none" y2="0.288" x1="10.885" x2="39.515"  stroke="white"/>
        <line stroke-width="0.576" fill-opacity="1" y1="1.64976" fill="none" y2="0.288" x1="10.885" x2="10.885"  stroke="white"/>
        <line stroke-width="0.576" fill-opacity="1" y1="1.64976" fill="none" y2="0.288" x1="39.515" x2="39.515"  stroke="white"/>
    </g>
    <g gorn="0.3" id="copper1" >
        <g gorn="0.3.0" id="copper0" >
            <circle stroke-width="1.08" r="1.98" gorn="0.3.0.0" id="connector81pad" connectorname="RXD" fill="none"  stroke="#F7BD13" cy="85.8895" cx="46.8"/>
            <circle stroke-width="1.08" r="1.98" gorn="0.3.0.1" id="connector73pad" connectorname="VBUS" fill="none"  stroke="#F7BD13" cy="28.2897" cx="46.8"/>
            <circle stroke-width="1.08" r="1.98" gorn="0.3.0.2" id="connector89pad" connectorname="D13" fill="none"  stroke="#F7BD13" cy="42.6897" cx="3.6"/>
            <circle stroke-width="1.08" r="1.98" gorn="0.3.0.3" id="connector77pad" connectorname="D5" fill="none"  stroke="#F7BD13" cy="57.0897" cx="46.8"/>
            <circle stroke-width="1.08" r="1.98" gorn="0.3.0.4" id="connector85pad" connectorname="D9" fill="none"  stroke="#F7BD13" cy="13.8897" cx="3.6"/>
            <circle stroke-width="1.08" r="1.98" gorn="0.3.0.5" id="connector93pad" connectorname="A2" fill="none"  stroke="#F7BD13" cy="71.4897" cx="3.6"/>
            <circle stroke-width="1.08" r="1.98" gorn="0.3.0.6" id="connector71pad" connectorname="VBAT" fill="none"  stroke="#F7BD13" cy="13.8897" cx="46.8"/>
            <circle stroke-width="1.08" r="1.98" gorn="0.3.0.7" id="connector75pad" connectorname="D8" fill="none"  stroke="#F7BD13" cy="42.6897" cx="46.8"/>
            <circle stroke-width="1.08" r="1.98" gorn="0.3.0.8" id="connector79pad" connectorname="D3" fill="none"  stroke="#F7BD13" cy="71.4897" cx="46.8"/>
            <circle stroke-width="1.10268" r="1.96866" gorn="0.3.0.9" id="connector83pad" connectorname="A6" fill="none"  stroke="#F7BD13" cy="57.0897" cx="10.8"/>
            <circle stroke-width="1.08" r="1.98" gorn="0.3.0.10" id="connector87pad" connectorname="D11" fill="none"  stroke="#F7BD13" cy="28.2897" cx="3.6"/>
            <circle stroke-width="1.08" r="1.98" gorn="0.3.0.11" id="connector91pad" connectorname="A0" fill="none"  stroke="#F7BD13" cy="57.0897" cx="3.6"/>
            <circle stroke-width="1.08" r="1.98" gorn="0.3.0.12" id="connector95pad" connectorname="A4" fill="none"  stroke="#F7BD13" cy="85.8895" cx="3.6"/>
            <circle stroke-width="1.08" r="1.98" gorn="0.3.0.13" id="connector27pad" connectorname="GND" fill="none"  stroke="#F7BD13" cy="100.29" cx="7.2"/>
            <circle stroke-width="1.08" r="1.98" gorn="0.3.0.14" id="connector28pad" connectorname="GND" fill="none"  stroke="#F7BD13" cy="100.29" cx="14.4"/>
            <circle stroke-width="1.08" r="1.98" gorn="0.3.0.15" id="connector29pad" connectorname="VBUS" fill="none"  stroke="#F7BD13" cy="100.29" cx="21.6"/>
            <circle stroke-width="1.08" r="1.98" gorn="0.3.0.16" id="connector30pad" connectorname="RXD" fill="none"  stroke="#F7BD13" cy="100.29" cx="28.8"/>
            <circle stroke-width="1.08" r="1.98" gorn="0.3.0.17" id="connector31pad" connectorname="TXD" fill="none"  stroke="#F7BD13" cy="100.29" cx="36"/>
            <circle stroke-width="1.08" r="1.98" gorn="0.3.0.18" id="connector32pad" connectorname="DTR/RTS" fill="none"  stroke="#F7BD13" cy="100.29" cx="43.2"/>
            <circle stroke-width="1.08" r="1.98" gorn="0.3.0.19" id="connector72pad" connectorname="GND" fill="none"  stroke="#F7BD13" cy="21.0897" cx="46.8"/>
            <circle stroke-width="1.08" r="1.98" gorn="0.3.0.20" id="connector74pad" connectorname="+5V" fill="none"  stroke="#F7BD13" cy="35.4897" cx="46.8"/>
            <circle stroke-width="1.08" r="1.98" gorn="0.3.0.21" id="connector76pad" connectorname="D6" fill="none"  stroke="#F7BD13" cy="49.8897" cx="46.8"/>
            <circle stroke-width="1.08" r="1.98" gorn="0.3.0.22" id="connector78pad" connectorname="D4" fill="none"  stroke="#F7BD13" cy="64.2897" cx="46.8"/>
            <circle stroke-width="1.08" r="1.98" gorn="0.3.0.23" id="connector80pad" connectorname="TXD" fill="none"  stroke="#F7BD13" cy="78.6895" cx="46.8"/>
            <circle stroke-width="1.08" r="1.98" gorn="0.3.0.24" id="connector82pad" connectorname="RESET" fill="none"  stroke="#F7BD13" cy="93.0895" cx="46.8"/>
            <circle stroke-width="1.10268" r="1.96866" gorn="0.3.0.25" id="connector84pad" connectorname="A7" fill="none"  stroke="#F7BD13" cy="64.2897" cx="10.8"/>
            <circle stroke-width="1.08" r="1.98" gorn="0.3.0.26" id="connector86pad" connectorname="D10" fill="none"  stroke="#F7BD13" cy="21.0897" cx="3.6"/>
            <circle stroke-width="1.08" r="1.98" gorn="0.3.0.27" id="connector88pad" connectorname="D12" fill="none"  stroke="#F7BD13" cy="35.4897" cx="3.6"/>
            <circle stroke-width="1.08" r="1.98" gorn="0.3.0.28" id="connector90pad" connectorname="AREF" fill="none"  stroke="#F7BD13" cy="49.8897" cx="3.6"/>
            <circle stroke-width="1.08" r="1.98" gorn="0.3.0.29" id="connector92pad" connectorname="A1" fill="none"  stroke="#F7BD13" cy="64.2897" cx="3.6"/>
            <circle stroke-width="1.08" r="1.98" gorn="0.3.0.30" id="connector94pad" connectorname="A3" fill="none"  stroke="#F7BD13" cy="78.6895" cx="3.6"/>
            <circle stroke-width="1.08" r="1.98" gorn="0.3.0.31" id="connector96pad" connectorname="A5" fill="none"  stroke="#F7BD13" cy="93.0895" cx="3.6"/>
        </g>
    </g>
</svg>
