<?xml version='1.0' encoding='UTF-8' standalone='no'?>
<!-- Created with Fritzing (http://www.fritzing.org/) -->
<svg xmlns="http://www.w3.org/2000/svg" baseProfile="tiny" version="1.2" x="0in" y="0in"  width="0.6in" height="1.07291in" viewBox="0 0 43.2 77.2495">
    <desc>
        <referenceFile>Adafruit_Trinket_3V_pcb.svg</referenceFile>
    </desc>
    <desc >Fritzing footprint generated by brd2svg</desc>
    <g gorn="0.1" id="silkscreen" >
        <path stroke="white" stroke-width="0.576" fill="none" d="M42.912,5.49862L42.912,70.53L40.7808,72.6739L31.5456,72.6739L27.2832,76.9615L7.39202,76.9615L2.4192,71.9593L0.288,71.9593L0.288,5.49862A3.312,3.312,0,0,1,3.84,1.92546L13.7856,1.92546L14.8512,2.99741L28.3488,2.99741L29.4144,1.92546L39.36,1.92546A3.312,3.312,0,0,1,42.912,5.49862M26.4234,13.8897a0.704126,0.704126,0,1,0,1.40826,0,0.704126,0.704126,0,1,0,-1.40826,0zM15.3683,13.8897a0.704126,0.704126,0,1,0,1.40826,0,0.704126,0.704126,0,1,0,-1.40826,0zM1.48989,20.0097a2.83011,2.83011,0,1,0,5.66022,0,2.83011,2.83011,0,1,0,-5.66022,0zM36.0499,20.0097a2.83011,2.83011,0,1,0,5.66022,0,2.83011,2.83011,0,1,0,-5.66022,0z" />
        <g >
            <title >element:BAT</title>
            <g >
                <title >package:JSTPH2</title>
            </g>
        </g>
        <g >
            <title >element:CN1</title>
            <g >
                <title >package:4UCONN_20329</title>
                <line stroke="white" x2="26.4189" y1="17.0078" x1="28.6866" y2="17.0078" stroke-width="0.36" stroke-linecap="round" />
                <line stroke="white" x2="14.5134" y1="17.0078" x1="16.7811" y2="17.0078" stroke-width="0.36" stroke-linecap="round" />
                <line stroke="white" x2="32.3716" y1="4.25197" x1="32.3716" y2="1.70078" stroke-width="0.36" stroke-linecap="round" />
                <line stroke="white" x2="10.8284" y1="1.70078" x1="32.3716" y2="1.70078" stroke-width="0.36" stroke-linecap="round" />
                <line stroke="white" x2="10.8284" y1="1.70078" x1="10.8284" y2="4.25197" stroke-width="0.36" stroke-linecap="round" />
            </g>
        </g>
        <g >
            <title >element:U1</title>
            <g >
                <title >package:MLF20_4X4MM_0.5MM_ATMEL</title>
                <line stroke="white" x2="25.0327" y1="47.537" x1="23.0485" y2="47.537" stroke-width="0.36" stroke-linecap="round" />
                <line stroke="white" x2="25.0327" y1="47.537" x1="25.0327" y2="49.5212" stroke-width="0.36" stroke-linecap="round" />
                <line stroke="white" x2="25.0327" y1="57.4582" x1="25.0327" y2="59.4426" stroke-width="0.36" stroke-linecap="round" />
                <line stroke="white" x2="23.0485" y1="59.4426" x1="25.0327" y2="59.4426" stroke-width="0.36" stroke-linecap="round" />
                <line stroke="white" x2="13.1273" y1="49.5212" x1="13.1273" y2="47.537" stroke-width="0.36" stroke-linecap="round" />
                <line stroke="white" x2="15.1115" y1="47.537" x1="13.1273" y2="47.537" stroke-width="0.36" stroke-linecap="round" />
                <line stroke="white" x2="13.1273" y1="59.4426" x1="15.1115" y2="59.4426" stroke-width="0.36" stroke-linecap="round" />
                <line stroke="white" x2="13.1273" y1="59.4426" x1="13.1273" y2="57.4582" stroke-width="0.36" stroke-linecap="round" />
                <circle stroke="white" r="0.425197" cx="21.9146" cy="44.9858" stroke-width="0.850392" fill="none" />
            </g>
        </g>
        <line stroke="white" x2="35.915" y1="0.288" x1="7.28503" y2="0.288" stroke-width="0.576" fill="none"  fill-opacity="1"/>
        <line stroke="white" x2="7.28503" y1="1.64976" x1="7.28503" y2="0.288" stroke-width="0.576" fill="none"  fill-opacity="1"/>
        <line stroke="white" x2="35.915" y1="1.64976" x1="35.915" y2="0.288" stroke-width="0.576" fill="none"  fill-opacity="1"/>
    </g>
    <g gorn="0.2" id="copper1" >
        <g gorn="0.2.0" id="copper0" >
            <circle stroke="#F7BD13" connectorname="VBAT" r="2.07666" cx="3.6" cy="26.8497" gorn="0.2.0.0" stroke-width="1.31868" fill="none" id="connector26pad" />
            <circle stroke="#F7BD13" connectorname="GND" r="2.07666" cx="3.6" cy="34.0497" gorn="0.2.0.1" stroke-width="1.31868" fill="none" id="connector27pad" />
            <circle stroke="#F7BD13" connectorname="B4" r="2.07666" cx="3.6" cy="41.2497" gorn="0.2.0.2" stroke-width="1.31868" fill="none" id="connector28pad" />
            <rect stroke="none" x="3.72368" stroke-width="0" y="41.1151" fill="none" id="connector28terminal" width="0.010944" height="0.010944"/>
            <circle stroke="#F7BD13" connectorname="B3" r="2.07666" cx="3.6" cy="48.4497" gorn="0.2.0.3" stroke-width="1.31868" fill="none" id="connector29pad" />
            <circle stroke="#F7BD13" connectorname="RESET" r="2.07666" cx="3.6" cy="55.6497" gorn="0.2.0.4" stroke-width="1.31868" fill="none" id="connector30pad" />
            <circle stroke="#F7BD13" connectorname="VBUS" r="2.07666" cx="39.6" cy="26.8497" gorn="0.2.0.5" stroke-width="1.31868" fill="none" id="connector31pad" />
            <circle stroke="#F7BD13" connectorname="B0" r="2.07666" cx="39.6" cy="34.0497" gorn="0.2.0.6" stroke-width="1.31868" fill="none" id="connector32pad" />
            <circle stroke="#F7BD13" connectorname="B1" r="2.07666" cx="39.6" cy="41.2497" gorn="0.2.0.7" stroke-width="1.31868" fill="none" id="connector33pad" />
            <circle stroke="#F7BD13" connectorname="B2" r="2.07666" cx="39.6" cy="48.4497" gorn="0.2.0.8" stroke-width="1.31868" fill="none" id="connector34pad" />
            <circle stroke="#F7BD13" connectorname="+3V3" r="2.07666" cx="39.6" cy="55.6497" gorn="0.2.0.9" stroke-width="1.31868" fill="none" id="connector35pad" />
        </g>
    </g>
</svg>
