<?xml version='1.0' encoding='UTF-8' standalone='no'?>
<!-- Created with Fritzing (http://www.fritzing.org/) -->
<svg xmlns="http://www.w3.org/2000/svg" x="0in" y="0in" baseProfile="tiny"  height="2.3025in" viewBox="0 0 134.909 165.78" version="1.2" width="1.87374in">
    <desc >
        <referenceFile >Adafruit FONA 3G_pcb.svg</referenceFile>
    </desc>
    <desc >Fritzing footprint generated by brd2svg</desc>
    <g id="silkscreen"  gorn="0.2">
        <path fill="none"  stroke-width="0.576" d="M5.57462,165.492L5.57462,143.967L9.15926,143.967L9.15926,133.922L5.57462,133.922L5.57462,32.7548A6.912,6.912,0,0,1,12.7439,25.5798L127.452,25.5798A6.912,6.912,0,0,1,134.621,32.7548L134.621,165.492L5.57462,165.492M16.4852,88.2526a0.704126,0.704126,0,1,0,1.40826,0,0.704126,0.704126,0,1,0,-1.40826,0zM16.4852,99.3074a0.704126,0.704126,0,1,0,1.40826,0,0.704126,0.704126,0,1,0,-1.40826,0zM33.8785,139.14a1.55452,1.55452,0,1,0,3.10904,0,1.55452,1.55452,0,1,0,-3.10904,0z" stroke="white"/>
        <g >
            <title >element:CN2</title>
            <g >
                <title >package:JSTPH2</title>
                <line x1="6.88535" y2="46.362"  stroke-width="0.576" stroke-linecap="round" y1="59.118" x2="6.88535" stroke="white"/>
                <line x1="16.8066" y2="41.4014"  stroke-width="0.576" stroke-linecap="round" y1="41.4014" x2="28.1452" stroke="white"/>
                <line x1="28.1452" y2="43.8108"  stroke-width="0.576" stroke-linecap="round" y1="41.4014" x2="28.1452" stroke="white"/>
                <line x1="28.1452" y2="43.8108"  stroke-width="0.576" stroke-linecap="round" y1="43.8108" x2="21.0586" stroke="white"/>
                <line x1="21.0586" y2="47.7793"  stroke-width="0.576" stroke-linecap="round" y1="43.8108" x2="21.0586" stroke="white"/>
                <line x1="21.0586" y2="61.6692"  stroke-width="0.576" stroke-linecap="round" y1="57.7007" x2="21.0586" stroke="white"/>
                <line x1="21.0586" y2="61.6692"  stroke-width="0.576" stroke-linecap="round" y1="61.6692" x2="28.1452" stroke="white"/>
                <line x1="28.1452" y2="64.0786"  stroke-width="0.576" stroke-linecap="round" y1="61.6692" x2="28.1452" stroke="white"/>
                <line x1="28.1452" y2="64.0786"  stroke-width="0.576" stroke-linecap="round" y1="64.0786" x2="16.8066" stroke="white"/>
            </g>
        </g>
        <g >
            <title >element:JP1</title>
            <g >
                <title >package:1X18_ROUND70</title>
            </g>
        </g>
        <g >
            <title >element:U$26</title>
            <g >
                <title >package:FONA_LOGO</title>
            </g>
        </g>
        <g >
            <title >element:U$42</title>
            <g >
                <title >package:ADAFRUIT_TEXT_20MM</title>
            </g>
        </g>
        <g >
            <title >element:U1</title>
            <g >
                <title >package:SIM5320</title>
                <line x1="60.4601" y2="135.444"  stroke-width="1.152" stroke-linecap="round" y1="132.609" x2="63.2948" stroke="white"/>
                <line x1="63.2948" y2="135.444"  stroke-width="1.152" stroke-linecap="round" y1="135.444" x2="61.8774" stroke="white"/>
                <line x1="59.0428" y2="135.444"  stroke-width="1.152" stroke-linecap="round" y1="135.444" x2="57.6255" stroke="white"/>
                <line x1="57.6255" y2="132.609"  stroke-width="1.152" stroke-linecap="round" y1="135.444" x2="60.4601" stroke="white"/>
                <line x1="60.4601" y2="134.027"  stroke-width="1.152" stroke-linecap="round" y1="132.609" x2="60.4601" stroke="white"/>
                <line x1="60.4601" y2="135.444"  stroke-width="1.152" stroke-linecap="round" y1="134.027" x2="61.8774" stroke="white"/>
                <line x1="61.8774" y2="135.444"  stroke-width="1.152" stroke-linecap="round" y1="135.444" x2="59.0428" stroke="white"/>
                <line x1="59.0428" y2="134.027"  stroke-width="1.152" stroke-linecap="round" y1="135.444" x2="60.4601" stroke="white"/>
                <line x1="44.5861" y2="127.223"  stroke-width="0.36" stroke-linecap="round" y1="113.05" x2="44.5861" stroke="white"/>
                <line x1="44.5861" y2="127.223"  stroke-width="0.36" stroke-linecap="round" y1="127.223" x2="58.4759" stroke="white"/>
                <line x1="44.5861" y2="41.6169"  stroke-width="0.36" stroke-linecap="round" y1="55.5066" x2="44.5861" stroke="white"/>
                <line x1="44.5861" y2="41.6169"  stroke-width="0.36" stroke-linecap="round" y1="41.6169" x2="58.7593" stroke="white"/>
                <line x1="130.193" y2="127.223"  stroke-width="0.36" stroke-linecap="round" y1="112.766" x2="130.193" stroke="white"/>
                <line x1="130.193" y2="127.223"  stroke-width="0.36" stroke-linecap="round" y1="127.223" x2="116.302" stroke="white"/>
                <line x1="130.193" y2="41.6169"  stroke-width="0.36" stroke-linecap="round" y1="55.7901" x2="130.193" stroke="white"/>
                <line x1="130.193" y2="41.6169"  stroke-width="0.36" stroke-linecap="round" y1="41.6169" x2="116.019" stroke="white"/>
            </g>
        </g>
        <g >
            <title >element:X1</title>
            <g >
                <title >package:SMA_EDGELAUNCH_UFL</title>
            </g>
        </g>
        <g >
            <title >element:X2</title>
            <g >
                <title >package:4UCONN_20329</title>
                <line x1="20.3074" y2="88.961"  stroke-width="0.36" stroke-linecap="round" y1="86.693" x2="20.3074" stroke="white"/>
                <line x1="20.3074" y2="100.867"  stroke-width="0.36" stroke-linecap="round" y1="98.599" x2="20.3074" stroke="white"/>
                <line x1="7.5515" y2="83.0081"  stroke-width="0.36" stroke-linecap="round" y1="83.0081" x2="5.00031" stroke="white"/>
                <line x1="5.00031" y2="104.552"  stroke-width="0.36" stroke-linecap="round" y1="83.0081" x2="5.00031" stroke="white"/>
                <line x1="5.00031" y2="104.552"  stroke-width="0.36" stroke-linecap="round" y1="104.552" x2="7.5515" stroke="white"/>
            </g>
        </g>
        <g >
            <title >element:X4</title>
            <g >
                <title >package:4UCONN_18510</title>
                <line x1="5.66929" y2="143.959"  stroke-width="0.576" stroke-linecap="round" y1="148.211" x2="5.66929" stroke="white"/>
                <line x1="5.66929" y2="134.321"  stroke-width="0.576" stroke-linecap="round" y1="143.959" x2="5.66929" stroke="white"/>
                <line x1="5.66929" y2="130.069"  stroke-width="0.576" stroke-linecap="round" y1="134.321" x2="5.66929" stroke="white"/>
                <line x1="39.685" y2="148.211"  stroke-width="0.576" stroke-linecap="round" y1="130.211" x2="39.685" stroke="white"/>
                <line x1="5.66929" y2="148.211"  stroke-width="0.576" stroke-linecap="round" y1="148.211" x2="9.92124" stroke="white"/>
                <line x1="24.9449" y2="148.211"  stroke-width="0.576" stroke-linecap="round" y1="148.211" x2="39.685" stroke="white"/>
                <line x1="5.66929" y2="130.069"  stroke-width="0.576" stroke-linecap="round" y1="130.069" x2="10.2047" stroke="white"/>
                <line x1="16.7244" y2="130.069"  stroke-width="0.576" stroke-linecap="round" y1="130.069" x2="28.3465" stroke="white"/>
                <line x1="39.685" y2="130.069"  stroke-width="0.576" stroke-linecap="round" y1="130.069" x2="35.7165" stroke="white"/>
                <line x1="5.66929" y2="134.321"  stroke-width="0.36" stroke-linecap="round" y1="134.321" x2="8.50392" stroke="white"/>
                <line x1="8.50392" y2="143.959"  stroke-width="0.36" stroke-linecap="round" y1="134.321" x2="8.50392" stroke="white"/>
                <line x1="8.50392" y2="143.959"  stroke-width="0.36" stroke-linecap="round" y1="143.959" x2="5.66929" stroke="white"/>
            </g>
        </g>
        <g >
            <title >element:X6</title>
            <g >
                <title >package:C707_10M006_512_2</title>
            </g>
        </g>
        <line x1="48.8693" y2="0.288" fill="none"  stroke-width="0.576" fill-opacity="1" y1="0.288" x2="77.6693" stroke="white"/>
        <line x1="48.8693" y2="0.288" fill="none"  stroke-width="0.576" fill-opacity="1" y1="25.38" x2="48.8693" stroke="white"/>
        <line x1="77.6693" y2="0.288" fill="none"  stroke-width="0.576" fill-opacity="1" y1="25.38" x2="77.6693" stroke="white"/>
        <line x1="3.29953" y2="108.095" fill="none"  stroke-width="0.576" fill-opacity="1" y1="108.095" x2="5.30929" stroke="white"/>
        <line x1="3.29953" y2="79.465" fill="none"  stroke-width="0.576" fill-opacity="1" y1="79.465" x2="5.30929" stroke="white"/>
        <line x1="3.29953" y2="79.465" fill="none"  stroke-width="0.576" fill-opacity="1" y1="108.095" x2="3.29953" stroke="white"/>
        <line x1="0.288" y2="151.754" fill="none"  stroke-width="0.576" fill-opacity="1" y1="151.754" x2="5.30929" stroke="white"/>
        <line x1="0.288" y2="126.667" fill="none"  stroke-width="0.576" fill-opacity="1" y1="126.667" x2="5.30929" stroke="white"/>
        <line x1="0.288" y2="126.667" fill="none"  stroke-width="0.576" fill-opacity="1" y1="151.754" x2="0.288" stroke="white"/>
    </g>
    <g id="copper1"  gorn="0.3">
        <g id="copper0"  gorn="0.3.0">
            <circle id="connector145pad" connectorname="P$1" fill="none"  cx="12.5093" stroke-width="1.44" cy="32.58" stroke="#F7BD13" r="4.26331" gorn="0.3.0.0"/>
            <circle id="connector241pad" connectorname="GND" fill="none"  cx="19.7405" stroke-width="0.72" cy="103.134" stroke="#F7BD13" r="1.35212" gorn="0.3.0.1"/>
            <path fill="#F7BD13"  stroke-width="0" d="m18.3884,101.782,2.70426,0,0,4.05638,-2.70426,0,0,-4.05638M18.3884,103.134a1.35212,1.35212,0,1,0,2.70426,0,1.35212,1.35212,0,1,0,-2.70426,0zz" stroke="none"/>
            <circle id="connector243pad" connectorname="GND" fill="none"  cx="11.8035" stroke-width="2.69292" cy="103.985" stroke="#F7BD13" r="2.19685" gorn="0.3.0.3"/>
            <rect x="9.6066" y="101.788" fill="none"  height="4.3937" stroke-width="2.69292" width="4.3937" stroke="#F7BD13"/>
            <circle id="connector144pad" connectorname="P$1" fill="none"  cx="127.709" stroke-width="1.44" cy="32.58" stroke="#F7BD13" r="4.26331" gorn="0.3.0.5"/>
            <circle id="connector97pad" connectorname="+5V" fill="none"  cx="8.90928" stroke-width="1.10268" cy="160.74" stroke="#F7BD13" r="1.96866" gorn="0.3.0.6"/>
            <circle id="connector98pad" connectorname="VBAT" fill="none"  cx="16.1093" stroke-width="1.10268" cy="160.74" stroke="#F7BD13" r="1.96866" gorn="0.3.0.7"/>
            <circle id="connector99pad" connectorname="GND" fill="none"  cx="23.3093" stroke-width="1.10268" cy="160.74" stroke="#F7BD13" r="1.96866" gorn="0.3.0.8"/>
            <circle id="connector100pad" connectorname="VCCIO" fill="none"  cx="30.5093" stroke-width="1.10268" cy="160.74" stroke="#F7BD13" r="1.96866" gorn="0.3.0.9"/>
            <circle id="connector101pad" connectorname="RESET_5V" fill="none"  cx="37.7093" stroke-width="1.10268" cy="160.74" stroke="#F7BD13" r="1.96866" gorn="0.3.0.10"/>
            <circle id="connector102pad" connectorname="RXD_5V" fill="none"  cx="44.9093" stroke-width="1.10268" cy="160.74" stroke="#F7BD13" r="1.96866" gorn="0.3.0.11"/>
            <circle id="connector103pad" connectorname="TXD_5V" fill="none"  cx="52.1093" stroke-width="1.10268" cy="160.74" stroke="#F7BD13" r="1.96866" gorn="0.3.0.12"/>
            <circle id="connector104pad" connectorname="CTS_5V" fill="none"  cx="59.3093" stroke-width="1.10268" cy="160.74" stroke="#F7BD13" r="1.96866" gorn="0.3.0.13"/>
            <circle id="connector105pad" connectorname="DTR_5V" fill="none"  cx="66.5093" stroke-width="1.10268" cy="160.74" stroke="#F7BD13" r="1.96866" gorn="0.3.0.14"/>
            <circle id="connector106pad" connectorname="RTS_5V" fill="none"  cx="73.7093" stroke-width="1.10268" cy="160.74" stroke="#F7BD13" r="1.96866" gorn="0.3.0.15"/>
            <circle id="connector107pad" connectorname="PWRKEY_5V" fill="none"  cx="80.9093" stroke-width="1.10268" cy="160.74" stroke="#F7BD13" r="1.96866" gorn="0.3.0.16"/>
            <circle id="connector108pad" connectorname="RI_5V" fill="none"  cx="88.1093" stroke-width="1.10268" cy="160.74" stroke="#F7BD13" r="1.96866" gorn="0.3.0.17"/>
            <circle id="connector109pad" connectorname="PWRSTAT_5V" fill="none"  cx="95.3093" stroke-width="1.10268" cy="160.74" stroke="#F7BD13" r="1.96866" gorn="0.3.0.18"/>
            <circle id="connector110pad" connectorname="NETSTAT_5V" fill="none"  cx="102.509" stroke-width="1.10268" cy="160.74" stroke="#F7BD13" r="1.96866" gorn="0.3.0.19"/>
            <circle id="connector111pad" connectorname="MIC+" fill="none"  cx="109.709" stroke-width="1.10268" cy="160.74" stroke="#F7BD13" r="1.96866" gorn="0.3.0.20"/>
            <circle id="connector112pad" connectorname="MIC-" fill="none"  cx="116.909" stroke-width="1.10268" cy="160.74" stroke="#F7BD13" r="1.96866" gorn="0.3.0.21"/>
            <circle id="connector113pad" connectorname="SPEAKER+" fill="none"  cx="124.109" stroke-width="1.10268" cy="160.74" stroke="#F7BD13" r="1.96866" gorn="0.3.0.22"/>
            <circle id="connector114pad" connectorname="SPEAKER-" fill="none"  cx="131.309" stroke-width="1.10268" cy="160.74" stroke="#F7BD13" r="1.96866" gorn="0.3.0.23"/>
            <circle id="connector115pad" connectorname="I2C_SDA" fill="none"  cx="77.3093" stroke-width="1.10268" cy="28.98" stroke="#F7BD13" r="1.96866" gorn="0.3.0.24"/>
            <circle id="connector116pad" connectorname="I2C_SCL" fill="none"  cx="77.3093" stroke-width="1.10268" cy="36.18" stroke="#F7BD13" r="1.96866" gorn="0.3.0.25"/>
            <circle id="connector240pad" connectorname="GND" fill="none"  cx="19.7405" stroke-width="0.72" cy="84.4258" stroke="#F7BD13" r="1.35212" gorn="0.3.0.26"/>
            <path fill="#F7BD13"  stroke-width="0" d="m18.3884,81.7214,2.70426,0,0,4.05638,-2.70426,0,0,-4.05638M18.3884,84.4258a1.35212,1.35212,0,1,0,2.70426,0,1.35212,1.35212,0,1,0,-2.70426,0zz" stroke="none"/>
            <circle id="connector242pad" connectorname="GND" fill="none"  cx="11.8035" stroke-width="2.69292" cy="83.5754" stroke="#F7BD13" r="2.19685" gorn="0.3.0.28"/>
            <rect x="9.6066" y="81.3787" fill="none"  height="4.3937" stroke-width="2.69292" width="4.3937" stroke="#F7BD13"/>
        </g>
    </g>
</svg>
