<?xml version='1.0' encoding='UTF-8' standalone='no'?>
<!-- Created with Fritzing (http://www.fritzing.org/) -->
<svg xmlns="http://www.w3.org/2000/svg" viewBox="0 0 60.48 90.5954" height="1.25827in" y="0in" baseProfile="tiny"  x="0in" width="0.84in" version="1.2">
    <desc >
        <referenceFile >Adafruit Bluefruit LE UART Friend_pcb.svg</referenceFile>
    </desc>
    <desc >Fritzing footprint generated by brd2svg</desc>
    <g id="silkscreen"  gorn="0.2">
        <path stroke="white"  d="M0.288,90.3074L0.288,8.03369A6.912,6.912,0,0,1,7.41946,0.879494L53.0605,0.879494A6.912,6.912,0,0,1,60.192,8.03369L60.192,90.3074L0.288,90.3074M24.8587,66.1153a1.12932,1.12932,0,1,0,2.25865,0,1.12932,1.12932,0,1,0,-2.25865,0zM33.3626,66.1153a1.12932,1.12932,0,1,0,2.25865,0,1.12932,1.12932,0,1,0,-2.25865,0zM35.4887,13.1811a0.987588,0.987588,0,1,0,1.97518,0,0.987588,0.987588,0,1,0,-1.97518,0z" stroke-width="0.576" fill="none"/>
        <line x2="20.88" stroke="white" x1="18" stroke-linecap="round"  y1="87.3554" stroke-width="0.72" y2="87.3554"/>
        <line x2="19.44" stroke="white" x1="20.88" stroke-linecap="round"  y1="87.3554" stroke-width="0.72" y2="89.5154"/>
        <line x2="18" stroke="white" x1="19.44" stroke-linecap="round"  y1="89.5154" stroke-width="0.72" y2="87.3554"/>
        <line x2="25.2" stroke="white" x1="28.08" stroke-linecap="round"  y1="79.4354" stroke-width="0.72" y2="79.4354"/>
        <line x2="26.64" stroke="white" x1="25.2" stroke-linecap="round"  y1="79.4354" stroke-width="0.72" y2="77.2754"/>
        <line x2="28.08" stroke="white" x1="26.64" stroke-linecap="round"  y1="77.2754" stroke-width="0.72" y2="79.4354"/>
        <line x2="10.8" stroke="white" x1="13.68" stroke-linecap="round"  y1="79.4354" stroke-width="0.72" y2="79.4354"/>
        <line x2="12.24" stroke="white" x1="10.8" stroke-linecap="round"  y1="79.4354" stroke-width="0.72" y2="77.2754"/>
        <line x2="13.68" stroke="white" x1="12.24" stroke-linecap="round"  y1="77.2754" stroke-width="0.72" y2="79.4354"/>
        <line x2="42.48" stroke="white" x1="39.6" stroke-linecap="round"  y1="77.2754" stroke-width="0.72" y2="77.2754"/>
        <line x2="41.04" stroke="white" x1="42.48" stroke-linecap="round"  y1="77.2754" stroke-width="0.72" y2="79.4354"/>
        <line x2="39.6" stroke="white" x1="41.04" stroke-linecap="round"  y1="79.4354" stroke-width="0.72" y2="77.2754"/>
        <g >
            <title >element:JP1</title>
            <g >
                <title >package:1X08_ROUND_76</title>
            </g>
        </g>
        <g >
            <title >element:SW1</title>
            <g >
                <title >package:EG1390</title>
                <line x2="20.0353" stroke="white" x1="40.4447" stroke-linecap="round"  y1="71.0759" stroke-width="0.36" y2="71.0759"/>
                <line x2="20.0353" stroke="white" x1="20.0353" stroke-linecap="round"  y1="71.0759" stroke-width="0.36" y2="61.1546"/>
                <line x2="40.4447" stroke="white" x1="20.0353" stroke-linecap="round"  y1="61.1546" stroke-width="0.36" y2="61.1546"/>
                <line x2="40.4447" stroke="white" x1="40.4447" stroke-linecap="round"  y1="61.1546" stroke-width="0.36" y2="71.0759"/>
            </g>
        </g>
        <g >
            <title >element:U$9</title>
            <g >
                <title >package:BLUEFRUITLOGO_100MM</title>
            </g>
        </g>
        <g >
            <title >element:U1</title>
            <g >
                <title >package:BLE_MODULE_RAYTAC_MDBT40</title>
                <line x2="15.7833" stroke="white" x1="15.7833" stroke-linecap="round"  y1="13.0393" stroke-width="0.36" y2="0"/>
                <line x2="44.6967" stroke="white" x1="15.7833" stroke-linecap="round"  y1="0" stroke-width="0.36" y2="0"/>
                <line x2="44.6967" stroke="white" x1="44.6967" stroke-linecap="round"  y1="0" stroke-width="0.36" y2="13.0393"/>
                <line x2="15.7833" stroke="white" x1="15.7833" stroke-linecap="round"  y1="17.8582" stroke-width="0.36" y2="26.9292"/>
                <line x2="15.7833" stroke="white" x1="15.7833" stroke-linecap="round"  y1="47.622" stroke-width="0.36" y2="51.5905"/>
                <line x2="16.9172" stroke="white" x1="15.7833" stroke-linecap="round"  y1="51.5905" stroke-width="0.36" y2="51.5905"/>
                <line x2="44.6967" stroke="white" x1="43.5628" stroke-linecap="round"  y1="51.5905" stroke-width="0.36" y2="51.5905"/>
                <line x2="44.6967" stroke="white" x1="44.6967" stroke-linecap="round"  y1="51.5905" stroke-width="0.36" y2="47.622"/>
            </g>
        </g>
        <g >
            <title >element:X1</title>
            <g >
                <title >package:JSTPH2</title>
            </g>
        </g>
        <g >
            <title >element:Y1</title>
            <g >
                <title >package:CRYSTAL_CYL_2X6MM_SMT</title>
            </g>
        </g>
        <line fill-opacity="1" x2="44.6967" stroke="white" x1="15.7833"  y1="0.288" stroke-width="0.576" fill="none" y2="0.288"/>
        <line fill-opacity="1" x2="15.7833" stroke="white" x1="15.7833"  y1="0.595276" stroke-width="0.576" fill="none" y2="0.288"/>
        <line fill-opacity="1" x2="44.6967" stroke="white" x1="44.6967"  y1="0.595276" stroke-width="0.576" fill="none" y2="0.288"/>
    </g>
    <g id="copper1"  gorn="0.3">
        <g id="copper0"  gorn="0.3.0">
            <circle stroke="#F7BD13" id="connector51pad" cy="7.7953"  r="4.26331" stroke-width="1.44" fill="none" cx="7.2" gorn="0.3.0.0" connectorname="P$1"/>
            <circle stroke="#F7BD13" id="connector50pad" cy="7.7953"  r="4.26331" stroke-width="1.44" fill="none" cx="53.28" gorn="0.3.0.1" connectorname="P$1"/>
            <circle stroke="#F7BD13" id="connector26pad" cy="83.3954"  r="2.07666" stroke-width="1.31868" fill="none" cx="55.44" gorn="0.3.0.2" connectorname="DFU_5V"/>
            <circle stroke="#F7BD13" id="connector27pad" cy="83.3954"  r="2.07666" stroke-width="1.31868" fill="none" cx="48.24" gorn="0.3.0.3" connectorname="GND"/>
            <circle stroke="#F7BD13" id="connector28pad" cy="83.3954"  r="2.07666" stroke-width="1.31868" fill="none" cx="41.04" gorn="0.3.0.4" connectorname="RTS_O"/>
            <circle stroke="#F7BD13" id="connector29pad" cy="83.3954"  r="2.07666" stroke-width="1.31868" fill="none" cx="33.84" gorn="0.3.0.5" connectorname="VIN"/>
            <circle stroke="#F7BD13" id="connector30pad" cy="83.3954"  r="2.07666" stroke-width="1.31868" fill="none" cx="26.64" gorn="0.3.0.6" connectorname="RXD_5V"/>
            <circle stroke="#F7BD13" id="connector31pad" cy="83.3954"  r="2.07666" stroke-width="1.31868" fill="none" cx="19.44" gorn="0.3.0.7" connectorname="TX_O"/>
            <circle stroke="#F7BD13" id="connector32pad" cy="83.3954"  r="2.07666" stroke-width="1.31868" fill="none" cx="12.24" gorn="0.3.0.8" connectorname="CTS_5V"/>
            <circle stroke="#F7BD13" id="connector33pad" cy="83.3954"  r="2.07666" stroke-width="1.31868" fill="none" cx="5.04" gorn="0.3.0.9" connectorname="MODE_5V"/>
        </g>
    </g>
</svg>
