<?xml version='1.0' encoding='UTF-8' standalone='no'?>
<!-- Created with Fritzing (http://www.fritzing.org/) -->
<svg xmlns="http://www.w3.org/2000/svg" version="1.2" width="2.45in" x="0in" y="0in" height="1in" baseProfile="tiny"  viewBox="0 0 176.4 72">
    <desc >
        <referenceFile >Adafruit 16-Channel 12-bit PWM Servo Driver - I2C_pcb.svg</referenceFile>
    </desc>
    <desc >Fritzing footprint generated by brd2svg</desc>
    <g gorn="0.2"  id="silkscreen">
        <path d="M9.25862,71.712A8.712,8.712,0,0,1,0.288,62.784L0.288,9.216A8.712,8.712,0,0,1,9.25862,0.288L167.142,0.288A8.712,8.712,0,0,1,176.112,9.216L176.112,62.784A8.712,8.712,0,0,1,167.142,71.712L9.25862,71.712" stroke="white" stroke-width="0.576"  fill="none"/>
        <g >
            <title >element:C2</title>
            <g >
                <title >package:E3,5-8</title>
                <line y1="15.12" y2="15.12" x1="43.2" x2="41.04" stroke-linecap="round" stroke="white" stroke-width="0.432" />
                <line y1="14.04" y2="16.2" x1="42.12" x2="42.12" stroke-linecap="round" stroke="white" stroke-width="0.432" />
                <circle cx="33.48" cy="11.88" r="11.52" stroke="white" stroke-width="0.432"  fill="none"/>
            </g>
        </g>
        <g >
            <title >element:J1</title>
            <g >
                <title >package:TERMBLOCK_1X2-3.5MM</title>
                <line y1="20.4378" y2="4.56378" x1="97.8379" x2="97.8379" stroke-linecap="round" stroke="white" stroke-width="0.576" />
                <line y1="4.56378" y2="0.595276" x1="97.8379" x2="97.8379" stroke-linecap="round" stroke="white" stroke-width="0.576" />
                <line y1="0.595276" y2="0.595276" x1="97.8379" x2="77.9954" stroke-linecap="round" stroke="white" stroke-width="0.576" />
                <line y1="0.595276" y2="4.56378" x1="77.9954" x2="77.9954" stroke-linecap="round" stroke="white" stroke-width="0.576" />
                <line y1="4.56378" y2="20.4378" x1="77.9954" x2="77.9954" stroke-linecap="round" stroke="white" stroke-width="0.576" />
                <line y1="20.4378" y2="20.4378" x1="77.9954" x2="97.8379" stroke-linecap="round" stroke="white" stroke-width="0.576" />
                <line y1="4.56378" y2="4.56378" x1="97.8379" x2="77.9954" stroke-linecap="round" stroke="white" stroke-width="0.576" />
            </g>
        </g>
        <g >
            <title >element:JP1</title>
            <g >
                <title >package:3X04</title>
                <line y1="51.84" y2="50.04" x1="81" x2="79.2" stroke-linecap="round" stroke="white" stroke-width="0.576" />
                <line y1="50.04" y2="51.84" x1="75.6" x2="73.8" stroke-linecap="round" stroke="white" stroke-width="0.576" />
                <line y1="51.84" y2="50.04" x1="73.8" x2="72" stroke-linecap="round" stroke="white" stroke-width="0.576" />
                <line y1="50.04" y2="51.84" x1="68.4" x2="66.6" stroke-linecap="round" stroke="white" stroke-width="0.576" />
                <line y1="51.84" y2="50.04" x1="66.6" x2="64.8" stroke-linecap="round" stroke="white" stroke-width="0.576" />
                <line y1="50.04" y2="51.84" x1="61.2" x2="59.4" stroke-linecap="round" stroke="white" stroke-width="0.576" />
                <line y1="51.84" y2="50.04" x1="59.4" x2="57.6" stroke-linecap="round" stroke="white" stroke-width="0.576" />
                <line y1="50.04" y2="51.84" x1="54" x2="52.2" stroke-linecap="round" stroke="white" stroke-width="0.576" />
                <line y1="51.84" y2="69.84" x1="81" x2="81" stroke-linecap="round" stroke="white" stroke-width="0.576" />
                <line y1="69.84" y2="71.64" x1="81" x2="79.2" stroke-linecap="round" stroke="white" stroke-width="0.576" />
                <line y1="71.64" y2="71.64" x1="79.2" x2="75.6" stroke-linecap="round" stroke="white" stroke-width="0.576" />
                <line y1="71.64" y2="69.84" x1="75.6" x2="73.8" stroke-linecap="round" stroke="white" stroke-width="0.576" />
                <line y1="69.84" y2="71.64" x1="73.8" x2="72" stroke-linecap="round" stroke="white" stroke-width="0.576" />
                <line y1="71.64" y2="71.64" x1="72" x2="68.4" stroke-linecap="round" stroke="white" stroke-width="0.576" />
                <line y1="71.64" y2="69.84" x1="68.4" x2="66.6" stroke-linecap="round" stroke="white" stroke-width="0.576" />
                <line y1="69.84" y2="71.64" x1="66.6" x2="64.8" stroke-linecap="round" stroke="white" stroke-width="0.576" />
                <line y1="71.64" y2="71.64" x1="64.8" x2="61.2" stroke-linecap="round" stroke="white" stroke-width="0.576" />
                <line y1="71.64" y2="69.84" x1="61.2" x2="59.4" stroke-linecap="round" stroke="white" stroke-width="0.576" />
                <line y1="69.84" y2="71.64" x1="59.4" x2="57.6" stroke-linecap="round" stroke="white" stroke-width="0.576" />
                <line y1="71.64" y2="71.64" x1="57.6" x2="54" stroke-linecap="round" stroke="white" stroke-width="0.576" />
                <line y1="71.64" y2="69.84" x1="54" x2="52.2" stroke-linecap="round" stroke="white" stroke-width="0.576" />
                <line y1="69.84" y2="51.84" x1="73.8" x2="73.8" stroke-linecap="round" stroke="white" stroke-width="0.576" />
                <line y1="69.84" y2="51.84" x1="66.6" x2="66.6" stroke-linecap="round" stroke="white" stroke-width="0.576" />
                <line y1="69.84" y2="51.84" x1="59.4" x2="59.4" stroke-linecap="round" stroke="white" stroke-width="0.576" />
                <line y1="69.84" y2="51.84" x1="52.2" x2="52.2" stroke-linecap="round" stroke="white" stroke-width="0.576" />
                <line y1="50.04" y2="50.04" x1="57.6" x2="54" stroke-linecap="round" stroke="white" stroke-width="0.576" />
                <line y1="50.04" y2="50.04" x1="64.8" x2="61.2" stroke-linecap="round" stroke="white" stroke-width="0.576" />
                <line y1="50.04" y2="50.04" x1="72" x2="68.4" stroke-linecap="round" stroke="white" stroke-width="0.576" />
                <line y1="50.04" y2="50.04" x1="79.2" x2="75.6" stroke-linecap="round" stroke="white" stroke-width="0.576" />
            </g>
        </g>
        <g >
            <title >element:JP2</title>
            <g >
                <title >package:3X04</title>
                <line y1="51.84" y2="50.04" x1="45" x2="43.2" stroke-linecap="round" stroke="white" stroke-width="0.576" />
                <line y1="50.04" y2="51.84" x1="39.6" x2="37.8" stroke-linecap="round" stroke="white" stroke-width="0.576" />
                <line y1="51.84" y2="50.04" x1="37.8" x2="36" stroke-linecap="round" stroke="white" stroke-width="0.576" />
                <line y1="50.04" y2="51.84" x1="32.4" x2="30.6" stroke-linecap="round" stroke="white" stroke-width="0.576" />
                <line y1="51.84" y2="50.04" x1="30.6" x2="28.8" stroke-linecap="round" stroke="white" stroke-width="0.576" />
                <line y1="50.04" y2="51.84" x1="25.2" x2="23.4" stroke-linecap="round" stroke="white" stroke-width="0.576" />
                <line y1="51.84" y2="50.04" x1="23.4" x2="21.6" stroke-linecap="round" stroke="white" stroke-width="0.576" />
                <line y1="50.04" y2="51.84" x1="18" x2="16.2" stroke-linecap="round" stroke="white" stroke-width="0.576" />
                <line y1="51.84" y2="69.84" x1="45" x2="45" stroke-linecap="round" stroke="white" stroke-width="0.576" />
                <line y1="69.84" y2="71.64" x1="45" x2="43.2" stroke-linecap="round" stroke="white" stroke-width="0.576" />
                <line y1="71.64" y2="71.64" x1="43.2" x2="39.6" stroke-linecap="round" stroke="white" stroke-width="0.576" />
                <line y1="71.64" y2="69.84" x1="39.6" x2="37.8" stroke-linecap="round" stroke="white" stroke-width="0.576" />
                <line y1="69.84" y2="71.64" x1="37.8" x2="36" stroke-linecap="round" stroke="white" stroke-width="0.576" />
                <line y1="71.64" y2="71.64" x1="36" x2="32.4" stroke-linecap="round" stroke="white" stroke-width="0.576" />
                <line y1="71.64" y2="69.84" x1="32.4" x2="30.6" stroke-linecap="round" stroke="white" stroke-width="0.576" />
                <line y1="69.84" y2="71.64" x1="30.6" x2="28.8" stroke-linecap="round" stroke="white" stroke-width="0.576" />
                <line y1="71.64" y2="71.64" x1="28.8" x2="25.2" stroke-linecap="round" stroke="white" stroke-width="0.576" />
                <line y1="71.64" y2="69.84" x1="25.2" x2="23.4" stroke-linecap="round" stroke="white" stroke-width="0.576" />
                <line y1="69.84" y2="71.64" x1="23.4" x2="21.6" stroke-linecap="round" stroke="white" stroke-width="0.576" />
                <line y1="71.64" y2="71.64" x1="21.6" x2="18" stroke-linecap="round" stroke="white" stroke-width="0.576" />
                <line y1="71.64" y2="69.84" x1="18" x2="16.2" stroke-linecap="round" stroke="white" stroke-width="0.576" />
                <line y1="69.84" y2="51.84" x1="37.8" x2="37.8" stroke-linecap="round" stroke="white" stroke-width="0.576" />
                <line y1="69.84" y2="51.84" x1="30.6" x2="30.6" stroke-linecap="round" stroke="white" stroke-width="0.576" />
                <line y1="69.84" y2="51.84" x1="23.4" x2="23.4" stroke-linecap="round" stroke="white" stroke-width="0.576" />
                <line y1="69.84" y2="51.84" x1="16.2" x2="16.2" stroke-linecap="round" stroke="white" stroke-width="0.576" />
                <line y1="50.04" y2="50.04" x1="21.6" x2="18" stroke-linecap="round" stroke="white" stroke-width="0.576" />
                <line y1="50.04" y2="50.04" x1="28.8" x2="25.2" stroke-linecap="round" stroke="white" stroke-width="0.576" />
                <line y1="50.04" y2="50.04" x1="36" x2="32.4" stroke-linecap="round" stroke="white" stroke-width="0.576" />
                <line y1="50.04" y2="50.04" x1="43.2" x2="39.6" stroke-linecap="round" stroke="white" stroke-width="0.576" />
            </g>
        </g>
        <g >
            <title >element:JP5</title>
            <g >
                <title >package:3X04</title>
                <line y1="51.84" y2="50.04" x1="160.2" x2="158.4" stroke-linecap="round" stroke="white" stroke-width="0.576" />
                <line y1="50.04" y2="51.84" x1="154.8" x2="153" stroke-linecap="round" stroke="white" stroke-width="0.576" />
                <line y1="51.84" y2="50.04" x1="153" x2="151.2" stroke-linecap="round" stroke="white" stroke-width="0.576" />
                <line y1="50.04" y2="51.84" x1="147.6" x2="145.8" stroke-linecap="round" stroke="white" stroke-width="0.576" />
                <line y1="51.84" y2="50.04" x1="145.8" x2="144" stroke-linecap="round" stroke="white" stroke-width="0.576" />
                <line y1="50.04" y2="51.84" x1="140.4" x2="138.6" stroke-linecap="round" stroke="white" stroke-width="0.576" />
                <line y1="51.84" y2="50.04" x1="138.6" x2="136.8" stroke-linecap="round" stroke="white" stroke-width="0.576" />
                <line y1="50.04" y2="51.84" x1="133.2" x2="131.4" stroke-linecap="round" stroke="white" stroke-width="0.576" />
                <line y1="51.84" y2="69.84" x1="160.2" x2="160.2" stroke-linecap="round" stroke="white" stroke-width="0.576" />
                <line y1="69.84" y2="71.64" x1="160.2" x2="158.4" stroke-linecap="round" stroke="white" stroke-width="0.576" />
                <line y1="71.64" y2="71.64" x1="158.4" x2="154.8" stroke-linecap="round" stroke="white" stroke-width="0.576" />
                <line y1="71.64" y2="69.84" x1="154.8" x2="153" stroke-linecap="round" stroke="white" stroke-width="0.576" />
                <line y1="69.84" y2="71.64" x1="153" x2="151.2" stroke-linecap="round" stroke="white" stroke-width="0.576" />
                <line y1="71.64" y2="71.64" x1="151.2" x2="147.6" stroke-linecap="round" stroke="white" stroke-width="0.576" />
                <line y1="71.64" y2="69.84" x1="147.6" x2="145.8" stroke-linecap="round" stroke="white" stroke-width="0.576" />
                <line y1="69.84" y2="71.64" x1="145.8" x2="144" stroke-linecap="round" stroke="white" stroke-width="0.576" />
                <line y1="71.64" y2="71.64" x1="144" x2="140.4" stroke-linecap="round" stroke="white" stroke-width="0.576" />
                <line y1="71.64" y2="69.84" x1="140.4" x2="138.6" stroke-linecap="round" stroke="white" stroke-width="0.576" />
                <line y1="69.84" y2="71.64" x1="138.6" x2="136.8" stroke-linecap="round" stroke="white" stroke-width="0.576" />
                <line y1="71.64" y2="71.64" x1="136.8" x2="133.2" stroke-linecap="round" stroke="white" stroke-width="0.576" />
                <line y1="71.64" y2="69.84" x1="133.2" x2="131.4" stroke-linecap="round" stroke="white" stroke-width="0.576" />
                <line y1="69.84" y2="51.84" x1="153" x2="153" stroke-linecap="round" stroke="white" stroke-width="0.576" />
                <line y1="69.84" y2="51.84" x1="145.8" x2="145.8" stroke-linecap="round" stroke="white" stroke-width="0.576" />
                <line y1="69.84" y2="51.84" x1="138.6" x2="138.6" stroke-linecap="round" stroke="white" stroke-width="0.576" />
                <line y1="69.84" y2="51.84" x1="131.4" x2="131.4" stroke-linecap="round" stroke="white" stroke-width="0.576" />
                <line y1="50.04" y2="50.04" x1="136.8" x2="133.2" stroke-linecap="round" stroke="white" stroke-width="0.576" />
                <line y1="50.04" y2="50.04" x1="144" x2="140.4" stroke-linecap="round" stroke="white" stroke-width="0.576" />
                <line y1="50.04" y2="50.04" x1="151.2" x2="147.6" stroke-linecap="round" stroke="white" stroke-width="0.576" />
                <line y1="50.04" y2="50.04" x1="158.4" x2="154.8" stroke-linecap="round" stroke="white" stroke-width="0.576" />
            </g>
        </g>
        <g >
            <title >element:JP6</title>
            <g >
                <title >package:3X04</title>
                <line y1="51.84" y2="50.04" x1="124.2" x2="122.4" stroke-linecap="round" stroke="white" stroke-width="0.576" />
                <line y1="50.04" y2="51.84" x1="118.8" x2="117" stroke-linecap="round" stroke="white" stroke-width="0.576" />
                <line y1="51.84" y2="50.04" x1="117" x2="115.2" stroke-linecap="round" stroke="white" stroke-width="0.576" />
                <line y1="50.04" y2="51.84" x1="111.6" x2="109.8" stroke-linecap="round" stroke="white" stroke-width="0.576" />
                <line y1="51.84" y2="50.04" x1="109.8" x2="108" stroke-linecap="round" stroke="white" stroke-width="0.576" />
                <line y1="50.04" y2="51.84" x1="104.4" x2="102.6" stroke-linecap="round" stroke="white" stroke-width="0.576" />
                <line y1="51.84" y2="50.04" x1="102.6" x2="100.8" stroke-linecap="round" stroke="white" stroke-width="0.576" />
                <line y1="50.04" y2="51.84" x1="97.2" x2="95.4" stroke-linecap="round" stroke="white" stroke-width="0.576" />
                <line y1="51.84" y2="69.84" x1="124.2" x2="124.2" stroke-linecap="round" stroke="white" stroke-width="0.576" />
                <line y1="69.84" y2="71.64" x1="124.2" x2="122.4" stroke-linecap="round" stroke="white" stroke-width="0.576" />
                <line y1="71.64" y2="71.64" x1="122.4" x2="118.8" stroke-linecap="round" stroke="white" stroke-width="0.576" />
                <line y1="71.64" y2="69.84" x1="118.8" x2="117" stroke-linecap="round" stroke="white" stroke-width="0.576" />
                <line y1="69.84" y2="71.64" x1="117" x2="115.2" stroke-linecap="round" stroke="white" stroke-width="0.576" />
                <line y1="71.64" y2="71.64" x1="115.2" x2="111.6" stroke-linecap="round" stroke="white" stroke-width="0.576" />
                <line y1="71.64" y2="69.84" x1="111.6" x2="109.8" stroke-linecap="round" stroke="white" stroke-width="0.576" />
                <line y1="69.84" y2="71.64" x1="109.8" x2="108" stroke-linecap="round" stroke="white" stroke-width="0.576" />
                <line y1="71.64" y2="71.64" x1="108" x2="104.4" stroke-linecap="round" stroke="white" stroke-width="0.576" />
                <line y1="71.64" y2="69.84" x1="104.4" x2="102.6" stroke-linecap="round" stroke="white" stroke-width="0.576" />
                <line y1="69.84" y2="71.64" x1="102.6" x2="100.8" stroke-linecap="round" stroke="white" stroke-width="0.576" />
                <line y1="71.64" y2="71.64" x1="100.8" x2="97.2" stroke-linecap="round" stroke="white" stroke-width="0.576" />
                <line y1="71.64" y2="69.84" x1="97.2" x2="95.4" stroke-linecap="round" stroke="white" stroke-width="0.576" />
                <line y1="69.84" y2="51.84" x1="117" x2="117" stroke-linecap="round" stroke="white" stroke-width="0.576" />
                <line y1="69.84" y2="51.84" x1="109.8" x2="109.8" stroke-linecap="round" stroke="white" stroke-width="0.576" />
                <line y1="69.84" y2="51.84" x1="102.6" x2="102.6" stroke-linecap="round" stroke="white" stroke-width="0.576" />
                <line y1="69.84" y2="51.84" x1="95.4" x2="95.4" stroke-linecap="round" stroke="white" stroke-width="0.576" />
                <line y1="50.04" y2="50.04" x1="100.8" x2="97.2" stroke-linecap="round" stroke="white" stroke-width="0.576" />
                <line y1="50.04" y2="50.04" x1="108" x2="104.4" stroke-linecap="round" stroke="white" stroke-width="0.576" />
                <line y1="50.04" y2="50.04" x1="115.2" x2="111.6" stroke-linecap="round" stroke="white" stroke-width="0.576" />
                <line y1="50.04" y2="50.04" x1="122.4" x2="118.8" stroke-linecap="round" stroke="white" stroke-width="0.576" />
            </g>
        </g>
        <g >
            <title >element:Q1</title>
            <g >
                <title >package:TO252</title>
                <line y1="19.9038" y2="19.9049" x1="68.8689" x2="51.8769" stroke-linecap="round" stroke="white" stroke-width="0.576" />
                <line y1="19.9049" y2="1.32661" x1="51.8769" x2="51.8769" stroke-linecap="round" stroke="white" stroke-width="0.576" />
                <line y1="1.32661" y2="1.32774" x1="51.8769" x2="68.8689" stroke-linecap="round" stroke="white" stroke-width="0.576" />
            </g>
        </g>
        <g >
            <title >element:U1</title>
            <g >
                <title >package:TSSOP28</title>
                <line y1="47.9356" y2="47.9356" x1="94.6706" x2="81.7294" stroke-linecap="round" stroke="white" stroke-width="0.576" />
                <line y1="22.6244" y2="22.6244" x1="81.7294" x2="94.6706" stroke-linecap="round" stroke="white" stroke-width="0.576" />
                <circle cx="84.744" cy="25.1444" r="1.296" stroke="white" stroke-width="0.576"  fill="none"/>
            </g>
        </g>
    </g>
    <g gorn="0.3"  id="copper1">
        <g gorn="0.3.0"  id="copper0">
            <circle cx="38.52" cy="11.88" r="1.71" stroke="#F7BD13" stroke-width="1.116" gorn="0.3.0.0"  id="connector7pad" connectorname="5.0V" fill="none"/>
            <circle cx="28.44" cy="11.88" r="1.71" stroke="#F7BD13" stroke-width="1.116" gorn="0.3.0.1"  id="connector8pad" connectorname="GND" fill="none"/>
            <circle cx="83.0974" cy="10.8" r="2.25666" stroke="#F7BD13" stroke-width="1.67868" gorn="0.3.0.2"  id="connector11pad" connectorname="PWRIN" fill="none"/>
            <circle cx="93.019" cy="10.8" r="2.25666" stroke="#F7BD13" stroke-width="1.67868" gorn="0.3.0.3"  id="connector12pad" connectorname="GND" fill="none"/>
            <circle cx="77.4" cy="53.64" r="1.96866" stroke="#F7BD13" stroke-width="1.10268" gorn="0.3.0.4"  id="connector13pad" connectorname="PWM7" fill="none"/>
            <circle cx="9" cy="9" r="4.26331" stroke="#F7BD13" stroke-width="1.44" gorn="0.3.0.5"  id="connector142pad" connectorname="P$1" fill="none"/>
            <circle cx="77.4" cy="60.84" r="1.96866" stroke="#F7BD13" stroke-width="1.10268" gorn="0.3.0.6"  id="connector14pad" connectorname="5.0V" fill="none"/>
            <circle cx="77.4" cy="68.04" r="1.96866" stroke="#F7BD13" stroke-width="1.10268" gorn="0.3.0.7"  id="connector15pad" connectorname="GND" fill="none"/>
            <circle cx="70.2" cy="53.64" r="1.96866" stroke="#F7BD13" stroke-width="1.10268" gorn="0.3.0.8"  id="connector16pad" connectorname="PWM6" fill="none"/>
            <circle cx="70.2" cy="60.84" r="1.96866" stroke="#F7BD13" stroke-width="1.10268" gorn="0.3.0.9"  id="connector17pad" connectorname="5.0V" fill="none"/>
            <circle cx="70.2" cy="68.04" r="1.96866" stroke="#F7BD13" stroke-width="1.10268" gorn="0.3.0.10"  id="connector18pad" connectorname="GND" fill="none"/>
            <circle cx="63" cy="53.64" r="1.96866" stroke="#F7BD13" stroke-width="1.10268" gorn="0.3.0.11"  id="connector19pad" connectorname="PWM5" fill="none"/>
            <circle cx="63" cy="60.84" r="1.96866" stroke="#F7BD13" stroke-width="1.10268" gorn="0.3.0.12"  id="connector20pad" connectorname="5.0V" fill="none"/>
            <circle cx="63" cy="68.04" r="1.96866" stroke="#F7BD13" stroke-width="1.10268" gorn="0.3.0.13"  id="connector21pad" connectorname="GND" fill="none"/>
            <circle cx="55.8" cy="53.64" r="1.96866" stroke="#F7BD13" stroke-width="1.10268" gorn="0.3.0.14"  id="connector22pad" connectorname="PWM4" fill="none"/>
            <circle cx="55.8" cy="60.84" r="1.96866" stroke="#F7BD13" stroke-width="1.10268" gorn="0.3.0.15"  id="connector23pad" connectorname="5.0V" fill="none"/>
            <circle cx="55.8" cy="68.04" r="1.96866" stroke="#F7BD13" stroke-width="1.10268" gorn="0.3.0.16"  id="connector24pad" connectorname="GND" fill="none"/>
            <circle cx="41.4" cy="53.64" r="1.96866" stroke="#F7BD13" stroke-width="1.10268" gorn="0.3.0.17"  id="connector25pad" connectorname="PWM3" fill="none"/>
            <circle cx="41.4" cy="60.84" r="1.96866" stroke="#F7BD13" stroke-width="1.10268" gorn="0.3.0.18"  id="connector26pad" connectorname="5.0V" fill="none"/>
            <circle cx="41.4" cy="68.04" r="1.96866" stroke="#F7BD13" stroke-width="1.10268" gorn="0.3.0.19"  id="connector27pad" connectorname="GND" fill="none"/>
            <circle cx="34.2" cy="53.64" r="1.96866" stroke="#F7BD13" stroke-width="1.10268" gorn="0.3.0.20"  id="connector28pad" connectorname="PWM2" fill="none"/>
            <circle cx="34.2" cy="60.84" r="1.96866" stroke="#F7BD13" stroke-width="1.10268" gorn="0.3.0.21"  id="connector29pad" connectorname="5.0V" fill="none"/>
            <circle cx="34.2" cy="68.04" r="1.96866" stroke="#F7BD13" stroke-width="1.10268" gorn="0.3.0.22"  id="connector30pad" connectorname="GND" fill="none"/>
            <circle cx="27" cy="53.64" r="1.96866" stroke="#F7BD13" stroke-width="1.10268" gorn="0.3.0.23"  id="connector31pad" connectorname="PWM1" fill="none"/>
            <circle cx="27" cy="60.84" r="1.96866" stroke="#F7BD13" stroke-width="1.10268" gorn="0.3.0.24"  id="connector32pad" connectorname="5.0V" fill="none"/>
            <circle cx="27" cy="68.04" r="1.96866" stroke="#F7BD13" stroke-width="1.10268" gorn="0.3.0.25"  id="connector33pad" connectorname="GND" fill="none"/>
            <circle cx="19.8" cy="53.64" r="1.96866" stroke="#F7BD13" stroke-width="1.10268" gorn="0.3.0.26"  id="connector34pad" connectorname="PWM0" fill="none"/>
            <circle cx="19.8" cy="60.84" r="1.96866" stroke="#F7BD13" stroke-width="1.10268" gorn="0.3.0.27"  id="connector35pad" connectorname="5.0V" fill="none"/>
            <circle cx="19.8" cy="68.04" r="1.96866" stroke="#F7BD13" stroke-width="1.10268" gorn="0.3.0.28"  id="connector36pad" connectorname="GND" fill="none"/>
            <circle cx="5.4" cy="53.64" r="1.98" stroke="#F7BD13" stroke-width="1.08" gorn="0.3.0.29"  id="connector37pad" connectorname="5.0V" fill="none"/>
            <circle cx="5.4" cy="46.44" r="1.98" stroke="#F7BD13" stroke-width="1.08" gorn="0.3.0.30"  id="connector38pad" connectorname="VCC" fill="none"/>
            <circle cx="5.4" cy="39.24" r="1.98" stroke="#F7BD13" stroke-width="1.08" gorn="0.3.0.31"  id="connector39pad" connectorname="SDA" fill="none"/>
            <circle cx="167.4" cy="9" r="4.26331" stroke="#F7BD13" stroke-width="1.44" gorn="0.3.0.32"  id="connector144pad" connectorname="P$1" fill="none"/>
            <circle cx="5.4" cy="32.04" r="1.98" stroke="#F7BD13" stroke-width="1.08" gorn="0.3.0.33"  id="connector40pad" connectorname="SCL" fill="none"/>
            <circle cx="5.4" cy="24.84" r="1.98" stroke="#F7BD13" stroke-width="1.08" gorn="0.3.0.34"  id="connector41pad" connectorname="OE" fill="none"/>
            <circle cx="5.4" cy="17.64" r="1.98" stroke="#F7BD13" stroke-width="1.08" gorn="0.3.0.35"  id="connector42pad" connectorname="GND" fill="none"/>
            <circle cx="171" cy="53.64" r="1.98" stroke="#F7BD13" stroke-width="1.08" gorn="0.3.0.36"  id="connector43pad" connectorname="5.0V" fill="none"/>
            <circle cx="171" cy="46.44" r="1.98" stroke="#F7BD13" stroke-width="1.08" gorn="0.3.0.37"  id="connector44pad" connectorname="VCC" fill="none"/>
            <circle cx="171" cy="39.24" r="1.98" stroke="#F7BD13" stroke-width="1.08" gorn="0.3.0.38"  id="connector45pad" connectorname="SDA" fill="none"/>
            <circle cx="171" cy="32.04" r="1.98" stroke="#F7BD13" stroke-width="1.08" gorn="0.3.0.39"  id="connector46pad" connectorname="SCL" fill="none"/>
            <circle cx="171" cy="24.84" r="1.98" stroke="#F7BD13" stroke-width="1.08" gorn="0.3.0.40"  id="connector47pad" connectorname="OE" fill="none"/>
            <circle cx="171" cy="17.64" r="1.98" stroke="#F7BD13" stroke-width="1.08" gorn="0.3.0.41"  id="connector48pad" connectorname="GND" fill="none"/>
            <circle cx="156.6" cy="53.64" r="1.96866" stroke="#F7BD13" stroke-width="1.10268" gorn="0.3.0.42"  id="connector49pad" connectorname="PWM15" fill="none"/>
            <circle cx="156.6" cy="60.84" r="1.96866" stroke="#F7BD13" stroke-width="1.10268" gorn="0.3.0.43"  id="connector50pad" connectorname="5.0V" fill="none"/>
            <circle cx="156.6" cy="68.04" r="1.96866" stroke="#F7BD13" stroke-width="1.10268" gorn="0.3.0.44"  id="connector51pad" connectorname="GND" fill="none"/>
            <circle cx="149.4" cy="53.64" r="1.96866" stroke="#F7BD13" stroke-width="1.10268" gorn="0.3.0.45"  id="connector52pad" connectorname="PWM14" fill="none"/>
            <circle cx="149.4" cy="60.84" r="1.96866" stroke="#F7BD13" stroke-width="1.10268" gorn="0.3.0.46"  id="connector53pad" connectorname="5.0V" fill="none"/>
            <circle cx="149.4" cy="68.04" r="1.96866" stroke="#F7BD13" stroke-width="1.10268" gorn="0.3.0.47"  id="connector54pad" connectorname="GND" fill="none"/>
            <circle cx="142.2" cy="53.64" r="1.96866" stroke="#F7BD13" stroke-width="1.10268" gorn="0.3.0.48"  id="connector55pad" connectorname="PWM13" fill="none"/>
            <circle cx="142.2" cy="60.84" r="1.96866" stroke="#F7BD13" stroke-width="1.10268" gorn="0.3.0.49"  id="connector56pad" connectorname="5.0V" fill="none"/>
            <circle cx="142.2" cy="68.04" r="1.96866" stroke="#F7BD13" stroke-width="1.10268" gorn="0.3.0.50"  id="connector57pad" connectorname="GND" fill="none"/>
            <circle cx="135" cy="53.64" r="1.96866" stroke="#F7BD13" stroke-width="1.10268" gorn="0.3.0.51"  id="connector58pad" connectorname="PWM12" fill="none"/>
            <circle cx="135" cy="60.84" r="1.96866" stroke="#F7BD13" stroke-width="1.10268" gorn="0.3.0.52"  id="connector59pad" connectorname="5.0V" fill="none"/>
            <circle cx="135" cy="68.04" r="1.96866" stroke="#F7BD13" stroke-width="1.10268" gorn="0.3.0.53"  id="connector60pad" connectorname="GND" fill="none"/>
            <circle cx="120.6" cy="53.64" r="1.96866" stroke="#F7BD13" stroke-width="1.10268" gorn="0.3.0.54"  id="connector61pad" connectorname="PWM11" fill="none"/>
            <circle cx="120.6" cy="60.84" r="1.96866" stroke="#F7BD13" stroke-width="1.10268" gorn="0.3.0.55"  id="connector62pad" connectorname="5.0V" fill="none"/>
            <circle cx="120.6" cy="68.04" r="1.96866" stroke="#F7BD13" stroke-width="1.10268" gorn="0.3.0.56"  id="connector63pad" connectorname="GND" fill="none"/>
            <circle cx="113.4" cy="53.64" r="1.96866" stroke="#F7BD13" stroke-width="1.10268" gorn="0.3.0.57"  id="connector64pad" connectorname="PWM10" fill="none"/>
            <circle cx="113.4" cy="60.84" r="1.96866" stroke="#F7BD13" stroke-width="1.10268" gorn="0.3.0.58"  id="connector65pad" connectorname="5.0V" fill="none"/>
            <circle cx="113.4" cy="68.04" r="1.96866" stroke="#F7BD13" stroke-width="1.10268" gorn="0.3.0.59"  id="connector66pad" connectorname="GND" fill="none"/>
            <circle cx="106.2" cy="53.64" r="1.96866" stroke="#F7BD13" stroke-width="1.10268" gorn="0.3.0.60"  id="connector67pad" connectorname="PWM9" fill="none"/>
            <circle cx="106.2" cy="60.84" r="1.96866" stroke="#F7BD13" stroke-width="1.10268" gorn="0.3.0.61"  id="connector68pad" connectorname="5.0V" fill="none"/>
            <circle cx="106.2" cy="68.04" r="1.96866" stroke="#F7BD13" stroke-width="1.10268" gorn="0.3.0.62"  id="connector69pad" connectorname="GND" fill="none"/>
            <circle cx="99" cy="53.64" r="1.96866" stroke="#F7BD13" stroke-width="1.10268" gorn="0.3.0.63"  id="connector70pad" connectorname="PWM8" fill="none"/>
            <circle cx="99" cy="60.84" r="1.96866" stroke="#F7BD13" stroke-width="1.10268" gorn="0.3.0.64"  id="connector71pad" connectorname="5.0V" fill="none"/>
            <circle cx="99" cy="68.04" r="1.96866" stroke="#F7BD13" stroke-width="1.10268" gorn="0.3.0.65"  id="connector72pad" connectorname="GND" fill="none"/>
            <circle cx="9" cy="63" r="4.26331" stroke="#F7BD13" stroke-width="1.44" gorn="0.3.0.66"  id="connector143pad" connectorname="P$1" fill="none"/>
            <circle cx="167.4" cy="63" r="4.26331" stroke="#F7BD13" stroke-width="1.44" gorn="0.3.0.67"  id="connector145pad" connectorname="P$1" fill="none"/>
        </g>
    </g>
</svg>
