<?xml version='1.0' encoding='UTF-8' standalone='no'?>
<!-- Created with Fritzing (http://www.fritzing.org/) -->
<svg xmlns="http://www.w3.org/2000/svg" width="2.58in" version="1.2"  x="0in" y="0in" height="2.58in" baseProfile="tiny" viewBox="0 0 185.76 185.76">
    <desc >
        <referenceFile >Adafruit 24 NeoPixel Ring_pcb.svg</referenceFile>
    </desc>
    <desc >Fritzing footprint generated by brd2svg</desc>
    <g  id="silkscreen" gorn="0.2">
        <path fill="none" stroke-width="0.576" stroke="white" d="M0.288,92.88A92.592,92.592,0,0,1,92.88,0.288A92.592,92.592,0,0,1,185.472,92.88A92.592,92.592,0,0,1,92.88,185.472A92.592,92.592,0,0,1,0.288,92.88" />
        <g >
            <title >element:LED2</title>
            <g >
                <title >package:WS2812B-NARROW</title>
                <line stroke-linecap="round" stroke-width="0.36" stroke="white"  y1="21.581" y2="17.9127" x1="119.321" x2="105.63"/>
                <line stroke-linecap="round" stroke-width="0.36" stroke="white"  y1="17.9127" y2="6.68664" x1="105.63" x2="108.639"/>
                <line stroke-linecap="round" stroke-width="0.36" stroke="white"  y1="6.68664" y2="4.22239" x1="108.639" x2="109.299"/>
                <line stroke-linecap="round" stroke-width="0.36" stroke="white"  y1="4.22239" y2="4.88268" x1="109.299" x2="111.763"/>
                <line stroke-linecap="round" stroke-width="0.36" stroke="white"  y1="4.88268" y2="7.8907" x1="111.763" x2="122.99"/>
                <line stroke-linecap="round" stroke-width="0.36" stroke="white"  y1="7.8907" y2="21.581" x1="122.99" x2="119.321"/>
                <line stroke-linecap="round" stroke-width="0.36" stroke="white"  y1="6.68664" y2="4.88268" x1="108.639" x2="111.763"/>
                <line stroke-linecap="round" stroke-width="0.36" stroke="white"  y1="4.88268" y2="4.18115" x1="111.763" x2="112.978"/>
                <line stroke-linecap="round" stroke-width="0.36" stroke="white"  y1="4.18115" y2="2.61887" x1="112.978" x2="112.077"/>
                <line stroke-linecap="round" stroke-width="0.36" stroke="white"  y1="2.61887" y2="4.22239" x1="112.077" x2="109.299"/>
                <circle fill="none" r="4.8769" stroke-width="0.36" stroke="white"  cx="114.31" cy="12.9017"/>
            </g>
        </g>
        <g >
            <title >element:LED3</title>
            <g >
                <title >package:WS2812B-NARROW</title>
                <line stroke-linecap="round" stroke-width="0.36" stroke="white"  y1="30.8535" y2="23.7669" x1="136.874" x2="124.6"/>
                <line stroke-linecap="round" stroke-width="0.36" stroke="white"  y1="23.7669" y2="13.702" x1="124.6" x2="130.411"/>
                <line stroke-linecap="round" stroke-width="0.36" stroke="white"  y1="13.702" y2="11.4926" x1="130.411" x2="131.686"/>
                <line stroke-linecap="round" stroke-width="0.36" stroke="white"  y1="11.4926" y2="12.7681" x1="131.686" x2="133.896"/>
                <line stroke-linecap="round" stroke-width="0.36" stroke="white"  y1="12.7681" y2="18.5792" x1="133.896" x2="143.96"/>
                <line stroke-linecap="round" stroke-width="0.36" stroke="white"  y1="18.5792" y2="30.8535" x1="143.96" x2="136.874"/>
                <line stroke-linecap="round" stroke-width="0.36" stroke="white"  y1="13.702" y2="12.7681" x1="130.411" x2="133.896"/>
                <line stroke-linecap="round" stroke-width="0.36" stroke="white"  y1="12.7681" y2="12.405" x1="133.896" x2="135.251"/>
                <line stroke-linecap="round" stroke-width="0.36" stroke="white"  y1="12.405" y2="10.6625" x1="135.251" x2="134.784"/>
                <line stroke-linecap="round" stroke-width="0.36" stroke="white"  y1="10.6625" y2="11.4926" x1="134.784" x2="131.686"/>
                <circle fill="none" r="4.8769" stroke-width="0.36" stroke="white"  cx="134.28" cy="21.173"/>
            </g>
        </g>
        <g >
            <title >element:LED4</title>
            <g >
                <title >package:WS2812B-NARROW</title>
                <line stroke-linecap="round" stroke-width="0.36" stroke="white"  y1="44.3537" y2="34.3318" x1="151.428" x2="141.407"/>
                <line stroke-linecap="round" stroke-width="0.36" stroke="white"  y1="34.3318" y2="26.1138" x1="141.407" x2="149.625"/>
                <line stroke-linecap="round" stroke-width="0.36" stroke="white"  y1="26.1138" y2="24.3098" x1="149.625" x2="151.428"/>
                <line stroke-linecap="round" stroke-width="0.36" stroke="white"  y1="24.3098" y2="26.1138" x1="151.428" x2="153.232"/>
                <line stroke-linecap="round" stroke-width="0.36" stroke="white"  y1="26.1138" y2="34.3318" x1="153.232" x2="161.45"/>
                <line stroke-linecap="round" stroke-width="0.36" stroke="white"  y1="34.3318" y2="44.3537" x1="161.45" x2="151.428"/>
                <line stroke-linecap="round" stroke-width="0.36" stroke="white"  y1="26.1138" y2="26.1138" x1="149.625" x2="153.232"/>
                <line stroke-linecap="round" stroke-width="0.36" stroke="white"  y1="26.1138" y2="26.1138" x1="153.232" x2="154.635"/>
                <line stroke-linecap="round" stroke-width="0.36" stroke="white"  y1="26.1138" y2="24.3098" x1="154.635" x2="154.635"/>
                <line stroke-linecap="round" stroke-width="0.36" stroke="white"  y1="24.3098" y2="24.3098" x1="154.635" x2="151.428"/>
                <circle fill="none" r="4.8769" stroke-width="0.36" stroke="white"  cx="151.428" cy="34.3318"/>
            </g>
        </g>
        <g >
            <title >element:LED5</title>
            <g >
                <title >package:WS2812B-NARROW</title>
                <line stroke-linecap="round" stroke-width="0.36" stroke="white"  y1="61.1605" y2="48.8861" x1="161.993" x2="154.907"/>
                <line stroke-linecap="round" stroke-width="0.36" stroke="white"  y1="48.8861" y2="43.0751" x1="154.907" x2="164.971"/>
                <line stroke-linecap="round" stroke-width="0.36" stroke="white"  y1="43.0751" y2="41.7995" x1="164.971" x2="167.181"/>
                <line stroke-linecap="round" stroke-width="0.36" stroke="white"  y1="41.7995" y2="44.0089" x1="167.181" x2="168.456"/>
                <line stroke-linecap="round" stroke-width="0.36" stroke="white"  y1="44.0089" y2="54.0739" x1="168.456" x2="174.267"/>
                <line stroke-linecap="round" stroke-width="0.36" stroke="white"  y1="54.0739" y2="61.1605" x1="174.267" x2="161.993"/>
                <line stroke-linecap="round" stroke-width="0.36" stroke="white"  y1="43.0751" y2="44.0089" x1="164.971" x2="168.456"/>
                <line stroke-linecap="round" stroke-width="0.36" stroke="white"  y1="44.0089" y2="44.372" x1="168.456" x2="169.812"/>
                <line stroke-linecap="round" stroke-width="0.36" stroke="white"  y1="44.372" y2="42.6295" x1="169.812" x2="170.279"/>
                <line stroke-linecap="round" stroke-width="0.36" stroke="white"  y1="42.6295" y2="41.7995" x1="170.279" x2="167.181"/>
                <circle fill="none" r="4.8769" stroke-width="0.36" stroke="white"  cx="164.587" cy="51.48"/>
            </g>
        </g>
        <g >
            <title >element:LED6</title>
            <g >
                <title >package:WS2812B-NARROW</title>
                <line stroke-linecap="round" stroke-width="0.36" stroke="white"  y1="80.1295" y2="66.4389" x1="167.847" x2="164.179"/>
                <line stroke-linecap="round" stroke-width="0.36" stroke="white"  y1="66.4389" y2="63.4309" x1="164.179" x2="175.405"/>
                <line stroke-linecap="round" stroke-width="0.36" stroke="white"  y1="63.4309" y2="62.7706" x1="175.405" x2="177.87"/>
                <line stroke-linecap="round" stroke-width="0.36" stroke="white"  y1="62.7706" y2="65.2349" x1="177.87" x2="178.53"/>
                <line stroke-linecap="round" stroke-width="0.36" stroke="white"  y1="65.2349" y2="76.4611" x1="178.53" x2="181.538"/>
                <line stroke-linecap="round" stroke-width="0.36" stroke="white"  y1="76.4611" y2="80.1295" x1="181.538" x2="167.847"/>
                <line stroke-linecap="round" stroke-width="0.36" stroke="white"  y1="63.4309" y2="65.2349" x1="175.405" x2="178.53"/>
                <line stroke-linecap="round" stroke-width="0.36" stroke="white"  y1="65.2349" y2="65.9364" x1="178.53" x2="179.744"/>
                <line stroke-linecap="round" stroke-width="0.36" stroke="white"  y1="65.9364" y2="64.3741" x1="179.744" x2="180.647"/>
                <line stroke-linecap="round" stroke-width="0.36" stroke="white"  y1="64.3741" y2="62.7706" x1="180.647" x2="177.87"/>
                <circle fill="none" r="4.8769" stroke-width="0.36" stroke="white"  cx="172.858" cy="71.4499"/>
            </g>
        </g>
        <g >
            <title >element:LED8</title>
            <g >
                <title >package:WS2812B-NARROW</title>
                <line stroke-linecap="round" stroke-width="0.36" stroke="white"  y1="119.321" y2="105.63" x1="164.179" x2="167.847"/>
                <line stroke-linecap="round" stroke-width="0.36" stroke="white"  y1="105.63" y2="108.639" x1="167.847" x2="179.073"/>
                <line stroke-linecap="round" stroke-width="0.36" stroke="white"  y1="108.639" y2="109.299" x1="179.073" x2="181.538"/>
                <line stroke-linecap="round" stroke-width="0.36" stroke="white"  y1="109.299" y2="111.763" x1="181.538" x2="180.878"/>
                <line stroke-linecap="round" stroke-width="0.36" stroke="white"  y1="111.763" y2="122.99" x1="180.878" x2="177.87"/>
                <line stroke-linecap="round" stroke-width="0.36" stroke="white"  y1="122.99" y2="119.321" x1="177.87" x2="164.179"/>
                <line stroke-linecap="round" stroke-width="0.36" stroke="white"  y1="108.639" y2="111.763" x1="179.073" x2="180.878"/>
                <line stroke-linecap="round" stroke-width="0.36" stroke="white"  y1="111.763" y2="112.978" x1="180.878" x2="181.579"/>
                <line stroke-linecap="round" stroke-width="0.36" stroke="white"  y1="112.978" y2="112.077" x1="181.579" x2="183.141"/>
                <line stroke-linecap="round" stroke-width="0.36" stroke="white"  y1="112.077" y2="109.299" x1="183.141" x2="181.538"/>
                <circle fill="none" r="4.8769" stroke-width="0.36" stroke="white"  cx="172.858" cy="114.31"/>
            </g>
        </g>
        <g >
            <title >element:LED9</title>
            <g >
                <title >package:WS2812B-NARROW</title>
                <line stroke-linecap="round" stroke-width="0.36" stroke="white"  y1="136.874" y2="124.6" x1="154.907" x2="161.993"/>
                <line stroke-linecap="round" stroke-width="0.36" stroke="white"  y1="124.6" y2="130.411" x1="161.993" x2="172.058"/>
                <line stroke-linecap="round" stroke-width="0.36" stroke="white"  y1="130.411" y2="131.686" x1="172.058" x2="174.267"/>
                <line stroke-linecap="round" stroke-width="0.36" stroke="white"  y1="131.686" y2="133.896" x1="174.267" x2="172.992"/>
                <line stroke-linecap="round" stroke-width="0.36" stroke="white"  y1="133.896" y2="143.96" x1="172.992" x2="167.181"/>
                <line stroke-linecap="round" stroke-width="0.36" stroke="white"  y1="143.96" y2="136.874" x1="167.181" x2="154.907"/>
                <line stroke-linecap="round" stroke-width="0.36" stroke="white"  y1="130.411" y2="133.896" x1="172.058" x2="172.992"/>
                <line stroke-linecap="round" stroke-width="0.36" stroke="white"  y1="133.896" y2="135.251" x1="172.992" x2="173.355"/>
                <line stroke-linecap="round" stroke-width="0.36" stroke="white"  y1="135.251" y2="134.784" x1="173.355" x2="175.098"/>
                <line stroke-linecap="round" stroke-width="0.36" stroke="white"  y1="134.784" y2="131.686" x1="175.098" x2="174.267"/>
                <circle fill="none" r="4.8769" stroke-width="0.36" stroke="white"  cx="164.587" cy="134.28"/>
            </g>
        </g>
        <g >
            <title >element:LED10</title>
            <g >
                <title >package:WS2812B-NARROW</title>
                <line stroke-linecap="round" stroke-width="0.36" stroke="white"  y1="151.428" y2="141.407" x1="141.407" x2="151.428"/>
                <line stroke-linecap="round" stroke-width="0.36" stroke="white"  y1="141.407" y2="149.625" x1="151.428" x2="159.646"/>
                <line stroke-linecap="round" stroke-width="0.36" stroke="white"  y1="149.625" y2="151.428" x1="159.646" x2="161.45"/>
                <line stroke-linecap="round" stroke-width="0.36" stroke="white"  y1="151.428" y2="153.232" x1="161.45" x2="159.646"/>
                <line stroke-linecap="round" stroke-width="0.36" stroke="white"  y1="153.232" y2="161.45" x1="159.646" x2="151.428"/>
                <line stroke-linecap="round" stroke-width="0.36" stroke="white"  y1="161.45" y2="151.428" x1="151.428" x2="141.407"/>
                <line stroke-linecap="round" stroke-width="0.36" stroke="white"  y1="149.625" y2="153.232" x1="159.646" x2="159.646"/>
                <line stroke-linecap="round" stroke-width="0.36" stroke="white"  y1="153.232" y2="154.635" x1="159.646" x2="159.646"/>
                <line stroke-linecap="round" stroke-width="0.36" stroke="white"  y1="154.635" y2="154.635" x1="159.646" x2="161.45"/>
                <line stroke-linecap="round" stroke-width="0.36" stroke="white"  y1="154.635" y2="151.428" x1="161.45" x2="161.45"/>
                <circle fill="none" r="4.8769" stroke-width="0.36" stroke="white"  cx="151.428" cy="151.428"/>
            </g>
        </g>
        <g >
            <title >element:LED11</title>
            <g >
                <title >package:WS2812B-NARROW</title>
                <line stroke-linecap="round" stroke-width="0.36" stroke="white"  y1="161.993" y2="154.907" x1="124.6" x2="136.874"/>
                <line stroke-linecap="round" stroke-width="0.36" stroke="white"  y1="154.907" y2="164.971" x1="136.874" x2="142.685"/>
                <line stroke-linecap="round" stroke-width="0.36" stroke="white"  y1="164.971" y2="167.181" x1="142.685" x2="143.96"/>
                <line stroke-linecap="round" stroke-width="0.36" stroke="white"  y1="167.181" y2="168.456" x1="143.96" x2="141.751"/>
                <line stroke-linecap="round" stroke-width="0.36" stroke="white"  y1="168.456" y2="174.267" x1="141.751" x2="131.686"/>
                <line stroke-linecap="round" stroke-width="0.36" stroke="white"  y1="174.267" y2="161.993" x1="131.686" x2="124.6"/>
                <line stroke-linecap="round" stroke-width="0.36" stroke="white"  y1="164.971" y2="168.456" x1="142.685" x2="141.751"/>
                <line stroke-linecap="round" stroke-width="0.36" stroke="white"  y1="168.456" y2="169.812" x1="141.751" x2="141.388"/>
                <line stroke-linecap="round" stroke-width="0.36" stroke="white"  y1="169.812" y2="170.279" x1="141.388" x2="143.13"/>
                <line stroke-linecap="round" stroke-width="0.36" stroke="white"  y1="170.279" y2="167.181" x1="143.13" x2="143.96"/>
                <circle fill="none" r="4.8769" stroke-width="0.36" stroke="white"  cx="134.28" cy="164.587"/>
            </g>
        </g>
        <g >
            <title >element:LED12</title>
            <g >
                <title >package:WS2812B-NARROW</title>
                <line stroke-linecap="round" stroke-width="0.36" stroke="white"  y1="167.847" y2="164.179" x1="105.63" x2="119.321"/>
                <line stroke-linecap="round" stroke-width="0.36" stroke="white"  y1="164.179" y2="175.405" x1="119.321" x2="122.329"/>
                <line stroke-linecap="round" stroke-width="0.36" stroke="white"  y1="175.405" y2="177.87" x1="122.329" x2="122.99"/>
                <line stroke-linecap="round" stroke-width="0.36" stroke="white"  y1="177.87" y2="178.53" x1="122.99" x2="120.525"/>
                <line stroke-linecap="round" stroke-width="0.36" stroke="white"  y1="178.53" y2="181.538" x1="120.525" x2="109.299"/>
                <line stroke-linecap="round" stroke-width="0.36" stroke="white"  y1="181.538" y2="167.847" x1="109.299" x2="105.63"/>
                <line stroke-linecap="round" stroke-width="0.36" stroke="white"  y1="175.405" y2="178.53" x1="122.329" x2="120.525"/>
                <line stroke-linecap="round" stroke-width="0.36" stroke="white"  y1="178.53" y2="179.744" x1="120.525" x2="119.824"/>
                <line stroke-linecap="round" stroke-width="0.36" stroke="white"  y1="179.744" y2="180.647" x1="119.824" x2="121.386"/>
                <line stroke-linecap="round" stroke-width="0.36" stroke="white"  y1="180.647" y2="177.87" x1="121.386" x2="122.99"/>
                <circle fill="none" r="4.8769" stroke-width="0.36" stroke="white"  cx="114.31" cy="172.858"/>
            </g>
        </g>
        <g >
            <title >element:LED14</title>
            <g >
                <title >package:WS2812B-NARROW</title>
                <line stroke-linecap="round" stroke-width="0.36" stroke="white"  y1="164.179" y2="167.847" x1="66.4389" x2="80.1295"/>
                <line stroke-linecap="round" stroke-width="0.36" stroke="white"  y1="167.847" y2="179.073" x1="80.1295" x2="77.1214"/>
                <line stroke-linecap="round" stroke-width="0.36" stroke="white"  y1="179.073" y2="181.538" x1="77.1214" x2="76.4611"/>
                <line stroke-linecap="round" stroke-width="0.36" stroke="white"  y1="181.538" y2="180.878" x1="76.4611" x2="73.9966"/>
                <line stroke-linecap="round" stroke-width="0.36" stroke="white"  y1="180.878" y2="177.87" x1="73.9966" x2="62.7706"/>
                <line stroke-linecap="round" stroke-width="0.36" stroke="white"  y1="177.87" y2="164.179" x1="62.7706" x2="66.4389"/>
                <line stroke-linecap="round" stroke-width="0.36" stroke="white"  y1="179.073" y2="180.878" x1="77.1214" x2="73.9966"/>
                <line stroke-linecap="round" stroke-width="0.36" stroke="white"  y1="180.878" y2="181.579" x1="73.9966" x2="72.7819"/>
                <line stroke-linecap="round" stroke-width="0.36" stroke="white"  y1="181.579" y2="183.141" x1="72.7819" x2="73.6834"/>
                <line stroke-linecap="round" stroke-width="0.36" stroke="white"  y1="183.141" y2="181.538" x1="73.6834" x2="76.4611"/>
                <circle fill="none" r="4.8769" stroke-width="0.36" stroke="white"  cx="71.4499" cy="172.858"/>
            </g>
        </g>
        <g >
            <title >element:LED15</title>
            <g >
                <title >package:WS2812B-NARROW</title>
                <line stroke-linecap="round" stroke-width="0.36" stroke="white"  y1="154.907" y2="161.993" x1="48.8861" x2="61.1605"/>
                <line stroke-linecap="round" stroke-width="0.36" stroke="white"  y1="161.993" y2="172.058" x1="61.1605" x2="55.3495"/>
                <line stroke-linecap="round" stroke-width="0.36" stroke="white"  y1="172.058" y2="174.267" x1="55.3495" x2="54.0739"/>
                <line stroke-linecap="round" stroke-width="0.36" stroke="white"  y1="174.267" y2="172.992" x1="54.0739" x2="51.8645"/>
                <line stroke-linecap="round" stroke-width="0.36" stroke="white"  y1="172.992" y2="167.181" x1="51.8645" x2="41.7995"/>
                <line stroke-linecap="round" stroke-width="0.36" stroke="white"  y1="167.181" y2="154.907" x1="41.7995" x2="48.8861"/>
                <line stroke-linecap="round" stroke-width="0.36" stroke="white"  y1="172.058" y2="172.992" x1="55.3495" x2="51.8645"/>
                <line stroke-linecap="round" stroke-width="0.36" stroke="white"  y1="172.992" y2="173.355" x1="51.8645" x2="50.5092"/>
                <line stroke-linecap="round" stroke-width="0.36" stroke="white"  y1="173.355" y2="175.098" x1="50.5092" x2="50.9761"/>
                <line stroke-linecap="round" stroke-width="0.36" stroke="white"  y1="175.098" y2="174.267" x1="50.9761" x2="54.0739"/>
                <circle fill="none" r="4.8769" stroke-width="0.36" stroke="white"  cx="51.48" cy="164.587"/>
            </g>
        </g>
        <g >
            <title >element:LED16</title>
            <g >
                <title >package:WS2812B-NARROW</title>
                <line stroke-linecap="round" stroke-width="0.36" stroke="white"  y1="141.407" y2="151.428" x1="34.3318" x2="44.3537"/>
                <line stroke-linecap="round" stroke-width="0.36" stroke="white"  y1="151.428" y2="159.646" x1="44.3537" x2="36.1357"/>
                <line stroke-linecap="round" stroke-width="0.36" stroke="white"  y1="159.646" y2="161.45" x1="36.1357" x2="34.3318"/>
                <line stroke-linecap="round" stroke-width="0.36" stroke="white"  y1="161.45" y2="159.646" x1="34.3318" x2="32.5278"/>
                <line stroke-linecap="round" stroke-width="0.36" stroke="white"  y1="159.646" y2="151.428" x1="32.5278" x2="24.3098"/>
                <line stroke-linecap="round" stroke-width="0.36" stroke="white"  y1="151.428" y2="141.407" x1="24.3098" x2="34.3318"/>
                <line stroke-linecap="round" stroke-width="0.36" stroke="white"  y1="159.646" y2="159.646" x1="36.1357" x2="32.5278"/>
                <line stroke-linecap="round" stroke-width="0.36" stroke="white"  y1="159.646" y2="159.646" x1="32.5278" x2="31.1247"/>
                <line stroke-linecap="round" stroke-width="0.36" stroke="white"  y1="159.646" y2="161.45" x1="31.1247" x2="31.1247"/>
                <line stroke-linecap="round" stroke-width="0.36" stroke="white"  y1="161.45" y2="161.45" x1="31.1247" x2="34.3318"/>
                <circle fill="none" r="4.8769" stroke-width="0.36" stroke="white"  cx="34.3318" cy="151.428"/>
            </g>
        </g>
        <g >
            <title >element:LED17</title>
            <g >
                <title >package:WS2812B-NARROW</title>
                <line stroke-linecap="round" stroke-width="0.36" stroke="white"  y1="124.6" y2="136.874" x1="23.7669" x2="30.8535"/>
                <line stroke-linecap="round" stroke-width="0.36" stroke="white"  y1="136.874" y2="142.685" x1="30.8535" x2="20.7886"/>
                <line stroke-linecap="round" stroke-width="0.36" stroke="white"  y1="142.685" y2="143.96" x1="20.7886" x2="18.5792"/>
                <line stroke-linecap="round" stroke-width="0.36" stroke="white"  y1="143.96" y2="141.751" x1="18.5792" x2="17.3035"/>
                <line stroke-linecap="round" stroke-width="0.36" stroke="white"  y1="141.751" y2="131.686" x1="17.3035" x2="11.4926"/>
                <line stroke-linecap="round" stroke-width="0.36" stroke="white"  y1="131.686" y2="124.6" x1="11.4926" x2="23.7669"/>
                <line stroke-linecap="round" stroke-width="0.36" stroke="white"  y1="142.685" y2="141.751" x1="20.7886" x2="17.3035"/>
                <line stroke-linecap="round" stroke-width="0.36" stroke="white"  y1="141.751" y2="141.388" x1="17.3035" x2="15.9483"/>
                <line stroke-linecap="round" stroke-width="0.36" stroke="white"  y1="141.388" y2="143.13" x1="15.9483" x2="15.4814"/>
                <line stroke-linecap="round" stroke-width="0.36" stroke="white"  y1="143.13" y2="143.96" x1="15.4814" x2="18.5792"/>
                <circle fill="none" r="4.8769" stroke-width="0.36" stroke="white"  cx="21.173" cy="134.28"/>
            </g>
        </g>
        <g >
            <title >element:LED18</title>
            <g >
                <title >package:WS2812B-NARROW</title>
                <line stroke-linecap="round" stroke-width="0.36" stroke="white"  y1="105.63" y2="119.321" x1="17.9127" x2="21.581"/>
                <line stroke-linecap="round" stroke-width="0.36" stroke="white"  y1="119.321" y2="122.329" x1="21.581" x2="10.355"/>
                <line stroke-linecap="round" stroke-width="0.36" stroke="white"  y1="122.329" y2="122.99" x1="10.355" x2="7.8907"/>
                <line stroke-linecap="round" stroke-width="0.36" stroke="white"  y1="122.99" y2="120.525" x1="7.8907" x2="7.23038"/>
                <line stroke-linecap="round" stroke-width="0.36" stroke="white"  y1="120.525" y2="109.299" x1="7.23038" x2="4.22239"/>
                <line stroke-linecap="round" stroke-width="0.36" stroke="white"  y1="109.299" y2="105.63" x1="4.22239" x2="17.9127"/>
                <line stroke-linecap="round" stroke-width="0.36" stroke="white"  y1="122.329" y2="120.525" x1="10.355" x2="7.23038"/>
                <line stroke-linecap="round" stroke-width="0.36" stroke="white"  y1="120.525" y2="119.824" x1="7.23038" x2="6.0153"/>
                <line stroke-linecap="round" stroke-width="0.36" stroke="white"  y1="119.824" y2="121.386" x1="6.0153" x2="5.11331"/>
                <line stroke-linecap="round" stroke-width="0.36" stroke="white"  y1="121.386" y2="122.99" x1="5.11331" x2="7.8907"/>
                <circle fill="none" r="4.8769" stroke-width="0.36" stroke="white"  cx="12.9017" cy="114.31"/>
            </g>
        </g>
        <g >
            <title >element:LED20</title>
            <g >
                <title >package:WS2812B-NARROW</title>
                <line stroke-linecap="round" stroke-width="0.36" stroke="white"  y1="66.4389" y2="80.1295" x1="21.581" x2="17.9127"/>
                <line stroke-linecap="round" stroke-width="0.36" stroke="white"  y1="80.1295" y2="77.1214" x1="17.9127" x2="6.68664"/>
                <line stroke-linecap="round" stroke-width="0.36" stroke="white"  y1="77.1214" y2="76.4611" x1="6.68664" x2="4.22239"/>
                <line stroke-linecap="round" stroke-width="0.36" stroke="white"  y1="76.4611" y2="73.9966" x1="4.22239" x2="4.88268"/>
                <line stroke-linecap="round" stroke-width="0.36" stroke="white"  y1="73.9966" y2="62.7706" x1="4.88268" x2="7.8907"/>
                <line stroke-linecap="round" stroke-width="0.36" stroke="white"  y1="62.7706" y2="66.4389" x1="7.8907" x2="21.581"/>
                <line stroke-linecap="round" stroke-width="0.36" stroke="white"  y1="77.1214" y2="73.9966" x1="6.68664" x2="4.88268"/>
                <line stroke-linecap="round" stroke-width="0.36" stroke="white"  y1="73.9966" y2="72.7819" x1="4.88268" x2="4.18115"/>
                <line stroke-linecap="round" stroke-width="0.36" stroke="white"  y1="72.7819" y2="73.6834" x1="4.18115" x2="2.61887"/>
                <line stroke-linecap="round" stroke-width="0.36" stroke="white"  y1="73.6834" y2="76.4611" x1="2.61887" x2="4.22239"/>
                <circle fill="none" r="4.8769" stroke-width="0.36" stroke="white"  cx="12.9017" cy="71.4499"/>
            </g>
        </g>
        <g >
            <title >element:LED21</title>
            <g >
                <title >package:WS2812B-NARROW</title>
                <line stroke-linecap="round" stroke-width="0.36" stroke="white"  y1="48.8861" y2="61.1605" x1="30.8535" x2="23.7669"/>
                <line stroke-linecap="round" stroke-width="0.36" stroke="white"  y1="61.1605" y2="55.3495" x1="23.7669" x2="13.702"/>
                <line stroke-linecap="round" stroke-width="0.36" stroke="white"  y1="55.3495" y2="54.0739" x1="13.702" x2="11.4926"/>
                <line stroke-linecap="round" stroke-width="0.36" stroke="white"  y1="54.0739" y2="51.8645" x1="11.4926" x2="12.7681"/>
                <line stroke-linecap="round" stroke-width="0.36" stroke="white"  y1="51.8645" y2="41.7995" x1="12.7681" x2="18.5792"/>
                <line stroke-linecap="round" stroke-width="0.36" stroke="white"  y1="41.7995" y2="48.8861" x1="18.5792" x2="30.8535"/>
                <line stroke-linecap="round" stroke-width="0.36" stroke="white"  y1="55.3495" y2="51.8645" x1="13.702" x2="12.7681"/>
                <line stroke-linecap="round" stroke-width="0.36" stroke="white"  y1="51.8645" y2="50.5092" x1="12.7681" x2="12.405"/>
                <line stroke-linecap="round" stroke-width="0.36" stroke="white"  y1="50.5092" y2="50.9761" x1="12.405" x2="10.6625"/>
                <line stroke-linecap="round" stroke-width="0.36" stroke="white"  y1="50.9761" y2="54.0739" x1="10.6625" x2="11.4926"/>
                <circle fill="none" r="4.8769" stroke-width="0.36" stroke="white"  cx="21.173" cy="51.48"/>
            </g>
        </g>
        <g >
            <title >element:LED22</title>
            <g >
                <title >package:WS2812B-NARROW</title>
                <line stroke-linecap="round" stroke-width="0.36" stroke="white"  y1="34.3318" y2="44.3537" x1="44.3537" x2="34.3318"/>
                <line stroke-linecap="round" stroke-width="0.36" stroke="white"  y1="44.3537" y2="36.1357" x1="34.3318" x2="26.1138"/>
                <line stroke-linecap="round" stroke-width="0.36" stroke="white"  y1="36.1357" y2="34.3318" x1="26.1138" x2="24.3098"/>
                <line stroke-linecap="round" stroke-width="0.36" stroke="white"  y1="34.3318" y2="32.5278" x1="24.3098" x2="26.1138"/>
                <line stroke-linecap="round" stroke-width="0.36" stroke="white"  y1="32.5278" y2="24.3098" x1="26.1138" x2="34.3318"/>
                <line stroke-linecap="round" stroke-width="0.36" stroke="white"  y1="24.3098" y2="34.3318" x1="34.3318" x2="44.3537"/>
                <line stroke-linecap="round" stroke-width="0.36" stroke="white"  y1="36.1357" y2="32.5278" x1="26.1138" x2="26.1138"/>
                <line stroke-linecap="round" stroke-width="0.36" stroke="white"  y1="32.5278" y2="31.1247" x1="26.1138" x2="26.1138"/>
                <line stroke-linecap="round" stroke-width="0.36" stroke="white"  y1="31.1247" y2="31.1247" x1="26.1138" x2="24.3098"/>
                <line stroke-linecap="round" stroke-width="0.36" stroke="white"  y1="31.1247" y2="34.3318" x1="24.3098" x2="24.3098"/>
                <circle fill="none" r="4.8769" stroke-width="0.36" stroke="white"  cx="34.3318" cy="34.3318"/>
            </g>
        </g>
        <g >
            <title >element:LED23</title>
            <g >
                <title >package:WS2812B-NARROW</title>
                <line stroke-linecap="round" stroke-width="0.36" stroke="white"  y1="23.7669" y2="30.8535" x1="61.1605" x2="48.8861"/>
                <line stroke-linecap="round" stroke-width="0.36" stroke="white"  y1="30.8535" y2="20.7886" x1="48.8861" x2="43.0751"/>
                <line stroke-linecap="round" stroke-width="0.36" stroke="white"  y1="20.7886" y2="18.5792" x1="43.0751" x2="41.7995"/>
                <line stroke-linecap="round" stroke-width="0.36" stroke="white"  y1="18.5792" y2="17.3035" x1="41.7995" x2="44.0089"/>
                <line stroke-linecap="round" stroke-width="0.36" stroke="white"  y1="17.3035" y2="11.4926" x1="44.0089" x2="54.0739"/>
                <line stroke-linecap="round" stroke-width="0.36" stroke="white"  y1="11.4926" y2="23.7669" x1="54.0739" x2="61.1605"/>
                <line stroke-linecap="round" stroke-width="0.36" stroke="white"  y1="20.7886" y2="17.3035" x1="43.0751" x2="44.0089"/>
                <line stroke-linecap="round" stroke-width="0.36" stroke="white"  y1="17.3035" y2="15.9483" x1="44.0089" x2="44.372"/>
                <line stroke-linecap="round" stroke-width="0.36" stroke="white"  y1="15.9483" y2="15.4814" x1="44.372" x2="42.6295"/>
                <line stroke-linecap="round" stroke-width="0.36" stroke="white"  y1="15.4814" y2="18.5792" x1="42.6295" x2="41.7995"/>
                <circle fill="none" r="4.8769" stroke-width="0.36" stroke="white"  cx="51.48" cy="21.173"/>
            </g>
        </g>
        <g >
            <title >element:LED24</title>
            <g >
                <title >package:WS2812B-NARROW</title>
                <line stroke-linecap="round" stroke-width="0.36" stroke="white"  y1="17.9127" y2="21.581" x1="80.1295" x2="66.4389"/>
                <line stroke-linecap="round" stroke-width="0.36" stroke="white"  y1="21.581" y2="10.355" x1="66.4389" x2="63.4309"/>
                <line stroke-linecap="round" stroke-width="0.36" stroke="white"  y1="10.355" y2="7.8907" x1="63.4309" x2="62.7706"/>
                <line stroke-linecap="round" stroke-width="0.36" stroke="white"  y1="7.8907" y2="7.23038" x1="62.7706" x2="65.2349"/>
                <line stroke-linecap="round" stroke-width="0.36" stroke="white"  y1="7.23038" y2="4.22239" x1="65.2349" x2="76.4611"/>
                <line stroke-linecap="round" stroke-width="0.36" stroke="white"  y1="4.22239" y2="17.9127" x1="76.4611" x2="80.1295"/>
                <line stroke-linecap="round" stroke-width="0.36" stroke="white"  y1="10.355" y2="7.23038" x1="63.4309" x2="65.2349"/>
                <line stroke-linecap="round" stroke-width="0.36" stroke="white"  y1="7.23038" y2="6.0153" x1="65.2349" x2="65.9364"/>
                <line stroke-linecap="round" stroke-width="0.36" stroke="white"  y1="6.0153" y2="5.11331" x1="65.9364" x2="64.3741"/>
                <line stroke-linecap="round" stroke-width="0.36" stroke="white"  y1="5.11331" y2="7.8907" x1="64.3741" x2="62.7706"/>
                <circle fill="none" r="4.8769" stroke-width="0.36" stroke="white"  cx="71.4499" cy="12.9017"/>
            </g>
        </g>
    </g>
    <g  id="copper1" gorn="0.3">
        <g  id="copper0" gorn="0.3.0">
            <circle fill="none" r="1.93266" stroke-width="1.03068" connectorname="1" stroke="#F7BD13"  id="connector37pad" gorn="0.3.0.0" cx="104.616" cy="4.104"/>
            <circle fill="none" r="1.93266" stroke-width="1.03068" connectorname="1" stroke="#F7BD13"  id="connector38pad" gorn="0.3.0.1" cx="58.68" cy="10.08"/>
            <circle fill="none" r="1.93266" stroke-width="1.03068" connectorname="VDD" stroke="#F7BD13"  id="connector39pad" gorn="0.3.0.2" cx="81.144" cy="181.656"/>
            <circle fill="none" r="1.93266" stroke-width="1.03068" connectorname="GND" stroke="#F7BD13"  id="connector40pad" gorn="0.3.0.3" cx="127.152" cy="175.608"/>
            <circle fill="none" r="1.93266" stroke-width="1.03068" connectorname="VDD" stroke="#F7BD13"  id="connector41pad" gorn="0.3.0.4" cx="38.376" cy="163.944"/>
            <circle fill="none" r="1.93266" stroke-width="1.03068" connectorname="GND" stroke="#F7BD13"  id="connector42pad" gorn="0.3.0.5" cx="164.016" cy="147.456"/>
        </g>
    </g>
</svg>
