<?xml version='1.0' encoding='UTF-8' standalone='no'?>
<!-- Created with Fritzing (http://www.fritzing.org/) -->
<svg xmlns="http://www.w3.org/2000/svg" baseProfile="tiny" viewBox="0 0 79.2 48.6" x="0in" version="1.2" height="0.675in" y="0in"  width="1.1in">
    <desc >
        <referenceFile >Adafruit ADS1015 12Bit I2C ADC_pcb.svg</referenceFile>
    </desc>
    <desc >Fritzing footprint generated by brd2svg</desc>
    <g gorn="0.2" id="silkscreen" >
        <path stroke-width="0.576" stroke="white" d="M78.912,7.40268L78.912,41.1973A6.912,6.912,0,0,1,71.7643,48.312L7.43566,48.312A6.912,6.912,0,0,1,0.288,41.1973L0.288,7.40268A6.912,6.912,0,0,1,7.43566,0.288L71.7643,0.288A6.912,6.912,0,0,1,78.912,7.40268"  fill="none"/>
        <g >
            <title >element:JP1</title>
            <g >
                <title >package:1X10_ROUND70</title>
            </g>
        </g>
        <g >
            <title >element:U$15</title>
            <g >
                <title >package:ADAFRUIT_TEXT_20MM</title>
            </g>
        </g>
    </g>
    <g gorn="0.3" id="copper1" >
        <g gorn="0.3.0" id="copper0" >
            <circle cx="72" stroke-width="1.10268" gorn="0.3.0.0" id="connector10pad" stroke="#F7BD13" cy="43.2" connectorname="AIN3" r="1.96866"  fill="none"/>
            <circle cx="64.8" stroke-width="1.10268" gorn="0.3.0.1" id="connector11pad" stroke="#F7BD13" cy="43.2" connectorname="AIN2" r="1.96866"  fill="none"/>
            <circle cx="57.6" stroke-width="1.10268" gorn="0.3.0.2" id="connector12pad" stroke="#F7BD13" cy="43.2" connectorname="AIN1" r="1.96866"  fill="none"/>
            <circle cx="50.4" stroke-width="1.10268" gorn="0.3.0.3" id="connector13pad" stroke="#F7BD13" cy="43.2" connectorname="AIN0" r="1.96866"  fill="none"/>
            <circle cx="43.2" stroke-width="1.10268" gorn="0.3.0.4" id="connector14pad" stroke="#F7BD13" cy="43.2" connectorname="ALERT" r="1.96866"  fill="none"/>
            <circle cx="36" stroke-width="1.10268" gorn="0.3.0.5" id="connector15pad" stroke="#F7BD13" cy="43.2" connectorname="ADDR" r="1.96866"  fill="none"/>
            <circle cx="28.8" stroke-width="1.10268" gorn="0.3.0.6" id="connector16pad" stroke="#F7BD13" cy="43.2" connectorname="SDA" r="1.96866"  fill="none"/>
            <circle cx="21.6" stroke-width="1.10268" gorn="0.3.0.7" id="connector17pad" stroke="#F7BD13" cy="43.2" connectorname="SCL" r="1.96866"  fill="none"/>
            <circle cx="14.4" stroke-width="1.10268" gorn="0.3.0.8" id="connector18pad" stroke="#F7BD13" cy="43.2" connectorname="GND" r="1.96866"  fill="none"/>
            <circle cx="7.2" stroke-width="1.10268" gorn="0.3.0.9" id="connector19pad" stroke="#F7BD13" cy="43.2" connectorname="VDD" r="1.96866"  fill="none"/>
        </g>
    </g>
</svg>
