<?xml version='1.0' encoding='UTF-8' standalone='no'?>
<!-- Created with Fritzing (http://www.fritzing.org/) -->
<svg xmlns="http://www.w3.org/2000/svg" baseProfile="tiny" version="1.2"  x="0in" y="0in" width="0.9in" height="0.825827in" viewBox="0 0 64.8 59.4595">
    <desc >
        <referenceFile >Adafruit INA169_pcb.svg</referenceFile>
    </desc>
    <desc >Fritzing footprint generated by brd2svg</desc>
    <g gorn="0.2"  id="silkscreen">
        <path d="M0.288,52.0412L0.288,7.43508A6.912,6.912,0,0,1,7.42399,0.304843L57.376,0.304843A6.912,6.912,0,0,1,64.512,7.43508L64.512,52.0412A6.912,6.912,0,0,1,57.376,59.1715L7.42399,59.1715A6.912,6.912,0,0,1,0.288,52.0412" stroke-width="0.576" stroke="white"  fill="none"/>
        <g >
            <title >element:J1</title>
            <g >
                <title >package:TERMBLOCK_1X2-3.5MM</title>
                <line stroke-width="0.576" stroke-linecap="round" x1="41.9612" stroke="white"  y2="3.9685" x2="41.9612" y1="19.8426"/>
                <line stroke-width="0.576" stroke-linecap="round" x1="41.9612" stroke="white"  y2="0" x2="41.9612" y1="3.9685"/>
                <line stroke-width="0.576" stroke-linecap="round" x1="41.9612" stroke="white"  y2="0" x2="22.1188" y1="0"/>
                <line stroke-width="0.576" stroke-linecap="round" x1="22.1188" stroke="white"  y2="3.9685" x2="22.1188" y1="0"/>
                <line stroke-width="0.576" stroke-linecap="round" x1="22.1188" stroke="white"  y2="19.8426" x2="22.1188" y1="3.9685"/>
                <line stroke-width="0.576" stroke-linecap="round" x1="22.1188" stroke="white"  y2="19.8426" x2="41.9612" y1="19.8426"/>
                <line stroke-width="0.576" stroke-linecap="round" x1="41.9612" stroke="white"  y2="3.9685" x2="22.1188" y1="3.9685"/>
            </g>
        </g>
        <g >
            <title >element:R1</title>
            <g >
                <title >package:0805-THM</title>
                <path d="M57.24,38.2195A0.72,0.72,0,0,0,57.96,38.9395" stroke-width="0.576" stroke="white"  fill="none"/>
                <path d="M63,38.9395A0.72,0.72,0,0,0,63.72,38.2195" stroke-width="0.576" stroke="white"  fill="none"/>
                <path d="M63.72,21.6595A0.72,0.72,0,0,0,63,20.9395" stroke-width="0.576" stroke="white"  fill="none"/>
                <path d="M57.96,20.9395A0.72,0.72,0,0,0,57.24,21.6595" stroke-width="0.576" stroke="white"  fill="none"/>
                <line stroke-width="0.576" stroke-linecap="round" x1="63" stroke="white"  y2="38.9395" x2="57.96" y1="38.9395"/>
                <line stroke-width="0.576" stroke-linecap="round" x1="57.24" stroke="white"  y2="37.1395" x2="57.24" y1="38.2195"/>
                <line stroke-width="0.576" stroke-linecap="round" x1="57.6" stroke="white"  y2="37.1395" x2="57.24" y1="36.7795"/>
                <line stroke-width="0.576" stroke-linecap="round" x1="63.72" stroke="white"  y2="37.1395" x2="63.72" y1="38.2195"/>
                <line stroke-width="0.576" stroke-linecap="round" x1="63.36" stroke="white"  y2="37.1395" x2="63.72" y1="36.7795"/>
                <line stroke-width="0.576" stroke-linecap="round" x1="57.6" stroke="white"  y2="22.7395" x2="57.24" y1="23.0995"/>
                <line stroke-width="0.576" stroke-linecap="round" x1="57.6" stroke="white"  y2="36.7795" x2="57.6" y1="23.0995"/>
                <line stroke-width="0.576" stroke-linecap="round" x1="63.36" stroke="white"  y2="22.7395" x2="63.72" y1="23.0995"/>
                <line stroke-width="0.576" stroke-linecap="round" x1="63.36" stroke="white"  y2="36.7795" x2="63.36" y1="23.0995"/>
                <line stroke-width="0.576" stroke-linecap="round" x1="57.24" stroke="white"  y2="22.7395" x2="57.24" y1="21.6595"/>
                <line stroke-width="0.576" stroke-linecap="round" x1="63.72" stroke="white"  y2="22.7395" x2="63.72" y1="21.6595"/>
                <line stroke-width="0.576" stroke-linecap="round" x1="63" stroke="white"  y2="20.9395" x2="57.96" y1="20.9395"/>
            </g>
        </g>
        <g >
            <title >element:RSHUNT</title>
            <g >
                <title >package:2512</title>
            </g>
        </g>
        <line stroke-width="0.576" x1="22.1188" stroke="white"  fill-opacity="1" y2="0.288" x2="41.9612" y1="0.288" fill="none"/>
        <line stroke-width="0.576" x1="22.1188" stroke="white"  fill-opacity="1" y2="0.288" x2="22.1188" y1="0.0170079" fill="none"/>
        <line stroke-width="0.576" x1="41.9612" stroke="white"  fill-opacity="1" y2="0.288" x2="41.9612" y1="0.0170079" fill="none"/>
    </g>
    <g gorn="0.3"  id="copper1">
        <g gorn="0.3.0"  id="copper0">
            <circle cx="7.2" gorn="0.3.0.0" stroke-width="0.992124" r="4.03937" stroke="#F7BD13"  id="connector17pad" cy="7.21699" connectorname="P$1" fill="none"/>
            <circle cx="57.6" gorn="0.3.0.1" stroke-width="0.992124" r="4.03937" stroke="#F7BD13"  id="connector15pad" cy="52.2595" connectorname="P$1" fill="none"/>
            <circle cx="27.2211" gorn="0.3.0.2" stroke-width="1.67868" r="2.25666" stroke="#F7BD13"  id="connector4pad" cy="10.2047" connectorname="VIN-" fill="none"/>
            <circle cx="37.1424" gorn="0.3.0.3" stroke-width="1.67868" r="2.25666" stroke="#F7BD13"  id="connector5pad" cy="10.2047" connectorname="VIN+" fill="none"/>
            <circle cx="18" gorn="0.3.0.4" stroke-width="1.10268" r="1.96866" stroke="#F7BD13"  id="connector6pad" cy="52.2595" connectorname="VCC" fill="none"/>
            <rect stroke-width="1.10268" stroke="#F7BD13"  x="16.0313" y="50.2908" width="3.93732" height="3.93732" fill="none"/>
            <circle cx="25.2" gorn="0.3.0.6" stroke-width="1.10268" r="1.96866" stroke="#F7BD13"  id="connector7pad" cy="52.2595" connectorname="GND" fill="none"/>
            <circle cx="7.2" gorn="0.3.0.7" stroke-width="0.992124" r="4.03937" stroke="#F7BD13"  id="connector16pad" cy="52.2595" connectorname="P$1" fill="none"/>
            <circle cx="32.4" gorn="0.3.0.8" stroke-width="1.10268" r="1.96866" stroke="#F7BD13"  id="connector8pad" cy="52.2595" connectorname="VIN-" fill="none"/>
            <circle cx="57.6" gorn="0.3.0.9" stroke-width="0.992124" r="4.03937" stroke="#F7BD13"  id="connector18pad" cy="7.21699" connectorname="P$1" fill="none"/>
            <circle cx="39.6" gorn="0.3.0.10" stroke-width="1.10268" r="1.96866" stroke="#F7BD13"  id="connector9pad" cy="52.2595" connectorname="VIN+" fill="none"/>
            <circle cx="46.8" gorn="0.3.0.11" stroke-width="1.10268" r="1.96866" stroke="#F7BD13"  id="connector10pad" cy="52.2595" connectorname="OUT" fill="none"/>
            <circle cx="60.48" gorn="0.3.0.12" stroke-width="1.224" r="1.764" stroke="#F7BD13"  id="connector11pad" cy="44.3395" connectorname="OUT" fill="none"/>
            <circle cx="60.48" gorn="0.3.0.13" stroke-width="1.224" r="1.764" stroke="#F7BD13"  id="connector12pad" cy="15.5395" connectorname="GND" fill="none"/>
        </g>
    </g>
</svg>
