<?xml version='1.0' encoding='UTF-8' standalone='no'?>
<!-- Created with Fritzing (http://www.fritzing.org/) -->
<svg xmlns="http://www.w3.org/2000/svg" height="0.65in" baseProfile="tiny"  version="1.2" viewBox="0 0 64.8 46.8" x="0in" width="0.9in" y="0in">
    <desc >
        <referenceFile >prefix0000_048c34de92eb062e3d1564e9e542b1cf_1_pcb.svg</referenceFile>
    </desc>
    <desc >Fritzing footprint generated by brd2svg</desc>
    <g  gorn="0.2" id="silkscreen">
        <path stroke="white"  fill="none" d="M7.42399,0.288L16.6501,0.288A3.312,3.312,0,0,1,19.173,1.32944L22.0782,4.22453A3.312,3.312,0,0,0,24.6011,5.26597L40.1989,5.26597A3.312,3.312,0,0,0,42.7218,4.22453L45.627,1.32944A3.312,3.312,0,0,1,48.1499,0.288L57.376,0.288A6.912,6.912,0,0,1,64.512,7.39937L64.512,39.4006A6.912,6.912,0,0,1,57.376,46.512L7.42399,46.512A6.912,6.912,0,0,1,0.288,39.4006L0.288,7.39937A6.912,6.912,0,0,1,7.42399,0.288" stroke-width="0.576"/>
        <g >
            <title >element:B1</title>
            <g >
                <title >package:CR1220</title>
                <line stroke="white"  stroke-linecap="round" x1="3.6" x2="13.68" y1="24.84" y2="24.84" stroke-width="0.576"/>
                <line stroke="white"  stroke-linecap="round" x1="13.68" x2="13.68" y1="24.84" y2="30.6" stroke-width="0.576"/>
                <line stroke="white"  stroke-linecap="round" x1="13.68" x2="21.6" y1="30.6" y2="38.52" stroke-width="0.576"/>
                <line stroke="white"  stroke-linecap="round" x1="21.6" x2="43.2" y1="38.52" y2="38.52" stroke-width="0.576"/>
                <line stroke="white"  stroke-linecap="round" x1="43.2" x2="51.12" y1="38.52" y2="30.6" stroke-width="0.576"/>
                <line stroke="white"  stroke-linecap="round" x1="51.12" x2="51.12" y1="30.6" y2="24.84" stroke-width="0.576"/>
                <line stroke="white"  stroke-linecap="round" x1="51.12" x2="61.2" y1="24.84" y2="24.84" stroke-width="0.576"/>
                <line stroke="white"  stroke-linecap="round" x1="61.2" x2="61.2" y1="24.84" y2="14.76" stroke-width="0.576"/>
                <line stroke="white"  stroke-linecap="round" x1="61.2" x2="51.12" y1="14.76" y2="14.76" stroke-width="0.576"/>
                <line stroke="white"  stroke-linecap="round" x1="51.12" x2="51.12" y1="14.76" y2="1.08" stroke-width="0.576"/>
                <line stroke="white"  stroke-linecap="round" x1="13.68" x2="13.68" y1="1.08" y2="14.76" stroke-width="0.576"/>
                <line stroke="white"  stroke-linecap="round" x1="13.68" x2="3.6" y1="14.76" y2="14.76" stroke-width="0.576"/>
                <line stroke="white"  stroke-linecap="round" x1="3.6" x2="3.6" y1="14.76" y2="24.84" stroke-width="0.576"/>
            </g>
        </g>
        <g >
            <title >element:U$4</title>
            <g >
                <title >package:ADAFRUIT_5MM</title>
            </g>
        </g>
    </g>
    <g  gorn="0.3" id="copper1">
        <g  gorn="0.3.0" id="copper0">
            <circle connectorname="P$1" stroke="#F7BD13" cx="7.2"  cy="7.2" fill="none" gorn="0.3.0.0" r="4.26331" id="connector9pad" stroke-width="1.44"/>
            <circle connectorname="P$1" stroke="#F7BD13" cx="7.2"  cy="39.6" fill="none" gorn="0.3.0.1" r="4.26331" id="connector11pad" stroke-width="1.44"/>
            <circle connectorname="GND" stroke="#F7BD13" cx="43.2"  cy="43.2" fill="none" gorn="0.3.0.2" r="1.98" id="connector3pad" stroke-width="1.08"/>
            <rect height="0.01008" stroke="none"  fill="none" gorn="0.3.0.3" x="43.195" id="connector3terminal" width="0.01008" y="45.715" stroke-width="0"/>
            <circle connectorname="GND" stroke="#F7BD13" cx="36"  cy="43.2" fill="none" gorn="0.3.0.4" r="1.98" id="connector4pad" stroke-width="1.08"/>
            <rect height="0.01008" stroke="none"  fill="none" gorn="0.3.0.5" x="35.995" id="connector4terminal" width="0.01008" y="45.715" stroke-width="0"/>
            <circle connectorname="P$1" stroke="#F7BD13" cx="57.6"  cy="7.2" fill="none" gorn="0.3.0.6" r="4.26331" id="connector10pad" stroke-width="1.44"/>
            <circle connectorname="V+" stroke="#F7BD13" cx="28.8"  cy="43.2" fill="none" gorn="0.3.0.7" r="1.98" id="connector5pad" stroke-width="1.08"/>
            <rect height="0.01008" stroke="none"  fill="none" gorn="0.3.0.8" x="28.795" id="connector5terminal" width="0.01008" y="45.715" stroke-width="0"/>
            <circle connectorname="P$1" stroke="#F7BD13" cx="57.6"  cy="39.6" fill="none" gorn="0.3.0.9" r="4.26331" id="connector12pad" stroke-width="1.44"/>
            <circle connectorname="V+" stroke="#F7BD13" cx="21.6"  cy="43.2" fill="none" gorn="0.3.0.10" r="1.98" id="connector6pad" stroke-width="1.08"/>
            <rect height="0.01008" stroke="none"  fill="none" gorn="0.3.0.11" x="21.595" id="connector6terminal" width="0.01008" y="45.715" stroke-width="0"/>
        </g>
    </g>
</svg>
