<?xml version='1.0' encoding='UTF-8' standalone='no'?>
<!-- Created with Fritzing (http://www.fritzing.org/) -->
<svg xmlns="http://www.w3.org/2000/svg" y="0in" version="1.2"  x="0in" height="1.6in" viewBox="0 0 57.6 115.2" baseProfile="tiny" width="0.8in">
    <desc>
        <referenceFile>Adafruit Bluefruit EZ-Link_pcb.svg</referenceFile>
    </desc>
    <desc >Fritzing footprint generated by brd2svg</desc>
    <g  gorn="0.1" id="silkscreen">
        <path fill="none" stroke="white"  d="M0.288,114.912L0.288,7.452A6.912,6.912,0,0,1,7.416,0.288L50.184,0.288A6.912,6.912,0,0,1,57.312,7.452L57.312,114.912L0.288,114.912M49.3699,100.8a2.83011,2.83011,0,1,0,5.66022,0,2.83011,2.83011,0,1,0,-5.66022,0zM2.56989,100.8a2.83011,2.83011,0,1,0,5.66022,0,2.83011,2.83011,0,1,0,-5.66022,0zM2.56989,5.4a2.83011,2.83011,0,1,0,5.66022,0,2.83011,2.83011,0,1,0,-5.66022,0zM49.3699,5.4a2.83011,2.83011,0,1,0,5.66022,0,2.83011,2.83011,0,1,0,-5.66022,0z" stroke-width="0.576"/>
        <line y2="107.28" stroke-linecap="round" stroke="white"  y1="105.84" x1="30.24" x2="32.4" stroke-width="0.72"/>
        <line y2="105.84" stroke-linecap="round" stroke="white"  y1="107.28" x1="32.4" x2="34.56" stroke-width="0.72"/>
        <line y2="105.84" stroke-linecap="round" stroke="white"  y1="105.84" x1="34.56" x2="30.24" stroke-width="0.72"/>
        <line y2="107.28" stroke-linecap="round" stroke="white"  y1="107.28" x1="37.44" x2="41.76" stroke-width="0.72"/>
        <line y2="105.84" stroke-linecap="round" stroke="white"  y1="107.28" x1="41.76" x2="39.6" stroke-width="0.72"/>
        <line y2="107.28" stroke-linecap="round" stroke="white"  y1="105.84" x1="39.6" x2="37.44" stroke-width="0.72"/>
        <g >
            <title >element:JP4</title>
            <g >
                <title >package:1X06-BIG</title>
                <line y2="108" stroke-linecap="round" stroke="white"  y1="108" x1="7.2" x2="50.4" stroke-width="0.36"/>
                <line y2="115.2" stroke-linecap="round" stroke="white"  y1="108" x1="50.4" x2="50.4" stroke-width="0.36"/>
                <line y2="115.2" stroke-linecap="round" stroke="white"  y1="115.2" x1="50.4" x2="7.2" stroke-width="0.36"/>
                <line y2="108" stroke-linecap="round" stroke="white"  y1="115.2" x1="7.2" x2="7.2" stroke-width="0.36"/>
            </g>
        </g>
        <g >
            <title >element:U$4</title>
            <g >
                <title >package:BLUEFRUITLOGO_100MM</title>
            </g>
        </g>
        <g >
            <title >element:U1</title>
            <g >
                <title >package:BLUETOOTH_MODULE</title>
                <line y2="0.634961" stroke-linecap="round" stroke="white"  y1="0.634961" x1="9.80784" x2="47.7922" stroke-width="0.576"/>
                <line y2="0.634961" stroke-linecap="round" stroke="white"  y1="21.3278" x1="9.80784" x2="9.80784" stroke-width="0.576"/>
                <line y2="21.3278" stroke-linecap="round" stroke="white"  y1="0.634961" x1="47.7922" x2="47.7922" stroke-width="0.576"/>
                <line y2="76.32" stroke-linecap="round" stroke="white"  y1="80.005" x1="9.80784" x2="9.80784" stroke-width="0.576"/>
                <line y2="80.005" stroke-linecap="round" stroke="white"  y1="80.005" x1="11.7922" x2="9.80784" stroke-width="0.576"/>
                <line y2="80.005" stroke-linecap="round" stroke="white"  y1="76.6037" x1="47.7922" x2="47.7922" stroke-width="0.576"/>
                <line y2="80.005" stroke-linecap="round" stroke="white"  y1="80.005" x1="47.7922" x2="45.8078" stroke-width="0.576"/>
            </g>
        </g>
        <g >
            <title >element:VBAT</title>
            <g >
                <title >package:JST-PH-2-SMT-RA</title>
            </g>
        </g>
    </g>
    <g  gorn="0.2" id="copper1">
        <g  gorn="0.2.0" id="copper0">
            <circle cx="54" fill="none" connectorname="+3V3" stroke="#F7BD13"  stroke-width="1.08" cy="111.6" r="1.98" gorn="0.2.0.0" id="connector15pad"/>
            <circle cx="3.6" fill="none" connectorname="STATE" stroke="#F7BD13"  stroke-width="1.08" cy="111.6" r="1.98" gorn="0.2.0.1" id="connector16pad"/>
            <circle cx="10.8" fill="none" connectorname="GND" stroke="#F7BD13"  stroke-width="1.08" cy="111.6" r="1.98" gorn="0.2.0.2" id="connector17pad"/>
            <circle cx="18" fill="none" connectorname="DSR" stroke="#F7BD13"  stroke-width="1.08" cy="111.6" r="1.98" gorn="0.2.0.3" id="connector18pad"/>
            <circle cx="25.2" fill="none" connectorname="VIN" stroke="#F7BD13"  stroke-width="1.08" cy="111.6" r="1.98" gorn="0.2.0.4" id="connector19pad"/>
            <circle cx="32.4" fill="none" connectorname="TXD" stroke="#F7BD13"  stroke-width="1.08" cy="111.6" r="1.98" gorn="0.2.0.5" id="connector20pad"/>
            <circle cx="39.6" fill="none" connectorname="RXD" stroke="#F7BD13"  stroke-width="1.08" cy="111.6" r="1.98" gorn="0.2.0.6" id="connector21pad"/>
            <circle cx="46.8" fill="none" connectorname="RTS/DTR" stroke="#F7BD13"  stroke-width="1.08" cy="111.6" r="1.98" gorn="0.2.0.7" id="connector22pad"/>
        </g>
    </g>
</svg>
