<?xml version='1.0' encoding='UTF-8' standalone='no'?>
<!-- Created with Fritzing (http://www.fritzing.org/) -->
<svg xmlns="http://www.w3.org/2000/svg" x="0in" y="0in" version="1.2" viewBox="0 0 57.6 57.6" baseProfile="tiny"  height="0.8in" width="0.8in">
    <desc >
        <referenceFile >Thermocouple Amplifier with 1-Wire Breakout Board - MAX31850K_pcb.svg</referenceFile>
    </desc>
    <desc >Fritzing footprint generated by brd2svg</desc>
    <g gorn="0.2" id="silkscreen" >
        <path d="M57.312,7.416L57.312,50.184A6.912,6.912,0,0,1,50.184,57.312L7.416,57.312A6.912,6.912,0,0,1,0.288,50.184L0.288,7.416A6.912,6.912,0,0,1,7.416,0.288L50.184,0.288A6.912,6.912,0,0,1,57.312,7.416" stroke="white" fill="none" stroke-width="0.576" />
        <g >
            <title >element:JP1</title>
            <g >
                <title >package:1X08_ROUND_70</title>
            </g>
        </g>
        <g >
            <title >element:X1</title>
            <g >
                <title >package:TERMBLOCK_1X2-3.5MM</title>
                <line stroke-linecap="round" stroke="white" x2="38.4378" stroke-width="0.576" x1="38.4378"  y1="20.0778" y2="4.20378"/>
                <line stroke-linecap="round" stroke="white" x2="38.4378" stroke-width="0.576" x1="38.4378"  y1="4.20378" y2="0.235276"/>
                <line stroke-linecap="round" stroke="white" x2="18.5953" stroke-width="0.576" x1="38.4378"  y1="0.235276" y2="0.235276"/>
                <line stroke-linecap="round" stroke="white" x2="18.5953" stroke-width="0.576" x1="18.5953"  y1="0.235276" y2="4.20378"/>
                <line stroke-linecap="round" stroke="white" x2="18.5953" stroke-width="0.576" x1="18.5953"  y1="4.20378" y2="20.0778"/>
                <line stroke-linecap="round" stroke="white" x2="38.4378" stroke-width="0.576" x1="18.5953"  y1="20.0778" y2="20.0778"/>
                <line stroke-linecap="round" stroke="white" x2="18.5953" stroke-width="0.576" x1="38.4378"  y1="4.20378" y2="4.20378"/>
            </g>
        </g>
    </g>
    <g gorn="0.3" id="copper1" >
        <g gorn="0.3.0" id="copper0" >
            <circle gorn="0.3.0.0" id="connector26pad" stroke="#F7BD13" fill="none" cx="7.2" connectorname="P$1" stroke-width="1.44" cy="7.2"  r="4.26331"/>
            <circle gorn="0.3.0.1" id="connector44pad" stroke="#F7BD13" fill="none" cx="33.6189" connectorname="RED-" stroke-width="1.67868" cy="10.44"  r="2.25666"/>
            <circle gorn="0.3.0.2" id="connector17pad" stroke="#F7BD13" fill="none" cx="54" connectorname="DATA" stroke-width="1.10268" cy="50.4"  r="1.96866"/>
            <circle gorn="0.3.0.3" id="connector18pad" stroke="#F7BD13" fill="none" cx="46.8" connectorname="A3" stroke-width="1.10268" cy="50.4"  r="1.96866"/>
            <circle gorn="0.3.0.4" id="connector19pad" stroke="#F7BD13" fill="none" cx="39.6" connectorname="A2" stroke-width="1.10268" cy="50.4"  r="1.96866"/>
            <circle gorn="0.3.0.5" id="connector20pad" stroke="#F7BD13" fill="none" cx="32.4" connectorname="A1" stroke-width="1.10268" cy="50.4"  r="1.96866"/>
            <circle gorn="0.3.0.6" id="connector21pad" stroke="#F7BD13" fill="none" cx="25.2" connectorname="A0" stroke-width="1.10268" cy="50.4"  r="1.96866"/>
            <circle gorn="0.3.0.7" id="connector22pad" stroke="#F7BD13" fill="none" cx="18" connectorname="3.3V" stroke-width="1.10268" cy="50.4"  r="1.96866"/>
            <circle gorn="0.3.0.8" id="connector23pad" stroke="#F7BD13" fill="none" cx="10.8" connectorname="VIN" stroke-width="1.10268" cy="50.4"  r="1.96866"/>
            <circle gorn="0.3.0.9" id="connector43pad" stroke="#F7BD13" fill="none" cx="23.6976" connectorname="YELLOW+" stroke-width="1.67868" cy="10.44"  r="2.25666"/>
            <circle gorn="0.3.0.10" id="connector24pad" stroke="#F7BD13" fill="none" cx="3.6" connectorname="GND" stroke-width="1.10268" cy="50.4"  r="1.96866"/>
            <circle gorn="0.3.0.11" id="connector25pad" stroke="#F7BD13" fill="none" cx="50.4" connectorname="P$1" stroke-width="1.44" cy="7.2"  r="4.26331"/>
        </g>
    </g>
</svg>
