<?xml version='1.0' encoding='UTF-8' standalone='no'?>
<!-- Created with Fritzing (http://www.fritzing.org/) -->
<svg xmlns="http://www.w3.org/2000/svg"  viewBox="0 0 108 64.8" baseProfile="tiny" x="0in" y="0in" version="1.2" width="1.5in" height="0.9in">
    <desc>
        <referenceFile>Adafruit 9-DOF IMU L3GD20H + LSM303_pcb.svg</referenceFile>
    </desc>
    <desc >Fritzing footprint generated by brd2svg</desc>
    <g  id="silkscreen" gorn="0.1">
        <path  d="M107.712,57.376A6.912,6.912,0,0,1,100.55,64.512L7.44962,64.512A6.912,6.912,0,0,1,0.288,57.376A6.912,6.912,0,0,1,7.44962,50.24L14.6112,50.24L14.6112,14.56L7.44962,14.56A6.912,6.912,0,0,1,0.288,7.42399A6.912,6.912,0,0,1,7.44962,0.288L100.55,0.288A6.912,6.912,0,0,1,107.712,7.42399A6.912,6.912,0,0,1,100.55,14.56L93.389,14.56L93.389,50.24L100.55,50.24A6.912,6.912,0,0,1,107.712,57.376" stroke="white" stroke-width="0.576" fill="none"/>
        <line  stroke-linecap="round" stroke="white" y1="3.64819" y2="3.64819" stroke-width="1.152" x1="67.1471" x2="69.9818"/>
        <line  stroke-linecap="round" stroke="white" y1="3.64819" y2="1.66393" stroke-width="1.152" x1="69.9818" x2="67.9974"/>
        <line  stroke-linecap="round" stroke="white" y1="1.66393" y2="3.64819" stroke-width="1.152" x1="67.9974" x2="66.0132"/>
        <line  stroke-linecap="round" stroke="white" y1="3.64819" y2="3.64819" stroke-width="1.152" x1="66.0132" x2="67.1471"/>
        <line  stroke-linecap="round" stroke="white" y1="3.64819" y2="2.7978" stroke-width="1.152" x1="67.1471" x2="67.9974"/>
        <line  stroke-linecap="round" stroke="white" y1="7.04976" y2="7.04976" stroke-width="1.152" x1="52.6904" x2="55.8085"/>
        <line  stroke-linecap="round" stroke="white" y1="7.04976" y2="7.3332" stroke-width="1.152" x1="55.8085" x2="55.8085"/>
        <line  stroke-linecap="round" stroke="white" y1="7.3332" y2="7.3332" stroke-width="1.152" x1="55.8085" x2="52.6904"/>
        <line  stroke-linecap="round" stroke="white" y1="6.7663" y2="7.61666" stroke-width="1.152" x1="60.0605" x2="60.0605"/>
        <line  stroke-linecap="round" stroke="white" y1="4.21512" y2="7.04976" stroke-width="1.152" x1="67.4305" x2="67.4305"/>
        <line  stroke-linecap="round" stroke="white" y1="7.04976" y2="7.04976" stroke-width="1.152" x1="67.4305" x2="68.2809"/>
        <line  stroke-linecap="round" stroke="white" y1="7.04976" y2="4.21512" stroke-width="1.152" x1="68.2809" x2="68.2809"/>
        <line  stroke-linecap="round" stroke="white" y1="11.3018" y2="11.3018" stroke-width="1.152" x1="67.4305" x2="68.2809"/>
        <line  stroke-linecap="round" stroke="white" y1="7.17165" y2="5.47087" stroke-width="1.152" x1="61.3701" x2="59.6693"/>
        <line  stroke-linecap="round" stroke="white" y1="5.47087" y2="8.87242" stroke-width="1.152" x1="59.6693" x2="59.6693"/>
        <line  stroke-linecap="round" stroke="white" y1="8.87242" y2="7.17165" stroke-width="1.152" x1="59.6693" x2="61.3701"/>
        <g >
            <title >element:JP1</title>
            <g >
                <title >package:1X10_ROUND</title>
            </g>
        </g>
        <g >
            <title >element:U$25</title>
            <g >
                <title >package:SYMBOL_GYROXYZ_10MM</title>
            </g>
        </g>
        <g >
            <title >element:U$26</title>
            <g >
                <title >package:ADAFRUIT_TEXT_20MM</title>
            </g>
        </g>
    </g>
    <g  id="copper1" gorn="0.2">
        <g  id="copper0" gorn="0.2.0">
            <circle  connectorname="P$1" id="connector70pad" stroke="#F7BD13" gorn="0.2.0.0" cx="100.8" cy="57.6" stroke-width="2.12599" fill="none" r="4.6063"/>
            <circle  connectorname="P$1" id="connector72pad" stroke="#F7BD13" gorn="0.2.0.1" cx="7.2" cy="7.2" stroke-width="2.12599" fill="none" r="4.6063"/>
            <circle  connectorname="VIN" id="connector24pad" stroke="#F7BD13" gorn="0.2.0.2" cx="21.6" cy="57.6" stroke-width="0.95868" fill="none" r="1.89666"/>
            <rect  x="19.7033" y="55.7033" stroke="#F7BD13" width="3.79332" height="3.79332" stroke-width="0.95868" fill="none"/>
            <circle  connectorname="3.3V" id="connector25pad" stroke="#F7BD13" gorn="0.2.0.4" cx="28.8" cy="57.6" stroke-width="0.95868" fill="none" r="1.89666"/>
            <circle  connectorname="GND" id="connector26pad" stroke="#F7BD13" gorn="0.2.0.5" cx="36" cy="57.6" stroke-width="0.95868" fill="none" r="1.89666"/>
            <circle  connectorname="SCL" id="connector27pad" stroke="#F7BD13" gorn="0.2.0.6" cx="43.2" cy="57.6" stroke-width="0.95868" fill="none" r="1.89666"/>
            <circle  connectorname="SDA" id="connector28pad" stroke="#F7BD13" gorn="0.2.0.7" cx="50.4" cy="57.6" stroke-width="0.95868" fill="none" r="1.89666"/>
            <circle  connectorname="GYR_INT" id="connector29pad" stroke="#F7BD13" gorn="0.2.0.8" cx="57.6" cy="57.6" stroke-width="0.95868" fill="none" r="1.89666"/>
            <circle  connectorname="GYR_RDY" id="connector30pad" stroke="#F7BD13" gorn="0.2.0.9" cx="64.8" cy="57.6" stroke-width="0.95868" fill="none" r="1.89666"/>
            <circle  connectorname="LSM_INT1" id="connector31pad" stroke="#F7BD13" gorn="0.2.0.10" cx="72" cy="57.6" stroke-width="0.95868" fill="none" r="1.89666"/>
            <circle  connectorname="LSM_INT2" id="connector32pad" stroke="#F7BD13" gorn="0.2.0.11" cx="79.2" cy="57.6" stroke-width="0.95868" fill="none" r="1.89666"/>
            <circle  connectorname="LSM_DRDY" id="connector33pad" stroke="#F7BD13" gorn="0.2.0.12" cx="86.4" cy="57.6" stroke-width="0.95868" fill="none" r="1.89666"/>
            <circle  connectorname="P$1" id="connector71pad" stroke="#F7BD13" gorn="0.2.0.13" cx="100.8" cy="7.2" stroke-width="2.12599" fill="none" r="4.6063"/>
            <circle  connectorname="P$1" id="connector73pad" stroke="#F7BD13" gorn="0.2.0.14" cx="7.2" cy="57.6" stroke-width="2.12599" fill="none" r="4.6063"/>
        </g>
    </g>
</svg>
