<?xml version='1.0' encoding='UTF-8' standalone='no'?>
<!-- Created with Fritzing (http://www.fritzing.org/) -->
<svg xmlns="http://www.w3.org/2000/svg" viewBox="0 0 86.04 68.4" version="1.2" x="0in" baseProfile="tiny" height="0.95in"  width="1.195in" y="0in">
    <desc>
        <referenceFile>Adafruit DS1307 RTC Breakout_pcb.svg</referenceFile>
    </desc>
    <desc >Fritzing footprint generated by brd2svg</desc>
    <g gorn="0.1" id="silkscreen" >
        <path stroke="white" d="M0.288,3.85768A3.312,3.312,0,0,1,3.8639,0.288L82.1758,0.288A3.312,3.312,0,0,1,85.752,3.85768L85.752,64.5423A3.312,3.312,0,0,1,82.1758,68.112L3.8639,68.112A3.312,3.312,0,0,1,0.288,64.5423L0.288,3.85768M71.3526,7.92a4.24743,4.24743,0,1,0,8.49485,0,4.24743,4.24743,0,1,0,-8.49485,0zM3.31257,61.2a4.24743,4.24743,0,1,0,8.49485,0,4.24743,4.24743,0,1,0,-8.49485,0z"  fill="none" stroke-width="0.576"/>
        <g >
            <title >element:BAT</title>
            <g >
                <title >package:CR1220-THM</title>
                <line stroke="white" x1="83.6928" y1="46.4712"  stroke-linecap="round" y2="46.4712" x2="81.1584" stroke-width="0.36"/>
                <line stroke="white" x1="81.1584" y1="46.4712"  stroke-linecap="round" y2="40.7112" x2="81.1584" stroke-width="0.36"/>
                <line stroke="white" x1="81.1584" y1="40.7112"  stroke-linecap="round" y2="32.2412" x2="73.1254" stroke-width="0.36"/>
                <line stroke="white" x1="73.1254" y1="32.2412"  stroke-linecap="round" y2="32.2412" x2="50.9981" stroke-width="0.36"/>
                <line stroke="white" x1="50.9981" y1="32.2412"  stroke-linecap="round" y2="40.2746" x2="43.4012" stroke-width="0.36"/>
                <line stroke="white" x1="43.4012" y1="40.2746"  stroke-linecap="round" y2="46.7546" x2="43.4012" stroke-width="0.36"/>
                <line stroke="white" x1="43.4012" y1="46.7546"  stroke-linecap="round" y2="46.7546" x2="40.8671" stroke-width="0.36"/>
                <line stroke="white" x1="40.8671" y1="46.7546"  stroke-linecap="round" y2="55.7688" x2="40.8671" stroke-width="0.36"/>
                <line stroke="white" x1="40.8671" y1="55.7688"  stroke-linecap="round" y2="55.7688" x2="43.4012" stroke-width="0.36"/>
                <line stroke="white" x1="43.4012" y1="55.7688"  stroke-linecap="round" y2="67.0961" x2="43.4012" stroke-width="0.36"/>
                <line stroke="white" x1="43.4012" y1="67.0961"  stroke-linecap="round" y2="67.0961" x2="48.6" stroke-width="0.36"/>
                <line stroke="white" x1="48.6" y1="67.0961"  stroke-linecap="round" y2="60.7238" x2="53.9461" stroke-width="0.36"/>
                <line stroke="white" x1="53.9461" y1="60.7238"  stroke-linecap="round" y2="60.7238" x2="70.92" stroke-width="0.36"/>
                <line stroke="white" x1="70.92" y1="60.7238"  stroke-linecap="round" y2="67.0961" x2="77.4" stroke-width="0.36"/>
                <line stroke="white" x1="77.4" y1="67.0961"  stroke-linecap="round" y2="67.0961" x2="81.1584" stroke-width="0.36"/>
                <line stroke="white" x1="81.1584" y1="67.0961"  stroke-linecap="round" y2="55.7688" x2="81.1584" stroke-width="0.36"/>
                <line stroke="white" x1="81.1584" y1="55.7688"  stroke-linecap="round" y2="55.7688" x2="83.6928" stroke-width="0.36"/>
                <line stroke="white" x1="83.6928" y1="55.7688"  stroke-linecap="round" y2="46.4712" x2="83.6928" stroke-width="0.36"/>
            </g>
        </g>
        <g >
            <title >element:IC3</title>
            <g >
                <title >package:DIL08</title>
                <path stroke="white" d="M35.28,30.96A1.8,1.8,0,1,0,31.68,30.96"  fill="none" stroke-width="0.432"/>
                <line stroke="white" x1="35.28" y1="30.96"  stroke-linecap="round" y2="30.96" x2="41.4" stroke-width="0.432"/>
                <line stroke="white" x1="41.4" y1="30.96"  stroke-linecap="round" y2="2.16" x2="41.4" stroke-width="0.432"/>
                <line stroke="white" x1="41.4" y1="2.16"  stroke-linecap="round" y2="2.16" x2="25.56" stroke-width="0.432"/>
                <line stroke="white" x1="25.56" y1="2.16"  stroke-linecap="round" y2="30.96" x2="25.56" stroke-width="0.432"/>
                <line stroke="white" x1="25.56" y1="30.96"  stroke-linecap="round" y2="30.96" x2="31.68" stroke-width="0.432"/>
            </g>
        </g>
        <g >
            <title >element:JP2</title>
            <g >
                <title >package:1X05</title>
                <line stroke="white" x1="2.16" y1="14.4"  stroke-linecap="round" y2="10.8" x2="2.16" stroke-width="0.432"/>
                <line stroke="white" x1="2.16" y1="10.8"  stroke-linecap="round" y2="9" x2="3.96" stroke-width="0.432"/>
                <line stroke="white" x1="3.96" y1="9"  stroke-linecap="round" y2="9" x2="7.56" stroke-width="0.432"/>
                <line stroke="white" x1="7.56" y1="9"  stroke-linecap="round" y2="10.8" x2="9.36" stroke-width="0.432"/>
                <line stroke="white" x1="3.96" y1="23.4"  stroke-linecap="round" y2="21.6" x2="2.16" stroke-width="0.432"/>
                <line stroke="white" x1="2.16" y1="21.6"  stroke-linecap="round" y2="18" x2="2.16" stroke-width="0.432"/>
                <line stroke="white" x1="2.16" y1="18"  stroke-linecap="round" y2="16.2" x2="3.96" stroke-width="0.432"/>
                <line stroke="white" x1="3.96" y1="16.2"  stroke-linecap="round" y2="16.2" x2="7.56" stroke-width="0.432"/>
                <line stroke="white" x1="7.56" y1="16.2"  stroke-linecap="round" y2="18" x2="9.36" stroke-width="0.432"/>
                <line stroke="white" x1="9.36" y1="18"  stroke-linecap="round" y2="21.6" x2="9.36" stroke-width="0.432"/>
                <line stroke="white" x1="9.36" y1="21.6"  stroke-linecap="round" y2="23.4" x2="7.56" stroke-width="0.432"/>
                <line stroke="white" x1="2.16" y1="14.4"  stroke-linecap="round" y2="16.2" x2="3.96" stroke-width="0.432"/>
                <line stroke="white" x1="7.56" y1="16.2"  stroke-linecap="round" y2="14.4" x2="9.36" stroke-width="0.432"/>
                <line stroke="white" x1="9.36" y1="10.8"  stroke-linecap="round" y2="14.4" x2="9.36" stroke-width="0.432"/>
                <line stroke="white" x1="2.16" y1="36"  stroke-linecap="round" y2="32.4" x2="2.16" stroke-width="0.432"/>
                <line stroke="white" x1="2.16" y1="32.4"  stroke-linecap="round" y2="30.6" x2="3.96" stroke-width="0.432"/>
                <line stroke="white" x1="3.96" y1="30.6"  stroke-linecap="round" y2="30.6" x2="7.56" stroke-width="0.432"/>
                <line stroke="white" x1="7.56" y1="30.6"  stroke-linecap="round" y2="32.4" x2="9.36" stroke-width="0.432"/>
                <line stroke="white" x1="3.96" y1="30.6"  stroke-linecap="round" y2="28.8" x2="2.16" stroke-width="0.432"/>
                <line stroke="white" x1="2.16" y1="28.8"  stroke-linecap="round" y2="25.2" x2="2.16" stroke-width="0.432"/>
                <line stroke="white" x1="2.16" y1="25.2"  stroke-linecap="round" y2="23.4" x2="3.96" stroke-width="0.432"/>
                <line stroke="white" x1="3.96" y1="23.4"  stroke-linecap="round" y2="23.4" x2="7.56" stroke-width="0.432"/>
                <line stroke="white" x1="7.56" y1="23.4"  stroke-linecap="round" y2="25.2" x2="9.36" stroke-width="0.432"/>
                <line stroke="white" x1="9.36" y1="25.2"  stroke-linecap="round" y2="28.8" x2="9.36" stroke-width="0.432"/>
                <line stroke="white" x1="9.36" y1="28.8"  stroke-linecap="round" y2="30.6" x2="7.56" stroke-width="0.432"/>
                <line stroke="white" x1="3.96" y1="37.8"  stroke-linecap="round" y2="37.8" x2="7.56" stroke-width="0.432"/>
                <line stroke="white" x1="2.16" y1="36"  stroke-linecap="round" y2="37.8" x2="3.96" stroke-width="0.432"/>
                <line stroke="white" x1="7.56" y1="37.8"  stroke-linecap="round" y2="36" x2="9.36" stroke-width="0.432"/>
                <line stroke="white" x1="9.36" y1="32.4"  stroke-linecap="round" y2="36" x2="9.36" stroke-width="0.432"/>
                <line stroke="white" x1="2.16" y1="7.2"  stroke-linecap="round" y2="3.6" x2="2.16" stroke-width="0.432"/>
                <line stroke="white" x1="2.16" y1="3.6"  stroke-linecap="round" y2="1.8" x2="3.96" stroke-width="0.432"/>
                <line stroke="white" x1="3.96" y1="1.8"  stroke-linecap="round" y2="1.8" x2="7.56" stroke-width="0.432"/>
                <line stroke="white" x1="7.56" y1="1.8"  stroke-linecap="round" y2="3.6" x2="9.36" stroke-width="0.432"/>
                <line stroke="white" x1="2.16" y1="7.2"  stroke-linecap="round" y2="9" x2="3.96" stroke-width="0.432"/>
                <line stroke="white" x1="7.56" y1="9"  stroke-linecap="round" y2="7.2" x2="9.36" stroke-width="0.432"/>
                <line stroke="white" x1="9.36" y1="3.6"  stroke-linecap="round" y2="7.2" x2="9.36" stroke-width="0.432"/>
            </g>
        </g>
        <g >
            <title >element:Q1</title>
            <g >
                <title >package:TC38H</title>
                <line stroke="white" x1="56.88" y1="19.8"  stroke-linecap="round" y2="27.72" x2="56.88" stroke-width="0.432"/>
                <path stroke="white" d="M79.56,28.08A0.72,0.72,0,0,0,80.28,27.36"  fill="none" stroke-width="0.432"/>
                <path stroke="white" d="M80.28,20.16A0.72,0.72,0,0,0,79.56,19.44"  fill="none" stroke-width="0.432"/>
                <line stroke="white" x1="80.28" y1="20.16"  stroke-linecap="round" y2="27.36" x2="80.28" stroke-width="0.432"/>
                <line stroke="white" x1="56.88" y1="27.72"  stroke-linecap="round" y2="27.72" x2="57.96" stroke-width="0.432"/>
                <line stroke="white" x1="57.96" y1="28.08"  stroke-linecap="round" y2="27.72" x2="57.96" stroke-width="0.432"/>
                <line stroke="white" x1="57.96" y1="28.08"  stroke-linecap="round" y2="28.08" x2="79.56" stroke-width="0.432"/>
                <line stroke="white" x1="56.88" y1="19.8"  stroke-linecap="round" y2="19.8" x2="57.96" stroke-width="0.432"/>
                <line stroke="white" x1="57.96" y1="19.44"  stroke-linecap="round" y2="19.8" x2="57.96" stroke-width="0.432"/>
                <line stroke="white" x1="57.96" y1="19.44"  stroke-linecap="round" y2="19.44" x2="79.56" stroke-width="0.432"/>
                <line stroke="white" x1="57.96" y1="27.72"  stroke-linecap="round" y2="19.8" x2="57.96" stroke-width="0.432"/>
                <line stroke="white" x1="54.216" y1="25.344"  stroke-linecap="round" y2="25.2" x2="54.36" stroke-width="1.152"/>
                <line stroke="white" x1="54.36" y1="25.2"  stroke-linecap="round" y2="25.2" x2="55.44" stroke-width="1.152"/>
                <line stroke="white" x1="54.36" y1="22.32"  stroke-linecap="round" y2="22.32" x2="55.08" stroke-width="1.152"/>
                <line stroke="white" x1="54.216" y1="22.176"  stroke-linecap="round" y2="22.32" x2="54.36" stroke-width="1.152"/>
                <line stroke="white" x1="68.04" y1="21.6"  stroke-linecap="round" y2="21.6" x2="66.96" stroke-width="0.432"/>
                <line stroke="white" x1="66.96" y1="25.92"  stroke-linecap="round" y2="21.6" x2="66.96" stroke-width="0.432"/>
                <line stroke="white" x1="66.96" y1="25.92"  stroke-linecap="round" y2="25.92" x2="68.04" stroke-width="0.432"/>
                <line stroke="white" x1="68.04" y1="21.6"  stroke-linecap="round" y2="25.92" x2="68.04" stroke-width="0.432"/>
                <line stroke="white" x1="69.12" y1="21.6"  stroke-linecap="round" y2="23.76" x2="69.12" stroke-width="0.432"/>
                <line stroke="white" x1="65.88" y1="21.6"  stroke-linecap="round" y2="23.76" x2="65.88" stroke-width="0.432"/>
                <line stroke="white" x1="65.88" y1="23.76"  stroke-linecap="round" y2="23.76" x2="64.44" stroke-width="0.432"/>
                <line stroke="white" x1="65.88" y1="23.76"  stroke-linecap="round" y2="25.92" x2="65.88" stroke-width="0.432"/>
                <line stroke="white" x1="69.12" y1="23.76"  stroke-linecap="round" y2="23.76" x2="70.56" stroke-width="0.432"/>
                <line stroke="white" x1="69.12" y1="23.76"  stroke-linecap="round" y2="25.92" x2="69.12" stroke-width="0.432"/>
            </g>
        </g>
    </g>
    <g gorn="0.2" id="copper1" >
        <g gorn="0.2.0" id="copper0" >
            <circle cx="5.76" gorn="0.2.0.0" stroke="#F7BD13" r="1.8" id="connector13pad" cy="34.2" connectorname="SQW"  fill="none" stroke-width="0.72"/>
            <path stroke="none" d="m1.62,32.4,8.28,0,0,3.6,-8.28,0,0,-3.6M3.96,34.2a1.8,1.8,0,1,0,3.6,0,1.8,1.8,0,1,0,-3.6,0z"  fill="#F7BD13" stroke-width="0"/>
            <circle cx="5.76" gorn="0.2.0.2" stroke="#F7BD13" r="1.8" id="connector17pad" cy="5.4" connectorname="GND"  fill="none" stroke-width="0.72"/>
            <path stroke="none" d="m1.62,3.6,8.28,0,0,3.6,-8.28,0,0,-3.6M3.96,5.4a1.8,1.8,0,1,0,3.6,0,1.8,1.8,0,1,0,-3.6,0z"  fill="#F7BD13" stroke-width="0"/>
            <circle cx="5.76" gorn="0.2.0.4" stroke="#F7BD13" r="1.8" id="connector15pad" cy="19.8" connectorname="SDA"  fill="none" stroke-width="0.72"/>
            <path stroke="none" d="m1.62,18,8.28,0,0,3.6,-8.28,0,0,-3.6M3.96,19.8a1.8,1.8,0,1,0,3.6,0,1.8,1.8,0,1,0,-3.6,0z"  fill="#F7BD13" stroke-width="0"/>
            <circle cx="5.76" gorn="0.2.0.6" stroke="#F7BD13" r="1.8" id="connector14pad" cy="27" connectorname="SCL"  fill="none" stroke-width="0.72"/>
            <path stroke="none" d="m1.62,25.2,8.28,0,0,3.6,-8.28,0,0,-3.6M3.96,27a1.8,1.8,0,1,0,3.6,0,1.8,1.8,0,1,0,-3.6,0z"  fill="#F7BD13" stroke-width="0"/>
            <circle cx="5.76" gorn="0.2.0.8" stroke="#F7BD13" r="1.8" id="connector16pad" cy="12.6" connectorname="VCC"  fill="none" stroke-width="0.72"/>
            <path stroke="none" d="m1.62,10.8,8.28,0,0,3.6,-8.28,0,0,-3.6M3.96,12.6a1.8,1.8,0,1,0,3.6,0,1.8,1.8,0,1,0,-3.6,0z"  fill="#F7BD13" stroke-width="0"/>
        </g>
    </g>
</svg>
