<?xml version="1.0" encoding="UTF-8" standalone="no"?>
<!-- Created with Inkscape (http://www.inkscape.org/) -->

<svg
   xmlns:dc="http://purl.org/dc/elements/1.1/"
   xmlns:cc="http://creativecommons.org/ns#"
   xmlns:rdf="http://www.w3.org/1999/02/22-rdf-syntax-ns#"
   xmlns:svg="http://www.w3.org/2000/svg"
   xmlns="http://www.w3.org/2000/svg"
   version="1.1"
   width="54"
   height="18"
   id="svg4364">
  <defs
     id="defs4366" />
  <metadata
     id="metadata4369">
    <rdf:RDF>
      <cc:Work
         rdf:about="">
        <dc:format>image/svg+xml</dc:format>
        <dc:type
           rdf:resource="http://purl.org/dc/dcmitype/StillImage" />
        <dc:title></dc:title>
      </cc:Work>
    </rdf:RDF>
  </metadata>
  <g
     transform="translate(0,-1034.362)"
     id="layer1"
     style="display:inline" />
  <g
     id="pcb">
    <g
       id="copper0">
      <path
         d="m 11.25,9 a 2.25,2.25 0 0 1 -4.5,0 2.25,2.25 0 1 1 4.5,0 z"
         id="connector1pad"
         style="fill:none;stroke:#f6ca34;stroke-width:1.79999995;stroke-linecap:round;stroke-linejoin:round;stroke-miterlimit:4;stroke-opacity:1;stroke-dasharray:none;stroke-dashoffset:0;display:inline" />
      <path
         d="m 20.25,9 a 2.25,2.25 0 0 1 -4.5,0 2.25,2.25 0 1 1 4.5,0 z"
         id="connector2pad"
         style="fill:none;stroke:#f6ca34;stroke-width:1.79999995;stroke-linecap:round;stroke-linejoin:round;stroke-miterlimit:4;stroke-opacity:1;stroke-dasharray:none;stroke-dashoffset:0;display:inline" />
      <path
         d="m 29.25,9 a 2.25,2.25 0 0 1 -4.5,0 2.25,2.25 0 1 1 4.5,0 z"
         id="connector3pad"
         style="fill:none;stroke:#f6ca34;stroke-width:1.79999995;stroke-linecap:round;stroke-linejoin:round;stroke-miterlimit:4;stroke-opacity:1;stroke-dasharray:none;stroke-dashoffset:0;display:inline" />
      <path
         d="m 38.25,9 a 2.25,2.25 0 0 1 -4.5,0 2.25,2.25 0 1 1 4.5,0 z"
         id="connector4pad"
         style="fill:none;stroke:#f6ca34;stroke-width:1.79999995;stroke-linecap:round;stroke-linejoin:round;stroke-miterlimit:4;stroke-opacity:1;stroke-dasharray:none;stroke-dashoffset:0;display:inline" />
      <path
         d="m 47.25,9 a 2.25,2.25 0 0 1 -4.5,0 2.25,2.25 0 1 1 4.5,0 z"
         id="connector5pad"
         style="fill:none;stroke:#f6ca34;stroke-width:1.79999995;stroke-linecap:round;stroke-linejoin:round;stroke-miterlimit:4;stroke-opacity:1;stroke-dasharray:none;stroke-dashoffset:0;display:inline" />
    </g>
    <g
       id="copper1">
      <path
         d="m 11.25,9 a 2.25,2.25 0 0 1 -4.5,0 2.25,2.25 0 1 1 4.5,0 z"
         id="connector1pad"
         style="fill:none;stroke:#f6ca34;stroke-width:1.79999995;stroke-linecap:round;stroke-linejoin:round;stroke-miterlimit:4;stroke-opacity:1;stroke-dasharray:none;stroke-dashoffset:0;display:inline" />
      <path
         d="m 20.25,9 a 2.25,2.25 0 0 1 -4.5,0 2.25,2.25 0 1 1 4.5,0 z"
         id="connector2pad"
         style="fill:none;stroke:#f6ca34;stroke-width:1.79999995;stroke-linecap:round;stroke-linejoin:round;stroke-miterlimit:4;stroke-opacity:1;stroke-dasharray:none;stroke-dashoffset:0;display:inline" />
      <path
         d="m 29.25,9 a 2.25,2.25 0 0 1 -4.5,0 2.25,2.25 0 1 1 4.5,0 z"
         id="connector3pad"
         style="fill:none;stroke:#f6ca34;stroke-width:1.79999995;stroke-linecap:round;stroke-linejoin:round;stroke-miterlimit:4;stroke-opacity:1;stroke-dasharray:none;stroke-dashoffset:0;display:inline" />
      <path
         d="m 38.25,9 a 2.25,2.25 0 0 1 -4.5,0 2.25,2.25 0 1 1 4.5,0 z"
         id="connector4pad"
         style="fill:none;stroke:#f6ca34;stroke-width:1.79999995;stroke-linecap:round;stroke-linejoin:round;stroke-miterlimit:4;stroke-opacity:1;stroke-dasharray:none;stroke-dashoffset:0;display:inline" />
      <path
         d="m 47.25,9 a 2.25,2.25 0 0 1 -4.5,0 2.25,2.25 0 1 1 4.5,0 z"
         id="connector5pad"
         style="fill:none;stroke:#f6ca34;stroke-width:1.79999995;stroke-linecap:round;stroke-linejoin:round;stroke-miterlimit:4;stroke-opacity:1;stroke-dasharray:none;stroke-dashoffset:0;display:inline" />
    </g>
    <g
       id="g5108">
      <g
         transform="matrix(1.5277664,0,0,0.47368379,-0.47498975,-8.0526234)"
         id="silkscreen">
        <rect
           width="34.199997"
           height="34.199974"
           x="0.89999998"
           y="18.9"
           id="rect214639"
           style="fill:none;stroke:#ffffff;stroke-width:0.375;stroke-miterlimit:4;stroke-opacity:1;stroke-dasharray:none" />
      </g>
      <rect
         width="36"
         height="2.7"
         x="9"
         y="0.89999962"
         id="rect4590"
         style="fill:#ffffff;fill-opacity:1;stroke:none" />
    </g>
  </g>
</svg>
