<?xml version='1.0' encoding='UTF-8' standalone='no'?>
<!-- Created with Fritzing (http://www.fritzing.org/) -->
<svg xmlns="http://www.w3.org/2000/svg" height="0.751732in" x="0in" width="0.7in" viewBox="0 0 50.4 54.1247"  version="1.2" y="0in" baseProfile="tiny">
    <desc>
        <referenceFile>MAX98357_REV-A_pcb.svg</referenceFile>
    </desc>
    <desc >Fritzing footprint generated by brd2svg</desc>
    <g gorn="0.1"  id="silkscreen">
        <path fill="none" stroke="white"  stroke-width="0.576" d="M0.288,46.7133L0.288,7.5348A6.912,6.912,0,0,1,7.4057,0.411397L42.9943,0.411397A6.912,6.912,0,0,1,50.112,7.5348L50.112,46.7133A6.912,6.912,0,0,1,42.9943,53.8367L7.4057,53.8367A6.912,6.912,0,0,1,0.288,46.7133"/>
        <g >
            <title >element:JP1</title>
            <g >
                <title >package:1X07_ROUND_76</title>
            </g>
        </g>
        <g >
            <title >element:X1</title>
            <g >
                <title >package:TERMBLOCK_1X2-3.5MM</title>
                <line x2="34.8378" y1="19.8426" stroke="white" x1="34.8378" stroke-linecap="round"  stroke-width="0.576" y2="3.9685"/>
                <line x2="34.8378" y1="3.9685" stroke="white" x1="34.8378" stroke-linecap="round"  stroke-width="0.576" y2="0"/>
                <line x2="14.9953" y1="0" stroke="white" x1="34.8378" stroke-linecap="round"  stroke-width="0.576" y2="0"/>
                <line x2="14.9953" y1="0" stroke="white" x1="14.9953" stroke-linecap="round"  stroke-width="0.576" y2="3.9685"/>
                <line x2="14.9953" y1="3.9685" stroke="white" x1="14.9953" stroke-linecap="round"  stroke-width="0.576" y2="19.8426"/>
                <line x2="34.8378" y1="19.8426" stroke="white" x1="14.9953" stroke-linecap="round"  stroke-width="0.576" y2="19.8426"/>
                <line x2="14.9953" y1="3.9685" stroke="white" x1="34.8378" stroke-linecap="round"  stroke-width="0.576" y2="3.9685"/>
            </g>
        </g>
        <line x2="34.8378" fill="none" y1="0.288" fill-opacity="1" stroke="white" x1="14.9953"  stroke-width="0.576" y2="0.288"/>
        <line x2="14.9953" fill="none" y1="0.124724" fill-opacity="1" stroke="white" x1="14.9953"  stroke-width="0.576" y2="0.288"/>
        <line x2="34.8378" fill="none" y1="0.124724" fill-opacity="1" stroke="white" x1="34.8378"  stroke-width="0.576" y2="0.288"/>
    </g>
    <g gorn="0.2"  id="copper1">
        <g gorn="0.2.0"  id="copper0">
            <circle fill="none" gorn="0.2.0.0" connectorname="P$1" cy="7.3247" stroke="#F7BD13"  id="connector23pad" stroke-width="1.44" cx="43.2" r="4.26331"/>
            <circle fill="none" gorn="0.2.0.1" connectorname="VO+" cy="10.2047" stroke="#F7BD13"  id="connector43pad" stroke-width="1.67868" cx="30.0189" r="2.25666"/>
            <circle fill="none" gorn="0.2.0.2" connectorname="P$1" cy="7.3247" stroke="#F7BD13"  id="connector24pad" stroke-width="1.44" cx="7.2" r="4.26331"/>
            <circle fill="none" gorn="0.2.0.3" connectorname="VIN" cy="46.9247" stroke="#F7BD13"  id="connector14pad" stroke-width="1.31868" cx="46.8" r="2.07666"/>
            <circle fill="none" gorn="0.2.0.4" connectorname="GND" cy="46.9247" stroke="#F7BD13"  id="connector15pad" stroke-width="1.31868" cx="39.6" r="2.07666"/>
            <circle fill="none" gorn="0.2.0.5" connectorname="SD_MODE" cy="46.9247" stroke="#F7BD13"  id="connector16pad" stroke-width="1.31868" cx="32.4" r="2.07666"/>
            <circle fill="none" gorn="0.2.0.6" connectorname="GAIN" cy="46.9247" stroke="#F7BD13"  id="connector17pad" stroke-width="1.31868" cx="25.2" r="2.07666"/>
            <circle fill="none" gorn="0.2.0.7" connectorname="DIN" cy="46.9247" stroke="#F7BD13"  id="connector18pad" stroke-width="1.31868" cx="18" r="2.07666"/>
            <circle fill="none" gorn="0.2.0.8" connectorname="BCLK" cy="46.9247" stroke="#F7BD13"  id="connector19pad" stroke-width="1.31868" cx="10.8" r="2.07666"/>
            <circle fill="none" gorn="0.2.0.9" connectorname="LRCLK" cy="46.9247" stroke="#F7BD13"  id="connector20pad" stroke-width="1.31868" cx="3.6" r="2.07666"/>
            <circle fill="none" gorn="0.2.0.10" connectorname="VO-" cy="10.2047" stroke="#F7BD13"  id="connector42pad" stroke-width="1.67868" cx="20.0976" r="2.25666"/>
        </g>
    </g>
</svg>
