<?xml version='1.0' encoding='UTF-8' standalone='no'?>
<!-- Created with Fritzing (http://www.fritzing.org/) -->
<svg xmlns="http://www.w3.org/2000/svg" viewBox="0 0 115.319 101.823"  version="1.2" height="1.41421in" width="1.60165in" y="0in" x="0in" baseProfile="tiny">
    <desc>
        <referenceFile>Adafruit USB DC Solar LiPo Charger_pcb.svg</referenceFile>
    </desc>
    <desc >Fritzing footprint generated by brd2svg</desc>
    <g id="silkscreen"  gorn="0.1">
        <path stroke="white" stroke-width="0.576"  fill="none" d="M0.288,93.0794L0.288,16.8445A8.21592,8.21592,0,0,1,8.74944,8.38872L106.569,8.38872A8.21592,8.21592,0,0,1,115.031,16.8445L115.031,93.0794A8.21592,8.21592,0,0,1,106.569,101.535L8.74944,101.535A8.21592,8.21592,0,0,1,0.288,93.0794M82.5437,14.1732a1.97972,1.97972,0,1,0,3.95943,0,1.97972,1.97972,0,1,0,-3.95943,0zM82.26,26.9292a2.26318,2.26318,0,1,0,4.52636,0,2.26318,2.26318,0,1,0,-4.52636,0zM53.7069,22.578a1.12932,1.12932,0,1,0,2.25865,0,1.12932,1.12932,0,1,0,-2.25865,0zM41.2345,22.578a1.12932,1.12932,0,1,0,2.25865,0,1.12932,1.12932,0,1,0,-2.25865,0z"/>
        <g >
            <title >element:BATT</title>
            <g >
                <title >package:JST-PH-2-SMT-RA</title>
                <line stroke="white" stroke-linecap="round" stroke-width="0.36" y1="100.247"  x2="22.422" x1="35.178" y2="100.247"/>
                <line stroke="white" stroke-linecap="round" stroke-width="0.36" y1="90.3262"  x2="17.4614" x1="17.4614" y2="78.9876"/>
                <line stroke="white" stroke-linecap="round" stroke-width="0.36" y1="78.9876"  x2="19.8708" x1="17.4614" y2="78.9876"/>
                <line stroke="white" stroke-linecap="round" stroke-width="0.36" y1="78.9876"  x2="19.8708" x1="19.8708" y2="86.0738"/>
                <line stroke="white" stroke-linecap="round" stroke-width="0.36" y1="86.0738"  x2="23.8393" x1="19.8708" y2="86.0738"/>
                <line stroke="white" stroke-linecap="round" stroke-width="0.36" y1="86.0738"  x2="37.7292" x1="33.7607" y2="86.0738"/>
                <line stroke="white" stroke-linecap="round" stroke-width="0.36" y1="86.0738"  x2="37.7292" x1="37.7292" y2="78.9876"/>
                <line stroke="white" stroke-linecap="round" stroke-width="0.36" y1="78.9876"  x2="40.1386" x1="37.7292" y2="78.9876"/>
                <line stroke="white" stroke-linecap="round" stroke-width="0.36" y1="78.9876"  x2="40.1386" x1="40.1386" y2="90.3262"/>
            </g>
        </g>
        <g >
            <title >element:C4</title>
            <g >
                <title >package:E5-13</title>
                <line stroke="white" stroke-linecap="round" stroke-width="0.432" y1="55.7433"  x2="92.88" x1="92.88" y2="56.4633"/>
                <line stroke="white" stroke-linecap="round" stroke-width="0.432" y1="56.4633"  x2="89.28" x1="92.88" y2="56.4633"/>
                <line stroke="white" stroke-linecap="round" stroke-width="0.432" y1="56.4633"  x2="89.28" x1="89.28" y2="58.2633"/>
                <line stroke="white" stroke-linecap="round" stroke-width="0.432" y1="58.2633"  x2="96.48" x1="89.28" y2="58.2633"/>
                <line stroke="white" stroke-linecap="round" stroke-width="0.432" y1="58.2633"  x2="96.48" x1="96.48" y2="56.4633"/>
                <line stroke="white" stroke-linecap="round" stroke-width="0.432" y1="56.4633"  x2="92.88" x1="96.48" y2="56.4633"/>
                <line stroke="white" stroke-linecap="round" stroke-width="0.432" y1="60.7833"  x2="92.88" x1="92.88" y2="62.2233"/>
                <line stroke="white" stroke-linecap="round" stroke-width="0.432" y1="42.7833"  x2="92.88" x1="92.88" y2="46.3833"/>
                <line stroke="white" stroke-linecap="round" stroke-width="0.432" y1="44.5833"  x2="94.68" x1="91.08" y2="44.5833"/>
                <circle stroke="white" cx="92.88" stroke-width="0.432"  fill="none" r="19.8" cy="58.9833"/>
                <g  transform="matrix(0, 1, -1, 0, 92.88, 60.6033)">
                    <g >
                        <rect stroke="none" stroke-width="0"  fill="white" height="7.2" width="1.8" y="-3.6" x="-0.9"/>
                    </g>
                </g>
            </g>
        </g>
        <g >
            <title >element:CN1</title>
            <g >
                <title >package:DCJACK_2MM_SMT</title>
                <path stroke="white" stroke-width="0.576"  fill="none" d="M97.2792,2.83465A2.83465,2.83465,0,0,0,94.4446,0"/>
                <line stroke="white" stroke-linecap="round" stroke-width="0.576" y1="0"  x2="74.6021" x1="94.4446" y2="0"/>
                <path stroke="white" stroke-width="0.576"  fill="none" d="M74.6021,0A2.83465,2.83465,0,0,0,71.7676,2.83465"/>
                <line stroke="white" stroke-linecap="round" stroke-width="0.576" y1="43.2397"  x2="80.2944" x1="71.7676" y2="43.2397"/>
                <line stroke="white" stroke-linecap="round" stroke-width="0.576" y1="43.2397"  x2="80.2944" x1="80.2944" y2="39.685"/>
                <line stroke="white" stroke-linecap="round" stroke-width="0.576" y1="39.685"  x2="97.2792" x1="80.2944" y2="39.685"/>
                <line stroke="white" stroke-linecap="round" stroke-width="0.576" y1="9.44503"  x2="97.2792" x1="97.2792" y2="2.83465"/>
                <line stroke="white" stroke-linecap="round" stroke-width="0.576" y1="27.445"  x2="97.2792" x1="97.2792" y2="18.6746"/>
                <line stroke="white" stroke-linecap="round" stroke-width="0.576" y1="39.685"  x2="97.2792" x1="97.2792" y2="36.6746"/>
                <line stroke="white" stroke-linecap="round" stroke-width="0.576" y1="2.83465"  x2="71.7676" x1="71.7676" y2="9.39967"/>
                <line stroke="white" stroke-linecap="round" stroke-width="0.576" y1="18.6746"  x2="71.7676" x1="71.7676" y2="27.3997"/>
                <line stroke="white" stroke-linecap="round" stroke-width="0.576" y1="36.6746"  x2="71.7676" x1="71.7676" y2="43.2397"/>
            </g>
        </g>
        <g >
            <title >element:CN4</title>
            <g >
                <title >package:USB-MINIB_LARGER</title>
                <line stroke="white" stroke-linecap="round" stroke-width="0.576" y1="18.0426"  x2="59.6551" x1="59.6551" y2="25.6961"/>
                <line stroke="white" stroke-linecap="round" stroke-width="0.576" y1="25.6961"  x2="37.5449" x1="37.5449" y2="18.0426"/>
                <line stroke="white" stroke-linecap="round" stroke-width="0.576" y1="32.7827"  x2="54.5527" x1="57.6708" y2="32.7827"/>
                <line stroke="white" stroke-linecap="round" stroke-width="0.576" y1="32.7827"  x2="39.5292" x1="42.6473" y2="32.7827"/>
            </g>
        </g>
        <g >
            <title >element:LOAD</title>
            <g >
                <title >package:JST-PH-2-SMT-RA</title>
                <line stroke="white" stroke-linecap="round" stroke-width="0.36" y1="100.247"  x2="80.0222" x1="92.7778" y2="100.247"/>
                <line stroke="white" stroke-linecap="round" stroke-width="0.36" y1="90.3262"  x2="75.0614" x1="75.0614" y2="78.9876"/>
                <line stroke="white" stroke-linecap="round" stroke-width="0.36" y1="78.9876"  x2="77.4706" x1="75.0614" y2="78.9876"/>
                <line stroke="white" stroke-linecap="round" stroke-width="0.36" y1="78.9876"  x2="77.4706" x1="77.4706" y2="86.0738"/>
                <line stroke="white" stroke-linecap="round" stroke-width="0.36" y1="86.0738"  x2="81.4392" x1="77.4706" y2="86.0738"/>
                <line stroke="white" stroke-linecap="round" stroke-width="0.36" y1="86.0738"  x2="95.3294" x1="91.3608" y2="86.0738"/>
                <line stroke="white" stroke-linecap="round" stroke-width="0.36" y1="86.0738"  x2="95.3294" x1="95.3294" y2="78.9876"/>
                <line stroke="white" stroke-linecap="round" stroke-width="0.36" y1="78.9876"  x2="97.7386" x1="95.3294" y2="78.9876"/>
                <line stroke="white" stroke-linecap="round" stroke-width="0.36" y1="78.9876"  x2="97.7386" x1="97.7386" y2="90.3262"/>
            </g>
        </g>
        <g >
            <title >element:U$1</title>
            <g >
                <title >package:ADAFRUIT_TEXT_20MM</title>
            </g>
        </g>
        <line stroke="white" stroke-width="0.576" y1="0.288"  x2="97.2792" fill="none" fill-opacity="1" x1="71.7676" y2="0.288"/>
        <line stroke="white" stroke-width="0.576" y1="8.1468"  x2="71.7676" fill="none" fill-opacity="1" x1="71.7676" y2="0.288"/>
        <line stroke="white" stroke-width="0.576" y1="8.1468"  x2="97.2792" fill="none" fill-opacity="1" x1="97.2792" y2="0.288"/>
        <line stroke="white" stroke-width="0.576" y1="6.70393"  x2="63" fill="none" fill-opacity="1" x1="34.285" y2="6.70393"/>
        <line stroke="white" stroke-width="0.576" y1="8.1468"  x2="34.285" fill="none" fill-opacity="1" x1="34.285" y2="6.70393"/>
        <line stroke="white" stroke-width="0.576" y1="8.1468"  x2="63" fill="none" fill-opacity="1" x1="63" y2="6.70393"/>
    </g>
    <g id="copper1"  gorn="0.2">
        <g id="copper0"  gorn="0.2.0">
            <circle id="connector81pad" stroke="#F7BD13" cx="9.36" stroke-width="1.224" connectorname="GND"  fill="none" gorn="0.2.0.0" r="1.764" cy="36.3033"/>
            <circle id="connector57pad" stroke="#F7BD13" cx="7.2" stroke-width="1.10268" connectorname="GND"  fill="none" gorn="0.2.0.1" r="1.96866" cy="73.0231"/>
            <circle id="connector53pad" stroke="#F7BD13" cx="22.32" stroke-width="0.72" connectorname="DCIN"  fill="none" gorn="0.2.0.2" r="1.77732" cy="15.4233"/>
            <path stroke="none" stroke-width="0"  fill="#F7BD13" d="m20.5427,11.3355,3.55465,0,0,8.17567,-3.55465,0,0,-8.17567M20.5427,15.4233a1.77732,1.77732,0,1,0,3.55465,0,1.77732,1.77732,0,1,0,-3.55465,0z"/>
            <circle id="connector10pad" stroke="#F7BD13" cx="92.88" stroke-width="2.16" connectorname="DCIN"  fill="none" gorn="0.2.0.4" r="2.52" cy="51.7833"/>
            <circle id="connector11pad" stroke="#F7BD13" cx="92.88" stroke-width="2.16" connectorname="GND"  fill="none" gorn="0.2.0.5" r="2.52" cy="66.1833"/>
            <circle id="connector93pad" stroke="#F7BD13" cx="7.2" stroke-width="1.44" connectorname="P$1"  fill="none" gorn="0.2.0.6" r="4.26331" cy="22.6233"/>
            <circle id="connector55pad" stroke="#F7BD13" cx="108" stroke-width="1.10268" connectorname="GND"  fill="none" gorn="0.2.0.7" r="1.96866" cy="73.0231"/>
            <circle id="connector59pad" stroke="#F7BD13" cx="57.6" stroke-width="0.936" connectorname="DCIN"  fill="none" gorn="0.2.0.8" r="1.908" cy="94.6231"/>
            <circle id="connector87pad" stroke="#F7BD13" cx="20.88" stroke-width="1.224" connectorname="GND"  fill="none" gorn="0.2.0.9" r="1.764" cy="36.3033"/>
            <circle id="connector91pad" stroke="#F7BD13" cx="7.2" stroke-width="1.44" connectorname="P$1"  fill="none" gorn="0.2.0.10" r="4.26331" cy="94.6231"/>
            <circle id="connector52pad" stroke="#F7BD13" cx="29.52" stroke-width="0.72" connectorname="GND"  fill="none" gorn="0.2.0.11" r="1.77732" cy="15.4233"/>
            <path stroke="none" stroke-width="0"  fill="#F7BD13" d="m27.7427,11.3355,3.55465,0,0,8.17567,-3.55465,0,0,-8.17567M27.7427,15.4233a1.77732,1.77732,0,1,0,3.55465,0,1.77732,1.77732,0,1,0,-3.55465,0z"/>
            <circle id="connector54pad" stroke="#F7BD13" cx="108" stroke-width="1.10268" connectorname="LOAD"  fill="none" gorn="0.2.0.13" r="1.96866" cy="80.2231"/>
            <circle id="connector56pad" stroke="#F7BD13" cx="7.2" stroke-width="1.10268" connectorname="BATT"  fill="none" gorn="0.2.0.14" r="1.96866" cy="80.2231"/>
            <circle id="connector58pad" stroke="#F7BD13" cx="50.4" stroke-width="0.936" connectorname="CHARGE"  fill="none" gorn="0.2.0.15" r="1.908" cy="94.6231"/>
            <circle id="connector60pad" stroke="#F7BD13" cx="64.8" stroke-width="0.936" connectorname="DONE"  fill="none" gorn="0.2.0.16" r="1.908" cy="94.6231"/>
            <circle id="connector92pad" stroke="#F7BD13" cx="108" stroke-width="1.44" connectorname="P$1"  fill="none" gorn="0.2.0.17" r="4.26331" cy="94.6231"/>
            <circle id="connector94pad" stroke="#F7BD13" cx="108" stroke-width="1.44" connectorname="P$1"  fill="none" gorn="0.2.0.18" r="4.26331" cy="22.6233"/>
        </g>
    </g>
</svg>
