<?xml version='1.0' encoding='UTF-8' standalone='no'?>
<!-- Created with Fritzing (http://www.fritzing.org/) -->
<svg xmlns="http://www.w3.org/2000/svg" width="0.7in" version="1.2" x="0in" height="0.75in"  y="0in" baseProfile="tiny" viewBox="0 0 50.4 54">
    <desc>
        <referenceFile>Adafruit_BMP280_pcb.svg</referenceFile>
    </desc>
    <desc >Fritzing footprint generated by brd2svg</desc>
    <g gorn="0.1" id="silkscreen" >
        <path d="M42.9943,53.712L7.4057,53.712A6.912,6.912,0,0,1,0.288,46.5888L0.288,7.41118A6.912,6.912,0,0,1,7.4057,0.288L42.9943,0.288A6.912,6.912,0,0,1,50.112,7.41118L50.112,46.5888A6.912,6.912,0,0,1,42.9943,53.712" stroke-width="0.576"  fill="none" stroke="white"/>
        <g >
            <title >element:JP2</title>
            <g >
                <title >package:1X07_ROUND_70</title>
            </g>
        </g>
    </g>
    <g gorn="0.2" id="copper1" >
        <g gorn="0.2.0" id="copper0" >
            <circle stroke-width="1.10268" cy="46.8" gorn="0.2.0.0" id="connector6pad"  fill="none" r="1.96866" stroke="#F7BD13" connectorname="VIN" cx="3.6"/>
            <circle stroke-width="1.10268" cy="46.8" gorn="0.2.0.1" id="connector7pad"  fill="none" r="1.96866" stroke="#F7BD13" connectorname="3.3V" cx="10.8"/>
            <circle stroke-width="1.10268" cy="46.8" gorn="0.2.0.2" id="connector8pad"  fill="none" r="1.96866" stroke="#F7BD13" connectorname="GND" cx="18"/>
            <circle stroke-width="1.10268" cy="46.8" gorn="0.2.0.3" id="connector9pad"  fill="none" r="1.96866" stroke="#F7BD13" connectorname="SCK/SCL" cx="25.2"/>
            <circle stroke-width="1.10268" cy="46.8" gorn="0.2.0.4" id="connector10pad"  fill="none" r="1.96866" stroke="#F7BD13" connectorname="SDO/ADR" cx="32.4"/>
            <circle stroke-width="1.10268" cy="46.8" gorn="0.2.0.5" id="connector11pad"  fill="none" r="1.96866" stroke="#F7BD13" connectorname="SDI/SDA" cx="39.6"/>
            <circle stroke-width="1.10268" cy="46.8" gorn="0.2.0.6" id="connector12pad"  fill="none" r="1.96866" stroke="#F7BD13" connectorname="CS" cx="46.8"/>
        </g>
    </g>
</svg>
