<?xml version='1.0' encoding='UTF-8' standalone='no'?>
<!-- Created with Fritzing (http://www.fritzing.org/) -->
<svg xmlns="http://www.w3.org/2000/svg" width="0.800213in" x="0in" height="0.900008in" baseProfile="tiny" viewBox="0 0 57.6153 64.8006" y="0in"  version="1.2">
    <desc >
        <referenceFile >MAX31855_pcb.svg</referenceFile>
    </desc>
    <desc >Fritzing footprint generated by brd2svg</desc>
    <g gorn="0.2" id="silkscreen" >
        <path d="M57.3273,7.42399L57.3273,57.3766A6.912,6.912,0,0,1,50.1993,64.5126L7.416,64.5126A6.912,6.912,0,0,1,0.288,57.3766L0.288,7.42399A6.912,6.912,0,0,1,7.416,0.288L50.1993,0.288A6.912,6.912,0,0,1,57.3273,7.42399" stroke="white" fill="none"  stroke-width="0.576"/>
        <line y2="64.1163" stroke="white" x1="30.9458" y1="62.6763" x2="32.3858"  stroke-width="0.72" stroke-linecap="round"/>
        <line y2="62.6763" stroke="white" x1="32.3858" y1="64.1163" x2="33.8258"  stroke-width="0.72" stroke-linecap="round"/>
        <line y2="62.6763" stroke="white" x1="33.8258" y1="62.6763" x2="30.9458"  stroke-width="0.72" stroke-linecap="round"/>
        <line y2="64.1163" stroke="white" x1="39.5858" y1="62.6763" x2="38.1458"  stroke-width="0.72" stroke-linecap="round"/>
        <line y2="64.1163" stroke="white" x1="38.1458" y1="64.1163" x2="41.0258"  stroke-width="0.72" stroke-linecap="round"/>
        <line y2="62.6763" stroke="white" x1="41.0258" y1="64.1163" x2="39.5858"  stroke-width="0.72" stroke-linecap="round"/>
        <line y2="64.1163" stroke="white" x1="45.3458" y1="64.1163" x2="48.2258"  stroke-width="0.72" stroke-linecap="round"/>
        <line y2="62.6763" stroke="white" x1="48.2258" y1="64.1163" x2="46.7858"  stroke-width="0.72" stroke-linecap="round"/>
        <line y2="64.1163" stroke="white" x1="46.7858" y1="62.6763" x2="45.3458"  stroke-width="0.72" stroke-linecap="round"/>
        <line y2="64.1163" stroke="white" x1="9.34582" y1="64.1163" x2="12.2258"  stroke-width="0.72" stroke-linecap="round"/>
        <line y2="62.6763" stroke="white" x1="12.2258" y1="64.1163" x2="10.7858"  stroke-width="0.72" stroke-linecap="round"/>
        <line y2="64.1163" stroke="white" x1="10.7858" y1="62.6763" x2="9.34582"  stroke-width="0.72" stroke-linecap="round"/>
        <line y2="64.1163" stroke="white" x1="23.7458" y1="64.1163" x2="26.6258"  stroke-width="0.72" stroke-linecap="round"/>
        <line y2="62.6763" stroke="white" x1="26.6258" y1="64.1163" x2="25.1858"  stroke-width="0.72" stroke-linecap="round"/>
        <line y2="64.1163" stroke="white" x1="25.1858" y1="62.6763" x2="23.7458"  stroke-width="0.72" stroke-linecap="round"/>
        <line y2="64.1163" stroke="white" x1="16.5458" y1="62.6763" x2="17.9858"  stroke-width="0.72" stroke-linecap="round"/>
        <line y2="62.6763" stroke="white" x1="17.9858" y1="64.1163" x2="19.4258"  stroke-width="0.72" stroke-linecap="round"/>
        <line y2="62.6763" stroke="white" x1="19.4258" y1="62.6763" x2="16.5458"  stroke-width="0.72" stroke-linecap="round"/>
        <g >
            <title >element:IC1</title>
            <g >
                <title >package:SO08</title>
                <line y2="29.9163" stroke="white" x1="34.3298" y1="42.1563" x2="34.3298"  stroke-width="0.432" stroke-linecap="round"/>
                <path d="M23.2418,42.1563A1.08,1.08,0,0,0,24.3218,43.2363" stroke="white" fill="none"  stroke-width="0.432"/>
                <path d="M34.3298,29.9163A1.08,1.08,0,0,0,33.2498,28.8363" stroke="white" fill="none"  stroke-width="0.432"/>
                <path d="M33.2498,43.2363A1.08,1.08,0,0,0,34.3298,42.1563" stroke="white" fill="none"  stroke-width="0.432"/>
                <path d="M24.3218,28.8363A1.08,1.08,0,0,0,23.2418,29.9163" stroke="white" fill="none"  stroke-width="0.432"/>
                <line y2="42.1563" stroke="white" x1="23.2418" y1="29.9163" x2="23.2418"  stroke-width="0.432" stroke-linecap="round"/>
                <line y2="43.2363" stroke="white" x1="24.3218" y1="43.2363" x2="33.2498"  stroke-width="0.432" stroke-linecap="round"/>
                <line y2="28.8363" stroke="white" x1="33.2498" y1="28.8363" x2="24.3218"  stroke-width="0.432" stroke-linecap="round"/>
                <path d="M27.3458,28.8363A1.44,1.44,0,1,0,30.2258,28.8363" stroke="white" fill="none"  stroke-width="0.432"/>
                <line y2="43.2363" stroke="white" x1="24.2498" y1="28.8363" x2="24.2498"  stroke-width="0.144" stroke-linecap="round"/>
            </g>
        </g>
        <g >
            <title >element:J2</title>
            <g >
                <title >package:1X2-3.5MM</title>
                <line y2="4.60007" stroke="white" x1="38.4236" y1="20.4741" x2="38.4236"  stroke-width="0.36" stroke-linecap="round"/>
                <line y2="0.631559" stroke="white" x1="38.4236" y1="4.60007" x2="38.4236"  stroke-width="0.36" stroke-linecap="round"/>
                <line y2="0.631559" stroke="white" x1="38.4236" y1="0.631559" x2="18.5811"  stroke-width="0.36" stroke-linecap="round"/>
                <line y2="4.60007" stroke="white" x1="18.5811" y1="0.631559" x2="18.5811"  stroke-width="0.36" stroke-linecap="round"/>
                <line y2="20.4741" stroke="white" x1="18.5811" y1="4.60007" x2="18.5811"  stroke-width="0.36" stroke-linecap="round"/>
                <line y2="20.4741" stroke="white" x1="18.5811" y1="20.4741" x2="38.4236"  stroke-width="0.36" stroke-linecap="round"/>
                <line y2="4.60007" stroke="white" x1="38.4236" y1="4.60007" x2="18.5811"  stroke-width="0.36" stroke-linecap="round"/>
            </g>
        </g>
        <g >
            <title >element:JP1</title>
            <g >
                <title >package:1X06_ROUND_76</title>
            </g>
        </g>
    </g>
    <g gorn="0.3" id="copper1" >
        <g gorn="0.3.0" id="copper0" >
            <circle gorn="0.3.0.0" cy="59.0763" stroke="#F7BD13" cx="39.5858" fill="none" r="2.07666" connectorname="CS" id="connector38pad"  stroke-width="1.31868"/>
            <circle gorn="0.3.0.1" cy="7.23629" stroke="#F7BD13" cx="50.3858" fill="none" r="3.83811" connectorname="P$1" id="connector46pad"  stroke-width="1.44"/>
            <circle gorn="0.3.0.2" cy="59.0763" stroke="#F7BD13" cx="10.7858" fill="none" r="2.07666" connectorname="VIN" id="connector34pad"  stroke-width="1.31868"/>
            <circle gorn="0.3.0.3" cy="10.8363" stroke="#F7BD13" cx="23.6835" fill="none" r="2.25666" connectorname="THERMO-" id="connector32pad"  stroke-width="1.67868"/>
            <circle gorn="0.3.0.4" cy="59.0763" stroke="#F7BD13" cx="25.1858" fill="none" r="2.07666" connectorname="GND" id="connector36pad"  stroke-width="1.31868"/>
            <circle gorn="0.3.0.5" cy="10.8363" stroke="#F7BD13" cx="33.6047" fill="none" r="2.25666" connectorname="THERMO+" id="connector33pad"  stroke-width="1.67868"/>
            <circle gorn="0.3.0.6" cy="59.0763" stroke="#F7BD13" cx="17.9858" fill="none" r="2.07666" connectorname="+3V3" id="connector35pad"  stroke-width="1.31868"/>
            <circle gorn="0.3.0.7" cy="59.0763" stroke="#F7BD13" cx="32.3858" fill="none" r="2.07666" connectorname="DO" id="connector37pad"  stroke-width="1.31868"/>
            <circle gorn="0.3.0.8" cy="59.0763" stroke="#F7BD13" cx="46.7858" fill="none" r="2.07666" connectorname="CLK" id="connector39pad"  stroke-width="1.31868"/>
            <circle gorn="0.3.0.9" cy="7.23629" stroke="#F7BD13" cx="7.18583" fill="none" r="3.83811" connectorname="P$1" id="connector47pad"  stroke-width="1.44"/>
        </g>
    </g>
</svg>
