<?xml version='1.0' encoding='UTF-8' standalone='no'?>
<!-- Created with Fritzing (http://www.fritzing.org/) -->
<svg xmlns="http://www.w3.org/2000/svg" width="1.5748in" baseProfile="tiny" viewBox="0 0 113.386 110.551"  x="0in" height="1.53543in" y="0in" version="1.2">
    <desc >
        <referenceFile >Adafruit SHARP Memory Display 1.3 inch 96x96_pcb.svg</referenceFile>
    </desc>
    <desc >Fritzing footprint generated by brd2svg</desc>
    <g  id="silkscreen" gorn="0.2">
        <path fill="none"  stroke="white" d="M113.098,101.804A8.21592,8.21592,0,0,1,104.637,110.263L8.74872,110.263A8.21592,8.21592,0,0,1,0.288,101.804A8.21592,8.21592,0,0,1,8.74872,93.3437L14.3892,93.3437L14.3892,17.2073L8.74872,17.2073A8.21592,8.21592,0,0,1,0.288,8.74764A8.21592,8.21592,0,0,1,8.74872,0.288L104.637,0.288A8.21592,8.21592,0,0,1,113.098,8.74764A8.21592,8.21592,0,0,1,104.637,17.2073L98.9964,17.2073L98.9964,93.3437L104.637,93.3437A8.21592,8.21592,0,0,1,113.098,101.804" stroke-width="0.576"/>
        <g >
            <title >element:IC1</title>
            <g >
                <title >package:FPC_10PIN_52892-1095</title>
            </g>
        </g>
        <g >
            <title >element:JP1</title>
            <g >
                <title >package:1X09_ROUND_70</title>
            </g>
        </g>
        <g >
            <title >element:U1</title>
            <g >
                <title >package:SOIC16</title>
            </g>
        </g>
    </g>
    <g  id="copper1" gorn="0.3">
        <g  id="copper0" gorn="0.3.0">
            <circle fill="none" r="1.96866"  stroke="#F7BD13" id="connector6pad" stroke-width="1.10268" gorn="0.3.0.0" cx="78.2928" cy="103.351" connectorname="3.3V"/>
            <circle fill="none" r="1.96866"  stroke="#F7BD13" id="connector12pad" stroke-width="1.10268" gorn="0.3.0.1" cx="35.0929" cy="103.351" connectorname="DISP"/>
            <circle fill="none" r="4.67716"  stroke="#F7BD13" id="connector14pad" stroke-width="0.850392" gorn="0.3.0.2" cx="104.882" cy="8.50392" connectorname="P$1"/>
            <circle fill="none" r="1.96866"  stroke="#F7BD13" id="connector7pad" stroke-width="1.10268" gorn="0.3.0.3" cx="71.0929" cy="103.351" connectorname="GND"/>
            <circle fill="none" r="4.67716"  stroke="#F7BD13" id="connector16pad" stroke-width="0.850392" gorn="0.3.0.4" cx="104.882" cy="102.047" connectorname="P$1"/>
            <circle fill="none" r="1.96866"  stroke="#F7BD13" id="connector8pad" stroke-width="1.10268" gorn="0.3.0.5" cx="63.8929" cy="103.351" connectorname="SCLK"/>
            <circle fill="none" r="1.96866"  stroke="#F7BD13" id="connector13pad" stroke-width="1.10268" gorn="0.3.0.6" cx="27.8929" cy="103.351" connectorname="EXTIN"/>
            <circle fill="none" r="1.96866"  stroke="#F7BD13" id="connector9pad" stroke-width="1.10268" gorn="0.3.0.7" cx="56.6929" cy="103.351" connectorname="MOSI"/>
            <circle fill="none" r="4.67716"  stroke="#F7BD13" id="connector15pad" stroke-width="0.850392" gorn="0.3.0.8" cx="8.50392" cy="8.50392" connectorname="P$1"/>
            <circle fill="none" r="1.96866"  stroke="#F7BD13" id="connector10pad" stroke-width="1.10268" gorn="0.3.0.9" cx="49.4929" cy="103.351" connectorname="CS"/>
            <circle fill="none" r="4.67716"  stroke="#F7BD13" id="connector17pad" stroke-width="0.850392" gorn="0.3.0.10" cx="8.50392" cy="102.047" connectorname="P$1"/>
            <circle fill="none" r="1.96866"  stroke="#F7BD13" id="connector11pad" stroke-width="1.10268" gorn="0.3.0.11" cx="42.2929" cy="103.351" connectorname="EXTMODE"/>
            <circle fill="none" r="1.96866"  stroke="#F7BD13" id="connector5pad" stroke-width="1.10268" gorn="0.3.0.12" cx="85.4928" cy="103.351" connectorname="VIN"/>
        </g>
    </g>
</svg>
