<?xml version='1.0' encoding='UTF-8' standalone='no'?>
<!-- Created with Fritzing (http://www.fritzing.org/) -->
<svg xmlns="http://www.w3.org/2000/svg" version="1.2" baseProfile="tiny" width="0.7in" x="0in" viewBox="0 0 50.4 46.8" height="0.65in"  y="0in">
    <desc>
        <referenceFile>Adafruit BME680_pcb.svg</referenceFile>
    </desc>
    <desc >Fritzing footprint generated by brd2svg</desc>
    <g gorn="0.1" id="silkscreen" >
        <path fill="none" stroke="white" stroke-width="0.576" d="M42.9943,46.512L7.4057,46.512A6.912,6.912,0,0,1,0.288,39.4006L0.288,7.39937A6.912,6.912,0,0,1,7.4057,0.288L42.9943,0.288A6.912,6.912,0,0,1,50.112,7.39937L50.112,39.4006A6.912,6.912,0,0,1,42.9943,46.512" />
        <g >
            <title >element:JP2</title>
            <g >
                <title >package:1X07_ROUND_70</title>
            </g>
        </g>
    </g>
    <g gorn="0.2" id="copper1" >
        <g gorn="0.2.0" id="copper0" >
            <circle cx="43.2" connectorname="P$1" fill="none" stroke="#F7BD13" stroke-width="1.44" r="3.83811" gorn="0.2.0.0" id="connector33pad"  cy="7.2"/>
            <circle cx="3.6" connectorname="VIN" fill="none" stroke="#F7BD13" stroke-width="1.10268" r="1.96866" gorn="0.2.0.1" id="connector6pad"  cy="39.6"/>
            <circle cx="10.8" connectorname="3.3V" fill="none" stroke="#F7BD13" stroke-width="1.10268" r="1.96866" gorn="0.2.0.2" id="connector7pad"  cy="39.6"/>
            <circle cx="18" connectorname="GND" fill="none" stroke="#F7BD13" stroke-width="1.10268" r="1.96866" gorn="0.2.0.3" id="connector8pad"  cy="39.6"/>
            <circle cx="25.2" connectorname="SCK/SCL" fill="none" stroke="#F7BD13" stroke-width="1.10268" r="1.96866" gorn="0.2.0.4" id="connector9pad"  cy="39.6"/>
            <circle cx="32.4" connectorname="SDO/ADR" fill="none" stroke="#F7BD13" stroke-width="1.10268" r="1.96866" gorn="0.2.0.5" id="connector10pad"  cy="39.6"/>
            <circle cx="39.6" connectorname="SDI/SDA" fill="none" stroke="#F7BD13" stroke-width="1.10268" r="1.96866" gorn="0.2.0.6" id="connector11pad"  cy="39.6"/>
            <circle cx="46.8" connectorname="CS" fill="none" stroke="#F7BD13" stroke-width="1.10268" r="1.96866" gorn="0.2.0.7" id="connector12pad"  cy="39.6"/>
            <circle cx="7.2" connectorname="P$1" fill="none" stroke="#F7BD13" stroke-width="1.44" r="3.83811" gorn="0.2.0.8" id="connector32pad"  cy="7.2"/>
        </g>
    </g>
</svg>
