<?xml version='1.0' encoding='UTF-8' standalone='no'?>
<!-- Created with Fritzing (http://www.fritzing.org/) -->
<svg xmlns="http://www.w3.org/2000/svg" width="1.6in" baseProfile="tiny" viewBox="0 0 115.2 187.2"  x="0in" height="2.6in" y="0in" version="1.2">
    <desc >
        <referenceFile >Adafruit TFT 2.2 inch 320x240 w microSD_pcb.svg</referenceFile>
    </desc>
    <desc >Fritzing footprint generated by brd2svg</desc>
    <g  id="silkscreen" gorn="0.2">
        <path fill="none"  stroke="white" d="M0.288,179.734L0.288,7.46582A6.912,6.912,0,0,1,7.452,0.288L107.748,0.288A6.912,6.912,0,0,1,114.912,7.46582L114.912,179.734A6.912,6.912,0,0,1,107.748,186.912L7.452,186.912A6.912,6.912,0,0,1,0.288,179.734M37.6203,120.174a1.12932,1.12932,0,1,0,2.25865,0,1.12932,1.12932,0,1,0,-2.25865,0zM75.3214,120.174a1.12932,1.12932,0,1,0,2.25865,0,1.12932,1.12932,0,1,0,-2.25865,0zM108.912,31.0139a1.12932,1.12932,0,1,0,2.25865,0,1.12932,1.12932,0,1,0,-2.25865,0zM4.02973,31.0139a1.12932,1.12932,0,1,0,2.25865,0,1.12932,1.12932,0,1,0,-2.25865,0zM4.02973,162.825a1.12932,1.12932,0,1,0,2.25865,0,1.12932,1.12932,0,1,0,-2.25865,0zM108.912,162.825a1.12932,1.12932,0,1,0,2.25865,0,1.12932,1.12932,0,1,0,-2.25865,0z" stroke-width="0.576"/>
        <g >
            <title >element:CN1</title>
            <g >
                <title >package:MICROSD</title>
            </g>
        </g>
        <g >
            <title >element:JP1</title>
            <g >
                <title >package:1X10_ROUND70</title>
            </g>
        </g>
        <g >
            <title >element:U$20</title>
            <g >
                <title >package:ADAFRUIT_TEXT_30MM</title>
            </g>
        </g>
        <g >
            <title >element:U1</title>
            <g >
                <title >package:TM022HDH26_2.2IN_LCD</title>
                <line x2="115.001"  stroke="white" stroke-linecap="round" stroke-width="0.36" y1="14.5729" y2="14.5729" x1="0.198426"/>
                <line x2="0.198426"  stroke="white" stroke-linecap="round" stroke-width="0.36" y1="172.179" y2="14.5729" x1="0.198426"/>
                <line x2="115.001"  stroke="white" stroke-linecap="round" stroke-width="0.36" y1="14.5729" y2="172.179" x1="115.001"/>
                <line x2="0.198426"  stroke="white" stroke-linecap="round" stroke-width="0.36" y1="172.179" y2="172.179" x1="115.001"/>
            </g>
        </g>
        <g >
            <title >element:U3</title>
            <g >
                <title >package:SOIC16</title>
            </g>
        </g>
    </g>
    <g  id="copper1" gorn="0.3">
        <g  id="copper0" gorn="0.3.0">
            <circle fill="none" r="1.96866"  stroke="#F7BD13" id="connector6pad" stroke-width="1.10268" gorn="0.3.0.0" cx="82.8" cy="179.943" connectorname="VIN"/>
            <circle fill="none" r="1.96866"  stroke="#F7BD13" id="connector7pad" stroke-width="1.10268" gorn="0.3.0.1" cx="75.6" cy="179.943" connectorname="DC"/>
            <circle fill="none" r="1.96866"  stroke="#F7BD13" id="connector8pad" stroke-width="1.10268" gorn="0.3.0.2" cx="68.4" cy="179.943" connectorname="RESET"/>
            <circle fill="none" r="1.96866"  stroke="#F7BD13" id="connector9pad" stroke-width="1.10268" gorn="0.3.0.3" cx="61.2" cy="179.943" connectorname="SDCS"/>
            <circle fill="none" r="1.96866"  stroke="#F7BD13" id="connector10pad" stroke-width="1.10268" gorn="0.3.0.4" cx="54" cy="179.943" connectorname="LCDCS"/>
            <circle fill="none" r="1.96866"  stroke="#F7BD13" id="connector11pad" stroke-width="1.10268" gorn="0.3.0.5" cx="46.8" cy="179.943" connectorname="MOSI"/>
            <circle fill="none" r="1.96866"  stroke="#F7BD13" id="connector12pad" stroke-width="1.10268" gorn="0.3.0.6" cx="39.6" cy="179.943" connectorname="MISO"/>
            <circle fill="none" r="1.96866"  stroke="#F7BD13" id="connector13pad" stroke-width="1.10268" gorn="0.3.0.7" cx="32.4" cy="179.943" connectorname="SCLK"/>
            <circle fill="none" r="1.96866"  stroke="#F7BD13" id="connector14pad" stroke-width="1.10268" gorn="0.3.0.8" cx="25.2" cy="179.943" connectorname="BACKLIGHT"/>
            <circle fill="none" r="4.26331"  stroke="#F7BD13" id="connector15pad" stroke-width="1.44" gorn="0.3.0.9" cx="108" cy="180" connectorname="P$1"/>
            <circle fill="none" r="4.26331"  stroke="#F7BD13" id="connector16pad" stroke-width="1.44" gorn="0.3.0.10" cx="7.2" cy="7.2" connectorname="P$1"/>
            <circle fill="none" r="4.26331"  stroke="#F7BD13" id="connector17pad" stroke-width="1.44" gorn="0.3.0.11" cx="108" cy="7.2" connectorname="P$1"/>
            <circle fill="none" r="4.26331"  stroke="#F7BD13" id="connector18pad" stroke-width="1.44" gorn="0.3.0.12" cx="7.2" cy="180" connectorname="P$1"/>
            <circle fill="none" r="1.96866"  stroke="#F7BD13" id="connector5pad" stroke-width="1.10268" gorn="0.3.0.13" cx="90" cy="179.943" connectorname="GND"/>
        </g>
    </g>
</svg>
