<?xml version='1.0' encoding='UTF-8' standalone='no'?>
<!-- Created with Fritzing (http://www.fritzing.org/) -->
<svg xmlns="http://www.w3.org/2000/svg" version="1.2" baseProfile="tiny" height="1.72122in" x="0in" width="2.19843in"  viewBox="0 0 158.287 123.928" y="0in">
    <desc>
        <referenceFile>Adafruit MAX9744 20W Amplifier_pcb.svg</referenceFile>
    </desc>
    <desc >Fritzing footprint generated by brd2svg</desc>
    <g id="silkscreen" gorn="0.1" >
        <path fill="none" stroke-width="0.576"  stroke="white" d="M14.5226,8.9753L150.825,8.9753A6.912,6.912,0,0,1,157.999,16.1418L157.999,116.474A6.912,6.912,0,0,1,150.825,123.64L14.5226,123.64A6.912,6.912,0,0,1,7.34882,116.474L7.34882,16.1418A6.912,6.912,0,0,1,14.5226,8.9753M49.2962,14.1732a1.97972,1.97972,0,1,0,3.95943,0,1.97972,1.97972,0,1,0,-3.95943,0zM49.0127,26.9292a2.26318,2.26318,0,1,0,4.52636,0,2.26318,2.26318,0,1,0,-4.52636,0zM14.4612,76.0478a2.54665,2.54665,0,1,0,5.09329,0,2.54665,2.54665,0,1,0,-5.09329,0zM34.3038,76.0478a2.54665,2.54665,0,1,0,5.09329,0,2.54665,2.54665,0,1,0,-5.09329,0z"/>
        <g >
            <title >element:C1</title>
            <g >
                <title >package:CELEC_3.5MM_8MM</title>
                <line stroke-width="0.576" x1="128.478" stroke-linecap="round" y1="11.0863" y2="13.2463" x2="128.478"  stroke="white"/>
                <line stroke-width="0.576" x1="127.398" stroke-linecap="round" y1="12.1663" y2="12.1663" x2="129.558"  stroke="white"/>
                <circle r="11.52" fill="none" cx="125.238" stroke-width="0.576" cy="20.8063"  stroke="white"/>
            </g>
        </g>
        <g >
            <title >element:CN1</title>
            <g >
                <title >package:DCJACK_2MM_SMT</title>
                <path fill="none" stroke-width="0.576"  stroke="white" d="M64.0318,2.83465A2.83465,2.83465,0,0,0,61.1972,0"/>
                <line stroke-width="0.576" x1="61.1972" stroke-linecap="round" y1="0" y2="0" x2="41.3546"  stroke="white"/>
                <path fill="none" stroke-width="0.576"  stroke="white" d="M41.3546,0A2.83465,2.83465,0,0,0,38.52,2.83465"/>
                <line stroke-width="0.576" x1="38.52" stroke-linecap="round" y1="43.2397" y2="43.2397" x2="47.0466"  stroke="white"/>
                <line stroke-width="0.576" x1="47.0466" stroke-linecap="round" y1="43.2397" y2="39.685" x2="47.0466"  stroke="white"/>
                <line stroke-width="0.576" x1="47.0466" stroke-linecap="round" y1="39.685" y2="39.685" x2="64.0318"  stroke="white"/>
                <line stroke-width="0.576" x1="64.0318" stroke-linecap="round" y1="9.44503" y2="2.83465" x2="64.0318"  stroke="white"/>
                <line stroke-width="0.576" x1="64.0318" stroke-linecap="round" y1="27.445" y2="18.6746" x2="64.0318"  stroke="white"/>
                <line stroke-width="0.576" x1="64.0318" stroke-linecap="round" y1="39.685" y2="36.6746" x2="64.0318"  stroke="white"/>
                <line stroke-width="0.576" x1="38.52" stroke-linecap="round" y1="2.83465" y2="9.39967" x2="38.52"  stroke="white"/>
                <line stroke-width="0.576" x1="38.52" stroke-linecap="round" y1="18.6746" y2="27.3997" x2="38.52"  stroke="white"/>
                <line stroke-width="0.576" x1="38.52" stroke-linecap="round" y1="36.6746" y2="43.2397" x2="38.52"  stroke="white"/>
            </g>
        </g>
        <g >
            <title >element:J1</title>
            <g >
                <title >package:TERMBLOCK_1X2-3.5MM</title>
                <line stroke-width="0.576" x1="91.5134" stroke-linecap="round" y1="29.931" y2="14.057" x2="91.5134"  stroke="white"/>
                <line stroke-width="0.576" x1="91.5134" stroke-linecap="round" y1="14.057" y2="10.0885" x2="91.5134"  stroke="white"/>
                <line stroke-width="0.576" x1="91.5134" stroke-linecap="round" y1="10.0885" y2="10.0885" x2="71.6712"  stroke="white"/>
                <line stroke-width="0.576" x1="71.6712" stroke-linecap="round" y1="10.0885" y2="14.057" x2="71.6712"  stroke="white"/>
                <line stroke-width="0.576" x1="71.6712" stroke-linecap="round" y1="14.057" y2="29.931" x2="71.6712"  stroke="white"/>
                <line stroke-width="0.576" x1="71.6712" stroke-linecap="round" y1="29.931" y2="29.931" x2="91.5134"  stroke="white"/>
                <line stroke-width="0.576" x1="91.5134" stroke-linecap="round" y1="14.057" y2="14.057" x2="71.6712"  stroke="white"/>
            </g>
        </g>
        <g >
            <title >element:J2</title>
            <g >
                <title >package:TERMBLOCK_1X2-3.5MM</title>
                <line stroke-width="0.576" x1="138.028" stroke-linecap="round" y1="88.9258" y2="88.9258" x2="153.901"  stroke="white"/>
                <line stroke-width="0.576" x1="153.901" stroke-linecap="round" y1="88.9258" y2="88.9258" x2="157.87"  stroke="white"/>
                <line stroke-width="0.576" x1="157.87" stroke-linecap="round" y1="88.9258" y2="69.0831" x2="157.87"  stroke="white"/>
                <line stroke-width="0.576" x1="157.87" stroke-linecap="round" y1="69.0831" y2="69.0831" x2="153.901"  stroke="white"/>
                <line stroke-width="0.576" x1="153.901" stroke-linecap="round" y1="69.0831" y2="69.0831" x2="138.028"  stroke="white"/>
                <line stroke-width="0.576" x1="138.028" stroke-linecap="round" y1="69.0831" y2="88.9258" x2="138.028"  stroke="white"/>
                <line stroke-width="0.576" x1="153.901" stroke-linecap="round" y1="88.9258" y2="69.0831" x2="153.901"  stroke="white"/>
            </g>
        </g>
        <g >
            <title >element:J3</title>
            <g >
                <title >package:TERMBLOCK_1X2-3.5MM</title>
                <line stroke-width="0.576" x1="138.028" stroke-linecap="round" y1="61.5657" y2="61.5657" x2="153.901"  stroke="white"/>
                <line stroke-width="0.576" x1="153.901" stroke-linecap="round" y1="61.5657" y2="61.5657" x2="157.87"  stroke="white"/>
                <line stroke-width="0.576" x1="157.87" stroke-linecap="round" y1="61.5657" y2="41.7231" x2="157.87"  stroke="white"/>
                <line stroke-width="0.576" x1="157.87" stroke-linecap="round" y1="41.7231" y2="41.7231" x2="153.901"  stroke="white"/>
                <line stroke-width="0.576" x1="153.901" stroke-linecap="round" y1="41.7231" y2="41.7231" x2="138.028"  stroke="white"/>
                <line stroke-width="0.576" x1="138.028" stroke-linecap="round" y1="41.7231" y2="61.5657" x2="138.028"  stroke="white"/>
                <line stroke-width="0.576" x1="153.901" stroke-linecap="round" y1="61.5657" y2="41.7231" x2="153.901"  stroke="white"/>
            </g>
        </g>
        <g >
            <title >element:JP2</title>
            <g >
                <title >package:1X14_ROUND70</title>
            </g>
        </g>
        <g >
            <title >element:Q1</title>
            <g >
                <title >package:TO252</title>
                <line stroke-width="0.576" x1="112.404" stroke-linecap="round" y1="14.6681" y2="31.6601" x2="112.405"  stroke="white"/>
                <line stroke-width="0.576" x1="112.405" stroke-linecap="round" y1="31.6601" y2="31.6601" x2="93.8268"  stroke="white"/>
                <line stroke-width="0.576" x1="93.8268" stroke-linecap="round" y1="31.6601" y2="14.6681" x2="93.8282"  stroke="white"/>
            </g>
        </g>
        <g >
            <title >element:U$28</title>
            <g >
                <title >package:ADAFRUIT_TEXT_20MM</title>
            </g>
        </g>
        <g >
            <title >element:U1</title>
            <g >
                <title >package:TQFN44_7MM</title>
                <line stroke-width="0.36" x1="92.6928" stroke-linecap="round" y1="75.8124" y2="75.8124" x2="94.9608"  stroke="white"/>
                <line stroke-width="0.36" x1="94.9608" stroke-linecap="round" y1="75.8124" y2="73.5451" x2="94.9608"  stroke="white"/>
                <line stroke-width="0.36" x1="76.819" stroke-linecap="round" y1="75.8124" y2="75.8124" x2="74.551"  stroke="white"/>
                <line stroke-width="0.36" x1="74.551" stroke-linecap="round" y1="75.8124" y2="73.5451" x2="74.551"  stroke="white"/>
                <line stroke-width="0.36" x1="94.9608" stroke-linecap="round" y1="57.6708" y2="55.4031" x2="94.9608"  stroke="white"/>
                <line stroke-width="0.36" x1="94.9608" stroke-linecap="round" y1="55.4031" y2="55.4031" x2="92.6928"  stroke="white"/>
                <line stroke-width="0.36" x1="74.551" stroke-linecap="round" y1="57.6708" y2="55.4031" x2="74.551"  stroke="white"/>
                <line stroke-width="0.36" x1="74.551" stroke-linecap="round" y1="55.4031" y2="55.4031" x2="76.819"  stroke="white"/>
                <circle r="0.36" fill="none" cx="95.7485" stroke-width="1.152" cy="54.462"  stroke="white"/>
            </g>
        </g>
        <g >
            <title >element:VR1</title>
            <g >
                <title >package:TRIMPOT_100MILPTH</title>
                <line stroke-width="0.432" x1="34.8322" stroke-linecap="round" y1="91.715" y2="105.395" x2="34.8322"  stroke="white"/>
                <line stroke-width="0.432" x1="7.47216" stroke-linecap="round" y1="105.395" y2="91.715" x2="7.47216"  stroke="white"/>
                <line stroke-width="0.432" x1="34.8322" stroke-linecap="round" y1="91.715" y2="91.715" x2="26.9122"  stroke="white"/>
                <line stroke-width="0.432" x1="26.9122" stroke-linecap="round" y1="91.715" y2="91.715" x2="21.8722"  stroke="white"/>
                <line stroke-width="0.432" x1="15.3922" stroke-linecap="round" y1="91.715" y2="91.715" x2="7.47216"  stroke="white"/>
                <line stroke-width="0.432" x1="21.8722" stroke-linecap="round" y1="91.715" y2="91.715" x2="20.4322"  stroke="white"/>
                <line stroke-width="0.432" x1="20.4322" stroke-linecap="round" y1="91.715" y2="91.715" x2="15.3922"  stroke="white"/>
                <line stroke-width="0.432" x1="30.7162" stroke-linecap="round" y1="105.395" y2="105.395" x2="34.8322"  stroke="white"/>
                <line stroke-width="0.432" x1="7.47216" stroke-linecap="round" y1="105.395" y2="105.395" x2="11.588"  stroke="white"/>
                <line stroke-width="0.432" x1="23.6296" stroke-linecap="round" y1="105.395" y2="105.395" x2="26.0447"  stroke="white"/>
                <line stroke-width="0.432" x1="16.2595" stroke-linecap="round" y1="105.395" y2="105.395" x2="18.9581"  stroke="white"/>
            </g>
        </g>
        <g >
            <title >element:X1</title>
            <g >
                <title >package:TERMBLOCK_1X3-3.5MM</title>
                <line stroke-width="0.576" x1="27.0113" stroke-linecap="round" y1="30.8495" y2="30.8495" x2="11.1373"  stroke="white"/>
                <line stroke-width="0.576" x1="11.1373" stroke-linecap="round" y1="30.8495" y2="30.8495" x2="7.16882"  stroke="white"/>
                <line stroke-width="0.576" x1="7.16882" stroke-linecap="round" y1="30.8495" y2="60.6132" x2="7.16882"  stroke="white"/>
                <line stroke-width="0.576" x1="7.16882" stroke-linecap="round" y1="60.6132" y2="60.6132" x2="11.1373"  stroke="white"/>
                <line stroke-width="0.576" x1="11.1373" stroke-linecap="round" y1="60.6132" y2="60.6132" x2="27.0113"  stroke="white"/>
                <line stroke-width="0.576" x1="27.0113" stroke-linecap="round" y1="60.6132" y2="30.8495" x2="27.0113"  stroke="white"/>
                <line stroke-width="0.576" x1="11.1373" stroke-linecap="round" y1="30.8495" y2="60.6132" x2="11.1373"  stroke="white"/>
            </g>
        </g>
        <g >
            <title >element:X2</title>
            <g >
                <title >package:4UCONN_19269</title>
                <line stroke-width="0.576" x1="7.08661" stroke-linecap="round" y1="67.5439" y2="84.5518" x2="7.08661"  stroke="white"/>
                <line stroke-width="0.576" x1="7.08661" stroke-linecap="round" y1="67.5439" y2="67.5439" x2="8.78738"  stroke="white"/>
                <line stroke-width="0.576" x1="13.8897" stroke-linecap="round" y1="67.5439" y2="67.5439" x2="15.5905"  stroke="white"/>
                <line stroke-width="0.576" x1="48.189" stroke-linecap="round" y1="67.5439" y2="67.5439" x2="23.1024"  stroke="white"/>
                <line stroke-width="0.576" x1="7.22837" stroke-linecap="round" y1="84.5518" y2="84.5518" x2="10.3465"  stroke="white"/>
                <line stroke-width="0.576" x1="18" stroke-linecap="round" y1="84.5518" y2="84.5518" x2="36.4252"  stroke="white"/>
                <line stroke-width="0.576" x1="48.189" stroke-linecap="round" y1="84.5518" y2="84.5518" x2="43.937"  stroke="white"/>
                <line stroke-width="0.576" x1="48.189" stroke-linecap="round" y1="67.5439" y2="70.0951" x2="48.189"  stroke="white"/>
                <line stroke-width="0.576" x1="48.189" stroke-linecap="round" y1="84.5518" y2="77.7485" x2="48.189"  stroke="white"/>
            </g>
        </g>
        <line fill="none" stroke-width="0.576" x1="38.52" fill-opacity="1" y1="0.288" y2="0.288" x2="64.0318"  stroke="white"/>
        <line fill="none" stroke-width="0.576" x1="38.52" fill-opacity="1" y1="8.72784" y2="0.288" x2="38.52"  stroke="white"/>
        <line fill="none" stroke-width="0.576" x1="64.0318" fill-opacity="1" y1="8.72784" y2="0.288" x2="64.0318"  stroke="white"/>
        <line fill="none" stroke-width="0.576" x1="0.288" fill-opacity="1" y1="88.6622" y2="88.6622" x2="7.08661"  stroke="white"/>
        <line fill="none" stroke-width="0.576" x1="0.288" fill-opacity="1" y1="63.5754" y2="63.5754" x2="7.08661"  stroke="white"/>
        <line fill="none" stroke-width="0.576" x1="0.288" fill-opacity="1" y1="88.6622" y2="63.5754" x2="0.288"  stroke="white"/>
    </g>
    <g id="copper1" gorn="0.2" >
        <g id="copper0" gorn="0.2.0" >
            <circle id="connector1pad" r="1.71" fill="none" gorn="0.2.0.0" cx="125.238" stroke-width="1.116" cy="25.8463" connectorname="GND"  stroke="#F7BD13"/>
            <circle id="connector125pad" r="4.6063" fill="none" gorn="0.2.0.1" cx="151.087" stroke-width="2.12599" cy="116.728" connectorname="P$1"  stroke="#F7BD13"/>
            <circle id="connector181pad" r="2.25666" fill="none" gorn="0.2.0.2" cx="17.3735" stroke-width="1.67868" cy="55.5108" connectorname="RIGHTIN"  stroke="#F7BD13"/>
            <circle id="connector127pad" r="4.6063" fill="none" gorn="0.2.0.3" cx="151.087" stroke-width="2.12599" cy="15.9278" connectorname="P$1"  stroke="#F7BD13"/>
            <circle id="connector179pad" r="1.512" fill="none" gorn="0.2.0.4" cx="28.3522" stroke-width="0.72" cy="102.515" connectorname="3.3V"  stroke="#F7BD13"/>
            <path fill="#F7BD13" stroke-width="0"  stroke="none" d="m26.8402,99.0374,3.024,0,0,6.9552,-3.024,0,0,-6.9552M26.8402,102.515a1.512,1.512,0,1,0,3.024,0,1.512,1.512,0,1,0,-3.024,0z"/>
            <circle id="connector183pad" r="2.25666" fill="none" gorn="0.2.0.6" cx="17.3735" stroke-width="1.67868" cy="35.6684" connectorname="LEFTIN"  stroke="#F7BD13"/>
            <circle id="connector58pad" r="2.25666" fill="none" gorn="0.2.0.7" cx="76.7736" stroke-width="1.67868" cy="20.2932" connectorname="GND"  stroke="#F7BD13"/>
            <circle id="connector59pad" r="2.25666" fill="none" gorn="0.2.0.8" cx="86.6945" stroke-width="1.67868" cy="20.2932" connectorname="PWRIN"  stroke="#F7BD13"/>
            <circle id="connector60pad" r="2.25666" fill="none" gorn="0.2.0.9" cx="147.666" stroke-width="1.67868" cy="74.1852" connectorname="RIGHT-"  stroke="#F7BD13"/>
            <circle id="connector61pad" r="2.25666" fill="none" gorn="0.2.0.10" cx="147.666" stroke-width="1.67868" cy="84.1068" connectorname="RIGHT+"  stroke="#F7BD13"/>
            <circle id="connector124pad" r="4.6063" fill="none" gorn="0.2.0.11" cx="14.2866" stroke-width="2.12599" cy="116.728" connectorname="P$1"  stroke="#F7BD13"/>
            <circle id="connector62pad" r="2.25666" fill="none" gorn="0.2.0.12" cx="147.666" stroke-width="1.67868" cy="46.8255" connectorname="LEFT+"  stroke="#F7BD13"/>
            <circle id="connector126pad" r="4.6063" fill="none" gorn="0.2.0.13" cx="14.2866" stroke-width="2.12599" cy="15.9278" connectorname="P$1"  stroke="#F7BD13"/>
            <circle id="connector63pad" r="2.25666" fill="none" gorn="0.2.0.14" cx="147.666" stroke-width="1.67868" cy="56.7468" connectorname="LEFT-"  stroke="#F7BD13"/>
            <circle id="connector64pad" r="1.89666" fill="none" gorn="0.2.0.15" cx="35.8866" stroke-width="0.95868" cy="116.728" connectorname="RIGHTIN"  stroke="#F7BD13"/>
            <rect fill="none" stroke-width="0.95868" height="3.79332" x="33.99" width="3.79332"  y="114.831" stroke="#F7BD13"/>
            <circle id="connector65pad" r="1.89666" fill="none" gorn="0.2.0.17" cx="43.0866" stroke-width="0.95868" cy="116.728" connectorname="LEFTIN"  stroke="#F7BD13"/>
            <circle id="connector66pad" r="1.89666" fill="none" gorn="0.2.0.18" cx="50.2866" stroke-width="0.95868" cy="116.728" connectorname="AGND"  stroke="#F7BD13"/>
            <circle id="connector67pad" r="1.89666" fill="none" gorn="0.2.0.19" cx="57.4866" stroke-width="0.95868" cy="116.728" connectorname="SDA"  stroke="#F7BD13"/>
            <circle id="connector68pad" r="1.89666" fill="none" gorn="0.2.0.20" cx="64.6866" stroke-width="0.95868" cy="116.728" connectorname="SCL"  stroke="#F7BD13"/>
            <circle id="connector69pad" r="1.89666" fill="none" gorn="0.2.0.21" cx="71.8866" stroke-width="0.95868" cy="116.728" connectorname="VI2C"  stroke="#F7BD13"/>
            <circle id="connector70pad" r="1.89666" fill="none" gorn="0.2.0.22" cx="79.087" stroke-width="0.95868" cy="116.728" connectorname="SHDN"  stroke="#F7BD13"/>
            <circle id="connector71pad" r="1.89666" fill="none" gorn="0.2.0.23" cx="86.287" stroke-width="0.95868" cy="116.728" connectorname="MUTE"  stroke="#F7BD13"/>
            <circle id="connector72pad" r="1.89666" fill="none" gorn="0.2.0.24" cx="93.487" stroke-width="0.95868" cy="116.728" connectorname="SYNCOUT"  stroke="#F7BD13"/>
            <circle id="connector73pad" r="1.89666" fill="none" gorn="0.2.0.25" cx="100.687" stroke-width="0.95868" cy="116.728" connectorname="SYNC"  stroke="#F7BD13"/>
            <circle id="connector74pad" r="1.89666" fill="none" gorn="0.2.0.26" cx="107.887" stroke-width="0.95868" cy="116.728" connectorname="ADDR1"  stroke="#F7BD13"/>
            <circle id="connector75pad" r="1.89666" fill="none" gorn="0.2.0.27" cx="115.087" stroke-width="0.95868" cy="116.728" connectorname="ADDR2"  stroke="#F7BD13"/>
            <circle id="connector76pad" r="1.89666" fill="none" gorn="0.2.0.28" cx="122.287" stroke-width="0.95868" cy="116.728" connectorname="GND"  stroke="#F7BD13"/>
            <circle id="connector77pad" r="1.89666" fill="none" gorn="0.2.0.29" cx="129.487" stroke-width="0.95868" cy="116.728" connectorname="VDD"  stroke="#F7BD13"/>
            <circle id="connector178pad" r="1.512" fill="none" gorn="0.2.0.30" cx="13.9522" stroke-width="0.72" cy="102.515" connectorname="GND"  stroke="#F7BD13"/>
            <path fill="#F7BD13" stroke-width="0"  stroke="none" d="m12.4402,99.0374,3.024,0,0,6.9552,-3.024,0,0,-6.9552M12.4402,102.515a1.512,1.512,0,1,0,3.024,0,1.512,1.512,0,1,0,-3.024,0z"/>
            <circle id="connector180pad" r="1.512" fill="none" gorn="0.2.0.32" cx="21.1522" stroke-width="0.72" cy="102.515" connectorname="AVOL"  stroke="#F7BD13"/>
            <path fill="#F7BD13" stroke-width="0"  stroke="none" d="m19.6402,99.0374,3.024,0,0,6.9552,-3.024,0,0,-6.9552M19.6402,102.515a1.512,1.512,0,1,0,3.024,0,1.512,1.512,0,1,0,-3.024,0z"/>
            <circle id="connector182pad" r="2.25666" fill="none" gorn="0.2.0.34" cx="17.3735" stroke-width="1.67868" cy="45.5896" connectorname="AGND"  stroke="#F7BD13"/>
            <circle id="connector0pad" r="1.71" fill="none" gorn="0.2.0.35" cx="125.238" stroke-width="1.116" cy="15.7663" connectorname="VDD"  stroke="#F7BD13"/>
        </g>
    </g>
</svg>
