<?xml version='1.0' encoding='UTF-8' standalone='no'?>
<!-- Created with Fritzing (http://www.fritzing.org/) -->
<svg xmlns="http://www.w3.org/2000/svg" width="0.400277in" version="1.2" baseProfile="tiny"  x="0in" viewBox="0 0 28.8199 58.32" height="0.81in" y="0in">
    <desc >
        <referenceFile >JST2 switch_pcb.svg</referenceFile>
    </desc>
    <desc >Fritzing footprint generated by brd2svg</desc>
    <g gorn="0.2" id="silkscreen" >
        <path d="M0.288,54.4676L0.288,3.85245A3.312,3.312,0,0,1,3.81605,0.288L25.69,0.288A2.97194,2.97194,0,0,1,28.5124,3.85245L28.5124,54.4676A3.312,3.312,0,0,1,24.9844,58.032L3.81605,58.032A3.312,3.312,0,0,1,0.288,54.4676M9.01872,38.16a1.12932,1.12932,0,1,0,2.25865,0,1.12932,1.12932,0,1,0,-2.25865,0zM17.5226,38.16a1.12932,1.12932,0,1,0,2.25865,0,1.12932,1.12932,0,1,0,-2.25865,0z" fill="none" stroke-width="0.576"  stroke="white"/>
        <g >
            <title >element:JP1</title>
            <g >
                <title >package:PADS-4</title>
            </g>
        </g>
        <g >
            <title >element:SW1</title>
            <g >
                <title >package:EG1390</title>
                <line stroke-width="0.36" stroke-linecap="round"  y1="43.1207" stroke="white" y2="43.1207" x2="4.19527" x1="24.6047"/>
                <line stroke-width="0.36" stroke-linecap="round"  y1="43.1207" stroke="white" y2="33.1993" x2="4.19527" x1="4.19527"/>
                <line stroke-width="0.36" stroke-linecap="round"  y1="33.1993" stroke="white" y2="33.1993" x2="24.6047" x1="4.19527"/>
                <line stroke-width="0.36" stroke-linecap="round"  y1="33.1993" stroke="white" y2="43.1207" x2="24.6047" x1="24.6047"/>
            </g>
        </g>
        <g >
            <title >element:U$3</title>
            <g >
                <title >package:ADAFRUIT_5MM</title>
            </g>
        </g>
        <g >
            <title >element:X1</title>
            <g >
                <title >package:JSTPH2</title>
                <line stroke-width="0.576" stroke-linecap="round"  y1="1.57607" stroke="white" y2="1.57607" x2="20.778" x1="8.02202"/>
                <line stroke-width="0.576" stroke-linecap="round"  y1="11.4973" stroke="white" y2="22.8359" x2="25.7386" x1="25.7386"/>
                <line stroke-width="0.576" stroke-linecap="round"  y1="22.8359" stroke="white" y2="22.8359" x2="23.3292" x1="25.7386"/>
                <line stroke-width="0.576" stroke-linecap="round"  y1="22.8359" stroke="white" y2="15.7493" x2="23.3292" x1="23.3292"/>
                <line stroke-width="0.576" stroke-linecap="round"  y1="15.7493" stroke="white" y2="15.7493" x2="19.3607" x1="23.3292"/>
                <line stroke-width="0.576" stroke-linecap="round"  y1="15.7493" stroke="white" y2="15.7493" x2="5.47087" x1="9.43934"/>
                <line stroke-width="0.576" stroke-linecap="round"  y1="15.7493" stroke="white" y2="22.8359" x2="5.47087" x1="5.47087"/>
                <line stroke-width="0.576" stroke-linecap="round"  y1="22.8359" stroke="white" y2="22.8359" x2="3.06142" x1="5.47087"/>
                <line stroke-width="0.576" stroke-linecap="round"  y1="22.8359" stroke="white" y2="11.4973" x2="3.06142" x1="3.06142"/>
            </g>
        </g>
    </g>
    <g gorn="0.3" id="copper1" >
        <g gorn="0.3.0" id="copper0" >
            <circle fill="none" stroke-width="1.08" gorn="0.3.0.0" cy="54.72" id="connector1pad" cx="25.2"  stroke="#F7BD13" r="1.98" connectorname="GND"/>
            <rect width="0.01008" fill="none" stroke-width="0" gorn="0.3.0.1" id="connector1terminal"  stroke="none" x="25.195" height="0.01008" y="57.235"/>
            <circle fill="none" stroke-width="1.08" gorn="0.3.0.2" cy="54.72" id="connector2pad" cx="18"  stroke="#F7BD13" r="1.98" connectorname="SW"/>
            <rect width="0.01008" fill="none" stroke-width="0" gorn="0.3.0.3" id="connector2terminal"  stroke="none" x="17.995" height="0.01008" y="57.235"/>
            <circle fill="none" stroke-width="1.08" gorn="0.3.0.4" cy="54.72" id="connector3pad" cx="10.8"  stroke="#F7BD13" r="1.98" connectorname="V+"/>
            <rect width="0.01008" fill="none" stroke-width="0" gorn="0.3.0.5" id="connector3terminal"  stroke="none" x="10.795" height="0.01008" y="57.235"/>
            <circle fill="none" stroke-width="1.08" gorn="0.3.0.6" cy="54.72" id="connector4pad" cx="3.6"  stroke="#F7BD13" r="1.98" connectorname="GND"/>
            <rect width="0.01008" fill="none" stroke-width="0" gorn="0.3.0.7" id="connector4terminal"  stroke="none" x="3.59496" height="0.01008" y="57.235"/>
        </g>
    </g>
</svg>
