<?xml version='1.0' encoding='UTF-8' standalone='no'?>
<!-- Created with Fritzing (http://www.fritzing.org/) -->
<svg xmlns="http://www.w3.org/2000/svg" x="0in" width="2in" y="0in" height="0.4in" baseProfile="tiny" viewBox="0 0 144 28.8"  version="1.2">
    <desc >
        <referenceFile >Adafruit NeoPixel Stick_pcb.svg</referenceFile>
    </desc>
    <desc >Fritzing footprint generated by brd2svg</desc>
    <g gorn="0.2"  id="silkscreen">
        <path stroke="white" d="M0.288,28.512L0.288,0.288L143.712,0.288L143.712,28.512L0.288,28.512"  fill="none" stroke-width="0.576"/>
        <g >
            <title >element:LED1</title>
            <g >
                <title >package:WS2812B-NARROW</title>
                <line stroke="white" y2="25.0866" x1="16.0866" x2="1.91339"  stroke-linecap="round" stroke-width="0.36" y1="25.0866"/>
                <line stroke="white" y2="13.4646" x1="1.91339" x2="1.91339"  stroke-linecap="round" stroke-width="0.36" y1="25.0866"/>
                <line stroke="white" y2="10.9134" x1="1.91339" x2="1.91339"  stroke-linecap="round" stroke-width="0.36" y1="13.4646"/>
                <line stroke="white" y2="10.9134" x1="1.91339" x2="4.46457"  stroke-linecap="round" stroke-width="0.36" y1="10.9134"/>
                <line stroke="white" y2="10.9134" x1="4.46457" x2="16.0866"  stroke-linecap="round" stroke-width="0.36" y1="10.9134"/>
                <line stroke="white" y2="25.0866" x1="16.0866" x2="16.0866"  stroke-linecap="round" stroke-width="0.36" y1="10.9134"/>
                <line stroke="white" y2="10.9134" x1="1.91339" x2="4.46457"  stroke-linecap="round" stroke-width="0.36" y1="13.4646"/>
                <line stroke="white" y2="9.92124" x1="4.46457" x2="5.45669"  stroke-linecap="round" stroke-width="0.36" y1="10.9134"/>
                <line stroke="white" y2="8.64569" x1="5.45669" x2="4.1811"  stroke-linecap="round" stroke-width="0.36" y1="9.92124"/>
                <line stroke="white" y2="10.9134" x1="4.1811" x2="1.91339"  stroke-linecap="round" stroke-width="0.36" y1="8.64569"/>
                <circle cx="9" stroke="white" cy="18"  fill="none" stroke-width="0.36" r="4.8769"/>
            </g>
        </g>
        <g >
            <title >element:LED2</title>
            <g >
                <title >package:WS2812B-NARROW</title>
                <line stroke="white" y2="25.0866" x1="34.0866" x2="19.9134"  stroke-linecap="round" stroke-width="0.36" y1="25.0866"/>
                <line stroke="white" y2="13.4646" x1="19.9134" x2="19.9134"  stroke-linecap="round" stroke-width="0.36" y1="25.0866"/>
                <line stroke="white" y2="10.9134" x1="19.9134" x2="19.9134"  stroke-linecap="round" stroke-width="0.36" y1="13.4646"/>
                <line stroke="white" y2="10.9134" x1="19.9134" x2="22.4646"  stroke-linecap="round" stroke-width="0.36" y1="10.9134"/>
                <line stroke="white" y2="10.9134" x1="22.4646" x2="34.0866"  stroke-linecap="round" stroke-width="0.36" y1="10.9134"/>
                <line stroke="white" y2="25.0866" x1="34.0866" x2="34.0866"  stroke-linecap="round" stroke-width="0.36" y1="10.9134"/>
                <line stroke="white" y2="10.9134" x1="19.9134" x2="22.4646"  stroke-linecap="round" stroke-width="0.36" y1="13.4646"/>
                <line stroke="white" y2="9.92124" x1="22.4646" x2="23.4567"  stroke-linecap="round" stroke-width="0.36" y1="10.9134"/>
                <line stroke="white" y2="8.64569" x1="23.4567" x2="22.1811"  stroke-linecap="round" stroke-width="0.36" y1="9.92124"/>
                <line stroke="white" y2="10.9134" x1="22.1811" x2="19.9134"  stroke-linecap="round" stroke-width="0.36" y1="8.64569"/>
                <circle cx="27" stroke="white" cy="18"  fill="none" stroke-width="0.36" r="4.8769"/>
            </g>
        </g>
        <g >
            <title >element:LED3</title>
            <g >
                <title >package:WS2812B-NARROW</title>
                <line stroke="white" y2="25.0866" x1="52.0866" x2="37.9134"  stroke-linecap="round" stroke-width="0.36" y1="25.0866"/>
                <line stroke="white" y2="13.4646" x1="37.9134" x2="37.9134"  stroke-linecap="round" stroke-width="0.36" y1="25.0866"/>
                <line stroke="white" y2="10.9134" x1="37.9134" x2="37.9134"  stroke-linecap="round" stroke-width="0.36" y1="13.4646"/>
                <line stroke="white" y2="10.9134" x1="37.9134" x2="40.4646"  stroke-linecap="round" stroke-width="0.36" y1="10.9134"/>
                <line stroke="white" y2="10.9134" x1="40.4646" x2="52.0866"  stroke-linecap="round" stroke-width="0.36" y1="10.9134"/>
                <line stroke="white" y2="25.0866" x1="52.0866" x2="52.0866"  stroke-linecap="round" stroke-width="0.36" y1="10.9134"/>
                <line stroke="white" y2="10.9134" x1="37.9134" x2="40.4646"  stroke-linecap="round" stroke-width="0.36" y1="13.4646"/>
                <line stroke="white" y2="9.92124" x1="40.4646" x2="41.4567"  stroke-linecap="round" stroke-width="0.36" y1="10.9134"/>
                <line stroke="white" y2="8.64569" x1="41.4567" x2="40.1811"  stroke-linecap="round" stroke-width="0.36" y1="9.92124"/>
                <line stroke="white" y2="10.9134" x1="40.1811" x2="37.9134"  stroke-linecap="round" stroke-width="0.36" y1="8.64569"/>
                <circle cx="45" stroke="white" cy="18"  fill="none" stroke-width="0.36" r="4.8769"/>
            </g>
        </g>
        <g >
            <title >element:LED4</title>
            <g >
                <title >package:WS2812B-NARROW</title>
                <line stroke="white" y2="25.0866" x1="70.0866" x2="55.9134"  stroke-linecap="round" stroke-width="0.36" y1="25.0866"/>
                <line stroke="white" y2="13.4646" x1="55.9134" x2="55.9134"  stroke-linecap="round" stroke-width="0.36" y1="25.0866"/>
                <line stroke="white" y2="10.9134" x1="55.9134" x2="55.9134"  stroke-linecap="round" stroke-width="0.36" y1="13.4646"/>
                <line stroke="white" y2="10.9134" x1="55.9134" x2="58.4646"  stroke-linecap="round" stroke-width="0.36" y1="10.9134"/>
                <line stroke="white" y2="10.9134" x1="58.4646" x2="70.0866"  stroke-linecap="round" stroke-width="0.36" y1="10.9134"/>
                <line stroke="white" y2="25.0866" x1="70.0866" x2="70.0866"  stroke-linecap="round" stroke-width="0.36" y1="10.9134"/>
                <line stroke="white" y2="10.9134" x1="55.9134" x2="58.4646"  stroke-linecap="round" stroke-width="0.36" y1="13.4646"/>
                <line stroke="white" y2="9.92124" x1="58.4646" x2="59.4567"  stroke-linecap="round" stroke-width="0.36" y1="10.9134"/>
                <line stroke="white" y2="8.64569" x1="59.4567" x2="58.1811"  stroke-linecap="round" stroke-width="0.36" y1="9.92124"/>
                <line stroke="white" y2="10.9134" x1="58.1811" x2="55.9134"  stroke-linecap="round" stroke-width="0.36" y1="8.64569"/>
                <circle cx="63" stroke="white" cy="18"  fill="none" stroke-width="0.36" r="4.8769"/>
            </g>
        </g>
        <g >
            <title >element:LED5</title>
            <g >
                <title >package:WS2812B-NARROW</title>
                <line stroke="white" y2="25.0866" x1="88.087" x2="73.913"  stroke-linecap="round" stroke-width="0.36" y1="25.0866"/>
                <line stroke="white" y2="13.4646" x1="73.913" x2="73.913"  stroke-linecap="round" stroke-width="0.36" y1="25.0866"/>
                <line stroke="white" y2="10.9134" x1="73.913" x2="73.913"  stroke-linecap="round" stroke-width="0.36" y1="13.4646"/>
                <line stroke="white" y2="10.9134" x1="73.913" x2="76.4647"  stroke-linecap="round" stroke-width="0.36" y1="10.9134"/>
                <line stroke="white" y2="10.9134" x1="76.4647" x2="88.087"  stroke-linecap="round" stroke-width="0.36" y1="10.9134"/>
                <line stroke="white" y2="25.0866" x1="88.087" x2="88.087"  stroke-linecap="round" stroke-width="0.36" y1="10.9134"/>
                <line stroke="white" y2="10.9134" x1="73.913" x2="76.4647"  stroke-linecap="round" stroke-width="0.36" y1="13.4646"/>
                <line stroke="white" y2="9.92124" x1="76.4647" x2="77.4569"  stroke-linecap="round" stroke-width="0.36" y1="10.9134"/>
                <line stroke="white" y2="8.64569" x1="77.4569" x2="76.181"  stroke-linecap="round" stroke-width="0.36" y1="9.92124"/>
                <line stroke="white" y2="10.9134" x1="76.181" x2="73.913"  stroke-linecap="round" stroke-width="0.36" y1="8.64569"/>
                <circle cx="81" stroke="white" cy="18"  fill="none" stroke-width="0.36" r="4.8769"/>
            </g>
        </g>
        <g >
            <title >element:LED6</title>
            <g >
                <title >package:WS2812B-NARROW</title>
                <line stroke="white" y2="25.0866" x1="106.087" x2="91.913"  stroke-linecap="round" stroke-width="0.36" y1="25.0866"/>
                <line stroke="white" y2="13.4646" x1="91.913" x2="91.913"  stroke-linecap="round" stroke-width="0.36" y1="25.0866"/>
                <line stroke="white" y2="10.9134" x1="91.913" x2="91.913"  stroke-linecap="round" stroke-width="0.36" y1="13.4646"/>
                <line stroke="white" y2="10.9134" x1="91.913" x2="94.4647"  stroke-linecap="round" stroke-width="0.36" y1="10.9134"/>
                <line stroke="white" y2="10.9134" x1="94.4647" x2="106.087"  stroke-linecap="round" stroke-width="0.36" y1="10.9134"/>
                <line stroke="white" y2="25.0866" x1="106.087" x2="106.087"  stroke-linecap="round" stroke-width="0.36" y1="10.9134"/>
                <line stroke="white" y2="10.9134" x1="91.913" x2="94.4647"  stroke-linecap="round" stroke-width="0.36" y1="13.4646"/>
                <line stroke="white" y2="9.92124" x1="94.4647" x2="95.4569"  stroke-linecap="round" stroke-width="0.36" y1="10.9134"/>
                <line stroke="white" y2="8.64569" x1="95.4569" x2="94.181"  stroke-linecap="round" stroke-width="0.36" y1="9.92124"/>
                <line stroke="white" y2="10.9134" x1="94.181" x2="91.913"  stroke-linecap="round" stroke-width="0.36" y1="8.64569"/>
                <circle cx="99" stroke="white" cy="18"  fill="none" stroke-width="0.36" r="4.8769"/>
            </g>
        </g>
        <g >
            <title >element:LED7</title>
            <g >
                <title >package:WS2812B-NARROW</title>
                <line stroke="white" y2="25.0866" x1="124.087" x2="109.913"  stroke-linecap="round" stroke-width="0.36" y1="25.0866"/>
                <line stroke="white" y2="13.4646" x1="109.913" x2="109.913"  stroke-linecap="round" stroke-width="0.36" y1="25.0866"/>
                <line stroke="white" y2="10.9134" x1="109.913" x2="109.913"  stroke-linecap="round" stroke-width="0.36" y1="13.4646"/>
                <line stroke="white" y2="10.9134" x1="109.913" x2="112.465"  stroke-linecap="round" stroke-width="0.36" y1="10.9134"/>
                <line stroke="white" y2="10.9134" x1="112.465" x2="124.087"  stroke-linecap="round" stroke-width="0.36" y1="10.9134"/>
                <line stroke="white" y2="25.0866" x1="124.087" x2="124.087"  stroke-linecap="round" stroke-width="0.36" y1="10.9134"/>
                <line stroke="white" y2="10.9134" x1="109.913" x2="112.465"  stroke-linecap="round" stroke-width="0.36" y1="13.4646"/>
                <line stroke="white" y2="9.92124" x1="112.465" x2="113.457"  stroke-linecap="round" stroke-width="0.36" y1="10.9134"/>
                <line stroke="white" y2="8.64569" x1="113.457" x2="112.181"  stroke-linecap="round" stroke-width="0.36" y1="9.92124"/>
                <line stroke="white" y2="10.9134" x1="112.181" x2="109.913"  stroke-linecap="round" stroke-width="0.36" y1="8.64569"/>
                <circle cx="117" stroke="white" cy="18"  fill="none" stroke-width="0.36" r="4.8769"/>
            </g>
        </g>
        <g >
            <title >element:LED8</title>
            <g >
                <title >package:WS2812B-NARROW</title>
                <line stroke="white" y2="25.0866" x1="142.087" x2="127.913"  stroke-linecap="round" stroke-width="0.36" y1="25.0866"/>
                <line stroke="white" y2="13.4646" x1="127.913" x2="127.913"  stroke-linecap="round" stroke-width="0.36" y1="25.0866"/>
                <line stroke="white" y2="10.9134" x1="127.913" x2="127.913"  stroke-linecap="round" stroke-width="0.36" y1="13.4646"/>
                <line stroke="white" y2="10.9134" x1="127.913" x2="130.465"  stroke-linecap="round" stroke-width="0.36" y1="10.9134"/>
                <line stroke="white" y2="10.9134" x1="130.465" x2="142.087"  stroke-linecap="round" stroke-width="0.36" y1="10.9134"/>
                <line stroke="white" y2="25.0866" x1="142.087" x2="142.087"  stroke-linecap="round" stroke-width="0.36" y1="10.9134"/>
                <line stroke="white" y2="10.9134" x1="127.913" x2="130.465"  stroke-linecap="round" stroke-width="0.36" y1="13.4646"/>
                <line stroke="white" y2="9.92124" x1="130.465" x2="131.457"  stroke-linecap="round" stroke-width="0.36" y1="10.9134"/>
                <line stroke="white" y2="8.64569" x1="131.457" x2="130.181"  stroke-linecap="round" stroke-width="0.36" y1="9.92124"/>
                <line stroke="white" y2="10.9134" x1="130.181" x2="127.913"  stroke-linecap="round" stroke-width="0.36" y1="8.64569"/>
                <circle cx="135" stroke="white" cy="18"  fill="none" stroke-width="0.36" r="4.8769"/>
            </g>
        </g>
        <g >
            <title >element:U$1</title>
            <g >
                <title >package:ADAFRUIT_TEXT_20MM</title>
            </g>
        </g>
    </g>
    <g gorn="0.3"  id="copper1">
        <g gorn="0.3.0"  id="copper0">
            <g transform="matrix(0, 1, -1, 0, 150.84, -143.64)" >
                <g >
                    <g >
                        <rect stroke="none" x="145.44" width="3.6" y="0" height="7.2" gorn="0.3.0.0.0.0.0"  fill="#F7BD13" id="connector19pad" stroke-width="0"/>
                    </g>
                </g>
            </g>
            <circle cx="108" stroke="#F7BD13" cy="5.76" gorn="0.3.0.1"  connectorname="P$1" fill="none" id="connector64pad" stroke-width="1.44" r="3.83811"/>
            <g transform="matrix(0, 1, -1, 0, 158.04, -136.44)" >
                <g >
                    <g >
                        <rect stroke="none" x="145.44" width="3.6" y="7.2" height="7.2" gorn="0.3.0.2.0.0.0"  fill="#F7BD13" id="connector20pad" stroke-width="0"/>
                    </g>
                </g>
            </g>
            <g transform="matrix(0, 1, -1, 0, 165.24, -129.24)" >
                <g >
                    <g >
                        <rect stroke="none" x="145.44" width="3.6" y="14.4" height="7.2" gorn="0.3.0.3.0.0.0"  fill="#F7BD13" id="connector21pad" stroke-width="0"/>
                    </g>
                </g>
            </g>
            <g transform="matrix(0, 1, -1, 0, 172.44, -122.04)" >
                <g >
                    <g >
                        <rect stroke="none" x="145.44" width="3.6" y="21.6" height="7.2" gorn="0.3.0.4.0.0.0"  fill="#F7BD13" id="connector22pad" stroke-width="0"/>
                    </g>
                </g>
            </g>
            <g transform="matrix(0, -1, 1, 0, -28.44, 21.96)" >
                <g >
                    <g >
                        <rect stroke="none" x="-5.04" width="3.6" y="21.6" height="7.2" gorn="0.3.0.5.0.0.0"  fill="#F7BD13" id="connector23pad" stroke-width="0"/>
                    </g>
                </g>
            </g>
            <g transform="matrix(0, -1, 1, 0, -21.24, 14.76)" >
                <g >
                    <g >
                        <rect stroke="none" x="-5.04" width="3.6" y="14.4" height="7.2" gorn="0.3.0.6.0.0.0"  fill="#F7BD13" id="connector24pad" stroke-width="0"/>
                    </g>
                </g>
            </g>
            <g transform="matrix(0, -1, 1, 0, -14.04, 7.56)" >
                <g >
                    <g >
                        <rect stroke="none" x="-5.04" width="3.6" y="7.2" height="7.2" gorn="0.3.0.7.0.0.0"  fill="#F7BD13" id="connector25pad" stroke-width="0"/>
                    </g>
                </g>
            </g>
            <g transform="matrix(0, -1, 1, 0, -6.84, 0.36)" >
                <g >
                    <g >
                        <rect stroke="none" x="-5.04" width="3.6" y="0" height="7.2" gorn="0.3.0.8.0.0.0"  fill="#F7BD13" id="connector26pad" stroke-width="0"/>
                    </g>
                </g>
            </g>
            <circle cx="36" stroke="#F7BD13" cy="5.76" gorn="0.3.0.9"  connectorname="P$1" fill="none" id="connector63pad" stroke-width="1.44" r="3.83811"/>
        </g>
    </g>
</svg>
