<?xml version='1.0' encoding='UTF-8' standalone='no'?>
<!-- Created with Fritzing (http://www.fritzing.org/) -->
<svg xmlns="http://www.w3.org/2000/svg" viewBox="0 0 39.6 61.2" width="0.55in" x="0in" y="0in"  baseProfile="tiny" version="1.2" height="0.85in">
    <desc >
        <referenceFile >MAX4466_pcb.svg</referenceFile>
    </desc>
    <desc >Fritzing footprint generated by brd2svg</desc>
    <g id="silkscreen" gorn="0.2" >
        <path d="M39.312,7.42025L39.312,53.7798A6.912,6.912,0,0,1,32.2168,60.912L7.38324,60.912A6.912,6.912,0,0,1,0.288,53.7798L0.288,7.42025A6.912,6.912,0,0,1,7.38324,0.288L32.2168,0.288A6.912,6.912,0,0,1,39.312,7.42025" stroke-width="0.576" stroke="white"  fill="none"/>
        <g >
            <title >element:Q1</title>
            <g >
                <title >package:ELECTRET_9.7</title>
                <circle cx="19.8" stroke-width="0.36" stroke="white" cy="21.24"  r="13.6092" fill="none"/>
                <circle cx="19.8" stroke-width="0.36" stroke="white" cy="21.24"  r="12.189" fill="none"/>
            </g>
        </g>
    </g>
    <g id="copper1" gorn="0.3" >
        <g id="copper0" gorn="0.3.0" >
            <circle cx="19.44" id="connector6pad" stroke-width="1.31868" stroke="#F7BD13" cy="56.88" gorn="0.3.0.0"  r="2.07666" fill="none" connectorname="GND"/>
            <circle cx="33.48" id="connector10pad" stroke-width="0.992124" stroke="#F7BD13" cy="6.48" gorn="0.3.0.1"  r="4.03937" fill="none" connectorname="P$1"/>
            <circle cx="12.24" id="connector7pad" stroke-width="1.31868" stroke="#F7BD13" cy="56.88" gorn="0.3.0.2"  r="2.07666" fill="none" connectorname="OUT"/>
            <circle cx="6.12" id="connector11pad" stroke-width="0.992124" stroke="#F7BD13" cy="6.48" gorn="0.3.0.3"  r="4.03937" fill="none" connectorname="P$1"/>
            <circle cx="26.64" id="connector5pad" stroke-width="1.31868" stroke="#F7BD13" cy="56.88" gorn="0.3.0.4"  r="2.07666" fill="none" connectorname="VCC"/>
        </g>
    </g>
</svg>
