<?xml version='1.0' encoding='UTF-8' standalone='no'?>
<!-- Created with Fritzing (http://www.fritzing.org/) -->
<svg xmlns="http://www.w3.org/2000/svg" baseProfile="tiny" viewBox="0 0 36 54" x="0in" width="0.5in"  height="0.75in" y="0in" version="1.2">
    <desc>
        <referenceFile>Adafruit MICS-5524_pcb.svg</referenceFile>
    </desc>
    <desc >Fritzing footprint generated by brd2svg</desc>
    <g id="silkscreen"  gorn="0.1">
        <path d="M35.712,7.41118L35.712,46.5888A6.912,6.912,0,0,1,28.6272,53.712L7.3728,53.712A6.912,6.912,0,0,1,0.288,46.5888L0.288,7.41118A6.912,6.912,0,0,1,7.3728,0.288L28.6272,0.288A6.912,6.912,0,0,1,35.712,7.41118" stroke="white" stroke-width="0.576"  fill="none"/>
        <g >
            <title >element:JP2</title>
            <g >
                <title >package:1X04_ROUND_76</title>
            </g>
        </g>
        <g >
            <title >element:U$3</title>
            <g >
                <title >package:MOUNTINGHOLE_2.5_PLATED</title>
                <circle cx="7.2" stroke="white" r="5.66929" cy="7.2" stroke-width="0.576"  fill="none"/>
            </g>
        </g>
        <g >
            <title >element:U$4</title>
            <g >
                <title >package:MOUNTINGHOLE_2.5_PLATED</title>
                <circle cx="28.8" stroke="white" r="5.66929" cy="7.2" stroke-width="0.576"  fill="none"/>
            </g>
        </g>
        <g >
            <title >element:U1</title>
            <g >
                <title >package:MICS-5524</title>
                <line y2="34.6847" x2="10.6299" stroke="white" stroke-linecap="round" stroke-width="0.36"  y1="34.6847" x1="12.8976"/>
                <line y2="29.5824" x2="10.6299" stroke="white" stroke-linecap="round" stroke-width="0.36"  y1="34.6847" x1="10.6299"/>
                <line y2="14.2753" x2="10.6299" stroke="white" stroke-linecap="round" stroke-width="0.36"  y1="19.3776" x1="10.6299"/>
                <line y2="14.2753" x2="12.8976" stroke="white" stroke-linecap="round" stroke-width="0.36"  y1="14.2753" x1="10.6299"/>
                <line y2="14.2753" x2="25.3701" stroke="white" stroke-linecap="round" stroke-width="0.36"  y1="19.3776" x1="25.3701"/>
                <line y2="14.2753" x2="23.1024" stroke="white" stroke-linecap="round" stroke-width="0.36"  y1="14.2753" x1="25.3701"/>
                <line y2="34.6847" x2="25.3701" stroke="white" stroke-linecap="round" stroke-width="0.36"  y1="29.5824" x1="25.3701"/>
                <line y2="34.6847" x2="23.1024" stroke="white" stroke-linecap="round" stroke-width="0.36"  y1="34.6847" x1="25.3701"/>
                <line y2="34.6847" x2="19.9842" stroke="white" stroke-linecap="round" stroke-width="0.36"  y1="34.6847" x1="16.0158"/>
                <line y2="14.2753" x2="19.9842" stroke="white" stroke-linecap="round" stroke-width="0.36"  y1="14.2753" x1="16.0158"/>
                <circle cx="8.92915" stroke="white" r="0.566929" cy="18.2438" stroke-width="1.152"  fill="none"/>
            </g>
        </g>
    </g>
    <g id="copper1"  gorn="0.2">
        <g id="copper0"  gorn="0.2.0">
            <circle id="connector2pad" cx="7.2" connectorname="5.0V" stroke="#F7BD13" r="2.07666" cy="48.6" stroke-width="1.31868"  gorn="0.2.0.0" fill="none"/>
            <circle id="connector3pad" cx="14.4" connectorname="GND" stroke="#F7BD13" r="2.07666" cy="48.6" stroke-width="1.31868"  gorn="0.2.0.1" fill="none"/>
            <circle id="connector15pad" cx="7.2" connectorname="P$1" stroke="#F7BD13" r="4.26331" cy="7.2" stroke-width="1.44"  gorn="0.2.0.2" fill="none"/>
            <circle id="connector4pad" cx="21.6" connectorname="AOUT" stroke="#F7BD13" r="2.07666" cy="48.6" stroke-width="1.31868"  gorn="0.2.0.3" fill="none"/>
            <circle id="connector5pad" cx="28.8" connectorname="ENABLE" stroke="#F7BD13" r="2.07666" cy="48.6" stroke-width="1.31868"  gorn="0.2.0.4" fill="none"/>
            <circle id="connector16pad" cx="28.8" connectorname="P$1" stroke="#F7BD13" r="4.26331" cy="7.2" stroke-width="1.44"  gorn="0.2.0.5" fill="none"/>
        </g>
    </g>
</svg>
