<?xml version='1.0' encoding='UTF-8' standalone='no'?>
<!-- Created with Fritzing (http://www.fritzing.org/) -->
<svg xmlns="http://www.w3.org/2000/svg" width="1.33858in" baseProfile="tiny" viewBox="0 0 96.3778 58.1103"  x="0in" height="0.807087in" y="0in" version="1.2">
    <desc >
        <referenceFile >Adafruit OLED Monochrome 128x32 I2C_pcb.svg</referenceFile>
    </desc>
    <desc >Fritzing footprint generated by brd2svg</desc>
    <g  id="silkscreen" gorn="0.2">
        <path fill="none"  stroke="white" d="M0.288,52.2091L0.288,5.9011A5.38129,5.38129,0,0,1,5.92341,0.288L90.4543,0.288A5.38129,5.38129,0,0,1,96.0898,5.9011L96.0898,52.2091A5.38129,5.38129,0,0,1,90.4543,57.8223L5.92341,57.8223A5.38129,5.38129,0,0,1,0.288,52.2091M2.41399,52.4409a3.25531,3.25531,0,1,0,6.51061,0,3.25531,3.25531,0,1,0,-6.51061,0zM2.41399,5.66929a3.25531,3.25531,0,1,0,6.51061,0,3.25531,3.25531,0,1,0,-6.51061,0zM87.4534,5.66929a3.25531,3.25531,0,1,0,6.51061,0,3.25531,3.25531,0,1,0,-6.51061,0zM87.4534,52.4409a3.25531,3.25531,0,1,0,6.51061,0,3.25531,3.25531,0,1,0,-6.51061,0z" stroke-width="0.576"/>
        <g >
            <title >element:LCD1</title>
            <g >
                <title >package:UG-2832HSWEG02_WRAPUNDER</title>
                <line x2="4.96063"  stroke="white" stroke-linecap="round" stroke-width="0.576" y1="12.7984" y2="12.7984" x1="90"/>
                <line x2="90"  stroke="white" stroke-linecap="round" stroke-width="0.576" y1="12.7984" y2="44.9008" x1="90"/>
                <line x2="4.96063"  stroke="white" stroke-linecap="round" stroke-width="0.576" y1="44.9008" y2="44.9008" x1="90"/>
                <line x2="4.96063"  stroke="white" stroke-linecap="round" stroke-width="0.576" y1="12.7984" y2="44.9008" x1="4.96063"/>
            </g>
        </g>
    </g>
    <g  id="copper1" gorn="0.3">
        <g  id="copper0" gorn="0.3.0">
            <circle fill="none" r="1.96866"  stroke="#F7BD13" id="connector6pad" stroke-width="1.10268" gorn="0.3.0.0" cx="58.989" cy="51.7209" connectorname="3.3V"/>
            <circle fill="none" r="1.96866"  stroke="#F7BD13" id="connector9pad" stroke-width="1.10268" gorn="0.3.0.1" cx="37.389" cy="51.7209" connectorname="SCL"/>
            <circle fill="none" r="1.96866"  stroke="#F7BD13" id="connector10pad" stroke-width="1.10268" gorn="0.3.0.2" cx="30.189" cy="51.7209" connectorname="SDA"/>
            <circle fill="none" r="1.96866"  stroke="#F7BD13" id="connector7pad" stroke-width="1.10268" gorn="0.3.0.3" cx="51.789" cy="51.7209" connectorname="GND"/>
            <circle fill="none" r="1.96866"  stroke="#F7BD13" id="connector8pad" stroke-width="1.10268" gorn="0.3.0.4" cx="44.589" cy="51.7209" connectorname="RESET"/>
            <circle fill="none" r="1.96866"  stroke="#F7BD13" id="connector5pad" stroke-width="1.10268" gorn="0.3.0.5" cx="66.189" cy="51.7209" connectorname="VIN"/>
            <rect width="3.93732" fill="none"  stroke="#F7BD13" stroke-width="1.10268" x="64.2203" height="3.93732" y="49.7523"/>
        </g>
    </g>
</svg>
