<?xml version='1.0' encoding='UTF-8' standalone='no'?>
<!-- Created with Fritzing (http://www.fritzing.org/) -->
<svg xmlns="http://www.w3.org/2000/svg" x="0in" width="3.10433in" y="0in" height="3.10455in" baseProfile="tiny" viewBox="0 0 223.512 223.528"  version="1.2">
    <desc>
        <referenceFile>Adafruit Quarter 60 NeoPixel Ring_pcb.svg</referenceFile>
    </desc>
    <desc >Fritzing footprint generated by brd2svg</desc>
    <g gorn="0.1"  id="silkscreen">
        <path stroke="white" d="M0.288,0.30363A223.224,223.224,0,0,1,223.224,223.24L204.988,223.24A204.94,204.94,0,0,0,0.288,18.54L0.288,0.30363"  fill="none" stroke-width="0.576"/>
        <g >
            <title >element:LED1</title>
            <g >
                <title >package:WS2812B-NARROW</title>
                <line stroke="white" y2="16.2997" x1="17.9178" x2="3.76399"  stroke-linecap="round" stroke-width="0.36" y1="17.0415"/>
                <line stroke="white" y2="4.69361" x1="3.76399" x2="4.37224"  stroke-linecap="round" stroke-width="0.36" y1="16.2997"/>
                <line stroke="white" y2="2.14592" x1="4.37224" x2="4.50577"  stroke-linecap="round" stroke-width="0.36" y1="4.69361"/>
                <line stroke="white" y2="2.27945" x1="4.50577" x2="7.05345"  stroke-linecap="round" stroke-width="0.36" y1="2.14592"/>
                <line stroke="white" y2="2.8877" x1="7.05345" x2="18.6596"  stroke-linecap="round" stroke-width="0.36" y1="2.27945"/>
                <line stroke="white" y2="17.0415" x1="18.6596" x2="17.9178"  stroke-linecap="round" stroke-width="0.36" y1="2.8877"/>
                <line stroke="white" y2="2.27945" x1="4.37224" x2="7.05345"  stroke-linecap="round" stroke-width="0.36" y1="4.69361"/>
                <line stroke="white" y2="1.3406" x1="7.05345" x2="8.09611"  stroke-linecap="round" stroke-width="0.36" y1="2.27945"/>
                <line stroke="white" y2="0" x1="8.09611" x2="6.88905"  stroke-linecap="round" stroke-width="0.36" y1="1.3406"/>
                <line stroke="white" y2="2.14592" x1="6.88905" x2="4.50577"  stroke-linecap="round" stroke-width="0.36" y1="0"/>
                <circle cx="11.2118" stroke="white" cy="9.59371"  fill="none" stroke-width="0.36" r="4.8769"/>
            </g>
        </g>
        <g >
            <title >element:LED2</title>
            <g >
                <title >package:WS2812B-NARROW</title>
                <line stroke="white" y2="17.8284" x1="39.4033" x2="25.4046"  stroke-linecap="round" stroke-width="0.36" y1="20.0456"/>
                <line stroke="white" y2="6.34944" x1="25.4046" x2="27.2227"  stroke-linecap="round" stroke-width="0.36" y1="17.8284"/>
                <line stroke="white" y2="3.82967" x1="27.2227" x2="27.6218"  stroke-linecap="round" stroke-width="0.36" y1="6.34944"/>
                <line stroke="white" y2="4.22876" x1="27.6218" x2="30.1416"  stroke-linecap="round" stroke-width="0.36" y1="3.82967"/>
                <line stroke="white" y2="6.04685" x1="30.1416" x2="41.6205"  stroke-linecap="round" stroke-width="0.36" y1="4.22876"/>
                <line stroke="white" y2="20.0456" x1="41.6205" x2="39.4033"  stroke-linecap="round" stroke-width="0.36" y1="6.04685"/>
                <line stroke="white" y2="4.22876" x1="27.2227" x2="30.1416"  stroke-linecap="round" stroke-width="0.36" y1="6.34944"/>
                <line stroke="white" y2="3.40405" x1="30.1416" x2="31.2767"  stroke-linecap="round" stroke-width="0.36" y1="4.22876"/>
                <line stroke="white" y2="1.94462" x1="31.2767" x2="30.2163"  stroke-linecap="round" stroke-width="0.36" y1="3.40405"/>
                <line stroke="white" y2="3.82967" x1="30.2163" x2="27.6218"  stroke-linecap="round" stroke-width="0.36" y1="1.94462"/>
                <circle cx="33.5125" stroke="white" cy="11.9376"  fill="none" stroke-width="0.36" r="4.8769"/>
            </g>
        </g>
        <g >
            <title >element:LED3</title>
            <g >
                <title >package:WS2812B-NARROW</title>
                <line stroke="white" y2="21.6107" x1="60.4571" x2="46.7668"  stroke-linecap="round" stroke-width="0.36" y1="25.2791"/>
                <line stroke="white" y2="10.3847" x1="46.7668" x2="49.7748"  stroke-linecap="round" stroke-width="0.36" y1="21.6107"/>
                <line stroke="white" y2="7.92043" x1="49.7748" x2="50.4351"  stroke-linecap="round" stroke-width="0.36" y1="10.3847"/>
                <line stroke="white" y2="8.58074" x1="50.4351" x2="52.8994"  stroke-linecap="round" stroke-width="0.36" y1="7.92043"/>
                <line stroke="white" y2="11.5888" x1="52.8994" x2="64.1254"  stroke-linecap="round" stroke-width="0.36" y1="8.58074"/>
                <line stroke="white" y2="25.2791" x1="64.1254" x2="60.4571"  stroke-linecap="round" stroke-width="0.36" y1="11.5888"/>
                <line stroke="white" y2="8.58074" x1="49.7748" x2="52.8994"  stroke-linecap="round" stroke-width="0.36" y1="10.3847"/>
                <line stroke="white" y2="7.87918" x1="52.8994" x2="54.1145"  stroke-linecap="round" stroke-width="0.36" y1="8.58074"/>
                <line stroke="white" y2="6.31693" x1="54.1145" x2="53.2125"  stroke-linecap="round" stroke-width="0.36" y1="7.87918"/>
                <line stroke="white" y2="7.92043" x1="53.2125" x2="50.4351"  stroke-linecap="round" stroke-width="0.36" y1="6.31693"/>
                <circle cx="55.4461" stroke="white" cy="16.5997"  fill="none" stroke-width="0.36" r="4.8769"/>
            </g>
        </g>
        <g >
            <title >element:LED4</title>
            <g >
                <title >package:WS2812B-NARROW</title>
                <line stroke="white" y2="27.6053" x1="80.8488" x2="67.6166"  stroke-linecap="round" stroke-width="0.36" y1="32.6845"/>
                <line stroke="white" y2="16.7552" x1="67.6166" x2="71.7816"  stroke-linecap="round" stroke-width="0.36" y1="27.6053"/>
                <line stroke="white" y2="14.3735" x1="71.7816" x2="72.6962"  stroke-linecap="round" stroke-width="0.36" y1="16.7552"/>
                <line stroke="white" y2="15.2878" x1="72.6962" x2="75.0773"  stroke-linecap="round" stroke-width="0.36" y1="14.3735"/>
                <line stroke="white" y2="19.4527" x1="75.0773" x2="85.9277"  stroke-linecap="round" stroke-width="0.36" y1="15.2878"/>
                <line stroke="white" y2="32.6845" x1="85.9277" x2="80.8488"  stroke-linecap="round" stroke-width="0.36" y1="19.4527"/>
                <line stroke="white" y2="15.2878" x1="71.7816" x2="75.0773"  stroke-linecap="round" stroke-width="0.36" y1="16.7552"/>
                <line stroke="white" y2="14.717" x1="75.0773" x2="76.3596"  stroke-linecap="round" stroke-width="0.36" y1="15.2878"/>
                <line stroke="white" y2="13.0691" x1="76.3596" x2="75.6259"  stroke-linecap="round" stroke-width="0.36" y1="14.717"/>
                <line stroke="white" y2="14.3735" x1="75.6259" x2="72.6962"  stroke-linecap="round" stroke-width="0.36" y1="13.0691"/>
                <circle cx="76.7722" stroke="white" cy="23.529"  fill="none" stroke-width="0.36" r="4.8769"/>
            </g>
        </g>
        <g >
            <title >element:LED5</title>
            <g >
                <title >package:WS2812B-NARROW</title>
                <line stroke="white" y2="35.7465" x1="100.354" x2="87.7255"  stroke-linecap="round" stroke-width="0.36" y1="42.181"/>
                <line stroke="white" y2="25.3912" x1="87.7255" x2="93.0017"  stroke-linecap="round" stroke-width="0.36" y1="35.7465"/>
                <line stroke="white" y2="23.118" x1="93.0017" x2="94.1602"  stroke-linecap="round" stroke-width="0.36" y1="25.3912"/>
                <line stroke="white" y2="24.2762" x1="94.1602" x2="96.4332"  stroke-linecap="round" stroke-width="0.36" y1="23.118"/>
                <line stroke="white" y2="29.5525" x1="96.4332" x2="106.789"  stroke-linecap="round" stroke-width="0.36" y1="24.2762"/>
                <line stroke="white" y2="42.181" x1="106.789" x2="100.354"  stroke-linecap="round" stroke-width="0.36" y1="29.5525"/>
                <line stroke="white" y2="24.2762" x1="93.0017" x2="96.4332"  stroke-linecap="round" stroke-width="0.36" y1="25.3912"/>
                <line stroke="white" y2="23.8427" x1="96.4332" x2="97.7681"  stroke-linecap="round" stroke-width="0.36" y1="24.2762"/>
                <line stroke="white" y2="22.127" x1="97.7681" x2="97.2101"  stroke-linecap="round" stroke-width="0.36" y1="23.8427"/>
                <line stroke="white" y2="23.118" x1="97.2101" x2="94.1602"  stroke-linecap="round" stroke-width="0.36" y1="22.127"/>
                <circle cx="97.2569" stroke="white" cy="32.6495"  fill="none" stroke-width="0.36" r="4.8769"/>
            </g>
        </g>
        <g >
            <title >element:LED6</title>
            <g >
                <title >package:WS2812B-NARROW</title>
                <line stroke="white" y2="45.945" x1="118.76" x2="106.874"  stroke-linecap="round" stroke-width="0.36" y1="53.6643"/>
                <line stroke="white" y2="36.1979" x1="106.874" x2="113.203"  stroke-linecap="round" stroke-width="0.36" y1="45.945"/>
                <line stroke="white" y2="34.0583" x1="113.203" x2="114.593"  stroke-linecap="round" stroke-width="0.36" y1="36.1979"/>
                <line stroke="white" y2="35.4478" x1="114.593" x2="116.732"  stroke-linecap="round" stroke-width="0.36" y1="34.0583"/>
                <line stroke="white" y2="41.7776" x1="116.732" x2="126.48"  stroke-linecap="round" stroke-width="0.36" y1="35.4478"/>
                <line stroke="white" y2="53.6643" x1="126.48" x2="118.76"  stroke-linecap="round" stroke-width="0.36" y1="41.7776"/>
                <line stroke="white" y2="35.4478" x1="113.203" x2="116.732"  stroke-linecap="round" stroke-width="0.36" y1="36.1979"/>
                <line stroke="white" y2="35.1561" x1="116.732" x2="118.105"  stroke-linecap="round" stroke-width="0.36" y1="35.4478"/>
                <line stroke="white" y2="33.3915" x1="118.105" x2="117.73"  stroke-linecap="round" stroke-width="0.36" y1="35.1561"/>
                <line stroke="white" y2="34.0583" x1="117.73" x2="114.593"  stroke-linecap="round" stroke-width="0.36" y1="33.3915"/>
                <circle cx="116.677" stroke="white" cy="43.8613"  fill="none" stroke-width="0.36" r="4.8769"/>
            </g>
        </g>
        <g >
            <title >element:LED7</title>
            <g >
                <title >package:WS2812B-NARROW</title>
                <line stroke="white" y2="58.0891" x1="135.865" x2="124.851"  stroke-linecap="round" stroke-width="0.36" y1="67.0086"/>
                <line stroke="white" y2="49.0571" x1="124.851" x2="132.165"  stroke-linecap="round" stroke-width="0.36" y1="58.0891"/>
                <line stroke="white" y2="47.0745" x1="132.165" x2="133.77"  stroke-linecap="round" stroke-width="0.36" y1="49.0571"/>
                <line stroke="white" y2="48.68" x1="133.77" x2="135.752"  stroke-linecap="round" stroke-width="0.36" y1="47.0745"/>
                <line stroke="white" y2="55.994" x1="135.752" x2="144.785"  stroke-linecap="round" stroke-width="0.36" y1="48.68"/>
                <line stroke="white" y2="67.0086" x1="144.785" x2="135.865"  stroke-linecap="round" stroke-width="0.36" y1="55.994"/>
                <line stroke="white" y2="48.68" x1="132.165" x2="135.752"  stroke-linecap="round" stroke-width="0.36" y1="49.0571"/>
                <line stroke="white" y2="48.5333" x1="135.752" x2="137.148"  stroke-linecap="round" stroke-width="0.36" y1="48.68"/>
                <line stroke="white" y2="46.7392" x1="137.148" x2="136.96"  stroke-linecap="round" stroke-width="0.36" y1="48.5333"/>
                <line stroke="white" y2="47.0745" x1="136.96" x2="133.77"  stroke-linecap="round" stroke-width="0.36" y1="46.7392"/>
                <circle cx="134.818" stroke="white" cy="57.0416"  fill="none" stroke-width="0.36" r="4.8769"/>
            </g>
        </g>
        <g >
            <title >element:LED8</title>
            <g >
                <title >package:WS2812B-NARROW</title>
                <line stroke="white" y2="72.0461" x1="151.482" x2="141.46"  stroke-linecap="round" stroke-width="0.36" y1="82.0678"/>
                <line stroke="white" y2="63.8279" x1="141.46" x2="149.678"  stroke-linecap="round" stroke-width="0.36" y1="72.0461"/>
                <line stroke="white" y2="62.0239" x1="149.678" x2="151.482"  stroke-linecap="round" stroke-width="0.36" y1="63.8279"/>
                <line stroke="white" y2="63.8279" x1="151.482" x2="153.286"  stroke-linecap="round" stroke-width="0.36" y1="62.0239"/>
                <line stroke="white" y2="72.0461" x1="153.286" x2="161.504"  stroke-linecap="round" stroke-width="0.36" y1="63.8279"/>
                <line stroke="white" y2="82.0678" x1="161.504" x2="151.482"  stroke-linecap="round" stroke-width="0.36" y1="72.0461"/>
                <line stroke="white" y2="63.8279" x1="149.678" x2="153.286"  stroke-linecap="round" stroke-width="0.36" y1="63.8279"/>
                <line stroke="white" y2="63.8279" x1="153.286" x2="154.688"  stroke-linecap="round" stroke-width="0.36" y1="63.8279"/>
                <line stroke="white" y2="62.0239" x1="154.688" x2="154.688"  stroke-linecap="round" stroke-width="0.36" y1="63.8279"/>
                <line stroke="white" y2="62.0239" x1="154.688" x2="151.482"  stroke-linecap="round" stroke-width="0.36" y1="62.0239"/>
                <circle cx="151.482" stroke="white" cy="72.0461"  fill="none" stroke-width="0.36" r="4.8769"/>
            </g>
        </g>
        <g >
            <title >element:LED9</title>
            <g >
                <title >package:WS2812B-NARROW</title>
                <line stroke="white" y2="87.6622" x1="165.438" x2="156.519"  stroke-linecap="round" stroke-width="0.36" y1="98.6767"/>
                <line stroke="white" y2="80.3484" x1="156.519" x2="165.551"  stroke-linecap="round" stroke-width="0.36" y1="87.6622"/>
                <line stroke="white" y2="78.7428" x1="165.551" x2="167.533"  stroke-linecap="round" stroke-width="0.36" y1="80.3484"/>
                <line stroke="white" y2="80.7257" x1="167.533" x2="169.139"  stroke-linecap="round" stroke-width="0.36" y1="78.7428"/>
                <line stroke="white" y2="89.7574" x1="169.139" x2="176.453"  stroke-linecap="round" stroke-width="0.36" y1="80.7257"/>
                <line stroke="white" y2="98.6767" x1="176.453" x2="165.438"  stroke-linecap="round" stroke-width="0.36" y1="89.7574"/>
                <line stroke="white" y2="80.7257" x1="165.551" x2="169.139"  stroke-linecap="round" stroke-width="0.36" y1="80.3484"/>
                <line stroke="white" y2="80.8718" x1="169.139" x2="170.534"  stroke-linecap="round" stroke-width="0.36" y1="80.7257"/>
                <line stroke="white" y2="79.0783" x1="170.534" x2="170.723"  stroke-linecap="round" stroke-width="0.36" y1="80.8718"/>
                <line stroke="white" y2="78.7428" x1="170.723" x2="167.533"  stroke-linecap="round" stroke-width="0.36" y1="79.0783"/>
                <circle cx="166.486" stroke="white" cy="88.7098"  fill="none" stroke-width="0.36" r="4.8769"/>
            </g>
        </g>
        <g >
            <title >element:LED10</title>
            <g >
                <title >package:WS2812B-NARROW</title>
                <line stroke="white" y2="104.767" x1="177.582" x2="169.863"  stroke-linecap="round" stroke-width="0.36" y1="116.654"/>
                <line stroke="white" y2="98.4377" x1="169.863" x2="179.61"  stroke-linecap="round" stroke-width="0.36" y1="104.767"/>
                <line stroke="white" y2="97.0481" x1="179.61" x2="181.75"  stroke-linecap="round" stroke-width="0.36" y1="98.4377"/>
                <line stroke="white" y2="99.1872" x1="181.75" x2="183.139"  stroke-linecap="round" stroke-width="0.36" y1="97.0481"/>
                <line stroke="white" y2="108.935" x1="183.139" x2="189.469"  stroke-linecap="round" stroke-width="0.36" y1="99.1872"/>
                <line stroke="white" y2="116.654" x1="189.469" x2="177.582"  stroke-linecap="round" stroke-width="0.36" y1="108.935"/>
                <line stroke="white" y2="99.1872" x1="179.61" x2="183.139"  stroke-linecap="round" stroke-width="0.36" y1="98.4377"/>
                <line stroke="white" y2="99.4795" x1="183.139" x2="184.512"  stroke-linecap="round" stroke-width="0.36" y1="99.1872"/>
                <line stroke="white" y2="97.7148" x1="184.512" x2="184.887"  stroke-linecap="round" stroke-width="0.36" y1="99.4795"/>
                <line stroke="white" y2="97.0481" x1="184.887" x2="181.75"  stroke-linecap="round" stroke-width="0.36" y1="97.7148"/>
                <circle cx="179.666" stroke="white" cy="106.851"  fill="none" stroke-width="0.36" r="4.8769"/>
            </g>
        </g>
        <g >
            <title >element:LED11</title>
            <g >
                <title >package:WS2812B-NARROW</title>
                <line stroke="white" y2="123.173" x1="187.781" x2="181.346"  stroke-linecap="round" stroke-width="0.36" y1="135.802"/>
                <line stroke="white" y2="117.897" x1="181.346" x2="191.702"  stroke-linecap="round" stroke-width="0.36" y1="123.173"/>
                <line stroke="white" y2="116.739" x1="191.702" x2="193.975"  stroke-linecap="round" stroke-width="0.36" y1="117.897"/>
                <line stroke="white" y2="119.012" x1="193.975" x2="195.133"  stroke-linecap="round" stroke-width="0.36" y1="116.739"/>
                <line stroke="white" y2="129.367" x1="195.133" x2="200.409"  stroke-linecap="round" stroke-width="0.36" y1="119.012"/>
                <line stroke="white" y2="135.802" x1="200.409" x2="187.781"  stroke-linecap="round" stroke-width="0.36" y1="129.367"/>
                <line stroke="white" y2="119.012" x1="191.702" x2="195.133"  stroke-linecap="round" stroke-width="0.36" y1="117.897"/>
                <line stroke="white" y2="119.446" x1="195.133" x2="196.468"  stroke-linecap="round" stroke-width="0.36" y1="119.012"/>
                <line stroke="white" y2="117.73" x1="196.468" x2="197.025"  stroke-linecap="round" stroke-width="0.36" y1="119.446"/>
                <line stroke="white" y2="116.739" x1="197.025" x2="193.975"  stroke-linecap="round" stroke-width="0.36" y1="117.73"/>
                <circle cx="190.878" stroke="white" cy="126.27"  fill="none" stroke-width="0.36" r="4.8769"/>
            </g>
        </g>
        <g >
            <title >element:LED12</title>
            <g >
                <title >package:WS2812B-NARROW</title>
                <line stroke="white" y2="142.679" x1="195.922" x2="190.843"  stroke-linecap="round" stroke-width="0.36" y1="155.911"/>
                <line stroke="white" y2="138.514" x1="190.843" x2="201.693"  stroke-linecap="round" stroke-width="0.36" y1="142.679"/>
                <line stroke="white" y2="137.6" x1="201.693" x2="204.075"  stroke-linecap="round" stroke-width="0.36" y1="138.514"/>
                <line stroke="white" y2="139.982" x1="204.075" x2="204.989"  stroke-linecap="round" stroke-width="0.36" y1="137.6"/>
                <line stroke="white" y2="150.831" x1="204.989" x2="209.154"  stroke-linecap="round" stroke-width="0.36" y1="139.982"/>
                <line stroke="white" y2="155.911" x1="209.154" x2="195.922"  stroke-linecap="round" stroke-width="0.36" y1="150.831"/>
                <line stroke="white" y2="139.982" x1="201.693" x2="204.989"  stroke-linecap="round" stroke-width="0.36" y1="138.514"/>
                <line stroke="white" y2="140.552" x1="204.989" x2="206.271"  stroke-linecap="round" stroke-width="0.36" y1="139.982"/>
                <line stroke="white" y2="138.904" x1="206.271" x2="207.004"  stroke-linecap="round" stroke-width="0.36" y1="140.552"/>
                <line stroke="white" y2="137.6" x1="207.004" x2="204.075"  stroke-linecap="round" stroke-width="0.36" y1="138.904"/>
                <circle cx="199.999" stroke="white" cy="146.755"  fill="none" stroke-width="0.36" r="4.8769"/>
            </g>
        </g>
        <g >
            <title >element:LED13</title>
            <g >
                <title >package:WS2812B-NARROW</title>
                <line stroke="white" y2="163.071" x1="201.917" x2="198.248"  stroke-linecap="round" stroke-width="0.36" y1="176.761"/>
                <line stroke="white" y2="160.062" x1="198.248" x2="209.475"  stroke-linecap="round" stroke-width="0.36" y1="163.071"/>
                <line stroke="white" y2="159.402" x1="209.475" x2="211.938"  stroke-linecap="round" stroke-width="0.36" y1="160.062"/>
                <line stroke="white" y2="161.866" x1="211.938" x2="212.599"  stroke-linecap="round" stroke-width="0.36" y1="159.402"/>
                <line stroke="white" y2="173.092" x1="212.599" x2="215.607"  stroke-linecap="round" stroke-width="0.36" y1="161.866"/>
                <line stroke="white" y2="176.761" x1="215.607" x2="201.917"  stroke-linecap="round" stroke-width="0.36" y1="173.092"/>
                <line stroke="white" y2="161.866" x1="209.475" x2="212.599"  stroke-linecap="round" stroke-width="0.36" y1="160.062"/>
                <line stroke="white" y2="162.568" x1="212.599" x2="213.814"  stroke-linecap="round" stroke-width="0.36" y1="161.866"/>
                <line stroke="white" y2="161.006" x1="213.814" x2="214.716"  stroke-linecap="round" stroke-width="0.36" y1="162.568"/>
                <line stroke="white" y2="159.402" x1="214.716" x2="211.938"  stroke-linecap="round" stroke-width="0.36" y1="161.006"/>
                <circle cx="206.928" stroke="white" cy="168.081"  fill="none" stroke-width="0.36" r="4.8769"/>
            </g>
        </g>
        <g >
            <title >element:LED14</title>
            <g >
                <title >package:WS2812B-NARROW</title>
                <line stroke="white" y2="184.124" x1="205.699" x2="203.482"  stroke-linecap="round" stroke-width="0.36" y1="198.123"/>
                <line stroke="white" y2="182.306" x1="203.482" x2="214.961"  stroke-linecap="round" stroke-width="0.36" y1="184.124"/>
                <line stroke="white" y2="181.907" x1="214.961" x2="217.48"  stroke-linecap="round" stroke-width="0.36" y1="182.306"/>
                <line stroke="white" y2="184.427" x1="217.48" x2="217.88"  stroke-linecap="round" stroke-width="0.36" y1="181.907"/>
                <line stroke="white" y2="195.906" x1="217.88" x2="219.698"  stroke-linecap="round" stroke-width="0.36" y1="184.427"/>
                <line stroke="white" y2="198.123" x1="219.698" x2="205.699"  stroke-linecap="round" stroke-width="0.36" y1="195.906"/>
                <line stroke="white" y2="184.427" x1="214.961" x2="217.88"  stroke-linecap="round" stroke-width="0.36" y1="182.306"/>
                <line stroke="white" y2="185.252" x1="217.88" x2="219.015"  stroke-linecap="round" stroke-width="0.36" y1="184.427"/>
                <line stroke="white" y2="183.792" x1="219.015" x2="220.075"  stroke-linecap="round" stroke-width="0.36" y1="185.252"/>
                <line stroke="white" y2="181.907" x1="220.075" x2="217.48"  stroke-linecap="round" stroke-width="0.36" y1="183.792"/>
                <circle cx="211.59" stroke="white" cy="190.015"  fill="none" stroke-width="0.36" r="4.8769"/>
            </g>
        </g>
        <g >
            <title >element:LED15</title>
            <g >
                <title >package:WS2812B-NARROW</title>
                <line stroke="white" y2="205.61" x1="207.228" x2="206.486"  stroke-linecap="round" stroke-width="0.36" y1="219.763"/>
                <line stroke="white" y2="205.001" x1="206.486" x2="218.092"  stroke-linecap="round" stroke-width="0.36" y1="205.61"/>
                <line stroke="white" y2="204.868" x1="218.092" x2="220.64"  stroke-linecap="round" stroke-width="0.36" y1="205.001"/>
                <line stroke="white" y2="207.415" x1="220.64" x2="220.774"  stroke-linecap="round" stroke-width="0.36" y1="204.868"/>
                <line stroke="white" y2="219.022" x1="220.774" x2="221.381"  stroke-linecap="round" stroke-width="0.36" y1="207.415"/>
                <line stroke="white" y2="219.763" x1="221.381" x2="207.228"  stroke-linecap="round" stroke-width="0.36" y1="219.022"/>
                <line stroke="white" y2="207.415" x1="218.092" x2="220.774"  stroke-linecap="round" stroke-width="0.36" y1="205.001"/>
                <line stroke="white" y2="208.354" x1="220.774" x2="221.816"  stroke-linecap="round" stroke-width="0.36" y1="207.415"/>
                <line stroke="white" y2="207.014" x1="221.816" x2="223.023"  stroke-linecap="round" stroke-width="0.36" y1="208.354"/>
                <line stroke="white" y2="204.868" x1="223.023" x2="220.64"  stroke-linecap="round" stroke-width="0.36" y1="207.014"/>
                <circle cx="213.934" stroke="white" cy="212.316"  fill="none" stroke-width="0.36" r="4.8769"/>
            </g>
        </g>
        <line stroke="white" y2="0.288" x1="3.76399" x2="18.6596"  fill="none" stroke-width="0.576" fill-opacity="1" y1="0.288"/>
        <line stroke="white" y2="0.288" x1="3.76399" x2="3.76399"  fill="none" stroke-width="0.576" fill-opacity="1" y1="0.0156702"/>
        <line stroke="white" y2="0.288" x1="18.6596" x2="18.6596"  fill="none" stroke-width="0.576" fill-opacity="1" y1="0.0156702"/>
    </g>
    <g gorn="0.2"  id="copper1">
        <g gorn="0.2.0"  id="copper0">
            <g transform="matrix(0, 1, -1, 0, 442.008, 13.5511)" >
                <g >
                    <rect stroke="none" x="209.976" width="8.50392" y="225.795" height="3.9685" gorn="0.2.0.0.0.0"  fill="#F7BD13" id="connector94pad" stroke-width="0"/>
                </g>
            </g>
            <g transform="matrix(-1, 0, 0, -1, -8.50392, 29.6534)" >
                <g >
                    <rect stroke="none" x="-8.50392" width="8.50392" y="12.8424" height="3.9685" gorn="0.2.0.1.0.0"  fill="#F7BD13" id="connector90pad" stroke-width="0"/>
                </g>
            </g>
            <g transform="matrix(-1, 0, 0, -1, -8.50392, 6.97622)" >
                <g >
                    <rect stroke="none" x="-8.50392" width="8.50392" y="1.50386" height="3.9685" gorn="0.2.0.2.0.0"  fill="#F7BD13" id="connector92pad" stroke-width="0"/>
                </g>
            </g>
            <g transform="matrix(-1, 0, 0, -1, -8.50392, 18.3148)" >
                <g >
                    <rect stroke="none" x="-8.50392" width="8.50392" y="7.17315" height="3.9685" gorn="0.2.0.3.0.0"  fill="#F7BD13" id="connector91pad" stroke-width="0"/>
                </g>
            </g>
            <g transform="matrix(0, 1, -1, 0, 447.677, 7.88184)" >
                <g >
                    <rect stroke="none" x="215.646" width="8.50392" y="225.795" height="3.9685" gorn="0.2.0.4.0.0"  fill="#F7BD13" id="connector93pad" stroke-width="0"/>
                </g>
            </g>
            <g transform="matrix(0, 1, -1, 0, 436.339, 19.2204)" >
                <g >
                    <rect stroke="none" x="204.307" width="8.50392" y="225.795" height="3.9685" gorn="0.2.0.5.0.0"  fill="#F7BD13" id="connector95pad" stroke-width="0"/>
                </g>
            </g>
        </g>
    </g>
</svg>
