<?xml version='1.0' encoding='UTF-8' standalone='no'?>
<!-- Created with Inkscape (http://www.inkscape.org/) -->
<svg xmlns="http://www.w3.org/2000/svg" width="36" version="1.1" height="18" id="svg4364">
 <defs  id="defs4366"/>
 <metadata  id="metadata4369">
  <rdf:RDF xmlns:rdf="http://www.w3.org/1999/02/22-rdf-syntax-ns#">
   <cc:Work xmlns:cc="http://creativecommons.org/ns#" rdf:about="" xmlns:rdf="http://www.w3.org/1999/02/22-rdf-syntax-ns#">
    <dc:format xmlns:dc="http://purl.org/dc/elements/1.1/">image/svg+xml</dc:format>
    <dc:type xmlns:dc="http://purl.org/dc/elements/1.1/" rdf:resource="http://purl.org/dc/dcmitype/StillImage" xmlns:rdf="http://www.w3.org/1999/02/22-rdf-syntax-ns#"/>
    <dc:title xmlns:dc="http://purl.org/dc/elements/1.1/"/>
   </cc:Work>
  </rdf:RDF>
 </metadata>
 <g  style="display:inline" id="layer1" transform="translate(0,-1034.362)"/>
 <g  id="pcb" transform="translate(0,-18)">
  <g  style="display:inline" id="copper0" transform="translate(0,-1016.362)">
   <path  style="fill:none;stroke:#f6ca34;stroke-width:1.79999995;stroke-linecap:round;stroke-linejoin:round;stroke-miterlimit:4;stroke-opacity:1;stroke-dasharray:none;stroke-dashoffset:0;display:inline" id="connector1pad" d="m 11.25,45 a 2.25,2.25 0 1 1 -4.5,0 2.25,2.25 0 1 1 4.5,0 z" transform="translate(0,998.362)"/>
   <path  style="fill:none;stroke:#f6ca34;stroke-width:1.79999995;stroke-linecap:round;stroke-linejoin:round;stroke-miterlimit:4;stroke-opacity:1;stroke-dasharray:none;stroke-dashoffset:0;display:inline" id="connector2pad" d="m 11.25,45 a 2.25,2.25 0 1 1 -4.5,0 2.25,2.25 0 1 1 4.5,0 z" transform="translate(9,998.362)"/>
   <path  style="fill:none;stroke:#f6ca34;stroke-width:1.79999995;stroke-linecap:round;stroke-linejoin:round;stroke-miterlimit:4;stroke-opacity:1;stroke-dasharray:none;stroke-dashoffset:0;display:inline" id="connector3pad" d="m 11.25,45 a 2.25,2.25 0 1 1 -4.5,0 2.25,2.25 0 1 1 4.5,0 z" transform="translate(18,998.362)"/>
  </g>
  <g  style="display:inline" id="copper1" transform="translate(0,-1016.362)">
   <path  style="fill:none;stroke:#f6ca34;stroke-width:1.79999995;stroke-linecap:round;stroke-linejoin:round;stroke-miterlimit:4;stroke-opacity:1;stroke-dasharray:none;stroke-dashoffset:0;display:inline" id="connector1pad" d="m 11.25,45 a 2.25,2.25 0 1 1 -4.5,0 2.25,2.25 0 1 1 4.5,0 z" transform="translate(0,998.362)"/>
   <path  style="fill:none;stroke:#f6ca34;stroke-width:1.79999995;stroke-linecap:round;stroke-linejoin:round;stroke-miterlimit:4;stroke-opacity:1;stroke-dasharray:none;stroke-dashoffset:0;display:inline" id="connector2pad" d="m 11.25,45 a 2.25,2.25 0 1 1 -4.5,0 2.25,2.25 0 1 1 4.5,0 z" transform="translate(9,998.362)"/>
   <path  style="fill:none;stroke:#f6ca34;stroke-width:1.79999995;stroke-linecap:round;stroke-linejoin:round;stroke-miterlimit:4;stroke-opacity:1;stroke-dasharray:none;stroke-dashoffset:0;display:inline" id="connector3pad" d="m 11.25,45 a 2.25,2.25 0 1 1 -4.5,0 2.25,2.25 0 1 1 4.5,0 z" transform="translate(18,998.362)"/>
  </g>
  <g  id="g8780">
   <g style="font-size:8px;font-style:normal;font-variant:normal;font-weight:normal;font-stretch:normal;text-align:center;line-height:125%;letter-spacing:0px;word-spacing:0px;text-anchor:middle;fill:#000000;fill-opacity:1;stroke:none;font-family:OCRA;-inkscape-font-specification:OCRA" id="text8757" xml:space="preserve">
    <text x="9" y="22.950001" style="font-size:4px;fill:#ffffff;fill-opacity:1" id="tspan8759">VDD</text>
   </g>
   <g style="font-size:8px;font-style:normal;font-variant:normal;font-weight:normal;font-stretch:normal;text-align:center;line-height:125%;letter-spacing:0px;word-spacing:0px;text-anchor:middle;fill:#000000;fill-opacity:1;stroke:none;font-family:OCRA;-inkscape-font-specification:OCRA" id="text8761" xml:space="preserve">
    <text x="18" y="34.200001" style="font-size:4px;fill:#ffffff;fill-opacity:1" id="tspan8763">DATA</text>
   </g>
   <g style="font-size:8px;font-style:normal;font-variant:normal;font-weight:normal;font-stretch:normal;text-align:center;line-height:125%;letter-spacing:0px;word-spacing:0px;text-anchor:middle;fill:#000000;fill-opacity:1;stroke:none;font-family:OCRA;-inkscape-font-specification:OCRA" id="text8765" xml:space="preserve">
    <text x="27" y="22.950001" style="font-size:4px;fill:#ffffff;fill-opacity:1" id="tspan8767">GND</text>
   </g>
   <rect  width="35.099998" x="0.44999999" y="18.450001" height="17.1" style="fill:none;stroke:#ffffff;stroke-width:0.44999999;stroke-miterlimit:4;stroke-opacity:1;stroke-dasharray:none" id="rect8769"/>
  </g>
 </g>
</svg>
