<?xml version='1.0' encoding='UTF-8' standalone='no'?>
<!-- Created with Fritzing (http://www.fritzing.org/) -->
<svg xmlns="http://www.w3.org/2000/svg"  width="1.95165in" x="0in" version="1.2" y="0in" height="0.9in" viewBox="0 0 140.519 64.8" baseProfile="tiny">
 <desc >Fritzing footprint generated by brd2svg</desc>
 <g  id="silkscreen">
  <path  fill="none" stroke="white" stroke-width="0.576" d="M1.931,5.64L1.931,59.16A5.112,5.112,0,0,0,7.30886,64.512L129.207,64.512A5.112,5.112,0,0,0,134.585,59.16L134.585,38.1088L131,38.1088L131,26.6912L134.585,26.6912L134.585,5.64A5.112,5.112,0,0,0,129.207,0.288L7.30886,0.288A5.112,5.112,0,0,0,1.931,5.64M13.1856,26.8724a0.704126,0.704126,0,1,1,1.40826,0,0.704126,0.704126,0,1,1,-1.40826,0zM13.1856,37.9276a0.704126,0.704126,0,1,1,1.40826,0,0.704126,0.704126,0,1,1,-1.40826,0zM103.532,32.4a1.55452,1.55452,0,1,1,3.10904,0,1.55452,1.55452,0,1,1,-3.10904,0z"/>
  <g >
   <title >element:CONTROL</title>
   <g >
    <title >package:1X14-CB</title>
   </g>
  </g>
  <g >
   <title >element:GPIO1</title>
   <g >
    <title >package:1X14-CB</title>
   </g>
  </g>
  <g >
   <title >element:U$14</title>
   <g >
    <title >package:ADAFRUIT_TEXT_20MM</title>
   </g>
  </g>
  <g >
   <title >element:U1</title>
   <g >
    <title >package:SOIC8_208MIL</title>
    <line  stroke="white" stroke-linecap="round" y1="37.7631" x1="91.2758" y2="37.7631" stroke-width="0.576" x2="80.5039"/>
    <line  stroke="white" stroke-linecap="round" y1="24.1569" x1="80.5039" y2="24.1569" stroke-width="0.576" x2="91.2758"/>
    <circle  fill="none" cx="88.4095" cy="36.432" stroke="white" r="0.72" stroke-width="0.576"/>
   </g>
  </g>
  <g >
   <title >element:U2</title>
   <g >
    <title >package:LQFP48</title>
    <line  stroke="white" stroke-linecap="round" y1="39.4639" x1="58.5241" y2="22.4561" stroke-width="0.576" x2="58.5241"/>
    <line  stroke="white" stroke-linecap="round" y1="21.6057" x1="57.6737" y2="21.6057" stroke-width="0.576" x2="40.6658"/>
    <line  stroke="white" stroke-linecap="round" y1="22.4561" x1="39.8154" y2="39.4639" stroke-width="0.576" x2="39.8154"/>
    <line  stroke="white" stroke-linecap="round" y1="39.4639" x1="39.8154" y2="40.3143" stroke-width="0.576" x2="40.6658"/>
    <line  stroke="white" stroke-linecap="round" y1="40.3143" x1="40.6658" y2="40.3143" stroke-width="0.576" x2="57.6737"/>
    <line  stroke="white" stroke-linecap="round" y1="40.3143" x1="57.6737" y2="39.4639" stroke-width="0.576" x2="58.5241"/>
    <line  stroke="white" stroke-linecap="round" y1="22.4561" x1="58.5241" y2="21.6057" stroke-width="0.576" x2="57.6737"/>
    <line  stroke="white" stroke-linecap="round" y1="21.6057" x1="40.6658" y2="22.4561" stroke-width="0.576" x2="39.8154"/>
    <circle  fill="none" cx="38.6703" cy="43.149" stroke="white" r="0.425197" stroke-width="1.152"/>
   </g>
  </g>
  <g >
   <title >element:X1</title>
   <g >
    <title >package:4UCONN_20329</title>
    <line  stroke="white" stroke-linecap="round" y1="25.3134" x1="17.0078" y2="27.5811" stroke-width="0.36" x2="17.0078"/>
    <line  stroke="white" stroke-linecap="round" y1="37.2189" x1="17.0078" y2="39.4866" stroke-width="0.36" x2="17.0078"/>
    <line  stroke="white" stroke-linecap="round" y1="21.6284" x1="4.25197" y2="21.6284" stroke-width="0.36" x2="1.70078"/>
    <line  stroke="white" stroke-linecap="round" y1="21.6284" x1="1.70078" y2="43.1716" stroke-width="0.36" x2="1.70078"/>
    <line  stroke="white" stroke-linecap="round" y1="43.1716" x1="1.70078" y2="43.1716" stroke-width="0.36" x2="4.25197"/>
   </g>
  </g>
  <g >
   <title >element:X2</title>
   <g >
    <title >package:JSTPH2</title>
   </g>
  </g>
  <g >
   <title >element:X3</title>
   <g >
    <title >package:4UCONN_18510</title>
    <line  stroke="white" stroke-linecap="round" y1="23.3292" x1="134.85" y2="27.5811" stroke-width="0.576" x2="134.85"/>
    <line  stroke="white" stroke-linecap="round" y1="27.5811" x1="134.85" y2="37.2189" stroke-width="0.576" x2="134.85"/>
    <line  stroke="white" stroke-linecap="round" y1="37.2189" x1="134.85" y2="41.4708" stroke-width="0.576" x2="134.85"/>
    <line  stroke="white" stroke-linecap="round" y1="41.3292" x1="100.834" y2="23.3292" stroke-width="0.576" x2="100.834"/>
    <line  stroke="white" stroke-linecap="round" y1="23.3292" x1="134.85" y2="23.3292" stroke-width="0.576" x2="130.598"/>
    <line  stroke="white" stroke-linecap="round" y1="23.3292" x1="115.574" y2="23.3292" stroke-width="0.576" x2="100.834"/>
    <line  stroke="white" stroke-linecap="round" y1="41.4708" x1="134.85" y2="41.4708" stroke-width="0.576" x2="130.314"/>
    <line  stroke="white" stroke-linecap="round" y1="41.4708" x1="123.795" y2="41.4708" stroke-width="0.576" x2="112.172"/>
    <line  stroke="white" stroke-linecap="round" y1="41.4708" x1="100.834" y2="41.4708" stroke-width="0.576" x2="104.802"/>
    <line  stroke="white" stroke-linecap="round" y1="37.2189" x1="134.85" y2="37.2189" stroke-width="0.36" x2="132.015"/>
    <line  stroke="white" stroke-linecap="round" y1="37.2189" x1="132.015" y2="27.5811" stroke-width="0.36" x2="132.015"/>
    <line  stroke="white" stroke-linecap="round" y1="27.5811" x1="132.015" y2="27.5811" stroke-width="0.36" x2="134.85"/>
   </g>
  </g>
  <line  fill="none" stroke="white" fill-opacity="1" y1="46.715" x1="0.288" y2="46.715" stroke-width="0.576" x2="1.64976"/>
  <line  fill="none" stroke="white" fill-opacity="1" y1="18.085" x1="0.288" y2="18.085" stroke-width="0.576" x2="1.64976"/>
  <line  fill="none" stroke="white" fill-opacity="1" y1="46.715" x1="0.288" y2="18.085" stroke-width="0.576" x2="0.288"/>
  <line  fill="none" stroke="white" fill-opacity="1" y1="44.8724" x1="134.85" y2="44.8724" stroke-width="0.576" x2="140.231"/>
  <line  fill="none" stroke="white" fill-opacity="1" y1="19.7858" x1="134.85" y2="19.7858" stroke-width="0.576" x2="140.231"/>
  <line  fill="none" stroke="white" fill-opacity="1" y1="44.8724" x1="140.231" y2="19.7858" stroke-width="0.576" x2="140.231"/>
 </g>
 <g  id="copper1">
  <g  id="copper0">
   <circle  fill="none" cx="7.76974" cy="6.12" connectorname="P$1" stroke="#F7BD13" r="4.26331" id="connector113pad" stroke-width="1.44"/>
   <circle  fill="none" cx="23.2497" cy="3.6" connectorname="VIN" stroke="#F7BD13" r="1.98" id="connector20pad" stroke-width="1.08"/>
   <circle  fill="none" cx="30.4497" cy="3.6" connectorname="GND" stroke="#F7BD13" r="1.98" id="connector21pad" stroke-width="1.08"/>
   <circle  fill="none" cx="37.6497" cy="3.6" connectorname="VBUS" stroke="#F7BD13" r="1.98" id="connector22pad" stroke-width="1.08"/>
   <circle  fill="none" cx="44.8497" cy="3.6" connectorname="PWRBUTTON" stroke="#F7BD13" r="1.98" id="connector23pad" stroke-width="1.08"/>
   <circle  fill="none" cx="52.0497" cy="3.6" connectorname="TX" stroke="#F7BD13" r="1.98" id="connector24pad" stroke-width="1.08"/>
   <circle  fill="none" cx="59.2497" cy="3.6" connectorname="RX_5V" stroke="#F7BD13" r="1.98" id="connector25pad" stroke-width="1.08"/>
   <circle  fill="none" cx="66.4497" cy="3.6" connectorname="GPIO0_11" stroke="#F7BD13" r="1.98" id="connector26pad" stroke-width="1.08"/>
   <circle  fill="none" cx="73.6495" cy="3.6" connectorname="GPIO0_13" stroke="#F7BD13" r="1.98" id="connector27pad" stroke-width="1.08"/>
   <circle  fill="none" cx="80.8495" cy="3.6" connectorname="GPIO0_14" stroke="#F7BD13" r="1.98" id="connector28pad" stroke-width="1.08"/>
   <circle  fill="none" cx="128.73" cy="6.12" connectorname="P$1" stroke="#F7BD13" r="4.26331" id="connector115pad" stroke-width="1.44"/>
   <circle  fill="none" cx="88.0495" cy="3.6" connectorname="CS" stroke="#F7BD13" r="1.98" id="connector29pad" stroke-width="1.08"/>
   <circle  fill="none" cx="95.2495" cy="3.6" connectorname="GND" stroke="#F7BD13" r="1.98" id="connector30pad" stroke-width="1.08"/>
   <circle  fill="none" cx="102.45" cy="3.6" connectorname="R_AC" stroke="#F7BD13" r="1.98" id="connector31pad" stroke-width="1.08"/>
   <circle  fill="none" cx="109.65" cy="3.6" connectorname="L_AC" stroke="#F7BD13" r="1.98" id="connector32pad" stroke-width="1.08"/>
   <circle  fill="none" cx="116.85" cy="3.6" connectorname="GND" stroke="#F7BD13" r="1.98" id="connector33pad" stroke-width="1.08"/>
   <circle  fill="none" cx="116.85" cy="61.2" connectorname="GND" stroke="#F7BD13" r="1.98" id="connector42pad" stroke-width="1.08"/>
   <circle  fill="none" cx="109.65" cy="61.2" connectorname="GPIO0_12" stroke="#F7BD13" r="1.98" id="connector43pad" stroke-width="1.08"/>
   <circle  fill="none" cx="102.45" cy="61.2" connectorname="GPIO0_10" stroke="#F7BD13" r="1.98" id="connector44pad" stroke-width="1.08"/>
   <circle  fill="none" cx="95.2495" cy="61.2" connectorname="GPIO0_9" stroke="#F7BD13" r="1.98" id="connector45pad" stroke-width="1.08"/>
   <circle  fill="none" cx="88.0495" cy="61.2" connectorname="GPIO0_8" stroke="#F7BD13" r="1.98" id="connector46pad" stroke-width="1.08"/>
   <circle  fill="none" cx="80.8495" cy="61.2" connectorname="GPIO0_7" stroke="#F7BD13" r="1.98" id="connector47pad" stroke-width="1.08"/>
   <circle  fill="none" cx="73.6495" cy="61.2" connectorname="GPIO0_6" stroke="#F7BD13" r="1.98" id="connector48pad" stroke-width="1.08"/>
   <circle  fill="none" cx="66.4497" cy="61.2" connectorname="GPIO0_5" stroke="#F7BD13" r="1.98" id="connector49pad" stroke-width="1.08"/>
   <circle  fill="none" cx="59.2497" cy="61.2" connectorname="GPIO0_4" stroke="#F7BD13" r="1.98" id="connector50pad" stroke-width="1.08"/>
   <circle  fill="none" cx="52.0497" cy="61.2" connectorname="GPIO0_3" stroke="#F7BD13" r="1.98" id="connector51pad" stroke-width="1.08"/>
   <circle  fill="none" cx="44.8497" cy="61.2" connectorname="GPIO0_2" stroke="#F7BD13" r="1.98" id="connector52pad" stroke-width="1.08"/>
   <circle  fill="none" cx="37.6497" cy="61.2" connectorname="GPIO0_1" stroke="#F7BD13" r="1.98" id="connector53pad" stroke-width="1.08"/>
   <circle  fill="none" cx="30.4497" cy="61.2" connectorname="GPIO0_0" stroke="#F7BD13" r="1.98" id="connector54pad" stroke-width="1.08"/>
   <circle  fill="none" cx="23.2497" cy="61.2" connectorname="RST" stroke="#F7BD13" r="1.98" id="connector55pad" stroke-width="1.08"/>
   <circle  fill="none" cx="7.76974" cy="58.68" connectorname="P$1" stroke="#F7BD13" r="4.26331" id="connector114pad" stroke-width="1.44"/>
   <circle  fill="none" cx="128.73" cy="58.68" connectorname="P$1" stroke="#F7BD13" r="4.26331" id="connector116pad" stroke-width="1.44"/>
  </g>
 </g>
</svg>
