<?xml version='1.0' encoding='UTF-8' standalone='no'?>
<!-- Created with Fritzing (http://www.fritzing.org/) -->
<svg xmlns="http://www.w3.org/2000/svg" baseProfile="tiny" viewBox="0 0 86.4 86.4" height="1.2in" width="1.2in"  version="1.2" x="0in" y="0in">
    <desc >
        <referenceFile >Flora BLE Friend rev B_pcb.svg</referenceFile>
    </desc>
    <desc >Fritzing footprint generated by brd2svg</desc>
    <g gorn="0.2" id="silkscreen" >
        <path stroke="white" fill="none" stroke-width="0.576" d="M43.2,86.112A42.912,42.912,0,0,1,0.288,43.2A42.912,42.912,0,0,1,43.2,0.288A42.912,42.912,0,0,1,86.112,43.2A42.912,42.912,0,0,1,43.2,86.112M70.5107,31.748a1.12932,1.12932,0,1,0,2.25865,0,1.12932,1.12932,0,1,0,-2.25865,0zM70.5107,40.252a1.12932,1.12932,0,1,0,2.25865,0,1.12932,1.12932,0,1,0,-2.25865,0zM48.4487,17.9858a0.987588,0.987588,0,1,0,1.97518,0,0.987588,0.987588,0,1,0,-1.97518,0z" />
        <g >
            <title >element:SW1</title>
            <g >
                <title >package:EG1390</title>
                <line stroke="white" stroke-linecap="round" stroke-width="0.36" y1="46.2047" y2="25.7953"  x1="66.6793" x2="66.6793"/>
                <line stroke="white" stroke-linecap="round" stroke-width="0.36" y1="25.7953" y2="25.7953"  x1="66.6793" x2="76.6008"/>
                <line stroke="white" stroke-linecap="round" stroke-width="0.36" y1="25.7953" y2="46.2047"  x1="76.6008" x2="76.6008"/>
                <line stroke="white" stroke-linecap="round" stroke-width="0.36" y1="46.2047" y2="46.2047"  x1="76.6008" x2="66.6793"/>
            </g>
        </g>
        <g >
            <title >element:U$7</title>
            <g >
                <title >package:FLORASMALL</title>
            </g>
        </g>
        <g >
            <title >element:U$23</title>
            <g >
                <title >package:BLUEFRUITLOGO_100MM</title>
            </g>
        </g>
        <g >
            <title >element:U1</title>
            <g >
                <title >package:BLE_MODULE_RAYTAC_MDBT40</title>
                <line stroke="white" stroke-linecap="round" stroke-width="0.36" y1="17.8441" y2="4.80473"  x1="28.7433" x2="28.7433"/>
                <line stroke="white" stroke-linecap="round" stroke-width="0.36" y1="4.80473" y2="4.80473"  x1="28.7433" x2="57.6567"/>
                <line stroke="white" stroke-linecap="round" stroke-width="0.36" y1="4.80473" y2="17.8441"  x1="57.6567" x2="57.6567"/>
                <line stroke="white" stroke-linecap="round" stroke-width="0.36" y1="22.663" y2="31.7339"  x1="28.7433" x2="28.7433"/>
                <line stroke="white" stroke-linecap="round" stroke-width="0.36" y1="52.4268" y2="56.3953"  x1="28.7433" x2="28.7433"/>
                <line stroke="white" stroke-linecap="round" stroke-width="0.36" y1="56.3953" y2="56.3953"  x1="28.7433" x2="29.8772"/>
                <line stroke="white" stroke-linecap="round" stroke-width="0.36" y1="56.3953" y2="56.3953"  x1="56.5228" x2="57.6567"/>
                <line stroke="white" stroke-linecap="round" stroke-width="0.36" y1="56.3953" y2="52.4268"  x1="57.6567" x2="57.6567"/>
            </g>
        </g>
        <g >
            <title >element:Y1</title>
            <g >
                <title >package:CRYSTAL_CYL_2X6MM_SMT</title>
            </g>
        </g>
    </g>
    <g gorn="0.3" id="copper1" >
        <g gorn="0.3.0" id="copper0" >
            <circle gorn="0.3.0.0" stroke="#F7BD13" connectorname="GND" id="connector15pad" r="2.86299" fill="none" stroke-width="1.47401" cx="10.08" cy="56.52" />
            <circle gorn="0.3.0.1" stroke="#F7BD13" connectorname="RXI" id="connector24pad" r="2.86299" fill="none" stroke-width="1.47401" cx="29.52" cy="75.96" />
            <circle gorn="0.3.0.2" stroke="#F7BD13" connectorname="MODE" id="connector31pad" r="2.86299" fill="none" stroke-width="1.47401" cx="10.08" cy="29.88" />
            <circle gorn="0.3.0.3" stroke="#F7BD13" connectorname="TXO" id="connector32pad" r="2.86299" fill="none" stroke-width="1.47401" cx="56.88" cy="75.96" />
            <circle gorn="0.3.0.4" stroke="#F7BD13" connectorname="3.3V" id="connector0pad" r="2.86299" fill="none" stroke-width="1.47401" cx="76.32" cy="56.52" />
        </g>
    </g>
</svg>
