<?xml version='1.0' encoding='UTF-8' standalone='no'?>
<!-- Created with Fritzing (http://www.fritzing.org/) -->
<svg xmlns="http://www.w3.org/2000/svg" baseProfile="tiny" viewBox="0 0 86.4 86.4" height="1.2in" width="1.2in"  version="1.2" x="0in" y="0in">
    <desc >
        <referenceFile >Flora_GPS_v0.2_pcb.svg</referenceFile>
    </desc>
    <desc >Fritzing footprint generated by brd2svg</desc>
    <g gorn="0.2" id="silkscreen" >
        <path stroke="white" fill="none" stroke-width="0.576" d="M43.2,86.112A42.912,42.912,0,0,1,0.288,43.2A42.912,42.912,0,0,1,43.2,0.288A42.912,42.912,0,0,1,86.112,43.2A42.912,42.912,0,0,1,43.2,86.112M36.8266,41.7827a3.96397,3.96397,0,1,0,7.92792,0,3.96397,3.96397,0,1,0,-7.92792,0z" />
        <g >
            <title >element:U$7</title>
            <g >
                <title >package:FLORASMALL</title>
            </g>
        </g>
        <g >
            <title >element:U1</title>
            <g >
                <title >package:FGPMMOPA6H</title>
                <line stroke="white" stroke-linecap="round" stroke-width="0.36" y1="65.8772" y2="20.5228"  x1="20.5228" x2="20.5228"/>
                <line stroke="white" stroke-linecap="round" stroke-width="0.36" y1="20.5228" y2="65.8772"  x1="65.8772" x2="65.8772"/>
                <line stroke="white" stroke-linecap="round" stroke-width="0.36" y1="20.5228" y2="20.5228"  x1="26.1922" x2="60.2078"/>
                <line stroke="white" stroke-linecap="round" stroke-width="0.36" y1="20.5228" y2="20.5228"  x1="64.4599" x2="65.8772"/>
                <line stroke="white" stroke-linecap="round" stroke-width="0.36" y1="20.5228" y2="20.5228"  x1="20.5228" x2="21.9401"/>
                <circle stroke="white" r="0.896314" fill="none" stroke-width="2.304" cx="19.389" cy="68.9953" />
            </g>
        </g>
    </g>
    <g gorn="0.3" id="copper1" >
        <g gorn="0.3.0" id="copper0" >
            <circle gorn="0.3.0.0" stroke="#F7BD13" connectorname="GND" id="connector7pad" r="2.86299" fill="none" stroke-width="1.47401" cx="10.08" cy="56.52" />
            <circle gorn="0.3.0.1" stroke="#F7BD13" connectorname="GND" id="connector8pad" r="2.86299" fill="none" stroke-width="1.47401" cx="29.52" cy="10.44" />
            <circle gorn="0.3.0.2" stroke="#F7BD13" connectorname="RX" id="connector13pad" r="2.86299" fill="none" stroke-width="1.47401" cx="29.52" cy="75.96" />
            <circle gorn="0.3.0.3" stroke="#F7BD13" connectorname="VBACKUP" id="connector14pad" r="2.86299" fill="none" stroke-width="1.47401" cx="10.08" cy="29.88" />
            <circle gorn="0.3.0.4" stroke="#F7BD13" connectorname="P$1" id="connector15pad" r="2.86299" fill="none" stroke-width="1.47401" cx="56.88" cy="10.44" />
            <circle gorn="0.3.0.5" stroke="#F7BD13" connectorname="TX" id="connector16pad" r="2.86299" fill="none" stroke-width="1.47401" cx="56.88" cy="75.96" />
            <circle gorn="0.3.0.6" stroke="#F7BD13" connectorname="P$1" id="connector0pad" r="2.86299" fill="none" stroke-width="1.47401" cx="76.32" cy="56.52" />
        </g>
    </g>
</svg>
