<?xml version='1.0' encoding='UTF-8' standalone='no'?>
<!-- Created with Fritzing (http://www.fritzing.org/) -->
<svg xmlns="http://www.w3.org/2000/svg" height="0.6in" baseProfile="tiny" width="0.8in" version="1.2"  x="0in" y="0in" viewBox="0 0 57.6 43.2">
    <desc>
        <referenceFile>Adafruit I2C Non-Volatile FRAM 32KB_pcb.svg</referenceFile>
    </desc>
    <desc >Fritzing footprint generated by brd2svg</desc>
    <g gorn="0.1"  id="silkscreen">
        <path fill="none" d="M0.288,7.39202A6.912,6.912,0,0,1,7.416,0.288L50.184,0.288A6.912,6.912,0,0,1,57.312,7.39202L57.312,35.808A6.912,6.912,0,0,1,50.184,42.912L7.416,42.912A6.912,6.912,0,0,1,0.288,35.808L0.288,7.39202"  stroke-width="0.576" stroke="white"/>
        <g >
            <title >element:JP1</title>
            <g >
                <title >package:1X08_ROUND_70</title>
            </g>
        </g>
        <g >
            <title >element:U$4</title>
            <g >
                <title >package:ADAFRUIT_3.5MM</title>
            </g>
        </g>
        <g >
            <title >element:U1</title>
            <g >
                <title >package:SOIC8_208MIL</title>
                <line x1="34.1858" stroke-linecap="round" x2="23.4142"  stroke-width="0.576" stroke="white" y1="28.4031" y2="28.4031"/>
                <line x1="23.4142" stroke-linecap="round" x2="34.1858"  stroke-width="0.576" stroke="white" y1="14.7969" y2="14.7969"/>
                <circle cy="27.072" r="0.72" fill="none"  stroke-width="0.576" stroke="white" cx="31.32"/>
            </g>
        </g>
    </g>
    <g gorn="0.2"  id="copper1">
        <g gorn="0.2.0"  id="copper0">
            <circle cy="7.2" gorn="0.2.0.0" r="4.26331" fill="none" connectorname="P$1"  stroke-width="1.44" id="connector22pad" stroke="#F7BD13" cx="50.4"/>
            <circle cy="36" gorn="0.2.0.1" r="1.96866" fill="none" connectorname="A0"  stroke-width="1.10268" id="connector9pad" stroke="#F7BD13" cx="54"/>
            <circle cy="36" gorn="0.2.0.2" r="1.96866" fill="none" connectorname="A1"  stroke-width="1.10268" id="connector10pad" stroke="#F7BD13" cx="46.8"/>
            <circle cy="36" gorn="0.2.0.3" r="1.96866" fill="none" connectorname="A2"  stroke-width="1.10268" id="connector11pad" stroke="#F7BD13" cx="39.6"/>
            <circle cy="36" gorn="0.2.0.4" r="1.96866" fill="none" connectorname="SDA"  stroke-width="1.10268" id="connector12pad" stroke="#F7BD13" cx="32.4"/>
            <circle cy="7.2" gorn="0.2.0.5" r="4.26331" fill="none" connectorname="P$1"  stroke-width="1.44" id="connector21pad" stroke="#F7BD13" cx="7.2"/>
            <circle cy="36" gorn="0.2.0.6" r="1.96866" fill="none" connectorname="SCL"  stroke-width="1.10268" id="connector13pad" stroke="#F7BD13" cx="25.2"/>
            <circle cy="36" gorn="0.2.0.7" r="1.96866" fill="none" connectorname="WP"  stroke-width="1.10268" id="connector14pad" stroke="#F7BD13" cx="18"/>
            <circle cy="36" gorn="0.2.0.8" r="1.96866" fill="none" connectorname="GND"  stroke-width="1.10268" id="connector15pad" stroke="#F7BD13" cx="10.8"/>
            <circle cy="36" gorn="0.2.0.9" r="1.96866" fill="none" connectorname="VCC"  stroke-width="1.10268" id="connector16pad" stroke="#F7BD13" cx="3.6"/>
        </g>
    </g>
</svg>
