<?xml version='1.0' encoding='UTF-8' standalone='no'?>
<!-- Created with Fritzing (http://www.fritzing.org/) -->
<svg xmlns="http://www.w3.org/2000/svg" baseProfile="tiny" viewBox="0 0 79.3303 79.4815" height="1.10391in" width="1.10181in"  version="1.2" x="0in" y="0in">
    <desc >
        <referenceFile >gemma microB rev B_pcb.svg</referenceFile>
    </desc>
    <desc >Fritzing footprint generated by brd2svg</desc>
    <g gorn="0.2" id="silkscreen" >
        <path stroke="white" fill="none" stroke-width="0.576" d="M28.9434,1.92581L50.3866,1.92581A39.377,39.377,0,1,1,28.9434,1.92581M53.2957,34.8378a1.12932,1.12932,0,1,0,2.25865,0,1.12932,1.12932,0,1,0,-2.25865,0zM53.2957,43.3418a1.12932,1.12932,0,1,0,2.25865,0,1.12932,1.12932,0,1,0,-2.25865,0zM44.4884,13.8897a0.704126,0.704126,0,1,0,1.40826,0,0.704126,0.704126,0,1,0,-1.40826,0zM33.4333,13.8897a0.704126,0.704126,0,1,0,1.40826,0,0.704126,0.704126,0,1,0,-1.40826,0z" />
        <g >
            <title >element:3V3</title>
            <g >
                <title >package:SEWINGTAP_2.0</title>
            </g>
        </g>
        <g >
            <title >element:B2</title>
            <g >
                <title >package:SEWINGTAP_2.0</title>
            </g>
        </g>
        <g >
            <title >element:CN1</title>
            <g >
                <title >package:JSTPH2</title>
                <line stroke="white" stroke-linecap="round" stroke-width="0.576" y1="76.7534" y2="76.7534"  x1="46.043" x2="33.287"/>
                <line stroke="white" stroke-linecap="round" stroke-width="0.576" y1="66.8324" y2="55.4939"  x1="28.3265" x2="28.3265"/>
                <line stroke="white" stroke-linecap="round" stroke-width="0.576" y1="55.4939" y2="55.4939"  x1="28.3265" x2="30.7359"/>
                <line stroke="white" stroke-linecap="round" stroke-width="0.576" y1="55.4939" y2="62.5805"  x1="30.7359" x2="30.7359"/>
                <line stroke="white" stroke-linecap="round" stroke-width="0.576" y1="62.5805" y2="62.5805"  x1="30.7359" x2="34.7044"/>
                <line stroke="white" stroke-linecap="round" stroke-width="0.576" y1="62.5805" y2="62.5805"  x1="44.6257" x2="48.5942"/>
                <line stroke="white" stroke-linecap="round" stroke-width="0.576" y1="62.5805" y2="55.4939"  x1="48.5942" x2="48.5942"/>
                <line stroke="white" stroke-linecap="round" stroke-width="0.576" y1="55.4939" y2="55.4939"  x1="48.5942" x2="51.0036"/>
                <line stroke="white" stroke-linecap="round" stroke-width="0.576" y1="55.4939" y2="66.8324"  x1="51.0036" x2="51.0036"/>
            </g>
        </g>
        <g >
            <title >element:GND</title>
            <g >
                <title >package:SEWINGTAP_2.0</title>
            </g>
        </g>
        <g >
            <title >element:SW1</title>
            <g >
                <title >package:EG1390</title>
                <line stroke="white" stroke-linecap="round" stroke-width="0.36" y1="49.2945" y2="28.885"  x1="49.4644" x2="49.4644"/>
                <line stroke="white" stroke-linecap="round" stroke-width="0.36" y1="28.885" y2="28.885"  x1="49.4644" x2="59.3857"/>
                <line stroke="white" stroke-linecap="round" stroke-width="0.36" y1="28.885" y2="49.2945"  x1="59.3857" x2="59.3857"/>
                <line stroke="white" stroke-linecap="round" stroke-width="0.36" y1="49.2945" y2="49.2945"  x1="59.3857" x2="49.4644"/>
            </g>
        </g>
        <g >
            <title >element:VBAT</title>
            <g >
                <title >package:SEWINGTAP_2.0</title>
            </g>
        </g>
        <g >
            <title >element:X2</title>
            <g >
                <title >package:4UCONN_20329</title>
                <line stroke="white" stroke-linecap="round" stroke-width="0.36" y1="17.0078" y2="17.0078"  x1="46.7516" x2="44.4839"/>
                <line stroke="white" stroke-linecap="round" stroke-width="0.36" y1="17.0078" y2="17.0078"  x1="34.8461" x2="32.5784"/>
                <line stroke="white" stroke-linecap="round" stroke-width="0.36" y1="4.25197" y2="1.70078"  x1="50.4366" x2="50.4366"/>
                <line stroke="white" stroke-linecap="round" stroke-width="0.36" y1="1.70078" y2="1.70078"  x1="50.4366" x2="28.8934"/>
                <line stroke="white" stroke-linecap="round" stroke-width="0.36" y1="1.70078" y2="4.25197"  x1="28.8934" x2="28.8934"/>
            </g>
        </g>
        <line stroke="white" fill="none" stroke-width="0.576" y1="0.288" y2="0.288"  fill-opacity="1" x1="25.35" x2="53.98"/>
        <line stroke="white" fill="none" stroke-width="0.576" y1="1.64976" y2="0.288"  fill-opacity="1" x1="25.35" x2="25.35"/>
        <line stroke="white" fill="none" stroke-width="0.576" y1="1.64976" y2="0.288"  fill-opacity="1" x1="53.98" x2="53.98"/>
    </g>
    <g gorn="0.3" id="copper1" >
        <g gorn="0.3.0" id="copper0" >
            <circle gorn="0.3.0.0" stroke="#F7BD13" connectorname="B0" id="connector1pad" r="2.86299" fill="none" stroke-width="1.47401" cx="7.62502" cy="39.8097" />
            <circle gorn="0.3.0.1" stroke="#F7BD13" connectorname="B1" id="connector2pad" r="2.86299" fill="none" stroke-width="1.47401" cx="71.705" cy="39.8097" />
            <circle gorn="0.3.0.2" stroke="#F7BD13" connectorname="B2" id="connector3pad" r="2.86299" fill="none" stroke-width="1.47401" cx="16.985" cy="17.1297" />
            <circle gorn="0.3.0.3" stroke="#F7BD13" connectorname="P$1" id="connector69pad" r="2.86299" fill="none" stroke-width="1.47401" cx="62.345" cy="62.4897" />
            <circle gorn="0.3.0.4" stroke="#F7BD13" connectorname="GND" id="connector18pad" r="2.86299" fill="none" stroke-width="1.47401" cx="62.345" cy="17.1297" />
            <circle gorn="0.3.0.5" stroke="#F7BD13" connectorname="+3V3" id="connector0pad" r="2.86299" fill="none" stroke-width="1.47401" cx="16.985" cy="62.4897" />
        </g>
    </g>
</svg>
