<?xml version='1.0' encoding='UTF-8' standalone='no'?>
<!-- Created with Fritzing (http://www.fritzing.org/) -->
<svg xmlns="http://www.w3.org/2000/svg" baseProfile="tiny" viewBox="0 0 79.2 79.2" height="1.1in" width="1.1in"  version="1.2" x="0in" y="0in">
    <desc >
        <referenceFile >gemma3v3minib_pcb.svg</referenceFile>
    </desc>
    <desc >Fritzing footprint generated by brd2svg</desc>
    <g gorn="0.2" id="silkscreen" >
        <path stroke="white" fill="none" stroke-width="0.576" d="M0.288,39.6A39.312,39.312,0,0,1,39.6,0.288A39.312,39.312,0,0,1,78.912,39.6A39.312,39.312,0,0,1,39.6,78.912A39.312,39.312,0,0,1,0.288,39.6M44.7069,17.9546a1.12932,1.12932,0,1,0,2.25865,0,1.12932,1.12932,0,1,0,-2.25865,0zM32.2345,17.9546a1.12932,1.12932,0,1,0,2.25865,0,1.12932,1.12932,0,1,0,-2.25865,0z" />
        <g >
            <title >element:3V3</title>
            <g >
                <title >package:SEWINGTAP_2.0</title>
            </g>
        </g>
        <g >
            <title >element:B2</title>
            <g >
                <title >package:SEWINGTAP_2.0</title>
            </g>
        </g>
        <g >
            <title >element:CN1</title>
            <g >
                <title >package:JST-PH-2-SMT-RA</title>
                <line stroke="white" stroke-linecap="round" stroke-width="0.36" y1="76.5439" y2="76.5439"  x1="45.978" x2="33.222"/>
                <line stroke="white" stroke-linecap="round" stroke-width="0.36" y1="66.6227" y2="55.2841"  x1="28.2614" x2="28.2614"/>
                <line stroke="white" stroke-linecap="round" stroke-width="0.36" y1="55.2841" y2="55.2841"  x1="28.2614" x2="30.6708"/>
                <line stroke="white" stroke-linecap="round" stroke-width="0.36" y1="55.2841" y2="62.3707"  x1="30.6708" x2="30.6708"/>
                <line stroke="white" stroke-linecap="round" stroke-width="0.36" y1="62.3707" y2="62.3707"  x1="30.6708" x2="34.6393"/>
                <line stroke="white" stroke-linecap="round" stroke-width="0.36" y1="62.3707" y2="62.3707"  x1="44.5607" x2="48.5292"/>
                <line stroke="white" stroke-linecap="round" stroke-width="0.36" y1="62.3707" y2="55.2841"  x1="48.5292" x2="48.5292"/>
                <line stroke="white" stroke-linecap="round" stroke-width="0.36" y1="55.2841" y2="55.2841"  x1="48.5292" x2="50.9386"/>
                <line stroke="white" stroke-linecap="round" stroke-width="0.36" y1="55.2841" y2="66.6227"  x1="50.9386" x2="50.9386"/>
            </g>
        </g>
        <g >
            <title >element:GND</title>
            <g >
                <title >package:SEWINGTAP_2.0</title>
            </g>
        </g>
        <g >
            <title >element:IC3</title>
            <g >
                <title >package:SOIC8</title>
                <path stroke="white" fill="none" stroke-width="0.432" d="M46.6866,35.4586A0.708661,0.708661,0,0,0,45.978,34.7499" />
                <path stroke="white" fill="none" stroke-width="0.432" d="M45.978,49.4901A0.708661,0.708661,0,0,0,46.6866,48.7814" />
                <path stroke="white" fill="none" stroke-width="0.432" d="M32.5134,48.7814A0.708661,0.708661,0,0,0,33.222,49.4901" />
                <path stroke="white" fill="none" stroke-width="0.432" d="M33.222,34.7499A0.708661,0.708661,0,0,0,32.5134,35.4586" />
                <line stroke="white" stroke-linecap="round" stroke-width="0.432" y1="35.8554" y2="35.4869"  x1="46.6866" x2="46.6866"/>
                <line stroke="white" stroke-linecap="round" stroke-width="0.432" y1="37.6129" y2="39.4271"  x1="46.6866" x2="46.6866"/>
                <line stroke="white" stroke-linecap="round" stroke-width="0.432" y1="41.2129" y2="43.0271"  x1="46.6866" x2="46.6866"/>
                <line stroke="white" stroke-linecap="round" stroke-width="0.432" y1="44.8129" y2="46.6271"  x1="46.6866" x2="46.6866"/>
                <line stroke="white" stroke-linecap="round" stroke-width="0.432" y1="48.3846" y2="48.8097"  x1="46.6866" x2="46.6866"/>
                <line stroke="white" stroke-linecap="round" stroke-width="0.432" y1="48.3562" y2="48.7247"  x1="32.5134" x2="32.5134"/>
                <line stroke="white" stroke-linecap="round" stroke-width="0.432" y1="46.6271" y2="44.7846"  x1="32.5134" x2="32.5134"/>
                <line stroke="white" stroke-linecap="round" stroke-width="0.432" y1="43.0271" y2="41.1846"  x1="32.5134" x2="32.5134"/>
                <line stroke="white" stroke-linecap="round" stroke-width="0.432" y1="39.4271" y2="37.6129"  x1="32.5134" x2="32.5134"/>
                <line stroke="white" stroke-linecap="round" stroke-width="0.432" y1="35.8554" y2="35.4869"  x1="32.5134" x2="32.5134"/>
                <line stroke="white" stroke-linecap="round" stroke-width="0.432" y1="34.7499" y2="34.7499"  x1="45.978" x2="33.2504"/>
                <line stroke="white" stroke-linecap="round" stroke-width="0.432" y1="49.4901" y2="49.4901"  x1="33.222" x2="45.978"/>
                <circle stroke="white" r="1.41732" fill="none" stroke-width="0.144" cx="36.4393" cy="38.0948" />
            </g>
        </g>
        <g >
            <title >element:U$7</title>
            <g >
                <title >package:ADAFRUIT_TEXT_20MM</title>
            </g>
        </g>
        <g >
            <title >element:VBAT</title>
            <g >
                <title >package:SEWINGTAP_2.0</title>
            </g>
        </g>
        <g >
            <title >element:X2</title>
            <g >
                <title >package:USB-MINI_MEDIUM</title>
                <line stroke="white" stroke-linecap="round" stroke-width="0.576" y1="13.4192" y2="21.0727"  x1="50.6551" x2="50.6551"/>
                <line stroke="white" stroke-linecap="round" stroke-width="0.576" y1="21.0727" y2="13.4192"  x1="28.5449" x2="28.5449"/>
                <line stroke="white" stroke-linecap="round" stroke-width="0.576" y1="28.1593" y2="28.1593"  x1="48.6708" x2="45.5527"/>
                <line stroke="white" stroke-linecap="round" stroke-width="0.576" y1="28.1593" y2="28.1593"  x1="33.6473" x2="30.5292"/>
            </g>
        </g>
    </g>
    <g gorn="0.3" id="copper1" >
        <g gorn="0.3.0" id="copper0" >
            <circle gorn="0.3.0.0" stroke="#F7BD13" connectorname="B0" id="connector1pad" r="2.86299" fill="none" stroke-width="1.47401" cx="7.56" cy="39.6" />
            <circle gorn="0.3.0.1" stroke="#F7BD13" connectorname="B1" id="connector2pad" r="2.86299" fill="none" stroke-width="1.47401" cx="71.64" cy="39.6" />
            <circle gorn="0.3.0.2" stroke="#F7BD13" connectorname="B2" id="connector3pad" r="2.86299" fill="none" stroke-width="1.47401" cx="16.92" cy="16.92" />
            <circle gorn="0.3.0.3" stroke="#F7BD13" connectorname="GND" id="connector18pad" r="2.86299" fill="none" stroke-width="1.47401" cx="62.28" cy="16.92" />
            <circle gorn="0.3.0.4" stroke="#F7BD13" connectorname="P$1" id="connector50pad" r="2.86299" fill="none" stroke-width="1.47401" cx="62.28" cy="62.28" />
            <circle gorn="0.3.0.5" stroke="#F7BD13" connectorname="+3V3" id="connector0pad" r="2.86299" fill="none" stroke-width="1.47401" cx="16.92" cy="62.28" />
        </g>
    </g>
</svg>
