<?xml version='1.0' encoding='UTF-8' standalone='no'?>
<!-- Created with Fritzing (http://www.fritzing.org/) -->
<svg xmlns="http://www.w3.org/2000/svg" height="0.7in" baseProfile="tiny" width="0.65in" version="1.2"  x="0in" y="0in" viewBox="0 0 46.8 50.4">
    <desc>
        <referenceFile>Adafruit HTU21D-F Temperature + Humidity Sensor_pcb.svg</referenceFile>
    </desc>
    <desc >Fritzing footprint generated by brd2svg</desc>
    <g gorn="0.1"  id="silkscreen">
        <path fill="none" d="M46.512,7.4057L46.512,42.9943A6.912,6.912,0,0,1,39.4006,50.112L7.39937,50.112A6.912,6.912,0,0,1,0.288,42.9943L0.288,7.4057A6.912,6.912,0,0,1,7.39937,0.288L39.4006,0.288A6.912,6.912,0,0,1,46.512,7.4057"  stroke-width="0.576" stroke="white"/>
        <g >
            <title >element:JP1</title>
            <g >
                <title >package:1X05_ROUND_70</title>
            </g>
        </g>
        <g >
            <title >element:U$1</title>
            <g >
                <title >package:ADAFRUIT_3.5MM</title>
            </g>
        </g>
    </g>
    <g gorn="0.2"  id="copper1">
        <g gorn="0.2.0"  id="copper0">
            <circle cy="7.2" gorn="0.2.0.0" r="4.26331" fill="none" connectorname="P$1"  stroke-width="1.44" id="connector32pad" stroke="#F7BD13" cx="7.2"/>
            <circle cy="43.2" gorn="0.2.0.1" r="1.96866" fill="none" connectorname="VIN"  stroke-width="1.10268" id="connector13pad" stroke="#F7BD13" cx="9"/>
            <rect height="3.93732" width="3.93732" fill="none"  stroke-width="1.10268" x="7.03134" y="41.2313" stroke="#F7BD13"/>
            <circle cy="43.2" gorn="0.2.0.3" r="1.96866" fill="none" connectorname="+3V3"  stroke-width="1.10268" id="connector14pad" stroke="#F7BD13" cx="16.2"/>
            <circle cy="43.2" gorn="0.2.0.4" r="1.96866" fill="none" connectorname="GND"  stroke-width="1.10268" id="connector15pad" stroke="#F7BD13" cx="23.4"/>
            <circle cy="43.2" gorn="0.2.0.5" r="1.96866" fill="none" connectorname="SDA"  stroke-width="1.10268" id="connector16pad" stroke="#F7BD13" cx="30.6"/>
            <circle cy="43.2" gorn="0.2.0.6" r="1.96866" fill="none" connectorname="SCL"  stroke-width="1.10268" id="connector17pad" stroke="#F7BD13" cx="37.8"/>
            <circle cy="7.2" gorn="0.2.0.7" r="4.26331" fill="none" connectorname="P$1"  stroke-width="1.44" id="connector33pad" stroke="#F7BD13" cx="39.6"/>
        </g>
    </g>
</svg>
