<?xml version='1.0' encoding='UTF-8' standalone='no'?>
<!-- Created with Fritzing (http://www.fritzing.org/) -->
<svg xmlns="http://www.w3.org/2000/svg" baseProfile="tiny" viewBox="0 0 50.4 40.3363" height="0.560227in" width="0.7in"  version="1.2" x="0in" y="0in">
    <desc >
        <referenceFile >3pintap_pcb.svg</referenceFile>
    </desc>
    <desc >Fritzing footprint generated by brd2svg</desc>
    <g gorn="0.2" id="silkscreen" >
        <path stroke="white" fill="none" stroke-width="0.576" d="M16.6587,40.0322A15.5683,15.5683,0,0,1,0.288,25.1281A24.9111,24.9111,0,0,1,25.2,0.288A24.9117,24.9117,0,0,1,50.112,25.1281A15.5683,15.5683,0,0,1,33.7413,40.0322L16.6587,40.0322" />
        <g >
            <title >element:CN2</title>
            <g >
                <title >package:JSTPH3</title>
                <line stroke="white" stroke-linecap="round" stroke-width="0.36" y1="36.5386" y2="36.5386"  x1="34.4126" x2="15.9874"/>
                <line stroke="white" stroke-linecap="round" stroke-width="0.36" y1="26.6173" y2="15.2788"  x1="11.0268" x2="11.0268"/>
                <line stroke="white" stroke-linecap="round" stroke-width="0.36" y1="15.2788" y2="15.2788"  x1="11.0268" x2="13.4362"/>
                <line stroke="white" stroke-linecap="round" stroke-width="0.36" y1="15.2788" y2="22.3654"  x1="13.4362" x2="13.4362"/>
                <line stroke="white" stroke-linecap="round" stroke-width="0.36" y1="22.3654" y2="22.3654"  x1="13.4362" x2="23.074"/>
                <line stroke="white" stroke-linecap="round" stroke-width="0.36" y1="22.3654" y2="22.3654"  x1="32.9953" x2="36.9638"/>
                <line stroke="white" stroke-linecap="round" stroke-width="0.36" y1="22.3654" y2="15.2788"  x1="36.9638" x2="36.9638"/>
                <line stroke="white" stroke-linecap="round" stroke-width="0.36" y1="15.2788" y2="15.2788"  x1="36.9638" x2="39.3732"/>
                <line stroke="white" stroke-linecap="round" stroke-width="0.36" y1="15.2788" y2="26.6173"  x1="39.3732" x2="39.3732"/>
            </g>
        </g>
    </g>
    <g gorn="0.3" id="copper1" >
        <g gorn="0.3.0" id="copper0" >
            <circle gorn="0.3.0.0" stroke="#F7BD13" connectorname="M" id="connector7pad" r="0" fill="none" stroke-width="0" cx="25.2" cy="25.2" />
            <circle gorn="0.3.0.1" stroke="#F7BD13" connectorname="R" id="connector8pad" r="0" fill="none" stroke-width="0" cx="25.2" cy="25.2" />
            <circle gorn="0.3.0.2" stroke="#F7BD13" connectorname="L" id="connector6pad" r="0" fill="none" stroke-width="0" cx="25.2" cy="25.2" />
            <g transform="matrix(-1, 0, 0, -1, 50.4, 35.0929)" >
                <g >
                    <g >
                        <g >
                            <rect gorn="0.3.0.3.0.0.0.0" stroke="none" height="13.0393" id="connector1pad" fill="#F7BD13" width="2.83465" stroke-width="0"  x="23.7827" y="11.0268"/>
                        </g>
                    </g>
                </g>
            </g>
            <g transform="matrix(-1, 0, 0, -1, 39.0614, 35.0929)" >
                <g >
                    <g >
                        <g >
                            <rect gorn="0.3.0.4.0.0.0.0" stroke="none" height="13.0393" id="connector2pad" fill="#F7BD13" width="2.83465" stroke-width="0"  x="18.1134" y="11.0268"/>
                        </g>
                    </g>
                </g>
            </g>
            <g transform="matrix(-1, 0, 0, -1, 61.7386, 35.0929)" >
                <g >
                    <g >
                        <g >
                            <rect gorn="0.3.0.5.0.0.0.0" stroke="none" height="13.0393" id="connector0pad" fill="#F7BD13" width="2.83465" stroke-width="0"  x="29.452" y="11.0268"/>
                        </g>
                    </g>
                </g>
            </g>
        </g>
    </g>
</svg>
