<?xml version="1.0" encoding="UTF-8" standalone="no"?>
<!-- Created with Inkscape (http://www.inkscape.org/) -->

<svg
   xmlns:dc="http://purl.org/dc/elements/1.1/"
   xmlns:cc="http://creativecommons.org/ns#"
   xmlns:rdf="http://www.w3.org/1999/02/22-rdf-syntax-ns#"
   xmlns:svg="http://www.w3.org/2000/svg"
   xmlns="http://www.w3.org/2000/svg"
   version="1.1"
   width="135"
   height="45"
   id="svg4364">
  <defs
     id="defs4366" />
  <metadata
     id="metadata4369">
    <rdf:RDF>
      <cc:Work
         rdf:about="">
        <dc:format>image/svg+xml</dc:format>
        <dc:type
           rdf:resource="http://purl.org/dc/dcmitype/StillImage" />
        <dc:title></dc:title>
      </cc:Work>
    </rdf:RDF>
  </metadata>
  <g
     id="pcb">
    <g
       id="silkscreen">
      <path
         d="m 4.5,18 0,9 C 6.9852814,27 9,24.9853 9,22.5 9,20.0147 6.9852814,18 4.5,18 z"
         id="rect6737"
         style="fill:none;stroke:#ffffff;stroke-width:0.44999999;stroke-linecap:round;stroke-linejoin:round;stroke-miterlimit:4;stroke-opacity:1;stroke-dasharray:none;stroke-dashoffset:0" />
      <rect
         width="126"
         height="36"
         x="4.5"
         y="4.4999995"
         id="rect6742"
         style="fill:none;stroke:#ffffff;stroke-width:0.53244716;stroke-linecap:round;stroke-linejoin:round;stroke-miterlimit:4;stroke-opacity:1;stroke-dasharray:none;stroke-dashoffset:0" />
    </g>
    <g
       id="copper0">
      <g
         id="copper1">
        <path
           d="m 11.25,36 a 2.25,2.25 0 0 1 -4.5,0 2.25,2.25 0 1 1 4.5,0 z"
           id="connector1pin"
           style="fill:none;stroke:#f6ca34;stroke-width:1.79999995;stroke-linecap:round;stroke-linejoin:round;stroke-miterlimit:4;stroke-opacity:1;stroke-dasharray:none;stroke-dashoffset:0;display:inline" />
        <path
           d="m 119.25,9 a 2.25,2.25 0 0 1 -4.5,0 2.25,2.25 0 1 1 4.5,0 z"
           id="connector16pin"
           style="fill:none;stroke:#f6ca34;stroke-width:1.79999995;stroke-linecap:round;stroke-linejoin:round;stroke-miterlimit:4;stroke-opacity:1;stroke-dasharray:none;stroke-dashoffset:0;display:inline" />
        <path
           d="m 20.25,36 a 2.25,2.25 0 0 1 -4.5,0 2.25,2.25 0 1 1 4.5,0 z"
           id="connector2pin"
           style="fill:none;stroke:#f6ca34;stroke-width:1.79999995;stroke-linecap:round;stroke-linejoin:round;stroke-miterlimit:4;stroke-opacity:1;stroke-dasharray:none;stroke-dashoffset:0;display:inline" />
        <path
           d="m 128.25,9 a 2.25,2.25 0 0 1 -4.5,0 2.25,2.25 0 1 1 4.5,0 z"
           id="connector15pin"
           style="fill:none;stroke:#f6ca34;stroke-width:1.79999995;stroke-linecap:round;stroke-linejoin:round;stroke-miterlimit:4;stroke-opacity:1;stroke-dasharray:none;stroke-dashoffset:0;display:inline" />
        <path
           d="m 29.25,36 a 2.25,2.25 0 0 1 -4.5,0 2.25,2.25 0 1 1 4.5,0 z"
           id="connector3pin"
           style="fill:none;stroke:#f6ca34;stroke-width:1.79999995;stroke-linecap:round;stroke-linejoin:round;stroke-miterlimit:4;stroke-opacity:1;stroke-dasharray:none;stroke-dashoffset:0;display:inline" />
        <path
           d="m 38.25,36 a 2.25,2.25 0 0 1 -4.5,0 2.25,2.25 0 1 1 4.5,0 z"
           id="connector4pin"
           style="fill:none;stroke:#f6ca34;stroke-width:1.79999995;stroke-linecap:round;stroke-linejoin:round;stroke-miterlimit:4;stroke-opacity:1;stroke-dasharray:none;stroke-dashoffset:0;display:inline" />
        <path
           d="m 47.25,36 a 2.25,2.25 0 0 1 -4.5,0 2.25,2.25 0 1 1 4.5,0 z"
           id="connector5pin"
           style="fill:none;stroke:#f6ca34;stroke-width:1.79999995;stroke-linecap:round;stroke-linejoin:round;stroke-miterlimit:4;stroke-opacity:1;stroke-dasharray:none;stroke-dashoffset:0;display:inline" />
        <path
           d="m 56.25,36 a 2.25,2.25 0 0 1 -4.5,0 2.25,2.25 0 1 1 4.5,0 z"
           id="connector6pin"
           style="fill:none;stroke:#f6ca34;stroke-width:1.79999995;stroke-linecap:round;stroke-linejoin:round;stroke-miterlimit:4;stroke-opacity:1;stroke-dasharray:none;stroke-dashoffset:0;display:inline" />
        <path
           d="m 123.75,36 a 2.25,2.25 0 1 1 4.5,0 2.25,2.25 0 0 1 -4.5,0 z"
           id="connector14pin"
           style="fill:none;stroke:#f6ca34;stroke-width:1.79999995;stroke-linecap:round;stroke-linejoin:round;stroke-miterlimit:4;stroke-opacity:1;stroke-dasharray:none;stroke-dashoffset:0;display:inline" />
        <path
           d="m 114.75,36 a 2.25,2.25 0 1 1 4.5,0 2.25,2.25 0 0 1 -4.5,0 z"
           id="connector13pin"
           style="fill:none;stroke:#f6ca34;stroke-width:1.79999995;stroke-linecap:round;stroke-linejoin:round;stroke-miterlimit:4;stroke-opacity:1;stroke-dasharray:none;stroke-dashoffset:0;display:inline" />
        <path
           d="m 105.75,36 a 2.25,2.25 0 1 1 4.5,0 2.25,2.25 0 0 1 -4.5,0 z"
           id="connector12pin"
           style="fill:none;stroke:#f6ca34;stroke-width:1.79999995;stroke-linecap:round;stroke-linejoin:round;stroke-miterlimit:4;stroke-opacity:1;stroke-dasharray:none;stroke-dashoffset:0;display:inline" />
        <path
           d="m 96.75,36 a 2.25,2.25 0 1 1 4.5,0 2.25,2.25 0 0 1 -4.5,0 z"
           id="connector11pin"
           style="fill:none;stroke:#f6ca34;stroke-width:1.79999995;stroke-linecap:round;stroke-linejoin:round;stroke-miterlimit:4;stroke-opacity:1;stroke-dasharray:none;stroke-dashoffset:0;display:inline" />
        <path
           d="m 65.25,36 a 2.25,2.25 0 0 1 -4.5,0 2.25,2.25 0 1 1 4.5,0 z"
           id="connector7pin"
           style="fill:none;stroke:#f6ca34;stroke-width:1.79999995;stroke-linecap:round;stroke-linejoin:round;stroke-miterlimit:4;stroke-opacity:1;stroke-dasharray:none;stroke-dashoffset:0;display:inline" />
        <path
           d="m 83.25,36 a 2.25,2.25 0 0 1 -4.5,0 2.25,2.25 0 1 1 4.5,0 z"
           id="connector9pin"
           style="fill:none;stroke:#f6ca34;stroke-width:1.79999995;stroke-linecap:round;stroke-linejoin:round;stroke-miterlimit:4;stroke-opacity:1;stroke-dasharray:none;stroke-dashoffset:0;display:inline" />
        <path
           d="m 74.25,36 a 2.25,2.25 0 0 1 -4.5,0 2.25,2.25 0 1 1 4.5,0 z"
           id="connector8pin"
           style="fill:none;stroke:#f6ca34;stroke-width:1.79999995;stroke-linecap:round;stroke-linejoin:round;stroke-miterlimit:4;stroke-opacity:1;stroke-dasharray:none;stroke-dashoffset:0;display:inline" />
        <path
           d="m 92.25,36 a 2.25,2.25 0 0 1 -4.5,0 2.25,2.25 0 1 1 4.5,0 z"
           id="connector10pin"
           style="fill:none;stroke:#f6ca34;stroke-width:1.79999995;stroke-linecap:round;stroke-linejoin:round;stroke-miterlimit:4;stroke-opacity:1;stroke-dasharray:none;stroke-dashoffset:0;display:inline" />
        <path
           d="m 83.25,9 a 2.25,2.25 0 0 1 -4.5,0 2.25,2.25 0 1 1 4.5,0 z"
           id="connector20pin"
           style="fill:none;stroke:#f6ca34;stroke-width:1.79999995;stroke-linecap:round;stroke-linejoin:round;stroke-miterlimit:4;stroke-opacity:1;stroke-dasharray:none;stroke-dashoffset:0;display:inline" />
        <path
           d="m 92.25,9 a 2.25,2.25 0 0 1 -4.5,0 2.25,2.25 0 1 1 4.5,0 z"
           id="connector19pin"
           style="fill:none;stroke:#f6ca34;stroke-width:1.79999995;stroke-linecap:round;stroke-linejoin:round;stroke-miterlimit:4;stroke-opacity:1;stroke-dasharray:none;stroke-dashoffset:0;display:inline" />
        <path
           d="m 101.25,9 a 2.25,2.25 0 0 1 -4.5,0 2.25,2.25 0 1 1 4.5,0 z"
           id="connector18pin"
           style="fill:none;stroke:#f6ca34;stroke-width:1.79999995;stroke-linecap:round;stroke-linejoin:round;stroke-miterlimit:4;stroke-opacity:1;stroke-dasharray:none;stroke-dashoffset:0;display:inline" />
        <path
           d="m 110.25,9 a 2.25,2.25 0 0 1 -4.5,0 2.25,2.25 0 1 1 4.5,0 z"
           id="connector17pin"
           style="fill:none;stroke:#f6ca34;stroke-width:1.79999995;stroke-linecap:round;stroke-linejoin:round;stroke-miterlimit:4;stroke-opacity:1;stroke-dasharray:none;stroke-dashoffset:0;display:inline" />
        <path
           d="m 65.25,9 a 2.25,2.25 0 0 1 -4.5,0 2.25,2.25 0 1 1 4.5,0 z"
           id="connector22pin"
           style="fill:none;stroke:#f6ca34;stroke-width:1.79999995;stroke-linecap:round;stroke-linejoin:round;stroke-miterlimit:4;stroke-opacity:1;stroke-dasharray:none;stroke-dashoffset:0;display:inline" />
        <path
           d="m 74.25,9 a 2.25,2.25 0 0 1 -4.5,0 2.25,2.25 0 1 1 4.5,0 z"
           id="connector21pin"
           style="fill:none;stroke:#f6ca34;stroke-width:1.79999995;stroke-linecap:round;stroke-linejoin:round;stroke-miterlimit:4;stroke-opacity:1;stroke-dasharray:none;stroke-dashoffset:0;display:inline" />
        <path
           d="m 29.25,9 a 2.25,2.25 0 0 1 -4.5,0 2.25,2.25 0 1 1 4.5,0 z"
           id="connector26pin"
           style="fill:none;stroke:#f6ca34;stroke-width:1.79999995;stroke-linecap:round;stroke-linejoin:round;stroke-miterlimit:4;stroke-opacity:1;stroke-dasharray:none;stroke-dashoffset:0;display:inline" />
        <path
           d="m 38.25,9 a 2.25,2.25 0 0 1 -4.5,0 2.25,2.25 0 1 1 4.5,0 z"
           id="connector25pin"
           style="fill:none;stroke:#f6ca34;stroke-width:1.79999995;stroke-linecap:round;stroke-linejoin:round;stroke-miterlimit:4;stroke-opacity:1;stroke-dasharray:none;stroke-dashoffset:0;display:inline" />
        <path
           d="m 47.25,9 a 2.25,2.25 0 0 1 -4.5,0 2.25,2.25 0 1 1 4.5,0 z"
           id="connector24pin"
           style="fill:none;stroke:#f6ca34;stroke-width:1.79999995;stroke-linecap:round;stroke-linejoin:round;stroke-miterlimit:4;stroke-opacity:1;stroke-dasharray:none;stroke-dashoffset:0;display:inline" />
        <path
           d="m 56.25,9 a 2.25,2.25 0 0 1 -4.5,0 2.25,2.25 0 1 1 4.5,0 z"
           id="connector23pin"
           style="fill:none;stroke:#f6ca34;stroke-width:1.79999995;stroke-linecap:round;stroke-linejoin:round;stroke-miterlimit:4;stroke-opacity:1;stroke-dasharray:none;stroke-dashoffset:0;display:inline" />
        <path
           d="m 11.25,9 a 2.25,2.25 0 0 1 -4.5,0 2.25,2.25 0 1 1 4.5,0 z"
           id="connector28pin"
           style="fill:none;stroke:#f6ca34;stroke-width:1.79999995;stroke-linecap:round;stroke-linejoin:round;stroke-miterlimit:4;stroke-opacity:1;stroke-dasharray:none;stroke-dashoffset:0;display:inline" />
        <path
           d="m 20.25,9 a 2.25,2.25 0 0 1 -4.5,0 2.25,2.25 0 1 1 4.5,0 z"
           id="connector27pin"
           style="fill:none;stroke:#f6ca34;stroke-width:1.79999995;stroke-linecap:round;stroke-linejoin:round;stroke-miterlimit:4;stroke-opacity:1;stroke-dasharray:none;stroke-dashoffset:0;display:inline" />
      </g>
    </g>
  </g>
</svg>
