<?xml version="1.0" encoding="UTF-8" standalone="no"?>
<!-- Created with Inkscape (http://www.inkscape.org/) -->

<svg
   xmlns:dc="http://purl.org/dc/elements/1.1/"
   xmlns:cc="http://creativecommons.org/ns#"
   xmlns:rdf="http://www.w3.org/1999/02/22-rdf-syntax-ns#"
   xmlns:svg="http://www.w3.org/2000/svg"
   xmlns="http://www.w3.org/2000/svg"
   version="1.1"
   width="72"
   height="13.5"
   id="svg4364">
  <defs
     id="defs4366" />
  <metadata
     id="metadata4369">
    <rdf:RDF>
      <cc:Work
         rdf:about="">
        <dc:format>image/svg+xml</dc:format>
        <dc:type
           rdf:resource="http://purl.org/dc/dcmitype/StillImage" />
        <dc:title></dc:title>
      </cc:Work>
    </rdf:RDF>
  </metadata>
  <g
     transform="translate(0,-1038.862)"
     id="layer1"
     style="display:inline" />
  <g
     id="copper0">
    <path
       d="m 11.25,4.5 a 2.25,2.25 0 0 1 -4.5,0 2.25,2.25 0 1 1 4.5,0 z"
       id="connector1pad"
       style="fill:none;stroke:#f6ca34;stroke-width:1.79999995;stroke-linecap:round;stroke-linejoin:round;stroke-miterlimit:4;stroke-opacity:1;stroke-dasharray:none;stroke-dashoffset:0;display:inline" />
    <path
       d="m 20.25,4.5 a 2.25,2.25 0 0 1 -4.5,0 2.25,2.25 0 1 1 4.5,0 z"
       id="connector2pad"
       style="fill:none;stroke:#f6ca34;stroke-width:1.79999995;stroke-linecap:round;stroke-linejoin:round;stroke-miterlimit:4;stroke-opacity:1;stroke-dasharray:none;stroke-dashoffset:0;display:inline" />
    <path
       d="m 29.25,4.5 a 2.25,2.25 0 0 1 -4.5,0 2.25,2.25 0 1 1 4.5,0 z"
       id="connector3pad"
       style="fill:none;stroke:#f6ca34;stroke-width:1.79999995;stroke-linecap:round;stroke-linejoin:round;stroke-miterlimit:4;stroke-opacity:1;stroke-dasharray:none;stroke-dashoffset:0;display:inline" />
    <path
       d="m 38.25,4.5 a 2.25,2.25 0 0 1 -4.5,0 2.25,2.25 0 1 1 4.5,0 z"
       id="connector4pad"
       style="fill:none;stroke:#f6ca34;stroke-width:1.79999995;stroke-linecap:round;stroke-linejoin:round;stroke-miterlimit:4;stroke-opacity:1;stroke-dasharray:none;stroke-dashoffset:0;display:inline" />
    <path
       d="m 47.25,4.5 a 2.25,2.25 0 0 1 -4.5,0 2.25,2.25 0 1 1 4.5,0 z"
       id="connector5pad"
       style="fill:none;stroke:#f6ca34;stroke-width:1.79999995;stroke-linecap:round;stroke-linejoin:round;stroke-miterlimit:4;stroke-opacity:1;stroke-dasharray:none;stroke-dashoffset:0;display:inline" />
    <path
       d="m 56.25,4.5 a 2.25,2.25 0 0 1 -4.5,0 2.25,2.25 0 1 1 4.5,0 z"
       id="connector6pad"
       style="fill:none;stroke:#f6ca34;stroke-width:1.79999995;stroke-linecap:round;stroke-linejoin:round;stroke-miterlimit:4;stroke-opacity:1;stroke-dasharray:none;stroke-dashoffset:0;display:inline" />
    <path
       d="m 65.25,4.5 a 2.25,2.25 0 0 1 -4.5,0 2.25,2.25 0 1 1 4.5,0 z"
       id="connector7pad"
       style="fill:none;stroke:#f6ca34;stroke-width:1.79999995;stroke-linecap:round;stroke-linejoin:round;stroke-miterlimit:4;stroke-opacity:1;stroke-dasharray:none;stroke-dashoffset:0;display:inline" />
  </g>
  <g
     id="copper1">
    <path
       d="m 11.25,4.5 a 2.25,2.25 0 0 1 -4.5,0 2.25,2.25 0 1 1 4.5,0 z"
       id="connector1pad"
       style="fill:none;stroke:#f6ca34;stroke-width:1.79999995;stroke-linecap:round;stroke-linejoin:round;stroke-miterlimit:4;stroke-opacity:1;stroke-dasharray:none;stroke-dashoffset:0;display:inline" />
    <path
       d="m 20.25,4.5 a 2.25,2.25 0 0 1 -4.5,0 2.25,2.25 0 1 1 4.5,0 z"
       id="connector2pad"
       style="fill:none;stroke:#f6ca34;stroke-width:1.79999995;stroke-linecap:round;stroke-linejoin:round;stroke-miterlimit:4;stroke-opacity:1;stroke-dasharray:none;stroke-dashoffset:0;display:inline" />
    <path
       d="m 29.25,4.5 a 2.25,2.25 0 0 1 -4.5,0 2.25,2.25 0 1 1 4.5,0 z"
       id="connector3pad"
       style="fill:none;stroke:#f6ca34;stroke-width:1.79999995;stroke-linecap:round;stroke-linejoin:round;stroke-miterlimit:4;stroke-opacity:1;stroke-dasharray:none;stroke-dashoffset:0;display:inline" />
    <path
       d="m 38.25,4.5 a 2.25,2.25 0 0 1 -4.5,0 2.25,2.25 0 1 1 4.5,0 z"
       id="connector4pad"
       style="fill:none;stroke:#f6ca34;stroke-width:1.79999995;stroke-linecap:round;stroke-linejoin:round;stroke-miterlimit:4;stroke-opacity:1;stroke-dasharray:none;stroke-dashoffset:0;display:inline" />
    <path
       d="m 47.25,4.5 a 2.25,2.25 0 0 1 -4.5,0 2.25,2.25 0 1 1 4.5,0 z"
       id="connector5pad"
       style="fill:none;stroke:#f6ca34;stroke-width:1.79999995;stroke-linecap:round;stroke-linejoin:round;stroke-miterlimit:4;stroke-opacity:1;stroke-dasharray:none;stroke-dashoffset:0;display:inline" />
    <path
       d="m 56.25,4.5 a 2.25,2.25 0 0 1 -4.5,0 2.25,2.25 0 1 1 4.5,0 z"
       id="connector6pad"
       style="fill:none;stroke:#f6ca34;stroke-width:1.79999995;stroke-linecap:round;stroke-linejoin:round;stroke-miterlimit:4;stroke-opacity:1;stroke-dasharray:none;stroke-dashoffset:0;display:inline" />
    <path
       d="m 65.25,4.5 a 2.25,2.25 0 0 1 -4.5,0 2.25,2.25 0 1 1 4.5,0 z"
       id="connector7pad"
       style="fill:none;stroke:#f6ca34;stroke-width:1.79999995;stroke-linecap:round;stroke-linejoin:round;stroke-miterlimit:4;stroke-opacity:1;stroke-dasharray:none;stroke-dashoffset:0;display:inline" />
  </g>
  <g
     id="silkscreen">
    <g
       transform="translate(0,-11.3)"
       id="text8757"
       xml:space="preserve"
       style="font-size:8px;font-style:normal;font-variant:normal;font-weight:normal;font-stretch:normal;text-align:center;line-height:125%;letter-spacing:0px;word-spacing:0px;text-anchor:middle;fill:#000000;fill-opacity:1;stroke:none;font-family:OCRA;-inkscape-font-specification:OCRA">
    <text
   x="9"
   y="22.950001"
   id="tspan8759"
   style="font-size:4px;fill:#ffffff;fill-opacity:1">1</text>

   </g>    <g
       transform="translate(0,-22.5)"
       id="text8761"
       xml:space="preserve"
       style="font-size:8px;font-style:normal;font-variant:normal;font-weight:normal;font-stretch:normal;text-align:center;line-height:125%;letter-spacing:0px;word-spacing:0px;text-anchor:middle;fill:#000000;fill-opacity:1;stroke:none;font-family:OCRA;-inkscape-font-specification:OCRA">
    <text
   x="18"
   y="34.200001"
   id="tspan8763"
   style="font-size:4px;fill:#ffffff;fill-opacity:1">2</text>

   </g>    <g
       transform="translate(0,-11.2998)"
       id="text8765"
       xml:space="preserve"
       style="font-size:8px;font-style:normal;font-variant:normal;font-weight:normal;font-stretch:normal;text-align:center;line-height:125%;letter-spacing:0px;word-spacing:0px;text-anchor:middle;fill:#000000;fill-opacity:1;stroke:none;font-family:OCRA;-inkscape-font-specification:OCRA">
    <text
   x="27"
   y="22.950001"
   id="tspan8767"
   style="font-size:4px;fill:#ffffff;fill-opacity:1">3</text>

   </g>    <rect
       width="71.031326"
       height="12.599952"
       x="0.44999999"
       y="0.45000076"
       id="rect8769"
       style="fill:none;stroke:#ffffff;stroke-width:0.27000001;stroke-miterlimit:4;stroke-opacity:1;stroke-dasharray:none" />
    <g
       transform="translate(27,-11.3)"
       id="g6732"
       xml:space="preserve"
       style="font-size:8px;font-style:normal;font-variant:normal;font-weight:normal;font-stretch:normal;text-align:center;line-height:125%;letter-spacing:0px;word-spacing:0px;text-anchor:middle;fill:#000000;fill-opacity:1;stroke:none;font-family:OCRA;-inkscape-font-specification:OCRA">
    <text
   x="9"
   y="22.950001"
   id="text6734"
   style="font-size:4px;fill:#ffffff;fill-opacity:1">4</text>

   </g>    <g
       transform="translate(27,-22.5)"
       id="g6736"
       xml:space="preserve"
       style="font-size:8px;font-style:normal;font-variant:normal;font-weight:normal;font-stretch:normal;text-align:center;line-height:125%;letter-spacing:0px;word-spacing:0px;text-anchor:middle;fill:#000000;fill-opacity:1;stroke:none;font-family:OCRA;-inkscape-font-specification:OCRA">
    <text
   x="18"
   y="34.200001"
   id="text6738"
   style="font-size:4px;fill:#ffffff;fill-opacity:1">5</text>

   </g>    <g
       transform="translate(27,-11.2998)"
       id="g6740"
       xml:space="preserve"
       style="font-size:8px;font-style:normal;font-variant:normal;font-weight:normal;font-stretch:normal;text-align:center;line-height:125%;letter-spacing:0px;word-spacing:0px;text-anchor:middle;fill:#000000;fill-opacity:1;stroke:none;font-family:OCRA;-inkscape-font-specification:OCRA">
    <text
   x="27"
   y="22.950001"
   id="text6742"
   style="font-size:4px;fill:#ffffff;fill-opacity:1">6</text>

   </g>    <g
       transform="translate(36,-11.2998)"
       id="g6746"
       xml:space="preserve"
       style="font-size:8px;font-style:normal;font-variant:normal;font-weight:normal;font-stretch:normal;text-align:center;line-height:125%;letter-spacing:0px;word-spacing:0px;text-anchor:middle;fill:#000000;fill-opacity:1;stroke:none;font-family:OCRA;-inkscape-font-specification:OCRA">
    <text
   x="27"
   y="22.950001"
   id="text6748"
   style="font-size:4px;fill:#ffffff;fill-opacity:1">7</text>

   </g>  </g>
</svg>
