<?xml version='1.0' encoding='UTF-8' standalone='no'?>
<!-- Created with Fritzing (http://www.fritzing.org/) -->
<svg xmlns="http://www.w3.org/2000/svg" height="0.75in" baseProfile="tiny" width="0.822913in" version="1.2"  x="0in" y="0in" viewBox="0 0 59.2497 54">
    <desc>
        <referenceFile>Adafruit Micro Lipo_pcb.svg</referenceFile>
    </desc>
    <desc >Fritzing footprint generated by brd2svg</desc>
    <g gorn="0.1"  id="silkscreen">
        <path fill="none" d="M9.0517,0.288L51.8318,0.288A6.912,6.912,0,0,1,58.9617,7.41118L58.9617,46.5888A6.912,6.912,0,0,1,51.8318,53.712L9.0517,53.712A6.912,6.912,0,0,1,1.92172,46.5888L1.92172,7.41118A6.912,6.912,0,0,1,9.0517,0.288M13.1856,21.4724a0.704126,0.704126,0,1,0,1.40826,0,0.704126,0.704126,0,1,0,-1.40826,0zM13.1856,32.5276a0.704126,0.704126,0,1,0,1.40826,0,0.704126,0.704126,0,1,0,-1.40826,0z"  stroke-width="0.576" stroke="white"/>
        <g >
            <title >element:CN2</title>
            <g >
                <title >package:JSTPH2</title>
                <line x1="57.6737" stroke-linecap="round" x2="57.6737"  stroke-width="0.576" stroke="white" y1="20.622" y2="33.378"/>
                <line x1="47.7524" stroke-linecap="round" x2="36.4139"  stroke-width="0.576" stroke="white" y1="38.3386" y2="38.3386"/>
                <line x1="36.4139" stroke-linecap="round" x2="36.4139"  stroke-width="0.576" stroke="white" y1="38.3386" y2="35.9292"/>
                <line x1="36.4139" stroke-linecap="round" x2="43.5005"  stroke-width="0.576" stroke="white" y1="35.9292" y2="35.9292"/>
                <line x1="43.5005" stroke-linecap="round" x2="43.5005"  stroke-width="0.576" stroke="white" y1="35.9292" y2="31.9607"/>
                <line x1="43.5005" stroke-linecap="round" x2="43.5005"  stroke-width="0.576" stroke="white" y1="22.0393" y2="18.0708"/>
                <line x1="43.5005" stroke-linecap="round" x2="36.4139"  stroke-width="0.576" stroke="white" y1="18.0708" y2="18.0708"/>
                <line x1="36.4139" stroke-linecap="round" x2="36.4139"  stroke-width="0.576" stroke="white" y1="18.0708" y2="15.6614"/>
                <line x1="36.4139" stroke-linecap="round" x2="47.7524"  stroke-width="0.576" stroke="white" y1="15.6614" y2="15.6614"/>
            </g>
        </g>
        <g >
            <title >element:U$13</title>
            <g >
                <title >package:ADAFRUIT_5MM</title>
            </g>
        </g>
        <g >
            <title >element:X1</title>
            <g >
                <title >package:4UCONN_20329</title>
                <line x1="17.0078" stroke-linecap="round" x2="17.0078"  stroke-width="0.36" stroke="white" y1="19.9134" y2="22.1811"/>
                <line x1="17.0078" stroke-linecap="round" x2="17.0078"  stroke-width="0.36" stroke="white" y1="31.8189" y2="34.0866"/>
                <line x1="4.25197" stroke-linecap="round" x2="1.70078"  stroke-width="0.36" stroke="white" y1="16.2284" y2="16.2284"/>
                <line x1="1.70078" stroke-linecap="round" x2="1.70078"  stroke-width="0.36" stroke="white" y1="16.2284" y2="37.7716"/>
                <line x1="1.70078" stroke-linecap="round" x2="4.25197"  stroke-width="0.36" stroke="white" y1="37.7716" y2="37.7716"/>
            </g>
        </g>
        <line x1="0.288" x2="1.64976" fill="none"  stroke-width="0.576" stroke="white" fill-opacity="1" y1="41.315" y2="41.315"/>
        <line x1="0.288" x2="1.64976" fill="none"  stroke-width="0.576" stroke="white" fill-opacity="1" y1="12.685" y2="12.685"/>
        <line x1="0.288" x2="0.288" fill="none"  stroke-width="0.576" stroke="white" fill-opacity="1" y1="41.315" y2="12.685"/>
    </g>
    <g gorn="0.2"  id="copper1">
        <g gorn="0.2.0"  id="copper0">
            <circle cy="7.2" gorn="0.2.0.0" r="4.26331" fill="none" connectorname="P$1"  stroke-width="1.44" id="connector34pad" stroke="#F7BD13" cx="52.0497"/>
            <circle cy="16.7953" gorn="0.2.0.1" r="2.19685" fill="none" connectorname="GND"  stroke-width="2.69292" id="connector50pad" stroke="#F7BD13" cx="8.50392"/>
            <rect height="4.3937" width="4.3937" fill="none"  stroke-width="2.69292" x="6.30708" y="14.5984" stroke="#F7BD13"/>
            <circle cy="7.2" gorn="0.2.0.3" r="4.26331" fill="none" connectorname="P$1"  stroke-width="1.44" id="connector36pad" stroke="#F7BD13" cx="8.84974"/>
            <circle cy="7.2" gorn="0.2.0.4" r="1.96866" fill="none" connectorname="VBAT"  stroke-width="1.10268" id="connector15pad" stroke="#F7BD13" cx="41.2497"/>
            <circle cy="17.6457" gorn="0.2.0.5" r="1.35212" fill="none" connectorname="GND"  stroke-width="0.72" id="connector48pad" stroke="#F7BD13" cx="16.4409"/>
            <path fill="#F7BD13" d="m15.0888,14.9414,2.70426,0,0,4.05638,-2.70426,0,0,-4.05638M15.0888,17.6457a1.35212,1.35212,0,1,0,2.70426,0,1.35212,1.35212,0,1,0,-2.70426,0zz"  stroke-width="0" stroke="none"/>
            <circle cy="7.2" gorn="0.2.0.7" r="1.96866" fill="none" connectorname="GND"  stroke-width="1.10268" id="connector16pad" stroke="#F7BD13" cx="34.0497"/>
            <circle cy="7.2" gorn="0.2.0.8" r="1.96866" fill="none" connectorname="5V"  stroke-width="1.10268" id="connector17pad" stroke="#F7BD13" cx="19.6497"/>
            <circle cy="7.2" gorn="0.2.0.9" r="1.96866" fill="none" connectorname="GND"  stroke-width="1.10268" id="connector18pad" stroke="#F7BD13" cx="26.8497"/>
            <circle cy="46.8" gorn="0.2.0.10" r="4.26331" fill="none" connectorname="P$1"  stroke-width="1.44" id="connector33pad" stroke="#F7BD13" cx="52.0497"/>
            <circle cy="46.8" gorn="0.2.0.11" r="4.26331" fill="none" connectorname="P$1"  stroke-width="1.44" id="connector35pad" stroke="#F7BD13" cx="8.84974"/>
            <circle cy="36.3543" gorn="0.2.0.12" r="1.35212" fill="none" connectorname="GND"  stroke-width="0.72" id="connector49pad" stroke="#F7BD13" cx="16.4409"/>
            <path fill="#F7BD13" d="m15.0888,35.0022,2.70426,0,0,4.05638,-2.70426,0,0,-4.05638M15.0888,36.3543a1.35212,1.35212,0,1,0,2.70426,0,1.35212,1.35212,0,1,0,-2.70426,0zz"  stroke-width="0" stroke="none"/>
            <circle cy="37.2047" gorn="0.2.0.14" r="2.19685" fill="none" connectorname="GND"  stroke-width="2.69292" id="connector51pad" stroke="#F7BD13" cx="8.50392"/>
            <rect height="4.3937" width="4.3937" fill="none"  stroke-width="2.69292" x="6.30708" y="35.0078" stroke="#F7BD13"/>
        </g>
    </g>
</svg>
