<?xml version='1.0' encoding='UTF-8' standalone='no'?>
<!-- Created with Fritzing (http://www.fritzing.org/) -->
<svg xmlns="http://www.w3.org/2000/svg" height="0.75in" baseProfile="tiny" width="0.941102in" version="1.2"  x="0in" y="0in" viewBox="0 0 67.7593 54">
    <desc>
        <referenceFile>Adafruit Mini Lipo_pcb.svg</referenceFile>
    </desc>
    <desc >Fritzing footprint generated by brd2svg</desc>
    <g gorn="0.1"  id="silkscreen">
        <path fill="none" d="M8.57628,0.288L60.3325,0.288A6.912,6.912,0,0,1,67.4713,7.41118L67.4713,46.5888A6.912,6.912,0,0,1,60.3325,53.712L8.57628,53.712A6.912,6.912,0,0,1,1.43752,46.5888L1.43752,7.41118A6.912,6.912,0,0,1,8.57628,0.288M14.7447,20.7638a1.12932,1.12932,0,1,0,2.25865,0,1.12932,1.12932,0,1,0,-2.25865,0zM14.7447,33.2362a1.12932,1.12932,0,1,0,2.25865,0,1.12932,1.12932,0,1,0,-2.25865,0z"  stroke-width="0.576" stroke="white"/>
        <g >
            <title >element:CN2</title>
            <g >
                <title >package:JSTPH2</title>
                <line x1="66.1833" stroke-linecap="round" x2="66.1833"  stroke-width="0.576" stroke="white" y1="20.622" y2="33.378"/>
                <line x1="56.262" stroke-linecap="round" x2="44.9235"  stroke-width="0.576" stroke="white" y1="38.3386" y2="38.3386"/>
                <line x1="44.9235" stroke-linecap="round" x2="44.9235"  stroke-width="0.576" stroke="white" y1="38.3386" y2="35.9292"/>
                <line x1="44.9235" stroke-linecap="round" x2="52.0101"  stroke-width="0.576" stroke="white" y1="35.9292" y2="35.9292"/>
                <line x1="52.0101" stroke-linecap="round" x2="52.0101"  stroke-width="0.576" stroke="white" y1="35.9292" y2="31.9607"/>
                <line x1="52.0101" stroke-linecap="round" x2="52.0101"  stroke-width="0.576" stroke="white" y1="22.0393" y2="18.0708"/>
                <line x1="52.0101" stroke-linecap="round" x2="44.9235"  stroke-width="0.576" stroke="white" y1="18.0708" y2="18.0708"/>
                <line x1="44.9235" stroke-linecap="round" x2="44.9235"  stroke-width="0.576" stroke="white" y1="18.0708" y2="15.6614"/>
                <line x1="44.9235" stroke-linecap="round" x2="56.262"  stroke-width="0.576" stroke="white" y1="15.6614" y2="15.6614"/>
            </g>
        </g>
        <g >
            <title >element:U$13</title>
            <g >
                <title >package:ADAFRUIT_5MM</title>
            </g>
        </g>
        <g >
            <title >element:X1</title>
            <g >
                <title >package:USB-MINI_MEDIUM</title>
                <line x1="11.3386" stroke-linecap="round" x2="18.9922"  stroke-width="0.576" stroke="white" y1="15.9449" y2="15.9449"/>
                <line x1="18.9922" stroke-linecap="round" x2="11.3386"  stroke-width="0.576" stroke="white" y1="38.0551" y2="38.0551"/>
                <line x1="26.0788" stroke-linecap="round" x2="26.0788"  stroke-width="0.576" stroke="white" y1="17.9292" y2="21.0473"/>
                <line x1="26.0788" stroke-linecap="round" x2="26.0788"  stroke-width="0.576" stroke="white" y1="32.9527" y2="36.0708"/>
            </g>
        </g>
        <line x1="0.288" x2="1.15937" fill="none"  stroke-width="0.576" stroke="white" fill-opacity="1" y1="41.315" y2="41.315"/>
        <line x1="0.288" x2="1.15937" fill="none"  stroke-width="0.576" stroke="white" fill-opacity="1" y1="12.6" y2="12.6"/>
        <line x1="0.288" x2="0.288" fill="none"  stroke-width="0.576" stroke="white" fill-opacity="1" y1="41.315" y2="12.6"/>
    </g>
    <g gorn="0.2"  id="copper1">
        <g gorn="0.2.0"  id="copper0">
            <circle cy="7.2" gorn="0.2.0.0" r="4.26331" fill="none" connectorname="P$1"  stroke-width="1.44" id="connector38pad" stroke="#F7BD13" cx="15.9193"/>
            <circle cy="7.2" gorn="0.2.0.1" r="4.26331" fill="none" connectorname="P$1"  stroke-width="1.44" id="connector36pad" stroke="#F7BD13" cx="60.5593"/>
            <circle cy="7.2" gorn="0.2.0.2" r="1.96866" fill="none" connectorname="VBAT"  stroke-width="1.10268" id="connector16pad" stroke="#F7BD13" cx="49.7593"/>
            <circle cy="7.2" gorn="0.2.0.3" r="1.96866" fill="none" connectorname="GND"  stroke-width="1.10268" id="connector17pad" stroke="#F7BD13" cx="42.5593"/>
            <circle cy="7.2" gorn="0.2.0.4" r="1.96866" fill="none" connectorname="5V"  stroke-width="1.10268" id="connector18pad" stroke="#F7BD13" cx="28.1593"/>
            <circle cy="7.2" gorn="0.2.0.5" r="1.96866" fill="none" connectorname="GND"  stroke-width="1.10268" id="connector19pad" stroke="#F7BD13" cx="35.3593"/>
            <circle cy="46.8" gorn="0.2.0.6" r="4.26331" fill="none" connectorname="P$1"  stroke-width="1.44" id="connector35pad" stroke="#F7BD13" cx="60.5593"/>
            <circle cy="7.2" gorn="0.2.0.7" r="1.98" fill="none" connectorname="1"  stroke-width="1.08" id="connector20pad" stroke="#F7BD13" cx="6.55937"/>
            <circle cy="46.8" gorn="0.2.0.8" r="4.26331" fill="none" connectorname="P$1"  stroke-width="1.44" id="connector37pad" stroke="#F7BD13" cx="15.9193"/>
        </g>
    </g>
</svg>
