<?xml version='1.0' encoding='UTF-8' standalone='no'?>
<!-- Created with Fritzing (http://www.fritzing.org/) -->
<svg xmlns="http://www.w3.org/2000/svg" height="0.7in" baseProfile="tiny" width="0.75in" version="1.2"  x="0in" y="0in" viewBox="0 0 54 50.4">
    <desc>
        <referenceFile>Adafruit MPL3115A2 I2C Barometric Pressure, Altitude, Temperature Sensor_pcb.svg</referenceFile>
    </desc>
    <desc >Fritzing footprint generated by brd2svg</desc>
    <g gorn="0.1"  id="silkscreen">
        <path fill="none" d="M53.712,7.4057L53.712,42.9943A6.912,6.912,0,0,1,46.5888,50.112L7.41118,50.112A6.912,6.912,0,0,1,0.288,42.9943L0.288,7.4057A6.912,6.912,0,0,1,7.41118,0.288L46.5888,0.288A6.912,6.912,0,0,1,53.712,7.4057"  stroke-width="0.576" stroke="white"/>
        <g >
            <title >element:IC1</title>
            <g >
                <title >package:LGA8</title>
                <line x1="23.1846" stroke-linecap="round" x2="23.1846"  stroke-width="0.576" stroke="white" y1="34.0101" y2="19.2699"/>
                <line x1="23.1846" stroke-linecap="round" x2="32.2554"  stroke-width="0.576" stroke="white" y1="19.2699" y2="19.2699"/>
                <line x1="32.2554" stroke-linecap="round" x2="32.2554"  stroke-width="0.576" stroke="white" y1="19.2699" y2="34.0101"/>
                <line x1="32.2554" stroke-linecap="round" x2="23.1846"  stroke-width="0.576" stroke="white" y1="34.0101" y2="34.0101"/>
                <circle cy="18.4195" r="0.400872" fill="none"  stroke-width="1.152" stroke="white" cx="21.4838"/>
            </g>
        </g>
        <g >
            <title >element:JP2</title>
            <g >
                <title >package:1X07_ROUND_70</title>
            </g>
        </g>
        <g >
            <title >element:U$14</title>
            <g >
                <title >package:ADAFRUIT_3.5MM</title>
            </g>
        </g>
    </g>
    <g gorn="0.2"  id="copper1">
        <g gorn="0.2.0"  id="copper0">
            <circle cy="7.2" gorn="0.2.0.0" r="4.26331" fill="none" connectorname="P$1"  stroke-width="1.44" id="connector44pad" stroke="#F7BD13" cx="7.2"/>
            <circle cy="43.2" gorn="0.2.0.1" r="1.96866" fill="none" connectorname="SDA"  stroke-width="1.10268" id="connector29pad" stroke="#F7BD13" cx="48.6"/>
            <circle cy="43.2" gorn="0.2.0.2" r="1.96866" fill="none" connectorname="VIN"  stroke-width="1.10268" id="connector23pad" stroke="#F7BD13" cx="5.4"/>
            <rect height="3.93732" width="3.93732" fill="none"  stroke-width="1.10268" x="3.43134" y="41.2313" stroke="#F7BD13"/>
            <circle cy="43.2" gorn="0.2.0.4" r="1.96866" fill="none" connectorname="GND"  stroke-width="1.10268" id="connector24pad" stroke="#F7BD13" cx="12.6"/>
            <circle cy="7.2" gorn="0.2.0.5" r="4.26331" fill="none" connectorname="P$1"  stroke-width="1.44" id="connector45pad" stroke="#F7BD13" cx="46.8"/>
            <circle cy="43.2" gorn="0.2.0.6" r="1.96866" fill="none" connectorname="+3V3"  stroke-width="1.10268" id="connector25pad" stroke="#F7BD13" cx="19.8"/>
            <circle cy="43.2" gorn="0.2.0.7" r="1.96866" fill="none" connectorname="INT2"  stroke-width="1.10268" id="connector26pad" stroke="#F7BD13" cx="27"/>
            <circle cy="43.2" gorn="0.2.0.8" r="1.96866" fill="none" connectorname="INT1"  stroke-width="1.10268" id="connector27pad" stroke="#F7BD13" cx="34.2"/>
            <circle cy="43.2" gorn="0.2.0.9" r="1.96866" fill="none" connectorname="SCL"  stroke-width="1.10268" id="connector28pad" stroke="#F7BD13" cx="41.4"/>
        </g>
    </g>
</svg>
