<?xml version='1.0' encoding='UTF-8' standalone='no'?>
<!-- Created with Fritzing (http://www.fritzing.org/) -->
<svg xmlns="http://www.w3.org/2000/svg"  width="0.95in" x="0in" version="1.2" y="0in" height="0.6in" viewBox="0 0 68.4 43.2" baseProfile="tiny">
 <desc >Fritzing footprint generated by brd2svg</desc>
 <g  id="silkscreen">
  <path  fill="none" stroke="white" stroke-width="0.576" d="M0.288,35.808L0.288,7.39202A6.912,6.912,0,0,1,7.42738,0.288L60.9726,0.288A6.912,6.912,0,0,1,68.112,7.39202L68.112,35.808A6.912,6.912,0,0,1,60.9726,42.912L7.42738,42.912A6.912,6.912,0,0,1,0.288,35.808"/>
  <circle  fill="none" cx="32.76" cy="26.64" stroke="white" r="0.509111" stroke-width="1.152"/>
  <g >
   <title >element:JP1</title>
   <g >
    <title >package:1X05_ROUND_70</title>
   </g>
  </g>
  <g >
   <title >element:U1</title>
   <g >
    <title >package:MSOP8_0.65MM</title>
    <line  stroke="white" stroke-linecap="round" y1="33.052" x1="34.852" y2="24.548" stroke-width="0.576" x2="34.852"/>
    <line  stroke="white" stroke-linecap="round" y1="24.548" x1="26.348" y2="33.052" stroke-width="0.576" x2="26.348"/>
    <circle  fill="none" cx="36.8362" cy="26.2488" stroke="white" r="0.425197" stroke-width="1.728"/>
   </g>
  </g>
  <g >
   <title >element:VR1</title>
   <g >
    <title >package:TRIMPOT_BOURNS_3303W</title>
    <line  stroke="white" stroke-linecap="round" y1="2.8063" x1="19.1905" y2="2.8063" stroke-width="0.576" x2="25.9937"/>
    <line  stroke="white" stroke-linecap="round" y1="2.8063" x1="25.9937" y2="4.50708" stroke-width="0.576" x2="25.9937"/>
    <line  stroke="white" stroke-linecap="round" y1="9.75118" x1="25.9937" y2="11.5937" stroke-width="0.576" x2="25.9937"/>
    <line  stroke="white" stroke-linecap="round" y1="11.5937" x1="25.9937" y2="11.5937" stroke-width="0.576" x2="19.1905"/>
    <line  stroke="white" stroke-linecap="round" y1="6.34961" x1="17.2063" y2="7.9087" stroke-width="0.576" x2="17.2063"/>
   </g>
  </g>
  <g >
   <title >element:X1</title>
   <g >
    <title >package:TERMBLOCK_1X2-3.5MM</title>
    <line  stroke="white" stroke-linecap="round" y1="31.5978" x1="48.3222" y2="31.5978" stroke-width="0.576" x2="64.1962"/>
    <line  stroke="white" stroke-linecap="round" y1="31.5978" x1="64.1962" y2="31.5978" stroke-width="0.576" x2="68.1647"/>
    <line  stroke="white" stroke-linecap="round" y1="31.5978" x1="68.1647" y2="11.7553" stroke-width="0.576" x2="68.1647"/>
    <line  stroke="white" stroke-linecap="round" y1="11.7553" x1="68.1647" y2="11.7553" stroke-width="0.576" x2="64.1962"/>
    <line  stroke="white" stroke-linecap="round" y1="11.7553" x1="64.1962" y2="11.7553" stroke-width="0.576" x2="48.3222"/>
    <line  stroke="white" stroke-linecap="round" y1="11.7553" x1="48.3222" y2="31.5978" stroke-width="0.576" x2="48.3222"/>
    <line  stroke="white" stroke-linecap="round" y1="31.5978" x1="64.1962" y2="11.7553" stroke-width="0.576" x2="64.1962"/>
   </g>
  </g>
 </g>
 <g  id="copper1">
  <g  id="copper0">
   <circle  fill="none" cx="57.96" cy="26.7789" connectorname="VO-" stroke="#F7BD13" r="2.25666" id="connector41pad" stroke-width="1.67868"/>
   <circle  fill="none" cx="61.2" cy="6.48" connectorname="P$1" stroke="#F7BD13" r="3.83811" id="connector27pad" stroke-width="1.44"/>
   <circle  fill="none" cx="61.2" cy="36.72" connectorname="P$1" stroke="#F7BD13" r="3.83811" id="connector28pad" stroke-width="1.44"/>
   <circle  fill="none" cx="8.64" cy="36" connectorname="GND" stroke="#F7BD13" r="1.96866" id="connector16pad" stroke-width="1.10268"/>
   <rect  width="3.93732" x="6.67134" y="34.0313" fill="none" height="3.93732" stroke="#F7BD13" stroke-width="1.10268"/>
   <circle  fill="none" cx="8.64" cy="28.8" connectorname="VCC" stroke="#F7BD13" r="1.96866" id="connector17pad" stroke-width="1.10268"/>
   <circle  fill="none" cx="8.64" cy="21.6" connectorname="SD" stroke="#F7BD13" r="1.96866" id="connector18pad" stroke-width="1.10268"/>
   <circle  fill="none" cx="8.64" cy="14.4" connectorname="AIN-" stroke="#F7BD13" r="1.96866" id="connector19pad" stroke-width="1.10268"/>
   <circle  fill="none" cx="57.96" cy="16.8576" connectorname="VO+" stroke="#F7BD13" r="2.25666" id="connector40pad" stroke-width="1.67868"/>
   <circle  fill="none" cx="8.64" cy="7.2" connectorname="AIN+" stroke="#F7BD13" r="1.96866" id="connector20pad" stroke-width="1.10268"/>
  </g>
 </g>
</svg>
