<?xml version='1.0' encoding='UTF-8' standalone='no'?>
<!-- Created with Fritzing (http://www.fritzing.org/) -->
<svg xmlns="http://www.w3.org/2000/svg" width="1in" version="1.2" baseProfile="tiny"  viewBox="0 0 72 63.7795" x="0in" y="0in" height="0.885827in">
    <desc>
        <referenceFile>INA219_CurPowerMonitor_v0.2_pcb.svg</referenceFile>
    </desc>
    <desc >Fritzing footprint generated by brd2svg</desc>
    <g id="silkscreen"  gorn="0.1">
        <path fill="none" d="M0.288,56.3566L0.288,8.15335A6.912,6.912,0,0,1,7.4304,1.01835L64.5696,1.01835A6.912,6.912,0,0,1,71.712,8.15335L71.712,56.3566A6.912,6.912,0,0,1,64.5696,63.4915L7.4304,63.4915A6.912,6.912,0,0,1,0.288,56.3566"  stroke="white" stroke-width="0.576"/>
        <g >
            <title >element:J1</title>
            <g >
                <title >package:TERMBLOCK_1X2-3.5MM</title>
                <line y1="19.8426" y2="3.9685"  x1="45.9212" stroke-linecap="round" x2="45.9212" stroke="white" stroke-width="0.576"/>
                <line y1="3.9685" y2="0"  x1="45.9212" stroke-linecap="round" x2="45.9212" stroke="white" stroke-width="0.576"/>
                <line y1="0" y2="0"  x1="45.9212" stroke-linecap="round" x2="26.0788" stroke="white" stroke-width="0.576"/>
                <line y1="0" y2="3.9685"  x1="26.0788" stroke-linecap="round" x2="26.0788" stroke="white" stroke-width="0.576"/>
                <line y1="3.9685" y2="19.8426"  x1="26.0788" stroke-linecap="round" x2="26.0788" stroke="white" stroke-width="0.576"/>
                <line y1="19.8426" y2="19.8426"  x1="26.0788" stroke-linecap="round" x2="45.9212" stroke="white" stroke-width="0.576"/>
                <line y1="3.9685" y2="3.9685"  x1="45.9212" stroke-linecap="round" x2="26.0788" stroke="white" stroke-width="0.576"/>
            </g>
        </g>
        <g >
            <title >element:JP1</title>
            <g >
                <title >package:1X06_ROUND_70</title>
            </g>
        </g>
        <g >
            <title >element:R5</title>
            <g >
                <title >package:2512</title>
            </g>
        </g>
        <line y1="0.288" y2="0.288" fill="none"  x1="26.0788" x2="45.9212" stroke="white" stroke-width="0.576" fill-opacity="1"/>
        <line y1="0.737006" y2="0.288" fill="none"  x1="26.0788" x2="26.0788" stroke="white" stroke-width="0.576" fill-opacity="1"/>
        <line y1="0.737006" y2="0.288" fill="none"  x1="45.9212" x2="45.9212" stroke="white" stroke-width="0.576" fill-opacity="1"/>
    </g>
    <g id="copper1"  gorn="0.2">
        <g id="copper0"  gorn="0.2.0">
            <circle id="connector34pad" r="4.03937" cx="64.8" fill="none" cy="7.93699"  connectorname="P$1" stroke="#F7BD13" stroke-width="0.992124" gorn="0.2.0.0"/>
            <circle id="connector9pad" r="2.25666" cx="31.1811" fill="none" cy="10.2047"  connectorname="VIN-" stroke="#F7BD13" stroke-width="1.67868" gorn="0.2.0.1"/>
            <circle id="connector10pad" r="2.25666" cx="41.1024" fill="none" cy="10.2047"  connectorname="VIN+" stroke="#F7BD13" stroke-width="1.67868" gorn="0.2.0.2"/>
            <circle id="connector11pad" r="1.96866" cx="19.08" fill="none" cy="55.8595"  connectorname="VCC" stroke="#F7BD13" stroke-width="1.10268" gorn="0.2.0.3"/>
            <rect width="3.93732" fill="none"  x="17.1113" stroke="#F7BD13" y="53.8908" stroke-width="1.10268" height="3.93732"/>
            <circle id="connector32pad" r="4.03937" cx="7.2" fill="none" cy="56.5795"  connectorname="P$1" stroke="#F7BD13" stroke-width="0.992124" gorn="0.2.0.5"/>
            <circle id="connector12pad" r="1.96866" cx="26.28" fill="none" cy="55.8595"  connectorname="GND" stroke="#F7BD13" stroke-width="1.10268" gorn="0.2.0.6"/>
            <circle id="connector13pad" r="1.96866" cx="33.48" fill="none" cy="55.8595"  connectorname="SCL" stroke="#F7BD13" stroke-width="1.10268" gorn="0.2.0.7"/>
            <circle id="connector14pad" r="1.96866" cx="40.68" fill="none" cy="55.8595"  connectorname="SDA" stroke="#F7BD13" stroke-width="1.10268" gorn="0.2.0.8"/>
            <circle id="connector15pad" r="1.96866" cx="47.88" fill="none" cy="55.8595"  connectorname="VIN-" stroke="#F7BD13" stroke-width="1.10268" gorn="0.2.0.9"/>
            <circle id="connector16pad" r="1.96866" cx="55.08" fill="none" cy="55.8595"  connectorname="VIN+" stroke="#F7BD13" stroke-width="1.10268" gorn="0.2.0.10"/>
            <circle id="connector31pad" r="4.03937" cx="64.8" fill="none" cy="56.5795"  connectorname="P$1" stroke="#F7BD13" stroke-width="0.992124" gorn="0.2.0.11"/>
            <circle id="connector33pad" r="4.03937" cx="7.2" fill="none" cy="7.93699"  connectorname="P$1" stroke="#F7BD13" stroke-width="0.992124" gorn="0.2.0.12"/>
        </g>
    </g>
</svg>
