<?xml version='1.0' encoding='UTF-8' standalone='no'?>
<!-- Created with Fritzing (http://www.fritzing.org/) -->
<svg xmlns="http://www.w3.org/2000/svg" baseProfile="tiny" viewBox="0 0 57.6 57.6" height="0.8in" width="0.8in"  version="1.2" x="0in" y="0in">
    <desc >
        <referenceFile >TMP007_REV-A_pcb.svg</referenceFile>
    </desc>
    <desc >Fritzing footprint generated by brd2svg</desc>
    <g gorn="0.2" id="silkscreen" >
        <path stroke="white" fill="none" stroke-width="0.576" d="M0.288,7.416A6.912,6.912,0,0,1,7.416,0.288L50.184,0.288A6.912,6.912,0,0,1,57.312,7.416L57.312,50.184A6.912,6.912,0,0,1,50.184,57.312L7.416,57.312A6.912,6.912,0,0,1,0.288,50.184L0.288,7.416" />
        <g >
            <title >element:JP1</title>
            <g >
                <title >package:1X07_ROUND_76</title>
            </g>
        </g>
    </g>
    <g gorn="0.3" id="copper1" >
        <g gorn="0.3.0" id="copper0" >
            <circle gorn="0.3.0.0" stroke="#F7BD13" connectorname="P$1" id="connector21pad" r="4.26331" fill="none" stroke-width="1.44" cx="50.4" cy="7.2" />
            <circle gorn="0.3.0.1" stroke="#F7BD13" connectorname="VCC" id="connector4pad" r="2.07666" fill="none" stroke-width="1.31868" cx="7.2" cy="50.4" />
            <rect stroke="#F7BD13" height="4.15332" fill="none" width="4.15332" stroke-width="1.31868"  x="5.12334" y="48.3233"/>
            <circle gorn="0.3.0.3" stroke="#F7BD13" connectorname="GND" id="connector5pad" r="2.07666" fill="none" stroke-width="1.31868" cx="14.4" cy="50.4" />
            <circle gorn="0.3.0.4" stroke="#F7BD13" connectorname="SDA" id="connector6pad" r="2.07666" fill="none" stroke-width="1.31868" cx="21.6" cy="50.4" />
            <circle gorn="0.3.0.5" stroke="#F7BD13" connectorname="SCL" id="connector7pad" r="2.07666" fill="none" stroke-width="1.31868" cx="28.8" cy="50.4" />
            <circle gorn="0.3.0.6" stroke="#F7BD13" connectorname="ALERT" id="connector8pad" r="2.07666" fill="none" stroke-width="1.31868" cx="36" cy="50.4" />
            <circle gorn="0.3.0.7" stroke="#F7BD13" connectorname="ADDR1" id="connector9pad" r="2.07666" fill="none" stroke-width="1.31868" cx="43.2" cy="50.4" />
            <circle gorn="0.3.0.8" stroke="#F7BD13" connectorname="ADDR0" id="connector10pad" r="2.07666" fill="none" stroke-width="1.31868" cx="50.4" cy="50.4" />
            <circle gorn="0.3.0.9" stroke="#F7BD13" connectorname="P$1" id="connector22pad" r="4.26331" fill="none" stroke-width="1.44" cx="7.2" cy="7.2" />
        </g>
    </g>
</svg>
