<?xml version='1.0' encoding='UTF-8' standalone='no'?>
<!-- Created with Fritzing (http://www.fritzing.org/) -->
<svg xmlns="http://www.w3.org/2000/svg" height="0.7in" baseProfile="tiny" width="0.5in" version="1.2"  x="0in" y="0in" viewBox="0 0 36 50.4">
    <desc>
        <referenceFile>Adafruit TXB0104 4-channel Bi-Directional Level Shifter_pcb.svg</referenceFile>
    </desc>
    <desc >Fritzing footprint generated by brd2svg</desc>
    <g gorn="0.1"  id="silkscreen">
        <path fill="none" d="M28.6272,0.288A6.912,6.912,0,0,1,35.712,7.4057L35.712,42.9943A6.912,6.912,0,0,1,28.6272,50.112L7.3728,50.112A6.912,6.912,0,0,1,0.288,42.9943L0.288,7.4057A6.912,6.912,0,0,1,7.3728,0.288L28.6272,0.288"  stroke-width="0.576" stroke="white"/>
        <line x1="18" stroke-linecap="round" x2="18"  stroke-width="0.72" stroke="white" y1="8.28" y2="11.5427"/>
        <line x1="18" stroke-linecap="round" x2="18"  stroke-width="0.72" stroke="white" y1="14.3773" y2="17.64"/>
        <g >
            <title >element:JP3</title>
            <g >
                <title >package:1X06-CLEANBIG</title>
            </g>
        </g>
        <g >
            <title >element:JP4</title>
            <g >
                <title >package:1X06-CLEANBIG</title>
            </g>
        </g>
        <g >
            <title >element:U2</title>
            <g >
                <title >package:TSSOP14</title>
                <line x1="10.872" stroke-linecap="round" x2="10.872"  stroke-width="0.576" stroke="white" y1="35.9909" y2="23.0491"/>
                <line x1="25.128" stroke-linecap="round" x2="25.128"  stroke-width="0.576" stroke="white" y1="23.0491" y2="35.9909"/>
                <circle cy="26.064" r="1.296" fill="none"  stroke-width="0.576" stroke="white" cx="22.608"/>
            </g>
        </g>
    </g>
    <g gorn="0.2"  id="copper1">
        <g gorn="0.2.0"  id="copper0">
            <circle cy="7.2" gorn="0.2.0.0" r="1.98" fill="none" connectorname="VHIGH"  stroke-width="1.08" id="connector9pad" stroke="#F7BD13" cx="32.4"/>
            <circle cy="14.4" gorn="0.2.0.1" r="1.98" fill="none" connectorname="B1"  stroke-width="1.08" id="connector10pad" stroke="#F7BD13" cx="32.4"/>
            <circle cy="21.6" gorn="0.2.0.2" r="1.98" fill="none" connectorname="B2"  stroke-width="1.08" id="connector11pad" stroke="#F7BD13" cx="32.4"/>
            <circle cy="28.8" gorn="0.2.0.3" r="1.98" fill="none" connectorname="B3"  stroke-width="1.08" id="connector12pad" stroke="#F7BD13" cx="32.4"/>
            <circle cy="36" gorn="0.2.0.4" r="1.98" fill="none" connectorname="B4"  stroke-width="1.08" id="connector13pad" stroke="#F7BD13" cx="32.4"/>
            <circle cy="43.2" gorn="0.2.0.5" r="1.98" fill="none" connectorname="GND"  stroke-width="1.08" id="connector14pad" stroke="#F7BD13" cx="32.4"/>
            <circle cy="43.2" gorn="0.2.0.6" r="1.98" fill="none" connectorname="OE"  stroke-width="1.08" id="connector15pad" stroke="#F7BD13" cx="3.6"/>
            <circle cy="36" gorn="0.2.0.7" r="1.98" fill="none" connectorname="A4"  stroke-width="1.08" id="connector16pad" stroke="#F7BD13" cx="3.6"/>
            <circle cy="28.8" gorn="0.2.0.8" r="1.98" fill="none" connectorname="A3"  stroke-width="1.08" id="connector17pad" stroke="#F7BD13" cx="3.6"/>
            <circle cy="21.6" gorn="0.2.0.9" r="1.98" fill="none" connectorname="A2"  stroke-width="1.08" id="connector18pad" stroke="#F7BD13" cx="3.6"/>
            <circle cy="14.4" gorn="0.2.0.10" r="1.98" fill="none" connectorname="A1"  stroke-width="1.08" id="connector19pad" stroke="#F7BD13" cx="3.6"/>
            <circle cy="7.2" gorn="0.2.0.11" r="1.98" fill="none" connectorname="VLOW"  stroke-width="1.08" id="connector20pad" stroke="#F7BD13" cx="3.6"/>
        </g>
    </g>
</svg>
