<?xml version='1.0' encoding='UTF-8' standalone='no'?>
<!-- Created with Fritzing (http://www.fritzing.org/) -->
<svg xmlns="http://www.w3.org/2000/svg"  width="1.54118in" x="0in" version="1.2" y="0in" height="0.75in" viewBox="0 0 110.965 54" baseProfile="tiny">
 <desc >Fritzing footprint generated by brd2svg</desc>
 <g  id="silkscreen">
  <path  fill="none" stroke="white" stroke-width="0.576" d="M89.8207,7.41118L89.8207,46.5888A6.912,6.912,0,0,1,82.6582,53.712L7.45063,53.712A6.912,6.912,0,0,1,0.288,46.5888L0.288,7.41118A6.912,6.912,0,0,1,7.45063,0.288L82.6582,0.288A6.912,6.912,0,0,1,89.8207,7.41118"/>
  <g >
   <title >element:CN1</title>
   <g >
    <title >package:USB_HOST-PTH</title>
    <line  stroke="white" stroke-linecap="round" y1="6.02362" x1="70.4296" y2="47.9764" stroke-width="0.576" x2="70.4296"/>
    <line  stroke="white" stroke-linecap="round" y1="47.88" x1="70.56" y2="47.88" stroke-width="0.36" x2="87.12"/>
    <line  stroke="white" stroke-linecap="round" y1="6.12" x1="70.56" y2="6.12" stroke-width="0.36" x2="87.12"/>
   </g>
  </g>
  <g >
   <title >element:JP1</title>
   <g >
    <title >package:1X07_ROUND_70</title>
   </g>
  </g>
  <g >
   <title >element:L1</title>
   <g >
    <title >package:INDUCTOR_5X5MM_TDK_VLC5045</title>
    <line  stroke="white" stroke-linecap="round" y1="4.80473" x1="27.9212" y2="4.80473" stroke-width="0.576" x2="44.0788"/>
    <line  stroke="white" stroke-linecap="round" y1="4.80473" x1="44.0788" y2="20.3953" stroke-width="0.576" x2="44.0788"/>
    <line  stroke="white" stroke-linecap="round" y1="20.3953" x1="44.0788" y2="20.3953" stroke-width="0.576" x2="27.9212"/>
    <line  stroke="white" stroke-linecap="round" y1="20.3953" x1="27.9212" y2="4.80473" stroke-width="0.576" x2="27.9212"/>
   </g>
  </g>
  <g >
   <title >element:U$37</title>
   <g >
    <title >package:VERTERLOGO</title>
   </g>
  </g>
  <g >
   <title >element:X1</title>
   <g >
    <title >package:TERMBLOCK_1X2-3.5MM</title>
    <line  stroke="white" stroke-linecap="round" y1="17.3622" x1="20.4378" y2="17.3622" stroke-width="0.576" x2="4.56378"/>
    <line  stroke="white" stroke-linecap="round" y1="17.3622" x1="4.56378" y2="17.3622" stroke-width="0.576" x2="0.595276"/>
    <line  stroke="white" stroke-linecap="round" y1="17.3622" x1="0.595276" y2="37.2047" stroke-width="0.576" x2="0.595276"/>
    <line  stroke="white" stroke-linecap="round" y1="37.2047" x1="0.595276" y2="37.2047" stroke-width="0.576" x2="4.56378"/>
    <line  stroke="white" stroke-linecap="round" y1="37.2047" x1="4.56378" y2="37.2047" stroke-width="0.576" x2="20.4378"/>
    <line  stroke="white" stroke-linecap="round" y1="37.2047" x1="20.4378" y2="17.3622" stroke-width="0.576" x2="20.4378"/>
    <line  stroke="white" stroke-linecap="round" y1="17.3622" x1="4.56378" y2="37.2047" stroke-width="0.576" x2="4.56378"/>
   </g>
  </g>
  <g >
   <title >element:X2</title>
   <g >
    <title >package:TERMBLOCK_1X2-3.5MM</title>
    <line  stroke="white" stroke-linecap="round" y1="36.6378" x1="73.1621" y2="36.6378" stroke-width="0.576" x2="89.0359"/>
    <line  stroke="white" stroke-linecap="round" y1="36.6378" x1="89.0359" y2="36.6378" stroke-width="0.576" x2="93.0046"/>
    <line  stroke="white" stroke-linecap="round" y1="36.6378" x1="93.0046" y2="16.7953" stroke-width="0.576" x2="93.0046"/>
    <line  stroke="white" stroke-linecap="round" y1="16.7953" x1="93.0046" y2="16.7953" stroke-width="0.576" x2="89.0359"/>
    <line  stroke="white" stroke-linecap="round" y1="16.7953" x1="89.0359" y2="16.7953" stroke-width="0.576" x2="73.1621"/>
    <line  stroke="white" stroke-linecap="round" y1="16.7953" x1="73.1621" y2="36.6378" stroke-width="0.576" x2="73.1621"/>
    <line  stroke="white" stroke-linecap="round" y1="36.6378" x1="89.0359" y2="16.7953" stroke-width="0.576" x2="89.0359"/>
   </g>
  </g>
  <line  fill="none" stroke="white" fill-opacity="1" y1="47.9764" x1="90" y2="47.9764" stroke-width="0.576" x2="110.677"/>
  <line  fill="none" stroke="white" fill-opacity="1" y1="6.02362" x1="90" y2="6.02362" stroke-width="0.576" x2="110.677"/>
  <line  fill="none" stroke="white" fill-opacity="1" y1="47.9764" x1="110.677" y2="6.02362" stroke-width="0.576" x2="110.677"/>
  <line  fill="none" stroke="white" fill-opacity="1" y1="36.6378" x1="90" y2="36.6378" stroke-width="0.576" x2="93.0046"/>
  <line  fill="none" stroke="white" fill-opacity="1" y1="16.7953" x1="90" y2="16.7953" stroke-width="0.576" x2="93.0046"/>
  <line  fill="none" stroke="white" fill-opacity="1" y1="36.6378" x1="93.0046" y2="16.7953" stroke-width="0.576" x2="93.0046"/>
 </g>
 <g  id="copper1">
  <g  id="copper0">
   <circle  fill="none" cx="10.8" cy="22.1811" connectorname="VIN" stroke="#F7BD13" r="2.25666" id="connector61pad" stroke-width="1.67868"/>
   <circle  fill="none" cx="82.8" cy="31.8189" connectorname="5.0V" stroke="#F7BD13" r="2.25666" id="connector63pad" stroke-width="1.67868"/>
   <circle  fill="none" cx="74.3983" cy="17.0788" connectorname="GND" stroke="#F7BD13" r="1.70646" id="connector18pad" stroke-width="0.72"/>
   <path  fill="#F7BD13" stroke="none" stroke-width="0" d="m70.4732,15.3723,7.84973,0,0,3.41292,-7.84973,0,0,-3.41292M72.6919,17.0788a1.70646,1.70646,0,1,0,3.41292,0,1.70646,1.70646,0,1,0,-3.41292,0z"/>
   <circle  fill="none" cx="74.3983" cy="36.9212" connectorname="5.0V" stroke="#F7BD13" r="1.70646" id="connector21pad" stroke-width="0.72"/>
   <path  fill="#F7BD13" stroke="none" stroke-width="0" d="m70.4732,35.2148,7.84973,0,0,3.41292,-7.84973,0,0,-3.41292M72.6919,36.9212a1.70646,1.70646,0,1,0,3.41292,0,1.70646,1.70646,0,1,0,-3.41292,0z"/>
   <circle  fill="none" cx="18" cy="48.96" connectorname="VIN" stroke="#F7BD13" r="1.96866" id="connector26pad" stroke-width="1.10268"/>
   <circle  fill="none" cx="25.2" cy="48.96" connectorname="ENABLE" stroke="#F7BD13" r="1.96866" id="connector27pad" stroke-width="1.10268"/>
   <circle  fill="none" cx="32.4" cy="48.96" connectorname="GND" stroke="#F7BD13" r="1.96866" id="connector28pad" stroke-width="1.10268"/>
   <circle  fill="none" cx="39.6" cy="48.96" connectorname="PS" stroke="#F7BD13" r="1.96866" id="connector29pad" stroke-width="1.10268"/>
   <circle  fill="none" cx="10.8" cy="32.1024" connectorname="GND" stroke="#F7BD13" r="2.25666" id="connector60pad" stroke-width="1.67868"/>
   <circle  fill="none" cx="46.8" cy="48.96" connectorname="PG" stroke="#F7BD13" r="1.96866" id="connector30pad" stroke-width="1.10268"/>
   <circle  fill="none" cx="82.8" cy="21.8976" connectorname="GND" stroke="#F7BD13" r="2.25666" id="connector62pad" stroke-width="1.67868"/>
   <circle  fill="none" cx="54" cy="48.96" connectorname="GND" stroke="#F7BD13" r="1.96866" id="connector31pad" stroke-width="1.10268"/>
   <circle  fill="none" cx="61.2" cy="48.96" connectorname="5.0V" stroke="#F7BD13" r="1.96866" id="connector32pad" stroke-width="1.10268"/>
  </g>
 </g>
</svg>
