G04 MADE WITH FRITZING*
G04 WWW.FRITZING.ORG*
G04 DOUBLE SIDED*
G04 HOLES PLATED*
G04 CONTOUR ON CENTER OF CONTOUR VECTOR*
%ASAXBY*%
%FSLAX23Y23*%
%MOIN*%
%OFA0B0*%
%SFA1.0B1.0*%
%ADD10C,0.084000*%
%ADD11C,0.076000*%
%ADD12C,0.168110*%
%ADD13C,0.081858*%
%ADD14C,0.150000*%
%ADD15C,0.080000*%
%ADD16C,0.092000*%
%ADD17C,0.085000*%
%ADD18C,0.075000*%
%ADD19C,0.049370*%
%ADD20C,0.135984*%
%ADD21C,0.115354*%
%ADD22C,0.088000*%
%ADD23R,0.084000X0.084000*%
%ADD24R,0.076000X0.076000*%
%ADD25R,0.092000X0.092000*%
%ADD26R,0.115354X0.115354*%
%ADD27R,0.001000X0.001000*%
%LNMASK1*%
G90*
G70*
G54D10*
X1160Y2199D03*
X1060Y1599D03*
X1560Y1599D03*
X1060Y2199D03*
X1660Y1599D03*
X1160Y1599D03*
X1960Y1599D03*
X2060Y1599D03*
X1860Y2199D03*
X1960Y2199D03*
X2060Y2199D03*
X560Y1599D03*
X660Y1599D03*
X760Y1599D03*
X860Y1599D03*
X660Y2199D03*
X560Y2199D03*
X1160Y2199D03*
X1060Y1599D03*
X1560Y1599D03*
X1060Y2199D03*
X1660Y1599D03*
X1160Y1599D03*
X1960Y1599D03*
X2060Y1599D03*
X1860Y2199D03*
X1960Y2199D03*
X2060Y2199D03*
X560Y1599D03*
X660Y1599D03*
X760Y1599D03*
X860Y1599D03*
X660Y2199D03*
X560Y2199D03*
G54D11*
X1110Y4899D03*
X710Y4899D03*
G54D12*
X2860Y1299D03*
G54D11*
X1310Y4899D03*
X910Y4899D03*
G54D12*
X2860Y4899D03*
G54D11*
X1210Y4899D03*
X1010Y4899D03*
X810Y4899D03*
G54D12*
X460Y4899D03*
X460Y1299D03*
G54D11*
X2610Y1319D03*
X2510Y1319D03*
X2410Y1319D03*
X2310Y1319D03*
X2210Y1319D03*
X2110Y1319D03*
X2010Y1319D03*
X1910Y1319D03*
X1810Y1319D03*
X1710Y1319D03*
X1610Y1319D03*
X1510Y1319D03*
X1410Y1319D03*
X1310Y1319D03*
X1210Y1319D03*
X1110Y1319D03*
X1010Y1319D03*
X910Y1319D03*
X810Y1319D03*
X710Y1319D03*
X2610Y4899D03*
X2510Y4899D03*
X2410Y4899D03*
X2310Y4899D03*
X2210Y4899D03*
X2110Y4899D03*
X2010Y4899D03*
X1910Y4899D03*
X1810Y4899D03*
X1710Y4899D03*
X1610Y4899D03*
X1510Y4899D03*
X1410Y4899D03*
G54D13*
X2810Y3600D03*
X2710Y3600D03*
X2611Y3600D03*
X2510Y3600D03*
X2411Y3600D03*
X2310Y3600D03*
X2210Y3600D03*
X2111Y3600D03*
X2010Y3600D03*
X1911Y3600D03*
X1810Y3600D03*
X1710Y3600D03*
X1611Y3600D03*
X1510Y3600D03*
X1411Y3600D03*
X1310Y3600D03*
X1211Y3600D03*
X1111Y3600D03*
X1010Y3600D03*
X1010Y4499D03*
X1111Y4499D03*
X1211Y4499D03*
X1310Y4499D03*
X1411Y4499D03*
X1510Y4499D03*
X1611Y4499D03*
X1710Y4499D03*
X1810Y4499D03*
X1911Y4499D03*
X2010Y4499D03*
X2111Y4499D03*
X2210Y4499D03*
X2310Y4499D03*
X2411Y4499D03*
X2510Y4499D03*
X2611Y4499D03*
X2710Y4499D03*
X2810Y4499D03*
X2810Y3600D03*
X2710Y3600D03*
X2611Y3600D03*
X2510Y3600D03*
X2411Y3600D03*
X2310Y3600D03*
X2210Y3600D03*
X2111Y3600D03*
X2010Y3600D03*
X1911Y3600D03*
X1810Y3600D03*
X1710Y3600D03*
X1611Y3600D03*
X1510Y3600D03*
X1411Y3600D03*
X1310Y3600D03*
X1211Y3600D03*
X1111Y3600D03*
X1010Y3600D03*
X1010Y4499D03*
X1111Y4499D03*
X1211Y4499D03*
X1310Y4499D03*
X1411Y4499D03*
X1510Y4499D03*
X1611Y4499D03*
X1710Y4499D03*
X1810Y4499D03*
X1911Y4499D03*
X2010Y4499D03*
X2111Y4499D03*
X2210Y4499D03*
X2310Y4499D03*
X2411Y4499D03*
X2510Y4499D03*
X2611Y4499D03*
X2710Y4499D03*
X2810Y4499D03*
G54D14*
X3110Y399D03*
X3110Y159D03*
X2920Y279D03*
X3110Y399D03*
X3110Y159D03*
X2920Y279D03*
G54D15*
X1110Y3099D03*
X1010Y3099D03*
X910Y3099D03*
X810Y3099D03*
X710Y3099D03*
X1210Y2699D03*
X1110Y2699D03*
X1010Y2699D03*
X910Y2699D03*
X810Y2699D03*
X710Y2699D03*
X1210Y3099D03*
X1110Y3099D03*
X1010Y3099D03*
X910Y3099D03*
X810Y3099D03*
X710Y3099D03*
X1210Y2699D03*
X1110Y2699D03*
X1010Y2699D03*
X910Y2699D03*
X810Y2699D03*
X710Y2699D03*
X1210Y3099D03*
G54D11*
X1710Y3199D03*
X1810Y3199D03*
X1910Y3199D03*
X2010Y3199D03*
X2110Y3199D03*
X2210Y3199D03*
X2310Y3199D03*
X2410Y3199D03*
X2510Y3199D03*
X2610Y3199D03*
X2710Y3199D03*
X2810Y3199D03*
X2810Y2599D03*
X2710Y2599D03*
X2610Y2599D03*
X2510Y2599D03*
X2410Y2599D03*
X2310Y2599D03*
X2210Y2599D03*
X2110Y2599D03*
X2010Y2599D03*
X1910Y2599D03*
X1810Y2599D03*
X1710Y2599D03*
X1710Y3199D03*
X1810Y3199D03*
X1910Y3199D03*
X2010Y3199D03*
X2110Y3199D03*
X2210Y3199D03*
X2310Y3199D03*
X2410Y3199D03*
X2510Y3199D03*
X2610Y3199D03*
X2710Y3199D03*
X2810Y3199D03*
X2810Y2599D03*
X2710Y2599D03*
X2610Y2599D03*
X2510Y2599D03*
X2410Y2599D03*
X2310Y2599D03*
X2210Y2599D03*
X2110Y2599D03*
X2010Y2599D03*
X1910Y2599D03*
X1810Y2599D03*
X1710Y2599D03*
G54D16*
X2310Y699D03*
X2210Y699D03*
X2110Y699D03*
X2310Y699D03*
X2210Y699D03*
X2110Y699D03*
X1710Y699D03*
X1610Y699D03*
X1510Y699D03*
X1710Y699D03*
X1610Y699D03*
X1510Y699D03*
X2910Y699D03*
X2810Y699D03*
X2710Y699D03*
X2910Y699D03*
X2810Y699D03*
X2710Y699D03*
G54D17*
X3010Y999D03*
X2610Y999D03*
X3010Y999D03*
X2610Y999D03*
X2410Y999D03*
X2010Y999D03*
X2410Y999D03*
X2010Y999D03*
X1810Y999D03*
X1410Y999D03*
X1810Y999D03*
X1410Y999D03*
G54D10*
X2810Y1899D03*
X2810Y1999D03*
X2810Y2099D03*
X2810Y1899D03*
X2810Y1999D03*
X2810Y2099D03*
X2810Y1899D03*
X2810Y1999D03*
X2810Y2099D03*
G54D18*
X2810Y1699D03*
X2810Y1599D03*
X2810Y1699D03*
X2810Y1599D03*
X2810Y1699D03*
X2810Y1599D03*
X2410Y1999D03*
X2410Y2099D03*
X2410Y1999D03*
X2410Y2099D03*
X2410Y1999D03*
X2410Y2099D03*
G54D15*
X2610Y1999D03*
X2610Y2099D03*
X2610Y1999D03*
X2610Y2099D03*
X3760Y3449D03*
X3560Y3449D03*
X3760Y3449D03*
X3560Y3449D03*
X3760Y3999D03*
X3560Y3999D03*
X3760Y3999D03*
X3560Y3999D03*
X3760Y4549D03*
X3560Y4549D03*
X3760Y4549D03*
X3560Y4549D03*
G54D19*
X2310Y4599D03*
X1910Y4199D03*
X2010Y4399D03*
X2111Y4299D03*
X1510Y3299D03*
X2160Y2349D03*
X810Y3999D03*
X610Y3599D03*
X1710Y3399D03*
X2910Y4599D03*
X910Y3499D03*
G54D20*
X160Y4899D03*
X3760Y199D03*
X160Y199D03*
X460Y1299D03*
X2860Y1299D03*
X3110Y4899D03*
X460Y4899D03*
X2860Y4899D03*
G54D19*
X1410Y3099D03*
X1861Y1998D03*
G54D21*
X2610Y299D03*
X2410Y299D03*
X2210Y299D03*
X2010Y299D03*
X1810Y299D03*
X1610Y299D03*
X2610Y299D03*
X2410Y299D03*
X2210Y299D03*
X2010Y299D03*
X1810Y299D03*
X1610Y299D03*
X1210Y299D03*
X1010Y299D03*
X810Y299D03*
X610Y299D03*
X1210Y299D03*
X1010Y299D03*
X810Y299D03*
X610Y299D03*
G54D22*
X3510Y499D03*
X3510Y599D03*
X3510Y699D03*
X3510Y799D03*
X3510Y499D03*
X3510Y599D03*
X3510Y699D03*
X3510Y799D03*
X3510Y999D03*
X3510Y1099D03*
X3510Y1199D03*
X3510Y1299D03*
X3510Y999D03*
X3510Y1099D03*
X3510Y1199D03*
X3510Y1299D03*
X3510Y1499D03*
X3510Y1599D03*
X3510Y1699D03*
X3510Y1799D03*
X3510Y1499D03*
X3510Y1599D03*
X3510Y1699D03*
X3510Y1799D03*
X3510Y1999D03*
X3510Y2099D03*
X3510Y2199D03*
X3510Y2299D03*
X3510Y1999D03*
X3510Y2099D03*
X3510Y2199D03*
X3510Y2299D03*
X3510Y2499D03*
X3510Y2599D03*
X3510Y2699D03*
X3510Y2799D03*
X3510Y2499D03*
X3510Y2599D03*
X3510Y2699D03*
X3510Y2799D03*
X3510Y2999D03*
X3510Y3099D03*
X3510Y3199D03*
X3510Y3299D03*
X3510Y2999D03*
X3510Y3099D03*
X3510Y3199D03*
X3510Y3299D03*
G54D23*
X560Y1599D03*
X560Y1599D03*
G54D24*
X2610Y1319D03*
X2610Y4899D03*
G54D25*
X2310Y699D03*
X2310Y699D03*
X1710Y699D03*
X1710Y699D03*
X2910Y699D03*
X2910Y699D03*
G54D26*
X2610Y299D03*
X2610Y299D03*
X1210Y299D03*
X1210Y299D03*
G54D27*
X2373Y2137D02*
X2447Y2137D01*
X2373Y2136D02*
X2447Y2136D01*
X2373Y2135D02*
X2447Y2135D01*
X2373Y2134D02*
X2447Y2134D01*
X2373Y2133D02*
X2447Y2133D01*
X2373Y2132D02*
X2447Y2132D01*
X2373Y2131D02*
X2447Y2131D01*
X2373Y2130D02*
X2447Y2130D01*
X2373Y2129D02*
X2447Y2129D01*
X2373Y2128D02*
X2447Y2128D01*
X2373Y2127D02*
X2447Y2127D01*
X2373Y2126D02*
X2447Y2126D01*
X2373Y2125D02*
X2447Y2125D01*
X2373Y2124D02*
X2447Y2124D01*
X2373Y2123D02*
X2447Y2123D01*
X2373Y2122D02*
X2447Y2122D01*
X2373Y2121D02*
X2447Y2121D01*
X2373Y2120D02*
X2447Y2120D01*
X2373Y2119D02*
X2447Y2119D01*
X2373Y2118D02*
X2447Y2118D01*
X2373Y2117D02*
X2447Y2117D01*
X2373Y2116D02*
X2447Y2116D01*
X2373Y2115D02*
X2447Y2115D01*
X2373Y2114D02*
X2447Y2114D01*
X2373Y2113D02*
X2447Y2113D01*
X2373Y2112D02*
X2447Y2112D01*
X2373Y2111D02*
X2447Y2111D01*
X2373Y2110D02*
X2447Y2110D01*
X2373Y2109D02*
X2447Y2109D01*
X2373Y2108D02*
X2407Y2108D01*
X2413Y2108D02*
X2447Y2108D01*
X2373Y2107D02*
X2404Y2107D01*
X2415Y2107D02*
X2447Y2107D01*
X2373Y2106D02*
X2403Y2106D01*
X2417Y2106D02*
X2447Y2106D01*
X2373Y2105D02*
X2403Y2105D01*
X2417Y2105D02*
X2447Y2105D01*
X2373Y2104D02*
X2402Y2104D01*
X2418Y2104D02*
X2447Y2104D01*
X2373Y2103D02*
X2401Y2103D01*
X2419Y2103D02*
X2447Y2103D01*
X2373Y2102D02*
X2401Y2102D01*
X2419Y2102D02*
X2447Y2102D01*
X2373Y2101D02*
X2401Y2101D01*
X2419Y2101D02*
X2447Y2101D01*
X2373Y2100D02*
X2401Y2100D01*
X2419Y2100D02*
X2447Y2100D01*
X2373Y2099D02*
X2401Y2099D01*
X2419Y2099D02*
X2447Y2099D01*
X2373Y2098D02*
X2401Y2098D01*
X2419Y2098D02*
X2447Y2098D01*
X2373Y2097D02*
X2401Y2097D01*
X2419Y2097D02*
X2447Y2097D01*
X2373Y2096D02*
X2401Y2096D01*
X2418Y2096D02*
X2447Y2096D01*
X2373Y2095D02*
X2402Y2095D01*
X2418Y2095D02*
X2447Y2095D01*
X2373Y2094D02*
X2403Y2094D01*
X2417Y2094D02*
X2447Y2094D01*
X2373Y2093D02*
X2404Y2093D01*
X2416Y2093D02*
X2447Y2093D01*
X2373Y2092D02*
X2405Y2092D01*
X2415Y2092D02*
X2447Y2092D01*
X2373Y2091D02*
X2408Y2091D01*
X2412Y2091D02*
X2447Y2091D01*
X2373Y2090D02*
X2447Y2090D01*
X2373Y2089D02*
X2447Y2089D01*
X2373Y2088D02*
X2447Y2088D01*
X2373Y2087D02*
X2447Y2087D01*
X2373Y2086D02*
X2447Y2086D01*
X2373Y2085D02*
X2447Y2085D01*
X2373Y2084D02*
X2447Y2084D01*
X2373Y2083D02*
X2447Y2083D01*
X2373Y2082D02*
X2447Y2082D01*
X2373Y2081D02*
X2447Y2081D01*
X2373Y2080D02*
X2447Y2080D01*
X2373Y2079D02*
X2447Y2079D01*
X2373Y2078D02*
X2447Y2078D01*
X2373Y2077D02*
X2447Y2077D01*
X2373Y2076D02*
X2447Y2076D01*
X2373Y2075D02*
X2447Y2075D01*
X2373Y2074D02*
X2447Y2074D01*
X2373Y2073D02*
X2447Y2073D01*
X2373Y2072D02*
X2447Y2072D01*
X2373Y2071D02*
X2447Y2071D01*
X2373Y2070D02*
X2447Y2070D01*
X2373Y2069D02*
X2447Y2069D01*
X2373Y2068D02*
X2447Y2068D01*
X2373Y2067D02*
X2447Y2067D01*
X2373Y2066D02*
X2447Y2066D01*
X2373Y2065D02*
X2447Y2065D01*
X2373Y2064D02*
X2447Y2064D01*
X2373Y2063D02*
X2447Y2063D01*
X2768Y1941D02*
X2851Y1941D01*
X2768Y1940D02*
X2851Y1940D01*
X2768Y1939D02*
X2851Y1939D01*
X2768Y1938D02*
X2851Y1938D01*
X2768Y1937D02*
X2851Y1937D01*
X2768Y1936D02*
X2851Y1936D01*
X2768Y1935D02*
X2851Y1935D01*
X2768Y1934D02*
X2851Y1934D01*
X2768Y1933D02*
X2851Y1933D01*
X2768Y1932D02*
X2851Y1932D01*
X2768Y1931D02*
X2851Y1931D01*
X2768Y1930D02*
X2851Y1930D01*
X2768Y1929D02*
X2851Y1929D01*
X2768Y1928D02*
X2851Y1928D01*
X2768Y1927D02*
X2851Y1927D01*
X2768Y1926D02*
X2851Y1926D01*
X2768Y1925D02*
X2851Y1925D01*
X2768Y1924D02*
X2851Y1924D01*
X2768Y1923D02*
X2851Y1923D01*
X2768Y1922D02*
X2851Y1922D01*
X2768Y1921D02*
X2851Y1921D01*
X2768Y1920D02*
X2851Y1920D01*
X2768Y1919D02*
X2851Y1919D01*
X2768Y1918D02*
X2851Y1918D01*
X2768Y1917D02*
X2851Y1917D01*
X2768Y1916D02*
X2851Y1916D01*
X2768Y1915D02*
X2851Y1915D01*
X2768Y1914D02*
X2806Y1914D01*
X2813Y1914D02*
X2851Y1914D01*
X2768Y1913D02*
X2803Y1913D01*
X2817Y1913D02*
X2851Y1913D01*
X2768Y1912D02*
X2802Y1912D01*
X2818Y1912D02*
X2851Y1912D01*
X2768Y1911D02*
X2800Y1911D01*
X2820Y1911D02*
X2851Y1911D01*
X2768Y1910D02*
X2799Y1910D01*
X2821Y1910D02*
X2851Y1910D01*
X2768Y1909D02*
X2798Y1909D01*
X2822Y1909D02*
X2851Y1909D01*
X2768Y1908D02*
X2797Y1908D01*
X2823Y1908D02*
X2851Y1908D01*
X2768Y1907D02*
X2797Y1907D01*
X2823Y1907D02*
X2851Y1907D01*
X2768Y1906D02*
X2796Y1906D01*
X2824Y1906D02*
X2851Y1906D01*
X2768Y1905D02*
X2796Y1905D01*
X2824Y1905D02*
X2851Y1905D01*
X2768Y1904D02*
X2795Y1904D01*
X2824Y1904D02*
X2851Y1904D01*
X2768Y1903D02*
X2795Y1903D01*
X2825Y1903D02*
X2851Y1903D01*
X2768Y1902D02*
X2795Y1902D01*
X2825Y1902D02*
X2851Y1902D01*
X2768Y1901D02*
X2795Y1901D01*
X2825Y1901D02*
X2851Y1901D01*
X2768Y1900D02*
X2795Y1900D01*
X2825Y1900D02*
X2851Y1900D01*
X2768Y1899D02*
X2795Y1899D01*
X2825Y1899D02*
X2851Y1899D01*
X2768Y1898D02*
X2795Y1898D01*
X2825Y1898D02*
X2851Y1898D01*
X2768Y1897D02*
X2795Y1897D01*
X2825Y1897D02*
X2851Y1897D01*
X2768Y1896D02*
X2795Y1896D01*
X2825Y1896D02*
X2851Y1896D01*
X2768Y1895D02*
X2795Y1895D01*
X2824Y1895D02*
X2851Y1895D01*
X2768Y1894D02*
X2796Y1894D01*
X2824Y1894D02*
X2851Y1894D01*
X2768Y1893D02*
X2796Y1893D01*
X2824Y1893D02*
X2851Y1893D01*
X2768Y1892D02*
X2797Y1892D01*
X2823Y1892D02*
X2851Y1892D01*
X2768Y1891D02*
X2798Y1891D01*
X2822Y1891D02*
X2851Y1891D01*
X2768Y1890D02*
X2798Y1890D01*
X2821Y1890D02*
X2851Y1890D01*
X2768Y1889D02*
X2799Y1889D01*
X2821Y1889D02*
X2851Y1889D01*
X2768Y1888D02*
X2800Y1888D01*
X2819Y1888D02*
X2851Y1888D01*
X2768Y1887D02*
X2802Y1887D01*
X2818Y1887D02*
X2851Y1887D01*
X2768Y1886D02*
X2804Y1886D01*
X2816Y1886D02*
X2851Y1886D01*
X2768Y1885D02*
X2809Y1885D01*
X2811Y1885D02*
X2851Y1885D01*
X2768Y1884D02*
X2851Y1884D01*
X2768Y1883D02*
X2851Y1883D01*
X2768Y1882D02*
X2851Y1882D01*
X2768Y1881D02*
X2851Y1881D01*
X2768Y1880D02*
X2851Y1880D01*
X2768Y1879D02*
X2851Y1879D01*
X2768Y1878D02*
X2851Y1878D01*
X2768Y1877D02*
X2851Y1877D01*
X2768Y1876D02*
X2851Y1876D01*
X2768Y1875D02*
X2851Y1875D01*
X2768Y1874D02*
X2851Y1874D01*
X2768Y1873D02*
X2851Y1873D01*
X2768Y1872D02*
X2851Y1872D01*
X2768Y1871D02*
X2851Y1871D01*
X2768Y1870D02*
X2851Y1870D01*
X2768Y1869D02*
X2851Y1869D01*
X2768Y1868D02*
X2851Y1868D01*
X2768Y1867D02*
X2851Y1867D01*
X2768Y1866D02*
X2851Y1866D01*
X2768Y1865D02*
X2851Y1865D01*
X2768Y1864D02*
X2851Y1864D01*
X2768Y1863D02*
X2851Y1863D01*
X2768Y1862D02*
X2851Y1862D01*
X2768Y1861D02*
X2851Y1861D01*
X2768Y1860D02*
X2851Y1860D01*
X2768Y1859D02*
X2851Y1859D01*
X2768Y1858D02*
X2851Y1858D01*
X2773Y1737D02*
X2847Y1737D01*
X2773Y1736D02*
X2847Y1736D01*
X2773Y1735D02*
X2847Y1735D01*
X2773Y1734D02*
X2847Y1734D01*
X2773Y1733D02*
X2847Y1733D01*
X2773Y1732D02*
X2847Y1732D01*
X2773Y1731D02*
X2847Y1731D01*
X2773Y1730D02*
X2847Y1730D01*
X2773Y1729D02*
X2847Y1729D01*
X2773Y1728D02*
X2847Y1728D01*
X2773Y1727D02*
X2847Y1727D01*
X2773Y1726D02*
X2847Y1726D01*
X2773Y1725D02*
X2847Y1725D01*
X2773Y1724D02*
X2847Y1724D01*
X2773Y1723D02*
X2847Y1723D01*
X2773Y1722D02*
X2847Y1722D01*
X2773Y1721D02*
X2847Y1721D01*
X2773Y1720D02*
X2847Y1720D01*
X2773Y1719D02*
X2847Y1719D01*
X2773Y1718D02*
X2847Y1718D01*
X2773Y1717D02*
X2847Y1717D01*
X2773Y1716D02*
X2847Y1716D01*
X2773Y1715D02*
X2847Y1715D01*
X2773Y1714D02*
X2847Y1714D01*
X2773Y1713D02*
X2847Y1713D01*
X2773Y1712D02*
X2847Y1712D01*
X2773Y1711D02*
X2847Y1711D01*
X2773Y1710D02*
X2847Y1710D01*
X2773Y1709D02*
X2847Y1709D01*
X2773Y1708D02*
X2807Y1708D01*
X2813Y1708D02*
X2847Y1708D01*
X2773Y1707D02*
X2805Y1707D01*
X2815Y1707D02*
X2847Y1707D01*
X2773Y1706D02*
X2803Y1706D01*
X2816Y1706D02*
X2847Y1706D01*
X2773Y1705D02*
X2803Y1705D01*
X2817Y1705D02*
X2847Y1705D01*
X2773Y1704D02*
X2802Y1704D01*
X2818Y1704D02*
X2847Y1704D01*
X2773Y1703D02*
X2801Y1703D01*
X2819Y1703D02*
X2847Y1703D01*
X2773Y1702D02*
X2801Y1702D01*
X2819Y1702D02*
X2847Y1702D01*
X2773Y1701D02*
X2801Y1701D01*
X2819Y1701D02*
X2847Y1701D01*
X2773Y1700D02*
X2801Y1700D01*
X2819Y1700D02*
X2847Y1700D01*
X2773Y1699D02*
X2801Y1699D01*
X2819Y1699D02*
X2847Y1699D01*
X2773Y1698D02*
X2801Y1698D01*
X2819Y1698D02*
X2847Y1698D01*
X2773Y1697D02*
X2801Y1697D01*
X2819Y1697D02*
X2847Y1697D01*
X2773Y1696D02*
X2801Y1696D01*
X2819Y1696D02*
X2847Y1696D01*
X2773Y1695D02*
X2802Y1695D01*
X2818Y1695D02*
X2847Y1695D01*
X2773Y1694D02*
X2803Y1694D01*
X2817Y1694D02*
X2847Y1694D01*
X2773Y1693D02*
X2804Y1693D01*
X2816Y1693D02*
X2847Y1693D01*
X2773Y1692D02*
X2805Y1692D01*
X2815Y1692D02*
X2847Y1692D01*
X2773Y1691D02*
X2808Y1691D01*
X2812Y1691D02*
X2847Y1691D01*
X2773Y1690D02*
X2847Y1690D01*
X2773Y1689D02*
X2847Y1689D01*
X2773Y1688D02*
X2847Y1688D01*
X2773Y1687D02*
X2847Y1687D01*
X2773Y1686D02*
X2847Y1686D01*
X2773Y1685D02*
X2847Y1685D01*
X2773Y1684D02*
X2847Y1684D01*
X2773Y1683D02*
X2847Y1683D01*
X2773Y1682D02*
X2847Y1682D01*
X2773Y1681D02*
X2847Y1681D01*
X2773Y1680D02*
X2847Y1680D01*
X2773Y1679D02*
X2847Y1679D01*
X2773Y1678D02*
X2847Y1678D01*
X2773Y1677D02*
X2847Y1677D01*
X2773Y1676D02*
X2847Y1676D01*
X2773Y1675D02*
X2847Y1675D01*
X2773Y1674D02*
X2847Y1674D01*
X2773Y1673D02*
X2847Y1673D01*
X2773Y1672D02*
X2847Y1672D01*
X2773Y1671D02*
X2847Y1671D01*
X2773Y1670D02*
X2847Y1670D01*
X2773Y1669D02*
X2847Y1669D01*
X2773Y1668D02*
X2847Y1668D01*
X2773Y1667D02*
X2847Y1667D01*
X2773Y1666D02*
X2847Y1666D01*
X2773Y1665D02*
X2847Y1665D01*
X2773Y1664D02*
X2847Y1664D01*
X2773Y1663D02*
X2847Y1663D01*
D02*
G04 End of Mask1*
M02*