; NON-PLATED HOLES START AT T1
; THROUGH (PLATED) HOLES START AT T100
M48
INCH
T1C0.125984
T100C0.039370
T101C0.027559
T102C0.038795
T103C0.038000
T104C0.015748
T105C0.042000
T106C0.065354
T107C0.035000
T108C0.040000
T109C0.030000
T110C0.100000
T111C0.118110
%
T1
X037604Y001991
X001604Y001991
X031104Y048991
X004604Y048991
X004604Y012991
X028604Y048991
X028604Y012991
X001604Y048991
T100
X014104Y048991
X010104Y013191
X024104Y048991
X011104Y013191
X012104Y048991
X009104Y013191
X020104Y048991
X019104Y048991
X008104Y013191
X017104Y013191
X015104Y013191
X017104Y031991
X028104Y019991
X011104Y048991
X010104Y048991
X025104Y031991
X019104Y025991
X019104Y013191
X017104Y025991
X008104Y048991
X025104Y025991
X020104Y031991
X025104Y048991
X017104Y048991
X016104Y013191
X020104Y025991
X026104Y013191
X021104Y013191
X009104Y048991
X015104Y048991
X024104Y031991
X028104Y025991
X019104Y031991
X007104Y048991
X018104Y025991
X018104Y048991
X023104Y013191
X013104Y013191
X022104Y031991
X026104Y048991
X007104Y013191
X021104Y025991
X018104Y013191
X016104Y048991
X027104Y025991
X028104Y018991
X023104Y031991
X021104Y048991
X020104Y013191
X024104Y013191
X028104Y020991
X024104Y025991
X023104Y025991
X022104Y025991
X026104Y025991
X023104Y048991
X022104Y013191
X026104Y031991
X012104Y013191
X014104Y013191
X013104Y048991
X028104Y031991
X021104Y031991
X022104Y048991
X025104Y013191
X018104Y031991
X027104Y031991
T101
X028104Y015991
X024104Y019991
X028104Y016991
X024104Y020991
T102
X010102Y035997
X021106Y044991
X014108Y044991
X013104Y035997
X027100Y044991
X014108Y035997
X019108Y035997
X023104Y035997
X020102Y044991
X021106Y035997
X015102Y044991
X017100Y035997
X010102Y044991
X020102Y035997
X024108Y044991
X023104Y044991
X012111Y044991
X025102Y044991
X028104Y044991
X016106Y035997
X024108Y035997
X025102Y035997
X011106Y035997
X026106Y044991
X022100Y035997
X011106Y044991
X018104Y044991
X027100Y035997
X015102Y035997
X022100Y044991
X028104Y035997
X016106Y044991
X012111Y035997
X017100Y044991
X026106Y035997
X013104Y044991
X019108Y044991
X018104Y035997
T103
X035104Y011991
X035104Y016991
X035104Y027991
X035104Y015991
X035104Y020991
X035104Y032991
X035104Y010991
X035104Y022991
X035104Y012991
X035104Y024991
X035104Y007991
X035104Y009991
X035104Y026991
X035104Y017991
X035104Y031991
X035104Y006991
X035104Y019991
X035104Y014991
X035104Y021991
X035104Y005991
X035104Y004991
X035104Y030991
X035104Y029991
X035104Y025991
T104
X008104Y039991
X029104Y045991
X018609Y019984
X021111Y042992
X021604Y023491
X020103Y043993
X017104Y033991
X014104Y030991
X015104Y032991
X019104Y041991
X009104Y034991
X006104Y035991
X023104Y045991
T105
X027104Y006991
X015104Y006991
X021104Y006991
X016104Y006991
X017104Y006991
X028104Y006991
X023104Y006991
X029104Y006991
X022104Y006991
T106
X024104Y002991
X022104Y002991
X010104Y002991
X008104Y002991
X012104Y002991
X018104Y002991
X020104Y002991
X026104Y002991
X016104Y002991
X006104Y002991
T107
X018104Y009991
X030104Y009991
X026104Y009991
X020104Y009991
X014104Y009991
X024104Y009991
T108
X009104Y026991
X012104Y030991
X009104Y030991
X019604Y021991
X011104Y030991
X008104Y030991
X008104Y026991
X007104Y026991
X005604Y015991
X007604Y015991
X016604Y015991
X010104Y030991
X010604Y021991
X011604Y015991
X010604Y015991
X005604Y021991
X010104Y026991
X008604Y015991
X018604Y021991
X011604Y021991
X006604Y015991
X020604Y015991
X020604Y021991
X012104Y026991
X019604Y015991
X011104Y026991
X015604Y015991
X007104Y030991
X006604Y021991
T109
X035604Y039991
X035604Y045491
X037604Y045491
X035604Y034491
X037604Y039991
X037604Y034491
X026104Y019989
X026104Y020991
T110
X029204Y002791
X031104Y001591
X031104Y003991
T111
X004604Y048991
X004604Y012991
X028604Y048991
X028604Y012991
T00
M30
