G04 MADE WITH FRITZING*
G04 WWW.FRITZING.ORG*
G04 DOUBLE SIDED*
G04 HOLES PLATED*
G04 CONTOUR ON CENTER OF CONTOUR VECTOR*
%ASAXBY*%
%FSLAX23Y23*%
%MOIN*%
%OFA0B0*%
%SFA1.0B1.0*%
%ADD10C,0.158110*%
%ADD11R,0.026000X0.080000*%
%ADD12R,0.025000X0.050000*%
%ADD13R,0.001000X0.001000*%
%LNPASTEMASK0*%
G90*
G70*
G54D10*
X2860Y1299D03*
X2860Y4899D03*
X460Y4899D03*
X460Y1299D03*
G54D11*
X3810Y3588D03*
X3760Y3588D03*
X3710Y3588D03*
X3660Y3588D03*
X3610Y3588D03*
X3560Y3588D03*
X3510Y3588D03*
X3510Y3849D03*
X3560Y3849D03*
X3610Y3849D03*
X3660Y3849D03*
X3710Y3849D03*
X3760Y3849D03*
X3810Y3849D03*
X3810Y4138D03*
X3760Y4138D03*
X3710Y4138D03*
X3660Y4138D03*
X3610Y4138D03*
X3560Y4138D03*
X3510Y4138D03*
X3510Y4399D03*
X3560Y4399D03*
X3610Y4399D03*
X3660Y4399D03*
X3710Y4399D03*
X3760Y4399D03*
X3810Y4399D03*
X3810Y4688D03*
X3760Y4688D03*
X3710Y4688D03*
X3660Y4688D03*
X3610Y4688D03*
X3560Y4688D03*
X3510Y4688D03*
X3510Y4949D03*
X3560Y4949D03*
X3610Y4949D03*
X3660Y4949D03*
X3710Y4949D03*
X3760Y4949D03*
X3810Y4949D03*
G54D12*
X1775Y1599D03*
X1810Y1599D03*
X1495Y2200D03*
X1460Y2200D03*
G54D13*
D02*
G04 End of PasteMask0*
M02*