<?xml version='1.0' encoding='utf-8'?>
<!-- Generator: Adobe Illustrator 20.0.0, SVG Export Plug-In . SVG Version: 6.00 Build 0)  -->
<svg xmlns="http://www.w3.org/2000/svg" id="Layer_1"  gorn="0" version="1.2" height="0.65in" xml:space="preserve" baseProfile="tiny" x="0px" y="0px" xmlns:xml="http://www.w3.org/XML/1998/namespace" viewBox="0 0 46.8 46.8" width="0.65in">
    <desc >
        <referenceFile >9dof rev a_breadboard.svg</referenceFile>
    </desc>
    <desc >Fritzing breadboard generated by brd2svg</desc>
    <g id="breadboard"  gorn="0.2">
        <g id="icon"  gorn="0.2.0">
            <path  d="M0,23.4C-0.002,10.477,10.473-0.002,23.396-0.004S46.798,10.469,46.8,23.392c0,0.003,0,0.005,0,0.008c0.002,12.923-10.473,23.402-23.396,23.404S0.002,36.331,0,23.408C0,23.405,0,23.403,0,23.4z M21.699,3.6c0,0.939,0.761,1.701,1.701,1.701s1.701-0.761,1.701-1.701S24.339,1.899,23.4,1.899S21.699,2.661,21.699,3.6z M38.979,13.32c0,0.939,0.761,1.701,1.701,1.701s1.701-0.761,1.701-1.701l0,0c0-0.939-0.761-1.701-1.701-1.701S38.979,12.381,38.979,13.32z M4.419,13.32c0,0.939,0.761,1.701,1.701,1.701s1.701-0.761,1.701-1.701s-0.761-1.701-1.701-1.701S4.419,12.381,4.419,13.32z M38.979,33.48c0,0.939,0.761,1.701,1.701,1.701s1.701-0.761,1.701-1.701s-0.761-1.701-1.701-1.701S38.979,32.541,38.979,33.48z M4.419,33.48c0,0.939,0.761,1.701,1.701,1.701s1.701-0.761,1.701-1.701s-0.761-1.701-1.701-1.701S4.419,32.541,4.419,33.48z M21.699,43.2c0,0.939,0.761,1.701,1.701,1.701s1.701-0.761,1.701-1.701l0,0c0-0.939-0.761-1.701-1.701-1.701S21.699,42.261,21.699,43.2z" fill="#0A0A0A"/>
            <g >
                <title >layer 21</title>
                <circle stroke-width="0.72" stroke="#FFFFFF" r="2.88"  cx="4.32" cy="22.32" fill="none"/>
                <g >
                    <title >polygon</title>
                    <path stroke-width="0.72" stroke="#FFFFFF"  d="M7.56,22.657v-0.72h1.8v-0.72l1.44,1.08l-1.44,1.08v-0.72H7.56 M9.36,22.68h0.93H9.36 M7.56,21.96h2.79H7.56" fill="none" stroke-linecap="round"/>
                </g>
                <g >
                    <title >polygon</title>
                    <path stroke-width="0.72" stroke="#FFFFFF"  d="M3.96,25.537h0.72v1.8H5.4l-1.08,1.44l-1.08-1.44h0.72V25.537 M4.067,28.44h0.506H4.067 M3.527,27.72h1.586H3.527 M3.96,27h0.72H3.96 M3.96,26.28h0.72H3.96" fill="none" stroke-linecap="round"/>
                </g>
                <g >
                    <title >text:Y</title>
                    <g  transform="matrix(1 0 0 1 8.3846 20.3956)">
                        <g >
                            <text  font-size="2.67264" fill="#FFFFFF" font-family="'OCRA'">Y</text>
                        </g>
                    </g>
                </g>
                <g >
                    <title >text:X</title>
                    <g  transform="matrix(1 0 0 1 6.2617 29.5981)">
                        <g >
                            <text  font-size="2.67264" fill="#FFFFFF" font-family="'OCRA'">X</text>
                        </g>
                    </g>
                </g>
                <g >
                    <title >text:Z</title>
                    <g  transform="matrix(1 0 0 1 3.2401 23.5419)">
                        <g >
                            <text  font-size="2.67264" fill="#FFFFFF" font-family="'OCRA'">Z</text>
                        </g>
                    </g>
                </g>
                <g >
                    <title >text:3V</title>
                    <g  transform="matrix(1, 0, 0, 1, 28.7868, 45.5904)">
                        <g >
                            <g >
                                <g  transform="rotate(60)">
                                    <g >
                                        <g >
                                            <g  transform="matrix(1 0 0 1 -4.5557 -0.2261)">
                                                <g >
                                                    <text  font-size="2.67264" fill="#FFFFFF" font-family="'OCRA'">3V</text>
                                                </g>
                                            </g>
                                        </g>
                                    </g>
                                </g>
                            </g>
                        </g>
                    </g>
                </g>
                <g >
                    <title >text:gnd</title>
                    <g  transform="matrix(1, 0, 0, 1, 19.4268, 8.8704)">
                        <g >
                            <g >
                                <g  transform="rotate(60)">
                                    <g >
                                        <g >
                                            <g  transform="matrix(1 0 0 1 -7.2603 -0.3922)">
                                                <g >
                                                    <text  font-size="2.67264" fill="#FFFFFF" font-family="'OCRA'">gnd</text>
                                                </g>
                                            </g>
                                        </g>
                                    </g>
                                </g>
                            </g>
                        </g>
                    </g>
                </g>
                <g >
                    <title >text:SCL</title>
                    <g  transform="matrix(1 0 0 1 38.52 19.91)">
                        <g >
                            <text  font-size="2.67264" fill="#FFFFFF" font-family="'OCRA'">SCL</text>
                        </g>
                    </g>
                </g>
                <g >
                    <title >text:SDA</title>
                    <g  transform="matrix(1 0 0 1 38.16 29.52)">
                        <g >
                            <text  font-size="2.67264" fill="#FFFFFF" font-family="'OCRA'">SDA</text>
                        </g>
                    </g>
                </g>
                <g >
                    <title >text:SCL</title>
                    <g  transform="matrix(1, 0, 0, 1, 10.4268, 13.9104)">
                        <g >
                            <g >
                                <g  transform="rotate(60)">
                                    <g >
                                        <g >
                                            <g  transform="matrix(1 0 0 1 -7.2456 -0.4278)">
                                                <g >
                                                    <text  font-size="2.67264" fill="#FFFFFF" font-family="'OCRA'">SCL</text>
                                                </g>
                                            </g>
                                        </g>
                                    </g>
                                </g>
                            </g>
                        </g>
                    </g>
                </g>
                <g >
                    <title >text:SDA</title>
                    <g  transform="matrix(1, 0, 0, 1, 13.4496, 43.9332)">
                        <g >
                            <g >
                                <g  transform="rotate(30)">
                                    <g >
                                        <g >
                                            <g  transform="matrix(1 0 0 1 -7.9003 -0.6326)">
                                                <g >
                                                    <text  font-size="2.67264" fill="#FFFFFF" font-family="'OCRA'">SDA</text>
                                                </g>
                                            </g>
                                        </g>
                                    </g>
                                </g>
                            </g>
                        </g>
                    </g>
                </g>
                <g >
                    <title >text:9DOF</title>
                    <g  transform="matrix(1, 0, 0, 1, 15.48, 27.72)">
                        <g >
                            <g >
                                <g  transform="rotate(270)">
                                    <g >
                                        <g >
                                            <g  transform="matrix(1 0 0 1 2.724375e-04 -1.953125e-05)">
                                                <g >
                                                    <text  font-size="2.67264" fill="#FFFFFF" font-family="'OCRA'">9DOF</text>
                                                </g>
                                            </g>
                                        </g>
                                    </g>
                                </g>
                            </g>
                        </g>
                    </g>
                </g>
                <g >
                    <title >element:C2</title>
                    <g >
                        <title >package:0805_10MGAP</title>
                        <line stroke-width="0.864" stroke="#FFFFFF" y1="28.08"  y2="28.08" x1="32.4" x2="35.28" fill="none" stroke-linecap="round"/>
                    </g>
                </g>
                <g >
                    <title >element:C6</title>
                    <g >
                        <title >package:0805-NO</title>
                        <line stroke-width="0.864" stroke="#FFFFFF" y1="14.04"  y2="11.16" x1="23.76" x2="23.76" fill="none" stroke-linecap="round"/>
                    </g>
                </g>
                <g >
                    <title >element:C7</title>
                    <g >
                        <title >package:0805-NO</title>
                        <line stroke-width="0.864" stroke="#FFFFFF" y1="18"  y2="18" x1="35.28" x2="32.4" fill="none" stroke-linecap="round"/>
                    </g>
                </g>
                <g >
                    <title >element:FID1</title>
                    <g >
                        <title >package:FIDUCIAL_1MM</title>
                    </g>
                </g>
                <g >
                    <title >element:FID2</title>
                    <g >
                        <title >package:FIDUCIAL_1MM</title>
                    </g>
                </g>
                <g >
                    <title >element:GND</title>
                    <g >
                        <title >package:SEWINGTAP_0.5</title>
                    </g>
                </g>
                <g >
                    <title >element:R1</title>
                    <g >
                        <title >package:RESPACK_4X0603</title>
                        <line stroke-width="0.576" stroke="#FFFFFF" y1="38.889"  y2="30.951" x1="19.454" x2="19.454" fill="none" stroke-linecap="round"/>
                        <line stroke-width="0.576" stroke="#FFFFFF" y1="30.951"  y2="38.889" x1="30.226" x2="30.226" fill="none" stroke-linecap="round"/>
                    </g>
                </g>
                <g >
                    <title >element:SCL1</title>
                    <g >
                        <title >package:SEWINGTAP_0.5</title>
                    </g>
                </g>
                <g >
                    <title >element:SCL2</title>
                    <g >
                        <title >package:SEWINGTAP_0.5</title>
                    </g>
                </g>
                <g >
                    <title >element:SDA1</title>
                    <g >
                        <title >package:SEWINGTAP_0.5</title>
                    </g>
                </g>
                <g >
                    <title >element:SDA2</title>
                    <g >
                        <title >package:SEWINGTAP_0.5</title>
                    </g>
                </g>
                <g >
                    <title >element:U$4</title>
                    <g >
                        <title >package:ADAFRUIT_2.5MM</title>
                    </g>
                </g>
                <g >
                    <title >element:U2</title>
                    <g >
                        <title >package:LGA24_4X4MM</title>
                        <line stroke-width="0.36" stroke="#FFFFFF" y1="29.353"  y2="17.447" x1="17.447" x2="17.447" fill="none" stroke-linecap="round"/>
                        <line stroke-width="0.36" stroke="#FFFFFF" y1="17.447"  y2="17.447" x1="17.447" x2="29.353" fill="none" stroke-linecap="round"/>
                        <line stroke-width="0.36" stroke="#FFFFFF" y1="17.447"  y2="29.353" x1="29.353" x2="29.353" fill="none" stroke-linecap="round"/>
                        <line stroke-width="0.36" stroke="#FFFFFF" y1="29.353"  y2="29.353" x1="29.353" x2="17.447" fill="none" stroke-linecap="round"/>
                        <circle r="0.634"  cx="31.053" cy="28.502" fill="#FFFFFF"/>
                    </g>
                </g>
                <g >
                    <title >element:VCC</title>
                    <g >
                        <title >package:SEWINGTAP_0.5</title>
                    </g>
                </g>
            </g>
            <g  transform="matrix(0, -1, 1, 0, 2.78362, 64.8964)">
                <g >
                    <g >
                        <g  transform="matrix(-2.535182e-06 -1 1 -2.535182e-06 2.7837 64.8965)">
                            <g >
                                <rect id="connector0pin"  gorn="0.2.0.2.0.0.0.0.0" height="3.402" x="31.714" y="29.356" fill="#9A916C" width="4.252"/>
                            </g>
                        </g>
                    </g>
                </g>
            </g>
            <g  transform="matrix(0, -1, 1, 0, 8.73641, 58.9436)">
                <g >
                    <g >
                        <g  transform="matrix(-2.535182e-06 -1 1 -2.535182e-06 8.7365 58.9436)">
                            <g >
                                <rect id="connector1pin"  gorn="0.2.0.3.0.0.0.0.0" height="3.402" x="31.714" y="23.403" fill="#9A916C" width="4.252"/>
                            </g>
                        </g>
                    </g>
                </g>
            </g>
            <g  transform="matrix(-1, 0, 0, -1, 52.9058, 25.2)">
                <g >
                    <g >
                        <rect id="connector2pin"  gorn="0.2.0.4.0.0.0" height="4.252" x="24.61" y="10.474" fill="#9A916C" width="3.685"/>
                    </g>
                </g>
            </g>
            <g  transform="matrix(-1, 0, 0, -1, 42.1342, 25.2)">
                <g >
                    <g >
                        <rect id="connector3pin"  gorn="0.2.0.5.0.0.0" height="4.252" x="19.225" y="10.474" fill="#9A916C" width="3.685"/>
                    </g>
                </g>
            </g>
            <g  transform="matrix(0, 1, -1, 0, 49.1471, -18.5329)">
                <g >
                    <g >
                        <g  transform="matrix(2.535182e-06 1 -1 2.535182e-06 49.1469 -18.5329)">
                            <g >
                                <rect id="connector4pin"  gorn="0.2.0.6.0.0.0.0.0" height="3.685" x="31.714" y="13.465" fill="#9A916C" width="4.252"/>
                            </g>
                        </g>
                    </g>
                </g>
            </g>
            <g  transform="matrix(0, 1, -1, 0, 54.5329, -13.1471)">
                <g >
                    <g >
                        <g  transform="matrix(2.535182e-06 1 -1 2.535182e-06 54.5327 -13.1471)">
                            <g >
                                <rect id="connector5pin"  gorn="0.2.0.7.0.0.0.0.0" height="3.685" x="31.714" y="18.85" fill="#9A916C" width="4.252"/>
                            </g>
                        </g>
                    </g>
                </g>
            </g>
            <path id="connector6pin"  gorn="0.2.0.8" d="M14.4,5.423L14.4,5.423c0.783,0,1.417,0.635,1.417,1.417v0c0,0.783-0.635,1.417-1.417,1.417h0c-0.783,0-1.417-0.635-1.417-1.417v0C12.983,6.057,13.617,5.423,14.4,5.423z" fill="#9A916C"/>
            <path id="connector7pin"  gorn="0.2.0.9" d="M33.84,38.183L33.84,38.183c0.783,0,1.417,0.635,1.417,1.417v0c0,0.783-0.635,1.417-1.417,1.417h0c-0.783,0-1.417-0.635-1.417-1.417v0C32.423,38.817,33.057,38.183,33.84,38.183z" fill="#9A916C"/>
            <circle id="connector8pin" stroke-width="1.3952" stroke="#9A916C" r="2.398"  cx="23.4" gorn="0.2.0.10" cy="3.6" fill="none"/>
            <g  transform="matrix(-1, 0, 0, -1, 57.0501, 65.0211)">
                <g >
                    <g >
                        <rect id="connector9pin"  gorn="0.2.0.11.0.0.0" height="2.551" x="27.887" y="31.235" fill="#9A916C" width="1.276"/>
                    </g>
                </g>
            </g>
            <g  transform="matrix(-1, 0, 0, -1, 51.9477, 65.0211)">
                <g >
                    <g >
                        <rect id="connector10pin"  gorn="0.2.0.12.0.0.0" height="2.551" x="25.336" y="31.235" fill="#9A916C" width="1.276"/>
                    </g>
                </g>
            </g>
            <g  transform="matrix(-1, 0, 0, -1, 47.4123, 65.0211)">
                <g >
                    <g >
                        <rect id="connector11pin"  gorn="0.2.0.13.0.0.0" height="2.551" x="23.068" y="31.235" fill="#9A916C" width="1.276"/>
                    </g>
                </g>
            </g>
            <g  transform="matrix(-1, 0, 0, -1, 42.3099, 65.0211)">
                <g >
                    <g >
                        <rect id="connector12pin"  gorn="0.2.0.14.0.0.0" height="2.551" x="20.517" y="31.235" fill="#9A916C" width="1.276"/>
                    </g>
                </g>
            </g>
            <g  transform="matrix(-1, 0, 0, -1, 42.3099, 74.659)">
                <g >
                    <g >
                        <rect id="connector13pin"  gorn="0.2.0.15.0.0.0" height="2.551" x="20.517" y="36.054" fill="#9A916C" width="1.276"/>
                    </g>
                </g>
            </g>
            <g  transform="matrix(-1, 0, 0, -1, 47.4123, 74.659)">
                <g >
                    <g >
                        <rect id="connector14pin"  gorn="0.2.0.16.0.0.0" height="2.551" x="23.068" y="36.054" fill="#9A916C" width="1.276"/>
                    </g>
                </g>
            </g>
            <g  transform="matrix(-1, 0, 0, -1, 51.9477, 74.659)">
                <g >
                    <g >
                        <rect id="connector15pin"  gorn="0.2.0.17.0.0.0" height="2.551" x="25.336" y="36.054" fill="#9A916C" width="1.276"/>
                    </g>
                </g>
            </g>
            <g  transform="matrix(-1, 0, 0, -1, 57.0501, 74.659)">
                <g >
                    <g >
                        <rect id="connector16pin"  gorn="0.2.0.18.0.0.0" height="2.551" x="27.887" y="36.054" fill="#9A916C" width="1.276"/>
                    </g>
                </g>
            </g>
            <circle id="connector17pin" stroke-width="1.3952" stroke="#9A916C" r="2.398"  cx="40.68" gorn="0.2.0.19" cy="13.32" fill="none"/>
            <circle id="connector18pin" stroke-width="1.3952" stroke="#9A916C" r="2.398"  cx="6.12" gorn="0.2.0.20" cy="13.32" fill="none"/>
            <circle id="connector19pin" stroke-width="1.3952" stroke="#9A916C" r="2.398"  cx="40.68" gorn="0.2.0.21" cy="33.48" fill="none"/>
            <circle id="connector20pin" stroke-width="1.3952" stroke="#9A916C" r="2.398"  cx="6.12" gorn="0.2.0.22" cy="33.48" fill="none"/>
            <circle id="connector45pin" stroke-width="1.3952" stroke="#9A916C" r="2.398"  cx="23.4" gorn="0.2.0.23" cy="43.2" fill="none"/>
        </g>
        <g  transform="matrix(1, 0, 0, 1, 31.0055, 26.3085)">
            <g >
                <g id="_x30_805_x5F_10mgap"  gorn="0.2.1.0.0">
                    <g  transform="matrix(0, -1, 1, 0, 1.063, 4.606)">
                        <g >
                            <g >
                                <path  d="M5.386,3.543H0.283C0.127,3.543,0,3.416,0,3.26V0.283C0,0.127,0.127,0,0.283,0h5.102c0.157,0,0.283,0.127,0.283,0.283V3.26C5.669,3.416,5.542,3.543,5.386,3.543z" fill="#DCDCDC"/>
                                <g  transform="matrix(-2.535182e-06 -1 1 -2.535182e-06 1.063 4.606)">
                                    <g >
                                        <rect  height="3.543" x="1.063" y="0" fill="#6E554B" width="3.543"/>
                                    </g>
                                </g>
                            </g>
                        </g>
                    </g>
                </g>
            </g>
        </g>
        <g  transform="matrix(1, 0, 0, 1, 20.9255, 10.8285)">
            <g >
                <g id="_x30_805-cap"  gorn="0.2.2.0.0">
                    <g  transform="matrix(-1, 0, 0, -1, 5.669, 3.543)">
                        <g >
                            <g >
                                <path  d="M5.386,3.543H0.283C0.127,3.543,0,3.416,0,3.26V0.283C0,0.127,0.127,0,0.283,0h5.102c0.157,0,0.283,0.127,0.283,0.283V3.26C5.669,3.416,5.542,3.543,5.386,3.543z" fill="#DCDCDC"/>
                                <rect  height="3.543" x="1.063" y="0" fill="#6E554B" width="3.543"/>
                            </g>
                        </g>
                    </g>
                </g>
            </g>
        </g>
        <g  transform="matrix(1, 0, 0, 1, 31.0055, 16.2285)">
            <g >
                <g id="_x30_805-cap_1_"  gorn="0.2.3.0.0">
                    <g  transform="matrix(0, 1, -1, 0, 4.606, -1.063)">
                        <g >
                            <g >
                                <path  d="M5.386,3.543H0.283C0.127,3.543,0,3.416,0,3.26V0.283C0,0.127,0.127,0,0.283,0h5.102c0.157,0,0.283,0.127,0.283,0.283V3.26C5.669,3.416,5.542,3.543,5.386,3.543z" fill="#DCDCDC"/>
                                <g  transform="matrix(2.535182e-06 1 -1 2.535182e-06 4.606 -1.063)">
                                    <g >
                                        <rect  height="3.543" x="1.063" y="0" fill="#6E554B" width="3.543"/>
                                    </g>
                                </g>
                            </g>
                        </g>
                    </g>
                </g>
            </g>
        </g>
        <g  transform="matrix(1, 0, 0, 1, 19.148, -0.120154)">
            <g >
                <g id="sewingtap_0.5"  gorn="0.2.4.0.0">
                    <path  d="M4.252,7.164c2.426-0.558,4.252-3.201,4.252-6.115c0-0.129-0.022-0.251-0.029-0.378c-1.37-0.25-2.78-0.388-4.222-0.388S1.4,0.421,0.029,0.671C0.022,0.798,0,0.92,0,1.049C0,3.963,1.826,6.606,4.252,7.164z M4.252,2.336c0.855,0,1.548,0.693,1.548,1.548S5.107,5.432,4.252,5.432S2.704,4.738,2.704,3.883C2.704,3.029,3.397,2.336,4.252,2.336z" fill="#9A916C"/>
                </g>
            </g>
        </g>
        <g  transform="matrix(1, 0, 0, 1, 20.3045, 32.6525)">
            <g >
                <g id="respack_4x0603"  gorn="0.2.5.0.0">
                    <g  transform="matrix(-1, 0, 0, -1, 9.07099, 4.535)">
                        <g >
                            <g >
                                <g >
                                    <rect  height="4.535" x="0" y="0" fill="#DCDCDC" width="1.843"/>
                                    <rect  height="4.535" x="2.693" y="0" fill="#DCDCDC" width="1.417"/>
                                    <rect  height="4.535" x="4.961" y="0" fill="#DCDCDC" width="1.417"/>
                                    <rect  height="4.535" x="7.228" y="0" fill="#DCDCDC" width="1.843"/>
                                    <rect  height="2.835" x="0" y="0.85" fill="#303030" width="9.071"/>
                                </g>
                            </g>
                        </g>
                    </g>
                </g>
            </g>
        </g>
        <g  transform="matrix(1, 0, 0, 1, 36.5476, 9.66895)">
            <g >
                <g id="sewingtap_0.5_1_"  gorn="0.2.6.0.0">
                    <g  transform="matrix(0.5, 0.866025, -0.866025, 0.5, 5.2281, -1.89134)">
                        <g >
                            <g >
                                <path  d="M4.252,7.164c2.426-0.558,4.252-3.201,4.252-6.115c0-0.129-0.022-0.251-0.029-0.378c-1.37-0.25-2.78-0.388-4.222-0.388S1.4,0.421,0.029,0.671C0.022,0.798,0,0.92,0,1.049C0,3.963,1.826,6.606,4.252,7.164z M4.252,2.336c0.855,0,1.548,0.693,1.548,1.548c0,0.855-0.693,1.548-1.548,1.548S2.704,4.738,2.704,3.883C2.704,3.029,3.397,2.336,4.252,2.336z" fill="#9A916C"/>
                            </g>
                        </g>
                    </g>
                </g>
            </g>
        </g>
        <g  transform="matrix(1, 0, 0, 1, 1.74836, 9.66895)">
            <g >
                <g id="sewingtap_0.5_2_"  gorn="0.2.7.0.0">
                    <g  transform="matrix(0.5, -0.866025, 0.866025, 0.5, -0.976104, 5.47334)">
                        <g >
                            <g >
                                <path  d="M4.252,7.164c2.426-0.558,4.252-3.201,4.252-6.115c0-0.129-0.022-0.251-0.029-0.378c-1.37-0.25-2.78-0.388-4.222-0.388c-1.442,0-2.853,0.138-4.224,0.388C0.022,0.798,0,0.92,0,1.049C0,3.963,1.826,6.606,4.252,7.164z M4.252,2.336c0.855,0,1.548,0.693,1.548,1.548S5.107,5.432,4.252,5.432S2.704,4.738,2.704,3.883C2.704,3.029,3.397,2.336,4.252,2.336z" fill="#9A916C"/>
                            </g>
                        </g>
                    </g>
                </g>
            </g>
        </g>
        <g  transform="matrix(1, 0, 0, 1, 36.5476, 29.967)">
            <g >
                <g id="sewingtap_0.5_3_"  gorn="0.2.8.0.0">
                    <g  transform="matrix(-0.5, 0.866025, -0.866025, -0.5, 9.4801, 1.69066)">
                        <g >
                            <g >
                                <path  d="M4.252,7.164c2.426-0.558,4.252-3.201,4.252-6.115c0-0.129-0.022-0.251-0.029-0.378c-1.37-0.25-2.78-0.388-4.222-0.388c-1.442,0-2.853,0.138-4.224,0.388C0.022,0.798,0,0.92,0,1.049C0,3.963,1.826,6.606,4.252,7.164z M4.252,2.336c0.855,0,1.548,0.693,1.548,1.548S5.107,5.432,4.252,5.432S2.704,4.738,2.704,3.883C2.704,3.029,3.397,2.336,4.252,2.336z" fill="#9A916C"/>
                            </g>
                        </g>
                    </g>
                </g>
            </g>
        </g>
        <g  transform="matrix(1, 0, 0, 1, 1.74836, 29.967)">
            <g >
                <g id="sewingtap_0.5_4_"  gorn="0.2.9.0.0">
                    <g  transform="matrix(-0.5, -0.866025, 0.866025, -0.5, 3.27589, 9.05537)">
                        <g >
                            <g >
                                <path  d="M4.252,7.164c2.426-0.558,4.252-3.201,4.252-6.115c0-0.129-0.022-0.251-0.029-0.378c-1.37-0.25-2.78-0.388-4.222-0.388c-1.442,0-2.853,0.138-4.224,0.388C0.022,0.798,0,0.92,0,1.049C0,3.963,1.826,6.606,4.252,7.164z M4.252,2.336c0.855,0,1.548,0.693,1.548,1.548S5.107,5.432,4.252,5.432S2.704,4.738,2.704,3.883C2.704,3.029,3.397,2.336,4.252,2.336z" fill="#9A916C"/>
                            </g>
                        </g>
                    </g>
                </g>
            </g>
        </g>
        <g  transform="matrix(1, 0, 0, 1, 26.6448, 3.54357)">
            <g >
                <g id="adafruit_2.5mm"  gorn="0.2.10.0.0">
                    <path  d="M9.747,3.082c-0.023-0.142-0.1-0.183-0.286-0.243C9.319,2.794,8.372,2.492,8.372,2.492s-0.66-0.249-1.15,0.103c-0.066,0.048-0.134,0.102-0.203,0.16c0.058-0.069,0.112-0.137,0.159-0.203c0.352-0.49,0.101-1.15,0.101-1.15S6.976,0.455,6.93,0.313C6.87,0.127,6.83,0.05,6.687,0.028C6.545,0.005,6.483,0.066,6.369,0.225c-0.087,0.12-0.667,0.928-0.667,0.928S5.261,1.704,5.445,2.279C5.47,2.356,5.5,2.438,5.534,2.521C5.486,2.445,5.438,2.372,5.39,2.307C5.032,1.821,4.328,1.855,4.328,1.855S3.333,1.851,3.185,1.851c-0.195,0-0.281,0.014-0.347,0.143C2.773,2.122,2.811,2.2,2.927,2.358c0.088,0.12,0.677,0.921,0.677,0.921s0.388,0.59,0.991,0.592c0.081,0,0.168-0.003,0.257-0.01C4.765,3.883,4.681,3.907,4.604,3.932c-0.573,0.19-0.758,0.871-0.758,0.871s-0.31,0.944-0.357,1.085C3.428,6.074,3.416,6.16,3.518,6.262C3.62,6.364,3.706,6.352,3.892,6.29c0.141-0.046,1.085-0.359,1.085-0.359s0.681-0.187,0.869-0.76c0.025-0.077,0.049-0.16,0.07-0.247C5.91,5.014,5.907,5.1,5.907,5.181c0.004,0.603,0.594,0.99,0.594,0.99s0.802,0.588,0.922,0.675C7.581,6.962,7.659,7,7.788,6.935C7.916,6.869,7.931,6.783,7.93,6.588C7.929,6.439,7.924,5.445,7.924,5.445S7.957,4.74,7.47,4.383C7.405,4.335,7.332,4.287,7.256,4.24c0.083,0.034,0.165,0.064,0.242,0.088c0.575,0.183,1.125-0.259,1.125-0.259S9.43,3.488,9.55,3.401C9.709,3.286,9.769,3.224,9.747,3.082z M6.322,2.35c0.108,0.017,0.162,0.248,0.12,0.515C6.4,3.132,6.278,3.335,6.169,3.318C6.061,3.301,6.007,3.07,6.049,2.803C6.091,2.535,6.213,2.332,6.322,2.35z M4.933,3.059c0.05-0.098,0.286-0.078,0.527,0.045s0.397,0.302,0.347,0.399C5.757,3.601,5.521,3.581,5.28,3.458C5.038,3.335,4.883,3.157,4.933,3.059z M5.665,4.393C5.474,4.584,5.256,4.677,5.178,4.599C5.101,4.521,5.193,4.303,5.384,4.112C5.575,3.92,5.793,3.827,5.871,3.905C5.949,3.983,5.857,4.201,5.665,4.393z M6.719,4.842c-0.098,0.05-0.277-0.105-0.4-0.346C6.196,4.254,6.175,4.018,6.273,3.968c0.098-0.05,0.277,0.105,0.4,0.346C6.796,4.556,6.817,4.792,6.719,4.842z M6.973,3.725C6.706,3.767,6.475,3.714,6.457,3.606C6.44,3.497,6.643,3.375,6.91,3.332c0.267-0.043,0.498,0.011,0.515,0.119C7.443,3.56,7.24,3.682,6.973,3.725z" fill="#DCDCDC"/>
                </g>
            </g>
        </g>
        <g  transform="matrix(1, 0, 0, 1, 19.0958, 17.8202)">
            <g >
                <g id="lga24_4x4mm"  gorn="0.2.11.0.0">
                    <g  transform="matrix(0, -1, 1, 0, 0, 11.339)">
                        <g >
                            <g >
                                <g  transform="matrix(-2.535182e-06 -1 1 -2.535182e-06 1.455 10.0634)">
                                    <g >
                                        <rect  height="11.339" x="0.09" y="-1.365" fill="#333333" width="11.339"/>
                                    </g>
                                </g>
                            </g>
                        </g>
                    </g>
                </g>
            </g>
        </g>
        <g  transform="matrix(1, 0, 0, 1, 19.148, 39.7562)">
            <g >
                <g id="sewingtap_0.5_5_"  gorn="0.2.12.0.0">
                    <g  transform="matrix(-1, 0, 0, -1, 8.50399, 7.164)">
                        <g >
                            <g >
                                <path  d="M4.252,7.164c2.426-0.558,4.252-3.201,4.252-6.115c0-0.129-0.022-0.251-0.029-0.378c-1.37-0.25-2.78-0.388-4.222-0.388S1.4,0.421,0.029,0.671C0.022,0.798,0,0.92,0,1.049C0,3.963,1.826,6.606,4.252,7.164z M4.252,2.336c0.855,0,1.548,0.693,1.548,1.548S5.107,5.432,4.252,5.432S2.704,4.738,2.704,3.883C2.704,3.029,3.397,2.336,4.252,2.336z" fill="#9A916C"/>
                            </g>
                        </g>
                    </g>
                </g>
            </g>
        </g>
    </g>
</svg>
