<?xml version="1.0" encoding="UTF-8" standalone="no"?>
<!-- Created with Inkscape (http://www.inkscape.org/) -->

<svg
   xmlns:dc="http://purl.org/dc/elements/1.1/"
   xmlns:cc="http://creativecommons.org/ns#"
   xmlns:rdf="http://www.w3.org/1999/02/22-rdf-syntax-ns#"
   xmlns:svg="http://www.w3.org/2000/svg"
   xmlns="http://www.w3.org/2000/svg"
   xmlns:xlink="http://www.w3.org/1999/xlink"
   version="1.1"
   width="153"
   height="247.5"
   id="svg238582">
  <defs
     id="defs238584">
    <linearGradient
       id="linearGradient239186">
      <stop
         id="stop239188"
         style="stop-color:#ffffff;stop-opacity:0.49107143"
         offset="0" />
      <stop
         id="stop239190"
         style="stop-color:#e3c36d;stop-opacity:0.3482143"
         offset="1" />
    </linearGradient>
    <linearGradient
       x1="142.64999"
       y1="854.36218"
       x2="145.35001"
       y2="854.36218"
       id="linearGradient239192"
       xlink:href="#linearGradient239186"
       gradientUnits="userSpaceOnUse" />
    <linearGradient
       x1="142.64999"
       y1="854.36218"
       x2="145.35001"
       y2="854.36218"
       id="linearGradient239210"
       xlink:href="#linearGradient239186"
       gradientUnits="userSpaceOnUse" />
    <linearGradient
       x1="142.64999"
       y1="854.36218"
       x2="145.35001"
       y2="854.36218"
       id="linearGradient239310"
       xlink:href="#linearGradient239186"
       gradientUnits="userSpaceOnUse" />
    <linearGradient
       x1="142.64999"
       y1="854.36218"
       x2="145.35001"
       y2="854.36218"
       id="linearGradient5189"
       xlink:href="#linearGradient239186"
       gradientUnits="userSpaceOnUse" />
    <linearGradient
       x1="142.64999"
       y1="854.36218"
       x2="145.35001"
       y2="854.36218"
       id="linearGradient5506"
       xlink:href="#linearGradient239186"
       gradientUnits="userSpaceOnUse" />
  </defs>
  <metadata
     id="metadata238587">
    <rdf:RDF>
      <cc:Work
         rdf:about="">
        <dc:format>image/svg+xml</dc:format>
        <dc:type
           rdf:resource="http://purl.org/dc/dcmitype/StillImage" />
        <dc:title></dc:title>
      </cc:Work>
    </rdf:RDF>
  </metadata>
  <g
     transform="translate(0,-804.85975)"
     id="layer1" />
  <g
     transform="translate(0,-804.86218)"
     id="layer14" />
  <g
     transform="translate(0,-804.86218)"
     id="layer15"
     style="display:inline" />
  <g
     id="breadboard">
    <path
       d="m 76.5,238.50002 0,-62.99997 0,-49.5"
       id="path239280"
       style="color:#000000;fill:none;stroke:#eed145;stroke-width:4.5;stroke-linecap:butt;stroke-linejoin:miter;stroke-miterlimit:4;stroke-opacity:1;stroke-dasharray:none;stroke-dashoffset:0;marker:none;visibility:visible;display:inline;overflow:visible;enable-background:accumulate" />
    <path
       d="m 67.5,238.50002 0,-9 4.5,-4.5 0,-9 0,-40.49997 0,-49.5"
       id="path239282"
       style="color:#000000;fill:none;stroke:#e38e28;stroke-width:4.5;stroke-linecap:butt;stroke-linejoin:round;stroke-miterlimit:4;stroke-opacity:1;stroke-dasharray:none;stroke-dashoffset:0;marker:none;visibility:visible;display:inline;overflow:visible;enable-background:accumulate" />
    <path
       d="m 85.5,238.50002 0,-9 -4.5,-4.5 0,-9 0,-40.49997 0,-49.5"
       id="path239284"
       style="color:#000000;fill:none;stroke:#d41f9d;stroke-width:4.5;stroke-linecap:butt;stroke-linejoin:round;stroke-miterlimit:4;stroke-opacity:1;stroke-dasharray:none;stroke-dashoffset:0;marker:none;visibility:visible;display:inline;overflow:visible;enable-background:accumulate" />
    <path
       d="m 94.5,238.50002 0,-9 -9,-9 0,-4.5 0,-40.49997 0,-49.5"
       id="path239286"
       style="color:#000000;fill:none;stroke:#2f7deb;stroke-width:4.5;stroke-linecap:butt;stroke-linejoin:round;stroke-miterlimit:4;stroke-opacity:1;stroke-dasharray:none;stroke-dashoffset:0;marker:none;visibility:visible;display:inline;overflow:visible;enable-background:accumulate" />
    <path
       d="m 58.5,238.50002 0,-9 9,-9 0,-4.5 0,-40.49997 0,-49.5"
       id="path239288"
       style="color:#000000;fill:none;stroke:#e12323;stroke-width:4.5;stroke-linecap:butt;stroke-linejoin:round;stroke-miterlimit:4;stroke-opacity:1;stroke-dasharray:none;stroke-dashoffset:0;marker:none;visibility:visible;display:inline;overflow:visible;enable-background:accumulate" />
    <rect
       width="1.8"
       height="4.5"
       x="57.599998"
       y="238.5"
       id="rect239290"
       style="fill:#b3b3b3;fill-opacity:1;fill-rule:evenodd;stroke:none;display:inline" />
    <rect
       width="1.8"
       height="4.5"
       x="66.600006"
       y="238.5"
       id="rect239292"
       style="fill:#b3b3b3;fill-opacity:1;fill-rule:evenodd;stroke:none;display:inline" />
    <rect
       width="1.8"
       height="4.5"
       x="75.600006"
       y="238.5"
       id="rect239294"
       style="fill:#b3b3b3;fill-opacity:1;fill-rule:evenodd;stroke:none;display:inline" />
    <rect
       width="1.8"
       height="4.5"
       x="84.600006"
       y="238.5"
       id="rect239296"
       style="fill:#b3b3b3;fill-opacity:1;fill-rule:evenodd;stroke:none;display:inline" />
    <rect
       width="1.8"
       height="4.5"
       x="93.600006"
       y="238.5"
       id="rect239298"
       style="fill:#b3b3b3;fill-opacity:1;fill-rule:evenodd;stroke:none;display:inline" />
    <rect
       width="2.7"
       height="2.7"
       x="57.150002"
       y="241.65002"
       id="connector1pin"
       style="fill:none;stroke:none;display:inline" />
    <rect
       width="2.7"
       height="2.7"
       x="66.149994"
       y="241.65002"
       id="connector2pin"
       style="fill:none;stroke:none;display:inline" />
    <rect
       width="2.7"
       height="2.7"
       x="75.149994"
       y="241.65002"
       id="connector3pin"
       style="fill:none;stroke:none;display:inline" />
    <rect
       width="2.7"
       height="2.7"
       x="84.149994"
       y="241.65002"
       id="connector4pin"
       style="fill:none;stroke:none;display:inline" />
    <rect
       width="2.7"
       height="2.7"
       x="93.149994"
       y="241.65002"
       id="connector5pin"
       style="fill:none;stroke:none;display:inline" />
    <g
       transform="translate(-67.5,-831.86212)"
       id="g239243"
       style="display:inline">
      <g
         id="g239227">
        <path
           d="m 112.5,944.36218 -4.5,-4.5 0,-13.5 72,0 0,13.5 -4.5,4.5 -63,0"
           id="path239219"
           style="color:#000000;fill:#54b0e0;fill-opacity:1;stroke:none;stroke-width:2.18149328;marker:none;visibility:visible;display:inline;overflow:visible;enable-background:accumulate" />
        <rect
           width="62.994553"
           height="36"
           rx="4.5"
           x="112.50544"
           y="926.36218"
           id="rect239136"
           style="fill:#54b0e0;fill-opacity:1;fill-rule:evenodd;stroke:#c4baba;stroke-width:0.48112983;stroke-miterlimit:4;stroke-opacity:1;stroke-dasharray:none" />
      </g>
    </g>
    <path
       d="m 76.5,4.51287 c -26.76473,0 -48.97446,19.44964 -53.25,45 l -9.75,0 c -4.970563,0 -9,4.02944 -9,9 0,4.97056 4.029437,9 9,9 l 9.75,0 c 2.711645,16.14772 12.58783,29.84692 26.25,37.75 l 0,16.25 54,0 0,-16.25 c 13.66217,-7.90308 23.53835,-21.60228 26.25,-37.75 l 9.75,0 c 4.97056,0 9,-4.02944 9,-9 0,-4.97056 -4.02944,-9 -9,-9 l -9.75,0 c -4.27554,-25.55036 -26.48527,-45 -53.25,-45 z m -63,49.5 c 2.485281,0 4.5,2.01472 4.5,4.5 0,2.48528 -2.014719,4.5 -4.5,4.5 -2.485281,0 -4.5,-2.01472 -4.5,-4.5 0,-2.48528 2.014719,-4.5 4.5,-4.5 z m 126,0 c 2.48528,0 4.5,2.01472 4.5,4.5 0,2.48528 -2.01472,4.5 -4.5,4.5 -2.48528,0 -4.5,-2.01472 -4.5,-4.5 0,-2.48528 2.01472,-4.5 4.5,-4.5 z"
       id="path238600"
       style="fill:#b3b3b3;fill-opacity:1;fill-rule:evenodd;stroke:none;display:inline" />
    <path
       d="m 130.5,58.50006 a 54,54 0 0 1 -108,0 54,54 0 1 1 108,0 z"
       id="path239126"
       style="fill:none;stroke:#b6b6b6;stroke-width:1.79999995;stroke-miterlimit:4;stroke-opacity:1;stroke-dasharray:none" />
    <path
       d="M 95.38755,7.91093 A 54,54 0 0 1 129.6792,49.12068"
       id="path239128"
       style="fill:none;stroke:#9c9c9c;stroke-width:1.79999995;stroke-miterlimit:4;stroke-opacity:1;stroke-dasharray:none" />
    <path
       d="M 23.221361,49.7031 A 54,54 0 0 1 57.93491,7.79171"
       id="path239130"
       style="fill:none;stroke:#9c9c9c;stroke-width:1.79999995;stroke-miterlimit:4;stroke-opacity:1;stroke-dasharray:none" />
    <path
       d="M 40.7174,98.94269 A 54,54 0 0 1 23.427509,68.46554"
       id="path239132"
       style="fill:none;stroke:#9c9c9c;stroke-width:1.79999995;stroke-miterlimit:4;stroke-opacity:1;stroke-dasharray:none" />
    <path
       d="M 129.58455,68.40109 A 54,54 0 0 1 112.32329,98.90664"
       id="path239134"
       style="fill:none;stroke:#9c9c9c;stroke-width:1.79999995;stroke-miterlimit:4;stroke-opacity:1;stroke-dasharray:none" />
    <g
       transform="matrix(1.8126156,-0.84523654,0.84523654,1.8126156,-906.61191,-1395.5296)"
       id="g239170">
      <path
         d="m 153,854.36218 a 9,9 0 1 1 -18,0 9,9 0 1 1 18,0 z"
         id="path239156"
         style="fill:#a8a8a8;fill-opacity:1;fill-rule:evenodd;stroke:#ededed;stroke-opacity:1" />
    </g>
    <g
       transform="translate(0,-804.86218)"
       id="g4522">
      <path
         d="m 148.95,854.36218 a 4.95,4.95 0 1 1 -9.9,0 4.95,4.95 0 1 1 9.9,0 z"
         transform="matrix(1.8126156,-0.84523654,0.84523654,1.8126156,-906.61191,-590.66742)"
         id="path239162"
         style="fill:#ecd384;fill-opacity:1;fill-rule:evenodd;stroke:#585858;stroke-width:0.44999999;stroke-linecap:square;stroke-linejoin:round;stroke-miterlimit:4;stroke-opacity:1;stroke-dasharray:none;stroke-dashoffset:0;display:inline" />
      <path
         d="m 139.95,851.66218 8.1,0"
         transform="matrix(1.8126156,-0.84523654,0.84523654,1.8126156,-906.61191,-590.66742)"
         id="path239166"
         style="color:#000000;fill:none;stroke:#585858;stroke-width:0.22499999;stroke-linecap:round;stroke-linejoin:miter;stroke-miterlimit:4;stroke-opacity:1;stroke-dasharray:none;stroke-dashoffset:0;marker:none;visibility:visible;display:inline;overflow:visible;enable-background:accumulate" />
      <path
         d="m 139.95,857.06218 8.1,0"
         transform="matrix(1.8126156,-0.84523654,0.84523654,1.8126156,-906.61191,-590.66742)"
         id="path239168"
         style="color:#000000;fill:none;stroke:#585858;stroke-width:0.22499999;stroke-linecap:round;stroke-linejoin:miter;stroke-miterlimit:4;stroke-opacity:1;stroke-dasharray:none;stroke-dashoffset:0;marker:none;visibility:visible;display:inline;overflow:visible;enable-background:accumulate" />
      <path
         d="m 145.35,854.36218 a 1.35,1.35 0 1 1 -2.7,0 1.35,1.35 0 1 1 2.7,0 z"
         transform="matrix(2,0,0,2,-211.45715,-872.47569)"
         id="path239176"
         style="fill:url(#linearGradient5506);fill-opacity:1;fill-rule:evenodd;stroke:#96814d;stroke-width:0.09;stroke-linecap:round;stroke-linejoin:round;stroke-miterlimit:4;stroke-opacity:1;stroke-dasharray:none;stroke-dashoffset:0" />
    </g>
  </g>
</svg>
