<?xml version='1.0' encoding='UTF-8' standalone='no'?>
<!-- Created with Fritzing (http://www.fritzing.org/) -->
<svg xmlns="http://www.w3.org/2000/svg" viewBox="0 0 46.8 58.4447" y="0in" height="0.811732in" version="1.2"  gorn="0" id="svg3611" x="0in" width="0.65in">
    <desc>
        <referenceFile>Adafruit_AD8495_breadboard.svg</referenceFile>
    </desc>
    <metadata  id="metadata4137">
        <rdf:RDF xmlns:rdf="http://www.w3.org/1999/02/22-rdf-syntax-ns#">
            <cc:Work xmlns:cc="http://creativecommons.org/ns#" rdf:about="" xmlns:rdf="http://www.w3.org/1999/02/22-rdf-syntax-ns#">
                <dc:format xmlns:dc="http://purl.org/dc/elements/1.1/">image/svg+xml</dc:format>
                <dc:type rdf:resource="http://purl.org/dc/dcmitype/StillImage" xmlns:dc="http://purl.org/dc/elements/1.1/" xmlns:rdf="http://www.w3.org/1999/02/22-rdf-syntax-ns#"/>
            </cc:Work>
        </rdf:RDF>
    </metadata>
    <defs  id="defs4135"/>
    <desc  id="desc3613">Fritzing breadboard generated by brd2svg</desc>
    <g  gorn="0.3" id="icon">
        <path d="m 7.2,58.4447 a 7.2,7.2 0 0 1 -7.2,-7.2 l 0,-43.2 A 7.2,7.2 0 0 1 7.2,0.844726 l 32.4,0 A 7.2,7.2 0 0 1 46.8,8.0447 l 0,43.2 a 7.2,7.2 0 0 1 -7.2,7.2 l -32.4,0 m 24.5027,-7.2 a 1.417325,1.417325 0 1 0 2.83465,0 1.417325,1.417325 0 1 0 -2.83465,0 z m -7.2,0 a 1.417325,1.417325 0 1 0 2.83465,0 1.417325,1.417325 0 1 0 -2.83465,0 z m -7.2,0 a 1.417325,1.417325 0 1 0 2.83465,0 1.417325,1.417325 0 1 0 -2.83465,0 z m -7.2,0 a 1.417325,1.417325 0 1 0 2.83465,0 1.417325,1.417325 0 1 0 -2.83465,0 z m 25.954,-43.2 a 3.54331,3.54331 0 1 0 7.08661,0 3.54331,3.54331 0 1 0 -7.08661,0 z m -32.40001,0 a 3.54331,3.54331 0 1 0 7.08661,0 3.54331,3.54331 0 1 0 -7.08661,0 z m 13.58361,2.16 a 1.417325,1.417325 0 1 0 2.83465,0 1.417325,1.417325 0 1 0 -2.83465,0 z m 9.9213,0 a 1.417325,1.417325 0 1 0 2.83465,0 1.417325,1.417325 0 1 0 -2.83465,0 z"  gorn="0.3.0" id="path3617" style="fill:#014cb1;stroke:none;stroke-width:0"/>
        <g transform="translate(0.12369457,-1.2369456)" >
            <g  gorn="0.3.1.0" id="g3623">
                <title  id="title3625">text:AD8495</title>
                <g transform="translate(45.394,53.3877)" >
                    <g  gorn="0.3.1.0.1.0" id="g3627">
                        <g transform="matrix(0,-1,1,0,0,0)" >
                            <g  gorn="0.3.1.0.1.0.0.0" id="g3629">
                                <text y="0"  font-size="3.3408" gorn="0.3.1.0.1.0.0.0.0" id="text3631" x="0" style="font-size:3.34080005px;font-family:OCRA;text-anchor:start;fill:#ffffff;stroke:none;stroke-width:0">AD8495</text>
                            </g>
                        </g>
                    </g>
                </g>
            </g>
        </g>
        <g  gorn="0.3.2" id="g3633">
            <title  id="title3635">text:V+</title>
            <text y="57.688599"  font-size="3.3408" gorn="0.3.2.1" id="text3637" x="34.038399" style="font-size:3.34080005px;font-family:OCRA;text-anchor:middle;fill:#ffffff;stroke:none;stroke-width:0">V+</text>
        </g>
        <g  gorn="0.3.3" id="g3639">
            <title  id="title3641">text:GND</title>
            <text y="57.688599"  font-size="3.3408" gorn="0.3.3.1" id="text3643" x="26.243099" style="font-size:3.34080005px;font-family:OCRA;text-anchor:middle;fill:#ffffff;stroke:none;stroke-width:0">GND</text>
        </g>
        <g  gorn="0.3.4" id="g3645">
            <title  id="title3647">text:OUT</title>
            <text y="48.141602"  font-size="3.3408" gorn="0.3.4.1" id="text3649" x="18.980801" style="font-size:3.34080005px;font-family:OCRA;text-anchor:middle;fill:#ffffff;stroke:none;stroke-width:0">OUT</text>
        </g>
        <g  gorn="0.3.5" id="g3651">
            <title  id="title3653">text:GND</title>
            <text y="57.688599"  font-size="3.3408" gorn="0.3.5.1" id="text3655" x="11.3953" style="font-size:3.34080005px;font-family:OCRA;text-anchor:middle;fill:#ffffff;stroke:none;stroke-width:0">GND</text>
        </g>
        <g  gorn="0.3.6" id="g3657">
            <title  id="title3659">text:Ylw</title>
            <g transform="translate(44.1504,17.4047)" >
                <g  gorn="0.3.6.1.0" id="g3661">
                    <g transform="matrix(0,-1,1,0,0,0)" >
                        <g  gorn="0.3.6.1.0.0.0" id="g3663">
                            <text y="0"  font-size="3.3408" gorn="0.3.6.1.0.0.0.0" id="text3665" x="0" style="font-size:3.34080005px;font-family:OCRA;text-anchor:middle;fill:#ffffff;stroke:none;stroke-width:0">Ylw</text>
                        </g>
                    </g>
                </g>
            </g>
        </g>
        <g  gorn="0.3.7" id="g3667">
            <title  id="title3669">text:Red</title>
            <g transform="translate(5.9904,18.1247)" >
                <g  gorn="0.3.7.1.0" id="g3671">
                    <g transform="matrix(0,-1,1,0,0,0)" >
                        <g  gorn="0.3.7.1.0.0.0" id="g3673">
                            <text y="0"  font-size="3.3408" gorn="0.3.7.1.0.0.0.0" id="text3675" x="0" style="font-size:3.34080005px;font-family:OCRA;text-anchor:middle;fill:#ffffff;stroke:none;stroke-width:0">Red</text>
                        </g>
                    </g>
                </g>
            </g>
        </g>
        <g transform="translate(-0.61847286,0.49477824)" >
            <g  gorn="0.3.8.0" id="g3677">
                <title  id="title3679">text:adafruit!</title>
                <g transform="translate(3.8304,40.4447)" >
                    <g  gorn="0.3.8.0.1.0" id="g3681">
                        <g transform="matrix(0,-1,1,0,0,0)" >
                            <g  gorn="0.3.8.0.1.0.0.0" id="g3683">
                                <text y="0"  font-size="3.3408" gorn="0.3.8.0.1.0.0.0.0" id="text3685" x="0" style="font-size:3.34080005px;font-family:OCRA;text-anchor:middle;fill:#ffffff;stroke:none;stroke-width:0">adafruit!</text>
                            </g>
                        </g>
                    </g>
                </g>
            </g>
        </g>
        <g  gorn="0.3.9" id="g3687">
            <title  id="title3689">element:C1</title>
            <g  gorn="0.3.9.1" id="g3691">
                <title  id="title3693">package:0805-NO</title>
                <line y1="36.124699" y2="33.244701" x2="39.599998"  gorn="0.3.9.1.1" id="line3695" x1="39.599998" style="stroke:#ffffff;stroke-width:0.86400002;stroke-linecap:round"/>
            </g>
        </g>
        <g  gorn="0.3.10" id="g3697">
            <title  id="title3699">element:C2</title>
            <g  gorn="0.3.10.1" id="g3701">
                <title  id="title3703">package:0805-NO</title>
                <line y1="31.0847" y2="28.2047" x2="7.9200001"  gorn="0.3.10.1.1" id="line3705" x1="7.9200001" style="stroke:#ffffff;stroke-width:0.86400002;stroke-linecap:round"/>
            </g>
        </g>
        <g  gorn="0.3.11" id="g3707">
            <title  id="title3709">element:C3</title>
            <g  gorn="0.3.11.1" id="g3711">
                <title  id="title3713">package:0805-NO</title>
                <line y1="27.8447" y2="24.964701" x2="23.76"  gorn="0.3.11.1.1" id="line3715" x1="23.76" style="stroke:#ffffff;stroke-width:0.86400002;stroke-linecap:round"/>
            </g>
        </g>
        <g  gorn="0.3.12" id="g3717">
            <title  id="title3719">element:C4</title>
            <g  gorn="0.3.12.1" id="g3721">
                <title  id="title3723">package:0805-NO</title>
                <line y1="30.3647" y2="27.484699" x2="39.599998"  gorn="0.3.12.1.1" id="line3725" x1="39.599998" style="stroke:#ffffff;stroke-width:0.86400002;stroke-linecap:round"/>
            </g>
        </g>
        <g  gorn="0.3.13" id="g3727">
            <title  id="title3729">element:D1</title>
            <g  gorn="0.3.13.1" id="g3731">
                <title  id="title3733">package:SOT23-R</title>
                <line y1="41.426601" y2="41.426601" x2="7.6977401"  gorn="0.3.13.1.1" id="line3735" x1="11.4191" style="stroke:#ffffff;stroke-width:0.57599998;stroke-linecap:round"/>
                <line y1="41.426601" y2="38.567101" x2="7.6977401"  gorn="0.3.13.1.2" id="line3737" x1="7.6977401" style="stroke:#ffffff;stroke-width:0.57599998;stroke-linecap:round"/>
                <line y1="32.512199" y2="32.512199" x2="11.4191"  gorn="0.3.13.1.3" id="line3739" x1="7.6977401" style="stroke:#ffffff;stroke-width:0.57599998;stroke-linecap:round"/>
                <line y1="35.371899" y2="32.512199" x2="7.6977401"  gorn="0.3.13.1.4" id="line3741" x1="7.6977401" style="stroke:#ffffff;stroke-width:0.57599998;stroke-linecap:round"/>
                <line y1="35.913799" y2="38.064701" x2="11.4417"  gorn="0.3.13.1.5" id="line3743" x1="11.4417" style="stroke:#ffffff;stroke-width:0.57599998;stroke-linecap:round"/>
            </g>
        </g>
        <g  gorn="0.3.14" id="g3745">
            <title  id="title3747">element:FB1</title>
            <g  gorn="0.3.14.1" id="g3749">
                <title  id="title3751">package:0805</title>
                <line y1="47.5993" y2="41.930099" x2="29.315901"  gorn="0.3.14.1.1" id="line3753" x1="29.315901" style="stroke:#ffffff;stroke-width:0.57599998;stroke-linecap:round"/>
                <line y1="41.930099" y2="41.930099" x2="39.8041"  gorn="0.3.14.1.2" id="line3755" x1="29.315901" style="stroke:#ffffff;stroke-width:0.57599998;stroke-linecap:round"/>
                <line y1="41.930099" y2="47.5993" x2="39.8041"  gorn="0.3.14.1.3" id="line3757" x1="39.8041" style="stroke:#ffffff;stroke-width:0.57599998;stroke-linecap:round"/>
                <line y1="47.5993" y2="47.5993" x2="29.315901"  gorn="0.3.14.1.4" id="line3759" x1="39.8041" style="stroke:#ffffff;stroke-width:0.57599998;stroke-linecap:round"/>
            </g>
        </g>
        <g  gorn="0.3.15" id="g3761">
            <title  id="title3763">element:FID1</title>
            <g  gorn="0.3.15.1" id="g3765">
                <title  id="title3767">package:FIDUCIAL_1MM</title>
            </g>
        </g>
        <g  gorn="0.3.16" id="g3769">
            <title  id="title3771">element:FID2</title>
            <g  gorn="0.3.16.1" id="g3773">
                <title  id="title3775">package:FIDUCIAL_1MM</title>
            </g>
        </g>
        <g  gorn="0.3.17" id="g3777">
            <title  id="title3779">element:JP1</title>
            <g  gorn="0.3.17.1" id="g3781">
                <title  id="title3783">package:1X04_ROUND</title>
            </g>
        </g>
        <g  gorn="0.3.18" id="g3785">
            <title  id="title3787">element:R1</title>
            <g  gorn="0.3.18.1" id="g3789">
                <title  id="title3791">package:0805-NO</title>
                <line y1="26.7647" y2="26.7647" x2="30.24"  gorn="0.3.18.1.1" id="line3793" x1="33.119999" style="stroke:#ffffff;stroke-width:0.86400002;stroke-linecap:round"/>
            </g>
        </g>
        <g  gorn="0.3.19" id="g3795">
            <title  id="title3797">element:R2</title>
            <g  gorn="0.3.19.1" id="g3799">
                <title  id="title3801">package:0805-NO</title>
                <line y1="26.7647" y2="26.7647" x2="14.4"  gorn="0.3.19.1.1" id="line3803" x1="17.280001" style="stroke:#ffffff;stroke-width:0.86400002;stroke-linecap:round"/>
            </g>
        </g>
        <g  gorn="0.3.20" id="g3805">
            <title  id="title3807">element:R3</title>
            <g  gorn="0.3.20.1" id="g3809">
                <title  id="title3811">package:0805-NO</title>
                <line y1="22.4447" y2="25.324699" x2="7.9200001"  gorn="0.3.20.1.1" id="line3813" x1="7.9200001" style="stroke:#ffffff;stroke-width:0.86400002;stroke-linecap:round"/>
            </g>
        </g>
        <g  gorn="0.3.21" id="g3815">
            <title  id="title3817">element:R4</title>
            <g  gorn="0.3.21.1" id="g3819">
                <title  id="title3821">package:0805-NO</title>
                <line y1="46.2784" y2="43.398399" x2="9.9553003"  gorn="0.3.21.1.1" id="line3823" x1="9.9553003" style="stroke:#ffffff;stroke-width:0.86400002;stroke-linecap:round"/>
            </g>
        </g>
        <g  gorn="0.3.22" id="g3825">
            <title  id="title3827">element:U$8</title>
            <g  gorn="0.3.22.1" id="g3829">
                <title  id="title3831">package:SYMBOL_PLUS</title>
                <line y1="17.8095" y2="15.5596" x2="37.439999"  gorn="0.3.22.1.1" id="line3833" x1="37.439999" style="stroke:#ffffff;stroke-width:0.86400002;stroke-linecap:round"/>
                <line y1="16.6847" y2="16.6847" x2="36.315201"  gorn="0.3.22.1.2" id="line3835" x1="38.5648" style="stroke:#ffffff;stroke-width:0.86400002;stroke-linecap:round"/>
                <circle r="2.2158401" cy="16.6847"  gorn="0.3.22.1.3" id="circle3837" cx="37.439999" style="fill:none;stroke:#ffffff;stroke-width:0.57599998"/>
            </g>
        </g>
        <g  gorn="0.3.23" id="g3839">
            <title  id="title3841">element:U$9</title>
            <g  gorn="0.3.23.1" id="g3843">
                <title  id="title3845">package:SYMBOL_MINUS</title>
                <line y1="17.8095" y2="15.5596" x2="9.3599997"  gorn="0.3.23.1.1" id="line3847" x1="9.3599997" style="stroke:#ffffff;stroke-width:0.86400002;stroke-linecap:round"/>
                <circle r="2.2158401" cy="16.6847"  gorn="0.3.23.1.2" id="circle3849" cx="9.3599997" style="fill:none;stroke:#ffffff;stroke-width:0.57599998"/>
            </g>
        </g>
        <g  gorn="0.3.24" id="g3851">
            <title  id="title3853">element:U$10</title>
            <g  gorn="0.3.24.1" id="g3855">
                <title  id="title3857">package:ADAFRUIT_2.5MM</title>
            </g>
        </g>
        <g  gorn="0.3.25" id="g3859">
            <title  id="title3861">element:U$11</title>
            <g  gorn="0.3.25.1" id="g3863">
                <title  id="title3865">package:MOUNTINGHOLE_2.5_PLATED</title>
                <circle r="5.6692901" cy="8.0446997"  gorn="0.3.25.1.1" id="circle3867" cx="39.599998" style="fill:none;stroke:#ffffff;stroke-width:0.57599998"/>
            </g>
        </g>
        <g  gorn="0.3.26" id="g3869">
            <title  id="title3871">element:U$12</title>
            <g  gorn="0.3.26.1" id="g3873">
                <title  id="title3875">package:MOUNTINGHOLE_2.5_PLATED</title>
                <circle r="5.6692901" cy="8.0446997"  gorn="0.3.26.1.1" id="circle3877" cx="7.1999998" style="fill:none;stroke:#ffffff;stroke-width:0.57599998"/>
            </g>
        </g>
        <g  gorn="0.3.27" id="g3879">
            <title  id="title3881">element:U$13</title>
            <g  gorn="0.3.27.1" id="g3883">
                <title  id="title3885">package:ADAFRUIT_3.5MM</title>
            </g>
        </g>
        <g  gorn="0.3.28" id="g3887">
            <title  id="title3889">element:U1</title>
            <g  gorn="0.3.28.1" id="g3891">
                <title  id="title3893">package:MSOP8_0.65MM</title>
                <line y1="32.592701" y2="32.592701" x2="19.507999"  gorn="0.3.28.1.1" id="line3895" x1="28.011999" style="stroke:#ffffff;stroke-width:0.57599998;stroke-linecap:round"/>
                <line y1="41.096699" y2="41.096699" x2="28.011999"  gorn="0.3.28.1.2" id="line3897" x1="19.507999" style="stroke:#ffffff;stroke-width:0.57599998;stroke-linecap:round"/>
                <circle r="0.42519701" cy="30.6085"  gorn="0.3.28.1.3" id="circle3899" cx="21.208799" style="fill:none;stroke:#ffffff;stroke-width:1.72800004"/>
            </g>
        </g>
        <g  gorn="0.3.29" id="g3901">
            <title  id="title3903">element:X1</title>
            <g  gorn="0.3.29.1" id="g3905">
                <title  id="title3907">package:TERMBLOCK_1X2-3.5MM</title>
                <line y1="19.8426" y2="3.9684999" x2="33.3978"  gorn="0.3.29.1.1" id="line3909" x1="33.3978" style="stroke:#ffffff;stroke-width:0.57599998;stroke-linecap:round"/>
                <line y1="3.9684999" y2="0" x2="33.3978"  gorn="0.3.29.1.2" id="line3911" x1="33.3978" style="stroke:#ffffff;stroke-width:0.57599998;stroke-linecap:round"/>
                <line y1="0" y2="0" x2="13.5553"  gorn="0.3.29.1.3" id="line3913" x1="33.3978" style="stroke:#ffffff;stroke-width:0.57599998;stroke-linecap:round"/>
                <line y1="0" y2="3.9684999" x2="13.5553"  gorn="0.3.29.1.4" id="line3915" x1="13.5553" style="stroke:#ffffff;stroke-width:0.57599998;stroke-linecap:round"/>
                <line y1="3.9684999" y2="19.8426" x2="13.5553"  gorn="0.3.29.1.5" id="line3917" x1="13.5553" style="stroke:#ffffff;stroke-width:0.57599998;stroke-linecap:round"/>
                <line y1="19.8426" y2="19.8426" x2="33.3978"  gorn="0.3.29.1.6" id="line3919" x1="13.5553" style="stroke:#ffffff;stroke-width:0.57599998;stroke-linecap:round"/>
                <line y1="3.9684999" y2="3.9684999" x2="13.5553"  gorn="0.3.29.1.7" id="line3921" x1="33.3978" style="stroke:#ffffff;stroke-width:0.57599998;stroke-linecap:round"/>
            </g>
        </g>
        <g transform="matrix(-1,0,0,-1,84.5856,69.3695)" >
            <g  gorn="0.3.30.0" id="g3923">
                <rect height="4.2519698" y="32.5588"  gorn="0.3.30.0.0" id="connector0pin" x="40.450401" style="fill:#9a916c;stroke:none;stroke-width:0" width="3.68504"/>
            </g>
        </g>
        <g transform="matrix(-1,0,0,-1,73.8144,69.3695)" >
            <g  gorn="0.3.31.0" id="g3926">
                <rect height="4.2519698" y="32.5588"  gorn="0.3.31.0.0" id="connector1pin" x="35.064602" style="fill:#9a916c;stroke:none;stroke-width:0" width="3.68504"/>
            </g>
        </g>
        <g transform="matrix(-1,0,0,-1,21.2258,59.2895)" >
            <g  gorn="0.3.32.0" id="g3929">
                <rect height="4.2519698" y="27.518801"  gorn="0.3.32.0.0" id="connector2pin" x="8.7703896" style="fill:#9a916c;stroke:none;stroke-width:0" width="3.68504"/>
            </g>
        </g>
        <g transform="matrix(-1,0,0,-1,10.4542,59.2895)" >
            <g  gorn="0.3.33.0" id="g3932">
                <rect height="4.2519698" y="27.518801"  gorn="0.3.33.0.0" id="connector3pin" x="3.3845699" style="fill:#9a916c;stroke:none;stroke-width:0" width="3.68504"/>
            </g>
        </g>
        <g transform="matrix(-1,0,0,-1,52.9058,52.8095)" >
            <g  gorn="0.3.34.0" id="g3935">
                <rect height="4.2519698" y="24.278799"  gorn="0.3.34.0.0" id="connector4pin" x="24.610399" style="fill:#9a916c;stroke:none;stroke-width:0" width="3.68504"/>
            </g>
        </g>
        <g transform="matrix(-1,0,0,-1,42.1342,52.8095)" >
            <g  gorn="0.3.35.0" id="g3938">
                <rect height="4.2519698" y="24.278799"  gorn="0.3.35.0.0" id="connector5pin" x="19.2246" style="fill:#9a916c;stroke:none;stroke-width:0" width="3.68504"/>
            </g>
        </g>
        <g transform="matrix(-1,0,0,-1,84.5856,57.8495)" >
            <g  gorn="0.3.36.0" id="g3941">
                <rect height="4.2519698" y="26.7988"  gorn="0.3.36.0.0" id="connector6pin" x="40.450401" style="fill:#9a916c;stroke:none;stroke-width:0" width="3.68504"/>
            </g>
        </g>
        <g transform="matrix(-1,0,0,-1,73.8144,57.8495)" >
            <g  gorn="0.3.37.0" id="g3944">
                <rect height="4.2519698" y="26.7988"  gorn="0.3.37.0.0" id="connector7pin" x="35.064602" style="fill:#9a916c;stroke:none;stroke-width:0" width="3.68504"/>
            </g>
        </g>
        <g transform="matrix(0,-1,1,0,-27.258,52.0668)" >
            <g  gorn="0.3.38.0" id="g3947">
                <rect height="2.8800001" y="38.222401"  gorn="0.3.38.0.0" id="connector8pin" x="11.5044" style="fill:#9a916c;stroke:none;stroke-width:0" width="1.8"/>
            </g>
        </g>
        <g transform="matrix(0,-1,1,0,-21.8722,46.6809)" >
            <g  gorn="0.3.39.0" id="g3950">
                <rect height="2.8800001" y="32.836498"  gorn="0.3.39.0.0" id="connector9pin" x="11.5044" style="fill:#9a916c;stroke:none;stroke-width:0" width="1.8"/>
            </g>
        </g>
        <g transform="matrix(0,-1,1,0,-30.2343,43.7046)" >
            <g  gorn="0.3.40.0" id="g3953">
                <rect height="2.8800001" y="35.529499"  gorn="0.3.40.0.0" id="connector10pin" x="5.8351202" style="fill:#9a916c;stroke:none;stroke-width:0" width="1.8"/>
            </g>
        </g>
        <g transform="matrix(-1,0,0,-1,74.5056,89.5291)" >
            <g  gorn="0.3.41.0" id="g3956">
                <rect height="4.2519698" y="42.638802"  gorn="0.3.41.0.0" id="connector11pin" x="35.4104" style="fill:#9a916c;stroke:none;stroke-width:0" width="3.68504"/>
            </g>
        </g>
        <g transform="matrix(-1,0,0,-1,63.7342,89.5291)" >
            <g  gorn="0.3.42.0" id="g3959">
                <rect height="4.2519698" y="42.638802"  gorn="0.3.42.0.0" id="connector12pin" x="30.024599" style="fill:#9a916c;stroke:none;stroke-width:0" width="3.68504"/>
            </g>
        </g>
        <g transform="matrix(0,1,-1,0,57.7247,47.6447)" >
            <g  gorn="0.3.43.0" id="g3962">
                <rect rx="1.41732" height="2.83465" y="51.267399"  ry="1.41732" gorn="0.3.43.0.0" id="connector13pin" x="3.6226799" style="fill:#9a916c;stroke:none;stroke-width:0" width="2.83465"/>
            </g>
        </g>
        <g transform="matrix(0,1,-1,0,61.0866,-15.052)" >
            <g  gorn="0.3.44.0" id="g3965">
                <rect rx="1.41732" height="2.83465" y="21.6"  ry="1.41732" gorn="0.3.44.0.0" id="connector14pin" x="36.652" style="fill:#9a916c;stroke:none;stroke-width:0" width="2.83465"/>
            </g>
        </g>
        <circle r="1.89666" cy="51.244701"  gorn="0.3.45" id="connector15pin" style="fill:none;stroke:#9a916c;stroke-width:0.95867997" cx="33.119999" connectorname="VIN"/>
        <rect height="3.7933199" y="49.348099"  gorn="0.3.46" id="rect3969" x="31.223301" style="fill:none;stroke:#9a916c;stroke-width:0.95867997" width="3.7933199"/>
        <circle r="1.89666" cy="51.244701"  gorn="0.3.47" id="connector16pin" style="fill:none;stroke:#9a916c;stroke-width:0.95867997" cx="25.92" connectorname="GND"/>
        <circle r="1.89666" cy="51.244701"  gorn="0.3.48" id="connector17pin" style="fill:none;stroke:#9a916c;stroke-width:0.95867997" cx="18.719999" connectorname="OUT"/>
        <circle r="1.89666" cy="51.244701"  gorn="0.3.49" id="connector18pin" style="fill:none;stroke:#9a916c;stroke-width:0.95867997" cx="11.52" connectorname="GND"/>
        <g transform="matrix(0,1,-1,0,55.7518,-7.60817)" >
            <g  gorn="0.3.50.0" id="g3974">
                <rect height="4.2519698" y="21.945801"  gorn="0.3.50.0.0" id="connector19pin" x="29.8374" style="fill:#9a916c;stroke:none;stroke-width:0" width="3.68504"/>
            </g>
        </g>
        <g transform="matrix(0,1,-1,0,61.1376,-2.22236)" >
            <g  gorn="0.3.51.0" id="g3977">
                <rect height="4.2519698" y="27.3316"  gorn="0.3.51.0.0" id="connector20pin" x="29.8374" style="fill:#9a916c;stroke:none;stroke-width:0" width="3.68504"/>
            </g>
        </g>
        <g transform="matrix(0,1,-1,0,39.9118,8.23183)" >
            <g  gorn="0.3.52.0" id="g3980">
                <rect height="4.2519698" y="21.945801"  gorn="0.3.52.0.0" id="connector21pin" x="13.9974" style="fill:#9a916c;stroke:none;stroke-width:0" width="3.68504"/>
            </g>
        </g>
        <g transform="matrix(0,1,-1,0,45.2976,13.6176)" >
            <g  gorn="0.3.53.0" id="g3983">
                <rect height="4.2519698" y="27.3316"  gorn="0.3.53.0.0" id="connector22pin" x="13.9974" style="fill:#9a916c;stroke:none;stroke-width:0" width="3.68504"/>
            </g>
        </g>
        <rect height="4.2519698" y="21.758801"  gorn="0.3.54" id="connector23pin" x="3.3845699" style="fill:#9a916c;stroke:none;stroke-width:0" width="3.68504"/>
        <rect height="4.2519698" y="21.758801"  gorn="0.3.55" id="connector24pin" x="8.7703896" style="fill:#9a916c;stroke:none;stroke-width:0" width="3.68504"/>
        <g transform="matrix(-1,0,0,-1,25.2964,89.6767)" >
            <g  gorn="0.3.56.0" id="g3988">
                <rect height="4.2519698" y="42.712399"  gorn="0.3.56.0.0" id="connector25pin" x="10.8057" style="fill:#9a916c;stroke:none;stroke-width:0" width="3.68504"/>
            </g>
        </g>
        <g transform="matrix(-1,0,0,-1,14.5247,89.6767)" >
            <g  gorn="0.3.57.0" id="g3991">
                <rect height="4.2519698" y="42.712399"  gorn="0.3.57.0.0" id="connector26pin" x="5.4198399" style="fill:#9a916c;stroke:none;stroke-width:0" width="3.68504"/>
            </g>
        </g>
        <circle r="4.26331" cy="8.0446997"  gorn="0.3.58" id="connector27pin" style="fill:none;stroke:#9a916c;stroke-width:1.44000006" cx="39.599998" connectorname="P$1"/>
        <circle r="4.26331" cy="8.0446997"  gorn="0.3.59" id="connector28pin" style="fill:none;stroke:#9a916c;stroke-width:1.44000006" cx="7.1999998" connectorname="P$1"/>
        <rect height="1.13386" y="33.514"  gorn="0.3.60" id="connector29pin" x="15.5395" style="fill:#9a916c;stroke:none;stroke-width:0" width="3.9684999"/>
        <rect height="1.13386" y="35.356499"  gorn="0.3.61" id="connector30pin" x="15.5395" style="fill:#9a916c;stroke:none;stroke-width:0" width="3.9684999"/>
        <rect height="1.13386" y="37.1991"  gorn="0.3.62" id="connector31pin" x="15.5395" style="fill:#9a916c;stroke:none;stroke-width:0" width="3.9684999"/>
        <rect height="1.13386" y="39.041599"  gorn="0.3.63" id="connector32pin" x="15.5395" style="fill:#9a916c;stroke:none;stroke-width:0" width="3.9684999"/>
        <rect height="1.13386" y="39.041599"  gorn="0.3.64" id="connector33pin" x="28.011999" style="fill:#9a916c;stroke:none;stroke-width:0" width="3.9684999"/>
        <rect height="1.13386" y="37.1991"  gorn="0.3.65" id="connector34pin" x="28.011999" style="fill:#9a916c;stroke:none;stroke-width:0" width="3.9684999"/>
        <rect height="1.13386" y="35.356499"  gorn="0.3.66" id="connector35pin" x="28.011999" style="fill:#9a916c;stroke:none;stroke-width:0" width="3.9684999"/>
        <rect height="1.13386" y="33.514"  gorn="0.3.67" id="connector36pin" x="28.011999" style="fill:#9a916c;stroke:none;stroke-width:0" width="3.9684999"/>
        <circle r="2.25666" cy="10.2047"  gorn="0.3.68" style="fill:none;stroke:#9a916c;stroke-width:1.67867994" cx="18.6576" connectorname="IN-"/>
        <circle r="2.25666" cy="10.2047"  gorn="0.3.69" style="fill:none;stroke:#9a916c;stroke-width:1.67867994" cx="28.578899" connectorname="IN+"/>
    </g>
    <g transform="translate(36.7655,32.9132)" >
        <g  gorn="0.4.0" id="0805-cap">
            <g transform="matrix(-1,0,0,-1,5.669,3.543)" >
                <g  gorn="0.4.0.0.0" id="g4007">
                    <path d="m 5.386,3.543 -5.103,0 C 0.127,3.543 0,3.416 0,3.26 L 0,0.283 C 0,0.127 0.127,0 0.283,0 l 5.102,0 c 0.157,0 0.283,0.127 0.283,0.283 l 0,2.977 C 5.669,3.416 5.542,3.543 5.386,3.543 Z"  gorn="0.4.0.0.0.0" id="path4009" style="fill:#dcdcdc"/>
                    <rect y="0" height="3.543"  gorn="0.4.0.0.0.1" id="rect4011" x="1.063" style="fill:#6e554b" width="3.543"/>
                </g>
            </g>
        </g>
    </g>
    <g transform="translate(5.0855,27.8732)" >
        <g  gorn="0.5.0" id="g4013">
            <g transform="matrix(-1,0,0,-1,5.669,3.543)" >
                <g  gorn="0.5.0.0.0" id="g4015">
                    <path d="m 5.386,3.543 -5.103,0 C 0.127,3.543 0,3.416 0,3.26 L 0,0.283 C 0,0.127 0.127,0 0.283,0 l 5.102,0 c 0.157,0 0.283,0.127 0.283,0.283 l 0,2.977 C 5.669,3.416 5.542,3.543 5.386,3.543 Z"  gorn="0.5.0.0.0.0" id="path4017" style="fill:#dcdcdc"/>
                    <rect y="0" height="3.543"  gorn="0.5.0.0.0.1" id="rect4019" x="1.063" style="fill:#6e554b" width="3.543"/>
                </g>
            </g>
        </g>
    </g>
    <g transform="translate(20.9255,24.6332)" >
        <g  gorn="0.6.0" id="g4021">
            <g transform="matrix(-1,0,0,-1,5.669,3.543)" >
                <g  gorn="0.6.0.0.0" id="g4023">
                    <path d="m 5.386,3.543 -5.103,0 C 0.127,3.543 0,3.416 0,3.26 L 0,0.283 C 0,0.127 0.127,0 0.283,0 l 5.102,0 c 0.157,0 0.283,0.127 0.283,0.283 l 0,2.977 C 5.669,3.416 5.542,3.543 5.386,3.543 Z"  gorn="0.6.0.0.0.0" id="path4025" style="fill:#dcdcdc"/>
                    <rect y="0" height="3.543"  gorn="0.6.0.0.0.1" id="rect4027" x="1.063" style="fill:#6e554b" width="3.543"/>
                </g>
            </g>
        </g>
    </g>
    <g transform="translate(36.7655,27.1532)" >
        <g  gorn="0.7.0" id="g4029">
            <g transform="matrix(-1,0,0,-1,5.669,3.543)" >
                <g  gorn="0.7.0.0.0" id="g4031">
                    <path d="m 5.386,3.543 -5.103,0 C 0.127,3.543 0,3.416 0,3.26 L 0,0.283 C 0,0.127 0.127,0 0.283,0 l 5.102,0 c 0.157,0 0.283,0.127 0.283,0.283 l 0,2.977 C 5.669,3.416 5.542,3.543 5.386,3.543 Z"  gorn="0.7.0.0.0.0" id="path4033" style="fill:#dcdcdc"/>
                    <rect y="0" height="3.543"  gorn="0.7.0.0.0.1" id="rect4035" x="1.063" style="fill:#6e554b" width="3.543"/>
                </g>
            </g>
        </g>
    </g>
    <g transform="translate(5.31777,33.1425)" >
        <g  gorn="0.8.0" id="sot23-r">
            <g transform="matrix(0,-1,1,0,0.42498,8.07898)" >
                <g  gorn="0.8.0.0.0" id="g4038">
                    <g  gorn="0.8.0.0.0.0" id="g4040">
                        <rect height="2.9760001" y="4.677"  gorn="0.8.0.0.0.0.0" id="rect4042" x="0.850003" style="fill:#dcdcdc" width="1.4170001"/>
                        <rect height="2.9760001" y="4.677"  gorn="0.8.0.0.0.0.1" id="rect4044" x="6.2360001" style="fill:#dcdcdc" width="1.4170001"/>
                        <rect y="0" height="3.118"  gorn="0.8.0.0.0.0.2" id="rect4046" x="3.543" style="fill:#dcdcdc" width="1.4170001"/>
                        <rect height="3.6849999" y="1.984"  gorn="0.8.0.0.0.0.3" id="rect4048" x="0" style="fill:#303030" width="8.5039902"/>
                    </g>
                </g>
            </g>
        </g>
    </g>
    <g transform="translate(31.7255,42.9932)" >
        <g  gorn="0.9.0" id="0805">
            <g transform="matrix(-1,0,0,-1,5.669,3.543)" >
                <g  gorn="0.9.0.0.0" id="g4051">
                    <path d="m 5.386,3.543 -5.103,0 C 0.127,3.543 0,3.416 0,3.26 L 0,0.283 C 0,0.127 0.127,0 0.283,0 l 5.102,0 c 0.157,0 0.283,0.127 0.283,0.283 l 0,2.977 C 5.669,3.416 5.542,3.543 5.386,3.543 Z"  gorn="0.9.0.0.0.0" id="path4053" style="fill:#dcdcdc"/>
                    <rect y="0" height="3.543"  gorn="0.9.0.0.0.1" id="rect4055" x="1.063" style="fill:#333333" width="3.543"/>
                </g>
            </g>
        </g>
    </g>
    <g transform="translate(28.8455,24.9932)" >
        <g  gorn="0.10.0" id="0805-res">
            <g transform="matrix(0,1,-1,0,4.606,-1.063)" >
                <g  gorn="0.10.0.0.0" id="g4058">
                    <path d="m 5.386,3.543 -5.103,0 C 0.127,3.543 0,3.416 0,3.26 L 0,0.283 C 0,0.127 0.127,0 0.283,0 l 5.102,0 c 0.157,0 0.283,0.127 0.283,0.283 l 0,2.977 C 5.669,3.416 5.542,3.543 5.386,3.543 Z"  gorn="0.10.0.0.0.0" id="path4060" style="fill:#dcdcdc"/>
                    <rect y="0" height="3.543"  gorn="0.10.0.0.0.1" id="rect4062" x="1.063" style="fill:#333333" width="3.543"/>
                </g>
            </g>
        </g>
    </g>
    <g transform="translate(13.0055,24.9932)" >
        <g  gorn="0.11.0" id="g4064">
            <g transform="matrix(0,1,-1,0,4.606,-1.063)" >
                <g  gorn="0.11.0.0.0" id="g4066">
                    <path d="m 5.386,3.543 -5.103,0 C 0.127,3.543 0,3.416 0,3.26 L 0,0.283 C 0,0.127 0.127,0 0.283,0 l 5.102,0 c 0.157,0 0.283,0.127 0.283,0.283 l 0,2.977 C 5.669,3.416 5.542,3.543 5.386,3.543 Z"  gorn="0.11.0.0.0.0" id="path4068" style="fill:#dcdcdc"/>
                    <rect y="0" height="3.543"  gorn="0.11.0.0.0.1" id="rect4070" x="1.063" style="fill:#333333" width="3.543"/>
                </g>
            </g>
        </g>
    </g>
    <g transform="translate(5.0855,22.1132)" >
        <g  gorn="0.12.0" id="g4072">
            <path d="m 5.386,3.543 -5.103,0 C 0.127,3.543 0,3.416 0,3.26 L 0,0.283 C 0,0.127 0.127,0 0.283,0 l 5.102,0 c 0.157,0 0.283,0.127 0.283,0.283 l 0,2.977 C 5.669,3.416 5.542,3.543 5.386,3.543 Z"  gorn="0.12.0.0" id="path4074" style="fill:#dcdcdc"/>
            <rect y="0" height="3.543"  gorn="0.12.0.1" id="rect4076" x="1.063" style="fill:#333333" width="3.543"/>
        </g>
    </g>
    <g transform="translate(7.12078,43.0669)" >
        <g  gorn="0.13.0" id="g4078">
            <g transform="matrix(-1,0,0,-1,5.669,3.543)" >
                <g  gorn="0.13.0.0.0" id="g4080">
                    <path d="m 5.386,3.543 -5.103,0 C 0.127,3.543 0,3.416 0,3.26 L 0,0.283 C 0,0.127 0.127,0 0.283,0 l 5.102,0 c 0.157,0 0.283,0.127 0.283,0.283 l 0,2.977 C 5.669,3.416 5.542,3.543 5.386,3.543 Z"  gorn="0.13.0.0.0.0" id="path4082" style="fill:#dcdcdc"/>
                    <rect y="0" height="3.543"  gorn="0.13.0.0.0.1" id="rect4084" x="1.063" style="fill:#333333" width="3.543"/>
                </g>
            </g>
        </g>
    </g>
    <g transform="translate(35.5092,49.0074)" >
        <g  gorn="0.14.0" id="adafruit_2.5mm">
            <g transform="matrix(0,1,-1,0,8.045296,-1.979113)" >
                <g  gorn="0.14.0.0.0" id="g4087">
                    <path d="M 9.747,3.082 C 9.724,2.94 9.647,2.899 9.461,2.839 9.31903,2.794 8.37202,2.492 8.37202,2.492 c 0,0 -0.66,-0.249 -1.15,0.103 C 7.156,2.643 7.088,2.697 7.019,2.755 7.077,2.686 7.131,2.618 7.178,2.552 7.53,2.062 7.279,1.402 7.279,1.402 7.279,1.402 6.976,0.455 6.93,0.313 6.87,0.127 6.83,0.05 6.687,0.028 6.545,0.005 6.483,0.066 6.369,0.225 6.282,0.345 5.702,1.153 5.702,1.153 c 0,0 -0.441,0.551 -0.257,1.126 C 5.47,2.356 5.5,2.438 5.534,2.521 5.486,2.445 5.438,2.372 5.39,2.307 5.032,1.821 4.328,1.855 4.328,1.855 c 0,0 -0.995,-0.004 -1.143,-0.004 -0.195,0 -0.281,0.014 -0.347,0.143 -0.065,0.128 -0.027,0.206 0.089,0.364 0.088,0.12 0.677,0.921002 0.677,0.921002 0,0 0.388,0.59 0.991001,0.592 0.081,0 0.168,-0.003 0.257,-0.01 C 4.765,3.883 4.681,3.907 4.604,3.932 4.031,4.122 3.845998,4.802998 3.845998,4.802998 3.845998,4.802998 3.536,5.747 3.489,5.888 3.428,6.074 3.416,6.16 3.518,6.262 3.62,6.364 3.706,6.352 3.892,6.29 4.033,6.244 4.977,5.931 4.977,5.931 c 0,0 0.681,-0.187 0.868997,-0.760003 0.025,-0.077 0.049,-0.16 0.07,-0.247 C 5.91,5.014 5.907,5.1 5.907,5.181 c 0.004,0.603 0.594,0.99 0.594,0.99 0,0 0.802001,0.588 0.922003,0.675 C 7.58102,6.962 7.659,7 7.78802,6.935 7.91597,6.869 7.93102,6.783 7.93001,6.588 7.929,6.439 7.92403,5.445 7.92403,5.445 7.92403,5.445 7.95701,4.74 7.47,4.383 7.40498,4.335 7.33198,4.287 7.25602,4.24 c 0.083,0.034 0.165,0.064 0.242,0.088 0.575,0.183 1.125,-0.259 1.125,-0.259 0,0 0.80696,-0.5809998 0.92699,-0.6679998 C 9.70898,3.286 9.76903,3.224 9.747,3.082 Z M 6.322,2.35 C 6.43,2.367 6.484,2.598 6.442,2.865 6.4,3.132 6.278,3.335 6.169,3.318 6.061,3.301 6.007,3.07 6.049,2.803 6.091,2.535 6.213,2.332 6.322,2.35 Z M 4.933,3.059 C 4.983,2.961 5.219,2.981 5.46,3.104 5.701,3.227 5.857,3.406 5.807,3.503 5.757,3.601 5.521,3.581 5.28,3.458 5.038,3.335 4.883,3.157 4.933,3.059 Z M 5.665,4.393 C 5.474,4.584 5.256,4.677 5.178,4.599 5.101,4.521 5.193,4.303 5.384,4.112 5.575,3.92 5.793,3.827 5.871,3.905 5.949,3.983 5.857,4.201 5.665,4.393 Z M 6.719,4.842 C 6.6210001,4.892 6.442,4.737 6.319,4.496 6.196,4.254 6.175,4.018 6.273,3.968 6.371,3.918 6.55,4.073 6.673,4.314 6.796,4.556 6.817,4.792 6.719,4.842 Z M 6.973,3.725 C 6.706,3.767 6.475,3.714 6.457,3.606 6.44,3.497 6.643,3.375 6.91,3.332 7.177,3.289 7.408,3.343 7.425,3.451 7.443,3.56 7.24003,3.682 6.973,3.725 Z"  gorn="0.14.0.0.0.0" id="path4089" style="fill:#9fbbe0"/>
                </g>
            </g>
        </g>
    </g>
    <g transform="translate(19.508,29.891335)" >
        <g  gorn="0.15.0" id="msop8_0.65mm">
            <g transform="matrix(0,1,-1,0,11.197,2.69302)" >
                <g  gorn="0.15.0.0.0" id="g4092">
                    <rect y="0" height="13.89"  gorn="0.15.0.0.0.0" id="rect4094" x="1.074" style="fill:#dcdcdc" width="0.850003"/>
                    <rect y="0" height="13.89"  gorn="0.15.0.0.0.1" id="rect4096" x="2.9159999" style="fill:#dcdcdc" width="0.850003"/>
                    <rect y="0" height="13.89"  gorn="0.15.0.0.0.2" id="rect4098" x="4.7589998" style="fill:#dcdcdc" width="0.850003"/>
                    <rect y="0" height="13.89"  gorn="0.15.0.0.0.3" id="rect4100" x="6.6009998" style="fill:#dcdcdc" width="0.850003"/>
                    <path d="m 8.50399,3.229 0,7.36999 c 0,0.313 -0.254,0.567 -0.567,0.567 l -7.36999,0 C 0.254,11.166 0,10.912 0,10.599 L 0,3.22901 c 0,-0.313 0.254,-0.567 0.567,-0.567 l 7.36999,0 c 0.31299,-1e-5 0.567,0.25399 0.567,0.56699 z"  gorn="0.15.0.0.0.4" id="path4102" style="fill:#333333"/>
                    <circle r="0.70899999" cy="9.7480097"  gorn="0.15.0.0.0.5" id="circle4104" cx="1.4170001"/>
                </g>
            </g>
        </g>
    </g>
    <g transform="translate(12.4215,-2.32164e-4)" >
        <g  gorn="0.16.0" id="termblock_1x2-3.5mm">
            <g transform="matrix(-1,0,0,-1,22.11,19.843)" >
                <g  gorn="0.16.0.0.0" id="g4107">
                    <rect height="5.1020002" y="12.189"  gorn="0.16.0.0.0.0" id="rect4109" x="18.709" style="fill:#0c3878" width="2.2679999"/>
                    <rect height="2.2679999" y="1.1339999"  gorn="0.16.0.0.0.1" id="rect4111" x="19.843" style="fill:#0c3878" width="2.2679999"/>
                    <polygon  gorn="0.16.0.0.0.2" id="polygon4113" points="1.134,0 1.134,13.606 0,13.606 0,15.874 1.134,15.874 1.134,18.425 20.976,18.425 20.976,15.874 19.843,15.874 19.843,13.606 20.976,13.606 20.976,0 " style="fill:#015dd9"/>
                    <circle r="3.6849999" cy="9.9210196"  gorn="0.16.0.0.0.3" id="circle4115" style="fill:#b4b4b4" cx="6.0949998"/>
                    <circle r="3.6849999" cy="9.9210196"  gorn="0.16.0.0.0.4" id="circle4117" style="fill:#b4b4b4" cx="16.016001"/>
                    <rect height="2.835" y="1.4170001"  gorn="0.16.0.0.0.5" id="rect4119" x="2.5510001" style="fill:#0c3878" width="7.3699899"/>
                    <rect height="2.835" y="1.4170001"  gorn="0.16.0.0.0.6" id="rect4121" x="11.339" style="fill:#0c3878" width="7.3699899"/>
                    <polygon  gorn="0.16.0.0.0.7" id="polygon4123" points="4.677,19.843 4.677,18.089 7.51198,18.089 7.51198,19.843 14.598,19.843 14.598,18.089 17.433,18.089 17.433,19.843 20.976,19.843 20.976,17.008 1.134,17.008 1.134,19.843 " style="fill:#0c3878"/>
                    <rect height="1.701" y="17.805"  gorn="0.16.0.0.0.8" id="connector38pin" x="1.8430001" style="fill:#8c8c8c" width="8.5039902"/>
                    <rect height="1.701" y="17.805"  gorn="0.16.0.0.0.9" id="connector37pin" x="11.764" style="fill:#8c8c8c" width="8.5039902"/>
                    <path d="M 6.182,6.963 4.539,7.403 5.053,9.31997 2.42,10.026 c 0.008,0.282 0.039,0.565 0.115,0.849002 0.076,0.284002 0.191,0.545 0.325,0.793001 l 2.633,-0.706 0.514,1.917 1.643,-0.44 -0.514,-1.917 2.633,-0.706 C 9.76097,9.53503 9.73001,9.25099 9.65398,8.96803 9.57795,8.68507 9.46303,8.42198 9.32897,8.17402 L 6.696,8.87998 6.182,6.963 Z"  gorn="0.16.0.0.0.10" id="path4129" style="fill:#646464"/>
                    <path d="m 13.498,8.36597 -0.44,1.643 1.917,0.514 -0.706,2.633 c 0.248,0.134 0.509,0.249 0.793001,0.325 0.284,0.076 0.568,0.107 0.849002,0.115 l 0.706,-2.633 1.917,0.514 0.44,-1.643 -1.917003,-0.514 0.706,-2.633 c -0.248,-0.134 -0.509,-0.249 -0.793001,-0.325 -0.284,-0.076 -0.568,-0.107 -0.849002,-0.115 L 15.414,8.87998 13.498,8.36597 Z"  gorn="0.16.0.0.0.11" id="path4131" style="fill:#646464"/>
                </g>
            </g>
        </g>
    </g>
</svg>
