<?xml version='1.0' encoding='UTF-8' standalone='no'?>
<!-- Created with Fritzing (http://www.fritzing.org/) -->
<svg xmlns="http://www.w3.org/2000/svg" viewBox="0 0 79.2 48.6" gorn="0" x="0in" version="1.2" height="0.675in" id="svg2" y="0in"  width="1.1in">
    <desc >
        <referenceFile >Adafruit ADS1115 16Bit I2C ADC_breadboard.svg</referenceFile>
    </desc>
    <metadata id="metadata499" />
    <defs id="defs497" />
    <desc id="desc4" >Fritzing breadboard generated by brd2svg</desc>
    <g gorn="0.4" id="icon" >
        <path gorn="0.4.0" style="fill:#014cb1;stroke:none;stroke-width:0" id="path8" d="m 79.2,7.2 0,34.2 A 7.2,7.2 0 0 1 72,48.6 l -64.8,0 A 7.2,7.2 0 0 1 0,41.4 L 0,7.2 A 7.2,7.2 0 0 1 7.2,0 L 72,0 a 7.2,7.2 0 0 1 7.2,7.2 m -8.6173,36 a 1.417325,1.417325 0 1 0 2.83465,0 1.417325,1.417325 0 1 0 -2.83465,0 z m -7.2,0 a 1.417325,1.417325 0 1 0 2.83465,0 1.417325,1.417325 0 1 0 -2.83465,0 z m -7.2,0 a 1.417325,1.417325 0 1 0 2.83465,0 1.417325,1.417325 0 1 0 -2.83465,0 z m -7.2,0 a 1.417325,1.417325 0 1 0 2.83465,0 1.417325,1.417325 0 1 0 -2.83465,0 z m -7.2,0 a 1.417325,1.417325 0 1 0 2.83465,0 1.417325,1.417325 0 1 0 -2.83465,0 z m -7.2,0 a 1.417325,1.417325 0 1 0 2.83465,0 1.417325,1.417325 0 1 0 -2.83465,0 z m -7.2,0 a 1.417325,1.417325 0 1 0 2.83465,0 1.417325,1.417325 0 1 0 -2.83465,0 z m -7.2,0 a 1.417325,1.417325 0 1 0 2.83465,0 1.417325,1.417325 0 1 0 -2.83465,0 z m -7.2,0 a 1.417325,1.417325 0 1 0 2.83465,0 1.417325,1.417325 0 1 0 -2.83465,0 z m -7.20002,0 a 1.417325,1.417325 0 1 0 2.83465,0 1.417325,1.417325 0 1 0 -2.83465,0 z M 68.4567,7.2 a 3.54331,3.54331 0 1 0 7.08661,0 3.54331,3.54331 0 1 0 -7.08661,0 z m -64.80001,0 a 3.54331,3.54331 0 1 0 7.08661,0 3.54331,3.54331 0 1 0 -7.08661,0 z" />
        <g gorn="0.4.1" id="g10" >
            <title id="title12" >layer 21</title>
            <g gorn="0.4.1.1" id="g14" >
                <title id="title16" >text:A3</title>
                <g transform="translate(73.9008,34.56)" >
                    <g >
                        <g gorn="0.4.1.1.1.0.0" id="g18" >
                            <g transform="matrix(0,-1,1,0,0,0)" >
                                <g >
                                    <g gorn="0.4.1.1.1.0.0.0.0.0" id="g20" >
                                        <text gorn="0.4.1.1.1.0.0.0.0.0.0" x="0" style="font-size:3.34080005px;font-family:OCRA;text-anchor:end;fill:#ffffff;stroke:none;stroke-width:0" id="text22" y="0" font-size="3.3408" >A3</text>
                                    </g>
                                </g>
                            </g>
                        </g>
                    </g>
                </g>
            </g>
            <g gorn="0.4.1.2" id="g24" >
                <title id="title26" >text:A2</title>
                <g transform="translate(66.7008,34.56)" >
                    <g >
                        <g gorn="0.4.1.2.1.0.0" id="g28" >
                            <g transform="matrix(0,-1,1,0,0,0)" >
                                <g >
                                    <g gorn="0.4.1.2.1.0.0.0.0.0" id="g30" >
                                        <text gorn="0.4.1.2.1.0.0.0.0.0.0" x="0" style="font-size:3.34080005px;font-family:OCRA;text-anchor:end;fill:#ffffff;stroke:none;stroke-width:0" id="text32" y="0" font-size="3.3408" >A2</text>
                                    </g>
                                </g>
                            </g>
                        </g>
                    </g>
                </g>
            </g>
            <g gorn="0.4.1.3" id="g34" >
                <title id="title36" >text:A1</title>
                <g transform="translate(59.5008,34.56)" >
                    <g >
                        <g gorn="0.4.1.3.1.0.0" id="g38" >
                            <g transform="matrix(0,-1,1,0,0,0)" >
                                <g >
                                    <g gorn="0.4.1.3.1.0.0.0.0.0" id="g40" >
                                        <text gorn="0.4.1.3.1.0.0.0.0.0.0" x="0" style="font-size:3.34080005px;font-family:OCRA;text-anchor:end;fill:#ffffff;stroke:none;stroke-width:0" id="text42" y="0" font-size="3.3408" >A1</text>
                                    </g>
                                </g>
                            </g>
                        </g>
                    </g>
                </g>
            </g>
            <g gorn="0.4.1.4" id="g44" >
                <title id="title46" >text:A0</title>
                <g transform="translate(52.3008,34.56)" >
                    <g >
                        <g gorn="0.4.1.4.1.0.0" id="g48" >
                            <g transform="matrix(0,-1,1,0,0,0)" >
                                <g >
                                    <g gorn="0.4.1.4.1.0.0.0.0.0" id="g50" >
                                        <text gorn="0.4.1.4.1.0.0.0.0.0.0" x="0" style="font-size:3.34080005px;font-family:OCRA;text-anchor:end;fill:#ffffff;stroke:none;stroke-width:0" id="text52" y="0" font-size="3.3408" >A0</text>
                                    </g>
                                </g>
                            </g>
                        </g>
                    </g>
                </g>
            </g>
            <g gorn="0.4.1.5" id="g54" >
                <title id="title56" >text:ALRT</title>
                <g transform="translate(45.1008,29.52)" >
                    <g >
                        <g gorn="0.4.1.5.1.0.0" id="g58" >
                            <g transform="matrix(0,-1,1,0,0,0)" >
                                <g >
                                    <g gorn="0.4.1.5.1.0.0.0.0.0" id="g60" >
                                        <text gorn="0.4.1.5.1.0.0.0.0.0.0" x="0" style="font-size:3.34080005px;font-family:OCRA;text-anchor:end;fill:#ffffff;stroke:none;stroke-width:0" id="text62" y="0" font-size="3.3408" >ALRT</text>
                                    </g>
                                </g>
                            </g>
                        </g>
                    </g>
                </g>
            </g>
            <g gorn="0.4.1.6" id="g64" >
                <title id="title66" >text:ADDR</title>
                <g transform="translate(37.9008,29.52)" >
                    <g >
                        <g gorn="0.4.1.6.1.0.0" id="g68" >
                            <g transform="matrix(0,-1,1,0,0,0)" >
                                <g >
                                    <g gorn="0.4.1.6.1.0.0.0.0.0" id="g70" >
                                        <text gorn="0.4.1.6.1.0.0.0.0.0.0" x="0" style="font-size:3.34080005px;font-family:OCRA;text-anchor:end;fill:#ffffff;stroke:none;stroke-width:0" id="text72" y="0" font-size="3.3408" >ADDR</text>
                                    </g>
                                </g>
                            </g>
                        </g>
                    </g>
                </g>
            </g>
            <g gorn="0.4.1.7" id="g74" >
                <title id="title76" >text:SDA</title>
                <g transform="translate(30.7008,31.68)" >
                    <g >
                        <g gorn="0.4.1.7.1.0.0" id="g78" >
                            <g transform="matrix(0,-1,1,0,0,0)" >
                                <g >
                                    <g gorn="0.4.1.7.1.0.0.0.0.0" id="g80" >
                                        <text gorn="0.4.1.7.1.0.0.0.0.0.0" x="0" style="font-size:3.34080005px;font-family:OCRA;text-anchor:end;fill:#ffffff;stroke:none;stroke-width:0" id="text82" y="0" font-size="3.3408" >SDA</text>
                                    </g>
                                </g>
                            </g>
                        </g>
                    </g>
                </g>
            </g>
            <g gorn="0.4.1.8" id="g84" >
                <title id="title86" >text:SCL</title>
                <g transform="translate(24.2208,31.68)" >
                    <g >
                        <g gorn="0.4.1.8.1.0.0" id="g88" >
                            <g transform="matrix(0,-1,1,0,0,0)" >
                                <g >
                                    <g gorn="0.4.1.8.1.0.0.0.0.0" id="g90" >
                                        <text gorn="0.4.1.8.1.0.0.0.0.0.0" x="0" style="font-size:3.34080005px;font-family:OCRA;text-anchor:end;fill:#ffffff;stroke:none;stroke-width:0" id="text92" y="0" font-size="3.3408" >SCL</text>
                                    </g>
                                </g>
                            </g>
                        </g>
                    </g>
                </g>
            </g>
            <g gorn="0.4.1.9" id="g94" >
                <title id="title96" >text:GND</title>
                <g transform="translate(16.3008,31.68)" >
                    <g >
                        <g gorn="0.4.1.9.1.0.0" id="g98" >
                            <g transform="matrix(0,-1,1,0,0,0)" >
                                <g >
                                    <g gorn="0.4.1.9.1.0.0.0.0.0" id="g100" >
                                        <text gorn="0.4.1.9.1.0.0.0.0.0.0" x="0" style="font-size:3.34080005px;font-family:OCRA;text-anchor:end;fill:#ffffff;stroke:none;stroke-width:0" id="text102" y="0" font-size="3.3408" >GND</text>
                                    </g>
                                </g>
                            </g>
                        </g>
                    </g>
                </g>
            </g>
            <g gorn="0.4.1.10" id="g104" >
                <title id="title106" >text:VDD</title>
                <g transform="translate(9.1008,31.68)" >
                    <g >
                        <g gorn="0.4.1.10.1.0.0" id="g108" >
                            <g transform="matrix(0,-1,1,0,0,0)" >
                                <g >
                                    <g gorn="0.4.1.10.1.0.0.0.0.0" id="g110" >
                                        <text gorn="0.4.1.10.1.0.0.0.0.0.0" x="0" style="font-size:3.34080005px;font-family:OCRA;text-anchor:end;fill:#ffffff;stroke:none;stroke-width:0" id="text112" y="0" font-size="3.3408" >VDD</text>
                                    </g>
                                </g>
                            </g>
                        </g>
                    </g>
                </g>
            </g>
            <g gorn="0.4.1.11" id="g114" >
                <title id="title116" >text:ADS1115</title>
                <text gorn="0.4.1.11.1" x="23.76" style="font-size:4.17600012px;font-family:OCRA;text-anchor:start;fill:#ffffff;stroke:none;stroke-width:0" id="text118" y="10.8" font-size="4.176" >ADS1115</text>
            </g>
            <g gorn="0.4.1.12" id="g120" >
                <title id="title122" >text:16Bit I2C ADC+PGA</title>
                <text gorn="0.4.1.12.1" x="13.68" style="font-size:4.17600012px;font-family:OCRA;text-anchor:start;fill:#ffffff;stroke:none;stroke-width:0" id="text124" y="5.7600002" font-size="4.176" >16Bit I2C ADC+PGA</text>
            </g>
            <g gorn="0.4.1.13" id="g126" >
                <title id="title128" >element:C1</title>
                <g gorn="0.4.1.13.1" id="g130" >
                    <title id="title132" >package:0805</title>
                    <line gorn="0.4.1.13.1.1" y2="16.231199" style="stroke:#ffffff;stroke-width:0.36000001;stroke-linecap:round" id="line134" y1="11.1288" x2="66.302399"  x1="66.302399"/>
                    <line gorn="0.4.1.13.1.2" y2="16.231199" style="stroke:#ffffff;stroke-width:0.36000001;stroke-linecap:round" id="line136" y1="16.231199" x2="56.097599"  x1="66.302399"/>
                    <line gorn="0.4.1.13.1.3" y2="11.1288" style="stroke:#ffffff;stroke-width:0.36000001;stroke-linecap:round" id="line138" y1="16.231199" x2="56.097599"  x1="56.097599"/>
                    <line gorn="0.4.1.13.1.4" y2="11.1288" style="stroke:#ffffff;stroke-width:0.36000001;stroke-linecap:round" id="line140" y1="11.1288" x2="66.302399"  x1="56.097599"/>
                </g>
            </g>
            <g gorn="0.4.1.14" id="g142" >
                <title id="title144" >element:C2</title>
                <g gorn="0.4.1.14.1" id="g146" >
                    <title id="title148" >package:0805</title>
                    <line gorn="0.4.1.14.1.1" y2="30.631201" style="stroke:#ffffff;stroke-width:0.36000001;stroke-linecap:round" id="line150" y1="25.528799" x2="15.9024"  x1="15.9024"/>
                    <line gorn="0.4.1.14.1.2" y2="30.631201" style="stroke:#ffffff;stroke-width:0.36000001;stroke-linecap:round" id="line152" y1="30.631201" x2="5.6976399"  x1="15.9024"/>
                    <line gorn="0.4.1.14.1.3" y2="25.528799" style="stroke:#ffffff;stroke-width:0.36000001;stroke-linecap:round" id="line154" y1="30.631201" x2="5.6976399"  x1="5.6976399"/>
                    <line gorn="0.4.1.14.1.4" y2="25.528799" style="stroke:#ffffff;stroke-width:0.36000001;stroke-linecap:round" id="line156" y1="25.528799" x2="15.9024"  x1="5.6976399"/>
                </g>
            </g>
            <g gorn="0.4.1.15" id="g158" >
                <title id="title160" >element:FB1</title>
                <g gorn="0.4.1.15.1" id="g162" >
                    <title id="title164" >package:0805</title>
                    <line gorn="0.4.1.15.1.1" y2="14.3376" style="stroke:#ffffff;stroke-width:0.36000001;stroke-linecap:round" id="line166" y1="14.3376" x2="10.4712"  x1="5.3688202"/>
                    <line gorn="0.4.1.15.1.2" y2="24.5424" style="stroke:#ffffff;stroke-width:0.36000001;stroke-linecap:round" id="line168" y1="14.3376" x2="10.4712"  x1="10.4712"/>
                    <line gorn="0.4.1.15.1.3" y2="24.5424" style="stroke:#ffffff;stroke-width:0.36000001;stroke-linecap:round" id="line170" y1="24.5424" x2="5.3688202"  x1="10.4712"/>
                    <line gorn="0.4.1.15.1.4" y2="14.3376" style="stroke:#ffffff;stroke-width:0.36000001;stroke-linecap:round" id="line172" y1="24.5424" x2="5.3688202"  x1="5.3688202"/>
                </g>
            </g>
            <g gorn="0.4.1.16" id="g174" >
                <title id="title176" >element:FB2</title>
                <g gorn="0.4.1.16.1" id="g178" >
                    <title id="title180" >package:0805</title>
                    <line gorn="0.4.1.16.1.1" y2="14.3376" style="stroke:#ffffff;stroke-width:0.36000001;stroke-linecap:round" id="line182" y1="14.3376" x2="16.9512"  x1="11.8488"/>
                    <line gorn="0.4.1.16.1.2" y2="24.5424" style="stroke:#ffffff;stroke-width:0.36000001;stroke-linecap:round" id="line184" y1="14.3376" x2="16.9512"  x1="16.9512"/>
                    <line gorn="0.4.1.16.1.3" y2="24.5424" style="stroke:#ffffff;stroke-width:0.36000001;stroke-linecap:round" id="line186" y1="24.5424" x2="11.8488"  x1="16.9512"/>
                    <line gorn="0.4.1.16.1.4" y2="14.3376" style="stroke:#ffffff;stroke-width:0.36000001;stroke-linecap:round" id="line188" y1="24.5424" x2="11.8488"  x1="11.8488"/>
                </g>
            </g>
            <g gorn="0.4.1.17" id="g190" >
                <title id="title192" >element:FID1</title>
                <g gorn="0.4.1.17.1" id="g194" >
                    <title id="title196" >package:FIDUCIAL_1MM</title>
                </g>
            </g>
            <g gorn="0.4.1.18" id="g198" >
                <title id="title200" >element:FID2</title>
                <g gorn="0.4.1.18.1" id="g202" >
                    <title id="title204" >package:FIDUCIAL_1MM</title>
                </g>
            </g>
            <g gorn="0.4.1.19" id="g206" >
                <title id="title208" >element:JP1</title>
                <g gorn="0.4.1.19.1" id="g210" >
                    <title id="title212" >package:1X10_ROUND70</title>
                </g>
            </g>
            <g gorn="0.4.1.20" id="g214" >
                <title id="title216" >element:R1</title>
                <g gorn="0.4.1.20.1" id="g218" >
                    <title id="title220" >package:0805</title>
                    <line gorn="0.4.1.20.1.1" y2="24.5424" style="stroke:#ffffff;stroke-width:0.36000001;stroke-linecap:round" id="line222" y1="24.5424" x2="19.0488"  x1="24.151199"/>
                    <line gorn="0.4.1.20.1.2" y2="14.3376" style="stroke:#ffffff;stroke-width:0.36000001;stroke-linecap:round" id="line224" y1="24.5424" x2="19.0488"  x1="19.0488"/>
                    <line gorn="0.4.1.20.1.3" y2="14.3376" style="stroke:#ffffff;stroke-width:0.36000001;stroke-linecap:round" id="line226" y1="14.3376" x2="24.151199"  x1="19.0488"/>
                    <line gorn="0.4.1.20.1.4" y2="24.5424" style="stroke:#ffffff;stroke-width:0.36000001;stroke-linecap:round" id="line228" y1="14.3376" x2="24.151199"  x1="24.151199"/>
                </g>
            </g>
            <g gorn="0.4.1.21" id="g230" >
                <title id="title232" >element:R2</title>
                <g gorn="0.4.1.21.1" id="g234" >
                    <title id="title236" >package:0805</title>
                    <line gorn="0.4.1.21.1.1" y2="24.5424" style="stroke:#ffffff;stroke-width:0.36000001;stroke-linecap:round" id="line238" y1="24.5424" x2="26.2488"  x1="31.3512"/>
                    <line gorn="0.4.1.21.1.2" y2="14.3376" style="stroke:#ffffff;stroke-width:0.36000001;stroke-linecap:round" id="line240" y1="24.5424" x2="26.2488"  x1="26.2488"/>
                    <line gorn="0.4.1.21.1.3" y2="14.3376" style="stroke:#ffffff;stroke-width:0.36000001;stroke-linecap:round" id="line242" y1="14.3376" x2="31.3512"  x1="26.2488"/>
                    <line gorn="0.4.1.21.1.4" y2="24.5424" style="stroke:#ffffff;stroke-width:0.36000001;stroke-linecap:round" id="line244" y1="14.3376" x2="31.3512"  x1="31.3512"/>
                </g>
            </g>
            <g gorn="0.4.1.22" id="g246" >
                <title id="title248" >element:R3</title>
                <g gorn="0.4.1.22.1" id="g250" >
                    <title id="title252" >package:0805</title>
                    <line gorn="0.4.1.22.1.1" y2="14.3376" style="stroke:#ffffff;stroke-width:0.36000001;stroke-linecap:round" id="line254" y1="14.3376" x2="38.551201"  x1="33.448799"/>
                    <line gorn="0.4.1.22.1.2" y2="24.5424" style="stroke:#ffffff;stroke-width:0.36000001;stroke-linecap:round" id="line256" y1="14.3376" x2="38.551201"  x1="38.551201"/>
                    <line gorn="0.4.1.22.1.3" y2="24.5424" style="stroke:#ffffff;stroke-width:0.36000001;stroke-linecap:round" id="line258" y1="24.5424" x2="33.448799"  x1="38.551201"/>
                    <line gorn="0.4.1.22.1.4" y2="14.3376" style="stroke:#ffffff;stroke-width:0.36000001;stroke-linecap:round" id="line260" y1="24.5424" x2="33.448799"  x1="33.448799"/>
                </g>
            </g>
            <g gorn="0.4.1.23" id="g262" >
                <title id="title264" >element:R4</title>
                <g gorn="0.4.1.23.1" id="g266" >
                    <title id="title268" >package:0805</title>
                    <line gorn="0.4.1.23.1.1" y2="24.5424" style="stroke:#ffffff;stroke-width:0.36000001;stroke-linecap:round" id="line270" y1="24.5424" x2="40.6488"  x1="45.751202"/>
                    <line gorn="0.4.1.23.1.2" y2="14.3376" style="stroke:#ffffff;stroke-width:0.36000001;stroke-linecap:round" id="line272" y1="24.5424" x2="40.6488"  x1="40.6488"/>
                    <line gorn="0.4.1.23.1.3" y2="14.3376" style="stroke:#ffffff;stroke-width:0.36000001;stroke-linecap:round" id="line274" y1="14.3376" x2="45.751202"  x1="40.6488"/>
                    <line gorn="0.4.1.23.1.4" y2="24.5424" style="stroke:#ffffff;stroke-width:0.36000001;stroke-linecap:round" id="line276" y1="14.3376" x2="45.751202"  x1="45.751202"/>
                </g>
            </g>
            <g gorn="0.4.1.24" id="g278" >
                <title id="title280" >element:U$13</title>
                <g gorn="0.4.1.24.1" id="g282" >
                    <title id="title284" >package:MOUNTINGHOLE_2.5_PLATED</title>
                    <circle cx="72" gorn="0.4.1.24.1.1" style="fill:none;stroke:#ffffff;stroke-width:0.43200001" id="circle286" cy="7.1999998" r="4.9606299" />
                </g>
            </g>
            <g gorn="0.4.1.25" id="g288" >
                <title id="title290" >element:U$14</title>
                <g gorn="0.4.1.25.1" id="g292" >
                    <title id="title294" >package:MOUNTINGHOLE_2.5_PLATED</title>
                    <circle cx="7.1999998" gorn="0.4.1.25.1.1" style="fill:none;stroke:#ffffff;stroke-width:0.43200001" id="circle296" cy="7.1999998" r="4.9606299" />
                </g>
            </g>
            <g gorn="0.4.1.26" id="g298" >
                <title id="title300" >element:U$15</title>
                <g gorn="0.4.1.26.1" id="g302" >
                    <title id="title304" >package:ADAFRUIT_TEXT_20MM</title>
                </g>
            </g>
            <g gorn="0.4.1.27" id="g306" >
                <title id="title308" >element:U$16</title>
                <g gorn="0.4.1.27.1" id="g310" >
                    <title id="title312" >package:ADAFRUIT_2.5MM</title>
                </g>
            </g>
            <g gorn="0.4.1.28" id="g314" >
                <title id="title316" >element:U1</title>
                <g gorn="0.4.1.28.1" id="g318" >
                    <title id="title320" >package:MSOP10</title>
                    <line gorn="0.4.1.28.1.1" y2="25.568501" style="stroke:#ffffff;stroke-width:0.57599998;stroke-linecap:round" id="line322" y1="17.6315" x2="65.168503"  x1="65.168503"/>
                    <line gorn="0.4.1.28.1.2" y2="25.568501" style="stroke:#ffffff;stroke-width:0.57599998;stroke-linecap:round" id="line324" y1="25.568501" x2="57.231499"  x1="65.168503"/>
                    <line gorn="0.4.1.28.1.3" y2="17.6315" style="stroke:#ffffff;stroke-width:0.57599998;stroke-linecap:round" id="line326" y1="25.568501" x2="57.231499"  x1="57.231499"/>
                    <line gorn="0.4.1.28.1.4" y2="17.6315" style="stroke:#ffffff;stroke-width:0.57599998;stroke-linecap:round" id="line328" y1="17.6315" x2="65.168503"  x1="57.231499"/>
                    <path gorn="0.4.1.28.1.5" style="fill:none;stroke:#ffffff;stroke-width:0.57599998" id="path330" d="m 59.7827,19.3323 a 0.8504,0.8504 0 1 0 -1.7008,0" />
                    <line gorn="0.4.1.28.1.6" y2="19.3323" style="stroke:#ffffff;stroke-width:0.57599998;stroke-linecap:round" id="line332" y1="19.3323" x2="58.081902"  x1="59.7827"/>
                </g>
            </g>
        </g>
        <rect gorn="0.4.2" x="56.6646" height="4.2519698" style="fill:#9a916c;stroke:none;stroke-width:0" id="connector0pin" y="11.554"  width="3.68504"/>
        <rect gorn="0.4.3" x="62.0504" height="4.2519698" style="fill:#9a916c;stroke:none;stroke-width:0" id="connector1pin" y="11.554"  width="3.68504"/>
        <rect gorn="0.4.4" x="6.2645702" height="4.2519698" style="fill:#9a916c;stroke:none;stroke-width:0" id="connector2pin" y="25.954"  width="3.68504"/>
        <rect gorn="0.4.5" x="11.6504" height="4.2519698" style="fill:#9a916c;stroke:none;stroke-width:0" id="connector3pin" y="25.954"  width="3.68504"/>
        <g transform="matrix(0,-1,1,0,-14.2129,30.0529)" >
            <g >
                <g gorn="0.4.6.0.0" id="g338" >
                    <rect gorn="0.4.6.0.0.0" x="6.0774798" height="4.2519698" style="fill:#9a916c;stroke:none;stroke-width:0" id="connector4pin" y="20.006901"  width="3.68504"/>
                </g>
            </g>
        </g>
        <g transform="matrix(0,-1,1,0,-8.82706,24.6671)" >
            <g >
                <g gorn="0.4.7.0.0" id="g341" >
                    <rect gorn="0.4.7.0.0.0" x="6.0774798" height="4.2519698" style="fill:#9a916c;stroke:none;stroke-width:0" id="connector5pin" y="14.6211"  width="3.68504"/>
                </g>
            </g>
        </g>
        <g transform="matrix(0,-1,1,0,-7.73294,36.5329)" >
            <g >
                <g gorn="0.4.8.0.0" id="g344" >
                    <rect gorn="0.4.8.0.0.0" x="12.5574" height="4.2519698" style="fill:#9a916c;stroke:none;stroke-width:0" id="connector6pin" y="20.006901"  width="3.68504"/>
                </g>
            </g>
        </g>
        <g transform="matrix(0,-1,1,0,-2.34708,31.1471)" >
            <g >
                <g gorn="0.4.9.0.0" id="g347" >
                    <rect gorn="0.4.9.0.0.0" x="12.5574" height="4.2519698" style="fill:#9a916c;stroke:none;stroke-width:0" id="connector7pin" y="14.6211"  width="3.68504"/>
                </g>
            </g>
        </g>
        <g transform="matrix(-1,0,0,-1,149.76,63.36)" >
            <g >
                <g gorn="0.4.10.0.0" id="g350" >
                    <rect gorn="0.4.10.0.0.0" rx="1.41732" x="73.462303" height="2.83465" style="fill:#9a916c;stroke:none;stroke-width:0" ry="1.41732" id="connector8pin" y="30.262699"  width="2.83465"/>
                </g>
            </g>
        </g>
        <g transform="matrix(-1,0,0,-1,99.36,19.44)" >
            <g >
                <g gorn="0.4.11.0.0" id="g353" >
                    <rect gorn="0.4.11.0.0.0" rx="1.41732" x="48.262699" height="2.83465" style="fill:#9a916c;stroke:none;stroke-width:0" ry="1.41732" id="connector9pin" y="8.30268"  width="2.83465"/>
                </g>
            </g>
        </g>
        <circle cx="72" gorn="0.4.12" style="fill:none;stroke:#9a916c;stroke-width:1.10267997" id="connector10pin" cy="43.200001" connectorname="AIN3" r="1.96866" />
        <circle cx="64.800003" gorn="0.4.13" style="fill:none;stroke:#9a916c;stroke-width:1.10267997" id="connector11pin" cy="43.200001" connectorname="AIN2" r="1.96866" />
        <circle cx="57.599998" gorn="0.4.14" style="fill:none;stroke:#9a916c;stroke-width:1.10267997" id="connector12pin" cy="43.200001" connectorname="AIN1" r="1.96866" />
        <circle cx="50.400002" gorn="0.4.15" style="fill:none;stroke:#9a916c;stroke-width:1.10267997" id="connector13pin" cy="43.200001" connectorname="AIN0" r="1.96866" />
        <circle cx="43.200001" gorn="0.4.16" style="fill:none;stroke:#9a916c;stroke-width:1.10267997" id="connector14pin" cy="43.200001" connectorname="ALERT" r="1.96866" />
        <circle cx="36" gorn="0.4.17" style="fill:none;stroke:#9a916c;stroke-width:1.10267997" id="connector15pin" cy="43.200001" connectorname="ADDR" r="1.96866" />
        <rect stroke-width="0" gorn="0.4.18" x="35.995" height="0.01008" id="connector15terminal" stroke="none" y="45.715"  fill="none" width="0.01008"/>
        <circle cx="28.799999" gorn="0.4.19" style="fill:none;stroke:#9a916c;stroke-width:1.10267997" id="connector16pin" cy="43.200001" connectorname="SDA" r="1.96866" />
        <rect stroke-width="0" gorn="0.4.20" x="28.795" height="0.01008" id="connector16terminal" stroke="none" y="45.715"  fill="none" width="0.01008"/>
        <circle cx="21.6" gorn="0.4.21" style="fill:none;stroke:#9a916c;stroke-width:1.10267997" id="connector17pin" cy="43.200001" connectorname="SCL" r="1.96866" />
        <rect stroke-width="0" gorn="0.4.22" x="21.595" height="0.01008" id="connector17terminal" stroke="none" y="45.715"  fill="none" width="0.01008"/>
        <circle cx="14.4" gorn="0.4.23" style="fill:none;stroke:#9a916c;stroke-width:1.10267997" id="connector18pin" cy="43.200001" connectorname="GND" r="1.96866" />
        <rect stroke-width="0" gorn="0.4.24" x="14.395" height="0.01008" id="connector18terminal" stroke="none" y="45.715"  fill="none" width="0.01008"/>
        <circle cx="7.1999998" gorn="0.4.25" style="fill:none;stroke:#9a916c;stroke-width:1.10267997" id="connector19pin" cy="43.200001" connectorname="VDD" r="1.96866" />
        <rect stroke-width="0" gorn="0.4.26" x="7.19496" height="0.01008" id="connector19terminal" stroke="none" y="45.715"  fill="none" width="0.01008"/>
        <g transform="matrix(0,1,-1,0,38.3471,-4.85292)" >
            <g >
                <g gorn="0.4.27.0.0" id="g366" >
                    <rect gorn="0.4.27.0.0.0" x="19.757401" height="4.2519698" style="fill:#9a916c;stroke:none;stroke-width:0" id="connector20pin" y="14.6211"  width="3.68504"/>
                </g>
            </g>
        </g>
        <g transform="matrix(0,1,-1,0,43.7329,0.532913)" >
            <g >
                <g gorn="0.4.28.0.0" id="g369" >
                    <rect gorn="0.4.28.0.0.0" x="19.757401" height="4.2519698" style="fill:#9a916c;stroke:none;stroke-width:0" id="connector21pin" y="20.006901"  width="3.68504"/>
                </g>
            </g>
        </g>
        <g transform="matrix(0,1,-1,0,45.5471,-12.0529)" >
            <g >
                <g gorn="0.4.29.0.0" id="g372" >
                    <rect gorn="0.4.29.0.0.0" x="26.957399" height="4.2519698" style="fill:#9a916c;stroke:none;stroke-width:0" id="connector22pin" y="14.6211"  width="3.68504"/>
                </g>
            </g>
        </g>
        <g transform="matrix(0,1,-1,0,50.9329,-6.66708)" >
            <g >
                <g gorn="0.4.30.0.0" id="g375" >
                    <rect gorn="0.4.30.0.0.0" x="26.957399" height="4.2519698" style="fill:#9a916c;stroke:none;stroke-width:0" id="connector23pin" y="20.006901"  width="3.68504"/>
                </g>
            </g>
        </g>
        <g transform="matrix(0,-1,1,0,13.8671,58.1329)" >
            <g >
                <g gorn="0.4.31.0.0" id="g378" >
                    <rect gorn="0.4.31.0.0.0" x="34.157398" height="4.2519698" style="fill:#9a916c;stroke:none;stroke-width:0" id="connector24pin" y="20.006901"  width="3.68504"/>
                </g>
            </g>
        </g>
        <g transform="matrix(0,-1,1,0,19.2529,52.7471)" >
            <g >
                <g gorn="0.4.32.0.0" id="g381" >
                    <rect gorn="0.4.32.0.0.0" x="34.157398" height="4.2519698" style="fill:#9a916c;stroke:none;stroke-width:0" id="connector25pin" y="14.6211"  width="3.68504"/>
                </g>
            </g>
        </g>
        <g transform="matrix(0,1,-1,0,59.9471,-26.4529)" >
            <g >
                <g gorn="0.4.33.0.0" id="g384" >
                    <rect gorn="0.4.33.0.0.0" x="41.357399" height="4.2519698" style="fill:#9a916c;stroke:none;stroke-width:0" id="connector26pin" y="14.6211"  width="3.68504"/>
                </g>
            </g>
        </g>
        <g transform="matrix(0,1,-1,0,65.3329,-21.0671)" >
            <g >
                <g gorn="0.4.34.0.0" id="g387" >
                    <rect gorn="0.4.34.0.0.0" x="41.357399" height="4.2519698" style="fill:#9a916c;stroke:none;stroke-width:0" id="connector27pin" y="20.006901"  width="3.68504"/>
                </g>
            </g>
        </g>
        <circle cx="72" gorn="0.4.35" style="fill:none;stroke:#9a916c;stroke-width:0.99212402" id="connector28pin" cy="7.1999998" connectorname="P$1" r="4.0393701" />
        <circle cx="7.1999998" gorn="0.4.36" style="fill:none;stroke:#9a916c;stroke-width:0.99212402" id="connector29pin" cy="7.1999998" connectorname="P$1" r="4.0393701" />
        <g transform="matrix(0,1,-1,0,73.9757,-36.4447)" >
            <g >
                <g gorn="0.4.37.0.0" id="g392" >
                    <rect gorn="0.4.37.0.0.0" x="54.855801" height="2.83465" style="fill:#9a916c;stroke:none;stroke-width:0" id="connector30pin" y="17.348"  width="0.70866102"/>
                </g>
            </g>
        </g>
        <g transform="matrix(0,1,-1,0,75.3926,-35.0274)" >
            <g >
                <g gorn="0.4.38.0.0" id="g395" >
                    <rect gorn="0.4.38.0.0.0" x="54.855801" height="2.83465" style="fill:#9a916c;stroke:none;stroke-width:0" id="connector31pin" y="18.7654"  width="0.70866102"/>
                </g>
            </g>
        </g>
        <g transform="matrix(0,1,-1,0,76.8103,-33.6101)" >
            <g >
                <g gorn="0.4.39.0.0" id="g398" >
                    <rect gorn="0.4.39.0.0.0" x="54.855801" height="2.83465" style="fill:#9a916c;stroke:none;stroke-width:0" id="connector32pin" y="20.182699"  width="0.70866102"/>
                </g>
            </g>
        </g>
        <g transform="matrix(0,1,-1,0,78.2273,-32.1928)" >
            <g >
                <g gorn="0.4.40.0.0" id="g401" >
                    <rect gorn="0.4.40.0.0.0" x="54.855801" height="2.83465" style="fill:#9a916c;stroke:none;stroke-width:0" id="connector33pin" y="21.6"  width="0.70866102"/>
                </g>
            </g>
        </g>
        <g transform="matrix(0,1,-1,0,79.645,-30.7755)" >
            <g >
                <g gorn="0.4.41.0.0" id="g404" >
                    <rect gorn="0.4.41.0.0.0" x="54.855801" height="2.83465" style="fill:#9a916c;stroke:none;stroke-width:0" id="connector34pin" y="23.0173"  width="0.70866102"/>
                </g>
            </g>
        </g>
        <g transform="matrix(0,-1,1,0,42.7553,91.6243)" >
            <g >
                <g gorn="0.4.42.0.0" id="g407" >
                    <rect gorn="0.4.42.0.0.0" x="66.835602" height="2.83465" style="fill:#9a916c;stroke:none;stroke-width:0" id="connector35pin" y="23.0173"  width="0.70866102"/>
                </g>
            </g>
        </g>
        <g transform="matrix(0,-1,1,0,44.1726,90.2074)" >
            <g >
                <g gorn="0.4.43.0.0" id="g410" >
                    <rect gorn="0.4.43.0.0.0" x="66.835602" height="2.83465" style="fill:#9a916c;stroke:none;stroke-width:0" id="connector36pin" y="21.6"  width="0.70866102"/>
                </g>
            </g>
        </g>
        <g transform="matrix(0,-1,1,0,45.5899,88.7897)" >
            <g >
                <g gorn="0.4.44.0.0" id="g413" >
                    <rect gorn="0.4.44.0.0.0" x="66.835602" height="2.83465" style="fill:#9a916c;stroke:none;stroke-width:0" id="connector37pin" y="20.182699"  width="0.70866102"/>
                </g>
            </g>
        </g>
        <g transform="matrix(0,-1,1,0,47.0072,87.3727)" >
            <g >
                <g gorn="0.4.45.0.0" id="g416" >
                    <rect gorn="0.4.45.0.0.0" x="66.835602" height="2.83465" style="fill:#9a916c;stroke:none;stroke-width:0" id="connector38pin" y="18.7654"  width="0.70866102"/>
                </g>
            </g>
        </g>
        <g transform="matrix(0,-1,1,0,48.4245,85.955)" >
            <g >
                <g gorn="0.4.46.0.0" id="g419" >
                    <rect gorn="0.4.46.0.0.0" x="66.835602" height="2.83465" style="fill:#9a916c;stroke:none;stroke-width:0" id="connector39pin" y="17.348"  width="0.70866102"/>
                </g>
            </g>
        </g>
    </g>
    <g transform="translate(58.688667,11.8125)" >
        <g >
            <g gorn="0.5.0.0" id="0805-cap" >
                <path gorn="0.5.0.0.0" style="fill:#dcdcdc" id="path423" d="m 5.386,3.543 -5.103,0 C 0.127,3.543 0,3.416 0,3.26 L 0,0.283 C 0,0.127 0.127,0 0.283,0 l 5.102,0 c 0.157,0 0.283,0.127 0.283,0.283 l 0,2.977 C 5.669,3.416 5.542,3.543 5.386,3.543 Z" />
                <rect gorn="0.5.0.0.1" x="1.063" height="3.543" style="fill:#6e554b" id="rect425" y="0"  width="3.543"/>
            </g>
        </g>
    </g>
    <g transform="translate(8.1080124,26.2125)" >
        <g >
            <g gorn="0.6.0.0" id="g427" >
                <path gorn="0.6.0.0.0" style="fill:#dcdcdc" id="path429" d="m 5.386,3.543 -5.103,0 C 0.127,3.543 0,3.416 0,3.26 L 0,0.283 C 0,0.127 0.127,0 0.283,0 l 5.102,0 c 0.157,0 0.283,0.127 0.283,0.283 l 0,2.977 C 5.669,3.416 5.542,3.543 5.386,3.543 Z" />
                <rect gorn="0.6.0.0.1" x="1.063" height="3.543" style="fill:#6e554b" id="rect431" y="0"  width="3.543"/>
            </g>
        </g>
    </g>
    <g transform="translate(4.98951,17.708152)" >
        <g >
            <g gorn="0.7.0.0" id="0805" >
                <g transform="matrix(0,-1,1,0,1.063,4.606)" >
                    <g >
                        <g gorn="0.7.0.0.0.0.0" id="g434" >
                            <path gorn="0.7.0.0.0.0.0.0" style="fill:#dcdcdc" id="path436" d="m 5.386,3.543 -5.103,0 C 0.127,3.543 0,3.416 0,3.26 L 0,0.283 C 0,0.127 0.127,0 0.283,0 l 5.102,0 c 0.157,0 0.283,0.127 0.283,0.283 l 0,2.977 C 5.669,3.416 5.542,3.543 5.386,3.543 Z" />
                            <rect gorn="0.7.0.0.0.0.0.1" x="1.063" height="3.543" style="fill:#333333" id="rect438" y="0"  width="3.543"/>
                        </g>
                    </g>
                </g>
            </g>
        </g>
    </g>
    <g transform="translate(11.4695,17.915267)" >
        <g >
            <g gorn="0.8.0.0" id="g440" >
                <g transform="matrix(0,-1,1,0,1.063,4.606)" >
                    <g >
                        <g gorn="0.8.0.0.0.0.0" id="g442" >
                            <path gorn="0.8.0.0.0.0.0.0" style="fill:#dcdcdc" id="path444" d="m 5.386,3.543 -5.103,0 C 0.127,3.543 0,3.416 0,3.26 L 0,0.283 C 0,0.127 0.127,0 0.283,0 l 5.102,0 c 0.157,0 0.283,0.127 0.283,0.283 l 0,2.977 C 5.669,3.416 5.542,3.543 5.386,3.543 Z" />
                            <rect gorn="0.8.0.0.0.0.0.1" x="1.063" height="3.543" style="fill:#333333" id="rect446" y="0"  width="3.543"/>
                        </g>
                    </g>
                </g>
            </g>
        </g>
    </g>
    <g transform="translate(18.680846,17.991667)" >
        <g >
            <g gorn="0.9.0.0" id="0805-res" >
                <g transform="matrix(0,1,-1,0,4.606,-1.063)" >
                    <g >
                        <g gorn="0.9.0.0.0.0.0" id="g449" >
                            <path gorn="0.9.0.0.0.0.0.0" style="fill:#dcdcdc" id="path451" d="m 5.386,3.543 -5.103,0 C 0.127,3.543 0,3.416 0,3.26 L 0,0.283 C 0,0.127 0.127,0 0.283,0 l 5.102,0 c 0.157,0 0.283,0.127 0.283,0.283 l 0,2.977 C 5.669,3.416 5.542,3.543 5.386,3.543 Z" />
                            <rect gorn="0.9.0.0.0.0.0.1" x="1.063" height="3.543" style="fill:#333333" id="rect453" y="0"  width="3.543"/>
                        </g>
                    </g>
                </g>
            </g>
        </g>
    </g>
    <g transform="translate(25.880846,17.991667)" >
        <g >
            <g gorn="0.10.0.0" id="g455" >
                <g transform="matrix(0,1,-1,0,4.606,-1.063)" >
                    <g >
                        <g gorn="0.10.0.0.0.0.0" id="g457" >
                            <path gorn="0.10.0.0.0.0.0.0" style="fill:#dcdcdc" id="path459" d="m 5.386,3.543 -5.103,0 C 0.127,3.543 0,3.416 0,3.26 L 0,0.283 C 0,0.127 0.127,0 0.283,0 l 5.102,0 c 0.157,0 0.283,0.127 0.283,0.283 l 0,2.977 C 5.669,3.416 5.542,3.543 5.386,3.543 Z" />
                            <rect gorn="0.10.0.0.0.0.0.1" x="1.063" height="3.543" style="fill:#333333" id="rect461" y="0"  width="3.543"/>
                        </g>
                    </g>
                </g>
            </g>
        </g>
    </g>
    <g transform="translate(33.250154,17.887296)" >
        <g >
            <g gorn="0.11.0.0" id="g463" >
                <g transform="matrix(0,-1,1,0,1.063,4.606)" >
                    <g >
                        <g gorn="0.11.0.0.0.0.0" id="g465" >
                            <path gorn="0.11.0.0.0.0.0.0" style="fill:#dcdcdc" id="path467" d="m 5.386,3.543 -5.103,0 C 0.127,3.543 0,3.416 0,3.26 L 0,0.283 C 0,0.127 0.127,0 0.283,0 l 5.102,0 c 0.157,0 0.283,0.127 0.283,0.283 l 0,2.977 C 5.669,3.416 5.542,3.543 5.386,3.543 Z" />
                            <rect gorn="0.11.0.0.0.0.0.1" x="1.063" height="3.543" style="fill:#333333" id="rect469" y="0"  width="3.543"/>
                        </g>
                    </g>
                </g>
            </g>
        </g>
    </g>
    <g transform="translate(40.4615,17.811013)" >
        <g >
            <g gorn="0.12.0.0" id="g471" >
                <g transform="matrix(0,1,-1,0,4.606,-1.063)" >
                    <g >
                        <g gorn="0.12.0.0.0.0.0" id="g473" >
                            <path gorn="0.12.0.0.0.0.0.0" style="fill:#dcdcdc" id="path475" d="m 5.386,3.543 -5.103,0 C 0.127,3.543 0,3.416 0,3.26 L 0,0.283 C 0,0.127 0.127,0 0.283,0 l 5.102,0 c 0.157,0 0.283,0.127 0.283,0.283 l 0,2.977 C 5.669,3.416 5.542,3.543 5.386,3.543 Z" />
                            <rect gorn="0.12.0.0.0.0.0.1" x="1.063" height="3.543" style="fill:#333333" id="rect477" y="0"  width="3.543"/>
                        </g>
                    </g>
                </g>
            </g>
        </g>
    </g>
    <g transform="translate(45.3621,22.6263)" >
        <g >
            <g gorn="0.13.0.0" id="adafruit_2.5mm" >
                <path gorn="0.13.0.0.0" style="fill:#dcdcdc" id="path480" d="M 9.747,3.082 C 9.724,2.94 9.647,2.899 9.461,2.839 9.31903,2.794 8.37202,2.492 8.37202,2.492 c 0,0 -0.66,-0.249 -1.15,0.103 -0.066,0.048 -0.134,0.102 -0.203,0.16 0.058,-0.069 0.112,-0.137 0.159,-0.203 0.352,-0.49 0.101,-1.15 0.101,-1.15 0,0 -0.30302,-0.947 -0.34902,-1.089 C 6.87,0.127 6.83,0.05 6.687,0.028 6.545,0.005 6.483,0.066 6.369,0.225 6.282,0.345 5.702,1.153001 5.702,1.153001 5.702,1.153001 5.261,1.704 5.445,2.279 5.47,2.356 5.5,2.438 5.534,2.521 5.486,2.445 5.438,2.372 5.39,2.307 5.032,1.821 4.328,1.855 4.328,1.855 c 0,0 -0.995,-0.004 -1.143,-0.004 -0.195,0 -0.281,0.014 -0.347,0.143 -0.065,0.128 -0.027,0.206 0.089,0.364 0.088,0.12 0.677,0.921002 0.677,0.921002 0,0 0.388,0.59 0.991001,0.592 0.081,0 0.168,-0.003 0.257,-0.01 C 4.765,3.883 4.681,3.907 4.604,3.932 4.031,4.122 3.845998,4.802998 3.845998,4.802998 c 0,0 -0.31,0.943999 -0.357,1.085 C 3.428,6.074 3.416,6.16 3.518,6.262 3.62,6.364 3.706,6.352 3.892,6.29 4.033,6.244 4.977,5.931 4.977,5.931 c 0,0 0.681,-0.187 0.868997,-0.760003 0.025,-0.077 0.049,-0.16 0.07,-0.247 C 5.91,5.014 5.907,5.1 5.907,5.181 c 0.004,0.603 0.594,0.99 0.594,0.99 0,0 0.802001,0.588 0.922003,0.675 C 7.58102,6.962 7.659,7 7.78802,6.935 7.91597,6.869 7.93102,6.783 7.93001,6.588 7.929,6.439 7.92403,5.445 7.92403,5.445 7.92403,5.445 7.95701,4.74 7.47,4.383 7.40498,4.335 7.33198,4.287 7.25602,4.24 c 0.083,0.034 0.165,0.064 0.242,0.088 0.575,0.183 1.125,-0.259 1.125,-0.259 0,0 0.80696,-0.5809998 0.92699,-0.6679998 C 9.70898,3.286 9.76903,3.224 9.747,3.082 Z M 6.322,2.35 C 6.43,2.367 6.484,2.598 6.442,2.865 6.4,3.132 6.278,3.335 6.169,3.318 6.061,3.301 6.007,3.07 6.049,2.803 6.091,2.535 6.213,2.332 6.322,2.35 Z M 4.933,3.059 C 4.983,2.961 5.219,2.981 5.46,3.104 5.701,3.227 5.857,3.406 5.807,3.503 5.757,3.601 5.521,3.581 5.28,3.458 5.038,3.335 4.883,3.157 4.933,3.059 Z M 5.665,4.393 C 5.474,4.584 5.256,4.677 5.178,4.599 5.101,4.521 5.193,4.303 5.384,4.112 5.575,3.92 5.793,3.827 5.871,3.905 5.949,3.983 5.857,4.201 5.665,4.393 Z M 6.719,4.842 C 6.6210001,4.892 6.442,4.737 6.319,4.496 6.196,4.254 6.175,4.018 6.273,3.968 6.371,3.918 6.55,4.073 6.673,4.314 6.796,4.556 6.817,4.792 6.719,4.842 Z M 6.973,3.725 C 6.706,3.767 6.475,3.714 6.457,3.606 6.44,3.497 6.643,3.375 6.91,3.332 7.177,3.289 7.408,3.343 7.425,3.451 7.443,3.56 7.24003,3.682 6.973,3.725 Z" />
            </g>
        </g>
    </g>
    <g transform="translate(57.195688,15.999604)" >
        <g >
            <g gorn="0.14.0.0" id="msop10" >
                <g transform="matrix(0,1,-1,0,9.66391,1.4481)" >
                    <g >
                        <g gorn="0.14.0.0.0.0.0" id="g483" >
                            <metadata id="metadata19" >
                                <rdf:RDF xmlns:rdf="http://www.w3.org/1999/02/22-rdf-syntax-ns#">
                                    <cc:Work xmlns:cc="http://creativecommons.org/ns#" xmlns:rdf="http://www.w3.org/1999/02/22-rdf-syntax-ns#" rdf:about="">
                                        <dc:format xmlns:dc="http://purl.org/dc/elements/1.1/">image/svg+xml</dc:format>
                                        <dc:type rdf:resource="http://purl.org/dc/dcmitype/StillImage" xmlns:rdf="http://www.w3.org/1999/02/22-rdf-syntax-ns#" xmlns:dc="http://purl.org/dc/elements/1.1/"/>
                                        <dc:title xmlns:dc="http://purl.org/dc/elements/1.1/"/>
                                    </cc:Work>
                                </rdf:RDF>
                            </metadata>
                            <defs id="defs17" />
                            <rect gorn="0.14.0.0.0.0.0.2" x="6.6982698" height="11.112" style="fill:#dcdcdc" id="rect3362" y="0"  width="0.68000001"/>
                            <rect gorn="0.14.0.0.0.0.0.3" x="0.85919797" height="11.112" style="fill:#dcdcdc" id="rect3" y="0"  width="0.68000001"/>
                            <rect gorn="0.14.0.0.0.0.0.4" x="2.3327999" height="11.112" style="fill:#dcdcdc" id="rect5" y="0"  width="0.68000001"/>
                            <rect gorn="0.14.0.0.0.0.0.5" x="3.8072" height="11.112" style="fill:#dcdcdc" id="rect7" y="0"  width="0.68000001"/>
                            <rect gorn="0.14.0.0.0.0.0.6" x="5.2807999" height="11.112" style="fill:#dcdcdc" id="rect9" y="0"  width="0.68000001"/>
                            <path connector-curvature="0" gorn="0.14.0.0.0.0.0.7" nodetypes="sssssssss" style="fill:#333333" id="path11" d="m 8.21578,2.5832 0,5.896 c 0,0.2504 -0.2032,0.4536 -0.4536,0.4536 l -7.30858,0 C 0.2032,8.93282 0,8.72957 0,8.47922 L 0,2.5832 C 0,2.3328 0.2032,2.1296 0.4536,2.1296 l 7.30858,0 c 0.2504,0 0.4536,0.2032 0.4536,0.4536 z" />
                            <circle cx="1.1336" gorn="0.14.0.0.0.0.0.8" id="circle13" cy="7.7983899" r="0.56720001" />
                        </g>
                    </g>
                </g>
            </g>
        </g>
    </g>
</svg>
