<?xml version='1.0' encoding='utf-8'?>
<!-- Generator: Adobe Illustrator 20.0.0, SVG Export Plug-In . SVG Version: 6.00 Build 0)  -->
<svg xmlns="http://www.w3.org/2000/svg" x="0px" y="0px" width="3.13386in" height="3.13388in" baseProfile="tiny" viewBox="0 0 225.638 225.639" gorn="0" xml:space="preserve"  xmlns:xml="http://www.w3.org/XML/1998/namespace" id="Layer_1" version="1.2">
    <desc>
        <referenceFile>Adafruit Quarter 60 NeoPixel Ring_breadboard.svg</referenceFile>
    </desc>
    <desc >Fritzing breadboard generated by brd2svg</desc>
    <g gorn="0.1"  id="breadboard">
        <g gorn="0.1.0"  id="icon">
            <g transform="matrix(-1, 0, 0, -1, -8.50392, 29.6534)" >
                <g >
                    <rect x="-11.339" y="12.858" width="2.835" height="3.969" gorn="0.1.0.0.0.0"  fill="#FF0000" id="connector90pin"/>
                </g>
            </g>
            <g transform="matrix(-1, 0, 0, -1, -8.50392, 18.3148)" >
                <g >
                    <rect x="-11.339" y="7.189" width="2.835" height="3.969" gorn="0.1.0.1.0.0"  fill="#00C800" id="connector91pin"/>
                </g>
            </g>
            <g transform="matrix(-1, 0, 0, -1, -8.50392, 6.97622)" >
                <g >
                    <rect x="-11.339" y="1.52" width="2.835" height="3.968" gorn="0.1.0.2.0.0"  fill="#808080" id="connector92pin"/>
                </g>
            </g>
            <g transform="matrix(0, 1, -1, 0, 447.677, 7.88184)" >
                <g >
                    <g transform="matrix(2.535182e-06 1 -1 2.535182e-06 441.9919 9.3133)" >
                        <rect x="214.355" y="224.236" width="3.969" height="2.835" gorn="0.1.0.3.0.0.0"  fill="#808080" id="connector93pin"/>
                    </g>
                </g>
            </g>
            <g transform="matrix(0, 1, -1, 0, 442.008, 13.5511)" >
                <g >
                    <g transform="matrix(2.535182e-06 1 -1 2.535182e-06 436.3219 14.9833)" >
                        <rect x="208.685" y="224.236" width="3.969" height="2.835" gorn="0.1.0.4.0.0.0"  fill="#00C800" id="connector94pin"/>
                    </g>
                </g>
            </g>
            <g transform="matrix(0, 1, -1, 0, 436.339, 19.2204)" >
                <g >
                    <g transform="matrix(2.535182e-06 1 -1 2.535182e-06 430.6529 20.6523)" >
                        <rect x="203.016" y="224.236" width="3.969" height="2.835" gorn="0.1.0.5.0.0.0"  fill="#FF0000" id="connector95pin"/>
                    </g>
                </g>
            </g>
            <path d="M2.126,0c123.442,0,223.512,100.07,223.512,223.512c0,0,0,0,0,0h-18.284c0-113.344-91.883-205.228-205.227-205.229c0,0-0.001,0-0.001,0V0"  fill="#0A0A0A"/>
            <g transform="matrix(0.207912, -0.978148, 0.978148, 0.207912, 22.0807, 54.3987)" >
                <g >
                    <g transform="matrix(-1 2.533685e-06 -2.533685e-06 -1 90.1725 31.2838)" >
                        <rect x="43.527" y="14.225" width="3.118" height="2.835" gorn="0.1.0.7.0.0.0"  fill="#9A916C" id="connector5pin"/>
                    </g>
                </g>
            </g>
            <g transform="matrix(0.207912, -0.978148, 0.978148, 0.207912, 27.4849, 51.6451)" >
                <g >
                    <g transform="matrix(-1 2.533685e-06 -2.533685e-06 -1 92.1761 21.8567)" >
                        <rect x="44.529" y="9.511" width="3.118" height="2.835" gorn="0.1.0.8.0.0.0"  fill="#9A916C" id="connector6pin"/>
                    </g>
                </g>
            </g>
            <g transform="matrix(0.406737, -0.913545, 0.913545, 0.406737, 26.7352, 96.0336)" >
                <g >
                    <g transform="matrix(-1 2.540483e-06 -2.540483e-06 -1 176.3717 58.7368)" >
                        <rect x="86.627" y="27.951" width="3.118" height="2.835" gorn="0.1.0.9.0.0.0"  fill="#9A916C" id="connector7pin"/>
                    </g>
                </g>
            </g>
            <g transform="matrix(0.406737, -0.913545, 0.913545, 0.406737, 31.9196, 95.2128)" >
                <g >
                    <g transform="matrix(-1 2.540484e-06 -2.540484e-06 -1 180.2927 49.9322)" >
                        <rect x="88.587" y="23.549" width="3.118" height="2.835" gorn="0.1.0.10.0.0.0"  fill="#9A916C" id="connector8pin"/>
                    </g>
                </g>
            </g>
            <g transform="matrix(0.5, -0.866025, 0.866025, 0.5, 21.0721, 111.763)" >
                <g >
                    <g transform="matrix(-1 2.520686e-06 -2.520686e-06 -1 216.8054 78.9324)" >
                        <rect x="106.844" y="38.049" width="3.118" height="2.835" gorn="0.1.0.11.0.0.0"  fill="#9A916C" id="connector9pin"/>
                    </g>
                </g>
            </g>
            <g transform="matrix(0.5, -0.866025, 0.866025, 0.5, 25.891, 111.763)" >
                <g >
                    <g transform="matrix(-1 2.520686e-06 -2.520686e-06 -1 221.6234 70.5858)" >
                        <rect x="109.253" y="33.876" width="3.118" height="2.835" gorn="0.1.0.12.0.0.0"  fill="#9A916C" id="connector10pin"/>
                    </g>
                </g>
            </g>
            <g transform="matrix(0.587785, -0.809017, 0.809017, 0.587785, 11.6634, 122.63)" >
                <g >
                    <g transform="matrix(-1 2.532194e-06 -2.532194e-06 -1 254.8629 103.1612)" >
                        <rect x="125.872" y="50.163" width="3.118" height="2.835" gorn="0.1.0.13.0.0.0"  fill="#9A916C" id="connector11pin"/>
                    </g>
                </g>
            </g>
            <g transform="matrix(0.587785, -0.809017, 0.809017, 0.587785, 15.9849, 123.315)" >
                <g >
                    <g transform="matrix(-1 2.532193e-06 -2.532193e-06 -1 260.5289 95.364)" >
                        <rect x="128.705" y="46.265" width="3.118" height="2.835" gorn="0.1.0.14.0.0.0"  fill="#9A916C" id="connector12pin"/>
                    </g>
                </g>
            </g>
            <g transform="matrix(0.669131, -0.743145, 0.743145, 0.669131, -0.0453953, 127.917)" >
                <g >
                    <g transform="matrix(-1 2.541974e-06 -2.541974e-06 -1 290.1308 131.1577)" >
                        <rect x="143.506" y="64.162" width="3.118" height="2.835" gorn="0.1.0.15.0.0.0"  fill="#9A916C" id="connector13pin"/>
                    </g>
                </g>
            </g>
            <g transform="matrix(0.669131, -0.743145, 0.743145, 0.669131, 3.68279, 129.128)" >
                <g >
                    <g transform="matrix(-1 2.541974e-06 -2.541974e-06 -1 296.5788 123.9955)" >
                        <rect x="146.73" y="60.581" width="3.118" height="2.835" gorn="0.1.0.16.0.0.0"  fill="#9A916C" id="connector14pin"/>
                    </g>
                </g>
            </g>
            <g transform="matrix(0.809017, -0.587785, 0.587785, 0.809017, -24.0599, 120.667)" >
                <g >
                    <g transform="matrix(-1 2.538169e-06 -2.538169e-06 -1 350.7748 197.1896)" >
                        <rect x="173.828" y="97.178" width="3.118" height="2.835" gorn="0.1.0.17.0.0.0"  fill="#9A916C" id="connector15pin"/>
                    </g>
                </g>
            </g>
            <g transform="matrix(0.809017, -0.587785, 0.587785, 0.809017, -21.6504, 122.417)" >
                <g >
                    <g transform="matrix(-1 2.538169e-06 -2.538169e-06 -1 358.5708 191.5246)" >
                        <rect x="177.726" y="94.345" width="3.118" height="2.835" gorn="0.1.0.18.0.0.0"  fill="#9A916C" id="connector16pin"/>
                    </g>
                </g>
            </g>
            <g transform="matrix(0.866025, -0.5, 0.5, 0.866025, -33.1955, 108.516)" >
                <g >
                    <g transform="matrix(-1 2.549677e-06 -2.549677e-06 -1 375.4885 234.5011)" >
                        <rect x="186.185" y="115.833" width="3.118" height="2.835" gorn="0.1.0.19.0.0.0"  fill="#9A916C" id="connector17pin"/>
                    </g>
                </g>
            </g>
            <g transform="matrix(0.866025, -0.5, 0.5, 0.866025, -31.4316, 110.279)" >
                <g >
                    <g transform="matrix(-1 2.549677e-06 -2.549677e-06 -1 383.8345 229.6831)" >
                        <rect x="190.358" y="113.424" width="3.118" height="2.835" gorn="0.1.0.20.0.0.0"  fill="#9A916C" id="connector18pin"/>
                    </g>
                </g>
            </g>
            <g transform="matrix(0.913545, -0.406737, 0.406737, 0.913545, -38.4525, 91.5358)" >
                <g >
                    <g transform="matrix(-1 2.529880e-06 -2.529880e-06 -1 396.0877 274.141)" >
                        <rect x="196.485" y="135.653" width="3.118" height="2.835" gorn="0.1.0.21.0.0.0"  fill="#9A916C" id="connector19pin"/>
                    </g>
                </g>
            </g>
            <g transform="matrix(0.913545, -0.406737, 0.406737, 0.913545, -37.2748, 93.1572)" >
                <g >
                    <g transform="matrix(-1 2.529880e-06 -2.529880e-06 -1 404.8917 270.221)" >
                        <rect x="200.887" y="133.693" width="3.118" height="2.835" gorn="0.1.0.22.0.0.0"  fill="#9A916C" id="connector20pin"/>
                    </g>
                </g>
            </g>
            <g transform="matrix(0.978148, -0.207912, 0.207912, 0.978148, -32.6069, 47.5629)" >
                <g >
                    <g transform="matrix(-1 2.536678e-06 -2.536678e-06 -1 424.0903 358.6495)" >
                        <rect x="210.486" y="177.908" width="3.118" height="2.835" gorn="0.1.0.23.0.0.0"  fill="#9A916C" id="connector21pin"/>
                    </g>
                </g>
            </g>
            <g transform="matrix(0.978148, -0.207912, 0.207912, 0.978148, -32.2957, 48.521)" >
                <g >
                    <g transform="matrix(-1 2.536678e-06 -2.536678e-06 -1 433.5163 356.6455)" >
                        <rect x="215.199" y="176.906" width="3.118" height="2.835" gorn="0.1.0.24.0.0.0"  fill="#9A916C" id="connector22pin"/>
                    </g>
                </g>
            </g>
            <g transform="matrix(0.994522, -0.104528, 0.104528, 0.994522, -19.8502, 23.416)" >
                <g >
                    <g transform="matrix(-1 2.540168e-06 -2.540168e-06 -1 431.1867 402.5934)" >
                        <rect x="214.034" y="199.88" width="3.118" height="2.835" gorn="0.1.0.25.0.0.0"  fill="#9A916C" id="connector23pin"/>
                    </g>
                </g>
            </g>
            <g transform="matrix(0.994522, -0.104528, 0.104528, 0.994522, -19.7713, 23.9142)" >
                <g >
                    <g transform="matrix(-1 2.540168e-06 -2.540168e-06 -1 440.7708 401.5854)" >
                        <rect x="218.826" y="199.376" width="3.118" height="2.835" gorn="0.1.0.26.0.0.0"  fill="#9A916C" id="connector24pin"/>
                    </g>
                </g>
            </g>
            <path d="M68.74,17.433L68.74,17.433c0.783,0,1.417,0.635,1.417,1.417v0c0,0.783-0.635,1.417-1.417,1.417h0c-0.783,0-1.417-0.635-1.417-1.417v0C67.323,18.068,67.958,17.433,68.74,17.433z" gorn="0.1.0.27"  fill="#9A916C" id="connector25pin"/>
            <path d="M161.716,78.378L161.716,78.378c0.783,0,1.417,0.635,1.417,1.417v0c0,0.783-0.635,1.417-1.417,1.417h0c-0.783,0-1.417-0.635-1.417-1.417v0C160.299,79.012,160.934,78.378,161.716,78.378z" gorn="0.1.0.28"  fill="#9A916C" id="connector26pin"/>
            <path d="M205.936,155.763L205.936,155.763c0.783,0,1.417,0.635,1.417,1.417v0c0,0.783-0.635,1.417-1.417,1.417h0c-0.783,0-1.417-0.635-1.417-1.417v0C204.519,156.398,205.154,155.763,205.936,155.763z" gorn="0.1.0.29"  fill="#9A916C" id="connector27pin"/>
            <g transform="matrix(-0.99863, -0.052336, 0.052336, -0.99863, 34.4496, 30.1283)" >
                <g >
                    <g transform="matrix(-2.534608e-06 -1 1 -2.534608e-06 0.757 30.237)" >
                        <rect x="13.796" y="12.897" width="3.402" height="3.685" gorn="0.1.0.30.0.0.0"  fill="#9A916C" id="connector28pin"/>
                    </g>
                </g>
            </g>
            <g transform="matrix(-0.99863, -0.052336, 0.052336, -0.99863, 35.917, 11.4837)" >
                <g >
                    <g transform="matrix(-2.534608e-06 -1 1 -2.534608e-06 10.588 21.385)" >
                        <rect x="14.286" y="3.556" width="3.402" height="3.685" gorn="0.1.0.31.0.0.0"  fill="#9A916C" id="connector29pin"/>
                    </g>
                </g>
            </g>
            <g transform="matrix(-0.99863, -0.052336, 0.052336, -0.99863, 9.36259, 9.39384)" >
                <g >
                    <g transform="matrix(-2.534608e-06 -1 1 -2.534608e-06 -2.0193 7.3832)" >
                        <rect x="0.981" y="2.859" width="3.402" height="3.685" gorn="0.1.0.32.0.0.0"  fill="#9A916C" id="connector30pin"/>
                    </g>
                </g>
            </g>
            <g transform="matrix(-0.99863, -0.052336, 0.052336, -0.99863, 7.89523, 28.0384)" >
                <g >
                    <g transform="matrix(-2.534608e-06 -1 1 -2.534608e-06 -11.8503 16.2351)" >
                        <rect x="0.492" y="12.2" width="3.402" height="3.685" gorn="0.1.0.33.0.0.0"  fill="#9A916C" id="connector31pin"/>
                    </g>
                </g>
            </g>
            <g transform="matrix(-0.987688, -0.156434, 0.156434, -0.987688, 75.4826, 41.1392)" >
                <g >
                    <g transform="matrix(-2.536415e-06 -1 1 -2.536415e-06 19.3156 55.2103)" >
                        <rect x="35.562" y="16.105" width="3.402" height="3.685" gorn="0.1.0.34.0.0.0"  fill="#9A916C" id="connector32pin"/>
                    </g>
                </g>
            </g>
            <g transform="matrix(-0.987688, -0.156434, 0.156434, -0.987688, 79.8365, 23.0036)" >
                <g >
                    <g transform="matrix(-2.536415e-06 -1 1 -2.536415e-06 30.0181 47.4344)" >
                        <rect x="37.025" y="6.866" width="3.402" height="3.685" gorn="0.1.0.35.0.0.0"  fill="#9A916C" id="connector33pin"/>
                    </g>
                </g>
            </g>
            <g transform="matrix(-0.987688, -0.156434, 0.156434, -0.987688, 54.0072, 16.8024)" >
                <g >
                    <g transform="matrix(-2.536415e-06 -1 1 -2.536415e-06 18.9434 32.1914)" >
                        <rect x="23.867" y="4.782" width="3.402" height="3.685" gorn="0.1.0.36.0.0.0"  fill="#9A916C" id="connector34pin"/>
                    </g>
                </g>
            </g>
            <g transform="matrix(-0.987688, -0.156434, 0.156434, -0.987688, 49.6532, 34.9381)" >
                <g >
                    <g transform="matrix(-2.536415e-06 -1 1 -2.536415e-06 8.2409 39.9674)" >
                        <rect x="22.403" y="14.021" width="3.402" height="3.685" gorn="0.1.0.37.0.0.0"  fill="#9A916C" id="connector35pin"/>
                    </g>
                </g>
            </g>
            <g transform="matrix(-0.965926, -0.258819, 0.258819, -0.965926, 113.361, 60.6075)" >
                <g >
                    <g transform="matrix(-2.519628e-06 -1 1 -2.519628e-06 35.2135 82.0276)" >
                        <rect x="56.92" y="21.565" width="3.402" height="3.685" gorn="0.1.0.38.0.0.0"  fill="#9A916C" id="connector36pin"/>
                    </g>
                </g>
            </g>
            <g transform="matrix(-0.965926, -0.258819, 0.258819, -0.965926, 120.459, 43.4709)" >
                <g >
                    <g transform="matrix(-2.519628e-06 -1 1 -2.519628e-06 46.6702 75.4131)" >
                        <rect x="59.341" y="12.529" width="3.402" height="3.685" gorn="0.1.0.39.0.0.0"  fill="#9A916C" id="connector37pin"/>
                    </g>
                </g>
            </g>
            <g transform="matrix(-0.965926, -0.258819, 0.258819, -0.965926, 96.0523, 33.3612)" >
                <g >
                    <g transform="matrix(-2.519628e-06 -1 1 -2.519628e-06 37.2495 59.0959)" >
                        <rect x="46.472" y="9.081" width="3.402" height="3.685" gorn="0.1.0.40.0.0.0"  fill="#9A916C" id="connector38pin"/>
                    </g>
                </g>
            </g>
            <g transform="matrix(-0.965926, -0.258819, 0.258819, -0.965926, 88.9538, 50.4979)" >
                <g >
                    <g transform="matrix(-2.519628e-06 -1 1 -2.519628e-06 25.7929 65.7104)" >
                        <rect x="44.051" y="18.116" width="3.402" height="3.685" gorn="0.1.0.41.0.0.0"  fill="#9A916C" id="connector39pin"/>
                    </g>
                </g>
            </g>
            <g transform="matrix(-0.93358, -0.358368, 0.358368, -0.93358, 146.377, 87.6946)" >
                <g >
                    <g transform="matrix(-2.519781e-06 -1 1 -2.519781e-06 48.2763 110.3949)" >
                        <rect x="77.635" y="29.217" width="3.402" height="3.685" gorn="0.1.0.42.0.0.0"  fill="#9A916C" id="connector40pin"/>
                    </g>
                </g>
            </g>
            <g transform="matrix(-0.93358, -0.358368, 0.358368, -0.93358, 155.988, 72.0101)" >
                <g >
                    <g transform="matrix(-2.519781e-06 -1 1 -2.519781e-06 60.3616 105.0142)" >
                        <rect x="80.987" y="20.484" width="3.402" height="3.685" gorn="0.1.0.43.0.0.0"  fill="#9A916C" id="connector41pin"/>
                    </g>
                </g>
            </g>
            <g transform="matrix(-0.93358, -0.358368, 0.358368, -0.93358, 133.649, 58.321)" >
                <g >
                    <g transform="matrix(-2.519781e-06 -1 1 -2.519781e-06 52.6984 87.802)" >
                        <rect x="68.549" y="15.709" width="3.402" height="3.685" gorn="0.1.0.44.0.0.0"  fill="#9A916C" id="connector42pin"/>
                    </g>
                </g>
            </g>
            <g transform="matrix(-0.93358, -0.358368, 0.358368, -0.93358, 124.038, 74.0059)" >
                <g >
                    <g transform="matrix(-2.519781e-06 -1 1 -2.519781e-06 40.6132 93.1828)" >
                        <rect x="65.197" y="24.442" width="3.402" height="3.685" gorn="0.1.0.45.0.0.0"  fill="#9A916C" id="connector43pin"/>
                    </g>
                </g>
            </g>
            <g transform="matrix(-0.891007, -0.45399, 0.45399, -0.891007, 173.035, 121.224)" >
                <g >
                    <g transform="matrix(-2.526927e-06 -1 1 -2.526927e-06 58.3621 140.0025)" >
                        <rect x="97.481" y="38.978" width="3.402" height="3.685" gorn="0.1.0.46.0.0.0"  fill="#9A916C" id="connector44pin"/>
                    </g>
                </g>
            </g>
            <g transform="matrix(-0.891007, -0.45399, 0.45399, -0.891007, 184.849, 107.391)" >
                <g >
                    <g transform="matrix(-2.526927e-06 -1 1 -2.526927e-06 70.943 135.9139)" >
                        <rect x="101.728" y="30.643" width="3.402" height="3.685" gorn="0.1.0.47.0.0.0"  fill="#9A916C" id="connector45pin"/>
                    </g>
                </g>
            </g>
            <g transform="matrix(-0.891007, -0.45399, 0.45399, -0.891007, 165.148, 90.5645)" >
                <g >
                    <g transform="matrix(-2.526927e-06 -1 1 -2.526927e-06 65.1211 117.9951)" >
                        <rect x="89.857" y="24.595" width="3.402" height="3.685" gorn="0.1.0.48.0.0.0"  fill="#9A916C" id="connector46pin"/>
                    </g>
                </g>
            </g>
            <g transform="matrix(-0.891007, -0.45399, 0.45399, -0.891007, 153.333, 104.397)" >
                <g >
                    <g transform="matrix(-2.526927e-06 -1 1 -2.526927e-06 52.5398 122.0835)" >
                        <rect x="85.611" y="32.929" width="3.402" height="3.685" gorn="0.1.0.49.0.0.0"  fill="#9A916C" id="connector47pin"/>
                    </g>
                </g>
            </g>
            <g transform="matrix(-0.838671, -0.544639, 0.544639, -0.838671, 192.118, 159.731)" >
                <g >
                    <g transform="matrix(-2.558015e-06 -1 1 -2.558015e-06 65.3582 170.5242)" >
                        <rect x="116.24" y="50.741" width="3.402" height="3.685" gorn="0.1.0.50.0.0.0"  fill="#9A916C" id="connector48pin"/>
                    </g>
                </g>
            </g>
            <g transform="matrix(-0.838671, -0.544639, 0.544639, -0.838671, 205.757, 148.082)" >
                <g >
                    <g transform="matrix(-2.558015e-06 -1 1 -2.558015e-06 78.2984 167.774)" >
                        <rect x="121.335" y="42.895" width="3.402" height="3.685" gorn="0.1.0.51.0.0.0"  fill="#9A916C" id="connector49pin"/>
                    </g>
                </g>
            </g>
            <g transform="matrix(-0.838671, -0.544639, 0.544639, -0.838671, 189.165, 128.655)" >
                <g >
                    <g transform="matrix(-2.558015e-06 -1 1 -2.558015e-06 74.3806 149.3438)" >
                        <rect x="110.161" y="35.639" width="3.402" height="3.685" gorn="0.1.0.52.0.0.0"  fill="#9A916C" id="connector50pin"/>
                    </g>
                </g>
            </g>
            <g transform="matrix(-0.838671, -0.544639, 0.544639, -0.838671, 175.525, 140.304)" >
                <g >
                    <g transform="matrix(-2.558015e-06 -1 1 -2.558015e-06 61.4414 152.095)" >
                        <rect x="105.067" y="43.484" width="3.402" height="3.685" gorn="0.1.0.53.0.0.0"  fill="#9A916C" id="connector51pin"/>
                    </g>
                </g>
            </g>
            <g transform="matrix(-0.777146, -0.62932, 0.62932, -0.777146, 202.737, 201.53)" >
                <g >
                    <g transform="matrix(-2.503947e-06 -1 1 -2.503947e-06 69.1907 201.628)" >
                        <rect x="133.708" y="64.376" width="3.402" height="3.685" gorn="0.1.0.54.0.0.0"  fill="#9A916C" id="connector52pin"/>
                    </g>
                </g>
            </g>
            <g transform="matrix(-0.777146, -0.62932, 0.62932, -0.777146, 217.773, 192.316)" >
                <g >
                    <g transform="matrix(-2.503947e-06 -1 1 -2.503947e-06 82.3474 200.2453)" >
                        <rect x="139.595" y="57.107" width="3.402" height="3.685" gorn="0.1.0.55.0.0.0"  fill="#9A916C" id="connector53pin"/>
                    </g>
                </g>
            </g>
            <g transform="matrix(-0.777146, -0.62932, 0.62932, -0.777146, 204.65, 170.899)" >
                <g >
                    <g transform="matrix(-2.503947e-06 -1 1 -2.503947e-06 80.3778 181.5069)" >
                        <rect x="129.241" y="48.722" width="3.402" height="3.685" gorn="0.1.0.56.0.0.0"  fill="#9A916C" id="connector54pin"/>
                    </g>
                </g>
            </g>
            <g transform="matrix(-0.777146, -0.62932, 0.62932, -0.777146, 189.613, 180.114)" >
                <g >
                    <g transform="matrix(-2.503947e-06 -1 1 -2.503947e-06 67.2201 182.8886)" >
                        <rect x="123.353" y="55.992" width="3.402" height="3.685" gorn="0.1.0.57.0.0.0"  fill="#9A916C" id="connector55pin"/>
                    </g>
                </g>
            </g>
            <g transform="matrix(-0.707107, -0.707107, 0.707107, -0.707107, 204.377, 244.783)" >
                <g >
                    <g transform="matrix(-2.535182e-06 -1 1 -2.535182e-06 69.8148 232.9703)" >
                        <rect x="149.691" y="79.735" width="3.402" height="3.685" gorn="0.1.0.58.0.0.0"  fill="#9A916C" id="connector56pin"/>
                    </g>
                </g>
            </g>
            <g transform="matrix(-0.707107, -0.707107, 0.707107, -0.707107, 220.346, 238.168)" >
                <g >
                    <g transform="matrix(-2.535182e-06 -1 1 -2.535182e-06 83.0443 232.9708)" >
                        <rect x="156.306" y="73.121" width="3.402" height="3.685" gorn="0.1.0.59.0.0.0"  fill="#9A916C" id="connector57pin"/>
                    </g>
                </g>
            </g>
            <g transform="matrix(-0.707107, -0.707107, 0.707107, -0.707107, 210.925, 215.425)" >
                <g >
                    <g transform="matrix(-2.535182e-06 -1 1 -2.535182e-06 83.0439 214.1291)" >
                        <rect x="146.885" y="63.7" width="3.402" height="3.685" gorn="0.1.0.60.0.0.0"  fill="#9A916C" id="connector58pin"/>
                    </g>
                </g>
            </g>
            <g transform="matrix(-0.707107, -0.707107, 0.707107, -0.707107, 194.957, 222.039)" >
                <g >
                    <g transform="matrix(-2.535181e-06 -1 1 -2.535181e-06 69.8154 214.1297)" >
                        <rect x="140.271" y="70.315" width="3.402" height="3.685" gorn="0.1.0.61.0.0.0"  fill="#9A916C" id="connector59pin"/>
                    </g>
                </g>
            </g>
            <g transform="matrix(-0.62932, -0.777146, 0.777146, -0.62932, 196.916, 287.585)" >
                <g >
                    <g transform="matrix(-2.566416e-06 -1 1 -2.566416e-06 67.2249 264.2092)" >
                        <rect x="164.016" y="96.65" width="3.402" height="3.685" gorn="0.1.0.62.0.0.0"  fill="#9A916C" id="connector60pin"/>
                    </g>
                </g>
            </g>
            <g transform="matrix(-0.62932, -0.777146, 0.777146, -0.62932, 213.335, 283.643)" >
                <g >
                    <g transform="matrix(-2.566416e-06 -1 1 -2.566416e-06 80.3816 265.5925)" >
                        <rect x="171.286" y="90.763" width="3.402" height="3.685" gorn="0.1.0.63.0.0.0"  fill="#9A916C" id="connector61pin"/>
                    </g>
                </g>
            </g>
            <g transform="matrix(-0.62932, -0.777146, 0.777146, -0.62932, 207.721, 260.257)" >
                <g >
                    <g transform="matrix(-2.566416e-06 -1 1 -2.566416e-06 82.3512 246.8548)" >
                        <rect x="162.902" y="80.409" width="3.402" height="3.685" gorn="0.1.0.64.0.0.0"  fill="#9A916C" id="connector62pin"/>
                    </g>
                </g>
            </g>
            <g transform="matrix(-0.62932, -0.777146, 0.777146, -0.62932, 191.301, 264.199)" >
                <g >
                    <g transform="matrix(-2.566416e-06 -1 1 -2.566416e-06 69.1955 245.4726)" >
                        <rect x="155.633" y="86.296" width="3.402" height="3.685" gorn="0.1.0.65.0.0.0"  fill="#9A916C" id="connector63pin"/>
                    </g>
                </g>
            </g>
            <g transform="matrix(-0.544639, -0.838671, 0.838671, -0.544639, 180.63, 328.044)" >
                <g >
                    <g transform="matrix(-2.512348e-06 -1 1 -2.512348e-06 61.4508 295.0034)" >
                        <rect x="176.526" y="114.934" width="3.402" height="3.685" gorn="0.1.0.66.0.0.0"  fill="#9A916C" id="connector64pin"/>
                    </g>
                </g>
            </g>
            <g transform="matrix(-0.544639, -0.838671, 0.838671, -0.544639, 197.021, 326.754)" >
                <g >
                    <g transform="matrix(-2.512348e-06 -1 1 -2.512348e-06 74.3908 297.7534)" >
                        <rect x="184.371" y="109.839" width="3.402" height="3.685" gorn="0.1.0.67.0.0.0"  fill="#9A916C" id="connector65pin"/>
                    </g>
                </g>
            </g>
            <g transform="matrix(-0.544639, -0.838671, 0.838671, -0.544639, 195.183, 303.409)" >
                <g >
                    <g transform="matrix(-2.512348e-06 -1 1 -2.512348e-06 78.3081 279.3241)" >
                        <rect x="177.115" y="98.666" width="3.402" height="3.685" gorn="0.1.0.68.0.0.0"  fill="#9A916C" id="connector66pin"/>
                    </g>
                </g>
            </g>
            <g transform="matrix(-0.544639, -0.838671, 0.838671, -0.544639, 178.793, 304.7)" >
                <g >
                    <g transform="matrix(-2.512348e-06 -1 1 -2.512348e-06 65.3687 276.5734)" >
                        <rect x="169.27" y="103.76" width="3.402" height="3.685" gorn="0.1.0.69.0.0.0"  fill="#9A916C" id="connector67pin"/>
                    </g>
                </g>
            </g>
            <g transform="matrix(-0.45399, -0.891007, 0.891007, -0.45399, 156.185, 364.368)" >
                <g >
                    <g transform="matrix(-2.543436e-06 -1 1 -2.543436e-06 52.5545 325.0149)" >
                        <rect x="187.083" y="134.388" width="3.402" height="3.685" gorn="0.1.0.70.0.0.0"  fill="#9A916C" id="connector68pin"/>
                    </g>
                </g>
            </g>
            <g transform="matrix(-0.45399, -0.891007, 0.891007, -0.45399, 172.087, 365.62)" >
                <g >
                    <g transform="matrix(-2.543436e-06 -1 1 -2.543436e-06 65.1345 329.1029)" >
                        <rect x="195.417" y="130.142" width="3.402" height="3.685" gorn="0.1.0.71.0.0.0"  fill="#9A916C" id="connector69pin"/>
                    </g>
                </g>
            </g>
            <g transform="matrix(-0.45399, -0.891007, 0.891007, -0.45399, 173.87, 342.971)" >
                <g >
                    <g transform="matrix(-2.543436e-06 -1 1 -2.543436e-06 70.9575 311.1838)" >
                        <rect x="189.369" y="118.271" width="3.402" height="3.685" gorn="0.1.0.72.0.0.0"  fill="#9A916C" id="connector70pin"/>
                    </g>
                </g>
            </g>
            <g transform="matrix(-0.45399, -0.891007, 0.891007, -0.45399, 157.967, 341.719)" >
                <g >
                    <g transform="matrix(-2.543436e-06 -1 1 -2.543436e-06 58.3755 307.0958)" >
                        <rect x="181.034" y="122.518" width="3.402" height="3.685" gorn="0.1.0.73.0.0.0"  fill="#9A916C" id="connector71pin"/>
                    </g>
                </g>
            </g>
            <g transform="matrix(-0.358368, -0.93358, 0.93358, -0.358368, 124.605, 394.939)" >
                <g >
                    <g transform="matrix(-2.550583e-06 -1 1 -2.550583e-06 40.6315 353.9139)" >
                        <rect x="195.571" y="154.799" width="3.402" height="3.685" gorn="0.1.0.74.0.0.0"  fill="#9A916C" id="connector72pin"/>
                    </g>
                </g>
            </g>
            <g transform="matrix(-0.358368, -0.93358, 0.93358, -0.358368, 139.596, 398.538)" >
                <g >
                    <g transform="matrix(-2.550583e-06 -1 1 -2.550583e-06 52.7175 359.2939)" >
                        <rect x="204.304" y="151.446" width="3.402" height="3.685" gorn="0.1.0.75.0.0.0"  fill="#9A916C" id="connector73pin"/>
                    </g>
                </g>
            </g>
            <g transform="matrix(-0.358368, -0.93358, 0.93358, -0.358368, 144.723, 377.186)" >
                <g >
                    <g transform="matrix(-2.550583e-06 -1 1 -2.550583e-06 60.3815 342.0818)" >
                        <rect x="199.53" y="139.008" width="3.402" height="3.685" gorn="0.1.0.76.0.0.0"  fill="#9A916C" id="connector74pin"/>
                    </g>
                </g>
            </g>
            <g transform="matrix(-0.358368, -0.93358, 0.93358, -0.358368, 129.731, 373.586)" >
                <g >
                    <g transform="matrix(-2.550582e-06 -1 1 -2.550582e-06 48.2945 336.7008)" >
                        <rect x="190.796" y="142.361" width="3.402" height="3.685" gorn="0.1.0.77.0.0.0"  fill="#9A916C" id="connector75pin"/>
                    </g>
                </g>
            </g>
            <g transform="matrix(-0.258819, -0.965926, 0.965926, -0.258819, 87.2294, 418.386)" >
                <g >
                    <g transform="matrix(-2.550735e-06 -1 1 -2.550735e-06 25.8154 381.3823)" >
                        <rect x="201.898" y="175.941" width="3.402" height="3.685" gorn="0.1.0.78.0.0.0"  fill="#9A916C" id="connector76pin"/>
                    </g>
                </g>
            </g>
            <g transform="matrix(-0.258819, -0.965926, 0.965926, -0.258819, 100.942, 424.066)" >
                <g >
                    <g transform="matrix(-2.550735e-06 -1 1 -2.550735e-06 37.2715 387.9983)" >
                        <rect x="210.934" y="173.521" width="3.402" height="3.685" gorn="0.1.0.79.0.0.0"  fill="#9A916C" id="connector77pin"/>
                    </g>
                </g>
            </g>
            <g transform="matrix(-0.258819, -0.965926, 0.965926, -0.258819, 109.032, 404.536)" >
                <g >
                    <g transform="matrix(-2.550735e-06 -1 1 -2.550735e-06 46.6925 371.6813)" >
                        <rect x="207.486" y="160.652" width="3.402" height="3.685" gorn="0.1.0.80.0.0.0"  fill="#9A916C" id="connector78pin"/>
                    </g>
                </g>
            </g>
            <g transform="matrix(-0.258819, -0.965926, 0.965926, -0.258819, 95.3186, 398.856)" >
                <g >
                    <g transform="matrix(-2.550735e-06 -1 1 -2.550735e-06 35.2354 365.0663)" >
                        <rect x="198.45" y="163.073" width="3.402" height="3.685" gorn="0.1.0.81.0.0.0"  fill="#9A916C" id="connector79pin"/>
                    </g>
                </g>
            </g>
            <g transform="matrix(-0.156434, -0.987688, 0.987688, -0.156434, 45.6561, 433.646)" >
                <g >
                    <g transform="matrix(-2.533948e-06 -1 1 -2.533948e-06 8.2678 407.1241)" >
                        <rect x="205.995" y="197.586" width="3.402" height="3.685" gorn="0.1.0.82.0.0.0"  fill="#9A916C" id="connector80pin"/>
                    </g>
                </g>
            </g>
            <g transform="matrix(-0.156434, -0.987688, 0.987688, -0.156434, 57.7858, 441.079)" >
                <g >
                    <g transform="matrix(-2.533948e-06 -1 1 -2.533948e-06 18.9698 414.9001)" >
                        <rect x="215.234" y="196.123" width="3.402" height="3.685" gorn="0.1.0.83.0.0.0"  fill="#9A916C" id="connector81pin"/>
                    </g>
                </g>
            </g>
            <g transform="matrix(-0.156434, -0.987688, 0.987688, -0.156434, 68.3725, 423.804)" >
                <g >
                    <g transform="matrix(-2.533948e-06 -1 1 -2.533948e-06 30.0438 399.656)" >
                        <rect x="213.149" y="182.964" width="3.402" height="3.685" gorn="0.1.0.84.0.0.0"  fill="#9A916C" id="connector82pin"/>
                    </g>
                </g>
            </g>
            <g transform="matrix(-0.156434, -0.987688, 0.987688, -0.156434, 56.2427, 416.37)" >
                <g >
                    <g transform="matrix(-2.533948e-06 -1 1 -2.533948e-06 19.3408 391.881)" >
                        <rect x="203.91" y="184.428" width="3.402" height="3.685" gorn="0.1.0.85.0.0.0"  fill="#9A916C" id="connector83pin"/>
                    </g>
                </g>
            </g>
            <g transform="matrix(-0.052336, -0.99863, 0.99863, -0.052336, 1.66953, 440.01)" >
                <g >
                    <g transform="matrix(-2.535756e-06 -1 1 -2.535756e-06 -11.8203 430.8532)" >
                        <rect x="207.815" y="219.494" width="3.402" height="3.685" gorn="0.1.0.86.0.0.0"  fill="#9A916C" id="connector84pin"/>
                    </g>
                </g>
            </g>
            <g transform="matrix(-0.052336, -0.99863, 0.99863, -0.052336, 11.9888, 448.824)" >
                <g >
                    <g transform="matrix(-2.535755e-06 -1 1 -2.535755e-06 -1.9883 439.7052)" >
                        <rect x="217.157" y="219.004" width="3.402" height="3.685" gorn="0.1.0.87.0.0.0"  fill="#9A916C" id="connector85pin"/>
                    </g>
                </g>
            </g>
            <g transform="matrix(-0.052336, -0.99863, 0.99863, -0.052336, 24.5414, 434.126)" >
                <g >
                    <g transform="matrix(-2.535756e-06 -1 1 -2.535756e-06 10.6177 425.7032)" >
                        <rect x="216.459" y="205.7" width="3.402" height="3.685" gorn="0.1.0.88.0.0.0"  fill="#9A916C" id="connector86pin"/>
                    </g>
                </g>
            </g>
            <g transform="matrix(-0.052336, -0.99863, 0.99863, -0.052336, 14.2221, 425.313)" >
                <g >
                    <g transform="matrix(-2.535756e-06 -1 1 -2.535756e-06 0.7877 416.8512)" >
                        <rect x="207.118" y="206.189" width="3.402" height="3.685" gorn="0.1.0.89.0.0.0"  fill="#9A916C" id="connector87pin"/>
                    </g>
                </g>
            </g>
            <g transform="matrix(-0.104528, 0.994522, -0.994522, -0.104528, 31.2435, -15.6015)" >
                <g >
                    <rect x="20.849" y="2.735" width="3.118" height="2.835" gorn="0.1.0.90.0.0"  fill="#9A916C" id="connector88pin"/>
                </g>
            </g>
            <g transform="matrix(-0.104528, 0.994522, -0.994522, -0.104528, 35.4533, -9.80712)" >
                <g >
                    <rect x="20.345" y="7.528" width="3.118" height="2.835" gorn="0.1.0.91.0.0"  fill="#9A916C" id="connector89pin"/>
                </g>
            </g>
        </g>
        <g transform="matrix(1, 0, 0, 1, 42.8622, 10.0748)" >
            <g gorn="0.1.1.0"  id="_x30_603-cap">
                <g transform="matrix(0.207912, -0.978148, 0.978148, 0.207912, 0.68684, 3.11617)" >
                    <g >
                        <path d="M4.702,4.344H0.747c-0.16,0-0.29-0.13-0.29-0.291V2.366c0-0.16,0.13-0.29,0.29-0.29h3.955c0.16,0,0.29,0.13,0.29,0.29v1.687C4.992,4.214,4.862,4.344,4.702,4.344z"  fill="#DCDCDC"/>
                        <g transform="matrix(-1 2.533685e-06 -2.533685e-06 -1 5.4507 6.4207)" >
                            <rect x="1.591" y="2.076" width="2.268" height="2.268"  fill="#6E554B"/>
                        </g>
                    </g>
                </g>
            </g>
        </g>
        <g transform="matrix(1, 0, 0, 1, 86.0198, 24.0975)" >
            <g gorn="0.1.2.0"  id="_x30_603-cap_1_">
                <g transform="matrix(0.406737, -0.913545, 0.913545, 0.406737, 0.309264, 2.74422)" >
                    <g >
                        <path d="M5.124,4.204l-3.955,0c-0.16,0-0.29-0.13-0.29-0.291V2.226c0-0.16,0.13-0.29,0.29-0.29h3.955c0.16,0,0.29,0.13,0.29,0.29v1.687C5.414,4.074,5.284,4.204,5.124,4.204z"  fill="#DCDCDC"/>
                        <g transform="matrix(-1 2.540484e-06 -2.540484e-06 -1 6.2941 6.1398)" >
                            <rect x="2.013" y="1.936" width="2.268" height="2.268"  fill="#6E554B"/>
                        </g>
                    </g>
                </g>
            </g>
        </g>
        <g transform="matrix(1, 0, 0, 1, 106.263, 34.4123)" >
            <g gorn="0.1.3.0"  id="_x30_603-cap_2_">
                <g transform="matrix(0.5, -0.866025, 0.866025, 0.5, 0.151677, 2.53071)" >
                    <g >
                        <path d="M5.322,4.101H1.367c-0.16,0-0.29-0.13-0.29-0.291V2.123c0-0.16,0.13-0.29,0.29-0.29l3.955,0c0.16,0,0.29,0.13,0.29,0.29V3.81C5.612,3.971,5.482,4.101,5.322,4.101z"  fill="#DCDCDC"/>
                        <g transform="matrix(-1 2.520686e-06 -2.520686e-06 -1 6.6892 5.9348)" >
                            <rect x="2.211" y="1.833" width="2.268" height="2.268"  fill="#6E554B"/>
                        </g>
                    </g>
                </g>
            </g>
        </g>
        <g transform="matrix(1, 0, 0, 1, 125.318, 46.7866)" >
            <g gorn="0.1.4.0"  id="_x30_603-cap_3_">
                <g transform="matrix(0.587785, -0.809017, 0.809017, 0.587785, 0.0172715, 2.3019)" >
                    <g >
                        <path d="M5.507,3.979H1.552c-0.16,0-0.29-0.13-0.29-0.291V2.001c0-0.16,0.13-0.29,0.29-0.29h3.955c0.16,0,0.29,0.13,0.29,0.29v1.687C5.797,3.849,5.667,3.979,5.507,3.979z"  fill="#DCDCDC"/>
                        <g transform="matrix(-1 2.532194e-06 -2.532194e-06 -1 7.0607 5.6896)" >
                            <rect x="2.396" y="1.711" width="2.268" height="2.268"  fill="#6E554B"/>
                        </g>
                    </g>
                </g>
            </g>
        </g>
        <g transform="matrix(1, 0, 0, 1, 142.975, 61.0849)" >
            <g gorn="0.1.5.0"  id="_x30_603-cap_4_">
                <g transform="matrix(0.669131, -0.743145, 0.743145, 0.669131, -0.0924797, 2.06029)" >
                    <g >
                        <path d="M5.679,3.837H1.724c-0.16,0-0.29-0.13-0.29-0.291V1.859c0-0.16,0.13-0.29,0.29-0.29h3.955c0.16,0,0.29,0.13,0.29,0.29v1.687C5.969,3.707,5.839,3.837,5.679,3.837z"  fill="#DCDCDC"/>
                        <g transform="matrix(-1 2.541973e-06 -2.541973e-06 -1 7.4045 5.407)" >
                            <rect x="2.568" y="1.569" width="2.268" height="2.268"  fill="#6E554B"/>
                        </g>
                    </g>
                </g>
            </g>
        </g>
        <g transform="matrix(1, 0, 0, 1, 173.339, 94.8074)" >
            <g gorn="0.1.6.0"  id="_x30_603-cap_5_">
                <g transform="matrix(0.809017, -0.587785, 0.587785, 0.809017, -0.233495, 1.54938)" >
                    <g >
                        <path d="M5.974,3.505H2.019c-0.16,0-0.29-0.13-0.29-0.291V1.527c0-0.16,0.13-0.29,0.29-0.29h3.955c0.16,0,0.29,0.13,0.29,0.29v1.687C6.264,3.375,6.134,3.505,5.974,3.505z"  fill="#DCDCDC"/>
                        <g transform="matrix(-1 2.538169e-06 -2.538169e-06 -1 7.9945 4.742)" >
                            <rect x="2.863" y="1.237" width="2.268" height="2.268"  fill="#6E554B"/>
                        </g>
                    </g>
                </g>
            </g>
        </g>
        <g transform="matrix(1, 0, 0, 1, 185.714, 113.862)" >
            <g gorn="0.1.7.0"  id="_x30_603-cap_6_">
                <g transform="matrix(0.866025, -0.5, 0.5, 0.866025, -0.263213, 1.28568)" >
                    <g >
                        <path d="M6.094,3.317H2.139c-0.16,0-0.29-0.13-0.29-0.291V1.339c0-0.16,0.13-0.29,0.29-0.29h3.955c0.16,0,0.29,0.13,0.29,0.29v1.687C6.384,3.187,6.254,3.317,6.094,3.317z"  fill="#DCDCDC"/>
                        <g transform="matrix(-1 2.549677e-06 -2.549677e-06 -1 8.2341 4.3669)" >
                            <rect x="2.983" y="1.049" width="2.268" height="2.268"  fill="#6E554B"/>
                        </g>
                    </g>
                </g>
            </g>
        </g>
        <g transform="matrix(1, 0, 0, 1, 196.029, 134.106)" >
            <g gorn="0.1.8.0"  id="_x30_603-cap_7_">
                <g transform="matrix(0.913545, -0.406737, 0.406737, 0.913545, -0.265203, 1.02031)" >
                    <g >
                        <path d="M6.194,3.118H2.239c-0.16,0-0.29-0.13-0.29-0.291V1.14c0-0.16,0.13-0.29,0.29-0.29h3.955c0.16,0,0.29,0.13,0.29,0.29v1.687C6.484,2.988,6.354,3.118,6.194,3.118z"  fill="#DCDCDC"/>
                        <g transform="matrix(-1 2.529879e-06 -2.529879e-06 -1 8.4333 3.9689)" >
                            <rect x="3.083" y="0.85" width="2.268" height="2.268"  fill="#6E554B"/>
                        </g>
                    </g>
                </g>
            </g>
        </g>
        <g transform="matrix(1, 0, 0, 1, 210.051, 177.264)" >
            <g gorn="0.1.9.0"  id="_x30_603-cap_8_">
                <g transform="matrix(0.978148, -0.207912, 0.207912, 0.978148, -0.186222, 0.49622)" >
                    <g >
                        <path d="M6.328,2.695H2.373c-0.16,0-0.29-0.13-0.29-0.291V0.717c0-0.16,0.13-0.29,0.29-0.29h3.955c0.16,0,0.29,0.13,0.29,0.29v1.687C6.618,2.565,6.488,2.695,6.328,2.695z"  fill="#DCDCDC"/>
                        <g transform="matrix(-1 2.536678e-06 -2.536678e-06 -1 8.7017 3.1214)" >
                            <rect x="3.217" y="0.427" width="2.268" height="2.268"  fill="#6E554B"/>
                        </g>
                    </g>
                </g>
            </g>
        </g>
        <g transform="matrix(1, 0, 0, 1, 213.605, 199.704)" >
            <g gorn="0.1.10.0"  id="_x30_603-cap_9_">
                <g transform="matrix(0.994522, -0.104528, 0.104528, 0.994522, -0.106114, 0.24323)" >
                    <g >
                        <path d="M6.361,2.475H2.406c-0.16,0-0.29-0.13-0.29-0.291V0.497c0-0.16,0.13-0.29,0.29-0.29l3.955,0c0.16,0,0.29,0.13,0.29,0.29v1.687C6.651,2.345,6.521,2.475,6.361,2.475z"  fill="#DCDCDC"/>
                        <g transform="matrix(-1 2.540169e-06 -2.540169e-06 -1 8.7681 2.6813)" >
                            <rect x="3.25" y="0.207" width="2.268" height="2.268"  fill="#6E554B"/>
                        </g>
                    </g>
                </g>
            </g>
        </g>
        <g transform="matrix(1, 0, 0, 1, 3.61763, 0.382896)" >
            <g gorn="0.1.11.0"  id="ws2812b-narrow">
                <g transform="matrix(0.99863, 0.052336, -0.052336, 0.99863, 0.433285, -0.389482)" >
                    <g >
                        <g >
                            <g transform="matrix(2.534608e-06 1 -1 2.534608e-06 14.0436 -5.5087)" >
                                <rect x="8.784" y="-3.386" width="1.984" height="15.307"  fill="#DCDCDC"/>
                            </g>
                            <g transform="matrix(2.534608e-06 1 -1 2.534608e-06 23.3977 3.8452)" >
                                <rect x="8.784" y="5.968" width="1.984" height="15.307"  fill="#DCDCDC"/>
                            </g>
                            <g transform="matrix(2.534608e-06 1 -1 2.534608e-06 18.7194 -0.8323)" >
                                <rect x="2.689" y="1.857" width="14.173" height="14.173"  fill="#F0F0F0"/>
                            </g>
                            <g transform="matrix(0.0523 -0.9986 0.9986 0.0523 0.3329 18.2389)" >
                                <ellipse cx="9.776" cy="8.944" rx="6.024" ry="6.024"  fill="#DCDCDC"/>
                            </g>
                            <g transform="matrix(0.0523 -0.9986 0.9986 0.0523 0.3329 18.2389)" >
                                <ellipse cx="9.776" cy="8.944" rx="4.961" ry="4.961"  fill="#C8C8C8"/>
                            </g>
                            <polygon points="5.24,1.857 2.689,1.857 2.689,4.408 "  fill="#E6E6E6"/>
                            <path d="M12.848,6.109v0.124c0,0.157-0.127,0.283-0.283,0.283h-2.006c-0.157,0-0.283-0.127-0.283-0.283l0-2.199c-0.167-0.017-0.329-0.05-0.5-0.05c-0.171,0-0.333,0.033-0.5,0.05v6.905c0,0.157-0.127,0.283-0.283,0.283H6.986c-0.157,0-0.283-0.127-0.283-0.283v-4.83c0-0.157-0.127-0.283-0.283-0.283H5.946C5.25,6.68,4.815,7.756,4.815,8.944c0,1.263,0.486,2.402,1.263,3.278h2.914c0.157,0,0.283,0.127,0.283,0.283v1.349c0.167,0.017,0.329,0.05,0.5,0.05c0.171,0,0.333-0.033,0.5-0.05l0-6.054c0-0.157,0.127-0.283,0.283-0.283h2.006c0.157,0,0.283,0.127,0.283,0.283v3.979c0,0.157,0.127,0.283,0.283,0.283h0.473c0.696-0.854,1.131-1.93,1.131-3.118s-0.435-2.264-1.131-3.118l-0.471,0C12.975,5.826,12.848,5.953,12.848,6.109z"  fill="#F0F0F0"/>
                            <g transform="matrix(2.534608e-06 1 -1 2.534608e-06 17.5459 1.5892)" >
                                <rect x="7.128" y="8.434" width="1.701" height="2.268"  fill="#645050"/>
                            </g>
                            <g transform="matrix(2.534606e-06 1 -1 2.534606e-06 19.9859 -2.0988)" >
                                <rect x="10.759" y="8.519" width="0.567" height="0.85"  fill="#FF4000"/>
                            </g>
                            <g transform="matrix(2.534608e-06 1 -1 2.534608e-06 22.8209 0.7362)" >
                                <rect x="10.759" y="11.354" width="0.567" height="0.85"  fill="#40FF40"/>
                            </g>
                            <g transform="matrix(2.534608e-06 1 -1 2.534608e-06 17.1519 -4.9328)" >
                                <rect x="10.759" y="5.685" width="0.567" height="0.85"  fill="#4040FF"/>
                            </g>
                        </g>
                    </g>
                </g>
            </g>
        </g>
        <g transform="matrix(1, 0, 0, 1, 26.0364, 2.73922)" >
            <g gorn="0.1.12.0"  id="ws2812b-narrow_1_">
                <g transform="matrix(0.987688, 0.156434, -0.156434, 0.987688, 1.35798, -1.09781)" >
                    <g >
                        <g >
                            <g transform="matrix(2.536415e-06 1 -1 2.536415e-06 13.7976 -5.7049)" >
                                <rect x="8.759" y="-3.607" width="1.984" height="15.307"  fill="#DCDCDC"/>
                            </g>
                            <g transform="matrix(2.536415e-06 1 -1 2.536415e-06 23.1517 3.6489)" >
                                <rect x="8.759" y="5.747" width="1.984" height="15.307"  fill="#DCDCDC"/>
                            </g>
                            <g transform="matrix(2.536415e-06 1 -1 2.536415e-06 18.4734 -1.0285)" >
                                <rect x="2.664" y="1.636" width="14.173" height="14.173"  fill="#F0F0F0"/>
                            </g>
                            <g transform="matrix(0.1564 -0.9877 0.9877 0.1564 -0.3895 16.9898)" >
                                <ellipse cx="9.751" cy="8.723" rx="6.024" ry="6.024"  fill="#DCDCDC"/>
                            </g>
                            <g transform="matrix(0.1564 -0.9877 0.9877 0.1564 -0.3895 16.9898)" >
                                <ellipse cx="9.751" cy="8.723" rx="4.961" ry="4.961"  fill="#C8C8C8"/>
                            </g>
                            <polygon points="5.215,1.636 2.664,1.636 2.664,4.187 "  fill="#E6E6E6"/>
                            <path d="M12.823,5.888v0.124c0,0.157-0.127,0.283-0.283,0.283h-2.006c-0.157,0-0.283-0.127-0.283-0.283l0-2.199c-0.167-0.017-0.329-0.05-0.5-0.05c-0.171,0-0.333,0.033-0.5,0.05v6.905c0,0.157-0.127,0.283-0.283,0.283H6.961c-0.157,0-0.283-0.127-0.283-0.283v-4.83c0-0.157-0.127-0.283-0.283-0.283H5.921C5.225,6.459,4.79,7.535,4.79,8.723c0,1.263,0.486,2.402,1.263,3.278h2.914c0.157,0,0.283,0.127,0.283,0.283v1.349c0.167,0.017,0.329,0.05,0.5,0.05c0.171,0,0.333-0.033,0.5-0.05l0-6.054c0-0.157,0.127-0.283,0.283-0.283h2.006c0.157,0,0.283,0.127,0.283,0.283v3.979c0,0.157,0.127,0.283,0.283,0.283h0.473c0.696-0.854,1.131-1.93,1.131-3.118s-0.435-2.264-1.131-3.118l-0.471,0C12.95,5.605,12.823,5.732,12.823,5.888z"  fill="#F0F0F0"/>
                            <g transform="matrix(2.536415e-06 1 -1 2.536415e-06 17.2998 1.3929)" >
                                <rect x="7.103" y="8.212" width="1.701" height="2.268"  fill="#645050"/>
                            </g>
                            <g transform="matrix(2.536415e-06 1 -1 2.536415e-06 19.7399 -2.295)" >
                                <rect x="10.734" y="8.297" width="0.567" height="0.85"  fill="#FF4000"/>
                            </g>
                            <g transform="matrix(2.536415e-06 1 -1 2.536415e-06 22.5748 0.54)" >
                                <rect x="10.734" y="11.132" width="0.567" height="0.85"  fill="#40FF40"/>
                            </g>
                            <g transform="matrix(2.536415e-06 1 -1 2.536415e-06 16.9058 -5.129)" >
                                <rect x="10.734" y="5.463" width="0.567" height="0.85"  fill="#4040FF"/>
                            </g>
                        </g>
                    </g>
                </g>
            </g>
        </g>
        <g transform="matrix(1, 0, 0, 1, 48.0861, 7.42601)" >
            <g gorn="0.1.13.0"  id="ws2812b-narrow_2_">
                <g transform="matrix(0.965926, 0.258819, -0.258819, 0.965926, 2.35166, -1.7056)" >
                    <g >
                        <g >
                            <g transform="matrix(2.519628e-06 1 -1 2.519628e-06 13.5323 -5.8744)" >
                                <rect x="8.711" y="-3.825" width="1.984" height="15.307"  fill="#DCDCDC"/>
                            </g>
                            <g transform="matrix(2.519628e-06 1 -1 2.519628e-06 22.8864 3.4795)" >
                                <rect x="8.711" y="5.529" width="1.984" height="15.307"  fill="#DCDCDC"/>
                            </g>
                            <g transform="matrix(2.519628e-06 1 -1 2.519628e-06 18.2081 -1.198)" >
                                <rect x="2.617" y="1.419" width="14.173" height="14.173"  fill="#F0F0F0"/>
                            </g>
                            <g transform="matrix(0.2588 -0.9659 0.9659 0.2588 -1.0236 15.6771)" >
                                <ellipse cx="9.704" cy="8.506" rx="6.024" ry="6.024"  fill="#DCDCDC"/>
                            </g>
                            <g transform="matrix(0.2588 -0.9659 0.9659 0.2588 -1.0236 15.6771)" >
                                <ellipse cx="9.704" cy="8.506" rx="4.961" ry="4.961"  fill="#C8C8C8"/>
                            </g>
                            <polygon points="5.168,1.419 2.617,1.419 2.617,3.97 "  fill="#E6E6E6"/>
                            <path d="M12.776,5.671v0.124c0,0.157-0.127,0.283-0.283,0.283h-2.006c-0.157,0-0.283-0.127-0.283-0.283l0-2.199c-0.167-0.017-0.329-0.05-0.5-0.05c-0.171,0-0.333,0.033-0.5,0.05v6.905c0,0.157-0.127,0.283-0.283,0.283H6.914c-0.157,0-0.283-0.127-0.283-0.283v-4.83c0-0.157-0.127-0.283-0.283-0.283H5.874c-0.696,0.854-1.131,1.93-1.131,3.118c0,1.263,0.486,2.402,1.263,3.278H8.92c0.157,0,0.283,0.127,0.283,0.283v1.349c0.167,0.017,0.329,0.05,0.5,0.05c0.171,0,0.333-0.033,0.5-0.05l0-6.054c0-0.157,0.127-0.283,0.283-0.283h2.006c0.157,0,0.283,0.127,0.283,0.283v3.979c0,0.157,0.127,0.283,0.283,0.283h0.473c0.696-0.854,1.131-1.93,1.131-3.118s-0.435-2.264-1.131-3.118l-0.471,0C12.903,5.388,12.776,5.515,12.776,5.671z"  fill="#F0F0F0"/>
                            <g transform="matrix(2.519628e-06 1 -1 2.519628e-06 17.0346 1.2235)" >
                                <rect x="7.055" y="7.995" width="1.701" height="2.268"  fill="#645050"/>
                            </g>
                            <g transform="matrix(2.519629e-06 1 -1 2.519629e-06 19.4747 -2.4645)" >
                                <rect x="10.686" y="8.08" width="0.567" height="0.85"  fill="#FF4000"/>
                            </g>
                            <g transform="matrix(2.519628e-06 1 -1 2.519628e-06 22.3096 0.3705)" >
                                <rect x="10.686" y="10.915" width="0.567" height="0.85"  fill="#40FF40"/>
                            </g>
                            <g transform="matrix(2.519628e-06 1 -1 2.519628e-06 16.6406 -5.2985)" >
                                <rect x="10.686" y="5.246" width="0.567" height="0.85"  fill="#4040FF"/>
                            </g>
                        </g>
                    </g>
                </g>
            </g>
        </g>
        <g transform="matrix(1, 0, 0, 1, 69.5251, 14.3919)" >
            <g gorn="0.1.14.0"  id="ws2812b-narrow_3_">
                <g transform="matrix(0.93358, 0.358368, -0.358368, 0.93358, 3.40342, -2.2062)" >
                    <g >
                        <g >
                            <g transform="matrix(2.519781e-06 1 -1 2.519781e-06 13.2509 -6.0152)" >
                                <rect x="8.641" y="-4.036" width="1.984" height="15.307"  fill="#DCDCDC"/>
                            </g>
                            <g transform="matrix(2.519780e-06 1 -1 2.519780e-06 22.605 3.3387)" >
                                <rect x="8.641" y="5.318" width="1.984" height="15.307"  fill="#DCDCDC"/>
                            </g>
                            <g transform="matrix(2.519781e-06 1 -1 2.519781e-06 17.9267 -1.3388)" >
                                <rect x="2.546" y="1.207" width="14.173" height="14.173"  fill="#F0F0F0"/>
                            </g>
                            <g transform="matrix(0.3584 -0.9336 0.9336 0.3584 -1.5625 14.3154)" >
                                <ellipse cx="9.633" cy="8.294" rx="6.024" ry="6.024"  fill="#DCDCDC"/>
                            </g>
                            <g transform="matrix(0.3584 -0.9336 0.9336 0.3584 -1.5625 14.3154)" >
                                <ellipse cx="9.633" cy="8.294" rx="4.961" ry="4.961"  fill="#C8C8C8"/>
                            </g>
                            <polygon points="5.097,1.207 2.546,1.207 2.546,3.758 "  fill="#E6E6E6"/>
                            <path d="M12.705,5.459v0.124c0,0.157-0.127,0.283-0.283,0.283h-2.006c-0.157,0-0.283-0.127-0.283-0.283l0-2.199c-0.167-0.017-0.329-0.05-0.5-0.05c-0.171,0-0.333,0.033-0.5,0.05v6.905c0,0.157-0.127,0.283-0.283,0.283H6.843c-0.157,0-0.283-0.127-0.283-0.283v-4.83c0-0.157-0.127-0.283-0.283-0.283H5.803C5.107,6.03,4.672,7.106,4.672,8.294c0,1.263,0.486,2.402,1.263,3.278h2.914c0.157,0,0.283,0.127,0.283,0.283v1.349c0.167,0.017,0.329,0.05,0.5,0.05c0.171,0,0.333-0.033,0.5-0.05l0-6.054c0-0.157,0.127-0.283,0.283-0.283l2.006,0c0.157,0,0.283,0.127,0.283,0.283v3.979c0,0.157,0.127,0.283,0.283,0.283h0.473c0.696-0.854,1.131-1.93,1.131-3.118S14.156,6.03,13.46,5.176l-0.471,0C12.832,5.176,12.705,5.303,12.705,5.459z"  fill="#F0F0F0"/>
                            <g transform="matrix(2.519780e-06 1 -1 2.519780e-06 16.7532 1.0827)" >
                                <rect x="6.985" y="7.784" width="1.701" height="2.268"  fill="#645050"/>
                            </g>
                            <g transform="matrix(2.519781e-06 1 -1 2.519781e-06 19.1932 -2.6053)" >
                                <rect x="10.616" y="7.869" width="0.567" height="0.85"  fill="#FF4000"/>
                            </g>
                            <g transform="matrix(2.519780e-06 1 -1 2.519780e-06 22.0282 0.2297)" >
                                <rect x="10.616" y="10.704" width="0.567" height="0.85"  fill="#40FF40"/>
                            </g>
                            <g transform="matrix(2.519781e-06 1 -1 2.519781e-06 16.3592 -5.4393)" >
                                <rect x="10.616" y="5.035" width="0.567" height="0.85"  fill="#4040FF"/>
                            </g>
                        </g>
                    </g>
                </g>
            </g>
        </g>
        <g transform="matrix(1, 0, 0, 1, 90.1181, 23.5607)" >
            <g gorn="0.1.15.0"  id="ws2812b-narrow_4_">
                <g transform="matrix(0.891007, 0.45399, -0.45399, 0.891007, 4.50175, -2.59411)" >
                    <g >
                        <g >
                            <g transform="matrix(2.526927e-06 1 -1 2.526927e-06 12.9562 -6.1258)" >
                                <rect x="8.549" y="-4.238" width="1.984" height="15.307"  fill="#DCDCDC"/>
                            </g>
                            <g transform="matrix(2.526927e-06 1 -1 2.526927e-06 22.3103 3.2281)" >
                                <rect x="8.549" y="5.116" width="1.984" height="15.307"  fill="#DCDCDC"/>
                            </g>
                            <g transform="matrix(2.526927e-06 1 -1 2.526927e-06 17.632 -1.4494)" >
                                <rect x="2.454" y="1.005" width="14.173" height="14.173"  fill="#F0F0F0"/>
                            </g>
                            <g transform="matrix(0.454 -0.891 0.891 0.454 -2.0002 12.9195)" >
                                <ellipse cx="9.541" cy="8.092" rx="6.024" ry="6.024"  fill="#DCDCDC"/>
                            </g>
                            <g transform="matrix(0.454 -0.891 0.891 0.454 -2.0002 12.9195)" >
                                <ellipse cx="9.541" cy="8.092" rx="4.961" ry="4.961"  fill="#C8C8C8"/>
                            </g>
                            <polygon points="5.005,1.005 2.454,1.005 2.454,3.556 "  fill="#E6E6E6"/>
                            <path d="M12.613,5.257v0.124c0,0.157-0.127,0.283-0.283,0.283h-2.006c-0.157,0-0.283-0.127-0.283-0.283l0-2.199c-0.167-0.017-0.329-0.05-0.5-0.05c-0.171,0-0.333,0.033-0.5,0.05v6.905c0,0.157-0.127,0.283-0.283,0.283H6.751c-0.157,0-0.283-0.127-0.283-0.283v-4.83c0-0.157-0.127-0.283-0.283-0.283H5.711C5.015,5.828,4.58,6.904,4.58,8.092c0,1.263,0.486,2.402,1.263,3.278h2.914c0.157,0,0.283,0.127,0.283,0.283v1.349c0.167,0.017,0.329,0.05,0.5,0.05c0.171,0,0.333-0.033,0.5-0.05l0-6.054c0-0.157,0.127-0.283,0.283-0.283h2.006c0.157,0,0.283,0.127,0.283,0.283v3.979c0,0.157,0.127,0.283,0.283,0.283h0.473c0.696-0.854,1.131-1.93,1.131-3.118s-0.435-2.264-1.131-3.118l-0.471,0C12.74,4.974,12.613,5.101,12.613,5.257z"  fill="#F0F0F0"/>
                            <g transform="matrix(2.526927e-06 1 -1 2.526927e-06 16.4585 0.972)" >
                                <rect x="6.893" y="7.581" width="1.701" height="2.268"  fill="#645050"/>
                            </g>
                            <g transform="matrix(2.526927e-06 1 -1 2.526927e-06 18.8985 -2.7159)" >
                                <rect x="10.524" y="7.666" width="0.567" height="0.85"  fill="#FF4000"/>
                            </g>
                            <g transform="matrix(2.526927e-06 1 -1 2.526927e-06 21.7335 0.1191)" >
                                <rect x="10.524" y="10.501" width="0.567" height="0.85"  fill="#40FF40"/>
                            </g>
                            <g transform="matrix(2.526927e-06 1 -1 2.526927e-06 16.0645 -5.5499)" >
                                <rect x="10.524" y="4.832" width="0.567" height="0.85"  fill="#4040FF"/>
                            </g>
                        </g>
                    </g>
                </g>
            </g>
        </g>
        <g transform="matrix(1, 0, 0, 1, 109.641, 34.8319)" >
            <g gorn="0.1.16.0"  id="ws2812b-narrow_5_">
                <g transform="matrix(0.838671, 0.544639, -0.544639, 0.838671, 5.6346, -2.86509)" >
                    <g >
                        <g >
                            <g transform="matrix(2.558015e-06 1 -1 2.558015e-06 12.6516 -6.205)" >
                                <rect x="8.436" y="-4.43" width="1.984" height="15.307"  fill="#DCDCDC"/>
                            </g>
                            <g transform="matrix(2.558015e-06 1 -1 2.558015e-06 22.0057 3.1488)" >
                                <rect x="8.436" y="4.924" width="1.984" height="15.307"  fill="#DCDCDC"/>
                            </g>
                            <g transform="matrix(2.558015e-06 1 -1 2.558015e-06 17.3274 -1.5286)" >
                                <rect x="2.342" y="0.813" width="14.173" height="14.173"  fill="#F0F0F0"/>
                            </g>
                            <g transform="matrix(0.5446 -0.8387 0.8387 0.5446 -2.332 11.5048)" >
                                <ellipse cx="9.429" cy="7.9" rx="6.024" ry="6.024"  fill="#DCDCDC"/>
                            </g>
                            <g transform="matrix(0.5446 -0.8387 0.8387 0.5446 -2.332 11.5048)" >
                                <ellipse cx="9.429" cy="7.9" rx="4.961" ry="4.961"  fill="#C8C8C8"/>
                            </g>
                            <polygon points="4.893,0.813 2.342,0.813 2.342,3.364 "  fill="#E6E6E6"/>
                            <path d="M12.501,5.065v0.124c0,0.157-0.127,0.283-0.283,0.283h-2.006c-0.157,0-0.283-0.127-0.283-0.283l0-2.199C9.762,2.973,9.6,2.94,9.429,2.94c-0.171,0-0.333,0.033-0.5,0.05v6.905c0,0.157-0.127,0.283-0.283,0.283H6.639c-0.157,0-0.283-0.127-0.283-0.283v-4.83c0-0.157-0.127-0.283-0.283-0.283H5.599C4.903,5.636,4.468,6.712,4.468,7.9c0,1.263,0.486,2.402,1.263,3.278h2.914c0.157,0,0.283,0.127,0.283,0.283v1.349c0.167,0.017,0.329,0.05,0.5,0.05c0.171,0,0.333-0.033,0.5-0.05l0-6.054c0-0.157,0.127-0.283,0.283-0.283h2.006c0.157,0,0.283,0.127,0.283,0.283v3.979c0,0.157,0.127,0.283,0.283,0.283h0.473c0.696-0.854,1.131-1.93,1.131-3.118s-0.435-2.264-1.131-3.118l-0.471,0C12.628,4.782,12.501,4.909,12.501,5.065z"  fill="#F0F0F0"/>
                            <g transform="matrix(2.558015e-06 1 -1 2.558015e-06 16.1539 0.8928)" >
                                <rect x="6.78" y="7.389" width="1.701" height="2.268"  fill="#645050"/>
                            </g>
                            <g transform="matrix(2.558015e-06 1 -1 2.558015e-06 18.5939 -2.7951)" >
                                <rect x="10.411" y="7.474" width="0.567" height="0.85"  fill="#FF4000"/>
                            </g>
                            <g transform="matrix(2.558015e-06 1 -1 2.558015e-06 21.4289 0.0399)" >
                                <rect x="10.411" y="10.309" width="0.567" height="0.85"  fill="#40FF40"/>
                            </g>
                            <g transform="matrix(2.558015e-06 1 -1 2.558015e-06 15.7599 -5.6291)" >
                                <rect x="10.411" y="4.64" width="0.567" height="0.85"  fill="#4040FF"/>
                            </g>
                        </g>
                    </g>
                </g>
            </g>
        </g>
        <g transform="matrix(1, 0, 0, 1, 127.878, 48.0819)" >
            <g gorn="0.1.17.0"  id="ws2812b-narrow_6_">
                <g transform="matrix(0.777146, 0.62932, -0.62932, 0.777146, 6.78958, -3.01617)" >
                    <g >
                        <g >
                            <g transform="matrix(2.503948e-06 1 -1 2.503948e-06 12.3404 -6.252)" >
                                <rect x="8.304" y="-4.609" width="1.984" height="15.307"  fill="#DCDCDC"/>
                            </g>
                            <g transform="matrix(2.503947e-06 1 -1 2.503947e-06 21.6945 3.1019)" >
                                <rect x="8.304" y="4.745" width="1.984" height="15.307"  fill="#DCDCDC"/>
                            </g>
                            <g transform="matrix(2.503947e-06 1 -1 2.503947e-06 17.0162 -1.5756)" >
                                <rect x="2.209" y="0.634" width="14.173" height="14.173"  fill="#F0F0F0"/>
                            </g>
                            <g transform="matrix(0.6293 -0.7771 0.7771 0.6293 -2.5542 10.0866)" >
                                <ellipse cx="9.296" cy="7.721" rx="6.024" ry="6.024"  fill="#DCDCDC"/>
                            </g>
                            <g transform="matrix(0.6293 -0.7771 0.7771 0.6293 -2.5542 10.0866)" >
                                <ellipse cx="9.296" cy="7.721" rx="4.961" ry="4.961"  fill="#C8C8C8"/>
                            </g>
                            <polygon points="4.76,0.634 2.209,0.634 2.209,3.185 "  fill="#E6E6E6"/>
                            <path d="M12.368,4.886V5.01c0,0.157-0.127,0.283-0.283,0.283l-2.006,0c-0.157,0-0.283-0.127-0.283-0.283l0-2.199c-0.167-0.017-0.329-0.05-0.5-0.05c-0.171,0-0.333,0.033-0.5,0.05v6.905c0,0.157-0.127,0.283-0.283,0.283H6.506c-0.157,0-0.283-0.127-0.283-0.283l0-4.83c0-0.157-0.127-0.283-0.283-0.283H5.466C4.77,5.457,4.335,6.533,4.335,7.721c0,1.263,0.486,2.402,1.263,3.278h2.914c0.157,0,0.283,0.127,0.283,0.283v1.349c0.167,0.017,0.329,0.05,0.5,0.05c0.171,0,0.333-0.033,0.5-0.05l0-6.054c0-0.157,0.127-0.283,0.283-0.283l2.006,0c0.157,0,0.283,0.127,0.283,0.283v3.979c0,0.157,0.127,0.283,0.283,0.283h0.473c0.696-0.854,1.131-1.93,1.131-3.118s-0.435-2.264-1.131-3.118l-0.471,0C12.495,4.603,12.368,4.73,12.368,4.886z"  fill="#F0F0F0"/>
                            <g transform="matrix(2.503947e-06 1 -1 2.503947e-06 15.8427 0.8459)" >
                                <rect x="6.648" y="7.21" width="1.701" height="2.268"  fill="#645050"/>
                            </g>
                            <g transform="matrix(2.503949e-06 1 -1 2.503949e-06 18.2827 -2.8421)" >
                                <rect x="10.279" y="7.295" width="0.567" height="0.85"  fill="#FF4000"/>
                            </g>
                            <g transform="matrix(2.503946e-06 1 -1 2.503946e-06 21.1177 -0.0071)" >
                                <rect x="10.279" y="10.13" width="0.567" height="0.85"  fill="#40FF40"/>
                            </g>
                            <g transform="matrix(2.503947e-06 1 -1 2.503947e-06 15.4487 -5.6761)" >
                                <rect x="10.279" y="4.461" width="0.567" height="0.85"  fill="#4040FF"/>
                            </g>
                        </g>
                    </g>
                </g>
            </g>
        </g>
        <g transform="matrix(1, 0, 0, 1, 144.63, 63.1656)" >
            <g gorn="0.1.18.0"  id="ws2812b-narrow_7_">
                <g transform="matrix(0.707107, 0.707107, -0.707107, 0.707107, 7.95406, -3.04569)" >
                    <g >
                        <g >
                            <g transform="matrix(2.535182e-06 1 -1 2.535182e-06 12.026 -6.2661)" >
                                <rect x="8.154" y="-4.774" width="1.984" height="15.307"  fill="#DCDCDC"/>
                            </g>
                            <g transform="matrix(2.535182e-06 1 -1 2.535182e-06 21.3801 3.0877)" >
                                <rect x="8.154" y="4.58" width="1.984" height="15.307"  fill="#DCDCDC"/>
                            </g>
                            <g transform="matrix(2.535181e-06 1 -1 2.535181e-06 16.7018 -1.5897)" >
                                <rect x="2.059" y="0.47" width="14.173" height="14.173"  fill="#F0F0F0"/>
                            </g>
                            <g transform="matrix(0.7071 -0.7071 0.7071 0.7071 -2.6644 8.6807)" >
                                <ellipse cx="9.146" cy="7.557" rx="6.024" ry="6.024"  fill="#DCDCDC"/>
                            </g>
                            <g transform="matrix(0.7071 -0.7071 0.7071 0.7071 -2.6644 8.6807)" >
                                <ellipse cx="9.146" cy="7.557" rx="4.961" ry="4.961"  fill="#C8C8C8"/>
                            </g>
                            <polygon points="4.61,0.47 2.059,0.47 2.059,3.021 "  fill="#E6E6E6"/>
                            <path d="M12.218,4.722v0.124c0,0.157-0.127,0.283-0.283,0.283H9.929c-0.157,0-0.283-0.127-0.283-0.283l0-2.199c-0.167-0.017-0.329-0.05-0.5-0.05c-0.171,0-0.333,0.033-0.5,0.05v6.905c0,0.157-0.127,0.283-0.283,0.283H6.356c-0.157,0-0.283-0.127-0.283-0.283v-4.83c0-0.157-0.127-0.283-0.283-0.283H5.316C4.62,5.293,4.185,6.369,4.185,7.557c0,1.263,0.486,2.402,1.263,3.278h2.914c0.157,0,0.283,0.127,0.283,0.283v1.349c0.167,0.017,0.329,0.05,0.5,0.05c0.171,0,0.333-0.033,0.5-0.05l0-6.054c0-0.157,0.127-0.283,0.283-0.283h2.006c0.157,0,0.283,0.127,0.283,0.283v3.979c0,0.157,0.127,0.283,0.283,0.283h0.473c0.696-0.854,1.131-1.93,1.131-3.118s-0.435-2.264-1.131-3.118l-0.471,0C12.345,4.439,12.218,4.566,12.218,4.722z"  fill="#F0F0F0"/>
                            <g transform="matrix(2.535181e-06 1 -1 2.535181e-06 15.5283 0.8317)" >
                                <rect x="6.498" y="7.046" width="1.701" height="2.268"  fill="#645050"/>
                            </g>
                            <g transform="matrix(2.535182e-06 1 -1 2.535182e-06 17.9683 -2.8562)" >
                                <rect x="10.129" y="7.131" width="0.567" height="0.85"  fill="#FF4000"/>
                            </g>
                            <g transform="matrix(2.535182e-06 1 -1 2.535182e-06 20.8033 -0.0212)" >
                                <rect x="10.129" y="9.966" width="0.567" height="0.85"  fill="#40FF40"/>
                            </g>
                            <g transform="matrix(2.535182e-06 1 -1 2.535182e-06 15.1343 -5.6902)" >
                                <rect x="10.129" y="4.297" width="0.567" height="0.85"  fill="#4040FF"/>
                            </g>
                        </g>
                    </g>
                </g>
            </g>
        </g>
        <g transform="matrix(1, 0, 0, 1, 159.713, 79.9178)" >
            <g gorn="0.1.19.0"  id="ws2812b-narrow_8_">
                <g transform="matrix(0.62932, 0.777146, -0.777146, 0.62932, 9.1152, -2.95334)" >
                    <g >
                        <g >
                            <g transform="matrix(2.566416e-06 1 -1 2.566416e-06 11.7118 -6.2473)" >
                                <rect x="7.988" y="-4.921" width="1.984" height="15.307"  fill="#DCDCDC"/>
                            </g>
                            <g transform="matrix(2.566416e-06 1 -1 2.566416e-06 21.0659 3.1065)" >
                                <rect x="7.988" y="4.433" width="1.984" height="15.307"  fill="#DCDCDC"/>
                            </g>
                            <g transform="matrix(2.566416e-06 1 -1 2.566416e-06 16.3876 -1.571)" >
                                <rect x="1.893" y="0.322" width="14.173" height="14.173"  fill="#F0F0F0"/>
                            </g>
                            <g transform="matrix(0.7771 -0.6293 0.6293 0.7771 -2.6614 7.3023)" >
                                <ellipse cx="8.98" cy="7.409" rx="6.024" ry="6.024"  fill="#DCDCDC"/>
                            </g>
                            <g transform="matrix(0.7771 -0.6293 0.6293 0.7771 -2.6614 7.3023)" >
                                <ellipse cx="8.98" cy="7.409" rx="4.961" ry="4.961"  fill="#C8C8C8"/>
                            </g>
                            <polygon points="4.444,0.322 1.893,0.322 1.893,2.873 "  fill="#E6E6E6"/>
                            <path d="M12.052,4.574v0.124c0,0.157-0.127,0.283-0.283,0.283H9.763c-0.157,0-0.283-0.127-0.283-0.283l0-2.199c-0.167-0.017-0.329-0.05-0.5-0.05c-0.171,0-0.333,0.033-0.5,0.05v6.905c0,0.157-0.127,0.283-0.283,0.283H6.19c-0.157,0-0.283-0.127-0.283-0.283v-4.83c0-0.157-0.127-0.283-0.283-0.283H5.15c-0.696,0.854-1.131,1.93-1.131,3.118c0,1.263,0.486,2.402,1.263,3.278h2.914c0.157,0,0.283,0.127,0.283,0.283l0,1.349c0.167,0.017,0.329,0.05,0.5,0.05c0.171,0,0.333-0.033,0.5-0.05l0-6.054c0-0.157,0.127-0.283,0.283-0.283h2.006c0.157,0,0.283,0.127,0.283,0.283v3.979c0,0.157,0.127,0.283,0.283,0.283h0.473c0.696-0.854,1.131-1.93,1.131-3.118s-0.435-2.264-1.131-3.118l-0.471,0C12.179,4.291,12.052,4.418,12.052,4.574z"  fill="#F0F0F0"/>
                            <g transform="matrix(2.566416e-06 1 -1 2.566416e-06 15.2141 0.8505)" >
                                <rect x="6.331" y="6.898" width="1.701" height="2.268"  fill="#645050"/>
                            </g>
                            <g transform="matrix(2.566418e-06 1 -1 2.566418e-06 17.6542 -2.8374)" >
                                <rect x="9.962" y="6.983" width="0.567" height="0.85"  fill="#FF4000"/>
                            </g>
                            <g transform="matrix(2.566418e-06 1 -1 2.566418e-06 20.4891 -0.0025)" >
                                <rect x="9.962" y="9.818" width="0.567" height="0.85"  fill="#40FF40"/>
                            </g>
                            <g transform="matrix(2.566418e-06 1 -1 2.566418e-06 14.8201 -5.6714)" >
                                <rect x="9.962" y="4.149" width="0.567" height="0.85"  fill="#4040FF"/>
                            </g>
                        </g>
                    </g>
                </g>
            </g>
        </g>
        <g transform="matrix(1, 0, 0, 1, 172.963, 98.1547)" >
            <g gorn="0.1.20.0"  id="ws2812b-narrow_9_">
                <g transform="matrix(0.544639, 0.838671, -0.838671, 0.544639, 10.2603, -2.74012)" >
                    <g >
                        <g >
                            <g transform="matrix(2.512348e-06 1 -1 2.512348e-06 11.4014 -6.1958)" >
                                <rect x="7.807" y="-5.051" width="1.984" height="15.307"  fill="#DCDCDC"/>
                            </g>
                            <g transform="matrix(2.512347e-06 1 -1 2.512347e-06 20.7555 3.1581)" >
                                <rect x="7.807" y="4.303" width="1.984" height="15.307"  fill="#DCDCDC"/>
                            </g>
                            <g transform="matrix(2.512348e-06 1 -1 2.512348e-06 16.0772 -1.5194)" >
                                <rect x="1.712" y="0.192" width="14.173" height="14.173"  fill="#F0F0F0"/>
                            </g>
                            <g transform="matrix(0.8387 -0.5446 0.5446 0.8387 -2.5451 5.9666)" >
                                <ellipse cx="8.799" cy="7.279" rx="6.024" ry="6.024"  fill="#DCDCDC"/>
                            </g>
                            <g transform="matrix(0.8387 -0.5446 0.5446 0.8387 -2.5451 5.9666)" >
                                <ellipse cx="8.799" cy="7.279" rx="4.961" ry="4.961"  fill="#C8C8C8"/>
                            </g>
                            <polygon points="4.263,0.192 1.712,0.192 1.712,2.743 "  fill="#E6E6E6"/>
                            <path d="M11.871,4.444v0.124c0,0.157-0.127,0.283-0.283,0.283H9.582c-0.157,0-0.283-0.127-0.283-0.283l0-2.199c-0.167-0.017-0.329-0.05-0.5-0.05c-0.171,0-0.333,0.033-0.5,0.05v6.905c0,0.157-0.127,0.283-0.283,0.283H6.009c-0.157,0-0.283-0.127-0.283-0.283v-4.83c0-0.157-0.127-0.283-0.283-0.283H4.969c-0.696,0.854-1.131,1.93-1.131,3.118c0,1.263,0.486,2.402,1.263,3.278h2.914c0.157,0,0.283,0.127,0.283,0.283v1.349c0.167,0.017,0.329,0.05,0.5,0.05c0.171,0,0.333-0.033,0.5-0.05l0-6.054c0-0.157,0.127-0.283,0.283-0.283h2.006c0.157,0,0.283,0.127,0.283,0.283v3.979c0,0.157,0.127,0.283,0.283,0.283h0.473c0.696-0.854,1.131-1.93,1.131-3.118s-0.435-2.264-1.131-3.118l-0.471,0C11.998,4.161,11.871,4.288,11.871,4.444z"  fill="#F0F0F0"/>
                            <g transform="matrix(2.512348e-06 1 -1 2.512348e-06 14.9037 0.902)" >
                                <rect x="6.15" y="6.769" width="1.701" height="2.268"  fill="#645050"/>
                            </g>
                            <g transform="matrix(2.512348e-06 1 -1 2.512348e-06 17.3437 -2.7859)" >
                                <rect x="9.781" y="6.854" width="0.567" height="0.85"  fill="#FF4000"/>
                            </g>
                            <g transform="matrix(2.512348e-06 1 -1 2.512348e-06 20.1787 0.0491)" >
                                <rect x="9.781" y="9.689" width="0.567" height="0.85"  fill="#40FF40"/>
                            </g>
                            <g transform="matrix(2.512348e-06 1 -1 2.512348e-06 14.5097 -5.6199)" >
                                <rect x="9.781" y="4.02" width="0.567" height="0.85"  fill="#4040FF"/>
                            </g>
                        </g>
                    </g>
                </g>
            </g>
        </g>
        <g transform="matrix(1, 0, 0, 1, 184.235, 117.677)" >
            <g gorn="0.1.21.0"  id="ws2812b-narrow_10_">
                <g transform="matrix(0.45399, 0.891007, -0.891007, 0.45399, 11.3769, -2.40837)" >
                    <g >
                        <g >
                            <g transform="matrix(2.543436e-06 1 -1 2.543436e-06 11.098 -6.1121)" >
                                <rect x="7.613" y="-5.161" width="1.984" height="15.307"  fill="#DCDCDC"/>
                            </g>
                            <g transform="matrix(2.543437e-06 1 -1 2.543437e-06 20.4521 3.2418)" >
                                <rect x="7.613" y="4.193" width="1.984" height="15.307"  fill="#DCDCDC"/>
                            </g>
                            <g transform="matrix(2.543436e-06 1 -1 2.543436e-06 15.7738 -1.4357)" >
                                <rect x="1.518" y="0.083" width="14.173" height="14.173"  fill="#F0F0F0"/>
                            </g>
                            <g transform="matrix(0.891 -0.454 0.454 0.891 -2.317 4.6881)" >
                                <ellipse cx="8.605" cy="7.17" rx="6.024" ry="6.024"  fill="#DCDCDC"/>
                            </g>
                            <g transform="matrix(0.891 -0.454 0.454 0.891 -2.317 4.6881)" >
                                <ellipse cx="8.605" cy="7.17" rx="4.961" ry="4.961"  fill="#C8C8C8"/>
                            </g>
                            <polygon points="4.069,0.083 1.518,0.083 1.518,2.634 "  fill="#E6E6E6"/>
                            <path d="M11.677,4.335v0.124c0,0.157-0.127,0.283-0.283,0.283H9.388c-0.157,0-0.283-0.127-0.283-0.283l0-2.199c-0.167-0.017-0.329-0.05-0.5-0.05c-0.171,0-0.333,0.033-0.5,0.05v6.905c0,0.157-0.127,0.283-0.283,0.283H5.815c-0.157,0-0.283-0.127-0.283-0.283v-4.83c0-0.157-0.127-0.283-0.283-0.283H4.775C4.079,4.906,3.644,5.982,3.644,7.17c0,1.263,0.486,2.402,1.263,3.278l2.914,0c0.157,0,0.283,0.127,0.283,0.283v1.349c0.167,0.017,0.329,0.05,0.5,0.05c0.171,0,0.333-0.033,0.5-0.05l0-6.054c0-0.157,0.127-0.283,0.283-0.283h2.006c0.157,0,0.283,0.127,0.283,0.283l0,3.979c0,0.157,0.127,0.283,0.283,0.283h0.473c0.696-0.854,1.131-1.93,1.131-3.118c0-1.188-0.435-2.264-1.131-3.118l-0.471,0C11.804,4.052,11.677,4.179,11.677,4.335z"  fill="#F0F0F0"/>
                            <g transform="matrix(2.543436e-06 1 -1 2.543436e-06 14.6003 0.9857)" >
                                <rect x="5.957" y="6.659" width="1.701" height="2.268"  fill="#645050"/>
                            </g>
                            <g transform="matrix(2.543436e-06 1 -1 2.543436e-06 17.0403 -2.7022)" >
                                <rect x="9.588" y="6.744" width="0.567" height="0.85"  fill="#FF4000"/>
                            </g>
                            <g transform="matrix(2.543436e-06 1 -1 2.543436e-06 19.8753 0.1328)" >
                                <rect x="9.588" y="9.579" width="0.567" height="0.85"  fill="#40FF40"/>
                            </g>
                            <g transform="matrix(2.543434e-06 1 -1 2.543434e-06 14.2063 -5.5362)" >
                                <rect x="9.588" y="3.91" width="0.567" height="0.85"  fill="#4040FF"/>
                            </g>
                        </g>
                    </g>
                </g>
            </g>
        </g>
        <g transform="matrix(1, 0, 0, 1, 193.404, 138.27)" >
            <g gorn="0.1.22.0"  id="ws2812b-narrow_11_">
                <g transform="matrix(0.358368, 0.93358, -0.93358, 0.358368, 12.4527, -1.96172)" >
                    <g >
                        <g >
                            <g transform="matrix(2.550583e-06 1 -1 2.550583e-06 10.805 -5.9972)" >
                                <rect x="7.409" y="-5.25" width="1.984" height="15.307"  fill="#DCDCDC"/>
                            </g>
                            <g transform="matrix(2.550583e-06 1 -1 2.550583e-06 20.1591 3.3567)" >
                                <rect x="7.409" y="4.104" width="1.984" height="15.307"  fill="#DCDCDC"/>
                            </g>
                            <g transform="matrix(2.550583e-06 1 -1 2.550583e-06 15.4808 -1.3208)" >
                                <rect x="1.314" y="-0.006" width="14.173" height="14.173"  fill="#F0F0F0"/>
                            </g>
                            <g transform="matrix(0.9336 -0.3584 0.3584 0.9336 -1.9794 3.4811)" >
                                <ellipse cx="8.401" cy="7.081" rx="6.024" ry="6.024"  fill="#DCDCDC"/>
                            </g>
                            <g transform="matrix(0.9336 -0.3584 0.3584 0.9336 -1.9794 3.4811)" >
                                <ellipse cx="8.401" cy="7.081" rx="4.961" ry="4.961"  fill="#C8C8C8"/>
                            </g>
                            <polygon points="3.865,-0.006 1.314,-0.006 1.314,2.545 "  fill="#E6E6E6"/>
                            <path d="M11.473,4.246V4.37c0,0.157-0.127,0.283-0.283,0.283H9.184c-0.157,0-0.283-0.127-0.283-0.283l0-2.199c-0.167-0.017-0.329-0.05-0.5-0.05c-0.171,0-0.333,0.033-0.5,0.05v6.905c0,0.157-0.127,0.283-0.283,0.283H5.611c-0.157,0-0.283-0.127-0.283-0.283l0-4.83c0-0.157-0.127-0.283-0.283-0.283H4.571C3.875,4.817,3.44,5.893,3.44,7.081c0,1.263,0.486,2.402,1.263,3.278h2.914c0.157,0,0.283,0.127,0.283,0.283l0,1.349c0.167,0.017,0.329,0.05,0.5,0.05c0.171,0,0.333-0.033,0.5-0.05l0-6.054c0-0.157,0.127-0.283,0.283-0.283h2.006c0.157,0,0.283,0.127,0.283,0.283v3.979c0,0.157,0.127,0.283,0.283,0.283h0.473c0.696-0.854,1.131-1.93,1.131-3.118s-0.435-2.264-1.131-3.118l-0.471,0C11.6,3.963,11.473,4.09,11.473,4.246z"  fill="#F0F0F0"/>
                            <g transform="matrix(2.550582e-06 1 -1 2.550582e-06 14.3073 1.1007)" >
                                <rect x="5.753" y="6.57" width="1.701" height="2.268"  fill="#645050"/>
                            </g>
                            <g transform="matrix(2.550582e-06 1 -1 2.550582e-06 16.7473 -2.5873)" >
                                <rect x="9.384" y="6.655" width="0.567" height="0.85"  fill="#FF4000"/>
                            </g>
                            <g transform="matrix(2.550581e-06 1 -1 2.550581e-06 19.5823 0.2477)" >
                                <rect x="9.384" y="9.49" width="0.567" height="0.85"  fill="#40FF40"/>
                            </g>
                            <g transform="matrix(2.550584e-06 1 -1 2.550584e-06 13.9133 -5.4213)" >
                                <rect x="9.384" y="3.821" width="0.567" height="0.85"  fill="#4040FF"/>
                            </g>
                        </g>
                    </g>
                </g>
            </g>
        </g>
        <g transform="matrix(1, 0, 0, 1, 200.37, 159.71)" >
            <g gorn="0.1.23.0"  id="ws2812b-narrow_12_">
                <g transform="matrix(0.258819, 0.965926, -0.965926, 0.258819, 13.4759, -1.40507)" >
                    <g >
                        <g >
                            <g transform="matrix(2.550734e-06 1 -1 2.550734e-06 10.5256 -5.8522)" >
                                <rect x="7.197" y="-5.317" width="1.984" height="15.307"  fill="#DCDCDC"/>
                            </g>
                            <g transform="matrix(2.550735e-06 1 -1 2.550735e-06 19.8797 3.5017)" >
                                <rect x="7.197" y="4.037" width="1.984" height="15.307"  fill="#DCDCDC"/>
                            </g>
                            <g transform="matrix(2.550735e-06 1 -1 2.550735e-06 15.2014 -1.1758)" >
                                <rect x="1.102" y="-0.074" width="14.173" height="14.173"  fill="#F0F0F0"/>
                            </g>
                            <g transform="matrix(0.9659 -0.2588 0.2588 0.9659 -1.5361 2.3585)" >
                                <ellipse cx="8.189" cy="7.013" rx="6.024" ry="6.024"  fill="#DCDCDC"/>
                            </g>
                            <g transform="matrix(0.9659 -0.2588 0.2588 0.9659 -1.5361 2.3585)" >
                                <ellipse cx="8.189" cy="7.013" rx="4.961" ry="4.961"  fill="#C8C8C8"/>
                            </g>
                            <polygon points="3.653,-0.074 1.102,-0.074 1.102,2.477 "  fill="#E6E6E6"/>
                            <path d="M11.261,4.178v0.124c0,0.157-0.127,0.283-0.283,0.283l-2.006,0c-0.157,0-0.283-0.127-0.283-0.283l0-2.199c-0.167-0.017-0.329-0.05-0.5-0.05c-0.171,0-0.333,0.033-0.5,0.05l0,6.905c0,0.157-0.127,0.283-0.283,0.283H5.399c-0.157,0-0.283-0.127-0.283-0.283v-4.83c0-0.157-0.127-0.283-0.283-0.283H4.359c-0.696,0.854-1.131,1.93-1.131,3.118c0,1.263,0.486,2.402,1.263,3.278h2.914c0.157,0,0.283,0.127,0.283,0.283v1.349c0.167,0.017,0.329,0.05,0.5,0.05c0.171,0,0.333-0.033,0.5-0.05l0-6.054c0-0.157,0.127-0.283,0.283-0.283h2.006c0.157,0,0.283,0.127,0.283,0.283v3.979c0,0.157,0.127,0.283,0.283,0.283h0.473c0.696-0.854,1.131-1.93,1.131-3.118s-0.435-2.264-1.131-3.118l-0.471,0C11.388,3.895,11.261,4.022,11.261,4.178z"  fill="#F0F0F0"/>
                            <g transform="matrix(2.550735e-06 1 -1 2.550735e-06 14.0279 1.2456)" >
                                <rect x="5.541" y="6.503" width="1.701" height="2.268"  fill="#645050"/>
                            </g>
                            <g transform="matrix(2.550734e-06 1 -1 2.550734e-06 16.4679 -2.4423)" >
                                <rect x="9.172" y="6.588" width="0.567" height="0.85"  fill="#FF4000"/>
                            </g>
                            <g transform="matrix(2.550734e-06 1 -1 2.550734e-06 19.3029 0.3927)" >
                                <rect x="9.172" y="9.423" width="0.567" height="0.85"  fill="#40FF40"/>
                            </g>
                            <g transform="matrix(2.550735e-06 1 -1 2.550735e-06 13.6339 -5.2763)" >
                                <rect x="9.172" y="3.754" width="0.567" height="0.85"  fill="#4040FF"/>
                            </g>
                        </g>
                    </g>
                </g>
            </g>
        </g>
        <g transform="matrix(1, 0, 0, 1, 205.056, 181.759)" >
            <g gorn="0.1.24.0"  id="ws2812b-narrow_13_">
                <g transform="matrix(0.156434, 0.987688, -0.987688, 0.156434, 14.4353, -0.744516)" >
                    <g >
                        <g >
                            <g transform="matrix(2.533948e-06 1 -1 2.533948e-06 10.2629 -5.6789)" >
                                <rect x="6.979" y="-5.361" width="1.984" height="15.307"  fill="#DCDCDC"/>
                            </g>
                            <g transform="matrix(2.533948e-06 1 -1 2.533948e-06 19.617 3.675)" >
                                <rect x="6.979" y="3.993" width="1.984" height="15.307"  fill="#DCDCDC"/>
                            </g>
                            <g transform="matrix(2.533948e-06 1 -1 2.533948e-06 14.9387 -1.0025)" >
                                <rect x="0.884" y="-0.118" width="14.173" height="14.173"  fill="#F0F0F0"/>
                            </g>
                            <g transform="matrix(0.9877 -0.1564 0.1564 0.9877 -0.992 1.3328)" >
                                <ellipse cx="7.971" cy="6.969" rx="6.024" ry="6.024"  fill="#DCDCDC"/>
                            </g>
                            <g transform="matrix(0.9877 -0.1564 0.1564 0.9877 -0.992 1.3328)" >
                                <ellipse cx="7.971" cy="6.969" rx="4.961" ry="4.961"  fill="#C8C8C8"/>
                            </g>
                            <polygon points="3.435,-0.118 0.884,-0.118 0.884,2.433 "  fill="#E6E6E6"/>
                            <path d="M11.043,4.134v0.124c0,0.157-0.127,0.283-0.283,0.283H8.754c-0.157,0-0.283-0.127-0.283-0.283l0-2.199c-0.167-0.017-0.329-0.05-0.5-0.05s-0.333,0.033-0.5,0.05v6.905c0,0.157-0.127,0.283-0.283,0.283H5.181c-0.157,0-0.283-0.127-0.283-0.283l0-4.83c0-0.157-0.127-0.283-0.283-0.283H4.141C3.445,4.705,3.01,5.781,3.01,6.969c0,1.263,0.486,2.402,1.263,3.278h2.914c0.157,0,0.283,0.127,0.283,0.283v1.349c0.167,0.017,0.329,0.05,0.5,0.05s0.333-0.033,0.5-0.05l0-6.054c0-0.157,0.127-0.283,0.283-0.283h2.006c0.157,0,0.283,0.127,0.283,0.283v3.979c0,0.157,0.127,0.283,0.283,0.283h0.473c0.696-0.854,1.131-1.93,1.131-3.118s-0.435-2.264-1.131-3.118l-0.471,0C11.17,3.851,11.043,3.978,11.043,4.134z"  fill="#F0F0F0"/>
                            <g transform="matrix(2.533948e-06 1 -1 2.533948e-06 13.7652 1.419)" >
                                <rect x="5.323" y="6.458" width="1.701" height="2.268"  fill="#645050"/>
                            </g>
                            <g transform="matrix(2.533949e-06 1 -1 2.533949e-06 16.2052 -2.269)" >
                                <rect x="8.954" y="6.543" width="0.567" height="0.85"  fill="#FF4000"/>
                            </g>
                            <g transform="matrix(2.533947e-06 1 -1 2.533947e-06 19.0402 0.566)" >
                                <rect x="8.954" y="9.378" width="0.567" height="0.85"  fill="#40FF40"/>
                            </g>
                            <g transform="matrix(2.533949e-06 1 -1 2.533949e-06 13.3712 -5.103)" >
                                <rect x="8.954" y="3.709" width="0.567" height="0.85"  fill="#4040FF"/>
                            </g>
                        </g>
                    </g>
                </g>
            </g>
        </g>
        <g transform="matrix(1, 0, 0, 1, 207.413, 204.178)" >
            <g gorn="0.1.25.0"  id="ws2812b-narrow_14_">
                <g transform="matrix(0.052336, 0.99863, -0.99863, 0.052336, 15.3204, 0.0127084)" >
                    <g >
                        <g >
                            <g transform="matrix(2.535756e-06 1 -1 2.535756e-06 10.0198 -5.479)" >
                                <rect x="6.757" y="-5.383" width="1.984" height="15.307"  fill="#DCDCDC"/>
                            </g>
                            <g transform="matrix(2.535756e-06 1 -1 2.535756e-06 19.3739 3.8749)" >
                                <rect x="6.758" y="3.971" width="1.984" height="15.307"  fill="#DCDCDC"/>
                            </g>
                            <g transform="matrix(2.535756e-06 1 -1 2.535756e-06 14.6956 -0.8026)" >
                                <rect x="0.663" y="-0.14" width="14.173" height="14.173"  fill="#F0F0F0"/>
                            </g>
                            <g transform="matrix(0.9986 -0.0523 0.0523 0.9986 -0.353 0.4151)" >
                                <ellipse cx="7.75" cy="6.947" rx="6.024" ry="6.024"  fill="#DCDCDC"/>
                            </g>
                            <g transform="matrix(0.9986 -0.0523 0.0523 0.9986 -0.353 0.4151)" >
                                <ellipse cx="7.75" cy="6.947" rx="4.961" ry="4.961"  fill="#C8C8C8"/>
                            </g>
                            <polygon points="3.214,-0.14 0.663,-0.14 0.663,2.411 "  fill="#E6E6E6"/>
                            <path d="M10.822,4.112v0.124c0,0.157-0.127,0.283-0.283,0.283H8.533c-0.157,0-0.283-0.127-0.283-0.283l0-2.199c-0.167-0.017-0.329-0.05-0.5-0.05s-0.333,0.033-0.5,0.05v6.905c0,0.157-0.127,0.283-0.283,0.283H4.96c-0.157,0-0.283-0.127-0.283-0.283v-4.83c0-0.157-0.127-0.283-0.283-0.283H3.92c-0.696,0.854-1.131,1.93-1.131,3.118c0,1.263,0.486,2.402,1.263,3.278h2.914c0.157,0,0.283,0.127,0.283,0.283v1.349c0.167,0.017,0.329,0.05,0.5,0.05s0.333-0.033,0.5-0.05l0-6.054c0-0.157,0.127-0.283,0.283-0.283h2.006c0.157,0,0.283,0.127,0.283,0.283v3.979c0,0.157,0.127,0.283,0.283,0.283h0.473c0.696-0.854,1.131-1.93,1.131-3.118s-0.435-2.264-1.131-3.118l-0.471,0C10.949,3.829,10.822,3.956,10.822,4.112z"  fill="#F0F0F0"/>
                            <g transform="matrix(2.535755e-06 1 -1 2.535755e-06 13.5221 1.6189)" >
                                <rect x="5.101" y="6.436" width="1.701" height="2.268"  fill="#645050"/>
                            </g>
                            <g transform="matrix(2.535757e-06 1 -1 2.535757e-06 15.9621 -2.0691)" >
                                <rect x="8.732" y="6.522" width="0.567" height="0.85"  fill="#FF4000"/>
                            </g>
                            <g transform="matrix(2.535757e-06 1 -1 2.535757e-06 18.7971 0.7659)" >
                                <rect x="8.732" y="9.357" width="0.567" height="0.85"  fill="#40FF40"/>
                            </g>
                            <g transform="matrix(2.535757e-06 1 -1 2.535757e-06 13.1281 -4.9031)" >
                                <rect x="8.732" y="3.688" width="0.567" height="0.85"  fill="#4040FF"/>
                            </g>
                        </g>
                    </g>
                </g>
            </g>
        </g>
        <g transform="matrix(1, 0, 0, 1, 20.1262, 7.52731)" >
            <g gorn="0.1.26.0"  id="_x30_603-res">
                <g transform="matrix(-0.104528, 0.994522, -0.994522, -0.104528, 3.63231, -1.00254)" >
                    <g >
                        <path d="M4.007,0.155l-3.955,0c-0.16,0-0.29-0.13-0.29-0.291v-1.687c0-0.16,0.13-0.29,0.29-0.29h3.955c0.16,0,0.29,0.13,0.29,0.29l0,1.687C4.297,0.025,4.167,0.155,4.007,0.155z"  fill="#DCDCDC"/>
                        <rect x="0.896" y="-2.113" width="2.268" height="2.268"  fill="#333333"/>
                    </g>
                </g>
            </g>
        </g>
    </g>
</svg>
