<?xml version='1.0' encoding='utf-8'?>
<!-- Generator: Adobe Illustrator 20.0.0, SVG Export Plug-In . SVG Version: 6.00 Build 0)  -->
<svg xmlns="http://www.w3.org/2000/svg" baseProfile="tiny" width="1.6in" viewBox="0 0 115.2 187.2"  xml:space="preserve" id="Layer_1" xmlns:xml="http://www.w3.org/XML/1998/namespace" x="0px" height="2.6in" gorn="0" y="0px" version="1.2">
    <desc >
        <referenceFile >Adafruit TFT 2.2 inch 320x240 w microSD_breadboard.svg</referenceFile>
    </desc>
    <desc >Fritzing breadboard generated by brd2svg</desc>
    <g  id="breadboard" gorn="0.2">
        <g  id="icon" gorn="0.2.0">
            <path fill="#014CB1"  d="M0,180V7.2C0,3.224,3.224,0,7.2,0c0,0,0,0,0,0H108c3.976,0,7.2,3.224,7.2,7.2V180c0,3.976-3.224,7.2-7.2,7.2H7.2C3.224,187.2,0,183.976,0,180 M88.582,179.943c0,0.783,0.635,1.417,1.417,1.417c0.783,0,1.417-0.635,1.417-1.417s-0.635-1.417-1.417-1.417C89.217,178.526,88.582,179.16,88.582,179.943z M81.382,179.943c0,0.783,0.635,1.417,1.417,1.417c0.783,0,1.417-0.635,1.417-1.417s-0.635-1.417-1.417-1.417C82.017,178.526,81.382,179.16,81.382,179.943z M74.182,179.943c0,0.783,0.635,1.417,1.417,1.417s1.417-0.635,1.417-1.417s-0.635-1.417-1.417-1.417S74.182,179.16,74.182,179.943z M66.983,179.943c0,0.783,0.635,1.417,1.417,1.417s1.417-0.635,1.417-1.417s-0.635-1.417-1.417-1.417S66.983,179.16,66.983,179.943z M59.783,179.943c0,0.783,0.635,1.417,1.417,1.417s1.417-0.635,1.417-1.417s-0.635-1.417-1.417-1.417S59.783,179.16,59.783,179.943z M52.583,179.943c0,0.783,0.635,1.417,1.417,1.417c0.783,0,1.417-0.635,1.417-1.417s-0.635-1.417-1.417-1.417S52.583,179.16,52.583,179.943z M45.383,179.943c0,0.783,0.635,1.417,1.417,1.417c0.783,0,1.417-0.635,1.417-1.417s-0.635-1.417-1.417-1.417S45.383,179.16,45.383,179.943z M38.183,179.943c0,0.783,0.635,1.417,1.417,1.417s1.417-0.635,1.417-1.417s-0.635-1.417-1.417-1.417S38.183,179.16,38.183,179.943z M30.983,179.943c0,0.783,0.635,1.417,1.417,1.417c0.783,0,1.417-0.635,1.417-1.417s-0.635-1.417-1.417-1.417C31.617,178.526,30.983,179.16,30.983,179.943z M23.783,179.943c0,0.783,0.635,1.417,1.417,1.417c0.783,0,1.417-0.635,1.417-1.417s-0.635-1.417-1.417-1.417C24.417,178.526,23.783,179.16,23.783,179.943z M104.457,180c-0.003,1.957,1.58,3.546,3.537,3.55c1.957,0.003,3.546-1.58,3.55-3.537c0-0.004,0-0.008,0-0.012c0.003-1.957-1.58-3.546-3.537-3.55s-3.546,1.58-3.55,3.537C104.457,179.992,104.457,179.996,104.457,180z M3.657,7.2c-0.003,1.957,1.58,3.546,3.537,3.549s3.546-1.58,3.549-3.537c0-0.004,0-0.008,0-0.012c0.003-1.957-1.58-3.546-3.537-3.549C5.249,3.647,3.66,5.231,3.657,7.188C3.657,7.192,3.657,7.196,3.657,7.2z M104.457,7.2c-0.003,1.957,1.58,3.546,3.537,3.55c1.957,0.003,3.546-1.58,3.55-3.537c0-0.004,0-0.008,0-0.012c0.003-1.957-1.58-3.546-3.537-3.55c-1.957-0.003-3.546,1.58-3.55,3.537C104.457,7.192,104.457,7.196,104.457,7.2z M3.657,180c-0.003,1.957,1.58,3.546,3.537,3.549c1.957,0.003,3.546-1.58,3.549-3.537c0-0.004,0-0.008,0-0.012c0.003-1.957-1.58-3.546-3.537-3.549s-3.546,1.58-3.549,3.537C3.657,179.992,3.657,179.996,3.657,180z"/>
            <g >
                <title >layer 21</title>
                <g >
                    <title >text:240x320 2.2" TFT w/ILI9340C</title>
                    <g  transform="matrix(1 0 0 1 16.8406 6.408)">
                        <g >
                            <text fill="#FFFFFF" font-size="3.3408" font-family="'OCRA'" >240x320 2.2" TFT w/ILI9340C</text>
                        </g>
                    </g>
                </g>
                <g >
                    <title >text:RST</title>
                    <g  transform="matrix(1 0 0 1 65.6561 176.388)">
                        <g >
                            <text fill="#FFFFFF" font-size="2.67264" font-family="'OCRA'" >RST</text>
                        </g>
                    </g>
                </g>
                <g >
                    <title >text:SDCS</title>
                    <g  transform="matrix(1 0 0 1 56.4322 186.168)">
                        <g >
                            <text fill="#FFFFFF" font-size="2.67264" font-family="'OCRA'" >SDCS</text>
                        </g>
                    </g>
                </g>
                <g >
                    <title >text:CS</title>
                    <g  transform="matrix(1 0 0 1 52.1801 176.388)">
                        <g >
                            <text fill="#FFFFFF" font-size="2.67264" font-family="'OCRA'" >CS</text>
                        </g>
                    </g>
                </g>
                <g >
                    <title >text:MOSI</title>
                    <g  transform="matrix(1 0 0 1 42.2589 186.168)">
                        <g >
                            <text fill="#FFFFFF" font-size="2.67264" font-family="'OCRA'" >MOSI</text>
                        </g>
                    </g>
                </g>
                <g >
                    <title >text:SCK</title>
                    <g  transform="matrix(1 0 0 1 28.6696 186.108)">
                        <g >
                            <text fill="#FFFFFF" font-size="2.67264" font-family="'OCRA'" >SCK</text>
                        </g>
                    </g>
                </g>
                <g >
                    <title >text:MISO</title>
                    <g  transform="matrix(1 0 0 1 35.2857 176.808)">
                        <g >
                            <text fill="#FFFFFF" font-size="2.67264" font-family="'OCRA'" >MISO</text>
                        </g>
                    </g>
                </g>
                <g >
                    <title >text:BL</title>
                    <g  transform="matrix(1 0 0 1 23.8337 176.388)">
                        <g >
                            <text fill="#FFFFFF" font-size="2.67264" font-family="'OCRA'" >BL</text>
                        </g>
                    </g>
                </g>
                <g >
                    <title >text:by adafruit!</title>
                    <g  transform="matrix(1 0 0 1 36.6047 12.528)">
                        <g >
                            <text fill="#FFFFFF" font-size="3.3408" font-family="'OCRA'" >by adafruit!</text>
                        </g>
                    </g>
                </g>
                <g >
                    <title >text:D/C</title>
                    <g  transform="matrix(1 0 0 1 72.5897 186.168)">
                        <g >
                            <text fill="#FFFFFF" font-size="2.67264" font-family="'OCRA'" >D/C</text>
                        </g>
                    </g>
                </g>
                <g >
                    <title >text:VIN</title>
                    <g  transform="matrix(1 0 0 1 80.3959 176.388)">
                        <g >
                            <text fill="#FFFFFF" font-size="2.67264" font-family="'OCRA'" >VIN</text>
                        </g>
                    </g>
                </g>
                <g >
                    <title >text:GND</title>
                    <g  transform="matrix(1 0 0 1 87.0466 186.168)">
                        <g >
                            <text fill="#FFFFFF" font-size="2.67264" font-family="'OCRA'" >GND</text>
                        </g>
                    </g>
                </g>
                <g >
                    <title >element:C1</title>
                    <g >
                        <title >package:0805-NO</title>
                    </g>
                </g>
                <g >
                    <title >element:C2</title>
                    <g >
                        <title >package:0805-NO</title>
                    </g>
                </g>
                <g >
                    <title >element:C3</title>
                    <g >
                        <title >package:0805-NO</title>
                    </g>
                </g>
                <g >
                    <title >element:CN1</title>
                    <g >
                        <title >package:MICROSD</title>
                    </g>
                </g>
                <g >
                    <title >element:FID1</title>
                    <g >
                        <title >package:FIDUCIAL_1MM</title>
                    </g>
                </g>
                <g >
                    <title >element:FID2</title>
                    <g >
                        <title >package:FIDUCIAL_1MM</title>
                    </g>
                </g>
                <g >
                    <title >element:FID3</title>
                    <g >
                        <title >package:FIDUCIAL_1MM</title>
                    </g>
                </g>
                <g >
                    <title >element:IC1</title>
                    <g >
                        <title >package:SOT23-5L</title>
                    </g>
                </g>
                <g >
                    <title >element:JP1</title>
                    <g >
                        <title >package:1X10_ROUND70</title>
                    </g>
                </g>
                <g >
                    <title >element:Q1</title>
                    <g >
                        <title >package:SOT23-WIDE</title>
                    </g>
                </g>
                <g >
                    <title >element:R1</title>
                    <g >
                        <title >package:0805-NO</title>
                    </g>
                </g>
                <g >
                    <title >element:R2</title>
                    <g >
                        <title >package:0805-NO</title>
                    </g>
                </g>
                <g >
                    <title >element:R3</title>
                    <g >
                        <title >package:0805-NO</title>
                    </g>
                </g>
                <g >
                    <title >element:R4</title>
                    <g >
                        <title >package:0805-NO</title>
                    </g>
                </g>
                <g >
                    <title >element:R5</title>
                    <g >
                        <title >package:0805-NO</title>
                    </g>
                </g>
                <g >
                    <title >element:R6</title>
                    <g >
                        <title >package:0805-NO</title>
                    </g>
                </g>
                <g >
                    <title >element:R7</title>
                    <g >
                        <title >package:0805-NO</title>
                    </g>
                </g>
                <g >
                    <title >element:R8</title>
                    <g >
                        <title >package:0805-NO</title>
                    </g>
                </g>
                <g >
                    <title >element:U$2</title>
                    <g >
                        <title >package:MOUNTINGHOLE_2.5_PLATED</title>
                    </g>
                </g>
                <g >
                    <title >element:U$3</title>
                    <g >
                        <title >package:MOUNTINGHOLE_2.5_PLATED</title>
                    </g>
                </g>
                <g >
                    <title >element:U$4</title>
                    <g >
                        <title >package:MOUNTINGHOLE_2.5_PLATED</title>
                    </g>
                </g>
                <g >
                    <title >element:U$5</title>
                    <g >
                        <title >package:MOUNTINGHOLE_2.5_PLATED</title>
                    </g>
                </g>
                <g >
                    <title >element:U$20</title>
                    <g >
                        <title >package:ADAFRUIT_TEXT_30MM</title>
                    </g>
                </g>
                <g >
                    <title >element:U$24</title>
                    <g >
                        <title >package:PCBFEAT-REV-040</title>
                        <circle fill="none" r="2.546"  stroke="#FFFFFF" stroke-width="0.864" cx="18.36" cy="10.8"/>
                        <g >
                            <title >text:B</title>
                            <g  transform="matrix(1 0 0 1 17.352 12.24)">
                                <g >
                                    <text fill="#FFFFFF" font-size="2.67264" font-family="'OCRA'" >B</text>
                                </g>
                            </g>
                        </g>
                    </g>
                </g>
                <g >
                    <title >element:U1</title>
                    <g >
                        <title >package:TM022HDH26_2.2IN_LCD</title>
                        <line x2="115.001" fill="none"  stroke="#FFFFFF" stroke-width="0.36" stroke-linecap="round" y1="14.573" y2="14.573" x1="0.198"/>
                        <line x2="0.198" fill="none"  stroke="#FFFFFF" stroke-width="0.36" stroke-linecap="round" y1="172.179" y2="14.573" x1="0.198"/>
                        <line x2="115.001" fill="none"  stroke="#FFFFFF" stroke-width="0.36" stroke-linecap="round" y1="14.573" y2="172.179" x1="115.001"/>
                        <line x2="0.198" fill="none"  stroke="#FFFFFF" stroke-width="0.36" stroke-linecap="round" y1="172.179" y2="172.179" x1="115.001"/>
                    </g>
                </g>
                <g >
                    <title >element:U2</title>
                    <g >
                        <title >package:SOT23-5</title>
                    </g>
                </g>
                <g >
                    <title >element:U3</title>
                    <g >
                        <title >package:SOIC16</title>
                    </g>
                </g>
            </g>
            <circle fill="none" r="1.969"  stroke="#9A916C" id="connector5pin" stroke-width="1.1027" gorn="0.2.0.2" cx="90" cy="179.943"/>
            <circle fill="none" r="1.969"  stroke="#9A916C" id="connector6pin" stroke-width="1.1027" gorn="0.2.0.3" cx="82.8" cy="179.943"/>
            <circle fill="none" r="1.969"  stroke="#9A916C" id="connector7pin" stroke-width="1.1027" gorn="0.2.0.4" cx="75.6" cy="179.943"/>
            <circle fill="none" r="1.969"  stroke="#9A916C" id="connector8pin" stroke-width="1.1027" gorn="0.2.0.5" cx="68.4" cy="179.943"/>
            <circle fill="none" r="1.969"  stroke="#9A916C" id="connector9pin" stroke-width="1.1027" gorn="0.2.0.6" cx="61.2" cy="179.943"/>
            <circle fill="none" r="1.969"  stroke="#9A916C" id="connector10pin" stroke-width="1.1027" gorn="0.2.0.7" cx="54" cy="179.943"/>
            <circle fill="none" r="1.969"  stroke="#9A916C" id="connector11pin" stroke-width="1.1027" gorn="0.2.0.8" cx="46.8" cy="179.943"/>
            <circle fill="none" r="1.969"  stroke="#9A916C" id="connector12pin" stroke-width="1.1027" gorn="0.2.0.9" cx="39.6" cy="179.943"/>
            <circle fill="none" r="1.969"  stroke="#9A916C" id="connector13pin" stroke-width="1.1027" gorn="0.2.0.10" cx="32.4" cy="179.943"/>
            <circle fill="none" r="1.969"  stroke="#9A916C" id="connector14pin" stroke-width="1.1027" gorn="0.2.0.11" cx="25.2" cy="179.943"/>
            <circle fill="none" r="4.263"  stroke="#9A916C" id="connector15pin" stroke-width="1.44" gorn="0.2.0.12" cx="108" cy="180"/>
            <circle fill="none" r="4.263"  stroke="#9A916C" id="connector16pin" stroke-width="1.44" gorn="0.2.0.13" cx="7.2" cy="7.2"/>
            <circle fill="none" r="4.263"  stroke="#9A916C" id="connector17pin" stroke-width="1.44" gorn="0.2.0.14" cx="108" cy="7.2"/>
            <circle fill="none" r="4.263"  stroke="#9A916C" id="connector18pin" stroke-width="1.44" gorn="0.2.0.15" cx="7.2" cy="180"/>
        </g>
    </g>
    <g >
        <g  transform="matrix(4.501405e-11 -1 1 4.501405e-11 10.083 42.1179)">
            <g >
                <rect fill="#B4B4B4" width="2.889"  x="24.656" height="7.376" y="12.329"/>
            </g>
        </g>
        <g  transform="matrix(4.484597e-11 -1 1 4.484597e-11 73.2688 104.9292)">
            <g >
                <rect fill="#B4B4B4" width="2.515"  x="87.842" height="7.376" y="12.142"/>
            </g>
        </g>
        <g  transform="matrix(4.481577e-11 -1 1 4.481577e-11 -75.7603 190.9598)">
            <g >
                <rect fill="#B4B4B4" width="7.549"  x="53.825" height="114.803" y="75.959"/>
            </g>
        </g>
        <g  transform="matrix(4.496232e-11 -1 1 4.496232e-11 6.2584 108.9411)">
            <g >
                <rect fill="#B4B4B4" width="7.363"  x="53.918" height="114.803" y="-6.06"/>
            </g>
        </g>
        <polygon fill="#DCDCDC"  points="96.952,15.132 81.246,15.132 81.246,14.573 33.954,14.573 33.954,15.132 18.247,15.132 18.247,14.573 0.198,14.573 0.198,43.466 0.719,43.466 0.719,59.217 0.198,59.217 0.198,125.391 0.719,125.391 0.719,141.143 0.198,141.143 0.198,172.179 115.001,172.179 115.001,141.143 114.481,141.143 114.481,125.391 115.001,125.391 115.001,59.217 114.481,59.217 114.481,43.466 115.001,43.466 115.001,14.573 96.952,14.573 "/>
        <path fill="#282828"  d="M94.783,16.437H20.417l-2.863,2.05H5.699c-0.112-0.376-0.428-0.652-0.815-0.652c-0.479,0-0.868,0.417-0.868,0.932c0,0.416,0.258,0.755,0.607,0.876V30.79l-2.083,2.889v28.613l2.083,2.796v9.693l-2.083,2.796v31.503l2.083,2.796v9.693l-2.083,2.889v28.52l2.083,2.796v10.309c-0.35,0.12-0.607,0.46-0.607,0.876c0,0.515,0.389,0.932,0.868,0.932c0.387,0,0.703-0.277,0.815-0.652h2.482v4.94h99.01v-4.94h2.309c0.112,0.376,0.428,0.653,0.815,0.653c0.479,0,0.868-0.417,0.868-0.932c0-0.382-0.215-0.708-0.521-0.852v-10.332l2.083-2.796v-28.52l-2.083-2.889v-9.693l2.083-2.796V77.578l-2.083-2.796l0-9.693l2.083-2.796V33.679l-2.083-2.889V19.619c0.306-0.144,0.521-0.47,0.521-0.852c0-0.515-0.389-0.932-0.868-0.932c-0.387,0-0.703,0.277-0.815,0.652H97.646L94.783,16.437z"/>
        <g  transform="matrix(4.490015e-11 -1 1 4.490015e-11 -35.2636 150.4631)">
            <g >
                <rect fill="#0A0A0A" width="148.193"  x="-16.497" height="105.431" y="40.148"/>
            </g>
        </g>
        <g  transform="matrix(4.481222e-11 -1 1 4.481222e-11 -107.0687 222.2681)">
            <g >
                <rect fill="#E6AA50" width="9.336"  x="52.932" height="59.267" y="135.035"/>
            </g>
        </g>
        <g  transform="matrix(4.475804e-11 -1 1 4.475804e-11 -104.2372 219.5232)">
            <g >
                <rect width="6.99"  x="54.148" height="68.379" y="127.691"/>
            </g>
        </g>
        <g  transform="matrix(4.489304e-11 -1 1 4.489304e-11 -29.6544 145.0744)">
            <g >
                <rect fill="#333333" width="131.603"  x="-8.091" height="99.484" y="37.623"/>
            </g>
        </g>
        <g  transform="matrix(4.489659e-11 -1 1 4.489659e-11 54.5269 112.288)">
            <g >
                <text fill="#FFFFFF" font-size="11.2" font-family="'DroidSans'" >2.2" TFT</text>
            </g>
        </g>
        <g  transform="matrix(4.489659e-11 -1 1 4.489659e-11 71.3267 113.997)">
            <g >
                <text fill="#FFFFFF" font-size="11.2" font-family="'DroidSans'" >320x240</text>
            </g>
        </g>
    </g>
</svg>
