<?xml version='1.0' encoding='UTF-8' standalone='no'?>
<!-- Created with Fritzing (http://www.fritzing.org/) -->
<svg xmlns="http://www.w3.org/2000/svg" gorn="0"  viewBox="0 0 57.6 57.6" x="0in" id="svg2" y="0in" version="1.2" height="0.8in" width="0.8in">
    <desc>
        <referenceFile>Adafruit_BMP085_breadboard.svg</referenceFile>
    </desc>
    <metadata  id="metadata537"/>
    <defs  id="defs535"/>
    <desc  id="desc4">Fritzing breadboard generated by brd2svg</desc>
    <g gorn="0.3"  id="icon">
        <path gorn="0.3.0"  id="path8" style="fill:#014cb1;stroke:none;stroke-width:0" d="M 0,7.2 A 7.2,7.2 0 0 1 7.2,0 l 43.2,0 a 7.2,7.2 0 0 1 7.2,7.2 l 0,43.2 a 7.2,7.2 0 0 1 -7.2,7.2 l -43.2,0 A 7.2,7.2 0 0 1 0,50.4 L 0,7.2 m 5.78268,43.2 a 1.417325,1.417325 0 1 0 2.83465,0 1.417325,1.417325 0 1 0 -2.83465,0 z m 7.20002,0 a 1.417325,1.417325 0 1 0 2.83465,0 1.417325,1.417325 0 1 0 -2.83465,0 z m 7.2,0 a 1.417325,1.417325 0 1 0 2.83465,0 1.417325,1.417325 0 1 0 -2.83465,0 z m 7.2,0 a 1.417325,1.417325 0 1 0 2.83465,0 1.417325,1.417325 0 1 0 -2.83465,0 z m 7.2,0 a 1.417325,1.417325 0 1 0 2.83465,0 1.417325,1.417325 0 1 0 -2.83465,0 z m 7.2,0 a 1.417325,1.417325 0 1 0 2.83465,0 1.417325,1.417325 0 1 0 -2.83465,0 z m 7.2,0 a 1.417325,1.417325 0 1 0 2.83465,0 1.417325,1.417325 0 1 0 -2.83465,0 z M 4.08189,7.2 a 3.11811,3.11811 0 1 0 6.23622,0 3.11811,3.11811 0 1 0 -6.23622,0 z m 43.20001,0 a 3.11811,3.11811 0 1 0 6.23622,0 3.11811,3.11811 0 1 0 -6.23622,0 z"/>
        <g gorn="0.3.1"  id="g10">
            <title  id="title12">layer 21</title>
            <line y1="54.720001" gorn="0.3.1.1"  y2="54.720001" id="line14" style="stroke:#ffffff;stroke-width:1.15199995;stroke-linecap:round" x2="16.559999" x1="12.24"/>
            <line y1="54.720001" gorn="0.3.1.2"  y2="56.16" id="line16" style="stroke:#ffffff;stroke-width:1.15199995;stroke-linecap:round" x2="14.4" x1="16.559999"/>
            <line y1="56.16" gorn="0.3.1.3"  y2="54.720001" id="line18" style="stroke:#ffffff;stroke-width:1.15199995;stroke-linecap:round" x2="12.24" x1="14.4"/>
            <line y1="54.360001" gorn="0.3.1.4"  y2="55.799999" id="line20" style="stroke:#ffffff;stroke-width:1.15199995;stroke-linecap:round" x2="19.440001" x1="21.6"/>
            <line y1="55.799999" gorn="0.3.1.5"  y2="55.799999" id="line22" style="stroke:#ffffff;stroke-width:1.15199995;stroke-linecap:round" x2="23.76" x1="19.440001"/>
            <line y1="55.799999" gorn="0.3.1.6"  y2="54.360001" id="line24" style="stroke:#ffffff;stroke-width:1.15199995;stroke-linecap:round" x2="21.6" x1="23.76"/>
            <line y1="54.360001" gorn="0.3.1.7"  y2="55.799999" id="line26" style="stroke:#ffffff;stroke-width:1.15199995;stroke-linecap:round" x2="26.639999" x1="28.799999"/>
            <line y1="55.799999" gorn="0.3.1.8"  y2="55.799999" id="line28" style="stroke:#ffffff;stroke-width:1.15199995;stroke-linecap:round" x2="30.959999" x1="26.639999"/>
            <line y1="55.799999" gorn="0.3.1.9"  y2="54.360001" id="line30" style="stroke:#ffffff;stroke-width:1.15199995;stroke-linecap:round" x2="28.799999" x1="30.959999"/>
            <line y1="54.360001" gorn="0.3.1.10"  y2="55.799999" id="line32" style="stroke:#ffffff;stroke-width:1.15199995;stroke-linecap:round" x2="5.04" x1="7.1999998"/>
            <line y1="55.799999" gorn="0.3.1.11"  y2="55.799999" id="line34" style="stroke:#ffffff;stroke-width:1.15199995;stroke-linecap:round" x2="9.3599997" x1="5.04"/>
            <line y1="55.799999" gorn="0.3.1.12"  y2="54.360001" id="line36" style="stroke:#ffffff;stroke-width:1.15199995;stroke-linecap:round" x2="7.1999998" x1="9.3599997"/>
            <line y1="54.360001" gorn="0.3.1.13"  y2="55.799999" id="line38" style="stroke:#ffffff;stroke-width:1.15199995;stroke-linecap:round" x2="33.84" x1="36"/>
            <line y1="55.799999" gorn="0.3.1.14"  y2="55.799999" id="line40" style="stroke:#ffffff;stroke-width:1.15199995;stroke-linecap:round" x2="38.16" x1="33.84"/>
            <line y1="55.799999" gorn="0.3.1.15"  y2="54.360001" id="line42" style="stroke:#ffffff;stroke-width:1.15199995;stroke-linecap:round" x2="36" x1="38.16"/>
            <line y1="54.360001" gorn="0.3.1.16"  y2="54.360001" id="line44" style="stroke:#ffffff;stroke-width:1.15199995;stroke-linecap:round" x2="45.360001" x1="41.040001"/>
            <line y1="54.360001" gorn="0.3.1.17"  y2="55.799999" id="line46" style="stroke:#ffffff;stroke-width:1.15199995;stroke-linecap:round" x2="43.200001" x1="45.360001"/>
            <line y1="55.799999" gorn="0.3.1.18"  y2="54.360001" id="line48" style="stroke:#ffffff;stroke-width:1.15199995;stroke-linecap:round" x2="41.040001" x1="43.200001"/>
            <line y1="54.360001" gorn="0.3.1.19"  y2="55.799999" id="line50" style="stroke:#ffffff;stroke-width:1.15199995;stroke-linecap:round" x2="48.240002" x1="50.400002"/>
            <line y1="55.799999" gorn="0.3.1.20"  y2="55.799999" id="line52" style="stroke:#ffffff;stroke-width:1.15199995;stroke-linecap:round" x2="52.560001" x1="48.240002"/>
            <line y1="55.799999" gorn="0.3.1.21"  y2="54.360001" id="line54" style="stroke:#ffffff;stroke-width:1.15199995;stroke-linecap:round" x2="50.400002" x1="52.560001"/>
            <g gorn="0.3.1.22"  id="g56">
                <title  id="title58">text:VIN</title>
                <g  transform="translate(8.28,46.8)">
                    <g gorn="0.3.1.22.1.0"  id="g60">
                        <g  transform="matrix(0,-1,1,0,0,0)">
                            <g gorn="0.3.1.22.1.0.0.0"  id="g62">
                                <text gorn="0.3.1.22.1.0.0.0.0"  font-size="3.3408" id="text64" x="0" y="0" style="font-size:3.34080005px;font-family:OCRA;text-anchor:start;fill:#ffffff;stroke:none;stroke-width:0">VIN</text>
                            </g>
                        </g>
                    </g>
                </g>
            </g>
            <g gorn="0.3.1.23"  id="g66">
                <title  id="title68">text:SCL</title>
                <g  transform="translate(23.04,46.8)">
                    <g gorn="0.3.1.23.1.0"  id="g70">
                        <g  transform="matrix(0,-1,1,0,0,0)">
                            <g gorn="0.3.1.23.1.0.0.0"  id="g72">
                                <text gorn="0.3.1.23.1.0.0.0.0"  font-size="3.3408" id="text74" x="0" y="0" style="font-size:3.34080005px;font-family:OCRA;text-anchor:start;fill:#ffffff;stroke:none;stroke-width:0">SCL</text>
                            </g>
                        </g>
                    </g>
                </g>
            </g>
            <g gorn="0.3.1.24"  id="g76">
                <title  id="title78">text:SDA</title>
                <g  transform="translate(30.24,46.8)">
                    <g gorn="0.3.1.24.1.0"  id="g80">
                        <g  transform="matrix(0,-1,1,0,0,0)">
                            <g gorn="0.3.1.24.1.0.0.0"  id="g82">
                                <text gorn="0.3.1.24.1.0.0.0.0"  font-size="3.3408" id="text84" x="0" y="0" style="font-size:3.34080005px;font-family:OCRA;text-anchor:start;fill:#ffffff;stroke:none;stroke-width:0">SDA</text>
                            </g>
                        </g>
                    </g>
                </g>
            </g>
            <g gorn="0.3.1.25"  id="g86">
                <title  id="title88">text:XCLR</title>
                <g  transform="translate(38.52,46.8)">
                    <g gorn="0.3.1.25.1.0"  id="g90">
                        <g  transform="matrix(0,-1,1,0,0,0)">
                            <g gorn="0.3.1.25.1.0.0.0"  id="g92">
                                <text gorn="0.3.1.25.1.0.0.0.0"  font-size="3.3408" id="text94" x="0" y="0" style="font-size:3.34080005px;font-family:OCRA;text-anchor:start;fill:#ffffff;stroke:none;stroke-width:0">XCLR</text>
                            </g>
                        </g>
                    </g>
                </g>
            </g>
            <g gorn="0.3.1.26"  id="g96">
                <title  id="title98">text:EOC</title>
                <g  transform="translate(44.64,46.8)">
                    <g gorn="0.3.1.26.1.0"  id="g100">
                        <g  transform="matrix(0,-1,1,0,0,0)">
                            <g gorn="0.3.1.26.1.0.0.0"  id="g102">
                                <text gorn="0.3.1.26.1.0.0.0.0"  font-size="3.3408" id="text104" x="0" y="0" style="font-size:3.34080005px;font-family:OCRA;text-anchor:start;fill:#ffffff;stroke:none;stroke-width:0">EOC</text>
                            </g>
                        </g>
                    </g>
                </g>
            </g>
            <g gorn="0.3.1.27"  id="g106">
                <title  id="title108">text:GND</title>
                <g  transform="translate(51.84,46.8)">
                    <g gorn="0.3.1.27.1.0"  id="g110">
                        <g  transform="matrix(0,-1,1,0,0,0)">
                            <g gorn="0.3.1.27.1.0.0.0"  id="g112">
                                <text gorn="0.3.1.27.1.0.0.0.0"  font-size="3.3408" id="text114" x="0" y="0" style="font-size:3.34080005px;font-family:OCRA;text-anchor:start;fill:#ffffff;stroke:none;stroke-width:0">GND</text>
                            </g>
                        </g>
                    </g>
                </g>
            </g>
            <g gorn="0.3.1.28"  id="g116">
                <title  id="title118">text:BMP085</title>
                <text gorn="0.3.1.28.1"  font-size="3.3408" id="text120" x="23.040001" y="5.04" style="font-size:3.34080005px;font-family:OCRA;text-anchor:start;fill:#ffffff;stroke:none;stroke-width:0">BMP085</text>
            </g>
            <g gorn="0.3.1.29"  id="g122">
                <title  id="title124">text:PRESSURE</title>
                <text gorn="0.3.1.29.1"  font-size="3.3408" id="text126" x="23.040001" y="9" style="font-size:3.34080005px;font-family:OCRA;text-anchor:start;fill:#ffffff;stroke:none;stroke-width:0">PRESSURE</text>
            </g>
            <g gorn="0.3.1.30"  id="g128">
                <title  id="title130">text:SENSOR</title>
                <text gorn="0.3.1.30.1"  font-size="3.3408" id="text132" x="23.040001" y="12.96" style="font-size:3.34080005px;font-family:OCRA;text-anchor:start;fill:#ffffff;stroke:none;stroke-width:0">SENSOR</text>
            </g>
            <g gorn="0.3.1.31"  id="g134">
                <title  id="title136">text:3Vo</title>
                <g  transform="translate(15.84,46.8)">
                    <g gorn="0.3.1.31.1.0"  id="g138">
                        <g  transform="matrix(0,-1,1,0,0,0)">
                            <g gorn="0.3.1.31.1.0.0.0"  id="g140">
                                <text gorn="0.3.1.31.1.0.0.0.0"  font-size="3.3408" id="text142" x="0" y="0" style="font-size:3.34080005px;font-family:OCRA;text-anchor:start;fill:#ffffff;stroke:none;stroke-width:0">3Vo</text>
                            </g>
                        </g>
                    </g>
                </g>
            </g>
            <g gorn="0.3.1.32"  id="g144">
                <title  id="title146">text:v2</title>
                <g  transform="translate(3.6,30.24)">
                    <g gorn="0.3.1.32.1.0"  id="g148">
                        <g  transform="matrix(0,-1,1,0,0,0)">
                            <g gorn="0.3.1.32.1.0.0.0"  id="g150">
                                <text gorn="0.3.1.32.1.0.0.0.0"  font-size="3.3408" id="text152" x="0" y="0" style="font-size:3.34080005px;font-family:OCRA;text-anchor:start;fill:#ffffff;stroke:none;stroke-width:0">v2</text>
                            </g>
                        </g>
                    </g>
                </g>
            </g>
            <g gorn="0.3.1.33"  id="g154">
                <title  id="title156">element:C1</title>
                <g gorn="0.3.1.33.1"  id="g158">
                    <title  id="title160">package:0805-NO</title>
                    <line y1="17.280001" gorn="0.3.1.33.1.1"  y2="20.16" id="line162" style="stroke:#ffffff;stroke-width:0.86400002;stroke-linecap:round" x2="8.2799997" x1="8.2799997"/>
                </g>
            </g>
            <g gorn="0.3.1.34"  id="g164">
                <title  id="title166">element:C2</title>
                <g gorn="0.3.1.34.1"  id="g168">
                    <title  id="title170">package:0805-NO</title>
                    <line y1="35.639999" gorn="0.3.1.34.1.1"  y2="38.52" id="line172" style="stroke:#ffffff;stroke-width:0.86400002;stroke-linecap:round" x2="8.2799997" x1="8.2799997"/>
                </g>
            </g>
            <g gorn="0.3.1.35"  id="g174">
                <title  id="title176">element:D1</title>
                <g gorn="0.3.1.35.1"  id="g178">
                    <title  id="title180">package:SOD-323F</title>
                    <line y1="15.2305" gorn="0.3.1.35.1.1"  y2="20.0495" id="line182" style="stroke:#ffffff;stroke-width:0.36000001;stroke-linecap:round" x2="18.7626" x1="18.7626"/>
                    <line y1="20.0495" gorn="0.3.1.35.1.2"  y2="20.0495" id="line184" style="stroke:#ffffff;stroke-width:0.36000001;stroke-linecap:round" x2="15.0774" x1="18.7626"/>
                    <line y1="20.0495" gorn="0.3.1.35.1.3"  y2="15.2305" id="line186" style="stroke:#ffffff;stroke-width:0.36000001;stroke-linecap:round" x2="15.0774" x1="15.0774"/>
                    <line y1="15.2305" gorn="0.3.1.35.1.4"  y2="15.2305" id="line188" style="stroke:#ffffff;stroke-width:0.36000001;stroke-linecap:round" x2="18.7626" x1="15.0774"/>
                    <line y1="18.773899" gorn="0.3.1.35.1.5"  y2="18.773899" id="line190" style="stroke:#ffffff;stroke-width:0.36000001;stroke-linecap:round" x2="15.2192" x1="18.6208"/>
                    <line y1="18.773899" gorn="0.3.1.35.1.6"  y2="18.4904" id="line192" style="stroke:#ffffff;stroke-width:0.36000001;stroke-linecap:round" x2="15.2192" x1="15.2192"/>
                    <line y1="18.4904" gorn="0.3.1.35.1.7"  y2="18.4904" id="line194" style="stroke:#ffffff;stroke-width:0.36000001;stroke-linecap:round" x2="18.6208" x1="15.2192"/>
                </g>
            </g>
            <g gorn="0.3.1.36"  id="g196">
                <title  id="title198">element:JP2</title>
                <g gorn="0.3.1.36.1"  id="g200">
                    <title  id="title202">package:1X07_ROUND_76</title>
                </g>
            </g>
            <g gorn="0.3.1.37"  id="g204">
                <title  id="title206">element:Q1</title>
                <g gorn="0.3.1.37.1"  id="g208">
                    <title  id="title210">package:SOT23</title>
                </g>
            </g>
            <g gorn="0.3.1.38"  id="g212">
                <title  id="title214">element:Q2</title>
                <g gorn="0.3.1.38.1"  id="g216">
                    <title  id="title218">package:SOT23</title>
                </g>
            </g>
            <g gorn="0.3.1.39"  id="g220">
                <title  id="title222">element:R1</title>
                <g gorn="0.3.1.39.1"  id="g224">
                    <title  id="title226">package:0805-NO</title>
                    <line y1="33.84" gorn="0.3.1.39.1.1"  y2="33.84" id="line228" style="stroke:#ffffff;stroke-width:0.86400002;stroke-linecap:round" x2="48.240002" x1="51.119999"/>
                </g>
            </g>
            <g gorn="0.3.1.40"  id="g230">
                <title  id="title232">element:R2</title>
                <g gorn="0.3.1.40.1"  id="g234">
                    <title  id="title236">package:0805-NO</title>
                    <line y1="37.799999" gorn="0.3.1.40.1.1"  y2="34.919998" id="line238" style="stroke:#ffffff;stroke-width:0.86400002;stroke-linecap:round" x2="19.440001" x1="19.440001"/>
                </g>
            </g>
            <g gorn="0.3.1.41"  id="g240">
                <title  id="title242">element:R3</title>
                <g gorn="0.3.1.41.1"  id="g244">
                    <title  id="title246">package:0805_10MGAP</title>
                    <line y1="34.919998" gorn="0.3.1.41.1.1"  y2="37.799999" id="line248" style="stroke:#ffffff;stroke-width:0.86400002;stroke-linecap:round" x2="30.24" x1="30.24"/>
                </g>
            </g>
            <g gorn="0.3.1.42"  id="g250">
                <title  id="title252">element:R4</title>
                <g gorn="0.3.1.42.1"  id="g254">
                    <title  id="title256">package:0805-NO</title>
                    <line y1="22.32" gorn="0.3.1.42.1.1"  y2="22.32" id="line258" style="stroke:#ffffff;stroke-width:0.86400002;stroke-linecap:round" x2="53.279999" x1="50.400002"/>
                </g>
            </g>
            <g gorn="0.3.1.43"  id="g260">
                <title  id="title262">element:U$1</title>
                <g gorn="0.3.1.43.1"  id="g264">
                    <title  id="title266">package:FIDUCIAL_1MM</title>
                </g>
            </g>
            <g gorn="0.3.1.44"  id="g268">
                <title  id="title270">element:U$2</title>
                <g gorn="0.3.1.44.1"  id="g272">
                    <title  id="title274">package:ADAFRUIT_2.5MM</title>
                </g>
            </g>
            <g gorn="0.3.1.45"  id="g276">
                <title  id="title278">element:U$6</title>
                <g gorn="0.3.1.45.1"  id="g280">
                    <title  id="title282">package:ADAFRUIT_2.5MM</title>
                </g>
            </g>
            <g gorn="0.3.1.46"  id="g284">
                <title  id="title286">element:U$7</title>
                <g gorn="0.3.1.46.1"  id="g288">
                    <title  id="title290">package:MOUNTINGHOLE_2.0_PLATED</title>
                    <circle cy="7.1999998" gorn="0.3.1.46.1.1"  id="circle292" cx="7.1999998" style="fill:none;stroke:#ffffff;stroke-width:0.57599998" r="5.1023598"/>
                </g>
            </g>
            <g gorn="0.3.1.47"  id="g294">
                <title  id="title296">element:U$8</title>
                <g gorn="0.3.1.47.1"  id="g298">
                    <title  id="title300">package:MOUNTINGHOLE_2.0_PLATED</title>
                    <circle cy="7.1999998" gorn="0.3.1.47.1.1"  id="circle302" cx="50.400002" style="fill:none;stroke:#ffffff;stroke-width:0.57599998" r="5.1023598"/>
                </g>
            </g>
            <g gorn="0.3.1.48"  id="g304">
                <title  id="title306">element:U$15</title>
                <g gorn="0.3.1.48.1"  id="g308">
                    <title  id="title310">package:FIDUCIAL_1MM</title>
                </g>
            </g>
            <g gorn="0.3.1.49"  id="g312">
                <title  id="title314">element:U1</title>
                <g gorn="0.3.1.49.1"  id="g316">
                    <title  id="title318">package:BMP085</title>
                    <line y1="15.9534" gorn="0.3.1.49.1.1"  y2="15.9534" id="line320" style="stroke:#ffffff;stroke-width:0.57599998;stroke-linecap:round" x2="21.7134" x1="26.674"/>
                    <line y1="15.9534" gorn="0.3.1.49.1.2"  y2="17.370701" id="line322" style="stroke:#ffffff;stroke-width:0.57599998;stroke-linecap:round" x2="21.7134" x1="21.7134"/>
                    <line y1="15.9534" gorn="0.3.1.49.1.3"  y2="15.9534" id="line324" style="stroke:#ffffff;stroke-width:0.57599998;stroke-linecap:round" x2="35.8866" x1="30.926001"/>
                    <line y1="15.9534" gorn="0.3.1.49.1.4"  y2="17.370701" id="line326" style="stroke:#ffffff;stroke-width:0.57599998;stroke-linecap:round" x2="35.8866" x1="35.8866"/>
                    <line y1="28.709299" gorn="0.3.1.49.1.5"  y2="30.1266" id="line328" style="stroke:#ffffff;stroke-width:0.57599998;stroke-linecap:round" x2="21.7134" x1="21.7134"/>
                    <line y1="30.1266" gorn="0.3.1.49.1.6"  y2="30.1266" id="line330" style="stroke:#ffffff;stroke-width:0.57599998;stroke-linecap:round" x2="26.674" x1="21.7134"/>
                    <line y1="30.1266" gorn="0.3.1.49.1.7"  y2="30.1266" id="line332" style="stroke:#ffffff;stroke-width:0.57599998;stroke-linecap:round" x2="35.8866" x1="30.926001"/>
                    <line y1="30.1266" gorn="0.3.1.49.1.8"  y2="28.709299" id="line334" style="stroke:#ffffff;stroke-width:0.57599998;stroke-linecap:round" x2="35.8866" x1="35.8866"/>
                    <circle cy="15.9534" gorn="0.3.1.49.1.9"  id="circle336" cx="19.5874" style="fill:none;stroke:#ffffff;stroke-width:0.99212402" r="0.56692898"/>
                </g>
            </g>
            <g gorn="0.3.1.50"  id="g338">
                <title  id="title340">element:U2</title>
                <g gorn="0.3.1.50.1"  id="g342">
                    <title  id="title344">package:SOT23-5</title>
                    <line y1="25.452299" gorn="0.3.1.50.1.1"  y2="29.9877" id="line346" style="stroke:#ffffff;stroke-width:0.57599998;stroke-linecap:round" x2="4.3228402" x1="4.3228402"/>
                    <line y1="25.452299" gorn="0.3.1.50.1.2"  y2="29.9877" id="line348" style="stroke:#ffffff;stroke-width:0.57599998;stroke-linecap:round" x2="13.6772" x1="13.6772"/>
                    <line y1="24.743601" gorn="0.3.1.50.1.3"  y2="24.743601" id="line350" style="stroke:#ffffff;stroke-width:0.57599998;stroke-linecap:round" x2="10.1339" x1="7.8661399"/>
                </g>
            </g>
        </g>
        <rect gorn="0.3.2"  id="connector0pin" x="3.8296101" y="16.594" style="fill:#9a916c;stroke:none;stroke-width:0" height="4.2519698" width="3.5149601"/>
        <rect gorn="0.3.3"  id="connector1pin" x="9.2154198" y="16.594" style="fill:#9a916c;stroke:none;stroke-width:0" height="4.2519698" width="3.5149601"/>
        <rect gorn="0.3.4"  id="connector2pin" x="3.8296101" y="34.953999" style="fill:#9a916c;stroke:none;stroke-width:0" height="4.2519698" width="3.5149601"/>
        <rect gorn="0.3.5"  id="connector3pin" x="9.2154198" y="34.953999" style="fill:#9a916c;stroke:none;stroke-width:0" height="4.2519698" width="3.5149601"/>
        <g  transform="matrix(0,1,-1,0,31.7254,-2.11465)">
            <g gorn="0.3.6.0"  id="g356">
                <rect gorn="0.3.6.0.0"  id="connector4pin" x="15.5027" y="13.6715" style="fill:#9a916c;stroke:none;stroke-width:0" height="2.26772" width="2.83465"/>
            </g>
        </g>
        <g  transform="matrix(0,1,-1,0,37.3946,3.55465)">
            <g gorn="0.3.7.0"  id="g359">
                <rect gorn="0.3.7.0.0"  id="connector5pin" x="15.5027" y="19.340799" style="fill:#9a916c;stroke:none;stroke-width:0" height="2.26772" width="2.83465"/>
            </g>
        </g>
        <circle cy="50.400002" gorn="0.3.8"  id="connector6pin" cx="7.1999998" connectorname="VIN" style="fill:none;stroke:#9a916c;stroke-width:1.31868005" r="2.0766599"/>
        <circle cy="50.400002" gorn="0.3.9"  id="connector7pin" cx="14.4" connectorname="+3V3" style="fill:none;stroke:#9a916c;stroke-width:1.31868005" r="2.0766599"/>
        <circle cy="50.400002" gorn="0.3.10"  id="connector8pin" cx="21.6" connectorname="SCL" style="fill:none;stroke:#9a916c;stroke-width:1.31868005" r="2.0766599"/>
        <circle cy="50.400002" gorn="0.3.11"  id="connector9pin" cx="28.799999" connectorname="SDA" style="fill:none;stroke:#9a916c;stroke-width:1.31868005" r="2.0766599"/>
        <circle cy="50.400002" gorn="0.3.12"  id="connector10pin" cx="36" connectorname="XCLR" style="fill:none;stroke:#9a916c;stroke-width:1.31868005" r="2.0766599"/>
        <circle cy="50.400002" gorn="0.3.13"  id="connector11pin" cx="43.200001" connectorname="EOC" style="fill:none;stroke:#9a916c;stroke-width:1.31868005" r="2.0766599"/>
        <circle cy="50.400002" gorn="0.3.14"  id="connector12pin" cx="50.400002" connectorname="GND" style="fill:none;stroke:#9a916c;stroke-width:1.31868005" r="2.0766599"/>
        <g  transform="matrix(0,-1,1,0,7.98523,80.3311)">
            <g gorn="0.3.15.0"  id="g369">
                <rect gorn="0.3.15.0.0"  id="connector13pin" x="42.740799" y="34.188702" style="fill:#9a916c;stroke:none;stroke-width:0" height="3.9684999" width="2.83465"/>
            </g>
        </g>
        <g  transform="matrix(0,-1,1,0,13.371,74.9455)">
            <g gorn="0.3.16.0"  id="g372">
                <rect gorn="0.3.16.0.0"  id="connector14pin" x="42.740799" y="28.802799" style="fill:#9a916c;stroke:none;stroke-width:0" height="3.9684999" width="2.83465"/>
            </g>
        </g>
        <g  transform="matrix(0,-1,1,0,4.44189,71.4019)">
            <g gorn="0.3.17.0"  id="g375">
                <rect gorn="0.3.17.0.0"  id="connector15pin" x="36.504601" y="31.4958" style="fill:#9a916c;stroke:none;stroke-width:0" height="3.9684999" width="2.83465"/>
            </g>
        </g>
        <g  transform="matrix(-1,0,0,-1,92.5056,39.1238)">
            <g gorn="0.3.18.0"  id="g378">
                <rect gorn="0.3.18.0.0"  id="connector16pin" x="44.835602" y="17.5776" style="fill:#9a916c;stroke:none;stroke-width:0" height="3.9684999" width="2.83465"/>
            </g>
        </g>
        <g  transform="matrix(-1,0,0,-1,81.7344,39.1238)">
            <g gorn="0.3.19.0"  id="g381">
                <rect gorn="0.3.19.0.0"  id="connector17pin" x="39.449699" y="17.5776" style="fill:#9a916c;stroke:none;stroke-width:0" height="3.9684999" width="2.83465"/>
            </g>
        </g>
        <g  transform="matrix(-1,0,0,-1,87.12,51.5962)">
            <g gorn="0.3.20.0"  id="g384">
                <rect gorn="0.3.20.0.0"  id="connector18pin" x="42.1427" y="23.8139" style="fill:#9a916c;stroke:none;stroke-width:0" height="3.9684999" width="2.83465"/>
            </g>
        </g>
        <g  transform="matrix(0,1,-1,0,80.8272,-18.5329)">
            <g gorn="0.3.21.0"  id="g387">
                <rect gorn="0.3.21.0.0"  id="connector19pin" x="47.9226" y="29.021099" style="fill:#9a916c;stroke:none;stroke-width:0" height="4.2519698" width="3.5149601"/>
            </g>
        </g>
        <g  transform="matrix(0,1,-1,0,86.2128,-13.1471)">
            <g gorn="0.3.22.0"  id="g390">
                <rect gorn="0.3.22.0.0"  id="connector20pin" x="47.9226" y="34.406898" style="fill:#9a916c;stroke:none;stroke-width:0" height="4.2519698" width="3.5149601"/>
            </g>
        </g>
        <g  transform="matrix(-1,0,0,-1,44.2658,72.72)">
            <g gorn="0.3.23.0"  id="g393">
                <rect gorn="0.3.23.0.0"  id="connector21pin" x="20.375401" y="34.234001" style="fill:#9a916c;stroke:none;stroke-width:0" height="4.2519698" width="3.5149601"/>
            </g>
        </g>
        <g  transform="matrix(-1,0,0,-1,33.4942,72.72)">
            <g gorn="0.3.24.0"  id="g396">
                <rect gorn="0.3.24.0.0"  id="connector22pin" x="14.9896" y="34.234001" style="fill:#9a916c;stroke:none;stroke-width:0" height="4.2519698" width="3.5149601"/>
            </g>
        </g>
        <rect gorn="0.3.25"  id="connector23pin" x="25.562799" y="34.234001" style="fill:#9a916c;stroke:none;stroke-width:0" height="4.2519698" width="3.4015801"/>
        <rect gorn="0.3.26"  id="connector24pin" x="31.5156" y="34.234001" style="fill:#9a916c;stroke:none;stroke-width:0" height="4.2519698" width="3.4015801"/>
        <g  transform="matrix(0,-1,1,0,26.8271,76.8528)">
            <g gorn="0.3.27.0"  id="g401">
                <rect gorn="0.3.27.0.0"  id="connector25pin" x="50.0826" y="22.8869" style="fill:#9a916c;stroke:none;stroke-width:0" height="4.2519698" width="3.5149601"/>
            </g>
        </g>
        <g  transform="matrix(0,-1,1,0,32.2129,71.4671)">
            <g gorn="0.3.28.0"  id="g404">
                <rect gorn="0.3.28.0.0"  id="connector26pin" x="50.0826" y="17.501101" style="fill:#9a916c;stroke:none;stroke-width:0" height="4.2519698" width="3.5149601"/>
            </g>
        </g>
        <rect gorn="0.3.29"  rx="1.41732" id="connector27pin" x="15.5027" y="29.182699" style="fill:#9a916c;stroke:none;stroke-width:0" height="2.83465" ry="1.41732" width="2.83465"/>
        <circle cy="7.1999998" gorn="0.3.30"  id="connector28pin" cx="7.1999998" connectorname="P$1" style="fill:none;stroke:#9a916c;stroke-width:1.13385999" r="3.68504"/>
        <circle cy="7.1999998" gorn="0.3.31"  id="connector29pin" cx="50.400002" connectorname="P$1" style="fill:none;stroke:#9a916c;stroke-width:1.13385999" r="3.68504"/>
        <rect gorn="0.3.32"  rx="1.41732" id="connector30pin" x="40.702702" y="11.1827" style="fill:#9a916c;stroke:none;stroke-width:0" height="2.83465" ry="1.41732" width="2.83465"/>
        <rect gorn="0.3.33"  id="connector31pin" x="20.5795" y="18.306101" style="fill:#9a916c;stroke:none;stroke-width:0" height="2.26772" width="4.73386"/>
        <rect gorn="0.3.34"  id="connector32pin" x="20.5795" y="21.906099" style="fill:#9a916c;stroke:none;stroke-width:0" height="2.26772" width="4.73386"/>
        <rect gorn="0.3.35"  id="connector33pin" x="20.5795" y="25.5061" style="fill:#9a916c;stroke:none;stroke-width:0" height="2.26772" width="4.73386"/>
        <g  transform="matrix(0,-1,1,0,-0.0935431,57.6935)">
            <g gorn="0.3.36.0"  id="g414">
                <rect gorn="0.3.36.0.0"  id="connector34pin" x="26.4331" y="27.759701" style="fill:#9a916c;stroke:none;stroke-width:0" height="2.26772" width="4.73386"/>
            </g>
        </g>
        <g  transform="matrix(-1,0,0,-1,69.3071,53.28)">
            <g gorn="0.3.37.0"  id="g417">
                <rect gorn="0.3.37.0.0"  id="connector35pin" x="32.286598" y="25.5061" style="fill:#9a916c;stroke:none;stroke-width:0" height="2.26772" width="4.73386"/>
            </g>
        </g>
        <g  transform="matrix(-1,0,0,-1,69.3071,46.08)">
            <g gorn="0.3.38.0"  id="g420">
                <rect gorn="0.3.38.0.0"  id="connector36pin" x="32.286598" y="21.906099" style="fill:#9a916c;stroke:none;stroke-width:0" height="2.26772" width="4.73386"/>
            </g>
        </g>
        <g  transform="matrix(-1,0,0,-1,69.3071,38.88)">
            <g gorn="0.3.39.0"  id="g423">
                <rect gorn="0.3.39.0.0"  id="connector37pin" x="32.286598" y="18.306101" style="fill:#9a916c;stroke:none;stroke-width:0" height="2.26772" width="4.73386"/>
            </g>
        </g>
        <g  transform="matrix(0,1,-1,0,47.1628,-10.4372)">
            <g gorn="0.3.40.0"  id="g426">
                <rect gorn="0.3.40.0.0"  id="connector38pin" x="25.256701" y="17.229" style="fill:#9a916c;stroke:none;stroke-width:0" height="2.26772" width="7.0866098"/>
            </g>
        </g>
        <rect gorn="0.3.41"  id="connector39pin" x="5.5275602" y="29.7045" style="fill:#9a916c;stroke:none;stroke-width:0" height="3.4015801" width="1.55905"/>
        <rect gorn="0.3.42"  id="connector40pin" x="8.2204599" y="29.7045" style="fill:#9a916c;stroke:none;stroke-width:0" height="3.4015801" width="1.55905"/>
        <rect gorn="0.3.43"  id="connector41pin" x="10.9134" y="29.7045" style="fill:#9a916c;stroke:none;stroke-width:0" height="3.4015801" width="1.55905"/>
        <rect gorn="0.3.44"  id="connector42pin" x="10.9134" y="22.3339" style="fill:#9a916c;stroke:none;stroke-width:0" height="3.4015801" width="1.55905"/>
        <rect gorn="0.3.45"  id="connector43pin" x="5.5275602" y="22.3339" style="fill:#9a916c;stroke:none;stroke-width:0" height="3.4015801" width="1.55905"/>
    </g>
    <g  transform="translate(5.4455,16.9485)">
        <g gorn="0.4.0"  id="0805-cap">
            <path gorn="0.4.0.0"  id="path435" style="fill:#dcdcdc" d="m 5.386,3.543 -5.103,0 C 0.127,3.543 0,3.416 0,3.26 L 0,0.283 C 0,0.127 0.127,0 0.283,0 l 5.102,0 c 0.157,0 0.283,0.127 0.283,0.283 l 0,2.977 C 5.669,3.416 5.542,3.543 5.386,3.543 Z"/>
            <rect gorn="0.4.0.1"  id="rect437" x="1.063" y="0" style="fill:#6e554b" height="3.543" width="3.543"/>
        </g>
    </g>
    <g  transform="translate(5.4455,35.3085)">
        <g gorn="0.5.0"  id="g439">
            <path gorn="0.5.0.0"  id="path441" style="fill:#dcdcdc" d="m 5.386,3.543 -5.103,0 C 0.127,3.543 0,3.416 0,3.26 L 0,0.283 C 0,0.127 0.127,0 0.283,0 l 5.102,0 c 0.157,0 0.283,0.127 0.283,0.283 l 0,2.977 C 5.669,3.416 5.542,3.543 5.386,3.543 Z"/>
            <rect gorn="0.5.0.1"  id="rect443" x="1.063" y="0" style="fill:#6e554b" height="3.543" width="3.543"/>
        </g>
    </g>
    <g  transform="matrix(-1,0,0,-1,20.439143,19.411499)">
        <g gorn="0.6.0"  id="sod-323f">
            <g  transform="matrix(0,1,-1,0,5.315,-1.772)">
                <g gorn="0.6.0.0.0"  id="g446">
                    <metadata  id="metadata11">
                        <rdf:RDF xmlns:rdf="http://www.w3.org/1999/02/22-rdf-syntax-ns#">
                            <cc:Work rdf:about="" xmlns:rdf="http://www.w3.org/1999/02/22-rdf-syntax-ns#" xmlns:cc="http://creativecommons.org/ns#">
                                <dc:format xmlns:dc="http://purl.org/dc/elements/1.1/">image/svg+xml</dc:format>
                                <dc:type rdf:resource="http://purl.org/dc/dcmitype/StillImage" xmlns:rdf="http://www.w3.org/1999/02/22-rdf-syntax-ns#" xmlns:dc="http://purl.org/dc/elements/1.1/"/>
                            </cc:Work>
                        </rdf:RDF>
                    </metadata>
                    <defs  id="defs9"/>
                    <rect gorn="0.6.0.0.0.2"  x="0" id="rect3" y="1.346" style="fill:#dcdcdc" height="0.850003" width="7.0869999"/>
                    <rect gorn="0.6.0.0.0.3"  id="rect5" x="1.1339999" y="0" style="fill:#303030" height="3.543" width="4.8189998"/>
                    <rect gorn="0.6.0.0.0.4"  id="rect3339" x="1.55866" y="0.011677" style="fill:#666666" height="3.55568" width="0.63320303"/>
                </g>
            </g>
        </g>
    </g>
    <g  transform="translate(36.788,29.653)">
        <g gorn="0.7.0"  id="sot23">
            <g  transform="matrix(0,-1,1,0,0.42498,8.07898)">
                <g gorn="0.7.0.0.0"  id="g455">
                    <g gorn="0.7.0.0.0.0"  id="g457">
                        <rect gorn="0.7.0.0.0.0.0"  id="rect459" x="0.850003" y="4.677" style="fill:#dcdcdc" height="2.9760001" width="1.4170001"/>
                        <rect gorn="0.7.0.0.0.0.1"  id="rect461" x="6.2360001" y="4.677" style="fill:#dcdcdc" height="2.9760001" width="1.4170001"/>
                        <rect gorn="0.7.0.0.0.0.2"  id="rect463" x="3.543" y="0" style="fill:#dcdcdc" height="3.118" width="1.4170001"/>
                        <rect gorn="0.7.0.0.0.0.3"  x="0" id="rect465" y="1.984" style="fill:#303030" height="3.6849999" width="8.5039902"/>
                    </g>
                </g>
            </g>
        </g>
    </g>
    <g  transform="translate(39.308,18.853)">
        <g gorn="0.8.0"  id="g467">
            <g  transform="matrix(-1,0,0,-1,8.50399,7.65403)">
                <g gorn="0.8.0.0.0"  id="g469">
                    <g gorn="0.8.0.0.0.0"  id="g471">
                        <rect gorn="0.8.0.0.0.0.0"  id="rect473" x="0.850003" y="4.677" style="fill:#dcdcdc" height="2.9760001" width="1.4170001"/>
                        <rect gorn="0.8.0.0.0.0.1"  id="rect475" x="6.2360001" y="4.677" style="fill:#dcdcdc" height="2.9760001" width="1.4170001"/>
                        <rect gorn="0.8.0.0.0.0.2"  id="rect477" x="3.543" y="0" style="fill:#dcdcdc" height="3.118" width="1.4170001"/>
                        <rect gorn="0.8.0.0.0.0.3"  x="0" id="rect479" y="1.984" style="fill:#303030" height="3.6849999" width="8.5039902"/>
                    </g>
                </g>
            </g>
        </g>
    </g>
    <g  transform="translate(46.8455,32.0685)">
        <g gorn="0.9.0"  id="0805-res">
            <g  transform="matrix(0,1,-1,0,4.606,-1.063)">
                <g gorn="0.9.0.0.0"  id="g482">
                    <path gorn="0.9.0.0.0.0"  id="path484" style="fill:#dcdcdc" d="m 5.386,3.543 -5.103,0 C 0.127,3.543 0,3.416 0,3.26 L 0,0.283 C 0,0.127 0.127,0 0.283,0 l 5.102,0 c 0.157,0 0.283,0.127 0.283,0.283 l 0,2.977 C 5.669,3.416 5.542,3.543 5.386,3.543 Z"/>
                    <rect gorn="0.9.0.0.0.1"  id="rect486" x="1.063" y="0" style="fill:#333333" height="3.543" width="3.543"/>
                </g>
            </g>
        </g>
    </g>
    <g  transform="translate(16.6055,34.5885)">
        <g gorn="0.10.0"  id="g488">
            <g  transform="matrix(-1,0,0,-1,5.669,3.543)">
                <g gorn="0.10.0.0.0"  id="g490">
                    <path gorn="0.10.0.0.0.0"  id="path492" style="fill:#dcdcdc" d="m 5.386,3.543 -5.103,0 C 0.127,3.543 0,3.416 0,3.26 L 0,0.283 C 0,0.127 0.127,0 0.283,0 l 5.102,0 c 0.157,0 0.283,0.127 0.283,0.283 l 0,2.977 C 5.669,3.416 5.542,3.543 5.386,3.543 Z"/>
                    <rect gorn="0.10.0.0.0.1"  id="rect494" x="1.063" y="0" style="fill:#333333" height="3.543" width="3.543"/>
                </g>
            </g>
        </g>
    </g>
    <g  transform="translate(27.4055,34.5885)">
        <g gorn="0.11.0"  id="0805_10mgap">
            <path gorn="0.11.0.0"  id="path497" style="fill:#dcdcdc" d="m 5.386,3.543 -5.103,0 C 0.127,3.543 0,3.416 0,3.26 L 0,0.283 C 0,0.127 0.127,0 0.283,0 l 5.102,0 c 0.157,0 0.283,0.127 0.283,0.283 l 0,2.977 C 5.669,3.416 5.542,3.543 5.386,3.543 Z"/>
            <rect gorn="0.11.0.1"  id="rect499" x="1.063" y="0" style="fill:#6e554b" height="3.543" width="3.543"/>
        </g>
    </g>
    <g  transform="translate(49.0055,20.5485)">
        <g gorn="0.12.0"  id="g501">
            <g  transform="matrix(0,-1,1,0,1.063,4.606)">
                <g gorn="0.12.0.0.0"  id="g503">
                    <path gorn="0.12.0.0.0.0"  id="path505" style="fill:#dcdcdc" d="m 5.386,3.543 -5.103,0 C 0.127,3.543 0,3.416 0,3.26 L 0,0.283 C 0,0.127 0.127,0 0.283,0 l 5.102,0 c 0.157,0 0.283,0.127 0.283,0.283 l 0,2.977 C 5.669,3.416 5.542,3.543 5.386,3.543 Z"/>
                    <rect gorn="0.12.0.0.0.1"  id="rect507" x="1.063" y="0" style="fill:#333333" height="3.543" width="3.543"/>
                </g>
            </g>
        </g>
    </g>
    <g  transform="translate(12.9621,2.10626)">
        <g gorn="0.13.0"  id="adafruit_2.5mm">
            <path gorn="0.13.0.0"  id="path510" style="fill:#9fbbe0" d="M 9.747,3.082 C 9.724,2.94 9.647,2.899 9.461,2.839 9.31903,2.794 8.37202,2.492 8.37202,2.492 c 0,0 -0.66,-0.249 -1.15,0.103 C 7.156,2.643 7.088,2.697 7.019,2.755 7.077,2.686 7.131,2.618 7.178,2.552 7.53,2.062 7.279,1.402 7.279,1.402 7.279,1.402 6.976,0.455 6.93,0.313 6.87,0.127 6.83,0.05 6.687,0.028 6.545,0.005 6.483,0.066 6.369,0.225 6.282,0.345 5.702,1.153 5.702,1.153 c 0,0 -0.441,0.551 -0.257,1.126 C 5.47,2.356 5.5,2.438 5.534,2.521 5.486,2.445 5.438,2.372 5.39,2.307 5.032,1.821 4.328,1.855 4.328,1.855 c 0,0 -0.995,-0.004 -1.143,-0.004 -0.195,0 -0.281,0.014 -0.347,0.143 -0.065,0.128 -0.027,0.206 0.089,0.364 0.088,0.12 0.677,0.921002 0.677,0.921002 0,0 0.388,0.59 0.991001,0.592 0.081,0 0.168,-0.003 0.257,-0.01 C 4.765,3.883 4.681,3.907 4.604,3.932 4.031,4.122 3.845998,4.802998 3.845998,4.802998 3.845998,4.802998 3.536,5.747 3.489,5.888 3.428,6.074 3.416,6.16 3.518,6.262 3.62,6.364 3.706,6.352 3.892,6.29 4.033,6.244 4.977,5.931 4.977,5.931 c 0,0 0.681,-0.187 0.868997,-0.760003 0.025,-0.077 0.049,-0.16 0.07,-0.247 C 5.91,5.014 5.907,5.1 5.907,5.181 c 0.004,0.603 0.594,0.99 0.594,0.99 0,0 0.802001,0.588 0.922003,0.675 C 7.58102,6.962 7.659,7 7.78802,6.935 7.91597,6.869 7.93102,6.783 7.93001,6.588 7.929,6.439 7.92403,5.445 7.92403,5.445 7.92403,5.445 7.95701,4.74 7.47,4.383 7.40498,4.335 7.33198,4.287 7.25602,4.24 c 0.083,0.034 0.165,0.064 0.242,0.088 0.575,0.183 1.125,-0.259 1.125,-0.259 0,0 0.80696,-0.5809998 0.92699,-0.6679998 C 9.70898,3.286 9.76903,3.224 9.747,3.082 Z M 6.322,2.35 C 6.43,2.367 6.484,2.598 6.442,2.865 6.4,3.132 6.278,3.335 6.169,3.318 6.061,3.301 6.007,3.07 6.049,2.803 6.091,2.535 6.213,2.332 6.322,2.35 Z M 4.933,3.059 C 4.983,2.961 5.219,2.981 5.46,3.104 5.701,3.227 5.857,3.406 5.807,3.503 5.757,3.601 5.521,3.581 5.28,3.458 5.038,3.335 4.883,3.157 4.933,3.059 Z M 5.665,4.393 C 5.474,4.584 5.256,4.677 5.178,4.599 5.101,4.521 5.193,4.303 5.384,4.112 5.575,3.92 5.793,3.827 5.871,3.905 5.949,3.983 5.857,4.201 5.665,4.393 Z M 6.719,4.842 C 6.6210001,4.892 6.442,4.737 6.319,4.496 6.196,4.254 6.175,4.018 6.273,3.968 6.371,3.918 6.55,4.073 6.673,4.314 6.796,4.556 6.817,4.792 6.719,4.842 Z M 6.973,3.725 C 6.706,3.767 6.475,3.714 6.457,3.606 6.44,3.497 6.643,3.375 6.91,3.332 7.177,3.289 7.408,3.343 7.425,3.451 7.443,3.56 7.24003,3.682 6.973,3.725 Z"/>
        </g>
    </g>
    <g  transform="translate(21.743001,15.9534)">
        <g gorn="0.14.0"  id="bmp085">
            <metadata  id="metadata15">
                <rdf:RDF xmlns:rdf="http://www.w3.org/1999/02/22-rdf-syntax-ns#">
                    <cc:Work rdf:about="" xmlns:rdf="http://www.w3.org/1999/02/22-rdf-syntax-ns#" xmlns:cc="http://creativecommons.org/ns#">
                        <dc:format xmlns:dc="http://purl.org/dc/elements/1.1/">image/svg+xml</dc:format>
                        <dc:type rdf:resource="http://purl.org/dc/dcmitype/StillImage" xmlns:rdf="http://www.w3.org/1999/02/22-rdf-syntax-ns#" xmlns:dc="http://purl.org/dc/elements/1.1/"/>
                        <dc:title xmlns:dc="http://purl.org/dc/elements/1.1/"/>
                    </cc:Work>
                </rdf:RDF>
            </metadata>
            <defs  id="defs13"/>
            <g  transform="matrix(1.56238,0,0,1.44742,0,3.9973)">
                <g gorn="0.14.0.2.0"  id="g3350">
                    <g gorn="0.14.0.2.0.0"  id="g3346">
                        <rect gorn="0.14.0.2.0.0.0"  rx="0.56692898" id="rect3337" x="4.1715398e-006" y="-2.7616799" style="fill:#77455d;fill-opacity:1;fill-rule:evenodd;stroke:#000000;stroke-width:0;stroke-linecap:butt;stroke-linejoin:miter;stroke-miterlimit:4;stroke-dasharray:none;stroke-opacity:1" height="9.7920704" ry="0.56692898" width="9.0715704"/>
                        <rect gorn="0.14.0.2.0.0.1"  rx="0.52019501" id="rect4139" x="0.27214801" y="-2.4679201" style="fill:#b3b3b3;fill-opacity:1;stroke-width:0;stroke-miterlimit:4;stroke-dasharray:none" height="9.2045498" ry="0.49489099" width="8.5273199"/>
                    </g>
                    <ellipse cy="2.1343601" gorn="0.14.0.2.0.1"  rx="0.45357901" id="circle9" cx="4.53579" ry="0.489604"/>
                    <ellipse cy="-1.63337" gorn="0.14.0.2.0.2"  rx="0.362232" id="path4141" cx="1.69677" style="fill:#cccccc;fill-opacity:1;stroke-width:0;stroke-miterlimit:4;stroke-dasharray:none" ry="0.391002"/>
                </g>
            </g>
        </g>
    </g>
    <g  transform="translate(4.88999,23.893)">
        <g gorn="0.15.0"  id="sot23-5">
            <g gorn="0.15.0.0"  id="g523">
                <rect gorn="0.15.0.0.0"  id="rect525" x="0.850003" y="0" style="fill:#dcdcdc" height="7.6540298" width="1.1339999"/>
                <rect gorn="0.15.0.0.1"  id="rect527" x="6.2360001" y="0" style="fill:#dcdcdc" height="7.6540298" width="1.1339999"/>
                <rect gorn="0.15.0.0.2"  id="rect529" x="3.543" y="4.5349998" style="fill:#dcdcdc" height="3.118" width="1.1339999"/>
                <rect gorn="0.15.0.0.3"  x="0" id="rect531" y="1.559" style="fill:#303030" height="4.5349998" width="8.2200203"/>
            </g>
        </g>
    </g>
</svg>
