<?xml version='1.0' encoding='UTF-8' standalone='no'?>
<!-- Created with Fritzing (http://www.fritzing.org/) -->
<svg xmlns="http://www.w3.org/2000/svg" height="0.750008in" version="1.2"  width="0.750213in" viewBox="0 0 54.0153 54.0006" x="0in" baseProfile="tiny" y="0in">
    <desc>
        <referenceFile>Adafruit_ADXL335_breadboard.svg</referenceFile>
    </desc>
    <desc >Fritzing breadboard generated by brd2svg</desc>
    <g gorn="0.1" id="breadboard" >
        <g gorn="0.1.0" id="icon" >
            <path stroke-width="0"  d="M54.0153,7.2L54.0153,46.8006A7.2,7.2,0,0,1,46.8153,54.0006L7.2,54.0006A7.2,7.2,0,0,1,0,46.8006L0,7.2A7.2,7.2,0,0,1,7.2,-3.54516e-15L46.8153,-3.54516e-15A7.2,7.2,0,0,1,54.0153,7.2M3.9685,46.8363a1.41732,1.41732,0,1,0,2.83465,0,1.41732,1.41732,0,1,0,-2.83465,0zM11.1685,46.8363a1.41732,1.41732,0,1,0,2.83465,0,1.41732,1.41732,0,1,0,-2.83465,0zM18.3685,46.8363a1.41732,1.41732,0,1,0,2.83465,0,1.41732,1.41732,0,1,0,-2.83465,0zM25.5685,46.8363a1.41732,1.41732,0,1,0,2.83465,0,1.41732,1.41732,0,1,0,-2.83465,0zM32.7685,46.8363a1.41732,1.41732,0,1,0,2.83465,0,1.41732,1.41732,0,1,0,-2.83465,0zM39.9685,46.8363a1.41732,1.41732,0,1,0,2.83465,0,1.41732,1.41732,0,1,0,-2.83465,0zM47.1685,46.8363a1.41732,1.41732,0,1,0,2.83465,0,1.41732,1.41732,0,1,0,-2.83465,0zM43.6677,7.23629a3.11811,3.11811,0,1,0,6.23622,0,3.11811,3.11811,0,1,0,-6.23622,0zM4.06772,7.23629a3.11811,3.11811,0,1,0,6.23622,0,3.11811,3.11811,0,1,0,-6.23622,0z" fill="#014cb1" stroke="none"/>
            <g >
                <title >layer 21</title>
                <line stroke-linecap="round" y2="12.9963" y1="12.9963" stroke-width="0.72"  x2="21.5858" stroke="white" x1="30.9458"/>
                <line stroke-linecap="round" y2="14.4363" y1="12.9963" stroke-width="0.72"  x2="23.0258" stroke="white" x1="21.5858"/>
                <line stroke-linecap="round" y2="11.5563" y1="12.9963" stroke-width="0.72"  x2="23.0258" stroke="white" x1="21.5858"/>
                <line stroke-linecap="round" y2="25.9563" y1="17.3163" stroke-width="0.72"  x2="35.2658" stroke="white" x1="35.2658"/>
                <line stroke-linecap="round" y2="23.7963" y1="25.9563" stroke-width="0.72"  x2="36.7058" stroke="white" x1="35.2658"/>
                <line stroke-linecap="round" y2="23.7963" y1="25.9563" stroke-width="0.72"  x2="33.8258" stroke="white" x1="35.2658"/>
                <line stroke-linecap="round" y2="50.7963" y1="52.5963" stroke-width="1.152"  x2="43.5458" stroke="white" x1="41.3858"/>
                <line stroke-linecap="round" y2="50.7963" y1="50.7963" stroke-width="1.152"  x2="39.2258" stroke="white" x1="43.5458"/>
                <line stroke-linecap="round" y2="52.5963" y1="50.7963" stroke-width="1.152"  x2="41.3858" stroke="white" x1="39.2258"/>
                <line stroke-linecap="round" y2="50.7963" y1="52.5963" stroke-width="1.152"  x2="36.3458" stroke="white" x1="34.1858"/>
                <line stroke-linecap="round" y2="50.7963" y1="50.7963" stroke-width="1.152"  x2="32.0258" stroke="white" x1="36.3458"/>
                <line stroke-linecap="round" y2="52.5963" y1="50.7963" stroke-width="1.152"  x2="34.1858" stroke="white" x1="32.0258"/>
                <line stroke-linecap="round" y2="50.7963" y1="52.5963" stroke-width="1.152"  x2="29.1458" stroke="white" x1="26.9858"/>
                <line stroke-linecap="round" y2="50.7963" y1="50.7963" stroke-width="1.152"  x2="24.8258" stroke="white" x1="29.1458"/>
                <line stroke-linecap="round" y2="52.5963" y1="50.7963" stroke-width="1.152"  x2="26.9858" stroke="white" x1="24.8258"/>
                <line stroke-linecap="round" y2="52.5963" y1="52.5963" stroke-width="1.152"  x2="3.94583" stroke="white" x1="7.54582"/>
                <line stroke-linecap="round" y2="50.7963" y1="52.5963" stroke-width="1.152"  x2="5.74583" stroke="white" x1="3.94583"/>
                <line stroke-linecap="round" y2="52.5963" y1="50.7963" stroke-width="1.152"  x2="7.54582" stroke="white" x1="5.74583"/>
                <line stroke-linecap="round" y2="50.7963" y1="52.5963" stroke-width="1.152"  x2="14.7458" stroke="white" x1="12.5858"/>
                <line stroke-linecap="round" y2="50.7963" y1="50.7963" stroke-width="1.152"  x2="10.4258" stroke="white" x1="14.7458"/>
                <line stroke-linecap="round" y2="52.5963" y1="50.7963" stroke-width="1.152"  x2="12.5858" stroke="white" x1="10.4258"/>
                <line stroke-linecap="round" y2="52.5963" y1="50.7963" stroke-width="1.152"  x2="17.6258" stroke="white" x1="19.7858"/>
                <line stroke-linecap="round" y2="52.5963" y1="52.5963" stroke-width="1.152"  x2="21.9458" stroke="white" x1="17.6258"/>
                <line stroke-linecap="round" y2="50.7963" y1="52.5963" stroke-width="1.152"  x2="19.7858" stroke="white" x1="21.9458"/>
                <circle cy="12.9963" stroke-width="0.72"  fill="none" r="2.27678" cx="35.2658" stroke="white"/>
                <circle cy="12.9963" stroke-width="0.72"  fill="none" r="0.72" cx="35.2658" stroke="white"/>
                <g >
                    <title >text:X</title>
                    <text font-family="OCRA" font-size="4.176" text-anchor="start" stroke-width="0"  fill="#ffffff" x="18.2018" stroke="none" y="14.7963">X</text>
                </g>
                <g >
                    <title >text:Y</title>
                    <text font-family="OCRA" font-size="4.176" text-anchor="end" stroke-width="0"  fill="#ffffff" x="39.9458" stroke="none" y="23.0043">Y</text>
                </g>
                <g >
                    <title >text:GND</title>
                    <g  transform="matrix(1, 0, 0, 1, 21.2258, 43.3083)">
                        <g >
                            <g  transform="rotate(270)">
                                <g >
                                    <text font-family="OCRA" font-size="3.3408" text-anchor="start" stroke-width="0"  fill="#ffffff" x="0" stroke="none" y="-3.54516e-15">GND</text>
                                </g>
                            </g>
                        </g>
                    </g>
                </g>
                <g >
                    <title >text:Zout</title>
                    <g  transform="matrix(1, 0, 0, 1, 28.1378, 43.5963)">
                        <g >
                            <g  transform="rotate(270)">
                                <g >
                                    <text font-family="OCRA" font-size="3.3408" text-anchor="start" stroke-width="0"  fill="#ffffff" x="0" stroke="none" y="-3.54516e-15">Zout</text>
                                </g>
                            </g>
                        </g>
                    </g>
                </g>
                <g >
                    <title >text:3Vo</title>
                    <g  transform="matrix(1, 0, 0, 1, 13.7378, 42.8763)">
                        <g >
                            <g  transform="rotate(270)">
                                <g >
                                    <text font-family="OCRA" font-size="3.3408" text-anchor="start" stroke-width="0"  fill="#ffffff" x="0" stroke="none" y="-3.54516e-15">3Vo</text>
                                </g>
                            </g>
                        </g>
                    </g>
                </g>
                <g >
                    <title >text:ADXL335</title>
                    <text font-family="OCRA" font-size="4.176" text-anchor="start" stroke-width="0"  fill="#ffffff" x="16.1138" stroke="none" y="7.45229">ADXL335</text>
                </g>
                <g >
                    <title >text:Z</title>
                    <text font-family="OCRA" font-size="4.176" text-anchor="start" stroke-width="0"  fill="#ffffff" x="38.7938" stroke="none" y="14.2923">Z</text>
                </g>
                <g >
                    <title >text:v2</title>
                    <text font-family="OCRA" font-size="3.3408" text-anchor="start" stroke-width="0"  fill="#ffffff" x="15.8113" stroke="none" y="27.4683">v2</text>
                </g>
                <g >
                    <title >text:Yout</title>
                    <g  transform="matrix(1, 0, 0, 1, 35.3378, 43.5963)">
                        <g >
                            <g  transform="rotate(270)">
                                <g >
                                    <text font-family="OCRA" font-size="3.3408" text-anchor="start" stroke-width="0"  fill="#ffffff" x="0" stroke="none" y="-3.54516e-15">Yout</text>
                                </g>
                            </g>
                        </g>
                    </g>
                </g>
                <g >
                    <title >text:Xout</title>
                    <g  transform="matrix(1, 0, 0, 1, 42.5378, 43.5963)">
                        <g >
                            <g  transform="rotate(270)">
                                <g >
                                    <text font-family="OCRA" font-size="3.3408" text-anchor="start" stroke-width="0"  fill="#ffffff" x="0" stroke="none" y="-3.54516e-15">Xout</text>
                                </g>
                            </g>
                        </g>
                    </g>
                </g>
                <g >
                    <title >text:Vin</title>
                    <g  transform="matrix(1, 0, 0, 1, 6.53783, 42.8763)">
                        <g >
                            <g  transform="rotate(270)">
                                <g >
                                    <text font-family="OCRA" font-size="3.3408" text-anchor="start" stroke-width="0"  fill="#ffffff" x="0" stroke="none" y="-3.54516e-15">Vin</text>
                                </g>
                            </g>
                        </g>
                    </g>
                </g>
                <g >
                    <title >text:Test</title>
                    <g  transform="matrix(1, 0, 0, 1, 49.7378, 43.5963)">
                        <g >
                            <g  transform="rotate(270)">
                                <g >
                                    <text font-family="OCRA" font-size="3.3408" text-anchor="start" stroke-width="0"  fill="#ffffff" x="0" stroke="none" y="-3.54516e-15">Test</text>
                                </g>
                            </g>
                        </g>
                    </g>
                </g>
                <g >
                    <title >element:C1</title>
                    <g >
                        <title >package:0805-NO</title>
                        <line stroke-linecap="round" y2="26.6763" y1="23.7963" stroke-width="0.864"  x2="45.3458" stroke="white" x1="45.3458"/>
                    </g>
                </g>
                <g >
                    <title >element:C2</title>
                    <g >
                        <title >package:0805-NO</title>
                        <line stroke-linecap="round" y2="30.2763" y1="33.1563" stroke-width="0.864"  x2="20.8658" stroke="white" x1="20.8658"/>
                    </g>
                </g>
                <g >
                    <title >element:C3</title>
                    <g >
                        <title >package:0805-NO</title>
                        <line stroke-linecap="round" y2="33.1563" y1="30.2763" stroke-width="0.864"  x2="33.1058" stroke="white" x1="33.1058"/>
                    </g>
                </g>
                <g >
                    <title >element:C4</title>
                    <g >
                        <title >package:0805-NO</title>
                        <line stroke-linecap="round" y2="33.1563" y1="30.2763" stroke-width="0.864"  x2="45.3458" stroke="white" x1="45.3458"/>
                    </g>
                </g>
                <g >
                    <title >element:C5</title>
                    <g >
                        <title >package:0805-NO</title>
                        <line stroke-linecap="round" y2="28.8363" y1="25.9563" stroke-width="0.864"  x2="9.34582" stroke="white" x1="9.34582"/>
                    </g>
                </g>
                <g >
                    <title >element:IC1</title>
                    <g >
                        <title >package:16LCSP</title>
                        <line stroke-linecap="round" y2="26.5856" y1="15.247" stroke-width="0.36"  x2="21.3165" stroke="white" x1="21.3165"/>
                        <line stroke-linecap="round" y2="26.5856" y1="26.5856" stroke-width="0.36"  x2="32.6551" stroke="white" x1="21.3165"/>
                        <line stroke-linecap="round" y2="15.247" y1="26.5856" stroke-width="0.36"  x2="32.6551" stroke="white" x1="32.6551"/>
                        <line stroke-linecap="round" y2="15.247" y1="15.247" stroke-width="0.36"  x2="21.3165" stroke="white" x1="32.6551"/>
                        <circle cy="16.0974" stroke-width="0.36"  fill="none" r="0.283465" cx="31.8047" stroke="white"/>
                    </g>
                </g>
                <g >
                    <title >element:IC2</title>
                    <g >
                        <title >package:SOT23-5L</title>
                        <line stroke-linecap="round" y2="23.5071" y1="23.5071" stroke-width="0.432"  x2="7.76974" stroke="white" x1="12.3619"/>
                        <line stroke-linecap="round" y2="15.4454" y1="15.4454" stroke-width="0.432"  x2="12.3619" stroke="white" x1="7.76974"/>
                        <line stroke-linecap="round" y2="20.956" y1="17.9966" stroke-width="0.432"  x2="12.3619" stroke="white" x1="12.3619"/>
                        <line stroke-linecap="round" y2="17.9966" y1="18.2631" stroke-width="0.432"  x2="7.76974" stroke="white" x1="7.76974"/>
                        <line stroke-linecap="round" y2="20.6895" y1="20.956" stroke-width="0.432"  x2="7.76974" stroke="white" x1="7.76974"/>
                        <line stroke-linecap="round" y2="15.4454" y1="15.7118" stroke-width="0.432"  x2="7.76974" stroke="white" x1="7.76974"/>
                        <line stroke-linecap="round" y2="23.2407" y1="23.5071" stroke-width="0.432"  x2="7.76974" stroke="white" x1="7.76974"/>
                        <line stroke-linecap="round" y2="23.5071" y1="23.2407" stroke-width="0.432"  x2="12.3619" stroke="white" x1="12.3619"/>
                        <line stroke-linecap="round" y2="15.7118" y1="15.4454" stroke-width="0.432"  x2="12.3619" stroke="white" x1="12.3619"/>
                    </g>
                </g>
                <g >
                    <title >element:JP2</title>
                    <g >
                        <title >package:1X07_ROUND_76</title>
                    </g>
                </g>
                <g >
                    <title >element:U$1</title>
                    <g >
                        <title >package:FIDUCIAL_1MM</title>
                    </g>
                </g>
                <g >
                    <title >element:U$2</title>
                    <g >
                        <title >package:FIDUCIAL_1MM</title>
                    </g>
                </g>
                <g >
                    <title >element:U$4</title>
                    <g >
                        <title >package:ADAFRUIT_2.5MM</title>
                    </g>
                </g>
                <g >
                    <title >element:U$5</title>
                    <g >
                        <title >package:MOUNTINGHOLE_2.0_PLATED</title>
                        <circle cy="7.23629" stroke-width="0.576"  fill="none" r="5.10236" cx="46.7858" stroke="white"/>
                    </g>
                </g>
                <g >
                    <title >element:U$8</title>
                    <g >
                        <title >package:MOUNTINGHOLE_2.0_PLATED</title>
                        <circle cy="7.23629" stroke-width="0.576"  fill="none" r="5.10236" cx="7.18583" stroke="white"/>
                    </g>
                </g>
            </g>
            <rect height="4.25197" gorn="0.1.0.2" stroke-width="0" id="connector0pin"  fill="#9A916C" width="3.51496" x="40.8954" stroke="none" y="23.1103"/>
            <rect height="4.25197" gorn="0.1.0.3" stroke-width="0" id="connector1pin"  fill="#9A916C" width="3.51496" x="46.2812" stroke="none" y="23.1103"/>
            <g  transform="matrix(-1, 0, 0, -1, 47.1174, 63.4326)">
                <g >
                    <rect height="4.25197" gorn="0.1.0.4.0.0" stroke-width="0" id="connector2pin"  fill="#9A916C" width="3.51496" x="21.8012" stroke="none" y="29.5903"/>
                </g>
            </g>
            <g  transform="matrix(-1, 0, 0, -1, 36.3458, 63.4326)">
                <g >
                    <rect height="4.25197" gorn="0.1.0.5.0.0" stroke-width="0" id="connector3pin"  fill="#9A916C" width="3.51496" x="16.4154" stroke="none" y="29.5903"/>
                </g>
            </g>
            <rect height="4.25197" gorn="0.1.0.6" stroke-width="0" id="connector4pin"  fill="#9A916C" width="3.51496" x="28.6554" stroke="none" y="29.5903"/>
            <rect height="4.25197" gorn="0.1.0.7" stroke-width="0" id="connector5pin"  fill="#9A916C" width="3.51496" x="34.0412" stroke="none" y="29.5903"/>
            <rect height="4.25197" gorn="0.1.0.8" stroke-width="0" id="connector6pin"  fill="#9A916C" width="3.51496" x="40.8954" stroke="none" y="29.5903"/>
            <rect height="4.25197" gorn="0.1.0.9" stroke-width="0" id="connector7pin"  fill="#9A916C" width="3.51496" x="46.2812" stroke="none" y="29.5903"/>
            <rect height="4.25197" gorn="0.1.0.10" stroke-width="0" id="connector8pin"  fill="#9A916C" width="3.51496" x="4.89543" stroke="none" y="25.2703"/>
            <rect height="4.25197" gorn="0.1.0.11" stroke-width="0" id="connector9pin"  fill="#9A916C" width="3.51496" x="10.2812" stroke="none" y="25.2703"/>
            <g  transform="matrix(0, 1, -1, 0, 45.4927, -14.0065)">
                <g >
                    <rect height="0.992124" gorn="0.1.0.12.0.0" stroke-width="0" id="connector10pin"  fill="#9A916C" width="1.98426" x="28.7574" stroke="none" y="15.247"/>
                </g>
            </g>
            <g  transform="matrix(0, 1, -1, 0, 43.6501, -12.164)">
                <g >
                    <rect height="0.992124" gorn="0.1.0.13.0.0" stroke-width="0" id="connector11pin"  fill="#9A916C" width="1.98426" x="26.915" stroke="none" y="15.247"/>
                </g>
            </g>
            <g  transform="matrix(0, 1, -1, 0, 41.8076, -10.3215)">
                <g >
                    <rect height="0.992124" gorn="0.1.0.14.0.0" stroke-width="0" id="connector12pin"  fill="#9A916C" width="1.98426" x="25.0724" stroke="none" y="15.247"/>
                </g>
            </g>
            <g  transform="matrix(0, 1, -1, 0, 39.9651, -8.47901)">
                <g >
                    <rect height="0.992124" gorn="0.1.0.15.0.0" stroke-width="0" id="connector13pin"  fill="#9A916C" width="1.98426" x="23.2299" stroke="none" y="15.247"/>
                </g>
            </g>
            <rect height="0.992124" gorn="0.1.0.16" stroke-width="0" id="connector14pin"  fill="#9A916C" width="1.98426" x="20.7496" stroke="none" y="17.6564"/>
            <rect height="0.992124" gorn="0.1.0.17" stroke-width="0" id="connector15pin"  fill="#9A916C" width="1.98426" x="20.7496" stroke="none" y="19.4281"/>
            <rect height="0.992124" gorn="0.1.0.18" stroke-width="0" id="connector16pin"  fill="#9A916C" width="1.98426" x="20.7496" stroke="none" y="21.3414"/>
            <rect height="0.992124" gorn="0.1.0.19" stroke-width="0" id="connector17pin"  fill="#9A916C" width="1.98426" x="20.7496" stroke="none" y="23.184"/>
            <g  transform="matrix(0, -1, 1, 0, -1.86746, 50.3116)">
                <g >
                    <rect height="0.992124" gorn="0.1.0.20.0.0" stroke-width="0" id="connector18pin"  fill="#9A916C" width="1.98426" x="23.2299" stroke="none" y="25.5935"/>
                </g>
            </g>
            <g  transform="matrix(0, -1, 1, 0, -0.0249449, 52.1541)">
                <g >
                    <rect height="0.992124" gorn="0.1.0.21.0.0" stroke-width="0" id="connector19pin"  fill="#9A916C" width="1.98426" x="25.0724" stroke="none" y="25.5935"/>
                </g>
            </g>
            <g  transform="matrix(0, -1, 1, 0, 1.81758, 53.9966)">
                <g >
                    <rect height="0.992124" gorn="0.1.0.22.0.0" stroke-width="0" id="connector20pin"  fill="#9A916C" width="1.98426" x="26.915" stroke="none" y="25.5935"/>
                </g>
            </g>
            <g  transform="matrix(0, -1, 1, 0, 3.66009, 55.8391)">
                <g >
                    <rect height="0.992124" gorn="0.1.0.23.0.0" stroke-width="0" id="connector21pin"  fill="#9A916C" width="1.98426" x="28.7574" stroke="none" y="25.5935"/>
                </g>
            </g>
            <g  transform="matrix(-1, 0, 0, -1, 64.3181, 47.3602)">
                <g >
                    <rect height="0.992124" gorn="0.1.0.24.0.0" stroke-width="0" id="connector22pin"  fill="#9A916C" width="1.98426" x="31.1669" stroke="none" y="23.184"/>
                </g>
            </g>
            <g  transform="matrix(-1, 0, 0, -1, 64.3181, 43.6751)">
                <g >
                    <rect height="0.992124" gorn="0.1.0.25.0.0" stroke-width="0" id="connector23pin"  fill="#9A916C" width="1.98426" x="31.1669" stroke="none" y="21.3414"/>
                </g>
            </g>
            <g  transform="matrix(-1, 0, 0, -1, 64.3181, 39.99)">
                <g >
                    <rect height="0.992124" gorn="0.1.0.26.0.0" stroke-width="0" id="connector24pin"  fill="#9A916C" width="1.98426" x="31.1669" stroke="none" y="19.499"/>
                </g>
            </g>
            <g  transform="matrix(-1, 0, 0, -1, 64.3181, 36.305)">
                <g >
                    <rect height="0.992124" gorn="0.1.0.27.0.0" stroke-width="0" id="connector25pin"  fill="#9A916C" width="1.98426" x="31.1669" stroke="none" y="17.6564"/>
                </g>
            </g>
            <g  transform="matrix(0, 1, -1, 0, 23.1641, 10.4026)">
                <g >
                    <rect height="3.40158" gorn="0.1.0.28.0.0" stroke-width="0" id="connector26pin"  fill="#9A916C" width="1.55905" x="5.60126" stroke="none" y="15.0826"/>
                </g>
            </g>
            <g  transform="matrix(0, 1, -1, 0, 25.8571, 13.0955)">
                <g >
                    <rect height="3.40158" gorn="0.1.0.29.0.0" stroke-width="0" id="connector27pin"  fill="#9A916C" width="1.55905" x="5.60126" stroke="none" y="17.7755"/>
                </g>
            </g>
            <g  transform="matrix(0, 1, -1, 0, 28.55, 15.7884)">
                <g >
                    <rect height="3.40158" gorn="0.1.0.30.0.0" stroke-width="0" id="connector28pin"  fill="#9A916C" width="1.55905" x="5.60126" stroke="none" y="20.4684"/>
                </g>
            </g>
            <g  transform="matrix(0, 1, -1, 0, 35.9201, 8.41831)">
                <g >
                    <rect height="3.40158" gorn="0.1.0.31.0.0" stroke-width="0" id="connector29pin"  fill="#9A916C" width="1.55905" x="12.9713" stroke="none" y="20.4684"/>
                </g>
            </g>
            <g  transform="matrix(0, 1, -1, 0, 30.5343, 3.0325)">
                <g >
                    <rect height="3.40158" gorn="0.1.0.32.0.0" stroke-width="0" id="connector30pin"  fill="#9A916C" width="1.55905" x="12.9713" stroke="none" y="15.0826"/>
                </g>
            </g>
            <circle cy="46.8363" gorn="0.1.0.33" stroke-width="1.31868" id="connector31pin"  connectorname="VIN" fill="none" r="2.07666" cx="5.38583" stroke="#9A916C"/>
            <circle cy="46.8363" gorn="0.1.0.34" stroke-width="1.31868" id="connector32pin"  connectorname="+3V3" fill="none" r="2.07666" cx="12.5858" stroke="#9A916C"/>
            <circle cy="46.8363" gorn="0.1.0.35" stroke-width="1.31868" id="connector33pin"  connectorname="GND" fill="none" r="2.07666" cx="19.7858" stroke="#9A916C"/>
            <circle cy="46.8363" gorn="0.1.0.36" stroke-width="1.31868" id="connector34pin"  connectorname="ZOUT" fill="none" r="2.07666" cx="26.9858" stroke="#9A916C"/>
            <circle cy="46.8363" gorn="0.1.0.37" stroke-width="1.31868" id="connector35pin"  connectorname="YOUT" fill="none" r="2.07666" cx="34.1858" stroke="#9A916C"/>
            <circle cy="46.8363" gorn="0.1.0.38" stroke-width="1.31868" id="connector36pin"  connectorname="XOUT" fill="none" r="2.07666" cx="41.3858" stroke="#9A916C"/>
            <circle cy="46.8363" gorn="0.1.0.39" stroke-width="1.31868" id="connector37pin"  connectorname="ST" fill="none" r="2.07666" cx="48.5858" stroke="#9A916C"/>
            <rect height="2.83465" gorn="0.1.0.40" stroke-width="0" id="connector38pin"  fill="#9A916C" width="2.83465" ry="1.41732" rx="1.41732" x="44.7925" stroke="none" y="16.187"/>
            <rect height="2.83465" gorn="0.1.0.41" stroke-width="0" id="connector39pin"  fill="#9A916C" width="2.83465" ry="1.41732" rx="1.41732" x="7.6405" stroke="none" y="33.179"/>
            <circle cy="7.23629" gorn="0.1.0.42" stroke-width="1.44" id="connector40pin"  connectorname="P$1" fill="none" r="3.83811" cx="46.7858" stroke="#9A916C"/>
            <circle cy="7.23629" gorn="0.1.0.43" stroke-width="1.44" id="connector41pin"  connectorname="P$1" fill="none" r="3.83811" cx="7.18583" stroke="#9A916C"/>
        </g>
        <g  transform="matrix(1, 0, 0, 1, 42.5113, 23.4648)">
            <g gorn="0.1.1.0" id="0805-cap" >
                <path  d="M5.386,3.543L0.283,3.543C0.127,3.543,0,3.416,0,3.26L0,0.283C0,0.127,0.127,0,0.283,0l5.102,0c0.157,0,0.283,0.127,0.283,0.283L5.668,3.26C5.669,3.416,5.542,3.543,5.386,3.543z" fill="#DCDCDC"/>
                <rect height="3.543"  fill="#6E554B" width="3.543" x="1.063"/>
            </g>
        </g>
        <g  transform="matrix(1, 0, 0, 1, 18.0313, 29.9448)">
            <g gorn="0.1.2.0" id="0805-cap" >
                <g  transform="matrix(-1, 0, 0, -1, 5.669, 3.543)">
                    <g >
                        <path  d="M5.386,3.543L0.283,3.543C0.127,3.543,0,3.416,0,3.26L0,0.283C0,0.127,0.127,0,0.283,0l5.102,0c0.157,0,0.283,0.127,0.283,0.283L5.668,3.26C5.669,3.416,5.542,3.543,5.386,3.543z" fill="#DCDCDC"/>
                        <rect height="3.543"  fill="#6E554B" width="3.543" x="1.063"/>
                    </g>
                </g>
            </g>
        </g>
        <g  transform="matrix(1, 0, 0, 1, 30.2713, 29.9448)">
            <g gorn="0.1.3.0" id="0805-cap" >
                <path  d="M5.386,3.543L0.283,3.543C0.127,3.543,0,3.416,0,3.26L0,0.283C0,0.127,0.127,0,0.283,0l5.102,0c0.157,0,0.283,0.127,0.283,0.283L5.668,3.26C5.669,3.416,5.542,3.543,5.386,3.543z" fill="#DCDCDC"/>
                <rect height="3.543"  fill="#6E554B" width="3.543" x="1.063"/>
            </g>
        </g>
        <g  transform="matrix(1, 0, 0, 1, 42.5113, 29.9448)">
            <g gorn="0.1.4.0" id="0805-cap" >
                <path  d="M5.386,3.543L0.283,3.543C0.127,3.543,0,3.416,0,3.26L0,0.283C0,0.127,0.127,0,0.283,0l5.102,0c0.157,0,0.283,0.127,0.283,0.283L5.668,3.26C5.669,3.416,5.542,3.543,5.386,3.543z" fill="#DCDCDC"/>
                <rect height="3.543"  fill="#6E554B" width="3.543" x="1.063"/>
            </g>
        </g>
        <g  transform="matrix(1, 0, 0, 1, 6.51133, 25.6248)">
            <g gorn="0.1.5.0" id="0805-cap" >
                <path  d="M5.386,3.543L0.283,3.543C0.127,3.543,0,3.416,0,3.26L0,0.283C0,0.127,0.127,0,0.283,0l5.102,0c0.157,0,0.283,0.127,0.283,0.283L5.668,3.26C5.669,3.416,5.542,3.543,5.386,3.543z" fill="#DCDCDC"/>
                <rect height="3.543"  fill="#6E554B" width="3.543" x="1.063"/>
            </g>
        </g>
        <g  transform="matrix(1, 0, 0, 1, 21.2811, 15.247)">
            <g gorn="0.1.6.0" id="16lcsp" >
                <g  transform="matrix(0, 1, -1, 0, 11.3386, 0)">
                    <g >
                        <metadata id="metadata9" >
                            <rdf:RDF xmlns:rdf="http://www.w3.org/1999/02/22-rdf-syntax-ns#">
                                <cc:Work rdf:about="" xmlns:rdf="http://www.w3.org/1999/02/22-rdf-syntax-ns#" xmlns:cc="http://creativecommons.org/ns#">
                                    <dc:format xmlns:dc="http://purl.org/dc/elements/1.1/">image/svg+xml</dc:format>
                                    <dc:type xmlns:dc="http://purl.org/dc/elements/1.1/" xmlns:rdf="http://www.w3.org/1999/02/22-rdf-syntax-ns#" rdf:resource="http://purl.org/dc/dcmitype/StillImage"/>
                                    <dc:title xmlns:dc="http://purl.org/dc/elements/1.1/"/>
                                </cc:Work>
                            </rdf:RDF>
                        </metadata>
                        <defs id="defs7" />
                        <rect height="11.3386" gorn="0.1.6.0.0.0.2" id="rect3"  fill="#333333" width="11.3386" x="0" y="-5.29152e-07"/>
                    </g>
                </g>
            </g>
        </g>
        <g  transform="matrix(1, 0, 0, 1, 5.95582, 15.6493)">
            <g gorn="0.1.7.0" id="sot23-5l" >
                <g  transform="matrix(0, 1, -1, 0, 7.93706, -0.282996)">
                    <g >
                        <g >
                            <rect height="7.65403"  fill="#DCDCDC" width="1.134" x="0.850003"/>
                            <rect height="7.65403"  fill="#DCDCDC" width="1.134" x="6.236"/>
                            <rect height="3.118"  fill="#DCDCDC" width="1.134" x="3.543" y="4.535"/>
                            <rect height="4.535"  fill="#303030" width="8.22002" y="1.559"/>
                        </g>
                    </g>
                </g>
            </g>
        </g>
    </g>
</svg>
