<?xml version='1.0' encoding='UTF-8' standalone='no'?>
<!-- Created with Fritzing (http://www.fritzing.org/) -->
<svg xmlns="http://www.w3.org/2000/svg" width="0.400277in" version="1.2" baseProfile="tiny"  x="0in" viewBox="0 0 28.8199 58.32" height="0.81in" y="0in">
    <desc >
        <referenceFile >JST2 switch_breadboard.svg</referenceFile>
    </desc>
    <desc >Fritzing breadboard generated by brd2svg</desc>
    <g gorn="0.2" id="breadboard" >
        <g gorn="0.2.0" id="icon" >
            <path d="M0,54.72L0,3.6A3.6,3.6,0,0,1,3.6,0L25.92,0A3.25994,3.25994,0,0,1,28.8,3.6L28.8,54.72A3.6,3.6,0,0,1,25.2,58.32L3.6,58.32A3.6,3.6,0,0,1,0,54.72M8.73072,38.16a1.41732,1.41732,0,1,0,2.83465,0,1.41732,1.41732,0,1,0,-2.83465,0zM17.2346,38.16a1.41732,1.41732,0,1,0,2.83465,0,1.41732,1.41732,0,1,0,-2.83465,0zM23.76,54.72a1.44,1.44,0,1,0,2.88,0,1.44,1.44,0,1,0,-2.88,0zM16.56,54.72a1.44,1.44,0,1,0,2.88,0,1.44,1.44,0,1,0,-2.88,0zM9.36,54.72a1.44,1.44,0,1,0,2.88,0,1.44,1.44,0,1,0,-2.88,0zM2.16,54.72a1.44,1.44,0,1,0,2.88,0,1.44,1.44,0,1,0,-2.88,0z" fill="#014cb1" stroke-width="0"  stroke="none"/>
            <g >
                <title >layer 21</title>
                <g >
                    <title >text:GND</title>
                    <g  transform="matrix(1, 0, 0, 1, 4.32, 51.84)">
                        <g >
                            <g >
                                <g >
                                    <g  transform="rotate(270)">
                                        <g >
                                            <g >
                                                <g >
                                                    <text font-size="3.3408" fill="#ffffff" stroke-width="0" font-family="OCRA" text-anchor="start"  stroke="none" x="0" y="0">GND</text>
                                                </g>
                                            </g>
                                        </g>
                                    </g>
                                </g>
                            </g>
                        </g>
                    </g>
                </g>
                <g >
                    <title >text:GND</title>
                    <g  transform="matrix(1, 0, 0, 1, 27.36, 51.84)">
                        <g >
                            <g >
                                <g >
                                    <g  transform="rotate(270)">
                                        <g >
                                            <g >
                                                <g >
                                                    <text font-size="3.3408" fill="#ffffff" stroke-width="0" font-family="OCRA" text-anchor="start"  stroke="none" x="0" y="0">GND</text>
                                                </g>
                                            </g>
                                        </g>
                                    </g>
                                </g>
                            </g>
                        </g>
                    </g>
                </g>
                <g >
                    <title >text:+</title>
                    <text font-size="4.176" fill="#ffffff" stroke-width="0" font-family="OCRA" text-anchor="start"  stroke="none" x="9.36" y="51.84">+</text>
                </g>
                <g >
                    <title >text:Sw</title>
                    <text font-size="4.176" fill="#ffffff" stroke-width="0" font-family="OCRA" text-anchor="start"  stroke="none" x="15.12" y="51.84">Sw</text>
                </g>
                <g >
                    <title >text:On</title>
                    <g  transform="matrix(1, 0, 0, 1, 28.08, 40.32)">
                        <g >
                            <g >
                                <g >
                                    <g  transform="rotate(270)">
                                        <g >
                                            <g >
                                                <g >
                                                    <text font-size="3.3408" fill="#ffffff" stroke-width="0" font-family="OCRA" text-anchor="start"  stroke="none" x="0" y="0">On</text>
                                                </g>
                                            </g>
                                        </g>
                                    </g>
                                </g>
                            </g>
                        </g>
                    </g>
                </g>
                <g >
                    <title >text:Off</title>
                    <g  transform="matrix(1, 0, 0, 1, 3.6, 41.04)">
                        <g >
                            <g >
                                <g >
                                    <g  transform="rotate(270)">
                                        <g >
                                            <g >
                                                <g >
                                                    <text font-size="3.3408" fill="#ffffff" stroke-width="0" font-family="OCRA" text-anchor="start"  stroke="none" x="0" y="0">Off</text>
                                                </g>
                                            </g>
                                        </g>
                                    </g>
                                </g>
                            </g>
                        </g>
                    </g>
                </g>
                <g >
                    <title >element:FID1</title>
                    <g >
                        <title >package:FIDUCIAL_1MM</title>
                    </g>
                </g>
                <g >
                    <title >element:JP1</title>
                    <g >
                        <title >package:PADS-4</title>
                    </g>
                </g>
                <g >
                    <title >element:SW1</title>
                    <g >
                        <title >package:EG1390</title>
                        <line stroke-width="0.36" stroke-linecap="round"  y1="43.1207" stroke="white" y2="43.1207" x2="4.19527" x1="24.6047"/>
                        <line stroke-width="0.36" stroke-linecap="round"  y1="43.1207" stroke="white" y2="33.1993" x2="4.19527" x1="4.19527"/>
                        <line stroke-width="0.36" stroke-linecap="round"  y1="33.1993" stroke="white" y2="33.1993" x2="24.6047" x1="4.19527"/>
                        <line stroke-width="0.36" stroke-linecap="round"  y1="33.1993" stroke="white" y2="43.1207" x2="24.6047" x1="24.6047"/>
                    </g>
                </g>
                <g >
                    <title >element:U$1</title>
                    <g >
                        <title >package:SYMBOL_PLUS</title>
                        <line stroke-width="0.864" stroke-linecap="round"  y1="25.92" stroke="white" y2="25.92" x2="24.0749" x1="26.3248"/>
                        <line stroke-width="0.864" stroke-linecap="round"  y1="24.7952" stroke="white" y2="27.0448" x2="25.2" x1="25.2"/>
                        <circle fill="none" stroke-width="0.576" cy="25.92" cx="25.2"  stroke="white" r="2.21584"/>
                    </g>
                </g>
                <g >
                    <title >element:U$2</title>
                    <g >
                        <title >package:SYMBOL_MINUS</title>
                        <line stroke-width="0.864" stroke-linecap="round"  y1="25.92" stroke="white" y2="25.92" x2="2.47493" x1="4.72478"/>
                        <circle fill="none" stroke-width="0.576" cy="25.92" cx="3.6"  stroke="white" r="2.21584"/>
                    </g>
                </g>
                <g >
                    <title >element:U$3</title>
                    <g >
                        <title >package:ADAFRUIT_5MM</title>
                    </g>
                </g>
                <g >
                    <title >element:X1</title>
                    <g >
                        <title >package:JSTPH2</title>
                        <line stroke-width="0.576" stroke-linecap="round"  y1="1.57607" stroke="white" y2="1.57607" x2="20.778" x1="8.02202"/>
                        <line stroke-width="0.576" stroke-linecap="round"  y1="11.4973" stroke="white" y2="22.8359" x2="25.7386" x1="25.7386"/>
                        <line stroke-width="0.576" stroke-linecap="round"  y1="22.8359" stroke="white" y2="22.8359" x2="23.3292" x1="25.7386"/>
                        <line stroke-width="0.576" stroke-linecap="round"  y1="22.8359" stroke="white" y2="15.7493" x2="23.3292" x1="23.3292"/>
                        <line stroke-width="0.576" stroke-linecap="round"  y1="15.7493" stroke="white" y2="15.7493" x2="19.3607" x1="23.3292"/>
                        <line stroke-width="0.576" stroke-linecap="round"  y1="15.7493" stroke="white" y2="15.7493" x2="5.47087" x1="9.43934"/>
                        <line stroke-width="0.576" stroke-linecap="round"  y1="15.7493" stroke="white" y2="22.8359" x2="5.47087" x1="5.47087"/>
                        <line stroke-width="0.576" stroke-linecap="round"  y1="22.8359" stroke="white" y2="22.8359" x2="3.06142" x1="5.47087"/>
                        <line stroke-width="0.576" stroke-linecap="round"  y1="22.8359" stroke="white" y2="11.4973" x2="3.06142" x1="3.06142"/>
                    </g>
                </g>
            </g>
            <rect ry="1.41732" width="2.83465" fill="#9A916C" stroke-width="0" gorn="0.2.0.2" id="connector0pin"  rx="1.41732" stroke="none" x="12.9827" height="2.83465" y="8.66268"/>
            <circle fill="none" stroke-width="1.08" gorn="0.2.0.3" cy="54.72" id="connector1pin" cx="25.2"  stroke="#9A916C" r="1.98" connectorname="GND"/>
            <rect width="0.01008" fill="none" stroke-width="0" gorn="0.2.0.4" id="connector1terminal"  stroke="none" x="25.195" height="0.01008" y="57.235"/>
            <circle fill="none" stroke-width="1.08" gorn="0.2.0.5" cy="54.72" id="connector2pin" cx="18"  stroke="#9A916C" r="1.98" connectorname="SW"/>
            <rect width="0.01008" fill="none" stroke-width="0" gorn="0.2.0.6" id="connector2terminal"  stroke="none" x="17.995" height="0.01008" y="57.235"/>
            <circle fill="none" stroke-width="1.08" gorn="0.2.0.7" cy="54.72" id="connector3pin" cx="10.8"  stroke="#9A916C" r="1.98" connectorname="V+"/>
            <rect width="0.01008" fill="none" stroke-width="0" gorn="0.2.0.8" id="connector3terminal"  stroke="none" x="10.795" height="0.01008" y="57.235"/>
            <circle fill="none" stroke-width="1.08" gorn="0.2.0.9" cy="54.72" id="connector4pin" cx="3.6"  stroke="#9A916C" r="1.98" connectorname="GND"/>
            <rect width="0.01008" fill="none" stroke-width="0" gorn="0.2.0.10" id="connector4terminal"  stroke="none" x="3.59496" height="0.01008" y="57.235"/>
            <g  transform="matrix(-1, 0, 0, -1, 42.9732, 92.1938)">
                <g >
                    <g >
                        <g >
                            <rect width="2.83465" fill="#9A916C" stroke-width="0" gorn="0.2.0.11.0.0.0.0" id="connector5pin"  stroke="none" x="20.0693" height="4.25197" y="43.971"/>
                        </g>
                    </g>
                </g>
            </g>
            <g  transform="matrix(-1, 0, 0, -1, 42.9732, 60.446)">
                <g >
                    <g >
                        <g >
                            <rect width="2.83465" fill="#9A916C" stroke-width="0" gorn="0.2.0.12.0.0.0.0" id="connector6pin"  stroke="none" x="20.0693" height="4.25197" y="28.097"/>
                        </g>
                    </g>
                </g>
            </g>
            <g  transform="matrix(-1, 0, 0, -1, 28.8, 92.1938)">
                <g >
                    <g >
                        <g >
                            <rect width="2.83465" fill="#9A916C" stroke-width="0" gorn="0.2.0.13.0.0.0.0" id="connector7pin"  stroke="none" x="12.9827" height="4.25197" y="43.971"/>
                        </g>
                    </g>
                </g>
            </g>
            <g  transform="matrix(-1, 0, 0, -1, 28.8, 60.446)">
                <g >
                    <g >
                        <g >
                            <rect width="2.83465" fill="#9A916C" stroke-width="0" gorn="0.2.0.14.0.0.0.0" id="connector8pin"  stroke="none" x="12.9827" height="4.25197" y="28.097"/>
                        </g>
                    </g>
                </g>
            </g>
            <g  transform="matrix(-1, 0, 0, -1, 14.6268, 92.1938)">
                <g >
                    <g >
                        <g >
                            <rect width="2.83465" fill="#9A916C" stroke-width="0" gorn="0.2.0.15.0.0.0.0" id="connector9pin"  stroke="none" x="5.89607" height="4.25197" y="43.971"/>
                        </g>
                    </g>
                </g>
            </g>
            <g  transform="matrix(-1, 0, 0, -1, 14.6268, 60.446)">
                <g >
                    <g >
                        <g >
                            <rect width="2.83465" fill="#9A916C" stroke-width="0" gorn="0.2.0.16.0.0.0.0" id="connector10pin"  stroke="none" x="5.89607" height="4.25197" y="28.097"/>
                        </g>
                    </g>
                </g>
            </g>
            <rect width="2.83465" fill="#9A916C" stroke-width="0" gorn="0.2.0.17" id="connector11pin"  stroke="none" x="10.148" height="13.0393" y="14.0485"/>
            <rect width="2.83465" fill="#9A916C" stroke-width="0" gorn="0.2.0.18" id="connector12pin"  stroke="none" x="15.8173" height="13.0393" y="14.0485"/>
            <g  transform="matrix(0, -1, 1, 0, -1.06583, 10.5903)">
                <g >
                    <g >
                        <g >
                            <rect width="9.63778" fill="#9A916C" stroke-width="0" gorn="0.2.0.19.0.0.0.0" id="connector13pin"  stroke="none" x="-0.0566929" height="4.53543" y="3.56031"/>
                        </g>
                    </g>
                </g>
            </g>
            <g  transform="matrix(0, -1, 1, 0, 18.2097, 29.8658)">
                <g >
                    <g >
                        <g >
                            <rect width="9.63778" fill="#9A916C" stroke-width="0" gorn="0.2.0.20.0.0.0.0" id="connector14pin"  stroke="none" x="19.2189" height="4.53543" y="3.56031"/>
                        </g>
                    </g>
                </g>
            </g>
        </g>
        <g  transform="matrix(1, 0, 0, 1, 4.5, 29.66)">
            <g >
                <g >
                    <g gorn="0.2.1.0.0.0" id="eg1390" >
                        <g  transform="matrix(-1, 0, 0, -1, 19.8, 17)">
                            <g >
                                <g >
                                    <g >
                                        <style type="text/css" >
	.st0{fill:#DCDCDC;}
	.st1{fill:#B4B4B4;}
	.st2{fill:#333333;}
</style>
                                        <g >
                                            <rect width="2.3"  x="15.9" height="17" y="0" class="st0"/>
                                            <rect width="2.3"  x="8.79998" height="17" y="0" class="st0"/>
                                            <rect width="2.3"  x="1.7" height="17" y="0" class="st0"/>
                                            <rect width="2.3"  x="15.9" height="11.3" y="2.8" class="st1"/>
                                            <rect width="2.3"  x="8.79998" height="11.3" y="2.8" class="st1"/>
                                            <rect width="2.3"  x="1.7" height="11.3" y="2.8" class="st1"/>
                                            <rect width="19.8"  x="0" height="9.9" y="3.5"/>
                                            <polygon points="1.4,10.6,1.4,13.5,18.4,13.5,18.4,10.6,19.8,10.6,19.8,6.4,18.4,6.4,18.4,3.5,14.2,3.5,14.2,6.4,5.7,6.4,5.7,3.5,1.4,3.5,1.4,6.4,0,6.4,0,10.6"  class="st0"/>
                                            <rect width="4.3"  x="9.9" height="2.8" y="3.5" class="st2"/>
                                            <circle cy="8.50003" cx="7.79998"  r="1.4" class="st1"/>
                                            <circle cy="8.50003" cx="12"  r="1.4" class="st1"/>
                                        </g>
                                    </g>
                                </g>
                            </g>
                        </g>
                    </g>
                </g>
            </g>
        </g>
        <g  transform="matrix(1, 0, 0, 1, 3.06151, 1.29252)">
            <g >
                <g >
                    <g gorn="0.2.2.0.0.0" id="jstph2" >
                        <g >
                            <polygon fill="#666666" points="19.843,0,2.835,0,2.835,2.126,0,2.126,0,17.008,22.677,17.008,22.677,2.126,19.843,2.126" />
                            <rect width="2.835"  x="4.252" height="8.50399" y="5.669"/>
                            <rect width="2.835"  x="15.591" height="8.50399" y="5.669"/>
                            <rect width="2.835" fill="#333333"  x="4.252" height="2.835" y="14.173"/>
                            <rect width="2.835" fill="#333333"  x="15.591" height="2.835" y="14.173"/>
                            <rect width="2.268" fill="#333333"  x="0" height="4.252" y="17.008"/>
                            <rect width="2.268" fill="#333333"  x="20.409" height="4.252" y="17.008"/>
                            <rect width="1.984" fill="#DCDCDC"  x="7.51198" height="7.087" y="17.008"/>
                            <rect width="1.984" fill="#DCDCDC"  x="13.181" height="7.087" y="17.008"/>
                        </g>
                    </g>
                </g>
            </g>
        </g>
    </g>
</svg>
