<?xml version='1.0' encoding='UTF-8' standalone='no'?>
<!-- Created with Fritzing (http://www.fritzing.org/) -->
<svg xmlns="http://www.w3.org/2000/svg" x="0in" gorn="0" id="svg6398"  height="0.755in" viewBox="0 0 50.4 54.36" width="0.7in" y="0in" version="1.2">
    <desc>
        <referenceFile>Adafruit_BMP180_breadboard.svg</referenceFile>
    </desc>
    <metadata id="metadata6842" />
    <defs id="defs6840" />
    <desc id="desc6400" >Fritzing breadboard generated by brd2svg</desc>
    <g gorn="0.3" id="breadboard" >
        <g gorn="0.3.0" id="icon" >
            <path d="M43.2,54.36L7.2,54.36A7.2,7.2,0,0,1,0,47.16L0,7.2A7.2,7.2,0,0,1,7.2,0L43.2,0A7.2,7.2,0,0,1,50.4,7.2L50.4,47.16A7.2,7.2,0,0,1,43.2,54.36M9.38268,50.4a1.41732,1.41732,0,1,0,2.83465,0,1.41732,1.41732,0,1,0,-2.83465,0zM16.5827,50.4a1.41732,1.41732,0,1,0,2.83465,0,1.41732,1.41732,0,1,0,-2.83465,0zM23.7827,50.4a1.41732,1.41732,0,1,0,2.83465,0,1.41732,1.41732,0,1,0,-2.83465,0zM30.9827,50.4a1.41732,1.41732,0,1,0,2.83465,0,1.41732,1.41732,0,1,0,-2.83465,0zM38.1827,50.4a1.41732,1.41732,0,1,0,2.83465,0,1.41732,1.41732,0,1,0,-2.83465,0zM4.08189,7.56a3.11811,3.11811,0,1,0,6.23622,0,3.11811,3.11811,0,1,0,-6.23622,0zM40.0819,7.56a3.11811,3.11811,0,1,0,6.23622,0,3.11811,3.11811,0,1,0,-6.23622,0z" gorn="0.3.0.0" stroke="none" id="path6404"  fill="#014cb1" stroke-width="0"/>
            <g gorn="0.3.0.1" id="g6406" >
                <title id="title6408" >layer 21</title>
                <g gorn="0.3.0.1.1" id="g6410" >
                    <title id="title6412" >text:BMP180</title>
                    <text x="18" font-size="3.3408" gorn="0.3.0.1.1.1" text-anchor="start" stroke="none" id="text6414"  font-family="OCRA" fill="#ffffff" y="4.32" stroke-width="0">BMP180</text>
                </g>
                <g gorn="0.3.0.1.2" id="g6416" >
                    <title id="title6418" >text:PRESSURE</title>
                    <text x="15.48" font-size="3.3408" gorn="0.3.0.1.2.1" text-anchor="start" stroke="none" id="text6420"  font-family="OCRA" fill="#ffffff" y="8.28" stroke-width="0">PRESSURE</text>
                </g>
                <g gorn="0.3.0.1.3" id="g6422" >
                    <title id="title6424" >text:SENSOR</title>
                    <text x="18" font-size="3.3408" gorn="0.3.0.1.3.1" text-anchor="start" stroke="none" id="text6426"  font-family="OCRA" fill="#ffffff" y="11.88" stroke-width="0">SENSOR</text>
                </g>
                <g gorn="0.3.0.1.4" id="g6428" >
                    <title id="title6430" >text:VIN</title>
                    <g transform="matrix(1, 0, 0, 1, 12.24, 46.8)" >
                        <g gorn="0.3.0.1.4.1.0" id="g6432" >
                            <g transform="rotate(270)" >
                                <g gorn="0.3.0.1.4.1.0.0.0" id="g6434" >
                                    <text x="0" font-size="3.3408" gorn="0.3.0.1.4.1.0.0.0.0" text-anchor="start" stroke="none" id="text6436"  font-family="OCRA" fill="#ffffff" y="0" stroke-width="0">VIN</text>
                                </g>
                            </g>
                        </g>
                    </g>
                </g>
                <g gorn="0.3.0.1.5" id="g6438" >
                    <title id="title6440" >text:3Vo</title>
                    <g transform="matrix(1, 0, 0, 1, 19.44, 46.8)" >
                        <g gorn="0.3.0.1.5.1.0" id="g6442" >
                            <g transform="rotate(270)" >
                                <g gorn="0.3.0.1.5.1.0.0.0" id="g6444" >
                                    <text x="0" font-size="3.3408" gorn="0.3.0.1.5.1.0.0.0.0" text-anchor="start" stroke="none" id="text6446"  font-family="OCRA" fill="#ffffff" y="0" stroke-width="0">3Vo</text>
                                </g>
                            </g>
                        </g>
                    </g>
                </g>
                <g gorn="0.3.0.1.6" id="g6448" >
                    <title id="title6450" >text:GND</title>
                    <g transform="matrix(1, 0, 0, 1, 26.28, 46.8)" >
                        <g gorn="0.3.0.1.6.1.0" id="g6452" >
                            <g transform="rotate(270)" >
                                <g gorn="0.3.0.1.6.1.0.0.0" id="g6454" >
                                    <text x="0" font-size="3.3408" gorn="0.3.0.1.6.1.0.0.0.0" text-anchor="start" stroke="none" id="text6456"  font-family="OCRA" fill="#ffffff" y="0" stroke-width="0">GND</text>
                                </g>
                            </g>
                        </g>
                    </g>
                </g>
                <g gorn="0.3.0.1.7" id="g6458" >
                    <title id="title6460" >text:SCL</title>
                    <g transform="matrix(1, 0, 0, 1, 33.12, 46.8)" >
                        <g gorn="0.3.0.1.7.1.0" id="g6462" >
                            <g transform="rotate(270)" >
                                <g gorn="0.3.0.1.7.1.0.0.0" id="g6464" >
                                    <text x="0" font-size="3.3408" gorn="0.3.0.1.7.1.0.0.0.0" text-anchor="start" stroke="none" id="text6466"  font-family="OCRA" fill="#ffffff" y="0" stroke-width="0">SCL</text>
                                </g>
                            </g>
                        </g>
                    </g>
                </g>
                <g gorn="0.3.0.1.8" id="g6468" >
                    <title id="title6470" >text:SDA</title>
                    <g transform="matrix(1, 0, 0, 1, 40.68, 46.8)" >
                        <g gorn="0.3.0.1.8.1.0" id="g6472" >
                            <g transform="rotate(270)" >
                                <g gorn="0.3.0.1.8.1.0.0.0" id="g6474" >
                                    <text x="0" font-size="3.3408" gorn="0.3.0.1.8.1.0.0.0.0" text-anchor="start" stroke="none" id="text6476"  font-family="OCRA" fill="#ffffff" y="0" stroke-width="0">SDA</text>
                                </g>
                            </g>
                        </g>
                    </g>
                </g>
                <g gorn="0.3.0.1.9" id="g6478" >
                    <title id="title6480" >element:C1</title>
                    <g gorn="0.3.0.1.9.1" id="g6482" >
                        <title id="title6484" >package:0805-NO</title>
                        <line x2="8.28" y1="17.64" stroke-linecap="round" gorn="0.3.0.1.9.1.1" stroke="white" id="line6486"  y2="20.52" x1="8.28" stroke-width="0.864"/>
                    </g>
                </g>
                <g gorn="0.3.0.1.10" id="g6488" >
                    <title id="title6490" >element:C2</title>
                    <g gorn="0.3.0.1.10.1" id="g6492" >
                        <title id="title6494" >package:0805-NO</title>
                        <line x2="7.92" y1="38.16" stroke-linecap="round" gorn="0.3.0.1.10.1.1" stroke="white" id="line6496"  y2="35.28" x1="7.92" stroke-width="0.864"/>
                    </g>
                </g>
                <g gorn="0.3.0.1.11" id="g6498" >
                    <title id="title6500" >element:JP1</title>
                    <g gorn="0.3.0.1.11.1" id="g6502" >
                        <title id="title6504" >package:1X05_ROUND_70</title>
                    </g>
                </g>
                <g gorn="0.3.0.1.12" id="g6506" >
                    <title id="title6508" >element:Q1</title>
                    <g gorn="0.3.0.1.12.1" id="g6510" >
                        <title id="title6512" >package:SOT23</title>
                    </g>
                </g>
                <g gorn="0.3.0.1.13" id="g6514" >
                    <title id="title6516" >element:Q2</title>
                    <g gorn="0.3.0.1.13.1" id="g6518" >
                        <title id="title6520" >package:SOT23</title>
                    </g>
                </g>
                <g gorn="0.3.0.1.14" id="g6522" >
                    <title id="title6524" >element:R1</title>
                    <g gorn="0.3.0.1.14.1" id="g6526" >
                        <title id="title6528" >package:0805-NO</title>
                        <line x2="42.48" y1="34.2" stroke-linecap="round" gorn="0.3.0.1.14.1.1" stroke="white" id="line6530"  y2="34.2" x1="45.36" stroke-width="0.864"/>
                    </g>
                </g>
                <g gorn="0.3.0.1.15" id="g6532" >
                    <title id="title6534" >element:R2</title>
                    <g gorn="0.3.0.1.15.1" id="g6536" >
                        <title id="title6538" >package:_0805MP</title>
                        <line x2="17.28" y1="34.2" stroke-linecap="round" gorn="0.3.0.1.15.1.1" stroke="white" id="line6540"  y2="34.2" x1="14.4" stroke-width="0.576"/>
                    </g>
                </g>
                <g gorn="0.3.0.1.16" id="g6542" >
                    <title id="title6544" >element:R3</title>
                    <g gorn="0.3.0.1.16.1" id="g6546" >
                        <title id="title6548" >package:0805-NO</title>
                        <line x2="24.12" y1="34.2" stroke-linecap="round" gorn="0.3.0.1.16.1.1" stroke="white" id="line6550"  y2="34.2" x1="21.24" stroke-width="0.864"/>
                    </g>
                </g>
                <g gorn="0.3.0.1.17" id="g6552" >
                    <title id="title6554" >element:R4</title>
                    <g gorn="0.3.0.1.17.1" id="g6556" >
                        <title id="title6558" >package:0805-NO</title>
                        <line x2="37.44" y1="18" stroke-linecap="round" gorn="0.3.0.1.17.1.1" stroke="white" id="line6560"  y2="15.12" x1="37.44" stroke-width="0.864"/>
                    </g>
                </g>
                <g gorn="0.3.0.1.18" id="g6562" >
                    <title id="title6564" >element:U$1</title>
                    <g gorn="0.3.0.1.18.1" id="g6566" >
                        <title id="title6568" >package:FIDUCIAL_1MM</title>
                    </g>
                </g>
                <g gorn="0.3.0.1.19" id="g6570" >
                    <title id="title6572" >element:U$2</title>
                    <g gorn="0.3.0.1.19.1" id="g6574" >
                        <title id="title6576" >package:ADAFRUIT_2.5MM</title>
                    </g>
                </g>
                <g gorn="0.3.0.1.20" id="g6578" >
                    <title id="title6580" >element:U$5</title>
                    <g gorn="0.3.0.1.20.1" id="g6582" >
                        <title id="title6584" >package:FIDUCIAL_1MM</title>
                    </g>
                </g>
                <g gorn="0.3.0.1.21" id="g6586" >
                    <title id="title6588" >element:U$6</title>
                    <g gorn="0.3.0.1.21.1" id="g6590" >
                        <title id="title6592" >package:ADAFRUIT_2.5MM</title>
                    </g>
                </g>
                <g gorn="0.3.0.1.22" id="g6594" >
                    <title id="title6596" >element:U$7</title>
                    <g gorn="0.3.0.1.22.1" id="g6598" >
                        <title id="title6600" >package:MOUNTINGHOLE_2.0_PLATED</title>
                        <circle cy="7.56" gorn="0.3.0.1.22.1.1" stroke="white" id="circle6602"  cx="7.2" r="5.10236" fill="none" stroke-width="0.576"/>
                    </g>
                </g>
                <g gorn="0.3.0.1.23" id="g6604" >
                    <title id="title6606" >element:U$8</title>
                    <g gorn="0.3.0.1.23.1" id="g6608" >
                        <title id="title6610" >package:MOUNTINGHOLE_2.0_PLATED</title>
                        <circle cy="7.56" gorn="0.3.0.1.23.1.1" stroke="white" id="circle6612"  cx="43.2" r="5.10236" fill="none" stroke-width="0.576"/>
                    </g>
                </g>
                <g gorn="0.3.0.1.24" id="g6614" >
                    <title id="title6616" >element:U$15</title>
                    <g gorn="0.3.0.1.24.1" id="g6618" >
                        <title id="title6620" >package:FIDUCIAL_1MM</title>
                    </g>
                </g>
                <g gorn="0.3.0.1.25" id="g6622" >
                    <title id="title6624" >element:U2</title>
                    <g gorn="0.3.0.1.25.1" id="g6626" >
                        <title id="title6628" >package:SOT23-5</title>
                        <line x2="3.24284" y1="25.4523" stroke-linecap="round" gorn="0.3.0.1.25.1.1" stroke="white" id="line6630"  y2="29.9877" x1="3.24284" stroke-width="0.576"/>
                        <line x2="12.5972" y1="25.4523" stroke-linecap="round" gorn="0.3.0.1.25.1.2" stroke="white" id="line6632"  y2="29.9877" x1="12.5972" stroke-width="0.576"/>
                        <line x2="9.05386" y1="24.7436" stroke-linecap="round" gorn="0.3.0.1.25.1.3" stroke="white" id="line6634"  y2="24.7436" x1="6.78614" stroke-width="0.576"/>
                    </g>
                </g>
                <g gorn="0.3.0.1.26" id="g6636" >
                    <title id="title6638" >element:U3</title>
                    <g gorn="0.3.0.1.26.1" id="g6640" >
                        <title id="title6642" >package:BMP180_EXTENDED</title>
                        <line x2="30.7276" y1="15.789" stroke-linecap="round" gorn="0.3.0.1.26.1.1" stroke="white" id="line6644"  y2="27.411" x1="30.7276" stroke-width="0.36"/>
                        <line x2="19.6724" y1="27.411" stroke-linecap="round" gorn="0.3.0.1.26.1.2" stroke="white" id="line6646"  y2="27.411" x1="30.7276" stroke-width="0.36"/>
                        <line x2="19.6724" y1="27.411" stroke-linecap="round" gorn="0.3.0.1.26.1.3" stroke="white" id="line6648"  y2="15.789" x1="19.6724" stroke-width="0.36"/>
                        <line x2="30.7276" y1="15.789" stroke-linecap="round" gorn="0.3.0.1.26.1.4" stroke="white" id="line6650"  y2="15.789" x1="19.6724" stroke-width="0.36"/>
                        <circle cy="13.2378" gorn="0.3.0.1.26.1.5" stroke="white" id="circle6652"  cx="20.948" r="0.566929" fill="none" stroke-width="0.992124"/>
                    </g>
                </g>
            </g>
            <rect x="3.74457" gorn="0.3.0.2" id="connector0pin" stroke="none"  height="4.25197" width="3.68504" fill="#9A916C" y="16.954" stroke-width="0"/>
            <rect x="9.13039" gorn="0.3.0.3" id="connector1pin" stroke="none"  height="4.25197" width="3.68504" fill="#9A916C" y="16.954" stroke-width="0"/>
            <g transform="matrix(-1, 0, 0, -1, 21.2258, 73.44)" >
                <g gorn="0.3.0.4.0" id="g6656" >
                    <rect x="8.77039" gorn="0.3.0.4.0.0" id="connector2pin" stroke="none"  height="4.25197" width="3.68504" fill="#9A916C" y="34.594" stroke-width="0"/>
                </g>
            </g>
            <g transform="matrix(-1, 0, 0, -1, 10.4542, 73.44)" >
                <g gorn="0.3.0.5.0" id="g6659" >
                    <rect x="3.38457" gorn="0.3.0.5.0.0" id="connector3pin" stroke="none"  height="4.25197" width="3.68504" fill="#9A916C" y="34.594" stroke-width="0"/>
                </g>
            </g>
            <circle connectorname="+5V" cy="50.4" gorn="0.3.0.6" id="connector4pin" stroke="#9A916C"  cx="10.8" r="1.96866" fill="none" stroke-width="1.10268"/>
            <rect x="8.8313" gorn="0.3.0.7" stroke="#9A916C" id="rect6663"  height="3.93732" width="3.93732" fill="none" y="48.4313" stroke-width="1.10268"/>
            <circle connectorname="+3V3" cy="50.4" gorn="0.3.0.8" id="connector5pin" stroke="#9A916C"  cx="18" r="1.96866" fill="none" stroke-width="1.10268"/>
            <circle connectorname="GND" cy="50.4" gorn="0.3.0.9" id="connector6pin" stroke="#9A916C"  cx="25.2" r="1.96866" fill="none" stroke-width="1.10268"/>
            <circle connectorname="SCL_5.0V" cy="50.4" gorn="0.3.0.10" id="connector7pin" stroke="#9A916C"  cx="32.4" r="1.96866" fill="none" stroke-width="1.10268"/>
            <circle connectorname="SDA_5.0V" cy="50.4" gorn="0.3.0.11" id="connector8pin" stroke="#9A916C"  cx="39.6" r="1.96866" fill="none" stroke-width="1.10268"/>
            <g transform="matrix(0, -1, 1, 0, -2.8148, 71.691)" >
                <g gorn="0.3.0.12.0" id="g6669" >
                    <rect x="33.0208" gorn="0.3.0.12.0.0" id="connector9pin" stroke="none"  height="3.9685" width="2.83465" fill="#9A916C" y="35.2687" stroke-width="0"/>
                </g>
            </g>
            <g transform="matrix(0, -1, 1, 0, 2.57103, 66.3052)" >
                <g gorn="0.3.0.13.0" id="g6672" >
                    <rect x="33.0208" gorn="0.3.0.13.0.0" id="connector10pin" stroke="none"  height="3.9685" width="2.83465" fill="#9A916C" y="29.8828" stroke-width="0"/>
                </g>
            </g>
            <g transform="matrix(0, -1, 1, 0, -6.35811, 62.7619)" >
                <g gorn="0.3.0.14.0" id="g6675" >
                    <rect x="26.7846" gorn="0.3.0.14.0.0" id="connector11pin" stroke="none"  height="3.9685" width="2.83465" fill="#9A916C" y="32.5758" stroke-width="0"/>
                </g>
            </g>
            <g transform="matrix(-1, 0, 0, -1, 83.1456, 43.4438)" >
                <g gorn="0.3.0.15.0" id="g6678" >
                    <rect x="40.1556" gorn="0.3.0.15.0.0" id="connector12pin" stroke="none"  height="3.9685" width="2.83465" fill="#9A916C" y="19.7376" stroke-width="0"/>
                </g>
            </g>
            <g transform="matrix(-1, 0, 0, -1, 72.3744, 43.4438)" >
                <g gorn="0.3.0.16.0" id="g6681" >
                    <rect x="34.7697" gorn="0.3.0.16.0.0" id="connector13pin" stroke="none"  height="3.9685" width="2.83465" fill="#9A916C" y="19.7376" stroke-width="0"/>
                </g>
            </g>
            <g transform="matrix(-1, 0, 0, -1, 77.76, 55.9162)" >
                <g gorn="0.3.0.17.0" id="g6684" >
                    <rect x="37.4627" gorn="0.3.0.17.0.0" id="connector14pin" stroke="none"  height="3.9685" width="2.83465" fill="#9A916C" y="25.9739" stroke-width="0"/>
                </g>
            </g>
            <g transform="matrix(0, 1, -1, 0, 75.4272, -12.4129)" >
                <g gorn="0.3.0.18.0" id="g6687" >
                    <rect x="42.0774" gorn="0.3.0.18.0.0" id="connector15pin" stroke="none"  height="4.25197" width="3.68504" fill="#9A916C" y="29.3811" stroke-width="0"/>
                </g>
            </g>
            <g transform="matrix(0, 1, -1, 0, 80.8128, -7.02708)" >
                <g gorn="0.3.0.19.0" id="g6690" >
                    <rect x="42.0774" gorn="0.3.0.19.0.0" id="connector16pin" stroke="none"  height="4.25197" width="3.68504" fill="#9A916C" y="34.7669" stroke-width="0"/>
                </g>
            </g>
            <g transform="matrix(0, -1, 1, 0, -21.24, 52.92)" >
                <g gorn="0.3.0.20.0" id="g6693" >
                    <rect x="14.1392" gorn="0.3.0.20.0.0" id="connector17pin" stroke="none"  height="3.68504" width="3.40158" fill="#9A916C" y="35.2374" stroke-width="0"/>
                </g>
            </g>
            <g transform="matrix(0, -1, 1, 0, -15.48, 47.16)" >
                <g gorn="0.3.0.21.0" id="g6696" >
                    <rect x="14.1392" gorn="0.3.0.21.0.0" id="connector18pin" stroke="none"  height="3.68504" width="3.40158" fill="#9A916C" y="29.4774" stroke-width="0"/>
                </g>
            </g>
            <g transform="matrix(0, -1, 1, 0, -14.2129, 59.5729)" >
                <g gorn="0.3.0.22.0" id="g6699" >
                    <rect x="20.8374" gorn="0.3.0.22.0.0" id="connector19pin" stroke="none"  height="4.25197" width="3.68504" fill="#9A916C" y="34.7669" stroke-width="0"/>
                </g>
            </g>
            <g transform="matrix(0, -1, 1, 0, -8.82706, 54.1871)" >
                <g gorn="0.3.0.23.0" id="g6702" >
                    <rect x="20.8374" gorn="0.3.0.23.0.0" id="connector20pin" stroke="none"  height="4.25197" width="3.68504" fill="#9A916C" y="29.3811" stroke-width="0"/>
                </g>
            </g>
            <g transform="matrix(-1, 0, 0, -1, 80.2656, 33.12)" >
                <g gorn="0.3.0.24.0" id="g6705" >
                    <rect x="38.2904" gorn="0.3.0.24.0.0" id="connector21pin" stroke="none"  height="4.25197" width="3.68504" fill="#9A916C" y="14.434" stroke-width="0"/>
                </g>
            </g>
            <g transform="matrix(-1, 0, 0, -1, 69.4942, 33.12)" >
                <g gorn="0.3.0.25.0" id="g6708" >
                    <rect x="32.9046" gorn="0.3.0.25.0.0" id="connector22pin" stroke="none"  height="4.25197" width="3.68504" fill="#9A916C" y="14.434" stroke-width="0"/>
                </g>
            </g>
            <rect x="2.90268" gorn="0.3.0.26" id="connector23pin" stroke="none"  height="2.83465" ry="1.41732" width="2.83465" fill="#9A916C" rx="1.41732" y="47.1827" stroke-width="0"/>
            <rect x="15.1427" gorn="0.3.0.27" id="connector24pin" stroke="none"  height="2.83465" ry="1.41732" width="2.83465" fill="#9A916C" rx="1.41732" y="16.9427" stroke-width="0"/>
            <circle connectorname="P$1" cy="7.56" gorn="0.3.0.28" id="connector25pin" stroke="#9A916C"  cx="7.2" r="3.83811" fill="none" stroke-width="1.44"/>
            <circle connectorname="P$1" cy="7.56" gorn="0.3.0.29" id="connector26pin" stroke="#9A916C"  cx="43.2" r="3.83811" fill="none" stroke-width="1.44"/>
            <rect x="45.3827" gorn="0.3.0.30" id="connector27pin" stroke="none"  height="2.83465" ry="1.41732" width="2.83465" fill="#9A916C" rx="1.41732" y="14.0627" stroke-width="0"/>
            <rect x="4.44756" gorn="0.3.0.31" id="connector28pin" stroke="none"  height="3.40158" width="1.55905" fill="#9A916C" y="29.7045" stroke-width="0"/>
            <rect x="7.14047" gorn="0.3.0.32" id="connector29pin" stroke="none"  height="3.40158" width="1.55905" fill="#9A916C" y="29.7045" stroke-width="0"/>
            <rect x="9.8334" gorn="0.3.0.33" id="connector30pin" stroke="none"  height="3.40158" width="1.55905" fill="#9A916C" y="29.7045" stroke-width="0"/>
            <rect x="9.8334" gorn="0.3.0.34" id="connector31pin" stroke="none"  height="3.40158" width="1.55905" fill="#9A916C" y="22.3339" stroke-width="0"/>
            <rect x="4.44756" gorn="0.3.0.35" id="connector32pin" stroke="none"  height="3.40158" width="1.55905" fill="#9A916C" y="22.3339" stroke-width="0"/>
            <g transform="matrix(0, 1, -1, 0, 37.5874, -4.59212)" >
                <g gorn="0.3.0.36.0" id="g6721" >
                    <rect x="19.389" gorn="0.3.0.36.0.0" id="connector33pin" stroke="none"  height="1.41732" width="3.40158" fill="#9A916C" y="15.789" stroke-width="0"/>
                </g>
            </g>
            <g transform="matrix(0, 1, -1, 0, 41.8393, 1.36063)" >
                <g gorn="0.3.0.37.0" id="g6724" >
                    <rect x="19.389" gorn="0.3.0.37.0.0" id="connector34pin" stroke="none"  height="3.11811" width="1.70078" fill="#9A916C" y="20.0409" stroke-width="0"/>
                </g>
            </g>
            <g transform="matrix(0, 1, -1, 0, 47.7922, 5.6126)" >
                <g gorn="0.3.0.38.0" id="g6727" >
                    <rect x="19.389" gorn="0.3.0.38.0.0" id="connector35pin" stroke="none"  height="1.41732" width="3.40158" fill="#9A916C" y="25.9937" stroke-width="0"/>
                </g>
            </g>
            <g transform="matrix(0, 1, -1, 0, 56.0126, -2.60788)" >
                <g gorn="0.3.0.39.0" id="g6730" >
                    <rect x="27.6095" gorn="0.3.0.39.0.0" id="connector36pin" stroke="none"  height="1.41732" width="3.40158" fill="#9A916C" y="25.9937" stroke-width="0"/>
                </g>
            </g>
            <g transform="matrix(0, 1, -1, 0, 51.7607, -8.56066)" >
                <g gorn="0.3.0.40.0" id="g6733" >
                    <rect x="29.3103" gorn="0.3.0.40.0.0" id="connector37pin" stroke="none"  height="3.11811" width="1.70078" fill="#9A916C" y="20.0409" stroke-width="0"/>
                </g>
            </g>
            <g transform="matrix(0, 1, -1, 0, 45.8078, -12.8126)" >
                <g gorn="0.3.0.41.0" id="g6736" >
                    <rect x="27.6095" gorn="0.3.0.41.0.0" id="connector38pin" stroke="none"  height="1.41732" width="3.40158" fill="#9A916C" y="15.789" stroke-width="0"/>
                </g>
            </g>
            <g transform="matrix(0, 1, -1, 0, 41.6976, -8.70235)" >
                <g gorn="0.3.0.42.0" id="g6739" >
                    <rect x="23.6409" gorn="0.3.0.42.0.0" id="connector39pin" stroke="none"  height="1.70078" width="3.11811" fill="#9A916C" y="15.6473" stroke-width="0"/>
                </g>
            </g>
        </g>
        <g transform="matrix(1, 0, 0, 1, 5.4455, 17.3085)" >
            <g gorn="0.3.1.0" id="0805-cap" >
                <path d="M5.386,3.543L0.283,3.543C0.127,3.543,0,3.416,0,3.26L0,0.283C0,0.127,0.127,0,0.283,0l5.102,0c0.157,0,0.283,0.127,0.283,0.283L5.668,3.26C5.669,3.416,5.542,3.543,5.386,3.543z" gorn="0.3.1.0.0" id="path6743"  fill="#DCDCDC"/>
                <rect x="1.063" gorn="0.3.1.0.1" id="rect6745"  height="3.543" width="3.543" fill="#6E554B"/>
            </g>
        </g>
        <g transform="matrix(1, 0, 0, 1, 5.0855, 34.9485)" >
            <g gorn="0.3.2.0" id="g6747" >
                <g transform="matrix(-1, 0, 0, -1, 5.669, 3.543)" >
                    <g gorn="0.3.2.0.0.0" id="g6749" >
                        <path d="M5.386,3.543L0.283,3.543C0.127,3.543,0,3.416,0,3.26L0,0.283C0,0.127,0.127,0,0.283,0l5.102,0c0.157,0,0.283,0.127,0.283,0.283L5.668,3.26C5.669,3.416,5.542,3.543,5.386,3.543z" gorn="0.3.2.0.0.0.0" id="path6751"  fill="#DCDCDC"/>
                        <rect x="1.063" gorn="0.3.2.0.0.0.1" id="rect6753"  height="3.543" width="3.543" fill="#6E554B"/>
                    </g>
                </g>
            </g>
        </g>
        <g transform="matrix(1, 0, 0, 1, 27.068, 30.733)" >
            <g gorn="0.3.3.0" id="sot23" >
                <g transform="matrix(0, -1, 1, 0, 0.42498, 8.07898)" >
                    <g gorn="0.3.3.0.0.0" id="g6756" >
                        <g gorn="0.3.3.0.0.0.0" id="g6758" >
                            <rect x="0.850003" gorn="0.3.3.0.0.0.0.0" id="rect6760"  height="2.976" width="1.417" fill="#DCDCDC" y="4.677"/>
                            <rect x="6.236" gorn="0.3.3.0.0.0.0.1" id="rect6762"  height="2.976" width="1.417" fill="#DCDCDC" y="4.677"/>
                            <rect x="3.543" gorn="0.3.3.0.0.0.0.2" id="rect6764"  height="3.118" width="1.417" fill="#DCDCDC"/>
                            <rect gorn="0.3.3.0.0.0.0.3" id="rect6766"  height="3.685" width="8.50399" fill="#303030" y="1.984"/>
                        </g>
                    </g>
                </g>
            </g>
        </g>
        <g transform="matrix(1, 0, 0, 1, 34.628, 21.013)" >
            <g gorn="0.3.4.0" id="g6768" >
                <g transform="matrix(-1, 0, 0, -1, 8.50399, 7.65403)" >
                    <g gorn="0.3.4.0.0.0" id="g6770" >
                        <g gorn="0.3.4.0.0.0.0" id="g6772" >
                            <rect x="0.850003" gorn="0.3.4.0.0.0.0.0" id="rect6774"  height="2.976" width="1.417" fill="#DCDCDC" y="4.677"/>
                            <rect x="6.236" gorn="0.3.4.0.0.0.0.1" id="rect6776"  height="2.976" width="1.417" fill="#DCDCDC" y="4.677"/>
                            <rect x="3.543" gorn="0.3.4.0.0.0.0.2" id="rect6778"  height="3.118" width="1.417" fill="#DCDCDC"/>
                            <rect gorn="0.3.4.0.0.0.0.3" id="rect6780"  height="3.685" width="8.50399" fill="#303030" y="1.984"/>
                        </g>
                    </g>
                </g>
            </g>
        </g>
        <g transform="matrix(1, 0, 0, 1, 41.0855, 32.4285)" >
            <g gorn="0.3.5.0" id="0805-res" >
                <g transform="matrix(0, 1, -1, 0, 4.606, -1.063)" >
                    <g gorn="0.3.5.0.0.0" id="g6783" >
                        <path d="M5.386,3.543L0.283,3.543C0.127,3.543,0,3.416,0,3.26L0,0.283C0,0.127,0.127,0,0.283,0l5.102,0c0.157,0,0.283,0.127,0.283,0.283L5.668,3.26C5.669,3.416,5.542,3.543,5.386,3.543z" gorn="0.3.5.0.0.0.0" id="path6785"  fill="#DCDCDC"/>
                        <rect x="1.063" gorn="0.3.5.0.0.0.1" id="rect6787"  height="3.543" width="3.543" fill="#333333"/>
                    </g>
                </g>
            </g>
        </g>
        <g transform="matrix(1, 0, 0, 1, 13.0055, 32.4285)" >
            <g gorn="0.3.6.0" id="g6789" >
                <g transform="matrix(0, -1, 1, 0, 1.063, 4.606)" >
                    <g gorn="0.3.6.0.0.0" id="g6791" >
                        <path d="M5.386,3.543L0.283,3.543C0.127,3.543,0,3.416,0,3.26L0,0.283C0,0.127,0.127,0,0.283,0l5.102,0c0.157,0,0.283,0.127,0.283,0.283L5.668,3.26C5.669,3.416,5.542,3.543,5.386,3.543z" gorn="0.3.6.0.0.0.0" id="path6793"  fill="#DCDCDC"/>
                        <rect x="1.063" gorn="0.3.6.0.0.0.1" id="rect6795"  height="3.543" width="3.543" fill="#333333"/>
                    </g>
                </g>
            </g>
        </g>
        <g transform="matrix(1, 0, 0, 1, 19.8455, 32.4285)" >
            <g gorn="0.3.7.0" id="g6797" >
                <g transform="matrix(0, -1, 1, 0, 1.063, 4.606)" >
                    <g gorn="0.3.7.0.0.0" id="g6799" >
                        <path d="M5.386,3.543L0.283,3.543C0.127,3.543,0,3.416,0,3.26L0,0.283C0,0.127,0.127,0,0.283,0l5.102,0c0.157,0,0.283,0.127,0.283,0.283L5.668,3.26C5.669,3.416,5.542,3.543,5.386,3.543z" gorn="0.3.7.0.0.0.0" id="path6801"  fill="#DCDCDC"/>
                        <rect x="1.063" gorn="0.3.7.0.0.0.1" id="rect6803"  height="3.543" width="3.543" fill="#333333"/>
                    </g>
                </g>
            </g>
        </g>
        <g transform="matrix(1, 0, 0, 1, 34.6055, 14.7885)" >
            <g gorn="0.3.8.0" id="g6805" >
                <g transform="matrix(-1, 0, 0, -1, 5.669, 3.543)" >
                    <g gorn="0.3.8.0.0.0" id="g6807" >
                        <path d="M5.386,3.543L0.283,3.543C0.127,3.543,0,3.416,0,3.26L0,0.283C0,0.127,0.127,0,0.283,0l5.102,0c0.157,0,0.283,0.127,0.283,0.283L5.668,3.26C5.669,3.416,5.542,3.543,5.386,3.543z" gorn="0.3.8.0.0.0.0" id="path6809"  fill="#DCDCDC"/>
                        <rect x="1.063" gorn="0.3.8.0.0.0.1" id="rect6811"  height="3.543" width="3.543" fill="#333333"/>
                    </g>
                </g>
            </g>
        </g>
        <g transform="translate(40.120744,39.416639)" >
            <g gorn="0.3.9.0" id="adafruit_2.5mm" >
                <path d="M 9.747,3.082 C 9.724,2.94 9.647,2.899 9.461,2.839 9.31903,2.794 8.37202,2.492 8.37202,2.492 c 0,0 -0.66,-0.249 -1.15,0.103 C 7.156,2.643 7.088,2.697 7.019,2.755 7.077,2.686 7.131,2.618 7.178,2.552 7.53,2.062 7.279,1.402 7.279,1.402 7.279,1.402 6.976,0.455 6.93,0.313 6.87,0.127 6.83,0.05 6.687,0.028 6.545,0.005 6.483,0.066 6.369,0.225 6.282,0.345 5.702,1.153 5.702,1.153 c 0,0 -0.441,0.551 -0.257,1.126 C 5.47,2.356 5.5,2.438 5.534,2.521 5.486,2.445 5.438,2.372 5.39,2.307 5.032,1.821 4.328,1.855 4.328,1.855 c 0,0 -0.995,-0.004 -1.143,-0.004 -0.195,0 -0.281,0.014 -0.347,0.143 -0.065,0.128 -0.027,0.206 0.089,0.364 0.088,0.12 0.677,0.921002 0.677,0.921002 0,0 0.388,0.59 0.991001,0.592 0.081,0 0.168,-0.003 0.257,-0.01 C 4.765,3.883 4.681,3.907 4.604,3.932 4.031,4.122 3.845998,4.802998 3.845998,4.802998 3.845998,4.802998 3.536,5.747 3.489,5.888 3.428,6.074 3.416,6.16 3.518,6.262 3.62,6.364 3.706,6.352 3.892,6.29 4.033,6.244 4.977,5.931 4.977,5.931 c 0,0 0.681,-0.187 0.868997,-0.760003 0.025,-0.077 0.049,-0.16 0.07,-0.247 C 5.91,5.014 5.907,5.1 5.907,5.181 c 0.004,0.603 0.594,0.99 0.594,0.99 0,0 0.802001,0.588 0.922003,0.675 C 7.58102,6.962 7.659,7 7.78802,6.935 7.91597,6.869 7.93102,6.783 7.93001,6.588 7.929,6.439 7.92403,5.445 7.92403,5.445 7.92403,5.445 7.95701,4.74 7.47,4.383 7.40498,4.335 7.33198,4.287 7.25602,4.24 c 0.083,0.034 0.165,0.064 0.242,0.088 0.575,0.183 1.125,-0.259 1.125,-0.259 0,0 0.80696,-0.5809998 0.92699,-0.6679998 C 9.70898,3.286 9.76903,3.224 9.747,3.082 Z M 6.322,2.35 C 6.43,2.367 6.484,2.598 6.442,2.865 6.4,3.132 6.278,3.335 6.169,3.318 6.061,3.301 6.007,3.07 6.049,2.803 6.091,2.535 6.213,2.332 6.322,2.35 Z M 4.933,3.059 c 0.05,-0.098 0.286,-0.078 0.527,0.045 C 5.701,3.227 5.857,3.406 5.807,3.503 5.757,3.601 5.521,3.581 5.28,3.458 5.038,3.335 4.883,3.157 4.933,3.059 Z M 5.665,4.393 C 5.474,4.584 5.256,4.677 5.178,4.599 5.101,4.521 5.193,4.303 5.384,4.112 5.575,3.92 5.793,3.827 5.871,3.905 5.949,3.983 5.857,4.201 5.665,4.393 Z M 6.719,4.842 C 6.6210001,4.892 6.442,4.737 6.319,4.496 6.196,4.254 6.175,4.018 6.273,3.968 c 0.098,-0.05 0.277,0.105 0.4,0.346 0.123,0.242 0.144,0.478 0.046,0.528 z M 6.973,3.725 C 6.706,3.767 6.475,3.714 6.457,3.606 6.44,3.497 6.643,3.375 6.91,3.332 7.177,3.289 7.408,3.343 7.425,3.451 7.443,3.56 7.24003,3.682 6.973,3.725 Z" gorn="0.3.9.0.0" id="path6814"  style="fill:#9fbbe0"/>
            </g>
        </g>
        <g transform="matrix(1, 0, 0, 1, 3.80999, 23.893)" >
            <g gorn="0.3.10.0" id="sot23-5" >
                <g gorn="0.3.10.0.0" id="g6817" >
                    <rect x="0.850003" gorn="0.3.10.0.0.0" id="rect6819"  height="7.65403" width="1.134" fill="#DCDCDC"/>
                    <rect x="6.236" gorn="0.3.10.0.0.1" id="rect6821"  height="7.65403" width="1.134" fill="#DCDCDC"/>
                    <rect x="3.543" gorn="0.3.10.0.0.2" id="rect6823"  height="3.118" width="1.134" fill="#DCDCDC" y="4.535"/>
                    <rect gorn="0.3.10.0.0.3" id="rect6825"  height="4.535" width="8.22002" fill="#303030" y="1.559"/>
                </g>
            </g>
        </g>
        <g transform="translate(19.8142,16.412337)" >
            <g gorn="0.3.11.0" id="bmp180_extended" >
                <g transform="matrix(0,1,-1,0,10.4882,-0.283464)" >
                    <g gorn="0.3.11.0.0.0" id="g6828" >
                        <metadata id="metadata15" >
                            <rdf:RDF xmlns:rdf="http://www.w3.org/1999/02/22-rdf-syntax-ns#">
                                <cc:Work rdf:about="" xmlns:rdf="http://www.w3.org/1999/02/22-rdf-syntax-ns#" xmlns:cc="http://creativecommons.org/ns#">
                                    <dc:format xmlns:dc="http://purl.org/dc/elements/1.1/">image/svg+xml</dc:format>
                                    <dc:type rdf:resource="http://purl.org/dc/dcmitype/StillImage" xmlns:rdf="http://www.w3.org/1999/02/22-rdf-syntax-ns#" xmlns:dc="http://purl.org/dc/elements/1.1/"/>
                                    <dc:title xmlns:dc="http://purl.org/dc/elements/1.1/"/>
                                </cc:Work>
                            </rdf:RDF>
                        </metadata>
                        <defs id="defs13" />
                        <g transform="matrix(1.56238,0,0,1.44742,0,0.0288002)" >
                            <g gorn="0.3.11.0.0.0.2.0" id="g3350" >
                                <g gorn="0.3.11.0.0.0.2.0.0" id="g3346" >
                                    <path nodetypes="ssssssscs" d="M 0,6.4616 0,0.548908 C 0,0.234421 0.250848,-0.019897 0.561046,-0.019897 l 5.77231,0 c 0.309406,0 0.561046,0.254318 0.561046,0.568805 l 0,5.91269 C 6.8944,6.77528 6.64356,7.0304 6.33336,7.0304 l -5.77231,0 C 0.250848,7.0296 0,6.77528 0,6.4616 Z" gorn="0.3.11.0.0.0.2.0.0.0" id="path5"  style="fill:#b4b4b4"/>
                                    <path nodetypes="sssssssss" d="m 0.336311,0.548908 c 0,-0.125153 0.100498,-0.227843 0.223944,-0.227843 l 5.75227,0 c 0.123446,0 0.223944,0.10269 0.223944,0.227843 l 0,5.91269 c 0,0.125153 -0.100498,0.227843 -0.223944,0.227843 l -5.75227,0 c -0.123446,0 -0.223944,-0.10269 -0.223944,-0.227843 z" gorn="0.3.11.0.0.0.2.0.0.1" id="path7"  style="fill:#dcdcdc"/>
                                </g>
                                <ellipse cy="1.44743" gorn="0.3.11.0.0.0.2.0.1" id="circle9"  cx="5.3787999" ry="0.49099001" rx="0.44865799"/>
                            </g>
                        </g>
                    </g>
                </g>
            </g>
        </g>
    </g>
</svg>
