<?xml version='1.0' encoding='UTF-8' standalone='no'?>
<!-- Created with Fritzing (http://www.fritzing.org/) -->
<svg xmlns="http://www.w3.org/2000/svg" y="0in" height="0.551181in" version="1.2" width="0.708661in" viewBox="0 0 51.0236 39.685" x="0in"  gorn="0" id="svg2">
    <desc >
        <referenceFile >MCP4725_breadboard.svg</referenceFile>
    </desc>
    <metadata  id="metadata331"/>
    <defs  id="defs329"/>
    <desc  id="desc4">Fritzing breadboard generated by brd2svg</desc>
    <g  gorn="0.4" id="icon">
        <path d="M 0,34.0158 0,5.66929 A 5.66929,5.66929 0 0 1 5.66929,0 L 45.3543,0 a 5.66929,5.66929 0 0 1 5.6693,5.66929 l 0,28.34651 a 5.66929,5.66929 0 0 1 -5.6693,5.6692 l -39.68501,0 A 5.66929,5.66929 0 0 1 0,34.0158 M 6.09449,33.925 a 1.417325,1.417325 0 1 0 2.83465,0 1.417325,1.417325 0 1 0 -2.83465,0 z m 7.20001,0 a 1.417325,1.417325 0 1 0 2.83465,0 1.417325,1.417325 0 1 0 -2.83465,0 z m 7.2,0 a 1.417325,1.417325 0 1 0 2.83465,0 1.417325,1.417325 0 1 0 -2.83465,0 z m 7.2,0 a 1.417325,1.417325 0 1 0 2.83465,0 1.417325,1.417325 0 1 0 -2.83465,0 z m 7.2,0 a 1.417325,1.417325 0 1 0 2.83465,0 1.417325,1.417325 0 1 0 -2.83465,0 z m 7.2,0 a 1.417325,1.417325 0 1 0 2.83465,0 1.417325,1.417325 0 1 0 -2.83465,0 z M 3.65669,6.56504 a 3.54331,3.54331 0 1 0 7.08661,0 3.54331,3.54331 0 1 0 -7.08661,0 z m 36.62361,0 a 3.54331,3.54331 0 1 0 7.08661,0 3.54331,3.54331 0 1 0 -7.08661,0 z" style="fill:#014cb1;stroke:none;stroke-width:0"  gorn="0.4.0" id="path8"/>
        <g  gorn="0.4.1" id="g10">
            <title  id="title12">layer 21</title>
            <g  gorn="0.4.1.1" id="g14">
                <title  id="title16">text:VDD</title>
                <g transform="translate(8.64,31.045)" >
                    <g >
                        <g  gorn="0.4.1.1.1.0.0" id="g18">
                            <g transform="matrix(0,-1,1,0,0,0)" >
                                <g >
                                    <g  gorn="0.4.1.1.1.0.0.0.0.0" id="g20">
                                        <text y="0" font-size="3.3408" style="font-size:3.34080005px;font-family:OCRA;text-anchor:start;fill:#ffffff;stroke:none;stroke-width:0" x="0"  gorn="0.4.1.1.1.0.0.0.0.0.0" id="text22">VDD</text>
                                    </g>
                                </g>
                            </g>
                        </g>
                    </g>
                </g>
            </g>
            <g  gorn="0.4.1.2" id="g24">
                <title  id="title26">text:GND</title>
                <g transform="translate(15.84,31.045)" >
                    <g >
                        <g  gorn="0.4.1.2.1.0.0" id="g28">
                            <g transform="matrix(0,-1,1,0,0,0)" >
                                <g >
                                    <g  gorn="0.4.1.2.1.0.0.0.0.0" id="g30">
                                        <text y="0" font-size="3.3408" style="font-size:3.34080005px;font-family:OCRA;text-anchor:start;fill:#ffffff;stroke:none;stroke-width:0" x="0"  gorn="0.4.1.2.1.0.0.0.0.0.0" id="text32">GND</text>
                                    </g>
                                </g>
                            </g>
                        </g>
                    </g>
                </g>
            </g>
            <g  gorn="0.4.1.3" id="g34">
                <title  id="title36">text:SCL</title>
                <g transform="translate(23.04,31.045)" >
                    <g >
                        <g  gorn="0.4.1.3.1.0.0" id="g38">
                            <g transform="matrix(0,-1,1,0,0,0)" >
                                <g >
                                    <g  gorn="0.4.1.3.1.0.0.0.0.0" id="g40">
                                        <text y="0" font-size="3.3408" style="font-size:3.34080005px;font-family:OCRA;text-anchor:start;fill:#ffffff;stroke:none;stroke-width:0" x="0"  gorn="0.4.1.3.1.0.0.0.0.0.0" id="text42">SCL</text>
                                    </g>
                                </g>
                            </g>
                        </g>
                    </g>
                </g>
            </g>
            <g  gorn="0.4.1.4" id="g44">
                <title  id="title46">text:SDA</title>
                <g transform="translate(30.24,31.045)" >
                    <g >
                        <g  gorn="0.4.1.4.1.0.0" id="g48">
                            <g transform="matrix(0,-1,1,0,0,0)" >
                                <g >
                                    <g  gorn="0.4.1.4.1.0.0.0.0.0" id="g50">
                                        <text y="0" font-size="3.3408" style="font-size:3.34080005px;font-family:OCRA;text-anchor:start;fill:#ffffff;stroke:none;stroke-width:0" x="0"  gorn="0.4.1.4.1.0.0.0.0.0.0" id="text52">SDA</text>
                                    </g>
                                </g>
                            </g>
                        </g>
                    </g>
                </g>
            </g>
            <g  gorn="0.4.1.5" id="g54">
                <title  id="title56">text:A0</title>
                <g transform="translate(37.44,29.605)" >
                    <g >
                        <g  gorn="0.4.1.5.1.0.0" id="g58">
                            <g transform="matrix(0,-1,1,0,0,0)" >
                                <g >
                                    <g  gorn="0.4.1.5.1.0.0.0.0.0" id="g60">
                                        <text y="0" font-size="3.3408" style="font-size:3.34080005px;font-family:OCRA;text-anchor:start;fill:#ffffff;stroke:none;stroke-width:0" x="0"  gorn="0.4.1.5.1.0.0.0.0.0.0" id="text62">A0</text>
                                    </g>
                                </g>
                            </g>
                        </g>
                    </g>
                </g>
            </g>
            <g  gorn="0.4.1.6" id="g64">
                <title  id="title66">text:VOUT</title>
                <g transform="translate(44.64,31.045)" >
                    <g >
                        <g  gorn="0.4.1.6.1.0.0" id="g68">
                            <g transform="matrix(0,-1,1,0,0,0)" >
                                <g >
                                    <g  gorn="0.4.1.6.1.0.0.0.0.0" id="g70">
                                        <text y="0" font-size="3.3408" style="font-size:3.34080005px;font-family:OCRA;text-anchor:start;fill:#ffffff;stroke:none;stroke-width:0" x="0"  gorn="0.4.1.6.1.0.0.0.0.0.0" id="text72">VOUT</text>
                                    </g>
                                </g>
                            </g>
                        </g>
                    </g>
                </g>
            </g>
            <g  gorn="0.4.1.7" id="g74">
                <title  id="title76">text:MCP4725</title>
                <text y="5.3858199" font-size="4.176" style="font-size:4.17600012px;font-family:OCRA;text-anchor:start;fill:#ffffff;stroke:none;stroke-width:0" x="14.3433"  gorn="0.4.1.7.1" id="text78">MCP4725</text>
            </g>
            <g  gorn="0.4.1.8" id="g80">
                <title  id="title82">text:DAC</title>
                <text y="10.3748" font-size="4.176" style="font-size:4.17600012px;font-family:OCRA;text-anchor:start;fill:#ffffff;stroke:none;stroke-width:0" x="20.5795"  gorn="0.4.1.8.1" id="text84">DAC</text>
            </g>
            <g  gorn="0.4.1.9" id="g86">
                <title  id="title88">element:C1</title>
                <g  gorn="0.4.1.9.1" id="g90">
                    <title  id="title92">package:0805</title>
                    <line y1="23.187401" style="stroke:#ffffff;stroke-width:0.36000001;stroke-linecap:round" x2="11.8488" x1="16.9512" y2="23.187401"  gorn="0.4.1.9.1.1" id="line94"/>
                    <line y1="23.187401" style="stroke:#ffffff;stroke-width:0.36000001;stroke-linecap:round" x2="11.8488" x1="11.8488" y2="12.9827"  gorn="0.4.1.9.1.2" id="line96"/>
                    <line y1="12.9827" style="stroke:#ffffff;stroke-width:0.36000001;stroke-linecap:round" x2="16.9512" x1="11.8488" y2="12.9827"  gorn="0.4.1.9.1.3" id="line98"/>
                    <line y1="12.9827" style="stroke:#ffffff;stroke-width:0.36000001;stroke-linecap:round" x2="16.9512" x1="16.9512" y2="23.187401"  gorn="0.4.1.9.1.4" id="line100"/>
                </g>
            </g>
            <g  gorn="0.4.1.10" id="g102">
                <title  id="title104">element:FID1</title>
                <g  gorn="0.4.1.10.1" id="g106">
                    <title  id="title108">package:FIDUCIAL_1MM</title>
                </g>
            </g>
            <g  gorn="0.4.1.11" id="g110">
                <title  id="title112">element:FID2</title>
                <g  gorn="0.4.1.11.1" id="g114">
                    <title  id="title116">package:FIDUCIAL_1MM</title>
                </g>
            </g>
            <g  gorn="0.4.1.12" id="g118">
                <title  id="title120">element:JP1</title>
                <g  gorn="0.4.1.12.1" id="g122">
                    <title  id="title124">package:1X06_ROUND_70</title>
                </g>
            </g>
            <g  gorn="0.4.1.13" id="g126">
                <title  id="title128">element:R1</title>
                <g  gorn="0.4.1.13.1" id="g130">
                    <title  id="title132">package:0805</title>
                    <line y1="23.187401" style="stroke:#ffffff;stroke-width:0.36000001;stroke-linecap:round" x2="4.6488199" x1="9.7511797" y2="23.187401"  gorn="0.4.1.13.1.1" id="line134"/>
                    <line y1="23.187401" style="stroke:#ffffff;stroke-width:0.36000001;stroke-linecap:round" x2="4.6488199" x1="4.6488199" y2="12.9827"  gorn="0.4.1.13.1.2" id="line136"/>
                    <line y1="12.9827" style="stroke:#ffffff;stroke-width:0.36000001;stroke-linecap:round" x2="9.7511797" x1="4.6488199" y2="12.9827"  gorn="0.4.1.13.1.3" id="line138"/>
                    <line y1="12.9827" style="stroke:#ffffff;stroke-width:0.36000001;stroke-linecap:round" x2="9.7511797" x1="9.7511797" y2="23.187401"  gorn="0.4.1.13.1.4" id="line140"/>
                </g>
            </g>
            <g  gorn="0.4.1.14" id="g142">
                <title  id="title144">element:R2</title>
                <g  gorn="0.4.1.14.1" id="g146">
                    <title  id="title148">package:0805</title>
                    <line y1="12.9827" style="stroke:#ffffff;stroke-width:0.36000001;stroke-linecap:round" x2="24.151199" x1="19.0488" y2="12.9827"  gorn="0.4.1.14.1.1" id="line150"/>
                    <line y1="12.9827" style="stroke:#ffffff;stroke-width:0.36000001;stroke-linecap:round" x2="24.151199" x1="24.151199" y2="23.187401"  gorn="0.4.1.14.1.2" id="line152"/>
                    <line y1="23.187401" style="stroke:#ffffff;stroke-width:0.36000001;stroke-linecap:round" x2="19.0488" x1="24.151199" y2="23.187401"  gorn="0.4.1.14.1.3" id="line154"/>
                    <line y1="23.187401" style="stroke:#ffffff;stroke-width:0.36000001;stroke-linecap:round" x2="19.0488" x1="19.0488" y2="12.9827"  gorn="0.4.1.14.1.4" id="line156"/>
                </g>
            </g>
            <g  gorn="0.4.1.15" id="g158">
                <title  id="title160">element:R3</title>
                <g  gorn="0.4.1.15.1" id="g162">
                    <title  id="title164">package:0805</title>
                    <line y1="12.9827" style="stroke:#ffffff;stroke-width:0.36000001;stroke-linecap:round" x2="32.071201" x1="26.9688" y2="12.9827"  gorn="0.4.1.15.1.1" id="line166"/>
                    <line y1="12.9827" style="stroke:#ffffff;stroke-width:0.36000001;stroke-linecap:round" x2="32.071201" x1="32.071201" y2="23.187401"  gorn="0.4.1.15.1.2" id="line168"/>
                    <line y1="23.187401" style="stroke:#ffffff;stroke-width:0.36000001;stroke-linecap:round" x2="26.9688" x1="32.071201" y2="23.187401"  gorn="0.4.1.15.1.3" id="line170"/>
                    <line y1="23.187401" style="stroke:#ffffff;stroke-width:0.36000001;stroke-linecap:round" x2="26.9688" x1="26.9688" y2="12.9827"  gorn="0.4.1.15.1.4" id="line172"/>
                </g>
            </g>
            <g  gorn="0.4.1.16" id="g174">
                <title  id="title176">element:U$7</title>
                <g  gorn="0.4.1.16.1" id="g178">
                    <title  id="title180">package:MOUNTINGHOLE_2.5_PLATED</title>
                    <circle r="4.9606299" cx="7.1999998" cy="6.5650401" style="fill:none;stroke:#ffffff;stroke-width:0.43200001"  gorn="0.4.1.16.1.1" id="circle182"/>
                </g>
            </g>
            <g  gorn="0.4.1.17" id="g184">
                <title  id="title186">element:U$8</title>
                <g  gorn="0.4.1.17.1" id="g188">
                    <title  id="title190">package:MOUNTINGHOLE_2.5_PLATED</title>
                    <circle r="4.9606299" cx="43.823601" cy="6.5650401" style="fill:none;stroke:#ffffff;stroke-width:0.43200001"  gorn="0.4.1.17.1.1" id="circle192"/>
                </g>
            </g>
            <g  gorn="0.4.1.18" id="g194">
                <title  id="title196">element:U$11</title>
                <g  gorn="0.4.1.18.1" id="g198">
                    <title  id="title200">package:ADAFRUIT_2.5MM</title>
                </g>
            </g>
            <g  gorn="0.4.1.19" id="g202">
                <title  id="title204">element:U1</title>
                <g  gorn="0.4.1.19.1" id="g206">
                    <title  id="title208">package:SOT23-6</title>
                    <line y1="21.7701" style="stroke:#ffffff;stroke-width:0.36000001;stroke-linecap:round" x2="37.332298" x1="37.332298" y2="22.053499"  gorn="0.4.1.19.1.1" id="line210"/>
                    <line y1="22.053499" style="stroke:#ffffff;stroke-width:0.36000001;stroke-linecap:round" x2="41.867699" x1="37.332298" y2="22.053499"  gorn="0.4.1.19.1.2" id="line212"/>
                    <line y1="22.053499" style="stroke:#ffffff;stroke-width:0.36000001;stroke-linecap:round" x2="41.867699" x1="41.867699" y2="21.7701"  gorn="0.4.1.19.1.3" id="line214"/>
                    <line y1="19.785801" style="stroke:#ffffff;stroke-width:0.36000001;stroke-linecap:round" x2="41.867699" x1="41.867699" y2="19.218901"  gorn="0.4.1.19.1.4" id="line216"/>
                    <line y1="16.9512" style="stroke:#ffffff;stroke-width:0.36000001;stroke-linecap:round" x2="41.867699" x1="41.867699" y2="16.384199"  gorn="0.4.1.19.1.5" id="line218"/>
                    <line y1="14.4" style="stroke:#ffffff;stroke-width:0.36000001;stroke-linecap:round" x2="41.867699" x1="41.867699" y2="14.1165"  gorn="0.4.1.19.1.6" id="line220"/>
                    <line y1="14.1165" style="stroke:#ffffff;stroke-width:0.36000001;stroke-linecap:round" x2="37.332298" x1="41.867699" y2="14.1165"  gorn="0.4.1.19.1.7" id="line222"/>
                    <line y1="14.1165" style="stroke:#ffffff;stroke-width:0.36000001;stroke-linecap:round" x2="37.332298" x1="37.332298" y2="14.4"  gorn="0.4.1.19.1.8" id="line224"/>
                    <line y1="19.785801" style="stroke:#ffffff;stroke-width:0.36000001;stroke-linecap:round" x2="37.332298" x1="37.332298" y2="19.218901"  gorn="0.4.1.19.1.9" id="line226"/>
                    <line y1="16.9512" style="stroke:#ffffff;stroke-width:0.36000001;stroke-linecap:round" x2="37.332298" x1="37.332298" y2="16.384199"  gorn="0.4.1.19.1.10" id="line228"/>
                    <circle r="0.283465" cx="40.875599" cy="20.919701" style="fill:none;stroke:#ffffff;stroke-width:0.43200001"  gorn="0.4.1.19.1.11" id="circle230"/>
                </g>
            </g>
        </g>
        <g transform="matrix(0,1,-1,0,29.7922,0.992124)" >
            <g >
                <g  gorn="0.4.2.0.0" id="g232">
                    <rect y="13.2661" height="4.2519698" width="3.68504" style="fill:#9a916c;stroke:none;stroke-width:0" x="12.5574"  gorn="0.4.2.0.0.0" id="connector5pin"/>
                </g>
            </g>
        </g>
        <g transform="matrix(0,1,-1,0,35.178,6.37795)" >
            <g >
                <g  gorn="0.4.3.0.0" id="g235">
                    <rect y="18.652" height="4.2519698" width="3.68504" style="fill:#9a916c;stroke:none;stroke-width:0" x="12.5574"  gorn="0.4.3.0.0.0" id="connector6pin"/>
                </g>
            </g>
        </g>
        <rect y="27.462" height="2.83465" rx="1.41732" width="2.83465" style="fill:#9a916c;stroke:none;stroke-width:0" ry="1.41732" x="46.250099"  gorn="0.4.4" id="connector7pin"/>
        <rect y="8.02771" height="2.83465" rx="1.41732" width="2.83465" style="fill:#9a916c;stroke:none;stroke-width:0" ry="1.41732" x="14.4227"  gorn="0.4.5" id="connector8pin"/>
        <circle r="1.96866" cx="7.5118299" connectorname="VDD" cy="33.924999" style="fill:none;stroke:#9a916c;stroke-width:1.10267997"  gorn="0.4.6" id="connector9pin"/>
        <circle r="1.96866" cx="14.7118" connectorname="GND" cy="33.924999" style="fill:none;stroke:#9a916c;stroke-width:1.10267997"  gorn="0.4.7" id="connector10pin"/>
        <circle r="1.96866" cx="21.9118" connectorname="SCL" cy="33.924999" style="fill:none;stroke:#9a916c;stroke-width:1.10267997"  gorn="0.4.8" id="connector11pin"/>
        <circle r="1.96866" cx="29.111799" connectorname="SDA" cy="33.924999" style="fill:none;stroke:#9a916c;stroke-width:1.10267997"  gorn="0.4.9" id="connector12pin"/>
        <circle r="1.96866" cx="36.311798" connectorname="A0" cy="33.924999" style="fill:none;stroke:#9a916c;stroke-width:1.10267997"  gorn="0.4.10" id="connector13pin"/>
        <circle r="1.96866" cx="43.511799" connectorname="VOUT" cy="33.924999" style="fill:none;stroke:#9a916c;stroke-width:1.10267997"  gorn="0.4.11" id="connector14pin"/>
        <g transform="matrix(0,1,-1,0,22.5922,8.19216)" >
            <g >
                <g  gorn="0.4.12.0.0" id="g246">
                    <rect y="13.2661" height="4.2519698" width="3.68504" style="fill:#9a916c;stroke:none;stroke-width:0" x="5.35748"  gorn="0.4.12.0.0.0" id="connector15pin"/>
                </g>
            </g>
        </g>
        <g transform="matrix(0,1,-1,0,27.978,13.578)" >
            <g >
                <g  gorn="0.4.13.0.0" id="g249">
                    <rect y="18.652" height="4.2519698" width="3.68504" style="fill:#9a916c;stroke:none;stroke-width:0" x="5.35748"  gorn="0.4.13.0.0.0" id="connector16pin"/>
                </g>
            </g>
        </g>
        <g transform="matrix(0,-1,1,0,0.822046,42.378)" >
            <g >
                <g  gorn="0.4.14.0.0" id="g252">
                    <rect y="18.652" height="4.2519698" width="3.68504" style="fill:#9a916c;stroke:none;stroke-width:0" x="19.757401"  gorn="0.4.14.0.0.0" id="connector17pin"/>
                </g>
            </g>
        </g>
        <g transform="matrix(0,-1,1,0,6.20788,36.9922)" >
            <g >
                <g  gorn="0.4.15.0.0" id="g255">
                    <rect y="13.2661" height="4.2519698" width="3.68504" style="fill:#9a916c;stroke:none;stroke-width:0" x="19.757401"  gorn="0.4.15.0.0.0" id="connector18pin"/>
                </g>
            </g>
        </g>
        <g transform="matrix(0,-1,1,0,8.74202,50.298)" >
            <g >
                <g  gorn="0.4.16.0.0" id="g258">
                    <rect y="18.652" height="4.2519698" width="3.68504" style="fill:#9a916c;stroke:none;stroke-width:0" x="27.677401"  gorn="0.4.16.0.0.0" id="connector19pin"/>
                </g>
            </g>
        </g>
        <g transform="matrix(0,-1,1,0,14.1278,44.9122)" >
            <g >
                <g  gorn="0.4.17.0.0" id="g261">
                    <rect y="13.2661" height="4.2519698" width="3.68504" style="fill:#9a916c;stroke:none;stroke-width:0" x="27.677401"  gorn="0.4.17.0.0.0" id="connector20pin"/>
                </g>
            </g>
        </g>
        <circle r="4.0393701" cx="7.1999998" connectorname="P$1" cy="6.5650401" style="fill:none;stroke:#9a916c;stroke-width:0.99212402"  gorn="0.4.18" id="connector21pin"/>
        <circle r="4.0393701" cx="43.823601" connectorname="P$1" cy="6.5650401" style="fill:none;stroke:#9a916c;stroke-width:0.99212402"  gorn="0.4.19" id="connector22pin"/>
        <g transform="matrix(0,-1,1,0,22.5071,64.063)" >
            <g >
                <g  gorn="0.4.20.0.0" id="g266">
                    <rect y="19.0772" height="3.4015801" width="1.55905" style="fill:#9a916c;stroke:none;stroke-width:0" x="42.505501"  gorn="0.4.20.0.0.0" id="connector23pin"/>
                </g>
            </g>
        </g>
        <g transform="matrix(0,-1,1,0,25.2,61.3701)" >
            <g >
                <g  gorn="0.4.21.0.0" id="g269">
                    <rect y="16.384199" height="3.4015801" width="1.55905" style="fill:#9a916c;stroke:none;stroke-width:0" x="42.505501"  gorn="0.4.21.0.0.0" id="connector24pin"/>
                </g>
            </g>
        </g>
        <g transform="matrix(0,-1,1,0,27.8929,58.6772)" >
            <g >
                <g  gorn="0.4.22.0.0" id="g272">
                    <rect y="13.6913" height="3.4015801" width="1.55905" style="fill:#9a916c;stroke:none;stroke-width:0" x="42.505501"  gorn="0.4.22.0.0.0" id="connector25pin"/>
                </g>
            </g>
        </g>
        <g transform="matrix(0,-1,1,0,20.5228,51.3071)" >
            <g >
                <g  gorn="0.4.23.0.0" id="g275">
                    <rect y="13.6913" height="3.4015801" width="1.55905" style="fill:#9a916c;stroke:none;stroke-width:0" x="35.135399"  gorn="0.4.23.0.0.0" id="connector26pin"/>
                </g>
            </g>
        </g>
        <g transform="matrix(0,-1,1,0,17.8299,54)" >
            <g >
                <g  gorn="0.4.24.0.0" id="g278">
                    <rect y="16.384199" height="3.4015801" width="1.55905" style="fill:#9a916c;stroke:none;stroke-width:0" x="35.135399"  gorn="0.4.24.0.0.0" id="connector27pin"/>
                </g>
            </g>
        </g>
        <g transform="matrix(0,-1,1,0,15.137,56.6929)" >
            <g >
                <g  gorn="0.4.25.0.0" id="g281">
                    <rect y="19.0772" height="3.4015801" width="1.55905" style="fill:#9a916c;stroke:none;stroke-width:0" x="35.135399"  gorn="0.4.25.0.0.0" id="connector28pin"/>
                </g>
            </g>
        </g>
    </g>
    <g transform="translate(11.325186,16.447434)" >
        <g >
            <g  gorn="0.5.0.0" id="0805-cap">
                <g transform="matrix(0,1,-1,0,4.606,-1.063)" >
                    <g >
                        <g  gorn="0.5.0.0.0.0.0" id="g285">
                            <path d="m 5.386,3.543 -5.103,0 C 0.127,3.543 0,3.416 0,3.26 L 0,0.283 C 0,0.127 0.127,0 0.283,0 l 5.102,0 c 0.157,0 0.283,0.127 0.283,0.283 l 0,2.977 C 5.669,3.416 5.542,3.543 5.386,3.543 Z" style="fill:#dcdcdc"  gorn="0.5.0.0.0.0.0.0" id="path287"/>
                            <rect y="0" height="3.543" width="3.543" style="fill:#6e554b" x="1.063"  gorn="0.5.0.0.0.0.0.1" id="rect289"/>
                        </g>
                    </g>
                </g>
            </g>
        </g>
    </g>
    <g transform="translate(4.293333,16.369647)" >
        <g >
            <g  gorn="0.6.0.0" id="0805-res">
                <g transform="matrix(0,1,-1,0,4.606,-1.063)" >
                    <g >
                        <g  gorn="0.6.0.0.0.0.0" id="g292">
                            <path d="m 5.386,3.543 -5.103,0 C 0.127,3.543 0,3.416 0,3.26 L 0,0.283 C 0,0.127 0.127,0 0.283,0 l 5.102,0 c 0.157,0 0.283,0.127 0.283,0.283 l 0,2.977 C 5.669,3.416 5.542,3.543 5.386,3.543 Z" style="fill:#dcdcdc"  gorn="0.6.0.0.0.0.0.0" id="path294"/>
                            <rect y="0" height="3.543" width="3.543" style="fill:#333333" x="1.063"  gorn="0.6.0.0.0.0.0.1" id="rect296"/>
                        </g>
                    </g>
                </g>
            </g>
        </g>
    </g>
    <g transform="translate(18.6695,16.257453)" >
        <g >
            <g  gorn="0.7.0.0" id="g298">
                <g transform="matrix(0,-1,1,0,1.063,4.606)" >
                    <g >
                        <g  gorn="0.7.0.0.0.0.0" id="g300">
                            <path d="m 5.386,3.543 -5.103,0 C 0.127,3.543 0,3.416 0,3.26 L 0,0.283 C 0,0.127 0.127,0 0.283,0 l 5.102,0 c 0.157,0 0.283,0.127 0.283,0.283 l 0,2.977 C 5.669,3.416 5.542,3.543 5.386,3.543 Z" style="fill:#dcdcdc"  gorn="0.7.0.0.0.0.0.0" id="path302"/>
                            <rect y="0" height="3.543" width="3.543" style="fill:#333333" x="1.063"  gorn="0.7.0.0.0.0.0.1" id="rect304"/>
                        </g>
                    </g>
                </g>
            </g>
        </g>
    </g>
    <g transform="translate(26.5895,16.257453)" >
        <g >
            <g  gorn="0.8.0.0" id="g306">
                <g transform="matrix(0,-1,1,0,1.063,4.606)" >
                    <g >
                        <g  gorn="0.8.0.0.0.0.0" id="g308">
                            <path d="m 5.386,3.543 -5.103,0 C 0.127,3.543 0,3.416 0,3.26 L 0,0.283 C 0,0.127 0.127,0 0.283,0 l 5.102,0 c 0.157,0 0.283,0.127 0.283,0.283 l 0,2.977 C 5.669,3.416 5.542,3.543 5.386,3.543 Z" style="fill:#dcdcdc"  gorn="0.8.0.0.0.0.0.0" id="path310"/>
                            <rect y="0" height="3.543" width="3.543" style="fill:#333333" x="1.063"  gorn="0.8.0.0.0.0.0.1" id="rect312"/>
                        </g>
                    </g>
                </g>
            </g>
        </g>
    </g>
    <g transform="translate(29.1196,4.53555)" >
        <g >
            <g  gorn="0.9.0.0" id="adafruit_2.5mm">
                <path d="M 9.747,3.082 C 9.724,2.94 9.647,2.899 9.461,2.839 9.31903,2.794 8.37202,2.492 8.37202,2.492 c 0,0 -0.66,-0.249 -1.15,0.103 -0.066,0.048 -0.134,0.102 -0.203,0.16 0.058,-0.069 0.112,-0.137 0.159,-0.203 0.352,-0.49 0.101,-1.15 0.101,-1.15 0,0 -0.30302,-0.947 -0.34902,-1.089 C 6.87,0.127 6.83,0.05 6.687,0.028 6.545,0.005 6.483,0.066 6.369,0.225 6.282,0.345 5.702,1.153001 5.702,1.153001 5.702,1.153001 5.261,1.704 5.445,2.279 5.47,2.356 5.5,2.438 5.534,2.521 5.486,2.445 5.438,2.372 5.39,2.307 5.032,1.821 4.328,1.855 4.328,1.855 c 0,0 -0.995,-0.004 -1.143,-0.004 -0.195,0 -0.281,0.014 -0.347,0.143 -0.065,0.128 -0.027,0.206 0.089,0.364 0.088,0.12 0.677,0.921002 0.677,0.921002 0,0 0.388,0.59 0.991001,0.592 0.081,0 0.168,-0.003 0.257,-0.01 C 4.765,3.883 4.681,3.907 4.604,3.932 4.031,4.122 3.845998,4.802998 3.845998,4.802998 c 0,0 -0.31,0.943999 -0.357,1.085 C 3.428,6.074 3.416,6.16 3.518,6.262 3.62,6.364 3.706,6.352 3.892,6.29 4.033,6.244 4.977,5.931 4.977,5.931 c 0,0 0.681,-0.187 0.868997,-0.760003 0.025,-0.077 0.049,-0.16 0.07,-0.247 C 5.91,5.014 5.907,5.1 5.907,5.181 c 0.004,0.603 0.594,0.99 0.594,0.99 0,0 0.802001,0.588 0.922003,0.675 C 7.58102,6.962 7.659,7 7.78802,6.935 7.91597,6.869 7.93102,6.783 7.93001,6.588 7.929,6.439 7.92403,5.445 7.92403,5.445 7.92403,5.445 7.95701,4.74 7.47,4.383 7.40498,4.335 7.33198,4.287 7.25602,4.24 c 0.083,0.034 0.165,0.064 0.242,0.088 0.575,0.183 1.125,-0.259 1.125,-0.259 0,0 0.80696,-0.5809998 0.92699,-0.6679998 C 9.70898,3.286 9.76903,3.224 9.747,3.082 Z M 6.322,2.35 C 6.43,2.367 6.484,2.598 6.442,2.865 6.4,3.132 6.278,3.335 6.169,3.318 6.061,3.301 6.007,3.07 6.049,2.803 6.091,2.535 6.213,2.332 6.322,2.35 Z M 4.933,3.059 C 4.983,2.961 5.219,2.981 5.46,3.104 5.701,3.227 5.857,3.406 5.807,3.503 5.757,3.601 5.521,3.581 5.28,3.458 5.038,3.335 4.883,3.157 4.933,3.059 Z M 5.665,4.393 C 5.474,4.584 5.256,4.677 5.178,4.599 5.101,4.521 5.193,4.303 5.384,4.112 5.575,3.92 5.793,3.827 5.871,3.905 5.949,3.983 5.857,4.201 5.665,4.393 Z M 6.719,4.842 C 6.6210001,4.892 6.442,4.737 6.319,4.496 6.196,4.254 6.175,4.018 6.273,3.968 6.371,3.918 6.55,4.073 6.673,4.314 6.796,4.556 6.817,4.792 6.719,4.842 Z M 6.973,3.725 C 6.706,3.767 6.475,3.714 6.457,3.606 6.44,3.497 6.643,3.375 6.91,3.332 7.177,3.289 7.408,3.343 7.425,3.451 7.443,3.56 7.24003,3.682 6.973,3.725 Z" style="fill:#dcdcdc"  gorn="0.9.0.0.0" id="path315"/>
            </g>
        </g>
    </g>
    <g transform="translate(35.49,14.225641)" >
        <g >
            <g  gorn="0.10.0.0" id="sot23-6">
                <g transform="matrix(0,-1,1,0,0.282996,7.93706)" >
                    <g >
                        <g  gorn="0.10.0.0.0.0.0" id="g318">
                            <metadata  id="metadata17">
                                <rdf:RDF xmlns:rdf="http://www.w3.org/1999/02/22-rdf-syntax-ns#">
                                    <cc:Work xmlns:cc="http://creativecommons.org/ns#" xmlns:rdf="http://www.w3.org/1999/02/22-rdf-syntax-ns#" rdf:about="">
                                        <dc:format xmlns:dc="http://purl.org/dc/elements/1.1/">image/svg+xml</dc:format>
                                        <dc:type xmlns:rdf="http://www.w3.org/1999/02/22-rdf-syntax-ns#" xmlns:dc="http://purl.org/dc/elements/1.1/" rdf:resource="http://purl.org/dc/dcmitype/StillImage"/>
                                        <dc:title xmlns:dc="http://purl.org/dc/elements/1.1/"/>
                                    </cc:Work>
                                </rdf:RDF>
                            </metadata>
                            <defs  id="defs15"/>
                            <rect y="0" height="7.6540298" width="1.1339999" style="fill:#dcdcdc" x="0.850003"  gorn="0.10.0.0.0.0.0.2" id="rect5"/>
                            <rect y="0" height="7.6540298" width="1.1339999" style="fill:#dcdcdc" x="6.2360001"  gorn="0.10.0.0.0.0.0.3" id="rect7"/>
                            <rect y="0.0039998102" height="7.6500001" width="1.1339999" style="fill:#dcdcdc" x="3.543"  gorn="0.10.0.0.0.0.0.4" id="rect9"/>
                            <rect y="1.559" height="4.5349998" width="8.2200203" style="fill:#303030" x="0"  gorn="0.10.0.0.0.0.0.5" id="rect11"/>
                        </g>
                    </g>
                </g>
            </g>
        </g>
    </g>
</svg>
