<?xml version='1.0' encoding='UTF-8' standalone='no'?>
<!-- Created with Fritzing (http://www.fritzing.org/) -->
<svg xmlns="http://www.w3.org/2000/svg" y="0in" width="0.8in" id="svg4990" gorn="0" height="0.7in" version="1.2" viewBox="0 0 57.6 50.4" x="0in" >
    <desc>
        <referenceFile>Adafruit MMA8451_breadboard.svg</referenceFile>
    </desc>
    <metadata id="metadata5543" />
    <defs id="defs5541" />
    <desc id="desc4992" >Fritzing breadboard generated by brd2svg</desc>
    <g id="icon" gorn="0.3" >
        <path id="path4996" gorn="0.3.0" d="M 0,43.2 0,7.2 A 7.2,7.2 0 0 1 7.2,0 l 43.2,0 a 7.2,7.2 0 0 1 7.2,7.2 l 0,36 a 7.2,7.2 0 0 1 -7.2,7.2 l -43.2,0 A 7.2,7.2 0 0 1 0,43.2 m 52.5827,0 a 1.417325,1.417325 0 1 0 2.83465,0 1.417325,1.417325 0 1 0 -2.83465,0 z m -7.2,0 a 1.417325,1.417325 0 1 0 2.83465,0 1.417325,1.417325 0 1 0 -2.83465,0 z m -7.2,0 a 1.417325,1.417325 0 1 0 2.83465,0 1.417325,1.417325 0 1 0 -2.83465,0 z m -7.2,0 a 1.417325,1.417325 0 1 0 2.83465,0 1.417325,1.417325 0 1 0 -2.83465,0 z m -7.2,0 a 1.417325,1.417325 0 1 0 2.83465,0 1.417325,1.417325 0 1 0 -2.83465,0 z m -7.2,0 a 1.417325,1.417325 0 1 0 2.83465,0 1.417325,1.417325 0 1 0 -2.83465,0 z m -7.20002,0 a 1.417325,1.417325 0 1 0 2.83465,0 1.417325,1.417325 0 1 0 -2.83465,0 z m -7.2,0 a 1.417325,1.417325 0 1 0 2.83465,0 1.417325,1.417325 0 1 0 -2.83465,0 z m 1.47401,-36 a 3.54331,3.54331 0 1 0 7.08661,0 3.54331,3.54331 0 1 0 -7.08661,0 z m 43.20001,0 a 3.54331,3.54331 0 1 0 7.08661,0 3.54331,3.54331 0 1 0 -7.08661,0 z"  style="fill:#014cb1;stroke:none;stroke-width:0"/>
        <g id="g4998" gorn="0.3.1" >
            <title id="title5000" >layer 21</title>
            <line y2="12.96" id="line5002" y1="7.9200001" x1="40.896" gorn="0.3.1.1"  style="stroke:#ffffff;stroke-width:0.72000003;stroke-linecap:round" x2="40.896"/>
            <line y2="11.52" id="line5004" y1="12.96" x1="40.896" gorn="0.3.1.2"  style="stroke:#ffffff;stroke-width:0.72000003;stroke-linecap:round" x2="42.335999"/>
            <line y2="11.52" id="line5006" y1="12.96" x1="40.896" gorn="0.3.1.3"  style="stroke:#ffffff;stroke-width:0.72000003;stroke-linecap:round" x2="39.456001"/>
            <line y2="5.7600002" id="line5008" y1="5.7600002" x1="38.736" gorn="0.3.1.4"  style="stroke:#ffffff;stroke-width:0.72000003;stroke-linecap:round" x2="33.695999"/>
            <line y2="5.7600002" id="line5010" y1="7.1999998" x1="35.136002" gorn="0.3.1.5"  style="stroke:#ffffff;stroke-width:0.72000003;stroke-linecap:round" x2="33.695999"/>
            <line y2="4.3200002" id="line5012" y1="5.7600002" x1="33.695999" gorn="0.3.1.6"  style="stroke:#ffffff;stroke-width:0.72000003;stroke-linecap:round" x2="35.136002"/>
            <circle r="0.72000003" id="circle5014" gorn="0.3.1.7"  cy="5.7600002" cx="40.896" style="fill:none;stroke:#ffffff;stroke-width:0.72000003"/>
            <circle r="2.0364599" id="circle5016" gorn="0.3.1.8"  cy="5.7600002" cx="40.896" style="fill:none;stroke:#ffffff;stroke-width:0.72000003"/>
            <g id="g5018" gorn="0.3.1.9" >
                <title id="title5020" >text:SDA</title>
                <text y="40.5504" id="text5022" gorn="0.3.1.9.1" x="46.799999"  style="font-size:3.34080005px;font-family:OCRA;text-anchor:middle;fill:#ffffff;stroke:none;stroke-width:0" font-size="3.3408">SDA</text>
            </g>
            <g id="g5024" gorn="0.3.1.10" >
                <title id="title5026" >text:SCL</title>
                <text y="49.190399" id="text5028" gorn="0.3.1.10.1" x="39.599998"  style="font-size:3.34080005px;font-family:OCRA;text-anchor:middle;fill:#ffffff;stroke:none;stroke-width:0" font-size="3.3408">SCL</text>
            </g>
            <g id="g5030" gorn="0.3.1.11" >
                <title id="title5032" >text:A</title>
                <text y="49.190399" id="text5034" gorn="0.3.1.11.1" x="54"  style="font-size:3.34080005px;font-family:OCRA;text-anchor:middle;fill:#ffffff;stroke:none;stroke-width:0" font-size="3.3408">A</text>
            </g>
            <g id="g5036" gorn="0.3.1.12" >
                <title id="title5038" >text:I2</title>
                <text y="49.190399" id="text5040" gorn="0.3.1.12.1" x="25.92"  style="font-size:3.34080005px;font-family:OCRA;text-anchor:middle;fill:#ffffff;stroke:none;stroke-width:0" font-size="3.3408">I2</text>
            </g>
            <g id="g5042" gorn="0.3.1.13" >
                <title id="title5044" >text:I1</title>
                <text y="40.5504" id="text5046" gorn="0.3.1.13.1" x="33.119999"  style="font-size:3.34080005px;font-family:OCRA;text-anchor:middle;fill:#ffffff;stroke:none;stroke-width:0" font-size="3.3408">I1</text>
            </g>
            <g id="g5048" gorn="0.3.1.14" >
                <title id="title5050" >text:GND</title>
                <text y="49.190399" id="text5052" gorn="0.3.1.14.1" x="10.8"  style="font-size:3.34080005px;font-family:OCRA;text-anchor:middle;fill:#ffffff;stroke:none;stroke-width:0" font-size="3.3408">GND</text>
            </g>
            <g id="g5054" gorn="0.3.1.15" >
                <title id="title5056" >text:3Vo</title>
                <text y="40.5504" id="text5058" gorn="0.3.1.15.1" x="19.08"  style="font-size:3.34080005px;font-family:OCRA;text-anchor:middle;fill:#ffffff;stroke:none;stroke-width:0" font-size="3.3408">3Vo</text>
            </g>
            <g id="g5060" gorn="0.3.1.16" >
                <title id="title5062" >text:VIN</title>
                <g transform="translate(5.2704,36)" >
                    <g id="g5064" gorn="0.3.1.16.1.0" >
                        <g transform="matrix(0,-1,1,0,0,0)" >
                            <g id="g5066" gorn="0.3.1.16.1.0.0.0" >
                                <text y="0" id="text5068" gorn="0.3.1.16.1.0.0.0.0" x="0"  style="font-size:3.34080005px;font-family:OCRA;text-anchor:middle;fill:#ffffff;stroke:none;stroke-width:0" font-size="3.3408">VIN</text>
                            </g>
                        </g>
                    </g>
                </g>
            </g>
            <g id="g5070" gorn="0.3.1.17" >
                <title id="title5072" >text:MMA8451</title>
                <text y="11.808" id="text5074" gorn="0.3.1.17.1" x="26.639999"  style="font-size:4.17600012px;font-family:OCRA;text-anchor:middle;fill:#ffffff;stroke:none;stroke-width:0" font-size="4.176">MMA8451</text>
            </g>
            <g id="g5076" gorn="0.3.1.18" >
                <title id="title5078" >text:Z</title>
                <text y="4.4208002" id="text5080" gorn="0.3.1.18.1" x="45.576"  style="font-size:3.34080005px;font-family:OCRA;text-anchor:end;fill:#ffffff;stroke:none;stroke-width:0" font-size="3.3408">Z</text>
            </g>
            <g id="g5082" gorn="0.3.1.19" >
                <title id="title5084" >text:X</title>
                <text y="4.7807999" id="text5086" gorn="0.3.1.19.1" x="38.736"  style="font-size:3.34080005px;font-family:OCRA;text-anchor:end;fill:#ffffff;stroke:none;stroke-width:0" font-size="3.3408">X</text>
            </g>
            <g id="g5088" gorn="0.3.1.20" >
                <title id="title5090" >text:Y</title>
                <text y="11.6208" id="text5092" gorn="0.3.1.20.1" x="44.495998"  style="font-size:3.34080005px;font-family:OCRA;text-anchor:end;fill:#ffffff;stroke:none;stroke-width:0" font-size="3.3408">Y</text>
            </g>
            <g id="g5094" gorn="0.3.1.21" >
                <title id="title5096" >element:C1</title>
                <g id="g5098" gorn="0.3.1.21.1" >
                    <title id="title5100" >package:0805-NO</title>
                    <line y2="15.84" id="line5102" y1="12.96" x1="25.200001" gorn="0.3.1.21.1.1"  style="stroke:#ffffff;stroke-width:0.86400002;stroke-linecap:round" x2="25.200001"/>
                </g>
            </g>
            <g id="g5104" gorn="0.3.1.22" >
                <title id="title5106" >element:C2</title>
                <g id="g5108" gorn="0.3.1.22.1" >
                    <title id="title5110" >package:0805-NO</title>
                    <line y2="38.880001" id="line5112" y1="36" x1="10.08" gorn="0.3.1.22.1.1"  style="stroke:#ffffff;stroke-width:0.86400002;stroke-linecap:round" x2="10.08"/>
                </g>
            </g>
            <g id="g5114" gorn="0.3.1.23" >
                <title id="title5116" >element:C3</title>
                <g id="g5118" gorn="0.3.1.23.1" >
                    <title id="title5120" >package:0805-NO</title>
                    <line y2="18" id="line5122" y1="15.12" x1="9.3599997" gorn="0.3.1.23.1.1"  style="stroke:#ffffff;stroke-width:0.86400002;stroke-linecap:round" x2="9.3599997"/>
                </g>
            </g>
            <g id="g5124" gorn="0.3.1.24" >
                <title id="title5126" >element:C4</title>
                <g id="g5128" gorn="0.3.1.24.1" >
                    <title id="title5130" >package:0805_10MGAP</title>
                    <line y2="20.16" id="line5132" y1="20.16" x1="16.200001" gorn="0.3.1.24.1.1"  style="stroke:#ffffff;stroke-width:0.86400002;stroke-linecap:round" x2="19.08"/>
                </g>
            </g>
            <g id="g5134" gorn="0.3.1.25" >
                <title id="title5136" >element:FID1</title>
                <g id="g5138" gorn="0.3.1.25.1" >
                    <title id="title5140" >package:FIDUCIAL_1MM</title>
                </g>
            </g>
            <g id="g5142" gorn="0.3.1.26" >
                <title id="title5144" >element:FID2</title>
                <g id="g5146" gorn="0.3.1.26.1" >
                    <title id="title5148" >package:FIDUCIAL_1MM</title>
                </g>
            </g>
            <g id="g5150" gorn="0.3.1.27" >
                <title id="title5152" >element:JP1</title>
                <g id="g5154" gorn="0.3.1.27.1" >
                    <title id="title5156" >package:1X08_ROUND_70</title>
                </g>
            </g>
            <g id="g5158" gorn="0.3.1.28" >
                <title id="title5160" >element:Q1</title>
                <g id="g5162" gorn="0.3.1.28.1" >
                    <title id="title5164" >package:SOT23-WIDE</title>
                    <line y2="14.6993" id="line5166" y1="14.6993" x1="42.790699" gorn="0.3.1.28.1.1"  style="stroke:#ffffff;stroke-width:0.57599998;stroke-linecap:round" x2="46.512001"/>
                    <line y2="17.4172" id="line5168" y1="14.6993" x1="46.512001" gorn="0.3.1.28.1.2"  style="stroke:#ffffff;stroke-width:0.57599998;stroke-linecap:round" x2="46.512001"/>
                    <line y2="24.1807" id="line5170" y1="24.1807" x1="46.512001" gorn="0.3.1.28.1.3"  style="stroke:#ffffff;stroke-width:0.57599998;stroke-linecap:round" x2="42.790699"/>
                    <line y2="24.1807" id="line5172" y1="21.462799" x1="46.512001" gorn="0.3.1.28.1.4"  style="stroke:#ffffff;stroke-width:0.57599998;stroke-linecap:round" x2="46.512001"/>
                    <line y2="18.769899" id="line5174" y1="20.0704" x1="42.768002" gorn="0.3.1.28.1.5"  style="stroke:#ffffff;stroke-width:0.57599998;stroke-linecap:round" x2="42.768002"/>
                </g>
            </g>
            <g id="g5176" gorn="0.3.1.29" >
                <title id="title5178" >element:Q2</title>
                <g id="g5180" gorn="0.3.1.29.1" >
                    <title id="title5182" >package:SOT23-WIDE</title>
                    <line y2="25.4993" id="line5184" y1="25.4993" x1="42.790699" gorn="0.3.1.29.1.1"  style="stroke:#ffffff;stroke-width:0.57599998;stroke-linecap:round" x2="46.512001"/>
                    <line y2="28.217199" id="line5186" y1="25.4993" x1="46.512001" gorn="0.3.1.29.1.2"  style="stroke:#ffffff;stroke-width:0.57599998;stroke-linecap:round" x2="46.512001"/>
                    <line y2="34.980701" id="line5188" y1="34.980701" x1="46.512001" gorn="0.3.1.29.1.3"  style="stroke:#ffffff;stroke-width:0.57599998;stroke-linecap:round" x2="42.790699"/>
                    <line y2="34.980701" id="line5190" y1="32.262798" x1="46.512001" gorn="0.3.1.29.1.4"  style="stroke:#ffffff;stroke-width:0.57599998;stroke-linecap:round" x2="46.512001"/>
                    <line y2="29.569901" id="line5192" y1="30.870399" x1="42.768002" gorn="0.3.1.29.1.5"  style="stroke:#ffffff;stroke-width:0.57599998;stroke-linecap:round" x2="42.768002"/>
                </g>
            </g>
            <g id="g5194" gorn="0.3.1.30" >
                <title id="title5196" >element:R1</title>
                <g id="g5198" gorn="0.3.1.30.1" >
                    <title id="title5200" >package:0805-NO</title>
                    <line y2="20.16" id="line5202" y1="20.16" x1="54" gorn="0.3.1.30.1.1"  style="stroke:#ffffff;stroke-width:0.86400002;stroke-linecap:round" x2="51.119999"/>
                </g>
            </g>
            <g id="g5204" gorn="0.3.1.31" >
                <title id="title5206" >element:R2</title>
                <g id="g5208" gorn="0.3.1.31.1" >
                    <title id="title5210" >package:0805-NO</title>
                    <line y2="32.400002" id="line5212" y1="32.400002" x1="54" gorn="0.3.1.31.1.1"  style="stroke:#ffffff;stroke-width:0.86400002;stroke-linecap:round" x2="51.119999"/>
                </g>
            </g>
            <g id="g5214" gorn="0.3.1.32" >
                <title id="title5216" >element:R3</title>
                <g id="g5218" gorn="0.3.1.32.1" >
                    <title id="title5220" >package:0805-NO</title>
                    <line y2="19.440001" id="line5222" y1="19.440001" x1="35.639999" gorn="0.3.1.32.1.1"  style="stroke:#ffffff;stroke-width:0.86400002;stroke-linecap:round" x2="38.52"/>
                </g>
            </g>
            <g id="g5224" gorn="0.3.1.33" >
                <title id="title5226" >element:R4</title>
                <g id="g5228" gorn="0.3.1.33.1" >
                    <title id="title5230" >package:0805-NO</title>
                    <line y2="30.24" id="line5232" y1="30.24" x1="38.52" gorn="0.3.1.33.1.1"  style="stroke:#ffffff;stroke-width:0.86400002;stroke-linecap:round" x2="35.639999"/>
                </g>
            </g>
            <g id="g5234" gorn="0.3.1.34" >
                <title id="title5236" >element:R5</title>
                <g id="g5238" gorn="0.3.1.34.1" >
                    <title id="title5240" >package:0805-NO</title>
                    <line y2="33.119999" id="line5242" y1="36" x1="20.879999" gorn="0.3.1.34.1.1"  style="stroke:#ffffff;stroke-width:0.86400002;stroke-linecap:round" x2="20.879999"/>
                </g>
            </g>
            <g id="g5244" gorn="0.3.1.35" >
                <title id="title5246" >element:U$3</title>
                <g id="g5248" gorn="0.3.1.35.1" >
                    <title id="title5250" >package:MOUNTINGHOLE_2.5_PLATED</title>
                    <circle r="5.6692901" id="circle5252" gorn="0.3.1.35.1.1"  cy="7.1999998" cx="7.1999998" style="fill:none;stroke:#ffffff;stroke-width:0.57599998"/>
                </g>
            </g>
            <g id="g5254" gorn="0.3.1.36" >
                <title id="title5256" >element:U$6</title>
                <g id="g5258" gorn="0.3.1.36.1" >
                    <title id="title5260" >package:MOUNTINGHOLE_2.5_PLATED</title>
                    <circle r="5.6692901" id="circle5262" gorn="0.3.1.36.1.1"  cy="7.1999998" cx="50.400002" style="fill:none;stroke:#ffffff;stroke-width:0.57599998"/>
                </g>
            </g>
            <g id="g5264" gorn="0.3.1.37" >
                <title id="title5266" >element:U$10</title>
                <g id="g5268" gorn="0.3.1.37.1" >
                    <title id="title5270" >package:ADAFRUIT_2.5MM</title>
                </g>
            </g>
            <g id="g5272" gorn="0.3.1.38" >
                <title id="title5274" >element:U1</title>
                <g id="g5276" gorn="0.3.1.38.1" >
                    <title id="title5278" >package:MMA845X_QFN_16MM</title>
                    <line y2="19.2246" id="line5280" y1="19.2246" x1="25.8123" gorn="0.3.1.38.1.1"  style="stroke:#ffffff;stroke-width:0.36000001;stroke-linecap:round" x2="23.5446"/>
                    <line y2="20.075001" id="line5282" y1="19.2246" x1="23.5446" gorn="0.3.1.38.1.2"  style="stroke:#ffffff;stroke-width:0.36000001;stroke-linecap:round" x2="23.5446"/>
                    <line y2="19.2246" id="line5284" y1="19.2246" x1="30.3477" gorn="0.3.1.38.1.3"  style="stroke:#ffffff;stroke-width:0.36000001;stroke-linecap:round" x2="32.615398"/>
                    <line y2="19.7915" id="line5286" y1="19.2246" x1="32.615398" gorn="0.3.1.38.1.4"  style="stroke:#ffffff;stroke-width:0.36000001;stroke-linecap:round" x2="32.615398"/>
                    <line y2="20.075001" id="line5288" y1="19.7915" x1="32.615398" gorn="0.3.1.38.1.5"  style="stroke:#ffffff;stroke-width:0.36000001;stroke-linecap:round" x2="32.615398"/>
                    <line y2="28.295401" id="line5290" y1="28.295401" x1="25.8123" gorn="0.3.1.38.1.6"  style="stroke:#ffffff;stroke-width:0.36000001;stroke-linecap:round" x2="23.5446"/>
                    <line y2="27.445" id="line5292" y1="28.295401" x1="23.5446" gorn="0.3.1.38.1.7"  style="stroke:#ffffff;stroke-width:0.36000001;stroke-linecap:round" x2="23.5446"/>
                    <line y2="28.295401" id="line5294" y1="28.295401" x1="30.3477" gorn="0.3.1.38.1.8"  style="stroke:#ffffff;stroke-width:0.36000001;stroke-linecap:round" x2="32.615398"/>
                    <line y2="27.445" id="line5296" y1="28.295401" x1="32.615398" gorn="0.3.1.38.1.9"  style="stroke:#ffffff;stroke-width:0.36000001;stroke-linecap:round" x2="32.615398"/>
                    <circle r="0.40087199" id="circle5298" gorn="0.3.1.38.1.10"  cy="20.9254" cx="21.8438" style="fill:none;stroke:#ffffff;stroke-width:1.15199995"/>
                </g>
            </g>
            <g id="g5300" gorn="0.3.1.39" >
                <title id="title5302" >element:U2</title>
                <g id="g5304" gorn="0.3.1.39.1" >
                    <title id="title5306" >package:SOT23-5</title>
                    <line y2="29.2677" id="line5308" y1="24.7323" x1="4.6828399" gorn="0.3.1.39.1.1"  style="stroke:#ffffff;stroke-width:0.57599998;stroke-linecap:round" x2="4.6828399"/>
                    <line y2="29.2677" id="line5310" y1="24.7323" x1="14.0372" gorn="0.3.1.39.1.2"  style="stroke:#ffffff;stroke-width:0.57599998;stroke-linecap:round" x2="14.0372"/>
                    <line y2="24.0236" id="line5312" y1="24.0236" x1="8.22614" gorn="0.3.1.39.1.3"  style="stroke:#ffffff;stroke-width:0.57599998;stroke-linecap:round" x2="10.4939"/>
                </g>
            </g>
        </g>
        <rect width="3.68504" y="12.274" id="connector0pin" gorn="0.3.2" height="4.2519698" x="20.6646"  style="fill:#9a916c;stroke:none;stroke-width:0"/>
        <rect width="3.68504" y="12.274" id="connector1pin" gorn="0.3.3" height="4.2519698" x="26.0504"  style="fill:#9a916c;stroke:none;stroke-width:0"/>
        <rect width="3.68504" y="35.313999" id="connector2pin" gorn="0.3.4" height="4.2519698" x="5.54457"  style="fill:#9a916c;stroke:none;stroke-width:0"/>
        <rect width="3.68504" y="35.313999" id="connector3pin" gorn="0.3.5" height="4.2519698" x="10.9304"  style="fill:#9a916c;stroke:none;stroke-width:0"/>
        <rect width="3.68504" y="14.434" id="connector4pin" gorn="0.3.6" height="4.2519698" x="4.8245702"  style="fill:#9a916c;stroke:none;stroke-width:0"/>
        <rect width="3.68504" y="14.434" id="connector5pin" gorn="0.3.7" height="4.2519698" x="10.2104"  style="fill:#9a916c;stroke:none;stroke-width:0"/>
        <g transform="matrix(0,-1,1,0,-5.49638,40.7764)" >
            <g id="g5320" gorn="0.3.8.0" >
                <rect width="3.4015801" y="21.010401" id="connector6pin" gorn="0.3.8.0.0" height="4.2519698" x="15.9392"  style="fill:#9a916c;stroke:none;stroke-width:0"/>
            </g>
        </g>
        <g transform="matrix(0,-1,1,0,0.456378,34.8236)" >
            <g id="g5323" gorn="0.3.9.0" >
                <rect width="3.4015801" y="15.0576" id="connector7pin" gorn="0.3.9.0.0" height="4.2519698" x="15.9392"  style="fill:#9a916c;stroke:none;stroke-width:0"/>
            </g>
        </g>
        <rect width="2.83465" y="20.182699" id="connector8pin" gorn="0.3.10" height="2.83465" x="0.74268001" rx="1.41732" ry="1.41732"  style="fill:#9a916c;stroke:none;stroke-width:0"/>
        <rect width="2.83465" y="33.1427" id="connector9pin" gorn="0.3.11" height="2.83465" x="29.182699" rx="1.41732" ry="1.41732"  style="fill:#9a916c;stroke:none;stroke-width:0"/>
        <circle r="1.96866" id="connector10pin" gorn="0.3.12"  cy="43.200001" connectorname="SA0" cx="54" style="fill:none;stroke:#9a916c;stroke-width:1.10267997"/>
        <circle r="1.96866" id="connector11pin" gorn="0.3.13"  cy="43.200001" connectorname="SDA" cx="46.799999" style="fill:none;stroke:#9a916c;stroke-width:1.10267997"/>
        <circle r="1.96866" id="connector12pin" gorn="0.3.14"  cy="43.200001" connectorname="SCL" cx="39.599998" style="fill:none;stroke:#9a916c;stroke-width:1.10267997"/>
        <circle r="1.96866" id="connector13pin" gorn="0.3.15"  cy="43.200001" connectorname="INT1" cx="32.400002" style="fill:none;stroke:#9a916c;stroke-width:1.10267997"/>
        <circle r="1.96866" id="connector14pin" gorn="0.3.16"  cy="43.200001" connectorname="INT2" cx="25.200001" style="fill:none;stroke:#9a916c;stroke-width:1.10267997"/>
        <circle r="1.96866" id="connector15pin" gorn="0.3.17"  cy="43.200001" connectorname="+3V3" cx="18" style="fill:none;stroke:#9a916c;stroke-width:1.10267997"/>
        <circle r="1.96866" id="connector16pin" gorn="0.3.18"  cy="43.200001" connectorname="GND" cx="10.8" style="fill:none;stroke:#9a916c;stroke-width:1.10267997"/>
        <circle r="1.96866" id="connector17pin" gorn="0.3.19"  cy="43.200001" connectorname="VIN" cx="3.5999999" style="fill:none;stroke:#9a916c;stroke-width:1.10267997"/>
        <g transform="matrix(0,1,-1,0,58.5524,-25.0582)" >
            <g id="g5336" gorn="0.3.20.0" >
                <rect width="2.83465" y="15.0463" id="connector18pin" gorn="0.3.20.0.0" height="3.4015801" x="40.388"  style="fill:#9a916c;stroke:none;stroke-width:0"/>
            </g>
        </g>
        <g transform="matrix(0,1,-1,0,63.9382,-19.6724)" >
            <g id="g5339" gorn="0.3.21.0" >
                <rect width="2.83465" y="20.432199" id="connector19pin" gorn="0.3.21.0.0" height="3.4015801" x="40.388"  style="fill:#9a916c;stroke:none;stroke-width:0"/>
            </g>
        </g>
        <g transform="matrix(0,1,-1,0,66.9146,-28.0346)" >
            <g id="g5342" gorn="0.3.22.0" >
                <rect width="2.83465" y="17.739201" id="connector20pin" gorn="0.3.22.0.0" height="3.4015801" x="46.057301"  style="fill:#9a916c;stroke:none;stroke-width:0"/>
            </g>
        </g>
        <g transform="matrix(0,1,-1,0,69.3524,-14.2582)" >
            <g id="g5345" gorn="0.3.23.0" >
                <rect width="2.83465" y="25.8463" id="connector21pin" gorn="0.3.23.0.0" height="3.4015801" x="40.388"  style="fill:#9a916c;stroke:none;stroke-width:0"/>
            </g>
        </g>
        <g transform="matrix(0,1,-1,0,74.7382,-8.87242)" >
            <g id="g5348" gorn="0.3.24.0" >
                <rect width="2.83465" y="31.232201" id="connector22pin" gorn="0.3.24.0.0" height="3.4015801" x="40.388"  style="fill:#9a916c;stroke:none;stroke-width:0"/>
            </g>
        </g>
        <g transform="matrix(0,1,-1,0,77.7146,-17.2346)" >
            <g id="g5351" gorn="0.3.25.0" >
                <rect width="2.83465" y="28.5392" id="connector23pin" gorn="0.3.25.0.0" height="3.4015801" x="46.057301"  style="fill:#9a916c;stroke:none;stroke-width:0"/>
            </g>
        </g>
        <g transform="matrix(0,1,-1,0,70.0271,-35.0929)" >
            <g id="g5354" gorn="0.3.26.0" >
                <rect width="3.68504" y="15.3411" id="connector24pin" gorn="0.3.26.0.0" height="4.2519698" x="50.7174"  style="fill:#9a916c;stroke:none;stroke-width:0"/>
            </g>
        </g>
        <g transform="matrix(0,1,-1,0,75.4128,-29.7071)" >
            <g id="g5357" gorn="0.3.27.0" >
                <rect width="3.68504" y="20.7269" id="connector25pin" gorn="0.3.27.0.0" height="4.2519698" x="50.7174"  style="fill:#9a916c;stroke:none;stroke-width:0"/>
            </g>
        </g>
        <g transform="matrix(0,1,-1,0,82.2672,-22.8529)" >
            <g id="g5360" gorn="0.3.28.0" >
                <rect width="3.68504" y="27.5811" id="connector26pin" gorn="0.3.28.0.0" height="4.2519698" x="50.7174"  style="fill:#9a916c;stroke:none;stroke-width:0"/>
            </g>
        </g>
        <g transform="matrix(0,1,-1,0,87.6528,-17.4671)" >
            <g id="g5363" gorn="0.3.29.0" >
                <rect width="3.68504" y="32.9669" id="connector27pin" gorn="0.3.29.0.0" height="4.2519698" x="50.7174"  style="fill:#9a916c;stroke:none;stroke-width:0"/>
            </g>
        </g>
        <g transform="matrix(0,-1,1,0,14.9471,59.2129)" >
            <g id="g5366" gorn="0.3.30.0" >
                <rect width="3.68504" y="20.006901" id="connector28pin" gorn="0.3.30.0.0" height="4.2519698" x="35.2374"  style="fill:#9a916c;stroke:none;stroke-width:0"/>
            </g>
        </g>
        <g transform="matrix(0,-1,1,0,20.3329,53.8271)" >
            <g id="g5369" gorn="0.3.31.0" >
                <rect width="3.68504" y="14.6211" id="connector29pin" gorn="0.3.31.0.0" height="4.2519698" x="35.2374"  style="fill:#9a916c;stroke:none;stroke-width:0"/>
            </g>
        </g>
        <g transform="matrix(0,1,-1,0,64.6271,-9.53294)" >
            <g id="g5372" gorn="0.3.32.0" >
                <rect width="3.68504" y="25.421101" id="connector30pin" gorn="0.3.32.0.0" height="4.2519698" x="35.2374"  style="fill:#9a916c;stroke:none;stroke-width:0"/>
            </g>
        </g>
        <g transform="matrix(0,1,-1,0,70.0129,-4.14708)" >
            <g id="g5375" gorn="0.3.33.0" >
                <rect width="3.68504" y="30.8069" id="connector31pin" gorn="0.3.33.0.0" height="4.2519698" x="35.2374"  style="fill:#9a916c;stroke:none;stroke-width:0"/>
            </g>
        </g>
        <g transform="matrix(-1,0,0,-1,47.1458,69.12)" >
            <g id="g5378" gorn="0.3.34.0" >
                <rect width="3.68504" y="32.433998" id="connector32pin" gorn="0.3.34.0.0" height="4.2519698" x="21.7304"  style="fill:#9a916c;stroke:none;stroke-width:0"/>
            </g>
        </g>
        <g transform="matrix(-1,0,0,-1,36.3742,69.12)" >
            <g id="g5381" gorn="0.3.35.0" >
                <rect width="3.68504" y="32.433998" id="connector33pin" gorn="0.3.35.0.0" height="4.2519698" x="16.344601"  style="fill:#9a916c;stroke:none;stroke-width:0"/>
            </g>
        </g>
        <circle r="4.26331" id="connector34pin" gorn="0.3.36"  cy="7.1999998" connectorname="P$1" cx="7.1999998" style="fill:none;stroke:#9a916c;stroke-width:1.44000006"/>
        <circle r="4.26331" id="connector35pin" gorn="0.3.37"  cy="7.1999998" connectorname="P$1" cx="50.400002" style="fill:none;stroke:#9a916c;stroke-width:1.44000006"/>
        <rect width="1.84252" y="20.570999" id="connector36pin" gorn="0.3.38" height="0.70866102" x="23.7104" rx="0.177165" ry="0.177165"  style="fill:#9a916c;stroke:none;stroke-width:0"/>
        <rect width="1.84252" y="21.9884" id="connector37pin" gorn="0.3.39" height="0.70866102" x="23.7104" rx="0.177165" ry="0.177165"  style="fill:#9a916c;stroke:none;stroke-width:0"/>
        <rect width="1.84252" y="23.405701" id="connector38pin" gorn="0.3.40" height="0.70866102" x="23.7104" rx="0.177165" ry="0.177165"  style="fill:#9a916c;stroke:none;stroke-width:0"/>
        <rect width="1.84252" y="24.823" id="connector39pin" gorn="0.3.41" height="0.70866102" x="23.7104" rx="0.177165" ry="0.177165"  style="fill:#9a916c;stroke:none;stroke-width:0"/>
        <rect width="1.84252" y="26.240299" id="connector40pin" gorn="0.3.42" height="0.70866102" x="23.7104" rx="0.177165" ry="0.177165"  style="fill:#9a916c;stroke:none;stroke-width:0"/>
        <g transform="matrix(0,-1,1,0,-0.545669,53.871)" >
            <g id="g5391" gorn="0.3.43.0" >
                <rect width="1.84252" y="26.854" id="connector41pin" gorn="0.3.43.0.0" height="0.70866102" x="25.7414" rx="0.177165" ry="0.177165"  style="fill:#9a916c;stroke:none;stroke-width:0"/>
            </g>
        </g>
        <g transform="matrix(0,-1,1,0,0.871654,55.2884)" >
            <g id="g5394" gorn="0.3.44.0" >
                <rect width="1.84252" y="26.854" id="connector42pin" gorn="0.3.44.0.0" height="0.70866102" x="27.1588" rx="0.177165" ry="0.177165"  style="fill:#9a916c;stroke:none;stroke-width:0"/>
            </g>
        </g>
        <g transform="matrix(0,-1,1,0,2.28897,56.7057)" >
            <g id="g5397" gorn="0.3.45.0" >
                <rect width="1.84252" y="26.854" id="connector43pin" gorn="0.3.45.0.0" height="0.70866102" x="28.576099" rx="0.177165" ry="0.177165"  style="fill:#9a916c;stroke:none;stroke-width:0"/>
            </g>
        </g>
        <g transform="matrix(-1,0,0,-1,63.0567,53.1893)" >
            <g id="g5400" gorn="0.3.46.0" >
                <rect width="1.84252" y="26.240299" id="connector44pin" gorn="0.3.46.0.0" height="0.70866102" x="30.6071" rx="0.177165" ry="0.177165"  style="fill:#9a916c;stroke:none;stroke-width:0"/>
            </g>
        </g>
        <g transform="matrix(-1,0,0,-1,63.0567,50.3546)" >
            <g id="g5403" gorn="0.3.47.0" >
                <rect width="1.84252" y="24.823" id="connector45pin" gorn="0.3.47.0.0" height="0.70866102" x="30.6071" rx="0.177165" ry="0.177165"  style="fill:#9a916c;stroke:none;stroke-width:0"/>
            </g>
        </g>
        <g transform="matrix(-1,0,0,-1,63.0567,47.52)" >
            <g id="g5406" gorn="0.3.48.0" >
                <rect width="1.84252" y="23.405701" id="connector46pin" gorn="0.3.48.0.0" height="0.70866102" x="30.6071" rx="0.177165" ry="0.177165"  style="fill:#9a916c;stroke:none;stroke-width:0"/>
            </g>
        </g>
        <g transform="matrix(-1,0,0,-1,63.0567,44.6854)" >
            <g id="g5409" gorn="0.3.49.0" >
                <rect width="1.84252" y="21.9884" id="connector47pin" gorn="0.3.49.0.0" height="0.70866102" x="30.6071" rx="0.177165" ry="0.177165"  style="fill:#9a916c;stroke:none;stroke-width:0"/>
            </g>
        </g>
        <g transform="matrix(-1,0,0,-1,63.0567,41.8507)" >
            <g id="g5412" gorn="0.3.50.0" >
                <rect width="1.84252" y="20.570999" id="connector48pin" gorn="0.3.50.0.0" height="0.70866102" x="30.6071" rx="0.177165" ry="0.177165"  style="fill:#9a916c;stroke:none;stroke-width:0"/>
            </g>
        </g>
        <g transform="matrix(0,1,-1,0,49.809,-9.18569)" >
            <g id="g5415" gorn="0.3.51.0" >
                <rect width="1.84252" y="19.9573" id="connector49pin" gorn="0.3.51.0.0" height="0.70866102" x="28.576099" rx="0.177165" ry="0.177165"  style="fill:#9a916c;stroke:none;stroke-width:0"/>
            </g>
        </g>
        <g transform="matrix(0,1,-1,0,48.3916,-7.76837)" >
            <g id="g5418" gorn="0.3.52.0" >
                <rect width="1.84252" y="19.9573" id="connector50pin" gorn="0.3.52.0.0" height="0.70866102" x="27.1588" rx="0.177165" ry="0.177165"  style="fill:#9a916c;stroke:none;stroke-width:0"/>
            </g>
        </g>
        <g transform="matrix(0,1,-1,0,46.9743,-6.35103)" >
            <g id="g5421" gorn="0.3.53.0" >
                <rect width="1.84252" y="19.9573" id="connector51pin" gorn="0.3.53.0.0" height="0.70866102" x="25.7414" rx="0.177165" ry="0.177165"  style="fill:#9a916c;stroke:none;stroke-width:0"/>
            </g>
        </g>
        <rect width="1.55905" y="28.984501" id="connector52pin" gorn="0.3.54" height="3.4015801" x="5.8875599"  style="fill:#9a916c;stroke:none;stroke-width:0"/>
        <rect width="1.55905" y="28.984501" id="connector53pin" gorn="0.3.55" height="3.4015801" x="8.5804596"  style="fill:#9a916c;stroke:none;stroke-width:0"/>
        <rect width="1.55905" y="28.984501" id="connector54pin" gorn="0.3.56" height="3.4015801" x="11.2734"  style="fill:#9a916c;stroke:none;stroke-width:0"/>
        <rect width="1.55905" y="21.613899" id="connector55pin" gorn="0.3.57" height="3.4015801" x="11.2734"  style="fill:#9a916c;stroke:none;stroke-width:0"/>
        <rect width="1.55905" y="21.613899" id="connector56pin" gorn="0.3.58" height="3.4015801" x="5.8875599"  style="fill:#9a916c;stroke:none;stroke-width:0"/>
    </g>
    <g transform="translate(22.3655,12.6285)" >
        <g id="0805-cap" gorn="0.4.0" >
            <path id="path5430" gorn="0.4.0.0" d="m 5.386,3.543 -5.103,0 C 0.127,3.543 0,3.416 0,3.26 L 0,0.283 C 0,0.127 0.127,0 0.283,0 l 5.102,0 c 0.157,0 0.283,0.127 0.283,0.283 l 0,2.977 C 5.669,3.416 5.542,3.543 5.386,3.543 Z"  style="fill:#dcdcdc"/>
            <rect y="0" width="3.543" id="rect5432" gorn="0.4.0.1" height="3.543" x="1.063"  style="fill:#6e554b"/>
        </g>
    </g>
    <g transform="translate(7.2455,35.6685)" >
        <g id="g5434" gorn="0.5.0" >
            <path id="path5436" gorn="0.5.0.0" d="m 5.386,3.543 -5.103,0 C 0.127,3.543 0,3.416 0,3.26 L 0,0.283 C 0,0.127 0.127,0 0.283,0 l 5.102,0 c 0.157,0 0.283,0.127 0.283,0.283 l 0,2.977 C 5.669,3.416 5.542,3.543 5.386,3.543 Z"  style="fill:#dcdcdc"/>
            <rect y="0" width="3.543" id="rect5438" gorn="0.5.0.1" height="3.543" x="1.063"  style="fill:#6e554b"/>
        </g>
    </g>
    <g transform="translate(6.5255,14.7885)" >
        <g id="g5440" gorn="0.6.0" >
            <path id="path5442" gorn="0.6.0.0" d="m 5.386,3.543 -5.103,0 C 0.127,3.543 0,3.416 0,3.26 L 0,0.283 C 0,0.127 0.127,0 0.283,0 l 5.102,0 c 0.157,0 0.283,0.127 0.283,0.283 l 0,2.977 C 5.669,3.416 5.542,3.543 5.386,3.543 Z"  style="fill:#dcdcdc"/>
            <rect y="0" width="3.543" id="rect5444" gorn="0.6.0.1" height="3.543" x="1.063"  style="fill:#6e554b"/>
        </g>
    </g>
    <g transform="translate(14.8055,18.3885)" >
        <g id="0805_10mgap" gorn="0.7.0" >
            <g transform="matrix(0,-1,1,0,1.063,4.606)" >
                <g id="g5447" gorn="0.7.0.0.0" >
                    <path id="path5449" gorn="0.7.0.0.0.0" d="m 5.386,3.543 -5.103,0 C 0.127,3.543 0,3.416 0,3.26 L 0,0.283 C 0,0.127 0.127,0 0.283,0 l 5.102,0 c 0.157,0 0.283,0.127 0.283,0.283 l 0,2.977 C 5.669,3.416 5.542,3.543 5.386,3.543 Z"  style="fill:#dcdcdc"/>
                    <rect y="0" width="3.543" id="rect5451" gorn="0.7.0.0.0.1" height="3.543" x="1.063"  style="fill:#6e554b"/>
                </g>
            </g>
        </g>
    </g>
    <g transform="translate(40.388,15.613)" >
        <g id="sot23-wide" gorn="0.8.0" >
            <g transform="matrix(0,1,-1,0,8.07898,-0.42498)" >
                <g id="g5454" gorn="0.8.0.0.0" >
                    <g id="g5456" gorn="0.8.0.0.0.0" >
                        <rect width="1.4170001" y="4.677" id="rect5458" gorn="0.8.0.0.0.0.0" height="2.9760001" x="0.850003"  style="fill:#dcdcdc"/>
                        <rect width="1.4170001" y="4.677" id="rect5460" gorn="0.8.0.0.0.0.1" height="2.9760001" x="6.2360001"  style="fill:#dcdcdc"/>
                        <rect y="0" width="1.4170001" id="rect5462" gorn="0.8.0.0.0.0.2" height="3.118" x="3.543"  style="fill:#dcdcdc"/>
                        <rect width="8.5039902" y="1.984" id="rect5464" gorn="0.8.0.0.0.0.3" height="3.6849999" x="0"  style="fill:#303030"/>
                    </g>
                </g>
            </g>
        </g>
    </g>
    <g transform="translate(40.388,26.413)" >
        <g id="g5466" gorn="0.9.0" >
            <g transform="matrix(0,1,-1,0,8.07898,-0.42498)" >
                <g id="g5468" gorn="0.9.0.0.0" >
                    <g id="g5470" gorn="0.9.0.0.0.0" >
                        <rect width="1.4170001" y="4.677" id="rect5472" gorn="0.9.0.0.0.0.0" height="2.9760001" x="0.850003"  style="fill:#dcdcdc"/>
                        <rect width="1.4170001" y="4.677" id="rect5474" gorn="0.9.0.0.0.0.1" height="2.9760001" x="6.2360001"  style="fill:#dcdcdc"/>
                        <rect y="0" width="1.4170001" id="rect5476" gorn="0.9.0.0.0.0.2" height="3.118" x="3.543"  style="fill:#dcdcdc"/>
                        <rect width="8.5039902" y="1.984" id="rect5478" gorn="0.9.0.0.0.0.3" height="3.6849999" x="0"  style="fill:#303030"/>
                    </g>
                </g>
            </g>
        </g>
    </g>
    <g transform="translate(49.7255,18.3885)" >
        <g id="0805-res" gorn="0.10.0" >
            <g transform="matrix(0,1,-1,0,4.606,-1.063)" >
                <g id="g5481" gorn="0.10.0.0.0" >
                    <path id="path5483" gorn="0.10.0.0.0.0" d="m 5.386,3.543 -5.103,0 C 0.127,3.543 0,3.416 0,3.26 L 0,0.283 C 0,0.127 0.127,0 0.283,0 l 5.102,0 c 0.157,0 0.283,0.127 0.283,0.283 l 0,2.977 C 5.669,3.416 5.542,3.543 5.386,3.543 Z"  style="fill:#dcdcdc"/>
                    <rect y="0" width="3.543" id="rect5485" gorn="0.10.0.0.0.1" height="3.543" x="1.063"  style="fill:#333333"/>
                </g>
            </g>
        </g>
    </g>
    <g transform="translate(49.7255,30.6285)" >
        <g id="g5487" gorn="0.11.0" >
            <g transform="matrix(0,1,-1,0,4.606,-1.063)" >
                <g id="g5489" gorn="0.11.0.0.0" >
                    <path id="path5491" gorn="0.11.0.0.0.0" d="m 5.386,3.543 -5.103,0 C 0.127,3.543 0,3.416 0,3.26 L 0,0.283 C 0,0.127 0.127,0 0.283,0 l 5.102,0 c 0.157,0 0.283,0.127 0.283,0.283 l 0,2.977 C 5.669,3.416 5.542,3.543 5.386,3.543 Z"  style="fill:#dcdcdc"/>
                    <rect y="0" width="3.543" id="rect5493" gorn="0.11.0.0.0.1" height="3.543" x="1.063"  style="fill:#333333"/>
                </g>
            </g>
        </g>
    </g>
    <g transform="translate(34.2455,17.6685)" >
        <g id="g5495" gorn="0.12.0" >
            <g transform="matrix(0,-1,1,0,1.063,4.606)" >
                <g id="g5497" gorn="0.12.0.0.0" >
                    <path id="path5499" gorn="0.12.0.0.0.0" d="m 5.386,3.543 -5.103,0 C 0.127,3.543 0,3.416 0,3.26 L 0,0.283 C 0,0.127 0.127,0 0.283,0 l 5.102,0 c 0.157,0 0.283,0.127 0.283,0.283 l 0,2.977 C 5.669,3.416 5.542,3.543 5.386,3.543 Z"  style="fill:#dcdcdc"/>
                    <rect y="0" width="3.543" id="rect5501" gorn="0.12.0.0.0.1" height="3.543" x="1.063"  style="fill:#333333"/>
                </g>
            </g>
        </g>
    </g>
    <g transform="translate(34.2455,28.4685)" >
        <g id="g5503" gorn="0.13.0" >
            <g transform="matrix(0,1,-1,0,4.606,-1.063)" >
                <g id="g5505" gorn="0.13.0.0.0" >
                    <path id="path5507" gorn="0.13.0.0.0.0" d="m 5.386,3.543 -5.103,0 C 0.127,3.543 0,3.416 0,3.26 L 0,0.283 C 0,0.127 0.127,0 0.283,0 l 5.102,0 c 0.157,0 0.283,0.127 0.283,0.283 l 0,2.977 C 5.669,3.416 5.542,3.543 5.386,3.543 Z"  style="fill:#dcdcdc"/>
                    <rect y="0" width="3.543" id="rect5509" gorn="0.13.0.0.0.1" height="3.543" x="1.063"  style="fill:#333333"/>
                </g>
            </g>
        </g>
    </g>
    <g transform="translate(18.0455,32.7885)" >
        <g id="g5511" gorn="0.14.0" >
            <g transform="matrix(-1,0,0,-1,5.669,3.543)" >
                <g id="g5513" gorn="0.14.0.0.0" >
                    <path id="path5515" gorn="0.14.0.0.0.0" d="m 5.386,3.543 -5.103,0 C 0.127,3.543 0,3.416 0,3.26 L 0,0.283 C 0,0.127 0.127,0 0.283,0 l 5.102,0 c 0.157,0 0.283,0.127 0.283,0.283 l 0,2.977 C 5.669,3.416 5.542,3.543 5.386,3.543 Z"  style="fill:#dcdcdc"/>
                    <rect y="0" width="3.543" id="rect5517" gorn="0.14.0.0.0.1" height="3.543" x="1.063"  style="fill:#333333"/>
                </g>
            </g>
        </g>
    </g>
    <g transform="translate(19.652609,0.93473355)" >
        <g id="adafruit_2.5mm" gorn="0.15.0" >
            <path id="path5520" gorn="0.15.0.0" d="M 9.747,3.082 C 9.724,2.94 9.647,2.899 9.461,2.839 9.31903,2.794 8.37202,2.492 8.37202,2.492 c 0,0 -0.66,-0.249 -1.15,0.103 -0.066,0.048 -0.134,0.102 -0.203,0.16 0.058,-0.069 0.112,-0.137 0.159,-0.203 0.352,-0.49 0.101,-1.15 0.101,-1.15 0,0 -0.30302,-0.947 -0.34902,-1.089 C 6.87,0.127 6.83,0.05 6.687,0.028 6.545,0.005 6.483,0.066 6.369,0.225 6.282,0.345 5.702,1.153001 5.702,1.153001 5.702,1.153001 5.261,1.704 5.445,2.279 5.47,2.356 5.5,2.438 5.534,2.521 5.486,2.445 5.438,2.372 5.39,2.307 5.032,1.821 4.328,1.855 4.328,1.855 c 0,0 -0.995,-0.004 -1.143,-0.004 -0.195,0 -0.281,0.014 -0.347,0.143 -0.065,0.128 -0.027,0.206 0.089,0.364 0.088,0.12 0.677,0.921002 0.677,0.921002 0,0 0.388,0.59 0.991001,0.592 0.081,0 0.168,-0.003 0.257,-0.01 C 4.765,3.883 4.681,3.907 4.604,3.932 4.031,4.122 3.845998,4.802998 3.845998,4.802998 c 0,0 -0.31,0.943999 -0.357,1.085 C 3.428,6.074 3.416,6.16 3.518,6.262 3.62,6.364 3.706,6.352 3.892,6.29 4.033,6.244 4.977,5.931 4.977,5.931 c 0,0 0.681,-0.187 0.868997,-0.760003 0.025,-0.077 0.049,-0.16 0.07,-0.247 C 5.91,5.014 5.907,5.1 5.907,5.181 c 0.004,0.603 0.594,0.99 0.594,0.99 0,0 0.802001,0.588 0.922003,0.675 C 7.58102,6.962 7.659,7 7.78802,6.935 7.91597,6.869 7.93102,6.783 7.93001,6.588 7.929,6.439 7.92403,5.445 7.92403,5.445 7.92403,5.445 7.95701,4.74 7.47,4.383 7.40498,4.335 7.33198,4.287 7.25602,4.24 c 0.083,0.034 0.165,0.064 0.242,0.088 0.575,0.183 1.125,-0.259 1.125,-0.259 0,0 0.80696,-0.5809998 0.92699,-0.6679998 C 9.70898,3.286 9.76903,3.224 9.747,3.082 Z M 6.322,2.35 C 6.43,2.367 6.484,2.598 6.442,2.865 6.4,3.132 6.278,3.335 6.169,3.318 6.061,3.301 6.007,3.07 6.049,2.803 6.091,2.535 6.213,2.332 6.322,2.35 Z M 4.933,3.059 C 4.983,2.961 5.219,2.981 5.46,3.104 5.701,3.227 5.857,3.406 5.807,3.503 5.757,3.601 5.521,3.581 5.28,3.458 5.038,3.335 4.883,3.157 4.933,3.059 Z M 5.665,4.393 C 5.474,4.584 5.256,4.677 5.178,4.599 5.101,4.521 5.193,4.303 5.384,4.112 5.575,3.92 5.793,3.827 5.871,3.905 5.949,3.983 5.857,4.201 5.665,4.393 Z M 6.719,4.842 C 6.6210001,4.892 6.442,4.737 6.319,4.496 6.196,4.254 6.175,4.018 6.273,3.968 6.371,3.918 6.55,4.073 6.673,4.314 6.796,4.556 6.817,4.792 6.719,4.842 Z M 6.973,3.725 C 6.706,3.767 6.475,3.714 6.457,3.606 6.44,3.497 6.643,3.375 6.91,3.332 7.177,3.289 7.408,3.343 7.425,3.451 7.443,3.56 7.24003,3.682 6.973,3.725 Z"  style="fill:#dcdcdc"/>
        </g>
    </g>
    <g transform="translate(23.646997,19.508)" >
        <g id="mma845x_qfn_16mm" gorn="0.16.0" >
            <metadata id="metadata9" >
                <rdf:RDF xmlns:rdf="http://www.w3.org/1999/02/22-rdf-syntax-ns#">
                    <cc:Work xmlns:cc="http://creativecommons.org/ns#" xmlns:rdf="http://www.w3.org/1999/02/22-rdf-syntax-ns#" rdf:about="">
                        <dc:format xmlns:dc="http://purl.org/dc/elements/1.1/">image/svg+xml</dc:format>
                        <dc:type xmlns:rdf="http://www.w3.org/1999/02/22-rdf-syntax-ns#" xmlns:dc="http://purl.org/dc/elements/1.1/" rdf:resource="http://purl.org/dc/dcmitype/StillImage"/>
                        <dc:title xmlns:dc="http://purl.org/dc/elements/1.1/"/>
                    </cc:Work>
                </rdf:RDF>
            </metadata>
            <defs id="defs7" />
            <rect width="8.5039196" y="0" id="rect3" gorn="0.16.0.2" height="8.5039196" x="0"  style="fill:#333333"/>
            <circle r="0.36033899" id="path3337" gorn="0.16.0.3"  cy="1.05213" cx="1.06116" style="fill:#999999"/>
        </g>
    </g>
    <g transform="translate(5.24999,23.173)" >
        <g id="sot23-5" gorn="0.17.0" >
            <g id="g5529" gorn="0.17.0.0" >
                <rect y="0" width="1.1339999" id="rect5531" gorn="0.17.0.0.0" height="7.6540298" x="0.850003"  style="fill:#dcdcdc"/>
                <rect y="0" width="1.1339999" id="rect5533" gorn="0.17.0.0.1" height="7.6540298" x="6.2360001"  style="fill:#dcdcdc"/>
                <rect width="1.1339999" y="4.5349998" id="rect5535" gorn="0.17.0.0.2" height="3.118" x="3.543"  style="fill:#dcdcdc"/>
                <rect width="8.2200203" y="1.559" id="rect5537" gorn="0.17.0.0.3" height="4.5349998" x="0"  style="fill:#303030"/>
            </g>
        </g>
    </g>
</svg>
