<?xml version='1.0' encoding='UTF-8' standalone='no'?>
<!-- Created with Fritzing (http://www.fritzing.org/) -->
<svg xmlns="http://www.w3.org/2000/svg" gorn="0" x="0in" y="0in" version="1.2" id="svg2" viewBox="0 0 57.6 57.6"  height="0.8in" width="0.8in">
    <desc >
        <referenceFile >Thermocouple Amplifier with 1-Wire Breakout Board - MAX31850K_breadboard.svg</referenceFile>
    </desc>
    <metadata id="metadata448" />
    <defs id="defs446" />
    <desc id="desc4" >Fritzing breadboard generated by brd2svg</desc>
    <g gorn="0.4" id="icon" >
        <path gorn="0.4.0" id="path8" d="m 57.6,7.2 0,43.2 a 7.2,7.2 0 0 1 -7.2,7.2 l -43.2,0 A 7.2,7.2 0 0 1 0,50.4 L 0,7.2 A 7.2,7.2 0 0 1 7.2,0 l 43.2,0 a 7.2,7.2 0 0 1 7.2,7.2 m -5.0173,43.2 a 1.417325,1.417325 0 1 0 2.83465,0 1.417325,1.417325 0 1 0 -2.83465,0 z m -7.2,0 a 1.417325,1.417325 0 1 0 2.83465,0 1.417325,1.417325 0 1 0 -2.83465,0 z m -7.2,0 a 1.417325,1.417325 0 1 0 2.83465,0 1.417325,1.417325 0 1 0 -2.83465,0 z m -7.2,0 a 1.417325,1.417325 0 1 0 2.83465,0 1.417325,1.417325 0 1 0 -2.83465,0 z m -7.2,0 a 1.417325,1.417325 0 1 0 2.83465,0 1.417325,1.417325 0 1 0 -2.83465,0 z m -7.2,0 a 1.417325,1.417325 0 1 0 2.83465,0 1.417325,1.417325 0 1 0 -2.83465,0 z m -7.20002,0 a 1.417325,1.417325 0 1 0 2.83465,0 1.417325,1.417325 0 1 0 -2.83465,0 z m -7.2,0 a 1.417325,1.417325 0 1 0 2.83465,0 1.417325,1.417325 0 1 0 -2.83465,0 z M 46.8567,7.2 a 3.54331,3.54331 0 1 0 7.08661,0 3.54331,3.54331 0 1 0 -7.08661,0 z m -43.20001,0 a 3.54331,3.54331 0 1 0 7.08661,0 3.54331,3.54331 0 1 0 -7.08661,0 z m 18.62361,3.24 a 1.417325,1.417325 0 1 0 2.83465,0 1.417325,1.417325 0 1 0 -2.83465,0 z m 9.9213,0 a 1.417325,1.417325 0 1 0 2.83465,0 1.417325,1.417325 0 1 0 -2.83465,0 z"  style="fill:#014cb1;stroke:none;stroke-width:0"/>
        <g gorn="0.4.1" id="g10" >
            <title id="title12" >layer 21</title>
            <g gorn="0.4.1.1" id="g14" >
                <title id="title16" >text:RED-</title>
                <g  transform="translate(43.488,6.48)">
                    <g >
                        <g gorn="0.4.1.1.1.0.0" id="g18" >
                            <g  transform="matrix(0,-1,1,0,0,0)">
                                <g >
                                    <g gorn="0.4.1.1.1.0.0.0.0.0" id="g20" >
                                        <text gorn="0.4.1.1.1.0.0.0.0.0.0" x="0" y="0" id="text22" font-size="4.176"  style="font-size:4.17600012px;font-family:OCRA;text-anchor:middle;fill:#ffffff;stroke:none;stroke-width:0">RED-</text>
                                    </g>
                                </g>
                            </g>
                        </g>
                    </g>
                </g>
            </g>
            <g gorn="0.4.1.2" id="g24" >
                <title id="title26" >text:YELLOW+</title>
                <g  transform="translate(18.288,11.16)">
                    <g >
                        <g gorn="0.4.1.2.1.0.0" id="g28" >
                            <g  transform="matrix(0,-1,1,0,0,0)">
                                <g >
                                    <g gorn="0.4.1.2.1.0.0.0.0.0" id="g30" >
                                        <text gorn="0.4.1.2.1.0.0.0.0.0.0" x="0" y="0" id="text32" font-size="4.176"  style="font-size:4.17600012px;font-family:OCRA;text-anchor:middle;fill:#ffffff;stroke:none;stroke-width:0">YELLOW+</text>
                                    </g>
                                </g>
                            </g>
                        </g>
                    </g>
                </g>
            </g>
            <g gorn="0.4.1.3" id="g34" >
                <title id="title36" >text:DATA</title>
                <g  transform="translate(55.3104,41.4)">
                    <g >
                        <g gorn="0.4.1.3.1.0.0" id="g38" >
                            <g  transform="matrix(0,-1,1,0,0,0)">
                                <g >
                                    <g gorn="0.4.1.3.1.0.0.0.0.0" id="g40" >
                                        <text gorn="0.4.1.3.1.0.0.0.0.0.0" x="0" y="0" id="text42" font-size="3.3408"  style="font-size:3.34080005px;font-family:OCRA;text-anchor:middle;fill:#ffffff;stroke:none;stroke-width:0">DATA</text>
                                    </g>
                                </g>
                            </g>
                        </g>
                    </g>
                </g>
            </g>
            <g gorn="0.4.1.4" id="g44" >
                <title id="title46" >text:A3</title>
                <text gorn="0.4.1.4.1" x="46.799999" y="47.750401" id="text48" font-size="3.3408"  style="font-size:3.34080005px;font-family:OCRA;text-anchor:middle;fill:#ffffff;stroke:none;stroke-width:0">A3</text>
            </g>
            <g gorn="0.4.1.5" id="g50" >
                <title id="title52" >text:A2</title>
                <text gorn="0.4.1.5.1" x="39.959999" y="57.110401" id="text54" font-size="3.3408"  style="font-size:3.34080005px;font-family:OCRA;text-anchor:middle;fill:#ffffff;stroke:none;stroke-width:0">A2</text>
            </g>
            <g gorn="0.4.1.6" id="g56" >
                <title id="title58" >text:A1</title>
                <text gorn="0.4.1.6.1" x="32.759998" y="47.750401" id="text60" font-size="3.3408"  style="font-size:3.34080005px;font-family:OCRA;text-anchor:middle;fill:#ffffff;stroke:none;stroke-width:0">A1</text>
            </g>
            <g gorn="0.4.1.7" id="g62" >
                <title id="title64" >text:A0</title>
                <text gorn="0.4.1.7.1" x="25.200001" y="57.110401" id="text66" font-size="3.3408"  style="font-size:3.34080005px;font-family:OCRA;text-anchor:middle;fill:#ffffff;stroke:none;stroke-width:0">A0</text>
            </g>
            <g gorn="0.4.1.8" id="g68" >
                <title id="title70" >text:3V3</title>
                <text gorn="0.4.1.8.1" x="18.360001" y="47.3904" id="text72" font-size="3.3408"  style="font-size:3.34080005px;font-family:OCRA;text-anchor:middle;fill:#ffffff;stroke:none;stroke-width:0">3V3</text>
            </g>
            <g gorn="0.4.1.9" id="g74" >
                <title id="title76" >text:VIN</title>
                <text gorn="0.4.1.9.1" x="11.16" y="57.110401" id="text78" font-size="3.3408"  style="font-size:3.34080005px;font-family:OCRA;text-anchor:middle;fill:#ffffff;stroke:none;stroke-width:0">VIN</text>
            </g>
            <g gorn="0.4.1.10" id="g80" >
                <title id="title82" >text:GND</title>
                <text gorn="0.4.1.10.1" x="4.3200002" y="47.3904" id="text84" font-size="3.3408"  style="font-size:3.34080005px;font-family:OCRA;text-anchor:middle;fill:#ffffff;stroke:none;stroke-width:0">GND</text>
            </g>
            <g gorn="0.4.1.11" id="g86" >
                <title id="title88" >text:MAX31850</title>
                <g  transform="translate(48.888,28.8)">
                    <g >
                        <g gorn="0.4.1.11.1.0.0" id="g90" >
                            <g  transform="matrix(0,-1,1,0,0,0)">
                                <g >
                                    <g gorn="0.4.1.11.1.0.0.0.0.0" id="g92" >
                                        <text gorn="0.4.1.11.1.0.0.0.0.0.0" x="0" y="0" id="text94" font-size="4.176"  style="font-size:4.17600012px;font-family:OCRA;text-anchor:middle;fill:#ffffff;stroke:none;stroke-width:0">MAX31850</text>
                                    </g>
                                </g>
                            </g>
                        </g>
                    </g>
                </g>
            </g>
            <g gorn="0.4.1.12" id="g96" >
                <title id="title98" >element:C1</title>
                <g gorn="0.4.1.12.1" id="g100" >
                    <title id="title102" >package:0805-NO</title>
                    <line gorn="0.4.1.12.1.1" id="line104" x2="8.4132004" x1="8.4132004"  y1="42.0322" y2="39.152199" style="stroke:#ffffff;stroke-width:0.86400002;stroke-linecap:round"/>
                </g>
            </g>
            <g gorn="0.4.1.13" id="g106" >
                <title id="title108" >element:C2</title>
                <g gorn="0.4.1.13.1" id="g110" >
                    <title id="title112" >package:0805-NO</title>
                    <line gorn="0.4.1.13.1.1" id="line114" x2="8.1468" x1="8.1468"  y1="20.3358" y2="23.215799" style="stroke:#ffffff;stroke-width:0.86400002;stroke-linecap:round"/>
                </g>
            </g>
            <g gorn="0.4.1.14" id="g116" >
                <title id="title118" >element:C3</title>
                <g gorn="0.4.1.14.1" id="g120" >
                    <title id="title122" >package:0805-NO</title>
                    <line gorn="0.4.1.14.1.1" id="line124" x2="29.6504" x1="29.6504"  y1="26.464199" y2="29.3442" style="stroke:#ffffff;stroke-width:0.86400002;stroke-linecap:round"/>
                </g>
            </g>
            <g gorn="0.4.1.15" id="g126" >
                <title id="title128" >element:FB1</title>
                <g gorn="0.4.1.15.1" id="g130" >
                    <title id="title132" >package:0805</title>
                    <line gorn="0.4.1.15.1.1" id="line134" x2="29.055099" x1="29.055099"  y1="20.021099" y2="25.690399" style="stroke:#ffffff;stroke-width:0.57599998;stroke-linecap:round"/>
                    <line gorn="0.4.1.15.1.2" id="line136" x2="18.5669" x1="29.055099"  y1="25.690399" y2="25.690399" style="stroke:#ffffff;stroke-width:0.57599998;stroke-linecap:round"/>
                    <line gorn="0.4.1.15.1.3" id="line138" x2="18.5669" x1="18.5669"  y1="25.690399" y2="20.021099" style="stroke:#ffffff;stroke-width:0.57599998;stroke-linecap:round"/>
                    <line gorn="0.4.1.15.1.4" id="line140" x2="29.055099" x1="18.5669"  y1="20.021099" y2="20.021099" style="stroke:#ffffff;stroke-width:0.57599998;stroke-linecap:round"/>
                </g>
            </g>
            <g gorn="0.4.1.16" id="g142" >
                <title id="title144" >element:FB2</title>
                <g gorn="0.4.1.16.1" id="g146" >
                    <title id="title148" >package:0805</title>
                    <line gorn="0.4.1.16.1.1" id="line150" x2="29.004101" x1="29.004101"  y1="25.690399" y2="20.021099" style="stroke:#ffffff;stroke-width:0.57599998;stroke-linecap:round"/>
                    <line gorn="0.4.1.16.1.2" id="line152" x2="39.492298" x1="29.004101"  y1="20.021099" y2="20.021099" style="stroke:#ffffff;stroke-width:0.57599998;stroke-linecap:round"/>
                    <line gorn="0.4.1.16.1.3" id="line154" x2="39.492298" x1="39.492298"  y1="20.021099" y2="25.690399" style="stroke:#ffffff;stroke-width:0.57599998;stroke-linecap:round"/>
                    <line gorn="0.4.1.16.1.4" id="line156" x2="29.004101" x1="39.492298"  y1="25.690399" y2="25.690399" style="stroke:#ffffff;stroke-width:0.57599998;stroke-linecap:round"/>
                </g>
            </g>
            <g gorn="0.4.1.17" id="g158" >
                <title id="title160" >element:FID1</title>
                <g gorn="0.4.1.17.1" id="g162" >
                    <title id="title164" >package:FIDUCIAL_1MM</title>
                </g>
            </g>
            <g gorn="0.4.1.18" id="g166" >
                <title id="title168" >element:FID2</title>
                <g gorn="0.4.1.18.1" id="g170" >
                    <title id="title172" >package:FIDUCIAL_1MM</title>
                </g>
            </g>
            <g gorn="0.4.1.19" id="g174" >
                <title id="title176" >element:JP1</title>
                <g gorn="0.4.1.19.1" id="g178" >
                    <title id="title180" >package:1X08_ROUND_70</title>
                </g>
            </g>
            <g gorn="0.4.1.20" id="g182" >
                <title id="title184" >element:SJ1</title>
                <g gorn="0.4.1.20.1" id="g186" >
                    <title id="title188" >package:SOLDERJUMPER_2WAY_OPEN_NOPASTE</title>
                </g>
            </g>
            <g gorn="0.4.1.21" id="g190" >
                <title id="title192" >element:SJ2</title>
                <g gorn="0.4.1.21.1" id="g194" >
                    <title id="title196" >package:SOLDERJUMPER_2WAY_OPEN_NOPASTE</title>
                </g>
            </g>
            <g gorn="0.4.1.22" id="g198" >
                <title id="title200" >element:SJ3</title>
                <g gorn="0.4.1.22.1" id="g202" >
                    <title id="title204" >package:SOLDERJUMPER_2WAY_OPEN_NOPASTE</title>
                </g>
            </g>
            <g gorn="0.4.1.23" id="g206" >
                <title id="title208" >element:SJ4</title>
                <g gorn="0.4.1.23.1" id="g210" >
                    <title id="title212" >package:SOLDERJUMPER_2WAY_OPEN_NOPASTE</title>
                </g>
            </g>
            <g gorn="0.4.1.24" id="g214" >
                <title id="title216" >element:U$8</title>
                <g gorn="0.4.1.24.1" id="g218" >
                    <title id="title220" >package:MOUNTINGHOLE_2.5_PLATED</title>
                    <circle gorn="0.4.1.24.1.1" id="circle222" cx="50.400002" cy="7.1999998"  r="5.6692901" style="fill:none;stroke:#ffffff;stroke-width:0.57599998"/>
                </g>
            </g>
            <g gorn="0.4.1.25" id="g224" >
                <title id="title226" >element:U$9</title>
                <g gorn="0.4.1.25.1" id="g228" >
                    <title id="title230" >package:MOUNTINGHOLE_2.5_PLATED</title>
                    <circle gorn="0.4.1.25.1.1" id="circle232" cx="7.1999998" cy="7.1999998"  r="5.6692901" style="fill:none;stroke:#ffffff;stroke-width:0.57599998"/>
                </g>
            </g>
            <g gorn="0.4.1.26" id="g234" >
                <title id="title236" >element:U$18</title>
                <g gorn="0.4.1.26.1" id="g238" >
                    <title id="title240" >package:ADAFRUIT_3.5MM</title>
                </g>
            </g>
            <g gorn="0.4.1.27" id="g242" >
                <title id="title244" >element:U$19</title>
                <g gorn="0.4.1.27.1" id="g246" >
                    <title id="title248" >package:ADAFRUIT_3.5MM</title>
                </g>
            </g>
            <g gorn="0.4.1.28" id="g250" >
                <title id="title252" >element:U1</title>
                <g gorn="0.4.1.28.1" id="g254" >
                    <title id="title256" >package:TDFN10_3X4MM</title>
                    <line gorn="0.4.1.28.1.1" id="line258" x2="34.883099" x1="34.883099"  y1="32.003101" y2="31.1527" style="stroke:#ffffff;stroke-width:0.36000001;stroke-linecap:round"/>
                    <line gorn="0.4.1.28.1.2" id="line260" x2="22.9776" x1="34.883099"  y1="31.1527" y2="31.1527" style="stroke:#ffffff;stroke-width:0.36000001;stroke-linecap:round"/>
                    <line gorn="0.4.1.28.1.3" id="line262" x2="22.9776" x1="22.9776"  y1="31.1527" y2="32.003101" style="stroke:#ffffff;stroke-width:0.36000001;stroke-linecap:round"/>
                    <line gorn="0.4.1.28.1.4" id="line264" x2="22.9776" x1="22.9776"  y1="39.373199" y2="40.223598" style="stroke:#ffffff;stroke-width:0.36000001;stroke-linecap:round"/>
                    <line gorn="0.4.1.28.1.5" id="line266" x2="34.883099" x1="22.9776"  y1="40.223598" y2="40.223598" style="stroke:#ffffff;stroke-width:0.36000001;stroke-linecap:round"/>
                    <line gorn="0.4.1.28.1.6" id="line268" x2="34.883099" x1="34.883099"  y1="40.223598" y2="39.373199" style="stroke:#ffffff;stroke-width:0.36000001;stroke-linecap:round"/>
                    <circle gorn="0.4.1.28.1.7" id="circle270" cx="21.702" cy="31.1527"  r="0.283465" style="fill:none;stroke:#ffffff;stroke-width:0.85039198"/>
                </g>
            </g>
            <g gorn="0.4.1.29" id="g272" >
                <title id="title274" >element:U2</title>
                <g gorn="0.4.1.29.1" id="g276" >
                    <title id="title278" >package:SOT23-5</title>
                    <line gorn="0.4.1.29.1.1" id="line280" x2="2.0296099" x1="2.0296099"  y1="29.7241" y2="34.259499" style="stroke:#ffffff;stroke-width:0.57599998;stroke-linecap:round"/>
                    <line gorn="0.4.1.29.1.2" id="line282" x2="11.3839" x1="11.3839"  y1="29.7241" y2="34.259499" style="stroke:#ffffff;stroke-width:0.57599998;stroke-linecap:round"/>
                    <line gorn="0.4.1.29.1.3" id="line284" x2="7.8406601" x1="5.5729198"  y1="29.0154" y2="29.0154" style="stroke:#ffffff;stroke-width:0.57599998;stroke-linecap:round"/>
                </g>
            </g>
            <g gorn="0.4.1.30" id="g286" >
                <title id="title288" >element:X1</title>
                <g gorn="0.4.1.30.1" id="g290" >
                    <title id="title292" >package:TERMBLOCK_1X2-3.5MM</title>
                    <line gorn="0.4.1.30.1.1" id="line294" x2="38.437801" x1="38.437801"  y1="20.077801" y2="4.2037802" style="stroke:#ffffff;stroke-width:0.57599998;stroke-linecap:round"/>
                    <line gorn="0.4.1.30.1.2" id="line296" x2="38.437801" x1="38.437801"  y1="4.2037802" y2="0.235276" style="stroke:#ffffff;stroke-width:0.57599998;stroke-linecap:round"/>
                    <line gorn="0.4.1.30.1.3" id="line298" x2="18.595301" x1="38.437801"  y1="0.235276" y2="0.235276" style="stroke:#ffffff;stroke-width:0.57599998;stroke-linecap:round"/>
                    <line gorn="0.4.1.30.1.4" id="line300" x2="18.595301" x1="18.595301"  y1="0.235276" y2="4.2037802" style="stroke:#ffffff;stroke-width:0.57599998;stroke-linecap:round"/>
                    <line gorn="0.4.1.30.1.5" id="line302" x2="18.595301" x1="18.595301"  y1="4.2037802" y2="20.077801" style="stroke:#ffffff;stroke-width:0.57599998;stroke-linecap:round"/>
                    <line gorn="0.4.1.30.1.6" id="line304" x2="38.437801" x1="18.595301"  y1="20.077801" y2="20.077801" style="stroke:#ffffff;stroke-width:0.57599998;stroke-linecap:round"/>
                    <line gorn="0.4.1.30.1.7" id="line306" x2="18.595301" x1="38.437801"  y1="4.2037802" y2="4.2037802" style="stroke:#ffffff;stroke-width:0.57599998;stroke-linecap:round"/>
                </g>
            </g>
        </g>
        <g  transform="matrix(-1,0,0,-1,22.2123,81.1843)">
            <g >
                <g gorn="0.4.2.0.0" id="g308" >
                    <rect gorn="0.4.2.0.0.0" x="9.2635899" y="38.466099" id="connector5pin"  height="4.2519698" width="3.68504" style="fill:#9a916c;stroke:none;stroke-width:0"/>
                </g>
            </g>
        </g>
        <g  transform="matrix(-1,0,0,-1,11.4407,81.1843)">
            <g >
                <g gorn="0.4.3.0.0" id="g311" >
                    <rect gorn="0.4.3.0.0.0" x="3.8778" y="38.466099" id="connector6pin"  height="4.2519698" width="3.68504" style="fill:#9a916c;stroke:none;stroke-width:0"/>
                </g>
            </g>
        </g>
        <rect gorn="0.4.4" x="3.61134" y="19.6497" id="connector7pin"  height="4.2519698" width="3.68504" style="fill:#9a916c;stroke:none;stroke-width:0"/>
        <rect gorn="0.4.5" x="8.9971905" y="19.6497" id="connector8pin"  height="4.2519698" width="3.68504" style="fill:#9a916c;stroke:none;stroke-width:0"/>
        <rect gorn="0.4.6" x="25.115" y="25.7782" id="connector9pin"  height="4.2519698" width="3.68504" style="fill:#9a916c;stroke:none;stroke-width:0"/>
        <rect gorn="0.4.7" x="30.500799" y="25.7782" id="connector10pin"  height="4.2519698" width="3.68504" style="fill:#9a916c;stroke:none;stroke-width:0"/>
        <rect gorn="0.4.8" x="19.2756" y="20.7297" id="connector11pin"  height="4.2519698" width="3.68504" style="fill:#9a916c;stroke:none;stroke-width:0"/>
        <rect gorn="0.4.9" x="24.6614" y="20.7297" id="connector12pin"  height="4.2519698" width="3.68504" style="fill:#9a916c;stroke:none;stroke-width:0"/>
        <g  transform="matrix(-1,0,0,-1,73.8821,45.7115)">
            <g >
                <g gorn="0.4.10.0.0" id="g320" >
                    <rect gorn="0.4.10.0.0.0" x="35.098598" y="20.7297" id="connector13pin"  height="4.2519698" width="3.68504" style="fill:#9a916c;stroke:none;stroke-width:0"/>
                </g>
            </g>
        </g>
        <g  transform="matrix(-1,0,0,-1,63.1105,45.7115)">
            <g >
                <g gorn="0.4.11.0.0" id="g323" >
                    <rect gorn="0.4.11.0.0.0" x="29.7127" y="20.7297" id="connector14pin"  height="4.2519698" width="3.68504" style="fill:#9a916c;stroke:none;stroke-width:0"/>
                </g>
            </g>
        </g>
        <rect gorn="0.4.12" x="36.652" y="27.9723" id="connector15pin"  rx="1.41732" height="2.83465" width="2.83465" ry="1.41732" style="fill:#9a916c;stroke:none;stroke-width:0"/>
        <rect gorn="0.4.13" x="2.2195301" y="14.6948" id="connector16pin"  rx="1.41732" height="2.83465" width="2.83465" ry="1.41732" style="fill:#9a916c;stroke:none;stroke-width:0"/>
        <circle gorn="0.4.14" id="connector17pin" cx="54" connectorname="DATA" cy="50.400002"  r="1.96866" style="fill:none;stroke:#9a916c;stroke-width:1.10267997"/>
        <circle gorn="0.4.15" id="connector18pin" cx="46.799999" connectorname="A3" cy="50.400002"  r="1.96866" style="fill:none;stroke:#9a916c;stroke-width:1.10267997"/>
        <circle gorn="0.4.16" id="connector19pin" cx="39.599998" connectorname="A2" cy="50.400002"  r="1.96866" style="fill:none;stroke:#9a916c;stroke-width:1.10267997"/>
        <circle gorn="0.4.17" id="connector20pin" cx="32.400002" connectorname="A1" cy="50.400002"  r="1.96866" style="fill:none;stroke:#9a916c;stroke-width:1.10267997"/>
        <circle gorn="0.4.18" id="connector21pin" cx="25.200001" connectorname="A0" cy="50.400002"  r="1.96866" style="fill:none;stroke:#9a916c;stroke-width:1.10267997"/>
        <circle gorn="0.4.19" id="connector22pin" cx="18" connectorname="3.3V" cy="50.400002"  r="1.96866" style="fill:none;stroke:#9a916c;stroke-width:1.10267997"/>
        <circle gorn="0.4.20" id="connector23pin" cx="10.8" connectorname="VIN" cy="50.400002"  r="1.96866" style="fill:none;stroke:#9a916c;stroke-width:1.10267997"/>
        <circle gorn="0.4.21" id="connector24pin" cx="3.5999999" connectorname="GND" cy="50.400002"  r="1.96866" style="fill:none;stroke:#9a916c;stroke-width:1.10267997"/>
        <circle gorn="0.4.22" id="connector25pin" cx="50.400002" connectorname="P$1" cy="7.1999998"  r="4.26331" style="fill:none;stroke:#9a916c;stroke-width:1.44000006"/>
        <circle gorn="0.4.23" id="connector26pin" cx="7.1999998" connectorname="P$1" cy="7.1999998"  r="4.26331" style="fill:none;stroke:#9a916c;stroke-width:1.44000006"/>
        <rect gorn="0.4.24" x="21.928801" y="32.499199" id="connector27pin"  height="0.70866102" width="2.5511799" style="fill:#9a916c;stroke:none;stroke-width:0"/>
        <rect gorn="0.4.25" x="21.928801" y="33.9165" id="connector28pin"  height="0.70866102" width="2.5511799" style="fill:#9a916c;stroke:none;stroke-width:0"/>
        <rect gorn="0.4.26" x="21.928801" y="35.3339" id="connector29pin"  height="0.70866102" width="2.5511799" style="fill:#9a916c;stroke:none;stroke-width:0"/>
        <rect gorn="0.4.27" x="21.928801" y="36.751202" id="connector30pin"  height="0.70866102" width="2.5511799" style="fill:#9a916c;stroke:none;stroke-width:0"/>
        <rect gorn="0.4.28" x="21.928801" y="38.168499" id="connector31pin"  height="0.70866102" width="2.5511799" style="fill:#9a916c;stroke:none;stroke-width:0"/>
        <g  transform="matrix(-1,0,0,-1,69.3127,77.0458)">
            <g >
                <g gorn="0.4.29.0.0" id="g343" >
                    <rect gorn="0.4.29.0.0.0" x="33.380798" y="38.168499" id="connector32pin"  height="0.70866102" width="2.5511799" style="fill:#9a916c;stroke:none;stroke-width:0"/>
                </g>
            </g>
        </g>
        <g  transform="matrix(-1,0,0,-1,69.3127,74.2111)">
            <g >
                <g gorn="0.4.30.0.0" id="g346" >
                    <rect gorn="0.4.30.0.0.0" x="33.380798" y="36.751202" id="connector33pin"  height="0.70866102" width="2.5511799" style="fill:#9a916c;stroke:none;stroke-width:0"/>
                </g>
            </g>
        </g>
        <g  transform="matrix(-1,0,0,-1,69.3127,71.3764)">
            <g >
                <g gorn="0.4.31.0.0" id="g349" >
                    <rect gorn="0.4.31.0.0.0" x="33.380798" y="35.3339" id="connector34pin"  height="0.70866102" width="2.5511799" style="fill:#9a916c;stroke:none;stroke-width:0"/>
                </g>
            </g>
        </g>
        <g  transform="matrix(-1,0,0,-1,69.3127,68.5418)">
            <g >
                <g gorn="0.4.32.0.0" id="g352" >
                    <rect gorn="0.4.32.0.0.0" x="33.380798" y="33.9165" id="connector35pin"  height="0.70866102" width="2.5511799" style="fill:#9a916c;stroke:none;stroke-width:0"/>
                </g>
            </g>
        </g>
        <g  transform="matrix(-1,0,0,-1,69.3127,65.7071)">
            <g >
                <g gorn="0.4.33.0.0" id="g355" >
                    <rect gorn="0.4.33.0.0.0" x="33.380798" y="32.499199" id="connector36pin"  height="0.70866102" width="2.5511799" style="fill:#9a916c;stroke:none;stroke-width:0"/>
                </g>
            </g>
        </g>
        <rect gorn="0.4.34" x="25.3871" y="32.499199" id="connector37pin"  height="6.3779502" width="7.0866098" style="fill:#9a916c;stroke:none;stroke-width:0"/>
        <rect gorn="0.4.35" x="3.2343299" y="33.976398" id="connector38pin"  height="3.4015801" width="1.55905" style="fill:#9a916c;stroke:none;stroke-width:0"/>
        <rect gorn="0.4.36" x="5.9272399" y="33.976398" id="connector39pin"  height="3.4015801" width="1.55905" style="fill:#9a916c;stroke:none;stroke-width:0"/>
        <rect gorn="0.4.37" x="8.6201296" y="33.976398" id="connector40pin"  height="3.4015801" width="1.55905" style="fill:#9a916c;stroke:none;stroke-width:0"/>
        <rect gorn="0.4.38" x="8.6201296" y="26.6057" id="connector41pin"  height="3.4015801" width="1.55905" style="fill:#9a916c;stroke:none;stroke-width:0"/>
        <rect gorn="0.4.39" x="3.2343299" y="26.6057" id="connector42pin"  height="3.4015801" width="1.55905" style="fill:#9a916c;stroke:none;stroke-width:0"/>
        <circle cx="23.697599" connectorname="YELLOW+" cy="10.44"  r="2.25666" style="fill:none;stroke:#9a916c;stroke-width:1.67867994"/>
        <circle cx="33.6189" connectorname="RED-" cy="10.44"  r="2.25666" style="fill:none;stroke:#9a916c;stroke-width:1.67867994"/>
    </g>
    <g  transform="translate(5.57873,38.8206)">
        <g >
            <g gorn="0.5.0.0" id="0805-cap" >
                <g  transform="matrix(-1,0,0,-1,5.669,3.543)">
                    <g >
                        <g gorn="0.5.0.0.0.0.0" id="g367" >
                            <path gorn="0.5.0.0.0.0.0.0" id="path369" d="m 5.386,3.543 -5.103,0 C 0.127,3.543 0,3.416 0,3.26 L 0,0.283 C 0,0.127 0.127,0 0.283,0 l 5.102,0 c 0.157,0 0.283,0.127 0.283,0.283 l 0,2.977 C 5.669,3.416 5.542,3.543 5.386,3.543 Z"  style="fill:#dcdcdc"/>
                            <rect gorn="0.5.0.0.0.0.0.1" x="1.063" y="0" id="rect371"  height="3.543" width="3.543" style="fill:#6e554b"/>
                        </g>
                    </g>
                </g>
            </g>
        </g>
    </g>
    <g  transform="translate(5.31228,20.0043)">
        <g >
            <g gorn="0.6.0.0" id="g373" >
                <path gorn="0.6.0.0.0" id="path375" d="m 5.386,3.543 -5.103,0 C 0.127,3.543 0,3.416 0,3.26 L 0,0.283 C 0,0.127 0.127,0 0.283,0 l 5.102,0 c 0.157,0 0.283,0.127 0.283,0.283 l 0,2.977 C 5.669,3.416 5.542,3.543 5.386,3.543 Z"  style="fill:#dcdcdc"/>
                <rect gorn="0.6.0.0.1" x="1.063" y="0" id="rect377"  height="3.543" width="3.543" style="fill:#6e554b"/>
            </g>
        </g>
    </g>
    <g  transform="translate(26.8159,26.1328)">
        <g >
            <g gorn="0.7.0.0" id="g379" >
                <path gorn="0.7.0.0.0" id="path381" d="m 5.386,3.543 -5.103,0 C 0.127,3.543 0,3.416 0,3.26 L 0,0.283 C 0,0.127 0.127,0 0.283,0 l 5.102,0 c 0.157,0 0.283,0.127 0.283,0.283 l 0,2.977 C 5.669,3.416 5.542,3.543 5.386,3.543 Z"  style="fill:#dcdcdc"/>
                <rect gorn="0.7.0.0.1" x="1.063" y="0" id="rect383"  height="3.543" width="3.543" style="fill:#6e554b"/>
            </g>
        </g>
    </g>
    <g  transform="translate(20.9766,21.0843)">
        <g >
            <g gorn="0.8.0.0" id="0805" >
                <path gorn="0.8.0.0.0" id="path386" d="m 5.386,3.543 -5.103,0 C 0.127,3.543 0,3.416 0,3.26 L 0,0.283 C 0,0.127 0.127,0 0.283,0 l 5.102,0 c 0.157,0 0.283,0.127 0.283,0.283 l 0,2.977 C 5.669,3.416 5.542,3.543 5.386,3.543 Z"  style="fill:#dcdcdc"/>
                <rect gorn="0.8.0.0.1" x="1.063" y="0" id="rect388"  height="3.543" width="3.543" style="fill:#333333"/>
            </g>
        </g>
    </g>
    <g  transform="translate(31.4137,21.0843)">
        <g >
            <g gorn="0.9.0.0" id="g390" >
                <g  transform="matrix(-1,0,0,-1,5.669,3.543)">
                    <g >
                        <g gorn="0.9.0.0.0.0.0" id="g392" >
                            <path gorn="0.9.0.0.0.0.0.0" id="path394" d="m 5.386,3.543 -5.103,0 C 0.127,3.543 0,3.416 0,3.26 L 0,0.283 C 0,0.127 0.127,0 0.283,0 l 5.102,0 c 0.157,0 0.283,0.127 0.283,0.283 l 0,2.977 C 5.669,3.416 5.542,3.543 5.386,3.543 Z"  style="fill:#dcdcdc"/>
                            <rect gorn="0.9.0.0.0.0.0.1" x="1.063" y="0" id="rect396"  height="3.543" width="3.543" style="fill:#333333"/>
                        </g>
                    </g>
                </g>
            </g>
        </g>
    </g>
    <g  transform="translate(12.03,24.2715)">
        <g >
            <g gorn="0.10.0.0" id="adafruit_3.5mm" >
                <path gorn="0.10.0.0.0" id="path399" d="M 9.77299,4.306 C 9.74099,4.106 9.63199,4.049 9.36999,3.965 9.171,3.901 7.83698,3.476 7.83698,3.476 c 0,0 -0.930002,-0.351 -1.619,0.146 C 6.125,3.688 6.029,3.765 5.932,3.846 6.014,3.749 6.09,3.653 6.156,3.56 6.651,2.87 6.299,1.941 6.299,1.941 6.299,1.941 5.872,0.607 5.807,0.408 5.7219997,0.146 5.665,0.038 5.465,0.006 5.265,-0.026 5.177,0.06 5.016,0.283 4.894,0.453 4.077,1.59 4.077,1.59 c 0,0 -0.621,0.777 -0.361,1.586 C 3.75,3.285 3.793,3.4 3.841,3.517 3.774,3.409 3.706,3.308 3.638,3.215 3.135,2.531 2.142,2.579 2.142,2.579 c 0,0 -1.4,-0.006 -1.61,-0.006 C 0.257,2.572 0.136,2.593 0.044,2.774 -0.047,2.955 0.007,3.065 0.17,3.287 c 0.124,0.169 0.952999,1.297 0.952999,1.297 0,0 0.546,0.830002 1.395,0.833998 0.114,0 0.236,-0.005 0.362,-0.014 -0.122,0.03 -0.24,0.064 -0.348,0.1 C 1.726,5.771 1.465,6.73 1.465,6.73 c 0,0 -0.438,1.32997 -0.503001,1.52898 -0.085997,0.261 -0.102996,0.38304 0.040001,0.52603 0.144,0.143 0.265,0.126 0.526,0.04 0.199,-0.06499 1.528,-0.50599 1.528,-0.50599 0,0 0.958003,-0.263 1.224,-1.07 0.036,-0.108 0.069,-0.225 0.1,-0.348 C 4.371,7.027 4.366,7.149 4.367,7.263 c 0.005,0.849002 0.835999,1.394 0.835999,1.394 0,0 1.13,0.826999 1.298,0.950998 C 6.724,9.76997 6.834,9.82397 7.015,9.73202 c 0.181,-0.092 0.201,-0.213 0.2,-0.488 -10e-4,-0.21 -0.009,-1.61 -0.009,-1.61 0,0 0.047,-0.993002 -0.639,-1.495 C 6.475,6.072 6.373,6.004 6.266,5.937 6.383,5.984 6.498,6.027 6.606,6.061 7.416,6.319 8.19,5.697 8.19,5.697 c 0,0 1.136,-0.819 1.306,-0.940997 C 9.71899,4.595 9.80503,4.507 9.77299,4.306 Z M 4.951,3.275 C 5.103,3.299 5.179,3.624 5.12,4.001 5.061,4.378 4.889,4.663 4.736,4.639 4.583,4.615 4.507,4.29 4.567,3.914 4.626,3.537 4.798,3.251 4.951,3.275 Z M 2.995,4.274 C 3.065,4.136 3.397,4.164 3.737003,4.337 4.077,4.51 4.295,4.762 4.225,4.9 4.155,5.038 3.823,5.01 3.483,4.837 3.143,4.664 2.925,4.412 2.995,4.274 Z M 4.026,6.152 C 3.757,6.422 3.449,6.552 3.34,6.443 3.231,6.334 3.36,6.027 3.63,5.757 3.899,5.487 4.206,5.357 4.316,5.466 4.425,5.575 4.295,5.882 4.026,6.152 Z M 5.51,6.785 C 5.372,6.855 5.12,6.637 4.947,6.298 4.773,5.958 4.744,5.625 4.882,5.555003 c 0.138,-0.069997 0.39,0.148 0.563,0.487 C 5.618,6.382 5.647,6.714 5.51,6.785 Z M 5.867,5.212 C 5.49,5.272 5.166,5.197 5.141,5.044 5.117,4.891 5.403,4.719 5.779,4.659 6.156,4.599 6.48,4.674 6.504998,4.827 6.529,4.98 6.244,5.152 5.867,5.212 Z"  style="fill:#dcdcdc"/>
            </g>
        </g>
    </g>
    <g  transform="translate(24.497368,28.916002)">
        <g >
            <g gorn="0.11.0.0" id="tdfn10_3x4mm" >
                <g  transform="matrix(0,1,-1,0,11.126,2.62206)">
                    <g >
                        <g gorn="0.11.0.0.0.0.0" id="g402" >
                            <metadata id="metadata19" >
                                <rdf:RDF xmlns:rdf="http://www.w3.org/1999/02/22-rdf-syntax-ns#">
                                    <cc:Work xmlns:rdf="http://www.w3.org/1999/02/22-rdf-syntax-ns#" rdf:about="" xmlns:cc="http://creativecommons.org/ns#">
                                        <dc:format xmlns:dc="http://purl.org/dc/elements/1.1/">image/svg+xml</dc:format>
                                        <dc:type xmlns:rdf="http://www.w3.org/1999/02/22-rdf-syntax-ns#" rdf:resource="http://purl.org/dc/dcmitype/StillImage" xmlns:dc="http://purl.org/dc/elements/1.1/"/>
                                        <dc:title xmlns:dc="http://purl.org/dc/elements/1.1/"/>
                                    </cc:Work>
                                </rdf:RDF>
                            </metadata>
                            <defs id="defs17" />
                            <rect gorn="0.11.0.0.0.0.0.2" x="6.7039299" y="-7.6606602e-07" id="rect3370"  height="13.748" width="0.68000001" style="fill:#dcdcdc"/>
                            <rect gorn="0.11.0.0.0.0.0.3" x="5.2866101" y="-7.6606602e-07" id="rect3368"  height="13.748" width="0.68000001" style="fill:#dcdcdc"/>
                            <rect gorn="0.11.0.0.0.0.0.4" x="3.8692901" y="-7.6606602e-07" id="rect3366"  height="13.748" width="0.68000001" style="fill:#dcdcdc"/>
                            <rect gorn="0.11.0.0.0.0.0.5" x="2.4519701" y="-7.6606602e-07" id="rect3364"  height="13.748" width="0.68000001" style="fill:#dcdcdc"/>
                            <rect gorn="0.11.0.0.0.0.0.6" x="1.03465" y="-7.6606602e-07" id="rect3"  height="13.748" width="0.68000001" style="fill:#dcdcdc"/>
                            <rect gorn="0.11.0.0.0.0.0.7" x="3.4332299e-06" y="2.62205" id="rect3374"  rx="0.85039198" height="8.5039196" width="8.5039196" ry="0.85039198" style="fill:#333333;fill-rule:evenodd;stroke:#000000;stroke-width:0;stroke-linecap:butt;stroke-linejoin:miter;stroke-miterlimit:4;stroke-dasharray:none;stroke-opacity:1"/>
                            <ellipse gorn="0.11.0.0.0.0.0.8" id="circle13" cx="1.1336" cy="9.8067598"  rx="0.56720001" ry="0.57841903"/>
                        </g>
                    </g>
                </g>
            </g>
        </g>
    </g>
    <g  transform="translate(2.59676,28.1648)">
        <g >
            <g gorn="0.12.0.0" id="sot23-5" >
                <g gorn="0.12.0.0.0" id="g415" >
                    <rect gorn="0.12.0.0.0.0" x="0.850003" y="0" id="rect417"  height="7.6540298" width="1.1339999" style="fill:#dcdcdc"/>
                    <rect gorn="0.12.0.0.0.1" x="6.2360001" y="0" id="rect419"  height="7.6540298" width="1.1339999" style="fill:#dcdcdc"/>
                    <rect gorn="0.12.0.0.0.2" x="3.543" y="4.5349998" id="rect421"  height="3.118" width="1.1339999" style="fill:#dcdcdc"/>
                    <rect gorn="0.12.0.0.0.3" x="0" y="1.559" id="rect423"  height="4.5349998" width="8.2200203" style="fill:#303030"/>
                </g>
            </g>
        </g>
    </g>
    <g  transform="translate(17.4613,0.235259)">
        <g >
            <g gorn="0.13.0.0" id="termblock_1x2-3.5mm" >
                <g  transform="matrix(-1,0,0,-1,22.1105,19.8426)">
                    <g >
                        <g gorn="0.13.0.0.0.0.0" id="g426" >
                            <metadata id="metadata31" >
                                <rdf:RDF xmlns:rdf="http://www.w3.org/1999/02/22-rdf-syntax-ns#">
                                    <cc:Work xmlns:rdf="http://www.w3.org/1999/02/22-rdf-syntax-ns#" rdf:about="" xmlns:cc="http://creativecommons.org/ns#">
                                        <dc:format xmlns:dc="http://purl.org/dc/elements/1.1/">image/svg+xml</dc:format>
                                        <dc:type xmlns:rdf="http://www.w3.org/1999/02/22-rdf-syntax-ns#" rdf:resource="http://purl.org/dc/dcmitype/StillImage" xmlns:dc="http://purl.org/dc/elements/1.1/"/>
                                        <dc:title xmlns:dc="http://purl.org/dc/elements/1.1/"/>
                                    </cc:Work>
                                </rdf:RDF>
                            </metadata>
                            <defs id="defs29" />
                            <rect gorn="0.13.0.0.0.0.0.2" x="18.708599" y="12.1887" id="rect431"  height="5.1018801" width="2.26794" style="fill:#0c3878"/>
                            <rect gorn="0.13.0.0.0.0.0.3" x="19.8426" y="1.13397" id="rect5"  height="2.26794" width="2.26794" style="fill:#0c3878"/>
                            <g  transform="scale(1.2499696,1.2499696)">
                                <g >
                                    <polygon gorn="0.13.0.0.0.0.0.4.0.0" id="polygon7" points="0.9072,10.8848 0,10.8848 0,12.6992 0.9072,12.6992 0.9072,14.74 16.7808,14.74 16.7808,12.6992 15.8744,12.6992 15.8744,10.8848 16.7808,10.8848 16.7808,0 0.9072,0 "  style="fill:#015dd9"/>
                                </g>
                            </g>
                            <circle gorn="0.13.0.0.0.0.0.5" id="circle9" cx="6.0948501" cy="9.9207401"  r="3.6849101" style="fill:#b4b4b4"/>
                            <circle gorn="0.13.0.0.0.0.0.6" id="circle11" cx="16.0156" cy="9.9207401"  r="3.6849101" style="fill:#b4b4b4"/>
                            <rect gorn="0.13.0.0.0.0.0.7" x="2.55094" y="1.41697" id="rect13"  height="2.8349299" width="7.3698502" style="fill:#0c3878"/>
                            <rect gorn="0.13.0.0.0.0.0.8" x="11.3387" y="1.41697" id="rect15"  height="2.8349299" width="7.3698502" style="fill:#0c3878"/>
                            <g  transform="scale(1.2499696,1.2499696)">
                                <g >
                                    <polygon points="3.7416,14.4712 6.0096,14.4712 6.0096,15.8744 11.6784,15.8744 11.6784,14.4712 13.9464,14.4712 13.9464,15.8744 16.7808,15.8744 16.7808,13.6064 0.9072,13.6064 0.9072,15.8744 3.7416,15.8744 "  style="fill:#0c3878"/>
                                </g>
                            </g>
                            <rect gorn="0.13.0.0.0.0.0.10" x="1.84296" y="17.8046" id="connector44pin"  height="1.70096" width="8.5037804" style="fill:#8c8c8c"/>
                            <rect gorn="0.13.0.0.0.0.0.11" x="11.7637" y="17.8046" id="connector43pin"  height="1.70096" width="8.5037804" style="fill:#8c8c8c"/>
                            <path gorn="0.13.0.0.0.0.0.12" id="path23" d="m 6.18185,6.96283 -1.64296,0.439989 0.513988,1.91696 -2.63294,0.705983 c 0.008,0.281993 0.038999,0.564986 0.114997,0.848981 0.075998,0.283992 0.190995,0.544987 0.324992,0.792979 L 5.492867,10.96174 6.006855,12.87869 7.649815,12.4387 7.135827,10.52175 9.768767,9.815766 C 9.760743,9.534773 9.729775,9.250781 9.653769,8.967786 9.5777687,8.684792 9.462774,8.421798 9.328777,8.173806 L 6.69583,8.87976 6.18185,6.96283 Z"  connector-curvature="0" style="fill:#646464"/>
                            <path gorn="0.13.0.0.0.0.0.13" id="path25" d="m 13.4977,8.36582 -0.43999,1.64296 1.91695,0.513988 -0.705982,2.63294 c 0.247994,0.133996 0.508987,0.248993 0.792979,0.324992 0.283992,0.076 0.567986,0.106997 0.848981,0.114997 l 0.705983,-2.63294 1.91696,0.513987 0.439989,-1.64296 -1.91696,-0.513987 0.705983,-2.63294 C 17.5146,6.55284 17.2536,6.43784 16.9696,6.36185 c -0.284,-0.07601 -0.568,-0.107 -0.849,-0.115 l -0.707,2.63291 -1.9159,-0.51394 z"  connector-curvature="0" style="fill:#646464"/>
                        </g>
                    </g>
                </g>
            </g>
        </g>
    </g>
</svg>
