<?xml version='1.0' encoding='UTF-8' standalone='no'?>
<!-- Created with Fritzing (http://www.fritzing.org/) -->
<svg xmlns="http://www.w3.org/2000/svg"  id="svg5239" viewBox="0 0 36 28.8" y="0in" x="0in" gorn="0" height="0.4in" version="1.2" width="0.5in">
    <desc >
        <referenceFile >Breadboard NeoPixel_breadboard.svg</referenceFile>
    </desc>
    <metadata  id="metadata5443"/>
    <defs  id="defs5441"/>
    <desc  id="desc5241">Fritzing breadboard generated by brd2svg</desc>
    <path  id="path5245" d="M 7.2,0 28.8,0 A 7.2,7.2 0 0 1 36,7.2 l 0,14.4 a 7.2,7.2 0 0 1 -7.2,7.2 l -21.6,0 A 7.2,7.2 0 0 1 0,21.6 L 0,7.2 A 7.2,7.2 0 0 1 7.2,0 m 7.6819,3.6 a 3.11811,3.11811 0 0 0 6.23622,0 3.11811,3.11811 0 1 0 -6.23622,0 z m 0,21.6 a 3.11811,3.11811 0 0 0 6.23622,0 3.11811,3.11811 0 1 0 -6.23622,0 z M 2.16,21.6 a 1.44,1.44 0 0 0 2.88,0 1.44,1.44 0 1 0 -2.88,0 z m 0,-7.2 a 1.44,1.44 0 0 0 2.88,0 1.44,1.44 0 1 0 -2.88,0 z m 0,-7.2 a 1.44,1.44 0 0 0 2.88,0 1.44,1.44 0 1 0 -2.88,0 z m 28.8,0 a 1.44,1.44 0 0 0 2.88,0 1.44,1.44 0 1 0 -2.88,0 z m 0,7.2 a 1.44,1.44 0 0 0 2.88,0 1.44,1.44 0 1 0 -2.88,0 z m 0,7.2 a 1.44,1.44 0 0 0 2.88,0 1.44,1.44 0 1 0 -2.88,0 z" style="fill:#014cb1;stroke:none;stroke-width:0" gorn="0.4"/>
    <g  id="g5251" gorn="0.5">
        <title  id="title5253">text:+</title>
        <text  id="text5255" y="9" x="6.48" style="font-size:4.17600012px;font-family:OCRA;text-anchor:start;fill:#ffffff;stroke:none;stroke-width:0" font-size="4.176" gorn="0.5.1">+</text>
    </g>
    <g  id="g5257" gorn="0.6">
        <title  id="title5259">text:G</title>
        <text  id="text5261" y="15.84" x="27.360001" style="font-size:3.34080005px;font-family:OCRA;text-anchor:start;fill:#ffffff;stroke:none;stroke-width:0" font-size="3.3408" gorn="0.6.1">G</text>
    </g>
    <g  id="g5263" gorn="0.7">
        <title  id="title5265">text:+</title>
        <text  id="text5267" y="9" x="27" style="font-size:4.17600012px;font-family:OCRA;text-anchor:start;fill:#ffffff;stroke:none;stroke-width:0" font-size="4.176" gorn="0.7.1">+</text>
    </g>
    <g  id="g5269" gorn="0.8">
        <title  id="title5271">text:G</title>
        <text  id="text5273" y="15.84" x="6.8400002" style="font-size:3.34080005px;font-family:OCRA;text-anchor:start;fill:#ffffff;stroke:none;stroke-width:0" font-size="3.3408" gorn="0.8.1">G</text>
    </g>
    <g  transform="translate(-0.60403699,0)">
        <g >
            <g >
                <g  id="g5275" gorn="0.9.0.0.0">
                    <title  id="title5277">text:In</title>
                    <text  id="text5279" y="23.040001" x="6.48" style="font-size:3.34080005px;font-family:OCRA;text-anchor:start;fill:#ffffff;stroke:none;stroke-width:0" font-size="3.3408" gorn="0.9.0.0.0.1">In</text>
                </g>
            </g>
        </g>
    </g>
    <g  id="g5281" gorn="0.10">
        <title  id="title5283">text:O</title>
        <text  id="text5285" y="23.040001" x="27.360001" style="font-size:3.34080005px;font-family:OCRA;text-anchor:start;fill:#ffffff;stroke:none;stroke-width:0" font-size="3.3408" gorn="0.10.1">O</text>
    </g>
    <g  id="g5287" gorn="0.11">
        <title  id="title5289">element:C1</title>
        <g  id="g5291" gorn="0.11.1">
            <title  id="title5293">package:0603-NO</title>
        </g>
    </g>
    <g  id="g5295" gorn="0.12">
        <title  id="title5297">element:JP1</title>
        <g  id="g5299" gorn="0.12.1">
            <title  id="title5301">package:1X03-CLEANBIG</title>
        </g>
    </g>
    <g  id="g5303" gorn="0.13">
        <title  id="title5305">element:JP2</title>
        <g  id="g5307" gorn="0.13.1">
            <title  id="title5309">package:1X03-CLEANBIG</title>
        </g>
    </g>
    <g  id="g5311" gorn="0.14">
        <title  id="title5313">element:LED1</title>
        <g  id="g5315" gorn="0.14.1">
            <title  id="title5317">package:WS28115050</title>
            <line  id="line5319" x1="10.9134" style="stroke:#ffffff;stroke-width:0.36000001;stroke-linecap:round" y2="7.3133998" x2="25.086599" y1="7.3133998" gorn="0.14.1.1"/>
            <line  id="line5321" x1="25.086599" style="stroke:#ffffff;stroke-width:0.36000001;stroke-linecap:round" y2="18.652" x2="25.086599" y1="7.3133998" gorn="0.14.1.2"/>
            <line  id="line5323" x1="25.086599" style="stroke:#ffffff;stroke-width:0.36000001;stroke-linecap:round" y2="21.486601" x2="25.086599" y1="18.652" gorn="0.14.1.3"/>
            <line  id="line5325" x1="25.086599" style="stroke:#ffffff;stroke-width:0.36000001;stroke-linecap:round" y2="21.486601" x2="22.252001" y1="21.486601" gorn="0.14.1.4"/>
            <line  id="line5327" x1="22.252001" style="stroke:#ffffff;stroke-width:0.36000001;stroke-linecap:round" y2="21.486601" x2="10.9134" y1="21.486601" gorn="0.14.1.5"/>
            <line  id="line5329" x1="10.9134" style="stroke:#ffffff;stroke-width:0.36000001;stroke-linecap:round" y2="7.3133998" x2="10.9134" y1="21.486601" gorn="0.14.1.6"/>
            <line  id="line5331" x1="22.252001" style="stroke:#ffffff;stroke-width:0.36000001;stroke-linecap:round" y2="18.652" x2="25.086599" y1="21.486601" gorn="0.14.1.7"/>
            <circle  id="circle5333" r="0.400819" cy="22.019501" cx="26.3169" style="fill:none;stroke:#ffffff;stroke-width:0.36000001" gorn="0.14.1.8"/>
            <circle  id="circle5335" r="5.9527602" cy="14.4" cx="18" style="fill:none;stroke:#ffffff;stroke-width:0.36000001" gorn="0.14.1.9"/>
        </g>
    </g>
    <g  id="g5337" gorn="0.15">
        <title  id="title5339">element:R1</title>
        <g  id="g5341" gorn="0.15.1">
            <title  id="title5343">package:0603-NO</title>
        </g>
    </g>
    <g  id="g5345" gorn="0.16">
        <title  id="title5347">element:R2</title>
        <g  id="g5349" gorn="0.16.1">
            <title  id="title5351">package:0603-NO</title>
        </g>
    </g>
    <g  id="g5353" gorn="0.17">
        <title  id="title5355">element:R3</title>
        <g  id="g5357" gorn="0.17.1">
            <title  id="title5359">package:0603-NO</title>
        </g>
    </g>
    <g  id="g5361" gorn="0.18">
        <title  id="title5363">element:U$1</title>
        <g  id="g5365" gorn="0.18.1">
            <title  id="title5367">package:ADAFRUIT_2.5MM</title>
        </g>
    </g>
    <rect  id="connector0pin" y="1.82268" x="22.311501" style="fill:#9a916c;stroke:none;stroke-width:0" gorn="0.19" height="2.83465" width="3.1181099"/>
    <rect  id="connector1pin" y="1.82268" x="27.1304" style="fill:#9a916c;stroke:none;stroke-width:0" gorn="0.20" height="2.83465" width="3.1181099"/>
    <circle  id="connector2pin" r="1.908" cy="21.6" cx="3.5999999" style="fill:none;stroke:#9a916c;stroke-width:0.93599999" connectorname="IN" gorn="0.21"/>
    <circle  id="connector3pin" r="1.908" cy="14.4" cx="3.5999999" style="fill:none;stroke:#9a916c;stroke-width:0.93599999" connectorname="GND" gorn="0.22"/>
    <circle  id="connector4pin" r="1.908" cy="7.1999998" cx="3.5999999" style="fill:none;stroke:#9a916c;stroke-width:0.93599999" connectorname="VDD" gorn="0.23"/>
    <circle  id="connector5pin" r="1.908" cy="7.1999998" cx="32.400002" style="fill:none;stroke:#9a916c;stroke-width:0.93599999" connectorname="VDD" gorn="0.24"/>
    <circle  id="connector6pin" r="1.908" cy="14.4" cx="32.400002" style="fill:none;stroke:#9a916c;stroke-width:0.93599999" connectorname="GND" gorn="0.25"/>
    <circle  id="connector7pin" r="1.908" cy="21.6" cx="32.400002" style="fill:none;stroke:#9a916c;stroke-width:0.93599999" connectorname="OUT" gorn="0.26"/>
    <rect  id="connector8pin" y="12.8409" x="20.8346" style="fill:#9a916c;stroke:none;stroke-width:0" gorn="0.27" height="3.1181099" width="5.6692901"/>
    <rect  id="connector9pin" y="17.659901" x="20.8346" style="fill:#9a916c;stroke:none;stroke-width:0" gorn="0.28" height="3.1181099" width="5.6692901"/>
    <rect  id="connector10pin" y="12.8409" x="9.4960804" style="fill:#9a916c;stroke:none;stroke-width:0" gorn="0.29" height="3.1181099" width="5.6692901"/>
    <rect  id="connector11pin" y="8.0220203" x="9.4960804" style="fill:#9a916c;stroke:none;stroke-width:0" gorn="0.30" height="3.1181099" width="5.6692901"/>
    <rect  id="connector12pin" y="8.0220203" x="20.8346" style="fill:#9a916c;stroke:none;stroke-width:0" gorn="0.31" height="3.1181099" width="5.6692901"/>
    <rect  id="connector13pin" y="17.659901" x="9.4960804" style="fill:#9a916c;stroke:none;stroke-width:0" gorn="0.32" height="3.1181099" width="5.6692901"/>
    <g  transform="matrix(-1,0,0,-1,24.2589,6.48)">
        <g >
            <g >
                <g  id="g5383" gorn="0.33.0.0.0">
                    <rect  id="connector14pin" y="1.82268" x="10.5704" style="fill:#9a916c;stroke:none;stroke-width:0" gorn="0.33.0.0.0.0" height="2.83465" width="3.1181099"/>
                </g>
            </g>
        </g>
    </g>
    <g  transform="matrix(-1,0,0,-1,14.6211,6.48)">
        <g >
            <g >
                <g  id="g5386" gorn="0.34.0.0.0">
                    <rect  id="connector15pin" y="1.82268" x="5.7515001" style="fill:#9a916c;stroke:none;stroke-width:0" gorn="0.34.0.0.0.0" height="2.83465" width="3.1181099"/>
                </g>
            </g>
        </g>
    </g>
    <rect  id="connector16pin" y="24.1427" x="22.311501" style="fill:#9a916c;stroke:none;stroke-width:0" gorn="0.35" height="2.83465" width="3.1181099"/>
    <rect  id="connector17pin" y="24.1427" x="27.1304" style="fill:#9a916c;stroke:none;stroke-width:0" gorn="0.36" height="2.83465" width="3.1181099"/>
    <g  transform="matrix(-1,0,0,-1,24.2589,51.12)">
        <g >
            <g >
                <g  id="g5391" gorn="0.37.0.0.0">
                    <rect  id="connector18pin" y="24.1427" x="10.5704" style="fill:#9a916c;stroke:none;stroke-width:0" gorn="0.37.0.0.0.0" height="2.83465" width="3.1181099"/>
                </g>
            </g>
        </g>
    </g>
    <g  transform="matrix(-1,0,0,-1,14.6211,51.12)">
        <g >
            <g >
                <g  id="g5394" gorn="0.38.0.0.0">
                    <rect  id="connector19pin" y="24.1427" x="5.7515001" style="fill:#9a916c;stroke:none;stroke-width:0" gorn="0.38.0.0.0.0" height="2.83465" width="3.1181099"/>
                </g>
            </g>
        </g>
    </g>
    <g  transform="translate(24.0125,2.106)">
        <g >
            <g >
                <g  id="0603-cap" gorn="0.39.0.0.0">
                    <path  id="path5398" d="m 4.245,2.268 -3.955,0 C 0.13,2.268 0,2.138 0,1.977 L 0,0.29 C 0,0.13 0.13,0 0.29,0 l 3.955,0 c 0.16,0 0.29,0.13 0.29,0.29 l 0,1.687 c 0,0.161 -0.13,0.291 -0.29,0.291 z" style="fill:#dcdcdc" gorn="0.39.0.0.0.0"/>
                    <rect  id="rect5400" y="0" x="1.1339999" style="fill:#6e554b" gorn="0.39.0.0.0.1" height="2.2679999" width="2.2679999"/>
                </g>
            </g>
        </g>
    </g>
    <g  transform="translate(10.3992,7.262504)">
        <g >
            <g >
                <g  id="ws28115050" gorn="0.40.0.0.0">
                    <metadata  id="metadata31">
                        <rdf:RDF xmlns:rdf="http://www.w3.org/1999/02/22-rdf-syntax-ns#">
                            <cc:Work rdf:about="" xmlns:cc="http://creativecommons.org/ns#" xmlns:rdf="http://www.w3.org/1999/02/22-rdf-syntax-ns#">
                                <dc:format xmlns:dc="http://purl.org/dc/elements/1.1/">image/svg+xml</dc:format>
                                <dc:type rdf:resource="http://purl.org/dc/dcmitype/StillImage" xmlns:dc="http://purl.org/dc/elements/1.1/" xmlns:rdf="http://www.w3.org/1999/02/22-rdf-syntax-ns#"/>
                                <dc:title xmlns:dc="http://purl.org/dc/elements/1.1/"/>
                            </cc:Work>
                        </rdf:RDF>
                    </metadata>
                    <defs  id="defs29"/>
                    <g  transform="matrix(0,1,-1,0,0,0)">
                        <g >
                            <g >
                                <rect  id="rect4170" y="-15.3073" x="10.7726" style="fill:#dcdcdc" gorn="0.40.0.0.0.2.0.0.0" height="15.3073" width="1.98403"/>
                            </g>
                        </g>
                    </g>
                    <g  transform="matrix(0,1,-1,0,0,0)">
                        <g >
                            <g >
                                <rect  id="rect5" y="-15.3073" x="1.41842" style="fill:#dcdcdc" gorn="0.40.0.0.0.3.0.0.0" height="15.3073" width="1.98403"/>
                            </g>
                        </g>
                    </g>
                    <g  transform="matrix(0,1,-1,0,0,0)">
                        <g >
                            <g >
                                <rect  id="rect7" y="-15.3073" x="6.0865002" style="fill:#dcdcdc" gorn="0.40.0.0.0.4.0.0.0" height="15.3073" width="1.98403"/>
                            </g>
                        </g>
                    </g>
                    <rect  id="rect9" y="3.0294601e-008" x="0.56670898" style="fill:#f0f0f0" gorn="0.40.0.0.0.5" height="14.1732" width="14.1732"/>
                    <circle  id="circle11" r="6.0240998" cy="7.08711" cx="7.65382" style="fill:#dcdcdc" gorn="0.40.0.0.0.6"/>
                    <circle  id="circle13" r="4.9610801" cy="7.08711" cx="7.65382" style="fill:#c8c8c8" gorn="0.40.0.0.0.7"/>
                    <g  transform="matrix(1.25002,0,0,1.25002,-3.00216e-4,-1.98403)">
                        <g >
                            <g >
                                <polygon  id="polygon15" style="fill:#e6e6e6" points="0.4536,3.628 2.4944,1.5872 0.4536,1.5872 " gorn="0.40.0.0.0.8.0.0.0"/>
                            </g>
                        </g>
                    </g>
                    <path  connector-curvature="0" id="path17" d="m 10.7258,4.25207 0,0.124002 c 0,0.157002 -0.127002,0.283005 -0.283004,0.283005 l -2.00604,0 c -0.157002,0 -0.283004,-0.127002 -0.283004,-0.283005 l 0,-2.19904 C 7.986749,2.160032 7.824747,2.127031 7.653744,2.127031 c -0.171003,0 -0.333005,0.033001 -0.500008,0.050001 l 0,6.90511 c 0,0.157002 -0.127002,0.283004 -0.283005,0.283004 l -2.00704,0 c -0.157002,0 -0.283005,-0.127002 -0.283005,-0.283004 l 0,-4.83008 c 0,-0.157002 -0.127002,-0.283005 -0.283005,-0.283005 l -0.474008,0 C 3.12775,4.82308 2.69274,5.8991 2.69274,7.08711 c 0,1.26302 0.486008,2.40204 1.26302,3.27805 l 2.91405,0 c 0.157002,0 0.283005,0.127002 0.283005,0.283005 l 0,1.34902 c 0.167003,0.017 0.329005,0.05 0.500008,0.05 0.171003,0 0.333005,-0.033 0.500008,-0.05 l 0,-6.0541 c 0,-0.157002 0.127002,-0.283005 0.283004,-0.283005 l 2.00604,0 c 0.157002,0 0.283004,0.127002 0.283004,0.283005 l 0,3.97907 c 0,0.157002 0.127002,0.283004 0.283005,0.283004 l 0.473008,0 c 0.696011,-0.854014 1.13102,-1.93003 1.13102,-3.11805 0,-1.18802 -0.435007,-2.26403 -1.13102,-3.11805 l -0.471007,0 c -0.157002,0 -0.284005,0.127002 -0.284005,0.283005 z" style="fill:#f0f0f0" gorn="0.40.0.0.0.9"/>
                    <rect  id="rect19" y="6.8601098" x="4.7217698" style="fill:#645050" gorn="0.40.0.0.0.10" height="1.70103" width="2.2680399"/>
                    <rect  id="rect21" y="6.8031101" x="8.4948502" style="fill:#ff4000" gorn="0.40.0.0.0.11" height="0.56700897" width="0.85000998"/>
                    <rect  id="rect23" y="9.6381397" x="8.4948502" style="fill:#40ff40" gorn="0.40.0.0.0.12" height="0.56700897" width="0.85000998"/>
                    <rect  id="rect25" y="3.9690599" x="8.4948502" style="fill:#4040ff" gorn="0.40.0.0.0.13" height="0.56700897" width="0.85000998"/>
                </g>
            </g>
        </g>
    </g>
    <g  transform="translate(7.4525,2.106)">
        <g >
            <g >
                <g  id="0603-res" gorn="0.41.0.0.0">
                    <g  transform="matrix(-1,0,0,-1,4.535,2.268)">
                        <g >
                            <g >
                                <g  id="g5419" gorn="0.41.0.0.0.0.0.0.0">
                                    <path  id="path5421" d="m 4.245,2.268 -3.955,0 C 0.13,2.268 0,2.138 0,1.977 L 0,0.29 C 0,0.13 0.13,0 0.29,0 l 3.955,0 c 0.16,0 0.29,0.13 0.29,0.29 l 0,1.687 c 0,0.161 -0.13,0.291 -0.29,0.291 z" style="fill:#dcdcdc" gorn="0.41.0.0.0.0.0.0.0.0"/>
                                    <rect  id="rect5423" y="0" x="1.1339999" style="fill:#333333" gorn="0.41.0.0.0.0.0.0.0.1" height="2.2679999" width="2.2679999"/>
                                </g>
                            </g>
                        </g>
                    </g>
                </g>
            </g>
        </g>
    </g>
    <g  transform="translate(24.0125,24.426)">
        <g >
            <g >
                <g  id="g5425" gorn="0.42.0.0.0">
                    <path  id="path5427" d="m 4.245,2.268 -3.955,0 C 0.13,2.268 0,2.138 0,1.977 L 0,0.29 C 0,0.13 0.13,0 0.29,0 l 3.955,0 c 0.16,0 0.29,0.13 0.29,0.29 l 0,1.687 c 0,0.161 -0.13,0.291 -0.29,0.291 z" style="fill:#dcdcdc" gorn="0.42.0.0.0.0"/>
                    <rect  id="rect5429" y="0" x="1.1339999" style="fill:#333333" gorn="0.42.0.0.0.1" height="2.2679999" width="2.2679999"/>
                </g>
            </g>
        </g>
    </g>
    <g  transform="translate(7.4525,24.426)">
        <g >
            <g >
                <g  id="g5431" gorn="0.43.0.0.0">
                    <g  transform="matrix(-1,0,0,-1,4.535,2.268)">
                        <g >
                            <g >
                                <g  id="g5433" gorn="0.43.0.0.0.0.0.0.0">
                                    <path  id="path5435" d="m 4.245,2.268 -3.955,0 C 0.13,2.268 0,2.138 0,1.977 L 0,0.29 C 0,0.13 0.13,0 0.29,0 l 3.955,0 c 0.16,0 0.29,0.13 0.29,0.29 l 0,1.687 c 0,0.161 -0.13,0.291 -0.29,0.291 z" style="fill:#dcdcdc" gorn="0.43.0.0.0.0.0.0.0.0"/>
                                    <rect  id="rect5437" y="0" x="1.1339999" style="fill:#333333" gorn="0.43.0.0.0.0.0.0.0.1" height="2.2679999" width="2.2679999"/>
                                </g>
                            </g>
                        </g>
                    </g>
                </g>
            </g>
        </g>
    </g>
</svg>
