<?xml version='1.0' encoding='UTF-8' standalone='no'?>
<!-- Created with Fritzing (http://www.fritzing.org/) -->
<svg xmlns="http://www.w3.org/2000/svg" x="0in" y="0in" baseProfile="tiny"  height="0.6in" viewBox="0 0 28.8 43.2" version="1.2" width="0.4in">
    <desc >
        <referenceFile >Adafruit LM3671_breadboard.svg</referenceFile>
    </desc>
    <desc >Fritzing breadboard generated by brd2svg</desc>
    <g id="breadboard"  gorn="0.2">
        <g id="icon"  gorn="0.2.0">
            <path fill="#014cb1"  stroke-width="0" d="M0,43.2L0,7.2A7.2,7.2,0,0,1,7.2,0L21.6,0A7.2,7.2,0,0,1,28.8,7.2L28.8,43.2L0,43.2M23.7827,36a1.41732,1.41732,0,1,0,2.83465,0,1.41732,1.41732,0,1,0,-2.83465,0zM16.5827,36a1.41732,1.41732,0,1,0,2.83465,0,1.41732,1.41732,0,1,0,-2.83465,0zM9.38268,36a1.41732,1.41732,0,1,0,2.83465,0,1.41732,1.41732,0,1,0,-2.83465,0zM2.18268,36a1.41732,1.41732,0,1,0,2.83465,0,1.41732,1.41732,0,1,0,-2.83465,0zM10.8567,7.2a3.54331,3.54331,0,1,0,7.08661,0,3.54331,3.54331,0,1,0,-7.08661,0z" stroke="none"/>
            <g >
                <title >layer 21</title>
                <g >
                    <title >text:LM3671</title>
                    <text x="9.72" y="33.1992" font-family="OCRA" fill="#ffffff"  font-size="3.7584" text-anchor="middle" stroke-width="0" stroke="none">LM3671</text>
                </g>
                <g >
                    <title >text:GND</title>
                    <text x="4.32" y="42.5016" font-family="OCRA" fill="#ffffff"  font-size="2.9232" text-anchor="middle" stroke-width="0" stroke="none">GND</text>
                </g>
                <g >
                    <title >text:3V</title>
                    <text x="10.8" y="42.7104" font-family="OCRA" fill="#ffffff"  font-size="3.3408" text-anchor="middle" stroke-width="0" stroke="none">3V</text>
                </g>
                <g >
                    <title >text:Vin</title>
                    <text x="18.36" y="42.7104" font-family="OCRA" fill="#ffffff"  font-size="3.3408" text-anchor="middle" stroke-width="0" stroke="none">Vin</text>
                </g>
                <g >
                    <title >text:En</title>
                    <text x="25.56" y="42.7104" font-family="OCRA" fill="#ffffff"  font-size="3.3408" text-anchor="middle" stroke-width="0" stroke="none">En</text>
                </g>
                <g >
                    <title >element:C1</title>
                    <g >
                        <title >package:0805-NO</title>
                        <line x1="8.64" y2="15.84"  stroke-width="0.864" y1="18.72" stroke-linecap="round" x2="8.64" stroke="white"/>
                    </g>
                </g>
                <g >
                    <title >element:C2</title>
                    <g >
                        <title >package:0805-NO</title>
                        <line x1="22.68" y2="25.92"  stroke-width="0.864" y1="25.92" stroke-linecap="round" x2="25.56" stroke="white"/>
                    </g>
                </g>
                <g >
                    <title >element:FID1</title>
                    <g >
                        <title >package:FIDUCIAL_1MM</title>
                    </g>
                </g>
                <g >
                    <title >element:JP1</title>
                    <g >
                        <title >package:1X04_ROUND</title>
                    </g>
                </g>
                <g >
                    <title >element:L1</title>
                    <g >
                        <title >package:INDUCTOR_TAIYOYUDEN_NRH2412T</title>
                        <line x1="1.71496" y2="20.228"  stroke-width="0.36" y1="28.732" stroke-linecap="round" x2="1.71496" stroke="white"/>
                        <line x1="1.71496" y2="20.228"  stroke-width="0.36" y1="20.228" stroke-linecap="round" x2="9.08503" stroke="white"/>
                        <line x1="9.08503" y2="28.732"  stroke-width="0.36" y1="20.228" stroke-linecap="round" x2="9.08503" stroke="white"/>
                        <line x1="9.08503" y2="28.732"  stroke-width="0.36" y1="28.732" stroke-linecap="round" x2="1.71496" stroke="white"/>
                    </g>
                </g>
                <g >
                    <title >element:R1</title>
                    <g >
                        <title >package:0805-NO</title>
                        <line x1="23.4" y2="13.68"  stroke-width="0.864" y1="16.56" stroke-linecap="round" x2="23.4" stroke="white"/>
                    </g>
                </g>
                <g >
                    <title >element:U$9</title>
                    <g >
                        <title >package:MOUNTINGHOLE_2.5_PLATED</title>
                        <circle fill="none"  cx="14.4" stroke-width="0.576" cy="7.2" stroke="white" r="5.66929"/>
                    </g>
                </g>
                <g >
                    <title >element:U$10</title>
                    <g >
                        <title >package:PCBFEAT-REV-040</title>
                    </g>
                </g>
                <g >
                    <title >element:U$11</title>
                    <g >
                        <title >package:ADAFRUIT_2.5MM</title>
                    </g>
                </g>
                <g >
                    <title >element:U1</title>
                    <g >
                        <title >package:SOT23-5</title>
                        <line x1="13.2123" y2="29.1572"  stroke-width="0.576" y1="29.1572" stroke-linecap="round" x2="17.7477" stroke="white"/>
                        <line x1="13.2123" y2="19.8028"  stroke-width="0.576" y1="19.8028" stroke-linecap="round" x2="17.7477" stroke="white"/>
                        <line x1="12.5036" y2="23.3461"  stroke-width="0.576" y1="25.6139" stroke-linecap="round" x2="12.5036" stroke="white"/>
                    </g>
                </g>
            </g>
            <g  transform="matrix(-1, 0, 0, -1, 22.6658, 34.56)">
                <g >
                    <g >
                        <g >
                            <g >
                                <rect x="9.49039" y="15.154" id="connector0pin" fill="#9A916C"  height="4.25197" stroke-width="0" width="3.68504" stroke="none" gorn="0.2.0.2.0.0.0.0.0"/>
                            </g>
                        </g>
                    </g>
                </g>
            </g>
            <g  transform="matrix(-1, 0, 0, -1, 11.8942, 34.56)">
                <g >
                    <g >
                        <g >
                            <g >
                                <rect x="4.10457" y="15.154" id="connector1pin" fill="#9A916C"  height="4.25197" stroke-width="0" width="3.68504" stroke="none" gorn="0.2.0.3.0.0.0.0.0"/>
                            </g>
                        </g>
                    </g>
                </g>
            </g>
            <g  transform="matrix(0, -1, 1, 0, -4.49292, 52.7329)">
                <g >
                    <g >
                        <g >
                            <g >
                                <rect x="22.2774" y="26.4869" id="connector2pin" fill="#9A916C"  height="4.25197" stroke-width="0" width="3.68504" stroke="none" gorn="0.2.0.4.0.0.0.0.0"/>
                            </g>
                        </g>
                    </g>
                </g>
            </g>
            <g  transform="matrix(0, -1, 1, 0, 0.892915, 47.3471)">
                <g >
                    <g >
                        <g >
                            <g >
                                <rect x="22.2774" y="21.1011" id="connector3pin" fill="#9A916C"  height="4.25197" stroke-width="0" width="3.68504" stroke="none" gorn="0.2.0.5.0.0.0.0.0"/>
                            </g>
                        </g>
                    </g>
                </g>
            </g>
            <rect x="2.90268" y="5.78268" id="connector4pin" fill="#9A916C"  height="2.83465" stroke-width="0" rx="1.41732" ry="1.41732" width="2.83465" stroke="none" gorn="0.2.0.6"/>
            <circle id="connector5pin" connectorname="EN" fill="none"  cx="25.2" stroke-width="0.95868" cy="36" stroke="#9A916C" r="1.89666" gorn="0.2.0.7"/>
            <circle id="connector6pin" connectorname="VIN" fill="none"  cx="18" stroke-width="0.95868" cy="36" stroke="#9A916C" r="1.89666" gorn="0.2.0.8"/>
            <circle id="connector7pin" connectorname="3.3V" fill="none"  cx="10.8" stroke-width="0.95868" cy="36" stroke="#9A916C" r="1.89666" gorn="0.2.0.9"/>
            <circle id="connector8pin" connectorname="GND" fill="none"  cx="3.6" stroke-width="0.95868" cy="36" stroke="#9A916C" r="1.89666" gorn="0.2.0.10"/>
            <g  transform="matrix(0, -1, 1, 0, -21.1351, 31.9351)">
                <g >
                    <g >
                        <g >
                            <g >
                                <rect x="3.98268" y="23.7005" id="connector9pin" fill="#9A916C"  height="5.66929" stroke-width="0" width="2.83465" stroke="none" gorn="0.2.0.11.0.0.0.0.0"/>
                            </g>
                        </g>
                    </g>
                </g>
            </g>
            <g  transform="matrix(0, -1, 1, 0, -17.0249, 27.8249)">
                <g >
                    <g >
                        <g >
                            <g >
                                <rect x="3.98268" y="19.5903" id="connector10pin" fill="#9A916C"  height="5.66929" stroke-width="0" width="2.83465" stroke="none" gorn="0.2.0.12.0.0.0.0.0"/>
                            </g>
                        </g>
                    </g>
                </g>
            </g>
            <g  transform="matrix(-1, 0, 0, -1, 52.1858, 30.24)">
                <g >
                    <g >
                        <g >
                            <g >
                                <rect x="24.2504" y="12.994" id="connector11pin" fill="#9A916C"  height="4.25197" stroke-width="0" width="3.68504" stroke="none" gorn="0.2.0.13.0.0.0.0.0"/>
                            </g>
                        </g>
                    </g>
                </g>
            </g>
            <g  transform="matrix(-1, 0, 0, -1, 41.4142, 30.24)">
                <g >
                    <g >
                        <g >
                            <g >
                                <rect x="18.8646" y="12.994" id="connector12pin" fill="#9A916C"  height="4.25197" stroke-width="0" width="3.68504" stroke="none" gorn="0.2.0.14.0.0.0.0.0"/>
                            </g>
                        </g>
                    </g>
                </g>
            </g>
            <circle id="connector13pin" connectorname="P$1" fill="none"  cx="14.4" stroke-width="1.44" cy="7.2" stroke="#9A916C" r="4.26331" gorn="0.2.0.15"/>
            <g  transform="matrix(0, -1, 1, 0, -8.00762, 46.3383)">
                <g >
                    <g >
                        <g >
                            <g >
                                <rect x="18.3858" y="25.4722" id="connector14pin" fill="#9A916C"  height="3.40158" stroke-width="0" width="1.55905" stroke="none" gorn="0.2.0.16.0.0.0.0.0"/>
                            </g>
                        </g>
                    </g>
                </g>
            </g>
            <g  transform="matrix(0, -1, 1, 0, -5.31468, 43.6453)">
                <g >
                    <g >
                        <g >
                            <g >
                                <rect x="18.3858" y="22.7792" id="connector15pin" fill="#9A916C"  height="3.40158" stroke-width="0" width="1.55905" stroke="none" gorn="0.2.0.17.0.0.0.0.0"/>
                            </g>
                        </g>
                    </g>
                </g>
            </g>
            <g  transform="matrix(0, -1, 1, 0, -2.62176, 40.9524)">
                <g >
                    <g >
                        <g >
                            <g >
                                <rect x="18.3858" y="20.0863" id="connector16pin" fill="#9A916C"  height="3.40158" stroke-width="0" width="1.55905" stroke="none" gorn="0.2.0.18.0.0.0.0.0"/>
                            </g>
                        </g>
                    </g>
                </g>
            </g>
            <g  transform="matrix(0, -1, 1, 0, -9.99238, 33.5817)">
                <g >
                    <g >
                        <g >
                            <g >
                                <rect x="11.0151" y="20.0863" id="connector17pin" fill="#9A916C"  height="3.40158" stroke-width="0" width="1.55905" stroke="none" gorn="0.2.0.19.0.0.0.0.0"/>
                            </g>
                        </g>
                    </g>
                </g>
            </g>
            <g  transform="matrix(0, -1, 1, 0, -15.3783, 38.9676)">
                <g >
                    <g >
                        <g >
                            <g >
                                <rect x="11.0151" y="25.4722" id="connector18pin" fill="#9A916C"  height="3.40158" stroke-width="0" width="1.55905" stroke="none" gorn="0.2.0.20.0.0.0.0.0"/>
                            </g>
                        </g>
                    </g>
                </g>
            </g>
        </g>
        <g  transform="matrix(1, 0, 0, 1, 5.8055, 15.5085)">
            <g >
                <g >
                    <g >
                        <g id="0805-cap"  gorn="0.2.1.0.0.0.0">
                            <g  transform="matrix(-1, 0, 0, -1, 5.669, 3.543)">
                                <g >
                                    <g >
                                        <g >
                                            <g >
                                                <path fill="#DCDCDC"  d="M5.386,3.543L0.283,3.543C0.127,3.543,0,3.416,0,3.26L0,0.283C0,0.127,0.127,0,0.283,0l5.102,0c0.157,0,0.283,0.127,0.283,0.283L5.668,3.26C5.669,3.416,5.542,3.543,5.386,3.543z"/>
                                                <rect x="1.063" fill="#6E554B"  height="3.543" width="3.543"/>
                                            </g>
                                        </g>
                                    </g>
                                </g>
                            </g>
                        </g>
                    </g>
                </g>
            </g>
        </g>
        <g  transform="matrix(1, 0, 0, 1, 21.2855, 24.1485)">
            <g >
                <g >
                    <g >
                        <g id="0805-cap"  gorn="0.2.2.0.0.0.0">
                            <g  transform="matrix(0, -1, 1, 0, 1.063, 4.606)">
                                <g >
                                    <g >
                                        <g >
                                            <g >
                                                <path fill="#DCDCDC"  d="M5.386,3.543L0.283,3.543C0.127,3.543,0,3.416,0,3.26L0,0.283C0,0.127,0.127,0,0.283,0l5.102,0c0.157,0,0.283,0.127,0.283,0.283L5.668,3.26C5.669,3.416,5.542,3.543,5.386,3.543z"/>
                                                <rect x="1.063" fill="#6E554B"  height="3.543" width="3.543"/>
                                            </g>
                                        </g>
                                    </g>
                                </g>
                            </g>
                        </g>
                    </g>
                </g>
            </g>
        </g>
        <g  transform="matrix(1, 0, 0, 1, 1.9985, 21.0785)">
            <g >
                <g >
                    <g >
                        <g id="inductor_taiyoyuden_nrh2412t"  gorn="0.2.3.0.0.0.0">
                            <g  transform="matrix(0, -1, 1, 0, 0, 6.803)">
                                <g >
                                    <g >
                                        <g >
                                            <g >
                                                <g >
                                                    <path fill="#333333"  d="M6.803,0.709l0,5.385c0,0.313,-0.254,0.567,-0.567,0.567L0.567,6.661C0.254,6.661,0,6.407,0,6.094l0,-5.386c0,-0.313,0.254,-0.567,0.567,-0.567l5.669,0C6.549,0.142,6.803,0.395,6.803,0.709z"/>
                                                    <path fill="#666666"  d="M5.953,1.51l0,3.783c0,0.15,-0.06,0.295,-0.166,0.401L4.843,6.637c-0.106,0.106,-0.25,0.166,-0.401,0.166L2.361,6.803c-0.151,0,-0.295,-0.06,-0.401,-0.166L1.016,5.693C0.910001,5.587,0.850003,5.443,0.850003,5.293L0.850003,1.511c0,-0.15,0.06,-0.295,0.166,-0.401L1.96,0.166C2.066,0.06,2.21,0,2.361,0l2.082,0c0.15,0,0.295,0.06,0.401,0.166l0.942998,0.942998C5.893,1.216,5.953,1.36,5.953,1.51z"/>
                                                </g>
                                            </g>
                                        </g>
                                    </g>
                                </g>
                            </g>
                        </g>
                    </g>
                </g>
            </g>
        </g>
        <g  transform="matrix(1, 0, 0, 1, 20.5655, 13.3485)">
            <g >
                <g >
                    <g >
                        <g id="0805-res"  gorn="0.2.4.0.0.0.0">
                            <g  transform="matrix(-1, 0, 0, -1, 5.669, 3.543)">
                                <g >
                                    <g >
                                        <g >
                                            <g >
                                                <path fill="#DCDCDC"  d="M5.386,3.543L0.283,3.543C0.127,3.543,0,3.416,0,3.26L0,0.283C0,0.127,0.127,0,0.283,0l5.102,0c0.157,0,0.283,0.127,0.283,0.283L5.668,3.26C5.669,3.416,5.542,3.543,5.386,3.543z"/>
                                                <rect x="1.063" fill="#333333"  height="3.543" width="3.543"/>
                                            </g>
                                        </g>
                                    </g>
                                </g>
                            </g>
                        </g>
                    </g>
                </g>
            </g>
        </g>
        <g  transform="matrix(1, 0, 0, 1, 18.3648, 3.54357)">
            <g >
                <g >
                    <g >
                        <g id="adafruit_2.5mm"  gorn="0.2.5.0.0.0.0">
                            <path fill="#DCDCDC"  d="M9.747,3.082c-0.023,-0.142,-0.1,-0.183,-0.286,-0.243C9.31903,2.794,8.37202,2.492,8.37202,2.492s-0.66,-0.249,-1.15,0.103c-0.066,0.048,-0.134,0.102,-0.203,0.16c0.058,-0.069,0.112,-0.137,0.159,-0.203c0.352,-0.49,0.101,-1.15,0.101,-1.15S6.976,0.455,6.93,0.313C6.87,0.127,6.83,0.05,6.687,0.028C6.545,0.005,6.483,0.066,6.369,0.225c-0.0869998,0.12,-0.667,0.928001,-0.667,0.928001S5.261,1.704,5.445,2.279C5.47,2.356,5.5,2.438,5.534,2.521C5.486,2.445,5.438,2.372,5.39,2.307C5.032,1.821,4.328,1.855,4.328,1.855S3.333,1.851,3.185,1.851c-0.195,0,-0.281,0.014,-0.347,0.143C2.773,2.122,2.811,2.2,2.927,2.358c0.0879998,0.12,0.677,0.921002,0.677,0.921002s0.388,0.59,0.991001,0.592c0.081,0,0.168,-0.003,0.257,-0.01C4.765,3.883,4.681,3.907,4.604,3.932c-0.573,0.19,-0.758002,0.870998,-0.758002,0.870998s-0.31,0.943999,-0.357,1.085C3.428,6.074,3.416,6.16,3.518,6.262C3.62,6.364,3.706,6.352,3.892,6.29c0.141,-0.046,1.085,-0.359,1.085,-0.359s0.681,-0.187,0.868997,-0.760003c0.025,-0.0769997,0.049,-0.16,0.07,-0.247C5.91,5.014,5.907,5.1,5.907,5.181c0.004,0.603,0.594,0.99,0.594,0.99s0.802001,0.588,0.922003,0.675C7.58102,6.962,7.659,7,7.78802,6.935C7.91597,6.869,7.93102,6.783,7.93001,6.588C7.929,6.439,7.92403,5.445,7.92403,5.445S7.95701,4.74,7.47,4.383C7.40498,4.335,7.33198,4.287,7.25602,4.24c0.0830002,0.034,0.165,0.064,0.242,0.0879998c0.575,0.183,1.125,-0.259,1.125,-0.259S9.42998,3.488,9.55001,3.401C9.70898,3.286,9.76903,3.224,9.747,3.082zM6.322,2.35c0.108,0.017,0.162,0.248,0.12,0.515C6.4,3.132,6.278,3.335,6.169,3.318C6.061,3.301,6.007,3.07,6.049,2.803C6.091,2.535,6.213,2.332,6.322,2.35zM4.933,3.059c0.05,-0.0979999,0.286,-0.0779998,0.527,0.045c0.241,0.123,0.397,0.302,0.347,0.399C5.757,3.601,5.521,3.581,5.28,3.458C5.038,3.335,4.883,3.157,4.933,3.059zM5.665,4.393C5.474,4.584,5.256,4.677,5.178,4.599C5.101,4.521,5.193,4.303,5.384,4.112C5.575,3.92,5.793,3.827,5.871,3.905C5.949,3.983,5.857,4.201,5.665,4.393zM6.719,4.842c-0.0979999,0.05,-0.277,-0.105,-0.4,-0.346C6.196,4.254,6.175,4.018,6.273,3.968c0.0979999,-0.05,0.277,0.105,0.4,0.346C6.796,4.556,6.817,4.792,6.719,4.842zM6.973,3.725C6.706,3.767,6.475,3.714,6.457,3.606C6.44,3.497,6.643,3.375,6.91,3.332c0.267,-0.043,0.498,0.011,0.515,0.119C7.443,3.56,7.24003,3.682,6.973,3.725z"/>
                        </g>
                    </g>
                </g>
            </g>
        </g>
        <g  transform="matrix(1, 0, 0, 1, 11.37, 20.653)">
            <g >
                <g >
                    <g >
                        <g id="sot23-5"  gorn="0.2.6.0.0.0.0">
                            <g  transform="matrix(0, -1, 1, 0, 0.282996, 7.93706)">
                                <g >
                                    <g >
                                        <g >
                                            <g >
                                                <g >
                                                    <rect x="0.850003" fill="#DCDCDC"  height="7.65403" width="1.134"/>
                                                    <rect x="6.236" fill="#DCDCDC"  height="7.65403" width="1.134"/>
                                                    <rect x="3.543" y="4.535" fill="#DCDCDC"  height="3.118" width="1.134"/>
                                                    <rect y="1.559" fill="#303030"  height="4.535" width="8.22002"/>
                                                </g>
                                            </g>
                                        </g>
                                    </g>
                                </g>
                            </g>
                        </g>
                    </g>
                </g>
            </g>
        </g>
    </g>
</svg>
