<?xml version='1.0' encoding='UTF-8' standalone='no'?>
<!-- Created with Fritzing (http://www.fritzing.org/) -->
<svg xmlns="http://www.w3.org/2000/svg" gorn="0" height="1.095in" viewBox="0 0 90 78.84" version="1.2" x="0in"  id="svg2" y="0in" width="1.25in">
    <desc >
        <referenceFile >Adafruit 0.96in 160x80 TFT Display_breadboard.svg</referenceFile>
    </desc>
    <metadata  id="metadata326">
        <rdf:RDF xmlns:rdf="http://www.w3.org/1999/02/22-rdf-syntax-ns#">
            <cc:Work xmlns:cc="http://creativecommons.org/ns#" rdf:about="" xmlns:rdf="http://www.w3.org/1999/02/22-rdf-syntax-ns#">
                <dc:format xmlns:dc="http://purl.org/dc/elements/1.1/">image/svg+xml</dc:format>
                <dc:type xmlns:dc="http://purl.org/dc/elements/1.1/" rdf:resource="http://purl.org/dc/dcmitype/StillImage" xmlns:rdf="http://www.w3.org/1999/02/22-rdf-syntax-ns#"/>
                <dc:title xmlns:dc="http://purl.org/dc/elements/1.1/"/>
            </cc:Work>
        </rdf:RDF>
    </metadata>
    <defs  id="defs324"/>
    <desc  id="desc4">Fritzing breadboard generated by brd2svg</desc>
    <path gorn="0.4" style="fill:#000000;stroke:none;stroke-width:0" d="m 14.4,7.2 0,7.2 61.2,0 0,-7.2 A 7.2,7.2 0 0 1 82.8,0 7.2,7.2 0 0 1 90,7.2 l 0,64.44 a 7.2,7.2 0 0 1 -7.2,7.2 l -75.6,0 A 7.2,7.2 0 0 1 0,71.64 L 0,7.2 A 7.2,7.2 0 0 1 7.2,0 7.2,7.2 0 0 1 14.4,7.2 m 62.5097,7.2 a 0.850392,0.850392 0 1 0 1.70078,0 0.850392,0.850392 0 1 0 -1.70078,0 z m 2.52,0 a 0.850392,0.850392 0 1 0 1.70078,0 0.850392,0.850392 0 1 0 -1.70078,0 z m 2.52,0 a 0.850392,0.850392 0 1 0 1.70078,0 0.850392,0.850392 0 1 0 -1.70078,0 z m 2.52,0 a 0.850392,0.850392 0 1 0 1.70078,0 0.850392,0.850392 0 1 0 -1.70078,0 z m 2.52,0 a 0.850392,0.850392 0 1 0 1.70078,0 0.850392,0.850392 0 1 0 -1.70078,0 z m -85.68009,0 a 0.850392,0.850392 0 1 0 1.70078,0 0.850392,0.850392 0 1 0 -1.70078,0 z m 2.52,0 a 0.850392,0.850392 0 1 0 1.70078,0 0.850392,0.850392 0 1 0 -1.70078,0 z m 2.52,0 a 0.850392,0.850392 0 1 0 1.70078,0 0.850392,0.850392 0 1 0 -1.70078,0 z m 2.52,0 a 0.850392,0.850392 0 1 0 1.70078,0 0.850392,0.850392 0 1 0 -1.70078,0 z m 2.51999,0 a 0.850392,0.850392 0 1 0 1.70078,0 0.850392,0.850392 0 1 0 -1.70078,0 z M 7.58268,72 a 1.417325,1.417325 0 0 0 2.83465,0 1.417325,1.417325 0 1 0 -2.83465,0 z m 7.20002,0 a 1.417325,1.417325 0 0 0 2.83465,0 1.417325,1.417325 0 1 0 -2.83465,0 z m 7.2,0 a 1.417325,1.417325 0 0 0 2.83465,0 1.417325,1.417325 0 1 0 -2.83465,0 z m 7.2,0 a 1.417325,1.417325 0 0 0 2.83465,0 1.417325,1.417325 0 1 0 -2.83465,0 z m 7.2,0 a 1.417325,1.417325 0 1 0 2.83465,0 1.417325,1.417325 0 1 0 -2.83465,0 z m 7.2,0 a 1.417325,1.417325 0 1 0 2.83465,0 1.417325,1.417325 0 1 0 -2.83465,0 z m 7.2,0 a 1.417325,1.417325 0 1 0 2.83465,0 1.417325,1.417325 0 1 0 -2.83465,0 z m 7.2,0 a 1.417325,1.417325 0 1 0 2.83465,0 1.417325,1.417325 0 1 0 -2.83465,0 z m 7.2,0 a 1.417325,1.417325 0 1 0 2.83465,0 1.417325,1.417325 0 1 0 -2.83465,0 z m 7.1996,0 a 1.417325,1.417325 0 1 0 2.83465,0 1.417325,1.417325 0 1 0 -2.83465,0 z m 7.2,0 a 1.417325,1.417325 0 1 0 2.83465,0 1.417325,1.417325 0 1 0 -2.83465,0 z M 79.2569,7.2 a 3.54331,3.54331 0 1 0 7.08661,0 3.54331,3.54331 0 1 0 -7.08661,0 z m -75.60021,0 a 3.54331,3.54331 0 1 0 7.08661,0 3.54331,3.54331 0 1 0 -7.08661,0 z"  id="path8"/>
    <g gorn="0.5"  id="g10">
        <title  id="title12">layer 21</title>
        <g gorn="0.5.1"  id="g14">
            <title  id="title16">text:LIT</title>
            <text gorn="0.5.1.1" style="font-size:3.34080005px;font-family:OCRA;text-anchor:middle;fill:#ffffff;stroke:none;stroke-width:0" font-size="3.3408" x="81.360001"  id="text18" y="68.630402">LIT</text>
        </g>
        <g gorn="0.5.2"  id="g20">
            <title  id="title22">text:SDCS</title>
            <text gorn="0.5.2.1" style="font-size:3.34080005px;font-family:OCRA;text-anchor:middle;fill:#ffffff;stroke:none;stroke-width:0" font-size="3.3408" x="73.800003"  id="text24" y="77.990402">SDCS</text>
        </g>
        <g gorn="0.5.3"  id="g26">
            <title  id="title28">text:DC</title>
            <text gorn="0.5.3.1" style="font-size:3.34080005px;font-family:OCRA;text-anchor:middle;fill:#ffffff;stroke:none;stroke-width:0" font-size="3.3408" x="66.599998"  id="text30" y="68.630402">DC</text>
        </g>
        <g gorn="0.5.4"  id="g32">
            <title  id="title34">text:RST</title>
            <text gorn="0.5.4.1" style="font-size:3.34080005px;font-family:OCRA;text-anchor:middle;fill:#ffffff;stroke:none;stroke-width:0" font-size="3.3408" x="59.400002"  id="text36" y="77.990402">RST</text>
        </g>
        <g gorn="0.5.5"  id="g38">
            <title  id="title40">text:TFTCS</title>
            <text gorn="0.5.5.1" style="font-size:3.34080005px;font-family:OCRA;text-anchor:middle;fill:#ffffff;stroke:none;stroke-width:0" font-size="3.3408" x="52.200001"  id="text42" y="68.630402">TFTCS</text>
        </g>
        <g gorn="0.5.6"  id="g44">
            <title  id="title46">text:MOSI</title>
            <text gorn="0.5.6.1" style="font-size:3.34080005px;font-family:OCRA;text-anchor:middle;fill:#ffffff;stroke:none;stroke-width:0" font-size="3.3408" x="45"  id="text48" y="77.990402">MOSI</text>
        </g>
        <g gorn="0.5.7"  id="g50">
            <title  id="title52">text:MISO</title>
            <text gorn="0.5.7.1" style="font-size:3.34080005px;font-family:OCRA;text-anchor:middle;fill:#ffffff;stroke:none;stroke-width:0" font-size="3.3408" x="37.799999"  id="text54" y="68.630402">MISO</text>
        </g>
        <g gorn="0.5.8"  id="g56">
            <title  id="title58">text:SCK</title>
            <text gorn="0.5.8.1" style="font-size:3.34080005px;font-family:OCRA;text-anchor:middle;fill:#ffffff;stroke:none;stroke-width:0" font-size="3.3408" x="30.24"  id="text60" y="77.990402">SCK</text>
        </g>
        <g gorn="0.5.9"  id="g62">
            <title  id="title64">text:GND</title>
            <text gorn="0.5.9.1" style="font-size:3.34080005px;font-family:OCRA;text-anchor:middle;fill:#ffffff;stroke:none;stroke-width:0" font-size="3.3408" x="23.4"  id="text66" y="68.630402">GND</text>
        </g>
        <g gorn="0.5.10"  id="g68">
            <title  id="title70">text:3V</title>
            <text gorn="0.5.10.1" style="font-size:2.92319989px;font-family:OCRA;text-anchor:middle;fill:#ffffff;stroke:none;stroke-width:0" font-size="2.9232" x="16.559999"  id="text72" y="78.141602">3V</text>
        </g>
        <g gorn="0.5.11"  id="g74">
            <title  id="title76">text:Vin</title>
            <text gorn="0.5.11.1" style="font-size:3.34080005px;font-family:OCRA;text-anchor:middle;fill:#ffffff;stroke:none;stroke-width:0" font-size="3.3408" x="9.3599997"  id="text78" y="68.990402">Vin</text>
        </g>
        <g gorn="0.5.12"  id="g80">
            <title  id="title82">text:adafruit 160x80 Color TFT</title>
            <text gorn="0.5.12.1" style="font-size:4.17600012px;font-family:OCRA;text-anchor:middle;fill:#ffffff;stroke:none;stroke-width:0" font-size="4.176" x="46.080002"  id="text84" y="19.728001">adafruit 160x80 Color TFT</text>
        </g>
        <g gorn="0.5.13"  id="g86">
            <title  id="title88">element:C1</title>
            <g gorn="0.5.13.1"  id="g90">
                <title  id="title92">package:0805-NO</title>
            </g>
        </g>
        <g gorn="0.5.14"  id="g94">
            <title  id="title96">element:C2</title>
            <g gorn="0.5.14.1"  id="g98">
                <title  id="title100">package:0805-NO</title>
            </g>
        </g>
        <g gorn="0.5.15"  id="g102">
            <title  id="title104">element:C3</title>
            <g gorn="0.5.15.1"  id="g106">
                <title  id="title108">package:0805-NO</title>
            </g>
        </g>
        <g gorn="0.5.16"  id="g110">
            <title  id="title112">element:CN1</title>
            <g gorn="0.5.16.1"  id="g114">
                <title  id="title116">package:MICROSD</title>
            </g>
        </g>
        <g gorn="0.5.17"  id="g118">
            <title  id="title120">element:FID1</title>
            <g gorn="0.5.17.1"  id="g122">
                <title  id="title124">package:FIDUCIAL_1MM</title>
            </g>
        </g>
        <g gorn="0.5.18"  id="g126">
            <title  id="title128">element:FID2</title>
            <g gorn="0.5.18.1"  id="g130">
                <title  id="title132">package:FIDUCIAL_1MM</title>
            </g>
        </g>
        <g gorn="0.5.19"  id="g134">
            <title  id="title136">element:IC5</title>
            <g gorn="0.5.19.1"  id="g138">
                <title  id="title140">package:SOT23</title>
            </g>
        </g>
        <g gorn="0.5.20"  id="g142">
            <title  id="title144">element:JP1</title>
            <g gorn="0.5.20.1"  id="g146">
                <title  id="title148">package:1X11_ROUND</title>
            </g>
        </g>
        <g gorn="0.5.21"  id="g150">
            <title  id="title152">element:Q1</title>
            <g gorn="0.5.21.1"  id="g154">
                <title  id="title156">package:SOT23-WIDE</title>
            </g>
        </g>
        <g gorn="0.5.22"  id="g158">
            <title  id="title160">element:R2</title>
            <g gorn="0.5.22.1"  id="g162">
                <title  id="title164">package:0603-NO</title>
            </g>
        </g>
        <g gorn="0.5.23"  id="g166">
            <title  id="title168">element:R5</title>
            <g gorn="0.5.23.1"  id="g170">
                <title  id="title172">package:0603-NO</title>
            </g>
        </g>
        <g gorn="0.5.24"  id="g174">
            <title  id="title176">element:R7</title>
            <g gorn="0.5.24.1"  id="g178">
                <title  id="title180">package:0603-NO</title>
            </g>
        </g>
        <g gorn="0.5.25"  id="g182">
            <title  id="title184">element:R8</title>
            <g gorn="0.5.25.1"  id="g186">
                <title  id="title188">package:0603-NO</title>
            </g>
        </g>
        <g gorn="0.5.26"  id="g190">
            <title  id="title192">element:U$2</title>
            <g gorn="0.5.26.1"  id="g194">
                <title  id="title196">package:TFT_0.96IN_160X80</title>
                <line gorn="0.5.26.1.1" y1="64.873703" y2="20.0863" style="stroke:#ffffff;stroke-width:0.36000001;stroke-linecap:round"  x1="83.519997" id="line198" x2="83.519997"/>
                <line gorn="0.5.26.1.2" y1="20.0863" y2="20.0863" style="stroke:#ffffff;stroke-width:0.36000001;stroke-linecap:round"  x1="83.519997" id="line200" x2="6.98457"/>
                <line gorn="0.5.26.1.3" y1="20.0863" y2="64.873703" style="stroke:#ffffff;stroke-width:0.36000001;stroke-linecap:round"  x1="6.98457" id="line202" x2="6.98457"/>
                <line gorn="0.5.26.1.4" y1="64.873703" y2="64.873703" style="stroke:#ffffff;stroke-width:0.36000001;stroke-linecap:round"  x1="6.98457" id="line204" x2="83.519997"/>
                <line gorn="0.5.26.1.5" y1="63.739899" y2="21.2201" style="stroke:#ffffff;stroke-width:0.36000001;stroke-linecap:round"  x1="8.4019003" id="line206" x2="8.4019003"/>
                <line gorn="0.5.26.1.6" y1="21.2201" y2="21.2201" style="stroke:#ffffff;stroke-width:0.36000001;stroke-linecap:round"  x1="8.4019003" id="line208" x2="81.535698"/>
                <line gorn="0.5.26.1.7" y1="21.2201" y2="63.739899" style="stroke:#ffffff;stroke-width:0.36000001;stroke-linecap:round"  x1="81.535698" id="line210" x2="81.535698"/>
                <line gorn="0.5.26.1.8" y1="63.739899" y2="63.739899" style="stroke:#ffffff;stroke-width:0.36000001;stroke-linecap:round"  x1="81.535698" id="line212" x2="8.4019003"/>
                <line gorn="0.5.26.1.9" y1="58.920898" y2="26.039101" style="stroke:#ffffff;stroke-width:0.36000001;stroke-linecap:round"  x1="12.6539" id="line214" x2="12.6539"/>
                <line gorn="0.5.26.1.10" y1="26.039101" y2="26.039101" style="stroke:#ffffff;stroke-width:0.36000001;stroke-linecap:round"  x1="12.6539" id="line216" x2="69.800301"/>
                <line gorn="0.5.26.1.11" y1="26.039101" y2="58.920898" style="stroke:#ffffff;stroke-width:0.36000001;stroke-linecap:round"  x1="69.800301" id="line218" x2="69.800301"/>
                <line gorn="0.5.26.1.12" y1="58.920898" y2="58.920898" style="stroke:#ffffff;stroke-width:0.36000001;stroke-linecap:round"  x1="69.800301" id="line220" x2="12.6539"/>
            </g>
        </g>
        <g gorn="0.5.27"  id="g222">
            <title  id="title224">element:U$4</title>
            <g gorn="0.5.27.1"  id="g226">
                <title  id="title228">package:ADAFRUIT_3.5MM</title>
            </g>
        </g>
        <g gorn="0.5.28"  id="g230">
            <title  id="title232">element:U$6</title>
            <g gorn="0.5.28.1"  id="g234">
                <title  id="title236">package:PCBFEAT-REV-040</title>
            </g>
        </g>
        <g gorn="0.5.29"  id="g238">
            <title  id="title240">element:U$9</title>
            <g gorn="0.5.29.1"  id="g242">
                <title  id="title244">package:MOUNTINGHOLE_2.5_PLATED</title>
            </g>
        </g>
        <g gorn="0.5.30"  id="g246">
            <title  id="title248">element:U$10</title>
            <g gorn="0.5.30.1"  id="g250">
                <title  id="title252">package:MOUNTINGHOLE_2.5_PLATED</title>
            </g>
        </g>
        <g gorn="0.5.31"  id="g254">
            <title  id="title256">element:U2</title>
            <g gorn="0.5.31.1"  id="g258">
                <title  id="title260">package:SOT23-5</title>
            </g>
        </g>
        <g gorn="0.5.32"  id="g262">
            <title  id="title264">element:U3</title>
            <g gorn="0.5.32.1"  id="g266">
                <title  id="title268">package:SOIC16</title>
            </g>
        </g>
    </g>
    <circle gorn="0.6" connectorname="VIN" style="fill:none;stroke:#9a916c;stroke-width:0.95867997" r="1.89666"  id="connector0pin" cy="72" cx="9"/>
    <circle gorn="0.7" connectorname="3.3V" style="fill:none;stroke:#9a916c;stroke-width:0.95867997" r="1.89666"  id="connector1pin" cy="72" cx="16.200001"/>
    <circle gorn="0.8" connectorname="GND" style="fill:none;stroke:#9a916c;stroke-width:0.95867997" r="1.89666"  id="connector2pin" cy="72" cx="23.4"/>
    <circle gorn="0.9" connectorname="SCK" style="fill:none;stroke:#9a916c;stroke-width:0.95867997" r="1.89666"  id="connector3pin" cy="72" cx="30.6"/>
    <circle gorn="0.10" connectorname="MISO_3V" style="fill:none;stroke:#9a916c;stroke-width:0.95867997" r="1.89666"  id="connector4pin" cy="72" cx="37.799999"/>
    <circle gorn="0.11" connectorname="MOSI" style="fill:none;stroke:#9a916c;stroke-width:0.95867997" r="1.89666"  id="connector5pin" cy="72" cx="45"/>
    <circle gorn="0.12" connectorname="TFTCS" style="fill:none;stroke:#9a916c;stroke-width:0.95867997" r="1.89666"  id="connector6pin" cy="72" cx="52.200001"/>
    <circle gorn="0.13" connectorname="!TFTRST" style="fill:none;stroke:#9a916c;stroke-width:0.95867997" r="1.89666"  id="connector7pin" cy="72" cx="59.400002"/>
    <circle gorn="0.14" connectorname="DC" style="fill:none;stroke:#9a916c;stroke-width:0.95867997" r="1.89666"  id="connector8pin" cy="72" cx="66.599998"/>
    <circle gorn="0.15" connectorname="SDCS" style="fill:none;stroke:#9a916c;stroke-width:0.95867997" r="1.89666"  id="connector9pin" cy="72" cx="73.800003"/>
    <circle gorn="0.16" connectorname="BACKLIGHT" style="fill:none;stroke:#9a916c;stroke-width:0.95867997" r="1.89666"  id="connector10pin" cy="72" cx="81"/>
    <g  transform="matrix(-1,0,0,-1,110.347,112.172)">
        <g >
            <g gorn="0.17.0.0"  id="g281">
                <rect gorn="0.17.0.0.0" height="1.13386" style="fill:#9a916c;stroke:none;stroke-width:0" x="53.472698"  id="connector11pin" y="55.519299" width="3.4015801"/>
            </g>
        </g>
    </g>
    <g  transform="matrix(-1,0,0,-1,110.347,107.637)">
        <g >
            <g gorn="0.18.0.0"  id="g284">
                <rect gorn="0.18.0.0.0" height="1.13386" style="fill:#9a916c;stroke:none;stroke-width:0" x="53.472698"  id="connector12pin" y="53.251598" width="3.4015801"/>
            </g>
        </g>
    </g>
    <g  transform="matrix(-1,0,0,-1,110.347,103.102)">
        <g >
            <g gorn="0.19.0.0"  id="g287">
                <rect gorn="0.19.0.0.0" height="1.13386" style="fill:#9a916c;stroke:none;stroke-width:0" x="53.472698"  id="connector13pin" y="50.983898" width="3.4015801"/>
            </g>
        </g>
    </g>
    <g  transform="matrix(-1,0,0,-1,110.347,98.5666)">
        <g >
            <g gorn="0.20.0.0"  id="g290">
                <rect gorn="0.20.0.0.0" height="1.13386" style="fill:#9a916c;stroke:none;stroke-width:0" x="53.472698"  id="connector14pin" y="48.716202" width="3.4015801"/>
            </g>
        </g>
    </g>
    <g  transform="matrix(-1,0,0,-1,110.347,94.0306)">
        <g >
            <g gorn="0.21.0.0"  id="g293">
                <rect gorn="0.21.0.0.0" height="1.13386" style="fill:#9a916c;stroke:none;stroke-width:0" x="53.472698"  id="connector15pin" y="46.448502" width="3.4015801"/>
            </g>
        </g>
    </g>
    <g  transform="matrix(-1,0,0,-1,110.347,89.4953)">
        <g >
            <g gorn="0.22.0.0"  id="g296">
                <rect gorn="0.22.0.0.0" height="1.13386" style="fill:#9a916c;stroke:none;stroke-width:0" x="53.472698"  id="connector16pin" y="44.180801" width="3.4015801"/>
            </g>
        </g>
    </g>
    <g  transform="matrix(-1,0,0,-1,110.347,84.96)">
        <g >
            <g gorn="0.23.0.0"  id="g299">
                <rect gorn="0.23.0.0.0" height="1.13386" style="fill:#9a916c;stroke:none;stroke-width:0" x="53.472698"  id="connector17pin" y="41.913101" width="3.4015801"/>
            </g>
        </g>
    </g>
    <g  transform="matrix(-1,0,0,-1,110.347,80.4247)">
        <g >
            <g gorn="0.24.0.0"  id="g302">
                <rect gorn="0.24.0.0.0" height="1.13386" style="fill:#9a916c;stroke:none;stroke-width:0" x="53.472698"  id="connector18pin" y="39.645401" width="3.4015801"/>
            </g>
        </g>
    </g>
    <g  transform="matrix(-1,0,0,-1,110.347,75.8894)">
        <g >
            <g gorn="0.25.0.0"  id="g305">
                <rect gorn="0.25.0.0.0" height="1.13386" style="fill:#9a916c;stroke:none;stroke-width:0" x="53.472698"  id="connector19pin" y="37.377602" width="3.4015801"/>
            </g>
        </g>
    </g>
    <g  transform="matrix(-1,0,0,-1,110.347,71.3537)">
        <g >
            <g gorn="0.26.0.0"  id="g308">
                <rect gorn="0.26.0.0.0" height="1.13386" style="fill:#9a916c;stroke:none;stroke-width:0" x="53.472698"  id="connector20pin" y="35.109901" width="3.4015801"/>
            </g>
        </g>
    </g>
    <g  transform="matrix(-1,0,0,-1,110.347,66.8182)">
        <g >
            <g gorn="0.27.0.0"  id="g311">
                <rect gorn="0.27.0.0.0" height="1.13386" style="fill:#9a916c;stroke:none;stroke-width:0" x="53.472698"  id="connector21pin" y="32.842201" width="3.4015801"/>
            </g>
        </g>
    </g>
    <g  transform="matrix(-1,0,0,-1,110.347,62.2828)">
        <g >
            <g gorn="0.28.0.0"  id="g314">
                <rect gorn="0.28.0.0.0" height="1.13386" style="fill:#9a916c;stroke:none;stroke-width:0" x="53.472698"  id="connector22pin" y="30.574499" width="3.4015801"/>
            </g>
        </g>
    </g>
    <g  transform="matrix(-1,0,0,-1,110.347,57.7474)">
        <g >
            <g gorn="0.29.0.0"  id="g317">
                <rect gorn="0.29.0.0.0" height="1.13386" style="fill:#9a916c;stroke:none;stroke-width:0" x="53.472698"  id="connector23pin" y="28.306801" width="3.4015801"/>
            </g>
        </g>
    </g>
    <circle gorn="0.30" connectorname="P$1" style="fill:none;stroke:#9a916c;stroke-width:1.44000006" r="4.26331"  id="connector24pin" cy="7.1999998" cx="82.800003"/>
    <circle gorn="0.31" connectorname="P$1" style="fill:none;stroke:#9a916c;stroke-width:1.44000006" r="4.26331"  id="connector25pin" cy="7.1999998" cx="7.1999998"/>
    <g  transform="translate(-28.937147,-1.7716619)">
        <g >
            <g gorn="0.32.0.0"  id="g4591"/>
        </g>
    </g>
    <g gorn="0.33"  id="g4635">
        <g  transform="matrix(-1,0,0,0.99999998,175.45144,-1.3582741)">
            <g >
                <g gorn="0.33.0.0.0" style=""  id="g4434">
                    <g  transform="matrix(0,-0.56270777,0.82290198,0,3.4702923,68.590343)">
                        <g >
                            <polygon gorn="0.33.0.0.0.0.0.0" style="fill:#e6aa50"  points="11.906,105.591 11.906,107.717 74.268,107.717 74.268,102.047 20.118,102.047 16.575,105.591 " id="polygon15"/>
                        </g>
                    </g>
                    <line gorn="0.33.0.0.0.1" stroke-miterlimit="10" y1="51.826153" y2="51.826153" style="fill:none;stroke:#735550;stroke-width:0.68048024;stroke-miterlimit:10"  x1="87.444969" id="line17" x2="92.110825"/>
                    <line gorn="0.33.0.0.0.2" stroke-miterlimit="10" y1="49.381187" y2="49.381187" style="fill:none;stroke:#735550;stroke-width:0.68048024;stroke-miterlimit:10"  x1="87.444969" id="line19" x2="92.110825"/>
                    <line gorn="0.33.0.0.0.3" stroke-miterlimit="10" y1="48.372814" y2="48.372814" style="fill:none;stroke:#735550;stroke-width:0.68048024;stroke-miterlimit:10"  x1="87.444969" id="line21" x2="92.110825"/>
                    <line gorn="0.33.0.0.0.4" stroke-miterlimit="10" y1="47.36388" y2="47.36388" style="fill:none;stroke:#735550;stroke-width:0.68048024;stroke-miterlimit:10"  x1="87.444969" id="line23" x2="92.110825"/>
                    <line gorn="0.33.0.0.0.5" stroke-miterlimit="10" y1="45.713459" y2="45.713459" style="fill:none;stroke:#735550;stroke-width:0.68048024;stroke-miterlimit:10"  x1="87.444969" id="line25" x2="92.110825"/>
                    <line gorn="0.33.0.0.0.6" stroke-miterlimit="10" y1="44.918915" y2="44.918915" style="fill:none;stroke:#735550;stroke-width:0.68048024;stroke-miterlimit:10"  x1="87.444969" id="line27" x2="92.110825"/>
                    <line gorn="0.33.0.0.0.7" stroke-miterlimit="10" y1="43.665768" y2="43.665768" style="fill:none;stroke:#735550;stroke-width:0.68048024;stroke-miterlimit:10"  x1="87.444969" id="line29" x2="92.110825"/>
                    <line gorn="0.33.0.0.0.8" stroke-miterlimit="10" y1="42.931995" y2="42.931995" style="fill:none;stroke:#735550;stroke-width:0.68048024;stroke-miterlimit:10"  x1="87.444969" id="line31" x2="92.110825"/>
                    <line gorn="0.33.0.0.0.9" stroke-miterlimit="10" y1="42.198788" y2="42.198788" style="fill:none;stroke:#735550;stroke-width:0.68048024;stroke-miterlimit:10"  x1="87.444969" id="line33" x2="92.110825"/>
                    <line gorn="0.33.0.0.0.10" stroke-miterlimit="10" y1="40.517979" y2="40.517979" style="fill:none;stroke:#735550;stroke-width:0.68048024;stroke-miterlimit:10"  x1="87.444969" id="line35" x2="92.110825"/>
                    <line gorn="0.33.0.0.0.11" stroke-miterlimit="10" y1="39.447708" y2="39.447708" style="fill:none;stroke:#735550;stroke-width:0.68048024;stroke-miterlimit:10"  x1="87.444969" id="line37" x2="92.110825"/>
                    <line gorn="0.33.0.0.0.12" stroke-miterlimit="10" y1="38.684113" y2="38.684113" style="fill:none;stroke:#735550;stroke-width:0.68048024;stroke-miterlimit:10"  x1="87.444969" id="line39" x2="92.110825"/>
                    <line gorn="0.33.0.0.0.13" stroke-miterlimit="10" y1="37.919952" y2="37.919952" style="fill:none;stroke:#735550;stroke-width:0.68048024;stroke-miterlimit:10"  x1="87.444969" id="line41" x2="92.110825"/>
                    <line gorn="0.33.0.0.0.14" stroke-miterlimit="10" y1="36.666805" y2="36.666805" style="fill:none;stroke:#735550;stroke-width:0.68048024;stroke-miterlimit:10"  x1="87.444969" id="line43" x2="92.110825"/>
                    <line gorn="0.33.0.0.0.15" stroke-miterlimit="10" y1="35.413654" y2="35.413654" style="fill:none;stroke:#735550;stroke-width:0.68048024;stroke-miterlimit:10"  x1="87.444969" id="line45" x2="92.110825"/>
                    <line gorn="0.33.0.0.0.16" stroke-miterlimit="10" y1="33.090797" y2="33.090797" style="fill:none;stroke:#735550;stroke-width:0.68048024;stroke-miterlimit:10"  x1="87.444969" id="line47" x2="92.110825"/>
                    <line gorn="0.33.0.0.0.17" stroke-miterlimit="10" y1="31.807264" y2="31.807264" style="fill:none;stroke:#735550;stroke-width:0.68048024;stroke-miterlimit:10"  x1="87.444969" id="line49" x2="92.110825"/>
                    <line gorn="0.33.0.0.0.18" stroke-miterlimit="10" y1="30.981771" y2="30.981771" style="fill:none;stroke:#735550;stroke-width:0.68048024;stroke-miterlimit:10"  x1="87.444969" id="line51" x2="92.110825"/>
                    <line gorn="0.33.0.0.0.19" stroke-miterlimit="10" y1="61.345482" y2="61.345482" style="fill:none;stroke:#735550;stroke-width:0.68048024;stroke-miterlimit:10"  x1="90.361336" id="line53" x2="92.110825"/>
                </g>
            </g>
        </g>
        <g  transform="matrix(1.0594698,0,0,0.98187662,-0.42141062,0.36283408)">
            <g >
                <g gorn="0.33.1.0.0"  id="g4456">
                    <g  transform="matrix(0,-1,1,0,0,0)">
                        <g >
                            <rect gorn="0.33.1.0.0.0.0.0" height="69.512177" x="-65.639503"  id="rect9" y="7.086123" width="45.619282"/>
                        </g>
                    </g>
                    <rect gorn="0.33.1.0.0.1" height="44.024006" style="fill:#1e1e1e" x="8.2517643"  id="rect11" y="20.817804" width="67.180069"/>
                    <g  transform="matrix(0,-0.56270777,0.82290198,0,3.4702923,68.590343)">
                        <g >
                            <g gorn="0.33.1.0.0.2.0.0"  id="g55">
                                <rect gorn="0.33.1.0.0.2.0.0.0" height="0.56199998" style="fill:#ff0000" x="9.7799997"  id="rect57" y="10.63" width="72"/>
                                <rect gorn="0.33.1.0.0.2.0.0.1" height="0.56199998" style="fill:#ff0000" x="9.7799997"  id="rect59" y="11.192" width="72"/>
                                <rect gorn="0.33.1.0.0.2.0.0.2" height="0.56199998" style="fill:#ff0007" x="9.7799997"  id="rect61" y="11.755" width="72"/>
                                <rect gorn="0.33.1.0.0.2.0.0.3" height="0.56199998" style="fill:#ff0011" x="9.7799997"  id="rect63" y="12.317" width="72"/>
                                <rect gorn="0.33.1.0.0.2.0.0.4" height="0.56199998" style="fill:#ff001d" x="9.7799997"  id="rect65" y="12.88" width="72"/>
                                <rect gorn="0.33.1.0.0.2.0.0.5" height="0.56199998" style="fill:#ff0029" x="9.7799997"  id="rect67" y="13.442" width="72"/>
                                <rect gorn="0.33.1.0.0.2.0.0.6" height="0.56199998" style="fill:#ff0037" x="9.7799997"  id="rect69" y="14.005" width="72"/>
                                <rect gorn="0.33.1.0.0.2.0.0.7" height="0.56199998" style="fill:#ff0046" x="9.7799997"  id="rect71" y="14.567" width="72"/>
                                <rect gorn="0.33.1.0.0.2.0.0.8" height="0.56199998" style="fill:#ff0056" x="9.7799997"  id="rect73" y="15.13" width="72"/>
                                <rect gorn="0.33.1.0.0.2.0.0.9" height="0.56199998" style="fill:#ff0066" x="9.7799997"  id="rect75" y="15.692" width="72"/>
                                <rect gorn="0.33.1.0.0.2.0.0.10" height="0.56199998" style="fill:#ff0077" x="9.7799997"  id="rect77" y="16.254999" width="72"/>
                                <rect gorn="0.33.1.0.0.2.0.0.11" height="0.56199998" style="fill:#ff0088" x="9.7799997"  id="rect79" y="16.816999" width="72"/>
                                <rect gorn="0.33.1.0.0.2.0.0.12" height="0.56199998" style="fill:#ff0099" x="9.7799997"  id="rect81" y="17.379999" width="72"/>
                                <rect gorn="0.33.1.0.0.2.0.0.13" height="0.56199998" style="fill:#ff00a9" x="9.7799997"  id="rect83" y="17.941999" width="72"/>
                                <rect gorn="0.33.1.0.0.2.0.0.14" height="0.56199998" style="fill:#ff00b8" x="9.7799997"  id="rect85" y="18.504999" width="72"/>
                                <rect gorn="0.33.1.0.0.2.0.0.15" height="0.56199998" style="fill:#ff00c8" x="9.7799997"  id="rect87" y="19.066999" width="72"/>
                                <rect gorn="0.33.1.0.0.2.0.0.16" height="0.56199998" style="fill:#ff00d5" x="9.7799997"  id="rect89" y="19.629999" width="72"/>
                                <rect gorn="0.33.1.0.0.2.0.0.17" height="0.56199998" style="fill:#ff00e2" x="9.7799997"  id="rect91" y="20.191999" width="72"/>
                                <rect gorn="0.33.1.0.0.2.0.0.18" height="0.56199998" style="fill:#ff00ed" x="9.7799997"  id="rect93" y="20.754999" width="72"/>
                                <rect gorn="0.33.1.0.0.2.0.0.19" height="0.56199998" style="fill:#ff00f7" x="9.7799997"  id="rect95" y="21.316999" width="72"/>
                                <rect gorn="0.33.1.0.0.2.0.0.20" height="0.56199998" style="fill:#ff00ff" x="9.7799997"  id="rect97" y="21.879999" width="72"/>
                                <rect gorn="0.33.1.0.0.2.0.0.21" height="0.56199998" style="fill:#f900ff" x="9.7799997"  id="rect99" y="22.441999" width="72"/>
                                <rect gorn="0.33.1.0.0.2.0.0.22" height="0.56199998" style="fill:#f100ff" x="9.7799997"  id="rect101" y="23.004999" width="72"/>
                                <rect gorn="0.33.1.0.0.2.0.0.23" height="0.56199998" style="fill:#e900ff" x="9.7799997"  id="rect103" y="23.566999" width="72"/>
                                <rect gorn="0.33.1.0.0.2.0.0.24" height="0.56199998" style="fill:#df00ff" x="9.7799997"  id="rect105" y="24.129999" width="72"/>
                                <rect gorn="0.33.1.0.0.2.0.0.25" height="0.56199998" style="fill:#d400ff" x="9.7799997"  id="rect107" y="24.691999" width="72"/>
                                <rect gorn="0.33.1.0.0.2.0.0.26" height="0.56199998" style="fill:#c900ff" x="9.7799997"  id="rect109" y="25.254999" width="72"/>
                                <rect gorn="0.33.1.0.0.2.0.0.27" height="0.56199998" style="fill:#bc00ff" x="9.7799997"  id="rect111" y="25.816999" width="72"/>
                                <rect gorn="0.33.1.0.0.2.0.0.28" height="0.56199998" style="fill:#af00ff" x="9.7799997"  id="rect113" y="26.379999" width="72"/>
                                <rect gorn="0.33.1.0.0.2.0.0.29" height="0.56199998" style="fill:#a200ff" x="9.7799997"  id="rect115" y="26.941999" width="72"/>
                                <rect gorn="0.33.1.0.0.2.0.0.30" height="0.56199998" style="fill:#9400ff" x="9.7799997"  id="rect117" y="27.504999" width="72"/>
                                <rect gorn="0.33.1.0.0.2.0.0.31" height="0.56199998" style="fill:#8600ff" x="9.7799997"  id="rect119" y="28.066999" width="72"/>
                                <rect gorn="0.33.1.0.0.2.0.0.32" height="0.56199998" style="fill:#7800ff" x="9.7799997"  id="rect121" y="28.629999" width="72"/>
                                <rect gorn="0.33.1.0.0.2.0.0.33" height="0.56199998" style="fill:#6b00ff" x="9.7799997"  id="rect123" y="29.191999" width="72"/>
                                <rect gorn="0.33.1.0.0.2.0.0.34" height="0.56199998" style="fill:#5d00ff" x="9.7799997"  id="rect125" y="29.754999" width="72"/>
                                <rect gorn="0.33.1.0.0.2.0.0.35" height="0.56199998" style="fill:#4f00ff" x="9.7799997"  id="rect127" y="30.316999" width="72"/>
                                <rect gorn="0.33.1.0.0.2.0.0.36" height="0.56199998" style="fill:#4200ff" x="9.7799997"  id="rect129" y="30.879999" width="72"/>
                                <rect gorn="0.33.1.0.0.2.0.0.37" height="0.56199998" style="fill:#3600ff" x="9.7799997"  id="rect131" y="31.441999" width="72"/>
                                <rect gorn="0.33.1.0.0.2.0.0.38" height="0.56199998" style="fill:#2a00ff" x="9.7799997"  id="rect133" y="32.005001" width="72"/>
                                <rect gorn="0.33.1.0.0.2.0.0.39" height="0.56199998" style="fill:#2000ff" x="9.7799997"  id="rect135" y="32.567001" width="72"/>
                                <rect gorn="0.33.1.0.0.2.0.0.40" height="0.56199998" style="fill:#1600ff" x="9.7799997"  id="rect137" y="33.130001" width="72"/>
                                <rect gorn="0.33.1.0.0.2.0.0.41" height="0.56199998" style="fill:#0d00ff" x="9.7799997"  id="rect139" y="33.692001" width="72"/>
                                <rect gorn="0.33.1.0.0.2.0.0.42" height="0.56199998" style="fill:#0500ff" x="9.7799997"  id="rect141" y="34.255001" width="72"/>
                                <rect gorn="0.33.1.0.0.2.0.0.43" height="0.56199998" style="fill:#0000ff" x="9.7799997"  id="rect143" y="34.817001" width="72"/>
                                <rect gorn="0.33.1.0.0.2.0.0.44" height="0.56199998" style="fill:#0007ff" x="9.7799997"  id="rect145" y="35.380001" width="72"/>
                                <rect gorn="0.33.1.0.0.2.0.0.45" height="0.56199998" style="fill:#0011ff" x="9.7799997"  id="rect147" y="35.942001" width="72"/>
                                <rect gorn="0.33.1.0.0.2.0.0.46" height="0.56199998" style="fill:#001bff" x="9.7799997"  id="rect149" y="36.505001" width="72"/>
                                <rect gorn="0.33.1.0.0.2.0.0.47" height="0.56199998" style="fill:#0027ff" x="9.7799997"  id="rect151" y="37.067001" width="72"/>
                                <rect gorn="0.33.1.0.0.2.0.0.48" height="0.56199998" style="fill:#0034ff" x="9.7799997"  id="rect153" y="37.630001" width="72"/>
                                <rect gorn="0.33.1.0.0.2.0.0.49" height="0.56199998" style="fill:#0042ff" x="9.7799997"  id="rect155" y="38.192001" width="72"/>
                                <rect gorn="0.33.1.0.0.2.0.0.50" height="0.56199998" style="fill:#0050ff" x="9.7799997"  id="rect157" y="38.755001" width="72"/>
                                <rect gorn="0.33.1.0.0.2.0.0.51" height="0.56199998" style="fill:#005fff" x="9.7799997"  id="rect159" y="39.317001" width="72"/>
                                <rect gorn="0.33.1.0.0.2.0.0.52" height="0.56199998" style="fill:#006fff" x="9.7799997"  id="rect161" y="39.880001" width="72"/>
                                <rect gorn="0.33.1.0.0.2.0.0.53" height="0.56199998" style="fill:#007fff" x="9.7799997"  id="rect163" y="40.442001" width="72"/>
                                <rect gorn="0.33.1.0.0.2.0.0.54" height="0.56199998" style="fill:#008eff" x="9.7799997"  id="rect165" y="41.005001" width="72"/>
                                <rect gorn="0.33.1.0.0.2.0.0.55" height="0.56199998" style="fill:#009dff" x="9.7799997"  id="rect167" y="41.567001" width="72"/>
                                <rect gorn="0.33.1.0.0.2.0.0.56" height="0.56199998" style="fill:#00acff" x="9.7799997"  id="rect169" y="42.130001" width="72"/>
                                <rect gorn="0.33.1.0.0.2.0.0.57" height="0.56199998" style="fill:#00bbff" x="9.7799997"  id="rect171" y="42.692001" width="72"/>
                                <rect gorn="0.33.1.0.0.2.0.0.58" height="0.56199998" style="fill:#00c9ff" x="9.7799997"  id="rect173" y="43.255001" width="72"/>
                                <rect gorn="0.33.1.0.0.2.0.0.59" height="0.56199998" style="fill:#00d7ff" x="9.7799997"  id="rect175" y="43.817001" width="72"/>
                                <rect gorn="0.33.1.0.0.2.0.0.60" height="0.56199998" style="fill:#00e2ff" x="9.7799997"  id="rect177" y="44.380001" width="72"/>
                                <rect gorn="0.33.1.0.0.2.0.0.61" height="0.56199998" style="fill:#00ecff" x="9.7799997"  id="rect179" y="44.942001" width="72"/>
                                <rect gorn="0.33.1.0.0.2.0.0.62" height="0.56199998" style="fill:#00f5ff" x="9.7799997"  id="rect181" y="45.505001" width="72"/>
                                <rect gorn="0.33.1.0.0.2.0.0.63" height="0.56199998" style="fill:#00fdff" x="9.7799997"  id="rect183" y="46.067001" width="72"/>
                                <rect gorn="0.33.1.0.0.2.0.0.64" height="0.56199998" style="fill:#00fffa" x="9.7799997"  id="rect185" y="46.630001" width="72"/>
                                <rect gorn="0.33.1.0.0.2.0.0.65" height="0.56199998" style="fill:#00fff3" x="9.7799997"  id="rect187" y="47.192001" width="72"/>
                                <rect gorn="0.33.1.0.0.2.0.0.66" height="0.56199998" style="fill:#00ffea" x="9.7799997"  id="rect189" y="47.755001" width="72"/>
                                <rect gorn="0.33.1.0.0.2.0.0.67" height="0.56199998" style="fill:#00ffe1" x="9.7799997"  id="rect191" y="48.317001" width="72"/>
                                <rect gorn="0.33.1.0.0.2.0.0.68" height="0.56199998" style="fill:#00ffd6" x="9.7799997"  id="rect193" y="48.880001" width="72"/>
                                <rect gorn="0.33.1.0.0.2.0.0.69" height="0.56199998" style="fill:#00ffcb" x="9.7799997"  id="rect195" y="49.442001" width="72"/>
                                <rect gorn="0.33.1.0.0.2.0.0.70" height="0.56199998" style="fill:#00ffbe" x="9.7799997"  id="rect197" y="50.005001" width="72"/>
                                <rect gorn="0.33.1.0.0.2.0.0.71" height="0.56199998" style="fill:#00ffb2" x="9.7799997"  id="rect199" y="50.567001" width="72"/>
                                <rect gorn="0.33.1.0.0.2.0.0.72" height="0.56199998" style="fill:#00ffa4" x="9.7799997"  id="rect201" y="51.130001" width="72"/>
                                <rect gorn="0.33.1.0.0.2.0.0.73" height="0.56199998" style="fill:#00ff97" x="9.7799997"  id="rect203" y="51.692001" width="72"/>
                                <rect gorn="0.33.1.0.0.2.0.0.74" height="0.56199998" style="fill:#00ff89" x="9.7799997"  id="rect205" y="52.255001" width="72"/>
                                <rect gorn="0.33.1.0.0.2.0.0.75" height="0.56199998" style="fill:#00ff7b" x="9.7799997"  id="rect207" y="52.817001" width="72"/>
                                <rect gorn="0.33.1.0.0.2.0.0.76" height="0.56199998" style="fill:#00ff6d" x="9.7799997"  id="rect209" y="53.380001" width="72"/>
                                <rect gorn="0.33.1.0.0.2.0.0.77" height="0.56199998" style="fill:#00ff60" x="9.7799997"  id="rect211" y="53.942001" width="72"/>
                                <rect gorn="0.33.1.0.0.2.0.0.78" height="0.56199998" style="fill:#00ff52" x="9.7799997"  id="rect213" y="54.505001" width="72"/>
                                <rect gorn="0.33.1.0.0.2.0.0.79" height="0.56199998" style="fill:#00ff45" x="9.7799997"  id="rect215" y="55.067001" width="72"/>
                                <rect gorn="0.33.1.0.0.2.0.0.80" height="0.56199998" style="fill:#00ff38" x="9.7799997"  id="rect217" y="55.630001" width="72"/>
                                <rect gorn="0.33.1.0.0.2.0.0.81" height="0.56199998" style="fill:#00ff2c" x="9.7799997"  id="rect219" y="56.192001" width="72"/>
                                <rect gorn="0.33.1.0.0.2.0.0.82" height="0.56199998" style="fill:#00ff22" x="9.7799997"  id="rect221" y="56.755001" width="72"/>
                                <rect gorn="0.33.1.0.0.2.0.0.83" height="0.56199998" style="fill:#00ff17" x="9.7799997"  id="rect223" y="57.317001" width="72"/>
                                <rect gorn="0.33.1.0.0.2.0.0.84" height="0.56199998" style="fill:#00ff0e" x="9.7799997"  id="rect225" y="57.880001" width="72"/>
                                <rect gorn="0.33.1.0.0.2.0.0.85" height="0.56199998" style="fill:#00ff07" x="9.7799997"  id="rect227" y="58.442001" width="72"/>
                                <rect gorn="0.33.1.0.0.2.0.0.86" height="0.56199998" style="fill:#00ff00" x="9.7799997"  id="rect229" y="59.005001" width="72"/>
                                <rect gorn="0.33.1.0.0.2.0.0.87" height="0.56199998" style="fill:#06ff00" x="9.7799997"  id="rect231" y="59.567001" width="72"/>
                                <rect gorn="0.33.1.0.0.2.0.0.88" height="0.56199998" style="fill:#0eff00" x="9.7799997"  id="rect233" y="60.130001" width="72"/>
                                <rect gorn="0.33.1.0.0.2.0.0.89" height="0.56199998" style="fill:#17ff00" x="9.7799997"  id="rect235" y="60.692001" width="72"/>
                                <rect gorn="0.33.1.0.0.2.0.0.90" height="0.56199998" style="fill:#22ff00" x="9.7799997"  id="rect237" y="61.255001" width="72"/>
                                <rect gorn="0.33.1.0.0.2.0.0.91" height="0.56199998" style="fill:#2eff00" x="9.7799997"  id="rect239" y="61.817001" width="72"/>
                                <rect gorn="0.33.1.0.0.2.0.0.92" height="0.56199998" style="fill:#3aff00" x="9.7799997"  id="rect241" y="62.380001" width="72"/>
                                <rect gorn="0.33.1.0.0.2.0.0.93" height="0.56199998" style="fill:#47ff00" x="9.7799997"  id="rect243" y="62.942001" width="72"/>
                                <rect gorn="0.33.1.0.0.2.0.0.94" height="0.56199998" style="fill:#56ff00" x="9.7799997"  id="rect245" y="63.505001" width="72"/>
                                <rect gorn="0.33.1.0.0.2.0.0.95" height="0.56199998" style="fill:#64ff00" x="9.7799997"  id="rect247" y="64.067001" width="72"/>
                                <rect gorn="0.33.1.0.0.2.0.0.96" height="0.56199998" style="fill:#73ff00" x="9.7799997"  id="rect249" y="64.629997" width="72"/>
                                <rect gorn="0.33.1.0.0.2.0.0.97" height="0.56199998" style="fill:#81ff00" x="9.7799997"  id="rect251" y="65.192001" width="72"/>
                                <rect gorn="0.33.1.0.0.2.0.0.98" height="0.56199998" style="fill:#8fff00" x="9.7799997"  id="rect253" y="65.754997" width="72"/>
                                <rect gorn="0.33.1.0.0.2.0.0.99" height="0.56199998" style="fill:#9eff00" x="9.7799997"  id="rect255" y="66.317001" width="72"/>
                                <rect gorn="0.33.1.0.0.2.0.0.100" height="0.56199998" style="fill:#acff00" x="9.7799997"  id="rect257" y="66.879997" width="72"/>
                                <rect gorn="0.33.1.0.0.2.0.0.101" height="0.56199998" style="fill:#bbff00" x="9.7799997"  id="rect259" y="67.442001" width="72"/>
                                <rect gorn="0.33.1.0.0.2.0.0.102" height="0.56199998" style="fill:#c7ff00" x="9.7799997"  id="rect261" y="68.004997" width="72"/>
                                <rect gorn="0.33.1.0.0.2.0.0.103" height="0.56199998" style="fill:#d4ff00" x="9.7799997"  id="rect263" y="68.567001" width="72"/>
                                <rect gorn="0.33.1.0.0.2.0.0.104" height="0.56199998" style="fill:#e0ff00" x="9.7799997"  id="rect265" y="69.129997" width="72"/>
                                <rect gorn="0.33.1.0.0.2.0.0.105" height="0.56199998" style="fill:#eaff00" x="9.7799997"  id="rect267" y="69.692001" width="72"/>
                                <rect gorn="0.33.1.0.0.2.0.0.106" height="0.56199998" style="fill:#f3ff00" x="9.7799997"  id="rect269" y="70.254997" width="72"/>
                                <rect gorn="0.33.1.0.0.2.0.0.107" height="0.56199998" style="fill:#fbff00" x="9.7799997"  id="rect271" y="70.817001" width="72"/>
                                <rect gorn="0.33.1.0.0.2.0.0.108" height="0.56199998" style="fill:#fffd00" x="9.7799997"  id="rect273" y="71.379997" width="72"/>
                                <rect gorn="0.33.1.0.0.2.0.0.109" height="0.56199998" style="fill:#fff500" x="9.7799997"  id="rect275" y="71.942001" width="72"/>
                                <rect gorn="0.33.1.0.0.2.0.0.110" height="0.56199998" style="fill:#ffed00" x="9.7799997"  id="rect277" y="72.504997" width="72"/>
                                <rect gorn="0.33.1.0.0.2.0.0.111" height="0.56199998" style="fill:#ffe100" x="9.7799997"  id="rect279" y="73.067001" width="72"/>
                                <rect gorn="0.33.1.0.0.2.0.0.112" height="0.56199998" style="fill:#ffd500" x="9.7799997"  id="rect281" y="73.629997" width="72"/>
                                <rect gorn="0.33.1.0.0.2.0.0.113" height="0.56199998" style="fill:#ffc800" x="9.7799997"  id="rect283" y="74.192001" width="72"/>
                                <rect gorn="0.33.1.0.0.2.0.0.114" height="0.56199998" style="fill:#ffbb00" x="9.7799997"  id="rect285" y="74.754997" width="72"/>
                                <rect gorn="0.33.1.0.0.2.0.0.115" height="0.56199998" style="fill:#ffac00" x="9.7799997"  id="rect287" y="75.317001" width="72"/>
                                <rect gorn="0.33.1.0.0.2.0.0.116" height="0.56199998" style="fill:#ff9c00" x="9.7799997"  id="rect289" y="75.879997" width="72"/>
                                <rect gorn="0.33.1.0.0.2.0.0.117" height="0.56199998" style="fill:#ff8d00" x="9.7799997"  id="rect291" y="76.442001" width="72"/>
                                <rect gorn="0.33.1.0.0.2.0.0.118" height="0.56199998" style="fill:#ff7d00" x="9.7799997"  id="rect293" y="77.004997" width="72"/>
                                <rect gorn="0.33.1.0.0.2.0.0.119" height="0.56199998" style="fill:#ff6e00" x="9.7799997"  id="rect295" y="77.567001" width="72"/>
                                <rect gorn="0.33.1.0.0.2.0.0.120" height="0.56199998" style="fill:#ff5e00" x="9.7799997"  id="rect297" y="78.129997" width="72"/>
                                <rect gorn="0.33.1.0.0.2.0.0.121" height="0.56199998" style="fill:#ff5000" x="9.7799997"  id="rect299" y="78.692001" width="72"/>
                                <rect gorn="0.33.1.0.0.2.0.0.122" height="0.56199998" style="fill:#ff4100" x="9.7799997"  id="rect301" y="79.254997" width="72"/>
                                <rect gorn="0.33.1.0.0.2.0.0.123" height="0.56199998" style="fill:#ff3200" x="9.7799997"  id="rect303" y="79.817001" width="72"/>
                                <rect gorn="0.33.1.0.0.2.0.0.124" height="0.56199998" style="fill:#ff2600" x="9.7799997"  id="rect305" y="80.379997" width="72"/>
                                <rect gorn="0.33.1.0.0.2.0.0.125" height="0.56199998" style="fill:#ff1a00" x="9.7799997"  id="rect307" y="80.942001" width="72"/>
                                <rect gorn="0.33.1.0.0.2.0.0.126" height="0.56199998" style="fill:#ff1000" x="9.7799997"  id="rect309" y="81.504997" width="72"/>
                                <rect gorn="0.33.1.0.0.2.0.0.127" height="0.56199998" style="fill:#ff0800" x="9.7799997"  id="rect311" y="82.067001" width="72"/>
                            </g>
                        </g>
                    </g>
                </g>
            </g>
        </g>
        <rect gorn="0.33.2" height="44.763992" style="opacity:1;fill:#000000;fill-opacity:1;stroke:none;stroke-width:3;stroke-linecap:butt;stroke-linejoin:miter;stroke-miterlimit:10;stroke-dasharray:none;stroke-opacity:1" x="76.653915"  id="rect4589" y="20.020819" width="6.732316"/>
    </g>
</svg>
