<?xml version='1.0' encoding='utf-8'?>
<!-- Generator: Adobe Illustrator 20.0.0, SVG Export Plug-In . SVG Version: 6.00 Build 0)  -->
<svg xmlns="http://www.w3.org/2000/svg"  baseProfile="tiny" height="0.75in" xml:space="preserve" id="Layer_1" xmlns:xml="http://www.w3.org/XML/1998/namespace" viewBox="0 0 86.4 54" x="0px" width="1.2in" y="0px" gorn="0" version="1.2">
    <desc >
        <referenceFile >Adafruit L3GD20H Triple-Axis Gyro Breakout Board_breadboard.svg</referenceFile>
    </desc>
    <desc >Fritzing breadboard generated by brd2svg</desc>
    <g  id="breadboard" gorn="0.2">
        <g  id="icon" gorn="0.2.0">
            <path  fill="#014CB1" d="M86.4,46.8c0,3.976-3.224,7.2-7.2,7.2h0h-72C3.224,54,0,50.776,0,46.8c0,0,0,0,0,0v-3.24c0-3.976,3.224-7.2,7.2-7.2c0,0,0,0,0,0H9V14.4H7.2C3.224,14.4,0,11.176,0,7.2c0,0,0,0,0,0C0,3.224,3.224,0,7.2,0c0,0,0,0,0,0h72c3.976,0,7.2,3.224,7.2,7.2c0,0,0,0,0,0c0,3.976-3.224,7.2-7.2,7.2c0,0,0,0,0,0h-1.8v21.96h1.8c3.976,0,7.2,3.224,7.2,7.2c0,0,0,0,0,0V46.8 M12.983,49.68c0,0.783,0.635,1.417,1.417,1.417s1.417-0.635,1.417-1.417s-0.635-1.417-1.417-1.417S12.983,48.897,12.983,49.68z M20.183,49.68c0,0.783,0.635,1.417,1.417,1.417c0.783,0,1.417-0.635,1.417-1.417s-0.635-1.417-1.417-1.417C20.817,48.263,20.183,48.897,20.183,49.68z M27.383,49.68c0,0.783,0.635,1.417,1.417,1.417c0.783,0,1.417-0.635,1.417-1.417s-0.635-1.417-1.417-1.417C28.017,48.263,27.383,48.897,27.383,49.68z M34.583,49.68c0,0.783,0.635,1.417,1.417,1.417c0.783,0,1.417-0.635,1.417-1.417S36.783,48.263,36,48.263S34.583,48.897,34.583,49.68z M41.783,49.68c0,0.783,0.635,1.417,1.417,1.417s1.417-0.635,1.417-1.417s-0.635-1.417-1.417-1.417S41.783,48.897,41.783,49.68z M48.983,49.68c0,0.783,0.635,1.417,1.417,1.417c0.783,0,1.417-0.635,1.417-1.417s-0.635-1.417-1.417-1.417S48.983,48.897,48.983,49.68z M56.183,49.68c0,0.783,0.635,1.417,1.417,1.417s1.417-0.635,1.417-1.417s-0.635-1.417-1.417-1.417S56.183,48.897,56.183,49.68z M63.383,49.68c0,0.783,0.635,1.417,1.417,1.417s1.417-0.635,1.417-1.417s-0.635-1.417-1.417-1.417C64.017,48.263,63.383,48.897,63.383,49.68z M70.583,49.68c0,0.783,0.635,1.417,1.417,1.417c0.783,0,1.417-0.635,1.417-1.417S72.783,48.263,72,48.263C71.217,48.263,70.583,48.897,70.583,49.68z M76.082,7.2c0,1.722,1.396,3.118,3.118,3.118s3.118-1.396,3.118-3.118S80.922,4.082,79.2,4.082S76.082,5.478,76.082,7.2z M4.082,7.2c-0.001,1.722,1.395,3.119,3.117,3.119c1.722,0.001,3.119-1.395,3.119-3.117c0-0.001,0-0.002,0-0.002c0-1.722-1.396-3.118-3.118-3.118S4.082,5.478,4.082,7.2z M4.082,43.56c-0.001,1.722,1.395,3.119,3.117,3.119s3.119-1.395,3.119-3.117c0-0.001,0-0.002,0-0.002c0-1.722-1.396-3.118-3.118-3.118S4.082,41.838,4.082,43.56z M76.082,43.56c0,1.722,1.396,3.118,3.118,3.118s3.118-1.396,3.118-3.118s-1.396-3.118-3.118-3.118S76.082,41.838,76.082,43.56z"/>
            <g >
                <title >layer 21</title>
                <g >
                    <title >text:Vin</title>
                    <g  transform="matrix(1, 0, 0, 1, 73.08, 46.08)">
                        <g >
                            <g >
                                <g  transform="rotate(270)">
                                    <g >
                                        <g >
                                            <g  transform="matrix(1 0 0 1 -7.612500e-05 1.508984e-05)">
                                                <g >
                                                    <text  fill="#FFFFFF" font-family="'OCRA'" font-size="2.67264">Vin</text>
                                                </g>
                                            </g>
                                        </g>
                                    </g>
                                </g>
                            </g>
                        </g>
                    </g>
                </g>
                <g >
                    <title >text:3Vo</title>
                    <g  transform="matrix(1, 0, 0, 1, 66.24, 46.08)">
                        <g >
                            <g >
                                <g  transform="rotate(270)">
                                    <g >
                                        <g >
                                            <g  transform="matrix(1 0 0 1 -7.612500e-05 -7.765627e-06)">
                                                <g >
                                                    <text  fill="#FFFFFF" font-family="'OCRA'" font-size="2.67264">3Vo</text>
                                                </g>
                                            </g>
                                        </g>
                                    </g>
                                </g>
                            </g>
                        </g>
                    </g>
                </g>
                <g >
                    <title >text:SCL</title>
                    <g  transform="matrix(1, 0, 0, 1, 16.2, 46.08)">
                        <g >
                            <g >
                                <g  transform="rotate(270)">
                                    <g >
                                        <g >
                                            <g  transform="matrix(1 0 0 1 -7.612500e-05 1.120703e-05)">
                                                <g >
                                                    <text  fill="#FFFFFF" font-family="'OCRA'" font-size="2.67264">SCL</text>
                                                </g>
                                            </g>
                                        </g>
                                    </g>
                                </g>
                            </g>
                        </g>
                    </g>
                </g>
                <g >
                    <title >text:SDA</title>
                    <g  transform="matrix(1, 0, 0, 1, 23.04, 46.44)">
                        <g >
                            <g >
                                <g  transform="rotate(270)">
                                    <g >
                                        <g >
                                            <g  transform="matrix(1 0 0 1 -4.306875e-04 -2.297266e-05)">
                                                <g >
                                                    <text  fill="#FFFFFF" font-family="'OCRA'" font-size="2.67264">SDA</text>
                                                </g>
                                            </g>
                                        </g>
                                    </g>
                                </g>
                            </g>
                        </g>
                    </g>
                </g>
                <g >
                    <title >text:SA0</title>
                    <g  transform="matrix(1, 0, 0, 1, 30.24, 46.44)">
                        <g >
                            <g >
                                <g  transform="rotate(270)">
                                    <g >
                                        <g >
                                            <g  transform="matrix(1 0 0 1 -4.306875e-04 -9.765627e-06)">
                                                <g >
                                                    <text  fill="#FFFFFF" font-family="'OCRA'" font-size="2.67264">SA0</text>
                                                </g>
                                            </g>
                                        </g>
                                    </g>
                                </g>
                            </g>
                        </g>
                    </g>
                </g>
                <g >
                    <title >text:CS</title>
                    <g  transform="matrix(1, 0, 0, 1, 37.44, 46.08)">
                        <g >
                            <g >
                                <g  transform="rotate(270)">
                                    <g >
                                        <g >
                                            <g  transform="matrix(1 0 0 1 -7.612500e-05 0)">
                                                <g >
                                                    <text  fill="#FFFFFF" font-family="'OCRA'" font-size="2.67264">CS</text>
                                                </g>
                                            </g>
                                        </g>
                                    </g>
                                </g>
                            </g>
                        </g>
                    </g>
                </g>
                <g >
                    <title >text:DRDY</title>
                    <g  transform="matrix(1, 0, 0, 1, 44.64, 46.08)">
                        <g >
                            <g >
                                <g  transform="rotate(270)">
                                    <g >
                                        <g >
                                            <g  transform="matrix(1 0 0 1 -7.612500e-05 1.564843e-05)">
                                                <g >
                                                    <text  fill="#FFFFFF" font-family="'OCRA'" font-size="2.67264">DRDY</text>
                                                </g>
                                            </g>
                                        </g>
                                    </g>
                                </g>
                            </g>
                        </g>
                    </g>
                </g>
                <g >
                    <title >text:INT1</title>
                    <g  transform="matrix(1, 0, 0, 1, 51.84, 46.08)">
                        <g >
                            <g >
                                <g  transform="rotate(270)">
                                    <g >
                                        <g >
                                            <g  transform="matrix(1 0 0 1 -7.612500e-05 2.685547e-05)">
                                                <g >
                                                    <text  fill="#FFFFFF" font-family="'OCRA'" font-size="2.67264">INT1</text>
                                                </g>
                                            </g>
                                        </g>
                                    </g>
                                </g>
                            </g>
                        </g>
                    </g>
                </g>
                <g >
                    <title >text:GND</title>
                    <g  transform="matrix(1, 0, 0, 1, 59.04, 46.08)">
                        <g >
                            <g >
                                <g  transform="rotate(270)">
                                    <g >
                                        <g >
                                            <g  transform="matrix(1 0 0 1 -7.612500e-05 -2.297266e-05)">
                                                <g >
                                                    <text  fill="#FFFFFF" font-family="'OCRA'" font-size="2.67264">GND</text>
                                                </g>
                                            </g>
                                        </g>
                                    </g>
                                </g>
                            </g>
                        </g>
                    </g>
                </g>
                <g >
                    <title >text:Z</title>
                    <g  transform="matrix(1 0 0 1 67.752 9.792)">
                        <g >
                            <text  fill="#FFFFFF" font-family="'OCRA'" font-size="2.67264">Z</text>
                        </g>
                    </g>
                </g>
                <g >
                    <title >text:L3GD20H 3-Axis Gyro</title>
                    <g  transform="matrix(1 0 0 1 13.68 6.12)">
                        <g >
                            <text  fill="#FFFFFF" font-family="'OCRA'" font-size="3.274">L3GD20H 3-Axis Gyro</text>
                        </g>
                    </g>
                </g>
                <g >
                    <title >text:X</title>
                    <g  transform="matrix(1 0 0 1 45.792 9.792)">
                        <g >
                            <text  fill="#FFFFFF" font-family="'OCRA'" font-size="2.67264">X</text>
                        </g>
                    </g>
                </g>
                <g >
                    <title >text:Y</title>
                    <g  transform="matrix(1 0 0 1 57.312 9.792)">
                        <g >
                            <text  fill="#FFFFFF" font-family="'OCRA'" font-size="2.67264">Y</text>
                        </g>
                    </g>
                </g>
                <g >
                    <title >element:C1</title>
                    <g >
                        <title >package:0805-NO</title>
                        <line  fill="none" y1="21.96" stroke-width="0.864" y2="24.84" x1="29.52" x2="29.52" stroke-linecap="round" stroke="#FFFFFF"/>
                    </g>
                </g>
                <g >
                    <title >element:C3</title>
                    <g >
                        <title >package:0805-NO</title>
                        <line  fill="none" y1="26.28" stroke-width="0.864" y2="26.28" x1="58.32" x2="61.2" stroke-linecap="round" stroke="#FFFFFF"/>
                    </g>
                </g>
                <g >
                    <title >element:C4</title>
                    <g >
                        <title >package:0805-NO</title>
                        <line  fill="none" y1="15.12" stroke-width="0.864" y2="15.12" x1="36" x2="33.12" stroke-linecap="round" stroke="#FFFFFF"/>
                    </g>
                </g>
                <g >
                    <title >element:C5</title>
                    <g >
                        <title >package:0805-NO</title>
                        <line  fill="none" y1="33.84" stroke-width="0.864" y2="36.72" x1="61.56" x2="61.56" stroke-linecap="round" stroke="#FFFFFF"/>
                    </g>
                </g>
                <g >
                    <title >element:D1</title>
                    <g >
                        <title >package:SOD-323F</title>
                        <line  fill="none" y1="37.483" stroke-width="0.36" y2="37.483" x1="51.009" x2="46.19" stroke-linecap="round" stroke="#FFFFFF"/>
                        <line  fill="none" y1="37.483" stroke-width="0.36" y2="33.797" x1="46.19" x2="46.19" stroke-linecap="round" stroke="#FFFFFF"/>
                        <line  fill="none" y1="33.797" stroke-width="0.36" y2="33.797" x1="46.19" x2="51.009" stroke-linecap="round" stroke="#FFFFFF"/>
                        <line  fill="none" y1="33.797" stroke-width="0.36" y2="37.483" x1="51.009" x2="51.009" stroke-linecap="round" stroke="#FFFFFF"/>
                        <line  fill="none" y1="37.341" stroke-width="0.36" y2="33.939" x1="47.466" x2="47.466" stroke-linecap="round" stroke="#FFFFFF"/>
                        <line  fill="none" y1="33.939" stroke-width="0.36" y2="33.939" x1="47.466" x2="47.75" stroke-linecap="round" stroke="#FFFFFF"/>
                        <line  fill="none" y1="33.939" stroke-width="0.36" y2="37.341" x1="47.75" x2="47.75" stroke-linecap="round" stroke="#FFFFFF"/>
                    </g>
                </g>
                <g >
                    <title >element:IC1</title>
                    <g >
                        <title >package:SOT23-5L</title>
                        <line  fill="none" y1="24.344" stroke-width="0.432" y2="28.936" x1="70.991" x2="70.991" stroke-linecap="round" stroke="#FFFFFF"/>
                        <line  fill="none" y1="28.936" stroke-width="0.432" y2="24.344" x1="62.929" x2="62.929" stroke-linecap="round" stroke="#FFFFFF"/>
                        <line  fill="none" y1="24.344" stroke-width="0.432" y2="24.344" x1="65.48" x2="68.44" stroke-linecap="round" stroke="#FFFFFF"/>
                        <line  fill="none" y1="28.936" stroke-width="0.432" y2="28.936" x1="65.747" x2="65.48" stroke-linecap="round" stroke="#FFFFFF"/>
                        <line  fill="none" y1="28.936" stroke-width="0.432" y2="28.936" x1="68.44" x2="68.173" stroke-linecap="round" stroke="#FFFFFF"/>
                        <line  fill="none" y1="28.936" stroke-width="0.432" y2="28.936" x1="63.196" x2="62.929" stroke-linecap="round" stroke="#FFFFFF"/>
                        <line  fill="none" y1="28.936" stroke-width="0.432" y2="28.936" x1="70.991" x2="70.724" stroke-linecap="round" stroke="#FFFFFF"/>
                        <line  fill="none" y1="24.344" stroke-width="0.432" y2="24.344" x1="70.724" x2="70.991" stroke-linecap="round" stroke="#FFFFFF"/>
                        <line  fill="none" y1="24.344" stroke-width="0.432" y2="24.344" x1="62.929" x2="63.196" stroke-linecap="round" stroke="#FFFFFF"/>
                    </g>
                </g>
                <g >
                    <title >element:IC2</title>
                    <g >
                        <title >package:L3GD20H_LGA16L</title>
                        <line  fill="none" y1="30.455" stroke-width="0.36" y2="21.385" x1="38.665" x2="38.665" stroke-linecap="round" stroke="#FFFFFF"/>
                        <line  fill="none" y1="21.385" stroke-width="0.36" y2="21.385" x1="38.665" x2="47.735" stroke-linecap="round" stroke="#FFFFFF"/>
                        <line  fill="none" y1="21.385" stroke-width="0.36" y2="30.455" x1="47.735" x2="47.735" stroke-linecap="round" stroke="#FFFFFF"/>
                        <line  fill="none" y1="30.455" stroke-width="0.36" y2="30.455" x1="47.735" x2="38.665" stroke-linecap="round" stroke="#FFFFFF"/>
                        <circle  fill="none" stroke-width="1.728" r="0.85" cx="40.365" cy="32.723" stroke="#FFFFFF"/>
                    </g>
                </g>
                <g >
                    <title >element:JP1</title>
                    <g >
                        <title >package:1X09_ROUND_76</title>
                    </g>
                </g>
                <g >
                    <title >element:Q1</title>
                    <g >
                        <title >package:SOT23</title>
                    </g>
                </g>
                <g >
                    <title >element:Q2</title>
                    <g >
                        <title >package:SOT23</title>
                    </g>
                </g>
                <g >
                    <title >element:R2</title>
                    <g >
                        <title >package:0805-NO</title>
                        <line  fill="none" y1="15.84" stroke-width="0.864" y2="18.72" x1="16.92" x2="16.92" stroke-linecap="round" stroke="#FFFFFF"/>
                    </g>
                </g>
                <g >
                    <title >element:R3</title>
                    <g >
                        <title >package:_0805MP</title>
                        <line  fill="none" y1="35.28" stroke-width="0.576" y2="38.16" x1="16.2" x2="16.2" stroke-linecap="round" stroke="#FFFFFF"/>
                    </g>
                </g>
                <g >
                    <title >element:R4</title>
                    <g >
                        <title >package:0805-NO</title>
                        <line  fill="none" y1="35.28" stroke-width="0.864" y2="38.16" x1="26.28" x2="26.28" stroke-linecap="round" stroke="#FFFFFF"/>
                    </g>
                </g>
                <g >
                    <title >element:R5</title>
                    <g >
                        <title >package:0805-NO</title>
                        <line  fill="none" y1="29.88" stroke-width="0.864" y2="27" x1="29.52" x2="29.52" stroke-linecap="round" stroke="#FFFFFF"/>
                    </g>
                </g>
                <g >
                    <title >element:R6</title>
                    <g >
                        <title >package:_0805MP</title>
                        <line  fill="none" y1="27.36" stroke-width="0.576" y2="27.36" x1="55.8" x2="52.92" stroke-linecap="round" stroke="#FFFFFF"/>
                    </g>
                </g>
                <g >
                    <title >element:R7</title>
                    <g >
                        <title >package:0805-NO</title>
                        <line  fill="none" y1="35.28" stroke-width="0.864" y2="38.16" x1="36.72" x2="36.72" stroke-linecap="round" stroke="#FFFFFF"/>
                    </g>
                </g>
                <g >
                    <title >element:U$3</title>
                    <g >
                        <title >package:SYMBOL_GYROXYZ_10MM</title>
                    </g>
                </g>
                <g >
                    <title >element:U$10</title>
                    <g >
                        <title >package:ADAFRUIT_TEXT_20MM</title>
                    </g>
                </g>
                <g >
                    <title >element:U$11</title>
                    <g >
                        <title >package:MOUNTINGHOLE_2.0_PLATED</title>
                        <circle  fill="none" stroke-width="0.576" r="5.102" cx="79.2" cy="7.2" stroke="#FFFFFF"/>
                    </g>
                </g>
                <g >
                    <title >element:U$12</title>
                    <g >
                        <title >package:MOUNTINGHOLE_2.0_PLATED</title>
                        <circle  fill="none" stroke-width="0.576" r="5.102" cx="7.2" cy="7.2" stroke="#FFFFFF"/>
                    </g>
                </g>
                <g >
                    <title >element:U$13</title>
                    <g >
                        <title >package:MOUNTINGHOLE_2.0_PLATED</title>
                        <circle  fill="none" stroke-width="0.576" r="5.102" cx="7.2" cy="43.56" stroke="#FFFFFF"/>
                    </g>
                </g>
                <g >
                    <title >element:U$14</title>
                    <g >
                        <title >package:MOUNTINGHOLE_2.0_PLATED</title>
                        <circle  fill="none" stroke-width="0.576" r="5.102" cx="79.2" cy="43.56" stroke="#FFFFFF"/>
                    </g>
                </g>
                <g >
                    <title >element:U$15</title>
                    <g >
                        <title >package:FIDUCIAL_1MM</title>
                    </g>
                </g>
                <g >
                    <title >element:U$16</title>
                    <g >
                        <title >package:FIDUCIAL_1MM</title>
                    </g>
                </g>
            </g>
            <rect  height="4.252" fill="#9A916C" id="connector5pin" x="24.985" width="3.685" y="21.274" gorn="0.2.0.2"/>
            <rect  height="4.252" fill="#9A916C" id="connector6pin" x="30.37" width="3.685" y="21.274" gorn="0.2.0.3"/>
            <g  transform="matrix(0, -1, 1, 0, 30.7871, 88.7328)">
                <g >
                    <g >
                        <g  transform="matrix(-2.535182e-06 -1 1 -2.535182e-06 30.7872 88.7329)">
                            <g >
                                <rect  height="3.685" fill="#9A916C" id="connector7pin" x="57.634" width="4.252" y="27.13" gorn="0.2.0.4.0.0.0.0.0"/>
                            </g>
                        </g>
                    </g>
                </g>
            </g>
            <g  transform="matrix(0, -1, 1, 0, 36.1729, 83.3472)">
                <g >
                    <g >
                        <g  transform="matrix(-2.535182e-06 -1 1 -2.535182e-06 36.173 83.3471)">
                            <g >
                                <rect  height="3.685" fill="#9A916C" id="connector8pin" x="57.634" width="4.252" y="21.745" gorn="0.2.0.5.0.0.0.0.0"/>
                            </g>
                        </g>
                    </g>
                </g>
            </g>
            <g  transform="matrix(0, 1, -1, 0, 46.9871, -22.1329)">
                <g >
                    <g >
                        <g  transform="matrix(2.535182e-06 1 -1 2.535182e-06 46.9869 -22.1329)">
                            <g >
                                <rect  height="3.685" fill="#9A916C" id="connector9pin" x="32.434" width="4.252" y="10.585" gorn="0.2.0.6.0.0.0.0.0"/>
                            </g>
                        </g>
                    </g>
                </g>
            </g>
            <g  transform="matrix(0, 1, -1, 0, 52.3729, -16.7471)">
                <g >
                    <g >
                        <g  transform="matrix(2.535182e-06 1 -1 2.535182e-06 52.3727 -16.7471)">
                            <g >
                                <rect  height="3.685" fill="#9A916C" id="connector10pin" x="32.434" width="4.252" y="15.97" gorn="0.2.0.7.0.0.0.0.0"/>
                            </g>
                        </g>
                    </g>
                </g>
            </g>
            <rect  height="4.252" fill="#9A916C" id="connector11pin" x="57.025" width="3.685" y="33.154" gorn="0.2.0.8"/>
            <rect  height="4.252" fill="#9A916C" id="connector12pin" x="62.41" width="3.685" y="33.154" gorn="0.2.0.9"/>
            <g  transform="matrix(-1, 0, 0, -1, 102.869, 71.28)">
                <g >
                    <g >
                        <rect  height="2.268" fill="#9A916C" id="connector13pin" x="50.017" width="2.835" y="34.506" gorn="0.2.0.10.0.0.0"/>
                    </g>
                </g>
            </g>
            <g  transform="matrix(-1, 0, 0, -1, 91.5307, 71.28)">
                <g >
                    <g >
                        <rect  height="2.268" fill="#9A916C" id="connector14pin" x="44.348" width="2.835" y="34.506" gorn="0.2.0.11.0.0.0"/>
                    </g>
                </g>
            </g>
            <rect  height="3.402" fill="#9A916C" id="connector15pin" x="63.488" width="1.559" y="28.624" gorn="0.2.0.12"/>
            <rect  height="3.402" fill="#9A916C" id="connector16pin" x="66.18" width="1.559" y="28.624" gorn="0.2.0.13"/>
            <rect  height="3.402" fill="#9A916C" id="connector17pin" x="68.873" width="1.559" y="28.624" gorn="0.2.0.14"/>
            <rect  height="3.402" fill="#9A916C" id="connector18pin" x="68.873" width="1.559" y="21.254" gorn="0.2.0.15"/>
            <rect  height="3.402" fill="#9A916C" id="connector19pin" x="63.488" width="1.559" y="21.254" gorn="0.2.0.16"/>
            <circle  fill="none" id="connector36pin" stroke-width="1.3187" r="2.077" cx="14.4" cy="49.68" gorn="0.2.0.17" stroke="#9A916C"/>
            <circle  fill="none" id="connector37pin" stroke-width="1.3187" r="2.077" cx="21.6" cy="49.68" gorn="0.2.0.18" stroke="#9A916C"/>
            <circle  fill="none" id="connector38pin" stroke-width="1.3187" r="2.077" cx="28.8" cy="49.68" gorn="0.2.0.19" stroke="#9A916C"/>
            <circle  fill="none" id="connector39pin" stroke-width="1.3187" r="2.077" cx="36" cy="49.68" gorn="0.2.0.20" stroke="#9A916C"/>
            <circle  fill="none" id="connector40pin" stroke-width="1.3187" r="2.077" cx="43.2" cy="49.68" gorn="0.2.0.21" stroke="#9A916C"/>
            <circle  fill="none" id="connector41pin" stroke-width="1.3187" r="2.077" cx="50.4" cy="49.68" gorn="0.2.0.22" stroke="#9A916C"/>
            <circle  fill="none" id="connector42pin" stroke-width="1.3187" r="2.077" cx="57.6" cy="49.68" gorn="0.2.0.23" stroke="#9A916C"/>
            <circle  fill="none" id="connector43pin" stroke-width="1.3187" r="2.077" cx="64.8" cy="49.68" gorn="0.2.0.24" stroke="#9A916C"/>
            <circle  fill="none" id="connector44pin" stroke-width="1.3187" r="2.077" cx="72" cy="49.68" gorn="0.2.0.25" stroke="#9A916C"/>
            <g  transform="matrix(0, -1, 1, 0, 11.5852, 42.171)">
                <g >
                    <g >
                        <g  transform="matrix(-2.535182e-06 -1 1 -2.535182e-06 11.5852 42.1711)">
                            <g >
                                <rect  height="2.835" fill="#9A916C" id="connector45pin" x="24.894" width="3.968" y="13.876" gorn="0.2.0.26.0.0.0.0.0"/>
                            </g>
                        </g>
                    </g>
                </g>
            </g>
            <g  transform="matrix(0, -1, 1, 0, 16.971, 36.7852)">
                <g >
                    <g >
                        <g  transform="matrix(-2.535182e-06 -1 1 -2.535182e-06 16.9711 36.7852)">
                            <g >
                                <rect  height="2.835" fill="#9A916C" id="connector46pin" x="24.894" width="3.968" y="8.49" gorn="0.2.0.27.0.0.0.0.0"/>
                            </g>
                        </g>
                    </g>
                </g>
            </g>
            <g  transform="matrix(0, -1, 1, 0, 8.0419, 33.2419)">
                <g >
                    <g >
                        <g  transform="matrix(-2.535182e-06 -1 1 -2.535182e-06 8.0419 33.242)">
                            <g >
                                <rect  height="2.835" fill="#9A916C" id="connector47pin" x="18.658" width="3.969" y="11.183" gorn="0.2.0.28.0.0.0.0.0"/>
                            </g>
                        </g>
                    </g>
                </g>
            </g>
            <g  transform="matrix(-1, 0, 0, -1, 38.5058, 48.4838)">
                <g >
                    <g >
                        <rect  height="3.969" fill="#9A916C" id="connector48pin" x="17.836" width="2.835" y="22.258" gorn="0.2.0.29.0.0.0"/>
                    </g>
                </g>
            </g>
            <g  transform="matrix(-1, 0, 0, -1, 27.7342, 48.4838)">
                <g >
                    <g >
                        <rect  height="3.969" fill="#9A916C" id="connector49pin" x="12.45" width="2.835" y="22.258" gorn="0.2.0.30.0.0.0"/>
                    </g>
                </g>
            </g>
            <g  transform="matrix(-1, 0, 0, -1, 33.12, 60.9562)">
                <g >
                    <g >
                        <rect  height="3.968" fill="#9A916C" id="connector50pin" x="15.143" width="2.835" y="28.494" gorn="0.2.0.31.0.0.0"/>
                    </g>
                </g>
            </g>
            <rect  height="4.252" fill="#9A916C" id="connector51pin" x="12.385" width="3.685" y="15.154" gorn="0.2.0.32"/>
            <rect  height="4.252" fill="#9A916C" id="connector52pin" x="17.77" width="3.685" y="15.154" gorn="0.2.0.33"/>
            <rect  height="3.685" fill="#9A916C" id="connector53pin" x="11.619" width="3.402" y="34.877" gorn="0.2.0.34"/>
            <rect  height="3.685" fill="#9A916C" id="connector54pin" x="17.379" width="3.402" y="34.877" gorn="0.2.0.35"/>
            <rect  height="4.252" fill="#9A916C" id="connector55pin" x="21.745" width="3.685" y="34.594" gorn="0.2.0.36"/>
            <rect  height="4.252" fill="#9A916C" id="connector56pin" x="27.13" width="3.685" y="34.594" gorn="0.2.0.37"/>
            <g  transform="matrix(-1, 0, 0, -1, 64.4258, 56.88)">
                <g >
                    <g >
                        <rect  height="4.252" fill="#9A916C" id="connector57pin" x="30.37" width="3.685" y="26.314" gorn="0.2.0.38.0.0.0"/>
                    </g>
                </g>
            </g>
            <g  transform="matrix(-1, 0, 0, -1, 53.6542, 56.88)">
                <g >
                    <g >
                        <rect  height="4.252" fill="#9A916C" id="connector58pin" x="24.985" width="3.685" y="26.314" gorn="0.2.0.39.0.0.0"/>
                    </g>
                </g>
            </g>
            <g  transform="matrix(0, 1, -1, 0, 78.84, -29.88)">
                <g >
                    <g >
                        <g  transform="matrix(2.535182e-06 1 -1 2.535182e-06 78.8398 -29.8801)">
                            <g >
                                <rect  height="3.402" fill="#9A916C" id="connector59pin" x="52.517" width="3.685" y="22.779" gorn="0.2.0.40.0.0.0.0.0"/>
                            </g>
                        </g>
                    </g>
                </g>
            </g>
            <g  transform="matrix(0, 1, -1, 0, 84.6, -24.12)">
                <g >
                    <g >
                        <g  transform="matrix(2.535182e-06 1 -1 2.535182e-06 84.5998 -24.1201)">
                            <g >
                                <rect  height="3.402" fill="#9A916C" id="connector60pin" x="52.517" width="3.685" y="28.539" gorn="0.2.0.41.0.0.0.0.0"/>
                            </g>
                        </g>
                    </g>
                </g>
            </g>
            <rect  height="4.252" fill="#9A916C" id="connector61pin" x="32.185" width="3.685" y="34.594" gorn="0.2.0.42"/>
            <rect  height="4.252" fill="#9A916C" id="connector62pin" x="37.57" width="3.685" y="34.594" gorn="0.2.0.43"/>
            <circle  fill="none" id="connector63pin" stroke-width="1.44" r="3.838" cx="79.2" cy="7.2" gorn="0.2.0.44" stroke="#9A916C"/>
            <circle  fill="none" id="connector64pin" stroke-width="1.44" r="3.838" cx="7.2" cy="7.2" gorn="0.2.0.45" stroke="#9A916C"/>
            <circle  fill="none" id="connector65pin" stroke-width="1.44" r="3.838" cx="7.2" cy="43.56" gorn="0.2.0.46" stroke="#9A916C"/>
            <circle  fill="none" id="connector66pin" stroke-width="1.44" r="3.838" cx="79.2" cy="43.56" gorn="0.2.0.47" stroke="#9A916C"/>
            <path  fill="#9A916C" id="connector67pin" d="M41.04,9.383L41.04,9.383c0.783,0,1.417,0.635,1.417,1.417v0c0,0.783-0.635,1.417-1.417,1.417h0c-0.783,0-1.417-0.635-1.417-1.417v0C39.623,10.017,40.257,9.383,41.04,9.383z" gorn="0.2.0.48"/>
            <path  fill="#9A916C" id="connector68pin" d="M73.8,33.503L73.8,33.503c0.783,0,1.417,0.635,1.417,1.417v0c0,0.783-0.635,1.417-1.417,1.417h0c-0.783,0-1.417-0.635-1.417-1.417v0C72.382,34.137,73.017,33.503,73.8,33.503z" gorn="0.2.0.49"/>
        </g>
        <g  transform="matrix(1, 0, 0, 1, 26.6855, 21.6285)">
            <g >
                <g  id="_x30_805-cap" gorn="0.2.1.0.0">
                    <path  fill="#DCDCDC" d="M5.386,3.543H0.283C0.127,3.543,0,3.416,0,3.26V0.283C0,0.127,0.127,0,0.283,0h5.102c0.157,0,0.283,0.127,0.283,0.283V3.26C5.669,3.416,5.542,3.543,5.386,3.543z"/>
                    <rect  height="3.543" fill="#6E554B" x="1.063" width="3.543" y="0"/>
                </g>
            </g>
        </g>
        <g  transform="matrix(1, 0, 0, 1, 56.9255, 24.5085)">
            <g >
                <g  id="_x30_805-cap_1_" gorn="0.2.2.0.0">
                    <g  transform="matrix(0, -1, 1, 0, 1.063, 4.606)">
                        <g >
                            <g >
                                <path  fill="#DCDCDC" d="M5.386,3.543H0.283C0.127,3.543,0,3.416,0,3.26V0.283C0,0.127,0.127,0,0.283,0h5.102c0.157,0,0.283,0.127,0.283,0.283V3.26C5.669,3.416,5.542,3.543,5.386,3.543z"/>
                                <g  transform="matrix(-2.535182e-06 -1 1 -2.535182e-06 1.063 4.606)">
                                    <g >
                                        <rect  height="3.543" fill="#6E554B" x="1.063" width="3.543" y="0"/>
                                    </g>
                                </g>
                            </g>
                        </g>
                    </g>
                </g>
            </g>
        </g>
        <g  transform="matrix(1, 0, 0, 1, 31.7255, 13.3485)">
            <g >
                <g  id="_x30_805-cap_2_" gorn="0.2.3.0.0">
                    <g  transform="matrix(0, 1, -1, 0, 4.606, -1.063)">
                        <g >
                            <g >
                                <path  fill="#DCDCDC" d="M5.386,3.543H0.283C0.127,3.543,0,3.416,0,3.26V0.283C0,0.127,0.127,0,0.283,0h5.102c0.157,0,0.283,0.127,0.283,0.283V3.26C5.669,3.416,5.542,3.543,5.386,3.543z"/>
                                <g  transform="matrix(2.535182e-06 1 -1 2.535182e-06 4.606 -1.063)">
                                    <g >
                                        <rect  height="3.543" fill="#6E554B" x="1.063" width="3.543" y="0"/>
                                    </g>
                                </g>
                            </g>
                        </g>
                    </g>
                </g>
            </g>
        </g>
        <g  transform="matrix(1, 0, 0, 1, 58.7255, 33.5085)">
            <g >
                <g  id="_x30_805-cap_3_" gorn="0.2.4.0.0">
                    <path  fill="#DCDCDC" d="M5.386,3.543H0.283C0.127,3.543,0,3.416,0,3.26V0.283C0,0.127,0.127,0,0.283,0h5.102c0.157,0,0.283,0.127,0.283,0.283V3.26C5.669,3.416,5.542,3.543,5.386,3.543z"/>
                    <rect  height="3.543" fill="#6E554B" x="1.063" width="3.543" y="0"/>
                </g>
            </g>
        </g>
        <g  transform="matrix(1, 0, 0, 1, 45.0565, 33.8685)">
            <g >
                <g  id="sod-323f" gorn="0.2.5.0.0">
                    <g  transform="matrix(-1, 0, 0, -1, 7.087, 3.543)">
                        <g >
                            <g >
                                <rect  height="0.85" fill="#DCDCDC" id="rect3" x="0" width="7.087" y="1.346" gorn="0.2.5.0.0.0.0.0.0"/>
                                <rect  height="3.543" fill="#303030" id="rect5" x="1.134" width="4.819" y="0" gorn="0.2.5.0.0.0.0.0.1"/>
                                <rect  height="3.556" fill="#666666" id="rect3339" x="1.559" width="0.633" y="0.012" gorn="0.2.5.0.0.0.0.0.2"/>
                            </g>
                        </g>
                    </g>
                </g>
            </g>
        </g>
        <g  transform="matrix(1, 0, 0, 1, 62.85, 22.813)">
            <g >
                <g  id="sot23-5l" gorn="0.2.6.0.0">
                    <g >
                        <rect  height="7.654" fill="#DCDCDC" x="0.85" width="1.134" y="0"/>
                        <rect  height="7.654" fill="#DCDCDC" x="6.236" width="1.134" y="0"/>
                        <rect  height="3.118" fill="#DCDCDC" x="3.543" width="1.134" y="4.535"/>
                        <rect  height="4.535" fill="#303030" x="0" width="8.22" y="1.559"/>
                    </g>
                </g>
            </g>
        </g>
        <g  transform="matrix(1, 0, 0, 1, 38.305, 23.5691)">
            <g >
                <g  id="l3gd20h_lga16l" gorn="0.2.7.0.0">
                    <g  transform="matrix(0, -1, 1, 0, 0.642996, 9.14695)">
                        <g >
                            <g >
                                <g  transform="matrix(-2.535182e-06 -1 1 -2.535182e-06 2.544 11.048)">
                                    <g >
                                        <rect  height="8.504" fill="#333333" x="2.544" width="8.504" y="0"/>
                                    </g>
                                </g>
                            </g>
                        </g>
                    </g>
                </g>
            </g>
        </g>
        <g  transform="matrix(1, 0, 0, 1, 19.508, 8.77298)">
            <g >
                <g  id="sot23" gorn="0.2.8.0.0">
                    <g  transform="matrix(0, -1, 1, 0, 0.42498, 8.07898)">
                        <g >
                            <g >
                                <g >
                                    <g  transform="matrix(-2.535182e-06 -1 1 -2.535182e-06 -4.6065 7.7235)">
                                        <g >
                                            <rect  height="1.417" fill="#DCDCDC" x="0.071" width="2.976" y="5.457"/>
                                        </g>
                                    </g>
                                    <g  transform="matrix(-2.535182e-06 -1 1 -2.535182e-06 0.7795 13.1095)">
                                        <g >
                                            <rect  height="1.417" fill="#DCDCDC" x="5.457" width="2.976" y="5.457"/>
                                        </g>
                                    </g>
                                    <g  transform="matrix(-2.535182e-06 -1 1 -2.535182e-06 2.6925 5.8105)">
                                        <g >
                                            <rect  height="1.417" fill="#DCDCDC" x="2.692" width="3.118" y="0.851"/>
                                        </g>
                                    </g>
                                    <g  transform="matrix(-2.535182e-06 -1 1 -2.535182e-06 0.4255 8.0785)">
                                        <g >
                                            <rect  height="8.504" fill="#303030" x="2.409" width="3.685" y="-0.425"/>
                                        </g>
                                    </g>
                                </g>
                            </g>
                        </g>
                    </g>
                </g>
            </g>
        </g>
        <g  transform="matrix(1, 0, 0, 1, 12.308, 23.533)">
            <g >
                <g  id="sot23_1_" gorn="0.2.9.0.0">
                    <g  transform="matrix(-1, 0, 0, -1, 8.50399, 7.65403)">
                        <g >
                            <g >
                                <g >
                                    <rect  height="2.976" fill="#DCDCDC" x="0.85" width="1.417" y="4.677"/>
                                    <rect  height="2.976" fill="#DCDCDC" x="6.236" width="1.417" y="4.677"/>
                                    <rect  height="3.118" fill="#DCDCDC" x="3.543" width="1.417" y="0"/>
                                    <rect  height="3.685" fill="#303030" x="0" width="8.504" y="1.984"/>
                                </g>
                            </g>
                        </g>
                    </g>
                </g>
            </g>
        </g>
        <g  transform="matrix(1, 0, 0, 1, 14.0855, 15.5085)">
            <g >
                <g  id="_x30_805-res" gorn="0.2.10.0.0">
                    <path  fill="#DCDCDC" d="M5.386,3.543H0.283C0.127,3.543,0,3.416,0,3.26V0.283C0,0.127,0.127,0,0.283,0h5.102c0.157,0,0.283,0.127,0.283,0.283V3.26C5.669,3.416,5.542,3.543,5.386,3.543z"/>
                    <rect  height="3.543" fill="#333333" x="1.063" width="3.543" y="0"/>
                </g>
            </g>
        </g>
        <g  transform="matrix(1, 0, 0, 1, 13.3655, 34.9485)">
            <g >
                <g  id="_x30_805-res_1_" gorn="0.2.11.0.0">
                    <path  fill="#DCDCDC" d="M5.386,3.543H0.283C0.127,3.543,0,3.416,0,3.26V0.283C0,0.127,0.127,0,0.283,0h5.102c0.157,0,0.283,0.127,0.283,0.283V3.26C5.669,3.416,5.542,3.543,5.386,3.543z"/>
                    <rect  height="3.543" fill="#333333" x="1.063" width="3.543" y="0"/>
                </g>
            </g>
        </g>
        <g  transform="matrix(1, 0, 0, 1, 23.4455, 34.9485)">
            <g >
                <g  id="_x30_805-res_2_" gorn="0.2.12.0.0">
                    <path  fill="#DCDCDC" d="M5.386,3.543H0.283C0.127,3.543,0,3.416,0,3.26V0.283C0,0.127,0.127,0,0.283,0h5.102c0.157,0,0.283,0.127,0.283,0.283V3.26C5.669,3.416,5.542,3.543,5.386,3.543z"/>
                    <rect  height="3.543" fill="#333333" x="1.063" width="3.543" y="0"/>
                </g>
            </g>
        </g>
        <g  transform="matrix(1, 0, 0, 1, 26.6855, 26.6685)">
            <g >
                <g  id="_x30_805-res_3_" gorn="0.2.13.0.0">
                    <g  transform="matrix(-1, 0, 0, -1, 5.669, 3.543)">
                        <g >
                            <g >
                                <path  fill="#DCDCDC" d="M5.386,3.543H0.283C0.127,3.543,0,3.416,0,3.26V0.283C0,0.127,0.127,0,0.283,0h5.102c0.157,0,0.283,0.127,0.283,0.283V3.26C5.669,3.416,5.542,3.543,5.386,3.543z"/>
                                <rect  height="3.543" fill="#333333" x="1.063" width="3.543" y="0"/>
                            </g>
                        </g>
                    </g>
                </g>
            </g>
        </g>
        <g  transform="matrix(1, 0, 0, 1, 51.5255, 25.5885)">
            <g >
                <g  id="_x30_805-res_4_" gorn="0.2.14.0.0">
                    <g  transform="matrix(0, 1, -1, 0, 4.606, -1.063)">
                        <g >
                            <g >
                                <path  fill="#DCDCDC" d="M5.386,3.543H0.283C0.127,3.543,0,3.416,0,3.26V0.283C0,0.127,0.127,0,0.283,0h5.102c0.157,0,0.283,0.127,0.283,0.283V3.26C5.669,3.416,5.542,3.543,5.386,3.543z"/>
                                <g  transform="matrix(2.535182e-06 1 -1 2.535182e-06 4.606 -1.063)">
                                    <g >
                                        <rect  height="3.543" fill="#333333" x="1.063" width="3.543" y="0"/>
                                    </g>
                                </g>
                            </g>
                        </g>
                    </g>
                </g>
            </g>
        </g>
        <g  transform="matrix(1, 0, 0, 1, 33.8855, 34.9485)">
            <g >
                <g  id="_x30_805-res_5_" gorn="0.2.15.0.0">
                    <path  fill="#DCDCDC" d="M5.386,3.543H0.283C0.127,3.543,0,3.416,0,3.26V0.283C0,0.127,0.127,0,0.283,0h5.102c0.157,0,0.283,0.127,0.283,0.283V3.26C5.669,3.416,5.542,3.543,5.386,3.543z"/>
                    <rect  height="3.543" fill="#333333" x="1.063" width="3.543" y="0"/>
                </g>
            </g>
        </g>
    </g>
    <g  transform="matrix(1, 0, 0, 1, 41.7536, 11.4791)">
        <g >
            <g  id="symbol_gyroxyz_10mm_1_" gorn="0.3.0.0">
                <g >
                    <g >
                        <path  fill="#DCDCDC" d="M27.249,5.293c-0.865,0-1.569-0.704-1.569-1.569c0-0.866,0.704-1.57,1.569-1.57s1.569,0.704,1.569,1.57C28.819,4.589,28.115,5.293,27.249,5.293z M27.249,2.863c-0.475,0-0.86,0.386-0.86,0.861s0.386,0.86,0.86,0.86s0.86-0.386,0.86-0.86S27.724,2.863,27.249,2.863z"/>
                    </g>
                    <path  fill="#DCDCDC" d="M31.089,3.748l-1.897,1.779l0.556,0.168c-0.6,0.758-1.514,1.216-2.499,1.216c-1.757,0-3.187-1.43-3.187-3.188s1.43-3.188,3.187-3.188c1.758,0,3.188,1.43,3.188,3.188h1.305c0-2.477-2.016-4.492-4.492-4.492s-4.491,2.015-4.491,4.492s2.015,4.491,4.491,4.491c1.557,0,2.988-0.811,3.806-2.124l0.626,0.19L31.089,3.748z"/>
                    <path  fill="#DCDCDC" d="M7.468,3.658c0-1.518-0.594-2.943-1.672-4.011C5.541-0.606,5.127-0.604,4.874-0.349C4.621-0.093,4.623,0.32,4.878,0.573c0.829,0.822,1.286,1.918,1.286,3.085c0,0.664-0.285,1.516-0.686,2.168L4.764,5.237L4.225,8.443l3.046-1.135l-0.786-0.65C7.068,5.781,7.468,4.62,7.468,3.658z"/>
                    <path  fill="#DCDCDC" d="M21.628,3.594L18.382,3.76l0.504,0.779c-1.609,0.561-3.474,0.479-5.202-0.378c-0.323-0.163-0.714-0.028-0.874,0.294c-0.16,0.323-0.028,0.714,0.294,0.874c1.174,0.583,2.39,0.878,3.616,0.878c1.016,0,1.984-0.192,2.889-0.551l0.54,0.834L21.628,3.594z"/>
                    <path  fill="#DCDCDC" d="M1.378,4.051C1.376,4.037,1.263,3.888,1.263,3.626c0-0.263,0.113-0.412,0.152-0.433l3.869,0.006C5.249,2.957,5.197,2.72,5.116,2.492H1.378C0.924,2.492,0.555,3,0.555,3.626S0.924,4.76,1.378,4.76h3.703c0.093-0.241,0.154-0.48,0.196-0.709C5.277,4.051,1.378,4.051,1.378,4.051z"/>
                    <path  fill="#DCDCDC" d="M8.458,4.051C8.46,4.037,8.572,3.888,8.572,3.626c0-0.263-0.113-0.412-0.152-0.433L8.206,3.198C8.178,2.974,8.107,2.68,8.017,2.492h0.441c0.454,0,0.823,0.508,0.823,1.134S8.912,4.76,8.458,4.76H8.052c0.067-0.227,0.12-0.457,0.161-0.709H8.458z"/>
                    <path  fill="#DCDCDC" d="M16.189,0.207c0.014-0.002,0.163-0.115,0.425-0.115c0.263,0,0.412,0.113,0.433,0.152l-0.006,3.869c0.241-0.036,0.479-0.088,0.707-0.168V0.207c0-0.454-0.508-0.823-1.134-0.823c-0.626,0-1.134,0.369-1.134,0.823V3.91c0.241,0.093,0.48,0.154,0.709,0.196V0.207z"/>
                    <path  fill="#DCDCDC" d="M16.189,7.287c0.014,0.002,0.163,0.115,0.425,0.115c0.263,0,0.412-0.113,0.433-0.152l-0.006-0.215c0.224-0.028,0.519-0.099,0.707-0.189v0.441c0,0.454-0.508,0.823-1.134,0.823c-0.626,0-1.134-0.369-1.134-0.823V6.881c0.227,0.067,0.456,0.12,0.709,0.161C16.189,7.042,16.189,7.287,16.189,7.287z"/>
                </g>
            </g>
        </g>
    </g>
</svg>
