<?xml version='1.0' encoding='utf-8'?>
<!-- Generator: Adobe Illustrator 20.0.0, SVG Export Plug-In . SVG Version: 6.00 Build 0)  -->
<svg xmlns="http://www.w3.org/2000/svg"  baseProfile="tiny" height="0.5in" xml:space="preserve" id="Layer_1" xmlns:xml="http://www.w3.org/XML/1998/namespace" viewBox="0 0 36 36" x="0px" width="0.5in" y="0px" gorn="0" version="1.2">
    <desc >
        <referenceFile >Adafruit Touch Screen Breakout_breadboard.svg</referenceFile>
    </desc>
    <desc >Fritzing breadboard generated by brd2svg</desc>
    <g  id="breadboard" gorn="0.2">
        <g  id="icon" gorn="0.2.0">
            <path  fill="#014CB1" d="M7.2,0h21.6C32.776,0,36,3.224,36,7.2c0,0,0,0,0,0v21.6c0,3.976-3.224,7.2-7.2,7.2h0H7.2C3.224,36,0,32.776,0,28.8c0,0,0,0,0,0V7.2C0,3.224,3.224,0,7.2,0C7.2,0,7.2,0,7.2,0 M2.511,19.44c-0.003,2.192,1.771,3.971,3.962,3.975s3.971-1.771,3.975-3.962c0-0.004,0-0.008,0-0.012c0.003-2.192-1.77-3.971-3.962-3.975c-2.192-0.003-3.971,1.77-3.975,3.962C2.511,19.432,2.511,19.436,2.511,19.44z M26.271,19.44c-0.004,2.192,1.77,3.971,3.962,3.975c2.192,0.004,3.971-1.77,3.975-3.962c0-0.004,0-0.009,0-0.013c0.004-2.192-1.77-3.971-3.962-3.975s-3.971,1.77-3.975,3.962C26.271,19.431,26.271,19.436,26.271,19.44z M5.76,30.96c0,0.795,0.645,1.44,1.44,1.44s1.44-0.645,1.44-1.44s-0.645-1.44-1.44-1.44S5.76,30.165,5.76,30.96L5.76,30.96z M12.96,30.96c0,0.795,0.645,1.44,1.44,1.44c0.795,0,1.44-0.645,1.44-1.44s-0.645-1.44-1.44-1.44C13.605,29.52,12.96,30.165,12.96,30.96L12.96,30.96z M20.16,30.96c0,0.795,0.645,1.44,1.44,1.44s1.44-0.645,1.44-1.44s-0.645-1.44-1.44-1.44S20.16,30.165,20.16,30.96z M27.36,30.96c0,0.795,0.645,1.44,1.44,1.44s1.44-0.645,1.44-1.44s-0.645-1.44-1.44-1.44S27.36,30.165,27.36,30.96z"/>
            <g >
                <title >layer 21</title>
                <g >
                    <title >text:X-</title>
                    <g  transform="matrix(1 0 0 1 5.04 27.36)">
                        <g >
                            <text  fill="#FFFFFF" font-family="'OCRA'" font-size="2.67264">X-</text>
                        </g>
                    </g>
                </g>
                <g >
                    <title >text:Y+</title>
                    <g  transform="matrix(1 0 0 1 12.24 27.36)">
                        <g >
                            <text  fill="#FFFFFF" font-family="'OCRA'" font-size="2.67264">Y+</text>
                        </g>
                    </g>
                </g>
                <g >
                    <title >text:X+</title>
                    <g  transform="matrix(1 0 0 1 19.44 27.36)">
                        <g >
                            <text  fill="#FFFFFF" font-family="'OCRA'" font-size="2.67264">X+</text>
                        </g>
                    </g>
                </g>
                <g >
                    <title >text:Y-</title>
                    <g  transform="matrix(1 0 0 1 26.64 27.36)">
                        <g >
                            <text  fill="#FFFFFF" font-family="'OCRA'" font-size="2.67264">Y-</text>
                        </g>
                    </g>
                </g>
                <g >
                    <title >text:touch</title>
                    <g  transform="matrix(1 0 0 1 12.24 19.44)">
                        <g >
                            <text  fill="#FFFFFF" font-family="'OCRA'" font-size="2.67264">touch</text>
                        </g>
                    </g>
                </g>
                <g >
                    <title >text:screen</title>
                    <g  transform="matrix(1 0 0 1 10.8 22.32)">
                        <g >
                            <text  fill="#FFFFFF" font-family="'OCRA'" font-size="2.67264">screen</text>
                        </g>
                    </g>
                </g>
                <g >
                    <title >element:CN1</title>
                    <g >
                        <title >package:FPC_0.5MM-4</title>
                        <line  fill="none" y1="13.3" stroke-width="0.36" y2="13.3" x1="24.945" x2="10.205" stroke-linecap="round" stroke="#FFFFFF"/>
                        <line  fill="none" y1="13.3" stroke-width="0.36" y2="11.883" x1="10.205" x2="8.787" stroke-linecap="round" stroke="#FFFFFF"/>
                        <line  fill="none" y1="11.883" stroke-width="0.36" y2="0.544" x1="8.787" x2="8.787" stroke-linecap="round" stroke="#FFFFFF"/>
                        <line  fill="none" y1="0.544" stroke-width="0.36" y2="0.544" x1="8.787" x2="26.504" stroke-linecap="round" stroke="#FFFFFF"/>
                        <line  fill="none" y1="0.544" stroke-width="0.36" y2="3.804" x1="26.504" x2="26.504" stroke-linecap="round" stroke="#FFFFFF"/>
                        <line  fill="none" y1="3.804" stroke-width="0.36" y2="11.741" x1="26.504" x2="26.504" stroke-linecap="round" stroke="#FFFFFF"/>
                        <line  fill="none" y1="11.741" stroke-width="0.36" y2="13.3" x1="26.504" x2="24.945" stroke-linecap="round" stroke="#FFFFFF"/>
                        <line  fill="none" y1="3.804" stroke-width="0.36" y2="3.804" x1="26.504" x2="22.394" stroke-linecap="round" stroke="#FFFFFF"/>
                        <line  fill="none" y1="3.804" stroke-width="0.36" y2="0.686" x1="22.394" x2="22.394" stroke-linecap="round" stroke="#FFFFFF"/>
                        <line  fill="none" y1="3.804" stroke-width="0.36" y2="3.804" x1="8.929" x2="12.756" stroke-linecap="round" stroke="#FFFFFF"/>
                        <line  fill="none" y1="3.804" stroke-width="0.36" y2="0.686" x1="12.756" x2="12.756" stroke-linecap="round" stroke="#FFFFFF"/>
                    </g>
                </g>
                <g >
                    <title >element:JP1</title>
                    <g >
                        <title >package:1X04-CLEANBIG</title>
                    </g>
                </g>
                <g >
                    <title >element:U$1</title>
                    <g >
                        <title >package:ADAFRUIT200MIL</title>
                    </g>
                </g>
                <g >
                    <title >element:U$2</title>
                    <g >
                        <title >package:FIDUCIAL_1MM</title>
                    </g>
                </g>
                <g >
                    <title >element:U$3</title>
                    <g >
                        <title >package:FIDUCIAL_1MM</title>
                    </g>
                </g>
            </g>
            <g  transform="matrix(0, 1, -1, 0, 35.4104, -4.84158)">
                <g >
                    <g >
                        <g  transform="matrix(2.535182e-06 1 -1 2.535182e-06 35.4103 -4.8416)">
                            <g >
                                <rect  height="3.543" fill="#9A916C" id="connector5pin" x="19.701" width="0.85" y="13.513" gorn="0.2.0.2.0.0.0.0.0"/>
                            </g>
                        </g>
                    </g>
                </g>
            </g>
            <g  transform="matrix(0, 1, -1, 0, 33.9931, -3.42426)">
                <g >
                    <g >
                        <g  transform="matrix(2.535182e-06 1 -1 2.535182e-06 33.993 -3.4243)">
                            <g >
                                <rect  height="3.543" fill="#9A916C" id="connector6pin" x="18.283" width="0.85" y="13.513" gorn="0.2.0.3.0.0.0.0.0"/>
                            </g>
                        </g>
                    </g>
                </g>
            </g>
            <g  transform="matrix(0, 1, -1, 0, 32.5758, -2.00693)">
                <g >
                    <g >
                        <g  transform="matrix(2.535182e-06 1 -1 2.535182e-06 32.5757 -2.007)">
                            <g >
                                <rect  height="3.543" fill="#9A916C" id="connector7pin" x="16.866" width="0.85" y="13.513" gorn="0.2.0.4.0.0.0.0.0"/>
                            </g>
                        </g>
                    </g>
                </g>
            </g>
            <g  transform="matrix(0, 1, -1, 0, 31.1584, -0.589607)">
                <g >
                    <g >
                        <g  transform="matrix(2.535182e-06 1 -1 2.535182e-06 31.1584 -0.5897)">
                            <g >
                                <rect  height="3.543" fill="#9A916C" id="connector8pin" x="15.449" width="0.85" y="13.513" gorn="0.2.0.5.0.0.0.0.0"/>
                            </g>
                        </g>
                    </g>
                </g>
            </g>
            <g  transform="matrix(0, 1, -1, 0, 36.2608, -15.0463)">
                <g >
                    <g >
                        <g  transform="matrix(2.535182e-06 1 -1 2.535182e-06 36.2607 -15.0463)">
                            <g >
                                <rect  height="7.37" fill="#9A916C" id="connector9pin" x="23.031" width="5.244" y="6.922" gorn="0.2.0.6.0.0.0.0.0"/>
                            </g>
                        </g>
                    </g>
                </g>
            </g>
            <g  transform="matrix(0, 1, -1, 0, 20.9537, 0.260788)">
                <g >
                    <g >
                        <g  transform="matrix(2.535182e-06 1 -1 2.535182e-06 20.9537 0.2608)">
                            <g >
                                <rect  height="7.37" fill="#9A916C" id="connector10pin" x="7.724" width="5.244" y="6.922" gorn="0.2.0.7.0.0.0.0.0"/>
                            </g>
                        </g>
                    </g>
                </g>
            </g>
            <circle  fill="none" id="connector11pin" stroke-width="1.08" r="1.98" cx="7.2" cy="30.96" gorn="0.2.0.8" stroke="#9A916C"/>
            <circle  fill="none" id="connector12pin" stroke-width="1.08" r="1.98" cx="14.4" cy="30.96" gorn="0.2.0.9" stroke="#9A916C"/>
            <circle  fill="none" id="connector13pin" stroke-width="1.08" r="1.98" cx="21.6" cy="30.96" gorn="0.2.0.10" stroke="#9A916C"/>
            <circle  fill="none" id="connector14pin" stroke-width="1.08" r="1.98" cx="28.8" cy="30.96" gorn="0.2.0.11" stroke="#9A916C"/>
            <path  fill="#9A916C" id="connector15pin" d="M3.6,5.783L3.6,5.783c0.783,0,1.417,0.635,1.417,1.417v0c0,0.783-0.635,1.417-1.417,1.417h0c-0.783,0-1.417-0.635-1.417-1.417v0C2.183,6.417,2.817,5.783,3.6,5.783z" gorn="0.2.0.12"/>
            <path  fill="#9A916C" id="connector16pin" d="M32.4,5.783L32.4,5.783c0.783,0,1.417,0.635,1.417,1.417v0c0,0.783-0.635,1.417-1.417,1.417h0c-0.783,0-1.417-0.635-1.417-1.417v0C30.983,6.417,31.617,5.783,32.4,5.783z" gorn="0.2.0.13"/>
        </g>
    </g>
    <g >
        <rect  height="2.835" fill="#DCDCDC" x="15.615" width="0.567" y="13.361"/>
        <rect  height="2.835" fill="#DCDCDC" x="17.032" width="0.567" y="13.361"/>
        <rect  height="2.835" fill="#DCDCDC" x="18.45" width="0.567" y="13.361"/>
        <rect  height="2.835" fill="#DCDCDC" x="19.867" width="0.567" y="13.361"/>
        <rect  height="6.604" fill="#DCDCDC" x="8.419" width="4.521" y="7.504"/>
        <g  transform="matrix(-1 -4.466173e-11 4.466173e-11 -1 50.7397 21.6125)">
            <g >
                <rect  height="6.604" fill="#DCDCDC" x="23.109" width="4.521" y="7.504"/>
            </g>
        </g>
        <rect  height="6.955" fill="#F0F0EB" x="10.725" width="14.599" y="6.548"/>
        <path  fill="#333333" d="M21.443,0.628c0.221-0.221,0.346-0.346,0.567-0.567h5.44v3.804h-0.29v6.352H8.889V3.865h-0.29V0.061h5.44c0.221,0.221,0.346,0.346,0.567,0.567H21.443z"/>
        <polygon  fill="#FAFAF5" points="26.883,4.006 21.443,4.006 21.443,0.747 14.606,0.747 14.606,4.006 9.166,4.006 9.166,7.125 14.033,7.125 14.033,13.502 22.015,13.502 22.015,7.125 26.883,7.125 "/>
        <rect  height="3.144" fill="#DCDCDC" x="13.466" width="0.567" y="10.358"/>
        <rect  height="3.144" fill="#DCDCDC" x="22.015" width="0.567" y="10.358"/>
    </g>
</svg>
