<?xml version='1.0' encoding='utf-8'?>
<!-- Generator: Adobe Illustrator 20.0.0, SVG Export Plug-In . SVG Version: 6.00 Build 0)  -->
<svg xmlns="http://www.w3.org/2000/svg" baseProfile="tiny" width="1.57481in" viewBox="0 0 113.386 110.551"  xml:space="preserve" id="Layer_1" xmlns:xml="http://www.w3.org/XML/1998/namespace" x="0px" height="1.53543in" gorn="0" y="0px" version="1.2">
    <desc >
        <referenceFile >Adafruit SHARP Memory Display 1.3 inch 96x96_breadboard.svg</referenceFile>
    </desc>
    <desc >Fritzing breadboard generated by brd2svg</desc>
    <g  id="breadboard" gorn="0.2">
        <g  id="icon" gorn="0.2.0">
            <path fill="#014CB1"  d="M113.386,102.047c0,4.697-3.807,8.504-8.504,8.504c0,0,0,0,0,0H8.504c-4.697,0-8.504-3.807-8.504-8.504c0,0,0,0,0,0c0-4.697,3.807-8.504,8.504-8.504h5.669V17.008H8.504C3.807,17.008,0,13.201,0,8.504C0,3.808,3.807,0,8.504,0h96.378c4.697,0,8.504,3.807,8.504,8.504c0,0,0,0,0,0c0,4.697-3.807,8.504-8.504,8.504c0,0,0,0,0,0h-5.67v76.535h5.67C109.579,93.543,113.386,97.351,113.386,102.047C113.386,102.047,113.386,102.047,113.386,102.047 M84.076,103.351c0,0.783,0.635,1.417,1.417,1.417c0.783,0,1.417-0.635,1.417-1.417c0-0.783-0.635-1.417-1.417-1.417C84.71,101.934,84.076,102.568,84.076,103.351z M76.876,103.351c0,0.783,0.635,1.417,1.417,1.417c0.783,0,1.417-0.635,1.417-1.417c0-0.783-0.635-1.417-1.417-1.417C77.51,101.934,76.876,102.568,76.876,103.351z M69.676,103.351c0,0.783,0.635,1.417,1.417,1.417c0.783,0,1.417-0.635,1.417-1.417c0-0.783-0.635-1.417-1.417-1.417C70.31,101.934,69.676,102.568,69.676,103.351z M62.476,103.351c0,0.783,0.635,1.417,1.417,1.417c0.783,0,1.417-0.635,1.417-1.417c0-0.783-0.635-1.417-1.417-1.417C63.11,101.934,62.476,102.568,62.476,103.351z M55.276,103.351c0,0.783,0.635,1.417,1.417,1.417c0.783,0,1.417-0.635,1.417-1.417c0-0.783-0.635-1.417-1.417-1.417S55.276,102.568,55.276,103.351z M48.076,103.351c0,0.783,0.635,1.417,1.417,1.417s1.417-0.635,1.417-1.417c0-0.783-0.635-1.417-1.417-1.417S48.076,102.568,48.076,103.351z M40.876,103.351c0,0.783,0.635,1.417,1.417,1.417c0.783,0,1.417-0.635,1.417-1.417c0-0.783-0.635-1.417-1.417-1.417S40.876,102.568,40.876,103.351z M33.676,103.351c0,0.783,0.635,1.417,1.417,1.417s1.417-0.635,1.417-1.417c0-0.783-0.635-1.417-1.417-1.417S33.676,102.568,33.676,103.351z M26.476,103.351c0,0.783,0.635,1.417,1.417,1.417c0.783,0,1.417-0.635,1.417-1.417c0-0.783-0.635-1.417-1.417-1.417C27.11,101.934,26.476,102.568,26.476,103.351z M100.63,8.504c-0.005,2.348,1.895,4.256,4.243,4.261c2.348,0.005,4.256-1.895,4.261-4.243c0-0.006,0-0.012,0-0.017c0.005-2.348-1.895-4.256-4.243-4.261c-2.348-0.005-4.256,1.895-4.261,4.243C100.63,8.492,100.63,8.498,100.63,8.504z M4.252,8.504c-0.005,2.348,1.895,4.256,4.243,4.261c2.348,0.005,4.256-1.895,4.261-4.243c0-0.006,0-0.012,0-0.018c0.005-2.348-1.894-4.256-4.243-4.261S4.257,6.137,4.252,8.486C4.252,8.492,4.252,8.498,4.252,8.504z M100.63,102.047c-0.005,2.348,1.895,4.256,4.243,4.261c2.348,0.005,4.256-1.895,4.261-4.243c0-0.006,0-0.012,0-0.017c0.005-2.348-1.895-4.256-4.243-4.261c-2.348-0.005-4.256,1.895-4.261,4.243C100.63,102.036,100.63,102.041,100.63,102.047z M4.252,102.047c-0.005,2.348,1.895,4.256,4.243,4.261c2.348,0.005,4.256-1.895,4.261-4.243c0-0.006,0-0.012,0-0.018c0.005-2.348-1.894-4.256-4.243-4.261c-2.348-0.005-4.256,1.894-4.261,4.243C4.252,102.035,4.252,102.041,4.252,102.047z"/>
            <g >
                <title >layer 21</title>
                <g >
                    <title >text:VIN</title>
                    <g  transform="matrix(1 0 0 1 82.3349 99.7512)">
                        <g >
                            <text fill="#FFFFFF" font-size="2.67264" font-family="'OCRA'" >VIN</text>
                        </g>
                    </g>
                </g>
                <g >
                    <title >text:3v3</title>
                    <g  transform="matrix(1 0 0 1 74.7749 109.1112)">
                        <g >
                            <text fill="#FFFFFF" font-size="2.67264" font-family="'OCRA'" >3v3</text>
                        </g>
                    </g>
                </g>
                <g >
                    <title >text:GND</title>
                    <g  transform="matrix(1 0 0 1 67.5751 100.1112)">
                        <g >
                            <text fill="#FFFFFF" font-size="2.67264" font-family="'OCRA'" >GND</text>
                        </g>
                    </g>
                </g>
                <g >
                    <title >text:CLK</title>
                    <g  transform="matrix(1 0 0 1 60.0151 109.4712)">
                        <g >
                            <text fill="#FFFFFF" font-size="2.67264" font-family="'OCRA'" >CLK</text>
                        </g>
                    </g>
                </g>
                <g >
                    <title >text:DI</title>
                    <g  transform="matrix(1 0 0 1 54.6151 100.1112)">
                        <g >
                            <text fill="#FFFFFF" font-size="2.67264" font-family="'OCRA'" >DI</text>
                        </g>
                    </g>
                </g>
                <g >
                    <title >text:CS</title>
                    <g  transform="matrix(1 0 0 1 47.0551 109.4712)">
                        <g >
                            <text fill="#FFFFFF" font-size="2.67264" font-family="'OCRA'" >CS</text>
                        </g>
                    </g>
                </g>
                <g >
                    <title >text:EMD</title>
                    <g  transform="matrix(1 0 0 1 38.7751 100.1112)">
                        <g >
                            <text fill="#FFFFFF" font-size="2.67264" font-family="'OCRA'" >EMD</text>
                        </g>
                    </g>
                </g>
                <g >
                    <title >text:DISP</title>
                    <g  transform="matrix(1 0 0 1 30.8551 109.4712)">
                        <g >
                            <text fill="#FFFFFF" font-size="2.67264" font-family="'OCRA'" >DISP</text>
                        </g>
                    </g>
                </g>
                <g >
                    <title >text:EIN</title>
                    <g  transform="matrix(1 0 0 1 24.7351 100.1112)">
                        <g >
                            <text fill="#FFFFFF" font-size="2.67264" font-family="'OCRA'" >EIN</text>
                        </g>
                    </g>
                </g>
                <g >
                    <title >text:Adafruit Sharp Memory Disp</title>
                    <g  transform="matrix(1 0 0 1 17.1751 5.0714)">
                        <g >
                            <text fill="#FFFFFF" font-size="3.3408" font-family="'OCRA'" >Adafruit Sharp Memory Disp</text>
                        </g>
                    </g>
                </g>
                <g >
                    <title >element:C1</title>
                    <g >
                        <title >package:_0805</title>
                    </g>
                </g>
                <g >
                    <title >element:C2</title>
                    <g >
                        <title >package:_0805</title>
                    </g>
                </g>
                <g >
                    <title >element:C3</title>
                    <g >
                        <title >package:_0805</title>
                    </g>
                </g>
                <g >
                    <title >element:C4</title>
                    <g >
                        <title >package:_0805</title>
                    </g>
                </g>
                <g >
                    <title >element:C5</title>
                    <g >
                        <title >package:_0805</title>
                    </g>
                </g>
                <g >
                    <title >element:FB1</title>
                    <g >
                        <title >package:_0805</title>
                    </g>
                </g>
                <g >
                    <title >element:FB2</title>
                    <g >
                        <title >package:_0805</title>
                    </g>
                </g>
                <g >
                    <title >element:FID1</title>
                    <g >
                        <title >package:FIDUCIAL_1MM</title>
                    </g>
                </g>
                <g >
                    <title >element:FID2</title>
                    <g >
                        <title >package:FIDUCIAL_1MM</title>
                    </g>
                </g>
                <g >
                    <title >element:FID3</title>
                    <g >
                        <title >package:FIDUCIAL_1MM</title>
                    </g>
                </g>
                <g >
                    <title >element:IC1</title>
                    <g >
                        <title >package:FPC_10PIN_52892-1095</title>
                    </g>
                </g>
                <g >
                    <title >element:JP1</title>
                    <g >
                        <title >package:1X09_ROUND_70</title>
                    </g>
                </g>
                <g >
                    <title >element:R1</title>
                    <g >
                        <title >package:_0805</title>
                    </g>
                </g>
                <g >
                    <title >element:R2</title>
                    <g >
                        <title >package:_0805</title>
                    </g>
                </g>
                <g >
                    <title >element:R3</title>
                    <g >
                        <title >package:_0805</title>
                    </g>
                </g>
                <g >
                    <title >element:U$19</title>
                    <g >
                        <title >package:LOGIC_5VREADY_5MM</title>
                    </g>
                </g>
                <g >
                    <title >element:U$21</title>
                    <g >
                        <title >package:MOUNTINGHOLE_3.0_PLATEDTHIN</title>
                    </g>
                </g>
                <g >
                    <title >element:U$22</title>
                    <g >
                        <title >package:MOUNTINGHOLE_3.0_PLATEDTHIN</title>
                    </g>
                </g>
                <g >
                    <title >element:U$27</title>
                    <g >
                        <title >package:MOUNTINGHOLE_3.0_PLATEDTHIN</title>
                    </g>
                </g>
                <g >
                    <title >element:U$28</title>
                    <g >
                        <title >package:MOUNTINGHOLE_3.0_PLATEDTHIN</title>
                    </g>
                </g>
                <g >
                    <title >element:U$29</title>
                    <g >
                        <title >package:ADAFRUIT_5MM</title>
                    </g>
                </g>
                <g >
                    <title >element:U1</title>
                    <g >
                        <title >package:SOIC16</title>
                    </g>
                </g>
                <g >
                    <title >element:U2</title>
                    <g >
                        <title >package:SOT23-5</title>
                    </g>
                </g>
            </g>
            <circle fill="none" r="1.969"  stroke="#9A916C" id="connector5pin" stroke-width="1.1027" gorn="0.2.0.2" cx="85.493" cy="103.351"/>
            <circle fill="none" r="1.969"  stroke="#9A916C" id="connector6pin" stroke-width="1.1027" gorn="0.2.0.3" cx="78.293" cy="103.351"/>
            <circle fill="none" r="1.969"  stroke="#9A916C" id="connector7pin" stroke-width="1.1027" gorn="0.2.0.4" cx="71.093" cy="103.351"/>
            <circle fill="none" r="1.969"  stroke="#9A916C" id="connector8pin" stroke-width="1.1027" gorn="0.2.0.5" cx="63.893" cy="103.351"/>
            <circle fill="none" r="1.969"  stroke="#9A916C" id="connector9pin" stroke-width="1.1027" gorn="0.2.0.6" cx="56.693" cy="103.351"/>
            <circle fill="none" r="1.969"  stroke="#9A916C" id="connector10pin" stroke-width="1.1027" gorn="0.2.0.7" cx="49.493" cy="103.351"/>
            <circle fill="none" r="1.969"  stroke="#9A916C" id="connector11pin" stroke-width="1.1027" gorn="0.2.0.8" cx="42.293" cy="103.351"/>
            <circle fill="none" r="1.969"  stroke="#9A916C" id="connector12pin" stroke-width="1.1027" gorn="0.2.0.9" cx="35.093" cy="103.351"/>
            <circle fill="none" r="1.969"  stroke="#9A916C" id="connector13pin" stroke-width="1.1027" gorn="0.2.0.10" cx="27.893" cy="103.351"/>
            <circle fill="none" r="4.677"  stroke="#9A916C" id="connector14pin" stroke-width="0.8504" gorn="0.2.0.11" cx="104.882" cy="8.504"/>
            <circle fill="none" r="4.677"  stroke="#9A916C" id="connector15pin" stroke-width="0.8504" gorn="0.2.0.12" cx="8.504" cy="8.504"/>
            <circle fill="none" r="4.677"  stroke="#9A916C" id="connector16pin" stroke-width="0.8504" gorn="0.2.0.13" cx="104.882" cy="102.047"/>
            <circle fill="none" r="4.677"  stroke="#9A916C" id="connector17pin" stroke-width="0.8504" gorn="0.2.0.14" cx="8.504" cy="102.047"/>
        </g>
    </g>
    <g >
        <g  transform="matrix(-1 -8.979230e-11 8.979230e-11 -1 113.4622 102.1575)">
            <g >
                <rect fill="#416699" width="79.37" stroke-miterlimit="10"  stroke="#0000FF" stroke-width="0.0318" x="17.046" height="91.245" y="5.456"/>
            </g>
        </g>
        <path fill="#786E64"  d="M20.723,12.275c0,0,22.177-4.054,22.677-4.137c0.5-0.083,26.584,0,26.584,0l22.677,4.137H20.723z"/>
        <path fill="#786E64" stroke-miterlimit="10"  stroke="#A0968C" d="M20.723,12.275h71.939c1.566,0,2.835,1.269,2.835,2.835v77.838c0,1.566-1.269,2.835-2.835,2.835H20.723c-1.566,0-2.835-1.269-2.835-2.835V15.109C17.889,13.544,19.158,12.275,20.723,12.275z"/>
        <g  transform="matrix(-1 -8.979052e-11 8.979052e-11 -1 113.3856 113.8791)">
            <g >
                <rect fill="#C8C8D2" width="68.108"  x="22.639" height="68.185" y="22.847"/>
            </g>
        </g>
        <g  transform="matrix(-1 -8.977143e-11 8.977143e-11 -1 113.3856 8.1379)">
            <g >
                <rect fill="#E6AA50" width="26.584"  x="43.401" height="8.138" y="0"/>
            </g>
        </g>
        <rect fill="#9A916C" width="9.474"  x="22.639" height="4.411" y="6.857"/>
        <rect fill="#9A916C" width="2.688"  x="24.23" height="2.688" y="91.56"/>
        <rect fill="#9A916C" width="2.688"  x="28.012" height="2.688" y="91.56"/>
        <rect fill="#9A916C" width="2.688"  x="31.793" height="2.688" y="91.56"/>
        <g  transform="matrix(1 0 0 1 39.2793 51.0788)">
            <g >
                <text font-size="5.6" font-family="'DroidSans'" >1.3” SHARP</text>
            </g>
        </g>
        <g  transform="matrix(1 0 0 1 31.2368 59.4787)">
            <g >
                <text font-size="5.6" font-family="'DroidSans'" >Memory Display</text>
            </g>
        </g>
        <g  transform="matrix(1 0 0 1 47.2705 67.8786)">
            <g >
                <text font-size="5.6" font-family="'DroidSans'" >96x96</text>
            </g>
        </g>
    </g>
</svg>
