<?xml version='1.0' encoding='utf-8'?>
<!-- Generator: Adobe Illustrator 20.0.0, SVG Export Plug-In . SVG Version: 6.00 Build 0)  -->
<svg xmlns="http://www.w3.org/2000/svg" baseProfile="tiny" width="1.7in" viewBox="0 0 122.4 118.8"  xml:space="preserve" id="Layer_1" xmlns:xml="http://www.w3.org/XML/1998/namespace" x="0px" height="1.65in" gorn="0" y="0px" version="1.2">
    <desc >
        <referenceFile >Adafruit OLED Color 1.5 inch 128x128 w microSD_breadboard.svg</referenceFile>
    </desc>
    <desc >Fritzing breadboard generated by brd2svg</desc>
    <g  id="breadboard" gorn="0.2">
        <g  id="icon" gorn="0.2.0">
            <path fill="#014CB1"  d="M122.4,7.2v104.4c0,3.976-3.224,7.2-7.2,7.2h0H7.2c-3.976,0-7.2-3.224-7.2-7.2c0,0,0,0,0,0V7.2C0,3.224,3.224,0,7.2,0c0,0,0,0,0,0h108C119.176,0,122.4,3.224,122.4,7.2C122.4,7.2,122.4,7.2,122.4,7.2 M23.783,4.32c0,0.783,0.635,1.417,1.417,1.417c0.783,0,1.417-0.635,1.417-1.417S25.983,2.903,25.2,2.903C24.417,2.903,23.783,3.537,23.783,4.32z M30.983,4.32c0,0.783,0.635,1.417,1.417,1.417c0.783,0,1.417-0.635,1.417-1.417S33.183,2.903,32.4,2.903C31.617,2.903,30.983,3.537,30.983,4.32z M38.183,4.32c0,0.783,0.635,1.417,1.417,1.417s1.417-0.635,1.417-1.417S40.383,2.903,39.6,2.903S38.183,3.537,38.183,4.32L38.183,4.32z M45.383,4.32c0,0.783,0.635,1.417,1.417,1.417c0.783,0,1.417-0.635,1.417-1.417S47.583,2.903,46.8,2.903S45.383,3.537,45.383,4.32C45.383,4.32,45.383,4.32,45.383,4.32z M52.583,4.32c0,0.783,0.635,1.417,1.417,1.417c0.783,0,1.417-0.635,1.417-1.417S54.783,2.903,54,2.903S52.583,3.537,52.583,4.32C52.583,4.32,52.583,4.32,52.583,4.32z M59.783,4.32c0,0.783,0.635,1.417,1.417,1.417s1.417-0.635,1.417-1.417S61.983,2.903,61.2,2.903S59.783,3.537,59.783,4.32L59.783,4.32z M66.983,4.32c0,0.783,0.635,1.417,1.417,1.417c0.783,0,1.417-0.635,1.417-1.417S69.183,2.903,68.4,2.903C67.617,2.903,66.983,3.537,66.983,4.32L66.983,4.32z M74.182,4.32c0,0.783,0.635,1.417,1.417,1.417c0.783,0,1.417-0.635,1.417-1.417S76.382,2.903,75.6,2.903C74.817,2.903,74.182,3.537,74.182,4.32L74.182,4.32z M81.382,4.32c0,0.783,0.635,1.417,1.417,1.417c0.783,0,1.417-0.635,1.417-1.417S83.582,2.903,82.8,2.903C82.017,2.903,81.382,3.537,81.382,4.32L81.382,4.32z M88.582,4.32c0,0.783,0.635,1.417,1.417,1.417c0.783,0,1.417-0.635,1.417-1.417S90.782,2.903,90,2.903C89.217,2.903,88.582,3.537,88.582,4.32L88.582,4.32z M95.782,4.32c0,0.783,0.635,1.417,1.417,1.417c0.783,0,1.417-0.635,1.417-1.417S97.982,2.903,97.2,2.903C96.417,2.903,95.782,3.537,95.782,4.32L95.782,4.32z M111.657,111.6c-0.003,1.957,1.58,3.546,3.537,3.55c1.957,0.003,3.546-1.58,3.55-3.537c0-0.004,0-0.008,0-0.012c0.003-1.957-1.58-3.546-3.537-3.55c-1.957-0.003-3.546,1.58-3.55,3.537C111.657,111.592,111.657,111.596,111.657,111.6z M3.657,111.6c-0.003,1.957,1.58,3.546,3.537,3.549c1.957,0.003,3.546-1.58,3.549-3.537c0-0.004,0-0.008,0-0.012c0.003-1.957-1.58-3.546-3.537-3.549c-1.957-0.003-3.546,1.58-3.549,3.537C3.657,111.592,3.657,111.596,3.657,111.6z M3.657,7.2c-0.003,1.957,1.58,3.546,3.537,3.549s3.546-1.58,3.549-3.537c0-0.004,0-0.008,0-0.012c0.003-1.957-1.58-3.546-3.537-3.549C5.249,3.647,3.66,5.231,3.657,7.188C3.657,7.192,3.657,7.196,3.657,7.2z M111.657,7.2c-0.003,1.957,1.58,3.546,3.537,3.55c1.957,0.003,3.546-1.58,3.55-3.537c0-0.004,0-0.008,0-0.012c0.003-1.957-1.58-3.546-3.537-3.55c-1.957-0.003-3.546,1.58-3.55,3.537C111.657,7.192,111.657,7.196,111.657,7.2z"/>
            <g >
                <title >layer 21</title>
                <g >
                    <title >text:G</title>
                    <g  transform="matrix(1 0 0 1 95.6904 12.096)">
                        <g >
                            <text fill="#FFFFFF" font-size="3.3408" font-family="'OCRA'" >G</text>
                        </g>
                    </g>
                </g>
                <g >
                    <title >text:+</title>
                    <g  transform="matrix(1 0 0 1 88.4904 11.736)">
                        <g >
                            <text fill="#FFFFFF" font-size="3.3408" font-family="'OCRA'" >+</text>
                        </g>
                    </g>
                </g>
                <g >
                    <title >text:3v</title>
                    <g  transform="matrix(1 0 0 1 79.7808 11.736)">
                        <g >
                            <text fill="#FFFFFF" font-size="3.3408" font-family="'OCRA'" >3v</text>
                        </g>
                    </g>
                </g>
                <g >
                    <title >text:CD</title>
                    <g  transform="matrix(1 0 0 1 72.5808 11.736)">
                        <g >
                            <text fill="#FFFFFF" font-size="3.3408" font-family="'OCRA'" >CD</text>
                        </g>
                    </g>
                </g>
                <g >
                    <title >text:SO</title>
                    <g  transform="matrix(1 0 0 1 65.3808 11.736)">
                        <g >
                            <text fill="#FFFFFF" font-size="3.3408" font-family="'OCRA'" >SO</text>
                        </g>
                    </g>
                </g>
                <g >
                    <title >text:SC</title>
                    <g  transform="matrix(1 0 0 1 58.1808 11.736)">
                        <g >
                            <text fill="#FFFFFF" font-size="3.3408" font-family="'OCRA'" >SC</text>
                        </g>
                    </g>
                </g>
                <g >
                    <title >text:OC</title>
                    <g  transform="matrix(1 0 0 1 50.9808 11.736)">
                        <g >
                            <text fill="#FFFFFF" font-size="3.3408" font-family="'OCRA'" >OC</text>
                        </g>
                    </g>
                </g>
                <g >
                    <title >text:R</title>
                    <g  transform="matrix(1 0 0 1 45.2904 11.736)">
                        <g >
                            <text fill="#FFFFFF" font-size="3.3408" font-family="'OCRA'" >R</text>
                        </g>
                    </g>
                </g>
                <g >
                    <title >text:DC</title>
                    <g  transform="matrix(1 0 0 1 36.5808 11.736)">
                        <g >
                            <text fill="#FFFFFF" font-size="3.3408" font-family="'OCRA'" >DC</text>
                        </g>
                    </g>
                </g>
                <g >
                    <title >text:CL</title>
                    <g  transform="matrix(1 0 0 1 29.3808 11.736)">
                        <g >
                            <text fill="#FFFFFF" font-size="3.3408" font-family="'OCRA'" >CL</text>
                        </g>
                    </g>
                </g>
                <g >
                    <title >text:SI</title>
                    <g  transform="matrix(1 0 0 1 22.1808 11.736)">
                        <g >
                            <text fill="#FFFFFF" font-size="3.3408" font-family="'OCRA'" >SI</text>
                        </g>
                    </g>
                </g>
                <g >
                    <title >text:1.5" SSD1351 128x128 RGB OLED</title>
                    <g  transform="matrix(1, 0, 0, 1, 121.32, 59.04)">
                        <g >
                            <g >
                                <g  transform="rotate(270)">
                                    <g >
                                        <g >
                                            <g  transform="matrix(1 0 0 1 -43.7784 7.324217e-06)">
                                                <g >
                                                    <text fill="#FFFFFF" font-size="3.3408" font-family="'OCRA'" >1.5" SSD1351 128x128 RGB OLED</text>
                                                </g>
                                            </g>
                                        </g>
                                    </g>
                                </g>
                            </g>
                        </g>
                    </g>
                </g>
                <g >
                    <title >text:From Adafruit!</title>
                    <g  transform="matrix(1, 0, 0, 1, 4.32, 58.32)">
                        <g >
                            <g >
                                <g  transform="rotate(270)">
                                    <g >
                                        <g >
                                            <g  transform="matrix(1 0 0 1 -21.1341 7.324217e-06)">
                                                <g >
                                                    <text fill="#FFFFFF" font-size="3.3408" font-family="'OCRA'" >From Adafruit!</text>
                                                </g>
                                            </g>
                                        </g>
                                    </g>
                                </g>
                            </g>
                        </g>
                    </g>
                </g>
                <g >
                    <title >element:C1</title>
                    <g >
                        <title >package:0805</title>
                    </g>
                </g>
                <g >
                    <title >element:C2</title>
                    <g >
                        <title >package:0805</title>
                    </g>
                </g>
                <g >
                    <title >element:C3</title>
                    <g >
                        <title >package:0805</title>
                    </g>
                </g>
                <g >
                    <title >element:C4</title>
                    <g >
                        <title >package:0805</title>
                    </g>
                </g>
                <g >
                    <title >element:C5</title>
                    <g >
                        <title >package:0805</title>
                    </g>
                </g>
                <g >
                    <title >element:C6</title>
                    <g >
                        <title >package:0805</title>
                    </g>
                </g>
                <g >
                    <title >element:C7</title>
                    <g >
                        <title >package:0805</title>
                    </g>
                </g>
                <g >
                    <title >element:C8</title>
                    <g >
                        <title >package:0805</title>
                    </g>
                </g>
                <g >
                    <title >element:C9</title>
                    <g >
                        <title >package:0805</title>
                    </g>
                </g>
                <g >
                    <title >element:CN1</title>
                    <g >
                        <title >package:MICROSD</title>
                    </g>
                </g>
                <g >
                    <title >element:D1</title>
                    <g >
                        <title >package:SOD-323</title>
                    </g>
                </g>
                <g >
                    <title >element:D2</title>
                    <g >
                        <title >package:SOD-123</title>
                    </g>
                </g>
                <g >
                    <title >element:D3</title>
                    <g >
                        <title >package:SOD-323</title>
                    </g>
                </g>
                <g >
                    <title >element:JP1</title>
                    <g >
                        <title >package:1X11_ROUND_76</title>
                    </g>
                </g>
                <g >
                    <title >element:L1</title>
                    <g >
                        <title >package:INDUCTOR_1007</title>
                    </g>
                </g>
                <g >
                    <title >element:R4</title>
                    <g >
                        <title >package:0805</title>
                    </g>
                </g>
                <g >
                    <title >element:R5</title>
                    <g >
                        <title >package:0805</title>
                    </g>
                </g>
                <g >
                    <title >element:R6</title>
                    <g >
                        <title >package:0805</title>
                    </g>
                </g>
                <g >
                    <title >element:R7</title>
                    <g >
                        <title >package:0805</title>
                    </g>
                </g>
                <g >
                    <title >element:R8</title>
                    <g >
                        <title >package:0805</title>
                    </g>
                </g>
                <g >
                    <title >element:SJ1</title>
                    <g >
                        <title >package:SOLDERJUMPER_REFLOW_NOPASTE</title>
                    </g>
                </g>
                <g >
                    <title >element:U$22</title>
                    <g >
                        <title >package:MOUNTINGHOLE_2.5_PLATED</title>
                    </g>
                </g>
                <g >
                    <title >element:U$23</title>
                    <g >
                        <title >package:MOUNTINGHOLE_2.5_PLATED</title>
                    </g>
                </g>
                <g >
                    <title >element:U$24</title>
                    <g >
                        <title >package:MOUNTINGHOLE_2.5_PLATED</title>
                    </g>
                </g>
                <g >
                    <title >element:U$25</title>
                    <g >
                        <title >package:MOUNTINGHOLE_2.5_PLATED</title>
                    </g>
                </g>
                <g >
                    <title >element:U$26</title>
                    <g >
                        <title >package:FIDUCIAL_1MM</title>
                    </g>
                </g>
                <g >
                    <title >element:U$27</title>
                    <g >
                        <title >package:FIDUCIAL_1MM</title>
                    </g>
                </g>
                <g >
                    <title >element:U$28</title>
                    <g >
                        <title >package:ADAFRUIT_3.5MM</title>
                    </g>
                </g>
                <g >
                    <title >element:U$29</title>
                    <g >
                        <title >package:FIDUCIAL_1MM</title>
                    </g>
                </g>
                <g >
                    <title >element:U$30</title>
                    <g >
                        <title >package:LOGIC_5VREADY_5MM</title>
                    </g>
                </g>
                <g >
                    <title >element:U1</title>
                    <g >
                        <title >package:FPC_XF2M-3015-1A</title>
                    </g>
                </g>
                <g >
                    <title >element:U2</title>
                    <g >
                        <title >package:SOT23-5</title>
                    </g>
                </g>
                <g >
                    <title >element:U3</title>
                    <g >
                        <title >package:SOT23-5@1</title>
                    </g>
                </g>
                <g >
                    <title >element:U4</title>
                    <g >
                        <title >package:SOIC16</title>
                    </g>
                </g>
            </g>
            <circle fill="none" r="2.077"  stroke="#9A916C" id="connector5pin" stroke-width="1.3187" gorn="0.2.0.2" cx="25.2" cy="4.32"/>
            <rect fill="none" width="4.153"  stroke="#9A916C" stroke-width="1.3187" x="23.123" height="4.153" y="2.243"/>
            <circle fill="none" r="2.077"  stroke="#9A916C" id="connector6pin" stroke-width="1.3187" gorn="0.2.0.4" cx="32.4" cy="4.32"/>
            <circle fill="none" r="2.077"  stroke="#9A916C" id="connector7pin" stroke-width="1.3187" gorn="0.2.0.5" cx="39.6" cy="4.32"/>
            <circle fill="none" r="2.077"  stroke="#9A916C" id="connector8pin" stroke-width="1.3187" gorn="0.2.0.6" cx="46.8" cy="4.32"/>
            <circle fill="none" r="2.077"  stroke="#9A916C" id="connector9pin" stroke-width="1.3187" gorn="0.2.0.7" cx="54" cy="4.32"/>
            <circle fill="none" r="2.077"  stroke="#9A916C" id="connector10pin" stroke-width="1.3187" gorn="0.2.0.8" cx="61.2" cy="4.32"/>
            <circle fill="none" r="2.077"  stroke="#9A916C" id="connector11pin" stroke-width="1.3187" gorn="0.2.0.9" cx="68.4" cy="4.32"/>
            <circle fill="none" r="2.077"  stroke="#9A916C" id="connector12pin" stroke-width="1.3187" gorn="0.2.0.10" cx="75.6" cy="4.32"/>
            <circle fill="none" r="2.077"  stroke="#9A916C" id="connector13pin" stroke-width="1.3187" gorn="0.2.0.11" cx="82.8" cy="4.32"/>
            <circle fill="none" r="2.077"  stroke="#9A916C" id="connector14pin" stroke-width="1.3187" gorn="0.2.0.12" cx="90" cy="4.32"/>
            <circle fill="none" r="2.077"  stroke="#9A916C" id="connector15pin" stroke-width="1.3187" gorn="0.2.0.13" cx="97.2" cy="4.32"/>
            <circle fill="none" r="4.039"  stroke="#9A916C" id="connector16pin" stroke-width="0.9921" gorn="0.2.0.14" cx="115.2" cy="111.6"/>
            <circle fill="none" r="4.039"  stroke="#9A916C" id="connector17pin" stroke-width="0.9921" gorn="0.2.0.15" cx="7.2" cy="111.6"/>
            <circle fill="none" r="4.039"  stroke="#9A916C" id="connector18pin" stroke-width="0.9921" gorn="0.2.0.16" cx="7.2" cy="7.2"/>
            <circle fill="none" r="4.039"  stroke="#9A916C" id="connector19pin" stroke-width="0.9921" gorn="0.2.0.17" cx="115.2" cy="7.2"/>
        </g>
    </g>
    <g >
        <rect fill="#416699" width="95.811" stroke-miterlimit="10"  stroke="#0000FF" stroke-width="0.0318" x="13.294" height="96.378" y="14.768"/>
        <rect fill="#1E1E1E" width="92.126"  x="15.137" height="86.457" y="16.186"/>
        <rect fill="#3C535A" width="78.945"  x="21.728" height="7.795" y="111.005"/>
        <rect fill="#646464" width="56.268"  x="33.066" height="5.669" y="105.477"/>
        <rect fill="#333333" width="76.139"  x="23.131" height="76.139" y="20.721"/>
        <g  transform="matrix(1 0 0 1 38.8174 55.7903)">
            <g >
                <text fill="#FFFFFF" font-size="8" font-family="'DroidSans'" >1.5" OLED</text>
            </g>
        </g>
        <g  transform="matrix(1 0 0 1 42.1768 67.7903)">
            <g >
                <text fill="#FFFFFF" font-size="8" font-family="'DroidSans'" >128x128</text>
            </g>
        </g>
    </g>
</svg>
