<?xml version='1.0' encoding='UTF-8' standalone='no'?>
<!-- Created with Fritzing (http://www.fritzing.org/) -->
<svg xmlns="http://www.w3.org/2000/svg" version="1.2" height="1in" width="0.9in" x="0in" y="0in" viewBox="0 0 64.8 72"  baseProfile="tiny">
    <desc >
        <referenceFile >AT42QT1070_breadboard.svg</referenceFile>
    </desc>
    <desc >Fritzing breadboard generated by brd2svg</desc>
    <g gorn="0.2"  id="breadboard">
        <g gorn="0.2.0"  id="icon">
            <path  fill="#014cb1" stroke="none" d="M0,7.2A7.2,7.2,0,0,1,7.2,0L57.6,0A7.2,7.2,0,0,1,64.8,7.2L64.8,64.8A7.2,7.2,0,0,1,57.6,72L7.2,72A7.2,7.2,0,0,1,0,64.8L0,7.2M59.76,54.36a1.44,1.44,0,1,0,2.88,0,1.44,1.44,0,1,0,-2.88,0zM59.76,47.16a1.44,1.44,0,1,0,2.88,0,1.44,1.44,0,1,0,-2.88,0zM59.76,39.96a1.44,1.44,0,1,0,2.88,0,1.44,1.44,0,1,0,-2.88,0zM59.76,32.76a1.44,1.44,0,1,0,2.88,0,1.44,1.44,0,1,0,-2.88,0zM59.76,25.56a1.44,1.44,0,1,0,2.88,0,1.44,1.44,0,1,0,-2.88,0zM59.76,18.36a1.44,1.44,0,1,0,2.88,0,1.44,1.44,0,1,0,-2.88,0zM2.16,18.36a1.44,1.44,0,1,0,2.88,0,1.44,1.44,0,1,0,-2.88,0zM2.16,25.56a1.44,1.44,0,1,0,2.88,0,1.44,1.44,0,1,0,-2.88,0zM2.16,32.76a1.44,1.44,0,1,0,2.88,0,1.44,1.44,0,1,0,-2.88,0zM2.16,39.96a1.44,1.44,0,1,0,2.88,0,1.44,1.44,0,1,0,-2.88,0zM2.16,47.16a1.44,1.44,0,1,0,2.88,0,1.44,1.44,0,1,0,-2.88,0zM2.16,54.36a1.44,1.44,0,1,0,2.88,0,1.44,1.44,0,1,0,-2.88,0zM3.65669,7.2a3.54331,3.54331,0,1,0,7.08661,0,3.54331,3.54331,0,1,0,-7.08661,0zM54.0567,7.2a3.54331,3.54331,0,1,0,7.08661,0,3.54331,3.54331,0,1,0,-7.08661,0zM3.65669,64.8a3.54331,3.54331,0,1,0,7.08661,0,3.54331,3.54331,0,1,0,-7.08661,0zM54.0567,64.8a3.54331,3.54331,0,1,0,7.08661,0,3.54331,3.54331,0,1,0,-7.08661,0z" stroke-width="0"/>
            <g >
                <title >layer 21</title>
                <g >
                    <title >text:AT42QT1070</title>
                    <text x="14.04" font-family="OCRA" y="5.4"  fill="#ffffff" stroke="none" font-size="4.67712" stroke-width="0" text-anchor="start">AT42QT1070</text>
                </g>
                <g >
                    <title >text:5 Cap. Keys</title>
                    <text x="15.84" font-family="OCRA" y="66.24"  fill="#ffffff" stroke="none" font-size="4.176" stroke-width="0" text-anchor="start">5 Cap. Keys</text>
                </g>
                <g >
                    <title >text:1</title>
                    <text x="55.8" font-family="OCRA" y="41.04"  fill="#ffffff" stroke="none" font-size="3.3408" stroke-width="0" text-anchor="start">1</text>
                </g>
                <g >
                    <title >text:2</title>
                    <text x="55.8" font-family="OCRA" y="33.84"  fill="#ffffff" stroke="none" font-size="3.3408" stroke-width="0" text-anchor="start">2</text>
                </g>
                <g >
                    <title >text:3</title>
                    <text x="55.8" font-family="OCRA" y="26.28"  fill="#ffffff" stroke="none" font-size="3.3408" stroke-width="0" text-anchor="start">3</text>
                </g>
                <g >
                    <title >text:4</title>
                    <text x="55.8" font-family="OCRA" y="19.44"  fill="#ffffff" stroke="none" font-size="3.3408" stroke-width="0" text-anchor="start">4</text>
                </g>
                <g >
                    <title >text:0</title>
                    <text x="55.8" font-family="OCRA" y="48.24"  fill="#ffffff" stroke="none" font-size="3.3408" stroke-width="0" text-anchor="start">0</text>
                </g>
                <g >
                    <title >text:VDD</title>
                    <text x="50.76" font-family="OCRA" y="55.44"  fill="#ffffff" stroke="none" font-size="3.3408" stroke-width="0" text-anchor="start">VDD</text>
                </g>
                <g >
                    <title >text:Output</title>
                    <text x="35.28" font-family="OCRA" y="61.56"  fill="#ffffff" stroke="none" font-size="4.176" stroke-width="0" text-anchor="start">Output</text>
                </g>
                <g >
                    <title >text:Input</title>
                    <text x="13.68" font-family="OCRA" y="61.56"  fill="#ffffff" stroke="none" font-size="4.176" stroke-width="0" text-anchor="start">Input</text>
                </g>
                <g >
                    <title >text:4</title>
                    <text x="6.48" font-family="OCRA" y="17.28"  fill="#ffffff" stroke="none" font-size="3.3408" stroke-width="0" text-anchor="start">4</text>
                </g>
                <g >
                    <title >text:3</title>
                    <text x="6.48" font-family="OCRA" y="24.12"  fill="#ffffff" stroke="none" font-size="3.3408" stroke-width="0" text-anchor="start">3</text>
                </g>
                <g >
                    <title >text:2</title>
                    <text x="6.84" font-family="OCRA" y="31.32"  fill="#ffffff" stroke="none" font-size="3.3408" stroke-width="0" text-anchor="start">2</text>
                </g>
                <g >
                    <title >text:1</title>
                    <text x="6.84" font-family="OCRA" y="38.52"  fill="#ffffff" stroke="none" font-size="3.3408" stroke-width="0" text-anchor="start">1</text>
                </g>
                <g >
                    <title >text:0</title>
                    <text x="6.48" font-family="OCRA" y="45.72"  fill="#ffffff" stroke="none" font-size="3.3408" stroke-width="0" text-anchor="start">0</text>
                </g>
                <g >
                    <title >text:Gnd</title>
                    <text x="7.56" font-family="OCRA" y="55.44"  fill="#ffffff" stroke="none" font-size="3.3408" stroke-width="0" text-anchor="start">Gnd</text>
                </g>
                <g >
                    <title >text:Ch0 is guard key</title>
                    <text x="12.6" font-family="OCRA" y="70.56"  fill="#ffffff" stroke="none" font-size="3.3408" stroke-width="0" text-anchor="start">Ch0 is guard key</text>
                </g>
                <g >
                    <title >text:Standalone</title>
                    <text x="17.64" font-family="OCRA" y="11.16"  fill="#ffffff" stroke="none" font-size="4.176" stroke-width="0" text-anchor="start">Standalone</text>
                </g>
                <g >
                    <title >element:C1</title>
                    <g >
                        <title >package:C0805K</title>
                    </g>
                </g>
                <g >
                    <title >element:FID1</title>
                    <g >
                        <title >package:FIDUCIAL_1MM</title>
                    </g>
                </g>
                <g >
                    <title >element:FID2</title>
                    <g >
                        <title >package:FIDUCIAL_1MM</title>
                    </g>
                </g>
                <g >
                    <title >element:IC1</title>
                    <g >
                        <title >package:SO14</title>
                    </g>
                </g>
                <g >
                    <title >element:JP1</title>
                    <g >
                        <title >package:1X06-CLEANBIG</title>
                    </g>
                </g>
                <g >
                    <title >element:JP3</title>
                    <g >
                        <title >package:1X06-CLEANBIG</title>
                    </g>
                </g>
                <g >
                    <title >element:LED1</title>
                    <g >
                        <title >package:CHIP-LED0805</title>
                    </g>
                </g>
                <g >
                    <title >element:LED2</title>
                    <g >
                        <title >package:CHIP-LED0805</title>
                    </g>
                </g>
                <g >
                    <title >element:LED3</title>
                    <g >
                        <title >package:CHIP-LED0805</title>
                    </g>
                </g>
                <g >
                    <title >element:LED4</title>
                    <g >
                        <title >package:CHIP-LED0805</title>
                    </g>
                </g>
                <g >
                    <title >element:LED5</title>
                    <g >
                        <title >package:CHIP-LED0805</title>
                    </g>
                </g>
                <g >
                    <title >element:R1</title>
                    <g >
                        <title >package:R0805</title>
                    </g>
                </g>
                <g >
                    <title >element:R2</title>
                    <g >
                        <title >package:R0805</title>
                    </g>
                </g>
                <g >
                    <title >element:R3</title>
                    <g >
                        <title >package:R0805</title>
                    </g>
                </g>
                <g >
                    <title >element:R4</title>
                    <g >
                        <title >package:R0805</title>
                    </g>
                </g>
                <g >
                    <title >element:R5</title>
                    <g >
                        <title >package:R0805</title>
                    </g>
                </g>
                <g >
                    <title >element:R6</title>
                    <g >
                        <title >package:R0805</title>
                    </g>
                </g>
                <g >
                    <title >element:R7</title>
                    <g >
                        <title >package:R0805</title>
                    </g>
                </g>
                <g >
                    <title >element:R8</title>
                    <g >
                        <title >package:R0805</title>
                    </g>
                </g>
                <g >
                    <title >element:R9</title>
                    <g >
                        <title >package:R0805</title>
                    </g>
                </g>
                <g >
                    <title >element:R10</title>
                    <g >
                        <title >package:R0805</title>
                    </g>
                </g>
                <g >
                    <title >element:U$1</title>
                    <g >
                        <title >package:MOUNTINGHOLE_2.5_PLATED</title>
                        <circle cy="7.2" cx="7.2"  fill="none" stroke="white" stroke-width="0.576" r="5.66929"/>
                    </g>
                </g>
                <g >
                    <title >element:U$2</title>
                    <g >
                        <title >package:MOUNTINGHOLE_2.5_PLATED</title>
                        <circle cy="7.2" cx="57.6"  fill="none" stroke="white" stroke-width="0.576" r="5.66929"/>
                    </g>
                </g>
                <g >
                    <title >element:U$3</title>
                    <g >
                        <title >package:MOUNTINGHOLE_2.5_PLATED</title>
                        <circle cy="64.8" cx="7.2"  fill="none" stroke="white" stroke-width="0.576" r="5.66929"/>
                    </g>
                </g>
                <g >
                    <title >element:U$4</title>
                    <g >
                        <title >package:MOUNTINGHOLE_2.5_PLATED</title>
                        <circle cy="64.8" cx="57.6"  fill="none" stroke="white" stroke-width="0.576" r="5.66929"/>
                    </g>
                </g>
                <g >
                    <title >element:U$6</title>
                    <g >
                        <title >package:ADAFRUIT_5MM</title>
                    </g>
                </g>
            </g>
            <g  transform="matrix(-1, 0, 0, -1, 45.9893, 109.44)">
                <g >
                    <g >
                        <rect height="4.53543" width="3.68504" x="21.1522" gorn="0.2.0.2.0.0.0" y="52.4523"  fill="#9A916C" stroke="none" id="connector5pin" stroke-width="0"/>
                    </g>
                </g>
            </g>
            <g  transform="matrix(-1, 0, 0, -1, 34.6507, 109.44)">
                <g >
                    <g >
                        <rect height="4.53543" width="3.68504" x="15.4828" gorn="0.2.0.3.0.0.0" y="52.4523"  fill="#9A916C" stroke="none" id="connector6pin" stroke-width="0"/>
                    </g>
                </g>
            </g>
            <rect rx="1.41732" ry="1.41732" height="2.83465" width="2.83465" x="48.6227" gorn="0.2.0.4" y="11.5427"  fill="#9A916C" stroke="none" id="connector7pin" stroke-width="0"/>
            <rect rx="1.41732" ry="1.41732" height="2.83465" width="2.83465" x="29.9027" gorn="0.2.0.5" y="59.0627"  fill="#9A916C" stroke="none" id="connector8pin" stroke-width="0"/>
            <g  transform="matrix(0, -1, 1, 0, -6.66992, 83.3299)">
                <g >
                    <g >
                        <rect height="6.23622" width="1.70078" x="37.4797" gorn="0.2.0.6.0.0.0" y="41.8819"  fill="#9A916C" stroke="none" id="connector9pin" stroke-width="0"/>
                    </g>
                </g>
            </g>
            <g  transform="matrix(0, -1, 1, 0, -3.06992, 79.7299)">
                <g >
                    <g >
                        <rect height="6.23622" width="1.70078" x="37.4797" gorn="0.2.0.7.0.0.0" y="38.2819"  fill="#9A916C" stroke="none" id="connector10pin" stroke-width="0"/>
                    </g>
                </g>
            </g>
            <g  transform="matrix(0, -1, 1, 0, 0.530079, 76.1299)">
                <g >
                    <g >
                        <rect height="6.23622" width="1.70078" x="37.4797" gorn="0.2.0.8.0.0.0" y="34.6819"  fill="#9A916C" stroke="none" id="connector11pin" stroke-width="0"/>
                    </g>
                </g>
            </g>
            <g  transform="matrix(0, -1, 1, 0, 4.13008, 72.5299)">
                <g >
                    <g >
                        <rect height="6.23622" width="1.70078" x="37.4797" gorn="0.2.0.9.0.0.0" y="31.0819"  fill="#9A916C" stroke="none" id="connector12pin" stroke-width="0"/>
                    </g>
                </g>
            </g>
            <g  transform="matrix(0, -1, 1, 0, 7.73006, 68.9301)">
                <g >
                    <g >
                        <rect height="6.23622" width="1.70078" x="37.4797" gorn="0.2.0.10.0.0.0" y="27.4819"  fill="#9A916C" stroke="none" id="connector13pin" stroke-width="0"/>
                    </g>
                </g>
            </g>
            <g  transform="matrix(0, -1, 1, 0, 11.3301, 65.3301)">
                <g >
                    <g >
                        <rect height="6.23622" width="1.70078" x="37.4797" gorn="0.2.0.11.0.0.0" y="23.8819"  fill="#9A916C" stroke="none" id="connector14pin" stroke-width="0"/>
                    </g>
                </g>
            </g>
            <g  transform="matrix(0, -1, 1, 0, 14.9301, 61.7301)">
                <g >
                    <g >
                        <rect height="6.23622" width="1.70078" x="37.4797" gorn="0.2.0.12.0.0.0" y="20.2819"  fill="#9A916C" stroke="none" id="connector15pin" stroke-width="0"/>
                    </g>
                </g>
            </g>
            <g  transform="matrix(0, -1, 1, 0, 0.189921, 46.9899)">
                <g >
                    <g >
                        <rect height="6.23622" width="1.70078" x="22.7395" gorn="0.2.0.13.0.0.0" y="20.2819"  fill="#9A916C" stroke="none" id="connector16pin" stroke-width="0"/>
                    </g>
                </g>
            </g>
            <g  transform="matrix(0, -1, 1, 0, -3.41008, 50.5899)">
                <g >
                    <g >
                        <rect height="6.23622" width="1.70078" x="22.7395" gorn="0.2.0.14.0.0.0" y="23.8819"  fill="#9A916C" stroke="none" id="connector17pin" stroke-width="0"/>
                    </g>
                </g>
            </g>
            <g  transform="matrix(0, -1, 1, 0, -7.01008, 54.1899)">
                <g >
                    <g >
                        <rect height="6.23622" width="1.70078" x="22.7395" gorn="0.2.0.15.0.0.0" y="27.4819"  fill="#9A916C" stroke="none" id="connector18pin" stroke-width="0"/>
                    </g>
                </g>
            </g>
            <g  transform="matrix(0, -1, 1, 0, -10.6101, 57.7899)">
                <g >
                    <g >
                        <rect height="6.23622" width="1.70078" x="22.7395" gorn="0.2.0.16.0.0.0" y="31.0819"  fill="#9A916C" stroke="none" id="connector19pin" stroke-width="0"/>
                    </g>
                </g>
            </g>
            <g  transform="matrix(0, -1, 1, 0, -14.2101, 61.3899)">
                <g >
                    <g >
                        <rect height="6.23622" width="1.70078" x="22.7395" gorn="0.2.0.17.0.0.0" y="34.6819"  fill="#9A916C" stroke="none" id="connector20pin" stroke-width="0"/>
                    </g>
                </g>
            </g>
            <g  transform="matrix(0, -1, 1, 0, -17.8101, 64.9899)">
                <g >
                    <g >
                        <rect height="6.23622" width="1.70078" x="22.7395" gorn="0.2.0.18.0.0.0" y="38.2819"  fill="#9A916C" stroke="none" id="connector21pin" stroke-width="0"/>
                    </g>
                </g>
            </g>
            <g  transform="matrix(0, -1, 1, 0, -21.4101, 68.5899)">
                <g >
                    <g >
                        <rect height="6.23622" width="1.70078" x="22.7395" gorn="0.2.0.19.0.0.0" y="41.8819"  fill="#9A916C" stroke="none" id="connector22pin" stroke-width="0"/>
                    </g>
                </g>
            </g>
            <circle cy="54.36" cx="61.2" gorn="0.2.0.20" connectorname="VDD"  fill="none" stroke="#9A916C" id="connector23pin" stroke-width="1.08" r="1.98"/>
            <circle cy="47.16" cx="61.2" gorn="0.2.0.21" connectorname="OUT0"  fill="none" stroke="#9A916C" id="connector24pin" stroke-width="1.08" r="1.98"/>
            <circle cy="39.96" cx="61.2" gorn="0.2.0.22" connectorname="OUT1"  fill="none" stroke="#9A916C" id="connector25pin" stroke-width="1.08" r="1.98"/>
            <circle cy="32.76" cx="61.2" gorn="0.2.0.23" connectorname="OUT2"  fill="none" stroke="#9A916C" id="connector26pin" stroke-width="1.08" r="1.98"/>
            <circle cy="25.56" cx="61.2" gorn="0.2.0.24" connectorname="OUT3"  fill="none" stroke="#9A916C" id="connector27pin" stroke-width="1.08" r="1.98"/>
            <circle cy="18.36" cx="61.2" gorn="0.2.0.25" connectorname="OUT4"  fill="none" stroke="#9A916C" id="connector28pin" stroke-width="1.08" r="1.98"/>
            <circle cy="18.36" cx="3.6" gorn="0.2.0.26" connectorname="CAP4"  fill="none" stroke="#9A916C" id="connector29pin" stroke-width="1.08" r="1.98"/>
            <circle cy="25.56" cx="3.6" gorn="0.2.0.27" connectorname="CAP3"  fill="none" stroke="#9A916C" id="connector30pin" stroke-width="1.08" r="1.98"/>
            <circle cy="32.76" cx="3.6" gorn="0.2.0.28" connectorname="CAP2"  fill="none" stroke="#9A916C" id="connector31pin" stroke-width="1.08" r="1.98"/>
            <circle cy="39.96" cx="3.6" gorn="0.2.0.29" connectorname="CAP1"  fill="none" stroke="#9A916C" id="connector32pin" stroke-width="1.08" r="1.98"/>
            <circle cy="47.16" cx="3.6" gorn="0.2.0.30" connectorname="CAP0"  fill="none" stroke="#9A916C" id="connector33pin" stroke-width="1.08" r="1.98"/>
            <circle cy="54.36" cx="3.6" gorn="0.2.0.31" connectorname="GND"  fill="none" stroke="#9A916C" id="connector34pin" stroke-width="1.08" r="1.98"/>
            <g  transform="matrix(0, 1, -1, 0, 94.2235, 0.0963778)">
                <g >
                    <g >
                        <rect height="3.40158" width="3.40158" x="45.3628" gorn="0.2.0.32.0.0.0" y="45.4592"  fill="#9A916C" stroke="none" id="connector35pin" stroke-width="0"/>
                    </g>
                </g>
            </g>
            <g  transform="matrix(0, 1, -1, 0, 100.176, -5.85638)">
                <g >
                    <g >
                        <rect height="3.40158" width="3.40158" x="51.3156" gorn="0.2.0.33.0.0.0" y="45.4592"  fill="#9A916C" stroke="none" id="connector36pin" stroke-width="0"/>
                    </g>
                </g>
            </g>
            <g  transform="matrix(0, 1, -1, 0, 87.0235, -7.10362)">
                <g >
                    <g >
                        <rect height="3.40158" width="3.40158" x="45.3628" gorn="0.2.0.34.0.0.0" y="38.2592"  fill="#9A916C" stroke="none" id="connector37pin" stroke-width="0"/>
                    </g>
                </g>
            </g>
            <g  transform="matrix(0, 1, -1, 0, 92.9765, -13.0564)">
                <g >
                    <g >
                        <rect height="3.40158" width="3.40158" x="51.3156" gorn="0.2.0.35.0.0.0" y="38.2592"  fill="#9A916C" stroke="none" id="connector38pin" stroke-width="0"/>
                    </g>
                </g>
            </g>
            <g  transform="matrix(0, 1, -1, 0, 79.8235, -14.3036)">
                <g >
                    <g >
                        <rect height="3.40158" width="3.40158" x="45.3628" gorn="0.2.0.36.0.0.0" y="31.0592"  fill="#9A916C" stroke="none" id="connector39pin" stroke-width="0"/>
                    </g>
                </g>
            </g>
            <g  transform="matrix(0, 1, -1, 0, 85.7765, -20.2564)">
                <g >
                    <g >
                        <rect height="3.40158" width="3.40158" x="51.3156" gorn="0.2.0.37.0.0.0" y="31.0592"  fill="#9A916C" stroke="none" id="connector40pin" stroke-width="0"/>
                    </g>
                </g>
            </g>
            <g  transform="matrix(0, 1, -1, 0, 72.6235, -21.5036)">
                <g >
                    <g >
                        <rect height="3.40158" width="3.40158" x="45.3628" gorn="0.2.0.38.0.0.0" y="23.8592"  fill="#9A916C" stroke="none" id="connector41pin" stroke-width="0"/>
                    </g>
                </g>
            </g>
            <g  transform="matrix(0, 1, -1, 0, 78.5765, -27.4564)">
                <g >
                    <g >
                        <rect height="3.40158" width="3.40158" x="51.3156" gorn="0.2.0.39.0.0.0" y="23.8592"  fill="#9A916C" stroke="none" id="connector42pin" stroke-width="0"/>
                    </g>
                </g>
            </g>
            <g  transform="matrix(0, 1, -1, 0, 65.4236, -28.7036)">
                <g >
                    <g >
                        <rect height="3.40158" width="3.40158" x="45.3628" gorn="0.2.0.40.0.0.0" y="16.6592"  fill="#9A916C" stroke="none" id="connector43pin" stroke-width="0"/>
                    </g>
                </g>
            </g>
            <g  transform="matrix(0, 1, -1, 0, 71.3764, -34.6564)">
                <g >
                    <g >
                        <rect height="3.40158" width="3.40158" x="51.3156" gorn="0.2.0.41.0.0.0" y="16.6592"  fill="#9A916C" stroke="none" id="connector44pin" stroke-width="0"/>
                    </g>
                </g>
            </g>
            <rect height="4.25197" width="3.68504" x="8.78458" gorn="0.2.0.42" y="45.034"  fill="#9A916C" stroke="none" id="connector45pin" stroke-width="0"/>
            <rect height="4.25197" width="3.68504" x="14.1704" gorn="0.2.0.43" y="45.034"  fill="#9A916C" stroke="none" id="connector46pin" stroke-width="0"/>
            <rect height="4.25197" width="3.68504" x="8.78458" gorn="0.2.0.44" y="37.834"  fill="#9A916C" stroke="none" id="connector47pin" stroke-width="0"/>
            <rect height="4.25197" width="3.68504" x="14.1704" gorn="0.2.0.45" y="37.834"  fill="#9A916C" stroke="none" id="connector48pin" stroke-width="0"/>
            <rect height="4.25197" width="3.68504" x="8.78458" gorn="0.2.0.46" y="30.634"  fill="#9A916C" stroke="none" id="connector49pin" stroke-width="0"/>
            <rect height="4.25197" width="3.68504" x="14.1704" gorn="0.2.0.47" y="30.634"  fill="#9A916C" stroke="none" id="connector50pin" stroke-width="0"/>
            <rect height="4.25197" width="3.68504" x="8.78458" gorn="0.2.0.48" y="23.794"  fill="#9A916C" stroke="none" id="connector51pin" stroke-width="0"/>
            <rect height="4.25197" width="3.68504" x="14.1704" gorn="0.2.0.49" y="23.794"  fill="#9A916C" stroke="none" id="connector52pin" stroke-width="0"/>
            <rect height="4.25197" width="3.68504" x="8.78458" gorn="0.2.0.50" y="16.234"  fill="#9A916C" stroke="none" id="connector53pin" stroke-width="0"/>
            <rect height="4.25197" width="3.68504" x="14.1704" gorn="0.2.0.51" y="16.234"  fill="#9A916C" stroke="none" id="connector54pin" stroke-width="0"/>
            <rect height="4.25197" width="3.68504" x="40.4646" gorn="0.2.0.52" y="52.234"  fill="#9A916C" stroke="none" id="connector55pin" stroke-width="0"/>
            <rect height="4.25197" width="3.68504" x="45.8504" gorn="0.2.0.53" y="52.234"  fill="#9A916C" stroke="none" id="connector56pin" stroke-width="0"/>
            <g  transform="matrix(0, 1, -1, 0, 86.2272, 13.5071)">
                <g >
                    <g >
                        <rect height="4.25197" width="3.68504" x="34.5174" gorn="0.2.0.54.0.0.0" y="47.7411"  fill="#9A916C" stroke="none" id="connector57pin" stroke-width="0"/>
                    </g>
                </g>
            </g>
            <g  transform="matrix(0, 1, -1, 0, 91.6128, 18.8929)">
                <g >
                    <g >
                        <rect height="4.25197" width="3.68504" x="34.5174" gorn="0.2.0.55.0.0.0" y="53.1269"  fill="#9A916C" stroke="none" id="connector58pin" stroke-width="0"/>
                    </g>
                </g>
            </g>
            <g  transform="matrix(0, 1, -1, 0, 79.0272, 20.7071)">
                <g >
                    <g >
                        <rect height="4.25197" width="3.68504" x="27.3174" gorn="0.2.0.56.0.0.0" y="47.7411"  fill="#9A916C" stroke="none" id="connector59pin" stroke-width="0"/>
                    </g>
                </g>
            </g>
            <g  transform="matrix(0, 1, -1, 0, 84.4128, 26.0929)">
                <g >
                    <g >
                        <rect height="4.25197" width="3.68504" x="27.3174" gorn="0.2.0.57.0.0.0" y="53.1269"  fill="#9A916C" stroke="none" id="connector60pin" stroke-width="0"/>
                    </g>
                </g>
            </g>
            <g  transform="matrix(-1, 0, 0, -1, 60.8258, 36.72)">
                <g >
                    <g >
                        <rect height="4.25197" width="3.68504" x="28.5704" gorn="0.2.0.58.0.0.0" y="16.234"  fill="#9A916C" stroke="none" id="connector61pin" stroke-width="0"/>
                    </g>
                </g>
            </g>
            <g  transform="matrix(-1, 0, 0, -1, 50.0542, 36.72)">
                <g >
                    <g >
                        <rect height="4.25197" width="3.68504" x="23.1846" gorn="0.2.0.59.0.0.0" y="16.234"  fill="#9A916C" stroke="none" id="connector62pin" stroke-width="0"/>
                    </g>
                </g>
            </g>
            <g  transform="matrix(-1, 0, 0, -1, 83.8656, 34.56)">
                <g >
                    <g >
                        <rect height="4.25197" width="3.68504" x="40.0904" gorn="0.2.0.60.0.0.0" y="15.154"  fill="#9A916C" stroke="none" id="connector63pin" stroke-width="0"/>
                    </g>
                </g>
            </g>
            <g  transform="matrix(-1, 0, 0, -1, 73.0944, 34.56)">
                <g >
                    <g >
                        <rect height="4.25197" width="3.68504" x="34.7046" gorn="0.2.0.61.0.0.0" y="15.154"  fill="#9A916C" stroke="none" id="connector64pin" stroke-width="0"/>
                    </g>
                </g>
            </g>
            <circle cy="7.2" cx="7.2" gorn="0.2.0.62" connectorname="P$1"  fill="none" stroke="#9A916C" id="connector65pin" stroke-width="1.44" r="4.26331"/>
            <circle cy="7.2" cx="57.6" gorn="0.2.0.63" connectorname="P$1"  fill="none" stroke="#9A916C" id="connector66pin" stroke-width="1.44" r="4.26331"/>
            <circle cy="64.8" cx="7.2" gorn="0.2.0.64" connectorname="P$1"  fill="none" stroke="#9A916C" id="connector67pin" stroke-width="1.44" r="4.26331"/>
            <circle cy="64.8" cx="57.6" gorn="0.2.0.65" connectorname="P$1"  fill="none" stroke="#9A916C" id="connector68pin" stroke-width="1.44" r="4.26331"/>
        </g>
        <g  transform="matrix(1, 0, 0, 1, 17.3255, 52.9485)">
            <g >
                <g gorn="0.2.1.0.0"  id="c0805k">
                    <g  transform="matrix(-1, 0, 0, -1, 5.669, 3.543)">
                        <g >
                            <g >
                                <path  fill="#DCDCDC" d="M5.386,3.543L0.283,3.543C0.127,3.543,0,3.416,0,3.26L0,0.283C0,0.127,0.127,0,0.283,0l5.102,0c0.157,0,0.283,0.127,0.283,0.283L5.668,3.26C5.669,3.416,5.542,3.543,5.386,3.543z"/>
                                <rect height="3.543" width="3.543" x="1.063"  fill="#6E554B"/>
                            </g>
                        </g>
                    </g>
                </g>
            </g>
        </g>
        <g  transform="matrix(1, 0, 0, 1, 18.5698, 25.6961)">
            <g >
                <g gorn="0.2.2.0.0"  id="so14">
                    <g  transform="matrix(0, -1, 1, 0, 3.88627, 20.8941)">
                        <g >
                            <g >
                                <defs  id="defs8426"/>
                                <metadata  id="metadata8429">
                                    <rdf:RDF xmlns:rdf="http://www.w3.org/1999/02/22-rdf-syntax-ns#">
                                        <cc:Work xmlns:cc="http://creativecommons.org/ns#" rdf:about="" xmlns:rdf="http://www.w3.org/1999/02/22-rdf-syntax-ns#">
                                            <dc:format xmlns:dc="http://purl.org/dc/elements/1.1/">image/svg+xml</dc:format>
                                            <dc:type xmlns:dc="http://purl.org/dc/elements/1.1/" rdf:resource="http://purl.org/dc/dcmitype/StillImage" xmlns:rdf="http://www.w3.org/1999/02/22-rdf-syntax-ns#"/>
                                            <dc:title xmlns:dc="http://purl.org/dc/elements/1.1/"/>
                                        </cc:Work>
                                    </rdf:RDF>
                                </metadata>
                                <g  transform="matrix(1, 0, 0, 1, -298.069, -415.572)">
                                    <g >
                                        <g gorn="0.2.2.0.0.0.0.0.2.0.0"  groupmode="layer" label="Layer 1" id="layer1">
                                            <rect height="17.0078" width="1.13386" x="320.803" gorn="0.2.2.0.0.0.0.0.2.0.0.0" y="415.572"  fill="#cccccc" stroke="none" id="rect4202" stroke-width="0"/>
                                            <rect height="17.0078" width="1.13386" x="317.203" gorn="0.2.2.0.0.0.0.0.2.0.0.1" y="415.572"  fill="#cccccc" stroke="none" id="rect4204" stroke-width="0"/>
                                            <rect height="17.0078" width="1.13386" x="313.603" gorn="0.2.2.0.0.0.0.0.2.0.0.2" y="415.572"  fill="#cccccc" stroke="none" id="rect4206" stroke-width="0"/>
                                            <rect height="17.0078" width="1.13386" x="310.003" gorn="0.2.2.0.0.0.0.0.2.0.0.3" y="415.572"  fill="#cccccc" stroke="none" id="rect4196" stroke-width="0"/>
                                            <rect height="17.0078" width="1.13386" x="306.403" gorn="0.2.2.0.0.0.0.0.2.0.0.4" y="415.572"  fill="#cccccc" stroke="none" id="rect4198" stroke-width="0"/>
                                            <rect height="17.0078" width="1.13386" x="302.803" gorn="0.2.2.0.0.0.0.0.2.0.0.5" y="415.572"  fill="#cccccc" stroke="none" id="rect4194" stroke-width="0"/>
                                            <rect height="17.0078" width="1.13386" x="299.203" gorn="0.2.2.0.0.0.0.0.2.0.0.6" y="415.572"  fill="#cccccc" stroke="none" id="rect13032" stroke-width="0"/>
                                            <rect height="10.7716" width="24.7465" x="298.069" gorn="0.2.2.0.0.0.0.0.2.0.0.7" y="418.691"  fill="#303030" stroke="none" id="rect30" stroke-width="0"/>
                                            <g  transform="matrix(1.32303, 0, 0, 1.31724, 297.84, 412.961)">
                                                <g >
                                                    <path connector-curvature="0" gorn="0.2.2.0.0.0.0.0.2.0.0.8.0.0"  fill="#1f1f1f" nodetypes="ccccc" id="polygon32" d="m0.173254,4.34971,18.7299,0,-0.576,0.576,-17.5779,0z" stroke-width="0"/>
                                                </g>
                                            </g>
                                            <g  transform="matrix(1.32303, 0, 0, 1.31724, 297.84, 412.961)">
                                                <g >
                                                    <path connector-curvature="0" gorn="0.2.2.0.0.0.0.0.2.0.0.9.0.0"  fill="#1f1f1f" nodetypes="ccccc" id="polygon34" d="m0.173254,12.5271,18.7131,0,-0.576,-0.576,-17.5611,0z" stroke-width="0"/>
                                                </g>
                                            </g>
                                            <g  transform="matrix(1.32303, 0, 0, 1.31724, 297.84, 412.961)">
                                                <g >
                                                    <polygon points="0.173254,12.5271,0.749254,11.9511,0.749254,4.92571,0.173254,4.34971" gorn="0.2.2.0.0.0.0.0.2.0.0.10.0.0"  fill="#000000" id="polygon36" stroke-width="0"/>
                                                </g>
                                            </g>
                                            <ellipse rx="0.76207" ry="0.758729" cy="427.186" cx="300.355" gorn="0.2.2.0.0.0.0.0.2.0.0.11"  fill="#1f1f1f" stroke="none" id="circle40" stroke-width="0"/>
                                            <g  transform="matrix(1.32303, 0, 0, 1.31724, 308.404, 412.961)">
                                                <g >
                                                    <polygon points="10.8859,4.34971,10.8859,12.5271,10.3099,11.9511,10.3099,4.92571" gorn="0.2.2.0.0.0.0.0.2.0.0.12.0.0"  fill="#3d3d3d" id="polygon38" stroke-width="0"/>
                                                </g>
                                            </g>
                                        </g>
                                    </g>
                                </g>
                            </g>
                        </g>
                    </g>
                </g>
            </g>
        </g>
        <g  transform="matrix(1, 0, 0, 1, 48.2685, 44.326)">
            <g >
                <g gorn="0.2.3.0.0"  id="chip-led0805">
                    <g  transform="matrix(0, 1, -1, 0, 4.60549, 1.0625)">
                        <g >
                            <g >
                                <path  fill="#DCDCDC" d="M3.543,0.282l0,5.103c0,0.156,-0.127,0.283,-0.283,0.283L0.283,5.668C0.127,5.668,0,5.541,0,5.385l0,-5.102C0,0.126,0.127,0,0.283,0L3.26,0C3.416,-0.001,3.543,0.126,3.543,0.282z"/>
                                <rect height="3.543" width="3.543" x="0" y="1.062"  fill="#00FF00"/>
                                <circle cy="2.833" cx="1.772"  fill="#00B400" r="0.567"/>
                            </g>
                        </g>
                    </g>
                </g>
            </g>
        </g>
        <g  transform="matrix(1, 0, 0, 1, 48.2685, 37.126)">
            <g >
                <g gorn="0.2.4.0.0"  id="chip-led0805">
                    <g  transform="matrix(0, 1, -1, 0, 4.60549, 1.0625)">
                        <g >
                            <g >
                                <path  fill="#DCDCDC" d="M3.543,0.282l0,5.103c0,0.156,-0.127,0.283,-0.283,0.283L0.283,5.668C0.127,5.668,0,5.541,0,5.385l0,-5.102C0,0.126,0.127,0,0.283,0L3.26,0C3.416,-0.001,3.543,0.126,3.543,0.282z"/>
                                <rect height="3.543" width="3.543" x="0" y="1.062"  fill="#00FF00"/>
                                <circle cy="2.833" cx="1.772"  fill="#00B400" r="0.567"/>
                            </g>
                        </g>
                    </g>
                </g>
            </g>
        </g>
        <g  transform="matrix(1, 0, 0, 1, 48.2685, 29.926)">
            <g >
                <g gorn="0.2.5.0.0"  id="chip-led0805">
                    <g  transform="matrix(0, 1, -1, 0, 4.60549, 1.0625)">
                        <g >
                            <g >
                                <path  fill="#DCDCDC" d="M3.543,0.282l0,5.103c0,0.156,-0.127,0.283,-0.283,0.283L0.283,5.668C0.127,5.668,0,5.541,0,5.385l0,-5.102C0,0.126,0.127,0,0.283,0L3.26,0C3.416,-0.001,3.543,0.126,3.543,0.282z"/>
                                <rect height="3.543" width="3.543" x="0" y="1.062"  fill="#00FF00"/>
                                <circle cy="2.833" cx="1.772"  fill="#00B400" r="0.567"/>
                            </g>
                        </g>
                    </g>
                </g>
            </g>
        </g>
        <g  transform="matrix(1, 0, 0, 1, 48.2685, 22.726)">
            <g >
                <g gorn="0.2.6.0.0"  id="chip-led0805">
                    <g  transform="matrix(0, 1, -1, 0, 4.60549, 1.0625)">
                        <g >
                            <g >
                                <path  fill="#DCDCDC" d="M3.543,0.282l0,5.103c0,0.156,-0.127,0.283,-0.283,0.283L0.283,5.668C0.127,5.668,0,5.541,0,5.385l0,-5.102C0,0.126,0.127,0,0.283,0L3.26,0C3.416,-0.001,3.543,0.126,3.543,0.282z"/>
                                <rect height="3.543" width="3.543" x="0" y="1.062"  fill="#00FF00"/>
                                <circle cy="2.833" cx="1.772"  fill="#00B400" r="0.567"/>
                            </g>
                        </g>
                    </g>
                </g>
            </g>
        </g>
        <g  transform="matrix(1, 0, 0, 1, 48.2685, 15.526)">
            <g >
                <g gorn="0.2.7.0.0"  id="chip-led0805">
                    <g  transform="matrix(0, 1, -1, 0, 4.60549, 1.0625)">
                        <g >
                            <g >
                                <path  fill="#DCDCDC" d="M3.543,0.282l0,5.103c0,0.156,-0.127,0.283,-0.283,0.283L0.283,5.668C0.127,5.668,0,5.541,0,5.385l0,-5.102C0,0.126,0.127,0,0.283,0L3.26,0C3.416,-0.001,3.543,0.126,3.543,0.282z"/>
                                <rect height="3.543" width="3.543" x="0" y="1.062"  fill="#00FF00"/>
                                <circle cy="2.833" cx="1.772"  fill="#00B400" r="0.567"/>
                            </g>
                        </g>
                    </g>
                </g>
            </g>
        </g>
        <g  transform="matrix(1, 0, 0, 1, 10.4855, 45.3885)">
            <g >
                <g gorn="0.2.8.0.0"  id="0805-res">
                    <path  fill="#DCDCDC" d="M5.386,3.543L0.283,3.543C0.127,3.543,0,3.416,0,3.26L0,0.283C0,0.127,0.127,0,0.283,0l5.102,0c0.157,0,0.283,0.127,0.283,0.283L5.668,3.26C5.669,3.416,5.542,3.543,5.386,3.543z"/>
                    <rect height="3.543" width="3.543" x="1.063"  fill="#333333"/>
                </g>
            </g>
        </g>
        <g  transform="matrix(1, 0, 0, 1, 10.4855, 38.1885)">
            <g >
                <g gorn="0.2.9.0.0"  id="0805-res">
                    <path  fill="#DCDCDC" d="M5.386,3.543L0.283,3.543C0.127,3.543,0,3.416,0,3.26L0,0.283C0,0.127,0.127,0,0.283,0l5.102,0c0.157,0,0.283,0.127,0.283,0.283L5.668,3.26C5.669,3.416,5.542,3.543,5.386,3.543z"/>
                    <rect height="3.543" width="3.543" x="1.063"  fill="#333333"/>
                </g>
            </g>
        </g>
        <g  transform="matrix(1, 0, 0, 1, 10.4855, 30.9885)">
            <g >
                <g gorn="0.2.10.0.0"  id="0805-res">
                    <path  fill="#DCDCDC" d="M5.386,3.543L0.283,3.543C0.127,3.543,0,3.416,0,3.26L0,0.283C0,0.127,0.127,0,0.283,0l5.102,0c0.157,0,0.283,0.127,0.283,0.283L5.668,3.26C5.669,3.416,5.542,3.543,5.386,3.543z"/>
                    <rect height="3.543" width="3.543" x="1.063"  fill="#333333"/>
                </g>
            </g>
        </g>
        <g  transform="matrix(1, 0, 0, 1, 10.4855, 24.1485)">
            <g >
                <g gorn="0.2.11.0.0"  id="0805-res">
                    <path  fill="#DCDCDC" d="M5.386,3.543L0.283,3.543C0.127,3.543,0,3.416,0,3.26L0,0.283C0,0.127,0.127,0,0.283,0l5.102,0c0.157,0,0.283,0.127,0.283,0.283L5.668,3.26C5.669,3.416,5.542,3.543,5.386,3.543z"/>
                    <rect height="3.543" width="3.543" x="1.063"  fill="#333333"/>
                </g>
            </g>
        </g>
        <g  transform="matrix(1, 0, 0, 1, 10.4855, 16.5885)">
            <g >
                <g gorn="0.2.12.0.0"  id="0805-res">
                    <path  fill="#DCDCDC" d="M5.386,3.543L0.283,3.543C0.127,3.543,0,3.416,0,3.26L0,0.283C0,0.127,0.127,0,0.283,0l5.102,0c0.157,0,0.283,0.127,0.283,0.283L5.668,3.26C5.669,3.416,5.542,3.543,5.386,3.543z"/>
                    <rect height="3.543" width="3.543" x="1.063"  fill="#333333"/>
                </g>
            </g>
        </g>
        <g  transform="matrix(1, 0, 0, 1, 42.1655, 52.5885)">
            <g >
                <g gorn="0.2.13.0.0"  id="0805-res">
                    <path  fill="#DCDCDC" d="M5.386,3.543L0.283,3.543C0.127,3.543,0,3.416,0,3.26L0,0.283C0,0.127,0.127,0,0.283,0l5.102,0c0.157,0,0.283,0.127,0.283,0.283L5.668,3.26C5.669,3.416,5.542,3.543,5.386,3.543z"/>
                    <rect height="3.543" width="3.543" x="1.063"  fill="#333333"/>
                </g>
            </g>
        </g>
        <g  transform="matrix(1, 0, 0, 1, 33.5255, 50.7885)">
            <g >
                <g gorn="0.2.14.0.0"  id="0805-res">
                    <g  transform="matrix(0, 1, -1, 0, 4.606, -1.063)">
                        <g >
                            <g >
                                <path  fill="#DCDCDC" d="M5.386,3.543L0.283,3.543C0.127,3.543,0,3.416,0,3.26L0,0.283C0,0.127,0.127,0,0.283,0l5.102,0c0.157,0,0.283,0.127,0.283,0.283L5.668,3.26C5.669,3.416,5.542,3.543,5.386,3.543z"/>
                                <rect height="3.543" width="3.543" x="1.063"  fill="#333333"/>
                            </g>
                        </g>
                    </g>
                </g>
            </g>
        </g>
        <g  transform="matrix(1, 0, 0, 1, 26.3255, 50.7885)">
            <g >
                <g gorn="0.2.15.0.0"  id="0805-res">
                    <g  transform="matrix(0, 1, -1, 0, 4.606, -1.063)">
                        <g >
                            <g >
                                <path  fill="#DCDCDC" d="M5.386,3.543L0.283,3.543C0.127,3.543,0,3.416,0,3.26L0,0.283C0,0.127,0.127,0,0.283,0l5.102,0c0.157,0,0.283,0.127,0.283,0.283L5.668,3.26C5.669,3.416,5.542,3.543,5.386,3.543z"/>
                                <rect height="3.543" width="3.543" x="1.063"  fill="#333333"/>
                            </g>
                        </g>
                    </g>
                </g>
            </g>
        </g>
        <g  transform="matrix(1, 0, 0, 1, 24.8855, 16.5885)">
            <g >
                <g gorn="0.2.16.0.0"  id="0805-res">
                    <g  transform="matrix(-1, 0, 0, -1, 5.669, 3.543)">
                        <g >
                            <g >
                                <path  fill="#DCDCDC" d="M5.386,3.543L0.283,3.543C0.127,3.543,0,3.416,0,3.26L0,0.283C0,0.127,0.127,0,0.283,0l5.102,0c0.157,0,0.283,0.127,0.283,0.283L5.668,3.26C5.669,3.416,5.542,3.543,5.386,3.543z"/>
                                <rect height="3.543" width="3.543" x="1.063"  fill="#333333"/>
                            </g>
                        </g>
                    </g>
                </g>
            </g>
        </g>
        <g  transform="matrix(1, 0, 0, 1, 36.4055, 15.5085)">
            <g >
                <g gorn="0.2.17.0.0"  id="0805-res">
                    <g  transform="matrix(-1, 0, 0, -1, 5.669, 3.543)">
                        <g >
                            <g >
                                <path  fill="#DCDCDC" d="M5.386,3.543L0.283,3.543C0.127,3.543,0,3.416,0,3.26L0,0.283C0,0.127,0.127,0,0.283,0l5.102,0c0.157,0,0.283,0.127,0.283,0.283L5.668,3.26C5.669,3.416,5.542,3.543,5.386,3.543z"/>
                                <rect height="3.543" width="3.543" x="1.063"  fill="#333333"/>
                            </g>
                        </g>
                    </g>
                </g>
            </g>
        </g>
    </g>
</svg>
