<?xml version='1.0' encoding='UTF-8' standalone='no'?>
<!-- Created with Inkscape (http://www.inkscape.org/) -->
<svg xmlns="http://www.w3.org/2000/svg" width="90" height="45" version="1.1" gorn="0"  id="svg4364">
    <desc>
        <referenceFile>ULN2803_Darlington_Array__b60cbac200ab61__breadboard__934f919ce66b58628682cf4c9ba874e6.svg</referenceFile>
    </desc>
    <defs  id="defs4366"/>
    <metadata  id="metadata4369">
        <rdf:RDF xmlns:rdf="http://www.w3.org/1999/02/22-rdf-syntax-ns#">
            <cc:Work xmlns:rdf="http://www.w3.org/1999/02/22-rdf-syntax-ns#" rdf:about="" xmlns:cc="http://creativecommons.org/ns#">
                <dc:format xmlns:dc="http://purl.org/dc/elements/1.1/">image/svg+xml</dc:format>
                <dc:type xmlns:rdf="http://www.w3.org/1999/02/22-rdf-syntax-ns#" xmlns:dc="http://purl.org/dc/elements/1.1/" rdf:resource="http://purl.org/dc/dcmitype/StillImage"/>
                <dc:title xmlns:dc="http://purl.org/dc/elements/1.1/"/>
            </cc:Work>
        </rdf:RDF>
    </metadata>
    <g style="display:inline" gorn="0.2"  id="layer1"/>
    <g style="display:inline" gorn="0.3"  id="layer2">
        <g gorn="0.3.0"  id="breadboard">
            <rect y="34.199951" x="7.1999998" width="3.5999999" height="3.5999999" style="fill:#999999;fill-opacity:1;stroke:none" gorn="0.3.0.0"  id="connector1pin"/>
            <rect y="34.199951" x="16.200001" width="3.5999999" height="3.5999999" style="fill:#999999;fill-opacity:1;stroke:none" gorn="0.3.0.1"  id="connector2pin"/>
            <rect y="34.199951" x="25.200001" width="3.5999999" height="3.5999999" style="fill:#999999;fill-opacity:1;stroke:none" gorn="0.3.0.2"  id="connector3pin"/>
            <rect y="34.199951" x="34.200001" width="3.5999999" height="3.5999999" style="fill:#999999;fill-opacity:1;stroke:none" gorn="0.3.0.3"  id="connector4pin"/>
            <rect y="34.199951" x="43.200001" width="3.5999999" height="3.5999999" style="fill:#999999;fill-opacity:1;stroke:none" gorn="0.3.0.4"  id="connector5pin"/>
            <rect y="34.199951" x="52.200001" width="3.5999999" height="3.5999999" style="fill:#999999;fill-opacity:1;stroke:none" gorn="0.3.0.5"  id="connector6pin"/>
            <rect y="34.199951" x="61.200001" width="3.5999999" height="3.5999999" style="fill:#999999;fill-opacity:1;stroke:none" gorn="0.3.0.6"  id="connector7pin"/>
            <rect y="34.199951" x="70.199997" width="3.5999999" height="3.5999999" style="fill:#999999;fill-opacity:1;stroke:none" gorn="0.3.0.7"  id="connector8pin"/>
            <path style="color:#000000;fill:#999999;fill-opacity:1;fill-rule:nonzero;stroke:none;stroke-width:1;marker:none;visibility:visible;display:inline;overflow:visible;enable-background:accumulate" d="m 16.2,34.2 -1.35,-0.9 0,-1.8 6.3,0 0,1.8 -1.35,0.9" gorn="0.3.0.8"  id="path5756"/>
            <path style="color:#000000;fill:#999999;fill-opacity:1;fill-rule:nonzero;stroke:none;stroke-width:1;marker:none;visibility:visible;display:inline;overflow:visible;enable-background:accumulate" d="m 7.2,34.2 0,-2.7 4.95,0 0,1.8 -1.35,0.9" gorn="0.3.0.9"  id="path5758"/>
            <path style="color:#000000;fill:#999999;fill-opacity:1;fill-rule:nonzero;stroke:none;stroke-width:1;marker:none;visibility:visible;display:inline;overflow:visible;enable-background:accumulate" d="m 25.2,34.2 -1.35,-0.9 0,-1.8 6.3,0 0,1.8 -1.35,0.9" gorn="0.3.0.10"  id="path5760"/>
            <path style="color:#000000;fill:#999999;fill-opacity:1;fill-rule:nonzero;stroke:none;stroke-width:1;marker:none;visibility:visible;display:inline;overflow:visible;enable-background:accumulate" d="m 34.2,34.2 -1.35,-0.9 0,-1.8 6.3,0 0,1.8 -1.35,0.9" gorn="0.3.0.11"  id="path5762"/>
            <path style="color:#000000;fill:#999999;fill-opacity:1;fill-rule:nonzero;stroke:none;stroke-width:1;marker:none;visibility:visible;display:inline;overflow:visible;enable-background:accumulate" d="m 43.2,34.2 -1.35,-0.9 0,-1.8 6.3,0 0,1.8 -1.35,0.9" gorn="0.3.0.12"  id="path5764"/>
            <path style="color:#000000;fill:#999999;fill-opacity:1;fill-rule:nonzero;stroke:none;stroke-width:1;marker:none;visibility:visible;display:inline;overflow:visible;enable-background:accumulate" d="m 52.2,34.2 -1.35,-0.9 0,-1.8 6.3,0 0,1.8 -1.35,0.9" gorn="0.3.0.13"  id="path5766"/>
            <path style="color:#000000;fill:#999999;fill-opacity:1;fill-rule:nonzero;stroke:none;stroke-width:1;marker:none;visibility:visible;display:inline;overflow:visible;enable-background:accumulate" d="m 61.2,34.2 -1.35,-0.9 0,-1.8 6.3,0 0,1.8 -1.35,0.9" gorn="0.3.0.14"  id="path5768"/>
            <path style="color:#000000;fill:#999999;fill-opacity:1;fill-rule:nonzero;stroke:none;stroke-width:1;marker:none;visibility:visible;display:inline;overflow:visible;enable-background:accumulate" d="m 82.8,34.2 0,-2.7 -4.95,0 0,1.8 1.35,0.9" gorn="0.3.0.15"  id="path5770"/>
            <rect y="7.2000003" x="25.200001" width="3.5999999" height="3.5999999" style="fill:#999999;fill-opacity:1;stroke:none" gorn="0.3.0.16"  id="connector16pin"/>
            <rect y="7.2000003" x="34.200001" width="3.5999999" height="3.5999999" style="fill:#999999;fill-opacity:1;stroke:none" gorn="0.3.0.17"  id="connector15pin"/>
            <rect y="7.2000003" x="43.200001" width="3.5999999" height="3.5999999" style="fill:#999999;fill-opacity:1;stroke:none" gorn="0.3.0.18"  id="connector14pin"/>
            <rect y="7.2000003" x="52.199997" width="3.5999999" height="3.5999999" style="fill:#999999;fill-opacity:1;stroke:none" gorn="0.3.0.19"  id="connector13pin"/>
            <rect y="7.2000003" x="61.199997" width="3.5999999" height="3.5999999" style="fill:#999999;fill-opacity:1;stroke:none" gorn="0.3.0.20"  id="connector12pin"/>
            <rect y="7.2000003" x="70.199997" width="3.5999999" height="3.5999999" style="fill:#999999;fill-opacity:1;stroke:none" gorn="0.3.0.21"  id="connector11pin"/>
            <rect y="34.200001" x="79.199997" width="3.5999999" height="3.5999999" style="fill:#999999;fill-opacity:1;stroke:none" gorn="0.3.0.22"  id="connector10pin"/>
            <rect y="7.2000003" x="79.199997" width="3.5999999" height="3.5999999" style="fill:#999999;fill-opacity:1;stroke:none" gorn="0.3.0.23"  id="connector9pin"/>
            <path style="color:#000000;fill:#999999;fill-opacity:1;fill-rule:nonzero;stroke:none;stroke-width:1;marker:none;visibility:visible;display:inline;overflow:visible;enable-background:accumulate" d="m 16.2,10.8 -1.35,0.9 0,1.8 6.3,0 0,-1.8 -1.35,-0.9" gorn="0.3.0.24"  id="path5772"/>
            <path style="color:#000000;fill:#999999;fill-opacity:1;fill-rule:nonzero;stroke:none;stroke-width:1;marker:none;visibility:visible;display:inline;overflow:visible;enable-background:accumulate" d="m 7.2,10.8 0,2.7 4.95,0 0,-1.8 -1.35,-0.9" gorn="0.3.0.25"  id="path5774"/>
            <path style="color:#000000;fill:#999999;fill-opacity:1;fill-rule:nonzero;stroke:none;stroke-width:1;marker:none;visibility:visible;display:inline;overflow:visible;enable-background:accumulate" d="m 25.2,10.8 -1.35,0.9 0,1.8 6.3,0 0,-1.8 -1.35,-0.9" gorn="0.3.0.26"  id="path5776"/>
            <path style="color:#000000;fill:#999999;fill-opacity:1;fill-rule:nonzero;stroke:none;stroke-width:1;marker:none;visibility:visible;display:inline;overflow:visible;enable-background:accumulate" d="m 34.2,10.8 -1.35,0.9 0,1.8 6.3,0 0,-1.8 -1.35,-0.9" gorn="0.3.0.27"  id="path5778"/>
            <path style="color:#000000;fill:#999999;fill-opacity:1;fill-rule:nonzero;stroke:none;stroke-width:1;marker:none;visibility:visible;display:inline;overflow:visible;enable-background:accumulate" d="m 43.2,10.8 -1.35,0.9 0,1.8 6.3,0 0,-1.8 -1.35,-0.9" gorn="0.3.0.28"  id="path5780"/>
            <path style="color:#000000;fill:#999999;fill-opacity:1;fill-rule:nonzero;stroke:none;stroke-width:1;marker:none;visibility:visible;display:inline;overflow:visible;enable-background:accumulate" d="m 52.2,10.8 -1.35,0.9 0,1.8 6.3,0 0,-1.8 -1.35,-0.9" gorn="0.3.0.29"  id="path5782"/>
            <path style="color:#000000;fill:#999999;fill-opacity:1;fill-rule:nonzero;stroke:none;stroke-width:1;marker:none;visibility:visible;display:inline;overflow:visible;enable-background:accumulate" d="m 61.2,10.8 -1.35,0.9 0,1.8 6.3,0 0,-1.8 -1.35,-0.9" gorn="0.3.0.30"  id="path5784"/>
            <path style="color:#000000;fill:#999999;fill-opacity:1;fill-rule:nonzero;stroke:none;stroke-width:1;marker:none;visibility:visible;display:inline;overflow:visible;enable-background:accumulate" d="m 82.8,10.8 0,2.7 -4.95,0 0,-1.8 1.35,-0.9" gorn="0.3.0.31"  id="path5786"/>
            <rect y="13.491743" x="4.5" width="81" height="18.008287" style="fill:#333333;fill-opacity:1;fill-rule:evenodd;stroke:none;display:inline" gorn="0.3.0.32"  id="rect5716"/>
            <g transform="translate(4.5103912,-450.5996)" >
                <g style="font-size:8px;font-style:normal;font-variant:normal;font-weight:normal;font-stretch:normal;text-align:center;line-height:125%;letter-spacing:0px;word-spacing:0px;text-anchor:middle;fill:#000000;fill-opacity:1;stroke:none;display:inline;font-family:OCRA;-inkscape-font-specification:OCRA" gorn="0.3.0.33.0"  xml:space="preserve" xmlns:xml="http://www.w3.org/XML/1998/namespace" id="text5796">
                    <g style="fill:#e2e2e2;fill-opacity:1" gorn="0.3.0.33.0.0"  id="tspan5798">
                        <text y="476.2496" x="40.489609" style="font-style:normal;font-variant:normal;font-weight:normal;font-stretch:normal;fill:#ffffff;fill-opacity:0.23529412;font-family:OCR A Std;-inkscape-font-specification:OCR A Std" gorn="0.3.0.33.0.0.0"  id="tspan7125">ULN2803</text>
                    </g>
                </g>
            </g>
            <path style="color:#000000;fill:#999999;fill-opacity:1;fill-rule:nonzero;stroke:none;stroke-width:1;marker:none;visibility:visible;display:inline;overflow:visible;enable-background:accumulate" d="m 70.2,34.2 -1.35,-0.9 0,-1.8 6.3,0 0,1.8 -1.35,0.9" gorn="0.3.0.34"  id="path3050"/>
            <path style="color:#000000;fill:#999999;fill-opacity:1;fill-rule:nonzero;stroke:none;stroke-width:1;marker:none;visibility:visible;display:inline;overflow:visible;enable-background:accumulate" d="m 70.2,10.8 -1.35,0.9 0,1.8 6.3,0 0,-1.8 -1.35,-0.9" gorn="0.3.0.35"  id="path3056"/>
            <rect y="7.2000003" x="7.1999998" width="3.5999999" height="3.5999999" style="fill:#999999;fill-opacity:1;stroke:none" gorn="0.3.0.36"  id="connector18pin"/>
            <rect y="7.2000003" x="16.199997" width="3.5999999" height="3.5999999" style="fill:#999999;fill-opacity:1;stroke:none" gorn="0.3.0.37"  id="connector17pin"/>
            <path style="font-size:medium;font-style:normal;font-variant:normal;font-weight:normal;font-stretch:normal;text-indent:0;text-align:start;text-decoration:none;line-height:normal;letter-spacing:normal;word-spacing:normal;text-transform:none;direction:ltr;block-progression:tb;writing-mode:lr-tb;text-anchor:start;baseline-shift:baseline;color:#000000;fill:#ffffff;fill-opacity:0.15686275;stroke:none;stroke-width:1.77165353;marker:none;visibility:visible;display:inline;overflow:visible;enable-background:accumulate;font-family:Sans;-inkscape-font-specification:Sans" d="m 4.5,13.5 0,0.90625 0,4.5 0.73125,0 c 1.6411771,0.192389 2.925,1.718026 2.925,3.59375 0,1.881136 -1.2769642,3.408593 -2.925,3.59375 l -0.73125,0 0,5.40625 1.63125,-1.8125 0,-2 c 2.0713249,-0.607911 3.6,-2.697507 3.6,-5.1875 0,-2.489993 -1.5286751,-4.579589 -3.6,-5.1875 l 0,-2 77.7375,0 L 85.5,13.5 83.86875,13.5 5.315625,13.5 4.5,13.5 z" gorn="0.3.0.38"  id="path3842"/>
            <path style="color:#000000;fill:#000000;fill-opacity:0.15686275;stroke:none;stroke-width:0.09;marker:none;visibility:visible;display:inline;overflow:visible;enable-background:accumulate" d="M 83.880001,15.3 85.5,13.5 l 0,18 -81,0 1.62,-1.8 77.760001,0 0,-14.4" gorn="0.3.0.39"  id="path4525"/>
        </g>
    </g>
</svg>
