<?xml version='1.0' encoding='UTF-8' standalone='no'?>
<!-- Created with Fritzing (http://www.fritzing.org/) -->
<svg xmlns="http://www.w3.org/2000/svg" viewBox="0 0 36 54" id="svg13905" x="0in" width="0.5in"  height="0.75in" gorn="0" y="0in" version="1.2">
    <desc>
        <referenceFile>Adafruit MICS-5524_breadboard.svg</referenceFile>
    </desc>
    <metadata id="metadata14244" />
    <defs id="defs14242" />
    <desc id="desc13907" >Fritzing breadboard generated by brd2svg</desc>
    <path d="m 36,7.2 0,39.6 A 7.2,7.2 0 0 1 28.8,54 L 7.2,54 A 7.2,7.2 0 0 1 0,46.8 L 0,7.2 A 7.2,7.2 0 0 1 7.2,0 L 28.8,0 A 7.2,7.2 0 0 1 36,7.2 M 5.78268,48.6 a 1.417325,1.417325 0 1 0 2.83465,0 1.417325,1.417325 0 1 0 -2.83465,0 z m 7.20002,0 a 1.417325,1.417325 0 0 0 2.83465,0 1.417325,1.417325 0 1 0 -2.83465,0 z m 7.2,0 a 1.417325,1.417325 0 0 0 2.83465,0 1.417325,1.417325 0 1 0 -2.83465,0 z m 7.2,0 a 1.417325,1.417325 0 0 0 2.83465,0 1.417325,1.417325 0 1 0 -2.83465,0 z M 3.65669,7.2 a 3.54331,3.54331 0 1 0 7.08661,0 3.54331,3.54331 0 1 0 -7.08661,0 z m 21.60001,0 a 3.54331,3.54331 0 1 0 7.08661,0 3.54331,3.54331 0 1 0 -7.08661,0 z" id="path13911" style="fill:#014cb1;stroke:none;stroke-width:0"  gorn="0.3"/>
    <g id="g13917"  gorn="0.4">
        <title id="title13919" >text:MiCS
5524</title>
        <g transform="translate(19.6704,5.76)" >
            <g id="g13921"  gorn="0.4.1.0">
                <g transform="matrix(0,-1,1,0,0,0)" >
                    <g id="g13923"  gorn="0.4.1.0.0.0">
                        <g transform="translate(0,-1.6704)" >
                            <g id="g13925"  gorn="0.4.1.0.0.0.0.0">
                                <text style="font-size:3.34080005px;font-family:OCRA;text-anchor:middle;fill:#ffffff;stroke:none;stroke-width:0" id="text13927" x="0" font-size="3.3408"  gorn="0.4.1.0.0.0.0.0.0" y="0">MiCS</text>
                            </g>
                        </g>
                        <g transform="translate(0,1.6704)" >
                            <g id="g13929"  gorn="0.4.1.0.0.0.1.0">
                                <text style="font-size:3.34080005px;font-family:OCRA;text-anchor:middle;fill:#ffffff;stroke:none;stroke-width:0" id="text13931" x="0" font-size="3.3408"  gorn="0.4.1.0.0.0.1.0.0" y="0">5524</text>
                            </g>
                        </g>
                    </g>
                </g>
            </g>
        </g>
    </g>
    <g id="g13933"  gorn="0.5">
        <title id="title13935" >text:Ao</title>
        <text style="font-size:2.67264009px;font-family:OCRA;text-anchor:middle;fill:#ffffff;stroke:none;stroke-width:0" id="text13937" x="21.6" font-size="2.67264"  gorn="0.5.1" y="45.256302">Ao</text>
    </g>
    <g id="g13939"  gorn="0.6">
        <title id="title13941" >text:GND</title>
        <text style="font-size:2.67264009px;font-family:OCRA;text-anchor:middle;fill:#ffffff;stroke:none;stroke-width:0" id="text13943" x="14.4" font-size="2.67264"  gorn="0.6.1" y="45.256302">GND</text>
    </g>
    <g id="g13945"  gorn="0.7">
        <title id="title13947" >text:5V</title>
        <text style="font-size:2.67264009px;font-family:OCRA;text-anchor:middle;fill:#ffffff;stroke:none;stroke-width:0" id="text13949" x="7.1999998" font-size="2.67264"  gorn="0.7.1" y="45.256302">5V</text>
    </g>
    <g id="g13951"  gorn="0.8">
        <title id="title13953" >text:!En</title>
        <text style="font-size:2.67264009px;font-family:OCRA;text-anchor:middle;fill:#ffffff;stroke:none;stroke-width:0" id="text13955" x="28.799999" font-size="2.67264"  gorn="0.8.1" y="45.256302">!En</text>
    </g>
    <g id="g13957"  gorn="0.9">
        <title id="title13959" >element:FID1</title>
        <g id="g13961"  gorn="0.9.1">
            <title id="title13963" >package:FIDUCIAL_1MM</title>
        </g>
    </g>
    <g id="g13965"  gorn="0.10">
        <title id="title13967" >element:FID2</title>
        <g id="g13969"  gorn="0.10.1">
            <title id="title13971" >package:FIDUCIAL_1MM</title>
        </g>
    </g>
    <g id="g13973"  gorn="0.11">
        <title id="title13975" >element:JP2</title>
        <g id="g13977"  gorn="0.11.1">
            <title id="title13979" >package:1X04_ROUND_76</title>
        </g>
    </g>
    <g id="g13981"  gorn="0.12">
        <title id="title13983" >element:Q1</title>
        <g id="g13985"  gorn="0.12.1">
            <title id="title13987" >package:SOT23-WIDE</title>
            <line style="stroke:#ffffff;stroke-width:0.57599998;stroke-linecap:round" id="line13989" y2="38.952" x2="34.980701"  gorn="0.12.1.1" y1="35.230701" x1="34.980701"/>
            <line style="stroke:#ffffff;stroke-width:0.57599998;stroke-linecap:round" id="line13991" y2="38.952" x2="32.262798"  gorn="0.12.1.2" y1="38.952" x1="34.980701"/>
            <line style="stroke:#ffffff;stroke-width:0.57599998;stroke-linecap:round" id="line13993" y2="35.230701" x2="25.4993"  gorn="0.12.1.3" y1="38.952" x1="25.4993"/>
            <line style="stroke:#ffffff;stroke-width:0.57599998;stroke-linecap:round" id="line13995" y2="38.952" x2="25.4993"  gorn="0.12.1.4" y1="38.952" x1="28.217199"/>
            <line style="stroke:#ffffff;stroke-width:0.57599998;stroke-linecap:round" id="line13997" y2="35.208" x2="30.910101"  gorn="0.12.1.5" y1="35.208" x1="29.6096"/>
        </g>
    </g>
    <g id="g13999"  gorn="0.13">
        <title id="title14001" >element:R1</title>
        <g id="g14003"  gorn="0.13.1">
            <title id="title14005" >package:0805-NO</title>
            <line style="stroke:#ffffff;stroke-width:0.86400002;stroke-linecap:round" id="line14007" y2="25.200001" x2="2.8800001"  gorn="0.13.1.1" y1="25.200001" x1="5.7600002"/>
        </g>
    </g>
    <g id="g14009"  gorn="0.14">
        <title id="title14011" >element:R2</title>
        <g id="g14013"  gorn="0.14.1">
            <title id="title14015" >package:0805-NO</title>
            <line style="stroke:#ffffff;stroke-width:0.86400002;stroke-linecap:round" id="line14017" y2="36.720001" x2="5.7600002"  gorn="0.14.1.1" y1="36.720001" x1="2.8800001"/>
        </g>
    </g>
    <g id="g14019"  gorn="0.15">
        <title id="title14021" >element:R3</title>
        <g id="g14023"  gorn="0.15.1">
            <title id="title14025" >package:0805-NO</title>
            <line style="stroke:#ffffff;stroke-width:0.86400002;stroke-linecap:round" id="line14027" y2="25.200001" x2="33.119999"  gorn="0.15.1.1" y1="25.200001" x1="30.24"/>
        </g>
    </g>
    <g id="g14029"  gorn="0.16">
        <title id="title14031" >element:U$3</title>
        <g id="g14033"  gorn="0.16.1">
            <title id="title14035" >package:MOUNTINGHOLE_2.5_PLATED</title>
            <circle style="fill:none;stroke:#ffffff;stroke-width:0.57599998" id="circle14037" cx="7.1999998" r="5.6692901" cy="7.1999998"  gorn="0.16.1.1"/>
        </g>
    </g>
    <g id="g14039"  gorn="0.17">
        <title id="title14041" >element:U$4</title>
        <g id="g14043"  gorn="0.17.1">
            <title id="title14045" >package:MOUNTINGHOLE_2.5_PLATED</title>
            <circle style="fill:none;stroke:#ffffff;stroke-width:0.57599998" id="circle14047" cx="28.799999" r="5.6692901" cy="7.1999998"  gorn="0.17.1.1"/>
        </g>
    </g>
    <g id="g14049"  gorn="0.18">
        <title id="title14051" >element:U$7</title>
        <g id="g14053"  gorn="0.18.1">
            <title id="title14055" >package:ADAFRUIT_2.5MM</title>
        </g>
    </g>
    <g id="g14073"  gorn="0.19">
        <title id="title14075" >element:U1</title>
        <g id="g14077"  gorn="0.19.1">
            <title id="title14079" >package:MICS-5524</title>
            <line style="stroke:#ffffff;stroke-width:0.36000001;stroke-linecap:round" id="line14081" y2="34.6847" x2="10.6299"  gorn="0.19.1.1" y1="34.6847" x1="12.8976"/>
            <line style="stroke:#ffffff;stroke-width:0.36000001;stroke-linecap:round" id="line14083" y2="29.582399" x2="10.6299"  gorn="0.19.1.2" y1="34.6847" x1="10.6299"/>
            <line style="stroke:#ffffff;stroke-width:0.36000001;stroke-linecap:round" id="line14085" y2="14.2753" x2="10.6299"  gorn="0.19.1.3" y1="19.3776" x1="10.6299"/>
            <line style="stroke:#ffffff;stroke-width:0.36000001;stroke-linecap:round" id="line14087" y2="14.2753" x2="12.8976"  gorn="0.19.1.4" y1="14.2753" x1="10.6299"/>
            <line style="stroke:#ffffff;stroke-width:0.36000001;stroke-linecap:round" id="line14089" y2="14.2753" x2="25.3701"  gorn="0.19.1.5" y1="19.3776" x1="25.3701"/>
            <line style="stroke:#ffffff;stroke-width:0.36000001;stroke-linecap:round" id="line14091" y2="14.2753" x2="23.1024"  gorn="0.19.1.6" y1="14.2753" x1="25.3701"/>
            <line style="stroke:#ffffff;stroke-width:0.36000001;stroke-linecap:round" id="line14093" y2="34.6847" x2="25.3701"  gorn="0.19.1.7" y1="29.582399" x1="25.3701"/>
            <line style="stroke:#ffffff;stroke-width:0.36000001;stroke-linecap:round" id="line14095" y2="34.6847" x2="23.1024"  gorn="0.19.1.8" y1="34.6847" x1="25.3701"/>
            <line style="stroke:#ffffff;stroke-width:0.36000001;stroke-linecap:round" id="line14097" y2="34.6847" x2="19.9842"  gorn="0.19.1.9" y1="34.6847" x1="16.0158"/>
            <line style="stroke:#ffffff;stroke-width:0.36000001;stroke-linecap:round" id="line14099" y2="14.2753" x2="19.9842"  gorn="0.19.1.10" y1="14.2753" x1="16.0158"/>
            <circle style="fill:none;stroke:#ffffff;stroke-width:1.15199995" id="circle14101" cx="8.9291496" r="0.56692898" cy="18.243799"  gorn="0.19.1.11"/>
        </g>
    </g>
    <rect rx="1.41732" id="connector0pin" style="fill:#9a916c;stroke:none;stroke-width:0" x="31.342699" width="2.83465"  height="2.83465" gorn="0.20" ry="1.41732" y="14.0627"/>
    <rect rx="1.41732" id="connector1pin" style="fill:#9a916c;stroke:none;stroke-width:0" x="1.82268" width="2.83465"  height="2.83465" gorn="0.21" ry="1.41732" y="13.7027"/>
    <circle id="connector2pin" cx="7.1999998" connectorname="5.0V" style="fill:none;stroke:#9a916c;stroke-width:1.31868005" r="2.0766599" cy="48.599998"  gorn="0.22"/>
    <circle id="connector3pin" cx="14.4" connectorname="GND" style="fill:none;stroke:#9a916c;stroke-width:1.31868005" r="2.0766599" cy="48.599998"  gorn="0.23"/>
    <circle id="connector4pin" cx="21.6" connectorname="AOUT" style="fill:none;stroke:#9a916c;stroke-width:1.31868005" r="2.0766599" cy="48.599998"  gorn="0.24"/>
    <circle id="connector5pin" cx="28.799999" connectorname="ENABLE" style="fill:none;stroke:#9a916c;stroke-width:1.31868005" r="2.0766599" cy="48.599998"  gorn="0.25"/>
    <g transform="matrix(-1,0,0,-1,65.8658,68.4907)" >
        <g id="g14109"  gorn="0.26.0">
            <rect id="connector6pin" style="fill:#9a916c;stroke:none;stroke-width:0" x="31.5156" width="2.83465"  height="3.4015801" gorn="0.26.0.0" y="32.544601"/>
        </g>
    </g>
    <g transform="matrix(-1,0,0,-1,55.0942,68.4907)" >
        <g id="g14112"  gorn="0.27.0">
            <rect id="connector7pin" style="fill:#9a916c;stroke:none;stroke-width:0" x="26.1297" width="2.83465"  height="3.4015801" gorn="0.27.0.0" y="32.544601"/>
        </g>
    </g>
    <g transform="matrix(-1,0,0,-1,60.48,79.8293)" >
        <g id="g14115"  gorn="0.28.0">
            <rect id="connector8pin" style="fill:#9a916c;stroke:none;stroke-width:0" x="28.822701" width="2.83465"  height="3.4015801" gorn="0.28.0.0" y="38.213902"/>
        </g>
    </g>
    <g transform="matrix(0,1,-1,0,26.8271,18.1871)" >
        <g id="g14118"  gorn="0.29.0">
            <rect id="connector9pin" style="fill:#9a916c;stroke:none;stroke-width:0" x="2.4774799" width="3.68504"  height="4.2519698" gorn="0.29.0.0" y="20.3811"/>
        </g>
    </g>
    <g transform="matrix(0,1,-1,0,32.2129,23.5729)" >
        <g id="g14121"  gorn="0.30.0">
            <rect id="connector10pin" style="fill:#9a916c;stroke:none;stroke-width:0" x="2.4774799" width="3.68504"  height="4.2519698" gorn="0.30.0.0" y="25.766899"/>
        </g>
    </g>
    <g transform="matrix(0,-1,1,0,-35.0929,43.7329)" >
        <g id="g14124"  gorn="0.31.0">
            <rect id="connector11pin" style="fill:#9a916c;stroke:none;stroke-width:0" x="2.4774799" width="3.68504"  height="4.2519698" gorn="0.31.0.0" y="37.2869"/>
        </g>
    </g>
    <g transform="matrix(0,-1,1,0,-29.7071,38.3471)" >
        <g id="g14127"  gorn="0.32.0">
            <rect id="connector12pin" style="fill:#9a916c;stroke:none;stroke-width:0" x="2.4774799" width="3.68504"  height="4.2519698" gorn="0.32.0.0" y="31.9011"/>
        </g>
    </g>
    <g transform="matrix(0,-1,1,0,3.78708,59.5729)" >
        <g id="g14130"  gorn="0.33.0">
            <rect id="connector13pin" style="fill:#9a916c;stroke:none;stroke-width:0" x="29.8374" width="3.68504"  height="4.2519698" gorn="0.33.0.0" y="25.766899"/>
        </g>
    </g>
    <g transform="matrix(0,-1,1,0,9.17294,54.1871)" >
        <g id="g14133"  gorn="0.34.0">
            <rect id="connector14pin" style="fill:#9a916c;stroke:none;stroke-width:0" x="29.8374" width="3.68504"  height="4.2519698" gorn="0.34.0.0" y="20.3811"/>
        </g>
    </g>
    <circle id="connector15pin" cx="7.1999998" connectorname="P$1" style="fill:none;stroke:#9a916c;stroke-width:1.44000006" r="4.26331" cy="7.1999998"  gorn="0.35"/>
    <circle id="connector16pin" cx="28.799999" connectorname="P$1" style="fill:none;stroke:#9a916c;stroke-width:1.44000006" r="4.26331" cy="7.1999998"  gorn="0.36"/>
    <g transform="matrix(0,-1,1,0,-10.0233,31.8501)" >
        <g id="g14138"  gorn="0.37.0">
            <rect id="connector17pin" style="fill:#9a916c;stroke:none;stroke-width:0" x="10.063" width="1.70078"  height="5.6692901" gorn="0.37.0.0" y="18.101999"/>
        </g>
    </g>
    <g transform="matrix(0,-1,1,0,-13.5666,35.3934)" >
        <g id="g14141"  gorn="0.38.0">
            <rect id="connector18pin" style="fill:#9a916c;stroke:none;stroke-width:0" x="10.063" width="1.70078"  height="5.6692901" gorn="0.38.0.0" y="21.645399"/>
        </g>
    </g>
    <g transform="matrix(0,-1,1,0,-17.1099,38.9367)" >
        <g id="g14144"  gorn="0.39.0">
            <rect id="connector19pin" style="fill:#9a916c;stroke:none;stroke-width:0" x="10.063" width="1.70078"  height="5.6692901" gorn="0.39.0.0" y="25.1887"/>
        </g>
    </g>
    <g transform="matrix(-1,0,0,-1,28.8,68.8026)" >
        <g id="g14147"  gorn="0.40.0">
            <rect id="connector20pin" style="fill:#9a916c;stroke:none;stroke-width:0" x="13.5496" width="1.70078"  height="5.6692901" gorn="0.40.0.0" y="31.566601"/>
        </g>
    </g>
    <g transform="matrix(-1,0,0,-1,43.2,68.8026)" >
        <g id="g14150"  gorn="0.41.0">
            <rect id="connector21pin" style="fill:#9a916c;stroke:none;stroke-width:0" x="20.749599" width="1.70078"  height="5.6692901" gorn="0.41.0.0" y="31.566601"/>
        </g>
    </g>
    <g transform="matrix(0,-1,1,0,-2.93669,53.1099)" >
        <g id="g14153"  gorn="0.42.0">
            <rect id="connector22pin" style="fill:#9a916c;stroke:none;stroke-width:0" x="24.2362" width="1.70078"  height="5.6692901" gorn="0.42.0.0" y="25.1887"/>
        </g>
    </g>
    <g transform="matrix(0,-1,1,0,0.606614,49.5666)" >
        <g id="g14156"  gorn="0.43.0">
            <rect id="connector23pin" style="fill:#9a916c;stroke:none;stroke-width:0" x="24.2362" width="1.70078"  height="5.6692901" gorn="0.43.0.0" y="21.645399"/>
        </g>
    </g>
    <g transform="matrix(0,-1,1,0,4.14992,46.0233)" >
        <g id="g14159"  gorn="0.44.0">
            <rect id="connector24pin" style="fill:#9a916c;stroke:none;stroke-width:0" x="24.2362" width="1.70078"  height="5.6692901" gorn="0.44.0.0" y="18.101999"/>
        </g>
    </g>
    <g transform="matrix(-1,0,0,-1,43.2,29.1174)" >
        <g id="g14162"  gorn="0.45.0">
            <rect id="connector25pin" style="fill:#9a916c;stroke:none;stroke-width:0" x="20.749599" width="1.70078"  height="5.6692901" gorn="0.45.0.0" y="11.7241"/>
        </g>
    </g>
    <g transform="matrix(-1,0,0,-1,28.8,29.1174)" >
        <g id="g14165"  gorn="0.46.0">
            <rect id="connector26pin" style="fill:#9a916c;stroke:none;stroke-width:0" x="13.5496" width="1.70078"  height="5.6692901" gorn="0.46.0.0" y="11.7241"/>
        </g>
    </g>
    <g transform="translate(25.988,33.253)" >
        <g id="sot23-wide"  gorn="0.47.0">
            <g transform="matrix(-1,0,0,-1,8.50399,7.65403)" >
                <g id="g14169"  gorn="0.47.0.0.0">
                    <g id="g14171"  gorn="0.47.0.0.0.0">
                        <rect style="fill:#dcdcdc" id="rect14173" x="0.850003" width="1.4170001"  height="2.9760001" gorn="0.47.0.0.0.0.0" y="4.677"/>
                        <rect style="fill:#dcdcdc" id="rect14175" x="6.2360001" width="1.4170001"  height="2.9760001" gorn="0.47.0.0.0.0.1" y="4.677"/>
                        <rect style="fill:#dcdcdc" id="rect14177" x="3.543" width="1.4170001"  height="3.118" gorn="0.47.0.0.0.0.2" y="0"/>
                        <rect style="fill:#303030" id="rect14179" x="0" width="8.5039902"  height="3.6849999" gorn="0.47.0.0.0.0.3" y="1.984"/>
                    </g>
                </g>
            </g>
        </g>
    </g>
    <g transform="translate(1.4855,23.4285)" >
        <g id="0805-res"  gorn="0.48.0">
            <g transform="matrix(0,1,-1,0,4.606,-1.063)" >
                <g id="g14182"  gorn="0.48.0.0.0">
                    <path d="m 5.386,3.543 -5.103,0 C 0.127,3.543 0,3.416 0,3.26 L 0,0.283 C 0,0.127 0.127,0 0.283,0 l 5.102,0 c 0.157,0 0.283,0.127 0.283,0.283 l 0,2.977 C 5.669,3.416 5.542,3.543 5.386,3.543 Z" style="fill:#dcdcdc" id="path14184"  gorn="0.48.0.0.0.0"/>
                    <rect style="fill:#333333" id="rect14186" x="1.063" width="3.543"  height="3.543" gorn="0.48.0.0.0.1" y="0"/>
                </g>
            </g>
        </g>
    </g>
    <g transform="translate(1.4855,34.9485)" >
        <g id="g14188"  gorn="0.49.0">
            <g transform="matrix(0,-1,1,0,1.063,4.606)" >
                <g id="g14190"  gorn="0.49.0.0.0">
                    <path d="m 5.386,3.543 -5.103,0 C 0.127,3.543 0,3.416 0,3.26 L 0,0.283 C 0,0.127 0.127,0 0.283,0 l 5.102,0 c 0.157,0 0.283,0.127 0.283,0.283 l 0,2.977 C 5.669,3.416 5.542,3.543 5.386,3.543 Z" style="fill:#dcdcdc" id="path14192"  gorn="0.49.0.0.0.0"/>
                    <rect style="fill:#333333" id="rect14194" x="1.063" width="3.543"  height="3.543" gorn="0.49.0.0.0.1" y="0"/>
                </g>
            </g>
        </g>
    </g>
    <g transform="translate(28.8455,23.4285)" >
        <g id="g14196"  gorn="0.50.0">
            <g transform="matrix(0,-1,1,0,1.063,4.606)" >
                <g id="g14198"  gorn="0.50.0.0.0">
                    <path d="m 5.386,3.543 -5.103,0 C 0.127,3.543 0,3.416 0,3.26 L 0,0.283 C 0,0.127 0.127,0 0.283,0 l 5.102,0 c 0.157,0 0.283,0.127 0.283,0.283 l 0,2.977 C 5.669,3.416 5.542,3.543 5.386,3.543 Z" style="fill:#dcdcdc" id="path14200"  gorn="0.50.0.0.0.0"/>
                    <rect style="fill:#333333" id="rect14202" x="1.063" width="3.543"  height="3.543" gorn="0.50.0.0.0.1" y="0"/>
                </g>
            </g>
        </g>
    </g>
    <g transform="translate(11.949219,36.336808)" >
        <g id="adafruit_2.5mm"  gorn="0.51.0">
            <path d="M 9.747,3.082 C 9.724,2.94 9.647,2.899 9.461,2.839 9.31903,2.794 8.37202,2.492 8.37202,2.492 c 0,0 -0.66,-0.249 -1.15,0.103 -0.066,0.048 -0.134,0.102 -0.203,0.16 0.058,-0.069 0.112,-0.137 0.159,-0.203 0.352,-0.49 0.101,-1.15 0.101,-1.15 0,0 -0.30302,-0.947 -0.34902,-1.089 C 6.87,0.127 6.83,0.05 6.687,0.028 6.545,0.005 6.483,0.066 6.369,0.225 6.282,0.345 5.702,1.153001 5.702,1.153001 5.702,1.153001 5.261,1.704 5.445,2.279 5.47,2.356 5.5,2.438 5.534,2.521 5.486,2.445 5.438,2.372 5.39,2.307 5.032,1.821 4.328,1.855 4.328,1.855 c 0,0 -0.995,-0.004 -1.143,-0.004 -0.195,0 -0.281,0.014 -0.347,0.143 -0.065,0.128 -0.027,0.206 0.089,0.364 0.088,0.12 0.677,0.921002 0.677,0.921002 0,0 0.388,0.59 0.991001,0.592 0.081,0 0.168,-0.003 0.257,-0.01 C 4.765,3.883 4.681,3.907 4.604,3.932 4.031,4.122 3.845998,4.802998 3.845998,4.802998 c 0,0 -0.31,0.943999 -0.357,1.085 C 3.428,6.074 3.416,6.16 3.518,6.262 3.62,6.364 3.706,6.352 3.892,6.29 4.033,6.244 4.977,5.931 4.977,5.931 c 0,0 0.681,-0.187 0.868997,-0.760003 0.025,-0.077 0.049,-0.16 0.07,-0.247 C 5.91,5.014 5.907,5.1 5.907,5.181 c 0.004,0.603 0.594,0.99 0.594,0.99 0,0 0.802001,0.588 0.922003,0.675 C 7.58102,6.962 7.659,7 7.78802,6.935 7.91597,6.869 7.93102,6.783 7.93001,6.588 7.929,6.439 7.92403,5.445 7.92403,5.445 7.92403,5.445 7.95701,4.74 7.47,4.383 7.40498,4.335 7.33198,4.287 7.25602,4.24 c 0.083,0.034 0.165,0.064 0.242,0.088 0.575,0.183 1.125,-0.259 1.125,-0.259 0,0 0.80696,-0.5809998 0.92699,-0.6679998 C 9.70898,3.286 9.76903,3.224 9.747,3.082 Z M 6.322,2.35 C 6.43,2.367 6.484,2.598 6.442,2.865 6.4,3.132 6.278,3.335 6.169,3.318 6.061,3.301 6.007,3.07 6.049,2.803 6.091,2.535 6.213,2.332 6.322,2.35 Z M 4.933,3.059 C 4.983,2.961 5.219,2.981 5.46,3.104 5.701,3.227 5.857,3.406 5.807,3.503 5.757,3.601 5.521,3.581 5.28,3.458 5.038,3.335 4.883,3.157 4.933,3.059 Z M 5.665,4.393 C 5.474,4.584 5.256,4.677 5.178,4.599 5.101,4.521 5.193,4.303 5.384,4.112 5.575,3.92 5.793,3.827 5.871,3.905 5.949,3.983 5.857,4.201 5.665,4.393 Z M 6.719,4.842 C 6.6210001,4.892 6.442,4.737 6.319,4.496 6.196,4.254 6.175,4.018 6.273,3.968 6.371,3.918 6.55,4.073 6.673,4.314 6.796,4.556 6.817,4.792 6.719,4.842 Z M 6.973,3.725 C 6.706,3.767 6.475,3.714 6.457,3.606 6.44,3.497 6.643,3.375 6.91,3.332 7.177,3.289 7.408,3.343 7.425,3.451 7.443,3.56 7.24003,3.682 6.973,3.725 Z" style="fill:#dcdcdc" id="path14205"  gorn="0.51.0.0"/>
        </g>
    </g>
    <g transform="translate(8.00446,17.3934)" >
        <g id="mics-5524"  gorn="0.52.0">
            <g transform="matrix(0,-1,1,0,2.83468,17.0078)" >
                <g id="g14208"  gorn="0.52.0.0.0">
                    <metadata id="metadata15" >
                        <rdf:RDF xmlns:rdf="http://www.w3.org/1999/02/22-rdf-syntax-ns#">
                            <cc:Work rdf:about="" xmlns:cc="http://creativecommons.org/ns#" xmlns:rdf="http://www.w3.org/1999/02/22-rdf-syntax-ns#">
                                <dc:format xmlns:dc="http://purl.org/dc/elements/1.1/">image/svg+xml</dc:format>
                                <dc:type xmlns:rdf="http://www.w3.org/1999/02/22-rdf-syntax-ns#" xmlns:dc="http://purl.org/dc/elements/1.1/" rdf:resource="http://purl.org/dc/dcmitype/StillImage"/>
                                <dc:title xmlns:dc="http://purl.org/dc/elements/1.1/"/>
                            </cc:Work>
                        </rdf:RDF>
                    </metadata>
                    <defs id="defs13" />
                    <g transform="matrix(1.56238,0,0,1.44742,-0.708661,3.28864)" >
                        <g id="g3350"  gorn="0.52.0.0.0.2.0">
                            <g transform="matrix(0.941756,0,0,0.932305,0,0.475924)" >
                                <g id="g3346"  gorn="0.52.0.0.0.2.0.0.0"/>
                            </g>
                            <g transform="translate(1.81432,1.95841)" >
                                <g id="g8154"  gorn="0.52.0.0.0.2.0.1.0">
                                    <g transform="matrix(0,1,-1,0,0,0)" >
                                        <rect rx="0.91793501" style="fill:#887288;fill-opacity:1;stroke:#000000;stroke-width:0;stroke-miterlimit:4;stroke-dasharray:none;stroke-dashoffset:11.71939468;stroke-opacity:1" id="rect8070" x="-4.2304902" width="9.7920704"  height="12.7002" gorn="0.52.0.0.0.2.0.1.0.0.0" y="-11.3395" ry="0.78782398"/>
                                    </g>
                                    <g transform="matrix(0,1,-1,0,0,0)" >
                                        <rect rx="1.5298899" style="fill:#cccccc;fill-opacity:1;stroke:#000000;stroke-width:0;stroke-miterlimit:4;stroke-dasharray:none;stroke-dashoffset:11.71939468;stroke-opacity:1" id="rect8072" x="-3.74088" width="8.81287"  height="11.793" gorn="0.52.0.0.0.2.0.1.0.1.0" y="-10.8859" ry="1.31304"/>
                                    </g>
                                    <g transform="matrix(0,1.07942,-0.926421,0,5.62936,-4.16586)" >
                                        <g id="g8131"  gorn="0.52.0.0.0.2.0.1.0.2.0">
                                            <g transform="translate(0,-0.246948)" >
                                                <g id="g8095"  gorn="0.52.0.0.0.2.0.1.0.2.0.0.0">
                                                    <ellipse rx="0.453576" style="fill:#000000;fill-opacity:1;stroke:#000000;stroke-width:0;stroke-miterlimit:4;stroke-dasharray:none;stroke-dashoffset:11.71939468;stroke-opacity:1" cx="2.6611199" id="path8074" cy="-3.9588001"  gorn="0.52.0.0.0.2.0.1.0.2.0.0.0.0" ry="0.4896"/>
                                                    <ellipse rx="0.453576" style="fill:#000000;fill-opacity:1;stroke:#000000;stroke-width:0;stroke-miterlimit:4;stroke-dasharray:none;stroke-dashoffset:11.71939468;stroke-opacity:1" cx="2.6611199" id="ellipse8076" cy="-1.99986"  gorn="0.52.0.0.0.2.0.1.0.2.0.0.0.1" ry="0.4896"/>
                                                    <ellipse rx="0.453576" style="fill:#000000;fill-opacity:1;stroke:#000000;stroke-width:0;stroke-miterlimit:4;stroke-dasharray:none;stroke-dashoffset:11.71939468;stroke-opacity:1" cx="2.6611199" id="ellipse8087" cy="-0.041961901"  gorn="0.52.0.0.0.2.0.1.0.2.0.0.0.2" ry="0.4896"/>
                                                    <ellipse rx="0.453576" style="fill:#000000;fill-opacity:1;stroke:#000000;stroke-width:0;stroke-miterlimit:4;stroke-dasharray:none;stroke-dashoffset:11.71939468;stroke-opacity:1" cx="2.6611199" id="ellipse8089" cy="1.91698"  gorn="0.52.0.0.0.2.0.1.0.2.0.0.0.3" ry="0.4896"/>
                                                    <ellipse rx="0.453576" style="fill:#000000;fill-opacity:1;stroke:#000000;stroke-width:0;stroke-miterlimit:4;stroke-dasharray:none;stroke-dashoffset:11.71939468;stroke-opacity:1" cx="2.6611199" id="ellipse8091" cy="3.8748701"  gorn="0.52.0.0.0.2.0.1.0.2.0.0.0.4" ry="0.4896"/>
                                                    <ellipse rx="0.453576" style="fill:#000000;fill-opacity:1;stroke:#000000;stroke-width:0;stroke-miterlimit:4;stroke-dasharray:none;stroke-dashoffset:11.71939468;stroke-opacity:1" cx="2.6611199" id="ellipse8093" cy="5.8338099"  gorn="0.52.0.0.0.2.0.1.0.2.0.0.0.5" ry="0.4896"/>
                                                </g>
                                            </g>
                                            <g transform="translate(1.8148,-0.246948)" >
                                                <g id="g8103"  gorn="0.52.0.0.0.2.0.1.0.2.0.1.0">
                                                    <ellipse rx="0.453576" style="fill:#000000;fill-opacity:1;stroke:#000000;stroke-width:0;stroke-miterlimit:4;stroke-dasharray:none;stroke-dashoffset:11.71939468;stroke-opacity:1" cx="2.6611199" id="ellipse8105" cy="-3.9588001"  gorn="0.52.0.0.0.2.0.1.0.2.0.1.0.0" ry="0.4896"/>
                                                    <ellipse rx="0.453576" style="fill:#000000;fill-opacity:1;stroke:#000000;stroke-width:0;stroke-miterlimit:4;stroke-dasharray:none;stroke-dashoffset:11.71939468;stroke-opacity:1" cx="2.6611199" id="ellipse8107" cy="-1.99986"  gorn="0.52.0.0.0.2.0.1.0.2.0.1.0.1" ry="0.4896"/>
                                                    <ellipse rx="0.453576" style="fill:#000000;fill-opacity:1;stroke:#000000;stroke-width:0;stroke-miterlimit:4;stroke-dasharray:none;stroke-dashoffset:11.71939468;stroke-opacity:1" cx="2.6611199" id="ellipse8109" cy="-0.041961901"  gorn="0.52.0.0.0.2.0.1.0.2.0.1.0.2" ry="0.4896"/>
                                                    <ellipse rx="0.453576" style="fill:#000000;fill-opacity:1;stroke:#000000;stroke-width:0;stroke-miterlimit:4;stroke-dasharray:none;stroke-dashoffset:11.71939468;stroke-opacity:1" cx="2.6611199" id="ellipse8111" cy="1.91698"  gorn="0.52.0.0.0.2.0.1.0.2.0.1.0.3" ry="0.4896"/>
                                                    <ellipse rx="0.453576" style="fill:#000000;fill-opacity:1;stroke:#000000;stroke-width:0;stroke-miterlimit:4;stroke-dasharray:none;stroke-dashoffset:11.71939468;stroke-opacity:1" cx="2.6611199" id="ellipse8113" cy="3.8748701"  gorn="0.52.0.0.0.2.0.1.0.2.0.1.0.4" ry="0.4896"/>
                                                    <ellipse rx="0.453576" style="fill:#000000;fill-opacity:1;stroke:#000000;stroke-width:0;stroke-miterlimit:4;stroke-dasharray:none;stroke-dashoffset:11.71939468;stroke-opacity:1" cx="2.6611199" id="ellipse8115" cy="5.8338099"  gorn="0.52.0.0.0.2.0.1.0.2.0.1.0.5" ry="0.4896"/>
                                                </g>
                                            </g>
                                            <g transform="translate(3.62912,-0.246948)" >
                                                <g id="g8117"  gorn="0.52.0.0.0.2.0.1.0.2.0.2.0">
                                                    <ellipse rx="0.453576" style="fill:#000000;fill-opacity:1;stroke:#000000;stroke-width:0;stroke-miterlimit:4;stroke-dasharray:none;stroke-dashoffset:11.71939468;stroke-opacity:1" cx="2.6611199" id="ellipse8119" cy="-3.9588001"  gorn="0.52.0.0.0.2.0.1.0.2.0.2.0.0" ry="0.4896"/>
                                                    <ellipse rx="0.453576" style="fill:#000000;fill-opacity:1;stroke:#000000;stroke-width:0;stroke-miterlimit:4;stroke-dasharray:none;stroke-dashoffset:11.71939468;stroke-opacity:1" cx="2.6611199" id="ellipse8121" cy="-1.99986"  gorn="0.52.0.0.0.2.0.1.0.2.0.2.0.1" ry="0.4896"/>
                                                    <ellipse rx="0.453576" style="fill:#000000;fill-opacity:1;stroke:#000000;stroke-width:0;stroke-miterlimit:4;stroke-dasharray:none;stroke-dashoffset:11.71939468;stroke-opacity:1" cx="2.6611199" id="ellipse8123" cy="-0.041961901"  gorn="0.52.0.0.0.2.0.1.0.2.0.2.0.2" ry="0.4896"/>
                                                    <ellipse rx="0.453576" style="fill:#000000;fill-opacity:1;stroke:#000000;stroke-width:0;stroke-miterlimit:4;stroke-dasharray:none;stroke-dashoffset:11.71939468;stroke-opacity:1" cx="2.6611199" id="ellipse8125" cy="1.91698"  gorn="0.52.0.0.0.2.0.1.0.2.0.2.0.3" ry="0.4896"/>
                                                    <ellipse rx="0.453576" style="fill:#000000;fill-opacity:1;stroke:#000000;stroke-width:0;stroke-miterlimit:4;stroke-dasharray:none;stroke-dashoffset:11.71939468;stroke-opacity:1" cx="2.6611199" id="ellipse8127" cy="3.8748701"  gorn="0.52.0.0.0.2.0.1.0.2.0.2.0.4" ry="0.4896"/>
                                                    <ellipse rx="0.453576" style="fill:#000000;fill-opacity:1;stroke:#000000;stroke-width:0;stroke-miterlimit:4;stroke-dasharray:none;stroke-dashoffset:11.71939468;stroke-opacity:1" cx="2.6611199" id="ellipse8129" cy="5.8338099"  gorn="0.52.0.0.0.2.0.1.0.2.0.2.0.5" ry="0.4896"/>
                                                </g>
                                            </g>
                                        </g>
                                    </g>
                                </g>
                            </g>
                        </g>
                    </g>
                </g>
            </g>
        </g>
    </g>
</svg>
