<?xml version='1.0' encoding='UTF-8' standalone='no'?>
<!-- Created with Fritzing (http://www.fritzing.org/) -->
<svg xmlns="http://www.w3.org/2000/svg" width="0.800213in" x="0in" height="0.900008in" baseProfile="tiny" viewBox="0 0 57.6153 64.8006" y="0in"  version="1.2">
    <desc >
        <referenceFile >MAX31855_breadboard.svg</referenceFile>
    </desc>
    <desc >Fritzing breadboard generated by brd2svg</desc>
    <g gorn="0.2" id="breadboard" >
        <g gorn="0.2.0" id="icon" >
            <path d="M57.6153,7.2L57.6153,57.6006A7.2,7.2,0,0,1,50.4153,64.8006L7.2,64.8006A7.2,7.2,0,0,1,0,57.6006L0,7.2A7.2,7.2,0,0,1,7.2,0L50.4153,0A7.2,7.2,0,0,1,57.6153,7.2M22.2661,10.8363a1.41732,1.41732,0,1,0,2.83465,0,1.41732,1.41732,0,1,0,-2.83465,0zM32.1874,10.8363a1.41732,1.41732,0,1,0,2.83465,0,1.41732,1.41732,0,1,0,-2.83465,0zM9.3685,59.0763a1.41732,1.41732,0,1,0,2.83465,0,1.41732,1.41732,0,1,0,-2.83465,0zM16.5685,59.0763a1.41732,1.41732,0,1,0,2.83465,0,1.41732,1.41732,0,1,0,-2.83465,0zM23.7685,59.0763a1.41732,1.41732,0,1,0,2.83465,0,1.41732,1.41732,0,1,0,-2.83465,0zM30.9685,59.0763a1.41732,1.41732,0,1,0,2.83465,0,1.41732,1.41732,0,1,0,-2.83465,0zM38.1685,59.0763a1.41732,1.41732,0,1,0,2.83465,0,1.41732,1.41732,0,1,0,-2.83465,0zM45.3685,59.0763a1.41732,1.41732,0,1,0,2.83465,0,1.41732,1.41732,0,1,0,-2.83465,0zM47.2677,7.23629a3.11811,3.11811,0,1,0,6.23622,0,3.11811,3.11811,0,1,0,-6.23622,0zM4.06772,7.23629a3.11811,3.11811,0,1,0,6.23622,0,3.11811,3.11811,0,1,0,-6.23622,0z" stroke="none" fill="#014cb1"  stroke-width="0"/>
            <g >
                <title >layer 21</title>
                <line y2="64.1163" stroke="white" x1="30.9458" y1="62.6763" x2="32.3858"  stroke-width="0.72" stroke-linecap="round"/>
                <line y2="62.6763" stroke="white" x1="32.3858" y1="64.1163" x2="33.8258"  stroke-width="0.72" stroke-linecap="round"/>
                <line y2="62.6763" stroke="white" x1="33.8258" y1="62.6763" x2="30.9458"  stroke-width="0.72" stroke-linecap="round"/>
                <line y2="64.1163" stroke="white" x1="39.5858" y1="62.6763" x2="38.1458"  stroke-width="0.72" stroke-linecap="round"/>
                <line y2="64.1163" stroke="white" x1="38.1458" y1="64.1163" x2="41.0258"  stroke-width="0.72" stroke-linecap="round"/>
                <line y2="62.6763" stroke="white" x1="41.0258" y1="64.1163" x2="39.5858"  stroke-width="0.72" stroke-linecap="round"/>
                <line y2="64.1163" stroke="white" x1="45.3458" y1="64.1163" x2="48.2258"  stroke-width="0.72" stroke-linecap="round"/>
                <line y2="62.6763" stroke="white" x1="48.2258" y1="64.1163" x2="46.7858"  stroke-width="0.72" stroke-linecap="round"/>
                <line y2="64.1163" stroke="white" x1="46.7858" y1="62.6763" x2="45.3458"  stroke-width="0.72" stroke-linecap="round"/>
                <line y2="64.1163" stroke="white" x1="9.34582" y1="64.1163" x2="12.2258"  stroke-width="0.72" stroke-linecap="round"/>
                <line y2="62.6763" stroke="white" x1="12.2258" y1="64.1163" x2="10.7858"  stroke-width="0.72" stroke-linecap="round"/>
                <line y2="64.1163" stroke="white" x1="10.7858" y1="62.6763" x2="9.34582"  stroke-width="0.72" stroke-linecap="round"/>
                <line y2="64.1163" stroke="white" x1="23.7458" y1="64.1163" x2="26.6258"  stroke-width="0.72" stroke-linecap="round"/>
                <line y2="62.6763" stroke="white" x1="26.6258" y1="64.1163" x2="25.1858"  stroke-width="0.72" stroke-linecap="round"/>
                <line y2="64.1163" stroke="white" x1="25.1858" y1="62.6763" x2="23.7458"  stroke-width="0.72" stroke-linecap="round"/>
                <line y2="64.1163" stroke="white" x1="16.5458" y1="62.6763" x2="17.9858"  stroke-width="0.72" stroke-linecap="round"/>
                <line y2="62.6763" stroke="white" x1="17.9858" y1="64.1163" x2="19.4258"  stroke-width="0.72" stroke-linecap="round"/>
                <line y2="62.6763" stroke="white" x1="19.4258" y1="62.6763" x2="16.5458"  stroke-width="0.72" stroke-linecap="round"/>
                <g >
                    <title >text:CS</title>
                    <g transform="matrix(1, 0, 0, 1, 41.0258, 55.4763)" >
                        <g >
                            <g >
                                <g transform="rotate(270)" >
                                    <g >
                                        <g >
                                            <text x="0" stroke="none" fill="#ffffff" font-family="OCRA" y="0" font-size="3.3408"  stroke-width="0" text-anchor="start">CS</text>
                                        </g>
                                    </g>
                                </g>
                            </g>
                        </g>
                    </g>
                </g>
                <g >
                    <title >text:GND</title>
                    <g transform="matrix(1, 0, 0, 1, 26.6258, 55.4763)" >
                        <g >
                            <g >
                                <g transform="rotate(270)" >
                                    <g >
                                        <g >
                                            <text x="0" stroke="none" fill="#ffffff" font-family="OCRA" y="0" font-size="3.3408"  stroke-width="0" text-anchor="start">GND</text>
                                        </g>
                                    </g>
                                </g>
                            </g>
                        </g>
                    </g>
                </g>
                <g >
                    <title >text:DO</title>
                    <g transform="matrix(1, 0, 0, 1, 33.8258, 55.4763)" >
                        <g >
                            <g >
                                <g transform="rotate(270)" >
                                    <g >
                                        <g >
                                            <text x="0" stroke="none" fill="#ffffff" font-family="OCRA" y="0" font-size="3.3408"  stroke-width="0" text-anchor="start">DO</text>
                                        </g>
                                    </g>
                                </g>
                            </g>
                        </g>
                    </g>
                </g>
                <g >
                    <title >text:CLK</title>
                    <g transform="matrix(1, 0, 0, 1, 48.2258, 55.4763)" >
                        <g >
                            <g >
                                <g transform="rotate(270)" >
                                    <g >
                                        <g >
                                            <text x="0" stroke="none" fill="#ffffff" font-family="OCRA" y="0" font-size="3.3408"  stroke-width="0" text-anchor="start">CLK</text>
                                        </g>
                                    </g>
                                </g>
                            </g>
                        </g>
                    </g>
                </g>
                <g >
                    <title >text:Vin</title>
                    <g transform="matrix(1, 0, 0, 1, 12.2258, 55.4763)" >
                        <g >
                            <g >
                                <g transform="rotate(270)" >
                                    <g >
                                        <g >
                                            <text x="0" stroke="none" fill="#ffffff" font-family="OCRA" y="0" font-size="3.3408"  stroke-width="0" text-anchor="start">Vin</text>
                                        </g>
                                    </g>
                                </g>
                            </g>
                        </g>
                    </g>
                </g>
                <g >
                    <title >text:Yellow +</title>
                    <g transform="matrix(1, 0, 0, 1, 43.1858, 27.3963)" >
                        <g >
                            <g >
                                <g transform="rotate(270)" >
                                    <g >
                                        <g >
                                            <text x="0" stroke="none" fill="#ffffff" font-family="OCRA" y="0" font-size="3.3408"  stroke-width="0" text-anchor="start">Yellow +</text>
                                        </g>
                                    </g>
                                </g>
                            </g>
                        </g>
                    </g>
                </g>
                <g >
                    <title >text:Red -</title>
                    <g transform="matrix(1, 0, 0, 1, 17.2658, 21.6363)" >
                        <g >
                            <g >
                                <g transform="rotate(270)" >
                                    <g >
                                        <g >
                                            <text x="0" stroke="none" fill="#ffffff" font-family="OCRA" y="0" font-size="3.3408"  stroke-width="0" text-anchor="start">Red -</text>
                                        </g>
                                    </g>
                                </g>
                            </g>
                        </g>
                    </g>
                </g>
                <g >
                    <title >text:MAX31855</title>
                    <text x="18.7058" stroke="none" fill="#ffffff" font-family="OCRA" y="46.8363" font-size="3.3408"  stroke-width="0" text-anchor="start">MAX31855</text>
                </g>
                <g >
                    <title >text:3Vo</title>
                    <g transform="matrix(1, 0, 0, 1, 19.4258, 55.4763)" >
                        <g >
                            <g >
                                <g transform="rotate(270)" >
                                    <g >
                                        <g >
                                            <text x="0" stroke="none" fill="#ffffff" font-family="OCRA" y="0" font-size="3.3408"  stroke-width="0" text-anchor="start">3Vo</text>
                                        </g>
                                    </g>
                                </g>
                            </g>
                        </g>
                    </g>
                </g>
                <g >
                    <title >element:C1</title>
                    <g >
                        <title >package:C0805K</title>
                    </g>
                </g>
                <g >
                    <title >element:C2</title>
                    <g >
                        <title >package:C0805K</title>
                    </g>
                </g>
                <g >
                    <title >element:C3</title>
                    <g >
                        <title >package:_0805</title>
                        <line y2="21.9963" stroke="white" x1="24.1058" y1="21.9963" x2="34.9058"  stroke-width="0.576" stroke-linecap="round"/>
                        <line y2="27.0363" stroke="white" x1="34.9058" y1="21.9963" x2="34.9058"  stroke-width="0.576" stroke-linecap="round"/>
                        <line y2="27.0363" stroke="white" x1="34.9058" y1="27.0363" x2="24.1058"  stroke-width="0.576" stroke-linecap="round"/>
                        <line y2="21.9963" stroke="white" x1="24.1058" y1="27.0363" x2="24.1058"  stroke-width="0.576" stroke-linecap="round"/>
                    </g>
                </g>
                <g >
                    <title >element:D1</title>
                    <g >
                        <title >package:SOD-323F</title>
                        <line y2="36.3537" stroke="white" x1="45.8164" y1="36.3537" x2="50.6353"  stroke-width="0.36" stroke-linecap="round"/>
                        <line y2="40.0388" stroke="white" x1="50.6353" y1="36.3537" x2="50.6353"  stroke-width="0.36" stroke-linecap="round"/>
                        <line y2="40.0388" stroke="white" x1="50.6353" y1="40.0388" x2="45.8164"  stroke-width="0.36" stroke-linecap="round"/>
                        <line y2="36.3537" stroke="white" x1="45.8164" y1="40.0388" x2="45.8164"  stroke-width="0.36" stroke-linecap="round"/>
                        <line y2="39.8971" stroke="white" x1="49.3597" y1="36.4955" x2="49.3597"  stroke-width="0.36" stroke-linecap="round"/>
                        <line y2="39.8971" stroke="white" x1="49.3597" y1="39.8971" x2="49.0762"  stroke-width="0.36" stroke-linecap="round"/>
                        <line y2="36.4955" stroke="white" x1="49.0762" y1="39.8971" x2="49.0762"  stroke-width="0.36" stroke-linecap="round"/>
                    </g>
                </g>
                <g >
                    <title >element:D2</title>
                    <g >
                        <title >package:SOD-323F</title>
                        <line y2="30.5937" stroke="white" x1="45.8164" y1="30.5937" x2="50.6353"  stroke-width="0.36" stroke-linecap="round"/>
                        <line y2="34.2788" stroke="white" x1="50.6353" y1="30.5937" x2="50.6353"  stroke-width="0.36" stroke-linecap="round"/>
                        <line y2="34.2788" stroke="white" x1="50.6353" y1="34.2788" x2="45.8164"  stroke-width="0.36" stroke-linecap="round"/>
                        <line y2="30.5937" stroke="white" x1="45.8164" y1="34.2788" x2="45.8164"  stroke-width="0.36" stroke-linecap="round"/>
                        <line y2="34.1371" stroke="white" x1="49.3597" y1="30.7355" x2="49.3597"  stroke-width="0.36" stroke-linecap="round"/>
                        <line y2="34.1371" stroke="white" x1="49.3597" y1="34.1371" x2="49.0762"  stroke-width="0.36" stroke-linecap="round"/>
                        <line y2="30.7355" stroke="white" x1="49.0762" y1="34.1371" x2="49.0762"  stroke-width="0.36" stroke-linecap="round"/>
                    </g>
                </g>
                <g >
                    <title >element:FB1</title>
                    <g >
                        <title >package:_0805</title>
                        <line y2="16.9563" stroke="white" x1="1.78582" y1="16.9563" x2="12.5858"  stroke-width="0.576" stroke-linecap="round"/>
                        <line y2="21.9963" stroke="white" x1="12.5858" y1="16.9563" x2="12.5858"  stroke-width="0.576" stroke-linecap="round"/>
                        <line y2="21.9963" stroke="white" x1="12.5858" y1="21.9963" x2="1.78582"  stroke-width="0.576" stroke-linecap="round"/>
                        <line y2="16.9563" stroke="white" x1="1.78582" y1="21.9963" x2="1.78582"  stroke-width="0.576" stroke-linecap="round"/>
                    </g>
                </g>
                <g >
                    <title >element:FB2</title>
                    <g >
                        <title >package:_0805</title>
                        <line y2="21.2763" stroke="white" x1="55.7858" y1="21.2763" x2="44.9858"  stroke-width="0.576" stroke-linecap="round"/>
                        <line y2="16.2363" stroke="white" x1="44.9858" y1="21.2763" x2="44.9858"  stroke-width="0.576" stroke-linecap="round"/>
                        <line y2="16.2363" stroke="white" x1="44.9858" y1="16.2363" x2="55.7858"  stroke-width="0.576" stroke-linecap="round"/>
                        <line y2="21.2763" stroke="white" x1="55.7858" y1="16.2363" x2="55.7858"  stroke-width="0.576" stroke-linecap="round"/>
                    </g>
                </g>
                <g >
                    <title >element:IC1</title>
                    <g >
                        <title >package:SO08</title>
                        <line y2="29.9163" stroke="white" x1="34.3298" y1="42.1563" x2="34.3298"  stroke-width="0.432" stroke-linecap="round"/>
                        <path d="M23.2418,42.1563A1.08,1.08,0,0,0,24.3218,43.2363" stroke="white" fill="none"  stroke-width="0.432"/>
                        <path d="M34.3298,29.9163A1.08,1.08,0,0,0,33.2498,28.8363" stroke="white" fill="none"  stroke-width="0.432"/>
                        <path d="M33.2498,43.2363A1.08,1.08,0,0,0,34.3298,42.1563" stroke="white" fill="none"  stroke-width="0.432"/>
                        <path d="M24.3218,28.8363A1.08,1.08,0,0,0,23.2418,29.9163" stroke="white" fill="none"  stroke-width="0.432"/>
                        <line y2="42.1563" stroke="white" x1="23.2418" y1="29.9163" x2="23.2418"  stroke-width="0.432" stroke-linecap="round"/>
                        <line y2="43.2363" stroke="white" x1="24.3218" y1="43.2363" x2="33.2498"  stroke-width="0.432" stroke-linecap="round"/>
                        <line y2="28.8363" stroke="white" x1="33.2498" y1="28.8363" x2="24.3218"  stroke-width="0.432" stroke-linecap="round"/>
                        <path d="M27.3458,28.8363A1.44,1.44,0,1,0,30.2258,28.8363" stroke="white" fill="none"  stroke-width="0.432"/>
                        <line y2="43.2363" stroke="white" x1="24.2498" y1="28.8363" x2="24.2498"  stroke-width="0.144" stroke-linecap="round"/>
                    </g>
                </g>
                <g >
                    <title >element:IC2</title>
                    <g >
                        <title >package:SOT23-5L</title>
                        <line y2="33.0202" stroke="white" x1="4.59496" y1="37.6124" x2="4.59496"  stroke-width="0.432" stroke-linecap="round"/>
                        <line y2="37.6124" stroke="white" x1="12.6567" y1="33.0202" x2="12.6567"  stroke-width="0.432" stroke-linecap="round"/>
                        <line y2="37.6124" stroke="white" x1="10.1055" y1="37.6124" x2="7.14614"  stroke-width="0.432" stroke-linecap="round"/>
                        <line y2="33.0202" stroke="white" x1="9.83909" y1="33.0202" x2="10.1055"  stroke-width="0.432" stroke-linecap="round"/>
                        <line y2="33.0202" stroke="white" x1="7.14614" y1="33.0202" x2="7.41262"  stroke-width="0.432" stroke-linecap="round"/>
                        <line y2="33.0202" stroke="white" x1="12.3903" y1="33.0202" x2="12.6567"  stroke-width="0.432" stroke-linecap="round"/>
                        <line y2="33.0202" stroke="white" x1="4.59496" y1="33.0202" x2="4.86142"  stroke-width="0.432" stroke-linecap="round"/>
                        <line y2="37.6124" stroke="white" x1="4.86142" y1="37.6124" x2="4.59496"  stroke-width="0.432" stroke-linecap="round"/>
                        <line y2="37.6124" stroke="white" x1="12.6567" y1="37.6124" x2="12.3903"  stroke-width="0.432" stroke-linecap="round"/>
                    </g>
                </g>
                <g >
                    <title >element:J2</title>
                    <g >
                        <title >package:1X2-3.5MM</title>
                        <line y2="4.60007" stroke="white" x1="38.4236" y1="20.4741" x2="38.4236"  stroke-width="0.36" stroke-linecap="round"/>
                        <line y2="0.631559" stroke="white" x1="38.4236" y1="4.60007" x2="38.4236"  stroke-width="0.36" stroke-linecap="round"/>
                        <line y2="0.631559" stroke="white" x1="38.4236" y1="0.631559" x2="18.5811"  stroke-width="0.36" stroke-linecap="round"/>
                        <line y2="4.60007" stroke="white" x1="18.5811" y1="0.631559" x2="18.5811"  stroke-width="0.36" stroke-linecap="round"/>
                        <line y2="20.4741" stroke="white" x1="18.5811" y1="4.60007" x2="18.5811"  stroke-width="0.36" stroke-linecap="round"/>
                        <line y2="20.4741" stroke="white" x1="18.5811" y1="20.4741" x2="38.4236"  stroke-width="0.36" stroke-linecap="round"/>
                        <line y2="4.60007" stroke="white" x1="38.4236" y1="4.60007" x2="18.5811"  stroke-width="0.36" stroke-linecap="round"/>
                    </g>
                </g>
                <g >
                    <title >element:JP1</title>
                    <g >
                        <title >package:1X06_ROUND_76</title>
                    </g>
                </g>
                <g >
                    <title >element:R1</title>
                    <g >
                        <title >package:R0805</title>
                        <g transform="matrix(-1, 0, 0, -1, 45.4326, 44.6805)" >
                            <g >
                                <g >
                                    <rect width="1.84252" x="-0.921262" stroke="none" height="3.9685" fill="white" y="-1.98426"  stroke-width="0"/>
                                </g>
                            </g>
                        </g>
                        <g transform="matrix(-1, 0, 0, -1, 49.6086, 44.6805)" >
                            <g >
                                <g >
                                    <rect width="1.84252" x="-0.921262" stroke="none" height="3.9685" fill="white" y="-1.98426"  stroke-width="0"/>
                                </g>
                            </g>
                        </g>
                    </g>
                </g>
                <g >
                    <title >element:R2</title>
                    <g >
                        <title >package:R0805</title>
                        <g transform="matrix(-1, 0, 0, -1, 47.5926, 25.9605)" >
                            <g >
                                <g >
                                    <rect width="1.84252" x="-0.921262" stroke="none" height="3.9685" fill="white" y="-1.98426"  stroke-width="0"/>
                                </g>
                            </g>
                        </g>
                        <g transform="matrix(-1, 0, 0, -1, 51.7686, 25.9605)" >
                            <g >
                                <g >
                                    <rect width="1.84252" x="-0.921262" stroke="none" height="3.9685" fill="white" y="-1.98426"  stroke-width="0"/>
                                </g>
                            </g>
                        </g>
                    </g>
                </g>
                <g >
                    <title >element:U$1</title>
                    <g >
                        <title >package:FIDUCIAL_1MM</title>
                    </g>
                </g>
                <g >
                    <title >element:U$2</title>
                    <g >
                        <title >package:FIDUCIAL_1MM</title>
                    </g>
                </g>
                <g >
                    <title >element:U$4</title>
                    <g >
                        <title >package:MOUNTINGHOLE_2.0_PLATED</title>
                        <circle cy="7.23629" stroke="white" cx="50.3858" fill="none" r="5.10236"  stroke-width="0.576"/>
                    </g>
                </g>
                <g >
                    <title >element:U$5</title>
                    <g >
                        <title >package:MOUNTINGHOLE_2.0_PLATED</title>
                        <circle cy="7.23629" stroke="white" cx="7.18583" fill="none" r="5.10236"  stroke-width="0.576"/>
                    </g>
                </g>
                <g >
                    <title >element:U$6</title>
                    <g >
                        <title >package:ADAFRUIT_3.5MM</title>
                    </g>
                </g>
            </g>
            <rect width="11.088" x="23.2418" stroke="none" height="14.4" fill-opacity="1" fill="#333333" y="28.8363"  stroke-width="0"/>
            <g transform="matrix(-1, 0, 0, -1, 22.9209, 53.3526)" >
                <g >
                    <g >
                        <rect width="3.11811" x="9.90144" gorn="0.2.0.3.0.0.0" stroke="none" height="3.9685" fill="#9A916C" id="connector5pin" y="24.692"  stroke-width="0"/>
                    </g>
                </g>
            </g>
            <g transform="matrix(-1, 0, 0, -1, 11.5824, 53.3526)" >
                <g >
                    <g >
                        <rect width="3.11811" x="4.23212" gorn="0.2.0.4.0.0.0" stroke="none" height="3.9685" fill="#9A916C" id="connector6pin" y="24.692"  stroke-width="0"/>
                    </g>
                </g>
            </g>
            <g transform="matrix(-1, 0, 0, -1, 22.9209, 87.9127)" >
                <g >
                    <g >
                        <rect width="3.11811" x="9.90144" gorn="0.2.0.5.0.0.0" stroke="none" height="3.9685" fill="#9A916C" id="connector7pin" y="41.972"  stroke-width="0"/>
                    </g>
                </g>
            </g>
            <g transform="matrix(-1, 0, 0, -1, 11.5824, 87.9127)" >
                <g >
                    <g >
                        <rect width="3.11811" x="4.23212" gorn="0.2.0.6.0.0.0" stroke="none" height="3.9685" fill="#9A916C" id="connector8pin" y="41.972"  stroke-width="0"/>
                    </g>
                </g>
            </g>
            <rect width="3.40158" x="24.925" gorn="0.2.0.7" stroke="none" height="3.68504" fill="#9A916C" id="connector9pin" y="22.6737"  stroke-width="0"/>
            <rect width="3.40158" x="30.685" gorn="0.2.0.8" stroke="none" height="3.68504" fill="#9A916C" id="connector10pin" y="22.6737"  stroke-width="0"/>
            <rect width="2.83465" x="43.9739" gorn="0.2.0.9" stroke="none" height="2.26772" fill="#9A916C" id="connector11pin" y="37.0624"  stroke-width="0"/>
            <rect width="2.83465" x="49.6431" gorn="0.2.0.10" stroke="none" height="2.26772" fill="#9A916C" id="connector12pin" y="37.0624"  stroke-width="0"/>
            <rect width="2.83465" x="43.9739" gorn="0.2.0.11" stroke="none" height="2.26772" fill="#9A916C" id="connector13pin" y="31.3024"  stroke-width="0"/>
            <rect width="2.83465" x="49.6431" gorn="0.2.0.12" stroke="none" height="2.26772" fill="#9A916C" id="connector14pin" y="31.3024"  stroke-width="0"/>
            <rect width="3.40158" x="2.60504" gorn="0.2.0.13" stroke="none" height="3.68504" fill="#9A916C" id="connector15pin" y="17.6337"  stroke-width="0"/>
            <rect width="3.40158" x="8.36503" gorn="0.2.0.14" stroke="none" height="3.68504" fill="#9A916C" id="connector16pin" y="17.6337"  stroke-width="0"/>
            <g transform="matrix(-1, 0, 0, -1, 106.532, 37.5126)" >
                <g >
                    <g >
                        <rect width="3.40158" x="51.565" gorn="0.2.0.15.0.0.0" stroke="none" height="3.68504" fill="#9A916C" id="connector17pin" y="16.9137"  stroke-width="0"/>
                    </g>
                </g>
            </g>
            <g transform="matrix(-1, 0, 0, -1, 95.0119, 37.5126)" >
                <g >
                    <g >
                        <rect width="3.40158" x="45.805" gorn="0.2.0.16.0.0.0" stroke="none" height="3.68504" fill="#9A916C" id="connector18pin" y="16.9137"  stroke-width="0"/>
                    </g>
                </g>
            </g>
            <g transform="matrix(0, 1, -1, 0, 50.7101, 10.5625)" >
                <g >
                    <g >
                        <rect width="1.872" x="19.1378" gorn="0.2.0.17.0.0.0" stroke="none" height="5.76" fill="#9A916C" id="connector19pin" y="27.7563"  stroke-width="0"/>
                    </g>
                </g>
            </g>
            <g transform="matrix(0, 1, -1, 0, 54.3101, 14.1625)" >
                <g >
                    <g >
                        <rect width="1.872" x="19.1378" gorn="0.2.0.18.0.0.0" stroke="none" height="5.76" fill="#9A916C" id="connector20pin" y="31.3563"  stroke-width="0"/>
                    </g>
                </g>
            </g>
            <g transform="matrix(0, 1, -1, 0, 57.9101, 17.7625)" >
                <g >
                    <g >
                        <rect width="1.872" x="19.1378" gorn="0.2.0.19.0.0.0" stroke="none" height="5.76" fill="#9A916C" id="connector21pin" y="34.9563"  stroke-width="0"/>
                    </g>
                </g>
            </g>
            <g transform="matrix(0, 1, -1, 0, 61.5101, 21.3625)" >
                <g >
                    <g >
                        <rect width="1.872" x="19.1378" gorn="0.2.0.20.0.0.0" stroke="none" height="5.76" fill="#9A916C" id="connector22pin" y="38.5563"  stroke-width="0"/>
                    </g>
                </g>
            </g>
            <g transform="matrix(0, 1, -1, 0, 78.9343, 3.93846)" >
                <g >
                    <g >
                        <rect width="1.872" x="36.5618" gorn="0.2.0.21.0.0.0" stroke="none" height="5.76" fill="#9A916C" id="connector23pin" y="38.5563"  stroke-width="0"/>
                    </g>
                </g>
            </g>
            <g transform="matrix(0, 1, -1, 0, 75.3343, 0.338457)" >
                <g >
                    <g >
                        <rect width="1.872" x="36.5618" gorn="0.2.0.22.0.0.0" stroke="none" height="5.76" fill="#9A916C" id="connector24pin" y="34.9563"  stroke-width="0"/>
                    </g>
                </g>
            </g>
            <g transform="matrix(0, 1, -1, 0, 71.7341, -3.26154)" >
                <g >
                    <g >
                        <rect width="1.872" x="36.5618" gorn="0.2.0.23.0.0.0" stroke="none" height="5.76" fill="#9A916C" id="connector25pin" y="31.3563"  stroke-width="0"/>
                    </g>
                </g>
            </g>
            <g transform="matrix(0, 1, -1, 0, 68.1341, -6.86154)" >
                <g >
                    <g >
                        <rect width="1.872" x="36.5618" gorn="0.2.0.24.0.0.0" stroke="none" height="5.76" fill="#9A916C" id="connector26pin" y="27.7563"  stroke-width="0"/>
                    </g>
                </g>
            </g>
            <g transform="matrix(-1, 0, 0, -1, 22.6374, 63.2625)" >
                <g >
                    <g >
                        <rect width="1.55905" x="10.5392" gorn="0.2.0.25.0.0.0" stroke="none" height="3.40158" fill="#9A916C" id="connector27pin" y="29.9305"  stroke-width="0"/>
                    </g>
                </g>
            </g>
            <g transform="matrix(-1, 0, 0, -1, 17.2516, 63.2625)" >
                <g >
                    <g >
                        <rect width="1.55905" x="7.84627" gorn="0.2.0.26.0.0.0" stroke="none" height="3.40158" fill="#9A916C" id="connector28pin" y="29.9305"  stroke-width="0"/>
                    </g>
                </g>
            </g>
            <g transform="matrix(-1, 0, 0, -1, 11.8658, 63.2625)" >
                <g >
                    <g >
                        <rect width="1.55905" x="5.15339" gorn="0.2.0.27.0.0.0" stroke="none" height="3.40158" fill="#9A916C" id="connector29pin" y="29.9305"  stroke-width="0"/>
                    </g>
                </g>
            </g>
            <g transform="matrix(-1, 0, 0, -1, 11.8658, 78.0026)" >
                <g >
                    <g >
                        <rect width="1.55905" x="5.15339" gorn="0.2.0.28.0.0.0" stroke="none" height="3.40158" fill="#9A916C" id="connector30pin" y="37.3005"  stroke-width="0"/>
                    </g>
                </g>
            </g>
            <g transform="matrix(-1, 0, 0, -1, 22.6374, 78.0026)" >
                <g >
                    <g >
                        <rect width="1.55905" x="10.5392" gorn="0.2.0.29.0.0.0" stroke="none" height="3.40158" fill="#9A916C" id="connector31pin" y="37.3005"  stroke-width="0"/>
                    </g>
                </g>
            </g>
            <circle cy="10.8363" stroke="#9A916C" cx="23.6835" fill="none" r="2.25666" connectorname="THERMO-"  stroke-width="1.67868"/>
            <circle cy="10.8363" stroke="#9A916C" cx="33.6047" fill="none" r="2.25666" connectorname="THERMO+"  stroke-width="1.67868"/>
            <circle gorn="0.2.0.32" cy="59.0763" stroke="#9A916C" cx="10.7858" fill="none" r="2.07666" connectorname="VIN" id="connector34pin"  stroke-width="1.31868"/>
            <circle gorn="0.2.0.33" cy="59.0763" stroke="#9A916C" cx="17.9858" fill="none" r="2.07666" connectorname="+3V3" id="connector35pin"  stroke-width="1.31868"/>
            <circle gorn="0.2.0.34" cy="59.0763" stroke="#9A916C" cx="25.1858" fill="none" r="2.07666" connectorname="GND" id="connector36pin"  stroke-width="1.31868"/>
            <circle gorn="0.2.0.35" cy="59.0763" stroke="#9A916C" cx="32.3858" fill="none" r="2.07666" connectorname="DO" id="connector37pin"  stroke-width="1.31868"/>
            <circle gorn="0.2.0.36" cy="59.0763" stroke="#9A916C" cx="39.5858" fill="none" r="2.07666" connectorname="CS" id="connector38pin"  stroke-width="1.31868"/>
            <circle gorn="0.2.0.37" cy="59.0763" stroke="#9A916C" cx="46.7858" fill="none" r="2.07666" connectorname="CLK" id="connector39pin"  stroke-width="1.31868"/>
            <g transform="matrix(-1, 0, 0, -1, 100.681, 89.3527)" >
                <g >
                    <g >
                        <rect width="3.11811" x="48.7814" gorn="0.2.0.38.0.0.0" stroke="none" height="3.9685" fill="#9A916C" id="connector40pin" y="42.692"  stroke-width="0"/>
                    </g>
                </g>
            </g>
            <g transform="matrix(-1, 0, 0, -1, 89.3426, 89.3527)" >
                <g >
                    <g >
                        <rect width="3.11811" x="43.1122" gorn="0.2.0.39.0.0.0" stroke="none" height="3.9685" fill="#9A916C" id="connector41pin" y="42.692"  stroke-width="0"/>
                    </g>
                </g>
            </g>
            <g transform="matrix(-1, 0, 0, -1, 105.001, 51.9126)" >
                <g >
                    <g >
                        <rect width="3.11811" x="50.9414" gorn="0.2.0.40.0.0.0" stroke="none" height="3.9685" fill="#9A916C" id="connector42pin" y="23.972"  stroke-width="0"/>
                    </g>
                </g>
            </g>
            <g transform="matrix(-1, 0, 0, -1, 93.6626, 51.9126)" >
                <g >
                    <g >
                        <rect width="3.11811" x="45.2722" gorn="0.2.0.41.0.0.0" stroke="none" height="3.9685" fill="#9A916C" id="connector43pin" y="23.972"  stroke-width="0"/>
                    </g>
                </g>
            </g>
            <rect width="2.83465" rx="1.41732" x="41.1925" gorn="0.2.0.42" stroke="none" height="2.83465" fill="#9A916C" id="connector44pin" y="1.78696"  ry="1.41732" stroke-width="0"/>
            <rect width="2.83465" rx="1.41732" x="4.0405" gorn="0.2.0.43" stroke="none" height="2.83465" fill="#9A916C" id="connector45pin" y="50.819"  ry="1.41732" stroke-width="0"/>
            <circle gorn="0.2.0.44" cy="7.23629" stroke="#9A916C" cx="50.3858" fill="none" r="3.83811" connectorname="P$1" id="connector46pin"  stroke-width="1.44"/>
            <circle gorn="0.2.0.45" cy="7.23629" stroke="#9A916C" cx="7.18583" fill="none" r="3.83811" connectorname="P$1" id="connector47pin"  stroke-width="1.44"/>
        </g>
        <g transform="matrix(1, 0, 0, 1, 5.79133, 24.9048)" >
            <g >
                <g gorn="0.2.1.0.0" id="c0805k" >
                    <g transform="matrix(-1, 0, 0, -1, 5.669, 3.543)" >
                        <g >
                            <g >
                                <path d="M5.386,3.543L0.283,3.543C0.127,3.543,0,3.416,0,3.26L0,0.283C0,0.127,0.127,0,0.283,0l5.102,0c0.157,0,0.283,0.127,0.283,0.283L5.668,3.26C5.669,3.416,5.542,3.543,5.386,3.543z" fill="#DCDCDC" />
                                <rect width="3.543" x="1.063" height="3.543" fill="#6E554B" />
                            </g>
                        </g>
                    </g>
                </g>
            </g>
        </g>
        <g transform="matrix(1, 0, 0, 1, 5.79133, 42.1848)" >
            <g >
                <g gorn="0.2.2.0.0" id="c0805k" >
                    <g transform="matrix(-1, 0, 0, -1, 5.669, 3.543)" >
                        <g >
                            <g >
                                <path d="M5.386,3.543L0.283,3.543C0.127,3.543,0,3.416,0,3.26L0,0.283C0,0.127,0.127,0,0.283,0l5.102,0c0.157,0,0.283,0.127,0.283,0.283L5.668,3.26C5.669,3.416,5.542,3.543,5.386,3.543z" fill="#DCDCDC" />
                                <rect width="3.543" x="1.063" height="3.543" fill="#6E554B" />
                            </g>
                        </g>
                    </g>
                </g>
            </g>
        </g>
        <g transform="matrix(1, 0, 0, 1, 26.6713, 22.7448)" >
            <g >
                <g gorn="0.2.3.0.0" id="_0805" >
                    <path d="M5.386,3.543L0.283,3.543C0.127,3.543,0,3.416,0,3.26L0,0.283C0,0.127,0.127,0,0.283,0l5.102,0c0.157,0,0.283,0.127,0.283,0.283L5.668,3.26C5.669,3.416,5.542,3.543,5.386,3.543z" fill="#DCDCDC" />
                    <rect width="3.543" x="1.063" height="3.543" fill="#6E554B" />
                </g>
            </g>
        </g>
        <g transform="matrix(1, 0, 0, 1, 44.6823, 36.4248)" >
            <g >
                <g gorn="0.2.4.0.0" id="sod-323f" >
                    <metadata id="metadata11" >
                        <rdf:RDF xmlns:rdf="http://www.w3.org/1999/02/22-rdf-syntax-ns#">
                            <cc:Work xmlns:cc="http://creativecommons.org/ns#" rdf:about="" xmlns:rdf="http://www.w3.org/1999/02/22-rdf-syntax-ns#">
                                <dc:format xmlns:dc="http://purl.org/dc/elements/1.1/">image/svg+xml</dc:format>
                                <dc:type xmlns:dc="http://purl.org/dc/elements/1.1/" rdf:resource="http://purl.org/dc/dcmitype/StillImage" xmlns:rdf="http://www.w3.org/1999/02/22-rdf-syntax-ns#"/>
                            </cc:Work>
                        </rdf:RDF>
                    </metadata>
                    <defs id="defs9" />
                    <rect width="7.087" gorn="0.2.4.0.0.2" height="0.850003" fill="#DCDCDC" id="rect3" y="1.346" />
                    <rect width="4.819" x="1.134" gorn="0.2.4.0.0.3" height="3.543" fill="#303030" id="rect5" />
                    <rect width="0.633203" x="1.55866" gorn="0.2.4.0.0.4" height="3.55568" fill="#666666" id="rect3339" y="0.011677" />
                </g>
            </g>
        </g>
        <g transform="matrix(1, 0, 0, 1, 44.6823, 30.6648)" >
            <g >
                <g gorn="0.2.5.0.0" id="sod-323f" >
                    <metadata id="metadata11" >
                        <rdf:RDF xmlns:rdf="http://www.w3.org/1999/02/22-rdf-syntax-ns#">
                            <cc:Work xmlns:cc="http://creativecommons.org/ns#" rdf:about="" xmlns:rdf="http://www.w3.org/1999/02/22-rdf-syntax-ns#">
                                <dc:format xmlns:dc="http://purl.org/dc/elements/1.1/">image/svg+xml</dc:format>
                                <dc:type xmlns:dc="http://purl.org/dc/elements/1.1/" rdf:resource="http://purl.org/dc/dcmitype/StillImage" xmlns:rdf="http://www.w3.org/1999/02/22-rdf-syntax-ns#"/>
                            </cc:Work>
                        </rdf:RDF>
                    </metadata>
                    <defs id="defs9" />
                    <rect width="7.087" gorn="0.2.5.0.0.2" height="0.850003" fill="#DCDCDC" id="rect3" y="1.346" />
                    <rect width="4.819" x="1.134" gorn="0.2.5.0.0.3" height="3.543" fill="#303030" id="rect5" />
                    <rect width="0.633203" x="1.55866" gorn="0.2.5.0.0.4" height="3.55568" fill="#666666" id="rect3339" y="0.011677" />
                </g>
            </g>
        </g>
        <g transform="matrix(1, 0, 0, 1, 4.35133, 17.7048)" >
            <g >
                <g gorn="0.2.6.0.0" id="_0805" >
                    <path d="M5.386,3.543L0.283,3.543C0.127,3.543,0,3.416,0,3.26L0,0.283C0,0.127,0.127,0,0.283,0l5.102,0c0.157,0,0.283,0.127,0.283,0.283L5.668,3.26C5.669,3.416,5.542,3.543,5.386,3.543z" fill="#DCDCDC" />
                    <rect width="3.543" x="1.063" height="3.543" fill="#6E554B" />
                </g>
            </g>
        </g>
        <g transform="matrix(1, 0, 0, 1, 47.5513, 16.9848)" >
            <g >
                <g gorn="0.2.7.0.0" id="_0805" >
                    <g transform="matrix(-1, 0, 0, -1, 5.669, 3.543)" >
                        <g >
                            <g >
                                <path d="M5.386,3.543L0.283,3.543C0.127,3.543,0,3.416,0,3.26L0,0.283C0,0.127,0.127,0,0.283,0l5.102,0c0.157,0,0.283,0.127,0.283,0.283L5.668,3.26C5.669,3.416,5.542,3.543,5.386,3.543z" fill="#DCDCDC" />
                                <rect width="3.543" x="1.063" height="3.543" fill="#6E554B" />
                            </g>
                        </g>
                    </g>
                </g>
            </g>
        </g>
        <g transform="matrix(1, 0, 0, 1, 4.51582, 31.4893)" >
            <g >
                <g gorn="0.2.8.0.0" id="sot23-5l" >
                    <g transform="matrix(-1, 0, 0, -1, 8.22002, 7.65403)" >
                        <g >
                            <g >
                                <g >
                                    <rect width="1.134" x="0.850003" height="7.65403" fill="#DCDCDC" />
                                    <rect width="1.134" x="6.236" height="7.65403" fill="#DCDCDC" />
                                    <rect width="1.134" x="3.543" height="3.118" fill="#DCDCDC" y="4.535" />
                                    <rect width="8.22002" height="4.535" fill="#303030" y="1.559" />
                                </g>
                            </g>
                        </g>
                    </g>
                </g>
            </g>
        </g>
        <g transform="matrix(1, 0, 0, 1, 17.4471, 0.631543)" >
            <g >
                <g gorn="0.2.9.0.0" id="1x2-3.5mm" >
                    <g transform="matrix(-1, 0, 0, -1, 22.1105, 19.8426)" >
                        <g >
                            <g >
                                <metadata id="metadata31" >
                                    <rdf:RDF xmlns:rdf="http://www.w3.org/1999/02/22-rdf-syntax-ns#">
                                        <cc:Work xmlns:cc="http://creativecommons.org/ns#" rdf:about="" xmlns:rdf="http://www.w3.org/1999/02/22-rdf-syntax-ns#">
                                            <dc:format xmlns:dc="http://purl.org/dc/elements/1.1/">image/svg+xml</dc:format>
                                            <dc:type xmlns:dc="http://purl.org/dc/elements/1.1/" rdf:resource="http://purl.org/dc/dcmitype/StillImage" xmlns:rdf="http://www.w3.org/1999/02/22-rdf-syntax-ns#"/>
                                            <dc:title xmlns:dc="http://purl.org/dc/elements/1.1/"/>
                                        </cc:Work>
                                    </rdf:RDF>
                                </metadata>
                                <defs id="defs29" />
                                <rect width="2.26794" x="18.7086" gorn="0.2.9.0.0.0.0.0.2" height="5.10188" fill="#0c3878" id="rect3" y="12.1887" />
                                <rect width="2.26794" x="19.8426" gorn="0.2.9.0.0.0.0.0.3" height="2.26794" fill="#0c3878" id="rect5" y="1.13397" />
                                <g transform="scale(1.2499696,1.2499696)" >
                                    <g >
                                        <polygon gorn="0.2.9.0.0.0.0.0.4.0.0" points="16.7808,0,0.9072,0,0.9072,10.8848,0,10.8848,0,12.6992,0.9072,12.6992,0.9072,14.74,16.7808,14.74,16.7808,12.6992,15.8744,12.6992,15.8744,10.8848,16.7808,10.8848" fill="#015dd9" id="polygon7" />
                                    </g>
                                </g>
                                <circle gorn="0.2.9.0.0.0.0.0.5" cy="9.92074" cx="6.09485" fill="#b4b4b4" r="3.68491" id="circle9" />
                                <circle gorn="0.2.9.0.0.0.0.0.6" cy="9.92074" cx="16.0156" fill="#b4b4b4" r="3.68491" id="circle11" />
                                <rect width="7.36985" x="2.55094" gorn="0.2.9.0.0.0.0.0.7" height="2.83493" fill="#0c3878" id="rect13" y="1.41697" />
                                <rect width="7.36985" x="11.3387" gorn="0.2.9.0.0.0.0.0.8" height="2.83493" fill="#0c3878" id="rect15" y="1.41697" />
                                <g transform="scale(1.2499696,1.2499696)" >
                                    <g >
                                        <polygon gorn="0.2.9.0.0.0.0.0.9.0.0" points="0.9072,15.8744,3.7416,15.8744,3.7416,14.4712,6.0096,14.4712,6.0096,15.8744,11.6784,15.8744,11.6784,14.4712,13.9464,14.4712,13.9464,15.8744,16.7808,15.8744,16.7808,13.6064,0.9072,13.6064" fill="#0c3878" id="polygon17" />
                                    </g>
                                </g>
                                <rect width="8.50378" x="1.84296" gorn="0.2.9.0.0.0.0.0.10" height="1.70096" fill="#8c8c8c" id="connector33pin" y="17.8046" />
                                <rect width="8.50378" x="11.7637" gorn="0.2.9.0.0.0.0.0.11" height="1.70096" fill="#8c8c8c" id="connector32pin" y="17.8046" />
                                <path d="m6.18185,6.96283,-1.64296,0.439989,0.513988,1.91696,-2.63294,0.705983c0.00800323,0.281993,0.0389992,0.564986,0.114997,0.848981,0.0759982,0.283992,0.190995,0.544987,0.324992,0.792979l2.63294,-0.705982,0.513988,1.91695,1.64296,-0.43999,-0.513988,-1.91695,2.63294,-0.705984c-0.00802397,-0.280993,-0.038992,-0.564985,-0.114998,-0.84798,-0.0760003,-0.282994,-0.190995,-0.545988,-0.324992,-0.79398L6.69583,8.87976,6.18185,6.96283Z" gorn="0.2.9.0.0.0.0.0.12" fill="#646464" connector-curvature="0" id="path23" />
                                <path d="m13.4977,8.36582,-0.43999,1.64296,1.91695,0.513988,-0.705982,2.63294c0.247994,0.133996,0.508987,0.248993,0.792979,0.324992,0.283992,0.0760003,0.567986,0.106997,0.848981,0.114997l0.705983,-2.63294,1.91696,0.513987,0.439989,-1.64296,-1.91696,-0.513987,0.705983,-2.63294C17.5146,6.55284,17.2536,6.43784,16.9696,6.36185,16.6856,6.28584,16.4016,6.25485,16.1206,6.24685L15.4136,8.87976,13.4977,8.36582Z" gorn="0.2.9.0.0.0.0.0.13" fill="#646464" connector-curvature="0" id="path25" />
                            </g>
                        </g>
                    </g>
                </g>
            </g>
        </g>
        <g transform="matrix(1, 0, 0, 1, 44.6713, 42.9048)" >
            <g >
                <g gorn="0.2.10.0.0" id="0805-res" >
                    <g transform="matrix(-1, 0, 0, -1, 5.669, 3.543)" >
                        <g >
                            <g >
                                <path d="M5.386,3.543L0.283,3.543C0.127,3.543,0,3.416,0,3.26L0,0.283C0,0.127,0.127,0,0.283,0l5.102,0c0.157,0,0.283,0.127,0.283,0.283L5.668,3.26C5.669,3.416,5.542,3.543,5.386,3.543z" fill="#DCDCDC" />
                                <rect width="3.543" x="1.063" height="3.543" fill="#333333" />
                            </g>
                        </g>
                    </g>
                </g>
            </g>
        </g>
        <g transform="matrix(1, 0, 0, 1, 46.8313, 24.1848)" >
            <g >
                <g gorn="0.2.11.0.0" id="0805-res" >
                    <g transform="matrix(-1, 0, 0, -1, 5.669, 3.543)" >
                        <g >
                            <g >
                                <path d="M5.386,3.543L0.283,3.543C0.127,3.543,0,3.416,0,3.26L0,0.283C0,0.127,0.127,0,0.283,0l5.102,0c0.157,0,0.283,0.127,0.283,0.283L5.668,3.26C5.669,3.416,5.542,3.543,5.386,3.543z" fill="#DCDCDC" />
                                <rect width="3.543" x="1.063" height="3.543" fill="#333333" />
                            </g>
                        </g>
                    </g>
                </g>
            </g>
        </g>
    </g>
</svg>
