<?xml version='1.0' encoding='utf-8'?>
<!-- Generator: Adobe Illustrator 20.0.0, SVG Export Plug-In . SVG Version: 6.00 Build 0)  -->
<svg xmlns="http://www.w3.org/2000/svg" version="1.2" x="0px" y="0px" xml:space="preserve" width="1.7in" xmlns:xml="http://www.w3.org/XML/1998/namespace" height="1.4in" baseProfile="tiny" viewBox="0 0 122.4 100.8"  gorn="0" id="Layer_1">
    <desc>
        <referenceFile>Adafruit 1.27 inch 16-bit Color OLED w microSD holder_breadboard.svg</referenceFile>
    </desc>
    <desc >Fritzing breadboard generated by brd2svg</desc>
    <g  gorn="0.1" id="breadboard">
        <g  gorn="0.1.0" id="icon">
            <path fill="#014CB1"  d="M111.6,86.4h3.6c3.976,0,7.2,3.224,7.2,7.2l0,0c0,3.976-3.224,7.2-7.2,7.2l0,0H7.2c-3.976,0-7.2-3.224-7.2-7.2l0,0c0-3.976,3.224-7.2,7.2-7.2h3.6v-72H7.2C3.224,14.4,0,11.176,0,7.2l0,0C0,3.224,3.224,0,7.2,0l0,0h108c3.976,0,7.2,3.224,7.2,7.2l0,0c0,3.976-3.224,7.2-7.2,7.2l0,0h-3.6V86.4 M23.783,7.2c0,0.783,0.635,1.417,1.417,1.417c0.783,0,1.417-0.635,1.417-1.417S25.983,5.783,25.2,5.783C24.417,5.783,23.783,6.417,23.783,7.2z M30.983,7.2c0,0.783,0.635,1.417,1.417,1.417c0.783,0,1.417-0.635,1.417-1.417S33.183,5.783,32.4,5.783C31.617,5.783,30.983,6.417,30.983,7.2z M38.183,7.2c0,0.783,0.635,1.417,1.417,1.417s1.417-0.635,1.417-1.417S40.383,5.783,39.6,5.783S38.183,6.417,38.183,7.2z M45.383,7.2c0,0.783,0.635,1.417,1.417,1.417c0.783,0,1.417-0.635,1.417-1.417c0-0.783-0.635-1.417-1.417-1.417S45.383,6.417,45.383,7.2z M52.583,7.2c0,0.783,0.635,1.417,1.417,1.417c0.783,0,1.417-0.635,1.417-1.417c0-0.783-0.635-1.417-1.417-1.417S52.583,6.417,52.583,7.2z M59.783,7.2c0,0.783,0.635,1.417,1.417,1.417s1.417-0.635,1.417-1.417S61.983,5.783,61.2,5.783S59.783,6.417,59.783,7.2z M66.983,7.2c0,0.783,0.635,1.417,1.417,1.417c0.783,0,1.417-0.635,1.417-1.417S69.183,5.783,68.4,5.783C67.617,5.783,66.983,6.417,66.983,7.2z M74.182,7.2c0,0.783,0.635,1.417,1.417,1.417c0.783,0,1.417-0.635,1.417-1.417S76.382,5.783,75.6,5.783C74.817,5.783,74.182,6.417,74.182,7.2z M81.382,7.2c0,0.783,0.635,1.417,1.417,1.417c0.783,0,1.417-0.635,1.417-1.417S83.582,5.783,82.8,5.783C82.017,5.783,81.382,6.417,81.382,7.2z M88.582,7.2c0,0.783,0.635,1.417,1.417,1.417c0.783,0,1.417-0.635,1.417-1.417S90.782,5.783,90,5.783C89.217,5.783,88.582,6.417,88.582,7.2z M95.782,7.2c0,0.783,0.635,1.417,1.417,1.417c0.783,0,1.417-0.635,1.417-1.417S97.982,5.783,97.2,5.783C96.417,5.783,95.782,6.417,95.782,7.2z M111.657,93.6c-0.003,1.957,1.58,3.546,3.537,3.55c1.957,0.003,3.546-1.58,3.55-3.537c0-0.004,0-0.008,0-0.012c0.003-1.957-1.58-3.546-3.537-3.55c-1.957-0.003-3.546,1.58-3.55,3.537C111.657,93.592,111.657,93.596,111.657,93.6z M3.657,93.6c-0.003,1.957,1.58,3.546,3.537,3.549c1.957,0.003,3.546-1.58,3.549-3.537c0-0.004,0-0.008,0-0.012c0.003-1.957-1.58-3.546-3.537-3.549c-1.957-0.003-3.546,1.58-3.549,3.537C3.657,93.592,3.657,93.596,3.657,93.6z M3.657,7.2c-0.003,1.957,1.58,3.546,3.537,3.549s3.546-1.58,3.549-3.537c0-0.004,0-0.008,0-0.012c0.003-1.957-1.58-3.546-3.537-3.549C5.249,3.647,3.66,5.231,3.657,7.188C3.657,7.192,3.657,7.196,3.657,7.2z M111.657,7.2c-0.003,1.957,1.58,3.546,3.537,3.55c1.957,0.003,3.546-1.58,3.55-3.537c0-0.004,0-0.008,0-0.012c0.003-1.957-1.58-3.546-3.537-3.55c-1.957-0.003-3.546,1.58-3.55,3.537C111.657,7.192,111.657,7.196,111.657,7.2z"/>
            <g >
                <title >layer 21</title>
                <line y1="15.48" y2="18.734" fill="none" x1="109.44" stroke="#FFFFFF" stroke-width="0.72" x2="109.44"  stroke-linecap="round"/>
                <line y1="21.569" y2="24.823" fill="none" x1="109.44" stroke="#FFFFFF" stroke-width="0.72" x2="109.44"  stroke-linecap="round"/>
                <line y1="27.658" y2="30.912" fill="none" x1="109.44" stroke="#FFFFFF" stroke-width="0.72" x2="109.44"  stroke-linecap="round"/>
                <line y1="33.746" y2="37.001" fill="none" x1="109.44" stroke="#FFFFFF" stroke-width="0.72" x2="109.44"  stroke-linecap="round"/>
                <line y1="39.835" y2="43.09" fill="none" x1="109.44" stroke="#FFFFFF" stroke-width="0.72" x2="109.44"  stroke-linecap="round"/>
                <line y1="45.924" y2="49.178" fill="none" x1="109.44" stroke="#FFFFFF" stroke-width="0.72" x2="109.44"  stroke-linecap="round"/>
                <line y1="52.013" y2="55.267" fill="none" x1="109.44" stroke="#FFFFFF" stroke-width="0.72" x2="109.44"  stroke-linecap="round"/>
                <line y1="58.102" y2="61.356" fill="none" x1="109.44" stroke="#FFFFFF" stroke-width="0.72" x2="109.44"  stroke-linecap="round"/>
                <line y1="64.19" y2="67.445" fill="none" x1="109.44" stroke="#FFFFFF" stroke-width="0.72" x2="109.44"  stroke-linecap="round"/>
                <line y1="70.279" y2="73.534" fill="none" x1="109.44" stroke="#FFFFFF" stroke-width="0.72" x2="109.44"  stroke-linecap="round"/>
                <line y1="76.368" y2="79.623" fill="none" x1="109.44" stroke="#FFFFFF" stroke-width="0.72" x2="109.44"  stroke-linecap="round"/>
                <line y1="82.457" y2="85.711" fill="none" x1="109.44" stroke="#FFFFFF" stroke-width="0.72" x2="109.44"  stroke-linecap="round"/>
                <line y1="88.546" y2="91.8" fill="none" x1="109.44" stroke="#FFFFFF" stroke-width="0.72" x2="109.44"  stroke-linecap="round"/>
                <line y1="91.8" y2="91.8" fill="none" x1="109.44" stroke="#FFFFFF" stroke-width="0.72" x2="106.433"  stroke-linecap="round"/>
                <line y1="91.8" y2="91.8" fill="none" x1="103.598" stroke="#FFFFFF" stroke-width="0.72" x2="100.59"  stroke-linecap="round"/>
                <line y1="91.8" y2="91.8" fill="none" x1="97.756" stroke="#FFFFFF" stroke-width="0.72" x2="94.748"  stroke-linecap="round"/>
                <line y1="91.8" y2="91.8" fill="none" x1="91.914" stroke="#FFFFFF" stroke-width="0.72" x2="88.906"  stroke-linecap="round"/>
                <line y1="91.8" y2="91.8" fill="none" x1="86.072" stroke="#FFFFFF" stroke-width="0.72" x2="83.064"  stroke-linecap="round"/>
                <line y1="91.8" y2="91.8" fill="none" x1="80.23" stroke="#FFFFFF" stroke-width="0.72" x2="77.222"  stroke-linecap="round"/>
                <line y1="91.8" y2="91.8" fill="none" x1="74.387" stroke="#FFFFFF" stroke-width="0.72" x2="71.38"  stroke-linecap="round"/>
                <line y1="91.8" y2="91.8" fill="none" x1="68.546" stroke="#FFFFFF" stroke-width="0.72" x2="65.538"  stroke-linecap="round"/>
                <line y1="91.8" y2="91.8" fill="none" x1="62.704" stroke="#FFFFFF" stroke-width="0.72" x2="59.696"  stroke-linecap="round"/>
                <line y1="91.8" y2="91.8" fill="none" x1="56.862" stroke="#FFFFFF" stroke-width="0.72" x2="53.854"  stroke-linecap="round"/>
                <line y1="91.8" y2="91.8" fill="none" x1="51.02" stroke="#FFFFFF" stroke-width="0.72" x2="48.012"  stroke-linecap="round"/>
                <line y1="91.8" y2="91.8" fill="none" x1="45.178" stroke="#FFFFFF" stroke-width="0.72" x2="42.17"  stroke-linecap="round"/>
                <line y1="91.8" y2="91.8" fill="none" x1="39.335" stroke="#FFFFFF" stroke-width="0.72" x2="36.328"  stroke-linecap="round"/>
                <line y1="91.8" y2="91.8" fill="none" x1="33.493" stroke="#FFFFFF" stroke-width="0.72" x2="30.486"  stroke-linecap="round"/>
                <line y1="91.8" y2="91.8" fill="none" x1="27.652" stroke="#FFFFFF" stroke-width="0.72" x2="24.644"  stroke-linecap="round"/>
                <line y1="91.8" y2="91.8" fill="none" x1="21.809" stroke="#FFFFFF" stroke-width="0.72" x2="18.802"  stroke-linecap="round"/>
                <line y1="91.8" y2="91.8" fill="none" x1="15.967" stroke="#FFFFFF" stroke-width="0.72" x2="12.96"  stroke-linecap="round"/>
                <line y1="91.8" y2="88.546" fill="none" x1="12.96" stroke="#FFFFFF" stroke-width="0.72" x2="12.96"  stroke-linecap="round"/>
                <line y1="85.711" y2="82.457" fill="none" x1="12.96" stroke="#FFFFFF" stroke-width="0.72" x2="12.96"  stroke-linecap="round"/>
                <line y1="79.623" y2="76.368" fill="none" x1="12.96" stroke="#FFFFFF" stroke-width="0.72" x2="12.96"  stroke-linecap="round"/>
                <line y1="73.534" y2="70.279" fill="none" x1="12.96" stroke="#FFFFFF" stroke-width="0.72" x2="12.96"  stroke-linecap="round"/>
                <line y1="67.445" y2="64.19" fill="none" x1="12.96" stroke="#FFFFFF" stroke-width="0.72" x2="12.96"  stroke-linecap="round"/>
                <line y1="61.356" y2="58.102" fill="none" x1="12.96" stroke="#FFFFFF" stroke-width="0.72" x2="12.96"  stroke-linecap="round"/>
                <line y1="55.267" y2="52.013" fill="none" x1="12.96" stroke="#FFFFFF" stroke-width="0.72" x2="12.96"  stroke-linecap="round"/>
                <line y1="49.178" y2="45.924" fill="none" x1="12.96" stroke="#FFFFFF" stroke-width="0.72" x2="12.96"  stroke-linecap="round"/>
                <line y1="43.09" y2="39.835" fill="none" x1="12.96" stroke="#FFFFFF" stroke-width="0.72" x2="12.96"  stroke-linecap="round"/>
                <line y1="37.001" y2="33.746" fill="none" x1="12.96" stroke="#FFFFFF" stroke-width="0.72" x2="12.96"  stroke-linecap="round"/>
                <line y1="30.912" y2="27.658" fill="none" x1="12.96" stroke="#FFFFFF" stroke-width="0.72" x2="12.96"  stroke-linecap="round"/>
                <line y1="24.823" y2="21.569" fill="none" x1="12.96" stroke="#FFFFFF" stroke-width="0.72" x2="12.96"  stroke-linecap="round"/>
                <line y1="18.734" y2="15.48" fill="none" x1="12.96" stroke="#FFFFFF" stroke-width="0.72" x2="12.96"  stroke-linecap="round"/>
                <line y1="15.48" y2="15.48" fill="none" x1="12.96" stroke="#FFFFFF" stroke-width="0.72" x2="15.967"  stroke-linecap="round"/>
                <line y1="15.48" y2="15.48" fill="none" x1="18.802" stroke="#FFFFFF" stroke-width="0.72" x2="21.809"  stroke-linecap="round"/>
                <line y1="15.48" y2="15.48" fill="none" x1="24.644" stroke="#FFFFFF" stroke-width="0.72" x2="27.652"  stroke-linecap="round"/>
                <line y1="15.48" y2="15.48" fill="none" x1="30.486" stroke="#FFFFFF" stroke-width="0.72" x2="33.493"  stroke-linecap="round"/>
                <line y1="15.48" y2="15.48" fill="none" x1="36.328" stroke="#FFFFFF" stroke-width="0.72" x2="39.335"  stroke-linecap="round"/>
                <line y1="15.48" y2="15.48" fill="none" x1="42.17" stroke="#FFFFFF" stroke-width="0.72" x2="45.178"  stroke-linecap="round"/>
                <line y1="15.48" y2="15.48" fill="none" x1="48.012" stroke="#FFFFFF" stroke-width="0.72" x2="51.02"  stroke-linecap="round"/>
                <line y1="15.48" y2="15.48" fill="none" x1="53.854" stroke="#FFFFFF" stroke-width="0.72" x2="56.862"  stroke-linecap="round"/>
                <line y1="15.48" y2="15.48" fill="none" x1="59.696" stroke="#FFFFFF" stroke-width="0.72" x2="62.704"  stroke-linecap="round"/>
                <line y1="15.48" y2="15.48" fill="none" x1="65.538" stroke="#FFFFFF" stroke-width="0.72" x2="68.546"  stroke-linecap="round"/>
                <line y1="15.48" y2="15.48" fill="none" x1="71.38" stroke="#FFFFFF" stroke-width="0.72" x2="74.387"  stroke-linecap="round"/>
                <line y1="15.48" y2="15.48" fill="none" x1="77.222" stroke="#FFFFFF" stroke-width="0.72" x2="80.23"  stroke-linecap="round"/>
                <line y1="15.48" y2="15.48" fill="none" x1="83.064" stroke="#FFFFFF" stroke-width="0.72" x2="86.072"  stroke-linecap="round"/>
                <line y1="15.48" y2="15.48" fill="none" x1="88.906" stroke="#FFFFFF" stroke-width="0.72" x2="91.914"  stroke-linecap="round"/>
                <line y1="15.48" y2="15.48" fill="none" x1="94.748" stroke="#FFFFFF" stroke-width="0.72" x2="97.756"  stroke-linecap="round"/>
                <line y1="15.48" y2="15.48" fill="none" x1="100.59" stroke="#FFFFFF" stroke-width="0.72" x2="103.598"  stroke-linecap="round"/>
                <line y1="15.48" y2="15.48" fill="none" x1="106.433" stroke="#FFFFFF" stroke-width="0.72" x2="109.44"  stroke-linecap="round"/>
                <g >
                    <title >text:G</title>
                    <g transform="matrix(1 0 0 1 95.6904 14.0065)" >
                        <text font-size="3.3408" fill="#FFFFFF"  font-family="'OCRA'">G</text>
                    </g>
                </g>
                <g >
                    <title >text:+</title>
                    <g transform="matrix(1 0 0 1 88.8504 14.0065)" >
                        <text font-size="3.3408" fill="#FFFFFF"  font-family="'OCRA'">+</text>
                    </g>
                </g>
                <g >
                    <title >text:3v</title>
                    <g transform="matrix(1 0 0 1 79.7808 14.0065)" >
                        <text font-size="3.3408" fill="#FFFFFF"  font-family="'OCRA'">3v</text>
                    </g>
                </g>
                <g >
                    <title >text:CD</title>
                    <g transform="matrix(1 0 0 1 72.5808 14.0065)" >
                        <text font-size="3.3408" fill="#FFFFFF"  font-family="'OCRA'">CD</text>
                    </g>
                </g>
                <g >
                    <title >text:SO</title>
                    <g transform="matrix(1 0 0 1 65.3808 14.0062)" >
                        <text font-size="3.3408" fill="#FFFFFF"  font-family="'OCRA'">SO</text>
                    </g>
                </g>
                <g >
                    <title >text:SC</title>
                    <g transform="matrix(1 0 0 1 58.1808 14.0062)" >
                        <text font-size="3.3408" fill="#FFFFFF"  font-family="'OCRA'">SC</text>
                    </g>
                </g>
                <g >
                    <title >text:OC</title>
                    <g transform="matrix(1 0 0 1 50.9808 14.0062)" >
                        <text font-size="3.3408" fill="#FFFFFF"  font-family="'OCRA'">OC</text>
                    </g>
                </g>
                <g >
                    <title >text:R</title>
                    <g transform="matrix(1 0 0 1 45.6504 14.0062)" >
                        <text font-size="3.3408" fill="#FFFFFF"  font-family="'OCRA'">R</text>
                    </g>
                </g>
                <g >
                    <title >text:DC</title>
                    <g transform="matrix(1 0 0 1 36.5808 14.0062)" >
                        <text font-size="3.3408" fill="#FFFFFF"  font-family="'OCRA'">DC</text>
                    </g>
                </g>
                <g >
                    <title >text:CL</title>
                    <g transform="matrix(1 0 0 1 29.7408 14.0062)" >
                        <text font-size="3.3408" fill="#FFFFFF"  font-family="'OCRA'">CL</text>
                    </g>
                </g>
                <g >
                    <title >text:SI</title>
                    <g transform="matrix(1 0 0 1 22.1808 14.0062)" >
                        <text font-size="3.3408" fill="#FFFFFF"  font-family="'OCRA'">SI</text>
                    </g>
                </g>
                <g >
                    <title >text:1.27" 128x96 RGB OLED</title>
                    <g transform="matrix(1 0 0 1 31.4684 4.5921)" >
                        <text font-size="3.3408" fill="#FFFFFF"  font-family="'OCRA'">1.27" 128x96 RGB OLED</text>
                    </g>
                </g>
                <g >
                    <title >element:C1</title>
                    <g >
                        <title >package:_0805MP</title>
                    </g>
                </g>
                <g >
                    <title >element:C2</title>
                    <g >
                        <title >package:_0805MP</title>
                    </g>
                </g>
                <g >
                    <title >element:C3</title>
                    <g >
                        <title >package:_0805MP</title>
                    </g>
                </g>
                <g >
                    <title >element:C4</title>
                    <g >
                        <title >package:_0805MP</title>
                    </g>
                </g>
                <g >
                    <title >element:C5</title>
                    <g >
                        <title >package:_0805MP</title>
                    </g>
                </g>
                <g >
                    <title >element:C6</title>
                    <g >
                        <title >package:_0805MP</title>
                    </g>
                </g>
                <g >
                    <title >element:C7</title>
                    <g >
                        <title >package:_0805MP</title>
                    </g>
                </g>
                <g >
                    <title >element:C8</title>
                    <g >
                        <title >package:_0805MP</title>
                    </g>
                </g>
                <g >
                    <title >element:C9</title>
                    <g >
                        <title >package:_0805MP</title>
                    </g>
                </g>
                <g >
                    <title >element:CN1</title>
                    <g >
                        <title >package:MICROSD</title>
                    </g>
                </g>
                <g >
                    <title >element:D1</title>
                    <g >
                        <title >package:SOD-323</title>
                    </g>
                </g>
                <g >
                    <title >element:D2</title>
                    <g >
                        <title >package:SOD-123</title>
                    </g>
                </g>
                <g >
                    <title >element:D3</title>
                    <g >
                        <title >package:SOD-323</title>
                    </g>
                </g>
                <g >
                    <title >element:JP1</title>
                    <g >
                        <title >package:1X11_ROUND</title>
                    </g>
                </g>
                <g >
                    <title >element:L1</title>
                    <g >
                        <title >package:INDUCTOR_1007</title>
                    </g>
                </g>
                <g >
                    <title >element:R4</title>
                    <g >
                        <title >package:_0805MP</title>
                    </g>
                </g>
                <g >
                    <title >element:R5</title>
                    <g >
                        <title >package:_0805MP</title>
                    </g>
                </g>
                <g >
                    <title >element:R6</title>
                    <g >
                        <title >package:_0805MP</title>
                    </g>
                </g>
                <g >
                    <title >element:R7</title>
                    <g >
                        <title >package:_0805MP</title>
                    </g>
                </g>
                <g >
                    <title >element:R8</title>
                    <g >
                        <title >package:_0805MP</title>
                    </g>
                </g>
                <g >
                    <title >element:SJ1</title>
                    <g >
                        <title >package:SOLDERJUMPER_REFLOW_NOPASTE</title>
                    </g>
                </g>
                <g >
                    <title >element:U$22</title>
                    <g >
                        <title >package:MOUNTINGHOLE_2.5_PLATED</title>
                    </g>
                </g>
                <g >
                    <title >element:U$23</title>
                    <g >
                        <title >package:MOUNTINGHOLE_2.5_PLATED</title>
                    </g>
                </g>
                <g >
                    <title >element:U$24</title>
                    <g >
                        <title >package:MOUNTINGHOLE_2.5_PLATED</title>
                    </g>
                </g>
                <g >
                    <title >element:U$25</title>
                    <g >
                        <title >package:MOUNTINGHOLE_2.5_PLATED</title>
                    </g>
                </g>
                <g >
                    <title >element:U$26</title>
                    <g >
                        <title >package:FIDUCIAL_1MM</title>
                    </g>
                </g>
                <g >
                    <title >element:U$27</title>
                    <g >
                        <title >package:FIDUCIAL_1MM</title>
                    </g>
                </g>
                <g >
                    <title >element:U$28</title>
                    <g >
                        <title >package:ADAFRUIT_3.5MM</title>
                    </g>
                </g>
                <g >
                    <title >element:U$29</title>
                    <g >
                        <title >package:FIDUCIAL_1MM</title>
                    </g>
                </g>
                <g >
                    <title >element:U1</title>
                    <g >
                        <title >package:FPC_XF2M-3015-1A</title>
                    </g>
                </g>
                <g >
                    <title >element:U2</title>
                    <g >
                        <title >package:SOT23-5</title>
                    </g>
                </g>
                <g >
                    <title >element:U3</title>
                    <g >
                        <title >package:SOT23-5@1</title>
                    </g>
                </g>
                <g >
                    <title >element:U4</title>
                    <g >
                        <title >package:SOIC16</title>
                    </g>
                </g>
            </g>
            <circle cx="25.2" fill="none" cy="7.2" stroke="#9A916C" stroke-width="0.9587"  r="1.897" gorn="0.1.0.2" id="connector5pin"/>
            <rect x="23.303" fill="none" y="5.303" stroke="#9A916C" stroke-width="0.9587" width="3.793" height="3.793" />
            <circle cx="32.4" fill="none" cy="7.2" stroke="#9A916C" stroke-width="0.9587"  r="1.897" gorn="0.1.0.4" id="connector6pin"/>
            <circle cx="39.6" fill="none" cy="7.2" stroke="#9A916C" stroke-width="0.9587"  r="1.897" gorn="0.1.0.5" id="connector7pin"/>
            <circle cx="46.8" fill="none" cy="7.2" stroke="#9A916C" stroke-width="0.9587"  r="1.897" gorn="0.1.0.6" id="connector8pin"/>
            <circle cx="54" fill="none" cy="7.2" stroke="#9A916C" stroke-width="0.9587"  r="1.897" gorn="0.1.0.7" id="connector9pin"/>
            <circle cx="61.2" fill="none" cy="7.2" stroke="#9A916C" stroke-width="0.9587"  r="1.897" gorn="0.1.0.8" id="connector10pin"/>
            <circle cx="68.4" fill="none" cy="7.2" stroke="#9A916C" stroke-width="0.9587"  r="1.897" gorn="0.1.0.9" id="connector11pin"/>
            <circle cx="75.6" fill="none" cy="7.2" stroke="#9A916C" stroke-width="0.9587"  r="1.897" gorn="0.1.0.10" id="connector12pin"/>
            <circle cx="82.8" fill="none" cy="7.2" stroke="#9A916C" stroke-width="0.9587"  r="1.897" gorn="0.1.0.11" id="connector13pin"/>
            <circle cx="90" fill="none" cy="7.2" stroke="#9A916C" stroke-width="0.9587"  r="1.897" gorn="0.1.0.12" id="connector14pin"/>
            <circle cx="97.2" fill="none" cy="7.2" stroke="#9A916C" stroke-width="0.9587"  r="1.897" gorn="0.1.0.13" id="connector15pin"/>
            <circle cx="115.2" fill="none" cy="93.6" stroke="#9A916C" stroke-width="1.44"  r="4.263" gorn="0.1.0.14" id="connector16pin"/>
            <circle cx="7.2" fill="none" cy="93.6" stroke="#9A916C" stroke-width="1.44"  r="4.263" gorn="0.1.0.15" id="connector17pin"/>
            <circle cx="7.2" fill="none" cy="7.2" stroke="#9A916C" stroke-width="1.44"  r="4.263" gorn="0.1.0.16" id="connector18pin"/>
            <circle cx="115.2" fill="none" cy="7.2" stroke="#9A916C" stroke-width="1.44"  r="4.263" gorn="0.1.0.17" id="connector19pin"/>
        </g>
    </g>
    <g >
        <rect x="13.295" fill="#3C3C5A" y="15.816" width="95.811" height="77.822" />
        <rect x="15.137" fill="#1E1E1E" y="17.234" width="92.126" height="67.901" />
        <g >
            <rect x="98.675" fill="#FF0000" y="23.196" width="0.595" height="56.156" />
            <rect x="98.08" fill="#FF0000" y="23.196" width="0.595" height="56.156" />
            <rect x="97.485" fill="#FF0007" y="23.196" width="0.595" height="56.156" />
            <rect x="96.89" fill="#FF0011" y="23.196" width="0.595" height="56.156" />
            <rect x="96.295" fill="#FF001D" y="23.196" width="0.595" height="56.156" />
            <rect x="95.7" fill="#FF0029" y="23.196" width="0.595" height="56.156" />
            <rect x="95.106" fill="#FF0037" y="23.196" width="0.595" height="56.156" />
            <rect x="94.511" fill="#FF0046" y="23.196" width="0.595" height="56.156" />
            <rect x="93.916" fill="#FF0056" y="23.196" width="0.595" height="56.156" />
            <rect x="93.321" fill="#FF0066" y="23.196" width="0.595" height="56.156" />
            <rect x="92.726" fill="#FF0077" y="23.196" width="0.595" height="56.156" />
            <rect x="92.131" fill="#FF0088" y="23.196" width="0.595" height="56.156" />
            <rect x="91.537" fill="#FF0099" y="23.196" width="0.595" height="56.156" />
            <rect x="90.942" fill="#FF00A9" y="23.196" width="0.595" height="56.156" />
            <rect x="90.347" fill="#FF00B8" y="23.196" width="0.595" height="56.156" />
            <rect x="89.752" fill="#FF00C8" y="23.196" width="0.595" height="56.156" />
            <rect x="89.157" fill="#FF00D5" y="23.196" width="0.595" height="56.156" />
            <rect x="88.562" fill="#FF00E2" y="23.196" width="0.595" height="56.156" />
            <rect x="87.968" fill="#FF00ED" y="23.196" width="0.595" height="56.156" />
            <rect x="87.373" fill="#FF00F7" y="23.196" width="0.595" height="56.156" />
            <rect x="86.778" fill="#FF00FF" y="23.196" width="0.595" height="56.156" />
            <rect x="86.183" fill="#F900FF" y="23.196" width="0.595" height="56.156" />
            <rect x="85.588" fill="#F100FF" y="23.196" width="0.595" height="56.156" />
            <rect x="84.993" fill="#E900FF" y="23.196" width="0.595" height="56.156" />
            <rect x="84.399" fill="#DF00FF" y="23.196" width="0.595" height="56.156" />
            <rect x="83.804" fill="#D400FF" y="23.196" width="0.595" height="56.156" />
            <rect x="83.209" fill="#C900FF" y="23.196" width="0.595" height="56.156" />
            <rect x="82.614" fill="#BC00FF" y="23.196" width="0.595" height="56.156" />
            <rect x="82.019" fill="#AF00FF" y="23.196" width="0.595" height="56.156" />
            <rect x="81.424" fill="#A200FF" y="23.196" width="0.595" height="56.156" />
            <rect x="80.83" fill="#9400FF" y="23.196" width="0.595" height="56.156" />
            <rect x="80.235" fill="#8600FF" y="23.196" width="0.595" height="56.156" />
            <rect x="79.64" fill="#7800FF" y="23.196" width="0.595" height="56.156" />
            <rect x="79.045" fill="#6B00FF" y="23.196" width="0.595" height="56.156" />
            <rect x="78.45" fill="#5D00FF" y="23.196" width="0.595" height="56.156" />
            <rect x="77.855" fill="#4F00FF" y="23.196" width="0.595" height="56.156" />
            <rect x="77.261" fill="#4200FF" y="23.196" width="0.595" height="56.156" />
            <rect x="76.666" fill="#3600FF" y="23.196" width="0.595" height="56.156" />
            <rect x="76.071" fill="#2A00FF" y="23.196" width="0.595" height="56.156" />
            <rect x="75.476" fill="#2000FF" y="23.196" width="0.595" height="56.156" />
            <rect x="74.881" fill="#1600FF" y="23.196" width="0.595" height="56.156" />
            <rect x="74.286" fill="#0D00FF" y="23.196" width="0.595" height="56.156" />
            <rect x="73.692" fill="#0500FF" y="23.196" width="0.595" height="56.156" />
            <rect x="73.097" fill="#0000FF" y="23.196" width="0.595" height="56.156" />
            <rect x="72.502" fill="#0007FF" y="23.196" width="0.595" height="56.156" />
            <rect x="71.907" fill="#0011FF" y="23.196" width="0.595" height="56.156" />
            <rect x="71.312" fill="#001BFF" y="23.196" width="0.595" height="56.156" />
            <rect x="70.717" fill="#0027FF" y="23.196" width="0.595" height="56.156" />
            <rect x="70.123" fill="#0034FF" y="23.196" width="0.595" height="56.156" />
            <rect x="69.528" fill="#0042FF" y="23.196" width="0.595" height="56.156" />
            <rect x="68.933" fill="#0050FF" y="23.196" width="0.595" height="56.156" />
            <rect x="68.338" fill="#005FFF" y="23.196" width="0.595" height="56.156" />
            <rect x="67.743" fill="#006FFF" y="23.196" width="0.595" height="56.156" />
            <rect x="67.148" fill="#007FFF" y="23.196" width="0.595" height="56.156" />
            <rect x="66.554" fill="#008EFF" y="23.196" width="0.595" height="56.156" />
            <rect x="65.959" fill="#009DFF" y="23.196" width="0.595" height="56.156" />
            <rect x="65.364" fill="#00ACFF" y="23.196" width="0.595" height="56.156" />
            <rect x="64.769" fill="#00BBFF" y="23.196" width="0.595" height="56.156" />
            <rect x="64.174" fill="#00C9FF" y="23.196" width="0.595" height="56.156" />
            <rect x="63.579" fill="#00D7FF" y="23.196" width="0.595" height="56.156" />
            <rect x="62.985" fill="#00E2FF" y="23.196" width="0.595" height="56.156" />
            <rect x="62.39" fill="#00ECFF" y="23.196" width="0.595" height="56.156" />
            <rect x="61.795" fill="#00F5FF" y="23.196" width="0.595" height="56.156" />
            <rect x="61.2" fill="#00FDFF" y="23.196" width="0.595" height="56.156" />
            <rect x="60.605" fill="#00FFFA" y="23.196" width="0.595" height="56.156" />
            <rect x="60.01" fill="#00FFF3" y="23.196" width="0.595" height="56.156" />
            <rect x="59.416" fill="#00FFEA" y="23.196" width="0.595" height="56.156" />
            <rect x="58.821" fill="#00FFE1" y="23.196" width="0.595" height="56.156" />
            <rect x="58.226" fill="#00FFD6" y="23.196" width="0.595" height="56.156" />
            <rect x="57.631" fill="#00FFCB" y="23.196" width="0.595" height="56.156" />
            <rect x="57.036" fill="#00FFBE" y="23.196" width="0.595" height="56.156" />
            <rect x="56.441" fill="#00FFB2" y="23.196" width="0.595" height="56.156" />
            <rect x="55.847" fill="#00FFA4" y="23.196" width="0.595" height="56.156" />
            <rect x="55.252" fill="#00FF97" y="23.196" width="0.595" height="56.156" />
            <rect x="54.657" fill="#00FF89" y="23.196" width="0.595" height="56.156" />
            <rect x="54.062" fill="#00FF7B" y="23.196" width="0.595" height="56.156" />
            <rect x="53.467" fill="#00FF6D" y="23.196" width="0.595" height="56.156" />
            <rect x="52.872" fill="#00FF60" y="23.196" width="0.595" height="56.156" />
            <rect x="52.278" fill="#00FF52" y="23.196" width="0.595" height="56.156" />
            <rect x="51.683" fill="#00FF45" y="23.196" width="0.595" height="56.156" />
            <rect x="51.088" fill="#00FF38" y="23.196" width="0.595" height="56.156" />
            <rect x="50.493" fill="#00FF2C" y="23.196" width="0.595" height="56.156" />
            <rect x="49.898" fill="#00FF22" y="23.196" width="0.595" height="56.156" />
            <rect x="49.303" fill="#00FF17" y="23.196" width="0.595" height="56.156" />
            <rect x="48.709" fill="#00FF0E" y="23.196" width="0.595" height="56.156" />
            <rect x="48.114" fill="#00FF07" y="23.196" width="0.595" height="56.156" />
            <rect x="47.519" fill="#00FF00" y="23.196" width="0.595" height="56.156" />
            <rect x="46.924" fill="#06FF00" y="23.196" width="0.595" height="56.156" />
            <rect x="46.329" fill="#0EFF00" y="23.196" width="0.595" height="56.156" />
            <rect x="45.734" fill="#17FF00" y="23.196" width="0.595" height="56.156" />
            <rect x="45.14" fill="#22FF00" y="23.196" width="0.595" height="56.156" />
            <rect x="44.545" fill="#2EFF00" y="23.196" width="0.595" height="56.156" />
            <rect x="43.95" fill="#3AFF00" y="23.196" width="0.595" height="56.156" />
            <rect x="43.355" fill="#47FF00" y="23.196" width="0.595" height="56.156" />
            <rect x="42.76" fill="#56FF00" y="23.196" width="0.595" height="56.156" />
            <rect x="42.165" fill="#64FF00" y="23.196" width="0.595" height="56.156" />
            <rect x="41.571" fill="#73FF00" y="23.196" width="0.595" height="56.156" />
            <rect x="40.976" fill="#81FF00" y="23.196" width="0.595" height="56.156" />
            <rect x="40.381" fill="#8FFF00" y="23.196" width="0.595" height="56.156" />
            <rect x="39.786" fill="#9EFF00" y="23.196" width="0.595" height="56.156" />
            <rect x="39.191" fill="#ACFF00" y="23.196" width="0.595" height="56.156" />
            <rect x="38.596" fill="#BBFF00" y="23.196" width="0.595" height="56.156" />
            <rect x="38.002" fill="#C7FF00" y="23.196" width="0.595" height="56.156" />
            <rect x="37.407" fill="#D4FF00" y="23.196" width="0.595" height="56.156" />
            <rect x="36.812" fill="#E0FF00" y="23.196" width="0.595" height="56.156" />
            <rect x="36.217" fill="#EAFF00" y="23.196" width="0.595" height="56.156" />
            <rect x="35.622" fill="#F3FF00" y="23.196" width="0.595" height="56.156" />
            <rect x="35.027" fill="#FBFF00" y="23.196" width="0.595" height="56.156" />
            <rect x="34.433" fill="#FFFD00" y="23.196" width="0.595" height="56.156" />
            <rect x="33.838" fill="#FFF500" y="23.196" width="0.595" height="56.156" />
            <rect x="33.243" fill="#FFED00" y="23.196" width="0.595" height="56.156" />
            <rect x="32.648" fill="#FFE100" y="23.196" width="0.595" height="56.156" />
            <rect x="32.053" fill="#FFD500" y="23.196" width="0.595" height="56.156" />
            <rect x="31.458" fill="#FFC800" y="23.196" width="0.595" height="56.156" />
            <rect x="30.864" fill="#FFBB00" y="23.196" width="0.595" height="56.156" />
            <rect x="30.269" fill="#FFAC00" y="23.196" width="0.595" height="56.156" />
            <rect x="29.674" fill="#FF9C00" y="23.196" width="0.595" height="56.156" />
            <rect x="29.079" fill="#FF8D00" y="23.196" width="0.595" height="56.156" />
            <rect x="28.484" fill="#FF7D00" y="23.196" width="0.595" height="56.156" />
            <rect x="27.889" fill="#FF6E00" y="23.196" width="0.595" height="56.156" />
            <rect x="27.295" fill="#FF5E00" y="23.196" width="0.595" height="56.156" />
            <rect x="26.7" fill="#FF5000" y="23.196" width="0.595" height="56.156" />
            <rect x="26.105" fill="#FF4100" y="23.196" width="0.595" height="56.156" />
            <rect x="25.51" fill="#FF3200" y="23.196" width="0.595" height="56.156" />
            <rect x="24.915" fill="#FF2600" y="23.196" width="0.595" height="56.156" />
            <rect x="24.32" fill="#FF1A00" y="23.196" width="0.595" height="56.156" />
            <rect x="23.726" fill="#FF1000" y="23.196" width="0.595" height="56.156" />
            <rect x="23.131" fill="#FF0800" y="23.196" width="0.595" height="56.156" />
        </g>
        <rect x="21.728" fill="#3C535A" y="93.497" width="78.945" height="7.795" />
        <rect x="33.066" fill="#646464" y="87.969" width="56.268" height="5.669" />
    </g>
</svg>
