<?xml version='1.0' encoding='utf-8'?>
<!-- Generator: Adobe Illustrator 20.0.0, SVG Export Plug-In . SVG Version: 6.00 Build 0)  -->
<svg xmlns="http://www.w3.org/2000/svg" viewBox="0 0 57.6 36" gorn="0" width="0.8in" xml:space="preserve"  version="1.2" xmlns:xml="http://www.w3.org/XML/1998/namespace" baseProfile="tiny" id="Layer_1" x="0px" y="0px" height="0.5in">
    <desc>
        <referenceFile>Adafruit MCP9808 High Accuracy I2C Temperature Sensor_breadboard.svg</referenceFile>
    </desc>
    <desc >Fritzing breadboard generated by brd2svg</desc>
    <g gorn="0.1"  id="breadboard">
        <g gorn="0.1.0"  id="icon">
            <path fill="#014CB1"  d="M57.6,7.2v21.6c0,3.976-3.224,7.2-7.2,7.2H7.2C3.224,36,0,32.776,0,28.8c0,0,0,0,0,0V7.2C0,3.224,3.224,0,7.2,0c0,0,0,0,0,0h43.2C54.376,0,57.6,3.224,57.6,7.2 M2.183,29.52c0,0.783,0.635,1.417,1.417,1.417s1.417-0.635,1.417-1.417S4.383,28.103,3.6,28.103S2.183,28.737,2.183,29.52z M9.383,29.52c0,0.783,0.635,1.417,1.417,1.417s1.417-0.635,1.417-1.417l0,0c0-0.783-0.635-1.417-1.417-1.417S9.383,28.737,9.383,29.52z M16.583,29.52c0,0.783,0.635,1.417,1.417,1.417c0.783,0,1.417-0.635,1.417-1.417l0,0c0-0.783-0.635-1.417-1.417-1.417C17.217,28.103,16.583,28.737,16.583,29.52z M23.783,29.52c0,0.783,0.635,1.417,1.417,1.417c0.783,0,1.417-0.635,1.417-1.417l0,0c0-0.783-0.635-1.417-1.417-1.417C24.417,28.103,23.783,28.737,23.783,29.52z M30.983,29.52c0,0.783,0.635,1.417,1.417,1.417c0.783,0,1.417-0.635,1.417-1.417l0,0c0-0.783-0.635-1.417-1.417-1.417C31.617,28.103,30.983,28.737,30.983,29.52z M38.183,29.52c0,0.783,0.635,1.417,1.417,1.417s1.417-0.635,1.417-1.417s-0.635-1.417-1.417-1.417S38.183,28.737,38.183,29.52z M45.383,29.52c0,0.783,0.635,1.417,1.417,1.417c0.783,0,1.417-0.635,1.417-1.417l0,0c0-0.783-0.635-1.417-1.417-1.417S45.383,28.737,45.383,29.52z M52.583,29.52c0,0.783,0.635,1.417,1.417,1.417c0.783,0,1.417-0.635,1.417-1.417l0,0c0-0.783-0.635-1.417-1.417-1.417S52.583,28.737,52.583,29.52z M3.657,7.2c-0.003,1.957,1.58,3.546,3.537,3.549s3.546-1.58,3.549-3.537c0-0.004,0-0.008,0-0.012c0.003-1.957-1.58-3.546-3.537-3.549C5.249,3.647,3.66,5.231,3.657,7.188C3.657,7.192,3.657,7.196,3.657,7.2z M46.857,7.2c-0.003,1.957,1.58,3.546,3.537,3.55c1.957,0.003,3.546-1.58,3.55-3.537c0-0.004,0-0.008,0-0.012c0.003-1.957-1.58-3.546-3.537-3.55c-1.957-0.003-3.546,1.58-3.55,3.537C46.857,7.192,46.857,7.196,46.857,7.2z"/>
            <g >
                <title >layer 21</title>
                <g >
                    <title >text:MCP9808</title>
                    <g transform="matrix(1 0 0 1 20.844 8.028)" >
                        <text font-size="3.3408" fill="#FFFFFF"  font-family="'OCRA'">MCP9808</text>
                    </g>
                </g>
                <g >
                    <title >text:Vdd</title>
                    <g transform="matrix(1 0 0 1 1.0569 26.6176)" >
                        <text font-size="2.67264" fill="#FFFFFF"  font-family="'OCRA'">Vdd</text>
                    </g>
                </g>
                <g >
                    <title >text:Gnd</title>
                    <g transform="matrix(1 0 0 1 7.1769 35.257)" >
                        <text font-size="2.67264" fill="#FFFFFF"  font-family="'OCRA'">Gnd</text>
                    </g>
                </g>
                <g >
                    <title >text:SCL</title>
                    <g transform="matrix(1 0 0 1 14.377 26.6176)" >
                        <text font-size="2.67264" fill="#FFFFFF"  font-family="'OCRA'">SCL</text>
                    </g>
                </g>
                <g >
                    <title >text:SDA</title>
                    <g transform="matrix(1 0 0 1 21.5769 35.257)" >
                        <text font-size="2.67264" fill="#FFFFFF"  font-family="'OCRA'">SDA</text>
                    </g>
                </g>
                <g >
                    <title >text:Alert</title>
                    <g transform="matrix(1 0 0 1 26.3616 26.6176)" >
                        <text font-size="2.67264" fill="#FFFFFF"  font-family="'OCRA'">Alert</text>
                    </g>
                </g>
                <g >
                    <title >text:A0</title>
                    <g transform="matrix(1 0 0 1 37.1846 35.257)" >
                        <text font-size="2.67264" fill="#FFFFFF"  font-family="'OCRA'">A0</text>
                    </g>
                </g>
                <g >
                    <title >text:A1</title>
                    <g transform="matrix(1 0 0 1 44.3846 26.6176)" >
                        <text font-size="2.67264" fill="#FFFFFF"  font-family="'OCRA'">A1</text>
                    </g>
                </g>
                <g >
                    <title >text:A2</title>
                    <g transform="matrix(1 0 0 1 51.5846 26.6176)" >
                        <text font-size="2.67264" fill="#FFFFFF"  font-family="'OCRA'">A2</text>
                    </g>
                </g>
                <g >
                    <title >element:C1</title>
                    <g >
                        <title >package:_0805MP</title>
                        <line x1="2.88" x2="5.76" stroke-width="0.576" fill="none"  stroke="#FFFFFF" stroke-linecap="round" y1="18.72" y2="18.72"/>
                    </g>
                </g>
                <g >
                    <title >element:FID1</title>
                    <g >
                        <title >package:FIDUCIAL_1MM</title>
                    </g>
                </g>
                <g >
                    <title >element:FID2</title>
                    <g >
                        <title >package:FIDUCIAL_1MM</title>
                    </g>
                </g>
                <g >
                    <title >element:IC1</title>
                    <g >
                        <title >package:MSOP8_0.65MM</title>
                        <line x1="33.052" x2="24.548" stroke-width="0.576" fill="none"  stroke="#FFFFFF" stroke-linecap="round" y1="13.748" y2="13.748"/>
                        <line x1="24.548" x2="33.052" stroke-width="0.576" fill="none"  stroke="#FFFFFF" stroke-linecap="round" y1="22.252" y2="22.252"/>
                        <circle stroke-width="1.728" r="0.425" fill="none"  stroke="#FFFFFF" cx="26.249" cy="11.764"/>
                    </g>
                </g>
                <g >
                    <title >element:JP2</title>
                    <g >
                        <title >package:1X08_ROUND_70</title>
                    </g>
                </g>
                <g >
                    <title >element:R1</title>
                    <g >
                        <title >package:0805-NO</title>
                        <line x1="11.52" x2="8.64" stroke-width="0.864" fill="none"  stroke="#FFFFFF" stroke-linecap="round" y1="18.72" y2="18.72"/>
                    </g>
                </g>
                <g >
                    <title >element:R2</title>
                    <g >
                        <title >package:0805-NO</title>
                        <line x1="17.28" x2="14.4" stroke-width="0.864" fill="none"  stroke="#FFFFFF" stroke-linecap="round" y1="18.72" y2="18.72"/>
                    </g>
                </g>
                <g >
                    <title >element:R3</title>
                    <g >
                        <title >package:0805-NO</title>
                        <line x1="43.2" x2="40.32" stroke-width="0.864" fill="none"  stroke="#FFFFFF" stroke-linecap="round" y1="18.72" y2="18.72"/>
                    </g>
                </g>
                <g >
                    <title >element:R4</title>
                    <g >
                        <title >package:0805-NO</title>
                        <line x1="48.96" x2="46.08" stroke-width="0.864" fill="none"  stroke="#FFFFFF" stroke-linecap="round" y1="18.72" y2="18.72"/>
                    </g>
                </g>
                <g >
                    <title >element:R5</title>
                    <g >
                        <title >package:0805-NO</title>
                        <line x1="54.72" x2="51.84" stroke-width="0.864" fill="none"  stroke="#FFFFFF" stroke-linecap="round" y1="18.72" y2="18.72"/>
                    </g>
                </g>
                <g >
                    <title >element:U$3</title>
                    <g >
                        <title >package:MOUNTINGHOLE_2.5_PLATED</title>
                        <circle stroke-width="0.576" r="5.669" fill="none"  stroke="#FFFFFF" cx="7.2" cy="7.2"/>
                    </g>
                </g>
                <g >
                    <title >element:U$4</title>
                    <g >
                        <title >package:ADAFRUIT_2.5MM</title>
                    </g>
                </g>
                <g >
                    <title >element:U$5</title>
                    <g >
                        <title >package:MOUNTINGHOLE_2.5_PLATED</title>
                        <circle stroke-width="0.576" r="5.669" fill="none"  stroke="#FFFFFF" cx="50.4" cy="7.2"/>
                    </g>
                </g>
            </g>
            <g transform="matrix(0, -1, 1, 0, -17.28, 25.92)" >
                <g >
                    <g transform="matrix(-2.535182e-06 -1 1 -2.535182e-06 -17.2799 25.92)" >
                        <rect gorn="0.1.0.2.0.0.0" width="3.685" fill="#9A916C"  id="connector5pin" x="2.477" y="19.899" height="3.402"/>
                    </g>
                </g>
            </g>
            <g transform="matrix(0, -1, 1, 0, -11.52, 20.16)" >
                <g >
                    <g transform="matrix(-2.535182e-06 -1 1 -2.535182e-06 -11.5199 20.16)" >
                        <rect gorn="0.1.0.3.0.0.0" width="3.685" fill="#9A916C"  id="connector6pin" x="2.477" y="14.139" height="3.402"/>
                    </g>
                </g>
            </g>
            <path gorn="0.1.0.4" fill="#9A916C"  d="M15.84,8.303L15.84,8.303c0.783,0,1.417,0.635,1.417,1.417v0c0,0.783-0.635,1.417-1.417,1.417h0c-0.783,0-1.417-0.635-1.417-1.417v0C14.423,8.937,15.057,8.303,15.84,8.303z" id="connector7pin"/>
            <path gorn="0.1.0.5" fill="#9A916C"  d="M50.4,32.423L50.4,32.423c0.783,0,1.417,0.635,1.417,1.417v0c0,0.783-0.635,1.417-1.417,1.417h0c-0.783,0-1.417-0.635-1.417-1.417v0C48.983,33.057,49.617,32.423,50.4,32.423z" id="connector8pin"/>
            <rect gorn="0.1.0.6" width="3.969" fill="#9A916C"  id="connector9pin" x="20.58" y="14.669" height="1.134"/>
            <rect gorn="0.1.0.7" width="3.969" fill="#9A916C"  id="connector10pin" x="20.58" y="16.512" height="1.134"/>
            <rect gorn="0.1.0.8" width="3.969" fill="#9A916C"  id="connector11pin" x="20.58" y="18.354" height="1.134"/>
            <rect gorn="0.1.0.9" width="3.969" fill="#9A916C"  id="connector12pin" x="20.58" y="20.197" height="1.134"/>
            <rect gorn="0.1.0.10" width="3.968" fill="#9A916C"  id="connector13pin" x="33.052" y="20.197" height="1.134"/>
            <rect gorn="0.1.0.11" width="3.968" fill="#9A916C"  id="connector14pin" x="33.052" y="18.354" height="1.134"/>
            <rect gorn="0.1.0.12" width="3.968" fill="#9A916C"  id="connector15pin" x="33.052" y="16.512" height="1.134"/>
            <rect gorn="0.1.0.13" width="3.968" fill="#9A916C"  id="connector16pin" x="33.052" y="14.669" height="1.134"/>
            <circle stroke-width="1.1027" gorn="0.1.0.14" r="1.969" fill="none"  id="connector17pin" stroke="#9A916C" cx="3.6" cy="29.52"/>
            <circle stroke-width="1.1027" gorn="0.1.0.15" r="1.969" fill="none"  id="connector18pin" stroke="#9A916C" cx="10.8" cy="29.52"/>
            <circle stroke-width="1.1027" gorn="0.1.0.16" r="1.969" fill="none"  id="connector19pin" stroke="#9A916C" cx="18" cy="29.52"/>
            <circle stroke-width="1.1027" gorn="0.1.0.17" r="1.969" fill="none"  id="connector20pin" stroke="#9A916C" cx="25.2" cy="29.52"/>
            <circle stroke-width="1.1027" gorn="0.1.0.18" r="1.969" fill="none"  id="connector21pin" stroke="#9A916C" cx="32.4" cy="29.52"/>
            <circle stroke-width="1.1027" gorn="0.1.0.19" r="1.969" fill="none"  id="connector22pin" stroke="#9A916C" cx="39.6" cy="29.52"/>
            <circle stroke-width="1.1027" gorn="0.1.0.20" r="1.969" fill="none"  id="connector23pin" stroke="#9A916C" cx="46.8" cy="29.52"/>
            <circle stroke-width="1.1027" gorn="0.1.0.21" r="1.969" fill="none"  id="connector24pin" stroke="#9A916C" cx="54" cy="29.52"/>
            <g transform="matrix(0, 1, -1, 0, 26.1071, 5.94708)" >
                <g >
                    <g transform="matrix(2.535182e-06 1 -1 2.535182e-06 26.107 5.9471)" >
                        <rect gorn="0.1.0.22.0.0.0" width="4.252" fill="#9A916C"  id="connector25pin" x="7.954" y="14.185" height="3.685"/>
                    </g>
                </g>
            </g>
            <g transform="matrix(0, 1, -1, 0, 31.4929, 11.3329)" >
                <g >
                    <g transform="matrix(2.535182e-06 1 -1 2.535182e-06 31.4928 11.3329)" >
                        <rect gorn="0.1.0.23.0.0.0" width="4.252" fill="#9A916C"  id="connector26pin" x="7.954" y="19.57" height="3.685"/>
                    </g>
                </g>
            </g>
            <g transform="matrix(0, 1, -1, 0, 31.8671, 0.187087)" >
                <g >
                    <g transform="matrix(2.535182e-06 1 -1 2.535182e-06 31.867 0.1871)" >
                        <rect gorn="0.1.0.24.0.0.0" width="4.252" fill="#9A916C"  id="connector27pin" x="13.714" y="14.185" height="3.685"/>
                    </g>
                </g>
            </g>
            <g transform="matrix(0, 1, -1, 0, 37.2529, 5.57292)" >
                <g >
                    <g transform="matrix(2.535182e-06 1 -1 2.535182e-06 37.2528 5.5729)" >
                        <rect gorn="0.1.0.25.0.0.0" width="4.252" fill="#9A916C"  id="connector28pin" x="13.714" y="19.57" height="3.685"/>
                    </g>
                </g>
            </g>
            <g transform="matrix(0, 1, -1, 0, 57.7871, -25.7329)" >
                <g >
                    <g transform="matrix(2.535182e-06 1 -1 2.535182e-06 57.7869 -25.7329)" >
                        <rect gorn="0.1.0.26.0.0.0" width="4.252" fill="#9A916C"  id="connector29pin" x="39.634" y="14.185" height="3.685"/>
                    </g>
                </g>
            </g>
            <g transform="matrix(0, 1, -1, 0, 63.1729, -20.3471)" >
                <g >
                    <g transform="matrix(2.535182e-06 1 -1 2.535182e-06 63.1727 -20.3471)" >
                        <rect gorn="0.1.0.27.0.0.0" width="4.252" fill="#9A916C"  id="connector30pin" x="39.634" y="19.57" height="3.685"/>
                    </g>
                </g>
            </g>
            <g transform="matrix(0, 1, -1, 0, 63.5471, -31.4929)" >
                <g >
                    <g transform="matrix(2.535182e-06 1 -1 2.535182e-06 63.5469 -31.4929)" >
                        <rect gorn="0.1.0.28.0.0.0" width="4.252" fill="#9A916C"  id="connector31pin" x="45.394" y="14.185" height="3.685"/>
                    </g>
                </g>
            </g>
            <g transform="matrix(0, 1, -1, 0, 68.9329, -26.1071)" >
                <g >
                    <g transform="matrix(2.535182e-06 1 -1 2.535182e-06 68.9327 -26.1071)" >
                        <rect gorn="0.1.0.29.0.0.0" width="4.252" fill="#9A916C"  id="connector32pin" x="45.394" y="19.57" height="3.685"/>
                    </g>
                </g>
            </g>
            <g transform="matrix(0, 1, -1, 0, 69.3071, -37.2529)" >
                <g >
                    <g transform="matrix(2.535182e-06 1 -1 2.535182e-06 69.3069 -37.2529)" >
                        <rect gorn="0.1.0.30.0.0.0" width="4.252" fill="#9A916C"  id="connector33pin" x="51.154" y="14.185" height="3.685"/>
                    </g>
                </g>
            </g>
            <g transform="matrix(0, 1, -1, 0, 74.6928, -31.8671)" >
                <g >
                    <g transform="matrix(2.535182e-06 1 -1 2.535182e-06 74.6927 -31.8671)" >
                        <rect gorn="0.1.0.31.0.0.0" width="4.252" fill="#9A916C"  id="connector34pin" x="51.154" y="19.57" height="3.685"/>
                    </g>
                </g>
            </g>
            <circle stroke-width="1.44" gorn="0.1.0.32" r="4.263" fill="none"  id="connector35pin" stroke="#9A916C" cx="7.2" cy="7.2"/>
            <circle stroke-width="1.44" gorn="0.1.0.33" r="4.263" fill="none"  id="connector36pin" stroke="#9A916C" cx="50.4" cy="7.2"/>
        </g>
        <g transform="matrix(1, 0, 0, 1, 1.4855, 16.9485)" >
            <g gorn="0.1.1.0"  id="_x30_805-cap">
                <g transform="matrix(0, -1, 1, 0, 1.063, 4.606)" >
                    <g >
                        <path fill="#DCDCDC"  d="M5.386,3.543H0.283C0.127,3.543,0,3.416,0,3.26V0.283C0,0.127,0.127,0,0.283,0h5.102c0.157,0,0.283,0.127,0.283,0.283V3.26C5.669,3.416,5.542,3.543,5.386,3.543z"/>
                        <g transform="matrix(-2.535182e-06 -1 1 -2.535182e-06 1.063 4.606)" >
                            <rect width="3.543" fill="#6E554B"  x="1.063" y="0" height="3.543"/>
                        </g>
                    </g>
                </g>
            </g>
        </g>
        <g transform="matrix(1, 0, 0, 1, 24.548, 9.56225)" >
            <g gorn="0.1.2.0"  id="msop8_0.65mm">
                <g transform="matrix(0, 1, -1, 0, 11.197, 2.69302)" >
                    <g >
                        <g transform="matrix(2.535182e-06 1 -1 2.535182e-06 9.9367 3.9532)" >
                            <rect width="13.89" fill="#DCDCDC"  x="-3.953" y="6.52" height="0.85"/>
                        </g>
                        <g transform="matrix(2.535182e-06 1 -1 2.535182e-06 11.7787 2.1112)" >
                            <rect width="13.89" fill="#DCDCDC"  x="-2.111" y="6.52" height="0.85"/>
                        </g>
                        <g transform="matrix(2.535182e-06 1 -1 2.535182e-06 13.6217 0.2682)" >
                            <rect width="13.89" fill="#DCDCDC"  x="-0.268" y="6.52" height="0.85"/>
                        </g>
                        <g transform="matrix(2.535182e-06 1 -1 2.535182e-06 15.4637 -1.5738)" >
                            <rect width="13.89" fill="#DCDCDC"  x="1.574" y="6.52" height="0.85"/>
                        </g>
                        <path fill="#333333"  d="M9.997,3.229v7.37c0,0.313-0.254,0.567-0.567,0.567H2.06c-0.313,0-0.567-0.254-0.567-0.567v-7.37c0-0.313,0.254-0.567,0.567-0.567h7.37C9.743,2.662,9.997,2.916,9.997,3.229z"/>
                        <circle r="0.709"  cx="2.91" cy="9.748"/>
                    </g>
                </g>
            </g>
        </g>
        <g transform="matrix(1, 0, 0, 1, 7.2455, 16.9485)" >
            <g gorn="0.1.3.0"  id="_x30_805-res">
                <g transform="matrix(0, 1, -1, 0, 4.606, -1.063)" >
                    <g >
                        <path fill="#DCDCDC"  d="M5.386,3.543H0.283C0.127,3.543,0,3.416,0,3.26V0.283C0,0.127,0.127,0,0.283,0h5.102c0.157,0,0.283,0.127,0.283,0.283V3.26C5.669,3.416,5.542,3.543,5.386,3.543z"/>
                        <g transform="matrix(2.535182e-06 1 -1 2.535182e-06 4.606 -1.063)" >
                            <rect width="3.543" fill="#333333"  x="1.063" y="0" height="3.543"/>
                        </g>
                    </g>
                </g>
            </g>
        </g>
        <g transform="matrix(1, 0, 0, 1, 13.0055, 16.9485)" >
            <g gorn="0.1.4.0"  id="_x30_805-res_1_">
                <g transform="matrix(0, 1, -1, 0, 4.606, -1.063)" >
                    <g >
                        <path fill="#DCDCDC"  d="M5.386,3.543H0.283C0.127,3.543,0,3.416,0,3.26V0.283C0,0.127,0.127,0,0.283,0h5.102c0.157,0,0.283,0.127,0.283,0.283V3.26C5.669,3.416,5.542,3.543,5.386,3.543z"/>
                        <g transform="matrix(2.535182e-06 1 -1 2.535182e-06 4.606 -1.063)" >
                            <rect width="3.543" fill="#333333"  x="1.063" y="0" height="3.543"/>
                        </g>
                    </g>
                </g>
            </g>
        </g>
        <g transform="matrix(1, 0, 0, 1, 38.9255, 16.9485)" >
            <g gorn="0.1.5.0"  id="_x30_805-res_2_">
                <g transform="matrix(0, 1, -1, 0, 4.606, -1.063)" >
                    <g >
                        <path fill="#DCDCDC"  d="M5.386,3.543H0.283C0.127,3.543,0,3.416,0,3.26V0.283C0,0.127,0.127,0,0.283,0h5.102c0.157,0,0.283,0.127,0.283,0.283V3.26C5.669,3.416,5.542,3.543,5.386,3.543z"/>
                        <g transform="matrix(2.535182e-06 1 -1 2.535182e-06 4.606 -1.063)" >
                            <rect width="3.543" fill="#333333"  x="1.063" y="0" height="3.543"/>
                        </g>
                    </g>
                </g>
            </g>
        </g>
        <g transform="matrix(1, 0, 0, 1, 44.6855, 16.9485)" >
            <g gorn="0.1.6.0"  id="_x30_805-res_3_">
                <g transform="matrix(0, 1, -1, 0, 4.606, -1.063)" >
                    <g >
                        <path fill="#DCDCDC"  d="M5.386,3.543H0.283C0.127,3.543,0,3.416,0,3.26V0.283C0,0.127,0.127,0,0.283,0h5.102c0.157,0,0.283,0.127,0.283,0.283V3.26C5.669,3.416,5.542,3.543,5.386,3.543z"/>
                        <g transform="matrix(2.535182e-06 1 -1 2.535182e-06 4.606 -1.063)" >
                            <rect width="3.543" fill="#333333"  x="1.063" y="0" height="3.543"/>
                        </g>
                    </g>
                </g>
            </g>
        </g>
        <g transform="matrix(1, 0, 0, 1, 50.4455, 16.9485)" >
            <g gorn="0.1.7.0"  id="_x30_805-res_4_">
                <g transform="matrix(0, 1, -1, 0, 4.606, -1.063)" >
                    <g >
                        <path fill="#DCDCDC"  d="M5.386,3.543H0.283C0.127,3.543,0,3.416,0,3.26V0.283C0,0.127,0.127,0,0.283,0h5.102c0.157,0,0.283,0.127,0.283,0.283V3.26C5.669,3.416,5.542,3.543,5.386,3.543z"/>
                        <g transform="matrix(2.535182e-06 1 -1 2.535182e-06 4.606 -1.063)" >
                            <rect width="3.543" fill="#333333"  x="1.063" y="0" height="3.543"/>
                        </g>
                    </g>
                </g>
            </g>
        </g>
        <g transform="matrix(1, 0, 0, 1, 10.8048, 0.663566)" >
            <g gorn="0.1.8.0"  id="adafruit_2.5mm">
                <path fill="#DCDCDC"  d="M9.747,3.082c-0.023-0.142-0.1-0.183-0.286-0.243C9.319,2.794,8.372,2.492,8.372,2.492s-0.66-0.249-1.15,0.103c-0.066,0.048-0.134,0.102-0.203,0.16c0.058-0.069,0.112-0.137,0.159-0.203c0.352-0.49,0.101-1.15,0.101-1.15S6.976,0.455,6.93,0.313C6.87,0.127,6.83,0.05,6.687,0.028C6.545,0.005,6.483,0.066,6.369,0.225c-0.087,0.12-0.667,0.928-0.667,0.928S5.261,1.704,5.445,2.279C5.47,2.356,5.5,2.438,5.534,2.521C5.486,2.445,5.438,2.372,5.39,2.307C5.032,1.821,4.328,1.855,4.328,1.855S3.333,1.851,3.185,1.851c-0.195,0-0.281,0.014-0.347,0.143C2.773,2.122,2.811,2.2,2.927,2.358c0.088,0.12,0.677,0.921,0.677,0.921s0.388,0.59,0.991,0.592c0.081,0,0.168-0.003,0.257-0.01C4.765,3.883,4.681,3.907,4.604,3.932c-0.573,0.19-0.758,0.871-0.758,0.871s-0.31,0.944-0.357,1.085C3.428,6.074,3.416,6.16,3.518,6.262C3.62,6.364,3.706,6.352,3.892,6.29c0.141-0.046,1.085-0.359,1.085-0.359s0.681-0.187,0.869-0.76c0.025-0.077,0.049-0.16,0.07-0.247C5.91,5.014,5.907,5.1,5.907,5.181c0.004,0.603,0.594,0.99,0.594,0.99s0.802,0.588,0.922,0.675C7.581,6.962,7.659,7,7.788,6.935C7.916,6.869,7.931,6.783,7.93,6.588C7.929,6.439,7.924,5.445,7.924,5.445S7.957,4.74,7.47,4.383C7.405,4.335,7.332,4.287,7.256,4.24c0.083,0.034,0.165,0.064,0.242,0.088c0.575,0.183,1.125-0.259,1.125-0.259S9.43,3.488,9.55,3.401C9.709,3.286,9.769,3.224,9.747,3.082z M6.322,2.35c0.108,0.017,0.162,0.248,0.12,0.515C6.4,3.132,6.278,3.335,6.169,3.318C6.061,3.301,6.007,3.07,6.049,2.803C6.091,2.535,6.213,2.332,6.322,2.35z M4.933,3.059c0.05-0.098,0.286-0.078,0.527,0.045s0.397,0.302,0.347,0.399C5.757,3.601,5.521,3.581,5.28,3.458C5.038,3.335,4.883,3.157,4.933,3.059z M5.665,4.393C5.474,4.584,5.256,4.677,5.178,4.599C5.101,4.521,5.193,4.303,5.384,4.112C5.575,3.92,5.793,3.827,5.871,3.905C5.949,3.983,5.857,4.201,5.665,4.393z M6.719,4.842c-0.098,0.05-0.277-0.105-0.4-0.346C6.196,4.254,6.175,4.018,6.273,3.968c0.098-0.05,0.277,0.105,0.4,0.346C6.796,4.556,6.817,4.792,6.719,4.842z M6.973,3.725C6.706,3.767,6.475,3.714,6.457,3.606C6.44,3.497,6.643,3.375,6.91,3.332c0.267-0.043,0.498,0.011,0.515,0.119C7.443,3.56,7.24,3.682,6.973,3.725z"/>
            </g>
        </g>
    </g>
</svg>
