<?xml version='1.0' encoding='utf-8'?>
<!-- Generator: Adobe Illustrator 20.0.0, SVG Export Plug-In . SVG Version: 6.00 Build 0)  -->
<svg xmlns="http://www.w3.org/2000/svg" height="0.6in" viewBox="0 0 50.4 43.2" id="Layer_1" xmlns:xml="http://www.w3.org/XML/1998/namespace" y="0px" baseProfile="tiny"  x="0px" width="0.7in" gorn="0" xml:space="preserve" version="1.2">
    <desc >
        <referenceFile >Adafruit HDC1008 Temperature Humidity Sensor_breadboard.svg</referenceFile>
    </desc>
    <desc >Fritzing breadboard generated by brd2svg</desc>
    <g id="breadboard"  gorn="0.2">
        <g id="icon"  gorn="0.2.0">
            <path  d="M50.4,7.2V36c0,3.976-3.224,7.2-7.2,7.2c0,0,0,0,0,0h-36C3.224,43.2,0,39.976,0,36c0,0,0,0,0,0V7.2C0,3.224,3.224,0,7.2,0c0,0,0,0,0,0h36C47.176,0,50.4,3.224,50.4,7.2C50.4,7.2,50.4,7.2,50.4,7.2 M45.383,36.72c0,0.783,0.635,1.417,1.417,1.417c0.783,0,1.417-0.635,1.417-1.417s-0.635-1.417-1.417-1.417S45.383,35.937,45.383,36.72z M38.183,36.72c0,0.783,0.635,1.417,1.417,1.417s1.417-0.635,1.417-1.417s-0.635-1.417-1.417-1.417S38.183,35.937,38.183,36.72z M30.983,36.72c0,0.783,0.635,1.417,1.417,1.417c0.783,0,1.417-0.635,1.417-1.417s-0.635-1.417-1.417-1.417C31.617,35.303,30.983,35.937,30.983,36.72z M23.783,36.72c0,0.783,0.635,1.417,1.417,1.417c0.783,0,1.417-0.635,1.417-1.417s-0.635-1.417-1.417-1.417C24.417,35.303,23.783,35.937,23.783,36.72z M16.583,36.72c0,0.783,0.635,1.417,1.417,1.417c0.783,0,1.417-0.635,1.417-1.417S18.783,35.303,18,35.303C17.217,35.303,16.583,35.937,16.583,36.72z M9.383,36.72c0,0.783,0.635,1.417,1.417,1.417s1.417-0.635,1.417-1.417s-0.635-1.417-1.417-1.417S9.383,35.937,9.383,36.72z M2.183,36.72c0,0.783,0.635,1.417,1.417,1.417s1.417-0.635,1.417-1.417S4.383,35.303,3.6,35.303S2.183,35.937,2.183,36.72z M3.657,7.2c-0.003,1.957,1.58,3.546,3.537,3.549s3.546-1.58,3.549-3.537c0-0.004,0-0.008,0-0.012c0.003-1.957-1.58-3.546-3.537-3.549C5.249,3.647,3.66,5.231,3.657,7.188C3.657,7.192,3.657,7.196,3.657,7.2z M39.657,7.2c-0.003,1.957,1.58,3.546,3.537,3.55s3.546-1.58,3.55-3.537c0-0.004,0-0.008,0-0.012c0.003-1.957-1.58-3.546-3.537-3.55c-1.957-0.003-3.546,1.58-3.55,3.537C39.657,7.192,39.657,7.196,39.657,7.2z" fill="#014CB1"/>
            <g >
                <title >layer 21</title>
                <g >
                    <title >text:HDC100x
Humidity
&amp;Temp</title>
                    <g transform="matrix(1, 0, 0, 1, 0, -3.7584)" >
                        <g >
                            <g >
                                <g transform="matrix(1 0 0 1 16.0495 9.4392)" >
                                    <g >
                                        <text font-family="'OCRA'" font-size="3.00672"  fill="#FFFFFF">HDC100x</text>
                                    </g>
                                </g>
                            </g>
                        </g>
                    </g>
                    <g transform="translate(0,0)" >
                        <g >
                            <g >
                                <g transform="matrix(1 0 0 1 14.6908 9.4392)" >
                                    <g >
                                        <text font-family="'OCRA'" font-size="3.00672"  fill="#FFFFFF">Humidity</text>
                                    </g>
                                </g>
                            </g>
                        </g>
                    </g>
                    <g transform="matrix(1, 0, 0, 1, 0, 3.7584)" >
                        <g >
                            <g >
                                <g transform="matrix(1 0 0 1 18.7668 9.4392)" >
                                    <g >
                                        <text font-family="'OCRA'" font-size="3.00672"  fill="#FFFFFF">&amp;Temp</text>
                                    </g>
                                </g>
                            </g>
                        </g>
                    </g>
                </g>
                <g >
                    <title >text:Vin</title>
                    <g transform="matrix(1 0 0 1 43.1769 33.6511)" >
                        <g >
                            <text font-family="'OCRA'" font-size="2.67264"  fill="#FFFFFF">Vin</text>
                        </g>
                    </g>
                </g>
                <g >
                    <title >text:GND</title>
                    <g transform="matrix(1 0 0 1 35.9769 42.7104)" >
                        <g >
                            <text font-family="'OCRA'" font-size="2.67264"  fill="#FFFFFF">GND</text>
                        </g>
                    </g>
                </g>
                <g >
                    <title >text:SCL</title>
                    <g transform="matrix(1 0 0 1 28.7769 33.6511)" >
                        <g >
                            <text font-family="'OCRA'" font-size="2.67264"  fill="#FFFFFF">SCL</text>
                        </g>
                    </g>
                </g>
                <g >
                    <title >text:SDA</title>
                    <g transform="matrix(1 0 0 1 21.5769 42.7104)" >
                        <g >
                            <text font-family="'OCRA'" font-size="2.67264"  fill="#FFFFFF">SDA</text>
                        </g>
                    </g>
                </g>
                <g >
                    <title >text:Rdy</title>
                    <g transform="matrix(1 0 0 1 14.377 33.6511)" >
                        <g >
                            <text font-family="'OCRA'" font-size="2.67264"  fill="#FFFFFF">Rdy</text>
                        </g>
                    </g>
                </g>
                <g >
                    <title >text:A1</title>
                    <g transform="matrix(1 0 0 1 9.1046 42.7104)" >
                        <g >
                            <text font-family="'OCRA'" font-size="2.67264"  fill="#FFFFFF">A1</text>
                        </g>
                    </g>
                </g>
                <g >
                    <title >text:A0</title>
                    <g transform="matrix(1 0 0 1 1.1846 33.6511)" >
                        <g >
                            <text font-family="'OCRA'" font-size="2.67264"  fill="#FFFFFF">A0</text>
                        </g>
                    </g>
                </g>
                <g >
                    <title >element:C1</title>
                    <g >
                        <title >package:0805-NO</title>
                        <line x2="43.2" stroke="#FFFFFF" x1="46.08" stroke-linecap="round"  y1="20.88" stroke-width="0.864" fill="none" y2="20.88"/>
                    </g>
                </g>
                <g >
                    <title >element:FID1</title>
                    <g >
                        <title >package:FIDUCIAL_1MM</title>
                    </g>
                </g>
                <g >
                    <title >element:FID2</title>
                    <g >
                        <title >package:FIDUCIAL_1MM</title>
                    </g>
                </g>
                <g >
                    <title >element:JP1</title>
                    <g >
                        <title >package:1X07_ROUND_70</title>
                    </g>
                </g>
                <g >
                    <title >element:R1</title>
                    <g >
                        <title >package:0805-NO</title>
                        <line x2="40.32" stroke="#FFFFFF" x1="37.44" stroke-linecap="round"  y1="20.88" stroke-width="0.864" fill="none" y2="20.88"/>
                    </g>
                </g>
                <g >
                    <title >element:R2</title>
                    <g >
                        <title >package:_0805MP</title>
                        <line x2="34.56" stroke="#FFFFFF" x1="31.68" stroke-linecap="round"  y1="20.88" stroke-width="0.576" fill="none" y2="20.88"/>
                    </g>
                </g>
                <g >
                    <title >element:R3</title>
                    <g >
                        <title >package:0805-NO</title>
                        <line x2="19.08" stroke="#FFFFFF" x1="16.2" stroke-linecap="round"  y1="20.88" stroke-width="0.864" fill="none" y2="20.88"/>
                    </g>
                </g>
                <g >
                    <title >element:R4</title>
                    <g >
                        <title >package:0805-NO</title>
                        <line x2="12.24" stroke="#FFFFFF" x1="9.36" stroke-linecap="round"  y1="20.88" stroke-width="0.864" fill="none" y2="20.88"/>
                    </g>
                </g>
                <g >
                    <title >element:R5</title>
                    <g >
                        <title >package:0805-NO</title>
                        <line x2="6.48" stroke="#FFFFFF" x1="3.6" stroke-linecap="round"  y1="20.88" stroke-width="0.864" fill="none" y2="20.88"/>
                    </g>
                </g>
                <g >
                    <title >element:U$2</title>
                    <g >
                        <title >package:MOUNTINGHOLE_2.5_PLATED</title>
                        <circle stroke="#FFFFFF" cy="7.2"  r="5.669" stroke-width="0.576" fill="none" cx="7.2"/>
                    </g>
                </g>
                <g >
                    <title >element:U$3</title>
                    <g >
                        <title >package:MOUNTINGHOLE_2.5_PLATED</title>
                        <circle stroke="#FFFFFF" cy="7.2"  r="5.669" stroke-width="0.576" fill="none" cx="43.2"/>
                    </g>
                </g>
                <g >
                    <title >element:U$14</title>
                    <g >
                        <title >package:ADAFRUIT_3.5MM</title>
                    </g>
                </g>
                <g >
                    <title >element:U1</title>
                    <g >
                        <title >package:DSBGA8_HDC1008</title>
                        <line x2="22.649" stroke="#FFFFFF" x1="27.751" stroke-linecap="round"  y1="23.278" stroke-width="0.1417" fill="none" y2="23.278"/>
                        <line x2="22.649" stroke="#FFFFFF" x1="22.649" stroke-linecap="round"  y1="23.278" stroke-width="0.1417" fill="none" y2="17.042"/>
                        <line x2="27.751" stroke="#FFFFFF" x1="22.649" stroke-linecap="round"  y1="17.042" stroke-width="0.1417" fill="none" y2="17.042"/>
                        <line x2="27.751" stroke="#FFFFFF" x1="27.751" stroke-linecap="round"  y1="17.042" stroke-width="0.1417" fill="none" y2="23.278"/>
                        <circle stroke="#FFFFFF" cy="22.428"  r="0.401" stroke-width="0.864" fill="none" cx="28.885"/>
                    </g>
                </g>
            </g>
            <g transform="matrix(0, 1, -1, 0, 62.8271, -26.4529)" >
                <g >
                    <g >
                        <g transform="matrix(2.535182e-06 1 -1 2.535182e-06 62.8269 -26.4529)" >
                            <g >
                                <rect height="3.685" id="connector0pin" y="16.345"  x="42.514" width="4.252" fill="#9A916C" gorn="0.2.0.2.0.0.0.0.0"/>
                            </g>
                        </g>
                    </g>
                </g>
            </g>
            <g transform="matrix(0, 1, -1, 0, 68.2129, -21.0671)" >
                <g >
                    <g >
                        <g transform="matrix(2.535182e-06 1 -1 2.535182e-06 68.2127 -21.0671)" >
                            <g >
                                <rect height="3.685" id="connector1pin" y="21.73"  x="42.514" width="4.252" fill="#9A916C" gorn="0.2.0.3.0.0.0.0.0"/>
                            </g>
                        </g>
                    </g>
                </g>
            </g>
            <path id="connector2pin"  d="M10.44,28.463L10.44,28.463c0.783,0,1.417,0.635,1.417,1.417v0c0,0.783-0.635,1.417-1.417,1.417h0c-0.783,0-1.417-0.635-1.417-1.417v0C9.023,29.097,9.657,28.463,10.44,28.463z" fill="#9A916C" gorn="0.2.0.4"/>
            <path id="connector3pin"  d="M36,11.543L36,11.543c0.783,0,1.417,0.635,1.417,1.417v0c0,0.783-0.635,1.417-1.417,1.417h0c-0.783,0-1.417-0.635-1.417-1.417v0C34.583,12.177,35.217,11.543,36,11.543z" fill="#9A916C" gorn="0.2.0.5"/>
            <circle id="connector4pin" stroke="#9A916C" cy="36.72"  r="1.969" stroke-width="1.1027" fill="none" cx="46.8" gorn="0.2.0.6"/>
            <circle id="connector5pin" stroke="#9A916C" cy="36.72"  r="1.969" stroke-width="1.1027" fill="none" cx="39.6" gorn="0.2.0.7"/>
            <circle id="connector6pin" stroke="#9A916C" cy="36.72"  r="1.969" stroke-width="1.1027" fill="none" cx="32.4" gorn="0.2.0.8"/>
            <circle id="connector7pin" stroke="#9A916C" cy="36.72"  r="1.969" stroke-width="1.1027" fill="none" cx="25.2" gorn="0.2.0.9"/>
            <circle id="connector8pin" stroke="#9A916C" cy="36.72"  r="1.969" stroke-width="1.1027" fill="none" cx="18" gorn="0.2.0.10"/>
            <circle id="connector9pin" stroke="#9A916C" cy="36.72"  r="1.969" stroke-width="1.1027" fill="none" cx="10.8" gorn="0.2.0.11"/>
            <circle id="connector10pin" stroke="#9A916C" cy="36.72"  r="1.969" stroke-width="1.1027" fill="none" cx="3.6" gorn="0.2.0.12"/>
            <g transform="matrix(0, -1, 1, 0, 15.3071, 62.4529)" >
                <g >
                    <g >
                        <g transform="matrix(-2.535182e-06 -1 1 -2.535182e-06 15.3071 62.4529)" >
                            <g >
                                <rect height="3.685" id="connector11pin" y="21.73"  x="36.754" width="4.252" fill="#9A916C" gorn="0.2.0.13.0.0.0.0.0"/>
                            </g>
                        </g>
                    </g>
                </g>
            </g>
            <g transform="matrix(0, -1, 1, 0, 20.6929, 57.0671)" >
                <g >
                    <g >
                        <g transform="matrix(-2.535182e-06 -1 1 -2.535182e-06 20.6929 57.067)" >
                            <g >
                                <rect height="3.685" id="connector12pin" y="16.345"  x="36.754" width="4.252" fill="#9A916C" gorn="0.2.0.14.0.0.0.0.0"/>
                            </g>
                        </g>
                    </g>
                </g>
            </g>
            <g transform="matrix(0, -1, 1, 0, 9.36, 56.88)" >
                <g >
                    <g >
                        <g transform="matrix(-2.535182e-06 -1 1 -2.535182e-06 9.3602 56.88)" >
                            <g >
                                <rect height="3.402" id="connector13pin" y="22.059"  x="31.277" width="3.685" fill="#9A916C" gorn="0.2.0.15.0.0.0.0.0"/>
                            </g>
                        </g>
                    </g>
                </g>
            </g>
            <g transform="matrix(0, -1, 1, 0, 15.12, 51.12)" >
                <g >
                    <g >
                        <g transform="matrix(-2.535182e-06 -1 1 -2.535182e-06 15.1202 51.12)" >
                            <g >
                                <rect height="3.402" id="connector14pin" y="16.299"  x="31.277" width="3.685" fill="#9A916C" gorn="0.2.0.16.0.0.0.0.0"/>
                            </g>
                        </g>
                    </g>
                </g>
            </g>
            <g transform="matrix(0, -1, 1, 0, -5.93292, 41.2129)" >
                <g >
                    <g >
                        <g transform="matrix(-2.535182e-06 -1 1 -2.535182e-06 -5.9329 41.2129)" >
                            <g >
                                <rect height="3.685" id="connector15pin" y="21.73"  x="15.514" width="4.252" fill="#9A916C" gorn="0.2.0.17.0.0.0.0.0"/>
                            </g>
                        </g>
                    </g>
                </g>
            </g>
            <g transform="matrix(0, -1, 1, 0, -0.547087, 35.8271)" >
                <g >
                    <g >
                        <g transform="matrix(-2.535182e-06 -1 1 -2.535182e-06 -0.5471 35.827)" >
                            <g >
                                <rect height="3.685" id="connector16pin" y="16.345"  x="15.514" width="4.252" fill="#9A916C" gorn="0.2.0.18.0.0.0.0.0"/>
                            </g>
                        </g>
                    </g>
                </g>
            </g>
            <g transform="matrix(0, -1, 1, 0, -12.7729, 34.3729)" >
                <g >
                    <g >
                        <g transform="matrix(-2.535182e-06 -1 1 -2.535182e-06 -12.7729 34.3729)" >
                            <g >
                                <rect height="3.685" id="connector17pin" y="21.73"  x="8.674" width="4.252" fill="#9A916C" gorn="0.2.0.19.0.0.0.0.0"/>
                            </g>
                        </g>
                    </g>
                </g>
            </g>
            <g transform="matrix(0, -1, 1, 0, -7.38706, 28.9871)" >
                <g >
                    <g >
                        <g transform="matrix(-2.535182e-06 -1 1 -2.535182e-06 -7.3871 28.9871)" >
                            <g >
                                <rect height="3.685" id="connector18pin" y="16.345"  x="8.674" width="4.252" fill="#9A916C" gorn="0.2.0.20.0.0.0.0.0"/>
                            </g>
                        </g>
                    </g>
                </g>
            </g>
            <g transform="matrix(0, -1, 1, 0, -18.5329, 28.6129)" >
                <g >
                    <g >
                        <g transform="matrix(-2.535182e-06 -1 1 -2.535182e-06 -18.5329 28.6129)" >
                            <g >
                                <rect height="3.685" id="connector19pin" y="21.73"  x="2.914" width="4.252" fill="#9A916C" gorn="0.2.0.21.0.0.0.0.0"/>
                            </g>
                        </g>
                    </g>
                </g>
            </g>
            <g transform="matrix(0, -1, 1, 0, -13.1471, 23.2271)" >
                <g >
                    <g >
                        <g transform="matrix(-2.535182e-06 -1 1 -2.535182e-06 -13.1471 23.2271)" >
                            <g >
                                <rect height="3.685" id="connector20pin" y="16.345"  x="2.914" width="4.252" fill="#9A916C" gorn="0.2.0.22.0.0.0.0.0"/>
                            </g>
                        </g>
                    </g>
                </g>
            </g>
            <circle id="connector21pin" stroke="#9A916C" cy="7.2"  r="4.263" stroke-width="1.44" fill="none" cx="7.2" gorn="0.2.0.23"/>
            <circle id="connector22pin" stroke="#9A916C" cy="7.2"  r="4.263" stroke-width="1.44" fill="none" cx="43.2" gorn="0.2.0.24"/>
            <g transform="matrix(-1, 0, 0, -1, 53.2346, 44.572)" >
                <g >
                    <g >
                        <path id="connector23pin"  d="M26.617,21.913L26.617,21.913c0.206,0,0.373,0.167,0.373,0.373l0,0c0,0.206-0.167,0.373-0.373,0.373l0,0c-0.206,0-0.373-0.167-0.373-0.373l0,0C26.245,22.08,26.411,21.913,26.617,21.913z" fill="#9A916C" gorn="0.2.0.25.0.0.0"/>
                    </g>
                </g>
            </g>
            <g transform="matrix(-1, 0, 0, -1, 47.5654, 44.572)" >
                <g >
                    <g >
                        <path id="connector24pin"  d="M23.783,21.913L23.783,21.913c0.206,0,0.373,0.167,0.373,0.373l0,0c0,0.206-0.167,0.373-0.373,0.373l0,0c-0.206,0-0.373-0.167-0.373-0.373l0,0C23.41,22.08,23.577,21.913,23.783,21.913z" fill="#9A916C" gorn="0.2.0.26.0.0.0"/>
                    </g>
                </g>
            </g>
            <g transform="matrix(-1, 0, 0, -1, 53.2346, 41.7373)" >
                <g >
                    <g >
                        <path id="connector25pin"  d="M26.617,20.496L26.617,20.496c0.206,0,0.373,0.167,0.373,0.373l0,0c0,0.206-0.167,0.373-0.373,0.373l0,0c-0.206,0-0.373-0.167-0.373-0.373l0,0C26.245,20.663,26.411,20.496,26.617,20.496z" fill="#9A916C" gorn="0.2.0.27.0.0.0"/>
                    </g>
                </g>
            </g>
            <g transform="matrix(-1, 0, 0, -1, 47.5654, 41.7373)" >
                <g >
                    <g >
                        <path id="connector26pin"  d="M23.783,20.496L23.783,20.496c0.206,0,0.373,0.167,0.373,0.373l0,0c0,0.206-0.167,0.373-0.373,0.373l0,0c-0.206,0-0.373-0.167-0.373-0.373l0,0C23.41,20.663,23.577,20.496,23.783,20.496z" fill="#9A916C" gorn="0.2.0.28.0.0.0"/>
                    </g>
                </g>
            </g>
            <g transform="matrix(-1, 0, 0, -1, 53.2346, 38.9027)" >
                <g >
                    <g >
                        <path id="connector27pin"  d="M26.617,19.079L26.617,19.079c0.206,0,0.373,0.167,0.373,0.373l0,0c0,0.206-0.167,0.373-0.373,0.373l0,0c-0.206,0-0.373-0.167-0.373-0.373l0,0C26.245,19.245,26.411,19.079,26.617,19.079z" fill="#9A916C" gorn="0.2.0.29.0.0.0"/>
                    </g>
                </g>
            </g>
            <g transform="matrix(-1, 0, 0, -1, 47.5654, 38.9027)" >
                <g >
                    <g >
                        <path id="connector28pin"  d="M23.783,19.079L23.783,19.079c0.206,0,0.373,0.167,0.373,0.373l0,0c0,0.206-0.167,0.373-0.373,0.373l0,0c-0.206,0-0.373-0.167-0.373-0.373l0,0C23.41,19.245,23.577,19.079,23.783,19.079z" fill="#9A916C" gorn="0.2.0.30.0.0.0"/>
                    </g>
                </g>
            </g>
            <g transform="matrix(-1, 0, 0, -1, 53.2346, 36.068)" >
                <g >
                    <g >
                        <path id="connector29pin"  d="M26.617,17.661L26.617,17.661c0.206,0,0.373,0.167,0.373,0.373l0,0c0,0.206-0.167,0.373-0.373,0.373l0,0c-0.206,0-0.373-0.167-0.373-0.373l0,0C26.245,17.828,26.411,17.661,26.617,17.661z" fill="#9A916C" gorn="0.2.0.31.0.0.0"/>
                    </g>
                </g>
            </g>
            <g transform="matrix(-1, 0, 0, -1, 47.5654, 36.068)" >
                <g >
                    <g >
                        <path id="connector30pin"  d="M23.783,17.661L23.783,17.661c0.206,0,0.373,0.167,0.373,0.373l0,0c0,0.206-0.167,0.373-0.373,0.373l0,0c-0.206,0-0.373-0.167-0.373-0.373l0,0C23.41,17.828,23.577,17.661,23.783,17.661z" fill="#9A916C" gorn="0.2.0.32.0.0.0"/>
                    </g>
                </g>
            </g>
        </g>
        <g transform="matrix(1, 0, 0, 1, 41.8055, 19.1085)" >
            <g >
                <g id="_x30_805-cap"  gorn="0.2.1.0.0">
                    <g transform="matrix(0, 1, -1, 0, 4.606, -1.063)" >
                        <g >
                            <g >
                                <path  d="M5.386,3.543H0.283C0.127,3.543,0,3.416,0,3.26V0.283C0,0.127,0.127,0,0.283,0h5.102c0.157,0,0.283,0.127,0.283,0.283V3.26C5.669,3.416,5.542,3.543,5.386,3.543z" fill="#DCDCDC"/>
                                <g transform="matrix(2.535182e-06 1 -1 2.535182e-06 4.606 -1.063)" >
                                    <g >
                                        <rect height="3.543" y="0"  x="1.063" width="3.543" fill="#6E554B"/>
                                    </g>
                                </g>
                            </g>
                        </g>
                    </g>
                </g>
            </g>
        </g>
        <g transform="matrix(1, 0, 0, 1, 36.0455, 19.1085)" >
            <g >
                <g id="_x30_805-res"  gorn="0.2.2.0.0">
                    <g transform="matrix(0, -1, 1, 0, 1.063, 4.606)" >
                        <g >
                            <g >
                                <path  d="M5.386,3.543H0.283C0.127,3.543,0,3.416,0,3.26V0.283C0,0.127,0.127,0,0.283,0h5.102c0.157,0,0.283,0.127,0.283,0.283V3.26C5.669,3.416,5.542,3.543,5.386,3.543z" fill="#DCDCDC"/>
                                <g transform="matrix(-2.535182e-06 -1 1 -2.535182e-06 1.063 4.606)" >
                                    <g >
                                        <rect height="3.543" y="0"  x="1.063" width="3.543" fill="#333333"/>
                                    </g>
                                </g>
                            </g>
                        </g>
                    </g>
                </g>
            </g>
        </g>
        <g transform="matrix(1, 0, 0, 1, 30.2855, 19.1085)" >
            <g >
                <g id="_x30_805-res_1_"  gorn="0.2.3.0.0">
                    <g transform="matrix(0, -1, 1, 0, 1.063, 4.606)" >
                        <g >
                            <g >
                                <path  d="M5.386,3.543H0.283C0.127,3.543,0,3.416,0,3.26V0.283C0,0.127,0.127,0,0.283,0h5.102c0.157,0,0.283,0.127,0.283,0.283V3.26C5.669,3.416,5.542,3.543,5.386,3.543z" fill="#DCDCDC"/>
                                <g transform="matrix(-2.535182e-06 -1 1 -2.535182e-06 1.063 4.606)" >
                                    <g >
                                        <rect height="3.543" y="0"  x="1.063" width="3.543" fill="#333333"/>
                                    </g>
                                </g>
                            </g>
                        </g>
                    </g>
                </g>
            </g>
        </g>
        <g transform="matrix(1, 0, 0, 1, 14.8055, 19.1085)" >
            <g >
                <g id="_x30_805-res_2_"  gorn="0.2.4.0.0">
                    <g transform="matrix(0, -1, 1, 0, 1.063, 4.606)" >
                        <g >
                            <g >
                                <path  d="M5.386,3.543H0.283C0.127,3.543,0,3.416,0,3.26V0.283C0,0.127,0.127,0,0.283,0h5.102c0.157,0,0.283,0.127,0.283,0.283V3.26C5.669,3.416,5.542,3.543,5.386,3.543z" fill="#DCDCDC"/>
                                <g transform="matrix(-2.535182e-06 -1 1 -2.535182e-06 1.063 4.606)" >
                                    <g >
                                        <rect height="3.543" y="0"  x="1.063" width="3.543" fill="#333333"/>
                                    </g>
                                </g>
                            </g>
                        </g>
                    </g>
                </g>
            </g>
        </g>
        <g transform="matrix(1, 0, 0, 1, 7.9655, 19.1085)" >
            <g >
                <g id="_x30_805-res_3_"  gorn="0.2.5.0.0">
                    <g transform="matrix(0, -1, 1, 0, 1.063, 4.606)" >
                        <g >
                            <g >
                                <path  d="M5.386,3.543H0.283C0.127,3.543,0,3.416,0,3.26V0.283C0,0.127,0.127,0,0.283,0h5.102c0.157,0,0.283,0.127,0.283,0.283V3.26C5.669,3.416,5.542,3.543,5.386,3.543z" fill="#DCDCDC"/>
                                <g transform="matrix(-2.535182e-06 -1 1 -2.535182e-06 1.063 4.606)" >
                                    <g >
                                        <rect height="3.543" y="0"  x="1.063" width="3.543" fill="#333333"/>
                                    </g>
                                </g>
                            </g>
                        </g>
                    </g>
                </g>
            </g>
        </g>
        <g transform="matrix(1, 0, 0, 1, 2.2055, 19.1085)" >
            <g >
                <g id="_x30_805-res_4_"  gorn="0.2.6.0.0">
                    <g transform="matrix(0, -1, 1, 0, 1.063, 4.606)" >
                        <g >
                            <g >
                                <path  d="M5.386,3.543H0.283C0.127,3.543,0,3.416,0,3.26V0.283C0,0.127,0.127,0,0.283,0h5.102c0.157,0,0.283,0.127,0.283,0.283V3.26C5.669,3.416,5.542,3.543,5.386,3.543z" fill="#DCDCDC"/>
                                <g transform="matrix(-2.535182e-06 -1 1 -2.535182e-06 1.063 4.606)" >
                                    <g >
                                        <rect height="3.543" y="0"  x="1.063" width="3.543" fill="#333333"/>
                                    </g>
                                </g>
                            </g>
                        </g>
                    </g>
                </g>
            </g>
        </g>
        <g transform="matrix(1, 0, 0, 1, 23.7514, 17.3255)" >
            <g >
                <g id="dsbga8_hdc1008"  gorn="0.2.7.0.0">
                    <g transform="matrix(-1, 0, 0, -1, 4.535, 5.669)" >
                        <g >
                            <g >
                                <rect height="5.669" y="0"  x="0.819" width="4.535" fill="#333333"/>
                            </g>
                        </g>
                    </g>
                </g>
            </g>
        </g>
    </g>
</svg>
