<?xml version='1.0' encoding='UTF-8' standalone='no'?>
<!-- Created with Fritzing (http://www.fritzing.org/) -->
<svg xmlns="http://www.w3.org/2000/svg" version="1.2" width="0.7in" x="0in" gorn="0" height="0.65in" viewBox="0 0 50.4 46.8" id="svg2"  y="0in">
    <desc>
        <referenceFile>Adafruit BME680_breadboard.svg</referenceFile>
    </desc>
    <metadata id="metadata421" />
    <defs id="defs419" />
    <desc id="desc4" >Fritzing breadboard generated by brd2svg</desc>
    <g gorn="0.3" id="icon" >
        <path gorn="0.3.0" style="fill:#014cb1;stroke:none;stroke-width:0" id="path8" d="m 43.2,46.8 -36,0 A 7.2,7.2 0 0 1 0,39.6 L 0,7.2 A 7.2,7.2 0 0 1 7.2,0 l 36,0 a 7.2,7.2 0 0 1 7.2,7.2 l 0,32.4 a 7.2,7.2 0 0 1 -7.2,7.2 M 2.18268,39.6 a 1.417325,1.417325 0 1 0 2.83465,0 1.417325,1.417325 0 1 0 -2.83465,0 z m 7.2,0 a 1.417325,1.417325 0 1 0 2.83465,0 1.417325,1.417325 0 1 0 -2.83465,0 z m 7.20002,0 a 1.417325,1.417325 0 1 0 2.83465,0 1.417325,1.417325 0 1 0 -2.83465,0 z m 7.2,0 a 1.417325,1.417325 0 1 0 2.83465,0 1.417325,1.417325 0 1 0 -2.83465,0 z m 7.2,0 a 1.417325,1.417325 0 1 0 2.83465,0 1.417325,1.417325 0 1 0 -2.83465,0 z m 7.2,0 a 1.417325,1.417325 0 1 0 2.83465,0 1.417325,1.417325 0 1 0 -2.83465,0 z m 7.2,0 a 1.417325,1.417325 0 1 0 2.83465,0 1.417325,1.417325 0 1 0 -2.83465,0 z M 4.08189,7.2 a 3.11811,3.11811 0 1 0 6.23622,0 3.11811,3.11811 0 1 0 -6.23622,0 z m 36.00001,0 a 3.11811,3.11811 0 1 0 6.23622,0 3.11811,3.11811 0 1 0 -6.23622,0 z" />
        <g gorn="0.3.1" id="g10" >
            <title id="title12" >layer 21</title>
            <g gorn="0.3.1.1" id="g14" >
                <title id="title16" >text:BME680</title>
                <text x="25.559999" gorn="0.3.1.1.1" font-size="5.0112" style="font-size:5.01119995px;font-family:OCRA;text-anchor:middle;fill:#ffffff;stroke:none;stroke-width:0" id="text18"  y="7.9056001">BME680</text>
            </g>
            <g gorn="0.3.1.2" id="g20" >
                <title id="title22" >text:VIN</title>
                <text x="7.5599999" gorn="0.3.1.2.1" font-size="3.3408" style="font-size:3.34080005px;font-family:OCRA;text-anchor:end;fill:#ffffff;stroke:none;stroke-width:0" id="text24"  y="36.820801">VIN</text>
            </g>
            <g gorn="0.3.1.3" id="g26" >
                <title id="title28" >text:3Vo</title>
                <text x="14.4" gorn="0.3.1.3.1" font-size="3.3408" style="font-size:3.34080005px;font-family:OCRA;text-anchor:end;fill:#ffffff;stroke:none;stroke-width:0" id="text30"  y="46.180801">3Vo</text>
            </g>
            <g gorn="0.3.1.4" id="g32" >
                <title id="title34" >text:GND</title>
                <text x="22.32" gorn="0.3.1.4.1" font-size="3.3408" style="font-size:3.34080005px;font-family:OCRA;text-anchor:end;fill:#ffffff;stroke:none;stroke-width:0" id="text36"  y="36.820801">GND</text>
            </g>
            <g gorn="0.3.1.5" id="g38" >
                <title id="title40" >text:SCK</title>
                <text x="29.16" gorn="0.3.1.5.1" font-size="3.3408" style="font-size:3.34080005px;font-family:OCRA;text-anchor:end;fill:#ffffff;stroke:none;stroke-width:0" id="text42"  y="46.180801">SCK</text>
            </g>
            <g gorn="0.3.1.6" id="g44" >
                <title id="title46" >text:SDO</title>
                <text x="36.720001" gorn="0.3.1.6.1" font-size="3.3408" style="font-size:3.34080005px;font-family:OCRA;text-anchor:end;fill:#ffffff;stroke:none;stroke-width:0" id="text48"  y="36.820801">SDO</text>
            </g>
            <g gorn="0.3.1.7" id="g50" >
                <title id="title52" >text:SDI</title>
                <text x="43.200001" gorn="0.3.1.7.1" font-size="3.3408" style="font-size:3.34080005px;font-family:OCRA;text-anchor:end;fill:#ffffff;stroke:none;stroke-width:0" id="text54"  y="46.180801">SDI</text>
            </g>
            <g gorn="0.3.1.8" id="g56" >
                <title id="title58" >text:CS</title>
                <text x="49.68" gorn="0.3.1.8.1" font-size="3.3408" style="font-size:3.34080005px;font-family:OCRA;text-anchor:end;fill:#ffffff;stroke:none;stroke-width:0" id="text60"  y="36.820801">CS</text>
            </g>
            <g gorn="0.3.1.9" id="g62" >
                <title id="title64" >element:C1</title>
                <g gorn="0.3.1.9.1" id="g66" >
                    <title id="title68" >package:0805-NO</title>
                    <line y2="30.6" x1="6.48" x2="6.48" y1="27.719999" gorn="0.3.1.9.1.1" style="stroke:#ffffff;stroke-width:0.86400002;stroke-linecap:round" id="line70" />
                </g>
            </g>
            <g gorn="0.3.1.10" id="g72" >
                <title id="title74" >element:C3</title>
                <g gorn="0.3.1.10.1" id="g76" >
                    <title id="title78" >package:0805-NO</title>
                    <line y2="20.879999" x1="15.84" x2="12.96" y1="20.879999" gorn="0.3.1.10.1.1" style="stroke:#ffffff;stroke-width:0.86400002;stroke-linecap:round" id="line80" />
                </g>
            </g>
            <g gorn="0.3.1.11" id="g82" >
                <title id="title84" >element:D2</title>
                <g gorn="0.3.1.11.1" id="g86" >
                    <title id="title88" >package:SOD-323</title>
                    <line y2="12.7758" x1="22.3654" x2="28.034599" y1="12.7758" gorn="0.3.1.11.1.1" style="stroke:#ffffff;stroke-width:0.57599998;stroke-linecap:round" id="line90" />
                    <line y2="16.7442" x1="28.034599" x2="22.3654" y1="16.7442" gorn="0.3.1.11.1.2" style="stroke:#ffffff;stroke-width:0.57599998;stroke-linecap:round" id="line92" />
                    <line y2="13.6261" x1="24.491301" x2="26.1922" y1="14.76" gorn="0.3.1.11.1.3" style="stroke:#ffffff;stroke-width:0.57599998;stroke-linecap:round" id="line94" />
                    <line y2="15.8939" x1="26.1922" x2="26.1922" y1="13.6261" gorn="0.3.1.11.1.4" style="stroke:#ffffff;stroke-width:0.57599998;stroke-linecap:round" id="line96" />
                    <line y2="14.76" x1="26.1922" x2="24.491301" y1="15.8939" gorn="0.3.1.11.1.5" style="stroke:#ffffff;stroke-width:0.57599998;stroke-linecap:round" id="line98" />
                    <g gorn="0.3.1.11.1.6" id="g100" >
                        <title id="title102" >polygon</title>
                        <path gorn="0.3.1.11.1.6.1" style="fill:none;stroke:#ffffff;stroke-width:0.57599998;stroke-linecap:round" id="path104" d="m 24.9165,14.76 0.8504,-0.5669 0,1.1338 -0.8504,-0.5669 0.8504,0 -0.8504,0" />
                    </g>
                </g>
            </g>
            <g gorn="0.3.1.12" id="g106" >
                <title id="title108" >element:JP2</title>
                <g gorn="0.3.1.12.1" id="g110" >
                    <title id="title112" >package:1X07_ROUND_70</title>
                </g>
            </g>
            <g gorn="0.3.1.13" id="g114" >
                <title id="title116" >element:Q1</title>
                <g gorn="0.3.1.13.1" id="g118" >
                    <title id="title120" >package:SOT363</title>
                    <line y2="30.4781" x1="33.284401" x2="35.835602" y1="30.4781" gorn="0.3.1.13.1.1" style="stroke:#ffffff;stroke-width:0.57599998;stroke-linecap:round" id="line122" />
                    <line y2="24.241899" x1="33.284401" x2="35.835602" y1="24.241899" gorn="0.3.1.13.1.2" style="stroke:#ffffff;stroke-width:0.57599998;stroke-linecap:round" id="line124" />
                    <circle cx="35.5522" r="0.283465" gorn="0.3.1.13.1.3" style="fill:none;stroke:#ffffff;stroke-width:0.57599998" id="circle126"  cy="31.612"/>
                </g>
            </g>
            <g gorn="0.3.1.14" id="g128" >
                <title id="title130" >element:R1</title>
                <g gorn="0.3.1.14.1" id="g132" >
                    <title id="title134" >package:0603-NO</title>
                    <line y2="18.4139" x1="35.639999" x2="35.639999" y1="16.146099" gorn="0.3.1.14.1.1" style="stroke:#ffffff;stroke-width:0.86400002;stroke-linecap:round" id="line136" />
                </g>
            </g>
            <g gorn="0.3.1.15" id="g138" >
                <title id="title140" >element:R3</title>
                <g gorn="0.3.1.15.1" id="g142" >
                    <title id="title144" >package:RESPACK_4X0603</title>
                    <line y2="17.6542" x1="40.671501" x2="48.608501" y1="17.6542" gorn="0.3.1.15.1.1" style="stroke:#ffffff;stroke-width:0.57599998;stroke-linecap:round" id="line146" />
                    <line y2="28.4258" x1="48.608501" x2="40.671501" y1="28.4258" gorn="0.3.1.15.1.2" style="stroke:#ffffff;stroke-width:0.57599998;stroke-linecap:round" id="line148" />
                </g>
            </g>
            <g gorn="0.3.1.16" id="g150" >
                <title id="title152" >element:R4</title>
                <g gorn="0.3.1.16.1" id="g154" >
                    <title id="title156" >package:0603-NO</title>
                    <line y2="26.9461" x1="19.799999" x2="19.799999" y1="29.2139" gorn="0.3.1.16.1.1" style="stroke:#ffffff;stroke-width:0.86400002;stroke-linecap:round" id="line158" />
                </g>
            </g>
            <g gorn="0.3.1.17" id="g160" >
                <title id="title162" >element:U$2</title>
                <g gorn="0.3.1.17.1" id="g164" >
                    <title id="title166" >package:ADAFRUIT_2.5MM</title>
                </g>
            </g>
            <g gorn="0.3.1.18" id="g168" >
                <title id="title170" >element:U$5</title>
                <g gorn="0.3.1.18.1" id="g172" >
                    <title id="title174" >package:FIDUCIAL_1MM</title>
                </g>
            </g>
            <g gorn="0.3.1.19" id="g176" >
                <title id="title178" >element:U$6</title>
                <g gorn="0.3.1.19.1" id="g180" >
                    <title id="title182" >package:ADAFRUIT_2.5MM</title>
                </g>
            </g>
            <g gorn="0.3.1.20" id="g184" >
                <title id="title186" >element:U$7</title>
                <g gorn="0.3.1.20.1" id="g188" >
                    <title id="title190" >package:MOUNTINGHOLE_2.0_PLATED</title>
                    <circle cx="7.1999998" r="5.1023598" gorn="0.3.1.20.1.1" style="fill:none;stroke:#ffffff;stroke-width:0.57599998" id="circle192"  cy="7.1999998"/>
                </g>
            </g>
            <g gorn="0.3.1.21" id="g194" >
                <title id="title196" >element:U$8</title>
                <g gorn="0.3.1.21.1" id="g198" >
                    <title id="title200" >package:MOUNTINGHOLE_2.0_PLATED</title>
                    <circle cx="43.200001" r="5.1023598" gorn="0.3.1.21.1.1" style="fill:none;stroke:#ffffff;stroke-width:0.57599998" id="circle202"  cy="7.1999998"/>
                </g>
            </g>
            <g gorn="0.3.1.22" id="g204" >
                <title id="title206" >element:U$15</title>
                <g gorn="0.3.1.22.1" id="g208" >
                    <title id="title210" >package:FIDUCIAL_1MM</title>
                </g>
            </g>
            <g gorn="0.3.1.23" id="g212" >
                <title id="title214" >element:U$20</title>
                <g gorn="0.3.1.23.1" id="g216" >
                    <title id="title218" >package:PCBFEAT-REV-040</title>
                </g>
            </g>
            <g gorn="0.3.1.24" id="g220" >
                <title id="title222" >element:U1</title>
                <g gorn="0.3.1.24.1" id="g224" >
                    <title id="title226" >package:BME280</title>
                    <line y2="17.773199" x1="21.373199" x2="29.0268" y1="17.773199" gorn="0.3.1.24.1.1" style="stroke:#ffffff;stroke-width:0.36000001;stroke-linecap:round" id="line228" />
                    <line y2="25.4268" x1="21.373199" x2="29.0268" y1="25.4268" gorn="0.3.1.24.1.2" style="stroke:#ffffff;stroke-width:0.36000001;stroke-linecap:round" id="line230" />
                    <circle cx="30.7276" r="0.56692898" gorn="0.3.1.24.1.3" style="fill:none;stroke:#ffffff;stroke-width:0.99212402" id="circle232"  cy="18.7654"/>
                </g>
            </g>
            <g gorn="0.3.1.25" id="g234" >
                <title id="title236" >element:U2</title>
                <g gorn="0.3.1.25.1" id="g238" >
                    <title id="title240" >package:SOT23-5</title>
                    <line y2="22.787701" x1="2.1628399" x2="2.1628399" y1="18.2523" gorn="0.3.1.25.1.1" style="stroke:#ffffff;stroke-width:0.57599998;stroke-linecap:round" id="line242" />
                    <line y2="22.787701" x1="11.5172" x2="11.5172" y1="18.2523" gorn="0.3.1.25.1.2" style="stroke:#ffffff;stroke-width:0.57599998;stroke-linecap:round" id="line244" />
                    <line y2="17.5436" x1="5.70614" x2="7.9738598" y1="17.5436" gorn="0.3.1.25.1.3" style="stroke:#ffffff;stroke-width:0.57599998;stroke-linecap:round" id="line246" />
                </g>
            </g>
        </g>
        <rect width="3.5149601" x="2.0296099" gorn="0.3.2" style="fill:#9a916c;stroke:none;stroke-width:0" height="4.2519698" id="connector0pin"  y="27.034"/>
        <rect width="3.5149601" x="7.4154201" gorn="0.3.3" style="fill:#9a916c;stroke:none;stroke-width:0" height="4.2519698" id="connector1pin"  y="27.034"/>
        <g transform="matrix(0,1,-1,0,32.5871,3.78708)" >
            <g gorn="0.3.4.0" id="g250" >
                <rect width="3.5149601" x="12.6426" gorn="0.3.4.0.0" style="fill:#9a916c;stroke:none;stroke-width:0" height="4.2519698" id="connector2pin"  y="16.0611"/>
            </g>
        </g>
        <g transform="matrix(0,1,-1,0,37.9729,9.17294)" >
            <g gorn="0.3.5.0" id="g253" >
                <rect width="3.5149601" x="12.6426" gorn="0.3.5.0.0" style="fill:#9a916c;stroke:none;stroke-width:0" height="4.2519698" id="connector3pin"  y="21.446899"/>
            </g>
        </g>
        <rect width="3.8267701" x="26.8866" gorn="0.3.6" style="fill:#9a916c;stroke:none;stroke-width:0" height="2.26772" id="connector4pin"  y="13.6261"/>
        <rect width="3.8267701" x="19.6866" gorn="0.3.7" style="fill:#9a916c;stroke:none;stroke-width:0" height="2.26772" id="connector5pin"  y="13.6261"/>
        <circle cx="3.5999999" connectorname="VIN" r="1.96866" gorn="0.3.8" style="fill:none;stroke:#9a916c;stroke-width:1.10267997" id="connector6pin"  cy="39.599998"/>
        <circle cx="10.8" connectorname="3.3V" r="1.96866" gorn="0.3.9" style="fill:none;stroke:#9a916c;stroke-width:1.10267997" id="connector7pin"  cy="39.599998"/>
        <circle cx="18" connectorname="GND" r="1.96866" gorn="0.3.10" style="fill:none;stroke:#9a916c;stroke-width:1.10267997" id="connector8pin"  cy="39.599998"/>
        <circle cx="25.200001" connectorname="SCK/SCL" r="1.96866" gorn="0.3.11" style="fill:none;stroke:#9a916c;stroke-width:1.10267997" id="connector9pin"  cy="39.599998"/>
        <circle cx="32.400002" connectorname="SDO/ADR" r="1.96866" gorn="0.3.12" style="fill:none;stroke:#9a916c;stroke-width:1.10267997" id="connector10pin"  cy="39.599998"/>
        <circle cx="39.599998" connectorname="SDI/SDA" r="1.96866" gorn="0.3.13" style="fill:none;stroke:#9a916c;stroke-width:1.10267997" id="connector11pin"  cy="39.599998"/>
        <circle cx="46.799999" connectorname="CS" r="1.96866" gorn="0.3.14" style="fill:none;stroke:#9a916c;stroke-width:1.10267997" id="connector12pin"  cy="39.599998"/>
        <g transform="matrix(0,-1,1,0,7.62523,66.5972)" >
            <g gorn="0.3.15.0" id="g265" >
                <rect width="1.41732" x="36.402599" gorn="0.3.15.0.0" style="fill:#9a916c;stroke:none;stroke-width:0" height="1.41732" id="connector13pin"  y="28.7773"/>
            </g>
        </g>
        <g transform="matrix(0,-1,1,0,9.75118,64.4712)" >
            <g gorn="0.3.16.0" id="g268" >
                <rect width="1.13386" x="36.544201" gorn="0.3.16.0.0" style="fill:#9a916c;stroke:none;stroke-width:0" height="1.41732" id="connector14pin"  y="26.6513"/>
            </g>
        </g>
        <g transform="matrix(0,-1,1,0,11.8772,62.3452)" >
            <g gorn="0.3.17.0" id="g271" >
                <rect width="1.41732" x="36.402599" gorn="0.3.17.0.0" style="fill:#9a916c;stroke:none;stroke-width:0" height="1.41732" id="connector15pin"  y="24.5254"/>
            </g>
        </g>
        <g transform="matrix(0,-1,1,0,6.7748,57.2428)" >
            <g gorn="0.3.18.0" id="g274" >
                <rect width="1.41732" x="31.3001" gorn="0.3.18.0.0" style="fill:#9a916c;stroke:none;stroke-width:0" height="1.41732" id="connector16pin"  y="24.5254"/>
            </g>
        </g>
        <g transform="matrix(0,-1,1,0,4.64882,59.3688)" >
            <g gorn="0.3.19.0" id="g277" >
                <rect width="1.13386" x="31.4419" gorn="0.3.19.0.0" style="fill:#9a916c;stroke:none;stroke-width:0" height="1.41732" id="connector17pin"  y="26.6513"/>
            </g>
        </g>
        <g transform="matrix(0,-1,1,0,2.52284,61.4948)" >
            <g gorn="0.3.20.0" id="g280" >
                <rect width="1.41732" x="31.3001" gorn="0.3.20.0.0" style="fill:#9a916c;stroke:none;stroke-width:0" height="1.41732" id="connector18pin"  y="28.7773"/>
            </g>
        </g>
        <rect width="3.04724" x="31.7069" gorn="0.3.21" style="fill:#9a916c;stroke:none;stroke-width:0" height="2.83465" id="connector19pin"  y="15.8627"/>
        <rect width="3.04724" x="36.525799" gorn="0.3.22" style="fill:#9a916c;stroke:none;stroke-width:0" height="2.83465" id="connector20pin"  y="15.8627"/>
        <g transform="matrix(0,-1,1,0,20.3244,73.7748)" >
            <g gorn="0.3.23.0" id="g285" >
                <rect width="1.2755899" x="46.411598" gorn="0.3.23.0.0" style="fill:#9a916c;stroke:none;stroke-width:0" height="2.5511799" id="connector21pin"  y="25.449499"/>
            </g>
        </g>
        <g transform="matrix(0,-1,1,0,22.8756,71.2233)" >
            <g gorn="0.3.24.0" id="g288" >
                <rect width="1.2755899" x="46.411598" gorn="0.3.24.0.0" style="fill:#9a916c;stroke:none;stroke-width:0" height="2.5511799" id="connector22pin"  y="22.898199"/>
            </g>
        </g>
        <g transform="matrix(0,-1,1,0,25.1433,68.9556)" >
            <g gorn="0.3.25.0" id="g291" >
                <rect width="1.2755899" x="46.411598" gorn="0.3.25.0.0" style="fill:#9a916c;stroke:none;stroke-width:0" height="2.5511799" id="connector23pin"  y="20.630501"/>
            </g>
        </g>
        <g transform="matrix(0,-1,1,0,27.6945,66.4044)" >
            <g gorn="0.3.26.0" id="g294" >
                <rect width="1.2755899" x="46.411598" gorn="0.3.26.0.0" style="fill:#9a916c;stroke:none;stroke-width:0" height="2.5511799" id="connector24pin"  y="18.0793"/>
            </g>
        </g>
        <g transform="matrix(0,-1,1,0,22.8756,61.5855)" >
            <g gorn="0.3.27.0" id="g297" >
                <rect width="1.2755899" x="41.592701" gorn="0.3.27.0.0" style="fill:#9a916c;stroke:none;stroke-width:0" height="2.5511799" id="connector25pin"  y="18.0793"/>
            </g>
        </g>
        <g transform="matrix(0,-1,1,0,20.3244,64.1367)" >
            <g gorn="0.3.28.0" id="g300" >
                <rect width="1.2755899" x="41.592701" gorn="0.3.28.0.0" style="fill:#9a916c;stroke:none;stroke-width:0" height="2.5511799" id="connector26pin"  y="20.630501"/>
            </g>
        </g>
        <g transform="matrix(0,-1,1,0,18.0567,66.4044)" >
            <g gorn="0.3.29.0" id="g303" >
                <rect width="1.2755899" x="41.592701" gorn="0.3.29.0.0" style="fill:#9a916c;stroke:none;stroke-width:0" height="2.5511799" id="connector27pin"  y="22.898199"/>
            </g>
        </g>
        <g transform="matrix(0,-1,1,0,15.5055,68.9556)" >
            <g gorn="0.3.30.0" id="g306" >
                <rect width="1.2755899" x="41.592701" gorn="0.3.30.0.0" style="fill:#9a916c;stroke:none;stroke-width:0" height="2.5511799" id="connector28pin"  y="25.449499"/>
            </g>
        </g>
        <g transform="matrix(-1,0,0,-1,44.4189,56.16)" >
            <g gorn="0.3.31.0" id="g309" >
                <rect width="3.04724" x="20.685801" gorn="0.3.31.0.0" style="fill:#9a916c;stroke:none;stroke-width:0" height="2.83465" id="connector29pin"  y="26.662701"/>
            </g>
        </g>
        <g transform="matrix(-1,0,0,-1,34.7811,56.16)" >
            <g gorn="0.3.32.0" id="g312" >
                <rect width="3.04724" x="15.8669" gorn="0.3.32.0.0" style="fill:#9a916c;stroke:none;stroke-width:0" height="2.83465" id="connector30pin"  y="26.662701"/>
            </g>
        </g>
        <rect ry="1.41732" width="2.83465" x="10.1027" gorn="0.3.33" style="fill:#9a916c;stroke:none;stroke-width:0" height="2.83465" rx="1.41732" id="connector31pin"  y="32.7827"/>
        <circle cx="7.1999998" connectorname="P$1" r="3.83811" gorn="0.3.34" style="fill:none;stroke:#9a916c;stroke-width:1.44000006" id="connector32pin"  cy="7.1999998"/>
        <circle cx="43.200001" connectorname="P$1" r="3.83811" gorn="0.3.35" style="fill:none;stroke:#9a916c;stroke-width:1.44000006" id="connector33pin"  cy="7.1999998"/>
        <rect ry="1.41732" width="2.83465" x="34.222698" gorn="0.3.36" style="fill:#9a916c;stroke:none;stroke-width:0" height="2.83465" rx="1.41732" id="connector34pin"  y="10.8227"/>
        <rect width="1.98426" x="27.1134" gorn="0.3.37" style="fill:#9a916c;stroke:none;stroke-width:0" height="0.99212402" id="connector35pin"  y="18.340099"/>
        <rect width="1.98426" x="27.1134" gorn="0.3.38" style="fill:#9a916c;stroke:none;stroke-width:0" height="0.99212402" id="connector36pin"  y="20.182699"/>
        <rect width="1.98426" x="27.1134" gorn="0.3.39" style="fill:#9a916c;stroke:none;stroke-width:0" height="0.99212402" id="connector37pin"  y="22.0252"/>
        <rect width="1.98426" x="27.1134" gorn="0.3.40" style="fill:#9a916c;stroke:none;stroke-width:0" height="0.99212402" id="connector38pin"  y="23.867701"/>
        <rect width="1.98426" x="21.302401" gorn="0.3.41" style="fill:#9a916c;stroke:none;stroke-width:0" height="0.99212402" id="connector39pin"  y="23.867701"/>
        <rect width="1.98426" x="21.302401" gorn="0.3.42" style="fill:#9a916c;stroke:none;stroke-width:0" height="0.99212402" id="connector40pin"  y="22.0252"/>
        <rect width="1.98426" x="21.302401" gorn="0.3.43" style="fill:#9a916c;stroke:none;stroke-width:0" height="0.99212402" id="connector41pin"  y="20.182699"/>
        <rect width="1.98426" x="21.302401" gorn="0.3.44" style="fill:#9a916c;stroke:none;stroke-width:0" height="0.99212402" id="connector42pin"  y="18.340099"/>
        <rect width="1.55905" x="3.3675599" gorn="0.3.45" style="fill:#9a916c;stroke:none;stroke-width:0" height="3.4015801" id="connector43pin"  y="22.504499"/>
        <rect width="1.55905" x="6.0604701" gorn="0.3.46" style="fill:#9a916c;stroke:none;stroke-width:0" height="3.4015801" id="connector44pin"  y="22.504499"/>
        <rect width="1.55905" x="8.7533998" gorn="0.3.47" style="fill:#9a916c;stroke:none;stroke-width:0" height="3.4015801" id="connector45pin"  y="22.504499"/>
        <rect width="1.55905" x="8.7533998" gorn="0.3.48" style="fill:#9a916c;stroke:none;stroke-width:0" height="3.4015801" id="connector46pin"  y="15.1339"/>
        <rect width="1.55905" x="3.3675599" gorn="0.3.49" style="fill:#9a916c;stroke:none;stroke-width:0" height="3.4015801" id="connector47pin"  y="15.1339"/>
    </g>
    <g transform="translate(3.6455,27.3885)" >
        <g gorn="0.4.0" id="0805-cap" >
            <path gorn="0.4.0.0" style="fill:#dcdcdc" id="path333" d="m 5.386,3.543 -5.103,0 C 0.127,3.543 0,3.416 0,3.26 L 0,0.283 C 0,0.127 0.127,0 0.283,0 l 5.102,0 c 0.157,0 0.283,0.127 0.283,0.283 l 0,2.977 C 5.669,3.416 5.542,3.543 5.386,3.543 Z" />
            <rect width="3.543" x="1.063" gorn="0.4.0.1" style="fill:#6e554b" id="rect335" height="3.543"  y="0"/>
        </g>
    </g>
    <g transform="translate(11.5655,19.1085)" >
        <g gorn="0.5.0" id="g337" >
            <g transform="matrix(0,1,-1,0,4.606,-1.063)" >
                <g gorn="0.5.0.0.0" id="g339" >
                    <path gorn="0.5.0.0.0.0" style="fill:#dcdcdc" id="path341" d="m 5.386,3.543 -5.103,0 C 0.127,3.543 0,3.416 0,3.26 L 0,0.283 C 0,0.127 0.127,0 0.283,0 l 5.102,0 c 0.157,0 0.283,0.127 0.283,0.283 l 0,2.977 C 5.669,3.416 5.542,3.543 5.386,3.543 Z" />
                    <rect width="3.543" x="1.063" gorn="0.5.0.0.0.1" style="fill:#6e554b" id="rect343" height="3.543"  y="0"/>
                </g>
            </g>
        </g>
    </g>
    <g transform="translate(21.6565,12.9885)" >
        <g gorn="0.6.0" id="sod-323" >
            <metadata id="metadata11" >
                <rdf:RDF xmlns:rdf="http://www.w3.org/1999/02/22-rdf-syntax-ns#">
                    <cc:Work xmlns:rdf="http://www.w3.org/1999/02/22-rdf-syntax-ns#" rdf:about="" xmlns:cc="http://creativecommons.org/ns#">
                        <dc:format xmlns:dc="http://purl.org/dc/elements/1.1/">image/svg+xml</dc:format>
                        <dc:type xmlns:rdf="http://www.w3.org/1999/02/22-rdf-syntax-ns#" rdf:resource="http://purl.org/dc/dcmitype/StillImage" xmlns:dc="http://purl.org/dc/elements/1.1/"/>
                        <dc:title xmlns:dc="http://purl.org/dc/elements/1.1/"/>
                    </cc:Work>
                </rdf:RDF>
            </metadata>
            <defs id="defs9" />
            <rect width="7.0869999" x="0" gorn="0.6.0.2" style="fill:#dcdcdc" height="0.850003" id="rect3"  y="1.346"/>
            <rect width="4.8189998" x="1.1339999" gorn="0.6.0.3" style="fill:#303030" height="3.543" id="rect5"  y="0"/>
            <rect width="0.63320303" x="1.55866" gorn="0.6.0.4" style="fill:#666666" height="3.55568" id="rect3339"  y="0.011677"/>
        </g>
    </g>
    <g transform="translate(31.0165,25.0921)" >
        <g gorn="0.7.0" id="sot363" >
            <g transform="matrix(0,-1,1,0,0.567,6.52)" >
                <g gorn="0.7.0.0.0" id="g353" >
                    <g gorn="0.7.0.0.0.0" id="g355" >
                        <rect width="0.70899999" x="3.898" gorn="0.7.0.0.0.0.0" style="fill:#dcdcdc" id="rect357" height="5.9530001"  y="0"/>
                        <rect width="0.70899999" x="5.7410002" gorn="0.7.0.0.0.0.1" style="fill:#dcdcdc" id="rect359" height="5.9530001"  y="0"/>
                        <rect width="0.70899999" x="2.056" gorn="0.7.0.0.0.0.2" style="fill:#dcdcdc" id="rect361" height="5.9530001"  y="0"/>
                        <rect width="5.6690001" x="1.418" gorn="0.7.0.0.0.0.3" style="fill:#303030" id="rect363" height="3.543"  y="1.205"/>
                    </g>
                </g>
            </g>
        </g>
    </g>
    <g transform="translate(33.3725,16.146)" >
        <g gorn="0.8.0" id="0603-res" >
            <path gorn="0.8.0.0" style="fill:#dcdcdc" id="path366" d="m 4.245,2.268 -3.955,0 C 0.13,2.268 0,2.138 0,1.977 L 0,0.29 C 0,0.13 0.13,0 0.29,0 l 3.955,0 c 0.16,0 0.29,0.13 0.29,0.29 l 0,1.687 c 0,0.161 -0.13,0.291 -0.29,0.291 z" />
            <rect width="2.2679999" x="1.1339999" gorn="0.8.0.1" style="fill:#333333" id="rect368" height="2.2679999"  y="0"/>
        </g>
    </g>
    <g transform="translate(40.1045,20.7725)" >
        <g gorn="0.9.0" id="respack_4x0603" >
            <g transform="matrix(0,-1,1,0,2.26799,6.80299)" >
                <g gorn="0.9.0.0.0" id="g371" >
                    <g gorn="0.9.0.0.0.0" id="g373" >
                        <rect width="1.8430001" x="0" gorn="0.9.0.0.0.0.0" style="fill:#dcdcdc" id="rect375" height="4.5349998"  y="0"/>
                        <rect width="1.4170001" x="2.6930001" gorn="0.9.0.0.0.0.1" style="fill:#dcdcdc" id="rect377" height="4.5349998"  y="0"/>
                        <rect width="1.4170001" x="4.961" gorn="0.9.0.0.0.0.2" style="fill:#dcdcdc" id="rect379" height="4.5349998"  y="0"/>
                        <rect width="1.8430001" x="7.2280102" gorn="0.9.0.0.0.0.3" style="fill:#dcdcdc" id="rect381" height="4.5349998"  y="0"/>
                        <rect width="9.0709896" x="0" gorn="0.9.0.0.0.0.4" style="fill:#303030" id="rect383" height="2.835"  y="0.850003"/>
                    </g>
                </g>
            </g>
        </g>
    </g>
    <g transform="translate(17.5325,26.946)" >
        <g gorn="0.10.0" id="g385" >
            <g transform="matrix(-1,0,0,-1,4.535,2.268)" >
                <g gorn="0.10.0.0.0" id="g387" >
                    <path gorn="0.10.0.0.0.0" style="fill:#dcdcdc" id="path389" d="m 4.245,2.268 -3.955,0 C 0.13,2.268 0,2.138 0,1.977 L 0,0.29 C 0,0.13 0.13,0 0.29,0 l 3.955,0 c 0.16,0 0.29,0.13 0.29,0.29 l 0,1.687 c 0,0.161 -0.13,0.291 -0.29,0.291 z" />
                    <rect width="2.2679999" x="1.1339999" gorn="0.10.0.0.0.1" style="fill:#333333" id="rect391" height="2.2679999"  y="0"/>
                </g>
            </g>
        </g>
    </g>
    <g transform="translate(10.8021,7.86629)" >
        <g gorn="0.11.0" id="adafruit_2.5mm" >
            <path gorn="0.11.0.0" style="fill:#dcdcdc" id="path394" d="M 9.747,3.082 C 9.724,2.94 9.647,2.899 9.461,2.839 9.31903,2.794 8.37202,2.492 8.37202,2.492 c 0,0 -0.66,-0.249 -1.15,0.103 -0.066,0.048 -0.134,0.102 -0.203,0.16 0.058,-0.069 0.112,-0.137 0.159,-0.203 0.352,-0.49 0.101,-1.15 0.101,-1.15 0,0 -0.30302,-0.947 -0.34902,-1.089 C 6.87,0.127 6.83,0.05 6.687,0.028 6.545,0.005 6.483,0.066 6.369,0.225 6.282,0.345 5.702,1.153001 5.702,1.153001 5.702,1.153001 5.261,1.704 5.445,2.279 5.47,2.356 5.5,2.438 5.534,2.521 5.486,2.445 5.438,2.372 5.39,2.307 5.032,1.821 4.328,1.855 4.328,1.855 c 0,0 -0.995,-0.004 -1.143,-0.004 -0.195,0 -0.281,0.014 -0.347,0.143 -0.065,0.128 -0.027,0.206 0.089,0.364 0.088,0.12 0.677,0.921002 0.677,0.921002 0,0 0.388,0.59 0.991001,0.592 0.081,0 0.168,-0.003 0.257,-0.01 C 4.765,3.883 4.681,3.907 4.604,3.932 4.031,4.122 3.845998,4.802998 3.845998,4.802998 c 0,0 -0.31,0.943999 -0.357,1.085 C 3.428,6.074 3.416,6.16 3.518,6.262 3.62,6.364 3.706,6.352 3.892,6.29 4.033,6.244 4.977,5.931 4.977,5.931 c 0,0 0.681,-0.187 0.868997,-0.760003 0.025,-0.077 0.049,-0.16 0.07,-0.247 C 5.91,5.014 5.907,5.1 5.907,5.181 c 0.004,0.603 0.594,0.99 0.594,0.99 0,0 0.802001,0.588 0.922003,0.675 C 7.58102,6.962 7.659,7 7.78802,6.935 7.91597,6.869 7.93102,6.783 7.93001,6.588 7.929,6.439 7.92403,5.445 7.92403,5.445 7.92403,5.445 7.95701,4.74 7.47,4.383 7.40498,4.335 7.33198,4.287 7.25602,4.24 c 0.083,0.034 0.165,0.064 0.242,0.088 0.575,0.183 1.125,-0.259 1.125,-0.259 0,0 0.80696,-0.5809998 0.92699,-0.6679998 C 9.70898,3.286 9.76903,3.224 9.747,3.082 Z M 6.322,2.35 C 6.43,2.367 6.484,2.598 6.442,2.865 6.4,3.132 6.278,3.335 6.169,3.318 6.061,3.301 6.007,3.07 6.049,2.803 6.091,2.535 6.213,2.332 6.322,2.35 Z M 4.933,3.059 C 4.983,2.961 5.219,2.981 5.46,3.104 5.701,3.227 5.857,3.406 5.807,3.503 5.757,3.601 5.521,3.581 5.28,3.458 5.038,3.335 4.883,3.157 4.933,3.059 Z M 5.665,4.393 C 5.474,4.584 5.256,4.677 5.178,4.599 5.101,4.521 5.193,4.303 5.384,4.112 5.575,3.92 5.793,3.827 5.871,3.905 5.949,3.983 5.857,4.201 5.665,4.393 Z M 6.719,4.842 C 6.6210001,4.892 6.442,4.737 6.319,4.496 6.196,4.254 6.175,4.018 6.273,3.968 6.371,3.918 6.55,4.073 6.673,4.314 6.796,4.556 6.817,4.792 6.719,4.842 Z M 6.973,3.725 C 6.706,3.767 6.475,3.714 6.457,3.606 6.44,3.497 6.643,3.375 6.91,3.332 7.177,3.289 7.408,3.343 7.425,3.451 7.443,3.56 7.24003,3.682 6.973,3.725 Z" />
        </g>
    </g>
    <g transform="matrix(1.2226034,0,0,1,21.816906,18.0567)" >
        <g gorn="0.12.0" id="bme280" >
            <metadata id="metadata15" >
                <rdf:RDF xmlns:rdf="http://www.w3.org/1999/02/22-rdf-syntax-ns#">
                    <cc:Work xmlns:rdf="http://www.w3.org/1999/02/22-rdf-syntax-ns#" rdf:about="" xmlns:cc="http://creativecommons.org/ns#">
                        <dc:format xmlns:dc="http://purl.org/dc/elements/1.1/">image/svg+xml</dc:format>
                        <dc:type xmlns:rdf="http://www.w3.org/1999/02/22-rdf-syntax-ns#" rdf:resource="http://purl.org/dc/dcmitype/StillImage" xmlns:dc="http://purl.org/dc/elements/1.1/"/>
                        <dc:title xmlns:dc="http://purl.org/dc/elements/1.1/"/>
                    </cc:Work>
                </rdf:RDF>
            </metadata>
            <defs id="defs13" />
            <g transform="matrix(1.56238,0,0,1.44742,-0.708661,-3.79797)" >
                <g gorn="0.12.0.2.0" id="g3350" >
                    <g transform="matrix(0.941756,0,0,0.932305,0,0.475924)" >
                        <g gorn="0.12.0.2.0.0.0" id="g3346" />
                    </g>
                    <g transform="matrix(0,1.07942,-0.926421,0,6.96668,2.62397)" >
                        <g gorn="0.12.0.2.0.1.0" id="g3339" >
                            <g transform="matrix(0.941756,0,0,0.932305,0,0.475924)" >
                                <path gorn="0.12.0.2.0.1.0.0.0" style="fill:#b4b4b4" connector-curvature="0" id="path5" d="M 0,6.4616 0,3.39797 C 0,3.08348 0.250848,2.82917 0.561046,2.82917 l 3.69423,0 c 0.309406,0 0.561046,0.254318 0.561046,0.568805 l 0,3.06362 C 4.81632,6.77528 4.56547,7.0304 4.25527,7.0304 l -3.69423,0 C 0.250848,7.0296 0,6.77528 0,6.4616 Z" />
                            </g>
                            <g transform="matrix(0.941756,0,0,0.932305,0,0.475924)" >
                                <path gorn="0.12.0.2.0.1.0.1.0" style="fill:#dcdcdc" connector-curvature="0" id="path7" d="M 0.376726,3.40126 C 0.376722,3.2761 0.477223,3.17341 0.600669,3.17341 l 3.68217,0 c 0.123446,0 0.22394,0.10269 0.223944,0.227843 l 7.34e-5,3.03826 c 3.1e-6,0.125153 -0.100498,0.227843 -0.223944,0.227843 l -3.68216996,0 c -0.123446,0 -0.22394,-0.10269 -0.223944,-0.227843 z" />
                            </g>
                            <ellipse cx="1.18454" ry="0.49099001" gorn="0.12.0.2.0.1.0.2" rx="0.44865799" id="circle9"  cy="4.20502"/>
                        </g>
                    </g>
                </g>
            </g>
        </g>
    </g>
    <g transform="translate(2.72999,16.693)" >
        <g gorn="0.13.0" id="sot23-5" >
            <g gorn="0.13.0.0" id="g407" >
                <rect width="1.1339999" x="0.850003" gorn="0.13.0.0.0" style="fill:#dcdcdc" id="rect409" height="7.6540298"  y="0"/>
                <rect width="1.1339999" x="6.2360001" gorn="0.13.0.0.1" style="fill:#dcdcdc" id="rect411" height="7.6540298"  y="0"/>
                <rect width="1.1339999" x="3.543" gorn="0.13.0.0.2" style="fill:#dcdcdc" id="rect413" height="3.118"  y="4.5349998"/>
                <rect width="8.2200203" x="0" gorn="0.13.0.0.3" style="fill:#303030" id="rect415" height="4.5349998"  y="1.559"/>
            </g>
        </g>
    </g>
</svg>
