<?xml version='1.0' encoding='UTF-8' standalone='no'?>
<!-- Created with Fritzing (http://www.fritzing.org/) -->
<svg xmlns="http://www.w3.org/2000/svg" viewBox="0 0 57.6 50.4" id="svg9741" y="0in" width="0.8in" height="0.7in"  version="1.2" gorn="0" x="0in">
    <desc>
        <referenceFile>Adafruit Push Button Powerswitch_breadboard.svg</referenceFile>
    </desc>
    <metadata id="metadata10210" />
    <defs id="defs10208" />
    <desc id="desc9743" >Fritzing breadboard generated by brd2svg</desc>
    <g id="icon"  gorn="0.3">
        <path id="path9747" style="fill:#014cb1;stroke:none;stroke-width:0"  gorn="0.3.0" d="m 52.2,0 a 5.4,5.4 0 0 1 5.4,5.4 l 0,39.6 a 5.4,5.4 0 0 1 -5.4,5.4 l -46.8,0 A 5.4,5.4 0 0 1 0,45 L 0,5.4 A 5.4,5.4 0 0 1 5.4,0 L 52.2,0 M 38.988,25.2 a 2.556,2.556 0 1 0 5.112,0 2.556,2.556 0 1 0 -5.112,0 z m -25.488,0 a 2.556,2.556 0 1 0 5.112,0 2.556,2.556 0 1 0 -5.112,0 z M 47.8715,5.76 a 3.9685,3.9685 0 1 0 7.93699,0 3.9685,3.9685 0 1 0 -7.93699,0 z m 0,38.88 a 3.9685,3.9685 0 1 0 7.93699,0 3.9685,3.9685 0 1 0 -7.93699,0 z M 1.7915,5.76 a 3.9685,3.9685 0 1 0 7.93699,0 3.9685,3.9685 0 1 0 -7.93699,0 z m 0,38.88 a 3.9685,3.9685 0 1 0 7.93699,0 3.9685,3.9685 0 1 0 -7.93699,0 z M 52.56,36 a 1.44,1.44 0 1 0 2.88,0 1.44,1.44 0 1 0 -2.88,0 z m 0,-7.2 a 1.44,1.44 0 1 0 2.88,0 1.44,1.44 0 1 0 -2.88,0 z m 0,-7.2 a 1.44,1.44 0 1 0 2.88,0 1.44,1.44 0 1 0 -2.88,0 z m 0,-7.2 a 1.44,1.44 0 1 0 2.88,0 1.44,1.44 0 1 0 -2.88,0 z M 2.16,36 a 1.44,1.44 0 1 0 2.88,0 1.44,1.44 0 1 0 -2.88,0 z m 0,-7.2 a 1.44,1.44 0 1 0 2.88,0 1.44,1.44 0 1 0 -2.88,0 z m 0,-7.2 a 1.44,1.44 0 1 0 2.88,0 1.44,1.44 0 1 0 -2.88,0 z m 0,-7.2 a 1.44,1.44 0 1 0 2.88,0 1.44,1.44 0 1 0 -2.88,0 z m 17.892,28.512 a 1.692,1.692 0 1 0 3.384,0 1.692,1.692 0 1 0 -3.384,0 z m 0,-35.424 a 1.692,1.692 0 1 0 3.384,0 1.692,1.692 0 1 0 -3.384,0 z m 14.112,35.424 a 1.692,1.692 0 1 0 3.384,0 1.692,1.692 0 1 0 -3.384,0 z m 0,-35.424 a 1.692,1.692 0 1 0 3.384,0 1.692,1.692 0 1 0 -3.384,0 z"/>
        <g id="g9749"  gorn="0.3.1">
            <title id="title9751" >layer 21</title>
            <g id="g9753"  gorn="0.3.1.1">
                <title id="title9755" >text:In</title>
                <g  transform="translate(51.12,15.84)">
                    <g id="g9757"  gorn="0.3.1.1.1.0">
                        <g  transform="matrix(0,-1,1,0,0,0)">
                            <g id="g9759"  gorn="0.3.1.1.1.0.0.0">
                                <text font-size="3.3408" id="text9761" y="0" style="font-size:3.34080005px;font-family:OCRA;text-anchor:start;fill:#ffffff;stroke:none;stroke-width:0"  gorn="0.3.1.1.1.0.0.0.0" x="0">In</text>
                            </g>
                        </g>
                    </g>
                </g>
            </g>
            <g id="g9763"  gorn="0.3.1.2">
                <title id="title9765" >text:Out</title>
                <g  transform="translate(50.76,25.2)">
                    <g id="g9767"  gorn="0.3.1.2.1.0">
                        <g  transform="matrix(0,-1,1,0,0,0)">
                            <g id="g9769"  gorn="0.3.1.2.1.0.0.0">
                                <text font-size="3.3408" id="text9771" y="0" style="font-size:3.34080005px;font-family:OCRA;text-anchor:start;fill:#ffffff;stroke:none;stroke-width:0"  gorn="0.3.1.2.1.0.0.0.0" x="0">Out</text>
                            </g>
                        </g>
                    </g>
                </g>
            </g>
            <g id="g9773"  gorn="0.3.1.3">
                <title id="title9775" >text:G</title>
                <g  transform="translate(50.76,29.88)">
                    <g id="g9777"  gorn="0.3.1.3.1.0">
                        <g  transform="matrix(0,-1,1,0,0,0)">
                            <g id="g9779"  gorn="0.3.1.3.1.0.0.0">
                                <text font-size="3.3408" id="text9781" y="0" style="font-size:3.34080005px;font-family:OCRA;text-anchor:start;fill:#ffffff;stroke:none;stroke-width:0"  gorn="0.3.1.3.1.0.0.0.0" x="0">G</text>
                            </g>
                        </g>
                    </g>
                </g>
            </g>
            <g id="g9783"  gorn="0.3.1.4">
                <title id="title9785" >text:Off</title>
                <g  transform="translate(51.12,38.88)">
                    <g id="g9787"  gorn="0.3.1.4.1.0">
                        <g  transform="matrix(0,-1,1,0,0,0)">
                            <g id="g9789"  gorn="0.3.1.4.1.0.0.0">
                                <text font-size="3.3408" id="text9791" y="0" style="font-size:3.34080005px;font-family:OCRA;text-anchor:start;fill:#ffffff;stroke:none;stroke-width:0"  gorn="0.3.1.4.1.0.0.0.0" x="0">Off</text>
                            </g>
                        </g>
                    </g>
                </g>
            </g>
            <g id="g9793"  gorn="0.3.1.5">
                <title id="title9795" >text:In</title>
                <g  transform="translate(9.72,16.2)">
                    <g id="g9797"  gorn="0.3.1.5.1.0">
                        <g  transform="matrix(0,-1,1,0,0,0)">
                            <g id="g9799"  gorn="0.3.1.5.1.0.0.0">
                                <text font-size="3.3408" id="text9801" y="0" style="font-size:3.34080005px;font-family:OCRA;text-anchor:start;fill:#ffffff;stroke:none;stroke-width:0"  gorn="0.3.1.5.1.0.0.0.0" x="0">In</text>
                            </g>
                        </g>
                    </g>
                </g>
            </g>
            <g id="g9803"  gorn="0.3.1.6">
                <title id="title9805" >text:Out</title>
                <g  transform="translate(9.36,25.56)">
                    <g id="g9807"  gorn="0.3.1.6.1.0">
                        <g  transform="matrix(0,-1,1,0,0,0)">
                            <g id="g9809"  gorn="0.3.1.6.1.0.0.0">
                                <text font-size="3.3408" id="text9811" y="0" style="font-size:3.34080005px;font-family:OCRA;text-anchor:start;fill:#ffffff;stroke:none;stroke-width:0"  gorn="0.3.1.6.1.0.0.0.0" x="0">Out</text>
                            </g>
                        </g>
                    </g>
                </g>
            </g>
            <g id="g9813"  gorn="0.3.1.7">
                <title id="title9815" >text:G</title>
                <g  transform="translate(9.72,29.88)">
                    <g id="g9817"  gorn="0.3.1.7.1.0">
                        <g  transform="matrix(0,-1,1,0,0,0)">
                            <g id="g9819"  gorn="0.3.1.7.1.0.0.0">
                                <text font-size="3.3408" id="text9821" y="0" style="font-size:3.34080005px;font-family:OCRA;text-anchor:start;fill:#ffffff;stroke:none;stroke-width:0"  gorn="0.3.1.7.1.0.0.0.0" x="0">G</text>
                            </g>
                        </g>
                    </g>
                </g>
            </g>
            <g id="g9823"  gorn="0.3.1.8">
                <title id="title9825" >text:Off</title>
                <g  transform="translate(9.72,39.24)">
                    <g id="g9827"  gorn="0.3.1.8.1.0">
                        <g  transform="matrix(0,-1,1,0,0,0)">
                            <g id="g9829"  gorn="0.3.1.8.1.0.0.0">
                                <text font-size="3.3408" id="text9831" y="0" style="font-size:3.34080005px;font-family:OCRA;text-anchor:start;fill:#ffffff;stroke:none;stroke-width:0"  gorn="0.3.1.8.1.0.0.0.0" x="0">Off</text>
                            </g>
                        </g>
                    </g>
                </g>
            </g>
            <g id="g9833"  gorn="0.3.1.9">
                <title id="title9835" >text:Mom. Powerswitch</title>
                <text font-size="3.3408" id="text9837" y="50.040001" style="font-size:3.34080005px;font-family:OCRA;text-anchor:start;fill:#ffffff;stroke:none;stroke-width:0"  gorn="0.3.1.9.1" x="10.08">Mom. Powerswitch</text>
            </g>
            <g id="g9839"  gorn="0.3.1.10">
                <title id="title9841" >text:3-14V</title>
                <text font-size="3.3408" id="text9843" y="3.5999999" style="font-size:3.34080005px;font-family:OCRA;text-anchor:start;fill:#ffffff;stroke:none;stroke-width:0"  gorn="0.3.1.10.1" x="11.88">3-14V</text>
            </g>
            <g id="g9845"  gorn="0.3.1.11">
                <title id="title9847" >text:3A Max</title>
                <text font-size="3.3408" id="text9849" y="3.5999999" style="font-size:3.34080005px;font-family:OCRA;text-anchor:start;fill:#ffffff;stroke:none;stroke-width:0"  gorn="0.3.1.11.1" x="33.119999">3A Max</text>
            </g>
            <g id="g9851"  gorn="0.3.1.12">
                <title id="title9853" >element:C1</title>
                <g id="g9855"  gorn="0.3.1.12.1">
                    <title id="title9857" >package:C0805</title>
                </g>
            </g>
            <g id="g9859"  gorn="0.3.1.13">
                <title id="title9861" >element:CN1</title>
                <g id="g9863"  gorn="0.3.1.13.1">
                    <title id="title9865" >package:1X04-CLEANBIG</title>
                </g>
            </g>
            <g id="g9867"  gorn="0.3.1.14">
                <title id="title9869" >element:CN2</title>
                <g id="g9871"  gorn="0.3.1.14.1">
                    <title id="title9873" >package:1X04-CLEANBIG</title>
                </g>
            </g>
            <g id="g9875"  gorn="0.3.1.15">
                <title id="title9877" >element:FID1</title>
                <g id="g9879"  gorn="0.3.1.15.1">
                    <title id="title9881" >package:FIDUCIAL_1MM</title>
                </g>
            </g>
            <g id="g9883"  gorn="0.3.1.16">
                <title id="title9885" >element:FID2</title>
                <g id="g9887"  gorn="0.3.1.16.1">
                    <title id="title9889" >package:FIDUCIAL_1MM</title>
                </g>
            </g>
            <g id="g9891"  gorn="0.3.1.17">
                <title id="title9893" >element:FID3</title>
                <g id="g9895"  gorn="0.3.1.17.1">
                    <title id="title9897" >package:FIDUCIAL_1MM</title>
                </g>
            </g>
            <g id="g9899"  gorn="0.3.1.18">
                <title id="title9901" >element:IC1</title>
                <g id="g9903"  gorn="0.3.1.18.1">
                    <title id="title9905" >package:MC14093B-TSSOP14</title>
                </g>
            </g>
            <g id="g9907"  gorn="0.3.1.19">
                <title id="title9909" >element:LED</title>
                <g id="g9911"  gorn="0.3.1.19.1">
                    <title id="title9913" >package:CHIP-LED0805</title>
                </g>
            </g>
            <g id="g9915"  gorn="0.3.1.20">
                <title id="title9917" >element:Q1</title>
                <g id="g9919"  gorn="0.3.1.20.1">
                    <title id="title9921" >package:SOT23-BEC</title>
                </g>
            </g>
            <g id="g9923"  gorn="0.3.1.21">
                <title id="title9925" >element:Q2</title>
                <g id="g9927"  gorn="0.3.1.21.1">
                    <title id="title9929" >package:SOT23-WIDE</title>
                </g>
            </g>
            <g id="g9931"  gorn="0.3.1.22">
                <title id="title9933" >element:R1</title>
                <g id="g9935"  gorn="0.3.1.22.1">
                    <title id="title9937" >package:R0805</title>
                </g>
            </g>
            <g id="g9939"  gorn="0.3.1.23">
                <title id="title9941" >element:R2</title>
                <g id="g9943"  gorn="0.3.1.23.1">
                    <title id="title9945" >package:R0805</title>
                </g>
            </g>
            <g id="g9947"  gorn="0.3.1.24">
                <title id="title9949" >element:R3</title>
                <g id="g9951"  gorn="0.3.1.24.1">
                    <title id="title9953" >package:R0805</title>
                </g>
            </g>
            <g id="g9955"  gorn="0.3.1.25">
                <title id="title9957" >element:R4</title>
                <g id="g9959"  gorn="0.3.1.25.1">
                    <title id="title9961" >package:R0805</title>
                </g>
            </g>
            <g id="g9963"  gorn="0.3.1.26">
                <title id="title9965" >element:S1</title>
                <g id="g9967"  gorn="0.3.1.26.1">
                    <title id="title9969" >package:B3F-40XX-ROUND</title>
                    <line y2="19.799999" id="line9971" style="stroke:#ffffff;stroke-width:0.43200001;stroke-linecap:round" y1="30.6"  x1="23.4" gorn="0.3.1.26.1.1" x2="23.4"/>
                    <line y2="19.799999" id="line9973" style="stroke:#ffffff;stroke-width:0.43200001;stroke-linecap:round" y1="19.799999"  x1="34.200001" gorn="0.3.1.26.1.2" x2="23.4"/>
                    <line y2="30.6" id="line9975" style="stroke:#ffffff;stroke-width:0.43200001;stroke-linecap:round" y1="19.799999"  x1="34.200001" gorn="0.3.1.26.1.3" x2="34.200001"/>
                    <line y2="30.6" id="line9977" style="stroke:#ffffff;stroke-width:0.43200001;stroke-linecap:round" y1="30.6"  x1="23.4" gorn="0.3.1.26.1.4" x2="34.200001"/>
                    <line y2="20.52" id="line9979" style="stroke:#ffffff;stroke-width:0.14399999;stroke-linecap:round" y1="29.879999"  x1="24.120001" gorn="0.3.1.26.1.5" x2="24.120001"/>
                    <line y2="20.52" id="line9981" style="stroke:#ffffff;stroke-width:0.14399999;stroke-linecap:round" y1="20.52"  x1="33.48" gorn="0.3.1.26.1.6" x2="24.120001"/>
                    <line y2="29.879999" id="line9983" style="stroke:#ffffff;stroke-width:0.14399999;stroke-linecap:round" y1="20.52"  x1="33.48" gorn="0.3.1.26.1.7" x2="33.48"/>
                    <line y2="29.879999" id="line9985" style="stroke:#ffffff;stroke-width:0.14399999;stroke-linecap:round" y1="29.879999"  x1="24.120001" gorn="0.3.1.26.1.8" x2="33.48"/>
                    <line y2="28.08" id="line9987" style="stroke:#ffffff;stroke-width:0.43200001;stroke-linecap:round" y1="28.08"  x1="11.52" gorn="0.3.1.26.1.9" x2="10.44"/>
                    <line y2="22.32" id="line9989" style="stroke:#ffffff;stroke-width:0.43200001;stroke-linecap:round" y1="28.08"  x1="11.52" gorn="0.3.1.26.1.10" x2="11.52"/>
                    <line y2="22.32" id="line9991" style="stroke:#ffffff;stroke-width:0.43200001;stroke-linecap:round" y1="28.08"  x1="10.44" gorn="0.3.1.26.1.11" x2="10.44"/>
                    <line y2="22.32" id="line9993" style="stroke:#ffffff;stroke-width:0.43200001;stroke-linecap:round" y1="22.32"  x1="10.44" gorn="0.3.1.26.1.12" x2="11.52"/>
                    <line y2="10.8" id="line9995" style="stroke:#ffffff;stroke-width:0.43200001;stroke-linecap:round" y1="7.9200001"  x1="14.4" gorn="0.3.1.26.1.13" x2="11.52"/>
                    <line y2="20.16" id="line9997" style="stroke:#ffffff;stroke-width:0.43200001;stroke-linecap:round" y1="10.8"  x1="11.52" gorn="0.3.1.26.1.14" x2="11.52"/>
                    <line y2="7.9200001" id="line9999" style="stroke:#ffffff;stroke-width:0.43200001;stroke-linecap:round" y1="7.9200001"  x1="14.4" gorn="0.3.1.26.1.15" x2="18"/>
                    <line y2="7.9200001" id="line10001" style="stroke:#ffffff;stroke-width:0.43200001;stroke-linecap:round" y1="7.9200001"  x1="25.559999" gorn="0.3.1.26.1.16" x2="32.040001"/>
                    <line y2="7.9200001" id="line10003" style="stroke:#ffffff;stroke-width:0.43200001;stroke-linecap:round" y1="10.8"  x1="46.080002" gorn="0.3.1.26.1.17" x2="43.200001"/>
                    <line y2="7.9200001" id="line10005" style="stroke:#ffffff;stroke-width:0.43200001;stroke-linecap:round" y1="7.9200001"  x1="43.200001" gorn="0.3.1.26.1.18" x2="39.599998"/>
                    <line y2="42.48" id="line10007" style="stroke:#ffffff;stroke-width:0.43200001;stroke-linecap:round" y1="42.48"  x1="25.559999" gorn="0.3.1.26.1.19" x2="32.040001"/>
                    <line y2="42.48" id="line10009" style="stroke:#ffffff;stroke-width:0.43200001;stroke-linecap:round" y1="42.48"  x1="39.599998" gorn="0.3.1.26.1.20" x2="43.200001"/>
                    <line y2="39.599998" id="line10011" style="stroke:#ffffff;stroke-width:0.43200001;stroke-linecap:round" y1="42.48"  x1="43.200001" gorn="0.3.1.26.1.21" x2="46.080002"/>
                    <line y2="30.24" id="line10013" style="stroke:#ffffff;stroke-width:0.43200001;stroke-linecap:round" y1="39.599998"  x1="46.080002" gorn="0.3.1.26.1.22" x2="46.080002"/>
                    <line y2="30.24" id="line10015" style="stroke:#ffffff;stroke-width:0.43200001;stroke-linecap:round" y1="39.599998"  x1="11.52" gorn="0.3.1.26.1.23" x2="11.52"/>
                    <line y2="42.48" id="line10017" style="stroke:#ffffff;stroke-width:0.43200001;stroke-linecap:round" y1="39.599998"  x1="11.52" gorn="0.3.1.26.1.24" x2="14.4"/>
                    <line y2="42.48" id="line10019" style="stroke:#ffffff;stroke-width:0.43200001;stroke-linecap:round" y1="42.48"  x1="14.4" gorn="0.3.1.26.1.25" x2="18"/>
                    <line y2="22.32" id="line10021" style="stroke:#ffffff;stroke-width:0.43200001;stroke-linecap:round" y1="28.08"  x1="47.16" gorn="0.3.1.26.1.26" x2="47.16"/>
                    <line y2="28.08" id="line10023" style="stroke:#ffffff;stroke-width:0.43200001;stroke-linecap:round" y1="28.08"  x1="47.16" gorn="0.3.1.26.1.27" x2="46.080002"/>
                    <line y2="22.32" id="line10025" style="stroke:#ffffff;stroke-width:0.43200001;stroke-linecap:round" y1="22.32"  x1="46.080002" gorn="0.3.1.26.1.28" x2="47.16"/>
                    <line y2="11.52" id="line10027" style="stroke:#ffffff;stroke-width:0.43200001;stroke-linecap:round" y1="10.8"  x1="11.52" gorn="0.3.1.26.1.29" x2="10.8"/>
                    <line y2="20.16" id="line10029" style="stroke:#ffffff;stroke-width:0.43200001;stroke-linecap:round" y1="11.52"  x1="10.8" gorn="0.3.1.26.1.30" x2="10.8"/>
                    <line y2="20.16" id="line10031" style="stroke:#ffffff;stroke-width:0.43200001;stroke-linecap:round" y1="20.16"  x1="10.8" gorn="0.3.1.26.1.31" x2="11.52"/>
                    <line y2="22.32" id="line10033" style="stroke:#ffffff;stroke-width:0.43200001;stroke-linecap:round" y1="20.16"  x1="11.52" gorn="0.3.1.26.1.32" x2="11.52"/>
                    <line y2="30.24" id="line10035" style="stroke:#ffffff;stroke-width:0.43200001;stroke-linecap:round" y1="30.24"  x1="10.8" gorn="0.3.1.26.1.33" x2="11.52"/>
                    <line y2="28.08" id="line10037" style="stroke:#ffffff;stroke-width:0.43200001;stroke-linecap:round" y1="30.24"  x1="11.52" gorn="0.3.1.26.1.34" x2="11.52"/>
                    <line y2="38.880001" id="line10039" style="stroke:#ffffff;stroke-width:0.43200001;stroke-linecap:round" y1="30.24"  x1="10.8" gorn="0.3.1.26.1.35" x2="10.8"/>
                    <line y2="38.880001" id="line10041" style="stroke:#ffffff;stroke-width:0.43200001;stroke-linecap:round" y1="39.599998"  x1="11.52" gorn="0.3.1.26.1.36" x2="10.8"/>
                    <line y2="22.32" id="line10043" style="stroke:#ffffff;stroke-width:0.43200001;stroke-linecap:round" y1="28.08"  x1="46.080002" gorn="0.3.1.26.1.37" x2="46.080002"/>
                    <line y2="20.16" id="line10045" style="stroke:#ffffff;stroke-width:0.43200001;stroke-linecap:round" y1="22.32"  x1="46.080002" gorn="0.3.1.26.1.38" x2="46.080002"/>
                    <line y2="30.24" id="line10047" style="stroke:#ffffff;stroke-width:0.43200001;stroke-linecap:round" y1="30.24"  x1="46.080002" gorn="0.3.1.26.1.39" x2="46.799999"/>
                    <line y2="28.08" id="line10049" style="stroke:#ffffff;stroke-width:0.43200001;stroke-linecap:round" y1="30.24"  x1="46.080002" gorn="0.3.1.26.1.40" x2="46.080002"/>
                    <line y2="38.880001" id="line10051" style="stroke:#ffffff;stroke-width:0.43200001;stroke-linecap:round" y1="30.24"  x1="46.799999" gorn="0.3.1.26.1.41" x2="46.799999"/>
                    <line y2="39.599998" id="line10053" style="stroke:#ffffff;stroke-width:0.43200001;stroke-linecap:round" y1="38.880001"  x1="46.799999" gorn="0.3.1.26.1.42" x2="46.080002"/>
                    <line y2="20.16" id="line10055" style="stroke:#ffffff;stroke-width:0.43200001;stroke-linecap:round" y1="20.16"  x1="46.080002" gorn="0.3.1.26.1.43" x2="46.799999"/>
                    <line y2="10.8" id="line10057" style="stroke:#ffffff;stroke-width:0.43200001;stroke-linecap:round" y1="20.16"  x1="46.080002" gorn="0.3.1.26.1.44" x2="46.080002"/>
                    <line y2="20.16" id="line10059" style="stroke:#ffffff;stroke-width:0.43200001;stroke-linecap:round" y1="11.52"  x1="46.799999" gorn="0.3.1.26.1.45" x2="46.799999"/>
                    <line y2="11.52" id="line10061" style="stroke:#ffffff;stroke-width:0.43200001;stroke-linecap:round" y1="10.8"  x1="46.080002" gorn="0.3.1.26.1.46" x2="46.799999"/>
                    <circle cy="25.200001" id="circle10063" style="fill:none;stroke:#ffffff;stroke-width:0.43200001" r="10.08"  cx="28.799999" gorn="0.3.1.26.1.47"/>
                    <circle cy="25.200001" id="circle10065" style="fill:none;stroke:#ffffff;stroke-width:0.14399999" r="2.8800001"  cx="28.799999" gorn="0.3.1.26.1.48"/>
                    <circle cy="25.200001" id="circle10067" style="fill:none;stroke:#ffffff;stroke-width:0.14399999" r="2.1600001"  cx="28.799999" gorn="0.3.1.26.1.49"/>
                    <g id="g10069"  gorn="0.3.1.26.1.50">
                        <title id="title10071" >text:1</title>
                        <g  transform="translate(19.44,39.96)">
                            <g id="g10073"  gorn="0.3.1.26.1.50.1.0">
                                <g  transform="matrix(0,-1,1,0,0,0)">
                                    <g id="g10075"  gorn="0.3.1.26.1.50.1.0.0.0">
                                        <text font-size="4.176" id="text10077" y="0" style="font-size:4.17600012px;font-family:OCRA;text-anchor:start;fill:#ffffff;stroke:none;stroke-width:0"  gorn="0.3.1.26.1.50.1.0.0.0.0" x="0">1</text>
                                    </g>
                                </g>
                            </g>
                        </g>
                    </g>
                    <g id="g10079"  gorn="0.3.1.26.1.51">
                        <title id="title10081" >text:2</title>
                        <g  transform="translate(19.44,14.04)">
                            <g id="g10083"  gorn="0.3.1.26.1.51.1.0">
                                <g  transform="matrix(0,-1,1,0,0,0)">
                                    <g id="g10085"  gorn="0.3.1.26.1.51.1.0.0.0">
                                        <text font-size="4.176" id="text10087" y="0" style="font-size:4.17600012px;font-family:OCRA;text-anchor:start;fill:#ffffff;stroke:none;stroke-width:0"  gorn="0.3.1.26.1.51.1.0.0.0.0" x="0">2</text>
                                    </g>
                                </g>
                            </g>
                        </g>
                    </g>
                    <g id="g10089"  gorn="0.3.1.26.1.52">
                        <title id="title10091" >text:3</title>
                        <g  transform="translate(42.12,39.96)">
                            <g id="g10093"  gorn="0.3.1.26.1.52.1.0">
                                <g  transform="matrix(0,-1,1,0,0,0)">
                                    <g id="g10095"  gorn="0.3.1.26.1.52.1.0.0.0">
                                        <text font-size="4.176" id="text10097" y="0" style="font-size:4.17600012px;font-family:OCRA;text-anchor:start;fill:#ffffff;stroke:none;stroke-width:0"  gorn="0.3.1.26.1.52.1.0.0.0.0" x="0">3</text>
                                    </g>
                                </g>
                            </g>
                        </g>
                    </g>
                    <g id="g10099"  gorn="0.3.1.26.1.53">
                        <title id="title10101" >text:4</title>
                        <g  transform="translate(42.12,13.68)">
                            <g id="g10103"  gorn="0.3.1.26.1.53.1.0">
                                <g  transform="matrix(0,-1,1,0,0,0)">
                                    <g id="g10105"  gorn="0.3.1.26.1.53.1.0.0.0">
                                        <text font-size="4.176" id="text10107" y="0" style="font-size:4.17600012px;font-family:OCRA;text-anchor:start;fill:#ffffff;stroke:none;stroke-width:0"  gorn="0.3.1.26.1.53.1.0.0.0.0" x="0">4</text>
                                    </g>
                                </g>
                            </g>
                        </g>
                    </g>
                </g>
            </g>
            <g id="g10109"  gorn="0.3.1.27">
                <title id="title10111" >element:U$1</title>
                <g id="g10113"  gorn="0.3.1.27.1">
                    <title id="title10115" >package:ADAFRUIT_2.5MM</title>
                </g>
            </g>
            <g id="g10117"  gorn="0.3.1.28">
                <title id="title10119" >element:U$2</title>
                <g id="g10121"  gorn="0.3.1.28.1">
                    <title id="title10123" >package:ADAFRUIT_2.5MM</title>
                </g>
            </g>
        </g>
        <circle cy="36" id="connector0pin" style="fill:none;stroke:#9a916c;stroke-width:1.08000004" r="1.98"  cx="54" gorn="0.3.2" connectorname="OFF"/>
        <circle cy="28.799999" id="connector1pin" style="fill:none;stroke:#9a916c;stroke-width:1.08000004" r="1.98"  cx="54" gorn="0.3.3" connectorname="GND"/>
        <circle cy="21.6" id="connector2pin" style="fill:none;stroke:#9a916c;stroke-width:1.08000004" r="1.98"  cx="54" gorn="0.3.4" connectorname="OUT"/>
        <circle cy="14.4" id="connector3pin" style="fill:none;stroke:#9a916c;stroke-width:1.08000004" r="1.98"  cx="54" gorn="0.3.5" connectorname="IN"/>
        <circle cy="36" id="connector4pin" style="fill:none;stroke:#9a916c;stroke-width:1.08000004" r="1.98"  cx="3.5999999" gorn="0.3.6" connectorname="OFF"/>
        <circle cy="28.799999" id="connector5pin" style="fill:none;stroke:#9a916c;stroke-width:1.08000004" r="1.98"  cx="3.5999999" gorn="0.3.7" connectorname="GND"/>
        <circle cy="21.6" id="connector6pin" style="fill:none;stroke:#9a916c;stroke-width:1.08000004" r="1.98"  cx="3.5999999" gorn="0.3.8" connectorname="OUT"/>
        <circle cy="14.4" id="connector7pin" style="fill:none;stroke:#9a916c;stroke-width:1.08000004" r="1.98"  cx="3.5999999" gorn="0.3.9" connectorname="IN"/>
        <circle cy="42.911999" id="connector8pin" style="fill:none;stroke:#9a916c;stroke-width:1.90799999" r="2.6459999"  cx="21.743999" gorn="0.3.10" connectorname="1"/>
        <circle cy="7.4879999" id="connector9pin" style="fill:none;stroke:#9a916c;stroke-width:1.90799999" r="2.6459999"  cx="21.743999" gorn="0.3.11" connectorname="2"/>
        <circle cy="42.911999" id="connector10pin" style="fill:none;stroke:#9a916c;stroke-width:1.90799999" r="2.6459999"  cx="35.855999" gorn="0.3.12" connectorname="3"/>
        <circle cy="7.4879999" id="connector11pin" style="fill:none;stroke:#9a916c;stroke-width:1.90799999" r="2.6459999"  cx="35.855999" gorn="0.3.13" connectorname="4"/>
    </g>
    <g  transform="translate(9.2443,8.19216)">
        <g id="b3f-40xx-round"  gorn="0.4.0">
            <g  transform="matrix(0,-1,1,0,2.54786,36.5635)">
                <g id="g10176"  gorn="0.4.0.0.0">
                    <metadata id="metadata39" >
                        <rdf:RDF xmlns:rdf="http://www.w3.org/1999/02/22-rdf-syntax-ns#">
                            <cc:Work xmlns:rdf="http://www.w3.org/1999/02/22-rdf-syntax-ns#" rdf:about="" xmlns:cc="http://creativecommons.org/ns#">
                                <dc:format xmlns:dc="http://purl.org/dc/elements/1.1/">image/svg+xml</dc:format>
                                <dc:type xmlns:rdf="http://www.w3.org/1999/02/22-rdf-syntax-ns#" xmlns:dc="http://purl.org/dc/elements/1.1/" rdf:resource="http://purl.org/dc/dcmitype/StillImage"/>
                                <dc:title xmlns:dc="http://purl.org/dc/elements/1.1/"/>
                            </cc:Work>
                        </rdf:RDF>
                    </metadata>
                    <defs id="defs37" />
                    <g  transform="matrix(0,-1,1,0,-1.52588e-6,34.0157)">
                        <g id="g8143"  gorn="0.4.0.0.0.2.0">
                            <rect id="rect8997" y="4.9999499e-006" style="fill:#cccccc;stroke:#cccccc;stroke-width:0;stroke-miterlimit:4;stroke-dasharray:none;stroke-dashoffset:11.71939468;stroke-opacity:1" width="3.4732201" height="39.111401"  rx="2.0088" gorn="0.4.0.0.0.2.0.0" x="8.1410398"/>
                            <rect id="rect8999" y="4.9999499e-006" style="fill:#cccccc;stroke:#cccccc;stroke-width:0;stroke-miterlimit:4;stroke-dasharray:none;stroke-dashoffset:11.71939468;stroke-opacity:1" width="3.4732201" height="39.111401"  rx="2.0088" gorn="0.4.0.0.0.2.0.1" x="22.335899"/>
                            <g  transform="matrix(1.00001,0,0,1.00001,0,2.64191)">
                                <g id="g10184"  gorn="0.4.0.0.0.2.0.2.0">
                                    <g  transform="matrix(0,-1,1,0,0,34.0154)">
                                        <g id="g8954"  gorn="0.4.0.0.0.2.0.2.0.0.0">
                                            <polygon id="polygon8956" points="34.0154,31.0304 34.0154,2.98395 31.0304,0 2.98395,0 0,2.98395 0,31.0304 2.98395,34.0154 31.0314,34.0154 "  gorn="0.4.0.0.0.2.0.2.0.0.0.0"/>
                                            <g id="g8958"  gorn="0.4.0.0.0.2.0.2.0.0.0.1">
                                                <path connector-curvature="0" id="path8960" style="fill:#999999"  gorn="0.4.0.0.0.2.0.2.0.0.0.1.0" d="m 31.7914,29.3844 c 0,1.32798 -1.07998,2.41196 -2.41096,2.41196 l -24.7476,2e-5 c -1.32598,0 -2.40895,-1.08398 -2.40895,-2.41196 l 0,-24.7525 c 0,-1.32598 1.08298,-2.40895 2.40895,-2.40895 l 24.7516,0 c 1.32697,0 2.40695,1.08298 2.40695,2.40895 l -3e-5,24.7525 0,0 z"/>
                                                <circle cy="6.52988" id="circle8962" r="2.56195"  cx="6.5288801" gorn="0.4.0.0.0.2.0.2.0.0.0.1.1"/>
                                                <circle cy="6.5758801" id="circle8964" r="2.56095"  cx="27.558399" gorn="0.4.0.0.0.2.0.2.0.0.0.1.2"/>
                                                <circle cy="27.603399" id="circle8966" r="2.56195"  cx="27.5124" gorn="0.4.0.0.0.2.0.2.0.0.0.1.3"/>
                                                <circle cy="27.555599" id="circle8968" r="2.56195"  cx="6.48388" gorn="0.4.0.0.0.2.0.2.0.0.0.1.4"/>
                                                <circle cy="17.0086" id="circle8970" style="fill:#3f3f3f" r="8.6238699"  cx="17.0056" gorn="0.4.0.0.0.2.0.2.0.0.0.1.5"/>
                                                <circle cy="17.0086" id="circle8972" style="fill:#2d2d2d" r="8.6238699"  cx="17.0056" gorn="0.4.0.0.0.2.0.2.0.0.0.1.6"/>
                                                <circle cy="18.0326" id="circle8974" style="opacity:0.6" r="7.5878601"  cx="17.1567" gorn="0.4.0.0.0.2.0.2.0.0.0.1.7"/>
                                                <circle cy="17.059601" id="circle8976" style="fill:#313131" r="7.3948302"  cx="17.017599" gorn="0.4.0.0.0.2.0.2.0.0.0.1.8"/>
                                                <path connector-curvature="0" id="path8978" style="opacity:0.5;fill:#ffffff"  gorn="0.4.0.0.0.2.0.2.0.0.0.1.9" d="M 6.19788,6.39588 C 6.2498795,6.276881 6.340878,6.182882 6.473878,6.161882 L 6.219881,4.545912 c -0.096999,0.016 -0.198998,0.003 -0.293988,0.034 l -0.002,-0.008 C 5.3259,4.75491 4.8809,5.2009 4.6499,5.76888 l 1.54798,0.626994 z"/>
                                                <path connector-curvature="0" id="path8980" style="opacity:0.5;fill:#ffffff"  gorn="0.4.0.0.0.2.0.2.0.0.0.1.10" d="m 27.2244,6.44088 c 0.05,-0.122998 0.141997,-0.215996 0.274995,-0.236996 L 27.2504,4.58991 c -0.101998,0.018 -0.198996,0.003 -0.297994,0.031 l -0.004,-0.009 c -0.59099,0.182996 -1.03898,0.627988 -1.26797,1.19698 L 27.2244,6.44088 Z"/>
                                                <path connector-curvature="0" id="path8982" style="opacity:0.5;fill:#ffffff"  gorn="0.4.0.0.0.2.0.2.0.0.0.1.11" d="m 27.1814,27.4684 c 0.051,-0.124997 0.140997,-0.216996 0.274995,-0.237995 L 27.2045,25.6175 c -0.098,0.018 -0.198996,0.004 -0.293994,0.033 l -0.004,-0.014 c -0.594989,0.183996 -1.04298,0.628988 -1.26898,1.19898 L 27.1814,27.4684 Z"/>
                                                <path connector-curvature="0" id="path8984" style="opacity:0.5;fill:#ffffff"  gorn="0.4.0.0.0.2.0.2.0.0.0.1.12" d="m 6.15188,27.4234 c 0.050999,-0.122998 0.142996,-0.212996 0.276996,-0.235996 l -0.253994,-1.61497 c -0.097998,0.023 -0.198996,0.004 -0.294994,0.033 l -0.003,-0.008 c -0.596989,0.179997 -1.04198,0.626988 -1.27198,1.19698 L 6.15188,27.4234 Z"/>
                                                <path connector-curvature="0" id="path8986" style="opacity:0.6;fill:#ffffff"  gorn="0.4.0.0.0.2.0.2.0.0.0.1.13" d="M 19.6636,10.1668 C 19.0916,9.94378 18.4887,9.78379 17.8507,9.70985 16.2617,9.53381 14.7427,9.88481 13.4438,10.6048 l -0.160996,0.420992 c 1.44998,-0.774986 3.13994,-1.13598 4.8979,-0.937987 0.54199,0.063 1.06798,0.183996 1.56697,0.343994 L 19.6636,10.1668 Z"/>
                                            </g>
                                        </g>
                                    </g>
                                </g>
                            </g>
                        </g>
                    </g>
                </g>
            </g>
        </g>
    </g>
    <g  transform="translate(22.612008,-0.0766753)">
        <g id="adafruit_2.5mm"  gorn="0.5.0">
            <path id="path10204" style="fill:#dcdcdc"  gorn="0.5.0.0" d="M 9.747,3.082 C 9.724,2.94 9.647,2.899 9.461,2.839 9.31903,2.794 8.37202,2.492 8.37202,2.492 c 0,0 -0.66,-0.249 -1.15,0.103 -0.066,0.048 -0.134,0.102 -0.203,0.16 0.058,-0.069 0.112,-0.137 0.159,-0.203 0.352,-0.49 0.101,-1.15 0.101,-1.15 0,0 -0.30302,-0.947 -0.34902,-1.089 C 6.87,0.127 6.83,0.05 6.687,0.028 6.545,0.005 6.483,0.066 6.369,0.225 6.282,0.345 5.702,1.153001 5.702,1.153001 5.702,1.153001 5.261,1.704 5.445,2.279 5.47,2.356 5.5,2.438 5.534,2.521 5.486,2.445 5.438,2.372 5.39,2.307 5.032,1.821 4.328,1.855 4.328,1.855 c 0,0 -0.995,-0.004 -1.143,-0.004 -0.195,0 -0.281,0.014 -0.347,0.143 -0.065,0.128 -0.027,0.206 0.089,0.364 0.088,0.12 0.677,0.921002 0.677,0.921002 0,0 0.388,0.59 0.991001,0.592 0.081,0 0.168,-0.003 0.257,-0.01 C 4.765,3.883 4.681,3.907 4.604,3.932 4.031,4.122 3.845998,4.802998 3.845998,4.802998 c 0,0 -0.31,0.943999 -0.357,1.085 C 3.428,6.074 3.416,6.16 3.518,6.262 3.62,6.364 3.706,6.352 3.892,6.29 4.033,6.244 4.977,5.931 4.977,5.931 c 0,0 0.681,-0.187 0.868997,-0.760003 0.025,-0.077 0.049,-0.16 0.07,-0.247 C 5.91,5.014 5.907,5.1 5.907,5.181 c 0.004,0.603 0.594,0.99 0.594,0.99 0,0 0.802001,0.588 0.922003,0.675 C 7.58102,6.962 7.659,7 7.78802,6.935 7.91597,6.869 7.93102,6.783 7.93001,6.588 7.929,6.439 7.92403,5.445 7.92403,5.445 7.92403,5.445 7.95701,4.74 7.47,4.383 7.40498,4.335 7.33198,4.287 7.25602,4.24 c 0.083,0.034 0.165,0.064 0.242,0.088 0.575,0.183 1.125,-0.259 1.125,-0.259 0,0 0.80696,-0.5809998 0.92699,-0.6679998 C 9.70898,3.286 9.76903,3.224 9.747,3.082 Z M 6.322,2.35 C 6.43,2.367 6.484,2.598 6.442,2.865 6.4,3.132 6.278,3.335 6.169,3.318 6.061,3.301 6.007,3.07 6.049,2.803 6.091,2.535 6.213,2.332 6.322,2.35 Z M 4.933,3.059 C 4.983,2.961 5.219,2.981 5.46,3.104 5.701,3.227 5.857,3.406 5.807,3.503 5.757,3.601 5.521,3.581 5.28,3.458 5.038,3.335 4.883,3.157 4.933,3.059 Z M 5.665,4.393 C 5.474,4.584 5.256,4.677 5.178,4.599 5.101,4.521 5.193,4.303 5.384,4.112 5.575,3.92 5.793,3.827 5.871,3.905 5.949,3.983 5.857,4.201 5.665,4.393 Z M 6.719,4.842 C 6.6210001,4.892 6.442,4.737 6.319,4.496 6.196,4.254 6.175,4.018 6.273,3.968 6.371,3.918 6.55,4.073 6.673,4.314 6.796,4.556 6.817,4.792 6.719,4.842 Z M 6.973,3.725 C 6.706,3.767 6.475,3.714 6.457,3.606 6.44,3.497 6.643,3.375 6.91,3.332 7.177,3.289 7.408,3.343 7.425,3.451 7.443,3.56 7.24003,3.682 6.973,3.725 Z"/>
        </g>
    </g>
</svg>
