<?xml version='1.0' encoding='utf-8'?>
<!-- Generator: Adobe Illustrator 20.0.0, SVG Export Plug-In . SVG Version: 6.00 Build 0)  -->
<svg xmlns="http://www.w3.org/2000/svg" baseProfile="tiny" width="1.37794in" viewBox="0 0 99.212 100.654"  xml:space="preserve" id="Layer_1" xmlns:xml="http://www.w3.org/XML/1998/namespace" x="0px" height="1.39797in" gorn="0" y="0px" version="1.2">
    <desc >
        <referenceFile >Adafruit OLED Monochrome 128x64 1.3 inch_breadboard.svg</referenceFile>
    </desc>
    <desc >Fritzing breadboard generated by brd2svg</desc>
    <g  id="breadboard" gorn="0.2">
        <g  id="icon" gorn="0.2.0">
            <path fill="#014CB1"  d="M82.205,94.985V83.646H17.008v11.339c0,3.131-2.538,5.669-5.669,5.669c0,0,0,0,0,0C5.077,100.654,0,95.578,0,89.315c0,0,0,0,0,0V9.945C0.392,4.074,5.468-0.368,11.339,0.024h76.535c6.262,0,11.339,5.076,11.339,11.339v0v77.953c0,6.262-5.076,11.339-11.339,11.339c0,0,0,0,0,0C84.743,100.654,82.205,98.116,82.205,94.985C82.205,94.985,82.205,94.985,82.205,94.985 M22.989,8.726c0,0.783,0.635,1.417,1.417,1.417c0.783,0,1.417-0.635,1.417-1.417s-0.635-1.417-1.417-1.417C23.624,7.309,22.989,7.943,22.989,8.726z M30.189,8.726c0,0.783,0.635,1.417,1.417,1.417c0.783,0,1.417-0.635,1.417-1.417s-0.635-1.417-1.417-1.417S30.189,7.943,30.189,8.726z M37.389,8.726c0,0.783,0.635,1.417,1.417,1.417s1.417-0.635,1.417-1.417s-0.635-1.417-1.417-1.417S37.389,7.943,37.389,8.726z M44.589,8.726c0,0.783,0.635,1.417,1.417,1.417c0.783,0,1.417-0.635,1.417-1.417c0-0.783-0.635-1.417-1.417-1.417S44.589,7.943,44.589,8.726z M51.789,8.726c0,0.783,0.635,1.417,1.417,1.417s1.417-0.635,1.417-1.417s-0.635-1.417-1.417-1.417S51.789,7.943,51.789,8.726z M58.989,8.726c0,0.783,0.635,1.417,1.417,1.417s1.417-0.635,1.417-1.417s-0.635-1.417-1.417-1.417S58.989,7.943,58.989,8.726z M66.189,8.726c0,0.783,0.635,1.417,1.417,1.417c0.783,0,1.417-0.635,1.417-1.417s-0.635-1.417-1.417-1.417C66.824,7.309,66.189,7.943,66.189,8.726z M73.389,8.726c0,0.783,0.635,1.417,1.417,1.417c0.783,0,1.417-0.635,1.417-1.417s-0.635-1.417-1.417-1.417C74.024,7.309,73.389,7.943,73.389,8.726z M87.165,8.528c-0.003,1.957,1.58,3.546,3.537,3.55c1.957,0.003,3.546-1.58,3.55-3.537c0-0.004,0-0.008,0-0.012c0.003-1.957-1.58-3.546-3.537-3.55c-1.957-0.003-3.546,1.58-3.55,3.537C87.165,8.519,87.165,8.523,87.165,8.528z M4.961,92.15c-0.003,1.957,1.58,3.546,3.537,3.549s3.546-1.58,3.549-3.537c0-0.004,0-0.008,0-0.012c0.003-1.957-1.58-3.546-3.537-3.549c-1.957-0.003-3.546,1.58-3.549,3.537C4.961,92.142,4.961,92.146,4.961,92.15z M87.165,92.15c-0.003,1.957,1.58,3.546,3.537,3.55c1.957,0.003,3.546-1.58,3.55-3.537c0-0.004,0-0.008,0-0.012c0.003-1.957-1.58-3.546-3.537-3.55c-1.957-0.003-3.546,1.58-3.55,3.537C87.165,92.142,87.165,92.146,87.165,92.15z M4.961,8.528c-0.003,1.957,1.58,3.546,3.537,3.549c1.957,0.003,3.546-1.58,3.549-3.537c0-0.004,0-0.008,0-0.012c0.003-1.957-1.58-3.546-3.537-3.549c-1.957-0.003-3.546,1.58-3.549,3.537C4.961,8.52,4.961,8.524,4.961,8.528z"/>
            <g >
                <title >layer 21</title>
                <g >
                    <title >text:Gnd</title>
                    <g  transform="matrix(1 0 0 1 71.4162 15.6936)">
                        <g >
                            <text fill="#FFFFFF" font-size="2.67264" font-family="'OCRA'" >Gnd</text>
                        </g>
                    </g>
                </g>
                <g >
                    <title >text:Vin</title>
                    <g  transform="matrix(1 0 0 1 64.5762 4.8935)">
                        <g >
                            <text fill="#FFFFFF" font-size="2.67264" font-family="'OCRA'" >Vin</text>
                        </g>
                    </g>
                </g>
                <g >
                    <title >text:3v3</title>
                    <g  transform="matrix(1 0 0 1 57.0162 15.6936)">
                        <g >
                            <text fill="#FFFFFF" font-size="2.67264" font-family="'OCRA'" >3v3</text>
                        </g>
                    </g>
                </g>
                <g >
                    <title >text:CS</title>
                    <g  transform="matrix(1 0 0 1 50.8962 4.8935)">
                        <g >
                            <text fill="#FFFFFF" font-size="2.67264" font-family="'OCRA'" >CS</text>
                        </g>
                    </g>
                </g>
                <g >
                    <title >text:Rst</title>
                    <g  transform="matrix(1 0 0 1 43.6962 15.6936)">
                        <g >
                            <text fill="#FFFFFF" font-size="2.67264" font-family="'OCRA'" >Rst</text>
                        </g>
                    </g>
                </g>
                <g >
                    <title >text:SA0</title>
                    <g  transform="matrix(1 0 0 1 35.0562 4.8935)">
                        <g >
                            <text fill="#FFFFFF" font-size="2.67264" font-family="'OCRA'" >SA0</text>
                        </g>
                    </g>
                </g>
                <g >
                    <title >text:Clk</title>
                    <g  transform="matrix(1 0 0 1 27.8562 15.6936)">
                        <g >
                            <text fill="#FFFFFF" font-size="2.67264" font-family="'OCRA'" >Clk</text>
                        </g>
                    </g>
                </g>
                <g >
                    <title >text:Data</title>
                    <g  transform="matrix(1 0 0 1 20.2962 4.8935)">
                        <g >
                            <text fill="#FFFFFF" font-size="2.67264" font-family="'OCRA'" >Data</text>
                        </g>
                    </g>
                </g>
                <g >
                    <title >text:DC</title>
                    <g  transform="matrix(1 0 0 1 36.4962 15.6936)">
                        <g >
                            <text fill="#FFFFFF" font-size="2.67264" font-family="'OCRA'" >DC</text>
                        </g>
                    </g>
                </g>
                <g >
                    <title >element:C1</title>
                    <g >
                        <title >package:0805</title>
                    </g>
                </g>
                <g >
                    <title >element:C2</title>
                    <g >
                        <title >package:0805</title>
                    </g>
                </g>
                <g >
                    <title >element:C3</title>
                    <g >
                        <title >package:0805</title>
                    </g>
                </g>
                <g >
                    <title >element:C4</title>
                    <g >
                        <title >package:0805</title>
                    </g>
                </g>
                <g >
                    <title >element:C5</title>
                    <g >
                        <title >package:0805</title>
                    </g>
                </g>
                <g >
                    <title >element:C6</title>
                    <g >
                        <title >package:0805</title>
                    </g>
                </g>
                <g >
                    <title >element:C7</title>
                    <g >
                        <title >package:0805</title>
                    </g>
                </g>
                <g >
                    <title >element:C8</title>
                    <g >
                        <title >package:0805</title>
                    </g>
                </g>
                <g >
                    <title >element:D1</title>
                    <g >
                        <title >package:SOD-323</title>
                    </g>
                </g>
                <g >
                    <title >element:D2</title>
                    <g >
                        <title >package:SOD-323</title>
                    </g>
                </g>
                <g >
                    <title >element:D3</title>
                    <g >
                        <title >package:SOD-323</title>
                    </g>
                </g>
                <g >
                    <title >element:FID1</title>
                    <g >
                        <title >package:FIDUCIAL_1MM</title>
                    </g>
                </g>
                <g >
                    <title >element:FID2</title>
                    <g >
                        <title >package:FIDUCIAL_1MM</title>
                    </g>
                </g>
                <g >
                    <title >element:JP1</title>
                    <g >
                        <title >package:1X08_ROUND_70</title>
                    </g>
                </g>
                <g >
                    <title >element:Q1</title>
                    <g >
                        <title >package:SOT23-WIDE</title>
                    </g>
                </g>
                <g >
                    <title >element:Q2</title>
                    <g >
                        <title >package:SOT23-WIDE</title>
                    </g>
                </g>
                <g >
                    <title >element:R2</title>
                    <g >
                        <title >package:0805</title>
                    </g>
                </g>
                <g >
                    <title >element:R3</title>
                    <g >
                        <title >package:0805</title>
                    </g>
                </g>
                <g >
                    <title >element:R4</title>
                    <g >
                        <title >package:0805</title>
                    </g>
                </g>
                <g >
                    <title >element:R5</title>
                    <g >
                        <title >package:0805</title>
                    </g>
                </g>
                <g >
                    <title >element:R6</title>
                    <g >
                        <title >package:0805</title>
                    </g>
                </g>
                <g >
                    <title >element:R11</title>
                    <g >
                        <title >package:0805</title>
                    </g>
                </g>
                <g >
                    <title >element:R12</title>
                    <g >
                        <title >package:0805</title>
                    </g>
                </g>
                <g >
                    <title >element:R13</title>
                    <g >
                        <title >package:0805</title>
                    </g>
                </g>
                <g >
                    <title >element:R14</title>
                    <g >
                        <title >package:0805</title>
                    </g>
                </g>
                <g >
                    <title >element:SJ1</title>
                    <g >
                        <title >package:SOLDERJUMPER_REFLOW_NOPASTE</title>
                    </g>
                </g>
                <g >
                    <title >element:SJ2</title>
                    <g >
                        <title >package:SOLDERJUMPER_REFLOW_NOPASTE</title>
                    </g>
                </g>
                <g >
                    <title >element:U$23</title>
                    <g >
                        <title >package:MOUNTINGHOLE_2.5_PLATED</title>
                        <circle fill="none" r="4.961"  stroke="#FFFFFF" stroke-width="0.432" cx="90.709" cy="8.528"/>
                    </g>
                </g>
                <g >
                    <title >element:U$24</title>
                    <g >
                        <title >package:MOUNTINGHOLE_2.5_PLATED</title>
                        <circle fill="none" r="4.961"  stroke="#FFFFFF" stroke-width="0.432" cx="8.504" cy="92.15"/>
                    </g>
                </g>
                <g >
                    <title >element:U$25</title>
                    <g >
                        <title >package:MOUNTINGHOLE_2.5_PLATED</title>
                        <circle fill="none" r="4.961"  stroke="#FFFFFF" stroke-width="0.432" cx="90.709" cy="92.15"/>
                    </g>
                </g>
                <g >
                    <title >element:U$26</title>
                    <g >
                        <title >package:MOUNTINGHOLE_2.5_PLATED</title>
                        <circle fill="none" r="4.961"  stroke="#FFFFFF" stroke-width="0.432" cx="8.504" cy="8.528"/>
                    </g>
                </g>
                <g >
                    <title >element:U$27</title>
                    <g >
                        <title >package:ADAFRUIT_2.5MM</title>
                    </g>
                </g>
                <g >
                    <title >element:U$28</title>
                    <g >
                        <title >package:LOGIC_5VREADY_5MM</title>
                    </g>
                </g>
                <g >
                    <title >element:U1</title>
                    <g >
                        <title >package:UG-2864HSWEG01_1.3_WRAPAROUND</title>
                        <line x2="98.652" fill="none"  stroke="#FFFFFF" stroke-width="0.36" stroke-linecap="round" y1="18.33" y2="18.33" x1="0.856"/>
                        <line x2="98.652" fill="none"  stroke="#FFFFFF" stroke-width="0.36" stroke-linecap="round" y1="18.33" y2="83.526" x1="98.652"/>
                        <line x2="0.856" fill="none"  stroke="#FFFFFF" stroke-width="0.36" stroke-linecap="round" y1="83.526" y2="83.526" x1="98.652"/>
                        <line x2="0.856" fill="none"  stroke="#FFFFFF" stroke-width="0.36" stroke-linecap="round" y1="83.526" y2="18.33" x1="0.856"/>
                    </g>
                </g>
                <g >
                    <title >element:U2</title>
                    <g >
                        <title >package:SOT23-5</title>
                    </g>
                </g>
            </g>
            <circle fill="none" r="1.969"  stroke="#9A916C" id="connector5pin" stroke-width="1.1027" gorn="0.2.0.2" cx="24.406" cy="8.726"/>
            <circle fill="none" r="1.969"  stroke="#9A916C" id="connector6pin" stroke-width="1.1027" gorn="0.2.0.3" cx="31.606" cy="8.726"/>
            <circle fill="none" r="1.969"  stroke="#9A916C" id="connector7pin" stroke-width="1.1027" gorn="0.2.0.4" cx="38.806" cy="8.726"/>
            <circle fill="none" r="1.969"  stroke="#9A916C" id="connector8pin" stroke-width="1.1027" gorn="0.2.0.5" cx="46.006" cy="8.726"/>
            <circle fill="none" r="1.969"  stroke="#9A916C" id="connector9pin" stroke-width="1.1027" gorn="0.2.0.6" cx="53.206" cy="8.726"/>
            <circle fill="none" r="1.969"  stroke="#9A916C" id="connector10pin" stroke-width="1.1027" gorn="0.2.0.7" cx="60.406" cy="8.726"/>
            <circle fill="none" r="1.969"  stroke="#9A916C" id="connector11pin" stroke-width="1.1027" gorn="0.2.0.8" cx="67.606" cy="8.726"/>
            <circle fill="none" r="1.969"  stroke="#9A916C" id="connector12pin" stroke-width="1.1027" gorn="0.2.0.9" cx="74.807" cy="8.726"/>
            <circle fill="none" r="4.039"  stroke="#9A916C" id="connector13pin" stroke-width="0.9921" gorn="0.2.0.10" cx="90.709" cy="8.528"/>
            <circle fill="none" r="4.039"  stroke="#9A916C" id="connector14pin" stroke-width="0.9921" gorn="0.2.0.11" cx="8.504" cy="92.15"/>
            <circle fill="none" r="4.039"  stroke="#9A916C" id="connector15pin" stroke-width="0.9921" gorn="0.2.0.12" cx="90.709" cy="92.15"/>
            <circle fill="none" r="4.039"  stroke="#9A916C" id="connector16pin" stroke-width="0.9921" gorn="0.2.0.13" cx="8.504" cy="8.528"/>
        </g>
        <g  transform="matrix(1, 0, 0, 1, 74.9585, 4.37107)">
            <g >
                <g  id="adafruit_2.5mm" gorn="0.2.1.0.0">
                    <g  transform="matrix(0, 1, -1, 0, 9.77702, 0)">
                        <g >
                            <g >
                                <path fill="#DCDCDC"  d="M9.747,3.082c-0.023-0.142-0.1-0.183-0.286-0.243C9.319,2.794,8.372,2.492,8.372,2.492s-0.66-0.249-1.15,0.103c-0.066,0.048-0.134,0.102-0.203,0.16c0.058-0.069,0.112-0.137,0.159-0.203c0.352-0.49,0.101-1.15,0.101-1.15S6.976,0.455,6.93,0.313C6.87,0.127,6.83,0.05,6.687,0.028C6.545,0.005,6.483,0.066,6.369,0.225c-0.087,0.12-0.667,0.928-0.667,0.928S5.261,1.704,5.445,2.279C5.47,2.356,5.5,2.438,5.534,2.521C5.486,2.445,5.438,2.372,5.39,2.307C5.032,1.821,4.328,1.855,4.328,1.855S3.333,1.851,3.185,1.851c-0.195,0-0.281,0.014-0.347,0.143C2.773,2.122,2.811,2.2,2.927,2.358c0.088,0.12,0.677,0.921,0.677,0.921s0.388,0.59,0.991,0.592c0.081,0,0.168-0.003,0.257-0.01C4.765,3.883,4.681,3.907,4.604,3.932c-0.573,0.19-0.758,0.871-0.758,0.871s-0.31,0.944-0.357,1.085C3.428,6.074,3.416,6.16,3.518,6.262C3.62,6.364,3.706,6.352,3.892,6.29c0.141-0.046,1.085-0.359,1.085-0.359s0.681-0.187,0.869-0.76c0.025-0.077,0.049-0.16,0.07-0.247C5.91,5.014,5.907,5.1,5.907,5.181c0.004,0.603,0.594,0.99,0.594,0.99s0.802,0.588,0.922,0.675C7.581,6.962,7.659,7,7.788,6.935C7.916,6.869,7.931,6.783,7.93,6.588C7.929,6.439,7.924,5.445,7.924,5.445S7.957,4.74,7.47,4.383C7.405,4.335,7.332,4.287,7.256,4.24c0.083,0.034,0.165,0.064,0.242,0.088c0.575,0.183,1.125-0.259,1.125-0.259S9.43,3.488,9.55,3.401C9.709,3.286,9.769,3.224,9.747,3.082z M6.322,2.35c0.108,0.017,0.162,0.248,0.12,0.515C6.4,3.132,6.278,3.335,6.169,3.318C6.061,3.301,6.007,3.07,6.049,2.803C6.091,2.535,6.213,2.332,6.322,2.35z M4.933,3.059c0.05-0.098,0.286-0.078,0.527,0.045s0.397,0.302,0.347,0.399C5.757,3.601,5.521,3.581,5.28,3.458C5.038,3.335,4.883,3.157,4.933,3.059z M5.665,4.393C5.474,4.584,5.256,4.677,5.178,4.599C5.101,4.521,5.193,4.303,5.384,4.112C5.575,3.92,5.793,3.827,5.871,3.905C5.949,3.983,5.857,4.201,5.665,4.393z M6.719,4.842c-0.098,0.05-0.277-0.105-0.4-0.346C6.196,4.254,6.175,4.018,6.273,3.968c0.098-0.05,0.277,0.105,0.4,0.346C6.796,4.556,6.817,4.792,6.719,4.842z M6.973,3.725C6.706,3.767,6.475,3.714,6.457,3.606C6.44,3.497,6.643,3.375,6.91,3.332c0.267-0.043,0.498,0.011,0.515,0.119C7.443,3.56,7.24,3.682,6.973,3.725z"/>
                            </g>
                        </g>
                    </g>
                </g>
            </g>
        </g>
    </g>
    <rect fill="#416699" width="97.795" stroke-miterlimit="10"  stroke="#0000FF" stroke-width="0.0361" x="0.797" height="65.09" y="18.33"/>
    <rect fill="#140A14" width="94.961"  x="2.215" height="51.304" y="19.749"/>
    <rect fill="#333333" width="83.764"  x="7.796" height="41.303" y="24.277"/>
    <g  transform="matrix(1 0 0 1 19.8828 47.9096)">
        <g >
            <text fill="#FFFFFF" font-size="8" font-family="'DroidSans'" >128x64 OLED</text>
        </g>
    </g>
    <path fill="#E6AA50"  d="M32.666,83.419v0.946l0.135,0.338l0.27,0.203c0.752,0.256,1.089,0.921,1.007,1.542h31.226v-0.461l0.169-0.439l0.338-0.405l0.473-0.237l0.304-0.203l0.101-0.338v-0.946v-1.047H32.666V83.419z"/>
    <polygon  points="64.291,86.448 64.291,84.433 64.427,83.892 64.731,83.419 65.204,83.115 65.744,82.98 69.529,82.98 70.069,82.879 70.508,82.575 70.846,82.102 70.948,81.595 70.948,74.229 70.846,73.655 70.508,73.182 70.069,72.911 69.529,72.776 29.828,72.776 29.321,72.911 28.848,73.182 28.544,73.655 28.409,74.229 28.409,81.595 28.544,82.102 28.848,82.575 29.321,82.879 29.828,82.98 33.646,82.98 34.186,83.115 34.626,83.419 34.963,83.892 35.065,84.433 35.065,86.448 "/>
</svg>
