<?xml version='1.0' encoding='UTF-8' standalone='no'?>
<!-- Created with Fritzing (http://www.fritzing.org/) -->
<svg xmlns="http://www.w3.org/2000/svg"  viewBox="0 0 50.4 36" x="0in" id="svg2" y="0in" height="0.5in" gorn="0" version="1.2" width="0.7in">
    <desc>
        <referenceFile>Adafruit SHT31-D_breadboard.svg</referenceFile>
    </desc>
    <metadata  id="metadata302"/>
    <defs  id="defs300"/>
    <desc  id="desc4">Fritzing breadboard generated by brd2svg</desc>
    <g  id="icon" gorn="0.3">
        <path  id="path8" style="fill:#014cb1;stroke:none;stroke-width:0" gorn="0.3.0" d="m 50.4,7.2 0,21.6 A 7.2,7.2 0 0 1 43.2,36 l -36,0 A 7.2,7.2 0 0 1 0,28.8 L 0,7.2 A 7.2,7.2 0 0 1 7.2,0 l 36,0 a 7.2,7.2 0 0 1 7.2,7.2 M 2.18268,28.8 a 1.417325,1.417325 0 1 0 2.83465,0 1.417325,1.417325 0 1 0 -2.83465,0 z m 7.2,0 a 1.417325,1.417325 0 1 0 2.83465,0 1.417325,1.417325 0 1 0 -2.83465,0 z m 7.20002,0 a 1.417325,1.417325 0 1 0 2.83465,0 1.417325,1.417325 0 1 0 -2.83465,0 z m 7.2,0 a 1.417325,1.417325 0 1 0 2.83465,0 1.417325,1.417325 0 1 0 -2.83465,0 z m 7.2,0 a 1.417325,1.417325 0 1 0 2.83465,0 1.417325,1.417325 0 1 0 -2.83465,0 z m 7.2,0 a 1.417325,1.417325 0 1 0 2.83465,0 1.417325,1.417325 0 1 0 -2.83465,0 z m 7.2,0 a 1.417325,1.417325 0 1 0 2.83465,0 1.417325,1.417325 0 1 0 -2.83465,0 z M 3.65669,7.2 a 3.54331,3.54331 0 1 0 7.08661,0 3.54331,3.54331 0 1 0 -7.08661,0 z m 36.00001,0 a 3.54331,3.54331 0 1 0 7.08661,0 3.54331,3.54331 0 1 0 -7.08661,0 z"/>
        <g  id="g10" gorn="0.3.1">
            <title  id="title12">layer 21</title>
            <g  id="g14" gorn="0.3.1.1">
                <title  id="title16">text:SHT31-D
HUMIDITY</title>
                <g  transform="translate(0,-3.3408)">
                    <g  id="g18" gorn="0.3.1.1.1.0">
                        <text  x="25.559999" id="text20" y="7.9200001" style="font-size:3.34080005px;font-family:OCRA;text-anchor:middle;fill:#ffffff;stroke:none;stroke-width:0" font-size="3.3408" gorn="0.3.1.1.1.0.0">SHT31-D</text>
                    </g>
                </g>
                <g  id="g22" gorn="0.3.1.1.2">
                    <text  x="25.559999" id="text24" y="7.9200001" style="font-size:3.34080005px;font-family:OCRA;text-anchor:middle;fill:#ffffff;stroke:none;stroke-width:0" font-size="3.3408" gorn="0.3.1.1.2.0">HUMIDITY</text>
                </g>
            </g>
            <g  id="g26" gorn="0.3.1.2">
                <title  id="title28">text:SDA</title>
                <text  x="25.559999" id="text30" y="34.919998" style="font-size:3.34080005px;font-family:OCRA;text-anchor:middle;fill:#ffffff;stroke:none;stroke-width:0" font-size="3.3408" gorn="0.3.1.2.1">SDA</text>
            </g>
            <g  id="g32" gorn="0.3.1.3">
                <title  id="title34">text:SCL</title>
                <text  x="18" id="text36" y="25.92" style="font-size:3.34080005px;font-family:OCRA;text-anchor:middle;fill:#ffffff;stroke:none;stroke-width:0" font-size="3.3408" gorn="0.3.1.3.1">SCL</text>
            </g>
            <g  id="g38" gorn="0.3.1.4">
                <title  id="title40">text:ADR</title>
                <text  x="32.759998" id="text42" y="25.92" style="font-size:3.34080005px;font-family:OCRA;text-anchor:middle;fill:#ffffff;stroke:none;stroke-width:0" font-size="3.3408" gorn="0.3.1.4.1">ADR</text>
            </g>
            <g  id="g44" gorn="0.3.1.5">
                <title  id="title46">text:RST</title>
                <text  x="39.959999" id="text48" y="34.919998" style="font-size:3.34080005px;font-family:OCRA;text-anchor:middle;fill:#ffffff;stroke:none;stroke-width:0" font-size="3.3408" gorn="0.3.1.5.1">RST</text>
            </g>
            <g  id="g50" gorn="0.3.1.6">
                <title  id="title52">text:ALR</title>
                <text  x="46.439999" id="text54" y="25.92" style="font-size:3.34080005px;font-family:OCRA;text-anchor:middle;fill:#ffffff;stroke:none;stroke-width:0" font-size="3.3408" gorn="0.3.1.6.1">ALR</text>
            </g>
            <g  id="g56" gorn="0.3.1.7">
                <title  id="title58">text:VIN</title>
                <text  x="4.3200002" id="text60" y="25.92" style="font-size:3.34080005px;font-family:OCRA;text-anchor:middle;fill:#ffffff;stroke:none;stroke-width:0" font-size="3.3408" gorn="0.3.1.7.1">VIN</text>
            </g>
            <g  id="g62" gorn="0.3.1.8">
                <title  id="title64">text:GND</title>
                <text  x="10.8" id="text66" y="34.919998" style="font-size:3.34080005px;font-family:OCRA;text-anchor:middle;fill:#ffffff;stroke:none;stroke-width:0" font-size="3.3408" gorn="0.3.1.8.1">GND</text>
            </g>
            <g  id="g68" gorn="0.3.1.9">
                <title  id="title70">element:C1</title>
                <g  id="g72" gorn="0.3.1.9.1">
                    <title  id="title74">package:0805-NO</title>
                    <line  id="line76" style="stroke:#ffffff;stroke-width:0.86400002;stroke-linecap:round" y1="19.08" x1="6.1199999" x2="6.1199999" gorn="0.3.1.9.1.1" y2="21.959999"/>
                </g>
            </g>
            <g  id="g78" gorn="0.3.1.10">
                <title  id="title80">element:FID2</title>
                <g  id="g82" gorn="0.3.1.10.1">
                    <title  id="title84">package:FIDUCIAL_1MM</title>
                </g>
            </g>
            <g  id="g86" gorn="0.3.1.11">
                <title  id="title88">element:FID3</title>
                <g  id="g90" gorn="0.3.1.11.1">
                    <title  id="title92">package:FIDUCIAL_1MM</title>
                </g>
            </g>
            <g  id="g94" gorn="0.3.1.12">
                <title  id="title96">element:JP2</title>
                <g  id="g98" gorn="0.3.1.12.1">
                    <title  id="title100">package:1X07_ROUND_70</title>
                </g>
            </g>
            <g  id="g102" gorn="0.3.1.13">
                <title  id="title104">element:R1</title>
                <g  id="g106" gorn="0.3.1.13.1">
                    <title  id="title108">package:0805-NO</title>
                    <line  id="line110" style="stroke:#ffffff;stroke-width:0.86400002;stroke-linecap:round" y1="18" x1="16.92" x2="14.04" gorn="0.3.1.13.1.1" y2="18"/>
                </g>
            </g>
            <g  id="g112" gorn="0.3.1.14">
                <title  id="title114">element:R2</title>
                <g  id="g116" gorn="0.3.1.14.1">
                    <title  id="title118">package:0805-NO</title>
                    <line  id="line120" style="stroke:#ffffff;stroke-width:0.86400002;stroke-linecap:round" y1="19.08" x1="24.84" x2="24.84" gorn="0.3.1.14.1.1" y2="21.959999"/>
                </g>
            </g>
            <g  id="g122" gorn="0.3.1.15">
                <title  id="title124">element:R3</title>
                <g  id="g126" gorn="0.3.1.15.1">
                    <title  id="title128">package:_0805MP</title>
                    <line  id="line130" style="stroke:#ffffff;stroke-width:0.57599998;stroke-linecap:round" y1="18" x1="34.919998" x2="32.040001" gorn="0.3.1.15.1.1" y2="18"/>
                </g>
            </g>
            <g  id="g132" gorn="0.3.1.16">
                <title  id="title134">element:R4</title>
                <g  id="g136" gorn="0.3.1.16.1">
                    <title  id="title138">package:0805-NO</title>
                    <line  id="line140" style="stroke:#ffffff;stroke-width:0.86400002;stroke-linecap:round" y1="19.08" x1="42.84" x2="42.84" gorn="0.3.1.16.1.1" y2="21.959999"/>
                </g>
            </g>
            <g  id="g142" gorn="0.3.1.17">
                <title  id="title144">element:U$1</title>
                <g  id="g146" gorn="0.3.1.17.1">
                    <title  id="title148">package:MOUNTINGHOLE_2.5_PLATED</title>
                    <circle  cx="7.1999998" id="circle150" r="5.6692901" style="fill:none;stroke:#ffffff;stroke-width:0.57599998" gorn="0.3.1.17.1.1" cy="7.1999998"/>
                </g>
            </g>
            <g  id="g152" gorn="0.3.1.18">
                <title  id="title154">element:U$2</title>
                <g  id="g156" gorn="0.3.1.18.1">
                    <title  id="title158">package:MOUNTINGHOLE_2.5_PLATED</title>
                    <circle  cx="43.200001" id="circle160" r="5.6692901" style="fill:none;stroke:#ffffff;stroke-width:0.57599998" gorn="0.3.1.18.1.1" cy="7.1999998"/>
                </g>
            </g>
            <g  id="g162" gorn="0.3.1.19">
                <title  id="title164">element:U$11</title>
                <g  id="g166" gorn="0.3.1.19.1">
                    <title  id="title168">package:PCBFEAT-REV-040</title>
                </g>
            </g>
            <g  id="g170" gorn="0.3.1.20">
                <title  id="title172">element:U$13</title>
                <g  id="g174" gorn="0.3.1.20.1">
                    <title  id="title176">package:ADAFRUIT_2.5MM</title>
                </g>
            </g>
            <g  id="g178" gorn="0.3.1.21">
                <title  id="title180">element:U1</title>
                <g  id="g182" gorn="0.3.1.21.1">
                    <title  id="title184">package:SHT3X</title>
                    <line  id="line186" style="stroke:#ffffff;stroke-width:0.36000001;stroke-linecap:round" y1="10.2019" x1="21.231501" x2="21.231501" gorn="0.3.1.21.1.1" y2="9.3514996"/>
                    <line  id="line188" style="stroke:#ffffff;stroke-width:0.36000001;stroke-linecap:round" y1="9.3514996" x1="21.231501" x2="29.168501" gorn="0.3.1.21.1.2" y2="9.3514996"/>
                    <line  id="line190" style="stroke:#ffffff;stroke-width:0.36000001;stroke-linecap:round" y1="9.3514996" x1="29.168501" x2="29.168501" gorn="0.3.1.21.1.3" y2="10.2019"/>
                    <line  id="line192" style="stroke:#ffffff;stroke-width:0.36000001;stroke-linecap:round" y1="16.438101" x1="21.231501" x2="21.231501" gorn="0.3.1.21.1.4" y2="17.2885"/>
                    <line  id="line194" style="stroke:#ffffff;stroke-width:0.36000001;stroke-linecap:round" y1="17.2885" x1="21.231501" x2="29.168501" gorn="0.3.1.21.1.5" y2="17.2885"/>
                    <line  id="line196" style="stroke:#ffffff;stroke-width:0.36000001;stroke-linecap:round" y1="17.2885" x1="29.168501" x2="29.168501" gorn="0.3.1.21.1.6" y2="16.438101"/>
                    <circle  cx="19.814199" id="circle198" r="0.31692201" style="fill:none;stroke:#ffffff;stroke-width:1.15199995" gorn="0.3.1.21.1.7" cy="9.77666"/>
                </g>
            </g>
        </g>
        <rect  x="1.5845701" id="connector0pin" y="18.393999" style="fill:#9a916c;stroke:none;stroke-width:0" height="4.2519698" gorn="0.3.2" width="3.68504"/>
        <rect  x="6.9703898" id="connector1pin" y="18.393999" style="fill:#9a916c;stroke:none;stroke-width:0" height="4.2519698" gorn="0.3.3" width="3.68504"/>
        <rect  x="1.82268" id="connector2pin" y="13.7027" rx="1.41732" style="fill:#9a916c;stroke:none;stroke-width:0" ry="1.41732" height="2.83465" gorn="0.3.4" width="2.83465"/>
        <rect  x="46.102699" id="connector3pin" y="13.7027" rx="1.41732" style="fill:#9a916c;stroke:none;stroke-width:0" ry="1.41732" height="2.83465" gorn="0.3.5" width="2.83465"/>
        <circle  cx="3.5999999" connectorname="VIN" id="connector4pin" r="1.96866" style="fill:none;stroke:#9a916c;stroke-width:1.10267997" gorn="0.3.6" cy="28.799999"/>
        <circle  cx="10.8" connectorname="GND" id="connector5pin" r="1.96866" style="fill:none;stroke:#9a916c;stroke-width:1.10267997" gorn="0.3.7" cy="28.799999"/>
        <circle  cx="18" connectorname="SCL" id="connector6pin" r="1.96866" style="fill:none;stroke:#9a916c;stroke-width:1.10267997" gorn="0.3.8" cy="28.799999"/>
        <circle  cx="25.200001" connectorname="SDA" id="connector7pin" r="1.96866" style="fill:none;stroke:#9a916c;stroke-width:1.10267997" gorn="0.3.9" cy="28.799999"/>
        <circle  cx="32.400002" connectorname="ADDR" id="connector8pin" r="1.96866" style="fill:none;stroke:#9a916c;stroke-width:1.10267997" gorn="0.3.10" cy="28.799999"/>
        <circle  cx="39.599998" connectorname="RST" id="connector9pin" r="1.96866" style="fill:none;stroke:#9a916c;stroke-width:1.10267997" gorn="0.3.11" cy="28.799999"/>
        <circle  cx="46.799999" connectorname="ALERT" id="connector10pin" r="1.96866" style="fill:none;stroke:#9a916c;stroke-width:1.10267997" gorn="0.3.12" cy="28.799999"/>
        <g  transform="matrix(0,1,-1,0,30.7871,-0.172913)">
            <g  id="g211" gorn="0.3.13.0">
                <rect  x="13.6374" id="connector11pin" y="13.1811" style="fill:#9a916c;stroke:none;stroke-width:0" height="4.2519698" gorn="0.3.13.0.0" width="3.68504"/>
            </g>
        </g>
        <g  transform="matrix(0,1,-1,0,36.1729,5.21292)">
            <g  id="g214" gorn="0.3.14.0">
                <rect  x="13.6374" id="connector12pin" y="18.5669" style="fill:#9a916c;stroke:none;stroke-width:0" height="4.2519698" gorn="0.3.14.0.0" width="3.68504"/>
            </g>
        </g>
        <rect  x="20.3046" id="connector13pin" y="18.393999" style="fill:#9a916c;stroke:none;stroke-width:0" height="4.2519698" gorn="0.3.15" width="3.68504"/>
        <rect  x="25.690399" id="connector14pin" y="18.393999" style="fill:#9a916c;stroke:none;stroke-width:0" height="4.2519698" gorn="0.3.16" width="3.68504"/>
        <g  transform="matrix(0,1,-1,0,48.6,-18.36)">
            <g  id="g219" gorn="0.3.17.0">
                <rect  x="31.7792" id="connector15pin" y="13.2774" style="fill:#9a916c;stroke:none;stroke-width:0" height="3.68504" gorn="0.3.17.0.0" width="3.4015801"/>
            </g>
        </g>
        <g  transform="matrix(0,1,-1,0,54.36,-12.6)">
            <g  id="g222" gorn="0.3.18.0">
                <rect  x="31.7792" id="connector16pin" y="19.037399" style="fill:#9a916c;stroke:none;stroke-width:0" height="3.68504" gorn="0.3.18.0.0" width="3.4015801"/>
            </g>
        </g>
        <rect  x="38.3046" id="connector17pin" y="18.393999" style="fill:#9a916c;stroke:none;stroke-width:0" height="4.2519698" gorn="0.3.19" width="3.68504"/>
        <rect  x="43.690399" id="connector18pin" y="18.393999" style="fill:#9a916c;stroke:none;stroke-width:0" height="4.2519698" gorn="0.3.20" width="3.68504"/>
        <circle  cx="7.1999998" connectorname="P$1" id="connector19pin" r="4.26331" style="fill:none;stroke:#9a916c;stroke-width:1.44000006" gorn="0.3.21" cy="7.1999998"/>
        <circle  cx="43.200001" connectorname="P$1" id="connector20pin" r="4.26331" style="fill:none;stroke:#9a916c;stroke-width:1.44000006" gorn="0.3.22" cy="7.1999998"/>
        <g  transform="matrix(0,-1,1,0,10.7461,33.1342)">
            <g  id="g229" gorn="0.3.23.0">
                <rect  x="21.5858" id="connector21pin" y="10.3436" style="fill:#9a916c;stroke:none;stroke-width:0" height="1.70078" gorn="0.3.23.0.0" width="0.70866102"/>
            </g>
        </g>
        <g  transform="matrix(0,-1,1,0,9.32882,34.5515)">
            <g  id="g232" gorn="0.3.24.0">
                <rect  x="21.5858" id="connector22pin" y="11.7609" style="fill:#9a916c;stroke:none;stroke-width:0" height="1.70078" gorn="0.3.24.0.0" width="0.70866102"/>
            </g>
        </g>
        <g  transform="matrix(0,-1,1,0,7.9115,35.9688)">
            <g  id="g235" gorn="0.3.25.0">
                <rect  x="21.5858" id="connector23pin" y="13.1782" style="fill:#9a916c;stroke:none;stroke-width:0" height="1.70078" gorn="0.3.25.0.0" width="0.70866102"/>
            </g>
        </g>
        <g  transform="matrix(0,-1,1,0,6.49417,37.3861)">
            <g  id="g238" gorn="0.3.26.0">
                <rect  x="21.5858" id="connector24pin" y="14.5956" style="fill:#9a916c;stroke:none;stroke-width:0" height="1.70078" gorn="0.3.26.0.0" width="0.70866102"/>
            </g>
        </g>
        <g  transform="matrix(0,1,-1,0,43.9058,-13.0139)">
            <g  id="g241" gorn="0.3.27.0">
                <rect  x="28.105499" id="connector25pin" y="14.5956" style="fill:#9a916c;stroke:none;stroke-width:0" height="1.70078" gorn="0.3.27.0.0" width="0.70866102"/>
            </g>
        </g>
        <g  transform="matrix(0,1,-1,0,42.4885,-14.4312)">
            <g  id="g244" gorn="0.3.28.0">
                <rect  x="28.105499" id="connector26pin" y="13.1782" style="fill:#9a916c;stroke:none;stroke-width:0" height="1.70078" gorn="0.3.28.0.0" width="0.70866102"/>
            </g>
        </g>
        <g  transform="matrix(0,1,-1,0,41.0712,-15.8485)">
            <g  id="g247" gorn="0.3.29.0">
                <rect  x="28.105499" id="connector27pin" y="11.7609" style="fill:#9a916c;stroke:none;stroke-width:0" height="1.70078" gorn="0.3.29.0.0" width="0.70866102"/>
            </g>
        </g>
        <g  transform="matrix(0,1,-1,0,39.6539,-17.2658)">
            <g  id="g250" gorn="0.3.30.0">
                <rect  x="28.105499" id="connector28pin" y="10.3436" style="fill:#9a916c;stroke:none;stroke-width:0" height="1.70078" gorn="0.3.30.0.0" width="0.70866102"/>
            </g>
        </g>
        <rect  x="23.7827" id="connector29pin" y="10.9105" style="fill:#9a916c;stroke:none;stroke-width:0" height="4.8189001" gorn="0.3.31" width="2.83465"/>
    </g>
    <g  transform="translate(3.2855,18.7485)">
        <g  id="0805-cap" gorn="0.4.0">
            <path  id="path255" style="fill:#dcdcdc" gorn="0.4.0.0" d="m 5.386,3.543 -5.103,0 C 0.127,3.543 0,3.416 0,3.26 L 0,0.283 C 0,0.127 0.127,0 0.283,0 l 5.102,0 c 0.157,0 0.283,0.127 0.283,0.283 l 0,2.977 C 5.669,3.416 5.542,3.543 5.386,3.543 Z"/>
            <rect  x="1.063" id="rect257" y="0" style="fill:#6e554b" height="3.543" gorn="0.4.0.1" width="3.543"/>
        </g>
    </g>
    <g  transform="translate(12.6455,16.2285)">
        <g  id="0805-res" gorn="0.5.0">
            <g  transform="matrix(0,1,-1,0,4.606,-1.063)">
                <g  id="g260" gorn="0.5.0.0.0">
                    <path  id="path262" style="fill:#dcdcdc" gorn="0.5.0.0.0.0" d="m 5.386,3.543 -5.103,0 C 0.127,3.543 0,3.416 0,3.26 L 0,0.283 C 0,0.127 0.127,0 0.283,0 l 5.102,0 c 0.157,0 0.283,0.127 0.283,0.283 l 0,2.977 C 5.669,3.416 5.542,3.543 5.386,3.543 Z"/>
                    <rect  x="1.063" id="rect264" y="0" style="fill:#333333" height="3.543" gorn="0.5.0.0.0.1" width="3.543"/>
                </g>
            </g>
        </g>
    </g>
    <g  transform="translate(22.0055,18.7485)">
        <g  id="g266" gorn="0.6.0">
            <path  id="path268" style="fill:#dcdcdc" gorn="0.6.0.0" d="m 5.386,3.543 -5.103,0 C 0.127,3.543 0,3.416 0,3.26 L 0,0.283 C 0,0.127 0.127,0 0.283,0 l 5.102,0 c 0.157,0 0.283,0.127 0.283,0.283 l 0,2.977 C 5.669,3.416 5.542,3.543 5.386,3.543 Z"/>
            <rect  x="1.063" id="rect270" y="0" style="fill:#333333" height="3.543" gorn="0.6.0.1" width="3.543"/>
        </g>
    </g>
    <g  transform="translate(30.6455,16.2285)">
        <g  id="g272" gorn="0.7.0">
            <g  transform="matrix(0,1,-1,0,4.606,-1.063)">
                <g  id="g274" gorn="0.7.0.0.0">
                    <path  id="path276" style="fill:#dcdcdc" gorn="0.7.0.0.0.0" d="m 5.386,3.543 -5.103,0 C 0.127,3.543 0,3.416 0,3.26 L 0,0.283 C 0,0.127 0.127,0 0.283,0 l 5.102,0 c 0.157,0 0.283,0.127 0.283,0.283 l 0,2.977 C 5.669,3.416 5.542,3.543 5.386,3.543 Z"/>
                    <rect  x="1.063" id="rect278" y="0" style="fill:#333333" height="3.543" gorn="0.7.0.0.0.1" width="3.543"/>
                </g>
            </g>
        </g>
    </g>
    <g  transform="translate(40.0055,18.7485)">
        <g  id="g280" gorn="0.8.0">
            <path  id="path282" style="fill:#dcdcdc" gorn="0.8.0.0" d="m 5.386,3.543 -5.103,0 C 0.127,3.543 0,3.416 0,3.26 L 0,0.283 C 0,0.127 0.127,0 0.283,0 l 5.102,0 c 0.157,0 0.283,0.127 0.283,0.283 l 0,2.977 C 5.669,3.416 5.542,3.543 5.386,3.543 Z"/>
            <rect  x="1.063" id="rect284" y="0" style="fill:#333333" height="3.543" gorn="0.8.0.1" width="3.543"/>
        </g>
    </g>
    <g  transform="translate(35.531867,11.579663)">
        <g  id="adafruit_2.5mm" gorn="0.9.0">
            <g  transform="matrix(0,-1,1,0,0,9.77702)">
                <g  id="g287" gorn="0.9.0.0.0">
                    <path  id="path289" style="fill:#dcdcdc" gorn="0.9.0.0.0.0" d="M 9.747,3.082 C 9.724,2.94 9.647,2.899 9.461,2.839 9.31903,2.794 8.37202,2.492 8.37202,2.492 c 0,0 -0.66,-0.249 -1.15,0.103 -0.066,0.048 -0.134,0.102 -0.203,0.16 0.058,-0.069 0.112,-0.137 0.159,-0.203 0.352,-0.49 0.101,-1.15 0.101,-1.15 0,0 -0.30302,-0.947 -0.34902,-1.089 C 6.87,0.127 6.83,0.05 6.687,0.028 6.545,0.005 6.483,0.066 6.369,0.225 6.282,0.345 5.702,1.153001 5.702,1.153001 5.702,1.153001 5.261,1.704 5.445,2.279 5.47,2.356 5.5,2.438 5.534,2.521 5.486,2.445 5.438,2.372 5.39,2.307 5.032,1.821 4.328,1.855 4.328,1.855 c 0,0 -0.995,-0.004 -1.143,-0.004 -0.195,0 -0.281,0.014 -0.347,0.143 -0.065,0.128 -0.027,0.206 0.089,0.364 0.088,0.12 0.677,0.921002 0.677,0.921002 0,0 0.388,0.59 0.991001,0.592 0.081,0 0.168,-0.003 0.257,-0.01 C 4.765,3.883 4.681,3.907 4.604,3.932 4.031,4.122 3.845998,4.802998 3.845998,4.802998 c 0,0 -0.31,0.943999 -0.357,1.085 C 3.428,6.074 3.416,6.16 3.518,6.262 3.62,6.364 3.706,6.352 3.892,6.29 4.033,6.244 4.977,5.931 4.977,5.931 c 0,0 0.681,-0.187 0.868997,-0.760003 0.025,-0.077 0.049,-0.16 0.07,-0.247 C 5.91,5.014 5.907,5.1 5.907,5.181 c 0.004,0.603 0.594,0.99 0.594,0.99 0,0 0.802001,0.588 0.922003,0.675 C 7.58102,6.962 7.659,7 7.78802,6.935 7.91597,6.869 7.93102,6.783 7.93001,6.588 7.929,6.439 7.92403,5.445 7.92403,5.445 7.92403,5.445 7.95701,4.74 7.47,4.383 7.40498,4.335 7.33198,4.287 7.25602,4.24 c 0.083,0.034 0.165,0.064 0.242,0.088 0.575,0.183 1.125,-0.259 1.125,-0.259 0,0 0.80696,-0.5809998 0.92699,-0.6679998 C 9.70898,3.286 9.76903,3.224 9.747,3.082 Z M 6.322,2.35 C 6.43,2.367 6.484,2.598 6.442,2.865 6.4,3.132 6.278,3.335 6.169,3.318 6.061,3.301 6.007,3.07 6.049,2.803 6.091,2.535 6.213,2.332 6.322,2.35 Z M 4.933,3.059 C 4.983,2.961 5.219,2.981 5.46,3.104 5.701,3.227 5.857,3.406 5.807,3.503 5.757,3.601 5.521,3.581 5.28,3.458 5.038,3.335 4.883,3.157 4.933,3.059 Z M 5.665,4.393 C 5.474,4.584 5.256,4.677 5.178,4.599 5.101,4.521 5.193,4.303 5.384,4.112 5.575,3.92 5.793,3.827 5.871,3.905 5.949,3.983 5.857,4.201 5.665,4.393 Z M 6.719,4.842 C 6.6210001,4.892 6.442,4.737 6.319,4.496 6.196,4.254 6.175,4.018 6.273,3.968 6.371,3.918 6.55,4.073 6.673,4.314 6.796,4.556 6.817,4.792 6.719,4.842 Z M 6.973,3.725 C 6.706,3.767 6.475,3.714 6.457,3.606 6.44,3.497 6.643,3.375 6.91,3.332 7.177,3.289 7.408,3.343 7.425,3.451 7.443,3.56 7.24003,3.682 6.973,3.725 Z"/>
                </g>
            </g>
        </g>
    </g>
    <g  transform="translate(21.683575,9.63281)">
        <g  id="sht3x" gorn="0.10.0">
            <metadata  id="metadata17">
                <rdf:RDF xmlns:rdf="http://www.w3.org/1999/02/22-rdf-syntax-ns#">
                    <cc:Work xmlns:cc="http://creativecommons.org/ns#" rdf:about="" xmlns:rdf="http://www.w3.org/1999/02/22-rdf-syntax-ns#">
                        <dc:format xmlns:dc="http://purl.org/dc/elements/1.1/">image/svg+xml</dc:format>
                        <dc:type rdf:resource="http://purl.org/dc/dcmitype/StillImage" xmlns:rdf="http://www.w3.org/1999/02/22-rdf-syntax-ns#" xmlns:dc="http://purl.org/dc/elements/1.1/"/>
                        <dc:title xmlns:dc="http://purl.org/dc/elements/1.1/"/>
                    </cc:Work>
                </rdf:RDF>
            </metadata>
            <defs  id="defs15"/>
            <rect  x="-0.100891" id="rect4147" y="-0.076683603" rx="0.283465" style="opacity:1;fill:#1a1a1a;fill-opacity:1" ry="0.283465" height="7.33147" gorn="0.10.0.2" width="7.2305298"/>
            <circle  cx="3.5433099" id="path4149" r="1.41732" style="opacity:1;fill:#501616;fill-opacity:1" gorn="0.10.0.3" cy="3.5433099"/>
            <circle  cx="0.605349" id="path4151" r="0.302674" style="opacity:1;fill:#b3b3b3;fill-opacity:1" gorn="0.10.0.4" cy="0.56229597"/>
        </g>
    </g>
</svg>
