<?xml version="1.0" encoding="UTF-8" standalone="no"?>
<!-- Created with Inkscape (http://www.inkscape.org/) -->

<svg
   xmlns:dc="http://purl.org/dc/elements/1.1/"
   xmlns:cc="http://creativecommons.org/ns#"
   xmlns:rdf="http://www.w3.org/1999/02/22-rdf-syntax-ns#"
   xmlns:svg="http://www.w3.org/2000/svg"
   xmlns="http://www.w3.org/2000/svg"
   version="1.1"
   width="63"
   height="90"
   id="svg4662">
  <defs
     id="defs4664" />
  <metadata
     id="metadata4667">
    <rdf:RDF>
      <cc:Work
         rdf:about="">
        <dc:format>image/svg+xml</dc:format>
        <dc:type
           rdf:resource="http://purl.org/dc/dcmitype/StillImage" />
        <dc:title></dc:title>
      </cc:Work>
    </rdf:RDF>
  </metadata>
  <g
     transform="translate(0,-962.35975)"
     id="layer1"
     style="display:inline" />
  <g
     transform="translate(0,-962.36218)"
     id="layer2"
     style="display:inline" />
  <g
     transform="translate(0,-962.36218)"
     id="layer3"
     style="display:inline" />
  <g
     transform="translate(0,-962.36218)"
     id="layer4"
     style="display:inline">
    <g
       id="breadboard">
      <rect
         width="45"
         height="54.900002"
         rx="2.25"
         x="9"
         y="970.45978"
         transform="translate(0,0.00243)"
         id="rect5185"
         style="fill:#343434;fill-opacity:1;fill-rule:evenodd;stroke:#000000;stroke-width:0.18000001;stroke-miterlimit:4;stroke-opacity:1;stroke-dasharray:none;display:inline" />
      <rect
         width="2.7"
         height="18"
         x="16.65"
         y="1025.3597"
         transform="translate(0,0.00243)"
         id="rect5470"
         style="fill:#b3b3b3;fill-opacity:1;fill-rule:evenodd;stroke:none;display:inline" />
      <rect
         width="2.7"
         height="18"
         x="25.65"
         y="1025.3596"
         transform="translate(0,0.00243)"
         id="rect5476"
         style="fill:#b3b3b3;fill-opacity:1;fill-rule:evenodd;stroke:none;display:inline" />
      <rect
         width="2.7"
         height="18"
         x="34.650002"
         y="1025.3596"
         transform="translate(0,0.00243)"
         id="rect5478"
         style="fill:#b3b3b3;fill-opacity:1;fill-rule:evenodd;stroke:none;display:inline" />
      <rect
         width="2.7"
         height="18"
         x="43.650002"
         y="1025.3596"
         transform="translate(0,0.00243)"
         id="rect5480"
         style="fill:#b3b3b3;fill-opacity:1;fill-rule:evenodd;stroke:none;display:inline" />
      <rect
         width="3.5999999"
         height="3.5999999"
         x="16.200001"
         y="1041.5597"
         transform="translate(0,0.00243)"
         id="connector1"
         style="fill:none;stroke:none;display:inline" />
      <rect
         width="3.5999999"
         height="3.5999999"
         x="25.200001"
         y="1041.5597"
         transform="translate(0,0.00243)"
         id="connector2"
         style="fill:none;stroke:none;display:inline" />
      <rect
         width="3.5999999"
         height="3.5999999"
         x="34.200001"
         y="1041.5597"
         transform="translate(0,0.00243)"
         id="connector3"
         style="fill:none;stroke:none;display:inline" />
      <rect
         width="3.5999999"
         height="3.5999999"
         x="43.200001"
         y="1041.5597"
         transform="translate(0,0.00243)"
         id="connector4"
         style="fill:none;stroke:none;display:inline" />
      <rect
         width="21.15"
         height="30.15"
         x="14.85"
         y="977.21216"
         id="rect5401"
         style="fill:#d7f4ee;fill-opacity:0.63586958;fill-rule:evenodd;stroke:#000000;stroke-width:0.28636551;stroke-linecap:round;stroke-linejoin:miter;stroke-miterlimit:4;stroke-opacity:1;stroke-dasharray:none;display:inline" />
      <rect
         width="43.200001"
         height="53.099998"
         rx="1.7632651"
         x="9.8999996"
         y="971.36218"
         id="rect5406"
         style="fill:none;stroke:#316691;stroke-width:1.79999995;stroke-linecap:round;stroke-linejoin:miter;stroke-miterlimit:4;stroke-opacity:1;stroke-dasharray:none;display:inline" />
      <path
         d="m 11.25,970.46875 c -1.2465,0 -2.2499997,1.0035 -2.2499997,2.25 l 0,11.25 8.9999997,0 0,3.59375 -8.9999997,0 0,3.59375 8.9999997,0 0,3.59375 -8.9999997,0 0,3.625 8.9999997,0 0,3.5937 -8.9999997,0 0,3.5938 8.9999997,0 0,3.5937 -8.9999997,0 0,3.5938 8.9999997,0 0,3.625 -8.9999997,0 0,6.75 c 0,1.2465 1.0034997,2.25 2.2499997,2.25 l 40.5,0 c 1.2465,0 2.25,-1.0035 2.25,-2.25 l 0,-6.75 -9,0 0,-3.625 9,0 0,-3.5938 -9,0 0,-3.5937 9,0 0,-3.5938 -9,0 0,-3.5937 9,0 0,-3.625 -9,0 0,-3.59375 9,0 0,-3.59375 -9,0 0,-3.59375 9,0 0,-11.25 c 0,-1.2465 -1.0035,-2.25 -2.25,-2.25 l -11.25,0 0,9 -3.59375,0 0,-9 -3.59375,0 0,9 -3.625,0 0,-9 -3.59375,0 0,9 -3.59375,0 0,-9 -11.25,0 z m 11.25,13.5 3.59375,0 0,3.59375 -3.59375,0 0,-3.59375 z m 7.1875,0 3.625,0 0,3.59375 -3.625,0 0,-3.59375 z m 7.21875,0 3.59375,0 0,3.59375 -3.59375,0 0,-3.59375 z m -14.40625,7.1875 3.59375,0 0,3.59375 -3.59375,0 0,-3.59375 z m 7.1875,0 3.625,0 0,3.59375 -3.625,0 0,-3.59375 z m 7.21875,0 3.59375,0 0,3.59375 -3.59375,0 0,-3.59375 z M 22.5,998.375 l 3.59375,0 0,3.5937 -3.59375,0 0,-3.5937 z m 7.1875,0 3.625,0 0,3.5937 -3.625,0 0,-3.5937 z m 7.21875,0 3.59375,0 0,3.5937 -3.59375,0 0,-3.5937 z m -14.40625,7.1875 3.59375,0 0,3.5937 -3.59375,0 0,-3.5937 z m 7.1875,0 3.625,0 0,3.5937 -3.625,0 0,-3.5937 z m 7.21875,0 3.59375,0 0,3.5937 -3.59375,0 0,-3.5937 z M 22.5,1012.75 l 3.59375,0 0,3.625 -3.59375,0 0,-3.625 z m 7.1875,0 3.625,0 0,3.625 -3.625,0 0,-3.625 z m 7.21875,0 3.59375,0 0,3.625 -3.59375,0 0,-3.625 z"
         id="rect4672"
         style="fill:#48a1d1;fill-opacity:1;fill-rule:evenodd;stroke:#000000;stroke-width:0.18000001;stroke-miterlimit:4;stroke-opacity:1;stroke-dasharray:none;display:inline" />
      <g
         transform="translate(3.3378601e-7,9)"
         id="g5460"
         style="stroke:#ffffff;stroke-width:0.63;stroke-miterlimit:4;stroke-opacity:0.70652173;stroke-dasharray:none">
        <path
           d="m 11.25,962.36218 9.45,0 m -10.8,1.34998 c 0,-0.74559 0.604416,-1.35 1.35,-1.35 m -1.35,11.70002 0,-10.35"
           id="path5415"
           style="fill:none;stroke:#ffffff;stroke-width:0.63;stroke-linecap:round;stroke-linejoin:miter;stroke-miterlimit:4;stroke-opacity:0.70652173;stroke-dasharray:none" />
        <path
           d="m 9.9,979.46218 0,1.8"
           id="path5422"
           style="fill:none;stroke:#ffffff;stroke-width:0.63;stroke-linecap:round;stroke-linejoin:miter;stroke-miterlimit:4;stroke-opacity:0.70652173;stroke-dasharray:none" />
        <path
           d="m 9.9,986.66218 0,1.8"
           id="path5426"
           style="color:#000000;fill:none;stroke:#ffffff;stroke-width:0.63;stroke-linecap:round;stroke-linejoin:miter;stroke-miterlimit:4;stroke-opacity:0.70652173;stroke-dasharray:none;stroke-dashoffset:0;marker:none;visibility:visible;display:inline;overflow:visible;enable-background:accumulate" />
        <path
           d="m 9.9,993.86218 0,1.8"
           id="path5428"
           style="color:#000000;fill:none;stroke:#ffffff;stroke-width:0.63;stroke-linecap:round;stroke-linejoin:miter;stroke-miterlimit:4;stroke-opacity:0.70652173;stroke-dasharray:none;stroke-dashoffset:0;marker:none;visibility:visible;display:inline;overflow:visible;enable-background:accumulate" />
        <path
           d="m 9.9,1001.0622 0,1.8"
           id="path5430"
           style="color:#000000;fill:none;stroke:#ffffff;stroke-width:0.63;stroke-linecap:round;stroke-linejoin:miter;stroke-miterlimit:4;stroke-opacity:0.70652173;stroke-dasharray:none;stroke-dashoffset:0;marker:none;visibility:visible;display:inline;overflow:visible;enable-background:accumulate" />
        <path
           d="m 9.9,1008.7122 0,4.5"
           id="path5432"
           style="color:#000000;fill:none;stroke:#ffffff;stroke-width:0.63;stroke-linecap:round;stroke-linejoin:miter;stroke-miterlimit:4;stroke-opacity:0.70652173;stroke-dasharray:none;stroke-dashoffset:0;marker:none;visibility:visible;display:inline;overflow:visible;enable-background:accumulate" />
      </g>
      <g
         transform="translate(3.3378601e-7,9)"
         id="g5510"
         style="stroke:#000000;stroke-opacity:0.06521738">
        <path
           d="m 53.1,1014.1122 0,-5.85 m 0,5.85 c 0,0.7456 -0.604416,1.35 -1.35,1.35 m -5.85,0 5.85,0"
           id="path5498"
           style="color:#000000;fill:none;stroke:#000000;stroke-width:0.44999999;stroke-linecap:round;stroke-linejoin:miter;stroke-miterlimit:4;stroke-opacity:0.06521738;stroke-dasharray:none;stroke-dashoffset:0;marker:none;visibility:visible;display:inline;overflow:visible;enable-background:accumulate" />
        <path
           d="m 53.1,1002.8622 0,-1.8"
           id="path5502"
           style="color:#000000;fill:none;stroke:#000000;stroke-width:0.44999999;stroke-linecap:round;stroke-linejoin:miter;stroke-miterlimit:4;stroke-opacity:0.06521738;stroke-dasharray:none;stroke-dashoffset:0;marker:none;visibility:visible;display:inline;overflow:visible;enable-background:accumulate" />
        <path
           d="m 53.1,995.66218 0,-1.8"
           id="path5504"
           style="color:#000000;fill:none;stroke:#000000;stroke-width:0.44999999;stroke-linecap:round;stroke-linejoin:miter;stroke-miterlimit:4;stroke-opacity:0.06521738;stroke-dasharray:none;stroke-dashoffset:0;marker:none;visibility:visible;display:inline;overflow:visible;enable-background:accumulate" />
        <path
           d="m 53.1,988.46218 0,-1.8"
           id="path5506"
           style="color:#000000;fill:none;stroke:#000000;stroke-width:0.44999999;stroke-linecap:round;stroke-linejoin:miter;stroke-miterlimit:4;stroke-opacity:0.06521738;stroke-dasharray:none;stroke-dashoffset:0;marker:none;visibility:visible;display:inline;overflow:visible;enable-background:accumulate" />
        <path
           d="m 53.1,981.26218 0,-1.8"
           id="path5508"
           style="color:#000000;fill:none;stroke:#000000;stroke-width:0.44999999;stroke-linecap:round;stroke-linejoin:miter;stroke-miterlimit:4;stroke-opacity:0.06521738;stroke-dasharray:none;stroke-dashoffset:0;marker:none;visibility:visible;display:inline;overflow:visible;enable-background:accumulate" />
      </g>
    </g>
  </g>
</svg>
