<?xml version='1.0' encoding='utf-8'?>
<!-- Generator: Adobe Illustrator 20.0.0, SVG Export Plug-In . SVG Version: 6.00 Build 0)  -->
<svg xmlns="http://www.w3.org/2000/svg" gorn="0" baseProfile="tiny" viewBox="0 0 39.6 39.732" xmlns:xml="http://www.w3.org/XML/1998/namespace" height="0.551833in" id="Layer_1" width="0.55in"  version="1.2" x="0px" y="0px" xml:space="preserve">
    <desc >
        <referenceFile >flora uv v0.2_breadboard.svg</referenceFile>
    </desc>
    <desc >Fritzing breadboard generated by brd2svg</desc>
    <g gorn="0.2" id="breadboard" >
        <g gorn="0.2.0" id="icon" >
            <path fill="#0A0A0A" d="M0,19.8C-0.002,8.865,8.862-0.001,19.797-0.003S39.598,8.859,39.6,19.794c0,0.002,0,0.004,0,0.006c0.002,10.935-8.862,19.801-19.797,19.803C8.868,39.604,0.002,30.741,0,19.806C0,19.804,0,19.802,0,19.8z M18.099,3.6c0,0.939,0.761,1.701,1.701,1.701s1.701-0.761,1.701-1.701S20.739,1.899,19.8,1.899S18.099,2.661,18.099,3.6z M32.139,11.52c0,0.939,0.761,1.701,1.701,1.701s1.701-0.761,1.701-1.701l0,0c0-0.939-0.761-1.701-1.701-1.701S32.139,10.581,32.139,11.52z M4.059,11.52c0,0.939,0.761,1.701,1.701,1.701s1.701-0.761,1.701-1.701S6.699,9.819,5.76,9.819S4.059,10.581,4.059,11.52z M32.139,28.08c0,0.939,0.761,1.701,1.701,1.701s1.701-0.761,1.701-1.701s-0.761-1.701-1.701-1.701S32.139,27.141,32.139,28.08z M4.059,28.08c0,0.939,0.761,1.701,1.701,1.701s1.701-0.761,1.701-1.701s-0.761-1.701-1.701-1.701S4.059,27.141,4.059,28.08z M18.099,35.964c0,0.939,0.761,1.701,1.701,1.701s1.701-0.761,1.701-1.701l0,0c0-0.939-0.761-1.701-1.701-1.701S18.099,35.025,18.099,35.964z" />
            <g >
                <title >layer 21</title>
                <g >
                    <title >text:3V</title>
                    <g transform="matrix(1, 0, 0, 1, 17.1366, 33.9562)" >
                        <g >
                            <g >
                                <g >
                                    <g transform="rotate(305)" >
                                        <g >
                                            <g >
                                                <g >
                                                    <g transform="matrix(1 0 0 1 -4.407 -0.3527)" >
                                                        <g >
                                                            <g >
                                                                <text fill="#FFFFFF" font-family="'OCRA'"  font-size="2.67264">3V</text>
                                                            </g>
                                                        </g>
                                                    </g>
                                                </g>
                                            </g>
                                        </g>
                                    </g>
                                </g>
                            </g>
                        </g>
                    </g>
                </g>
                <g >
                    <title >text:gnd</title>
                    <g transform="matrix(1, 0, 0, 1, 15.4668, 9.2304)" >
                        <g >
                            <g >
                                <g >
                                    <g transform="rotate(60)" >
                                        <g >
                                            <g >
                                                <g >
                                                    <g transform="matrix(1 0 0 1 -7.5454 -0.4904)" >
                                                        <g >
                                                            <g >
                                                                <text fill="#FFFFFF" font-family="'OCRA'"  font-size="2.67264">gnd</text>
                                                            </g>
                                                        </g>
                                                    </g>
                                                </g>
                                            </g>
                                        </g>
                                    </g>
                                </g>
                            </g>
                        </g>
                    </g>
                </g>
                <g >
                    <title >text:SCL</title>
                    <g transform="matrix(1 0 0 1 31.68 18.36)" >
                        <g >
                            <g >
                                <text fill="#FFFFFF" font-family="'OCRA'"  font-size="2.67264">SCL</text>
                            </g>
                        </g>
                    </g>
                </g>
                <g >
                    <title >text:SDA</title>
                    <g transform="matrix(1 0 0 1 31.32 24.12)" >
                        <g >
                            <g >
                                <text fill="#FFFFFF" font-family="'OCRA'"  font-size="2.67264">SDA</text>
                            </g>
                        </g>
                    </g>
                </g>
                <g >
                    <title >text:SCL</title>
                    <g transform="matrix(1 0 0 1 1.0318 18.2765)" >
                        <g >
                            <g >
                                <text fill="#FFFFFF" font-family="'OCRA'"  font-size="2.67264">SCL</text>
                            </g>
                        </g>
                    </g>
                </g>
                <g >
                    <title >text:SDA</title>
                    <g transform="matrix(1 0 0 1 0.9353 23.94)" >
                        <g >
                            <g >
                                <text fill="#FFFFFF" font-family="'OCRA'"  font-size="2.67264">SDA</text>
                            </g>
                        </g>
                    </g>
                </g>
                <g >
                    <title >text:UV</title>
                    <g transform="matrix(1, 0, 0, 1, 13.5965, 14.4482)" >
                        <g >
                            <g >
                                <g >
                                    <g transform="rotate(270)" >
                                        <g >
                                            <g >
                                                <g >
                                                    <g transform="matrix(1 0 0 1 -4.218750e-05 0)" >
                                                        <g >
                                                            <g >
                                                                <text fill="#FFFFFF" font-family="'OCRA'"  font-size="2.67264">UV</text>
                                                            </g>
                                                        </g>
                                                    </g>
                                                </g>
                                            </g>
                                        </g>
                                    </g>
                                </g>
                            </g>
                        </g>
                    </g>
                </g>
                <g >
                    <title >element:C2</title>
                    <g >
                        <title >package:0805-NO</title>
                        <line stroke="#FFFFFF" fill="none" stroke-linecap="round" stroke-width="0.864" y1="18.72" y2="18.72"  x1="26.64" x2="29.52"/>
                    </g>
                </g>
                <g >
                    <title >element:FID1</title>
                    <g >
                        <title >package:FIDUCIAL_1MM</title>
                    </g>
                </g>
                <g >
                    <title >element:FID2</title>
                    <g >
                        <title >package:FIDUCIAL_1MM</title>
                    </g>
                </g>
                <g >
                    <title >element:GND</title>
                    <g >
                        <title >package:SEWINGTAP_0.5</title>
                    </g>
                </g>
                <g >
                    <title >element:R2</title>
                    <g >
                        <title >package:0805-NO</title>
                        <line stroke="#FFFFFF" fill="none" stroke-linecap="round" stroke-width="0.864" y1="26.64" y2="29.52"  x1="19.8" x2="19.8"/>
                    </g>
                </g>
                <g >
                    <title >element:R3</title>
                    <g >
                        <title >package:0805-NO</title>
                        <line stroke="#FFFFFF" fill="none" stroke-linecap="round" stroke-width="0.864" y1="10.08" y2="12.96"  x1="19.8" x2="19.8"/>
                    </g>
                </g>
                <g >
                    <title >element:SCL1</title>
                    <g >
                        <title >package:SEWINGTAP_0.5</title>
                    </g>
                </g>
                <g >
                    <title >element:SCL2</title>
                    <g >
                        <title >package:SEWINGTAP_0.5</title>
                    </g>
                </g>
                <g >
                    <title >element:SDA1</title>
                    <g >
                        <title >package:SEWINGTAP_0.5</title>
                    </g>
                </g>
                <g >
                    <title >element:SDA2</title>
                    <g >
                        <title >package:SEWINGTAP_0.5</title>
                    </g>
                </g>
                <g >
                    <title >element:U$3</title>
                    <g >
                        <title >package:ADAFRUIT_2.5MM</title>
                    </g>
                </g>
                <g >
                    <title >element:U$4</title>
                    <g >
                        <title >package:ADAFRUIT_2.5MM</title>
                    </g>
                </g>
                <g >
                    <title >element:U1</title>
                    <g >
                        <title >package:SI114X</title>
                        <circle stroke="#FFFFFF" r="0.401" fill="none" stroke-width="1.152" cx="22.351" cy="24.052" />
                    </g>
                </g>
                <g >
                    <title >element:VCC</title>
                    <g >
                        <title >package:SEWINGTAP_0.5</title>
                    </g>
                </g>
            </g>
            <g transform="matrix(0, -1, 1, 0, 6.66708, 49.4929)" >
                <g >
                    <g >
                        <g >
                            <g transform="matrix(-2.535182e-06 -1 1 -2.535182e-06 6.6671 49.4929)" >
                                <g >
                                    <g >
                                        <rect gorn="0.2.0.2.0.0.0.0.0.0.0" height="3.685" id="connector0pin" fill="#9A916C" width="4.252"  x="25.954" y="19.57"/>
                                    </g>
                                </g>
                            </g>
                        </g>
                    </g>
                </g>
            </g>
            <g transform="matrix(0, -1, 1, 0, 12.0529, 44.1071)" >
                <g >
                    <g >
                        <g >
                            <g transform="matrix(-2.535182e-06 -1 1 -2.535182e-06 12.0529 44.107)" >
                                <g >
                                    <g >
                                        <rect gorn="0.2.0.3.0.0.0.0.0.0.0" height="3.685" id="connector1pin" fill="#9A916C" width="4.252"  x="25.954" y="14.185"/>
                                    </g>
                                </g>
                            </g>
                        </g>
                    </g>
                </g>
            </g>
            <path gorn="0.2.0.4" id="connector2pin" fill="#9A916C" d="M10.44,18.743L10.44,18.743c0.783,0,1.417,0.635,1.417,1.417v0c0,0.783-0.635,1.417-1.417,1.417h0c-0.783,0-1.417-0.635-1.417-1.417v0C9.023,19.377,9.657,18.743,10.44,18.743z" />
            <path gorn="0.2.0.5" id="connector3pin" fill="#9A916C" d="M28.08,31.703L28.08,31.703c0.783,0,1.417,0.635,1.417,1.417v0c0,0.783-0.635,1.417-1.417,1.417h0c-0.783,0-1.417-0.635-1.417-1.417v0C26.663,32.337,27.297,31.703,28.08,31.703z" />
            <circle gorn="0.2.0.6" stroke="#9A916C" id="connector4pin" r="2.398" fill="none" stroke-width="1.3952" cx="19.8" cy="3.6" />
            <rect gorn="0.2.0.7" height="4.252" id="connector5pin" fill="#9A916C" width="3.685"  x="15.265" y="25.954"/>
            <rect gorn="0.2.0.8" height="4.252" id="connector6pin" fill="#9A916C" width="3.685"  x="20.65" y="25.954"/>
            <rect gorn="0.2.0.9" height="4.252" id="connector7pin" fill="#9A916C" width="3.685"  x="15.265" y="9.394"/>
            <rect gorn="0.2.0.10" height="4.252" id="connector8pin" fill="#9A916C" width="3.685"  x="20.65" y="9.394"/>
            <circle gorn="0.2.0.11" stroke="#9A916C" id="connector9pin" r="2.398" fill="none" stroke-width="1.3952" cx="33.84" cy="11.52" />
            <circle gorn="0.2.0.12" stroke="#9A916C" id="connector10pin" r="2.398" fill="none" stroke-width="1.3952" cx="5.76" cy="11.52" />
            <circle gorn="0.2.0.13" stroke="#9A916C" id="connector11pin" r="2.398" fill="none" stroke-width="1.3952" cx="33.84" cy="28.08" />
            <circle gorn="0.2.0.14" stroke="#9A916C" id="connector12pin" r="2.398" fill="none" stroke-width="1.3952" cx="5.76" cy="28.08" />
            <g transform="matrix(0, 1, -1, 0, 44.4189, -0.566929)" >
                <g >
                    <g >
                        <g >
                            <g transform="matrix(2.535182e-06 1 -1 2.535182e-06 44.4189 -0.5669)" >
                                <g >
                                    <g >
                                        <rect gorn="0.2.0.15.0.0.0.0.0.0.0" height="0.737" id="connector13pin" fill="#9A916C" width="2.268"  x="21.359" y="21.558"/>
                                    </g>
                                </g>
                            </g>
                        </g>
                    </g>
                </g>
            </g>
            <g transform="matrix(0, 1, -1, 0, 43.0016, -1.98426)" >
                <g >
                    <g >
                        <g >
                            <g transform="matrix(2.535182e-06 1 -1 2.535182e-06 43.0015 -1.9843)" >
                                <g >
                                    <g >
                                        <rect gorn="0.2.0.16.0.0.0.0.0.0.0" height="0.737" id="connector14pin" fill="#9A916C" width="2.268"  x="21.359" y="20.14"/>
                                    </g>
                                </g>
                            </g>
                        </g>
                    </g>
                </g>
            </g>
            <g transform="matrix(0, 1, -1, 0, 41.5842, -3.40158)" >
                <g >
                    <g >
                        <g >
                            <g transform="matrix(2.535182e-06 1 -1 2.535182e-06 41.5841 -3.4017)" >
                                <g >
                                    <g >
                                        <rect gorn="0.2.0.17.0.0.0.0.0.0.0" height="0.737" id="connector15pin" fill="#9A916C" width="2.268"  x="21.359" y="18.723"/>
                                    </g>
                                </g>
                            </g>
                        </g>
                    </g>
                </g>
            </g>
            <g transform="matrix(0, 1, -1, 0, 40.1669, -4.8189)" >
                <g >
                    <g >
                        <g >
                            <g transform="matrix(2.535182e-06 1 -1 2.535182e-06 40.1668 -4.819)" >
                                <g >
                                    <g >
                                        <rect gorn="0.2.0.18.0.0.0.0.0.0.0" height="0.737" id="connector16pin" fill="#9A916C" width="2.268"  x="21.359" y="17.305"/>
                                    </g>
                                </g>
                            </g>
                        </g>
                    </g>
                </g>
            </g>
            <rect gorn="0.2.0.19" height="2.268" id="connector17pin" fill="#9A916C" width="0.737"  x="19.431" y="15.973"/>
            <g transform="matrix(0, -1, 1, 0, -0.566929, 34.7811)" >
                <g >
                    <g >
                        <g >
                            <g transform="matrix(-2.535182e-06 -1 1 -2.535182e-06 -0.5668 34.7811)" >
                                <g >
                                    <g >
                                        <rect gorn="0.2.0.20.0.0.0.0.0.0.0" height="0.737" id="connector18pin" fill="#9A916C" width="2.268"  x="15.973" y="17.305"/>
                                    </g>
                                </g>
                            </g>
                        </g>
                    </g>
                </g>
            </g>
            <g transform="matrix(0, -1, 1, 0, -1.98426, 36.1984)" >
                <g >
                    <g >
                        <g >
                            <g transform="matrix(-2.535182e-06 -1 1 -2.535182e-06 -1.9841 36.1984)" >
                                <g >
                                    <g >
                                        <rect gorn="0.2.0.21.0.0.0.0.0.0.0" height="0.737" id="connector19pin" fill="#9A916C" width="2.268"  x="15.973" y="18.723"/>
                                    </g>
                                </g>
                            </g>
                        </g>
                    </g>
                </g>
            </g>
            <g transform="matrix(0, -1, 1, 0, -3.40158, 37.6158)" >
                <g >
                    <g >
                        <g >
                            <g transform="matrix(-2.535182e-06 -1 1 -2.535182e-06 -3.4015 37.6158)" >
                                <g >
                                    <g >
                                        <rect gorn="0.2.0.22.0.0.0.0.0.0.0" height="0.737" id="connector20pin" fill="#9A916C" width="2.268"  x="15.973" y="20.14"/>
                                    </g>
                                </g>
                            </g>
                        </g>
                    </g>
                </g>
            </g>
            <g transform="matrix(0, -1, 1, 0, -4.8189, 39.0331)" >
                <g >
                    <g >
                        <g >
                            <g transform="matrix(-2.535182e-06 -1 1 -2.535182e-06 -4.8189 39.0332)" >
                                <g >
                                    <g >
                                        <rect gorn="0.2.0.23.0.0.0.0.0.0.0" height="0.737" id="connector21pin" fill="#9A916C" width="2.268"  x="15.973" y="21.558"/>
                                    </g>
                                </g>
                            </g>
                        </g>
                    </g>
                </g>
            </g>
            <rect gorn="0.2.0.24" height="2.268" id="connector22pin" fill="#9A916C" width="0.737"  x="19.431" y="21.359"/>
        </g>
        <g transform="matrix(1, 0, 0, 1, 25.2455, 16.9485)" >
            <g >
                <g >
                    <g gorn="0.2.1.0.0.0" id="_x30_805-cap" >
                        <g transform="matrix(0, -1, 1, 0, 1.063, 4.606)" >
                            <g >
                                <g >
                                    <g >
                                        <path fill="#DCDCDC" d="M5.386,3.543H0.283C0.127,3.543,0,3.416,0,3.26V0.283C0,0.127,0.127,0,0.283,0h5.102c0.157,0,0.283,0.127,0.283,0.283V3.26C5.669,3.416,5.542,3.543,5.386,3.543z" />
                                        <g transform="matrix(-2.535182e-06 -1 1 -2.535182e-06 1.063 4.606)" >
                                            <g >
                                                <g >
                                                    <rect height="3.543" fill="#6E554B" width="3.543"  x="1.063" y="0"/>
                                                </g>
                                            </g>
                                        </g>
                                    </g>
                                </g>
                            </g>
                        </g>
                    </g>
                </g>
            </g>
        </g>
        <g transform="matrix(1, 0, 0, 1, 15.548, -0.120154)" >
            <g >
                <g >
                    <g gorn="0.2.2.0.0.0" id="sewingtap_0.5" >
                        <path fill="#9A916C" d="M4.252,7.164c2.426-0.558,4.252-3.201,4.252-6.115c0-0.129-0.022-0.251-0.029-0.378c-1.37-0.25-2.78-0.388-4.222-0.388S1.4,0.421,0.029,0.671C0.022,0.798,0,0.92,0,1.049C0,3.963,1.826,6.606,4.252,7.164z M4.252,2.336c0.855,0,1.548,0.693,1.548,1.548S5.107,5.432,4.252,5.432S2.704,4.738,2.704,3.883C2.704,3.029,3.397,2.336,4.252,2.336z" />
                    </g>
                </g>
            </g>
        </g>
        <g transform="matrix(1, 0, 0, 1, 16.9655, 26.3085)" >
            <g >
                <g >
                    <g gorn="0.2.3.0.0.0" id="_x30_805-res" >
                        <path fill="#DCDCDC" d="M5.386,3.543H0.283C0.127,3.543,0,3.416,0,3.26V0.283C0,0.127,0.127,0,0.283,0h5.102c0.157,0,0.283,0.127,0.283,0.283V3.26C5.669,3.416,5.542,3.543,5.386,3.543z" />
                        <rect height="3.543" fill="#333333" width="3.543"  x="1.063" y="0"/>
                    </g>
                </g>
            </g>
        </g>
        <g transform="matrix(1, 0, 0, 1, 16.9655, 9.74851)" >
            <g >
                <g >
                    <g gorn="0.2.4.0.0.0" id="_x30_805-res_1_" >
                        <path fill="#DCDCDC" d="M5.386,3.543H0.283C0.127,3.543,0,3.416,0,3.26V0.283C0,0.127,0.127,0,0.283,0h5.102c0.157,0,0.283,0.127,0.283,0.283V3.26C5.669,3.416,5.542,3.543,5.386,3.543z" />
                        <rect height="3.543" fill="#333333" width="3.543"  x="1.063" y="0"/>
                    </g>
                </g>
            </g>
        </g>
        <g transform="matrix(1, 0, 0, 1, 29.7076, 7.86895)" >
            <g >
                <g >
                    <g gorn="0.2.5.0.0.0" id="sewingtap_0.5_1_" >
                        <g transform="matrix(0.5, 0.866025, -0.866025, 0.5, 5.2281, -1.89134)" >
                            <g >
                                <g >
                                    <g >
                                        <path fill="#9A916C" d="M4.252,7.164c2.426-0.558,4.252-3.201,4.252-6.115c0-0.129-0.022-0.251-0.029-0.378c-1.37-0.25-2.78-0.388-4.222-0.388S1.4,0.421,0.029,0.671C0.022,0.798,0,0.92,0,1.049C0,3.963,1.826,6.606,4.252,7.164z M4.252,2.336c0.855,0,1.548,0.693,1.548,1.548c0,0.855-0.693,1.548-1.548,1.548S2.704,4.738,2.704,3.883C2.704,3.029,3.397,2.336,4.252,2.336z" />
                                    </g>
                                </g>
                            </g>
                        </g>
                    </g>
                </g>
            </g>
        </g>
        <g transform="matrix(1, 0, 0, 1, 1.38836, 7.86895)" >
            <g >
                <g >
                    <g gorn="0.2.6.0.0.0" id="sewingtap_0.5_2_" >
                        <g transform="matrix(0.5, -0.866025, 0.866025, 0.5, -0.976104, 5.47334)" >
                            <g >
                                <g >
                                    <g >
                                        <path fill="#9A916C" d="M4.252,7.164c2.426-0.558,4.252-3.201,4.252-6.115c0-0.129-0.022-0.251-0.029-0.378c-1.37-0.25-2.78-0.388-4.222-0.388c-1.442,0-2.853,0.138-4.224,0.388C0.022,0.798,0,0.92,0,1.049C0,3.963,1.826,6.606,4.252,7.164z M4.252,2.336c0.855,0,1.548,0.693,1.548,1.548S5.107,5.432,4.252,5.432S2.704,4.738,2.704,3.883C2.704,3.029,3.397,2.336,4.252,2.336z" />
                                    </g>
                                </g>
                            </g>
                        </g>
                    </g>
                </g>
            </g>
        </g>
        <g transform="matrix(1, 0, 0, 1, 29.7076, 24.567)" >
            <g >
                <g >
                    <g gorn="0.2.7.0.0.0" id="sewingtap_0.5_3_" >
                        <g transform="matrix(-0.5, 0.866025, -0.866025, -0.5, 9.4801, 1.69066)" >
                            <g >
                                <g >
                                    <g >
                                        <path fill="#9A916C" d="M4.252,7.164c2.426-0.558,4.252-3.201,4.252-6.115c0-0.129-0.022-0.251-0.029-0.378c-1.37-0.25-2.78-0.388-4.222-0.388c-1.442,0-2.853,0.138-4.224,0.388C0.022,0.798,0,0.92,0,1.049C0,3.963,1.826,6.606,4.252,7.164z M4.252,2.336c0.855,0,1.548,0.693,1.548,1.548S5.107,5.432,4.252,5.432S2.704,4.738,2.704,3.883C2.704,3.029,3.397,2.336,4.252,2.336z" />
                                    </g>
                                </g>
                            </g>
                        </g>
                    </g>
                </g>
            </g>
        </g>
        <g transform="matrix(1, 0, 0, 1, 1.38836, 24.567)" >
            <g >
                <g >
                    <g gorn="0.2.8.0.0.0" id="sewingtap_0.5_4_" >
                        <g transform="matrix(-0.5, -0.866025, 0.866025, -0.5, 3.27589, 9.05537)" >
                            <g >
                                <g >
                                    <g >
                                        <path fill="#9A916C" d="M4.252,7.164c2.426-0.558,4.252-3.201,4.252-6.115c0-0.129-0.022-0.251-0.029-0.378c-1.37-0.25-2.78-0.388-4.222-0.388c-1.442,0-2.853,0.138-4.224,0.388C0.022,0.798,0,0.92,0,1.049C0,3.963,1.826,6.606,4.252,7.164z M4.252,2.336c0.855,0,1.548,0.693,1.548,1.548S5.107,5.432,4.252,5.432S2.704,4.738,2.704,3.883C2.704,3.029,3.397,2.336,4.252,2.336z" />
                                    </g>
                                </g>
                            </g>
                        </g>
                    </g>
                </g>
            </g>
        </g>
        <g transform="matrix(1, 0, 0, 1, 21.2448, 2.10357)" >
            <g >
                <g >
                    <g gorn="0.2.9.0.0.0" id="adafruit_2.5mm" >
                        <path fill="#DCDCDC" d="M9.747,3.082c-0.023-0.142-0.1-0.183-0.286-0.243C9.319,2.794,8.372,2.492,8.372,2.492s-0.66-0.249-1.15,0.103c-0.066,0.048-0.134,0.102-0.203,0.16c0.058-0.069,0.112-0.137,0.159-0.203c0.352-0.49,0.101-1.15,0.101-1.15S6.976,0.455,6.93,0.313C6.87,0.127,6.83,0.05,6.687,0.028C6.545,0.005,6.483,0.066,6.369,0.225c-0.087,0.12-0.667,0.928-0.667,0.928S5.261,1.704,5.445,2.279C5.47,2.356,5.5,2.438,5.534,2.521C5.486,2.445,5.438,2.372,5.39,2.307C5.032,1.821,4.328,1.855,4.328,1.855S3.333,1.851,3.185,1.851c-0.195,0-0.281,0.014-0.347,0.143C2.773,2.122,2.811,2.2,2.927,2.358c0.088,0.12,0.677,0.921,0.677,0.921s0.388,0.59,0.991,0.592c0.081,0,0.168-0.003,0.257-0.01C4.765,3.883,4.681,3.907,4.604,3.932c-0.573,0.19-0.758,0.871-0.758,0.871s-0.31,0.944-0.357,1.085C3.428,6.074,3.416,6.16,3.518,6.262C3.62,6.364,3.706,6.352,3.892,6.29c0.141-0.046,1.085-0.359,1.085-0.359s0.681-0.187,0.869-0.76c0.025-0.077,0.049-0.16,0.07-0.247C5.91,5.014,5.907,5.1,5.907,5.181c0.004,0.603,0.594,0.99,0.594,0.99s0.802,0.588,0.922,0.675C7.581,6.962,7.659,7,7.788,6.935C7.916,6.869,7.931,6.783,7.93,6.588C7.929,6.439,7.924,5.445,7.924,5.445S7.957,4.74,7.47,4.383C7.405,4.335,7.332,4.287,7.256,4.24c0.083,0.034,0.165,0.064,0.242,0.088c0.575,0.183,1.125-0.259,1.125-0.259S9.43,3.488,9.55,3.401C9.709,3.286,9.769,3.224,9.747,3.082z M6.322,2.35c0.108,0.017,0.162,0.248,0.12,0.515C6.4,3.132,6.278,3.335,6.169,3.318C6.061,3.301,6.007,3.07,6.049,2.803C6.091,2.535,6.213,2.332,6.322,2.35z M4.933,3.059c0.05-0.098,0.286-0.078,0.527,0.045s0.397,0.302,0.347,0.399C5.757,3.601,5.521,3.581,5.28,3.458C5.038,3.335,4.883,3.157,4.933,3.059z M5.665,4.393C5.474,4.584,5.256,4.677,5.178,4.599C5.101,4.521,5.193,4.303,5.384,4.112C5.575,3.92,5.793,3.827,5.871,3.905C5.949,3.983,5.857,4.201,5.665,4.393z M6.719,4.842c-0.098,0.05-0.277-0.105-0.4-0.346C6.196,4.254,6.175,4.018,6.273,3.968c0.098-0.05,0.277,0.105,0.4,0.346C6.796,4.556,6.817,4.792,6.719,4.842z M6.973,3.725C6.706,3.767,6.475,3.714,6.457,3.606C6.44,3.497,6.643,3.375,6.91,3.332c0.267-0.043,0.498,0.011,0.515,0.119C7.443,3.56,7.24,3.682,6.973,3.725z" />
                    </g>
                </g>
            </g>
        </g>
        <g transform="matrix(1, 0, 0, 1, 16.9655, 17.5956)" >
            <g >
                <g >
                    <g gorn="0.2.10.0.0.0" id="si114x" >
                        <g transform="matrix(-1, 0, 0, -1, 5.669, 5.669)" >
                            <g >
                                <g >
                                    <g >
                                        <rect height="5.669" fill="#C8C8C8" width="5.669"  x="0" y="0.63"/>
                                        <rect height="0.709" fill="#DCDCDC" width="0.992"  x="0" y="0.984"/>
                                        <rect height="0.709" fill="#DCDCDC" width="0.992"  x="4.677" y="0.984"/>
                                        <polygon points="0,5.236 0,5.945 2.48,5.945 2.48,6.299 3.189,6.299 3.189,5.945 5.669,5.945 5.669,5.236 3.189,5.236 3.189,4.528 5.669,4.528 5.669,3.819 3.189,3.819 3.189,3.11 5.669,3.11 5.669,2.402 3.189,2.402 3.189,0.63 2.48,0.63 2.48,2.402 0,2.402 0,3.11 2.48,3.11 2.48,3.819 0,3.819 0,4.528 2.48,4.528 2.48,5.236 " fill="#DCDCDC" />
                                        <rect height="4.606" fill="#646464" width="3.685"  x="0.992" y="1.339"/>
                                    </g>
                                </g>
                            </g>
                        </g>
                    </g>
                </g>
            </g>
        </g>
        <g transform="matrix(1, 0, 0, 1, 15.548, 32.9162)" >
            <g >
                <g >
                    <g gorn="0.2.11.0.0.0" id="sewingtap_0.5_5_" >
                        <g transform="matrix(-1, 0, 0, -1, 8.50399, 7.164)" >
                            <g >
                                <g >
                                    <g >
                                        <path gorn="0.2.11.0.0.0.0.0.0.0.0" id="connector23pin" fill="#9A916C" d="M4.252,7.456c2.426-0.558,4.252-3.201,4.252-6.115c0-0.129-0.022-0.251-0.029-0.378c-1.37-0.25-2.78-0.388-4.222-0.388S1.4,0.713,0.029,0.963C0.022,1.09,0,1.212,0,1.341C0,4.255,1.826,6.898,4.252,7.456z M4.252,2.628c0.855,0,1.548,0.693,1.548,1.548S5.107,5.724,4.252,5.724S2.704,5.03,2.704,4.175C2.704,3.321,3.397,2.628,4.252,2.628z" />
                                    </g>
                                </g>
                            </g>
                        </g>
                    </g>
                </g>
            </g>
        </g>
    </g>
</svg>
