<?xml version='1.0' encoding='utf-8'?>
<!-- Generator: Adobe Illustrator 20.0.0, SVG Export Plug-In . SVG Version: 6.00 Build 0)  -->
<svg xmlns="http://www.w3.org/2000/svg" baseProfile="tiny" height="0.6in" gorn="0" xml:space="preserve" width="0.8in" version="1.2" xmlns:xml="http://www.w3.org/XML/1998/namespace"  id="Layer_1" x="0px" y="0px" viewBox="0 0 57.6 43.2">
    <desc>
        <referenceFile>Adafruit I2C Non-Volatile FRAM 32KB_breadboard.svg</referenceFile>
    </desc>
    <desc >Fritzing breadboard generated by brd2svg</desc>
    <g gorn="0.1"  id="breadboard">
        <g gorn="0.1.0"  id="icon">
            <path fill="#014CB1" d="M0,7.2C0,3.224,3.224,0,7.2,0c0,0,0,0,0,0h43.2c3.976,0,7.2,3.224,7.2,7.2V36c0,3.976-3.224,7.2-7.2,7.2H7.2C3.224,43.2,0,39.976,0,36c0,0,0,0,0,0V7.2 M52.583,36c0,0.783,0.635,1.417,1.417,1.417c0.783,0,1.417-0.635,1.417-1.417S54.783,34.583,54,34.583S52.583,35.217,52.583,36z M45.383,36c0,0.783,0.635,1.417,1.417,1.417c0.783,0,1.417-0.635,1.417-1.417s-0.635-1.417-1.417-1.417S45.383,35.217,45.383,36z M38.183,36c0,0.783,0.635,1.417,1.417,1.417s1.417-0.635,1.417-1.417s-0.635-1.417-1.417-1.417S38.183,35.217,38.183,36z M30.983,36c0,0.783,0.635,1.417,1.417,1.417c0.783,0,1.417-0.635,1.417-1.417s-0.635-1.417-1.417-1.417C31.617,34.583,30.983,35.217,30.983,36z M23.783,36c0,0.783,0.635,1.417,1.417,1.417c0.783,0,1.417-0.635,1.417-1.417l0,0c0-0.783-0.635-1.417-1.417-1.417C24.417,34.583,23.783,35.217,23.783,36z M16.583,36c0,0.783,0.635,1.417,1.417,1.417c0.783,0,1.417-0.635,1.417-1.417l0,0c0-0.783-0.635-1.417-1.417-1.417C17.217,34.583,16.583,35.217,16.583,36z M9.383,36c0,0.783,0.635,1.417,1.417,1.417s1.417-0.635,1.417-1.417l0,0c0-0.783-0.635-1.417-1.417-1.417S9.383,35.217,9.383,36z M2.183,36c0,0.783,0.635,1.417,1.417,1.417S5.017,36.783,5.017,36S4.383,34.583,3.6,34.583S2.183,35.217,2.183,36z M3.657,7.2c-0.003,1.957,1.58,3.546,3.537,3.549s3.546-1.58,3.549-3.537c0-0.004,0-0.008,0-0.012c0.003-1.957-1.58-3.546-3.537-3.549C5.249,3.647,3.66,5.231,3.657,7.188C3.657,7.192,3.657,7.196,3.657,7.2z M46.857,7.2c-0.003,1.957,1.58,3.546,3.537,3.55c1.957,0.003,3.546-1.58,3.55-3.537c0-0.004,0-0.008,0-0.012c0.003-1.957-1.58-3.546-3.537-3.55c-1.957-0.003-3.546,1.58-3.55,3.537C46.857,7.192,46.857,7.196,46.857,7.2z" />
            <g >
                <title >layer 21</title>
                <g >
                    <title >text:VCC</title>
                    <g transform="matrix(1 0 0 1 2.0462 32.8231)" >
                        <text font-size="2.67264" font-family="'OCRA'" fill="#FFFFFF" >VCC</text>
                    </g>
                </g>
                <g >
                    <title >text:GND</title>
                    <g transform="matrix(1 0 0 1 6.9728 42.7444)" >
                        <text font-size="2.67264" font-family="'OCRA'" fill="#FFFFFF" >GND</text>
                    </g>
                </g>
                <g >
                    <title >text:WP</title>
                    <g transform="matrix(1 0 0 1 15.9645 32.8231)" >
                        <text font-size="2.67264" font-family="'OCRA'" fill="#FFFFFF" >WP</text>
                    </g>
                </g>
                <g >
                    <title >text:SCL</title>
                    <g transform="matrix(1 0 0 1 21.8434 42.7444)" >
                        <text font-size="2.67264" font-family="'OCRA'" fill="#FFFFFF" >SCL</text>
                    </g>
                </g>
                <g >
                    <title >text:SDA</title>
                    <g transform="matrix(1 0 0 1 28.2213 32.8231)" >
                        <text font-size="2.67264" font-family="'OCRA'" fill="#FFFFFF" >SDA</text>
                    </g>
                </g>
                <g >
                    <title >text:A2</title>
                    <g transform="matrix(1 0 0 1 37.2356 42.7444)" >
                        <text font-size="2.67264" font-family="'OCRA'" fill="#FFFFFF" >A2</text>
                    </g>
                </g>
                <g >
                    <title >text:A1</title>
                    <g transform="matrix(1 0 0 1 44.3109 32.8231)" >
                        <text font-size="2.67264" font-family="'OCRA'" fill="#FFFFFF" >A1</text>
                    </g>
                </g>
                <g >
                    <title >text:A0</title>
                    <g transform="matrix(1 0 0 1 51.7717 32.5964)" >
                        <text font-size="2.67264" font-family="'OCRA'" fill="#FFFFFF" >A0</text>
                    </g>
                </g>
                <g >
                    <title >text:I2C FRAM
Breakout</title>
                    <g transform="matrix(1, 0, 0, 1, 0, -2.088)" >
                        <g >
                            <g transform="matrix(1 0 0 1 18.1631 8.568)" >
                                <text font-size="3.3408" font-family="'OCRA'" fill="#FFFFFF" >I2C FRAM</text>
                            </g>
                        </g>
                    </g>
                    <g transform="matrix(1, 0, 0, 1, 0, 2.088)" >
                        <g >
                            <g transform="matrix(1 0 0 1 18.1631 8.568)" >
                                <text font-size="3.3408" font-family="'OCRA'" fill="#FFFFFF" >Breakout</text>
                            </g>
                        </g>
                    </g>
                </g>
                <g >
                    <title >element:C1</title>
                    <g >
                        <title >package:_0805MP</title>
                        <line x1="9.201" stroke-linecap="round" x2="9.201" fill="none"  stroke-width="0.576" stroke="#FFFFFF" y1="26.192" y2="29.072"/>
                    </g>
                </g>
                <g >
                    <title >element:FID1</title>
                    <g >
                        <title >package:FIDUCIAL_1MM</title>
                    </g>
                </g>
                <g >
                    <title >element:FID2</title>
                    <g >
                        <title >package:FIDUCIAL_1MM</title>
                    </g>
                </g>
                <g >
                    <title >element:JP1</title>
                    <g >
                        <title >package:1X08_ROUND_70</title>
                    </g>
                </g>
                <g >
                    <title >element:R1</title>
                    <g >
                        <title >package:_0805MP</title>
                        <line x1="9.201" stroke-linecap="round" x2="9.201" fill="none"  stroke-width="0.576" stroke="#FFFFFF" y1="22.796" y2="19.916"/>
                    </g>
                </g>
                <g >
                    <title >element:R2</title>
                    <g >
                        <title >package:_0805MP</title>
                        <line x1="9.201" stroke-linecap="round" x2="9.201" fill="none"  stroke-width="0.576" stroke="#FFFFFF" y1="17.847" y2="14.967"/>
                    </g>
                </g>
                <g >
                    <title >element:U$4</title>
                    <g >
                        <title >package:ADAFRUIT_3.5MM</title>
                    </g>
                </g>
                <g >
                    <title >element:U$5</title>
                    <g >
                        <title >package:MOUNTINGHOLE_2.5_PLATED</title>
                        <circle cy="7.2" r="5.669" fill="none"  stroke-width="0.576" stroke="#FFFFFF" cx="7.2"/>
                    </g>
                </g>
                <g >
                    <title >element:U$6</title>
                    <g >
                        <title >package:MOUNTINGHOLE_2.5_PLATED</title>
                        <circle cy="7.2" r="5.669" fill="none"  stroke-width="0.576" stroke="#FFFFFF" cx="50.4"/>
                    </g>
                </g>
                <g >
                    <title >element:U1</title>
                    <g >
                        <title >package:SOIC8_208MIL</title>
                        <line x1="34.186" stroke-linecap="round" x2="23.414" fill="none"  stroke-width="0.576" stroke="#FFFFFF" y1="28.403" y2="28.403"/>
                        <line x1="23.414" stroke-linecap="round" x2="34.186" fill="none"  stroke-width="0.576" stroke="#FFFFFF" y1="14.797" y2="14.797"/>
                    </g>
                </g>
            </g>
            <rect height="3.685" gorn="0.1.0.2" width="3.402" fill="#9A916C"  id="connector5pin" x="4.62" y="25.79"/>
            <rect height="3.685" gorn="0.1.0.3" width="3.402" fill="#9A916C"  id="connector6pin" x="10.381" y="25.79"/>
            <path gorn="0.1.0.4" fill="#9A916C" d="M14.995,10.33L14.995,10.33c0.783,0,1.417,0.635,1.417,1.417v0c0,0.783-0.635,1.417-1.417,1.417h0c-0.783,0-1.417-0.635-1.417-1.417v0C13.578,10.964,14.213,10.33,14.995,10.33z"  id="connector7pin"/>
            <path gorn="0.1.0.5" fill="#9A916C" d="M53.518,23.981L53.518,23.981c0.783,0,1.417,0.635,1.417,1.417v0c0,0.783-0.635,1.417-1.417,1.417h0c-0.783,0-1.417-0.635-1.417-1.417v0C52.101,24.616,52.735,23.981,53.518,23.981z"  id="connector8pin"/>
            <circle cy="36" gorn="0.1.0.6" r="1.969" fill="none"  stroke-width="1.1027" id="connector9pin" stroke="#9A916C" cx="54"/>
            <circle cy="36" gorn="0.1.0.7" r="1.969" fill="none"  stroke-width="1.1027" id="connector10pin" stroke="#9A916C" cx="46.8"/>
            <circle cy="36" gorn="0.1.0.8" r="1.969" fill="none"  stroke-width="1.1027" id="connector11pin" stroke="#9A916C" cx="39.6"/>
            <circle cy="36" gorn="0.1.0.9" r="1.969" fill="none"  stroke-width="1.1027" id="connector12pin" stroke="#9A916C" cx="32.4"/>
            <circle cy="36" gorn="0.1.0.10" r="1.969" fill="none"  stroke-width="1.1027" id="connector13pin" stroke="#9A916C" cx="25.2"/>
            <circle cy="36" gorn="0.1.0.11" r="1.969" fill="none"  stroke-width="1.1027" id="connector14pin" stroke="#9A916C" cx="18"/>
            <circle cy="36" gorn="0.1.0.12" r="1.969" fill="none"  stroke-width="1.1027" id="connector15pin" stroke="#9A916C" cx="10.8"/>
            <circle cy="36" gorn="0.1.0.13" r="1.969" fill="none"  stroke-width="1.1027" id="connector16pin" stroke="#9A916C" cx="3.6"/>
            <g transform="matrix(-1, 0, 0, -1, 24.1626, 42.7124)" >
                <g >
                    <rect height="3.685" gorn="0.1.0.14.0.0" width="3.402" fill="#9A916C"  id="connector17pin" x="10.38" y="19.514"/>
                </g>
            </g>
            <g transform="matrix(-1, 0, 0, -1, 12.6426, 42.7124)" >
                <g >
                    <rect height="3.685" gorn="0.1.0.15.0.0" width="3.402" fill="#9A916C"  id="connector18pin" x="4.62" y="19.514"/>
                </g>
            </g>
            <g transform="matrix(-1, 0, 0, -1, 24.1626, 32.8139)" >
                <g >
                    <rect height="3.685" gorn="0.1.0.16.0.0" width="3.402" fill="#9A916C"  id="connector19pin" x="10.38" y="14.564"/>
                </g>
            </g>
            <g transform="matrix(-1, 0, 0, -1, 12.6426, 32.8139)" >
                <g >
                    <rect height="3.685" gorn="0.1.0.17.0.0" width="3.402" fill="#9A916C"  id="connector20pin" x="4.62" y="14.564"/>
                </g>
            </g>
            <circle cy="7.2" gorn="0.1.0.18" r="4.263" fill="none"  stroke-width="1.44" id="connector21pin" stroke="#9A916C" cx="7.2"/>
            <circle cy="7.2" gorn="0.1.0.19" r="4.263" fill="none"  stroke-width="1.44" id="connector22pin" stroke="#9A916C" cx="50.4"/>
            <g transform="matrix(0, -1, 1, 0, 11.1969, 65.1969)" >
                <g >
                    <g transform="matrix(-2.535182e-06 -1 1 -2.535182e-06 11.197 65.197)" >
                        <rect height="1.701" gorn="0.1.0.20.0.0.0" width="6.236" fill="#9A916C"  id="connector23pin" x="35.079" y="26.15"/>
                    </g>
                </g>
            </g>
            <g transform="matrix(0, -1, 1, 0, 14.7969, 61.5969)" >
                <g >
                    <g transform="matrix(-2.535182e-06 -1 1 -2.535182e-06 14.797 61.597)" >
                        <rect height="1.701" gorn="0.1.0.21.0.0.0" width="6.236" fill="#9A916C"  id="connector24pin" x="35.079" y="22.55"/>
                    </g>
                </g>
            </g>
            <g transform="matrix(0, -1, 1, 0, 18.3969, 57.9969)" >
                <g >
                    <g transform="matrix(-2.535182e-06 -1 1 -2.535182e-06 18.397 57.997)" >
                        <rect height="1.701" gorn="0.1.0.22.0.0.0" width="6.236" fill="#9A916C"  id="connector25pin" x="35.079" y="18.95"/>
                    </g>
                </g>
            </g>
            <g transform="matrix(0, -1, 1, 0, 21.9969, 54.3969)" >
                <g >
                    <g transform="matrix(-2.535182e-06 -1 1 -2.535182e-06 21.997 54.3969)" >
                        <rect height="1.701" gorn="0.1.0.23.0.0.0" width="6.236" fill="#9A916C"  id="connector26pin" x="35.079" y="15.35"/>
                    </g>
                </g>
            </g>
            <g transform="matrix(0, -1, 1, 0, 3.20315, 35.6031)" >
                <g >
                    <g transform="matrix(-2.535182e-06 -1 1 -2.535182e-06 3.2031 35.6031)" >
                        <rect height="1.701" gorn="0.1.0.24.0.0.0" width="6.236" fill="#9A916C"  id="connector27pin" x="16.285" y="15.35"/>
                    </g>
                </g>
            </g>
            <g transform="matrix(0, -1, 1, 0, -0.39685, 39.2031)" >
                <g >
                    <g transform="matrix(-2.535182e-06 -1 1 -2.535182e-06 -0.3969 39.2032)" >
                        <rect height="1.701" gorn="0.1.0.25.0.0.0" width="6.236" fill="#9A916C"  id="connector28pin" x="16.285" y="18.95"/>
                    </g>
                </g>
            </g>
            <g transform="matrix(0, -1, 1, 0, -3.99685, 42.8031)" >
                <g >
                    <g transform="matrix(-2.535182e-06 -1 1 -2.535182e-06 -3.9969 42.8032)" >
                        <rect height="1.701" gorn="0.1.0.26.0.0.0" width="6.236" fill="#9A916C"  id="connector29pin" x="16.285" y="22.55"/>
                    </g>
                </g>
            </g>
            <g transform="matrix(0, -1, 1, 0, -7.59686, 46.4031)" >
                <g >
                    <g transform="matrix(-2.535182e-06 -1 1 -2.535182e-06 -7.5969 46.4032)" >
                        <rect height="1.701" gorn="0.1.0.27.0.0.0" width="6.236" fill="#9A916C"  id="connector30pin" x="16.285" y="26.15"/>
                    </g>
                </g>
            </g>
        </g>
        <g transform="matrix(1, 0, 0, 1, 6.36676, 25.8606)" >
            <g gorn="0.1.1.0"  id="_x30_805-cap">
                <path fill="#DCDCDC" d="M5.386,3.543H0.283C0.127,3.543,0,3.416,0,3.26V0.283C0,0.127,0.127,0,0.283,0h5.102c0.157,0,0.283,0.127,0.283,0.283V3.26C5.669,3.416,5.542,3.543,5.386,3.543z" />
                <rect height="3.543" width="3.543" fill="#6E554B"  x="1.063" y="0"/>
            </g>
        </g>
        <g transform="matrix(1, 0, 0, 1, 6.36676, 19.5847)" >
            <g gorn="0.1.2.0"  id="_x30_805-res">
                <g transform="matrix(-1, 0, 0, -1, 5.669, 3.543)" >
                    <g >
                        <path fill="#DCDCDC" d="M5.386,3.543H0.283C0.127,3.543,0,3.416,0,3.26V0.283C0,0.127,0.127,0,0.283,0h5.102c0.157,0,0.283,0.127,0.283,0.283V3.26C5.669,3.416,5.542,3.543,5.386,3.543z" />
                        <rect height="3.543" width="3.543" fill="#333333"  x="1.063" y="0"/>
                    </g>
                </g>
            </g>
        </g>
        <g transform="matrix(1, 0, 0, 1, 6.36676, 14.6354)" >
            <g gorn="0.1.3.0"  id="_x30_805-res_1_">
                <g transform="matrix(-1, 0, 0, -1, 5.669, 3.543)" >
                    <g >
                        <path fill="#DCDCDC" d="M5.386,3.543H0.283C0.127,3.543,0,3.416,0,3.26V0.283C0,0.127,0.127,0,0.283,0h5.102c0.157,0,0.283,0.127,0.283,0.283V3.26C5.669,3.416,5.542,3.543,5.386,3.543z" />
                        <rect height="3.543" width="3.543" fill="#333333"  x="1.063" y="0"/>
                    </g>
                </g>
            </g>
        </g>
        <g transform="matrix(1, 0, 0, 1, 41.142, 15.7391)" >
            <g gorn="0.1.4.0"  id="adafruit_3.5mm">
                <path fill="#DCDCDC" d="M10.941,2.58c-0.032-0.2-0.141-0.257-0.403-0.341C10.339,2.175,9.004,1.75,9.004,1.75s-0.93-0.351-1.619,0.146C7.293,1.962,7.197,2.039,7.1,2.12c0.082-0.097,0.158-0.193,0.224-0.286c0.495-0.69,0.143-1.619,0.143-1.619S7.04-1.119,6.975-1.318C6.89-1.58,6.833-1.688,6.633-1.72c-0.2-0.032-0.288,0.054-0.449,0.277c-0.122,0.17-0.939,1.307-0.939,1.307S4.624,0.641,4.884,1.45c0.034,0.109,0.077,0.224,0.125,0.341C4.942,1.683,4.874,1.582,4.806,1.489C4.303,0.805,3.31,0.853,3.31,0.853S1.91,0.847,1.7,0.847c-0.275-0.001-0.396,0.02-0.488,0.201C1.121,1.229,1.175,1.339,1.338,1.561C1.462,1.73,2.291,2.858,2.291,2.858s0.546,0.83,1.395,0.834c0.114,0,0.236-0.005,0.362-0.014c-0.122,0.03-0.24,0.064-0.348,0.1C2.894,4.045,2.633,5.004,2.633,5.004S2.195,6.334,2.13,6.533C2.044,6.794,2.027,6.916,2.17,7.059c0.144,0.143,0.265,0.126,0.526,0.04c0.199-0.065,1.528-0.506,1.528-0.506s0.958-0.263,1.224-1.07c0.036-0.108,0.069-0.225,0.1-0.348C5.539,5.301,5.534,5.423,5.535,5.537C5.54,6.386,6.371,6.931,6.371,6.931s1.13,0.827,1.298,0.951c0.223,0.162,0.333,0.216,0.514,0.124c0.181-0.092,0.201-0.213,0.2-0.488c-0.001-0.21-0.009-1.61-0.009-1.61s0.047-0.993-0.639-1.495C7.643,4.346,7.541,4.278,7.434,4.211c0.117,0.047,0.232,0.09,0.34,0.124c0.81,0.258,1.584-0.364,1.584-0.364s1.136-0.819,1.306-0.941C10.887,2.869,10.973,2.781,10.941,2.58z M6.119,1.549c0.152,0.024,0.228,0.349,0.169,0.726S6.057,2.937,5.904,2.913S5.675,2.564,5.735,2.188C5.794,1.811,5.966,1.525,6.119,1.549z M4.163,2.548c0.07-0.138,0.402-0.11,0.742,0.063c0.34,0.173,0.558,0.425,0.488,0.563s-0.402,0.11-0.742-0.063C4.311,2.938,4.093,2.686,4.163,2.548z M5.194,4.426c-0.269,0.27-0.577,0.4-0.686,0.291c-0.109-0.109,0.02-0.416,0.29-0.686c0.269-0.27,0.576-0.4,0.686-0.291C5.593,3.849,5.463,4.156,5.194,4.426z M6.678,5.059c-0.138,0.07-0.39-0.148-0.563-0.487C5.941,4.232,5.912,3.899,6.05,3.829s0.39,0.148,0.563,0.487C6.786,4.656,6.815,4.988,6.678,5.059z M7.035,3.486c-0.377,0.06-0.701-0.015-0.726-0.168C6.285,3.165,6.571,2.993,6.947,2.933c0.377-0.06,0.701,0.015,0.726,0.168C7.697,3.254,7.412,3.426,7.035,3.486z" />
            </g>
        </g>
        <g transform="matrix(1, 0, 0, 1, 21.7134, 10.9809)" >
            <g gorn="0.1.5.0"  id="soic8_208mil">
                <g transform="matrix(0, -1, 1, 0, -3.53239, 17.7057)" >
                    <g >
                        <g transform="matrix(1, 0, 0, 1, -298.069, -411.342)" >
                            <g gorn="0.1.5.0.0.0.0.0"  id="layer1">
                                <g transform="matrix(0, -1, 1, 0, -119.993, 729.23)" >
                                    <g gorn="0.1.5.0.0.0.0.0.0.0"  id="g13034">
                                        <rect height="1.134" gorn="0.1.5.0.0.0.0.0.0.0.0" width="3.118" fill="#B3B3B3"  id="rect14-8" x="296.653" y="429.995"/>
                                        <rect height="1.134" gorn="0.1.5.0.0.0.0.0.0.0.1" width="3.118" fill="#B3B3B3"  id="rect13010" x="296.653" y="426.395"/>
                                        <rect height="1.134" gorn="0.1.5.0.0.0.0.0.0.0.2" width="3.118" fill="#B3B3B3"  id="rect13030" x="296.653" y="422.795"/>
                                        <rect height="1.134" gorn="0.1.5.0.0.0.0.0.0.0.3" width="3.118" fill="#B3B3B3"  id="rect13032" x="296.653" y="419.195"/>
                                    </g>
                                </g>
                                <g transform="matrix(0, -1, 1, 0, -119.999, 711.113)" >
                                    <g gorn="0.1.5.0.0.0.0.0.1.0"  id="g13066">
                                        <rect height="1.134" gorn="0.1.5.0.0.0.0.0.1.0.0" width="3.118" fill="#B3B3B3"  id="rect13068" x="296.653" y="429.995"/>
                                        <rect height="1.134" gorn="0.1.5.0.0.0.0.0.1.0.1" width="3.118" fill="#B3B3B3"  id="rect13070" x="296.653" y="426.395"/>
                                        <rect height="1.134" gorn="0.1.5.0.0.0.0.0.1.0.2" width="3.118" fill="#B3B3B3"  id="rect13072" x="296.653" y="422.795"/>
                                        <rect height="1.134" gorn="0.1.5.0.0.0.0.0.1.0.3" width="3.118" fill="#B3B3B3"  id="rect13074" x="296.653" y="419.195"/>
                                    </g>
                                </g>
                                <g gorn="0.1.5.0.0.0.0.0.2"  id="g8144">
                                    <g transform="matrix(-2.535182e-06 -1 1 -2.535182e-06 -116.8292 727.0727)" >
                                        <rect height="14.173" gorn="0.1.5.0.0.0.0.0.2.0.0" width="15.024" fill="#303030"  id="rect30" x="297.609" y="414.864"/>
                                    </g>
                                    <g transform="matrix(-2.535182e-06 -1 1 -2.535182e-06 -126.865 727.5073)" >
                                        <ellipse cy="427.186" gorn="0.1.5.0.0.0.0.0.2.1.0" rx="0.759" ry="0.762" fill="#1F1F1F"  id="circle40" cx="300.32"/>
                                    </g>
                                    <g transform="matrix(-2.535182e-06 -1 1 -2.535182e-06 -123.5409 720.3612)" >
                                        <rect height="0.74" gorn="0.1.5.0.0.0.0.0.2.2.0" width="15.024"  id="rect8125" x="290.897" y="421.581"/>
                                    </g>
                                    <g transform="matrix(-2.535182e-06 -1 1 -2.535182e-06 -110.1466 733.7738)" >
                                        <rect height="0.749" gorn="0.1.5.0.0.0.0.0.2.3.0" width="15.006" fill="#4D4D4D"  id="rect8142" x="304.31" y="421.586"/>
                                    </g>
                                    <polygon gorn="0.1.5.0.0.0.0.0.2.4" fill="#1F1F1F"  id="polygon34" points="312.208,429.462 311.446,428.703 298.796,428.703 298.034,429.462 "/>
                                    <polygon gorn="0.1.5.0.0.0.0.0.2.5" fill="#1F1F1F"  id="polygon32" points="311.446,415.207 298.796,415.207 298.034,414.449 312.208,414.449 "/>
                                </g>
                            </g>
                        </g>
                    </g>
                </g>
            </g>
        </g>
    </g>
</svg>
