<?xml version='1.0' encoding='utf-8'?>
<!-- Generator: Adobe Illustrator 20.0.0, SVG Export Plug-In . SVG Version: 6.00 Build 0)  -->
<svg xmlns="http://www.w3.org/2000/svg" baseProfile="tiny" height="0.7in" gorn="0" xml:space="preserve" width="0.65in" version="1.2" xmlns:xml="http://www.w3.org/XML/1998/namespace"  id="Layer_1" x="0px" y="0px" viewBox="0 0 46.8 50.4">
    <desc>
        <referenceFile>Adafruit HTU21D-F Temperature + Humidity Sensor_breadboard.svg</referenceFile>
    </desc>
    <desc >Fritzing breadboard generated by brd2svg</desc>
    <g gorn="0.1"  id="breadboard">
        <g gorn="0.1.0"  id="icon">
            <path fill="#014CB1" d="M46.8,7.2v36c0,3.976-3.224,7.2-7.2,7.2c0,0,0,0,0,0H7.2c-3.976,0-7.2-3.224-7.2-7.2c0,0,0,0,0,0v-36C0,3.224,3.224,0,7.2,0c0,0,0,0,0,0h32.4C43.576,0,46.8,3.224,46.8,7.2C46.8,7.2,46.8,7.2,46.8,7.2 M7.583,43.2c0,0.783,0.635,1.417,1.417,1.417c0.783,0,1.417-0.635,1.417-1.417S9.783,41.783,9,41.783S7.583,42.417,7.583,43.2z M14.783,43.2c0,0.783,0.635,1.417,1.417,1.417c0.783,0,1.417-0.635,1.417-1.417s-0.635-1.417-1.417-1.417C15.417,41.783,14.783,42.417,14.783,43.2z M21.983,43.2c0,0.783,0.635,1.417,1.417,1.417c0.783,0,1.417-0.635,1.417-1.417s-0.635-1.417-1.417-1.417C22.617,41.783,21.983,42.417,21.983,43.2z M29.183,43.2c0,0.783,0.635,1.417,1.417,1.417c0.783,0,1.417-0.635,1.417-1.417s-0.635-1.417-1.417-1.417C29.817,41.783,29.183,42.417,29.183,43.2z M36.383,43.2c0,0.783,0.635,1.417,1.417,1.417c0.783,0,1.417-0.635,1.417-1.417s-0.635-1.417-1.417-1.417S36.383,42.417,36.383,43.2z M3.657,7.2c-0.003,1.957,1.58,3.546,3.537,3.549s3.546-1.58,3.549-3.537c0-0.004,0-0.008,0-0.012c0.003-1.957-1.58-3.546-3.537-3.549C5.249,3.647,3.66,5.231,3.657,7.188C3.657,7.192,3.657,7.196,3.657,7.2z M36.057,7.2c-0.003,1.957,1.58,3.546,3.537,3.55s3.546-1.58,3.55-3.537c0-0.004,0-0.008,0-0.012c0.003-1.957-1.58-3.546-3.537-3.55c-1.957-0.003-3.546,1.58-3.55,3.537C36.057,7.192,36.057,7.196,36.057,7.2z" />
            <g >
                <title >layer 21</title>
                <g >
                    <title >text:VIN</title>
                    <g transform="matrix(1 0 0 1 5.7369 48.9127)" >
                        <text font-size="2.67264" font-family="'OCRA'" fill="#FFFFFF" >VIN</text>
                    </g>
                </g>
                <g >
                    <title >text:3V3</title>
                    <g transform="matrix(1 0 0 1 12.937 40.2606)" >
                        <text font-size="2.67264" font-family="'OCRA'" fill="#FFFFFF" >3V3</text>
                    </g>
                </g>
                <g >
                    <title >text:GND</title>
                    <g transform="matrix(1 0 0 1 19.7769 49.2727)" >
                        <text font-size="2.67264" font-family="'OCRA'" fill="#FFFFFF" >GND</text>
                    </g>
                </g>
                <g >
                    <title >text:SDA</title>
                    <g transform="matrix(1 0 0 1 27.3369 40.2606)" >
                        <text font-size="2.67264" font-family="'OCRA'" fill="#FFFFFF" >SDA</text>
                    </g>
                </g>
                <g >
                    <title >text:SCL</title>
                    <g transform="matrix(1 0 0 1 34.5369 49.2727)" >
                        <text font-size="2.67264" font-family="'OCRA'" fill="#FFFFFF" >SCL</text>
                    </g>
                </g>
                <g >
                    <title >text:HTU21D-F</title>
                    <g transform="matrix(1 0 0 1 13.68 4.32)" >
                        <text font-size="2.67264" font-family="'OCRA'" fill="#FFFFFF" >HTU21D-F</text>
                    </g>
                </g>
                <g >
                    <title >text:Humidity</title>
                    <g transform="matrix(1 0 0 1 13.7385 8.5104)" >
                        <text font-size="2.67264" font-family="'OCRA'" fill="#FFFFFF" >Humidity</text>
                    </g>
                </g>
                <g >
                    <title >text:sensor</title>
                    <g transform="matrix(1 0 0 1 16.1539 11.3904)" >
                        <text font-size="2.67264" font-family="'OCRA'" fill="#FFFFFF" >sensor</text>
                    </g>
                </g>
                <g >
                    <title >element:C1</title>
                    <g >
                        <title >package:0805-NO</title>
                        <line x1="21.96" stroke-linecap="round" x2="21.96" fill="none"  stroke-width="0.864" stroke="#FFFFFF" y1="15.84" y2="12.96"/>
                    </g>
                </g>
                <g >
                    <title >element:C2</title>
                    <g >
                        <title >package:0805-NO</title>
                        <line x1="6.84" stroke-linecap="round" x2="6.84" fill="none"  stroke-width="0.864" stroke="#FFFFFF" y1="33.84" y2="36.72"/>
                    </g>
                </g>
                <g >
                    <title >element:C3</title>
                    <g >
                        <title >package:0805-NO</title>
                        <line x1="10.8" stroke-linecap="round" x2="10.8" fill="none"  stroke-width="0.864" stroke="#FFFFFF" y1="14.4" y2="17.28"/>
                    </g>
                </g>
                <g >
                    <title >element:FID1</title>
                    <g >
                        <title >package:FIDUCIAL_1MM</title>
                    </g>
                </g>
                <g >
                    <title >element:FID2</title>
                    <g >
                        <title >package:FIDUCIAL_1MM</title>
                    </g>
                </g>
                <g >
                    <title >element:JP1</title>
                    <g >
                        <title >package:1X05_ROUND_70</title>
                    </g>
                </g>
                <g >
                    <title >element:Q1</title>
                    <g >
                        <title >package:SOT23-WIDE</title>
                        <line x1="28.141" stroke-linecap="round" x2="28.141" fill="none"  stroke-width="0.576" stroke="#FFFFFF" y1="31.271" y2="34.992"/>
                        <line x1="28.141" stroke-linecap="round" x2="25.423" fill="none"  stroke-width="0.576" stroke="#FFFFFF" y1="34.992" y2="34.992"/>
                        <line x1="18.659" stroke-linecap="round" x2="18.659" fill="none"  stroke-width="0.576" stroke="#FFFFFF" y1="34.992" y2="31.271"/>
                        <line x1="21.377" stroke-linecap="round" x2="18.659" fill="none"  stroke-width="0.576" stroke="#FFFFFF" y1="34.992" y2="34.992"/>
                        <line x1="22.77" stroke-linecap="round" x2="24.07" fill="none"  stroke-width="0.576" stroke="#FFFFFF" y1="31.248" y2="31.248"/>
                    </g>
                </g>
                <g >
                    <title >element:Q2</title>
                    <g >
                        <title >package:SOT23-WIDE</title>
                        <line x1="31.631" stroke-linecap="round" x2="35.352" fill="none"  stroke-width="0.576" stroke="#FFFFFF" y1="17.579" y2="17.579"/>
                        <line x1="35.352" stroke-linecap="round" x2="35.352" fill="none"  stroke-width="0.576" stroke="#FFFFFF" y1="17.579" y2="20.297"/>
                        <line x1="35.352" stroke-linecap="round" x2="31.631" fill="none"  stroke-width="0.576" stroke="#FFFFFF" y1="27.061" y2="27.061"/>
                        <line x1="35.352" stroke-linecap="round" x2="35.352" fill="none"  stroke-width="0.576" stroke="#FFFFFF" y1="24.343" y2="27.061"/>
                        <line x1="31.608" stroke-linecap="round" x2="31.608" fill="none"  stroke-width="0.576" stroke="#FFFFFF" y1="22.95" y2="21.65"/>
                    </g>
                </g>
                <g >
                    <title >element:R1</title>
                    <g >
                        <title >package:0805-NO</title>
                        <line x1="29.52" stroke-linecap="round" x2="32.4" fill="none"  stroke-width="0.864" stroke="#FFFFFF" y1="32.4" y2="32.4"/>
                    </g>
                </g>
                <g >
                    <title >element:R2</title>
                    <g >
                        <title >package:0805-NO</title>
                        <line x1="39.96" stroke-linecap="round" x2="42.84" fill="none"  stroke-width="0.864" stroke="#FFFFFF" y1="23.4" y2="23.4"/>
                    </g>
                </g>
                <g >
                    <title >element:R3</title>
                    <g >
                        <title >package:0805-NO</title>
                        <line x1="16.92" stroke-linecap="round" x2="14.04" fill="none"  stroke-width="0.864" stroke="#FFFFFF" y1="32.04" y2="32.04"/>
                    </g>
                </g>
                <g >
                    <title >element:R4</title>
                    <g >
                        <title >package:0805-NO</title>
                        <line x1="40.68" stroke-linecap="round" x2="40.68" fill="none"  stroke-width="0.864" stroke="#FFFFFF" y1="32.76" y2="35.64"/>
                    </g>
                </g>
                <g >
                    <title >element:U$1</title>
                    <g >
                        <title >package:ADAFRUIT_3.5MM</title>
                    </g>
                </g>
                <g >
                    <title >element:U$3</title>
                    <g >
                        <title >package:MOUNTINGHOLE_2.5_PLATED</title>
                        <circle cy="7.2" r="5.669" fill="none"  stroke-width="0.576" stroke="#FFFFFF" cx="7.2"/>
                    </g>
                </g>
                <g >
                    <title >element:U$4</title>
                    <g >
                        <title >package:MOUNTINGHOLE_2.5_PLATED</title>
                        <circle cy="7.2" r="5.669" fill="none"  stroke-width="0.576" stroke="#FFFFFF" cx="39.6"/>
                    </g>
                </g>
                <g >
                    <title >element:U$8</title>
                    <g >
                        <title >package:ADAFRUIT_2.5MM</title>
                    </g>
                </g>
                <g >
                    <title >element:U1</title>
                    <g >
                        <title >package:HTU21DF</title>
                        <line x1="16.705" stroke-linecap="round" x2="16.705" fill="none"  stroke-width="0.36" stroke="#FFFFFF" y1="18.351" y2="17.785"/>
                        <line x1="16.705" stroke-linecap="round" x2="25.775" fill="none"  stroke-width="0.36" stroke="#FFFFFF" y1="17.785" y2="17.785"/>
                        <line x1="25.775" stroke-linecap="round" x2="25.775" fill="none"  stroke-width="0.36" stroke="#FFFFFF" y1="17.785" y2="18.351"/>
                        <line x1="16.705" stroke-linecap="round" x2="16.705" fill="none"  stroke-width="0.36" stroke="#FFFFFF" y1="26.288" y2="26.855"/>
                        <line x1="16.705" stroke-linecap="round" x2="25.775" fill="none"  stroke-width="0.36" stroke="#FFFFFF" y1="26.855" y2="26.855"/>
                        <line x1="25.775" stroke-linecap="round" x2="25.775" fill="none"  stroke-width="0.36" stroke="#FFFFFF" y1="26.855" y2="26.288"/>
                        <circle cy="27.451" r="0.425" fill="none"  stroke-width="0.864" stroke="#FFFFFF" cx="27.788"/>
                    </g>
                </g>
                <g >
                    <title >element:U2</title>
                    <g >
                        <title >package:SOT23-5</title>
                        <line x1="2.163" stroke-linecap="round" x2="2.163" fill="none"  stroke-width="0.576" stroke="#FFFFFF" y1="24.372" y2="28.908"/>
                        <line x1="11.517" stroke-linecap="round" x2="11.517" fill="none"  stroke-width="0.576" stroke="#FFFFFF" y1="24.372" y2="28.908"/>
                        <line x1="5.706" stroke-linecap="round" x2="7.974" fill="none"  stroke-width="0.576" stroke="#FFFFFF" y1="23.664" y2="23.664"/>
                    </g>
                </g>
            </g>
            <g transform="matrix(-1, 0, 0, -1, 49.3058, 28.8)" >
                <g >
                    <rect height="4.252" gorn="0.1.0.2.0.0" width="3.685" fill="#9A916C"  id="connector5pin" x="22.81" y="12.274"/>
                </g>
            </g>
            <g transform="matrix(-1, 0, 0, -1, 38.5342, 28.8)" >
                <g >
                    <rect height="4.252" gorn="0.1.0.3.0.0" width="3.685" fill="#9A916C"  id="connector6pin" x="17.425" y="12.274"/>
                </g>
            </g>
            <rect height="4.252" gorn="0.1.0.4" width="3.685" fill="#9A916C"  id="connector7pin" x="2.305" y="33.154"/>
            <rect height="4.252" gorn="0.1.0.5" width="3.685" fill="#9A916C"  id="connector8pin" x="7.69" y="33.154"/>
            <rect height="4.252" gorn="0.1.0.6" width="3.685" fill="#9A916C"  id="connector9pin" x="6.265" y="13.714"/>
            <rect height="4.252" gorn="0.1.0.7" width="3.685" fill="#9A916C"  id="connector10pin" x="11.65" y="13.714"/>
            <path gorn="0.1.0.8" fill="#9A916C" d="M3.24,15.503L3.24,15.503c0.783,0,1.417,0.635,1.417,1.417v0c0,0.783-0.635,1.417-1.417,1.417h0c-0.783,0-1.417-0.635-1.417-1.417v0C1.823,16.137,2.457,15.503,3.24,15.503z"  id="connector11pin"/>
            <path gorn="0.1.0.9" fill="#9A916C" d="M43.2,38.543L43.2,38.543c0.783,0,1.417,0.635,1.417,1.417v0c0,0.783-0.635,1.417-1.417,1.417h0c-0.783,0-1.417-0.635-1.417-1.417v0C41.783,39.177,42.417,38.543,43.2,38.543z"  id="connector12pin"/>
            <circle cy="43.2" gorn="0.1.0.10" r="1.969" fill="none"  stroke-width="1.1027" id="connector13pin" stroke="#9A916C" cx="9"/>
            <rect height="3.937" width="3.937" fill="none"  stroke-width="1.1027" x="7.031" y="41.231" stroke="#9A916C"/>
            <circle cy="43.2" gorn="0.1.0.12" r="1.969" fill="none"  stroke-width="1.1027" id="connector14pin" stroke="#9A916C" cx="16.2"/>
            <circle cy="43.2" gorn="0.1.0.13" r="1.969" fill="none"  stroke-width="1.1027" id="connector15pin" stroke="#9A916C" cx="23.4"/>
            <circle cy="43.2" gorn="0.1.0.14" r="1.969" fill="none"  stroke-width="1.1027" id="connector16pin" stroke="#9A916C" cx="30.6"/>
            <circle cy="43.2" gorn="0.1.0.15" r="1.969" fill="none"  stroke-width="1.1027" id="connector17pin" stroke="#9A916C" cx="37.8"/>
            <g transform="matrix(-1, 0, 0, -1, 52.1858, 60.5707)" >
                <g >
                    <rect height="3.402" gorn="0.1.0.16.0.0" width="2.835" fill="#9A916C"  id="connector18pin" x="24.676" y="28.585"/>
                </g>
            </g>
            <g transform="matrix(-1, 0, 0, -1, 41.4142, 60.5707)" >
                <g >
                    <rect height="3.402" gorn="0.1.0.17.0.0" width="2.835" fill="#9A916C"  id="connector19pin" x="19.29" y="28.585"/>
                </g>
            </g>
            <g transform="matrix(-1, 0, 0, -1, 46.8, 71.9093)" >
                <g >
                    <rect height="3.402" gorn="0.1.0.18.0.0" width="2.835" fill="#9A916C"  id="connector20pin" x="21.983" y="34.254"/>
                </g>
            </g>
            <g transform="matrix(0, 1, -1, 0, 50.2724, -11.0182)" >
                <g >
                    <g transform="matrix(2.535182e-06 1 -1 2.535182e-06 50.2723 -11.0183)" >
                        <rect height="2.835" gorn="0.1.0.19.0.0.0" width="3.402" fill="#9A916C"  id="connector21pin" x="28.945" y="18.21"/>
                    </g>
                </g>
            </g>
            <g transform="matrix(0, 1, -1, 0, 55.6582, -5.63244)" >
                <g >
                    <g transform="matrix(2.535182e-06 1 -1 2.535182e-06 55.6582 -5.6324)" >
                        <rect height="2.835" gorn="0.1.0.20.0.0.0" width="3.402" fill="#9A916C"  id="connector22pin" x="28.945" y="23.596"/>
                    </g>
                </g>
            </g>
            <g transform="matrix(0, 1, -1, 0, 58.6346, -13.9946)" >
                <g >
                    <g transform="matrix(2.535182e-06 1 -1 2.535182e-06 58.6345 -13.9947)" >
                        <rect height="2.835" gorn="0.1.0.21.0.0.0" width="3.402" fill="#9A916C"  id="connector23pin" x="34.614" y="20.903"/>
                    </g>
                </g>
            </g>
            <g transform="matrix(0, -1, 1, 0, -4.13292, 66.0529)" >
                <g >
                    <g transform="matrix(-2.535182e-06 -1 1 -2.535182e-06 -4.1329 66.0529)" >
                        <rect height="3.685" gorn="0.1.0.22.0.0.0" width="4.252" fill="#9A916C"  id="connector24pin" x="28.834" y="33.25"/>
                    </g>
                </g>
            </g>
            <g transform="matrix(0, -1, 1, 0, 1.25292, 60.6671)" >
                <g >
                    <g transform="matrix(-2.535182e-06 -1 1 -2.535182e-06 1.2529 60.6671)" >
                        <rect height="3.685" gorn="0.1.0.23.0.0.0" width="4.252" fill="#9A916C"  id="connector25pin" x="28.834" y="27.865"/>
                    </g>
                </g>
            </g>
            <g transform="matrix(0, -1, 1, 0, 15.3071, 67.4929)" >
                <g >
                    <g transform="matrix(-2.535182e-06 -1 1 -2.535182e-06 15.3071 67.4929)" >
                        <rect height="3.685" gorn="0.1.0.24.0.0.0" width="4.252" fill="#9A916C"  id="connector26pin" x="39.274" y="24.25"/>
                    </g>
                </g>
            </g>
            <g transform="matrix(0, -1, 1, 0, 20.6929, 62.1071)" >
                <g >
                    <g transform="matrix(-2.535182e-06 -1 1 -2.535182e-06 20.6929 62.1071)" >
                        <rect height="3.685" gorn="0.1.0.25.0.0.0" width="4.252" fill="#9A916C"  id="connector27pin" x="39.274" y="18.865"/>
                    </g>
                </g>
            </g>
            <g transform="matrix(0, 1, -1, 0, 44.8271, 13.8671)" >
                <g >
                    <g transform="matrix(2.535182e-06 1 -1 2.535182e-06 44.827 13.8671)" >
                        <rect height="3.685" gorn="0.1.0.26.0.0.0" width="4.252" fill="#9A916C"  id="connector28pin" x="13.354" y="27.505"/>
                    </g>
                </g>
            </g>
            <g transform="matrix(0, 1, -1, 0, 50.2129, 19.2529)" >
                <g >
                    <g transform="matrix(2.535182e-06 1 -1 2.535182e-06 50.2128 19.2529)" >
                        <rect height="3.685" gorn="0.1.0.27.0.0.0" width="4.252" fill="#9A916C"  id="connector29pin" x="13.354" y="32.89"/>
                    </g>
                </g>
            </g>
            <rect height="4.252" gorn="0.1.0.28" width="3.685" fill="#9A916C"  id="connector30pin" x="36.145" y="32.074"/>
            <rect height="4.252" gorn="0.1.0.29" width="3.685" fill="#9A916C"  id="connector31pin" x="41.53" y="32.074"/>
            <circle cy="7.2" gorn="0.1.0.30" r="4.263" fill="none"  stroke-width="1.44" id="connector32pin" stroke="#9A916C" cx="7.2"/>
            <circle cy="7.2" gorn="0.1.0.31" r="4.263" fill="none"  stroke-width="1.44" id="connector33pin" stroke="#9A916C" cx="39.6"/>
            <g transform="matrix(0, -1, 1, 0, -2.49732, 36.4734)" >
                <g >
                    <g transform="matrix(-2.535182e-06 -1 1 -2.535182e-06 -2.4973 36.4734)" >
                        <rect height="1.134" gorn="0.1.0.32.0.0.0" width="2.268" fill="#9A916C"  id="connector34pin" x="15.854" y="18.918"/>
                    </g>
                </g>
            </g>
            <g transform="matrix(0, -1, 1, 0, -5.33197, 39.308)" >
                <g >
                    <g transform="matrix(-2.535182e-06 -1 1 -2.535182e-06 -5.3319 39.308)" >
                        <rect height="1.134" gorn="0.1.0.33.0.0.0" width="2.268" fill="#9A916C"  id="connector35pin" x="15.854" y="21.753"/>
                    </g>
                </g>
            </g>
            <g transform="matrix(0, -1, 1, 0, -8.1666, 42.1427)" >
                <g >
                    <g transform="matrix(-2.535182e-06 -1 1 -2.535182e-06 -8.1666 42.1428)" >
                        <rect height="1.134" gorn="0.1.0.34.0.0.0" width="2.268" fill="#9A916C"  id="connector36pin" x="15.854" y="24.588"/>
                    </g>
                </g>
            </g>
            <g transform="matrix(0, 1, -1, 0, 50.6466, -0.337323)" >
                <g >
                    <g transform="matrix(2.535182e-06 1 -1 2.535182e-06 50.6465 -0.3373)" >
                        <rect height="1.134" gorn="0.1.0.35.0.0.0" width="2.268" fill="#9A916C"  id="connector37pin" x="24.358" y="24.588"/>
                    </g>
                </g>
            </g>
            <g transform="matrix(0, 1, -1, 0, 47.812, -3.17197)" >
                <g >
                    <g transform="matrix(2.535182e-06 1 -1 2.535182e-06 47.8118 -3.172)" >
                        <rect height="1.134" gorn="0.1.0.36.0.0.0" width="2.268" fill="#9A916C"  id="connector38pin" x="24.358" y="21.753"/>
                    </g>
                </g>
            </g>
            <g transform="matrix(0, 1, -1, 0, 44.9773, -6.00661)" >
                <g >
                    <g transform="matrix(2.535182e-06 1 -1 2.535182e-06 44.9772 -6.0066)" >
                        <rect height="1.134" gorn="0.1.0.37.0.0.0" width="2.268" fill="#9A916C"  id="connector39pin" x="24.358" y="18.918"/>
                    </g>
                </g>
            </g>
            <rect height="3.402" gorn="0.1.0.38" width="1.559" fill="#9A916C"  id="connector41pin" x="3.368" y="28.625"/>
            <rect height="3.402" gorn="0.1.0.39" width="1.559" fill="#9A916C"  id="connector42pin" x="6.06" y="28.625"/>
            <rect height="3.402" gorn="0.1.0.40" width="1.559" fill="#9A916C"  id="connector43pin" x="8.753" y="28.625"/>
            <rect height="3.402" gorn="0.1.0.41" width="1.559" fill="#9A916C"  id="connector44pin" x="8.753" y="21.254"/>
            <rect height="3.402" gorn="0.1.0.42" width="1.559" fill="#9A916C"  id="connector45pin" x="3.368" y="21.254"/>
        </g>
        <g transform="matrix(1, 0, 0, 1, 19.1255, 12.6285)" >
            <g gorn="0.1.1.0"  id="_x30_805-cap">
                <g transform="matrix(-1, 0, 0, -1, 5.669, 3.543)" >
                    <g >
                        <path fill="#DCDCDC" d="M5.386,3.543H0.283C0.127,3.543,0,3.416,0,3.26V0.283C0,0.127,0.127,0,0.283,0h5.102c0.157,0,0.283,0.127,0.283,0.283V3.26C5.669,3.416,5.542,3.543,5.386,3.543z" />
                        <rect height="3.543" width="3.543" fill="#6E554B"  x="1.063" y="0"/>
                    </g>
                </g>
            </g>
        </g>
        <g transform="matrix(1, 0, 0, 1, 4.0055, 33.5085)" >
            <g gorn="0.1.2.0"  id="_x30_805-cap_1_">
                <path fill="#DCDCDC" d="M5.386,3.543H0.283C0.127,3.543,0,3.416,0,3.26V0.283C0,0.127,0.127,0,0.283,0h5.102c0.157,0,0.283,0.127,0.283,0.283V3.26C5.669,3.416,5.542,3.543,5.386,3.543z" />
                <rect height="3.543" width="3.543" fill="#6E554B"  x="1.063" y="0"/>
            </g>
        </g>
        <g transform="matrix(1, 0, 0, 1, 7.9655, 14.0685)" >
            <g gorn="0.1.3.0"  id="_x30_805-cap_2_">
                <path fill="#DCDCDC" d="M5.386,3.543H0.283C0.127,3.543,0,3.416,0,3.26V0.283C0,0.127,0.127,0,0.283,0h5.102c0.157,0,0.283,0.127,0.283,0.283V3.26C5.669,3.416,5.542,3.543,5.386,3.543z" />
                <rect height="3.543" width="3.543" fill="#6E554B"  x="1.063" y="0"/>
            </g>
        </g>
        <g transform="matrix(1, 0, 0, 1, 19.148, 29.293)" >
            <g gorn="0.1.4.0"  id="sot23-wide">
                <g transform="matrix(-1, 0, 0, -1, 8.50399, 7.65403)" >
                    <g >
                        <g >
                            <rect height="2.976" width="1.417" fill="#DCDCDC"  x="0.85" y="4.677"/>
                            <rect height="2.976" width="1.417" fill="#DCDCDC"  x="6.236" y="4.677"/>
                            <rect height="3.118" width="1.417" fill="#DCDCDC"  x="3.543" y="0"/>
                            <rect height="3.685" width="8.504" fill="#303030"  x="0" y="1.984"/>
                        </g>
                    </g>
                </g>
            </g>
        </g>
        <g transform="matrix(1, 0, 0, 1, 29.228, 18.493)" >
            <g gorn="0.1.5.0"  id="sot23-wide_1_">
                <g transform="matrix(0, 1, -1, 0, 8.07898, -0.42498)" >
                    <g >
                        <g >
                            <g transform="matrix(2.535182e-06 1 -1 2.535182e-06 7.7235 4.6065)" >
                                <rect height="1.417" width="2.976" fill="#DCDCDC"  x="0.071" y="5.457"/>
                            </g>
                            <g transform="matrix(2.535182e-06 1 -1 2.535182e-06 13.1095 -0.7795)" >
                                <rect height="1.417" width="2.976" fill="#DCDCDC"  x="5.457" y="5.457"/>
                            </g>
                            <g transform="matrix(2.535182e-06 1 -1 2.535182e-06 5.8105 -2.6925)" >
                                <rect height="1.417" width="3.118" fill="#DCDCDC"  x="2.693" y="0.85"/>
                            </g>
                            <g transform="matrix(2.535182e-06 1 -1 2.535182e-06 8.0785 -0.4255)" >
                                <rect height="8.504" width="3.685" fill="#303030"  x="2.409" y="-0.425"/>
                            </g>
                        </g>
                    </g>
                </g>
            </g>
        </g>
        <g transform="matrix(1, 0, 0, 1, 28.1255, 30.6285)" >
            <g gorn="0.1.6.0"  id="_x30_805-res">
                <g transform="matrix(0, -1, 1, 0, 1.063, 4.606)" >
                    <g >
                        <path fill="#DCDCDC" d="M5.386,3.543H0.283C0.127,3.543,0,3.416,0,3.26V0.283C0,0.127,0.127,0,0.283,0h5.102c0.157,0,0.283,0.127,0.283,0.283V3.26C5.669,3.416,5.542,3.543,5.386,3.543z" />
                        <g transform="matrix(-2.535182e-06 -1 1 -2.535182e-06 1.063 4.606)" >
                            <rect height="3.543" width="3.543" fill="#333333"  x="1.063" y="0"/>
                        </g>
                    </g>
                </g>
            </g>
        </g>
        <g transform="matrix(1, 0, 0, 1, 38.5655, 21.6285)" >
            <g gorn="0.1.7.0"  id="_x30_805-res_1_">
                <g transform="matrix(0, -1, 1, 0, 1.063, 4.606)" >
                    <g >
                        <path fill="#DCDCDC" d="M5.386,3.543H0.283C0.127,3.543,0,3.416,0,3.26V0.283C0,0.127,0.127,0,0.283,0h5.102c0.157,0,0.283,0.127,0.283,0.283V3.26C5.669,3.416,5.542,3.543,5.386,3.543z" />
                        <g transform="matrix(-2.535182e-06 -1 1 -2.535182e-06 1.063 4.606)" >
                            <rect height="3.543" width="3.543" fill="#333333"  x="1.063" y="0"/>
                        </g>
                    </g>
                </g>
            </g>
        </g>
        <g transform="matrix(1, 0, 0, 1, 12.6455, 30.2685)" >
            <g gorn="0.1.8.0"  id="_x30_805-res_2_">
                <g transform="matrix(0, 1, -1, 0, 4.606, -1.063)" >
                    <g >
                        <path fill="#DCDCDC" d="M5.386,3.543H0.283C0.127,3.543,0,3.416,0,3.26V0.283C0,0.127,0.127,0,0.283,0h5.102c0.157,0,0.283,0.127,0.283,0.283V3.26C5.669,3.416,5.542,3.543,5.386,3.543z" />
                        <g transform="matrix(2.535182e-06 1 -1 2.535182e-06 4.606 -1.063)" >
                            <rect height="3.543" width="3.543" fill="#333333"  x="1.063" y="0"/>
                        </g>
                    </g>
                </g>
            </g>
        </g>
        <g transform="matrix(1, 0, 0, 1, 37.8455, 32.4285)" >
            <g gorn="0.1.9.0"  id="_x30_805-res_3_">
                <path fill="#DCDCDC" d="M5.386,3.543H0.283C0.127,3.543,0,3.416,0,3.26V0.283C0,0.127,0.127,0,0.283,0h5.102c0.157,0,0.283,0.127,0.283,0.283V3.26C5.669,3.416,5.542,3.543,5.386,3.543z" />
                <rect height="3.543" width="3.543" fill="#333333"  x="1.063" y="0"/>
            </g>
        </g>
        <g transform="matrix(1, 0, 0, 1, 24.4848, 10.0236)" >
            <g gorn="0.1.10.0"  id="adafruit_2.5mm">
                <path fill="#DCDCDC" d="M9.747,3.082c-0.023-0.142-0.1-0.183-0.286-0.243C9.319,2.794,8.372,2.492,8.372,2.492s-0.66-0.249-1.15,0.103c-0.066,0.048-0.134,0.102-0.203,0.16c0.058-0.069,0.112-0.137,0.159-0.203c0.352-0.49,0.101-1.15,0.101-1.15S6.976,0.455,6.93,0.313C6.87,0.127,6.83,0.05,6.687,0.028C6.545,0.005,6.483,0.066,6.369,0.225c-0.087,0.12-0.667,0.928-0.667,0.928S5.261,1.704,5.445,2.279C5.47,2.356,5.5,2.438,5.534,2.521C5.486,2.445,5.438,2.372,5.39,2.307C5.032,1.821,4.328,1.855,4.328,1.855S3.333,1.851,3.185,1.851c-0.195,0-0.281,0.014-0.347,0.143C2.773,2.122,2.811,2.2,2.927,2.358c0.088,0.12,0.677,0.921,0.677,0.921s0.388,0.59,0.991,0.592c0.081,0,0.168-0.003,0.257-0.01C4.765,3.883,4.681,3.907,4.604,3.932c-0.573,0.19-0.758,0.871-0.758,0.871s-0.31,0.944-0.357,1.085C3.428,6.074,3.416,6.16,3.518,6.262C3.62,6.364,3.706,6.352,3.892,6.29c0.141-0.046,1.085-0.359,1.085-0.359s0.681-0.187,0.869-0.76c0.025-0.077,0.049-0.16,0.07-0.247C5.91,5.014,5.907,5.1,5.907,5.181c0.004,0.603,0.594,0.99,0.594,0.99s0.802,0.588,0.922,0.675C7.581,6.962,7.659,7,7.788,6.935C7.916,6.869,7.931,6.783,7.93,6.588C7.929,6.439,7.924,5.445,7.924,5.445S7.957,4.74,7.47,4.383C7.405,4.335,7.332,4.287,7.256,4.24c0.083,0.034,0.165,0.064,0.242,0.088c0.575,0.183,1.125-0.259,1.125-0.259S9.43,3.488,9.55,3.401C9.709,3.286,9.769,3.224,9.747,3.082z M6.322,2.35c0.108,0.017,0.162,0.248,0.12,0.515C6.4,3.132,6.278,3.335,6.169,3.318C6.061,3.301,6.007,3.07,6.049,2.803C6.091,2.535,6.213,2.332,6.322,2.35z M4.933,3.059c0.05-0.098,0.286-0.078,0.527,0.045s0.397,0.302,0.347,0.399C5.757,3.601,5.521,3.581,5.28,3.458C5.038,3.335,4.883,3.157,4.933,3.059z M5.665,4.393C5.474,4.584,5.256,4.677,5.178,4.599C5.101,4.521,5.193,4.303,5.384,4.112C5.575,3.92,5.793,3.827,5.871,3.905C5.949,3.983,5.857,4.201,5.665,4.393z M6.719,4.842c-0.098,0.05-0.277-0.105-0.4-0.346C6.196,4.254,6.175,4.018,6.273,3.968c0.098-0.05,0.277,0.105,0.4,0.346C6.796,4.556,6.817,4.792,6.719,4.842z M6.973,3.725C6.706,3.767,6.475,3.714,6.457,3.606C6.44,3.497,6.643,3.375,6.91,3.332c0.267-0.043,0.498,0.011,0.515,0.119C7.443,3.56,7.24,3.682,6.973,3.725z" />
            </g>
        </g>
        <g transform="matrix(1, 0, 0, 1, 17.9257, 18.7042)" >
            <g gorn="0.1.11.0"  id="htu21df">
                <g >
                    <rect height="8.504" width="8.504" fill="#333333"  x="-0.922" y="-0.656"/>
                    <path fill="#DCDCDC" d="M5.456,4.872H1.204c-0.783,0-1.417-0.635-1.417-1.417l0-2.552c0-0.783,0.635-1.417,1.417-1.417h4.252c0.783,0,1.417,0.635,1.417,1.417l0,2.551C6.873,4.237,6.239,4.872,5.456,4.872z" />
                </g>
            </g>
        </g>
        <g transform="matrix(1, 0, 0, 1, 2.72999, 22.813)" >
            <g gorn="0.1.12.0"  id="sot23-5">
                <g >
                    <rect height="7.654" width="1.134" fill="#DCDCDC"  x="0.85" y="0"/>
                    <rect height="7.654" width="1.134" fill="#DCDCDC"  x="6.236" y="0"/>
                    <rect height="3.118" width="1.134" fill="#DCDCDC"  x="3.543" y="4.535"/>
                    <rect height="4.535" width="8.22" fill="#303030"  x="0" y="1.559"/>
                </g>
            </g>
        </g>
    </g>
</svg>
