<?xml version='1.0' encoding='UTF-8' standalone='no'?>
<!-- Created with Fritzing (http://www.fritzing.org/) -->
<svg xmlns="http://www.w3.org/2000/svg" height="0.75in" baseProfile="tiny" width="0.941102in" version="1.2"  x="0in" y="0in" viewBox="0 0 67.7593 54">
    <desc>
        <referenceFile>Adafruit Mini Lipo_breadboard.svg</referenceFile>
    </desc>
    <desc >Fritzing breadboard generated by brd2svg</desc>
    <g gorn="0.1"  id="breadboard">
        <g gorn="0.1.0"  id="icon">
            <path fill="#014cb1" d="M8.35934,0L60.5593,0A7.2,7.2,0,0,1,67.7593,7.2L67.7593,46.8A7.2,7.2,0,0,1,60.5593,54L8.35934,54A7.2,7.2,0,0,1,1.15937,46.8L1.15937,7.2A7.2,7.2,0,0,1,8.35934,0M14.4567,20.7638a1.41732,1.41732,0,1,0,2.83465,0,1.41732,1.41732,0,1,0,-2.83465,0zM14.4567,33.2362a1.41732,1.41732,0,1,0,2.83465,0,1.41732,1.41732,0,1,0,-2.83465,0zM48.342,7.2a1.41732,1.41732,0,1,0,2.83465,0,1.41732,1.41732,0,1,0,-2.83465,0zM41.142,7.2a1.41732,1.41732,0,1,0,2.83465,0,1.41732,1.41732,0,1,0,-2.83465,0zM26.742,7.2a1.41732,1.41732,0,1,0,2.83465,0,1.41732,1.41732,0,1,0,-2.83465,0zM33.942,7.2a1.41732,1.41732,0,1,0,2.83465,0,1.41732,1.41732,0,1,0,-2.83465,0zM5.11937,7.2a1.44,1.44,0,1,0,2.88,0,1.44,1.44,0,1,0,-2.88,0zM57.0161,46.8a3.54331,3.54331,0,1,0,7.08661,0,3.54331,3.54331,0,1,0,-7.08661,0zM57.0161,7.2a3.54331,3.54331,0,1,0,7.08661,0,3.54331,3.54331,0,1,0,-7.08661,0zM12.3761,46.8a3.54331,3.54331,0,1,0,7.08661,0,3.54331,3.54331,0,1,0,-7.08661,0zM12.3761,7.2a3.54331,3.54331,0,1,0,7.08661,0,3.54331,3.54331,0,1,0,-7.08661,0z"  stroke-width="0" stroke="none"/>
            <g >
                <title >layer 21</title>
                <g >
                    <title >text:CHG</title>
                    <g transform="matrix(1, 0, 0, 1, 49.0393, 51.84)" >
                        <g >
                            <g transform="rotate(270)" >
                                <g >
                                    <text font-size="3.3408" font-family="OCRA" fill="#ffffff"  stroke-width="0" x="0" y="0" text-anchor="start" stroke="none">CHG</text>
                                </g>
                            </g>
                        </g>
                    </g>
                </g>
                <g >
                    <title >text:DONE</title>
                    <g transform="matrix(1, 0, 0, 1, 41.4793, 53.28)" >
                        <g >
                            <g transform="rotate(270)" >
                                <g >
                                    <text font-size="3.3408" font-family="OCRA" fill="#ffffff"  stroke-width="0" x="0" y="0" text-anchor="start" stroke="none">DONE</text>
                                </g>
                            </g>
                        </g>
                    </g>
                </g>
                <g >
                    <title >text:+</title>
                    <text font-size="4.67712" font-family="OCRA" fill="#ffffff"  stroke-width="0" x="45.0793" y="35.64" text-anchor="start" stroke="none">+</text>
                </g>
                <g >
                    <title >text:-</title>
                    <text font-size="4.67712" font-family="OCRA" fill="#ffffff"  stroke-width="0" x="44.7193" y="22.32" text-anchor="start" stroke="none">-</text>
                </g>
                <g >
                    <title >text:500mA</title>
                    <text font-size="3.3408" font-family="OCRA" fill="#ffffff"  stroke-width="0" x="30.6793" y="46.6704" text-anchor="middle" stroke="none">500mA</text>
                </g>
                <g >
                    <title >text:5V</title>
                    <text font-size="3.3408" font-family="OCRA" fill="#ffffff"  stroke-width="0" x="28.1593" y="3.8304" text-anchor="middle" stroke="none">5V</text>
                </g>
                <g >
                    <title >text:GND</title>
                    <text font-size="3.3408" font-family="OCRA" fill="#ffffff"  stroke-width="0" x="38.9593" y="3.8304" text-anchor="middle" stroke="none">GND</text>
                </g>
                <g >
                    <title >text:BAT</title>
                    <text font-size="3.3408" font-family="OCRA" fill="#ffffff"  stroke-width="0" x="50.1193" y="3.8304" text-anchor="middle" stroke="none">BAT</text>
                </g>
                <g >
                    <title >text:Sts</title>
                    <text font-size="3.3408" font-family="OCRA" fill="#ffffff"  stroke-width="0" x="7.63934" y="4.1904" text-anchor="middle" stroke="none">Sts</text>
                </g>
                <g >
                    <title >element:C1</title>
                    <g >
                        <title >package:0805-NO</title>
                        <line x1="29.2393" stroke-linecap="round" x2="32.1193"  stroke-width="0.864" stroke="white" y1="16.74" y2="16.74"/>
                    </g>
                </g>
                <g >
                    <title >element:C2</title>
                    <g >
                        <title >package:0805-NO</title>
                        <line x1="34.6393" stroke-linecap="round" x2="37.5193"  stroke-width="0.864" stroke="white" y1="16.74" y2="16.74"/>
                    </g>
                </g>
                <g >
                    <title >element:CN2</title>
                    <g >
                        <title >package:JSTPH2</title>
                        <line x1="66.1833" stroke-linecap="round" x2="66.1833"  stroke-width="0.576" stroke="white" y1="20.622" y2="33.378"/>
                        <line x1="56.262" stroke-linecap="round" x2="44.9235"  stroke-width="0.576" stroke="white" y1="38.3386" y2="38.3386"/>
                        <line x1="44.9235" stroke-linecap="round" x2="44.9235"  stroke-width="0.576" stroke="white" y1="38.3386" y2="35.9292"/>
                        <line x1="44.9235" stroke-linecap="round" x2="52.0101"  stroke-width="0.576" stroke="white" y1="35.9292" y2="35.9292"/>
                        <line x1="52.0101" stroke-linecap="round" x2="52.0101"  stroke-width="0.576" stroke="white" y1="35.9292" y2="31.9607"/>
                        <line x1="52.0101" stroke-linecap="round" x2="52.0101"  stroke-width="0.576" stroke="white" y1="22.0393" y2="18.0708"/>
                        <line x1="52.0101" stroke-linecap="round" x2="44.9235"  stroke-width="0.576" stroke="white" y1="18.0708" y2="18.0708"/>
                        <line x1="44.9235" stroke-linecap="round" x2="44.9235"  stroke-width="0.576" stroke="white" y1="18.0708" y2="15.6614"/>
                        <line x1="44.9235" stroke-linecap="round" x2="56.262"  stroke-width="0.576" stroke="white" y1="15.6614" y2="15.6614"/>
                    </g>
                </g>
                <g >
                    <title >element:FID1</title>
                    <g >
                        <title >package:FIDUCIAL_1MM</title>
                    </g>
                </g>
                <g >
                    <title >element:FID2</title>
                    <g >
                        <title >package:FIDUCIAL_1MM</title>
                    </g>
                </g>
                <g >
                    <title >element:FID3</title>
                    <g >
                        <title >package:FIDUCIAL_1MM</title>
                    </g>
                </g>
                <g >
                    <title >element:JP1</title>
                    <g >
                        <title >package:1X02_ROUND</title>
                    </g>
                </g>
                <g >
                    <title >element:JP2</title>
                    <g >
                        <title >package:1X02_ROUND</title>
                    </g>
                </g>
                <g >
                    <title >element:JP3</title>
                    <g >
                        <title >package:1X01-CLEANBIG</title>
                    </g>
                </g>
                <g >
                    <title >element:LED1</title>
                    <g >
                        <title >package:CHIPLED_0805_NOOUTLINE</title>
                        <g >
                            <title >polygon</title>
                            <path stroke-linecap="round" fill="none" d="M51.5593,49.14L50.4793,47.7L52.6393,47.7L51.5593,49.14M52.4233,47.988L50.6953,47.988L52.4233,47.988M52.0993,48.42L51.0193,48.42L52.0993,48.42"  stroke-width="0.432" stroke="white"/>
                        </g>
                    </g>
                </g>
                <g >
                    <title >element:LED2</title>
                    <g >
                        <title >package:CHIPLED_0805_NOOUTLINE</title>
                        <g >
                            <title >polygon</title>
                            <path stroke-linecap="round" fill="none" d="M43.9993,49.14L42.9193,47.7L45.0793,47.7L43.9993,49.14M44.8633,47.988L43.1353,47.988L44.8633,47.988M44.5393,48.42L43.4593,48.42L44.5393,48.42"  stroke-width="0.432" stroke="white"/>
                        </g>
                    </g>
                </g>
                <g >
                    <title >element:R1</title>
                    <g >
                        <title >package:0805-NO</title>
                        <line x1="40.3993" stroke-linecap="round" x2="43.2793"  stroke-width="0.864" stroke="white" y1="38.34" y2="38.34"/>
                    </g>
                </g>
                <g >
                    <title >element:R2</title>
                    <g >
                        <title >package:0805-NO</title>
                        <line x1="34.9993" stroke-linecap="round" x2="37.8793"  stroke-width="0.864" stroke="white" y1="38.34" y2="38.34"/>
                    </g>
                </g>
                <g >
                    <title >element:R3</title>
                    <g >
                        <title >package:0805-NO</title>
                        <line x1="32.4793" stroke-linecap="round" x2="29.5993"  stroke-width="0.864" stroke="white" y1="38.34" y2="38.34"/>
                    </g>
                </g>
                <g >
                    <title >element:R4</title>
                    <g >
                        <title >package:0805-NO</title>
                        <line x1="42.9193" stroke-linecap="round" x2="40.0393"  stroke-width="0.864" stroke="white" y1="16.92" y2="16.92"/>
                    </g>
                </g>
                <g >
                    <title >element:SJ1</title>
                    <g >
                        <title >package:SOLDERJUMPER_ARROW_NOPASTE</title>
                        <line x1="26.7193" stroke-linecap="round" x2="34.6393"  stroke-width="0.576" stroke="white" y1="47.16" y2="47.16"/>
                        <path fill="none" d="M25.9993,52.2A0.72,0.72,0,0,0,26.7193,52.92"  stroke-width="0.576" stroke="white"/>
                        <path fill="none" d="M34.6393,52.92A0.72,0.72,0,0,0,35.3593,52.2"  stroke-width="0.576" stroke="white"/>
                        <path fill="none" d="M35.3593,47.88A0.72,0.72,0,0,0,34.6393,47.16"  stroke-width="0.576" stroke="white"/>
                        <path fill="none" d="M26.7193,47.16A0.72,0.72,0,0,0,25.9993,47.88"  stroke-width="0.576" stroke="white"/>
                        <line x1="25.9993" stroke-linecap="round" x2="25.9993"  stroke-width="0.576" stroke="white" y1="47.88" y2="52.2"/>
                        <line x1="35.3593" stroke-linecap="round" x2="35.3593"  stroke-width="0.576" stroke="white" y1="47.88" y2="52.2"/>
                        <line x1="34.6393" stroke-linecap="round" x2="26.7193"  stroke-width="0.576" stroke="white" y1="52.92" y2="52.92"/>
                    </g>
                </g>
                <g >
                    <title >element:U$9</title>
                    <g >
                        <title >package:MOUNTINGHOLE_2.5_PLATED</title>
                        <circle cy="46.8" r="5.66929" fill="none"  stroke-width="0.576" stroke="white" cx="60.5593"/>
                    </g>
                </g>
                <g >
                    <title >element:U$10</title>
                    <g >
                        <title >package:MOUNTINGHOLE_2.5_PLATED</title>
                        <circle cy="7.2" r="5.66929" fill="none"  stroke-width="0.576" stroke="white" cx="60.5593"/>
                    </g>
                </g>
                <g >
                    <title >element:U$11</title>
                    <g >
                        <title >package:MOUNTINGHOLE_2.5_PLATED</title>
                        <circle cy="46.8" r="5.66929" fill="none"  stroke-width="0.576" stroke="white" cx="15.9193"/>
                    </g>
                </g>
                <g >
                    <title >element:U$12</title>
                    <g >
                        <title >package:MOUNTINGHOLE_2.5_PLATED</title>
                        <circle cy="7.2" r="5.66929" fill="none"  stroke-width="0.576" stroke="white" cx="15.9193"/>
                    </g>
                </g>
                <g >
                    <title >element:U$13</title>
                    <g >
                        <title >package:ADAFRUIT_5MM</title>
                    </g>
                </g>
                <g >
                    <title >element:U1</title>
                    <g >
                        <title >package:SOT23-5</title>
                        <line x1="31.6516" stroke-linecap="round" x2="36.1871"  stroke-width="0.576" stroke="white" y1="33.1172" y2="33.1172"/>
                        <line x1="31.6516" stroke-linecap="round" x2="36.1871"  stroke-width="0.576" stroke="white" y1="23.7628" y2="23.7628"/>
                        <line x1="30.943" stroke-linecap="round" x2="30.943"  stroke-width="0.576" stroke="white" y1="29.5739" y2="27.3061"/>
                    </g>
                </g>
                <g >
                    <title >element:X1</title>
                    <g >
                        <title >package:USB-MINI_MEDIUM</title>
                        <line x1="11.3386" stroke-linecap="round" x2="18.9922"  stroke-width="0.576" stroke="white" y1="15.9449" y2="15.9449"/>
                        <line x1="18.9922" stroke-linecap="round" x2="11.3386"  stroke-width="0.576" stroke="white" y1="38.0551" y2="38.0551"/>
                        <line x1="26.0788" stroke-linecap="round" x2="26.0788"  stroke-width="0.576" stroke="white" y1="17.9292" y2="21.0473"/>
                        <line x1="26.0788" stroke-linecap="round" x2="26.0788"  stroke-width="0.576" stroke="white" y1="32.9527" y2="36.0708"/>
                    </g>
                </g>
            </g>
            <g transform="matrix(0, -1, 1, 0, 11.2465, 50.1123)" >
                <g >
                    <rect height="4.25197" gorn="0.1.0.2.0.0" width="3.68504" fill="#9A916C"  stroke-width="0" id="connector5pin" x="28.8369" y="17.3069" stroke="none"/>
                </g>
            </g>
            <g transform="matrix(0, -1, 1, 0, 16.6323, 44.7265)" >
                <g >
                    <rect height="4.25197" gorn="0.1.0.3.0.0" width="3.68504" fill="#9A916C"  stroke-width="0" id="connector6pin" x="28.8369" y="11.9211" stroke="none"/>
                </g>
            </g>
            <g transform="matrix(0, -1, 1, 0, 16.6465, 55.5123)" >
                <g >
                    <rect height="4.25197" gorn="0.1.0.4.0.0" width="3.68504" fill="#9A916C"  stroke-width="0" id="connector7pin" x="34.2369" y="17.3069" stroke="none"/>
                </g>
            </g>
            <g transform="matrix(0, -1, 1, 0, 22.0323, 50.1265)" >
                <g >
                    <rect height="4.25197" gorn="0.1.0.5.0.0" width="3.68504" fill="#9A916C"  stroke-width="0" id="connector8pin" x="34.2369" y="11.9211" stroke="none"/>
                </g>
            </g>
            <g transform="matrix(0, 1, -1, 0, 71.3565, -23.0258)" >
                <g >
                    <rect height="13.0393" gorn="0.1.0.6.0.0" width="2.83465" fill="#9A916C"  stroke-width="0" id="connector9pin" x="45.7739" y="17.6457" stroke="none"/>
                </g>
            </g>
            <g transform="matrix(0, 1, -1, 0, 77.0256, -17.3565)" >
                <g >
                    <rect height="13.0393" gorn="0.1.0.7.0.0" width="2.83465" fill="#9A916C"  stroke-width="0" id="connector10pin" x="45.7739" y="23.315" stroke="none"/>
                </g>
            </g>
            <rect height="4.53543" gorn="0.1.0.8" width="9.63778" fill="#9A916C"  stroke-width="0" id="connector11pin" x="57.1124" y="15.0945" stroke="none"/>
            <rect height="4.53543" gorn="0.1.0.9" width="9.63778" fill="#9A916C"  stroke-width="0" id="connector12pin" x="57.1124" y="34.3701" stroke="none"/>
            <rect height="2.83465" gorn="0.1.0.10" width="2.83465" rx="1.41732" ry="1.41732" fill="#9A916C"  stroke-width="0" id="connector13pin" x="61.302" y="29.0027" stroke="none"/>
            <rect height="2.83465" gorn="0.1.0.11" width="2.83465" rx="1.41732" ry="1.41732" fill="#9A916C"  stroke-width="0" id="connector14pin" x="4.78205" y="45.7427" stroke="none"/>
            <rect height="2.83465" gorn="0.1.0.12" width="2.83465" rx="1.41732" ry="1.41732" fill="#9A916C"  stroke-width="0" id="connector15pin" x="8.02202" y="19.4627" stroke="none"/>
            <circle cy="7.2" gorn="0.1.0.13" r="1.96866" fill="none" connectorname="VBAT"  stroke-width="1.10268" id="connector16pin" stroke="#9A916C" cx="49.7593"/>
            <circle cy="7.2" gorn="0.1.0.14" r="1.96866" fill="none" connectorname="GND"  stroke-width="1.10268" id="connector17pin" stroke="#9A916C" cx="42.5593"/>
            <circle cy="7.2" gorn="0.1.0.15" r="1.96866" fill="none" connectorname="5V"  stroke-width="1.10268" id="connector18pin" stroke="#9A916C" cx="28.1593"/>
            <circle cy="7.2" gorn="0.1.0.16" r="1.96866" fill="none" connectorname="GND"  stroke-width="1.10268" id="connector19pin" stroke="#9A916C" cx="35.3593"/>
            <circle cy="7.2" gorn="0.1.0.17" r="1.98" fill="none" connectorname="1"  stroke-width="1.08" id="connector20pin" stroke="#9A916C" cx="6.55937"/>
            <g transform="matrix(-1, 0, 0, -1, 103.118, 90.887)" >
                <g >
                    <rect height="3.40158" gorn="0.1.0.18.0.0" width="3.40158" fill="#9A916C"  stroke-width="0" id="connector21pin" x="49.8586" y="43.7428" stroke="none"/>
                </g>
            </g>
            <g transform="matrix(-1, 0, 0, -1, 103.118, 102.793)" >
                <g >
                    <rect height="3.40158" gorn="0.1.0.19.0.0" width="3.40158" fill="#9A916C"  stroke-width="0" id="connector22pin" x="49.8586" y="49.6956" stroke="none"/>
                </g>
            </g>
            <g transform="matrix(-1, 0, 0, -1, 87.9984, 90.887)" >
                <g >
                    <rect height="3.40158" gorn="0.1.0.20.0.0" width="3.40158" fill="#9A916C"  stroke-width="0" id="connector23pin" x="42.2986" y="43.7428" stroke="none"/>
                </g>
            </g>
            <g transform="matrix(-1, 0, 0, -1, 87.9984, 102.793)" >
                <g >
                    <rect height="3.40158" gorn="0.1.0.21.0.0" width="3.40158" fill="#9A916C"  stroke-width="0" id="connector24pin" x="42.2986" y="49.6956" stroke="none"/>
                </g>
            </g>
            <g transform="matrix(0, -1, 1, 0, 0.806458, 82.872)" >
                <g >
                    <rect height="4.25197" gorn="0.1.0.22.0.0" width="3.68504" fill="#9A916C"  stroke-width="0" id="connector25pin" x="39.9969" y="38.9069" stroke="none"/>
                </g>
            </g>
            <g transform="matrix(0, -1, 1, 0, 6.19228, 77.4864)" >
                <g >
                    <rect height="4.25197" gorn="0.1.0.23.0.0" width="3.68504" fill="#9A916C"  stroke-width="0" id="connector26pin" x="39.9969" y="33.5211" stroke="none"/>
                </g>
            </g>
            <g transform="matrix(0, -1, 1, 0, -4.59354, 77.472)" >
                <g >
                    <rect height="4.25197" gorn="0.1.0.24.0.0" width="3.68504" fill="#9A916C"  stroke-width="0" id="connector27pin" x="34.5969" y="38.9069" stroke="none"/>
                </g>
            </g>
            <g transform="matrix(0, -1, 1, 0, 0.792281, 72.0864)" >
                <g >
                    <rect height="4.25197" gorn="0.1.0.25.0.0" width="3.68504" fill="#9A916C"  stroke-width="0" id="connector28pin" x="34.5969" y="33.5211" stroke="none"/>
                </g>
            </g>
            <g transform="matrix(0, 1, -1, 0, 66.6865, 4.60772)" >
                <g >
                    <rect height="4.25197" gorn="0.1.0.26.0.0" width="3.68504" fill="#9A916C"  stroke-width="0" id="connector29pin" x="29.1969" y="33.5211" stroke="none"/>
                </g>
            </g>
            <g transform="matrix(0, 1, -1, 0, 72.072, 9.99353)" >
                <g >
                    <rect height="4.25197" gorn="0.1.0.27.0.0" width="3.68504" fill="#9A916C"  stroke-width="0" id="connector30pin" x="29.1969" y="38.9069" stroke="none"/>
                </g>
            </g>
            <g transform="matrix(0, 1, -1, 0, 55.7065, -27.2523)" >
                <g >
                    <rect height="4.25197" gorn="0.1.0.28.0.0" width="3.68504" fill="#9A916C"  stroke-width="0" id="connector31pin" x="39.6369" y="12.1011" stroke="none"/>
                </g>
            </g>
            <g transform="matrix(0, 1, -1, 0, 61.0923, -21.8665)" >
                <g >
                    <rect height="4.25197" gorn="0.1.0.29.0.0" width="3.68504" fill="#9A916C"  stroke-width="0" id="connector32pin" x="39.6369" y="17.4869" stroke="none"/>
                </g>
            </g>
            <g transform="matrix(-1, 0, 0, -1, 67.1188, 100.08)" >
                <g >
                    <rect height="4.32" gorn="0.1.0.30.0.0" width="2.16" rx="0.54" ry="0.54" fill="#9A916C"  stroke-width="0" id="connector33pin" x="32.4793" y="47.88" stroke="none"/>
                </g>
            </g>
            <g transform="matrix(-1, 0, 0, -1, 55.5988, 100.08)" >
                <g >
                    <rect height="4.32" gorn="0.1.0.31.0.0" width="2.16" rx="0.54" ry="0.54" fill="#9A916C"  stroke-width="0" id="connector34pin" x="26.7193" y="47.88" stroke="none"/>
                </g>
            </g>
            <circle cy="46.8" gorn="0.1.0.32" r="4.26331" fill="none" connectorname="P$1"  stroke-width="1.44" id="connector35pin" stroke="#9A916C" cx="60.5593"/>
            <circle cy="7.2" gorn="0.1.0.33" r="4.26331" fill="none" connectorname="P$1"  stroke-width="1.44" id="connector36pin" stroke="#9A916C" cx="60.5593"/>
            <circle cy="46.8" gorn="0.1.0.34" r="4.26331" fill="none" connectorname="P$1"  stroke-width="1.44" id="connector37pin" stroke="#9A916C" cx="15.9193"/>
            <circle cy="7.2" gorn="0.1.0.35" r="4.26331" fill="none" connectorname="P$1"  stroke-width="1.44" id="connector38pin" stroke="#9A916C" cx="15.9193"/>
            <g transform="matrix(0, -1, 1, 0, 6.47178, 68.7376)" >
                <g >
                    <rect height="3.40158" gorn="0.1.0.36.0.0" width="1.55905" fill="#9A916C"  stroke-width="0" id="connector39pin" x="36.8252" y="29.4322" stroke="none"/>
                </g>
            </g>
            <g transform="matrix(0, -1, 1, 0, 9.16466, 66.0447)" >
                <g >
                    <rect height="3.40158" gorn="0.1.0.37.0.0" width="1.55905" fill="#9A916C"  stroke-width="0" id="connector40pin" x="36.8252" y="26.7392" stroke="none"/>
                </g>
            </g>
            <g transform="matrix(0, -1, 1, 0, 11.8576, 63.3518)" >
                <g >
                    <rect height="3.40158" gorn="0.1.0.38.0.0" width="1.55905" fill="#9A916C"  stroke-width="0" id="connector41pin" x="36.8252" y="24.0463" stroke="none"/>
                </g>
            </g>
            <g transform="matrix(0, -1, 1, 0, 4.48696, 55.9812)" >
                <g >
                    <rect height="3.40158" gorn="0.1.0.39.0.0" width="1.55905" fill="#9A916C"  stroke-width="0" id="connector42pin" x="29.4546" y="24.0463" stroke="none"/>
                </g>
            </g>
            <g transform="matrix(0, -1, 1, 0, -0.89887, 61.367)" >
                <g >
                    <rect height="3.40158" gorn="0.1.0.40.0.0" width="1.55905" fill="#9A916C"  stroke-width="0" id="connector43pin" x="29.4546" y="29.4322" stroke="none"/>
                </g>
            </g>
            <g transform="matrix(0, -1, 1, 0, -2.44063, 51.5593)" >
                <g >
                    <rect height="6.54236" gorn="0.1.0.41.0.0" width="1.41732" fill="#9A916C"  stroke-width="0" id="connector44pin" x="23.8507" y="23.7288" stroke="none"/>
                </g>
            </g>
            <g transform="matrix(0, -1, 1, 0, -0.172914, 49.2916)" >
                <g >
                    <rect height="6.54236" gorn="0.1.0.42.0.0" width="1.41732" fill="#9A916C"  stroke-width="0" id="connector45pin" x="23.8507" y="21.4611" stroke="none"/>
                </g>
            </g>
            <g transform="matrix(0, -1, 1, 0, -6.97607, 56.0948)" >
                <g >
                    <rect height="6.54236" gorn="0.1.0.43.0.0" width="1.41732" fill="#9A916C"  stroke-width="0" id="connector46pin" x="23.8507" y="28.2642" stroke="none"/>
                </g>
            </g>
            <g transform="matrix(0, 1, -1, 0, 21.8976, 7.15748)" >
                <g >
                    <rect height="9.92124" gorn="0.1.0.44.0.0" width="5.66929" fill="#9A916C"  stroke-width="0" id="connector47pin" x="4.53543" y="9.56693" stroke="none"/>
                </g>
            </g>
            <g transform="matrix(0, 1, -1, 0, 37.4882, -8.43307)" >
                <g >
                    <rect height="6.80315" gorn="0.1.0.45.0.0" width="5.66929" fill="#9A916C"  stroke-width="0" id="connector48pin" x="20.126" y="11.126" stroke="none"/>
                </g>
            </g>
            <g transform="matrix(0, 1, -1, 0, 62.4331, 16.5118)" >
                <g >
                    <rect height="6.80315" gorn="0.1.0.46.0.0" width="5.66929" fill="#9A916C"  stroke-width="0" id="connector49pin" x="20.126" y="36.0708" stroke="none"/>
                </g>
            </g>
            <g transform="matrix(0, 1, -1, 0, 46.8426, 32.1024)" >
                <g >
                    <rect height="9.92124" gorn="0.1.0.47.0.0" width="5.66929" fill="#9A916C"  stroke-width="0" id="connector50pin" x="4.53543" y="34.5118" stroke="none"/>
                </g>
            </g>
            <g transform="matrix(0, -1, 1, 0, -4.70835, 53.8271)" >
                <g >
                    <rect height="6.54236" gorn="0.1.0.48.0.0" width="1.41732" fill="#9A916C"  stroke-width="0" id="connector51pin" x="23.8507" y="25.9965" stroke="none"/>
                </g>
            </g>
            <g transform="matrix(0, -1, 1, 0, 2.0948, 47.0239)" >
                <g >
                    <rect height="6.54236" gorn="0.1.0.49.0.0" width="1.41732" fill="#9A916C"  stroke-width="0" id="connector52pin" x="23.8507" y="19.1934" stroke="none"/>
                </g>
            </g>
        </g>
        <g transform="matrix(1, 0, 0, 1, 27.8448, 14.9685)" >
            <g gorn="0.1.1.0"  id="0805-cap">
                <g transform="matrix(0, -1, 1, 0, 1.063, 4.606)" >
                    <g >
                        <path fill="#DCDCDC" d="M5.386,3.543L0.283,3.543C0.127,3.543,0,3.416,0,3.26L0,0.283C0,0.127,0.127,0,0.283,0l5.102,0c0.157,0,0.283,0.127,0.283,0.283L5.668,3.26C5.669,3.416,5.542,3.543,5.386,3.543z" />
                        <rect height="3.543" width="3.543" fill="#6E554B"  x="1.063"/>
                    </g>
                </g>
            </g>
        </g>
        <g transform="matrix(1, 0, 0, 1, 33.2448, 14.9685)" >
            <g gorn="0.1.2.0"  id="0805-cap">
                <g transform="matrix(0, -1, 1, 0, 1.063, 4.606)" >
                    <g >
                        <path fill="#DCDCDC" d="M5.386,3.543L0.283,3.543C0.127,3.543,0,3.416,0,3.26L0,0.283C0,0.127,0.127,0,0.283,0l5.102,0c0.157,0,0.283,0.127,0.283,0.283L5.668,3.26C5.669,3.416,5.542,3.543,5.386,3.543z" />
                        <rect height="3.543" width="3.543" fill="#6E554B"  x="1.063"/>
                    </g>
                </g>
            </g>
        </g>
        <g transform="matrix(1, 0, 0, 1, 42.3724, 14.244)" >
            <g gorn="0.1.3.0"  id="jstph2">
                <g transform="matrix(0, 1, -1, 0, 24.0945, 1.4175)" >
                    <g >
                        <g >
                            <polygon fill="#666666"  points="19.843,0,2.835,0,2.835,2.126,0,2.126,0,17.008,22.677,17.008,22.677,2.126,19.843,2.126"/>
                            <rect height="8.50399" width="2.835"  x="4.252" y="5.669"/>
                            <rect height="8.50399" width="2.835"  x="15.591" y="5.669"/>
                            <rect height="2.835" width="2.835" fill="#333333"  x="4.252" y="14.173"/>
                            <rect height="2.835" width="2.835" fill="#333333"  x="15.591" y="14.173"/>
                            <rect height="4.252" width="2.268" fill="#333333"  x="0" y="17.008"/>
                            <rect height="4.252" width="2.268" fill="#333333"  x="20.409" y="17.008"/>
                            <rect height="7.087" width="1.984" fill="#DCDCDC"  x="7.51198" y="17.008"/>
                            <rect height="7.087" width="1.984" fill="#DCDCDC"  x="13.181" y="17.008"/>
                        </g>
                    </g>
                </g>
            </g>
        </g>
        <g transform="matrix(1, 0, 0, 1, 49.7879, 45.586)" >
            <g gorn="0.1.4.0"  id="0805-led-red">
                <g transform="matrix(-1, 0, 0, -1, 3.543, 5.668)" >
                    <g >
                        <path fill="#DCDCDC" d="M3.543,0.282l0,5.103c0,0.156,-0.127,0.283,-0.283,0.283L0.283,5.668C0.127,5.668,0,5.541,0,5.385l0,-5.102C0,0.126,0.127,0,0.283,0L3.26,0C3.416,-0.001,3.543,0.126,3.543,0.282z" />
                        <rect height="3.543" width="3.543" fill="#FF0000"  x="0" y="1.062"/>
                        <circle cy="2.833" r="0.567" fill="#A00000"  cx="1.772"/>
                    </g>
                </g>
            </g>
        </g>
        <g transform="matrix(1, 0, 0, 1, 42.2279, 45.586)" >
            <g gorn="0.1.5.0"  id="0805-led-green">
                <g transform="matrix(-1, 0, 0, -1, 3.543, 5.668)" >
                    <g >
                        <path fill="#DCDCDC" d="M3.543,0.282l0,5.103c0,0.156,-0.127,0.283,-0.283,0.283L0.283,5.668C0.127,5.668,0,5.541,0,5.385l0,-5.102C0,0.126,0.127,0,0.283,0L3.26,0C3.416,-0.001,3.543,0.126,3.543,0.282z" />
                        <rect height="3.543" width="3.543" fill="#00FF00"  x="0" y="1.062"/>
                        <circle cy="2.833" r="0.567" fill="#00B400"  cx="1.772"/>
                    </g>
                </g>
            </g>
        </g>
        <g transform="matrix(1, 0, 0, 1, 39.0048, 36.5685)" >
            <g gorn="0.1.6.0"  id="0805-res">
                <g transform="matrix(0, -1, 1, 0, 1.063, 4.606)" >
                    <g >
                        <path fill="#DCDCDC" d="M5.386,3.543L0.283,3.543C0.127,3.543,0,3.416,0,3.26L0,0.283C0,0.127,0.127,0,0.283,0l5.102,0c0.157,0,0.283,0.127,0.283,0.283L5.668,3.26C5.669,3.416,5.542,3.543,5.386,3.543z" />
                        <rect height="3.543" width="3.543" fill="#333333"  x="1.063"/>
                    </g>
                </g>
            </g>
        </g>
        <g transform="matrix(1, 0, 0, 1, 33.6048, 36.5685)" >
            <g gorn="0.1.7.0"  id="0805-res">
                <g transform="matrix(0, -1, 1, 0, 1.063, 4.606)" >
                    <g >
                        <path fill="#DCDCDC" d="M5.386,3.543L0.283,3.543C0.127,3.543,0,3.416,0,3.26L0,0.283C0,0.127,0.127,0,0.283,0l5.102,0c0.157,0,0.283,0.127,0.283,0.283L5.668,3.26C5.669,3.416,5.542,3.543,5.386,3.543z" />
                        <rect height="3.543" width="3.543" fill="#333333"  x="1.063"/>
                    </g>
                </g>
            </g>
        </g>
        <g transform="matrix(1, 0, 0, 1, 28.2048, 36.5685)" >
            <g gorn="0.1.8.0"  id="0805-res">
                <g transform="matrix(0, 1, -1, 0, 4.606, -1.063)" >
                    <g >
                        <path fill="#DCDCDC" d="M5.386,3.543L0.283,3.543C0.127,3.543,0,3.416,0,3.26L0,0.283C0,0.127,0.127,0,0.283,0l5.102,0c0.157,0,0.283,0.127,0.283,0.283L5.668,3.26C5.669,3.416,5.542,3.543,5.386,3.543z" />
                        <rect height="3.543" width="3.543" fill="#333333"  x="1.063"/>
                    </g>
                </g>
            </g>
        </g>
        <g transform="matrix(1, 0, 0, 1, 38.6448, 15.1485)" >
            <g gorn="0.1.9.0"  id="0805-res">
                <g transform="matrix(0, 1, -1, 0, 4.606, -1.063)" >
                    <g >
                        <path fill="#DCDCDC" d="M5.386,3.543L0.283,3.543C0.127,3.543,0,3.416,0,3.26L0,0.283C0,0.127,0.127,0,0.283,0l5.102,0c0.157,0,0.283,0.127,0.283,0.283L5.668,3.26C5.669,3.416,5.542,3.543,5.386,3.543z" />
                        <rect height="3.543" width="3.543" fill="#333333"  x="1.063"/>
                    </g>
                </g>
            </g>
        </g>
        <g transform="matrix(1, 0, 0, 1, 29.8094, 24.613)" >
            <g gorn="0.1.10.0"  id="sot23-5">
                <g transform="matrix(0, -1, 1, 0, 0.282996, 7.93706)" >
                    <g >
                        <g >
                            <rect height="7.65403" width="1.134" fill="#DCDCDC"  x="0.850003"/>
                            <rect height="7.65403" width="1.134" fill="#DCDCDC"  x="6.236"/>
                            <rect height="3.118" width="1.134" fill="#DCDCDC"  x="3.543" y="4.535"/>
                            <rect height="4.535" width="8.22002" fill="#303030"  y="1.559"/>
                        </g>
                    </g>
                </g>
            </g>
        </g>
        <g transform="matrix(1, 0, 0, 1, -0.368732, 13.586)" >
            <g gorn="0.1.11.0"  id="usb-mini_medium">
                <g transform="matrix(0, 1, -1, 0, 27.626, -0.798012)" >
                    <g >
                        <rect height="6.64" gorn="0.1.11.0.0.0.0" width="4.991" fill="#CCCCCC"  id="rect5568" x="23.433" y="1.044"/>
                        <rect height="6.64" gorn="0.1.11.0.0.0.1" width="28.424" fill="#CCCCCC"  id="rect5570" x="0" y="16.621"/>
                        <rect height="6.64" gorn="0.1.11.0.0.0.2" width="4.991" fill="#CCCCCC"  id="rect5580" x="0" y="1.021"/>
                        <rect height="2.769" gorn="0.1.11.0.0.0.3" width="1.163" fill="#B3B3B3"  id="rect5588" x="9.288" y="0.001"/>
                        <g transform="matrix(1.81373, 0, 0, 1.81373, 27.0045, 167.847)" >
                            <g gorn="0.1.11.0.0.0.4.0"  id="g5592">
                                <rect height="1.527" gorn="0.1.11.0.0.0.4.0.0" width="0.642" fill="#B3B3B3"  id="rect5594" x="-8.57398" y="-92.5423"/>
                            </g>
                        </g>
                        <g transform="matrix(1.81373, 0, 0, 1.81373, 27.0045, 167.847)" >
                            <g gorn="0.1.11.0.0.0.5.0"  id="g5598">
                                <rect height="1.527" gorn="0.1.11.0.0.0.5.0.0" width="0.642" fill="#B3B3B3"  id="rect5600" x="-7.38202" y="-92.5423"/>
                            </g>
                        </g>
                        <g transform="matrix(1.81373, 0, 0, 1.81373, 27.0045, 167.847)" >
                            <g gorn="0.1.11.0.0.0.6.0"  id="g5604">
                                <rect height="1.527" gorn="0.1.11.0.0.0.6.0.0" width="0.642" fill="#B3B3B3"  id="rect5606" x="-6.188" y="-92.5423"/>
                            </g>
                        </g>
                        <g transform="matrix(1.81373, 0, 0, 1.81373, 27.0045, 167.847)" >
                            <g gorn="0.1.11.0.0.0.7.0"  id="g5610">
                                <rect height="1.527" gorn="0.1.11.0.0.0.7.0.0" width="0.641" fill="#B3B3B3"  id="rect5612" x="-4.995" y="-92.5423"/>
                            </g>
                        </g>
                        <g transform="matrix(1.8737, 0, 0, 1.8737, 27.3106, 173.295)" >
                            <g gorn="0.1.11.0.0.0.8.0"  id="g5616">
                                <rect height="12.193" gorn="0.1.11.0.0.0.8.0.0" width="9.18403" fill="#333333"  id="rect5622" x="-11.589" y="-91.1657"/>
                                <path gorn="0.1.11.0.0.0.8.0.1" fill="#E6E6E6" d="M-1.441,-78.1697l0,-12.997l-3.146,0l0,0.326l-4.822,0l0,-0.326l-3.145,0l0,12.997L-1.441,-78.1697L-1.441,-78.1697zM-3.3,-84.5402c0,-0.071,0.056,-0.128,0.128,-0.128l0.373,0c0.071,0,0.128,0.057,0.128,0.128l0,3.405c0,0.071,-0.057,0.128,-0.128,0.128l-0.373,0c-0.072,0,-0.128,-0.057,-0.128,-0.128L-3.3,-84.5402zM-5.422,-79.4779l-0.09,0c-0.072,0,-0.131,-0.057,-0.137,-0.128l-0.288,-5.077c-0.004,-0.071,-0.065,-0.128,-0.136,-0.128l-1.879,0c-0.071,0,-0.132,0.057,-0.136,0.128l-0.289,5.077c-0.005,0.071,-0.065,0.128,-0.137,0.128l-0.0889999,0c-0.071,0,-0.125,-0.057,-0.121,-0.128l0.368,-6.421c0.004,-0.071,0.065,-0.128,0.136,-0.128l2.415,0c0.071,0,0.132,0.057,0.137,0.128l0.367,6.421C-5.297,-79.5348,-5.352,-79.4779,-5.422,-79.4779zM-3.495,-80.0107l-0.441,0.442c-0.051,0.05,-0.148,0.0910001,-0.22,0.0910001l-0.308,0c-0.07,0,-0.128,-0.057,-0.128,-0.128l0,-4.935c0,-0.071,0.058,-0.128,0.128,-0.128l0.308,0c0.072,0,0.128,0.057,0.128,0.128l0,3.687c0,0.071,0.041,0.169,0.0920002,0.219l0.441,0.442C-3.446,-80.1418,-3.446,-80.0597,-3.495,-80.0107zM-10.629,-89.2908c0,-0.071,0.057,-0.128,0.128,-0.128l6.743,0c0.07,0,0.128,0.057,0.128,0.128l0,0.427c0,0.071,-0.058,0.128,-0.128,0.128l-6.743,0c-0.071,0,-0.128,-0.057,-0.128,-0.128L-10.629,-89.2908zM-10.641,-80.1907l0.442,-0.442c0.051,-0.05,0.0910001,-0.148,0.0910001,-0.219l0,-3.687c0,-0.071,0.057,-0.128,0.128,-0.128l0.309,0c0.07,0,0.128,0.057,0.128,0.128l0,4.935c0,0.071,-0.058,0.128,-0.128,0.128L-9.97999,-79.4758c-0.071,0,-0.168,-0.041,-0.219,-0.0910001l-0.442,-0.442C-10.69,-80.0597,-10.69,-80.1418,-10.641,-80.1907L-10.641,-80.1907zM-11.466,-84.5402c0,-0.071,0.056,-0.128,0.128,-0.128l0.373,0c0.071,0,0.128,0.057,0.128,0.128l0,3.405c0,0.071,-0.057,0.128,-0.128,0.128l-0.373,0c-0.072,0,-0.128,-0.057,-0.128,-0.128L-11.466,-84.5402L-11.466,-84.5402z"  connector-curvature="0" id="path5628"/>
                                <polygon gorn="0.1.11.0.0.0.8.0.2" fill="#F2F2F2"  id="polygon5630" points="-12.555,-91.1743,-11.671,-91.1743,-12.321,-78.169,-12.555,-78.169"/>
                                <polyline gorn="0.1.11.0.0.0.8.0.3" fill="#F2F2F2"  id="polygon5632_1_" points="-1.442,-78.169,-2.095,-91.1743,-1.441,-91.1743,-1.441,-78.169"/>
                            </g>
                        </g>
                    </g>
                </g>
            </g>
        </g>
    </g>
</svg>
