<?xml version='1.0' encoding='utf-8'?>
<!-- Generator: Adobe Illustrator 20.0.0, SVG Export Plug-In . SVG Version: 6.00 Build 0)  -->
<svg xmlns="http://www.w3.org/2000/svg" baseProfile="tiny" height="0.7in" gorn="0" xml:space="preserve" width="0.75in" version="1.2" xmlns:xml="http://www.w3.org/XML/1998/namespace"  id="Layer_1" x="0px" y="0px" viewBox="0 0 54 50.4">
    <desc>
        <referenceFile>Adafruit MPL3115A2 I2C Barometric Pressure, Altitude, Temperature Sensor_breadboard.svg</referenceFile>
    </desc>
    <desc >Fritzing breadboard generated by brd2svg</desc>
    <g gorn="0.1"  id="breadboard">
        <g gorn="0.1.0"  id="icon">
            <path fill="#014CB1" d="M54,7.2v36c0,3.976-3.224,7.2-7.2,7.2c0,0,0,0,0,0H7.2c-3.976,0-7.2-3.224-7.2-7.2c0,0,0,0,0,0v-36C0,3.224,3.224,0,7.2,0c0,0,0,0,0,0h39.6C50.776,0,54,3.224,54,7.2C54,7.2,54,7.2,54,7.2 M3.983,43.2c0,0.783,0.635,1.417,1.417,1.417s1.417-0.635,1.417-1.417S6.183,41.783,5.4,41.783S3.983,42.417,3.983,43.2z M11.183,43.2c0,0.783,0.635,1.417,1.417,1.417s1.417-0.635,1.417-1.417s-0.635-1.417-1.417-1.417S11.183,42.417,11.183,43.2z M18.383,43.2c0,0.783,0.635,1.417,1.417,1.417c0.783,0,1.417-0.635,1.417-1.417s-0.635-1.417-1.417-1.417C19.017,41.783,18.383,42.417,18.383,43.2z M25.583,43.2c0,0.783,0.635,1.417,1.417,1.417c0.783,0,1.417-0.635,1.417-1.417S27.783,41.783,27,41.783C26.217,41.783,25.583,42.417,25.583,43.2z M32.783,43.2c0,0.783,0.635,1.417,1.417,1.417s1.417-0.635,1.417-1.417s-0.635-1.417-1.417-1.417S32.783,42.417,32.783,43.2z M39.983,43.2c0,0.783,0.635,1.417,1.417,1.417c0.783,0,1.417-0.635,1.417-1.417s-0.635-1.417-1.417-1.417S39.983,42.417,39.983,43.2z M47.183,43.2c0,0.783,0.635,1.417,1.417,1.417s1.417-0.635,1.417-1.417s-0.635-1.417-1.417-1.417S47.183,42.417,47.183,43.2z M3.657,7.2c-0.003,1.957,1.58,3.546,3.537,3.549s3.546-1.58,3.549-3.537c0-0.004,0-0.008,0-0.012c0.003-1.957-1.58-3.546-3.537-3.549C5.249,3.647,3.66,5.231,3.657,7.188C3.657,7.192,3.657,7.196,3.657,7.2z M43.257,7.2c-0.003,1.957,1.58,3.546,3.537,3.55s3.546-1.58,3.55-3.537c0-0.004,0-0.008,0-0.012c0.003-1.957-1.58-3.546-3.537-3.55c-1.957-0.003-3.546,1.58-3.55,3.537C43.257,7.192,43.257,7.196,43.257,7.2z" />
            <g >
                <title >layer 21</title>
                <g >
                    <title >text:Vin</title>
                    <g transform="matrix(1 0 0 1 1.8903 40.2053)" >
                        <text font-size="2.67264" font-family="'OCRA'" fill="#FFFFFF" >Vin</text>
                    </g>
                </g>
                <g >
                    <title >text:GND</title>
                    <g transform="matrix(1 0 0 1 9.2037 49.23)" >
                        <text font-size="2.67264" font-family="'OCRA'" fill="#FFFFFF" >GND</text>
                    </g>
                </g>
                <g >
                    <title >text:SCL</title>
                    <g transform="matrix(1 0 0 1 38.6841 49.3179)" >
                        <text font-size="2.67264" font-family="'OCRA'" fill="#FFFFFF" >SCL</text>
                    </g>
                </g>
                <g >
                    <title >text:SDA</title>
                    <g transform="matrix(1 0 0 1 45.7139 39.8707)" >
                        <text font-size="2.67264" font-family="'OCRA'" fill="#FFFFFF" >SDA</text>
                    </g>
                </g>
                <g >
                    <title >text:INT1</title>
                    <g transform="matrix(1 0 0 1 29.6528 39.9587)" >
                        <text font-size="2.67264" font-family="'OCRA'" fill="#FFFFFF" >INT1</text>
                    </g>
                </g>
                <g >
                    <title >text:INT2</title>
                    <g transform="matrix(1 0 0 1 22.8185 48.9833)" >
                        <text font-size="2.67264" font-family="'OCRA'" fill="#FFFFFF" >INT2</text>
                    </g>
                </g>
                <g >
                    <title >text:MPL3115A2</title>
                    <g transform="matrix(1 0 0 1 14.5007 10.1792)" >
                        <text font-size="3.00672" font-family="'OCRA'" fill="#FFFFFF" >MPL3115A2</text>
                    </g>
                </g>
                <g >
                    <title >text:3vo</title>
                    <g transform="matrix(1 0 0 1 16.2903 39.8453)" >
                        <text font-size="2.67264" font-family="'OCRA'" fill="#FFFFFF" >3vo</text>
                    </g>
                </g>
                <g >
                    <title >text:Altimeter</title>
                    <g transform="matrix(1 0 0 1 18.555 5.6304)" >
                        <text font-size="2.67264" font-family="'OCRA'" fill="#FFFFFF" >Altimeter</text>
                    </g>
                </g>
                <g >
                    <title >element:C1</title>
                    <g >
                        <title >package:0805-NO</title>
                        <line x1="17.379" stroke-linecap="round" x2="14.499" fill="none"  stroke-width="0.864" stroke="#FFFFFF" y1="32.27" y2="32.27"/>
                    </g>
                </g>
                <g >
                    <title >element:C2</title>
                    <g >
                        <title >package:0805-NO</title>
                        <line x1="7.56" stroke-linecap="round" x2="7.56" fill="none"  stroke-width="0.864" stroke="#FFFFFF" y1="15.863" y2="18.743"/>
                    </g>
                </g>
                <g >
                    <title >element:C3</title>
                    <g >
                        <title >package:0805-NO</title>
                        <line x1="7.92" stroke-linecap="round" x2="7.92" fill="none"  stroke-width="0.864" stroke="#FFFFFF" y1="33.12" y2="36"/>
                    </g>
                </g>
                <g >
                    <title >element:C4</title>
                    <g >
                        <title >package:0805-NO</title>
                        <line x1="17.28" stroke-linecap="round" x2="14.4" fill="none"  stroke-width="0.864" stroke="#FFFFFF" y1="21.96" y2="21.96"/>
                    </g>
                </g>
                <g >
                    <title >element:FID1</title>
                    <g >
                        <title >package:FIDUCIAL_1MM</title>
                    </g>
                </g>
                <g >
                    <title >element:FID2</title>
                    <g >
                        <title >package:FIDUCIAL_1MM</title>
                    </g>
                </g>
                <g >
                    <title >element:IC1</title>
                    <g >
                        <title >package:LGA8</title>
                        <line x1="23.185" stroke-linecap="round" x2="23.185" fill="none"  stroke-width="0.576" stroke="#FFFFFF" y1="34.01" y2="19.27"/>
                        <line x1="23.185" stroke-linecap="round" x2="32.255" fill="none"  stroke-width="0.576" stroke="#FFFFFF" y1="19.27" y2="19.27"/>
                        <line x1="32.255" stroke-linecap="round" x2="32.255" fill="none"  stroke-width="0.576" stroke="#FFFFFF" y1="19.27" y2="34.01"/>
                        <line x1="32.255" stroke-linecap="round" x2="23.185" fill="none"  stroke-width="0.576" stroke="#FFFFFF" y1="34.01" y2="34.01"/>
                        <circle cy="18.42" r="0.401" fill="none"  stroke-width="1.152" stroke="#FFFFFF" cx="21.484"/>
                    </g>
                </g>
                <g >
                    <title >element:JP2</title>
                    <g >
                        <title >package:1X07_ROUND_70</title>
                    </g>
                </g>
                <g >
                    <title >element:Q1</title>
                    <g >
                        <title >package:SOT23-WIDE</title>
                        <line x1="46.141" stroke-linecap="round" x2="46.141" fill="none"  stroke-width="0.576" stroke="#FFFFFF" y1="17.591" y2="21.312"/>
                        <line x1="46.141" stroke-linecap="round" x2="43.423" fill="none"  stroke-width="0.576" stroke="#FFFFFF" y1="21.312" y2="21.312"/>
                        <line x1="36.659" stroke-linecap="round" x2="36.659" fill="none"  stroke-width="0.576" stroke="#FFFFFF" y1="21.312" y2="17.591"/>
                        <line x1="39.377" stroke-linecap="round" x2="36.659" fill="none"  stroke-width="0.576" stroke="#FFFFFF" y1="21.312" y2="21.312"/>
                        <line x1="40.77" stroke-linecap="round" x2="42.07" fill="none"  stroke-width="0.576" stroke="#FFFFFF" y1="17.568" y2="17.568"/>
                    </g>
                </g>
                <g >
                    <title >element:Q2</title>
                    <g >
                        <title >package:SOT23-WIDE</title>
                        <line x1="46.141" stroke-linecap="round" x2="46.141" fill="none"  stroke-width="0.576" stroke="#FFFFFF" y1="28.031" y2="31.752"/>
                        <line x1="46.141" stroke-linecap="round" x2="43.423" fill="none"  stroke-width="0.576" stroke="#FFFFFF" y1="31.752" y2="31.752"/>
                        <line x1="36.659" stroke-linecap="round" x2="36.659" fill="none"  stroke-width="0.576" stroke="#FFFFFF" y1="31.752" y2="28.031"/>
                        <line x1="39.377" stroke-linecap="round" x2="36.659" fill="none"  stroke-width="0.576" stroke="#FFFFFF" y1="31.752" y2="31.752"/>
                        <line x1="40.77" stroke-linecap="round" x2="42.07" fill="none"  stroke-width="0.576" stroke="#FFFFFF" y1="28.008" y2="28.008"/>
                    </g>
                </g>
                <g >
                    <title >element:R3</title>
                    <g >
                        <title >package:0805-NO</title>
                        <line x1="50.76" stroke-linecap="round" x2="47.88" fill="none"  stroke-width="0.864" stroke="#FFFFFF" y1="19.44" y2="19.44"/>
                    </g>
                </g>
                <g >
                    <title >element:R4</title>
                    <g >
                        <title >package:0805-NO</title>
                        <line x1="50.76" stroke-linecap="round" x2="47.88" fill="none"  stroke-width="0.864" stroke="#FFFFFF" y1="30.24" y2="30.24"/>
                    </g>
                </g>
                <g >
                    <title >element:R5</title>
                    <g >
                        <title >package:0805-NO</title>
                        <line x1="20.52" stroke-linecap="round" x2="20.52" fill="none"  stroke-width="0.864" stroke="#FFFFFF" y1="12.96" y2="15.84"/>
                    </g>
                </g>
                <g >
                    <title >element:R6</title>
                    <g >
                        <title >package:0805-NO</title>
                        <line x1="30.96" stroke-linecap="round" x2="30.96" fill="none"  stroke-width="0.864" stroke="#FFFFFF" y1="16.2" y2="13.32"/>
                    </g>
                </g>
                <g >
                    <title >element:U$8</title>
                    <g >
                        <title >package:MOUNTINGHOLE_2.5_PLATED</title>
                        <circle cy="7.2" r="5.669" fill="none"  stroke-width="0.576" stroke="#FFFFFF" cx="7.2"/>
                    </g>
                </g>
                <g >
                    <title >element:U$9</title>
                    <g >
                        <title >package:MOUNTINGHOLE_2.5_PLATED</title>
                        <circle cy="7.2" r="5.669" fill="none"  stroke-width="0.576" stroke="#FFFFFF" cx="46.8"/>
                    </g>
                </g>
                <g >
                    <title >element:U$14</title>
                    <g >
                        <title >package:ADAFRUIT_3.5MM</title>
                    </g>
                </g>
                <g >
                    <title >element:U2</title>
                    <g >
                        <title >package:SOT23-5</title>
                        <line x1="2.883" stroke-linecap="round" x2="2.883" fill="none"  stroke-width="0.576" stroke="#FFFFFF" y1="23.652" y2="28.188"/>
                        <line x1="12.237" stroke-linecap="round" x2="12.237" fill="none"  stroke-width="0.576" stroke="#FFFFFF" y1="23.652" y2="28.188"/>
                        <line x1="6.426" stroke-linecap="round" x2="8.694" fill="none"  stroke-width="0.576" stroke="#FFFFFF" y1="22.944" y2="22.944"/>
                    </g>
                </g>
            </g>
            <g transform="matrix(0, 1, -1, 0, 45.5159, 13.6374)" >
                <g >
                    <g transform="matrix(2.535182e-06 1 -1 2.535182e-06 45.5159 13.6374)" >
                        <rect height="3.685" gorn="0.1.0.2.0.0.0" width="4.252" fill="#9A916C"  id="connector5pin" x="13.813" y="27.734"/>
                    </g>
                </g>
            </g>
            <g transform="matrix(0, 1, -1, 0, 50.9018, 19.0233)" >
                <g >
                    <g transform="matrix(2.535182e-06 1 -1 2.535182e-06 50.9017 19.0232)" >
                        <rect height="3.685" gorn="0.1.0.3.0.0.0" width="4.252" fill="#9A916C"  id="connector6pin" x="13.813" y="33.12"/>
                    </g>
                </g>
            </g>
            <rect height="4.252" gorn="0.1.0.4" width="3.685" fill="#9A916C"  id="connector7pin" x="3.025" y="15.177"/>
            <rect height="4.252" gorn="0.1.0.5" width="3.685" fill="#9A916C"  id="connector8pin" x="8.41" y="15.177"/>
            <rect height="4.252" gorn="0.1.0.6" width="3.685" fill="#9A916C"  id="connector9pin" x="3.385" y="32.434"/>
            <rect height="4.252" gorn="0.1.0.7" width="3.685" fill="#9A916C"  id="connector10pin" x="8.77" y="32.434"/>
            <g transform="matrix(0, 1, -1, 0, 35.1071, 3.42708)" >
                <g >
                    <g transform="matrix(2.535182e-06 1 -1 2.535182e-06 35.107 3.4271)" >
                        <rect height="3.685" gorn="0.1.0.8.0.0.0" width="4.252" fill="#9A916C"  id="connector11pin" x="13.714" y="17.425"/>
                    </g>
                </g>
            </g>
            <g transform="matrix(0, 1, -1, 0, 40.4929, 8.81294)" >
                <g >
                    <g transform="matrix(2.535182e-06 1 -1 2.535182e-06 40.4928 8.8129)" >
                        <rect height="3.685" gorn="0.1.0.9.0.0.0" width="4.252" fill="#9A916C"  id="connector12pin" x="13.714" y="22.81"/>
                    </g>
                </g>
            </g>
            <path gorn="0.1.0.10" fill="#9A916C" d="M42.307,36.227L42.307,36.227c0.783,0,1.417,0.635,1.417,1.417v0c0,0.783-0.635,1.417-1.417,1.417h0c-0.783,0-1.417-0.635-1.417-1.417v0C40.89,36.861,41.524,36.227,42.307,36.227z"  id="connector13pin"/>
            <path gorn="0.1.0.11" fill="#9A916C" d="M15.403,1.899L15.403,1.899c0.783,0,1.417,0.635,1.417,1.417v0c0,0.783-0.635,1.417-1.417,1.417h0c-0.783,0-1.417-0.635-1.417-1.417v0C13.986,2.534,14.621,1.899,15.403,1.899z"  id="connector14pin"/>
            <rect height="1.701" gorn="0.1.0.12" width="5.386" fill="#9A916C"  id="connector15pin" x="20.775" y="20.475"/>
            <rect height="1.701" gorn="0.1.0.13" width="5.386" fill="#9A916C"  id="connector16pin" x="20.775" y="24.018"/>
            <rect height="1.701" gorn="0.1.0.14" width="5.386" fill="#9A916C"  id="connector17pin" x="20.775" y="27.561"/>
            <rect height="1.701" gorn="0.1.0.15" width="5.386" fill="#9A916C"  id="connector18pin" x="20.775" y="31.105"/>
            <rect height="1.701" gorn="0.1.0.16" width="5.386" fill="#9A916C"  id="connector19pin" x="29.279" y="31.105"/>
            <rect height="1.701" gorn="0.1.0.17" width="5.386" fill="#9A916C"  id="connector20pin" x="29.279" y="27.561"/>
            <rect height="1.701" gorn="0.1.0.18" width="5.386" fill="#9A916C"  id="connector21pin" x="29.279" y="24.018"/>
            <rect height="1.701" gorn="0.1.0.19" width="5.386" fill="#9A916C"  id="connector22pin" x="29.279" y="20.475"/>
            <circle cy="43.2" gorn="0.1.0.20" r="1.969" fill="none"  stroke-width="1.1027" id="connector23pin" stroke="#9A916C" cx="5.4"/>
            <rect height="3.937" width="3.937" fill="none"  stroke-width="1.1027" x="3.431" y="41.231" stroke="#9A916C"/>
            <circle cy="43.2" gorn="0.1.0.22" r="1.969" fill="none"  stroke-width="1.1027" id="connector24pin" stroke="#9A916C" cx="12.6"/>
            <circle cy="43.2" gorn="0.1.0.23" r="1.969" fill="none"  stroke-width="1.1027" id="connector25pin" stroke="#9A916C" cx="19.8"/>
            <circle cy="43.2" gorn="0.1.0.24" r="1.969" fill="none"  stroke-width="1.1027" id="connector26pin" stroke="#9A916C" cx="27"/>
            <circle cy="43.2" gorn="0.1.0.25" r="1.969" fill="none"  stroke-width="1.1027" id="connector27pin" stroke="#9A916C" cx="34.2"/>
            <circle cy="43.2" gorn="0.1.0.26" r="1.969" fill="none"  stroke-width="1.1027" id="connector28pin" stroke="#9A916C" cx="41.4"/>
            <circle cy="43.2" gorn="0.1.0.27" r="1.969" fill="none"  stroke-width="1.1027" id="connector29pin" stroke="#9A916C" cx="48.6"/>
            <g transform="matrix(-1, 0, 0, -1, 88.1856, 33.2107)" >
                <g >
                    <rect height="3.402" gorn="0.1.0.28.0.0" width="2.835" fill="#9A916C"  id="connector30pin" x="42.676" y="14.905"/>
                </g>
            </g>
            <g transform="matrix(-1, 0, 0, -1, 77.4144, 33.2107)" >
                <g >
                    <rect height="3.402" gorn="0.1.0.29.0.0" width="2.835" fill="#9A916C"  id="connector31pin" x="37.29" y="14.905"/>
                </g>
            </g>
            <g transform="matrix(-1, 0, 0, -1, 82.8, 44.5493)" >
                <g >
                    <rect height="3.402" gorn="0.1.0.30.0.0" width="2.835" fill="#9A916C"  id="connector32pin" x="39.983" y="20.574"/>
                </g>
            </g>
            <g transform="matrix(-1, 0, 0, -1, 88.1856, 54.0907)" >
                <g >
                    <rect height="3.402" gorn="0.1.0.31.0.0" width="2.835" fill="#9A916C"  id="connector33pin" x="42.676" y="25.345"/>
                </g>
            </g>
            <g transform="matrix(-1, 0, 0, -1, 77.4144, 54.0907)" >
                <g >
                    <rect height="3.402" gorn="0.1.0.32.0.0" width="2.835" fill="#9A916C"  id="connector34pin" x="37.29" y="25.345"/>
                </g>
            </g>
            <g transform="matrix(-1, 0, 0, -1, 82.8, 65.4293)" >
                <g >
                    <rect height="3.402" gorn="0.1.0.33.0.0" width="2.835" fill="#9A916C"  id="connector35pin" x="39.983" y="31.014"/>
                </g>
            </g>
            <g transform="matrix(0, 1, -1, 0, 66.0671, -32.5729)" >
                <g >
                    <g transform="matrix(2.535182e-06 1 -1 2.535182e-06 66.0669 -32.5729)" >
                        <rect height="3.685" gorn="0.1.0.34.0.0.0" width="4.252" fill="#9A916C"  id="connector36pin" x="47.194" y="14.905"/>
                    </g>
                </g>
            </g>
            <g transform="matrix(0, 1, -1, 0, 71.4529, -27.1871)" >
                <g >
                    <g transform="matrix(2.535182e-06 1 -1 2.535182e-06 71.4527 -27.1871)" >
                        <rect height="3.685" gorn="0.1.0.35.0.0.0" width="4.252" fill="#9A916C"  id="connector37pin" x="47.194" y="20.29"/>
                    </g>
                </g>
            </g>
            <g transform="matrix(0, 1, -1, 0, 76.8672, -21.7729)" >
                <g >
                    <g transform="matrix(2.535182e-06 1 -1 2.535182e-06 76.8669 -21.7729)" >
                        <rect height="3.685" gorn="0.1.0.36.0.0.0" width="4.252" fill="#9A916C"  id="connector38pin" x="47.194" y="25.705"/>
                    </g>
                </g>
            </g>
            <g transform="matrix(0, 1, -1, 0, 82.2528, -16.3871)" >
                <g >
                    <g transform="matrix(2.535182e-06 1 -1 2.535182e-06 82.2527 -16.3871)" >
                        <rect height="3.685" gorn="0.1.0.37.0.0.0" width="4.252" fill="#9A916C"  id="connector39pin" x="47.194" y="31.09"/>
                    </g>
                </g>
            </g>
            <rect height="4.252" gorn="0.1.0.38" width="3.685" fill="#9A916C"  id="connector40pin" x="15.985" y="12.274"/>
            <rect height="4.252" gorn="0.1.0.39" width="3.685" fill="#9A916C"  id="connector41pin" x="21.37" y="12.274"/>
            <g transform="matrix(-1, 0, 0, -1, 67.3058, 29.52)" >
                <g >
                    <rect height="4.252" gorn="0.1.0.40.0.0" width="3.685" fill="#9A916C"  id="connector42pin" x="31.81" y="12.634"/>
                </g>
            </g>
            <g transform="matrix(-1, 0, 0, -1, 56.5342, 29.52)" >
                <g >
                    <rect height="4.252" gorn="0.1.0.41.0.0" width="3.685" fill="#9A916C"  id="connector43pin" x="26.425" y="12.634"/>
                </g>
            </g>
            <circle cy="7.2" gorn="0.1.0.42" r="4.263" fill="none"  stroke-width="1.44" id="connector44pin" stroke="#9A916C" cx="7.2"/>
            <circle cy="7.2" gorn="0.1.0.43" r="4.263" fill="none"  stroke-width="1.44" id="connector45pin" stroke="#9A916C" cx="46.8"/>
            <rect height="3.402" gorn="0.1.0.44" width="1.559" fill="#9A916C"  id="connector46pin" x="4.088" y="27.904"/>
            <rect height="3.402" gorn="0.1.0.45" width="1.559" fill="#9A916C"  id="connector47pin" x="6.78" y="27.904"/>
            <rect height="3.402" gorn="0.1.0.46" width="1.559" fill="#9A916C"  id="connector48pin" x="9.473" y="27.904"/>
            <rect height="3.402" gorn="0.1.0.47" width="1.559" fill="#9A916C"  id="connector49pin" x="9.473" y="20.534"/>
            <rect height="3.402" gorn="0.1.0.48" width="1.559" fill="#9A916C"  id="connector50pin" x="4.088" y="20.534"/>
        </g>
        <g transform="matrix(1, 0, 0, 1, 13.1047, 30.4981)" >
            <g gorn="0.1.1.0"  id="_x30_805-cap">
                <g transform="matrix(0, 1, -1, 0, 4.606, -1.063)" >
                    <g >
                        <path fill="#DCDCDC" d="M5.386,3.543H0.283C0.127,3.543,0,3.416,0,3.26V0.283C0,0.127,0.127,0,0.283,0h5.102c0.157,0,0.283,0.127,0.283,0.283V3.26C5.669,3.416,5.542,3.543,5.386,3.543z" />
                        <g transform="matrix(2.535182e-06 1 -1 2.535182e-06 4.606 -1.063)" >
                            <rect height="3.543" width="3.543" fill="#6E554B"  x="1.063" y="0"/>
                        </g>
                    </g>
                </g>
            </g>
        </g>
        <g transform="matrix(1, 0, 0, 1, 4.7255, 15.5312)" >
            <g gorn="0.1.2.0"  id="_x30_805-cap_1_">
                <path fill="#DCDCDC" d="M5.386,3.543H0.283C0.127,3.543,0,3.416,0,3.26V0.283C0,0.127,0.127,0,0.283,0h5.102c0.157,0,0.283,0.127,0.283,0.283V3.26C5.669,3.416,5.542,3.543,5.386,3.543z" />
                <rect height="3.543" width="3.543" fill="#6E554B"  x="1.063" y="0"/>
            </g>
        </g>
        <g transform="matrix(1, 0, 0, 1, 5.0855, 32.7885)" >
            <g gorn="0.1.3.0"  id="_x30_805-cap_2_">
                <path fill="#DCDCDC" d="M5.386,3.543H0.283C0.127,3.543,0,3.416,0,3.26V0.283C0,0.127,0.127,0,0.283,0h5.102c0.157,0,0.283,0.127,0.283,0.283V3.26C5.669,3.416,5.542,3.543,5.386,3.543z" />
                <rect height="3.543" width="3.543" fill="#6E554B"  x="1.063" y="0"/>
            </g>
        </g>
        <g transform="matrix(1, 0, 0, 1, 13.0055, 20.1885)" >
            <g gorn="0.1.4.0"  id="_x30_805-cap_3_">
                <g transform="matrix(0, 1, -1, 0, 4.606, -1.063)" >
                    <g >
                        <path fill="#DCDCDC" d="M5.386,3.543H0.283C0.127,3.543,0,3.416,0,3.26V0.283C0,0.127,0.127,0,0.283,0h5.102c0.157,0,0.283,0.127,0.283,0.283V3.26C5.669,3.416,5.542,3.543,5.386,3.543z" />
                        <g transform="matrix(2.535182e-06 1 -1 2.535182e-06 4.606 -1.063)" >
                            <rect height="3.543" width="3.543" fill="#6E554B"  x="1.063" y="0"/>
                        </g>
                    </g>
                </g>
            </g>
        </g>
        <g transform="matrix(1, 0, 0, 1, 23.0568, 18.2019)" >
            <g gorn="0.1.5.0"  id="lga8">
                <g >
                    <path fill="#B3B3B3" d="M9.265,15.087c0,0.549-0.449,1-1,1H1.062c-0.55,0-1-0.451-1-1V1.75c0-0.55,0.45-1,1-1h7.202c0.551,0,1,0.45,1,1L9.265,15.087z" />
                    <path fill="#999999" d="M8.914,14.69c0,0.549-0.449,1-1,1H1.411c-0.55,0-1-0.451-1-1l0-12.003c0-0.55,0.45-1,1-1h6.503c0.551,0,1,0.45,1,1C8.914,2.687,8.914,14.69,8.914,14.69z" />
                    <path fill="#CCCCCC" d="M8.914,13.923c0,0.549-0.449,1-1,1H1.411c-0.55,0-1-0.451-1-1l0-12.003c0-0.55,0.45-1,1-1h6.503c0.551,0,1,0.45,1,1C8.914,1.92,8.914,13.923,8.914,13.923z" />
                    <path fill="#646464" d="M0.411,14.103c0,0.551,0.45,1,1,1h6.503c0.551,0,1-0.449,1-1v-0.18c0,0.549-0.449,1-1,1l-6.503,0c-0.55,0-1-0.451-1-1C0.411,13.923,0.411,14.103,0.411,14.103z" />
                    <path fill="#F0F0F0" d="M8.914,2.187c0-0.55-0.449-1-1-1H1.411c-0.55,0-1,0.45-1,1l0-0.267c0-0.55,0.45-1,1-1h6.503c0.551,0,1,0.45,1,1C8.914,1.92,8.914,2.187,8.914,2.187z" />
                    <circle cy="12.337" r="0.896" fill="#1A1A1A"  cx="4.663"/>
                    <path fill="#F0F0F0" d="M9.265,1.92c0-0.55-0.449-1-1-1l-7.202,0c-0.55,0-1,0.45-1,1V1.75c0-0.55,0.45-1,1-1h7.202c0.551,0,1,0.45,1,1L9.265,1.92z" />
                    <path fill="#646464" d="M0.062,15.087c0,0.549,0.45,1,1,1h7.202c0.551,0,1-0.451,1-1v-0.104c0,0.549-0.449,1-1,1H1.062c-0.55,0-1-0.451-1-1V15.087z" />
                </g>
            </g>
        </g>
        <g transform="matrix(1, 0, 0, 1, 37.148, 15.613)" >
            <g gorn="0.1.6.0"  id="sot23-wide">
                <g transform="matrix(-1, 0, 0, -1, 8.50399, 7.65403)" >
                    <g >
                        <g >
                            <rect height="2.976" width="1.417" fill="#DCDCDC"  x="0.85" y="4.677"/>
                            <rect height="2.976" width="1.417" fill="#DCDCDC"  x="6.236" y="4.677"/>
                            <rect height="3.118" width="1.417" fill="#DCDCDC"  x="3.543" y="0"/>
                            <rect height="3.685" width="8.504" fill="#303030"  x="0" y="1.984"/>
                        </g>
                    </g>
                </g>
            </g>
        </g>
        <g transform="matrix(1, 0, 0, 1, 37.148, 26.053)" >
            <g gorn="0.1.7.0"  id="sot23-wide_1_">
                <g transform="matrix(-1, 0, 0, -1, 8.50399, 7.65403)" >
                    <g >
                        <g >
                            <rect height="2.976" width="1.417" fill="#DCDCDC"  x="0.85" y="4.677"/>
                            <rect height="2.976" width="1.417" fill="#DCDCDC"  x="6.236" y="4.677"/>
                            <rect height="3.118" width="1.417" fill="#DCDCDC"  x="3.543" y="0"/>
                            <rect height="3.685" width="8.504" fill="#303030"  x="0" y="1.984"/>
                        </g>
                    </g>
                </g>
            </g>
        </g>
        <g transform="matrix(1, 0, 0, 1, 46.4855, 17.6685)" >
            <g gorn="0.1.8.0"  id="_x30_805-res">
                <g transform="matrix(0, 1, -1, 0, 4.606, -1.063)" >
                    <g >
                        <path fill="#DCDCDC" d="M5.386,3.543H0.283C0.127,3.543,0,3.416,0,3.26V0.283C0,0.127,0.127,0,0.283,0h5.102c0.157,0,0.283,0.127,0.283,0.283V3.26C5.669,3.416,5.542,3.543,5.386,3.543z" />
                        <g transform="matrix(2.535182e-06 1 -1 2.535182e-06 4.606 -1.063)" >
                            <rect height="3.543" width="3.543" fill="#333333"  x="1.063" y="0"/>
                        </g>
                    </g>
                </g>
            </g>
        </g>
        <g transform="matrix(1, 0, 0, 1, 46.4855, 28.4685)" >
            <g gorn="0.1.9.0"  id="_x30_805-res_1_">
                <g transform="matrix(0, 1, -1, 0, 4.606, -1.063)" >
                    <g >
                        <path fill="#DCDCDC" d="M5.386,3.543H0.283C0.127,3.543,0,3.416,0,3.26V0.283C0,0.127,0.127,0,0.283,0h5.102c0.157,0,0.283,0.127,0.283,0.283V3.26C5.669,3.416,5.542,3.543,5.386,3.543z" />
                        <g transform="matrix(2.535182e-06 1 -1 2.535182e-06 4.606 -1.063)" >
                            <rect height="3.543" width="3.543" fill="#333333"  x="1.063" y="0"/>
                        </g>
                    </g>
                </g>
            </g>
        </g>
        <g transform="matrix(1, 0, 0, 1, 17.6855, 12.6285)" >
            <g gorn="0.1.10.0"  id="_x30_805-res_2_">
                <path fill="#DCDCDC" d="M5.386,3.543H0.283C0.127,3.543,0,3.416,0,3.26V0.283C0,0.127,0.127,0,0.283,0h5.102c0.157,0,0.283,0.127,0.283,0.283V3.26C5.669,3.416,5.542,3.543,5.386,3.543z" />
                <rect height="3.543" width="3.543" fill="#333333"  x="1.063" y="0"/>
            </g>
        </g>
        <g transform="matrix(1, 0, 0, 1, 28.1255, 12.9885)" >
            <g gorn="0.1.11.0"  id="_x30_805-res_3_">
                <g transform="matrix(-1, 0, 0, -1, 5.669, 3.543)" >
                    <g >
                        <path fill="#DCDCDC" d="M5.386,3.543H0.283C0.127,3.543,0,3.416,0,3.26V0.283C0,0.127,0.127,0,0.283,0h5.102c0.157,0,0.283,0.127,0.283,0.283V3.26C5.669,3.416,5.542,3.543,5.386,3.543z" />
                        <rect height="3.543" width="3.543" fill="#333333"  x="1.063" y="0"/>
                    </g>
                </g>
            </g>
        </g>
        <g transform="matrix(1, 0, 0, 1, 3.44999, 22.093)" >
            <g gorn="0.1.12.0"  id="sot23-5">
                <g >
                    <rect height="7.654" width="1.134" fill="#DCDCDC"  x="0.85" y="0"/>
                    <rect height="7.654" width="1.134" fill="#DCDCDC"  x="6.236" y="0"/>
                    <rect height="3.118" width="1.134" fill="#DCDCDC"  x="3.543" y="4.535"/>
                    <rect height="4.535" width="8.22" fill="#303030"  x="0" y="1.559"/>
                </g>
            </g>
        </g>
    </g>
</svg>
