<?xml version='1.0' encoding='UTF-8' standalone='no'?>
<!-- Created with Inkscape (http://www.inkscape.org/) -->
<svg xmlns="http://www.w3.org/2000/svg" width="1098" version="1.1" height="270" id="svg13574">
 <defs  id="defs13576">
  <linearGradient  id="linearGradient90499">
   <stop  offset="0" style="stop-color:#9c9c9c;stop-opacity:1" id="stop90501"/>
   <stop  offset="0.25" style="stop-color:#c9c9c9;stop-opacity:1" id="stop90503"/>
   <stop  offset="1" style="stop-color:#a6a6a6;stop-opacity:1" id="stop90505"/>
  </linearGradient>
  <linearGradient  id="linearGradient90470">
   <stop  offset="0" style="stop-color:#9c9c9c;stop-opacity:1" id="stop90472"/>
   <stop  offset="0.5" style="stop-color:#c9c9c9;stop-opacity:1" id="stop90476"/>
   <stop  offset="1" style="stop-color:#a6a6a6;stop-opacity:1" id="stop90474"/>
  </linearGradient>
  <linearGradient  id="linearGradient90349">
   <stop  offset="0" style="stop-color:#262626;stop-opacity:1" id="stop90351"/>
   <stop  offset="0.5" style="stop-color:#5f5f5f;stop-opacity:1" id="stop90357"/>
   <stop  offset="1" style="stop-color:#2c2c2c;stop-opacity:1" id="stop90353"/>
  </linearGradient>
  <linearGradient  id="linearGradient90211">
   <stop  offset="0" style="stop-color:#000000;stop-opacity:0" id="stop90213"/>
   <stop  offset="0.08333325" style="stop-color:#d9d9d9;stop-opacity:0.19607843" id="stop90215"/>
   <stop  offset="0.22222216" style="stop-color:#000000;stop-opacity:0" id="stop90217"/>
   <stop  offset="0.77777785" style="stop-color:#000000;stop-opacity:0" id="stop90219"/>
   <stop  offset="0.91666675" style="stop-color:#c0c0c0;stop-opacity:0.19607843" id="stop90221"/>
   <stop  offset="1" style="stop-color:#000000;stop-opacity:0" id="stop90223"/>
  </linearGradient>
  <linearGradient  id="linearGradient90188">
   <stop  offset="0" style="stop-color:#000000;stop-opacity:0" id="stop90190"/>
   <stop  offset="0.05555547" style="stop-color:#d9d9d9;stop-opacity:0.45535713" id="stop90202"/>
   <stop  offset="0.08333325" style="stop-color:#000000;stop-opacity:0" id="stop90200"/>
   <stop  offset="0.91666675" style="stop-color:#000000;stop-opacity:0" id="stop90204"/>
   <stop  offset="0.94444454" style="stop-color:#ffffff;stop-opacity:0.39285713" id="stop90198"/>
   <stop  offset="1" style="stop-color:#000000;stop-opacity:0" id="stop90196"/>
  </linearGradient>
  <linearGradient  id="linearGradient90134">
   <stop  offset="0" style="stop-color:#ffffff;stop-opacity:0" id="stop90144"/>
   <stop  offset="0.025" style="stop-color:#dddddd;stop-opacity:0.5089286" id="stop90138"/>
   <stop  offset="0.075" style="stop-color:#bcbcbc;stop-opacity:0" id="stop90140"/>
   <stop  offset="0.53750002" style="stop-color:#9a9a9a;stop-opacity:0.05357143" id="stop90148"/>
   <stop  offset="1" style="stop-color:#797979;stop-opacity:0.04464286" id="stop90142"/>
  </linearGradient>
  <linearGradient  id="linearGradient90122">
   <stop  offset="0" style="stop-color:#ffffff;stop-opacity:0" id="stop90124"/>
   <stop  offset="0.05000005" style="stop-color:#dddddd;stop-opacity:0.66964287" id="stop90126"/>
   <stop  offset="0.15000005" style="stop-color:#333333;stop-opacity:0" id="stop90128"/>
   <stop  offset="1" style="stop-color:#797979;stop-opacity:0" id="stop90130"/>
  </linearGradient>
  <linearGradient  id="linearGradient90107">
   <stop  offset="0" style="stop-color:#ffffff;stop-opacity:0" id="stop90109"/>
   <stop  offset="0.04861111" style="stop-color:#dddddd;stop-opacity:0.5089286" id="stop90115"/>
   <stop  offset="0.09722222" style="stop-color:#bcbcbc;stop-opacity:0.3125" id="stop90113"/>
   <stop  offset="1" style="stop-color:#797979;stop-opacity:0.17857143" id="stop90111"/>
  </linearGradient>
  <linearGradient  id="linearGradient90082">
   <stop  offset="0" style="stop-color:#ffffff;stop-opacity:0.32142857" id="stop90084"/>
   <stop  offset="1" style="stop-color:#797979;stop-opacity:0.17857143" id="stop90086"/>
  </linearGradient>
  <linearGradient  gradientTransform="translate(175.5,-467.35973)" xlink:href="#linearGradient90122" xmlns:xlink="http://www.w3.org/1999/xlink" id="linearGradient90120" y1="782.35974" x1="369" y2="962.35974" x2="369" gradientUnits="userSpaceOnUse"/>
  <linearGradient  gradientTransform="translate(175.5,-467.35974)" xlink:href="#linearGradient90134" xmlns:xlink="http://www.w3.org/1999/xlink" id="linearGradient90132" y1="872.35974" x1="180" y2="872.35974" x2="540" gradientUnits="userSpaceOnUse"/>
  <linearGradient  gradientTransform="translate(-895.49999,-1277.3597)" xlink:href="#linearGradient90134" xmlns:xlink="http://www.w3.org/1999/xlink" id="linearGradient90160" y1="872.35974" x1="180" y2="872.35974" x2="540" gradientUnits="userSpaceOnUse"/>
  <linearGradient  gradientTransform="translate(-895.5,-1277.3597)" xlink:href="#linearGradient90122" xmlns:xlink="http://www.w3.org/1999/xlink" id="linearGradient90164" y1="782.35974" x1="369" y2="962.35974" x2="369" gradientUnits="userSpaceOnUse"/>
  <linearGradient  xlink:href="#linearGradient90211" xmlns:xlink="http://www.w3.org/1999/xlink" id="linearGradient90378" y1="327.60001" x1="135" y2="392.39999" x2="135" gradientUnits="userSpaceOnUse"/>
  <linearGradient  xlink:href="#linearGradient90211" xmlns:xlink="http://www.w3.org/1999/xlink" id="linearGradient90380" y1="327.60001" x1="135" y2="392.39999" x2="135" gradientUnits="userSpaceOnUse"/>
  <linearGradient  gradientTransform="matrix(0.66666667,0,0,1,775.5,45.000009)" xlink:href="#linearGradient90349" xmlns:xlink="http://www.w3.org/1999/xlink" id="linearGradient90384" y1="378" x1="36" y2="342" x2="36" gradientUnits="userSpaceOnUse"/>
  <linearGradient  gradientTransform="matrix(0.7,0,0,1,229.5,45.000009)" xlink:href="#linearGradient90349" xmlns:xlink="http://www.w3.org/1999/xlink" id="linearGradient90390" y1="378" x1="36" y2="342" x2="36" gradientUnits="userSpaceOnUse"/>
  <linearGradient  xlink:href="#linearGradient90211" xmlns:xlink="http://www.w3.org/1999/xlink" id="linearGradient90394" y1="327.60001" x1="135" y2="392.39999" x2="135" gradientUnits="userSpaceOnUse"/>
  <linearGradient  xlink:href="#linearGradient90211" xmlns:xlink="http://www.w3.org/1999/xlink" id="linearGradient90396" y1="327.60001" x1="135" y2="392.39999" x2="135" gradientUnits="userSpaceOnUse"/>
  <linearGradient  xlink:href="#linearGradient90349" xmlns:xlink="http://www.w3.org/1999/xlink" id="linearGradient90450" y1="494.1803" x1="31.877449" y2="605.0246" x2="64.182869" gradientUnits="userSpaceOnUse"/>
  <linearGradient  xlink:href="#linearGradient90349" xmlns:xlink="http://www.w3.org/1999/xlink" id="linearGradient90452" y1="448.87744" x1="73.457207" y2="494.91113" x2="72.965614" gradientUnits="userSpaceOnUse"/>
  <linearGradient  gradientTransform="translate(1017,-123.75)" xlink:href="#linearGradient90470" xmlns:xlink="http://www.w3.org/1999/xlink" id="linearGradient90487" y1="504" x1="9" y2="558" x2="22.5" gradientUnits="userSpaceOnUse"/>
  <linearGradient  gradientTransform="translate(1008,-171)" xlink:href="#linearGradient90499" xmlns:xlink="http://www.w3.org/1999/xlink" id="linearGradient90497" y1="522" x1="40.5" y2="540" x2="40.5" gradientUnits="userSpaceOnUse"/>
  <linearGradient  xlink:href="#linearGradient90349" xmlns:xlink="http://www.w3.org/1999/xlink" id="linearGradient90517" y1="494.1803" x1="31.877449" y2="605.0246" x2="64.182869" gradientUnits="userSpaceOnUse"/>
  <linearGradient  xlink:href="#linearGradient90349" xmlns:xlink="http://www.w3.org/1999/xlink" id="linearGradient90519" y1="448.87744" x1="73.457207" y2="494.91113" x2="72.965614" gradientUnits="userSpaceOnUse"/>
  <linearGradient  gradientTransform="translate(-4.4999995,45)" xlink:href="#linearGradient90349" xmlns:xlink="http://www.w3.org/1999/xlink" id="linearGradient90940" y1="414" x1="549" y2="508.5" x2="567" gradientUnits="userSpaceOnUse"/>
 </defs>
 <metadata  id="metadata13579">
  <rdf:RDF xmlns:rdf="http://www.w3.org/1999/02/22-rdf-syntax-ns#">
   <cc:Work xmlns:cc="http://creativecommons.org/ns#" rdf:about="" xmlns:rdf="http://www.w3.org/1999/02/22-rdf-syntax-ns#">
    <dc:format xmlns:dc="http://purl.org/dc/elements/1.1/">image/svg+xml</dc:format>
    <dc:type xmlns:dc="http://purl.org/dc/elements/1.1/" rdf:resource="http://purl.org/dc/dcmitype/StillImage" xmlns:rdf="http://www.w3.org/1999/02/22-rdf-syntax-ns#"/>
    <dc:title xmlns:dc="http://purl.org/dc/elements/1.1/"/>
   </cc:Work>
  </rdf:RDF>
 </metadata>
 <g  style="display:inline" id="layer1" transform="translate(0,-782.35975)"/>
 <g  style="display:inline" id="layer7" transform="translate(0,-270)"/>
 <g  style="display:inline" id="layer8" transform="translate(0,-270)"/>
 <g  style="display:inline" id="layer9" transform="translate(0,-270)"/>
 <g  style="display:inline" id="layer10" transform="translate(0,-270)"/>
 <g  style="display:inline" id="layer11" transform="translate(0,-270)"/>
 <g  style="display:inline" id="layer12" transform="translate(0,-270)"/>
 <g  id="layer13" transform="translate(0,-270)">
  <g  id="breadboard">
   <rect  width="9" x="495" y="996.10974" rx="4.5" height="18" style="fill:#ff2a2a;fill-opacity:1;fill-rule:evenodd;stroke:#888888;stroke-width:0.18000001;stroke-miterlimit:4;stroke-opacity:1;stroke-dasharray:none;display:inline" id="rect91000" transform="translate(0,-512.35975)"/>
   <path  style="fill:#333333;stroke:none;display:inline" id="path90994" d="m 445.5,845.35975 c 9.972,0 18,-8.028 18,-18 l 0,-18 c 0,-9.972 -8.028,-18 -18,-18 -9.972,0 -18,8.028 -18,18 l 0,18 c 0,9.972 8.028,18 18,18 z m 0,-27 c -4.97056,0 -9,-4.02944 -9,-9 0,-4.97056 4.02944,-9 9,-9 4.97056,0 9,4.02944 9,9 0,4.97056 -4.02944,9 -9,9 z" transform="translate(0,-512.35975)"/>
   <path  style="fill:#333333;stroke:none;display:inline" id="rect90987" d="m 625.5,207 c -9.972,0 -18,8.028 -18,18 l 0,18 c 0,9.972 8.028,18 18,18 9.972,0 18,-8.028 18,-18 l 0,-18 c 0,-9.972 -8.028,-18 -18,-18 z m 0,27 c 4.97056,0 9,4.02944 9,9 0,4.97056 -4.02944,9 -9,9 -4.97056,0 -9,-4.02944 -9,-9 0,-4.97056 4.02944,-9 9,-9 z" transform="translate(0,270)"/>
   <rect  width="360" x="355.5" y="827.35974" rx="22.5" height="180" style="fill:#333333;stroke:#000000;stroke-width:1.79999995;stroke-miterlimit:4;stroke-opacity:1;stroke-dasharray:none;display:inline" id="rect89557" transform="translate(0,-512.35975)"/>
   <rect  width="18" x="0" y="908.35974" height="18" style="fill:none;stroke:none;display:inline" id="plug_female" transform="translate(0,-512.35975)"/>
   <rect  width="18" x="1008" y="908.35974" height="18.00001" style="fill:none;stroke:none;display:inline" id="plug_male" transform="translate(0,-512.35975)"/>
   <rect  width="360" x="355.5" y="315" rx="22.5" height="180" style="opacity:0.5;fill:url(#linearGradient90132);fill-opacity:1;stroke:none;display:inline" id="rect90088"/>
   <rect  width="360" x="-715.5" y="-495" rx="22.5" height="180" style="opacity:0.27999998;fill:url(#linearGradient90160);fill-opacity:1;stroke:none;display:inline" id="rect90158" transform="scale(-1,-1)"/>
   <rect  width="360" x="355.5" y="315" rx="22.5" height="180" style="opacity:0.4;fill:url(#linearGradient90120);fill-opacity:1;stroke:none;display:inline" id="rect90117"/>
   <rect  width="360" x="-715.5" y="-495" rx="22.5" height="180" style="opacity:0.27999998;fill:url(#linearGradient90164);fill-opacity:1;stroke:none;display:inline" id="rect90162" transform="scale(-1,-1)"/>
   <path  style="color:#000000;fill:#000000;fill-opacity:0.76630435;fill-rule:evenodd;stroke:url(#linearGradient90390);stroke-width:36;stroke-linecap:butt;stroke-linejoin:round;stroke-miterlimit:4;stroke-opacity:1;stroke-dasharray:none;stroke-dashoffset:0.28800001;marker:none;visibility:visible;display:inline;overflow:visible;enable-background:accumulate" id="path90347" d="m 355.5,405.00001 -189,0"/>
   <path  style="color:#000000;fill:#000000;fill-opacity:0.76630435;fill-rule:evenodd;stroke:url(#linearGradient90384);stroke-width:36;stroke-linecap:butt;stroke-linejoin:round;stroke-miterlimit:4;stroke-opacity:1;stroke-dasharray:none;stroke-dashoffset:0.28800001;marker:none;visibility:visible;display:inline;overflow:visible;enable-background:accumulate" id="path90382" d="m 895.5,405.00001 -180,0"/>
   <path  style="fill:url(#linearGradient90940);fill-opacity:1;fill-rule:evenodd;stroke:#000000;stroke-width:0.18000001;stroke-linecap:butt;stroke-linejoin:round;stroke-miterlimit:4;stroke-opacity:1;stroke-dasharray:none;stroke-dashoffset:0.28800001;display:inline" id="rect90926" d="m 531,459 c -7.479,0 -13.5,6.021 -13.5,13.5 l 0,22.5 72,0 0,-22.5 c 0,-7.479 -6.021,-13.5 -13.5,-13.5 l -45,0 z"/>
   <rect  width="9" x="531" y="490.5" height="9" style="fill:none;stroke:none;display:inline" id="connector1pin"/>
   <rect  width="9" x="549" y="490.5" height="9" style="fill:none;stroke:none;display:inline" id="connector2pin"/>
   <rect  width="9" x="567" y="490.5" height="9" style="fill:none;stroke:none;display:inline" id="connector3pin"/>
   <rect  width="81" x="1008" y="351" rx="9" height="18" style="fill:url(#linearGradient90497);fill-opacity:1;fill-rule:evenodd;stroke:#000000;stroke-width:0.44999999;stroke-linecap:butt;stroke-linejoin:round;stroke-miterlimit:4;stroke-opacity:1;stroke-dasharray:none;stroke-dashoffset:0.28800001;display:inline" id="rect90489"/>
   <g  style="display:inline" id="g90444" transform="translate(895.5,-112.5)">
    <rect  width="121.5" x="0" y="495" height="45" style="fill:#333333;fill-opacity:1;fill-rule:evenodd;stroke:#000000;stroke-width:0.44999999;stroke-linecap:butt;stroke-linejoin:round;stroke-miterlimit:4;stroke-opacity:1;stroke-dasharray:none;stroke-dashoffset:0.28800001;display:inline" id="rect90404"/>
    <path  style="color:#000000;fill:#333333;fill-opacity:1;fill-rule:evenodd;stroke:#000000;stroke-width:0.44999999;stroke-linecap:round;stroke-linejoin:round;stroke-miterlimit:4;stroke-opacity:1;stroke-dasharray:none;stroke-dashoffset:0.28800001;marker:none;visibility:visible;display:inline;overflow:visible;enable-background:accumulate" id="path90410" d="m 67.5,450 54,0 0,45 -99,0 m 0,0 c 1e-6,-24.85282 20.147188,-45 45.000001,-45"/>
    <rect  width="121.5" x="0" y="495" height="45" style="fill:url(#linearGradient90450);fill-opacity:1;fill-rule:evenodd;stroke:#000000;stroke-width:0.44999999;stroke-linecap:butt;stroke-linejoin:round;stroke-miterlimit:4;stroke-opacity:1;stroke-dasharray:none;stroke-dashoffset:0.28800001;display:inline" id="rect90420"/>
    <path  style="color:#000000;fill:url(#linearGradient90452);fill-opacity:1;fill-rule:evenodd;stroke:#000000;stroke-width:0.44999999;stroke-linecap:round;stroke-linejoin:round;stroke-miterlimit:4;stroke-opacity:1;stroke-dasharray:none;stroke-dashoffset:0.28800001;marker:none;visibility:visible;display:inline;overflow:visible;enable-background:accumulate" id="path90431" d="m 67.5,450 54,0 0,45 -99,0 m 0,0 c 1e-6,-24.85282 20.147188,-45 45.000001,-45"/>
   </g>
   <path  style="color:#000000;fill:url(#linearGradient90487);fill-opacity:1;fill-rule:evenodd;stroke:#000000;stroke-width:0.44999999;stroke-linecap:round;stroke-linejoin:round;stroke-miterlimit:4;stroke-opacity:1;stroke-dasharray:none;stroke-dashoffset:0.28800001;marker:none;visibility:visible;display:inline;overflow:visible;enable-background:accumulate" id="path90460" d="m 1017,393.75 0,22.5 54,0 4.5,-2.25 0,-18 -4.5,-2.25 -54,0 z m 40.5,4.5 c 3.7279,0 6.75,3.02208 6.75,6.75 0,3.72792 -3.0221,6.75 -6.75,6.75 -3.7279,0 -6.75,-3.02208 -6.75,-6.75 0,-3.72792 3.0221,-6.75 6.75,-6.75 z"/>
   <g  style="display:inline" id="g90507" transform="matrix(-1.2962963,0,0,1,166.5,-112.5)">
    <rect  width="121.5" x="0" y="495" height="45" style="fill:#333333;fill-opacity:1;fill-rule:evenodd;stroke:#000000;stroke-width:0.44999999;stroke-linecap:butt;stroke-linejoin:round;stroke-miterlimit:4;stroke-opacity:1;stroke-dasharray:none;stroke-dashoffset:0.28800001;display:inline" id="rect90509"/>
    <path  style="color:#000000;fill:#333333;fill-opacity:1;fill-rule:evenodd;stroke:#000000;stroke-width:0.44999999;stroke-linecap:round;stroke-linejoin:round;stroke-miterlimit:4;stroke-opacity:1;stroke-dasharray:none;stroke-dashoffset:0.28800001;marker:none;visibility:visible;display:inline;overflow:visible;enable-background:accumulate" id="path90511" d="m 67.5,450 54,0 0,45 -99,0 m 0,0 c 1e-6,-24.85282 20.147188,-45 45.000001,-45"/>
    <rect  width="121.5" x="0" y="495" height="45" style="fill:url(#linearGradient90517);fill-opacity:1;fill-rule:evenodd;stroke:#000000;stroke-width:0.44999999;stroke-linecap:butt;stroke-linejoin:round;stroke-miterlimit:4;stroke-opacity:1;stroke-dasharray:none;stroke-dashoffset:0.28800001;display:inline" id="rect90513"/>
    <path  style="color:#000000;fill:url(#linearGradient90519);fill-opacity:1;fill-rule:evenodd;stroke:#000000;stroke-width:0.44999999;stroke-linecap:round;stroke-linejoin:round;stroke-miterlimit:4;stroke-opacity:1;stroke-dasharray:none;stroke-dashoffset:0.28800001;marker:none;visibility:visible;display:inline;overflow:visible;enable-background:accumulate" id="path90515" d="m 67.5,450 54,0 0,45 -99,0 m 0,0 c 1e-6,-24.85282 20.147188,-45 45.000001,-45"/>
   </g>
   <path  style="fill:#1a1a1a;fill-opacity:0.74456518;fill-rule:evenodd;stroke:#000000;stroke-width:0.18000001;stroke-linecap:butt;stroke-linejoin:round;stroke-miterlimit:4;stroke-opacity:1;stroke-dasharray:none;stroke-dashoffset:0.28800001;display:inline" id="path90920" d="m 547.65,432 a 7.6500001,7.6500001 0 1 1 -15.3,0 7.6500001,7.6500001 0 1 1 15.3,0 z" transform="translate(-4.4999995,45)"/>
   <path  style="fill:#1a1a1a;fill-opacity:0.74456518;fill-rule:evenodd;stroke:#000000;stroke-width:0.18000001;stroke-linecap:butt;stroke-linejoin:round;stroke-miterlimit:4;stroke-opacity:1;stroke-dasharray:none;stroke-dashoffset:0.28800001;display:inline" id="path90922" d="m 547.65,432 a 7.6500001,7.6500001 0 1 1 -15.3,0 7.6500001,7.6500001 0 1 1 15.3,0 z" transform="translate(13.455,45)"/>
   <path  style="fill:#1a1a1a;fill-opacity:0.74456518;fill-rule:evenodd;stroke:#000000;stroke-width:0.18000001;stroke-linecap:butt;stroke-linejoin:round;stroke-miterlimit:4;stroke-opacity:1;stroke-dasharray:none;stroke-dashoffset:0.28800001;display:inline" id="path90924" d="m 547.65,432 a 7.6500001,7.6500001 0 1 1 -15.3,0 7.6500001,7.6500001 0 1 1 15.3,0 z" transform="translate(31.455,45)"/>
   <g  style="display:inline" id="g90365" transform="translate(175.5,45.00001)">
    <path  style="color:#000000;fill:#333333;fill-opacity:1;fill-rule:evenodd;stroke:#000000;stroke-width:0.0943928;stroke-linecap:round;stroke-linejoin:round;stroke-miterlimit:4;stroke-opacity:1;stroke-dasharray:none;stroke-dashoffset:0.28800001;marker:none;visibility:visible;display:inline;overflow:visible;enable-background:accumulate" id="path90178" d="m 180,327.59375 -9.03125,0.15625 0,17 c 0,0.9972 -0.8153,1.78125 -1.8125,1.78125 l -5.40625,0 c -0.9972,0 -1.78125,-0.78405 -1.78125,-1.78125 l 0,-16.8125 -8.96875,0.15625 0,16.59375 c 0,0.9972 -0.8153,1.8125 -1.8125,1.8125 l -5.375,0 C 144.8153,346.5 144,345.6847 144,344.6875 l 0,-16.4375 -9,0.15625 0,16.28125 c 0,0.9972 -0.8153,1.8125 -1.8125,1.8125 l -5.375,0 C 126.8153,346.5 126,345.6847 126,344.6875 l 0,-16.09375 -9,0.15625 0,15.9375 c 0,0.9972 -0.8153,1.8125 -1.8125,1.8125 l -5.375,0 C 108.8153,346.5 108,345.6847 108,344.6875 l 0,-15.78125 -9,0.15625 0,15.625 c 0,0.9972 -0.8153,1.8125 -1.8125,1.8125 l -5.375,0 C 90.8153,346.5 90,345.6847 90,344.6875 l 0,-15.4375 -9,0.15625 0,61.1875 9.03125,0.15625 0,-15.5 c 0,-0.0103 -1.74e-4,-0.021 0,-0.0312 0,-0.0101 -1.64e-4,-0.0212 0,-0.0312 0.004,-0.11798 0.03671,-0.23316 0.0625,-0.34375 0.01986,-0.0975 0.0589,-0.19024 0.09375,-0.28125 0.169852,-0.44357 0.506539,-0.77502 0.9375,-0.96875 0.225632,-0.10143 0.454492,-0.1875 0.71875,-0.1875 l 5.40625,0 c 0.768995,0 1.397471,0.48044 1.65625,1.15625 0.08909,0.21374 0.125,0.4382 0.125,0.6875 l 0,15.6875 9,0.15625 0,-15.84375 0,-0.0312 c 0,-0.0101 -1.6e-4,-0.0212 0,-0.0312 0.004,-0.11798 0.0367,-0.23316 0.0625,-0.34375 0.0199,-0.0975 0.0589,-0.19024 0.0937,-0.28125 0.16985,-0.44357 0.50654,-0.77502 0.9375,-0.96875 0.22563,-0.10143 0.45449,-0.1875 0.71875,-0.1875 l 5.40625,0 c 0.76899,0 1.39747,0.48044 1.65625,1.15625 0.0854,0.20489 0.12113,0.41834 0.125,0.65625 l 0,0.0312 0,16 9,0.15625 0,-16.15625 0,-0.0312 c 0,-0.0101 -1.6e-4,-0.0212 0,-0.0312 0.004,-0.11798 0.0367,-0.23316 0.0625,-0.34375 0.0199,-0.0975 0.0589,-0.19024 0.0937,-0.28125 0.16985,-0.44357 0.50654,-0.77502 0.9375,-0.96875 0.22563,-0.10143 0.45449,-0.1875 0.71875,-0.1875 l 5.40625,0 c 0.76899,0 1.39747,0.48044 1.65625,1.15625 0.0854,0.20489 0.12113,0.41834 0.125,0.65625 l 0,0.0312 0,16.34375 9,0.15625 0,-16.5 0,-0.0312 c 0,-0.0101 -1.6e-4,-0.0212 0,-0.0312 0.004,-0.11798 0.0367,-0.23316 0.0625,-0.34375 0.0198,-0.0975 0.0589,-0.19024 0.0937,-0.28125 0.16985,-0.44357 0.50654,-0.77502 0.9375,-0.96875 0.22563,-0.10143 0.45449,-0.1875 0.71875,-0.1875 l 5.40625,0 c 0.76899,0 1.39747,0.48044 1.65625,1.15625 0.0854,0.20489 0.12113,0.41834 0.125,0.65625 l 0,0.0312 0,16.65625 8.96875,0.15625 0,-16.75 c 0,-0.0206 -6.9e-4,-0.042 0,-0.0625 0,-0.11341 0.0114,-0.20501 0.0312,-0.3125 0.002,-0.009 -0.002,-0.0218 0,-0.0312 0.022,-0.10796 0.0847,-0.21261 0.125,-0.3125 0.004,-0.009 -0.004,-0.0221 0,-0.0312 0.27253,-0.64648 0.90835,-1.09375 1.65625,-1.09375 l 5.375,0 c 0.7479,0 1.38372,0.44727 1.65625,1.09375 0.0995,0.22396 0.15625,0.49012 0.15625,0.75 l 0,16.9375 9,0.15625 0,-64.8125 z"/>
    <path  style="color:#000000;fill:url(#linearGradient90394);fill-opacity:1;fill-rule:evenodd;stroke:#000000;stroke-width:0.0943928;stroke-linecap:round;stroke-linejoin:round;stroke-miterlimit:4;stroke-opacity:1;stroke-dasharray:none;stroke-dashoffset:0.28800001;marker:none;visibility:visible;display:inline;overflow:visible;enable-background:accumulate" id="path90317" d="m 180,327.59375 -9.03125,0.15625 0,17 c 0,0.9972 -0.8153,1.78125 -1.8125,1.78125 l -5.40625,0 c -0.9972,0 -1.78125,-0.78405 -1.78125,-1.78125 l 0,-16.8125 -8.96875,0.15625 0,16.59375 c 0,0.9972 -0.8153,1.8125 -1.8125,1.8125 l -5.375,0 C 144.8153,346.5 144,345.6847 144,344.6875 l 0,-16.4375 -9,0.15625 0,16.28125 c 0,0.9972 -0.8153,1.8125 -1.8125,1.8125 l -5.375,0 C 126.8153,346.5 126,345.6847 126,344.6875 l 0,-16.09375 -9,0.15625 0,15.9375 c 0,0.9972 -0.8153,1.8125 -1.8125,1.8125 l -5.375,0 C 108.8153,346.5 108,345.6847 108,344.6875 l 0,-15.78125 -9,0.15625 0,15.625 c 0,0.9972 -0.8153,1.8125 -1.8125,1.8125 l -5.375,0 C 90.8153,346.5 90,345.6847 90,344.6875 l 0,-15.4375 -9,0.15625 0,61.1875 9.03125,0.15625 0,-15.5 c 0,-0.0103 -1.74e-4,-0.021 0,-0.0312 0,-0.0101 -1.64e-4,-0.0212 0,-0.0312 0.004,-0.11798 0.03671,-0.23316 0.0625,-0.34375 0.01986,-0.0975 0.0589,-0.19024 0.09375,-0.28125 0.169852,-0.44357 0.506539,-0.77502 0.9375,-0.96875 0.225632,-0.10143 0.454492,-0.1875 0.71875,-0.1875 l 5.40625,0 c 0.768995,0 1.397471,0.48044 1.65625,1.15625 0.08909,0.21374 0.125,0.4382 0.125,0.6875 l 0,15.6875 9,0.15625 0,-15.84375 0,-0.0312 c 0,-0.0101 -1.6e-4,-0.0212 0,-0.0312 0.004,-0.11798 0.0367,-0.23316 0.0625,-0.34375 0.0199,-0.0975 0.0589,-0.19024 0.0937,-0.28125 0.16985,-0.44357 0.50654,-0.77502 0.9375,-0.96875 0.22563,-0.10143 0.45449,-0.1875 0.71875,-0.1875 l 5.40625,0 c 0.76899,0 1.39747,0.48044 1.65625,1.15625 0.0854,0.20489 0.12113,0.41834 0.125,0.65625 l 0,0.0312 0,16 9,0.15625 0,-16.15625 0,-0.0312 c 0,-0.0101 -1.6e-4,-0.0212 0,-0.0312 0.004,-0.11798 0.0367,-0.23316 0.0625,-0.34375 0.0199,-0.0975 0.0589,-0.19024 0.0937,-0.28125 0.16985,-0.44357 0.50654,-0.77502 0.9375,-0.96875 0.22563,-0.10143 0.45449,-0.1875 0.71875,-0.1875 l 5.40625,0 c 0.76899,0 1.39747,0.48044 1.65625,1.15625 0.0854,0.20489 0.12113,0.41834 0.125,0.65625 l 0,0.0312 0,16.34375 9,0.15625 0,-16.5 0,-0.0312 c 0,-0.0101 -1.6e-4,-0.0212 0,-0.0312 0.004,-0.11798 0.0367,-0.23316 0.0625,-0.34375 0.0198,-0.0975 0.0589,-0.19024 0.0937,-0.28125 0.16985,-0.44357 0.50654,-0.77502 0.9375,-0.96875 0.22563,-0.10143 0.45449,-0.1875 0.71875,-0.1875 l 5.40625,0 c 0.76899,0 1.39747,0.48044 1.65625,1.15625 0.0854,0.20489 0.12113,0.41834 0.125,0.65625 l 0,0.0312 0,16.65625 8.96875,0.15625 0,-16.75 c 0,-0.0206 -6.9e-4,-0.042 0,-0.0625 0,-0.11341 0.0114,-0.20501 0.0312,-0.3125 0.002,-0.009 -0.002,-0.0218 0,-0.0312 0.022,-0.10796 0.0847,-0.21261 0.125,-0.3125 0.004,-0.009 -0.004,-0.0221 0,-0.0312 0.27253,-0.64648 0.90835,-1.09375 1.65625,-1.09375 l 5.375,0 c 0.7479,0 1.38372,0.44727 1.65625,1.09375 0.0995,0.22396 0.15625,0.49012 0.15625,0.75 l 0,16.9375 9,0.15625 0,-64.8125 z"/>
    <path  style="color:#000000;fill:url(#linearGradient90396);fill-opacity:1;fill-rule:evenodd;stroke:#000000;stroke-width:0.0943928;stroke-linecap:round;stroke-linejoin:round;stroke-miterlimit:4;stroke-opacity:1;stroke-dasharray:none;stroke-dashoffset:0.28800001;marker:none;visibility:visible;display:inline;overflow:visible;enable-background:accumulate" id="path90360" d="m 180,327.59375 -9.03125,0.15625 0,17 c 0,0.9972 -0.8153,1.78125 -1.8125,1.78125 l -5.40625,0 c -0.9972,0 -1.78125,-0.78405 -1.78125,-1.78125 l 0,-16.8125 -8.96875,0.15625 0,16.59375 c 0,0.9972 -0.8153,1.8125 -1.8125,1.8125 l -5.375,0 C 144.8153,346.5 144,345.6847 144,344.6875 l 0,-16.4375 -9,0.15625 0,16.28125 c 0,0.9972 -0.8153,1.8125 -1.8125,1.8125 l -5.375,0 C 126.8153,346.5 126,345.6847 126,344.6875 l 0,-16.09375 -9,0.15625 0,15.9375 c 0,0.9972 -0.8153,1.8125 -1.8125,1.8125 l -5.375,0 C 108.8153,346.5 108,345.6847 108,344.6875 l 0,-15.78125 -9,0.15625 0,15.625 c 0,0.9972 -0.8153,1.8125 -1.8125,1.8125 l -5.375,0 C 90.8153,346.5 90,345.6847 90,344.6875 l 0,-15.4375 -9,0.15625 0,61.1875 9.03125,0.15625 0,-15.5 c 0,-0.0103 -1.74e-4,-0.021 0,-0.0312 0,-0.0101 -1.64e-4,-0.0212 0,-0.0312 0.004,-0.11798 0.03671,-0.23316 0.0625,-0.34375 0.01986,-0.0975 0.0589,-0.19024 0.09375,-0.28125 0.169852,-0.44357 0.506539,-0.77502 0.9375,-0.96875 0.225632,-0.10143 0.454492,-0.1875 0.71875,-0.1875 l 5.40625,0 c 0.768995,0 1.397471,0.48044 1.65625,1.15625 0.08909,0.21374 0.125,0.4382 0.125,0.6875 l 0,15.6875 9,0.15625 0,-15.84375 0,-0.0312 c 0,-0.0101 -1.6e-4,-0.0212 0,-0.0312 0.004,-0.11798 0.0367,-0.23316 0.0625,-0.34375 0.0199,-0.0975 0.0589,-0.19024 0.0937,-0.28125 0.16985,-0.44357 0.50654,-0.77502 0.9375,-0.96875 0.22563,-0.10143 0.45449,-0.1875 0.71875,-0.1875 l 5.40625,0 c 0.76899,0 1.39747,0.48044 1.65625,1.15625 0.0854,0.20489 0.12113,0.41834 0.125,0.65625 l 0,0.0312 0,16 9,0.15625 0,-16.15625 0,-0.0312 c 0,-0.0101 -1.6e-4,-0.0212 0,-0.0312 0.004,-0.11798 0.0367,-0.23316 0.0625,-0.34375 0.0199,-0.0975 0.0589,-0.19024 0.0937,-0.28125 0.16985,-0.44357 0.50654,-0.77502 0.9375,-0.96875 0.22563,-0.10143 0.45449,-0.1875 0.71875,-0.1875 l 5.40625,0 c 0.76899,0 1.39747,0.48044 1.65625,1.15625 0.0854,0.20489 0.12113,0.41834 0.125,0.65625 l 0,0.0312 0,16.34375 9,0.15625 0,-16.5 0,-0.0312 c 0,-0.0101 -1.6e-4,-0.0212 0,-0.0312 0.004,-0.11798 0.0367,-0.23316 0.0625,-0.34375 0.0198,-0.0975 0.0589,-0.19024 0.0937,-0.28125 0.16985,-0.44357 0.50654,-0.77502 0.9375,-0.96875 0.22563,-0.10143 0.45449,-0.1875 0.71875,-0.1875 l 5.40625,0 c 0.76899,0 1.39747,0.48044 1.65625,1.15625 0.0854,0.20489 0.12113,0.41834 0.125,0.65625 l 0,0.0312 0,16.65625 8.96875,0.15625 0,-16.75 c 0,-0.0206 -6.9e-4,-0.042 0,-0.0625 0,-0.11341 0.0114,-0.20501 0.0312,-0.3125 0.002,-0.009 -0.002,-0.0218 0,-0.0312 0.022,-0.10796 0.0847,-0.21261 0.125,-0.3125 0.004,-0.009 -0.004,-0.0221 0,-0.0312 0.27253,-0.64648 0.90835,-1.09375 1.65625,-1.09375 l 5.375,0 c 0.7479,0 1.38372,0.44727 1.65625,1.09375 0.0995,0.22396 0.15625,0.49012 0.15625,0.75 l 0,16.9375 9,0.15625 0,-64.8125 z"/>
   </g>
   <g  style="display:inline" id="g90370" transform="matrix(-1,0,0,-1,895.4725,765.00036)">
    <path  style="color:#000000;fill:#333333;fill-opacity:1;fill-rule:evenodd;stroke:#000000;stroke-width:0.0943928;stroke-linecap:round;stroke-linejoin:round;stroke-miterlimit:4;stroke-opacity:1;stroke-dasharray:none;stroke-dashoffset:0.28800001;marker:none;visibility:visible;display:inline;overflow:visible;enable-background:accumulate" id="path90372" d="m 180,327.59375 -9.03125,0.15625 0,17 c 0,0.9972 -0.8153,1.78125 -1.8125,1.78125 l -5.40625,0 c -0.9972,0 -1.78125,-0.78405 -1.78125,-1.78125 l 0,-16.8125 -8.96875,0.15625 0,16.59375 c 0,0.9972 -0.8153,1.8125 -1.8125,1.8125 l -5.375,0 C 144.8153,346.5 144,345.6847 144,344.6875 l 0,-16.4375 -9,0.15625 0,16.28125 c 0,0.9972 -0.8153,1.8125 -1.8125,1.8125 l -5.375,0 C 126.8153,346.5 126,345.6847 126,344.6875 l 0,-16.09375 -9,0.15625 0,15.9375 c 0,0.9972 -0.8153,1.8125 -1.8125,1.8125 l -5.375,0 C 108.8153,346.5 108,345.6847 108,344.6875 l 0,-15.78125 -9,0.15625 0,15.625 c 0,0.9972 -0.8153,1.8125 -1.8125,1.8125 l -5.375,0 C 90.8153,346.5 90,345.6847 90,344.6875 l 0,-15.4375 -9,0.15625 0,61.1875 9.03125,0.15625 0,-15.5 c 0,-0.0103 -1.74e-4,-0.021 0,-0.0312 0,-0.0101 -1.64e-4,-0.0212 0,-0.0312 0.004,-0.11798 0.03671,-0.23316 0.0625,-0.34375 0.01986,-0.0975 0.0589,-0.19024 0.09375,-0.28125 0.169852,-0.44357 0.506539,-0.77502 0.9375,-0.96875 0.225632,-0.10143 0.454492,-0.1875 0.71875,-0.1875 l 5.40625,0 c 0.768995,0 1.397471,0.48044 1.65625,1.15625 0.08909,0.21374 0.125,0.4382 0.125,0.6875 l 0,15.6875 9,0.15625 0,-15.84375 0,-0.0312 c 0,-0.0101 -1.6e-4,-0.0212 0,-0.0312 0.004,-0.11798 0.0367,-0.23316 0.0625,-0.34375 0.0199,-0.0975 0.0589,-0.19024 0.0937,-0.28125 0.16985,-0.44357 0.50654,-0.77502 0.9375,-0.96875 0.22563,-0.10143 0.45449,-0.1875 0.71875,-0.1875 l 5.40625,0 c 0.76899,0 1.39747,0.48044 1.65625,1.15625 0.0854,0.20489 0.12113,0.41834 0.125,0.65625 l 0,0.0312 0,16 9,0.15625 0,-16.15625 0,-0.0312 c 0,-0.0101 -1.6e-4,-0.0212 0,-0.0312 0.004,-0.11798 0.0367,-0.23316 0.0625,-0.34375 0.0199,-0.0975 0.0589,-0.19024 0.0937,-0.28125 0.16985,-0.44357 0.50654,-0.77502 0.9375,-0.96875 0.22563,-0.10143 0.45449,-0.1875 0.71875,-0.1875 l 5.40625,0 c 0.76899,0 1.39747,0.48044 1.65625,1.15625 0.0854,0.20489 0.12113,0.41834 0.125,0.65625 l 0,0.0312 0,16.34375 9,0.15625 0,-16.5 0,-0.0312 c 0,-0.0101 -1.6e-4,-0.0212 0,-0.0312 0.004,-0.11798 0.0367,-0.23316 0.0625,-0.34375 0.0198,-0.0975 0.0589,-0.19024 0.0937,-0.28125 0.16985,-0.44357 0.50654,-0.77502 0.9375,-0.96875 0.22563,-0.10143 0.45449,-0.1875 0.71875,-0.1875 l 5.40625,0 c 0.76899,0 1.39747,0.48044 1.65625,1.15625 0.0854,0.20489 0.12113,0.41834 0.125,0.65625 l 0,0.0312 0,16.65625 8.96875,0.15625 0,-16.75 c 0,-0.0206 -6.9e-4,-0.042 0,-0.0625 0,-0.11341 0.0114,-0.20501 0.0312,-0.3125 0.002,-0.009 -0.002,-0.0218 0,-0.0312 0.022,-0.10796 0.0847,-0.21261 0.125,-0.3125 0.004,-0.009 -0.004,-0.0221 0,-0.0312 0.27253,-0.64648 0.90835,-1.09375 1.65625,-1.09375 l 5.375,0 c 0.7479,0 1.38372,0.44727 1.65625,1.09375 0.0995,0.22396 0.15625,0.49012 0.15625,0.75 l 0,16.9375 9,0.15625 0,-64.8125 z"/>
    <path  style="color:#000000;fill:url(#linearGradient90378);fill-opacity:1;fill-rule:evenodd;stroke:#000000;stroke-width:0.0943928;stroke-linecap:round;stroke-linejoin:round;stroke-miterlimit:4;stroke-opacity:1;stroke-dasharray:none;stroke-dashoffset:0.28800001;marker:none;visibility:visible;display:inline;overflow:visible;enable-background:accumulate" id="path90374" d="m 180,327.59375 -9.03125,0.15625 0,17 c 0,0.9972 -0.8153,1.78125 -1.8125,1.78125 l -5.40625,0 c -0.9972,0 -1.78125,-0.78405 -1.78125,-1.78125 l 0,-16.8125 -8.96875,0.15625 0,16.59375 c 0,0.9972 -0.8153,1.8125 -1.8125,1.8125 l -5.375,0 C 144.8153,346.5 144,345.6847 144,344.6875 l 0,-16.4375 -9,0.15625 0,16.28125 c 0,0.9972 -0.8153,1.8125 -1.8125,1.8125 l -5.375,0 C 126.8153,346.5 126,345.6847 126,344.6875 l 0,-16.09375 -9,0.15625 0,15.9375 c 0,0.9972 -0.8153,1.8125 -1.8125,1.8125 l -5.375,0 C 108.8153,346.5 108,345.6847 108,344.6875 l 0,-15.78125 -9,0.15625 0,15.625 c 0,0.9972 -0.8153,1.8125 -1.8125,1.8125 l -5.375,0 C 90.8153,346.5 90,345.6847 90,344.6875 l 0,-15.4375 -9,0.15625 0,61.1875 9.03125,0.15625 0,-15.5 c 0,-0.0103 -1.74e-4,-0.021 0,-0.0312 0,-0.0101 -1.64e-4,-0.0212 0,-0.0312 0.004,-0.11798 0.03671,-0.23316 0.0625,-0.34375 0.01986,-0.0975 0.0589,-0.19024 0.09375,-0.28125 0.169852,-0.44357 0.506539,-0.77502 0.9375,-0.96875 0.225632,-0.10143 0.454492,-0.1875 0.71875,-0.1875 l 5.40625,0 c 0.768995,0 1.397471,0.48044 1.65625,1.15625 0.08909,0.21374 0.125,0.4382 0.125,0.6875 l 0,15.6875 9,0.15625 0,-15.84375 0,-0.0312 c 0,-0.0101 -1.6e-4,-0.0212 0,-0.0312 0.004,-0.11798 0.0367,-0.23316 0.0625,-0.34375 0.0199,-0.0975 0.0589,-0.19024 0.0937,-0.28125 0.16985,-0.44357 0.50654,-0.77502 0.9375,-0.96875 0.22563,-0.10143 0.45449,-0.1875 0.71875,-0.1875 l 5.40625,0 c 0.76899,0 1.39747,0.48044 1.65625,1.15625 0.0854,0.20489 0.12113,0.41834 0.125,0.65625 l 0,0.0312 0,16 9,0.15625 0,-16.15625 0,-0.0312 c 0,-0.0101 -1.6e-4,-0.0212 0,-0.0312 0.004,-0.11798 0.0367,-0.23316 0.0625,-0.34375 0.0199,-0.0975 0.0589,-0.19024 0.0937,-0.28125 0.16985,-0.44357 0.50654,-0.77502 0.9375,-0.96875 0.22563,-0.10143 0.45449,-0.1875 0.71875,-0.1875 l 5.40625,0 c 0.76899,0 1.39747,0.48044 1.65625,1.15625 0.0854,0.20489 0.12113,0.41834 0.125,0.65625 l 0,0.0312 0,16.34375 9,0.15625 0,-16.5 0,-0.0312 c 0,-0.0101 -1.6e-4,-0.0212 0,-0.0312 0.004,-0.11798 0.0367,-0.23316 0.0625,-0.34375 0.0198,-0.0975 0.0589,-0.19024 0.0937,-0.28125 0.16985,-0.44357 0.50654,-0.77502 0.9375,-0.96875 0.22563,-0.10143 0.45449,-0.1875 0.71875,-0.1875 l 5.40625,0 c 0.76899,0 1.39747,0.48044 1.65625,1.15625 0.0854,0.20489 0.12113,0.41834 0.125,0.65625 l 0,0.0312 0,16.65625 8.96875,0.15625 0,-16.75 c 0,-0.0206 -6.9e-4,-0.042 0,-0.0625 0,-0.11341 0.0114,-0.20501 0.0312,-0.3125 0.002,-0.009 -0.002,-0.0218 0,-0.0312 0.022,-0.10796 0.0847,-0.21261 0.125,-0.3125 0.004,-0.009 -0.004,-0.0221 0,-0.0312 0.27253,-0.64648 0.90835,-1.09375 1.65625,-1.09375 l 5.375,0 c 0.7479,0 1.38372,0.44727 1.65625,1.09375 0.0995,0.22396 0.15625,0.49012 0.15625,0.75 l 0,16.9375 9,0.15625 0,-64.8125 z"/>
    <path  style="color:#000000;fill:url(#linearGradient90380);fill-opacity:1;fill-rule:evenodd;stroke:#000000;stroke-width:0.0943928;stroke-linecap:round;stroke-linejoin:round;stroke-miterlimit:4;stroke-opacity:1;stroke-dasharray:none;stroke-dashoffset:0.28800001;marker:none;visibility:visible;display:inline;overflow:visible;enable-background:accumulate" id="path90376" d="m 180,327.59375 -9.03125,0.15625 0,17 c 0,0.9972 -0.8153,1.78125 -1.8125,1.78125 l -5.40625,0 c -0.9972,0 -1.78125,-0.78405 -1.78125,-1.78125 l 0,-16.8125 -8.96875,0.15625 0,16.59375 c 0,0.9972 -0.8153,1.8125 -1.8125,1.8125 l -5.375,0 C 144.8153,346.5 144,345.6847 144,344.6875 l 0,-16.4375 -9,0.15625 0,16.28125 c 0,0.9972 -0.8153,1.8125 -1.8125,1.8125 l -5.375,0 C 126.8153,346.5 126,345.6847 126,344.6875 l 0,-16.09375 -9,0.15625 0,15.9375 c 0,0.9972 -0.8153,1.8125 -1.8125,1.8125 l -5.375,0 C 108.8153,346.5 108,345.6847 108,344.6875 l 0,-15.78125 -9,0.15625 0,15.625 c 0,0.9972 -0.8153,1.8125 -1.8125,1.8125 l -5.375,0 C 90.8153,346.5 90,345.6847 90,344.6875 l 0,-15.4375 -9,0.15625 0,61.1875 9.03125,0.15625 0,-15.5 c 0,-0.0103 -1.74e-4,-0.021 0,-0.0312 0,-0.0101 -1.64e-4,-0.0212 0,-0.0312 0.004,-0.11798 0.03671,-0.23316 0.0625,-0.34375 0.01986,-0.0975 0.0589,-0.19024 0.09375,-0.28125 0.169852,-0.44357 0.506539,-0.77502 0.9375,-0.96875 0.225632,-0.10143 0.454492,-0.1875 0.71875,-0.1875 l 5.40625,0 c 0.768995,0 1.397471,0.48044 1.65625,1.15625 0.08909,0.21374 0.125,0.4382 0.125,0.6875 l 0,15.6875 9,0.15625 0,-15.84375 0,-0.0312 c 0,-0.0101 -1.6e-4,-0.0212 0,-0.0312 0.004,-0.11798 0.0367,-0.23316 0.0625,-0.34375 0.0199,-0.0975 0.0589,-0.19024 0.0937,-0.28125 0.16985,-0.44357 0.50654,-0.77502 0.9375,-0.96875 0.22563,-0.10143 0.45449,-0.1875 0.71875,-0.1875 l 5.40625,0 c 0.76899,0 1.39747,0.48044 1.65625,1.15625 0.0854,0.20489 0.12113,0.41834 0.125,0.65625 l 0,0.0312 0,16 9,0.15625 0,-16.15625 0,-0.0312 c 0,-0.0101 -1.6e-4,-0.0212 0,-0.0312 0.004,-0.11798 0.0367,-0.23316 0.0625,-0.34375 0.0199,-0.0975 0.0589,-0.19024 0.0937,-0.28125 0.16985,-0.44357 0.50654,-0.77502 0.9375,-0.96875 0.22563,-0.10143 0.45449,-0.1875 0.71875,-0.1875 l 5.40625,0 c 0.76899,0 1.39747,0.48044 1.65625,1.15625 0.0854,0.20489 0.12113,0.41834 0.125,0.65625 l 0,0.0312 0,16.34375 9,0.15625 0,-16.5 0,-0.0312 c 0,-0.0101 -1.6e-4,-0.0212 0,-0.0312 0.004,-0.11798 0.0367,-0.23316 0.0625,-0.34375 0.0198,-0.0975 0.0589,-0.19024 0.0937,-0.28125 0.16985,-0.44357 0.50654,-0.77502 0.9375,-0.96875 0.22563,-0.10143 0.45449,-0.1875 0.71875,-0.1875 l 5.40625,0 c 0.76899,0 1.39747,0.48044 1.65625,1.15625 0.0854,0.20489 0.12113,0.41834 0.125,0.65625 l 0,0.0312 0,16.65625 8.96875,0.15625 0,-16.75 c 0,-0.0206 -6.9e-4,-0.042 0,-0.0625 0,-0.11341 0.0114,-0.20501 0.0312,-0.3125 0.002,-0.009 -0.002,-0.0218 0,-0.0312 0.022,-0.10796 0.0847,-0.21261 0.125,-0.3125 0.004,-0.009 -0.004,-0.0221 0,-0.0312 0.27253,-0.64648 0.90835,-1.09375 1.65625,-1.09375 l 5.375,0 c 0.7479,0 1.38372,0.44727 1.65625,1.09375 0.0995,0.22396 0.15625,0.49012 0.15625,0.75 l 0,16.9375 9,0.15625 0,-64.8125 z"/>
   </g>
   <g  style="display:inline" id="g90874" transform="matrix(1.5,0,0,1.5,-274.5,-171.03544)">
    <path  style="fill:#d7d7d7;fill-opacity:1;fill-rule:evenodd;stroke:#000000;stroke-width:0.28346458;stroke-miterlimit:4;stroke-opacity:1;stroke-dasharray:none" id="path3763" d="m 31.889764,1013.3858 a 7.0866141,7.0866141 0 1 1 -14.173228,0 7.0866141,7.0866141 0 1 1 14.173228,0 z" transform="matrix(-0.625,0,0,-0.625,555.50197,1065.437)"/>
    <g  id="g3870" transform="matrix(-0.46679022,-0.17918397,0.17918397,-0.46679022,369.67792,910.38072)">
     <path  style="fill:none;stroke:#575757;stroke-width:2.16982603;stroke-linecap:round;stroke-linejoin:miter;stroke-miterlimit:4;stroke-opacity:1;stroke-dasharray:none" id="path3844" d="m 24.80315,1009.8425 0,10.6299"/>
     <path  style="fill:none;stroke:#575757;stroke-width:2.16982365;stroke-linecap:round;stroke-linejoin:miter;stroke-miterlimit:4;stroke-opacity:1;stroke-dasharray:none" id="path3848" d="m 19.488189,1015.1575 10.629921,0"/>
    </g>
   </g>
   <g  style="display:inline" id="g90881" transform="matrix(0.794879,-1.2720721,1.2720721,0.794879,-425.33338,820.54582)">
    <path  style="fill:#d7d7d7;fill-opacity:1;fill-rule:evenodd;stroke:#000000;stroke-width:0.28346458;stroke-miterlimit:4;stroke-opacity:1;stroke-dasharray:none" id="path90883" d="m 31.889764,1013.3858 a 7.0866141,7.0866141 0 1 1 -14.173228,0 7.0866141,7.0866141 0 1 1 14.173228,0 z" transform="matrix(-0.625,0,0,-0.625,555.50197,1065.437)"/>
    <g  id="g90885" transform="matrix(-0.46679022,-0.17918397,0.17918397,-0.46679022,369.67792,910.38072)">
     <path  style="fill:none;stroke:#575757;stroke-width:2.16982603;stroke-linecap:round;stroke-linejoin:miter;stroke-miterlimit:4;stroke-opacity:1;stroke-dasharray:none" id="path90887" d="m 24.80315,1009.8425 0,10.6299"/>
     <path  style="fill:none;stroke:#575757;stroke-width:2.16982365;stroke-linecap:round;stroke-linejoin:miter;stroke-miterlimit:4;stroke-opacity:1;stroke-dasharray:none" id="path90889" d="m 19.488189,1015.1575 10.629921,0"/>
    </g>
   </g>
   <g  style="display:inline" id="g90891" transform="matrix(1.4554436,-0.36288284,0.36288284,1.4554436,-371.20408,44.17282)">
    <path  style="fill:#d7d7d7;fill-opacity:1;fill-rule:evenodd;stroke:#000000;stroke-width:0.28346458;stroke-miterlimit:4;stroke-opacity:1;stroke-dasharray:none" id="path90893" d="m 31.889764,1013.3858 a 7.0866141,7.0866141 0 1 1 -14.173228,0 7.0866141,7.0866141 0 1 1 14.173228,0 z" transform="matrix(-0.625,0,0,-0.625,555.50197,1065.437)"/>
    <g  id="g90895" transform="matrix(-0.46679022,-0.17918397,0.17918397,-0.46679022,369.67792,910.38072)">
     <path  style="fill:none;stroke:#575757;stroke-width:2.16982603;stroke-linecap:round;stroke-linejoin:miter;stroke-miterlimit:4;stroke-opacity:1;stroke-dasharray:none" id="path90897" d="m 24.80315,1009.8425 0,10.6299"/>
     <path  style="fill:none;stroke:#575757;stroke-width:2.16982365;stroke-linecap:round;stroke-linejoin:miter;stroke-miterlimit:4;stroke-opacity:1;stroke-dasharray:none" id="path90899" d="m 19.488189,1015.1575 10.629921,0"/>
    </g>
   </g>
   <g style="font-size:6px;font-style:normal;font-variant:normal;font-weight:normal;font-stretch:normal;text-align:end;line-height:125%;letter-spacing:0px;word-spacing:0px;text-anchor:end;fill:#ffffff;fill-opacity:0.40217393;stroke:none;display:inline;font-family:OCRA;-inkscape-font-specification:OCRA" id="text90942" xml:space="preserve">
    <text x="535.5" y="492.75" style="font-size:8px;font-style:normal;font-variant:normal;font-weight:normal;font-stretch:normal;text-align:center;text-anchor:middle;fill:#ffffff;fill-opacity:0.40217393;font-family:Droid Sans;-inkscape-font-specification:Droid Sans" id="tspan90944">1</text>
   </g>
   <g style="font-size:6px;font-style:normal;font-variant:normal;font-weight:normal;font-stretch:normal;text-align:end;line-height:125%;letter-spacing:0px;word-spacing:0px;text-anchor:end;fill:#ffffff;fill-opacity:0.40217393;stroke:none;display:inline;font-family:OCRA;-inkscape-font-specification:OCRA" id="text90946" xml:space="preserve">
    <text x="553.47778" y="492.75" style="font-size:8px;font-style:normal;font-variant:normal;font-weight:normal;font-stretch:normal;text-align:center;text-anchor:middle;fill:#ffffff;fill-opacity:0.40217393;font-family:Droid Sans;-inkscape-font-specification:Droid Sans" id="tspan90948">2</text>
   </g>
   <g style="font-size:6px;font-style:normal;font-variant:normal;font-weight:normal;font-stretch:normal;text-align:end;line-height:125%;letter-spacing:0px;word-spacing:0px;text-anchor:end;fill:#ffffff;fill-opacity:0.40217393;stroke:none;display:inline;font-family:OCRA;-inkscape-font-specification:OCRA" id="text90950" xml:space="preserve">
    <text x="571.47778" y="492.75" style="font-size:8px;font-style:normal;font-variant:normal;font-weight:normal;font-stretch:normal;text-align:center;text-anchor:middle;fill:#ffffff;fill-opacity:0.40217393;font-family:Droid Sans;-inkscape-font-specification:Droid Sans" id="tspan90952">3</text>
   </g>
   <rect  width="184.5" x="443.25" y="348.75" rx="13.5" height="94.5" style="fill:#1a1a1a;stroke:none;display:inline" id="rect90966"/>
   <rect  width="180" x="445.5" y="351" rx="13.5" height="90" style="fill:#cccccc;stroke:none;display:inline" id="rect90961"/>
   <path  style="fill:#4d4d4d;stroke:none;display:inline" id="rect90969" d="m 445.5,423 0,4.5 c 0,7.479 6.021,13.5 13.5,13.5 l 153,0 c 7.479,0 13.5,-6.021 13.5,-13.5 l 0,-4.5 -180,0 z"/>
   <g style="font-size:6px;font-style:normal;font-variant:normal;font-weight:normal;font-stretch:normal;text-align:end;line-height:125%;letter-spacing:0px;word-spacing:0px;text-anchor:end;fill:#000000;fill-opacity:1;stroke:none;font-family:OCRA;-inkscape-font-specification:OCRA" id="text90975" xml:space="preserve">
    <text x="607.8913" y="436.48724" style="font-size:12px;font-style:normal;font-variant:normal;font-weight:normal;font-stretch:normal;line-height:125%;fill:#e6e6e6;font-family:Droid Sans;-inkscape-font-specification:Droid Sans" id="tspan90977">1: +in    2: -in     3: Ground</text>
   </g>
   <g style="font-size:6px;font-style:normal;font-variant:normal;font-weight:normal;font-stretch:normal;text-align:end;line-height:125%;letter-spacing:0px;word-spacing:0px;text-anchor:end;fill:#4d4d4d;fill-opacity:1;stroke:none;font-family:Droid Sans;-inkscape-font-specification:Droid Sans" id="text90979" xml:space="preserve">
    <text x="616.5" y="396" style="font-size:20px;font-weight:bold;fill:#4d4d4d;-inkscape-font-specification:Droid Sans Bold" id="tspan90981">PowerSwitch Tail</text>
   </g>
  </g>
 </g>
</svg>
