<?xml version='1.0' encoding='UTF-8' standalone='no'?>
<!-- Created with Fritzing (http://www.fritzing.org/) -->
<svg xmlns="http://www.w3.org/2000/svg"  x="0in" width="0.8in" height="0.8in" viewBox="0 0 57.6 57.6" id="svg2" version="1.2" gorn="0" y="0in">
    <desc>
        <referenceFile>Adafruit_LIS3DH_breadboard.svg</referenceFile>
    </desc>
    <metadata  id="metadata616"/>
    <defs  id="defs614"/>
    <desc  id="desc4">Fritzing breadboard generated by brd2svg</desc>
    <path  style="fill:#014cb1;stroke:none;stroke-width:0" id="path8" gorn="0.3" d="M 0,7.2 A 7.2,7.2 0 0 1 7.2,0 l 43.2,0 a 7.2,7.2 0 0 1 7.2,7.2 l 0,43.2 a 7.2,7.2 0 0 1 -7.2,7.2 l -43.2,0 A 7.2,7.2 0 0 1 0,50.4 L 0,7.2 m 23.7827,7.2 a 1.417325,1.417325 0 0 0 2.83465,0 1.417325,1.417325 0 1 0 -2.83465,0 z m 7.2,0 a 1.417325,1.417325 0 0 0 2.83465,0 1.417325,1.417325 0 1 0 -2.83465,0 z m 7.2,0 a 1.417325,1.417325 0 1 0 2.83465,0 1.417325,1.417325 0 1 0 -2.83465,0 z m -36.00002,36 a 1.417325,1.417325 0 0 0 2.83465,0 1.417325,1.417325 0 1 0 -2.83465,0 z m 7.2,0 a 1.417325,1.417325 0 0 0 2.83465,0 1.417325,1.417325 0 1 0 -2.83465,0 z m 7.20002,0 a 1.417325,1.417325 0 0 0 2.83465,0 1.417325,1.417325 0 1 0 -2.83465,0 z m 7.2,0 a 1.417325,1.417325 0 0 0 2.83465,0 1.417325,1.417325 0 1 0 -2.83465,0 z m 7.2,0 a 1.417325,1.417325 0 1 0 2.83465,0 1.417325,1.417325 0 1 0 -2.83465,0 z m 7.2,0 a 1.417325,1.417325 0 1 0 2.83465,0 1.417325,1.417325 0 1 0 -2.83465,0 z m 7.2,0 a 1.417325,1.417325 0 1 0 2.83465,0 1.417325,1.417325 0 1 0 -2.83465,0 z m 7.2,0 a 1.417325,1.417325 0 1 0 2.83465,0 1.417325,1.417325 0 1 0 -2.83465,0 z M 3.65669,7.2 a 3.54331,3.54331 0 1 0 7.08661,0 3.54331,3.54331 0 1 0 -7.08661,0 z m 43.20001,0 a 3.54331,3.54331 0 1 0 7.08661,0 3.54331,3.54331 0 1 0 -7.08661,0 z"/>
    <path  style="fill:none;stroke:#ffffff;stroke-width:0.72000003" id="path14" gorn="0.4" d="m 13.3087,12.5972 a 3.24,3.24 0 0 0 -3.24,3.24"/>
    <path  style="fill:none;stroke:#ffffff;stroke-width:0.72000003" id="path16" gorn="0.5" d="m 16.5487,15.8372 a 3.24,3.24 0 0 0 -3.24,-3.24"/>
    <path  style="fill:none;stroke:#ffffff;stroke-width:0.72000003" id="path18" gorn="0.6" d="m 13.3087,19.0772 a 3.24,3.24 0 0 0 3.24,-3.24"/>
    <path  style="fill:none;stroke:#ffffff;stroke-width:0.72000003" id="path20" gorn="0.7" d="m 10.0687,15.8372 a 3.1849,3.1849 0 0 0 3.24,3.24"/>
    <g  id="g22" gorn="0.8">
        <title  id="title24">polygon</title>
        <path  style="fill:none;stroke:#ffffff;stroke-width:0.72000003;stroke-linecap:round" id="path26" gorn="0.8.1" d="m 9.7087,15.4772 0,0.72 -1.8,0 0,0.72 -1.44004,-1.08 1.44004,-1.08 0,0.72 1.8,0 m -2.27628,1.0828 0.47628,0 -0.47628,0 m -0.95997,-0.72 3.23625,0 -3.23625,0"/>
    </g>
    <g  id="g28" gorn="0.9">
        <title  id="title30">polygon</title>
        <path  style="fill:none;stroke:#ffffff;stroke-width:0.72000003;stroke-linecap:round" id="path32" gorn="0.9.1" d="m 12.9713,19.4428 0.72,0 0,1.8 0.72,0 -1.08,1.44 -1.08,-1.44 0.72,0 0,-1.8 m 0.0879,2.8772 0.5443,0 -0.5443,0 m -0.54,-0.72 1.6243,0 -1.6243,0 m 0.4521,-0.72 0.72,0 -0.72,0"/>
    </g>
    <g  id="g34" gorn="0.10">
        <title  id="title36">text:INT</title>
        <text  x="50.759998" style="font-size:3.34080005px;font-family:OCRA;text-anchor:start;fill:#ffffff;stroke:none;stroke-width:0" id="text38" gorn="0.10.1" y="47.16" font-size="3.3408">INT</text>
    </g>
    <g  id="g40" gorn="0.11">
        <title  id="title42">text:CS</title>
        <text  x="44.279999" style="font-size:3.34080005px;font-family:OCRA;text-anchor:start;fill:#ffffff;stroke:none;stroke-width:0" id="text44" gorn="0.11.1" y="47.16" font-size="3.3408">CS</text>
    </g>
    <g  id="g46" gorn="0.12">
        <title  id="title48">text:SDO</title>
        <text  x="36" style="font-size:3.34080005px;font-family:OCRA;text-anchor:start;fill:#ffffff;stroke:none;stroke-width:0" id="text50" gorn="0.12.1" y="56.52" font-size="3.3408">SDO</text>
    </g>
    <g  id="g52" gorn="0.13">
        <title  id="title54">text:SDA</title>
        <text  x="28.799999" style="font-size:3.34080005px;font-family:OCRA;text-anchor:start;fill:#ffffff;stroke:none;stroke-width:0" id="text56" gorn="0.13.1" y="47.52" font-size="3.3408">SDA</text>
    </g>
    <g  id="g58" gorn="0.14">
        <title  id="title60">text:SCL</title>
        <text  x="21.6" style="font-size:3.34080005px;font-family:OCRA;text-anchor:start;fill:#ffffff;stroke:none;stroke-width:0" id="text62" gorn="0.14.1" y="56.52" font-size="3.3408">SCL</text>
    </g>
    <g  id="g64" gorn="0.15">
        <title  id="title66">text:GND</title>
        <text  x="14.4" style="font-size:3.34080005px;font-family:OCRA;text-anchor:start;fill:#ffffff;stroke:none;stroke-width:0" id="text68" gorn="0.15.1" y="47.16" font-size="3.3408">GND</text>
    </g>
    <g  id="g70" gorn="0.16">
        <title  id="title72">text:3Vo</title>
        <text  x="7.1999998" style="font-size:3.34080005px;font-family:OCRA;text-anchor:start;fill:#ffffff;stroke:none;stroke-width:0" id="text74" gorn="0.16.1" y="56.52" font-size="3.3408">3Vo</text>
    </g>
    <g  id="g76" gorn="0.17">
        <title  id="title78">text:Vin</title>
        <text  x="0.72000003" style="font-size:3.34080005px;font-family:OCRA;text-anchor:start;fill:#ffffff;stroke:none;stroke-width:0" id="text80" gorn="0.17.1" y="47.16" font-size="3.3408">Vin</text>
    </g>
    <g  id="g82" gorn="0.18">
        <title  id="title84">text:LIS3DH</title>
        <text  x="28.799999" style="font-size:5.51232004px;font-family:OCRA;text-anchor:middle;fill:#ffffff;stroke:none;stroke-width:0" id="text86" gorn="0.18.1" y="7.07616" font-size="5.51232">LIS3DH</text>
    </g>
    <g  id="g88" gorn="0.19">
        <title  id="title90">text:Y</title>
        <text  x="15.8513" style="font-size:4.67712021px;font-family:OCRA;text-anchor:end;fill:#ffffff;stroke:none;stroke-width:0" id="text92" gorn="0.19.1" y="27.7199" font-size="4.67712">Y</text>
    </g>
    <g  id="g94" gorn="0.20">
        <title  id="title96">text:X</title>
        <text  x="3.2286601" style="font-size:4.67712021px;font-family:OCRA;text-anchor:start;fill:#ffffff;stroke:none;stroke-width:0" id="text98" gorn="0.20.1" y="17.9972" font-size="4.67712">X</text>
    </g>
    <g  id="g100" gorn="0.21">
        <title  id="title102">text:Z</title>
        <text  x="11.8687" style="font-size:4.17600012px;font-family:OCRA;text-anchor:start;fill:#ffffff;stroke:none;stroke-width:0" id="text104" gorn="0.21.1" y="17.637199" font-size="4.176">Z</text>
    </g>
    <g  id="g106" gorn="0.22">
        <title  id="title108">text:A1</title>
        <text  x="25.559999" style="font-size:3.34080005px;font-family:OCRA;text-anchor:middle;fill:#ffffff;stroke:none;stroke-width:0" id="text110" gorn="0.22.1" y="11.7504" font-size="3.3408">A1</text>
    </g>
    <g  id="g112" gorn="0.23">
        <title  id="title114">text:A2</title>
        <text  x="32.759998" style="font-size:3.34080005px;font-family:OCRA;text-anchor:middle;fill:#ffffff;stroke:none;stroke-width:0" id="text116" gorn="0.23.1" y="11.7504" font-size="3.3408">A2</text>
    </g>
    <g  id="g118" gorn="0.24">
        <title  id="title120">text:A3</title>
        <text  x="39.959999" style="font-size:3.34080005px;font-family:OCRA;text-anchor:middle;fill:#ffffff;stroke:none;stroke-width:0" id="text122" gorn="0.24.1" y="11.7504" font-size="3.3408">A3</text>
    </g>
    <g  id="g124" gorn="0.25">
        <title  id="title126">element:C1</title>
        <g  id="g128" gorn="0.25.1">
            <title  id="title130">package:0805_10MGAP</title>
            <line  x1="36.720001" style="stroke:#ffffff;stroke-width:0.86400002;stroke-linecap:round" y1="19.08" id="line132" gorn="0.25.1.1" y2="21.959999" x2="36.720001"/>
        </g>
    </g>
    <g  id="g134" gorn="0.26">
        <title  id="title136">element:C2</title>
        <g  id="g138" gorn="0.26.1">
            <title  id="title140">package:0805-NO</title>
            <line  x1="6.8400002" style="stroke:#ffffff;stroke-width:0.86400002;stroke-linecap:round" y1="20.52" id="line142" gorn="0.26.1.1" y2="23.4" x2="6.8400002"/>
        </g>
    </g>
    <g  id="g144" gorn="0.27">
        <title  id="title146">element:C3</title>
        <g  id="g148" gorn="0.27.1">
            <title  id="title150">package:0805-NO</title>
            <line  x1="6.8400002" style="stroke:#ffffff;stroke-width:0.86400002;stroke-linecap:round" y1="39.599998" id="line152" gorn="0.27.1.1" y2="42.48" x2="6.8400002"/>
        </g>
    </g>
    <g  id="g154" gorn="0.28">
        <title  id="title156">element:D2</title>
        <g  id="g158" gorn="0.28.1">
            <title  id="title160">package:SOD-323</title>
            <line  x1="47.565399" style="stroke:#ffffff;stroke-width:0.57599998;stroke-linecap:round" y1="38.695801" id="line162" gorn="0.28.1.1" y2="38.695801" x2="53.2346"/>
            <line  x1="53.2346" style="stroke:#ffffff;stroke-width:0.57599998;stroke-linecap:round" y1="42.6642" id="line164" gorn="0.28.1.2" y2="42.6642" x2="47.565399"/>
            <line  x1="49.691299" style="stroke:#ffffff;stroke-width:0.57599998;stroke-linecap:round" y1="40.68" id="line166" gorn="0.28.1.3" y2="39.546101" x2="51.3922"/>
            <line  x1="51.3922" style="stroke:#ffffff;stroke-width:0.57599998;stroke-linecap:round" y1="39.546101" id="line168" gorn="0.28.1.4" y2="41.8139" x2="51.3922"/>
            <line  x1="51.3922" style="stroke:#ffffff;stroke-width:0.57599998;stroke-linecap:round" y1="41.8139" id="line170" gorn="0.28.1.5" y2="40.68" x2="49.691299"/>
            <g  id="g172" gorn="0.28.1.6">
                <title  id="title174">polygon</title>
                <path  style="fill:none;stroke:#ffffff;stroke-width:0.57599998;stroke-linecap:round" id="path176" gorn="0.28.1.6.1" d="m 50.1165,40.68 0.8504,-0.5669 0,1.1338 -0.8504,-0.5669 0.8504,0 -0.8504,0"/>
            </g>
        </g>
    </g>
    <g  id="g178" gorn="0.29">
        <title  id="title180">element:FID1</title>
        <g  id="g182" gorn="0.29.1">
            <title  id="title184">package:FIDUCIAL_1MM</title>
        </g>
    </g>
    <g  id="g186" gorn="0.30">
        <title  id="title188">element:FID2</title>
        <g  id="g190" gorn="0.30.1">
            <title  id="title192">package:FIDUCIAL_1MM</title>
        </g>
    </g>
    <g  id="g194" gorn="0.31">
        <title  id="title196">element:JP1</title>
        <g  id="g198" gorn="0.31.1">
            <title  id="title200">package:1X03_ROUND</title>
        </g>
    </g>
    <g  id="g202" gorn="0.32">
        <title  id="title204">element:JP2</title>
        <g  id="g206" gorn="0.32.1">
            <title  id="title208">package:1X08_ROUND_70</title>
        </g>
    </g>
    <g  id="g210" gorn="0.33">
        <title  id="title212">element:Q1</title>
        <g  id="g214" gorn="0.33.1">
            <title  id="title216">package:SOT23-WIDE</title>
            <line  x1="49.7407" style="stroke:#ffffff;stroke-width:0.57599998;stroke-linecap:round" y1="26.950701" id="line218" gorn="0.33.1.1" y2="30.672001" x2="49.7407"/>
            <line  x1="49.7407" style="stroke:#ffffff;stroke-width:0.57599998;stroke-linecap:round" y1="30.672001" id="line220" gorn="0.33.1.2" y2="30.672001" x2="47.0228"/>
            <line  x1="40.2593" style="stroke:#ffffff;stroke-width:0.57599998;stroke-linecap:round" y1="30.672001" id="line222" gorn="0.33.1.3" y2="26.950701" x2="40.2593"/>
            <line  x1="42.9772" style="stroke:#ffffff;stroke-width:0.57599998;stroke-linecap:round" y1="30.672001" id="line224" gorn="0.33.1.4" y2="30.672001" x2="40.2593"/>
            <line  x1="44.369598" style="stroke:#ffffff;stroke-width:0.57599998;stroke-linecap:round" y1="26.927999" id="line226" gorn="0.33.1.5" y2="26.927999" x2="45.670101"/>
        </g>
    </g>
    <g  id="g228" gorn="0.34">
        <title  id="title230">element:Q2</title>
        <g  id="g232" gorn="0.34.1">
            <title  id="title234">package:SOT23-WIDE</title>
            <line  x1="13.2593" style="stroke:#ffffff;stroke-width:0.57599998;stroke-linecap:round" y1="36.049301" id="line236" gorn="0.34.1.1" y2="32.327999" x2="13.2593"/>
            <line  x1="13.2593" style="stroke:#ffffff;stroke-width:0.57599998;stroke-linecap:round" y1="32.327999" id="line238" gorn="0.34.1.2" y2="32.327999" x2="15.9772"/>
            <line  x1="22.7407" style="stroke:#ffffff;stroke-width:0.57599998;stroke-linecap:round" y1="32.327999" id="line240" gorn="0.34.1.3" y2="36.049301" x2="22.7407"/>
            <line  x1="20.0228" style="stroke:#ffffff;stroke-width:0.57599998;stroke-linecap:round" y1="32.327999" id="line242" gorn="0.34.1.4" y2="32.327999" x2="22.7407"/>
            <line  x1="18.6304" style="stroke:#ffffff;stroke-width:0.57599998;stroke-linecap:round" y1="36.071999" id="line244" gorn="0.34.1.5" y2="36.071999" x2="17.329901"/>
        </g>
    </g>
    <g  id="g246" gorn="0.35">
        <title  id="title248">element:R1</title>
        <g  id="g250" gorn="0.35.1">
            <title  id="title252">package:0805-NO</title>
            <line  x1="35.279999" style="stroke:#ffffff;stroke-width:0.86400002;stroke-linecap:round" y1="42.84" id="line254" gorn="0.35.1.1" y2="39.959999" x2="35.279999"/>
        </g>
    </g>
    <g  id="g256" gorn="0.36">
        <title  id="title258">element:R2</title>
        <g  id="g260" gorn="0.36.1">
            <title  id="title262">package:0805-NO</title>
            <line  x1="50.759998" style="stroke:#ffffff;stroke-width:0.86400002;stroke-linecap:round" y1="19.799999" id="line264" gorn="0.36.1.1" y2="22.68" x2="50.759998"/>
        </g>
    </g>
    <g  id="g266" gorn="0.37">
        <title  id="title268">element:R3</title>
        <g  id="g270" gorn="0.37.1">
            <title  id="title272">package:0805-NO</title>
            <line  x1="16.559999" style="stroke:#ffffff;stroke-width:0.86400002;stroke-linecap:round" y1="24.120001" id="line274" gorn="0.37.1.1" y2="24.120001" x2="19.440001"/>
        </g>
    </g>
    <g  id="g276" gorn="0.38">
        <title  id="title278">element:R4</title>
        <g  id="g280" gorn="0.38.1">
            <title  id="title282">package:0805-NO</title>
            <line  x1="42.119999" style="stroke:#ffffff;stroke-width:0.86400002;stroke-linecap:round" y1="37.799999" id="line284" gorn="0.38.1.1" y2="34.919998" x2="42.119999"/>
        </g>
    </g>
    <g  id="g286" gorn="0.39">
        <title  id="title288">element:R5</title>
        <g  id="g290" gorn="0.39.1">
            <title  id="title292">package:0805-NO</title>
            <line  x1="25.200001" style="stroke:#ffffff;stroke-width:0.86400002;stroke-linecap:round" y1="40.32" id="line294" gorn="0.39.1.1" y2="43.200001" x2="25.200001"/>
        </g>
    </g>
    <g  id="g296" gorn="0.40">
        <title  id="title298">element:R8</title>
        <g  id="g300" gorn="0.40.1">
            <title  id="title302">package:0805-NO</title>
            <line  x1="51.84" style="stroke:#ffffff;stroke-width:0.86400002;stroke-linecap:round" y1="30.959999" id="line304" gorn="0.40.1.1" y2="30.959999" x2="54.720001"/>
        </g>
    </g>
    <g  id="g322" gorn="0.41">
        <title  id="title324">element:U$10</title>
        <g  id="g326" gorn="0.41.1">
            <title  id="title328">package:MOUNTINGHOLE_2.5_PLATED</title>
            <circle  style="fill:none;stroke:#ffffff;stroke-width:0.57599998" cx="7.1999998" r="5.6692901" id="circle330" gorn="0.41.1.1" cy="7.1999998"/>
        </g>
    </g>
    <g  id="g332" gorn="0.42">
        <title  id="title334">element:U$13</title>
        <g  id="g336" gorn="0.42.1">
            <title  id="title338">package:MOUNTINGHOLE_2.5_PLATED</title>
            <circle  style="fill:none;stroke:#ffffff;stroke-width:0.57599998" cx="50.400002" r="5.6692901" id="circle340" gorn="0.42.1.1" cy="7.1999998"/>
        </g>
    </g>
    <g  id="g342" gorn="0.43">
        <title  id="title344">element:U$21</title>
        <g  id="g346" gorn="0.43.1">
            <title  id="title348">package:ADAFRUIT_2.5MM</title>
        </g>
    </g>
    <g  id="g350" gorn="0.44">
        <title  id="title352">element:U$22</title>
        <g  id="g354" gorn="0.44.1">
            <title  id="title356">package:ADAFRUIT_5MM</title>
        </g>
    </g>
    <g  id="g358" gorn="0.45">
        <title  id="title360">element:U1</title>
        <g  id="g362" gorn="0.45.1">
            <title  id="title364">package:LGA16_3X3MM</title>
            <line  x1="26.2488" style="stroke:#ffffff;stroke-width:0.57599998;stroke-linecap:round" y1="23.9811" id="line366" gorn="0.45.1.1" y2="23.9811" x2="23.9811"/>
            <line  x1="23.9811" style="stroke:#ffffff;stroke-width:0.57599998;stroke-linecap:round" y1="23.9811" id="line368" gorn="0.45.1.2" y2="24.9732" x2="23.9811"/>
            <line  x1="26.2488" style="stroke:#ffffff;stroke-width:0.57599998;stroke-linecap:round" y1="33.6189" id="line370" gorn="0.45.1.3" y2="33.6189" x2="23.9811"/>
            <line  x1="23.9811" style="stroke:#ffffff;stroke-width:0.57599998;stroke-linecap:round" y1="33.6189" id="line372" gorn="0.45.1.4" y2="32.626801" x2="23.9811"/>
            <line  x1="33.6189" style="stroke:#ffffff;stroke-width:0.57599998;stroke-linecap:round" y1="32.626801" id="line374" gorn="0.45.1.5" y2="33.6189" x2="33.6189"/>
            <line  x1="33.6189" style="stroke:#ffffff;stroke-width:0.57599998;stroke-linecap:round" y1="33.6189" id="line376" gorn="0.45.1.6" y2="33.6189" x2="31.3512"/>
            <line  x1="31.3512" style="stroke:#ffffff;stroke-width:0.57599998;stroke-linecap:round" y1="23.9811" id="line378" gorn="0.45.1.7" y2="23.9811" x2="33.6189"/>
            <line  x1="33.6189" style="stroke:#ffffff;stroke-width:0.57599998;stroke-linecap:round" y1="23.9811" id="line380" gorn="0.45.1.8" y2="24.9732" x2="33.6189"/>
            <circle  style="fill:none;stroke:#ffffff;stroke-width:1.15199995" cx="22.422001" r="0.283465" id="circle382" gorn="0.45.1.9" cy="24.4063"/>
        </g>
    </g>
    <g  id="g384" gorn="0.46">
        <title  id="title386">element:U2</title>
        <g  id="g388" gorn="0.46.1">
            <title  id="title390">package:SOT23-5</title>
            <line  x1="2.1628399" style="stroke:#ffffff;stroke-width:0.57599998;stroke-linecap:round" y1="29.4123" id="line392" gorn="0.46.1.1" y2="33.947701" x2="2.1628399"/>
            <line  x1="11.5172" style="stroke:#ffffff;stroke-width:0.57599998;stroke-linecap:round" y1="29.4123" id="line394" gorn="0.46.1.2" y2="33.947701" x2="11.5172"/>
            <line  x1="5.70614" style="stroke:#ffffff;stroke-width:0.57599998;stroke-linecap:round" y1="28.7036" id="line396" gorn="0.46.1.3" y2="28.7036" x2="7.9738598"/>
        </g>
    </g>
    <rect  x="32.042801" width="3.4015801" style="fill:#9a916c;stroke:none;stroke-width:0" height="4.2519698" id="connector0pin" gorn="0.47" y="18.393999"/>
    <rect  x="37.995602" width="3.4015801" style="fill:#9a916c;stroke:none;stroke-width:0" height="4.2519698" id="connector1pin" gorn="0.48" y="18.393999"/>
    <rect  x="2.30457" width="3.68504" style="fill:#9a916c;stroke:none;stroke-width:0" height="4.2519698" id="connector2pin" gorn="0.49" y="19.834"/>
    <rect  x="7.6903901" width="3.68504" style="fill:#9a916c;stroke:none;stroke-width:0" height="4.2519698" id="connector3pin" gorn="0.50" y="19.834"/>
    <rect  x="2.30457" width="3.68504" style="fill:#9a916c;stroke:none;stroke-width:0" height="4.2519698" id="connector4pin" gorn="0.51" y="38.914001"/>
    <rect  x="7.6903901" width="3.68504" style="fill:#9a916c;stroke:none;stroke-width:0" height="4.2519698" id="connector5pin" gorn="0.52" y="38.914001"/>
    <rect  x="52.086601" width="3.8267701" style="fill:#9a916c;stroke:none;stroke-width:0" height="2.26772" id="connector6pin" gorn="0.53" y="39.546101"/>
    <rect  x="44.8866" width="3.8267701" style="fill:#9a916c;stroke:none;stroke-width:0" height="2.26772" id="connector7pin" gorn="0.54" y="39.546101"/>
    <rect  x="14.828" width="2.83465" style="fill:#9a916c;stroke:none;stroke-width:0" ry="1.41732" height="2.83465" id="connector8pin" rx="1.41732" gorn="0.55" y="8.3480396"/>
    <rect  x="48.9827" width="2.83465" style="fill:#9a916c;stroke:none;stroke-width:0" ry="1.41732" height="2.83465" id="connector9pin" rx="1.41732" gorn="0.56" y="53.3027"/>
    <circle  cx="25.200001" style="fill:none;stroke:#9a916c;stroke-width:0.95867997" r="1.89666" id="connector10pin" gorn="0.57" cy="14.4" connectorname="ADC1"/>
    <circle  cx="32.400002" style="fill:none;stroke:#9a916c;stroke-width:0.95867997" r="1.89666" id="connector11pin" gorn="0.58" cy="14.4" connectorname="ADC2"/>
    <circle  cx="39.599998" style="fill:none;stroke:#9a916c;stroke-width:0.95867997" r="1.89666" id="connector12pin" gorn="0.59" cy="14.4" connectorname="ADC3"/>
    <circle  cx="3.5999999" style="fill:none;stroke:#9a916c;stroke-width:1.10267997" r="1.96866" id="connector13pin" gorn="0.60" cy="50.400002" connectorname="VIN"/>
    <circle  cx="10.8" style="fill:none;stroke:#9a916c;stroke-width:1.10267997" r="1.96866" id="connector14pin" gorn="0.61" cy="50.400002" connectorname="3.3V"/>
    <circle  cx="18" style="fill:none;stroke:#9a916c;stroke-width:1.10267997" r="1.96866" id="connector15pin" gorn="0.62" cy="50.400002" connectorname="GND"/>
    <circle  cx="25.200001" style="fill:none;stroke:#9a916c;stroke-width:1.10267997" r="1.96866" id="connector16pin" gorn="0.63" cy="50.400002" connectorname="SCL"/>
    <circle  cx="32.400002" style="fill:none;stroke:#9a916c;stroke-width:1.10267997" r="1.96866" id="connector17pin" gorn="0.64" cy="50.400002" connectorname="SDA"/>
    <circle  cx="39.599998" style="fill:none;stroke:#9a916c;stroke-width:1.10267997" r="1.96866" id="connector18pin" gorn="0.65" cy="50.400002" connectorname="SDO"/>
    <circle  cx="46.799999" style="fill:none;stroke:#9a916c;stroke-width:1.10267997" r="1.96866" id="connector19pin" gorn="0.66" cy="50.400002" connectorname="CS"/>
    <circle  cx="54" style="fill:none;stroke:#9a916c;stroke-width:1.10267997" r="1.96866" id="connector20pin" gorn="0.67" cy="50.400002" connectorname="INT1"/>
    <g  transform="matrix(-1,0,0,-1,95.3856,51.9307)">
        <g  id="g419" gorn="0.68.0">
            <rect  x="46.2756" width="2.83465" style="fill:#9a916c;stroke:none;stroke-width:0" height="3.4015801" id="connector21pin" gorn="0.68.0.0" y="24.264601"/>
        </g>
    </g>
    <g  transform="matrix(-1,0,0,-1,84.6144,51.9307)">
        <g  id="g422" gorn="0.69.0">
            <rect  x="40.889702" width="2.83465" style="fill:#9a916c;stroke:none;stroke-width:0" height="3.4015801" id="connector22pin" gorn="0.69.0.0" y="24.264601"/>
        </g>
    </g>
    <g  transform="matrix(-1,0,0,-1,90,63.2693)">
        <g  id="g425" gorn="0.70.0">
            <rect  x="43.582699" width="2.83465" style="fill:#9a916c;stroke:none;stroke-width:0" height="3.4015801" id="connector23pin" gorn="0.70.0.0" y="29.933901"/>
        </g>
    </g>
    <rect  x="13.8897" width="2.83465" style="fill:#9a916c;stroke:none;stroke-width:0" height="3.4015801" id="connector24pin" gorn="0.71" y="35.3339"/>
    <rect  x="19.2756" width="2.83465" style="fill:#9a916c;stroke:none;stroke-width:0" height="3.4015801" id="connector25pin" gorn="0.72" y="35.3339"/>
    <rect  x="16.582701" width="2.83465" style="fill:#9a916c;stroke:none;stroke-width:0" height="3.4015801" id="connector26pin" gorn="0.73" y="29.6646"/>
    <g  transform="matrix(-1,0,0,-1,75.9456,82.8)">
        <g  id="g431" gorn="0.74.0">
            <rect  x="36.130402" width="3.68504" style="fill:#9a916c;stroke:none;stroke-width:0" height="4.2519698" id="connector27pin" gorn="0.74.0.0" y="39.273998"/>
        </g>
    </g>
    <g  transform="matrix(-1,0,0,-1,65.1742,82.8)">
        <g  id="g434" gorn="0.75.0">
            <rect  x="30.7446" width="3.68504" style="fill:#9a916c;stroke:none;stroke-width:0" height="4.2519698" id="connector28pin" gorn="0.75.0.0" y="39.273998"/>
        </g>
    </g>
    <rect  x="46.224602" width="3.68504" style="fill:#9a916c;stroke:none;stroke-width:0" height="4.2519698" id="connector29pin" gorn="0.76" y="19.114"/>
    <rect  x="51.610401" width="3.68504" style="fill:#9a916c;stroke:none;stroke-width:0" height="4.2519698" id="connector30pin" gorn="0.77" y="19.114"/>
    <g  transform="matrix(0,-1,1,0,-8.81294,44.8129)">
        <g  id="g439" gorn="0.78.0">
            <rect  x="16.1574" width="3.68504" style="fill:#9a916c;stroke:none;stroke-width:0" height="4.2519698" id="connector31pin" gorn="0.78.0.0" y="24.686899"/>
        </g>
    </g>
    <g  transform="matrix(0,-1,1,0,-3.42708,39.4271)">
        <g  id="g442" gorn="0.79.0">
            <rect  x="16.1574" width="3.68504" style="fill:#9a916c;stroke:none;stroke-width:0" height="4.2519698" id="connector32pin" gorn="0.79.0.0" y="19.3011"/>
        </g>
    </g>
    <g  transform="matrix(-1,0,0,-1,89.6256,72.72)">
        <g  id="g445" gorn="0.80.0">
            <rect  x="42.970402" width="3.68504" style="fill:#9a916c;stroke:none;stroke-width:0" height="4.2519698" id="connector33pin" gorn="0.80.0.0" y="34.234001"/>
        </g>
    </g>
    <g  transform="matrix(-1,0,0,-1,78.8544,72.72)">
        <g  id="g448" gorn="0.81.0">
            <rect  x="37.584599" width="3.68504" style="fill:#9a916c;stroke:none;stroke-width:0" height="4.2519698" id="connector34pin" gorn="0.81.0.0" y="34.234001"/>
        </g>
    </g>
    <rect  x="20.6646" width="3.68504" style="fill:#9a916c;stroke:none;stroke-width:0" height="4.2519698" id="connector35pin" gorn="0.82" y="39.633999"/>
    <rect  x="26.0504" width="3.68504" style="fill:#9a916c;stroke:none;stroke-width:0" height="4.2519698" id="connector36pin" gorn="0.83" y="39.633999"/>
    <g  transform="matrix(0,-1,1,0,19.6271,86.9328)">
        <g  id="g453" gorn="0.84.0">
            <rect  x="51.437401" width="3.68504" style="fill:#9a916c;stroke:none;stroke-width:0" height="4.2519698" id="connector37pin" gorn="0.84.0.0" y="31.526899"/>
        </g>
    </g>
    <g  transform="matrix(0,-1,1,0,25.0129,81.5472)">
        <g  id="g456" gorn="0.85.0">
            <rect  x="51.437401" width="3.68504" style="fill:#9a916c;stroke:none;stroke-width:0" height="4.2519698" id="connector38pin" gorn="0.85.0.0" y="26.1411"/>
        </g>
    </g>
    <circle  cx="7.1999998" style="fill:none;stroke:#9a916c;stroke-width:1.44000006" r="4.26331" id="connector39pin" gorn="0.86" cy="7.1999998" connectorname="P$1"/>
    <circle  cx="50.400002" style="fill:none;stroke:#9a916c;stroke-width:1.44000006" r="4.26331" id="connector40pin" gorn="0.87" cy="7.1999998" connectorname="P$1"/>
    <rect  x="24.264601" width="1.41732" style="fill:#9a916c;stroke:none;stroke-width:0" height="0.70866102" id="connector41pin" gorn="0.88" y="25.611"/>
    <rect  x="24.264601" width="1.41732" style="fill:#9a916c;stroke:none;stroke-width:0" height="0.70866102" id="connector42pin" gorn="0.89" y="27.0284"/>
    <rect  x="24.264601" width="1.41732" style="fill:#9a916c;stroke:none;stroke-width:0" height="0.70866102" id="connector43pin" gorn="0.90" y="28.4457"/>
    <rect  x="24.264601" width="1.41732" style="fill:#9a916c;stroke:none;stroke-width:0" height="0.70866102" id="connector44pin" gorn="0.91" y="29.863001"/>
    <rect  x="24.264601" width="1.41732" style="fill:#9a916c;stroke:none;stroke-width:0" height="0.70866102" id="connector45pin" gorn="0.92" y="31.2803"/>
    <g  transform="matrix(0,-1,1,0,-5.24409,60.0095)">
        <g  id="g466" gorn="0.93.0">
            <rect  x="26.674" width="1.41732" style="fill:#9a916c;stroke:none;stroke-width:0" height="0.70866102" id="connector46pin" gorn="0.93.0.0" y="32.2724"/>
        </g>
    </g>
    <g  transform="matrix(0,-1,1,0,-3.82677,61.4268)">
        <g  id="g469" gorn="0.94.0">
            <rect  x="28.091299" width="1.41732" style="fill:#9a916c;stroke:none;stroke-width:0" height="0.70866102" id="connector47pin" gorn="0.94.0.0" y="32.2724"/>
        </g>
    </g>
    <g  transform="matrix(0,-1,1,0,-2.40945,62.8441)">
        <g  id="g472" gorn="0.95.0">
            <rect  x="29.508699" width="1.41732" style="fill:#9a916c;stroke:none;stroke-width:0" height="0.70866102" id="connector48pin" gorn="0.95.0.0" y="32.2724"/>
        </g>
    </g>
    <g  transform="matrix(-1,0,0,-1,65.2535,63.2693)">
        <g  id="g475" gorn="0.96.0">
            <rect  x="31.9181" width="1.41732" style="fill:#9a916c;stroke:none;stroke-width:0" height="0.70866102" id="connector49pin" gorn="0.96.0.0" y="31.2803"/>
        </g>
    </g>
    <g  transform="matrix(-1,0,0,-1,65.2535,60.4346)">
        <g  id="g478" gorn="0.97.0">
            <rect  x="31.9181" width="1.41732" style="fill:#9a916c;stroke:none;stroke-width:0" height="0.70866102" id="connector50pin" gorn="0.97.0.0" y="29.863001"/>
        </g>
    </g>
    <g  transform="matrix(-1,0,0,-1,65.2535,57.6)">
        <g  id="g481" gorn="0.98.0">
            <rect  x="31.9181" width="1.41732" style="fill:#9a916c;stroke:none;stroke-width:0" height="0.70866102" id="connector51pin" gorn="0.98.0.0" y="28.4457"/>
        </g>
    </g>
    <g  transform="matrix(-1,0,0,-1,65.2535,54.7654)">
        <g  id="g484" gorn="0.99.0">
            <rect  x="31.9181" width="1.41732" style="fill:#9a916c;stroke:none;stroke-width:0" height="0.70866102" id="connector52pin" gorn="0.99.0.0" y="27.0284"/>
        </g>
    </g>
    <g  transform="matrix(-1,0,0,-1,65.2535,51.9307)">
        <g  id="g487" gorn="0.100.0">
            <rect  x="31.9181" width="1.41732" style="fill:#9a916c;stroke:none;stroke-width:0" height="0.70866102" id="connector53pin" gorn="0.100.0.0" y="25.611"/>
        </g>
    </g>
    <g  transform="matrix(0,1,-1,0,55.1905,-5.24409)">
        <g  id="g490" gorn="0.101.0">
            <rect  x="29.508699" width="1.41732" style="fill:#9a916c;stroke:none;stroke-width:0" height="0.70866102" id="connector54pin" gorn="0.101.0.0" y="24.6189"/>
        </g>
    </g>
    <g  transform="matrix(0,1,-1,0,53.7732,-3.82677)">
        <g  id="g493" gorn="0.102.0">
            <rect  x="28.091299" width="1.41732" style="fill:#9a916c;stroke:none;stroke-width:0" height="0.70866102" id="connector55pin" gorn="0.102.0.0" y="24.6189"/>
        </g>
    </g>
    <g  transform="matrix(0,1,-1,0,52.3559,-2.40945)">
        <g  id="g496" gorn="0.103.0">
            <rect  x="26.674" width="1.41732" style="fill:#9a916c;stroke:none;stroke-width:0" height="0.70866102" id="connector56pin" gorn="0.103.0.0" y="24.6189"/>
        </g>
    </g>
    <rect  x="3.3675599" width="1.55905" style="fill:#9a916c;stroke:none;stroke-width:0" height="3.4015801" id="connector57pin" gorn="0.104" y="33.664501"/>
    <rect  x="6.0604701" width="1.55905" style="fill:#9a916c;stroke:none;stroke-width:0" height="3.4015801" id="connector58pin" gorn="0.105" y="33.664501"/>
    <rect  x="8.7533998" width="1.55905" style="fill:#9a916c;stroke:none;stroke-width:0" height="3.4015801" id="connector59pin" gorn="0.106" y="33.664501"/>
    <rect  x="8.7533998" width="1.55905" style="fill:#9a916c;stroke:none;stroke-width:0" height="3.4015801" id="connector60pin" gorn="0.107" y="26.2939"/>
    <rect  x="3.3675599" width="1.55905" style="fill:#9a916c;stroke:none;stroke-width:0" height="3.4015801" id="connector61pin" gorn="0.108" y="26.2939"/>
    <g  transform="translate(33.8855,18.7485)">
        <g  id="0805_10mgap" gorn="0.109.0">
            <path  style="fill:#dcdcdc" id="path505" gorn="0.109.0.0" d="m 5.386,3.543 -5.103,0 C 0.127,3.543 0,3.416 0,3.26 L 0,0.283 C 0,0.127 0.127,0 0.283,0 l 5.102,0 c 0.157,0 0.283,0.127 0.283,0.283 l 0,2.977 C 5.669,3.416 5.542,3.543 5.386,3.543 Z"/>
            <rect  x="1.063" style="fill:#6e554b" width="3.543" height="3.543" id="rect507" gorn="0.109.0.1" y="0"/>
        </g>
    </g>
    <g  transform="translate(4.0055,20.1885)">
        <g  id="0805-cap" gorn="0.110.0">
            <path  style="fill:#dcdcdc" id="path510" gorn="0.110.0.0" d="m 5.386,3.543 -5.103,0 C 0.127,3.543 0,3.416 0,3.26 L 0,0.283 C 0,0.127 0.127,0 0.283,0 l 5.102,0 c 0.157,0 0.283,0.127 0.283,0.283 l 0,2.977 C 5.669,3.416 5.542,3.543 5.386,3.543 Z"/>
            <rect  x="1.063" style="fill:#6e554b" width="3.543" height="3.543" id="rect512" gorn="0.110.0.1" y="0"/>
        </g>
    </g>
    <g  transform="translate(4.0055,39.2685)">
        <g  id="g514" gorn="0.111.0">
            <path  style="fill:#dcdcdc" id="path516" gorn="0.111.0.0" d="m 5.386,3.543 -5.103,0 C 0.127,3.543 0,3.416 0,3.26 L 0,0.283 C 0,0.127 0.127,0 0.283,0 l 5.102,0 c 0.157,0 0.283,0.127 0.283,0.283 l 0,2.977 C 5.669,3.416 5.542,3.543 5.386,3.543 Z"/>
            <rect  x="1.063" style="fill:#6e554b" width="3.543" height="3.543" id="rect518" gorn="0.111.0.1" y="0"/>
        </g>
    </g>
    <g  transform="translate(46.8565,38.9085)">
        <g  id="sod-323" gorn="0.112.0">
            <metadata  id="metadata11">
                <rdf:RDF xmlns:rdf="http://www.w3.org/1999/02/22-rdf-syntax-ns#">
                    <cc:Work xmlns:cc="http://creativecommons.org/ns#" xmlns:rdf="http://www.w3.org/1999/02/22-rdf-syntax-ns#" rdf:about="">
                        <dc:format xmlns:dc="http://purl.org/dc/elements/1.1/">image/svg+xml</dc:format>
                        <dc:type rdf:resource="http://purl.org/dc/dcmitype/StillImage" xmlns:rdf="http://www.w3.org/1999/02/22-rdf-syntax-ns#" xmlns:dc="http://purl.org/dc/elements/1.1/"/>
                    </cc:Work>
                </rdf:RDF>
            </metadata>
            <defs  id="defs9"/>
            <rect  x="0" style="fill:#dcdcdc" width="7.0869999" height="0.850003" id="rect3" gorn="0.112.0.2" y="1.346"/>
            <rect  x="1.1339999" style="fill:#303030" width="4.8189998" height="3.543" id="rect5" gorn="0.112.0.3" y="0"/>
            <rect  x="1.55866" style="fill:#666666" width="0.63320303" height="3.55568" id="rect3339" gorn="0.112.0.4" y="0.011677"/>
        </g>
    </g>
    <g  transform="translate(40.748,24.973)">
        <g  id="sot23-wide" gorn="0.113.0">
            <g  transform="matrix(-1,0,0,-1,8.50399,7.65403)">
                <g  id="g528" gorn="0.113.0.0.0">
                    <g  id="g530" gorn="0.113.0.0.0.0">
                        <rect  x="0.850003" style="fill:#dcdcdc" width="1.4170001" height="2.9760001" id="rect532" gorn="0.113.0.0.0.0.0" y="4.677"/>
                        <rect  x="6.2360001" style="fill:#dcdcdc" width="1.4170001" height="2.9760001" id="rect534" gorn="0.113.0.0.0.0.1" y="4.677"/>
                        <rect  x="3.543" style="fill:#dcdcdc" width="1.4170001" height="3.118" id="rect536" gorn="0.113.0.0.0.0.2" y="0"/>
                        <rect  x="0" style="fill:#303030" width="8.5039902" height="3.6849999" id="rect538" gorn="0.113.0.0.0.0.3" y="1.984"/>
                    </g>
                </g>
            </g>
        </g>
    </g>
    <g  transform="translate(13.748,30.373)">
        <g  id="g540" gorn="0.114.0">
            <g  id="g542" gorn="0.114.0.0">
                <rect  x="0.850003" style="fill:#dcdcdc" width="1.4170001" height="2.9760001" id="rect544" gorn="0.114.0.0.0" y="4.677"/>
                <rect  x="6.2360001" style="fill:#dcdcdc" width="1.4170001" height="2.9760001" id="rect546" gorn="0.114.0.0.1" y="4.677"/>
                <rect  x="3.543" style="fill:#dcdcdc" width="1.4170001" height="3.118" id="rect548" gorn="0.114.0.0.2" y="0"/>
                <rect  x="0" style="fill:#303030" width="8.5039902" height="3.6849999" id="rect550" gorn="0.114.0.0.3" y="1.984"/>
            </g>
        </g>
    </g>
    <g  transform="translate(32.4455,39.6285)">
        <g  id="0805-res" gorn="0.115.0">
            <g  transform="matrix(-1,0,0,-1,5.669,3.543)">
                <g  id="g553" gorn="0.115.0.0.0">
                    <path  style="fill:#dcdcdc" id="path555" gorn="0.115.0.0.0.0" d="m 5.386,3.543 -5.103,0 C 0.127,3.543 0,3.416 0,3.26 L 0,0.283 C 0,0.127 0.127,0 0.283,0 l 5.102,0 c 0.157,0 0.283,0.127 0.283,0.283 l 0,2.977 C 5.669,3.416 5.542,3.543 5.386,3.543 Z"/>
                    <rect  x="1.063" style="fill:#333333" width="3.543" height="3.543" id="rect557" gorn="0.115.0.0.0.1" y="0"/>
                </g>
            </g>
        </g>
    </g>
    <g  transform="translate(47.9255,19.4685)">
        <g  id="g559" gorn="0.116.0">
            <path  style="fill:#dcdcdc" id="path561" gorn="0.116.0.0" d="m 5.386,3.543 -5.103,0 C 0.127,3.543 0,3.416 0,3.26 L 0,0.283 C 0,0.127 0.127,0 0.283,0 l 5.102,0 c 0.157,0 0.283,0.127 0.283,0.283 l 0,2.977 C 5.669,3.416 5.542,3.543 5.386,3.543 Z"/>
            <rect  x="1.063" style="fill:#333333" width="3.543" height="3.543" id="rect563" gorn="0.116.0.1" y="0"/>
        </g>
    </g>
    <g  transform="translate(15.1655,22.3485)">
        <g  id="g565" gorn="0.117.0">
            <g  transform="matrix(0,-1,1,0,1.063,4.606)">
                <g  id="g567" gorn="0.117.0.0.0">
                    <path  style="fill:#dcdcdc" id="path569" gorn="0.117.0.0.0.0" d="m 5.386,3.543 -5.103,0 C 0.127,3.543 0,3.416 0,3.26 L 0,0.283 C 0,0.127 0.127,0 0.283,0 l 5.102,0 c 0.157,0 0.283,0.127 0.283,0.283 l 0,2.977 C 5.669,3.416 5.542,3.543 5.386,3.543 Z"/>
                    <rect  x="1.063" style="fill:#333333" width="3.543" height="3.543" id="rect571" gorn="0.117.0.0.0.1" y="0"/>
                </g>
            </g>
        </g>
    </g>
    <g  transform="translate(39.2855,34.5885)">
        <g  id="g573" gorn="0.118.0">
            <g  transform="matrix(-1,0,0,-1,5.669,3.543)">
                <g  id="g575" gorn="0.118.0.0.0">
                    <path  style="fill:#dcdcdc" id="path577" gorn="0.118.0.0.0.0" d="m 5.386,3.543 -5.103,0 C 0.127,3.543 0,3.416 0,3.26 L 0,0.283 C 0,0.127 0.127,0 0.283,0 l 5.102,0 c 0.157,0 0.283,0.127 0.283,0.283 l 0,2.977 C 5.669,3.416 5.542,3.543 5.386,3.543 Z"/>
                    <rect  x="1.063" style="fill:#333333" width="3.543" height="3.543" id="rect579" gorn="0.118.0.0.0.1" y="0"/>
                </g>
            </g>
        </g>
    </g>
    <g  transform="translate(22.3655,39.9885)">
        <g  id="g581" gorn="0.119.0">
            <path  style="fill:#dcdcdc" id="path583" gorn="0.119.0.0" d="m 5.386,3.543 -5.103,0 C 0.127,3.543 0,3.416 0,3.26 L 0,0.283 C 0,0.127 0.127,0 0.283,0 l 5.102,0 c 0.157,0 0.283,0.127 0.283,0.283 l 0,2.977 C 5.669,3.416 5.542,3.543 5.386,3.543 Z"/>
            <rect  x="1.063" style="fill:#333333" width="3.543" height="3.543" id="rect585" gorn="0.119.0.1" y="0"/>
        </g>
    </g>
    <g  transform="translate(50.4455,29.1885)">
        <g  id="g587" gorn="0.120.0">
            <g  transform="matrix(0,-1,1,0,1.063,4.606)">
                <g  id="g589" gorn="0.120.0.0.0">
                    <path  style="fill:#dcdcdc" id="path591" gorn="0.120.0.0.0.0" d="m 5.386,3.543 -5.103,0 C 0.127,3.543 0,3.416 0,3.26 L 0,0.283 C 0,0.127 0.127,0 0.283,0 l 5.102,0 c 0.157,0 0.283,0.127 0.283,0.283 l 0,2.977 C 5.669,3.416 5.542,3.543 5.386,3.543 Z"/>
                    <rect  x="1.063" style="fill:#333333" width="3.543" height="3.543" id="rect593" gorn="0.120.0.0.0.1" y="0"/>
                </g>
            </g>
        </g>
    </g>
    <g  transform="translate(23.4021,15.0663)">
        <g  id="adafruit_2.5mm" gorn="0.121.0">
            <path  style="fill:#9fbbe0" id="path596" gorn="0.121.0.0" d="M 9.747,3.082 C 9.724,2.94 9.647,2.899 9.461,2.839 9.31903,2.794 8.37202,2.492 8.37202,2.492 c 0,0 -0.66,-0.249 -1.15,0.103 C 7.156,2.643 7.088,2.697 7.019,2.755 7.077,2.686 7.131,2.618 7.178,2.552 7.53,2.062 7.279,1.402 7.279,1.402 7.279,1.402 6.976,0.455 6.93,0.313 6.87,0.127 6.83,0.05 6.687,0.028 6.545,0.005 6.483,0.066 6.369,0.225 6.282,0.345 5.702,1.153 5.702,1.153 c 0,0 -0.441,0.551 -0.257,1.126 C 5.47,2.356 5.5,2.438 5.534,2.521 5.486,2.445 5.438,2.372 5.39,2.307 5.032,1.821 4.328,1.855 4.328,1.855 c 0,0 -0.995,-0.004 -1.143,-0.004 -0.195,0 -0.281,0.014 -0.347,0.143 -0.065,0.128 -0.027,0.206 0.089,0.364 0.088,0.12 0.677,0.921002 0.677,0.921002 0,0 0.388,0.59 0.991001,0.592 0.081,0 0.168,-0.003 0.257,-0.01 C 4.765,3.883 4.681,3.907 4.604,3.932 4.031,4.122 3.845998,4.802998 3.845998,4.802998 3.845998,4.802998 3.536,5.747 3.489,5.888 3.428,6.074 3.416,6.16 3.518,6.262 3.62,6.364 3.706,6.352 3.892,6.29 4.033,6.244 4.977,5.931 4.977,5.931 c 0,0 0.681,-0.187 0.868997,-0.760003 0.025,-0.077 0.049,-0.16 0.07,-0.247 C 5.91,5.014 5.907,5.1 5.907,5.181 c 0.004,0.603 0.594,0.99 0.594,0.99 0,0 0.802001,0.588 0.922003,0.675 C 7.58102,6.962 7.659,7 7.78802,6.935 7.91597,6.869 7.93102,6.783 7.93001,6.588 7.929,6.439 7.92403,5.445 7.92403,5.445 7.92403,5.445 7.95701,4.74 7.47,4.383 7.40498,4.335 7.33198,4.287 7.25602,4.24 c 0.083,0.034 0.165,0.064 0.242,0.088 0.575,0.183 1.125,-0.259 1.125,-0.259 0,0 0.80696,-0.5809998 0.92699,-0.6679998 C 9.70898,3.286 9.76903,3.224 9.747,3.082 Z M 6.322,2.35 C 6.43,2.367 6.484,2.598 6.442,2.865 6.4,3.132 6.278,3.335 6.169,3.318 6.061,3.301 6.007,3.07 6.049,2.803 6.091,2.535 6.213,2.332 6.322,2.35 Z M 4.933,3.059 C 4.983,2.961 5.219,2.981 5.46,3.104 5.701,3.227 5.857,3.406 5.807,3.503 5.757,3.601 5.521,3.581 5.28,3.458 5.038,3.335 4.883,3.157 4.933,3.059 Z M 5.665,4.393 C 5.474,4.584 5.256,4.677 5.178,4.599 5.101,4.521 5.193,4.303 5.384,4.112 5.575,3.92 5.793,3.827 5.871,3.905 5.949,3.983 5.857,4.201 5.665,4.393 Z M 6.719,4.842 C 6.6210001,4.892 6.442,4.737 6.319,4.496 6.196,4.254 6.175,4.018 6.273,3.968 6.371,3.918 6.55,4.073 6.673,4.314 6.796,4.556 6.817,4.792 6.719,4.842 Z M 6.973,3.725 C 6.706,3.767 6.475,3.714 6.457,3.606 6.44,3.497 6.643,3.375 6.91,3.332 7.177,3.289 7.408,3.343 7.425,3.451 7.443,3.56 7.24003,3.682 6.973,3.725 Z"/>
        </g>
    </g>
    <g  transform="translate(22.4178,24.4019)">
        <g  id="lga16_3x3mm" gorn="0.122.0">
            <rect  x="2.131" style="fill:#333333" width="8.5039902" height="8.5039902" id="rect599" gorn="0.122.0.0" y="0.146"/>
        </g>
    </g>
    <g  transform="translate(2.72999,27.853)">
        <g  id="sot23-5" gorn="0.123.0">
            <g  id="g602" gorn="0.123.0.0">
                <rect  x="0.850003" style="fill:#dcdcdc" width="1.1339999" height="7.6540298" id="rect604" gorn="0.123.0.0.0" y="0"/>
                <rect  x="6.2360001" style="fill:#dcdcdc" width="1.1339999" height="7.6540298" id="rect606" gorn="0.123.0.0.1" y="0"/>
                <rect  x="3.543" style="fill:#dcdcdc" width="1.1339999" height="3.118" id="rect608" gorn="0.123.0.0.2" y="4.5349998"/>
                <rect  x="0" style="fill:#303030" width="8.2200203" height="4.5349998" id="rect610" gorn="0.123.0.0.3" y="1.559"/>
            </g>
        </g>
    </g>
</svg>
