<?xml version='1.0' encoding='UTF-8' standalone='no'?>
<!-- Created with Fritzing (http://www.fritzing.org/) -->
<svg xmlns="http://www.w3.org/2000/svg" width="1in" version="1.2" id="svg2"  viewBox="0 0 72 63.7795" x="0in" y="0in" height="0.885827in" gorn="0">
    <desc>
        <referenceFile>INA219_CurPowerMonitor_v0.2_breadboard.svg</referenceFile>
    </desc>
    <metadata id="metadata491" />
    <defs id="defs489" />
    <desc id="desc4" >Fritzing breadboard generated by brd2svg</desc>
    <g id="icon"  gorn="0.3">
        <path id="path8" d="M 0,56.5795 0,7.93699 A 7.2,7.2 0 0 1 7.2,0.737006 l 57.6,0 A 7.2,7.2 0 0 1 72,7.93699 l 0,48.64251 a 7.2,7.2 0 0 1 -7.2,7.2 l -57.6,0 A 7.2,7.2 0 0 1 0,56.5795 M 29.7638,10.2047 a 1.417325,1.417325 0 1 0 2.83465,0 1.417325,1.417325 0 1 0 -2.83465,0 z m 9.9212,0 a 1.417325,1.417325 0 1 0 2.83465,0 1.417325,1.417325 0 1 0 -2.83465,0 z M 17.6627,55.8595 a 1.417325,1.417325 0 1 0 2.83465,0 1.417325,1.417325 0 1 0 -2.83465,0 z m 7.2,0 a 1.417325,1.417325 0 1 0 2.83465,0 1.417325,1.417325 0 1 0 -2.83465,0 z m 7.2,0 a 1.417325,1.417325 0 1 0 2.83465,0 1.417325,1.417325 0 1 0 -2.83465,0 z m 7.2,0 a 1.417325,1.417325 0 1 0 2.83465,0 1.417325,1.417325 0 1 0 -2.83465,0 z m 7.2,0 a 1.417325,1.417325 0 1 0 2.83465,0 1.417325,1.417325 0 1 0 -2.83465,0 z m 7.2,0 a 1.417325,1.417325 0 1 0 2.83465,0 1.417325,1.417325 0 1 0 -2.83465,0 z m 7.594,0.72 a 3.54331,3.54331 0 1 0 7.08661,0 3.54331,3.54331 0 1 0 -7.08661,0 z m -57.60001,0 a 3.54331,3.54331 0 1 0 7.08661,0 3.54331,3.54331 0 1 0 -7.08661,0 z m 0,-48.64251 a 3.54331,3.54331 0 1 0 7.08661,0 3.54331,3.54331 0 1 0 -7.08661,0 z m 57.60001,0 a 3.54331,3.54331 0 1 0 7.08661,0 3.54331,3.54331 0 1 0 -7.08661,0 z"  style="fill:#014cb1;stroke:none;stroke-width:0" gorn="0.3.0"/>
        <g id="g10"  gorn="0.3.1">
            <title id="title12" >layer 21</title>
            <g id="g14"  gorn="0.3.1.1">
                <title id="title16" >text:Vcc</title>
                <text id="text18"  font-size="3.3408" x="15.84" y="61.9795" style="font-size:3.34080005px;font-family:OCRA;text-anchor:start;fill:#ffffff;stroke:none;stroke-width:0" gorn="0.3.1.1.1">Vcc</text>
            </g>
            <g id="g20"  gorn="0.3.1.2">
                <title id="title22" >text:Gnd</title>
                <text id="text24"  font-size="3.3408" x="22.32" y="51.899502" style="font-size:3.34080005px;font-family:OCRA;text-anchor:start;fill:#ffffff;stroke:none;stroke-width:0" gorn="0.3.1.2.1">Gnd</text>
            </g>
            <g id="g26"  gorn="0.3.1.3">
                <title id="title28" >text:Scl</title>
                <text id="text30"  font-size="3.3408" x="30.6" y="62.3395" style="font-size:3.34080005px;font-family:OCRA;text-anchor:start;fill:#ffffff;stroke:none;stroke-width:0" gorn="0.3.1.3.1">Scl</text>
            </g>
            <g id="g32"  gorn="0.3.1.4">
                <title id="title34" >text:Sda</title>
                <text id="text36"  font-size="3.3408" x="37.439999" y="51.899502" style="font-size:3.34080005px;font-family:OCRA;text-anchor:start;fill:#ffffff;stroke:none;stroke-width:0" gorn="0.3.1.4.1">Sda</text>
            </g>
            <g id="g38"  gorn="0.3.1.5">
                <title id="title40" >text:Vin-</title>
                <text id="text42"  font-size="3.3408" x="24.9165" y="5.25702" style="font-size:3.34080005px;font-family:OCRA;text-anchor:end;fill:#ffffff;stroke:none;stroke-width:0" gorn="0.3.1.5.1">Vin-</text>
            </g>
            <g id="g44"  gorn="0.3.1.6">
                <title id="title46" >text:Vin+</title>
                <text id="text48"  font-size="3.3408" x="47.758099" y="4.7593699" style="font-size:3.34080005px;font-family:OCRA;text-anchor:start;fill:#ffffff;stroke:none;stroke-width:0" gorn="0.3.1.6.1">Vin+</text>
            </g>
            <g id="g50"  gorn="0.3.1.7">
                <title id="title52" >text:A0</title>
                <g  transform="translate(70.92,46.8595)">
                    <g id="g54"  gorn="0.3.1.7.1.0">
                        <g  transform="matrix(0,-1,1,0,0,0)">
                            <g id="g56"  gorn="0.3.1.7.1.0.0.0">
                                <text id="text58"  font-size="3.3408" x="0" y="0" style="font-size:3.34080005px;font-family:OCRA;text-anchor:start;fill:#ffffff;stroke:none;stroke-width:0" gorn="0.3.1.7.1.0.0.0.0">A0</text>
                            </g>
                        </g>
                    </g>
                </g>
            </g>
            <g id="g60"  gorn="0.3.1.8">
                <title id="title62" >text:A1</title>
                <g  transform="translate(70.92,38.9622)">
                    <g id="g64"  gorn="0.3.1.8.1.0">
                        <g  transform="matrix(0,-1,1,0,0,0)">
                            <g id="g66"  gorn="0.3.1.8.1.0.0.0">
                                <text id="text68"  font-size="3.3408" x="0" y="0" style="font-size:3.34080005px;font-family:OCRA;text-anchor:start;fill:#ffffff;stroke:none;stroke-width:0" gorn="0.3.1.8.1.0.0.0.0">A1</text>
                            </g>
                        </g>
                    </g>
                </g>
            </g>
            <g id="g70"  gorn="0.3.1.9">
                <title id="title72" >text:Vin+</title>
                <text id="text74"  font-size="3.3408" x="51.119999" y="52.259499" style="font-size:3.34080005px;font-family:OCRA;text-anchor:start;fill:#ffffff;stroke:none;stroke-width:0" gorn="0.3.1.9.1">Vin+</text>
            </g>
            <g id="g76"  gorn="0.3.1.10">
                <title id="title78" >text:Vin-</title>
                <text id="text80"  font-size="3.3408" x="44.639999" y="62.3395" style="font-size:3.34080005px;font-family:OCRA;text-anchor:start;fill:#ffffff;stroke:none;stroke-width:0" gorn="0.3.1.10.1">Vin-</text>
            </g>
            <g id="g82"  gorn="0.3.1.11">
                <title id="title84" >text:INA219 DC</title>
                <text id="text86"  font-size="3.3408" x="1.7178" y="19.1905" style="font-size:3.34080005px;font-family:OCRA;text-anchor:start;fill:#ffffff;stroke:none;stroke-width:0" gorn="0.3.1.11.1">INA219 DC</text>
            </g>
            <g id="g88"  gorn="0.3.1.12">
                <title id="title90" >text:I2C Address</title>
                <text id="text92"  font-size="2.67264" x="46.771599" y="32.5984" style="font-size:2.67264009px;font-family:OCRA;text-anchor:start;fill:#ffffff;stroke:none;stroke-width:0" gorn="0.3.1.12.1">I2C Address</text>
            </g>
            <g id="g94"  gorn="0.3.1.13">
                <title id="title96" >text:R5</title>
                <text id="text98"  font-size="2.67264" x="34.492001" y="33.499901" style="font-size:2.67264009px;font-family:OCRA;text-anchor:start;fill:#ffffff;stroke:none;stroke-width:0" gorn="0.3.1.13.1">R5</text>
            </g>
            <g id="g100"  gorn="0.3.1.14">
                <title id="title102" >text:Current</title>
                <text id="text104"  font-size="3.3408" x="4.5977998" y="24.230499" style="font-size:3.34080005px;font-family:OCRA;text-anchor:start;fill:#ffffff;stroke:none;stroke-width:0" gorn="0.3.1.14.1">Current</text>
            </g>
            <g id="g106"  gorn="0.3.1.15">
                <title id="title108" >text:Sensor</title>
                <text id="text110"  font-size="3.3408" x="5.3178" y="29.2705" style="font-size:3.34080005px;font-family:OCRA;text-anchor:start;fill:#ffffff;stroke:none;stroke-width:0" gorn="0.3.1.15.1">Sensor</text>
            </g>
            <g id="g112"  gorn="0.3.1.16">
                <title id="title114" >element:C1</title>
                <g id="g116"  gorn="0.3.1.16.1">
                    <title id="title118" >package:0805-NO</title>
                    <line id="line120" y1="40.019501" y2="40.019501"  x1="12.8069" x2="9.9269304" style="stroke:#ffffff;stroke-width:0.86400002;stroke-linecap:round" gorn="0.3.1.16.1.1"/>
                </g>
            </g>
            <g id="g122"  gorn="0.3.1.17">
                <title id="title124" >element:FID1</title>
                <g id="g126"  gorn="0.3.1.17.1">
                    <title id="title128" >package:FIDUCIAL_1MM</title>
                </g>
            </g>
            <g id="g130"  gorn="0.3.1.18">
                <title id="title132" >element:FID2</title>
                <g id="g134"  gorn="0.3.1.18.1">
                    <title id="title136" >package:FIDUCIAL_1MM</title>
                </g>
            </g>
            <g id="g138"  gorn="0.3.1.19">
                <title id="title140" >element:J1</title>
                <g id="g142"  gorn="0.3.1.19.1">
                    <title id="title144" >package:TERMBLOCK_1X2-3.5MM</title>
                    <line id="line146" y1="19.8426" y2="3.9684999"  x1="45.9212" x2="45.9212" style="stroke:#ffffff;stroke-width:0.57599998;stroke-linecap:round" gorn="0.3.1.19.1.1"/>
                    <line id="line148" y1="3.9684999" y2="0"  x1="45.9212" x2="45.9212" style="stroke:#ffffff;stroke-width:0.57599998;stroke-linecap:round" gorn="0.3.1.19.1.2"/>
                    <line id="line150" y1="0" y2="0"  x1="45.9212" x2="26.0788" style="stroke:#ffffff;stroke-width:0.57599998;stroke-linecap:round" gorn="0.3.1.19.1.3"/>
                    <line id="line152" y1="0" y2="3.9684999"  x1="26.0788" x2="26.0788" style="stroke:#ffffff;stroke-width:0.57599998;stroke-linecap:round" gorn="0.3.1.19.1.4"/>
                    <line id="line154" y1="3.9684999" y2="19.8426"  x1="26.0788" x2="26.0788" style="stroke:#ffffff;stroke-width:0.57599998;stroke-linecap:round" gorn="0.3.1.19.1.5"/>
                    <line id="line156" y1="19.8426" y2="19.8426"  x1="26.0788" x2="45.9212" style="stroke:#ffffff;stroke-width:0.57599998;stroke-linecap:round" gorn="0.3.1.19.1.6"/>
                    <line id="line158" y1="3.9684999" y2="3.9684999"  x1="45.9212" x2="26.0788" style="stroke:#ffffff;stroke-width:0.57599998;stroke-linecap:round" gorn="0.3.1.19.1.7"/>
                </g>
            </g>
            <g id="g160"  gorn="0.3.1.20">
                <title id="title162" >element:JP1</title>
                <g id="g164"  gorn="0.3.1.20.1">
                    <title id="title166" >package:1X06_ROUND_70</title>
                </g>
            </g>
            <g id="g168"  gorn="0.3.1.21">
                <title id="title170" >element:R1</title>
                <g id="g172"  gorn="0.3.1.21.1">
                    <title id="title174" >package:0805-NO</title>
                    <line id="line176" y1="42.899502" y2="45.779499"  x1="51.84" x2="51.84" style="stroke:#ffffff;stroke-width:0.86400002;stroke-linecap:round" gorn="0.3.1.21.1.1"/>
                </g>
            </g>
            <g id="g178"  gorn="0.3.1.22">
                <title id="title180" >element:R2</title>
                <g id="g182"  gorn="0.3.1.22.1">
                    <title id="title184" >package:0805-NO</title>
                    <line id="line186" y1="35.722198" y2="38.6022"  x1="51.84" x2="51.84" style="stroke:#ffffff;stroke-width:0.86400002;stroke-linecap:round" gorn="0.3.1.22.1.1"/>
                </g>
            </g>
            <g id="g188"  gorn="0.3.1.23">
                <title id="title190" >element:R3</title>
                <g id="g192"  gorn="0.3.1.23.1">
                    <title id="title194" >package:0805-NO</title>
                    <line id="line196" y1="40.019501" y2="40.019501"  x1="17.1269" x2="20.006901" style="stroke:#ffffff;stroke-width:0.86400002;stroke-linecap:round" gorn="0.3.1.23.1.1"/>
                </g>
            </g>
            <g id="g198"  gorn="0.3.1.24">
                <title id="title200" >element:R4</title>
                <g id="g202"  gorn="0.3.1.24.1">
                    <title id="title204" >package:0805-NO</title>
                    <line id="line206" y1="40.019501" y2="40.019501"  x1="23.76" x2="26.639999" style="stroke:#ffffff;stroke-width:0.86400002;stroke-linecap:round" gorn="0.3.1.24.1.1"/>
                </g>
            </g>
            <g id="g208"  gorn="0.3.1.25">
                <title id="title210" >element:R5</title>
                <g id="g212"  gorn="0.3.1.25.1">
                    <title id="title214" >package:2512</title>
                </g>
            </g>
            <g id="g216"  gorn="0.3.1.26">
                <title id="title218" >element:SJ1</title>
                <g id="g220"  gorn="0.3.1.26.1">
                    <title id="title222" >package:SOLDERJUMPER_REFLOW_NOPASTE</title>
                    <line id="line224" y1="41.459499" y2="41.459499"  x1="58.68" x2="66.599998" style="stroke:#ffffff;stroke-width:0.57599998;stroke-linecap:round" gorn="0.3.1.26.1.1"/>
                    <path id="path226" d="m 57.96,46.4995 a 0.72,0.72 0 0 0 0.72,0.72"  style="fill:none;stroke:#ffffff;stroke-width:0.57599998" gorn="0.3.1.26.1.2"/>
                    <path id="path228" d="m 66.6,47.2195 a 0.72,0.72 0 0 0 0.72,-0.72"  style="fill:none;stroke:#ffffff;stroke-width:0.57599998" gorn="0.3.1.26.1.3"/>
                    <path id="path230" d="m 67.32,42.1795 a 0.72,0.72 0 0 0 -0.72,-0.72"  style="fill:none;stroke:#ffffff;stroke-width:0.57599998" gorn="0.3.1.26.1.4"/>
                    <path id="path232" d="m 58.68,41.4595 a 0.72,0.72 0 0 0 -0.72,0.72"  style="fill:none;stroke:#ffffff;stroke-width:0.57599998" gorn="0.3.1.26.1.5"/>
                    <line id="line234" y1="42.179501" y2="46.4995"  x1="57.959999" x2="57.959999" style="stroke:#ffffff;stroke-width:0.57599998;stroke-linecap:round" gorn="0.3.1.26.1.6"/>
                    <line id="line236" y1="42.179501" y2="46.4995"  x1="67.32" x2="67.32" style="stroke:#ffffff;stroke-width:0.57599998;stroke-linecap:round" gorn="0.3.1.26.1.7"/>
                    <line id="line238" y1="47.219501" y2="47.219501"  x1="66.599998" x2="58.68" style="stroke:#ffffff;stroke-width:0.57599998;stroke-linecap:round" gorn="0.3.1.26.1.8"/>
                </g>
            </g>
            <g id="g240"  gorn="0.3.1.27">
                <title id="title242" >element:SJ2</title>
                <g id="g244"  gorn="0.3.1.27.1">
                    <title id="title246" >package:SOLDERJUMPER_REFLOW_NOPASTE</title>
                    <line id="line248" y1="34.2822" y2="34.2822"  x1="58.68" x2="66.599998" style="stroke:#ffffff;stroke-width:0.57599998;stroke-linecap:round" gorn="0.3.1.27.1.1"/>
                    <path id="path250" d="m 57.96,39.3222 a 0.72,0.72 0 0 0 0.72,0.72"  style="fill:none;stroke:#ffffff;stroke-width:0.57599998" gorn="0.3.1.27.1.2"/>
                    <path id="path252" d="m 66.6,40.0422 a 0.72,0.72 0 0 0 0.72,-0.72"  style="fill:none;stroke:#ffffff;stroke-width:0.57599998" gorn="0.3.1.27.1.3"/>
                    <path id="path254" d="m 67.32,35.0022 a 0.72,0.72 0 0 0 -0.72,-0.72"  style="fill:none;stroke:#ffffff;stroke-width:0.57599998" gorn="0.3.1.27.1.4"/>
                    <path id="path256" d="m 58.68,34.2822 a 0.72,0.72 0 0 0 -0.72,0.72"  style="fill:none;stroke:#ffffff;stroke-width:0.57599998" gorn="0.3.1.27.1.5"/>
                    <line id="line258" y1="35.002201" y2="39.322201"  x1="57.959999" x2="57.959999" style="stroke:#ffffff;stroke-width:0.57599998;stroke-linecap:round" gorn="0.3.1.27.1.6"/>
                    <line id="line260" y1="35.002201" y2="39.322201"  x1="67.32" x2="67.32" style="stroke:#ffffff;stroke-width:0.57599998;stroke-linecap:round" gorn="0.3.1.27.1.7"/>
                    <line id="line262" y1="40.042198" y2="40.042198"  x1="66.599998" x2="58.68" style="stroke:#ffffff;stroke-width:0.57599998;stroke-linecap:round" gorn="0.3.1.27.1.8"/>
                </g>
            </g>
            <g id="g264"  gorn="0.3.1.28">
                <title id="title266" >element:U$7</title>
                <g id="g268"  gorn="0.3.1.28.1">
                    <title id="title270" >package:MOUNTINGHOLE_2.5_PLATED</title>
                    <circle id="circle272" r="5.6692901" cx="64.800003" cy="56.579498"  style="fill:none;stroke:#ffffff;stroke-width:0.57599998" gorn="0.3.1.28.1.1"/>
                </g>
            </g>
            <g id="g274"  gorn="0.3.1.29">
                <title id="title276" >element:U$8</title>
                <g id="g278"  gorn="0.3.1.29.1">
                    <title id="title280" >package:MOUNTINGHOLE_2.5_PLATED</title>
                    <circle id="circle282" r="5.6692901" cx="7.1999998" cy="56.579498"  style="fill:none;stroke:#ffffff;stroke-width:0.57599998" gorn="0.3.1.29.1.1"/>
                </g>
            </g>
            <g id="g284"  gorn="0.3.1.30">
                <title id="title286" >element:U$9</title>
                <g id="g288"  gorn="0.3.1.30.1">
                    <title id="title290" >package:MOUNTINGHOLE_2.5_PLATED</title>
                    <circle id="circle292" r="5.6692901" cx="7.1999998" cy="7.9369898"  style="fill:none;stroke:#ffffff;stroke-width:0.57599998" gorn="0.3.1.30.1.1"/>
                </g>
            </g>
            <g id="g294"  gorn="0.3.1.31">
                <title id="title296" >element:U$10</title>
                <g id="g298"  gorn="0.3.1.31.1">
                    <title id="title300" >package:MOUNTINGHOLE_2.5_PLATED</title>
                    <circle id="circle302" r="5.6692901" cx="64.800003" cy="7.9369898"  style="fill:none;stroke:#ffffff;stroke-width:0.57599998" gorn="0.3.1.31.1.1"/>
                </g>
            </g>
            <g id="g304"  gorn="0.3.1.32">
                <title id="title306" >element:U$11</title>
                <g id="g308"  gorn="0.3.1.32.1">
                    <title id="title310" >package:ADAFRUIT_3.5MM</title>
                </g>
            </g>
            <g id="g312"  gorn="0.3.1.33">
                <title id="title314" >element:U1</title>
                <g id="g316"  gorn="0.3.1.33.1">
                    <title id="title318" >package:SOT23-8</title>
                    <line id="line320" y1="42.570702" y2="42.570702"  x1="39.968498" x2="40.5354" style="stroke:#ffffff;stroke-width:0.57599998;stroke-linecap:round" gorn="0.3.1.33.1.1"/>
                    <line id="line322" y1="42.570702" y2="37.468399"  x1="40.5354" x2="40.5354" style="stroke:#ffffff;stroke-width:0.57599998;stroke-linecap:round" gorn="0.3.1.33.1.2"/>
                    <line id="line324" y1="37.468399" y2="37.468399"  x1="40.5354" x2="39.968498" style="stroke:#ffffff;stroke-width:0.57599998;stroke-linecap:round" gorn="0.3.1.33.1.3"/>
                    <line id="line326" y1="42.570702" y2="42.570702"  x1="32.031502" x2="31.4646" style="stroke:#ffffff;stroke-width:0.57599998;stroke-linecap:round" gorn="0.3.1.33.1.4"/>
                    <line id="line328" y1="42.570702" y2="37.468399"  x1="31.4646" x2="31.4646" style="stroke:#ffffff;stroke-width:0.57599998;stroke-linecap:round" gorn="0.3.1.33.1.5"/>
                    <line id="line330" y1="37.468399" y2="37.468399"  x1="31.4646" x2="32.031502" style="stroke:#ffffff;stroke-width:0.57599998;stroke-linecap:round" gorn="0.3.1.33.1.6"/>
                    <circle id="circle332" r="0.283465" cx="41.527599" cy="38.7439"  style="fill:none;stroke:#ffffff;stroke-width:0.57599998" gorn="0.3.1.33.1.7"/>
                </g>
            </g>
        </g>
        <g  transform="matrix(0,1,-1,0,48.6935,25.9597)">
            <g id="g334"  gorn="0.3.2.0">
                <rect id="connector5pin" width="3.68504"  x="9.5243797" y="35.200699" height="4.2519698" style="fill:#9a916c;stroke:none;stroke-width:0" gorn="0.3.2.0.0"/>
            </g>
        </g>
        <g  transform="matrix(0,1,-1,0,54.0793,31.3455)">
            <g id="g337"  gorn="0.3.3.0">
                <rect id="connector6pin" width="3.68504"  x="9.5243797" y="40.586498" height="4.2519698" style="fill:#9a916c;stroke:none;stroke-width:0" gorn="0.3.3.0.0"/>
            </g>
        </g>
        <rect id="connector7pin" width="2.83465"  x="63.813499" y="15.6897" rx="1.41732" ry="1.41732" height="2.83465" style="fill:#9a916c;stroke:none;stroke-width:0" gorn="0.3.4"/>
        <rect id="connector8pin" width="2.83465"  x="1.82268" y="46.522202" rx="1.41732" ry="1.41732" height="2.83465" style="fill:#9a916c;stroke:none;stroke-width:0" gorn="0.3.5"/>
        <circle r="2.25666" cx="31.181101" cy="10.2047"  connectorname="VIN-" style="fill:none;stroke:#9a916c;stroke-width:1.67867994" gorn="0.3.6"/>
        <circle r="2.25666" cx="41.102402" cy="10.2047"  connectorname="VIN+" style="fill:none;stroke:#9a916c;stroke-width:1.67867994" gorn="0.3.7"/>
        <circle id="connector11pin" r="1.96866" cx="19.08" cy="55.859501"  connectorname="VCC" style="fill:none;stroke:#9a916c;stroke-width:1.10267997" gorn="0.3.8"/>
        <rect id="rect345" width="3.93732"  x="17.1113" y="53.8908" height="3.93732" style="fill:none;stroke:#9a916c;stroke-width:1.10267997" gorn="0.3.9"/>
        <circle id="connector12pin" r="1.96866" cx="26.280001" cy="55.859501"  connectorname="GND" style="fill:none;stroke:#9a916c;stroke-width:1.10267997" gorn="0.3.10"/>
        <circle id="connector13pin" r="1.96866" cx="33.48" cy="55.859501"  connectorname="SCL" style="fill:none;stroke:#9a916c;stroke-width:1.10267997" gorn="0.3.11"/>
        <circle id="connector14pin" r="1.96866" cx="40.68" cy="55.859501"  connectorname="SDA" style="fill:none;stroke:#9a916c;stroke-width:1.10267997" gorn="0.3.12"/>
        <circle id="connector15pin" r="1.96866" cx="47.880001" cy="55.859501"  connectorname="VIN-" style="fill:none;stroke:#9a916c;stroke-width:1.10267997" gorn="0.3.13"/>
        <circle id="connector16pin" r="1.96866" cx="55.080002" cy="55.859501"  connectorname="VIN+" style="fill:none;stroke:#9a916c;stroke-width:1.10267997" gorn="0.3.14"/>
        <rect id="connector17pin" width="3.68504"  x="47.3046" y="42.213501" height="4.2519698" style="fill:#9a916c;stroke:none;stroke-width:0" gorn="0.3.15"/>
        <rect id="connector18pin" width="3.68504"  x="52.690399" y="42.213501" height="4.2519698" style="fill:#9a916c;stroke:none;stroke-width:0" gorn="0.3.16"/>
        <rect id="connector19pin" width="3.68504"  x="47.3046" y="35.036201" height="4.2519698" style="fill:#9a916c;stroke:none;stroke-width:0" gorn="0.3.17"/>
        <rect id="connector20pin" width="3.68504"  x="52.690399" y="35.036201" height="4.2519698" style="fill:#9a916c;stroke:none;stroke-width:0" gorn="0.3.18"/>
        <g  transform="matrix(0,-1,1,0,-24.1455,61.2793)">
            <g id="g356"  gorn="0.3.19.0">
                <rect id="connector21pin" width="3.68504"  x="16.7244" y="40.586498" height="4.2519698" style="fill:#9a916c;stroke:none;stroke-width:0" gorn="0.3.19.0.0"/>
            </g>
        </g>
        <g  transform="matrix(0,-1,1,0,-18.7597,55.8935)">
            <g id="g359"  gorn="0.3.20.0">
                <rect id="connector22pin" width="3.68504"  x="16.7244" y="35.200699" height="4.2519698" style="fill:#9a916c;stroke:none;stroke-width:0" gorn="0.3.20.0.0"/>
            </g>
        </g>
        <g  transform="matrix(0,-1,1,0,-17.5124,67.9124)">
            <g id="g362"  gorn="0.3.21.0">
                <rect id="connector23pin" width="3.68504"  x="23.357401" y="40.586498" height="4.2519698" style="fill:#9a916c;stroke:none;stroke-width:0" gorn="0.3.21.0.0"/>
            </g>
        </g>
        <g  transform="matrix(0,-1,1,0,-12.1266,62.5266)">
            <g id="g365"  gorn="0.3.22.0">
                <rect id="connector24pin" width="3.68504"  x="23.357401" y="35.200699" height="4.2519698" style="fill:#9a916c;stroke:none;stroke-width:0" gorn="0.3.22.0.0"/>
            </g>
        </g>
        <rect id="connector25pin" width="5.1023598"  x="25.511801" y="20.8601" height="9.0708504" style="fill:#9a916c;stroke:none;stroke-width:0" gorn="0.3.23"/>
        <rect id="connector26pin" width="5.1023598"  x="41.385799" y="20.8601" height="9.0708504" style="fill:#9a916c;stroke:none;stroke-width:0" gorn="0.3.24"/>
        <g  transform="matrix(-1,0,0,-1,129.6,88.6788)">
            <g id="g370"  gorn="0.3.25.0">
                <rect id="connector27pin" width="3.312"  x="63.144001" y="42.071499" height="4.5359998" style="fill:#9a916c;stroke:none;stroke-width:0" gorn="0.3.25.0.0"/>
            </g>
        </g>
        <g  transform="matrix(-1,0,0,-1,120.96,88.6788)">
            <g id="g373"  gorn="0.3.26.0">
                <rect id="connector28pin" width="3.312"  x="58.824001" y="42.071499" height="4.5359998" style="fill:#9a916c;stroke:none;stroke-width:0" gorn="0.3.26.0.0"/>
            </g>
        </g>
        <g  transform="matrix(-1,0,0,-1,129.6,74.3242)">
            <g id="g376"  gorn="0.3.27.0">
                <rect id="connector29pin" width="3.312"  x="63.144001" y="34.894199" height="4.5359998" style="fill:#9a916c;stroke:none;stroke-width:0" gorn="0.3.27.0.0"/>
            </g>
        </g>
        <g  transform="matrix(-1,0,0,-1,120.96,74.3242)">
            <g id="g379"  gorn="0.3.28.0">
                <rect id="connector30pin" width="3.312"  x="58.824001" y="34.894199" height="4.5359998" style="fill:#9a916c;stroke:none;stroke-width:0" gorn="0.3.28.0.0"/>
            </g>
        </g>
        <circle id="connector31pin" r="4.0393701" cx="64.800003" cy="56.579498"  connectorname="P$1" style="fill:none;stroke:#9a916c;stroke-width:0.99212402" gorn="0.3.29"/>
        <circle id="connector32pin" r="4.0393701" cx="7.1999998" cy="56.579498"  connectorname="P$1" style="fill:none;stroke:#9a916c;stroke-width:0.99212402" gorn="0.3.30"/>
        <circle id="connector33pin" r="4.0393701" cx="7.1999998" cy="7.9369898"  connectorname="P$1" style="fill:none;stroke:#9a916c;stroke-width:0.99212402" gorn="0.3.31"/>
        <circle id="connector34pin" r="4.0393701" cx="64.800003" cy="7.9369898"  connectorname="P$1" style="fill:none;stroke:#9a916c;stroke-width:0.99212402" gorn="0.3.32"/>
        <g  transform="matrix(-1,0,0,-1,77.5274,72.6689)">
            <g id="g386"  gorn="0.3.33.0">
                <rect id="connector35pin" width="1.13386"  x="38.196899" y="34.633701" height="3.4015801" style="fill:#9a916c;stroke:none;stroke-width:0" gorn="0.3.33.0.0"/>
            </g>
        </g>
        <g  transform="matrix(-1,0,0,-1,73.8425,72.6689)">
            <g id="g389"  gorn="0.3.34.0">
                <rect id="connector36pin" width="1.13386"  x="36.354301" y="34.633701" height="3.4015801" style="fill:#9a916c;stroke:none;stroke-width:0" gorn="0.3.34.0.0"/>
            </g>
        </g>
        <g  transform="matrix(-1,0,0,-1,70.1574,72.6689)">
            <g id="g392"  gorn="0.3.35.0">
                <rect id="connector37pin" width="1.13386"  x="34.511799" y="34.633701" height="3.4015801" style="fill:#9a916c;stroke:none;stroke-width:0" gorn="0.3.35.0.0"/>
            </g>
        </g>
        <g  transform="matrix(-1,0,0,-1,66.4724,72.6689)">
            <g id="g395"  gorn="0.3.36.0">
                <rect id="connector38pin" width="1.13386"  x="32.6693" y="34.633701" height="3.4015801" style="fill:#9a916c;stroke:none;stroke-width:0" gorn="0.3.36.0.0"/>
            </g>
        </g>
        <g  transform="matrix(-1,0,0,-1,66.4724,87.4094)">
            <g id="g398"  gorn="0.3.37.0">
                <rect id="connector39pin" width="1.13386"  x="32.6693" y="42.003799" height="3.4015801" style="fill:#9a916c;stroke:none;stroke-width:0" gorn="0.3.37.0.0"/>
            </g>
        </g>
        <g  transform="matrix(-1,0,0,-1,70.1574,87.4094)">
            <g id="g401"  gorn="0.3.38.0">
                <rect id="connector40pin" width="1.13386"  x="34.511799" y="42.003799" height="3.4015801" style="fill:#9a916c;stroke:none;stroke-width:0" gorn="0.3.38.0.0"/>
            </g>
        </g>
        <g  transform="matrix(-1,0,0,-1,73.8425,87.4094)">
            <g id="g404"  gorn="0.3.39.0">
                <rect id="connector41pin" width="1.13386"  x="36.354301" y="42.003799" height="3.4015801" style="fill:#9a916c;stroke:none;stroke-width:0" gorn="0.3.39.0.0"/>
            </g>
        </g>
        <g  transform="matrix(-1,0,0,-1,77.5274,87.4094)">
            <g id="g407"  gorn="0.3.40.0">
                <rect id="connector42pin" width="1.13386"  x="38.196899" y="42.003799" height="3.4015801" style="fill:#9a916c;stroke:none;stroke-width:0" gorn="0.3.40.0.0"/>
            </g>
        </g>
    </g>
    <g  transform="translate(8.4614023,38.244612)">
        <g id="0805-cap"  gorn="0.4.0">
            <g  transform="matrix(0,1,-1,0,4.606,-1.063)">
                <g id="g411"  gorn="0.4.0.0.0">
                    <path id="path413" d="m 5.386,3.543 -5.103,0 C 0.127,3.543 0,3.416 0,3.26 L 0,0.283 C 0,0.127 0.127,0 0.283,0 l 5.102,0 c 0.157,0 0.283,0.127 0.283,0.283 l 0,2.977 C 5.669,3.416 5.542,3.543 5.386,3.543 Z"  style="fill:#dcdcdc" gorn="0.4.0.0.0.0"/>
                    <rect id="rect415" width="3.543"  x="1.063" y="0" height="3.543" style="fill:#6e554b" gorn="0.4.0.0.0.1"/>
                </g>
            </g>
        </g>
    </g>
    <g  transform="translate(24.9538,-0.24308076)">
        <g id="termblock_1x2-3.5mm"  gorn="0.5.0">
            <g  transform="matrix(-1,0,0,-1,22.1105,19.8426)">
                <g id="g418"  gorn="0.5.0.0.0">
                    <metadata id="metadata31" >
                        <rdf:RDF xmlns:rdf="http://www.w3.org/1999/02/22-rdf-syntax-ns#">
                            <cc:Work xmlns:cc="http://creativecommons.org/ns#" rdf:about="" xmlns:rdf="http://www.w3.org/1999/02/22-rdf-syntax-ns#">
                                <dc:format xmlns:dc="http://purl.org/dc/elements/1.1/">image/svg+xml</dc:format>
                                <dc:type rdf:resource="http://purl.org/dc/dcmitype/StillImage" xmlns:dc="http://purl.org/dc/elements/1.1/" xmlns:rdf="http://www.w3.org/1999/02/22-rdf-syntax-ns#"/>
                                <dc:title xmlns:dc="http://purl.org/dc/elements/1.1/"/>
                            </cc:Work>
                        </rdf:RDF>
                    </metadata>
                    <defs id="defs29" />
                    <rect id="rect3" width="2.26794"  x="18.708599" y="12.1887" height="5.1018801" style="fill:#0c3878" gorn="0.5.0.0.0.2"/>
                    <rect id="rect5" width="2.26794"  x="19.8426" y="1.13397" height="2.26794" style="fill:#0c3878" gorn="0.5.0.0.0.3"/>
                    <g  transform="scale(1.2499696,1.2499696)">
                        <polygon id="polygon7"  points="0,10.8848 0,12.6992 0.9072,12.6992 0.9072,14.74 16.7808,14.74 16.7808,12.6992 15.8744,12.6992 15.8744,10.8848 16.7808,10.8848 16.7808,0 0.9072,0 0.9072,10.8848 " style="fill:#015dd9" gorn="0.5.0.0.0.4.0"/>
                    </g>
                    <circle id="circle9" r="3.6849101" cx="6.0948501" cy="9.9207401"  style="fill:#b4b4b4" gorn="0.5.0.0.0.5"/>
                    <circle id="circle11" r="3.6849101" cx="16.0156" cy="9.9207401"  style="fill:#b4b4b4" gorn="0.5.0.0.0.6"/>
                    <rect id="rect13" width="7.3698502"  x="2.55094" y="1.41697" height="2.8349299" style="fill:#0c3878" gorn="0.5.0.0.0.7"/>
                    <rect id="rect15" width="7.3698502"  x="11.3387" y="1.41697" height="2.8349299" style="fill:#0c3878" gorn="0.5.0.0.0.8"/>
                    <g  transform="scale(1.2499696,1.2499696)">
                        <polygon id="polygon17"  points="6.0096,14.4712 6.0096,15.8744 11.6784,15.8744 11.6784,14.4712 13.9464,14.4712 13.9464,15.8744 16.7808,15.8744 16.7808,13.6064 0.9072,13.6064 0.9072,15.8744 3.7416,15.8744 3.7416,14.4712 " style="fill:#0c3878" gorn="0.5.0.0.0.9.0"/>
                    </g>
                    <rect id="connector10pin" width="8.5037804"  x="1.84296" y="17.8046" height="1.70096" style="fill:#8c8c8c" gorn="0.5.0.0.0.10"/>
                    <rect id="connector9pin" width="8.5037804"  x="11.7637" y="17.8046" height="1.70096" style="fill:#8c8c8c" gorn="0.5.0.0.0.11"/>
                    <path id="path23" d="m 6.18185,6.96283 -1.64296,0.439989 0.513988,1.91696 -2.63294,0.705983 c 0.008,0.281993 0.038999,0.564986 0.114997,0.848981 0.075998,0.283992 0.190995,0.544987 0.324992,0.792979 L 5.492867,10.96174 6.006855,12.87869 7.649815,12.4387 7.135827,10.52175 9.768767,9.815766 C 9.760743,9.534773 9.729775,9.250781 9.653769,8.967786 9.5777687,8.684792 9.462774,8.421798 9.328777,8.173806 L 6.69583,8.87976 6.18185,6.96283 Z"  style="fill:#646464" gorn="0.5.0.0.0.12"/>
                    <path id="path25" d="m 13.4977,8.36582 -0.43999,1.64296 1.91695,0.513988 -0.705982,2.63294 c 0.247994,0.133996 0.508987,0.248993 0.792979,0.324992 0.283992,0.076 0.567986,0.106997 0.848981,0.114997 l 0.705983,-2.63294 1.91696,0.513987 0.439989,-1.64296 -1.91696,-0.513987 0.705983,-2.63294 C 17.5146,6.55284 17.2536,6.43784 16.9696,6.36185 c -0.284,-0.07601 -0.568,-0.107 -0.849,-0.115 l -0.707,2.63291 -1.9159,-0.51394 z"  style="fill:#646464" gorn="0.5.0.0.0.13"/>
                </g>
            </g>
        </g>
    </g>
    <g  transform="translate(49.042425,42.503922)">
        <g id="0805-res"  gorn="0.6.0">
            <path id="path436" d="m 5.386,3.543 -5.103,0 C 0.127,3.543 0,3.416 0,3.26 L 0,0.283 C 0,0.127 0.127,0 0.283,0 l 5.102,0 c 0.157,0 0.283,0.127 0.283,0.283 l 0,2.977 C 5.669,3.416 5.542,3.543 5.386,3.543 Z"  style="fill:#dcdcdc" gorn="0.6.0.0"/>
            <rect id="rect438" width="3.543"  x="1.063" y="0" height="3.543" style="fill:#333333" gorn="0.6.0.1"/>
        </g>
    </g>
    <g  transform="translate(48.772172,35.326622)">
        <g id="g440"  gorn="0.7.0">
            <path id="path442" d="m 5.386,3.543 -5.103,0 C 0.127,3.543 0,3.416 0,3.26 L 0,0.283 C 0,0.127 0.127,0 0.283,0 l 5.102,0 c 0.157,0 0.283,0.127 0.283,0.283 l 0,2.977 C 5.669,3.416 5.542,3.543 5.386,3.543 Z"  style="fill:#dcdcdc" gorn="0.7.0.0"/>
            <rect id="rect444" width="3.543"  x="1.063" y="0" height="3.543" style="fill:#333333" gorn="0.7.0.1"/>
        </g>
    </g>
    <g  transform="translate(15.803448,38.346102)">
        <g id="g446"  gorn="0.8.0">
            <g  transform="matrix(0,-1,1,0,1.063,4.606)">
                <g id="g448"  gorn="0.8.0.0.0">
                    <path id="path450" d="m 5.386,3.543 -5.103,0 C 0.127,3.543 0,3.416 0,3.26 L 0,0.283 C 0,0.127 0.127,0 0.283,0 l 5.102,0 c 0.157,0 0.283,0.127 0.283,0.283 l 0,2.977 C 5.669,3.416 5.542,3.543 5.386,3.543 Z"  style="fill:#dcdcdc" gorn="0.8.0.0.0.0"/>
                    <rect id="rect452" width="3.543"  x="1.063" y="0" height="3.543" style="fill:#333333" gorn="0.8.0.0.0.1"/>
                </g>
            </g>
        </g>
    </g>
    <g  transform="translate(22.301422,38.210975)">
        <g id="g454"  gorn="0.9.0">
            <g  transform="matrix(0,-1,1,0,1.063,4.606)">
                <g id="g456"  gorn="0.9.0.0.0">
                    <path id="path458" d="m 5.386,3.543 -5.103,0 C 0.127,3.543 0,3.416 0,3.26 L 0,0.283 C 0,0.127 0.127,0 0.283,0 l 5.102,0 c 0.157,0 0.283,0.127 0.283,0.283 l 0,2.977 C 5.669,3.416 5.542,3.543 5.386,3.543 Z"  style="fill:#dcdcdc" gorn="0.9.0.0.0.0"/>
                    <rect id="rect460" width="3.543"  x="1.063" y="0" height="3.543" style="fill:#333333" gorn="0.9.0.0.0.1"/>
                </g>
            </g>
        </g>
    </g>
    <g  transform="translate(26.924212,20.967152)">
        <g id="2512"  gorn="0.10.0">
            <metadata id="metadata9672" >
                <rdf:RDF xmlns:rdf="http://www.w3.org/1999/02/22-rdf-syntax-ns#">
                    <cc:Work xmlns:cc="http://creativecommons.org/ns#" rdf:about="" xmlns:rdf="http://www.w3.org/1999/02/22-rdf-syntax-ns#">
                        <dc:format xmlns:dc="http://purl.org/dc/elements/1.1/">image/svg+xml</dc:format>
                        <dc:type rdf:resource="http://purl.org/dc/dcmitype/StillImage" xmlns:dc="http://purl.org/dc/elements/1.1/" xmlns:rdf="http://www.w3.org/1999/02/22-rdf-syntax-ns#"/>
                        <dc:title xmlns:dc="http://purl.org/dc/elements/1.1/"/>
                    </cc:Work>
                </rdf:RDF>
            </metadata>
            <defs id="defs9670" />
            <g  transform="matrix(2.47748,0,0,1.51376,0,0.0575911)">
                <g id="g466"  gorn="0.10.0.2.0">
                    <path id="path9433" d="m 7.02962,5.6696 -6.80322,0 C 0.1016,5.6696 0,5.568 0,5.4424 L 0,0.2264 C 0,0.1016 0.1016,0 0.2264,0 l 6.80319,0 c 0.1256,0 0.2264,0.1016 0.2264,0.2264 l 0,5.216 C 7.25681,5.568 7.15519,5.6696 7.02962,5.6696 Z"  style="fill:#dcdcdc" gorn="0.10.0.2.0.0"/>
                    <rect width="4.9888" id="rect9435"  x="1.1336" y="0" height="5.6696" style="fill:#333333" gorn="0.10.0.2.0.1"/>
                </g>
            </g>
        </g>
    </g>
    <g  transform="translate(49.1922,13.3014)">
        <g id="adafruit_3.5mm"  gorn="0.11.0">
            <path id="path471" d="M 9.77299,4.306 C 9.74099,4.106 9.63199,4.049 9.36999,3.965 9.171,3.901 7.83698,3.476 7.83698,3.476 c 0,0 -0.930002,-0.351 -1.619,0.146 C 6.125,3.688 6.029,3.765 5.932,3.846 6.014,3.749 6.09,3.653 6.156,3.56 6.651,2.87 6.299,1.941 6.299,1.941 6.299,1.941 5.872,0.607 5.807,0.408 5.7219997,0.146 5.665,0.038 5.465,0.006 5.265,-0.026 5.177,0.06 5.016,0.283 4.894,0.453 4.077,1.59 4.077,1.59 c 0,0 -0.621,0.777 -0.361,1.586 C 3.75,3.285 3.793,3.4 3.841,3.517 3.774,3.409 3.706,3.308 3.638,3.215 3.135,2.531 2.142,2.579 2.142,2.579 c 0,0 -1.4,-0.006 -1.61,-0.006 C 0.257,2.572 0.136,2.593 0.044,2.774 -0.047,2.955 0.007,3.065 0.17,3.287 c 0.124,0.169 0.952999,1.297 0.952999,1.297 0,0 0.546,0.830002 1.395,0.833998 0.114,0 0.236,-0.005 0.362,-0.014 -0.122,0.03 -0.24,0.064 -0.348,0.1 C 1.726,5.771 1.465,6.73 1.465,6.73 c 0,0 -0.438,1.32997 -0.503001,1.52898 -0.085997,0.261 -0.102996,0.38304 0.040001,0.52603 0.144,0.143 0.265,0.126 0.526,0.04 0.199,-0.06499 1.528,-0.50599 1.528,-0.50599 0,0 0.958003,-0.263 1.224,-1.07 0.036,-0.108 0.069,-0.225 0.1,-0.348 C 4.371,7.027 4.366,7.149 4.367,7.263 c 0.005,0.849002 0.835999,1.394 0.835999,1.394 0,0 1.13,0.826999 1.298,0.950998 C 6.724,9.76997 6.834,9.82397 7.015,9.73202 c 0.181,-0.092 0.201,-0.213 0.2,-0.488 -10e-4,-0.21 -0.009,-1.61 -0.009,-1.61 0,0 0.047,-0.993002 -0.639,-1.495 C 6.475,6.072 6.373,6.004 6.266,5.937 6.383,5.984 6.498,6.027 6.606,6.061 7.416,6.319 8.19,5.697 8.19,5.697 c 0,0 1.136,-0.819 1.306,-0.940997 C 9.71899,4.595 9.80503,4.507 9.77299,4.306 Z M 4.951,3.275 C 5.103,3.299 5.179,3.624 5.12,4.001 5.061,4.378 4.889,4.663 4.736,4.639 4.583,4.615 4.507,4.29 4.567,3.914 4.626,3.537 4.798,3.251 4.951,3.275 Z M 2.995,4.274 C 3.065,4.136 3.397,4.164 3.737003,4.337 4.077,4.51 4.295,4.762 4.225,4.9 4.155,5.038 3.823,5.01 3.483,4.837 3.143,4.664 2.925,4.412 2.995,4.274 Z M 4.026,6.152 C 3.757,6.422 3.449,6.552 3.34,6.443 3.231,6.334 3.36,6.027 3.63,5.757 3.899,5.487 4.206,5.357 4.316,5.466 4.425,5.575 4.295,5.882 4.026,6.152 Z M 5.51,6.785 C 5.372,6.855 5.12,6.637 4.947,6.298 4.773,5.958 4.744,5.625 4.882,5.555003 c 0.138,-0.069997 0.39,0.148 0.563,0.487 C 5.618,6.382 5.647,6.714 5.51,6.785 Z M 5.867,5.212 C 5.49,5.272 5.166,5.197 5.141,5.044 5.117,4.891 5.403,4.719 5.779,4.659 6.156,4.599 6.48,4.674 6.504998,4.827 6.529,4.98 6.244,5.152 5.867,5.212 Z"  style="fill:#dcdcdc" gorn="0.11.0.0"/>
        </g>
    </g>
    <g  transform="translate(31.761803,35.7676)">
        <g id="sot23-8"  gorn="0.12.0">
            <g  transform="matrix(-1,0,0,-1,8.50392,8.50392)">
                <g id="g474"  gorn="0.12.0.0.0">
                    <metadata id="metadata17" >
                        <rdf:RDF xmlns:rdf="http://www.w3.org/1999/02/22-rdf-syntax-ns#">
                            <cc:Work xmlns:cc="http://creativecommons.org/ns#" rdf:about="" xmlns:rdf="http://www.w3.org/1999/02/22-rdf-syntax-ns#">
                                <dc:format xmlns:dc="http://purl.org/dc/elements/1.1/">image/svg+xml</dc:format>
                                <dc:type rdf:resource="http://purl.org/dc/dcmitype/StillImage" xmlns:dc="http://purl.org/dc/elements/1.1/" xmlns:rdf="http://www.w3.org/1999/02/22-rdf-syntax-ns#"/>
                                <dc:title xmlns:dc="http://purl.org/dc/elements/1.1/"/>
                            </cc:Work>
                        </rdf:RDF>
                    </metadata>
                    <defs id="defs15" />
                    <g  transform="matrix(1,0,0,1.38881,0.363241,-3.30638)">
                        <g id="g8078"  gorn="0.12.0.0.0.2.0">
                            <rect id="rect480" width="0.90719998"  x="0.68000001" y="2.3807399" height="6.1231999" style="fill:#dcdcdc" gorn="0.12.0.0.0.2.0.0"/>
                            <rect width="0.90719998" id="rect8072"  x="2.52284" y="2.3807399" height="6.1231999" style="fill:#dcdcdc" gorn="0.12.0.0.0.2.0.1"/>
                            <rect id="rect8074" width="0.90719998"  x="4.3653498" y="2.3807399" height="6.1231999" style="fill:#dcdcdc" gorn="0.12.0.0.0.2.0.2"/>
                            <rect width="0.90719998" id="rect8076"  x="6.20788" y="2.3807399" height="6.1231999" style="fill:#dcdcdc" gorn="0.12.0.0.0.2.0.3"/>
                        </g>
                    </g>
                    <rect width="8.5039196" id="rect11"  x="0" y="1.88017" rx="0.56692898" height="4.9606299" style="fill:#303030" gorn="0.12.0.0.0.3"/>
                    <circle id="path8084" r="0.29837701" cx="0.71350801" cy="6.1817899"  style="fill:#4d4d4d;stroke:#cccccc;stroke-width:0;stroke-miterlimit:4;stroke-dasharray:none;stroke-dashoffset:11.71939468;stroke-opacity:1" gorn="0.12.0.0.0.4"/>
                </g>
            </g>
        </g>
    </g>
</svg>
