<?xml version='1.0' encoding='UTF-8' standalone='no'?>
<!-- Created with Fritzing (http://www.fritzing.org/) -->
<svg xmlns="http://www.w3.org/2000/svg" height="0.75in" width="0.7in" y="0in" x="0in"  viewBox="0 0 50.4 54" version="1.2" baseProfile="tiny">
    <desc >
        <referenceFile >Adafruit_BME280_pcb.svg</referenceFile>
    </desc>
    <desc >Fritzing footprint generated by brd2svg</desc>
    <g id="silkscreen"  gorn="0.2">
        <path d="M42.9943,53.712L7.4057,53.712A6.912,6.912,0,0,1,0.288,46.5888L0.288,7.41118A6.912,6.912,0,0,1,7.4057,0.288L42.9943,0.288A6.912,6.912,0,0,1,50.112,7.41118L50.112,46.5888A6.912,6.912,0,0,1,42.9943,53.712" stroke="white" fill="none"  stroke-width="0.576"/>
        <g >
            <title >element:JP2</title>
            <g >
                <title >package:1X07_ROUND_70</title>
            </g>
        </g>
    </g>
    <g id="copper1"  gorn="0.3">
        <g id="copper0"  gorn="0.3.0">
            <circle cx="3.6" stroke="#F7BD13" id="connector6pad" fill="none" connectorname="VIN" cy="46.8" r="1.96866"  stroke-width="1.10268" gorn="0.3.0.0"/>
            <circle cx="10.8" stroke="#F7BD13" id="connector7pad" fill="none" connectorname="3.3V" cy="46.8" r="1.96866"  stroke-width="1.10268" gorn="0.3.0.1"/>
            <circle cx="18" stroke="#F7BD13" id="connector8pad" fill="none" connectorname="GND" cy="46.8" r="1.96866"  stroke-width="1.10268" gorn="0.3.0.2"/>
            <circle cx="25.2" stroke="#F7BD13" id="connector9pad" fill="none" connectorname="SCK/SCL" cy="46.8" r="1.96866"  stroke-width="1.10268" gorn="0.3.0.3"/>
            <circle cx="32.4" stroke="#F7BD13" id="connector10pad" fill="none" connectorname="SDO/ADR" cy="46.8" r="1.96866"  stroke-width="1.10268" gorn="0.3.0.4"/>
            <circle cx="39.6" stroke="#F7BD13" id="connector11pad" fill="none" connectorname="SDI/SDA" cy="46.8" r="1.96866"  stroke-width="1.10268" gorn="0.3.0.5"/>
            <circle cx="46.8" stroke="#F7BD13" id="connector12pad" fill="none" connectorname="CS" cy="46.8" r="1.96866"  stroke-width="1.10268" gorn="0.3.0.6"/>
        </g>
    </g>
</svg>
