<?xml version='1.0' encoding='utf-8'?>
<!-- Generator: Adobe Illustrator 20.0.0, SVG Export Plug-In . SVG Version: 6.00 Build 0)  -->
<svg xmlns="http://www.w3.org/2000/svg" baseProfile="tiny" width="2.46in" viewBox="0 0 177.12 230.4"  xml:space="preserve" id="Layer_1" xmlns:xml="http://www.w3.org/XML/1998/namespace" x="0px" height="3.2in" gorn="0" y="0px" version="1.2">
    <desc >
        <referenceFile >Adafruit TFT 2.8 inch 320x240 Touch w microSD_breadboard.svg</referenceFile>
    </desc>
    <desc >Fritzing breadboard generated by brd2svg</desc>
    <g  id="breadboard" gorn="0.2">
        <g  id="icon" gorn="0.2.0">
            <path fill="#014CB1"  d="M177.12,223.2c0,3.976-3.224,7.2-7.2,7.2H7.2c-3.976,0-7.2-3.224-7.2-7.2c0-3.976,3.224-7.2,7.2-7.2h9.36V14.4H7.2C3.224,14.4,0,11.176,0,7.2c0,0,0,0,0,0C0,3.224,3.224,0,7.2,0c0,0,0,0,0,0h162.72c3.976,0,7.2,3.224,7.2,7.2s-3.224,7.2-7.2,7.2h-9.36V216h9.36C173.896,216,177.12,219.224,177.12,223.2 M18.743,7.2c0,0.783,0.635,1.417,1.417,1.417c0.783,0,1.417-0.635,1.417-1.417s-0.635-1.417-1.417-1.417C19.377,5.783,18.743,6.417,18.743,7.2z M25.943,7.2c0,0.783,0.635,1.417,1.417,1.417c0.783,0,1.417-0.635,1.417-1.417s-0.635-1.417-1.417-1.417C26.577,5.783,25.943,6.417,25.943,7.2z M33.143,7.2c0,0.783,0.635,1.417,1.417,1.417s1.417-0.635,1.417-1.417s-0.635-1.417-1.417-1.417S33.143,6.417,33.143,7.2z M40.343,7.2c0,0.783,0.635,1.417,1.417,1.417c0.783,0,1.417-0.635,1.417-1.417c0-0.783-0.635-1.417-1.417-1.417S40.343,6.417,40.343,7.2z M47.543,7.2c0,0.783,0.635,1.417,1.417,1.417s1.417-0.635,1.417-1.417s-0.635-1.417-1.417-1.417S47.543,6.417,47.543,7.2z M54.743,7.2c0,0.783,0.635,1.417,1.417,1.417s1.417-0.635,1.417-1.417s-0.635-1.417-1.417-1.417S54.743,6.417,54.743,7.2z M61.943,7.2c0,0.783,0.635,1.417,1.417,1.417c0.783,0,1.417-0.635,1.417-1.417c0-0.783-0.635-1.417-1.417-1.417C62.577,5.783,61.943,6.417,61.943,7.2z M69.143,7.2c0,0.783,0.635,1.417,1.417,1.417c0.783,0,1.417-0.635,1.417-1.417s-0.635-1.417-1.417-1.417C69.777,5.783,69.143,6.417,69.143,7.2z M76.342,7.2c0,0.783,0.635,1.417,1.417,1.417c0.783,0,1.417-0.635,1.417-1.417s-0.635-1.417-1.417-1.417C76.977,5.783,76.342,6.417,76.342,7.2z M83.542,7.2c0,0.783,0.635,1.417,1.417,1.417c0.783,0,1.417-0.635,1.417-1.417s-0.635-1.417-1.417-1.417C84.177,5.783,83.542,6.417,83.542,7.2z M90.742,7.2c0,0.783,0.635,1.417,1.417,1.417c0.783,0,1.417-0.635,1.417-1.417s-0.635-1.417-1.417-1.417C91.377,5.783,90.742,6.417,90.742,7.2z M97.942,7.2c0,0.783,0.635,1.417,1.417,1.417c0.783,0,1.417-0.635,1.417-1.417s-0.635-1.417-1.417-1.417C98.577,5.783,97.942,6.417,97.942,7.2z M105.142,7.2c0,0.783,0.635,1.417,1.417,1.417c0.783,0,1.417-0.635,1.417-1.417s-0.635-1.417-1.417-1.417C105.777,5.783,105.142,6.417,105.142,7.2z M112.342,7.2c0,0.783,0.635,1.417,1.417,1.417c0.783,0,1.417-0.635,1.417-1.417s-0.635-1.417-1.417-1.417C112.977,5.783,112.342,6.417,112.342,7.2z M119.542,7.2c0,0.783,0.635,1.417,1.417,1.417c0.783,0,1.417-0.635,1.417-1.417s-0.635-1.417-1.417-1.417C120.177,5.783,119.542,6.417,119.542,7.2z M126.742,7.2c0,0.783,0.635,1.417,1.417,1.417c0.783,0,1.417-0.635,1.417-1.417s-0.635-1.417-1.417-1.417C127.377,5.783,126.742,6.417,126.742,7.2z M133.942,7.2c0,0.783,0.635,1.417,1.417,1.417s1.417-0.635,1.417-1.417s-0.635-1.417-1.417-1.417S133.942,6.417,133.942,7.2z M141.142,7.2c0,0.783,0.635,1.417,1.417,1.417s1.417-0.635,1.417-1.417s-0.635-1.417-1.417-1.417S141.142,6.417,141.142,7.2z M148.342,7.2c0,0.783,0.635,1.417,1.417,1.417s1.417-0.635,1.417-1.417s-0.635-1.417-1.417-1.417S148.342,6.417,148.342,7.2z M155.542,7.2c0,0.783,0.635,1.417,1.417,1.417s1.417-0.635,1.417-1.417s-0.635-1.417-1.417-1.417S155.542,6.417,155.542,7.2z M18.743,223.2c0,0.783,0.635,1.417,1.417,1.417c0.783,0,1.417-0.635,1.417-1.417l0,0c0-0.783-0.635-1.417-1.417-1.417C19.377,221.783,18.743,222.417,18.743,223.2z M25.943,223.2c0,0.783,0.635,1.417,1.417,1.417c0.783,0,1.417-0.635,1.417-1.417l0,0c0-0.783-0.635-1.417-1.417-1.417C26.577,221.783,25.943,222.417,25.943,223.2z M33.143,223.2c0,0.783,0.635,1.417,1.417,1.417s1.417-0.635,1.417-1.417l0,0c0-0.783-0.635-1.417-1.417-1.417S33.143,222.417,33.143,223.2z M40.343,223.2c0,0.783,0.635,1.417,1.417,1.417c0.783,0,1.417-0.635,1.417-1.417c0-0.783-0.635-1.417-1.417-1.417S40.343,222.417,40.343,223.2z M47.543,223.2c0,0.783,0.635,1.417,1.417,1.417s1.417-0.635,1.417-1.417l0,0c0-0.783-0.635-1.417-1.417-1.417S47.543,222.417,47.543,223.2z M54.743,223.2c0,0.783,0.635,1.417,1.417,1.417s1.417-0.635,1.417-1.417l0,0c0-0.783-0.635-1.417-1.417-1.417S54.743,222.417,54.743,223.2z M61.943,223.2c0,0.783,0.635,1.417,1.417,1.417c0.783,0,1.417-0.635,1.417-1.417c0-0.783-0.635-1.417-1.417-1.417C62.577,221.783,61.943,222.417,61.943,223.2z M69.143,223.2c0,0.783,0.635,1.417,1.417,1.417c0.783,0,1.417-0.635,1.417-1.417l0,0c0-0.783-0.635-1.417-1.417-1.417C69.777,221.783,69.143,222.417,69.143,223.2z M76.342,223.2c0,0.783,0.635,1.417,1.417,1.417c0.783,0,1.417-0.635,1.417-1.417l0,0c0-0.783-0.635-1.417-1.417-1.417C76.977,221.783,76.342,222.417,76.342,223.2z M83.542,223.2c0,0.783,0.635,1.417,1.417,1.417c0.783,0,1.417-0.635,1.417-1.417l0,0c0-0.783-0.635-1.417-1.417-1.417C84.177,221.783,83.542,222.417,83.542,223.2z M90.742,223.2c0,0.783,0.635,1.417,1.417,1.417c0.783,0,1.417-0.635,1.417-1.417l0,0c0-0.783-0.635-1.417-1.417-1.417C91.377,221.783,90.742,222.417,90.742,223.2z M97.942,223.2c0,0.783,0.635,1.417,1.417,1.417c0.783,0,1.417-0.635,1.417-1.417l0,0c0-0.783-0.635-1.417-1.417-1.417C98.577,221.783,97.942,222.417,97.942,223.2z M105.142,223.2c0,0.783,0.635,1.417,1.417,1.417c0.783,0,1.417-0.635,1.417-1.417l0,0c0-0.783-0.635-1.417-1.417-1.417C105.777,221.783,105.142,222.417,105.142,223.2z M112.342,223.2c0,0.783,0.635,1.417,1.417,1.417c0.783,0,1.417-0.635,1.417-1.417l0,0c0-0.783-0.635-1.417-1.417-1.417C112.977,221.783,112.342,222.417,112.342,223.2z M119.542,223.2c0,0.783,0.635,1.417,1.417,1.417c0.783,0,1.417-0.635,1.417-1.417l0,0c0-0.783-0.635-1.417-1.417-1.417C120.177,221.783,119.542,222.417,119.542,223.2z M126.742,223.2c0,0.783,0.635,1.417,1.417,1.417c0.783,0,1.417-0.635,1.417-1.417l0,0c0-0.783-0.635-1.417-1.417-1.417C127.377,221.783,126.742,222.417,126.742,223.2z M133.942,223.2c0,0.783,0.635,1.417,1.417,1.417s1.417-0.635,1.417-1.417l0,0c0-0.783-0.635-1.417-1.417-1.417S133.942,222.417,133.942,223.2z M141.142,223.2c0,0.783,0.635,1.417,1.417,1.417s1.417-0.635,1.417-1.417l0,0c0-0.783-0.635-1.417-1.417-1.417S141.142,222.417,141.142,223.2z M148.342,223.2c0,0.783,0.635,1.417,1.417,1.417s1.417-0.635,1.417-1.417l0,0c0-0.783-0.635-1.417-1.417-1.417S148.342,222.417,148.342,223.2z M155.542,223.2c0,0.783,0.635,1.417,1.417,1.417s1.417-0.635,1.417-1.417l0,0c0-0.783-0.635-1.417-1.417-1.417S155.542,222.417,155.542,223.2z M165.308,223.2c-0.005,2.348,1.895,4.256,4.243,4.261s4.256-1.895,4.261-4.243c0-0.006,0-0.012,0-0.017c0.005-2.348-1.895-4.256-4.243-4.261s-4.256,1.895-4.261,4.243C165.308,223.188,165.308,223.194,165.308,223.2z M3.308,223.2c-0.005,2.348,1.895,4.256,4.243,4.261s4.256-1.895,4.261-4.243c0-0.006,0-0.012,0-0.018c0.005-2.348-1.894-4.256-4.243-4.261c-2.348-0.005-4.256,1.894-4.261,4.243C3.308,223.188,3.308,223.194,3.308,223.2z M165.308,7.2c-0.005,2.348,1.895,4.256,4.243,4.261c2.348,0.005,4.256-1.895,4.261-4.243c0-0.006,0-0.012,0-0.017c0.005-2.348-1.895-4.256-4.243-4.261s-4.256,1.895-4.261,4.243C165.308,7.188,165.308,7.194,165.308,7.2z M3.308,7.2c-0.005,2.348,1.895,4.256,4.243,4.261s4.256-1.895,4.261-4.243c0-0.006,0-0.012,0-0.018c0.005-2.348-1.894-4.256-4.243-4.261S3.313,4.833,3.308,7.182C3.308,7.188,3.308,7.194,3.308,7.2z"/>
            <g >
                <title >layer 21</title>
                <g >
                    <title >text:D6</title>
                    <g  transform="matrix(1 0 0 1 146.7408 14.976)">
                        <g >
                            <text fill="#FFFFFF" font-size="3.3408" font-family="'OCRA'" >D6</text>
                        </g>
                    </g>
                </g>
                <g >
                    <title >text:D5</title>
                    <g  transform="matrix(1 0 0 1 139.5408 14.976)">
                        <g >
                            <text fill="#FFFFFF" font-size="3.3408" font-family="'OCRA'" >D5</text>
                        </g>
                    </g>
                </g>
                <g >
                    <title >text:D4</title>
                    <g  transform="matrix(1 0 0 1 132.3408 14.976)">
                        <g >
                            <text fill="#FFFFFF" font-size="3.3408" font-family="'OCRA'" >D4</text>
                        </g>
                    </g>
                </g>
                <g >
                    <title >text:D3</title>
                    <g  transform="matrix(1 0 0 1 125.1408 14.976)">
                        <g >
                            <text fill="#FFFFFF" font-size="3.3408" font-family="'OCRA'" >D3</text>
                        </g>
                    </g>
                </g>
                <g >
                    <title >text:D7</title>
                    <g  transform="matrix(1 0 0 1 153.9408 14.976)">
                        <g >
                            <text fill="#FFFFFF" font-size="3.3408" font-family="'OCRA'" >D7</text>
                        </g>
                    </g>
                </g>
                <g >
                    <title >text:D2</title>
                    <g  transform="matrix(1 0 0 1 117.9408 14.976)">
                        <g >
                            <text fill="#FFFFFF" font-size="3.3408" font-family="'OCRA'" >D2</text>
                        </g>
                    </g>
                </g>
                <g >
                    <title >text:D1</title>
                    <g  transform="matrix(1 0 0 1 110.7408 14.976)">
                        <g >
                            <text fill="#FFFFFF" font-size="3.3408" font-family="'OCRA'" >D1</text>
                        </g>
                    </g>
                </g>
                <g >
                    <title >text:D0</title>
                    <g  transform="matrix(1 0 0 1 103.5408 14.976)">
                        <g >
                            <text fill="#FFFFFF" font-size="3.3408" font-family="'OCRA'" >D0</text>
                        </g>
                    </g>
                </g>
                <g >
                    <title >text:Y-</title>
                    <g  transform="matrix(1 0 0 1 96.3408 14.976)">
                        <g >
                            <text fill="#FFFFFF" font-size="3.3408" font-family="'OCRA'" >Y-</text>
                        </g>
                    </g>
                </g>
                <g >
                    <title >text:X-</title>
                    <g  transform="matrix(1 0 0 1 89.1408 14.976)">
                        <g >
                            <text fill="#FFFFFF" font-size="3.3408" font-family="'OCRA'" >X-</text>
                        </g>
                    </g>
                </g>
                <g >
                    <title >text:Y+</title>
                    <g  transform="matrix(1 0 0 1 81.9408 14.976)">
                        <g >
                            <text fill="#FFFFFF" font-size="3.3408" font-family="'OCRA'" >Y+</text>
                        </g>
                    </g>
                </g>
                <g >
                    <title >text:X+</title>
                    <g  transform="matrix(1 0 0 1 74.7408 14.976)">
                        <g >
                            <text fill="#FFFFFF" font-size="3.3408" font-family="'OCRA'" >X+</text>
                        </g>
                    </g>
                </g>
                <g >
                    <title >text:Lite</title>
                    <g  transform="matrix(1 0 0 1 65.2416 4.32)">
                        <g >
                            <text fill="#FFFFFF" font-size="3.3408" font-family="'OCRA'" >Lite</text>
                        </g>
                    </g>
                </g>
                <g >
                    <title >text:RST</title>
                    <g  transform="matrix(1 0 0 1 58.8312 14.976)">
                        <g >
                            <text fill="#FFFFFF" font-size="3.3408" font-family="'OCRA'" >RST</text>
                        </g>
                    </g>
                </g>
                <g >
                    <title >text:RD</title>
                    <g  transform="matrix(1 0 0 1 53.5008 4.32)">
                        <g >
                            <text fill="#FFFFFF" font-size="3.3408" font-family="'OCRA'" >RD</text>
                        </g>
                    </g>
                </g>
                <g >
                    <title >text:WR</title>
                    <g  transform="matrix(1 0 0 1 45.9408 14.976)">
                        <g >
                            <text fill="#FFFFFF" font-size="3.3408" font-family="'OCRA'" >WR</text>
                        </g>
                    </g>
                </g>
                <g >
                    <title >text:C/D</title>
                    <g  transform="matrix(1 0 0 1 37.5912 4.32)">
                        <g >
                            <text fill="#FFFFFF" font-size="3.3408" font-family="'OCRA'" >C/D</text>
                        </g>
                    </g>
                </g>
                <g >
                    <title >text:CS</title>
                    <g  transform="matrix(1 0 0 1 31.5408 14.976)">
                        <g >
                            <text fill="#FFFFFF" font-size="3.3408" font-family="'OCRA'" >CS</text>
                        </g>
                    </g>
                </g>
                <g >
                    <title >text:Vin</title>
                    <g  transform="matrix(1 0 0 1 22.8312 3.96)">
                        <g >
                            <text fill="#FFFFFF" font-size="3.3408" font-family="'OCRA'" >Vin</text>
                        </g>
                    </g>
                </g>
                <g >
                    <title >text:GND</title>
                    <g  transform="matrix(1 0 0 1 15.6312 14.616)">
                        <g >
                            <text fill="#FFFFFF" font-size="3.3408" font-family="'OCRA'" >GND</text>
                        </g>
                    </g>
                </g>
                <g >
                    <title >text:CD</title>
                    <g  transform="matrix(1 0 0 1 153.9408 219.96)">
                        <g >
                            <text fill="#FFFFFF" font-size="3.3408" font-family="'OCRA'" >CD</text>
                        </g>
                    </g>
                </g>
                <g >
                    <title >text:CCS</title>
                    <g  transform="matrix(1 0 0 1 145.2312 229.6798)">
                        <g >
                            <text fill="#FFFFFF" font-size="3.3408" font-family="'OCRA'" >CCS</text>
                        </g>
                    </g>
                </g>
                <g >
                    <title >text:IM0</title>
                    <g  transform="matrix(1 0 0 1 138.0312 219.96)">
                        <g >
                            <text fill="#FFFFFF" font-size="3.3408" font-family="'OCRA'" >IM0</text>
                        </g>
                    </g>
                </g>
                <g >
                    <title >text:IM1</title>
                    <g  transform="matrix(1 0 0 1 130.8312 229.6798)">
                        <g >
                            <text fill="#FFFFFF" font-size="3.3408" font-family="'OCRA'" >IM1</text>
                        </g>
                    </g>
                </g>
                <g >
                    <title >text:IM2</title>
                    <g  transform="matrix(1 0 0 1 123.6312 219.96)">
                        <g >
                            <text fill="#FFFFFF" font-size="3.3408" font-family="'OCRA'" >IM2</text>
                        </g>
                    </g>
                </g>
                <g >
                    <title >text:IM3</title>
                    <g  transform="matrix(1 0 0 1 116.4312 229.6798)">
                        <g >
                            <text fill="#FFFFFF" font-size="3.3408" font-family="'OCRA'" >IM3</text>
                        </g>
                    </g>
                </g>
                <g >
                    <title >text:X-</title>
                    <g  transform="matrix(1 0 0 1 110.7408 219.96)">
                        <g >
                            <text fill="#FFFFFF" font-size="3.3408" font-family="'OCRA'" >X-</text>
                        </g>
                    </g>
                </g>
                <g >
                    <title >text:Y-</title>
                    <g  transform="matrix(1 0 0 1 103.5408 229.6798)">
                        <g >
                            <text fill="#FFFFFF" font-size="3.3408" font-family="'OCRA'" >Y-</text>
                        </g>
                    </g>
                </g>
                <g >
                    <title >text:X+</title>
                    <g  transform="matrix(1 0 0 1 96.3408 219.96)">
                        <g >
                            <text fill="#FFFFFF" font-size="3.3408" font-family="'OCRA'" >X+</text>
                        </g>
                    </g>
                </g>
                <g >
                    <title >text:Y+</title>
                    <g  transform="matrix(1 0 0 1 89.1408 229.6798)">
                        <g >
                            <text fill="#FFFFFF" font-size="3.3408" font-family="'OCRA'" >Y+</text>
                        </g>
                    </g>
                </g>
                <g >
                    <title >text:Lite</title>
                    <g  transform="matrix(1 0 0 1 78.9216 219.96)">
                        <g >
                            <text fill="#FFFFFF" font-size="3.3408" font-family="'OCRA'" >Lite</text>
                        </g>
                    </g>
                </g>
                <g >
                    <title >text:RST</title>
                    <g  transform="matrix(1 0 0 1 73.2312 229.6798)">
                        <g >
                            <text fill="#FFFFFF" font-size="3.3408" font-family="'OCRA'" >RST</text>
                        </g>
                    </g>
                </g>
                <g >
                    <title >text:D/C</title>
                    <g  transform="matrix(1 0 0 1 66.0312 220.32)">
                        <g >
                            <text fill="#FFFFFF" font-size="3.3408" font-family="'OCRA'" >D/C</text>
                        </g>
                    </g>
                </g>
                <g >
                    <title >text:CS</title>
                    <g  transform="matrix(1 0 0 1 60.3408 229.6798)">
                        <g >
                            <text fill="#FFFFFF" font-size="3.3408" font-family="'OCRA'" >CS</text>
                        </g>
                    </g>
                </g>
                <g >
                    <title >text:MOSI</title>
                    <g  transform="matrix(1 0 0 1 50.1216 219.96)">
                        <g >
                            <text fill="#FFFFFF" font-size="3.3408" font-family="'OCRA'" >MOSI</text>
                        </g>
                    </g>
                </g>
                <g >
                    <title >text:MISO</title>
                    <g  transform="matrix(1 0 0 1 42.9216 229.6798)">
                        <g >
                            <text fill="#FFFFFF" font-size="3.3408" font-family="'OCRA'" >MISO</text>
                        </g>
                    </g>
                </g>
                <g >
                    <title >text:CLK</title>
                    <g  transform="matrix(1 0 0 1 37.2312 219.96)">
                        <g >
                            <text fill="#FFFFFF" font-size="3.3408" font-family="'OCRA'" >CLK</text>
                        </g>
                    </g>
                </g>
                <g >
                    <title >text:3Vo</title>
                    <g  transform="matrix(1 0 0 1 30.0312 229.6798)">
                        <g >
                            <text fill="#FFFFFF" font-size="3.3408" font-family="'OCRA'" >3Vo</text>
                        </g>
                    </g>
                </g>
                <g >
                    <title >text:Vin</title>
                    <g  transform="matrix(1 0 0 1 22.8312 220.32)">
                        <g >
                            <text fill="#FFFFFF" font-size="3.3408" font-family="'OCRA'" >Vin</text>
                        </g>
                    </g>
                </g>
                <g >
                    <title >text:GND</title>
                    <g  transform="matrix(1 0 0 1 15.6312 229.68)">
                        <g >
                            <text fill="#FFFFFF" font-size="3.3408" font-family="'OCRA'" >GND</text>
                        </g>
                    </g>
                </g>
                <g >
                    <title >element:C1</title>
                    <g >
                        <title >package:0805-NO</title>
                    </g>
                </g>
                <g >
                    <title >element:C2</title>
                    <g >
                        <title >package:0805-NO</title>
                    </g>
                </g>
                <g >
                    <title >element:C3</title>
                    <g >
                        <title >package:0805-NO</title>
                    </g>
                </g>
                <g >
                    <title >element:C4</title>
                    <g >
                        <title >package:0805-NO</title>
                    </g>
                </g>
                <g >
                    <title >element:C5</title>
                    <g >
                        <title >package:0805-NO</title>
                    </g>
                </g>
                <g >
                    <title >element:IC1</title>
                    <g >
                        <title >package:SOT23-5L</title>
                    </g>
                </g>
                <g >
                    <title >element:IC2</title>
                    <g >
                        <title >package:SO20W</title>
                    </g>
                </g>
                <g >
                    <title >element:IC3</title>
                    <g >
                        <title >package:SO20W</title>
                    </g>
                </g>
                <g >
                    <title >element:IC4</title>
                    <g >
                        <title >package:SOT23</title>
                    </g>
                </g>
                <g >
                    <title >element:JP1</title>
                    <g >
                        <title >package:1X20_ROUND</title>
                    </g>
                </g>
                <g >
                    <title >element:JP2</title>
                    <g >
                        <title >package:1X20_ROUND</title>
                    </g>
                </g>
                <g >
                    <title >element:Q1</title>
                    <g >
                        <title >package:SOT23-BEC</title>
                    </g>
                </g>
                <g >
                    <title >element:R1</title>
                    <g >
                        <title >package:0805-NO</title>
                    </g>
                </g>
                <g >
                    <title >element:R2</title>
                    <g >
                        <title >package:0805-NO</title>
                    </g>
                </g>
                <g >
                    <title >element:R3</title>
                    <g >
                        <title >package:0805-NO</title>
                    </g>
                </g>
                <g >
                    <title >element:R4</title>
                    <g >
                        <title >package:0805-NO</title>
                    </g>
                </g>
                <g >
                    <title >element:R5</title>
                    <g >
                        <title >package:0805-NO</title>
                    </g>
                </g>
                <g >
                    <title >element:R6</title>
                    <g >
                        <title >package:R0805</title>
                    </g>
                </g>
                <g >
                    <title >element:R7</title>
                    <g >
                        <title >package:0805-NO</title>
                    </g>
                </g>
                <g >
                    <title >element:R8</title>
                    <g >
                        <title >package:0805-NO</title>
                    </g>
                </g>
                <g >
                    <title >element:R9</title>
                    <g >
                        <title >package:0805-NO</title>
                    </g>
                </g>
                <g >
                    <title >element:R10</title>
                    <g >
                        <title >package:0805-NO</title>
                    </g>
                </g>
                <g >
                    <title >element:R11</title>
                    <g >
                        <title >package:0805-NO</title>
                    </g>
                </g>
                <g >
                    <title >element:R12</title>
                    <g >
                        <title >package:0805-NO</title>
                    </g>
                </g>
                <g >
                    <title >element:SJ1</title>
                    <g >
                        <title >package:SOLDERJUMPER_ARROW_NOPASTE</title>
                    </g>
                </g>
                <g >
                    <title >element:SJ2</title>
                    <g >
                        <title >package:SOLDERJUMPER_ARROW_NOPASTE</title>
                    </g>
                </g>
                <g >
                    <title >element:SJ3</title>
                    <g >
                        <title >package:SOLDERJUMPER_ARROW_NOPASTE</title>
                    </g>
                </g>
                <g >
                    <title >element:SJ4</title>
                    <g >
                        <title >package:SOLDERJUMPER_ARROW_NOPASTE</title>
                    </g>
                </g>
                <g >
                    <title >element:U$7</title>
                    <g >
                        <title >package:MOUNTINGHOLE_3.0_PLATEDTHIN</title>
                    </g>
                </g>
                <g >
                    <title >element:U$9</title>
                    <g >
                        <title >package:FIDUCIAL_1MM</title>
                    </g>
                </g>
                <g >
                    <title >element:U$10</title>
                    <g >
                        <title >package:TFT_2.83IN_240X320_50PIN</title>
                        <line x2="159.71" fill="none"  stroke="#FFFFFF" stroke-width="0.36" stroke-linecap="round" y1="17.291" y2="17.291" x1="17.41"/>
                        <line x2="159.71" fill="none"  stroke="#FFFFFF" stroke-width="0.36" stroke-linecap="round" y1="17.291" y2="214.016" x1="159.71"/>
                        <line x2="17.41" fill="none"  stroke="#FFFFFF" stroke-width="0.36" stroke-linecap="round" y1="214.016" y2="214.016" x1="159.71"/>
                        <line x2="17.41" fill="none"  stroke="#FFFFFF" stroke-width="0.36" stroke-linecap="round" y1="214.016" y2="17.291" x1="17.41"/>
                    </g>
                </g>
                <g >
                    <title >element:U$11</title>
                    <g >
                        <title >package:FIDUCIAL_1MM</title>
                    </g>
                </g>
                <g >
                    <title >element:U$15</title>
                    <g >
                        <title >package:MOUNTINGHOLE_3.0_PLATEDTHIN</title>
                    </g>
                </g>
                <g >
                    <title >element:U$16</title>
                    <g >
                        <title >package:MOUNTINGHOLE_3.0_PLATEDTHIN</title>
                    </g>
                </g>
                <g >
                    <title >element:U$17</title>
                    <g >
                        <title >package:MOUNTINGHOLE_3.0_PLATEDTHIN</title>
                    </g>
                </g>
                <g >
                    <title >element:U$19</title>
                    <g >
                        <title >package:ADAFRUIT_TEXT_30MM</title>
                    </g>
                </g>
                <g >
                    <title >element:U$23</title>
                    <g >
                        <title >package:FIDUCIAL_1MM</title>
                    </g>
                </g>
                <g >
                    <title >element:X1</title>
                    <g >
                        <title >package:MICROSD</title>
                    </g>
                </g>
            </g>
            <circle fill="none" r="1.897"  stroke="#9A916C" id="connector5pin" stroke-width="0.9587" gorn="0.2.0.2" cx="20.16" cy="7.2"/>
            <rect fill="none" width="3.793"  stroke="#9A916C" stroke-width="0.9587" x="18.263" height="3.793" y="5.303"/>
            <circle fill="none" r="1.897"  stroke="#9A916C" id="connector6pin" stroke-width="0.9587" gorn="0.2.0.4" cx="27.36" cy="7.2"/>
            <circle fill="none" r="1.897"  stroke="#9A916C" id="connector7pin" stroke-width="0.9587" gorn="0.2.0.5" cx="34.56" cy="7.2"/>
            <circle fill="none" r="1.897"  stroke="#9A916C" id="connector8pin" stroke-width="0.9587" gorn="0.2.0.6" cx="41.76" cy="7.2"/>
            <circle fill="none" r="1.897"  stroke="#9A916C" id="connector9pin" stroke-width="0.9587" gorn="0.2.0.7" cx="48.96" cy="7.2"/>
            <circle fill="none" r="1.897"  stroke="#9A916C" id="connector10pin" stroke-width="0.9587" gorn="0.2.0.8" cx="56.16" cy="7.2"/>
            <circle fill="none" r="1.897"  stroke="#9A916C" id="connector11pin" stroke-width="0.9587" gorn="0.2.0.9" cx="63.36" cy="7.2"/>
            <circle fill="none" r="1.897"  stroke="#9A916C" id="connector12pin" stroke-width="0.9587" gorn="0.2.0.10" cx="70.56" cy="7.2"/>
            <circle fill="none" r="1.897"  stroke="#9A916C" id="connector13pin" stroke-width="0.9587" gorn="0.2.0.11" cx="77.76" cy="7.2"/>
            <circle fill="none" r="1.897"  stroke="#9A916C" id="connector14pin" stroke-width="0.9587" gorn="0.2.0.12" cx="84.96" cy="7.2"/>
            <circle fill="none" r="1.897"  stroke="#9A916C" id="connector15pin" stroke-width="0.9587" gorn="0.2.0.13" cx="92.16" cy="7.2"/>
            <circle fill="none" r="1.897"  stroke="#9A916C" id="connector16pin" stroke-width="0.9587" gorn="0.2.0.14" cx="99.36" cy="7.2"/>
            <circle fill="none" r="1.897"  stroke="#9A916C" id="connector17pin" stroke-width="0.9587" gorn="0.2.0.15" cx="106.56" cy="7.2"/>
            <circle fill="none" r="1.897"  stroke="#9A916C" id="connector18pin" stroke-width="0.9587" gorn="0.2.0.16" cx="113.76" cy="7.2"/>
            <circle fill="none" r="1.897"  stroke="#9A916C" id="connector19pin" stroke-width="0.9587" gorn="0.2.0.17" cx="120.96" cy="7.2"/>
            <circle fill="none" r="1.897"  stroke="#9A916C" id="connector20pin" stroke-width="0.9587" gorn="0.2.0.18" cx="128.16" cy="7.2"/>
            <circle fill="none" r="1.897"  stroke="#9A916C" id="connector21pin" stroke-width="0.9587" gorn="0.2.0.19" cx="135.36" cy="7.2"/>
            <circle fill="none" r="1.897"  stroke="#9A916C" id="connector22pin" stroke-width="0.9587" gorn="0.2.0.20" cx="142.56" cy="7.2"/>
            <circle fill="none" r="1.897"  stroke="#9A916C" id="connector23pin" stroke-width="0.9587" gorn="0.2.0.21" cx="149.76" cy="7.2"/>
            <circle fill="none" r="1.897"  stroke="#9A916C" id="connector24pin" stroke-width="0.9587" gorn="0.2.0.22" cx="156.96" cy="7.2"/>
            <circle fill="none" r="1.897"  stroke="#9A916C" id="connector25pin" stroke-width="0.9587" gorn="0.2.0.23" cx="20.16" cy="223.2"/>
            <rect fill="none" width="3.793"  stroke="#9A916C" stroke-width="0.9587" x="18.263" height="3.793" y="221.304"/>
            <circle fill="none" r="1.897"  stroke="#9A916C" id="connector26pin" stroke-width="0.9587" gorn="0.2.0.25" cx="27.36" cy="223.2"/>
            <circle fill="none" r="1.897"  stroke="#9A916C" id="connector27pin" stroke-width="0.9587" gorn="0.2.0.26" cx="34.56" cy="223.2"/>
            <circle fill="none" r="1.897"  stroke="#9A916C" id="connector28pin" stroke-width="0.9587" gorn="0.2.0.27" cx="41.76" cy="223.2"/>
            <circle fill="none" r="1.897"  stroke="#9A916C" id="connector29pin" stroke-width="0.9587" gorn="0.2.0.28" cx="48.96" cy="223.2"/>
            <circle fill="none" r="1.897"  stroke="#9A916C" id="connector30pin" stroke-width="0.9587" gorn="0.2.0.29" cx="56.16" cy="223.2"/>
            <circle fill="none" r="1.897"  stroke="#9A916C" id="connector31pin" stroke-width="0.9587" gorn="0.2.0.30" cx="63.36" cy="223.2"/>
            <circle fill="none" r="1.897"  stroke="#9A916C" id="connector32pin" stroke-width="0.9587" gorn="0.2.0.31" cx="70.56" cy="223.2"/>
            <circle fill="none" r="1.897"  stroke="#9A916C" id="connector33pin" stroke-width="0.9587" gorn="0.2.0.32" cx="77.76" cy="223.2"/>
            <circle fill="none" r="1.897"  stroke="#9A916C" id="connector34pin" stroke-width="0.9587" gorn="0.2.0.33" cx="84.96" cy="223.2"/>
            <circle fill="none" r="1.897"  stroke="#9A916C" id="connector35pin" stroke-width="0.9587" gorn="0.2.0.34" cx="92.16" cy="223.2"/>
            <circle fill="none" r="1.897"  stroke="#9A916C" id="connector36pin" stroke-width="0.9587" gorn="0.2.0.35" cx="99.36" cy="223.2"/>
            <circle fill="none" r="1.897"  stroke="#9A916C" id="connector37pin" stroke-width="0.9587" gorn="0.2.0.36" cx="106.56" cy="223.2"/>
            <circle fill="none" r="1.897"  stroke="#9A916C" id="connector38pin" stroke-width="0.9587" gorn="0.2.0.37" cx="113.76" cy="223.2"/>
            <circle fill="none" r="1.897"  stroke="#9A916C" id="connector39pin" stroke-width="0.9587" gorn="0.2.0.38" cx="120.96" cy="223.2"/>
            <circle fill="none" r="1.897"  stroke="#9A916C" id="connector40pin" stroke-width="0.9587" gorn="0.2.0.39" cx="128.16" cy="223.2"/>
            <circle fill="none" r="1.897"  stroke="#9A916C" id="connector41pin" stroke-width="0.9587" gorn="0.2.0.40" cx="135.36" cy="223.2"/>
            <circle fill="none" r="1.897"  stroke="#9A916C" id="connector42pin" stroke-width="0.9587" gorn="0.2.0.41" cx="142.56" cy="223.2"/>
            <circle fill="none" r="1.897"  stroke="#9A916C" id="connector43pin" stroke-width="0.9587" gorn="0.2.0.42" cx="149.76" cy="223.2"/>
            <circle fill="none" r="1.897"  stroke="#9A916C" id="connector44pin" stroke-width="0.9587" gorn="0.2.0.43" cx="156.96" cy="223.2"/>
            <circle fill="none" r="4.972"  stroke="#9A916C" id="connector45pin" stroke-width="1.44" gorn="0.2.0.44" cx="169.56" cy="223.2"/>
            <circle fill="none" r="4.972"  stroke="#9A916C" id="connector46pin" stroke-width="1.44" gorn="0.2.0.45" cx="7.56" cy="223.2"/>
            <circle fill="none" r="4.972"  stroke="#9A916C" id="connector47pin" stroke-width="1.44" gorn="0.2.0.46" cx="169.56" cy="7.2"/>
            <circle fill="none" r="4.972"  stroke="#9A916C" id="connector48pin" stroke-width="1.44" gorn="0.2.0.47" cx="7.56" cy="7.2"/>
        </g>
    </g>
    <g  transform="matrix(1.5623761,0,0,1.4474176,-4.4291447,228.40206)">
        <g >
            <g  id="g3350" gorn="0.3.0.0">
                <g  transform="matrix(0.94175571,0,0,0.9323048,0,0.59490537)">
                    <g >
                        <g  id="g3346" gorn="0.3.0.0.0.0.0"/>
                    </g>
                </g>
                <rect width="91.079"  id="rect33704" x="13.978" height="135.718" gorn="0.3.0.0.1" y="-145.764"/>
                <rect fill="none" width="83.438"  stroke="#CCCCCC" id="rect33708" stroke-width="4.7523" x="17.879" height="124.992" gorn="0.3.0.0.2" y="-141.807"/>
                <rect fill="#CCCCCC" width="19.197"  id="rect33712" x="21.312" height="7.683" gorn="0.3.0.0.3" y="-17.962"/>
                <rect fill="#333333" width="78.923"  id="rect44770" x="20.018" height="112.609" gorn="0.3.0.0.4" y="-139.592"/>
                <g  transform="matrix(0 -0.6909 0.6401 0 56.6695 -55.4845)">
                    <g >
                        <text fill="#FFFFFF" font-size="19.2" font-family="'DroidSans'" >2.8" TFT</text>
                    </g>
                </g>
                <g  transform="matrix(0 -0.6909 0.6401 0 75.871 -53.4604)">
                    <g >
                        <text fill="#FFFFFF" font-size="19.2" font-family="'DroidSans'" >320x240</text>
                    </g>
                </g>
            </g>
        </g>
    </g>
</svg>
