<?xml version='1.0' encoding='UTF-8' standalone='no'?>
<!-- Created with Fritzing (http://www.fritzing.org/) -->
<svg xmlns="http://www.w3.org/2000/svg"  version="1.2" y="0in" height="0.422913in" baseProfile="tiny" viewBox="0 0 57.6 30.4497" width="0.8in" x="0in">
    <desc >
        <referenceFile >microB_breadboard.svg</referenceFile>
    </desc>
    <desc >Fritzing breadboard generated by brd2svg</desc>
    <g  id="breadboard" gorn="0.2">
        <g  id="icon" gorn="0.2.0">
            <path  stroke="none" fill="#014cb1" stroke-width="0" d="M7.2,1.64976L50.4,1.64976A7.2,7.2,0,0,1,57.6,8.84974L57.6,23.2497A7.2,7.2,0,0,1,50.4,30.4497L7.2,30.4497A7.2,7.2,0,0,1,0,23.2497L0,8.84974A7.2,7.2,0,0,1,7.2,1.64976M33.3354,13.8897a0.992124,0.992124,0,1,0,1.98426,0,0.992124,0.992124,0,1,0,-1.98426,0zM22.2803,13.8897a0.992124,0.992124,0,1,0,1.98426,0,0.992124,0.992124,0,1,0,-1.98426,0zM12.9827,26.8497a1.41732,1.41732,0,1,0,2.83465,0,1.41732,1.41732,0,1,0,-2.83465,0zM20.1827,26.8497a1.41732,1.41732,0,1,0,2.83465,0,1.41732,1.41732,0,1,0,-2.83465,0zM27.3827,26.8497a1.41732,1.41732,0,1,0,2.83465,0,1.41732,1.41732,0,1,0,-2.83465,0zM34.5827,26.8497a1.41732,1.41732,0,1,0,2.83465,0,1.41732,1.41732,0,1,0,-2.83465,0zM41.7827,26.8497a1.41732,1.41732,0,1,0,2.83465,0,1.41732,1.41732,0,1,0,-2.83465,0zM3.65669,8.84974a3.54331,3.54331,0,1,0,7.08661,0,3.54331,3.54331,0,1,0,-7.08661,0zM46.8567,8.84974a3.54331,3.54331,0,1,0,7.08661,0,3.54331,3.54331,0,1,0,-7.08661,0zM37.1622,16.4409a0.992124,0.992124,0,1,0,1.98426,0,0.992124,0.992124,0,1,0,-1.98426,0zM18.4535,16.4409a0.992124,0.992124,0,1,0,1.98426,0,0.992124,0.992124,0,1,0,-1.98426,0zM38.1543,8.50392a0.850392,0.850392,0,1,0,1.70078,0,0.850392,0.850392,0,1,0,-1.70078,0zM17.7449,8.50392a0.850392,0.850392,0,1,0,1.70078,0,0.850392,0.850392,0,1,0,-1.70078,0z"/>
            <g >
                <title >layer 21</title>
                <g >
                    <title >text:D-</title>
                    <text font-family="OCRA"  y="23.8401" stroke="none" fill="#ffffff" stroke-width="0" text-anchor="middle" font-size="3.3408" x="36">D-</text>
                </g>
                <g >
                    <title >text:D+</title>
                    <text font-family="OCRA"  y="23.8401" stroke="none" fill="#ffffff" stroke-width="0" text-anchor="middle" font-size="3.3408" x="28.8">D+</text>
                </g>
                <g >
                    <title >text:ID</title>
                    <text font-family="OCRA"  y="23.8401" stroke="none" fill="#ffffff" stroke-width="0" text-anchor="middle" font-size="3.3408" x="21.6">ID</text>
                </g>
                <g >
                    <title >text:GND</title>
                    <text font-family="OCRA"  y="23.8401" stroke="none" fill="#ffffff" stroke-width="0" text-anchor="middle" font-size="3.3408" x="14.4">GND</text>
                </g>
                <g >
                    <title >text:5V</title>
                    <text font-family="OCRA"  y="23.8401" stroke="none" fill="#ffffff" stroke-width="0" text-anchor="middle" font-size="3.3408" x="43.2">5V</text>
                </g>
                <g >
                    <title >text:Micro</title>
                    <g  transform="matrix(1, 0, 0, 1, 8.208, 21.8097)">
                        <g >
                            <g >
                                <g >
                                    <g >
                                        <g  transform="rotate(270)">
                                            <g >
                                                <g >
                                                    <g >
                                                        <g >
                                                            <text font-family="OCRA"  y="0" stroke="none" fill="#ffffff" stroke-width="0" text-anchor="middle" font-size="4.176" x="0">Micro</text>
                                                        </g>
                                                    </g>
                                                </g>
                                            </g>
                                        </g>
                                    </g>
                                </g>
                            </g>
                        </g>
                    </g>
                </g>
                <g >
                    <title >text:USB</title>
                    <g  transform="matrix(1, 0, 0, 1, 4.608, 18.5697)">
                        <g >
                            <g >
                                <g >
                                    <g >
                                        <g  transform="rotate(270)">
                                            <g >
                                                <g >
                                                    <g >
                                                        <g >
                                                            <text font-family="OCRA"  y="0" stroke="none" fill="#ffffff" stroke-width="0" text-anchor="middle" font-size="4.176" x="0">USB</text>
                                                        </g>
                                                    </g>
                                                </g>
                                            </g>
                                        </g>
                                    </g>
                                </g>
                            </g>
                        </g>
                    </g>
                </g>
                <g >
                    <title >element:FID1</title>
                    <g >
                        <title >package:FIDUCIAL_1MM</title>
                    </g>
                </g>
                <g >
                    <title >element:FID2</title>
                    <g >
                        <title >package:FIDUCIAL_1MM</title>
                    </g>
                </g>
                <g >
                    <title >element:JP2</title>
                    <g >
                        <title >package:1X05_ROUND_70</title>
                    </g>
                </g>
                <g >
                    <title >element:U$1</title>
                    <g >
                        <title >package:MOUNTINGHOLE_2.5_PLATED</title>
                        <circle  cy="8.84974" r="5.66929" stroke="white" fill="none" stroke-width="0.576" cx="7.2"/>
                    </g>
                </g>
                <g >
                    <title >element:U$2</title>
                    <g >
                        <title >package:MOUNTINGHOLE_2.5_PLATED</title>
                        <circle  cy="8.84974" r="5.66929" stroke="white" fill="none" stroke-width="0.576" cx="50.4"/>
                    </g>
                </g>
                <g >
                    <title >element:U$4</title>
                    <g >
                        <title >package:ADAFRUIT_3.5MM</title>
                    </g>
                </g>
                <g >
                    <title >element:X2</title>
                    <g >
                        <title >package:4UCONN_20329</title>
                        <line  stroke-linecap="round" x2="33.6189" y2="17.0078" x1="35.8866" stroke="white" stroke-width="0.36" y1="17.0078"/>
                        <line  stroke-linecap="round" x2="21.7134" y2="17.0078" x1="23.9811" stroke="white" stroke-width="0.36" y1="17.0078"/>
                        <line  stroke-linecap="round" x2="39.5716" y2="1.70078" x1="39.5716" stroke="white" stroke-width="0.36" y1="4.25197"/>
                        <line  stroke-linecap="round" x2="18.0284" y2="1.70078" x1="39.5716" stroke="white" stroke-width="0.36" y1="1.70078"/>
                        <line  stroke-linecap="round" x2="18.0284" y2="4.25197" x1="18.0284" stroke="white" stroke-width="0.36" y1="1.70078"/>
                    </g>
                </g>
            </g>
            <rect  y="16.4324" rx="1.41732" ry="1.41732" stroke="none" height="2.83465" fill="#9A916C" stroke-width="0" id="connector0pin" width="2.83465" gorn="0.2.0.2" x="9.38268"/>
            <rect  y="25.4324" rx="1.41732" ry="1.41732" stroke="none" height="2.83465" fill="#9A916C" stroke-width="0" id="connector1pin" width="2.83465" gorn="0.2.0.3" x="48.6227"/>
            <circle  cy="26.8497" r="1.96866" stroke="#9A916C" connectorname="GND" fill="none" stroke-width="1.10268" id="connector2pin" gorn="0.2.0.4" cx="14.4"/>
            <rect  y="24.8811" stroke="#9A916C" height="3.93732" fill="none" stroke-width="1.10268" width="3.93732" x="12.4313"/>
            <circle  cy="26.8497" r="1.96866" stroke="#9A916C" connectorname="ID" fill="none" stroke-width="1.10268" id="connector3pin" gorn="0.2.0.6" cx="21.6"/>
            <circle  cy="26.8497" r="1.96866" stroke="#9A916C" connectorname="D+" fill="none" stroke-width="1.10268" id="connector4pin" gorn="0.2.0.7" cx="28.8"/>
            <circle  cy="26.8497" r="1.96866" stroke="#9A916C" connectorname="D-" fill="none" stroke-width="1.10268" id="connector5pin" gorn="0.2.0.8" cx="36"/>
            <circle  cy="26.8497" r="1.96866" stroke="#9A916C" connectorname="VBUS" fill="none" stroke-width="1.10268" id="connector6pin" gorn="0.2.0.9" cx="43.2"/>
            <circle  cy="8.84974" r="4.26331" stroke="#9A916C" connectorname="P$1" fill="none" stroke-width="1.44" id="connector7pin" gorn="0.2.0.10" cx="7.2"/>
            <circle  cy="8.84974" r="4.26331" stroke="#9A916C" connectorname="P$1" fill="none" stroke-width="1.44" id="connector8pin" gorn="0.2.0.11" cx="50.4"/>
            <g  transform="matrix(0, 1, -1, 0, 39.1465, -22.7055)">
                <g >
                    <g >
                        <g >
                            <g >
                                <rect  y="6.80315" stroke="none" height="2.83465" fill="#9A916C" stroke-width="0" id="connector9pin" width="5.66929" gorn="0.2.0.12.0.0.0.0.0" x="28.0913"/>
                            </g>
                        </g>
                    </g>
                </g>
            </g>
            <g  transform="matrix(0, 1, -1, 0, 34.8945, -18.4535)">
                <g >
                    <g >
                        <g >
                            <g >
                                <rect  y="6.80315" stroke="none" height="2.83465" fill="#9A916C" stroke-width="0" id="connector10pin" width="5.66929" gorn="0.2.0.13.0.0.0.0.0" x="23.8393"/>
                            </g>
                        </g>
                    </g>
                </g>
            </g>
            <g  transform="matrix(-1, 0, 0, -1, 57.6, 32.1732)">
                <g >
                    <g >
                        <g >
                            <g >
                                <rect  y="14.1732" stroke="none" height="3.82677" fill="#9A916C" stroke-width="0" id="connector11pin" width="1.13386" gorn="0.2.0.14.0.0.0.0.0" x="28.2331"/>
                            </g>
                        </g>
                    </g>
                </g>
            </g>
            <g  transform="matrix(-1, 0, 0, -1, 61.285, 32.1732)">
                <g >
                    <g >
                        <g >
                            <g >
                                <rect  y="14.1732" stroke="none" height="3.82677" fill="#9A916C" stroke-width="0" id="connector12pin" width="1.13386" gorn="0.2.0.15.0.0.0.0.0" x="30.0756"/>
                            </g>
                        </g>
                    </g>
                </g>
            </g>
            <g  transform="matrix(-1, 0, 0, -1, 50.2299, 32.1732)">
                <g >
                    <g >
                        <g >
                            <g >
                                <rect  y="14.1732" stroke="none" height="3.82677" fill="#9A916C" stroke-width="0" id="connector13pin" width="1.13386" gorn="0.2.0.16.0.0.0.0.0" x="24.548"/>
                            </g>
                        </g>
                    </g>
                </g>
            </g>
            <g  transform="matrix(-1, 0, 0, -1, 53.915, 32.1732)">
                <g >
                    <g >
                        <g >
                            <g >
                                <rect  y="14.1732" stroke="none" height="3.82677" fill="#9A916C" stroke-width="0" id="connector14pin" width="1.13386" gorn="0.2.0.17.0.0.0.0.0" x="26.3905"/>
                            </g>
                        </g>
                    </g>
                </g>
            </g>
            <circle  cy="16.4409" r="1.35212" stroke="#9A916C" connectorname="GND" fill="none" stroke-width="0.72" id="connector15pin" gorn="0.2.0.18" cx="38.1543"/>
            <path  stroke="none" fill="#9A916C" stroke-width="0" d="m36.8022,15.0888,4.05638,0,0,2.70426,-4.05638,0,0,-2.70426M36.8022,16.4409a1.35212,1.35212,0,1,0,2.70426,0,1.35212,1.35212,0,1,0,-2.70426,0zz"/>
            <circle  cy="16.4409" r="1.35212" stroke="#9A916C" connectorname="GND" fill="none" stroke-width="0.72" id="connector16pin" gorn="0.2.0.20" cx="19.4457"/>
            <path  stroke="none" fill="#9A916C" stroke-width="0" d="m16.7414,15.0888,4.05638,0,0,2.70426,-4.05638,0,0,-2.70426M18.0935,16.4409a1.35212,1.35212,0,1,0,2.70426,0,1.35212,1.35212,0,1,0,-2.70426,0zz"/>
            <circle  cy="8.50392" r="2.19685" stroke="#9A916C" connectorname="GND" fill="none" stroke-width="2.69292" id="connector17pin" gorn="0.2.0.22" cx="39.0047"/>
            <rect  y="6.30708" stroke="#9A916C" height="4.3937" fill="none" stroke-width="2.69292" width="4.3937" x="36.8078"/>
            <circle  cy="8.50392" r="2.19685" stroke="#9A916C" connectorname="GND" fill="none" stroke-width="2.69292" id="connector18pin" gorn="0.2.0.24" cx="18.5953"/>
            <rect  y="6.30708" stroke="#9A916C" height="4.3937" fill="none" stroke-width="2.69292" width="4.3937" x="16.3984"/>
            <g  transform="matrix(-1, 0, 0, -1, 64.9701, 32.1732)">
                <g >
                    <g >
                        <g >
                            <g >
                                <rect  y="14.1732" stroke="none" height="3.82677" fill="#9A916C" stroke-width="0" id="connector19pin" width="1.13386" gorn="0.2.0.26.0.0.0.0.0" x="31.9181"/>
                            </g>
                        </g>
                    </g>
                </g>
            </g>
        </g>
        <g  transform="matrix(1, 0, 0, 1, 46.23, 15.4812)">
            <g >
                <g >
                    <g >
                        <g  id="adafruit_3.5mm" gorn="0.2.1.0.0.0.0">
                            <path  fill="#DCDCDC" d="M9.77299,4.306c-0.032,-0.2,-0.141,-0.257,-0.403,-0.341C9.171,3.901,7.83698,3.476,7.83698,3.476s-0.930002,-0.351,-1.619,0.146C6.125,3.688,6.029,3.765,5.932,3.846C6.014,3.749,6.09,3.653,6.156,3.56c0.495,-0.69,0.143,-1.619,0.143,-1.619S5.872,0.607,5.807,0.408c-0.0850003,-0.262,-0.142,-0.37,-0.342,-0.402S5.177,0.06,5.016,0.283C4.894,0.453,4.077,1.59,4.077,1.59S3.456,2.367,3.716,3.176C3.75,3.285,3.793,3.4,3.841,3.517C3.774,3.409,3.706,3.308,3.638,3.215C3.135,2.531,2.142,2.579,2.142,2.579s-1.4,-0.006,-1.61,-0.006c-0.275,-0.001,-0.396,0.02,-0.488,0.201C-0.047,2.955,0.007,3.065,0.17,3.287c0.124,0.169,0.952999,1.297,0.952999,1.297s0.546,0.830002,1.395,0.833998c0.114,0,0.236,-0.005,0.362,-0.014c-0.122,0.03,-0.24,0.064,-0.348,0.1C1.726,5.771,1.465,6.73,1.465,6.73S1.027,8.05997,0.961999,8.25898C0.876002,8.51998,0.859003,8.64202,1.002,8.78501c0.144,0.143,0.265,0.126,0.526,0.04C1.727,8.76002,3.056,8.31902,3.056,8.31902s0.958003,-0.263,1.224,-1.07c0.036,-0.108,0.069,-0.225,0.1,-0.348C4.371,7.027,4.366,7.149,4.367,7.263c0.005,0.849002,0.835999,1.394,0.835999,1.394s1.13,0.826999,1.298,0.950998C6.724,9.76997,6.834,9.82397,7.015,9.73202c0.181,-0.0920002,0.201,-0.213,0.2,-0.488c-0.001,-0.21,-0.009,-1.61,-0.009,-1.61s0.047,-0.993002,-0.639,-1.495C6.475,6.072,6.373,6.004,6.266,5.937c0.117,0.047,0.232,0.09,0.34,0.124C7.416,6.319,8.19,5.697,8.19,5.697s1.136,-0.819,1.306,-0.940997C9.71899,4.595,9.80503,4.507,9.77299,4.306zM4.951,3.275C5.103,3.299,5.179,3.624,5.12,4.001S4.889,4.663,4.736,4.639S4.507,4.29,4.567,3.914C4.626,3.537,4.798,3.251,4.951,3.275zM2.995,4.274c0.07,-0.138,0.402,-0.11,0.742003,0.063C4.077,4.51,4.295,4.762,4.225,4.9S3.823,5.01,3.483,4.837C3.143,4.664,2.925,4.412,2.995,4.274zM4.026,6.152c-0.269,0.27,-0.577,0.4,-0.686,0.291C3.231,6.334,3.36,6.027,3.63,5.757c0.269,-0.27,0.576,-0.4,0.686,-0.291C4.425,5.575,4.295,5.882,4.026,6.152zM5.51,6.785c-0.138,0.07,-0.39,-0.148,-0.563,-0.487c-0.174,-0.34,-0.203,-0.673,-0.065,-0.742997s0.39,0.148,0.563,0.487C5.618,6.382,5.647,6.714,5.51,6.785zM5.867,5.212C5.49,5.272,5.166,5.197,5.141,5.044C5.117,4.891,5.403,4.719,5.779,4.659c0.377,-0.06,0.701,0.015,0.725998,0.168C6.529,4.98,6.244,5.152,5.867,5.212z"/>
                        </g>
                    </g>
                </g>
            </g>
        </g>
        <g  transform="matrix(1, 0, 0, 1, 17.4615, 1.26145)">
            <g >
                <g >
                    <g >
                        <g  id="4uconn_20329" gorn="0.2.2.0.0.0.0">
                            <g  transform="matrix(-1, 0, 0, -1, 22.677, 16.654)">
                                <g >
                                    <g >
                                        <g >
                                            <g >
                                                <g >
                                                    <rect  y="7.157" height="3.969" fill="#B4B4B4" width="22.677" x="0"/>
                                                    <rect  height="3.402" fill="#DCDCDC" width="0.567" x="11.055"/>
                                                    <rect  y="0" height="3.402" fill="#DCDCDC" width="0.567" x="12.898"/>
                                                    <rect  y="0" height="3.402" fill="#DCDCDC" width="0.567" x="14.74"/>
                                                    <rect  y="0" height="3.402" fill="#DCDCDC" width="0.567" x="9.21298"/>
                                                    <rect  y="0" height="3.402" fill="#DCDCDC" width="0.567" x="7.36999"/>
                                                    <rect  y="1.489" height="0.709" fill="#B4B4B4" width="14.173" x="4.252"/>
                                                    <rect  y="1.771" height="2.976" width="14.173" x="4.252"/>
                                                    <polygon  fill="#DCDCDC" points="17.008,1.347,17.008,3.473,14.74,3.473,14.74,4.182,13.323,4.182,13.323,1.63,9.35402,1.63,9.35402,4.182,7.93699,4.182,7.93699,3.473,5.669,3.473,5.669,1.347,0.567,1.347,0.567,14.953,22.11,14.953,22.11,1.347"/>
                                                    <polygon  points="5.811,12.119,3.827,12.119,4.11,7.86701,5.527,7.86701"/>
                                                    <polygon  points="18.85,12.119,16.866,12.119,17.149,7.86701,18.567,7.86701"/>
                                                    <polygon  fill="#F0F0F0" points="20.976,16.654,1.701,16.653,1.134,14.953,21.543,14.953"/>
                                                    <polygon  fill="#B4B4B4" points="0.567,16.653,0,16.653,0.567,14.953,1.134,14.953"/>
                                                    <polygon  fill="#B4B4B4" points="22.677,16.654,22.11,16.654,21.543,14.953,22.11,14.953"/>
                                                </g>
                                            </g>
                                        </g>
                                    </g>
                                </g>
                            </g>
                        </g>
                    </g>
                </g>
            </g>
        </g>
    </g>
</svg>
