<?xml version='1.0' encoding='utf-8'?>
<!-- Generator: Adobe Illustrator 20.0.0, SVG Export Plug-In . SVG Version: 6.00 Build 0)  -->
<svg xmlns="http://www.w3.org/2000/svg" x="0px" y="0px" width="2.07374in" height="0.4in" baseProfile="tiny" viewBox="0 0 149.309 28.8" gorn="0" xml:space="preserve"  xmlns:xml="http://www.w3.org/XML/1998/namespace" id="Layer_1" version="1.2">
    <desc >
        <referenceFile >Adafruit NeoPixel Stick_breadboard.svg</referenceFile>
    </desc>
    <desc >Fritzing breadboard generated by brd2svg</desc>
    <g gorn="0.2"  id="breadboard">
        <g gorn="0.2.0"  id="icon">
            <g transform="matrix(0, 1, -1, 0, 150.84, -143.64)" >
                <g >
                    <g >
                        <g transform="matrix(2.535182e-06 1 -1 2.535182e-06 150.3677 -144.112)" >
                            <g >
                                <rect x="145.643" y="1.328" width="3.195" height="3.6" gorn="0.2.0.0.0.0.0.0.0"  fill="#808080" id="connector19pin"/>
                            </g>
                        </g>
                    </g>
                </g>
            </g>
            <g transform="matrix(0, 1, -1, 0, 158.04, -136.44)" >
                <g >
                    <g >
                        <g transform="matrix(2.535182e-06 1 -1 2.535182e-06 157.5677 -136.912)" >
                            <g >
                                <rect x="145.643" y="8.528" width="3.195" height="3.6" gorn="0.2.0.1.0.0.0.0.0"  fill="#00C800" id="connector20pin"/>
                            </g>
                        </g>
                    </g>
                </g>
            </g>
            <g transform="matrix(0, 1, -1, 0, 165.24, -129.24)" >
                <g >
                    <g >
                        <g transform="matrix(2.535182e-06 1 -1 2.535182e-06 164.7677 -129.712)" >
                            <g >
                                <rect x="145.643" y="15.728" width="3.195" height="3.6" gorn="0.2.0.2.0.0.0.0.0"  fill="#FF0000" id="connector21pin"/>
                            </g>
                        </g>
                    </g>
                </g>
            </g>
            <g transform="matrix(0, 1, -1, 0, 172.44, -122.04)" >
                <g >
                    <g >
                        <g transform="matrix(2.535182e-06 1 -1 2.535182e-06 171.9677 -122.512)" >
                            <g >
                                <rect x="145.643" y="22.928" width="3.195" height="3.6" gorn="0.2.0.3.0.0.0.0.0"  fill="#808080" id="connector22pin"/>
                            </g>
                        </g>
                    </g>
                </g>
            </g>
            <g transform="matrix(0, -1, 1, 0, -28.44, 21.96)" >
                <g >
                    <g >
                        <g transform="matrix(-2.535182e-06 -1 1 -2.535182e-06 -33.0973 26.6174)" >
                            <g >
                                <rect x="-4.657" y="28.057" width="2.835" height="3.6" gorn="0.2.0.4.0.0.0.0.0"  fill="#808080" id="connector23pin"/>
                            </g>
                        </g>
                    </g>
                </g>
            </g>
            <g transform="matrix(0, -1, 1, 0, -21.24, 14.76)" >
                <g >
                    <g >
                        <g transform="matrix(-2.535182e-06 -1 1 -2.535182e-06 -25.8973 19.4174)" >
                            <g >
                                <rect x="-4.657" y="20.857" width="2.835" height="3.6" gorn="0.2.0.5.0.0.0.0.0"  fill="#FF0000" id="connector24pin"/>
                            </g>
                        </g>
                    </g>
                </g>
            </g>
            <g transform="matrix(0, -1, 1, 0, -14.04, 7.56)" >
                <g >
                    <g >
                        <g transform="matrix(-2.535182e-06 -1 1 -2.535182e-06 -18.6973 12.2174)" >
                            <g >
                                <rect x="-4.657" y="13.657" width="2.835" height="3.6" gorn="0.2.0.6.0.0.0.0.0"  fill="#00C800" id="connector25pin"/>
                            </g>
                        </g>
                    </g>
                </g>
            </g>
            <g transform="matrix(0, -1, 1, 0, -6.84, 0.36)" >
                <g >
                    <g >
                        <g transform="matrix(-2.535182e-06 -1 1 -2.535182e-06 -11.4973 5.0173)" >
                            <g >
                                <rect x="-4.657" y="6.457" width="2.835" height="3.6" gorn="0.2.0.7.0.0.0.0.0"  fill="#808080" id="connector26pin"/>
                            </g>
                        </g>
                    </g>
                </g>
            </g>
            <path d="M2.475,28.8V0h144v28.8H2.475 M35.357,5.76c0,1.722,1.396,3.118,3.118,3.118s3.118-1.396,3.118-3.118s-1.396-3.118-3.118-3.118S35.357,4.038,35.357,5.76z M107.357,5.76c0,1.722,1.396,3.118,3.118,3.118s3.118-1.396,3.118-3.118s-1.396-3.118-3.118-3.118S107.357,4.038,107.357,5.76z"  fill="#0A0A0A"/>
            <g >
                <title >layer 21</title>
                <g >
                    <title >element:C1</title>
                    <g >
                        <title >package:C0805K</title>
                    </g>
                </g>
                <g >
                    <title >element:C2</title>
                    <g >
                        <title >package:C0805K</title>
                    </g>
                </g>
                <g >
                    <title >element:C3</title>
                    <g >
                        <title >package:C0805K</title>
                    </g>
                </g>
                <g >
                    <title >element:C4</title>
                    <g >
                        <title >package:C0805K</title>
                    </g>
                </g>
                <g >
                    <title >element:C5</title>
                    <g >
                        <title >package:C0805K</title>
                    </g>
                </g>
                <g >
                    <title >element:C6</title>
                    <g >
                        <title >package:C0805K</title>
                    </g>
                </g>
                <g >
                    <title >element:C7</title>
                    <g >
                        <title >package:C0805K</title>
                    </g>
                </g>
                <g >
                    <title >element:CN1</title>
                    <g >
                        <title >package:1X4-SMT</title>
                    </g>
                </g>
                <g >
                    <title >element:CN2</title>
                    <g >
                        <title >package:1X4-SMT</title>
                    </g>
                </g>
                <g >
                    <title >element:FID1</title>
                    <g >
                        <title >package:FIDUCIAL_1MM</title>
                    </g>
                </g>
                <g >
                    <title >element:FID3</title>
                    <g >
                        <title >package:FIDUCIAL_1MM</title>
                    </g>
                </g>
                <g >
                    <title >element:R1</title>
                    <g >
                        <title >package:_0805MP</title>
                        <line stroke="#FFFFFF" y2="6.48" x1="9.315" x2="9.315"  stroke-linecap="round" fill="none" stroke-width="0.576" y1="3.6"/>
                    </g>
                </g>
                <g >
                    <title >element:U$1</title>
                    <g >
                        <title >package:ADAFRUIT_TEXT_20MM</title>
                    </g>
                </g>
                <g >
                    <title >element:U$2</title>
                    <g >
                        <title >package:MOUNTINGHOLE_2.0_PLATED</title>
                        <circle stroke="#FFFFFF" cx="38.475" cy="5.76"  fill="none" stroke-width="0.576" r="5.102"/>
                    </g>
                </g>
                <g >
                    <title >element:U$3</title>
                    <g >
                        <title >package:MOUNTINGHOLE_2.0_PLATED</title>
                        <circle stroke="#FFFFFF" cx="110.475" cy="5.76"  fill="none" stroke-width="0.576" r="5.102"/>
                    </g>
                </g>
                <g >
                    <title >element:U$4</title>
                    <g >
                        <title >package:ADAFRUIT_2.5MM</title>
                    </g>
                </g>
            </g>
            <g transform="matrix(-1, 0, 0, -1, 53.1893, 10.08)" >
                <g >
                    <g >
                        <rect x="22.278" y="2.772" width="3.685" height="4.535" gorn="0.2.0.10.0.0.0"  fill="#9A916C" id="connector5pin"/>
                    </g>
                </g>
            </g>
            <g transform="matrix(-1, 0, 0, -1, 41.8507, 10.08)" >
                <g >
                    <g >
                        <rect x="16.608" y="2.772" width="3.685" height="4.535" gorn="0.2.0.11.0.0.0"  fill="#9A916C" id="connector6pin"/>
                    </g>
                </g>
            </g>
            <g transform="matrix(-1, 0, 0, -1, 101.429, 10.08)" >
                <g >
                    <g >
                        <rect x="46.398" y="2.772" width="3.685" height="4.535" gorn="0.2.0.12.0.0.0"  fill="#9A916C" id="connector7pin"/>
                    </g>
                </g>
            </g>
            <g transform="matrix(-1, 0, 0, -1, 90.0907, 10.08)" >
                <g >
                    <g >
                        <rect x="40.728" y="2.772" width="3.685" height="4.535" gorn="0.2.0.13.0.0.0"  fill="#9A916C" id="connector8pin"/>
                    </g>
                </g>
            </g>
            <g transform="matrix(-1, 0, 0, -1, 131.669, 10.08)" >
                <g >
                    <g >
                        <rect x="61.518" y="2.772" width="3.685" height="4.535" gorn="0.2.0.14.0.0.0"  fill="#9A916C" id="connector9pin"/>
                    </g>
                </g>
            </g>
            <g transform="matrix(-1, 0, 0, -1, 120.331, 10.08)" >
                <g >
                    <g >
                        <rect x="55.848" y="2.772" width="3.685" height="4.535" gorn="0.2.0.15.0.0.0"  fill="#9A916C" id="connector10pin"/>
                    </g>
                </g>
            </g>
            <g transform="matrix(-1, 0, 0, -1, 167.669, 10.08)" >
                <g >
                    <g >
                        <rect x="79.518" y="2.772" width="3.685" height="4.535" gorn="0.2.0.16.0.0.0"  fill="#9A916C" id="connector11pin"/>
                    </g>
                </g>
            </g>
            <g transform="matrix(-1, 0, 0, -1, 156.331, 10.08)" >
                <g >
                    <g >
                        <rect x="73.848" y="2.772" width="3.685" height="4.535" gorn="0.2.0.17.0.0.0"  fill="#9A916C" id="connector12pin"/>
                    </g>
                </g>
            </g>
            <g transform="matrix(-1, 0, 0, -1, 196.469, 10.08)" >
                <g >
                    <g >
                        <rect x="93.918" y="2.772" width="3.685" height="4.535" gorn="0.2.0.18.0.0.0"  fill="#9A916C" id="connector13pin"/>
                    </g>
                </g>
            </g>
            <g transform="matrix(-1, 0, 0, -1, 185.131, 10.08)" >
                <g >
                    <g >
                        <rect x="88.248" y="2.772" width="3.685" height="4.535" gorn="0.2.0.19.0.0.0"  fill="#9A916C" id="connector14pin"/>
                    </g>
                </g>
            </g>
            <g transform="matrix(-1, 0, 0, -1, 243.989, 10.08)" >
                <g >
                    <g >
                        <rect x="117.677" y="2.772" width="3.685" height="4.535" gorn="0.2.0.20.0.0.0"  fill="#9A916C" id="connector15pin"/>
                    </g>
                </g>
            </g>
            <g transform="matrix(-1, 0, 0, -1, 232.651, 10.08)" >
                <g >
                    <g >
                        <rect x="112.008" y="2.772" width="3.685" height="4.535" gorn="0.2.0.21.0.0.0"  fill="#9A916C" id="connector16pin"/>
                    </g>
                </g>
            </g>
            <g transform="matrix(-1, 0, 0, -1, 279.269, 10.08)" >
                <g >
                    <g >
                        <rect x="135.317" y="2.772" width="3.685" height="4.535" gorn="0.2.0.22.0.0.0"  fill="#9A916C" id="connector17pin"/>
                    </g>
                </g>
            </g>
            <g transform="matrix(-1, 0, 0, -1, 267.931, 10.08)" >
                <g >
                    <g >
                        <rect x="129.648" y="2.772" width="3.685" height="4.535" gorn="0.2.0.23.0.0.0"  fill="#9A916C" id="connector18pin"/>
                    </g>
                </g>
            </g>
            <path d="M17.595,3.623L17.595,3.623c0.783,0,1.417,0.635,1.417,1.417v0c0,0.783-0.635,1.417-1.417,1.417h0c-0.783,0-1.417-0.635-1.417-1.417v0C16.177,4.257,16.812,3.623,17.595,3.623z" gorn="0.2.0.24"  fill="#9A916C" id="connector27pin"/>
            <path d="M130.274,3.623L130.274,3.623c0.783,0,1.417,0.635,1.417,1.417v0c0,0.783-0.635,1.417-1.417,1.417h0c-0.783,0-1.417-0.635-1.417-1.417v0C128.857,4.257,129.491,3.623,130.274,3.623z" gorn="0.2.0.25"  fill="#9A916C" id="connector28pin"/>
            <g transform="matrix(-1, 0, 0, -1, 31.3228, 45.3543)" >
                <g >
                    <g >
                        <rect x="11.344" y="20.976" width="3.685" height="3.402" gorn="0.2.0.26.0.0.0"  fill="#9A916C" id="connector29pin"/>
                    </g>
                </g>
            </g>
            <g transform="matrix(-1, 0, 0, -1, 31.3228, 26.6457)" >
                <g >
                    <g >
                        <rect x="11.344" y="11.622" width="3.685" height="3.402" gorn="0.2.0.27.0.0.0"  fill="#9A916C" id="connector30pin"/>
                    </g>
                </g>
            </g>
            <g transform="matrix(-1, 0, 0, -1, 4.67716, 26.6457)" >
                <g >
                    <g >
                        <rect x="-1.979" y="11.622" width="3.685" height="3.402" gorn="0.2.0.28.0.0.0"  fill="#9A916C" id="connector31pin"/>
                    </g>
                </g>
            </g>
            <g transform="matrix(-1, 0, 0, -1, 4.67716, 45.3543)" >
                <g >
                    <g >
                        <rect x="-1.979" y="20.976" width="3.685" height="3.402" gorn="0.2.0.29.0.0.0"  fill="#9A916C" id="connector32pin"/>
                    </g>
                </g>
            </g>
            <g transform="matrix(-1, 0, 0, -1, 67.3228, 45.3543)" >
                <g >
                    <g >
                        <rect x="29.344" y="20.976" width="3.685" height="3.402" gorn="0.2.0.30.0.0.0"  fill="#9A916C" id="connector33pin"/>
                    </g>
                </g>
            </g>
            <g transform="matrix(-1, 0, 0, -1, 67.3228, 26.6457)" >
                <g >
                    <g >
                        <rect x="29.344" y="11.622" width="3.685" height="3.402" gorn="0.2.0.31.0.0.0"  fill="#9A916C" id="connector34pin"/>
                    </g>
                </g>
            </g>
            <g transform="matrix(-1, 0, 0, -1, 40.6772, 26.6457)" >
                <g >
                    <g >
                        <rect x="16.021" y="11.622" width="3.685" height="3.402" gorn="0.2.0.32.0.0.0"  fill="#9A916C" id="connector35pin"/>
                    </g>
                </g>
            </g>
            <g transform="matrix(-1, 0, 0, -1, 40.6772, 45.3543)" >
                <g >
                    <g >
                        <rect x="16.021" y="20.976" width="3.685" height="3.402" gorn="0.2.0.33.0.0.0"  fill="#9A916C" id="connector36pin"/>
                    </g>
                </g>
            </g>
            <g transform="matrix(-1, 0, 0, -1, 103.323, 45.3543)" >
                <g >
                    <g >
                        <rect x="47.344" y="20.976" width="3.685" height="3.402" gorn="0.2.0.34.0.0.0"  fill="#9A916C" id="connector37pin"/>
                    </g>
                </g>
            </g>
            <g transform="matrix(-1, 0, 0, -1, 103.323, 26.6457)" >
                <g >
                    <g >
                        <rect x="47.344" y="11.622" width="3.685" height="3.402" gorn="0.2.0.35.0.0.0"  fill="#9A916C" id="connector38pin"/>
                    </g>
                </g>
            </g>
            <g transform="matrix(-1, 0, 0, -1, 76.6771, 26.6457)" >
                <g >
                    <g >
                        <rect x="34.021" y="11.622" width="3.685" height="3.402" gorn="0.2.0.36.0.0.0"  fill="#9A916C" id="connector39pin"/>
                    </g>
                </g>
            </g>
            <g transform="matrix(-1, 0, 0, -1, 76.6771, 45.3543)" >
                <g >
                    <g >
                        <rect x="34.021" y="20.976" width="3.685" height="3.402" gorn="0.2.0.37.0.0.0"  fill="#9A916C" id="connector40pin"/>
                    </g>
                </g>
            </g>
            <g transform="matrix(-1, 0, 0, -1, 139.323, 45.3543)" >
                <g >
                    <g >
                        <rect x="65.344" y="20.976" width="3.685" height="3.402" gorn="0.2.0.38.0.0.0"  fill="#9A916C" id="connector41pin"/>
                    </g>
                </g>
            </g>
            <g transform="matrix(-1, 0, 0, -1, 139.323, 26.6457)" >
                <g >
                    <g >
                        <rect x="65.344" y="11.622" width="3.685" height="3.402" gorn="0.2.0.39.0.0.0"  fill="#9A916C" id="connector42pin"/>
                    </g>
                </g>
            </g>
            <g transform="matrix(-1, 0, 0, -1, 112.677, 26.6457)" >
                <g >
                    <g >
                        <rect x="52.021" y="11.622" width="3.685" height="3.402" gorn="0.2.0.40.0.0.0"  fill="#9A916C" id="connector43pin"/>
                    </g>
                </g>
            </g>
            <g transform="matrix(-1, 0, 0, -1, 112.677, 45.3543)" >
                <g >
                    <g >
                        <rect x="52.021" y="20.976" width="3.685" height="3.402" gorn="0.2.0.41.0.0.0"  fill="#9A916C" id="connector44pin"/>
                    </g>
                </g>
            </g>
            <g transform="matrix(-1, 0, 0, -1, 175.323, 45.3543)" >
                <g >
                    <g >
                        <rect x="83.344" y="20.976" width="3.685" height="3.402" gorn="0.2.0.42.0.0.0"  fill="#9A916C" id="connector45pin"/>
                    </g>
                </g>
            </g>
            <g transform="matrix(-1, 0, 0, -1, 175.323, 26.6457)" >
                <g >
                    <g >
                        <rect x="83.344" y="11.622" width="3.685" height="3.402" gorn="0.2.0.43.0.0.0"  fill="#9A916C" id="connector46pin"/>
                    </g>
                </g>
            </g>
            <g transform="matrix(-1, 0, 0, -1, 148.677, 26.6457)" >
                <g >
                    <g >
                        <rect x="70.021" y="11.622" width="3.685" height="3.402" gorn="0.2.0.44.0.0.0"  fill="#9A916C" id="connector47pin"/>
                    </g>
                </g>
            </g>
            <g transform="matrix(-1, 0, 0, -1, 148.677, 45.3543)" >
                <g >
                    <g >
                        <rect x="70.021" y="20.976" width="3.685" height="3.402" gorn="0.2.0.45.0.0.0"  fill="#9A916C" id="connector48pin"/>
                    </g>
                </g>
            </g>
            <g transform="matrix(-1, 0, 0, -1, 211.323, 45.3543)" >
                <g >
                    <g >
                        <rect x="101.344" y="20.976" width="3.685" height="3.402" gorn="0.2.0.46.0.0.0"  fill="#9A916C" id="connector49pin"/>
                    </g>
                </g>
            </g>
            <g transform="matrix(-1, 0, 0, -1, 211.323, 26.6457)" >
                <g >
                    <g >
                        <rect x="101.344" y="11.622" width="3.685" height="3.402" gorn="0.2.0.47.0.0.0"  fill="#9A916C" id="connector50pin"/>
                    </g>
                </g>
            </g>
            <g transform="matrix(-1, 0, 0, -1, 184.677, 26.6457)" >
                <g >
                    <g >
                        <rect x="88.021" y="11.622" width="3.685" height="3.402" gorn="0.2.0.48.0.0.0"  fill="#9A916C" id="connector51pin"/>
                    </g>
                </g>
            </g>
            <g transform="matrix(-1, 0, 0, -1, 184.677, 45.3543)" >
                <g >
                    <g >
                        <rect x="88.021" y="20.976" width="3.685" height="3.402" gorn="0.2.0.49.0.0.0"  fill="#9A916C" id="connector52pin"/>
                    </g>
                </g>
            </g>
            <g transform="matrix(-1, 0, 0, -1, 247.323, 45.3543)" >
                <g >
                    <g >
                        <rect x="119.344" y="20.976" width="3.685" height="3.402" gorn="0.2.0.50.0.0.0"  fill="#9A916C" id="connector53pin"/>
                    </g>
                </g>
            </g>
            <g transform="matrix(-1, 0, 0, -1, 247.323, 26.6457)" >
                <g >
                    <g >
                        <rect x="119.344" y="11.622" width="3.685" height="3.402" gorn="0.2.0.51.0.0.0"  fill="#9A916C" id="connector54pin"/>
                    </g>
                </g>
            </g>
            <g transform="matrix(-1, 0, 0, -1, 220.677, 26.6457)" >
                <g >
                    <g >
                        <rect x="106.021" y="11.622" width="3.685" height="3.402" gorn="0.2.0.52.0.0.0"  fill="#9A916C" id="connector55pin"/>
                    </g>
                </g>
            </g>
            <g transform="matrix(-1, 0, 0, -1, 220.677, 45.3543)" >
                <g >
                    <g >
                        <rect x="106.021" y="20.976" width="3.685" height="3.402" gorn="0.2.0.53.0.0.0"  fill="#9A916C" id="connector56pin"/>
                    </g>
                </g>
            </g>
            <g transform="matrix(-1, 0, 0, -1, 283.323, 45.3543)" >
                <g >
                    <g >
                        <rect x="137.344" y="20.976" width="3.685" height="3.402" gorn="0.2.0.54.0.0.0"  fill="#9A916C" id="connector57pin"/>
                    </g>
                </g>
            </g>
            <g transform="matrix(-1, 0, 0, -1, 283.323, 26.6457)" >
                <g >
                    <g >
                        <rect x="137.344" y="11.622" width="3.685" height="3.402" gorn="0.2.0.55.0.0.0"  fill="#9A916C" id="connector58pin"/>
                    </g>
                </g>
            </g>
            <g transform="matrix(-1, 0, 0, -1, 256.677, 26.6457)" >
                <g >
                    <g >
                        <rect x="124.021" y="11.622" width="3.685" height="3.402" gorn="0.2.0.56.0.0.0"  fill="#9A916C" id="connector59pin"/>
                    </g>
                </g>
            </g>
            <g transform="matrix(-1, 0, 0, -1, 256.677, 45.3543)" >
                <g >
                    <g >
                        <rect x="124.021" y="20.976" width="3.685" height="3.402" gorn="0.2.0.57.0.0.0"  fill="#9A916C" id="connector60pin"/>
                    </g>
                </g>
            </g>
            <rect x="4.734" y="3.197" width="3.402" height="3.685" gorn="0.2.0.58"  fill="#9A916C" id="connector61pin"/>
            <rect x="10.494" y="3.197" width="3.402" height="3.685" gorn="0.2.0.59"  fill="#9A916C" id="connector62pin"/>
            <circle stroke="#9A916C" cx="38.475" cy="5.76" gorn="0.2.0.60"  fill="none" id="connector63pin" stroke-width="1.44" r="3.838"/>
            <circle stroke="#9A916C" cx="110.475" cy="5.76" gorn="0.2.0.61"  fill="none" id="connector64pin" stroke-width="1.44" r="3.838"/>
        </g>
        <g transform="matrix(1, 0, 0, 1, 20.9255, 3.2685)" >
            <g >
                <g gorn="0.2.1.0.0"  id="c0805k">
                    <g transform="matrix(-1, 0, 0, -1, 5.669, 3.543)" >
                        <g >
                            <g >
                                <path d="M2.911,3.543h-5.103c-0.156,0-0.283-0.127-0.283-0.283V0.283C-2.475,0.127-2.348,0-2.192,0H2.91c0.157,0,0.283,0.127,0.283,0.283V3.26C3.194,3.416,3.067,3.543,2.911,3.543z"  fill="#DCDCDC"/>
                                <rect x="-1.412" y="0" width="3.543" height="3.543"  fill="#6E554B"/>
                            </g>
                        </g>
                    </g>
                </g>
            </g>
        </g>
        <g transform="matrix(1, 0, 0, 1, 45.0455, 3.2685)" >
            <g >
                <g gorn="0.2.2.0.0"  id="c0805k_1_">
                    <g transform="matrix(-1, 0, 0, -1, 5.669, 3.543)" >
                        <g >
                            <g >
                                <path d="M2.911,3.543h-5.103c-0.156,0-0.283-0.127-0.283-0.283V0.283C-2.475,0.127-2.348,0-2.192,0H2.91c0.157,0,0.283,0.127,0.283,0.283V3.26C3.194,3.416,3.067,3.543,2.911,3.543z"  fill="#DCDCDC"/>
                                <rect x="-1.412" y="0" width="3.543" height="3.543"  fill="#6E554B"/>
                            </g>
                        </g>
                    </g>
                </g>
            </g>
        </g>
        <g transform="matrix(1, 0, 0, 1, 60.1655, 3.2685)" >
            <g >
                <g gorn="0.2.3.0.0"  id="c0805k_2_">
                    <g transform="matrix(-1, 0, 0, -1, 5.669, 3.543)" >
                        <g >
                            <g >
                                <path d="M2.911,3.543h-5.103c-0.156,0-0.283-0.127-0.283-0.283V0.283C-2.475,0.127-2.348,0-2.192,0H2.91c0.157,0,0.283,0.127,0.283,0.283V3.26C3.194,3.416,3.067,3.543,2.911,3.543z"  fill="#DCDCDC"/>
                                <rect x="-1.412" y="0" width="3.543" height="3.543"  fill="#6E554B"/>
                            </g>
                        </g>
                    </g>
                </g>
            </g>
        </g>
        <g transform="matrix(1, 0, 0, 1, 78.1654, 3.2685)" >
            <g >
                <g gorn="0.2.4.0.0"  id="c0805k_3_">
                    <g transform="matrix(-1, 0, 0, -1, 5.669, 3.543)" >
                        <g >
                            <g >
                                <path d="M2.911,3.543h-5.103c-0.156,0-0.283-0.127-0.283-0.283V0.283C-2.475,0.127-2.348,0-2.192,0H2.91c0.157,0,0.283,0.127,0.283,0.283V3.26C3.194,3.416,3.067,3.543,2.911,3.543z"  fill="#DCDCDC"/>
                                <rect x="-1.412" y="0" width="3.543" height="3.543"  fill="#6E554B"/>
                            </g>
                        </g>
                    </g>
                </g>
            </g>
        </g>
        <g transform="matrix(1, 0, 0, 1, 92.5654, 3.2685)" >
            <g >
                <g gorn="0.2.5.0.0"  id="c0805k_4_">
                    <g transform="matrix(-1, 0, 0, -1, 5.669, 3.543)" >
                        <g >
                            <g >
                                <path d="M2.911,3.543h-5.103c-0.156,0-0.283-0.127-0.283-0.283V0.283C-2.475,0.127-2.348,0-2.192,0H2.91c0.157,0,0.283,0.127,0.283,0.283V3.26C3.194,3.416,3.067,3.543,2.911,3.543z"  fill="#DCDCDC"/>
                                <rect x="-1.412" y="0" width="3.543" height="3.543"  fill="#6E554B"/>
                            </g>
                        </g>
                    </g>
                </g>
            </g>
        </g>
        <g transform="matrix(1, 0, 0, 1, 116.325, 3.2685)" >
            <g >
                <g gorn="0.2.6.0.0"  id="c0805k_5_">
                    <g transform="matrix(-1, 0, 0, -1, 5.669, 3.543)" >
                        <g >
                            <g >
                                <path d="M2.911,3.543h-5.103c-0.156,0-0.283-0.127-0.283-0.283V0.283C-2.475,0.127-2.348,0-2.192,0H2.91c0.157,0,0.283,0.127,0.283,0.283V3.26C3.194,3.416,3.067,3.543,2.911,3.543z"  fill="#DCDCDC"/>
                                <rect x="-1.412" y="0" width="3.543" height="3.543"  fill="#6E554B"/>
                            </g>
                        </g>
                    </g>
                </g>
            </g>
        </g>
        <g transform="matrix(1, 0, 0, 1, 133.965, 3.2685)" >
            <g >
                <g gorn="0.2.7.0.0"  id="c0805k_6_">
                    <g transform="matrix(-1, 0, 0, -1, 5.669, 3.543)" >
                        <g >
                            <g >
                                <path d="M2.911,3.543h-5.103c-0.156,0-0.283-0.127-0.283-0.283V0.283C-2.475,0.127-2.348,0-2.192,0H2.91c0.157,0,0.283,0.127,0.283,0.283V3.26C3.194,3.416,3.067,3.543,2.911,3.543z"  fill="#DCDCDC"/>
                                <rect x="-1.412" y="0" width="3.543" height="3.543"  fill="#6E554B"/>
                            </g>
                        </g>
                    </g>
                </g>
            </g>
        </g>
        <g transform="matrix(1, 0, 0, 1, 1.34651, 8.7876)" >
            <g >
                <g gorn="0.2.8.0.0"  id="ws2812b-narrow">
                    <g >
                        <rect x="2.475" y="3.402" width="15.307" height="1.984"  fill="#DCDCDC"/>
                        <rect x="2.475" y="12.756" width="15.307" height="1.984"  fill="#DCDCDC"/>
                        <rect x="3.042" y="1.984" width="14.173" height="14.173"  fill="#F0F0F0"/>
                        <circle cx="10.129" cy="9.071"  fill="#DCDCDC" r="6.024"/>
                        <circle cx="10.129" cy="9.071"  fill="#C8C8C8" r="4.961"/>
                        <polygon points="5.593,1.984 3.042,1.984 3.042,4.535 "  fill="#E6E6E6"/>
                        <path d="M13.201,6.236V6.36c0,0.157-0.127,0.283-0.283,0.283h-2.006c-0.157,0-0.283-0.127-0.283-0.283l0-2.199c-0.167-0.017-0.329-0.05-0.5-0.05c-0.171,0-0.333,0.033-0.5,0.05v6.905c0,0.157-0.127,0.283-0.283,0.283H7.339c-0.157,0-0.283-0.127-0.283-0.283v-4.83c0-0.157-0.127-0.283-0.283-0.283H6.299c-0.696,0.854-1.131,1.93-1.131,3.118c0,1.263,0.486,2.402,1.263,3.278h2.914c0.157,0,0.283,0.127,0.283,0.283v1.349c0.167,0.017,0.329,0.05,0.5,0.05c0.171,0,0.333-0.033,0.5-0.05l0-6.054c0-0.157,0.127-0.283,0.283-0.283h2.006c0.157,0,0.283,0.127,0.283,0.283v3.979c0,0.157,0.127,0.283,0.283,0.283h0.473c0.696-0.854,1.131-1.93,1.131-3.118s-0.435-2.264-1.131-3.118l-0.471,0C13.328,5.953,13.201,6.08,13.201,6.236z"  fill="#F0F0F0"/>
                        <rect x="7.197" y="8.844" width="2.268" height="1.701"  fill="#645050"/>
                        <rect x="10.97" y="8.787" width="0.85" height="0.567"  fill="#FF4000"/>
                        <rect x="10.97" y="11.622" width="0.85" height="0.567"  fill="#40FF40"/>
                        <rect x="10.97" y="5.953" width="0.85" height="0.567"  fill="#4040FF"/>
                    </g>
                </g>
            </g>
        </g>
        <g transform="matrix(1, 0, 0, 1, 19.3465, 8.7876)" >
            <g >
                <g gorn="0.2.9.0.0"  id="ws2812b-narrow_1_">
                    <g >
                        <rect x="2.475" y="3.402" width="15.307" height="1.984"  fill="#DCDCDC"/>
                        <rect x="2.475" y="12.756" width="15.307" height="1.984"  fill="#DCDCDC"/>
                        <rect x="3.042" y="1.984" width="14.173" height="14.173"  fill="#F0F0F0"/>
                        <circle cx="10.129" cy="9.071"  fill="#DCDCDC" r="6.024"/>
                        <circle cx="10.129" cy="9.071"  fill="#C8C8C8" r="4.961"/>
                        <polygon points="5.593,1.984 3.042,1.984 3.042,4.535 "  fill="#E6E6E6"/>
                        <path d="M13.201,6.236V6.36c0,0.157-0.127,0.283-0.283,0.283h-2.006c-0.157,0-0.283-0.127-0.283-0.283l0-2.199c-0.167-0.017-0.329-0.05-0.5-0.05c-0.171,0-0.333,0.033-0.5,0.05v6.905c0,0.157-0.127,0.283-0.283,0.283H7.339c-0.157,0-0.283-0.127-0.283-0.283v-4.83c0-0.157-0.127-0.283-0.283-0.283H6.299c-0.696,0.854-1.131,1.93-1.131,3.118c0,1.263,0.486,2.402,1.263,3.278h2.914c0.157,0,0.283,0.127,0.283,0.283v1.349c0.167,0.017,0.329,0.05,0.5,0.05c0.171,0,0.333-0.033,0.5-0.05l0-6.054c0-0.157,0.127-0.283,0.283-0.283h2.006c0.157,0,0.283,0.127,0.283,0.283v3.979c0,0.157,0.127,0.283,0.283,0.283h0.473c0.696-0.854,1.131-1.93,1.131-3.118s-0.435-2.264-1.131-3.118l-0.471,0C13.328,5.953,13.201,6.08,13.201,6.236z"  fill="#F0F0F0"/>
                        <rect x="7.197" y="8.844" width="2.268" height="1.701"  fill="#645050"/>
                        <rect x="10.97" y="8.787" width="0.85" height="0.567"  fill="#FF4000"/>
                        <rect x="10.97" y="11.622" width="0.85" height="0.567"  fill="#40FF40"/>
                        <rect x="10.97" y="5.953" width="0.85" height="0.567"  fill="#4040FF"/>
                    </g>
                </g>
            </g>
        </g>
        <g transform="matrix(1, 0, 0, 1, 37.3465, 8.7876)" >
            <g >
                <g gorn="0.2.10.0.0"  id="ws2812b-narrow_2_">
                    <g >
                        <rect x="2.475" y="3.402" width="15.307" height="1.984"  fill="#DCDCDC"/>
                        <rect x="2.475" y="12.756" width="15.307" height="1.984"  fill="#DCDCDC"/>
                        <rect x="3.042" y="1.984" width="14.173" height="14.173"  fill="#F0F0F0"/>
                        <circle cx="10.129" cy="9.071"  fill="#DCDCDC" r="6.024"/>
                        <circle cx="10.129" cy="9.071"  fill="#C8C8C8" r="4.961"/>
                        <polygon points="5.593,1.984 3.042,1.984 3.042,4.535 "  fill="#E6E6E6"/>
                        <path d="M13.201,6.236V6.36c0,0.157-0.127,0.283-0.283,0.283h-2.006c-0.157,0-0.283-0.127-0.283-0.283l0-2.199c-0.167-0.017-0.329-0.05-0.5-0.05c-0.171,0-0.333,0.033-0.5,0.05v6.905c0,0.157-0.127,0.283-0.283,0.283H7.339c-0.157,0-0.283-0.127-0.283-0.283v-4.83c0-0.157-0.127-0.283-0.283-0.283H6.299c-0.696,0.854-1.131,1.93-1.131,3.118c0,1.263,0.486,2.402,1.263,3.278h2.914c0.157,0,0.283,0.127,0.283,0.283v1.349c0.167,0.017,0.329,0.05,0.5,0.05c0.171,0,0.333-0.033,0.5-0.05l0-6.054c0-0.157,0.127-0.283,0.283-0.283h2.006c0.157,0,0.283,0.127,0.283,0.283v3.979c0,0.157,0.127,0.283,0.283,0.283h0.473c0.696-0.854,1.131-1.93,1.131-3.118s-0.435-2.264-1.131-3.118l-0.471,0C13.328,5.953,13.201,6.08,13.201,6.236z"  fill="#F0F0F0"/>
                        <rect x="7.197" y="8.844" width="2.268" height="1.701"  fill="#645050"/>
                        <rect x="10.97" y="8.787" width="0.85" height="0.567"  fill="#FF4000"/>
                        <rect x="10.97" y="11.622" width="0.85" height="0.567"  fill="#40FF40"/>
                        <rect x="10.97" y="5.953" width="0.85" height="0.567"  fill="#4040FF"/>
                    </g>
                </g>
            </g>
        </g>
        <g transform="matrix(1, 0, 0, 1, 55.3465, 8.7876)" >
            <g >
                <g gorn="0.2.11.0.0"  id="ws2812b-narrow_3_">
                    <g >
                        <rect x="2.475" y="3.402" width="15.307" height="1.984"  fill="#DCDCDC"/>
                        <rect x="2.475" y="12.756" width="15.307" height="1.984"  fill="#DCDCDC"/>
                        <rect x="3.042" y="1.984" width="14.173" height="14.173"  fill="#F0F0F0"/>
                        <circle cx="10.129" cy="9.071"  fill="#DCDCDC" r="6.024"/>
                        <circle cx="10.129" cy="9.071"  fill="#C8C8C8" r="4.961"/>
                        <polygon points="5.593,1.984 3.042,1.984 3.042,4.535 "  fill="#E6E6E6"/>
                        <path d="M13.201,6.236V6.36c0,0.157-0.127,0.283-0.283,0.283h-2.006c-0.157,0-0.283-0.127-0.283-0.283l0-2.199c-0.167-0.017-0.329-0.05-0.5-0.05c-0.171,0-0.333,0.033-0.5,0.05v6.905c0,0.157-0.127,0.283-0.283,0.283H7.339c-0.157,0-0.283-0.127-0.283-0.283v-4.83c0-0.157-0.127-0.283-0.283-0.283H6.299c-0.696,0.854-1.131,1.93-1.131,3.118c0,1.263,0.486,2.402,1.263,3.278h2.914c0.157,0,0.283,0.127,0.283,0.283v1.349c0.167,0.017,0.329,0.05,0.5,0.05c0.171,0,0.333-0.033,0.5-0.05l0-6.054c0-0.157,0.127-0.283,0.283-0.283h2.006c0.157,0,0.283,0.127,0.283,0.283v3.979c0,0.157,0.127,0.283,0.283,0.283h0.473c0.696-0.854,1.131-1.93,1.131-3.118s-0.435-2.264-1.131-3.118l-0.471,0C13.328,5.953,13.201,6.08,13.201,6.236z"  fill="#F0F0F0"/>
                        <rect x="7.197" y="8.844" width="2.268" height="1.701"  fill="#645050"/>
                        <rect x="10.97" y="8.787" width="0.85" height="0.567"  fill="#FF4000"/>
                        <rect x="10.97" y="11.622" width="0.85" height="0.567"  fill="#40FF40"/>
                        <rect x="10.97" y="5.953" width="0.85" height="0.567"  fill="#4040FF"/>
                    </g>
                </g>
            </g>
        </g>
        <g transform="matrix(1, 0, 0, 1, 73.3464, 8.7876)" >
            <g >
                <g gorn="0.2.12.0.0"  id="ws2812b-narrow_4_">
                    <g >
                        <rect x="2.475" y="3.402" width="15.307" height="1.984"  fill="#DCDCDC"/>
                        <rect x="2.475" y="12.756" width="15.307" height="1.984"  fill="#DCDCDC"/>
                        <rect x="3.042" y="1.984" width="14.173" height="14.173"  fill="#F0F0F0"/>
                        <circle cx="10.129" cy="9.071"  fill="#DCDCDC" r="6.024"/>
                        <circle cx="10.129" cy="9.071"  fill="#C8C8C8" r="4.961"/>
                        <polygon points="5.593,1.984 3.042,1.984 3.042,4.535 "  fill="#E6E6E6"/>
                        <path d="M13.201,6.236V6.36c0,0.157-0.127,0.283-0.283,0.283h-2.006c-0.157,0-0.283-0.127-0.283-0.283l0-2.199c-0.167-0.017-0.329-0.05-0.5-0.05c-0.171,0-0.333,0.033-0.5,0.05v6.905c0,0.157-0.127,0.283-0.283,0.283H7.339c-0.157,0-0.283-0.127-0.283-0.283v-4.83c0-0.157-0.127-0.283-0.283-0.283H6.299c-0.696,0.854-1.131,1.93-1.131,3.118c0,1.263,0.486,2.402,1.263,3.278h2.914c0.157,0,0.283,0.127,0.283,0.283v1.349c0.167,0.017,0.329,0.05,0.5,0.05c0.171,0,0.333-0.033,0.5-0.05l0-6.054c0-0.157,0.127-0.283,0.283-0.283h2.006c0.157,0,0.283,0.127,0.283,0.283v3.979c0,0.157,0.127,0.283,0.283,0.283h0.473c0.696-0.854,1.131-1.93,1.131-3.118s-0.435-2.264-1.131-3.118l-0.471,0C13.328,5.953,13.201,6.08,13.201,6.236z"  fill="#F0F0F0"/>
                        <rect x="7.197" y="8.844" width="2.268" height="1.701"  fill="#645050"/>
                        <rect x="10.97" y="8.787" width="0.85" height="0.567"  fill="#FF4000"/>
                        <rect x="10.97" y="11.622" width="0.85" height="0.567"  fill="#40FF40"/>
                        <rect x="10.97" y="5.953" width="0.85" height="0.567"  fill="#4040FF"/>
                    </g>
                </g>
            </g>
        </g>
        <g transform="matrix(1, 0, 0, 1, 91.3464, 8.7876)" >
            <g >
                <g gorn="0.2.13.0.0"  id="ws2812b-narrow_5_">
                    <g >
                        <rect x="2.475" y="3.402" width="15.307" height="1.984"  fill="#DCDCDC"/>
                        <rect x="2.475" y="12.756" width="15.307" height="1.984"  fill="#DCDCDC"/>
                        <rect x="3.042" y="1.984" width="14.173" height="14.173"  fill="#F0F0F0"/>
                        <circle cx="10.129" cy="9.071"  fill="#DCDCDC" r="6.024"/>
                        <circle cx="10.129" cy="9.071"  fill="#C8C8C8" r="4.961"/>
                        <polygon points="5.593,1.984 3.042,1.984 3.042,4.535 "  fill="#E6E6E6"/>
                        <path d="M13.201,6.236V6.36c0,0.157-0.127,0.283-0.283,0.283h-2.006c-0.157,0-0.283-0.127-0.283-0.283l0-2.199c-0.167-0.017-0.329-0.05-0.5-0.05c-0.171,0-0.333,0.033-0.5,0.05v6.905c0,0.157-0.127,0.283-0.283,0.283H7.339c-0.157,0-0.283-0.127-0.283-0.283v-4.83c0-0.157-0.127-0.283-0.283-0.283H6.299c-0.696,0.854-1.131,1.93-1.131,3.118c0,1.263,0.486,2.402,1.263,3.278h2.914c0.157,0,0.283,0.127,0.283,0.283v1.349c0.167,0.017,0.329,0.05,0.5,0.05c0.171,0,0.333-0.033,0.5-0.05l0-6.054c0-0.157,0.127-0.283,0.283-0.283h2.006c0.157,0,0.283,0.127,0.283,0.283v3.979c0,0.157,0.127,0.283,0.283,0.283h0.473c0.696-0.854,1.131-1.93,1.131-3.118s-0.435-2.264-1.131-3.118l-0.471,0C13.328,5.953,13.201,6.08,13.201,6.236z"  fill="#F0F0F0"/>
                        <rect x="7.197" y="8.844" width="2.268" height="1.701"  fill="#645050"/>
                        <rect x="10.97" y="8.787" width="0.85" height="0.567"  fill="#FF4000"/>
                        <rect x="10.97" y="11.622" width="0.85" height="0.567"  fill="#40FF40"/>
                        <rect x="10.97" y="5.953" width="0.85" height="0.567"  fill="#4040FF"/>
                    </g>
                </g>
            </g>
        </g>
        <g transform="matrix(1, 0, 0, 1, 109.346, 8.7876)" >
            <g >
                <g gorn="0.2.14.0.0"  id="ws2812b-narrow_6_">
                    <g >
                        <rect x="2.475" y="3.402" width="15.307" height="1.984"  fill="#DCDCDC"/>
                        <rect x="2.475" y="12.756" width="15.307" height="1.984"  fill="#DCDCDC"/>
                        <rect x="3.042" y="1.984" width="14.173" height="14.173"  fill="#F0F0F0"/>
                        <circle cx="10.129" cy="9.071"  fill="#DCDCDC" r="6.024"/>
                        <circle cx="10.129" cy="9.071"  fill="#C8C8C8" r="4.961"/>
                        <polygon points="5.593,1.984 3.042,1.984 3.042,4.535 "  fill="#E6E6E6"/>
                        <path d="M13.201,6.236V6.36c0,0.157-0.127,0.283-0.283,0.283h-2.006c-0.157,0-0.283-0.127-0.283-0.283l0-2.199c-0.167-0.017-0.329-0.05-0.5-0.05c-0.171,0-0.333,0.033-0.5,0.05v6.905c0,0.157-0.127,0.283-0.283,0.283H7.339c-0.157,0-0.283-0.127-0.283-0.283v-4.83c0-0.157-0.127-0.283-0.283-0.283H6.299c-0.696,0.854-1.131,1.93-1.131,3.118c0,1.263,0.486,2.402,1.263,3.278h2.914c0.157,0,0.283,0.127,0.283,0.283v1.349c0.167,0.017,0.329,0.05,0.5,0.05c0.171,0,0.333-0.033,0.5-0.05l0-6.054c0-0.157,0.127-0.283,0.283-0.283h2.006c0.157,0,0.283,0.127,0.283,0.283v3.979c0,0.157,0.127,0.283,0.283,0.283h0.473c0.696-0.854,1.131-1.93,1.131-3.118s-0.435-2.264-1.131-3.118l-0.471,0C13.328,5.953,13.201,6.08,13.201,6.236z"  fill="#F0F0F0"/>
                        <rect x="7.197" y="8.844" width="2.268" height="1.701"  fill="#645050"/>
                        <rect x="10.97" y="8.787" width="0.85" height="0.567"  fill="#FF4000"/>
                        <rect x="10.97" y="11.622" width="0.85" height="0.567"  fill="#40FF40"/>
                        <rect x="10.97" y="5.953" width="0.85" height="0.567"  fill="#4040FF"/>
                    </g>
                </g>
            </g>
        </g>
        <g transform="matrix(1, 0, 0, 1, 127.346, 8.7876)" >
            <g >
                <g gorn="0.2.15.0.0"  id="ws2812b-narrow_7_">
                    <g >
                        <rect x="2.475" y="3.402" width="15.307" height="1.984"  fill="#DCDCDC"/>
                        <rect x="2.475" y="12.756" width="15.307" height="1.984"  fill="#DCDCDC"/>
                        <rect x="3.042" y="1.984" width="14.173" height="14.173"  fill="#F0F0F0"/>
                        <circle cx="10.129" cy="9.071"  fill="#DCDCDC" r="6.024"/>
                        <circle cx="10.129" cy="9.071"  fill="#C8C8C8" r="4.961"/>
                        <polygon points="5.593,1.984 3.042,1.984 3.042,4.535 "  fill="#E6E6E6"/>
                        <path d="M13.201,6.236V6.36c0,0.157-0.127,0.283-0.283,0.283h-2.006c-0.157,0-0.283-0.127-0.283-0.283l0-2.199c-0.167-0.017-0.329-0.05-0.5-0.05c-0.171,0-0.333,0.033-0.5,0.05v6.905c0,0.157-0.127,0.283-0.283,0.283H7.339c-0.157,0-0.283-0.127-0.283-0.283v-4.83c0-0.157-0.127-0.283-0.283-0.283H6.299c-0.696,0.854-1.131,1.93-1.131,3.118c0,1.263,0.486,2.402,1.263,3.278h2.914c0.157,0,0.283,0.127,0.283,0.283v1.349c0.167,0.017,0.329,0.05,0.5,0.05c0.171,0,0.333-0.033,0.5-0.05l0-6.054c0-0.157,0.127-0.283,0.283-0.283h2.006c0.157,0,0.283,0.127,0.283,0.283v3.979c0,0.157,0.127,0.283,0.283,0.283h0.473c0.696-0.854,1.131-1.93,1.131-3.118s-0.435-2.264-1.131-3.118l-0.471,0C13.328,5.953,13.201,6.08,13.201,6.236z"  fill="#F0F0F0"/>
                        <rect x="7.197" y="8.844" width="2.268" height="1.701"  fill="#645050"/>
                        <rect x="10.97" y="8.787" width="0.85" height="0.567"  fill="#FF4000"/>
                        <rect x="10.97" y="11.622" width="0.85" height="0.567"  fill="#40FF40"/>
                        <rect x="10.97" y="5.953" width="0.85" height="0.567"  fill="#4040FF"/>
                    </g>
                </g>
            </g>
        </g>
        <g transform="matrix(1, 0, 0, 1, 4.0055, 3.2685)" >
            <g >
                <g gorn="0.2.16.0.0"  id="_x30_805-res">
                    <path d="M7.861,3.543H2.758c-0.156,0-0.283-0.127-0.283-0.283V0.283C2.475,0.127,2.602,0,2.758,0H7.86c0.157,0,0.283,0.127,0.283,0.283V3.26C8.144,3.416,8.017,3.543,7.861,3.543z"  fill="#DCDCDC"/>
                    <rect x="3.538" y="0" width="3.543" height="3.543"  fill="#333333"/>
                </g>
            </g>
        </g>
        <g transform="matrix(1, 0, 0, 1, 65.8848, 0.663566)" >
            <g >
                <g gorn="0.2.17.0.0"  id="adafruit_2.5mm">
                    <path d="M12.222,3.082c-0.023-0.142-0.1-0.183-0.286-0.243c-0.142-0.045-1.089-0.347-1.089-0.347s-0.66-0.249-1.15,0.103c-0.066,0.048-0.134,0.102-0.203,0.16c0.058-0.069,0.112-0.137,0.159-0.203c0.352-0.49,0.101-1.15,0.101-1.15S9.451,0.455,9.405,0.313c-0.06-0.186-0.1-0.263-0.243-0.285C9.02,0.005,8.958,0.066,8.844,0.225c-0.087,0.12-0.667,0.928-0.667,0.928S7.736,1.704,7.92,2.279c0.025,0.077,0.055,0.159,0.089,0.242C7.961,2.445,7.913,2.372,7.865,2.307C7.507,1.821,6.803,1.855,6.803,1.855S5.808,1.851,5.66,1.851c-0.195,0-0.281,0.014-0.347,0.143C5.248,2.122,5.286,2.2,5.402,2.358c0.088,0.12,0.677,0.921,0.677,0.921s0.388,0.59,0.991,0.592c0.081,0,0.168-0.003,0.257-0.01C7.24,3.883,7.156,3.907,7.079,3.932c-0.573,0.19-0.758,0.871-0.758,0.871s-0.31,0.944-0.357,1.085C5.903,6.074,5.891,6.16,5.993,6.262c0.102,0.102,0.188,0.09,0.374,0.028c0.141-0.046,1.085-0.359,1.085-0.359s0.681-0.187,0.869-0.76c0.025-0.077,0.049-0.16,0.07-0.247C8.385,5.014,8.382,5.1,8.382,5.181c0.004,0.603,0.594,0.99,0.594,0.99s0.802,0.588,0.922,0.675C10.056,6.962,10.134,7,10.263,6.935c0.128-0.066,0.143-0.152,0.142-0.347c-0.001-0.149-0.006-1.143-0.006-1.143s0.033-0.705-0.454-1.062C9.88,4.335,9.807,4.287,9.731,4.24c0.083,0.034,0.165,0.064,0.242,0.088c0.575,0.183,1.125-0.259,1.125-0.259s0.807-0.581,0.927-0.668C12.184,3.286,12.244,3.224,12.222,3.082z M8.797,2.35c0.108,0.017,0.162,0.248,0.12,0.515s-0.164,0.47-0.273,0.453C8.536,3.301,8.482,3.07,8.524,2.803C8.566,2.535,8.688,2.332,8.797,2.35z M7.408,3.059c0.05-0.098,0.286-0.078,0.527,0.045s0.397,0.302,0.347,0.399c-0.05,0.098-0.286,0.078-0.527-0.045C7.513,3.335,7.358,3.157,7.408,3.059z M8.14,4.393C7.949,4.584,7.731,4.677,7.653,4.599C7.576,4.521,7.668,4.303,7.859,4.112C8.05,3.92,8.268,3.827,8.346,3.905S8.332,4.201,8.14,4.393z M9.194,4.842c-0.098,0.05-0.277-0.105-0.4-0.346C8.671,4.254,8.65,4.018,8.748,3.968c0.098-0.05,0.277,0.105,0.4,0.346C9.271,4.556,9.292,4.792,9.194,4.842z M9.448,3.725C9.181,3.767,8.95,3.714,8.932,3.606C8.915,3.497,9.118,3.375,9.385,3.332C9.652,3.289,9.883,3.343,9.9,3.451C9.918,3.56,9.715,3.682,9.448,3.725z"  fill="#DCDCDC"/>
                </g>
            </g>
        </g>
    </g>
</svg>
