<?xml version='1.0' encoding='UTF-8' standalone='no'?>
<!-- Created with Fritzing (http://www.fritzing.org/) -->
<svg xmlns="http://www.w3.org/2000/svg" baseProfile="tiny" width="0.5in"  x="0in" height="0.65in" viewBox="0 0 36 46.8" version="1.2" y="0in">
    <desc>
        <referenceFile>Adafruit LM4040_breadboard.svg</referenceFile>
    </desc>
    <desc >Fritzing breadboard generated by brd2svg</desc>
    <g id="breadboard"  gorn="0.1">
        <g id="icon"  gorn="0.1.0">
            <path  stroke-width="0" stroke="none" fill="#014cb1" d="M0,43.2L0,3.6A3.6,3.6,0,0,1,3.6,0L32.4,0A3.6,3.6,0,0,1,36,3.6L36,43.2A3.6,3.6,0,0,1,32.4,46.8L3.6,46.8A3.6,3.6,0,0,1,0,43.2M5.78268,39.6a1.41732,1.41732,0,1,0,2.83465,0,1.41732,1.41732,0,1,0,-2.83465,0zM12.9827,39.6a1.41732,1.41732,0,1,0,2.83465,0,1.41732,1.41732,0,1,0,-2.83465,0zM20.1827,39.6a1.41732,1.41732,0,1,0,2.83465,0,1.41732,1.41732,0,1,0,-2.83465,0zM27.3827,39.6a1.41732,1.41732,0,1,0,2.83465,0,1.41732,1.41732,0,1,0,-2.83465,0z"/>
            <g >
                <title >layer 21</title>
                <g >
                    <title >text:4.096</title>
                    <text  stroke-width="0" stroke="none" x="23.04" fill="#ffffff" font-family="OCRA" text-anchor="start" font-size="3.3408" y="46.08">4.096</text>
                </g>
                <g >
                    <title >text:2.048</title>
                    <text  stroke-width="0" stroke="none" x="15.84" fill="#ffffff" font-family="OCRA" text-anchor="start" font-size="3.3408" y="36">2.048</text>
                </g>
                <g >
                    <title >text:GND</title>
                    <text  stroke-width="0" stroke="none" x="10.8" fill="#ffffff" font-family="OCRA" text-anchor="start" font-size="3.3408" y="46.08">GND</text>
                </g>
                <g >
                    <title >text:VIN</title>
                    <text  stroke-width="0" stroke="none" x="3.6" fill="#ffffff" font-family="OCRA" text-anchor="start" font-size="3.3408" y="36">VIN</text>
                </g>
                <g >
                    <title >text:0.1% VREFs</title>
                    <text  stroke-width="0" stroke="none" x="5.76" fill="#ffffff" font-family="OCRA" text-anchor="start" font-size="3.3408" y="10.08">0.1% VREFs</text>
                </g>
                <g >
                    <title >text:LM4040</title>
                    <text  stroke-width="0" stroke="none" x="10.08" fill="#ffffff" font-family="OCRA" text-anchor="start" font-size="3.3408" y="5.04">LM4040</text>
                </g>
                <g >
                    <title >element:D1</title>
                    <g >
                        <title >package:SOT23-R</title>
                        <line y1="22.7293"  stroke-width="0.576" stroke="white" stroke-linecap="round" x2="6.3428" x1="6.3428" y2="19.008"/>
                        <line y1="19.008"  stroke-width="0.576" stroke="white" stroke-linecap="round" x2="9.20239" x1="6.3428" y2="19.008"/>
                        <line y1="19.008"  stroke-width="0.576" stroke="white" stroke-linecap="round" x2="15.2572" x1="15.2572" y2="22.7293"/>
                        <line y1="19.008"  stroke-width="0.576" stroke="white" stroke-linecap="round" x2="15.2572" x1="12.3976" y2="19.008"/>
                        <line y1="22.752"  stroke-width="0.576" stroke="white" stroke-linecap="round" x2="9.70466" x1="11.8556" y2="22.752"/>
                    </g>
                </g>
                <g >
                    <title >element:D2</title>
                    <g >
                        <title >package:SOT23-R</title>
                        <line y1="22.7293"  stroke-width="0.576" stroke="white" stroke-linecap="round" x2="20.7428" x1="20.7428" y2="19.008"/>
                        <line y1="19.008"  stroke-width="0.576" stroke="white" stroke-linecap="round" x2="23.6024" x1="20.7428" y2="19.008"/>
                        <line y1="19.008"  stroke-width="0.576" stroke="white" stroke-linecap="round" x2="29.6572" x1="29.6572" y2="22.7293"/>
                        <line y1="19.008"  stroke-width="0.576" stroke="white" stroke-linecap="round" x2="29.6572" x1="26.7976" y2="19.008"/>
                        <line y1="22.752"  stroke-width="0.576" stroke="white" stroke-linecap="round" x2="24.1047" x1="26.2556" y2="22.752"/>
                    </g>
                </g>
                <g >
                    <title >element:FID1</title>
                    <g >
                        <title >package:FIDUCIAL_1MM</title>
                    </g>
                </g>
                <g >
                    <title >element:FID2</title>
                    <g >
                        <title >package:FIDUCIAL_1MM</title>
                    </g>
                </g>
                <g >
                    <title >element:JP1</title>
                    <g >
                        <title >package:1X04_ROUND</title>
                    </g>
                </g>
                <g >
                    <title >element:R1</title>
                    <g >
                        <title >package:0805-NO</title>
                        <line y1="14.4"  stroke-width="0.864" stroke="white" stroke-linecap="round" x2="10.8" x1="10.8" y2="11.52"/>
                    </g>
                </g>
                <g >
                    <title >element:R2</title>
                    <g >
                        <title >package:0805-NO</title>
                        <line y1="14.4"  stroke-width="0.864" stroke="white" stroke-linecap="round" x2="25.2" x1="25.2" y2="11.52"/>
                    </g>
                </g>
                <g >
                    <title >element:R3</title>
                    <g >
                        <title >package:0805-NO</title>
                        <line y1="30.24"  stroke-width="0.864" stroke="white" stroke-linecap="round" x2="10.8" x1="10.8" y2="27.36"/>
                    </g>
                </g>
                <g >
                    <title >element:R4</title>
                    <g >
                        <title >package:0805-NO</title>
                        <line y1="30.24"  stroke-width="0.864" stroke="white" stroke-linecap="round" x2="25.2" x1="25.2" y2="27.36"/>
                    </g>
                </g>
                <g >
                    <title >element:U$5</title>
                    <g >
                        <title >package:ADAFRUIT_5MM</title>
                    </g>
                </g>
            </g>
            <rect width="1.8" id="connector0pin"  stroke-width="0" gorn="0.1.0.2" stroke="none" x="7.20706" fill="#9A916C" height="2.88" y="22.2746"/>
            <rect width="1.8" id="connector1pin"  stroke-width="0" gorn="0.1.0.3" stroke="none" x="12.5929" fill="#9A916C" height="2.88" y="22.2746"/>
            <rect width="1.8" id="connector2pin"  stroke-width="0" gorn="0.1.0.4" stroke="none" x="9.9" fill="#9A916C" height="2.88" y="16.6054"/>
            <rect width="1.8" id="connector3pin"  stroke-width="0" gorn="0.1.0.5" stroke="none" x="21.6071" fill="#9A916C" height="2.88" y="22.2746"/>
            <rect width="1.8" id="connector4pin"  stroke-width="0" gorn="0.1.0.6" stroke="none" x="26.9929" fill="#9A916C" height="2.88" y="22.2746"/>
            <rect width="1.8" id="connector5pin"  stroke-width="0" gorn="0.1.0.7" stroke="none" x="24.3" fill="#9A916C" height="2.88" y="16.6054"/>
            <rect width="2.83465" id="connector6pin"  stroke-width="0" gorn="0.1.0.8" stroke="none" x="2.18268" fill="#9A916C" height="2.83465" rx="1.41732" ry="1.41732" y="2.18268"/>
            <rect width="2.83465" id="connector7pin"  stroke-width="0" gorn="0.1.0.9" stroke="none" x="30.9827" fill="#9A916C" height="2.83465" rx="1.41732" ry="1.41732" y="33.1427"/>
            <circle r="1.89666" id="connector8pin" cx="7.2"  stroke-width="0.95868" gorn="0.1.0.10" stroke="#9A916C" fill="none" cy="39.6" connectorname="VIN"/>
            <rect width="3.79332"  stroke-width="0.95868" stroke="#9A916C" x="5.30334" fill="none" height="3.79332" y="37.7033"/>
            <circle r="1.89666" id="connector9pin" cx="14.4"  stroke-width="0.95868" gorn="0.1.0.12" stroke="#9A916C" fill="none" cy="39.6" connectorname="GND"/>
            <circle r="1.89666" id="connector10pin" cx="21.6"  stroke-width="0.95868" gorn="0.1.0.13" stroke="#9A916C" fill="none" cy="39.6" connectorname="2.048V"/>
            <circle r="1.89666" id="connector11pin" cx="28.8"  stroke-width="0.95868" gorn="0.1.0.14" stroke="#9A916C" fill="none" cy="39.6" connectorname="4.096V"/>
            <g  transform="matrix(-1, 0, 0, -1, 26.9858, 25.92)">
                <g >
                    <rect width="3.68504" id="connector12pin"  stroke-width="0" gorn="0.1.0.15.0.0" stroke="none" x="11.6504" fill="#9A916C" height="4.25197" y="10.834"/>
                </g>
            </g>
            <g  transform="matrix(-1, 0, 0, -1, 16.2142, 25.92)">
                <g >
                    <rect width="3.68504" id="connector13pin"  stroke-width="0" gorn="0.1.0.16.0.0" stroke="none" x="6.26457" fill="#9A916C" height="4.25197" y="10.834"/>
                </g>
            </g>
            <g  transform="matrix(-1, 0, 0, -1, 55.7858, 25.92)">
                <g >
                    <rect width="3.68504" id="connector14pin"  stroke-width="0" gorn="0.1.0.17.0.0" stroke="none" x="26.0504" fill="#9A916C" height="4.25197" y="10.834"/>
                </g>
            </g>
            <g  transform="matrix(-1, 0, 0, -1, 45.0142, 25.92)">
                <g >
                    <rect width="3.68504" id="connector15pin"  stroke-width="0" gorn="0.1.0.18.0.0" stroke="none" x="20.6646" fill="#9A916C" height="4.25197" y="10.834"/>
                </g>
            </g>
            <g  transform="matrix(-1, 0, 0, -1, 26.9858, 57.6)">
                <g >
                    <rect width="3.68504" id="connector16pin"  stroke-width="0" gorn="0.1.0.19.0.0" stroke="none" x="11.6504" fill="#9A916C" height="4.25197" y="26.674"/>
                </g>
            </g>
            <g  transform="matrix(-1, 0, 0, -1, 16.2142, 57.6)">
                <g >
                    <rect width="3.68504" id="connector17pin"  stroke-width="0" gorn="0.1.0.20.0.0" stroke="none" x="6.26457" fill="#9A916C" height="4.25197" y="26.674"/>
                </g>
            </g>
            <g  transform="matrix(-1, 0, 0, -1, 55.7858, 57.6)">
                <g >
                    <rect width="3.68504" id="connector18pin"  stroke-width="0" gorn="0.1.0.21.0.0" stroke="none" x="26.0504" fill="#9A916C" height="4.25197" y="26.674"/>
                </g>
            </g>
            <g  transform="matrix(-1, 0, 0, -1, 45.0142, 57.6)">
                <g >
                    <rect width="3.68504" id="connector19pin"  stroke-width="0" gorn="0.1.0.22.0.0" stroke="none" x="20.6646" fill="#9A916C" height="4.25197" y="26.674"/>
                </g>
            </g>
        </g>
        <g  transform="matrix(1, 0, 0, 1, 6.548, 17.053)">
            <g id="sot23-r"  gorn="0.1.1.0">
                <g >
                    <rect width="1.417"  x="0.850003" fill="#DCDCDC" height="2.976" y="4.677"/>
                    <rect width="1.417"  x="6.236" fill="#DCDCDC" height="2.976" y="4.677"/>
                    <rect width="1.417"  x="3.543" fill="#DCDCDC" height="3.118"/>
                    <rect width="8.50399"  fill="#303030" height="3.685" y="1.984"/>
                </g>
            </g>
        </g>
        <g  transform="matrix(1, 0, 0, 1, 20.948, 17.053)">
            <g id="sot23-r"  gorn="0.1.2.0">
                <g >
                    <rect width="1.417"  x="0.850003" fill="#DCDCDC" height="2.976" y="4.677"/>
                    <rect width="1.417"  x="6.236" fill="#DCDCDC" height="2.976" y="4.677"/>
                    <rect width="1.417"  x="3.543" fill="#DCDCDC" height="3.118"/>
                    <rect width="8.50399"  fill="#303030" height="3.685" y="1.984"/>
                </g>
            </g>
        </g>
        <g  transform="matrix(1, 0, 0, 1, 7.9655, 11.1885)">
            <g id="0805-res"  gorn="0.1.3.0">
                <g  transform="matrix(-1, 0, 0, -1, 5.669, 3.543)">
                    <g >
                        <path  fill="#DCDCDC" d="M5.386,3.543L0.283,3.543C0.127,3.543,0,3.416,0,3.26L0,0.283C0,0.127,0.127,0,0.283,0l5.102,0c0.157,0,0.283,0.127,0.283,0.283L5.668,3.26C5.669,3.416,5.542,3.543,5.386,3.543z"/>
                        <rect width="3.543"  x="1.063" fill="#333333" height="3.543"/>
                    </g>
                </g>
            </g>
        </g>
        <g  transform="matrix(1, 0, 0, 1, 22.3655, 11.1885)">
            <g id="0805-res"  gorn="0.1.4.0">
                <g  transform="matrix(-1, 0, 0, -1, 5.669, 3.543)">
                    <g >
                        <path  fill="#DCDCDC" d="M5.386,3.543L0.283,3.543C0.127,3.543,0,3.416,0,3.26L0,0.283C0,0.127,0.127,0,0.283,0l5.102,0c0.157,0,0.283,0.127,0.283,0.283L5.668,3.26C5.669,3.416,5.542,3.543,5.386,3.543z"/>
                        <rect width="3.543"  x="1.063" fill="#333333" height="3.543"/>
                    </g>
                </g>
            </g>
        </g>
        <g  transform="matrix(1, 0, 0, 1, 7.9655, 27.0285)">
            <g id="0805-res"  gorn="0.1.5.0">
                <g  transform="matrix(-1, 0, 0, -1, 5.669, 3.543)">
                    <g >
                        <path  fill="#DCDCDC" d="M5.386,3.543L0.283,3.543C0.127,3.543,0,3.416,0,3.26L0,0.283C0,0.127,0.127,0,0.283,0l5.102,0c0.157,0,0.283,0.127,0.283,0.283L5.668,3.26C5.669,3.416,5.542,3.543,5.386,3.543z"/>
                        <rect width="3.543"  x="1.063" fill="#333333" height="3.543"/>
                    </g>
                </g>
            </g>
        </g>
        <g  transform="matrix(1, 0, 0, 1, 22.3655, 27.0285)">
            <g id="0805-res"  gorn="0.1.6.0">
                <g  transform="matrix(-1, 0, 0, -1, 5.669, 3.543)">
                    <g >
                        <path  fill="#DCDCDC" d="M5.386,3.543L0.283,3.543C0.127,3.543,0,3.416,0,3.26L0,0.283C0,0.127,0.127,0,0.283,0l5.102,0c0.157,0,0.283,0.127,0.283,0.283L5.668,3.26C5.669,3.416,5.542,3.543,5.386,3.543z"/>
                        <rect width="3.543"  x="1.063" fill="#333333" height="3.543"/>
                    </g>
                </g>
            </g>
        </g>
    </g>
</svg>
