<?xml version='1.0' encoding='UTF-8' standalone='no'?>
<!-- Created with Fritzing (http://www.fritzing.org/) -->
<svg xmlns="http://www.w3.org/2000/svg" y="0in" viewBox="0 0 28.8 36" gorn="0" id="svg2" x="0in" version="1.2" width="0.4in"  height="0.5in">
    <desc>
        <referenceFile>Adafruit GA1A1S202WP_breadboard.svg</referenceFile>
    </desc>
    <metadata id="metadata188" />
    <defs id="defs186" />
    <desc id="desc4" >Fritzing breadboard generated by brd2svg</desc>
    <g gorn="0.3" id="icon" >
        <path d="m 7.2,0 14.4,0 a 7.2,7.2 0 0 1 7.2,7.2 l 0,21.6 A 7.2,7.2 0 0 1 21.6,36 L 7.2,36 A 7.2,7.2 0 0 1 0,28.8 L 0,7.2 A 7.2,7.2 0 0 1 7.2,0 M 5.78268,32.3773 a 1.417325,1.417325 0 1 0 2.83465,0 1.417325,1.417325 0 1 0 -2.83465,0 z m 7.20002,0 a 1.417325,1.417325 0 1 0 2.83465,0 1.417325,1.417325 0 1 0 -2.83465,0 z m 7.2,0 a 1.417325,1.417325 0 1 0 2.83465,0 1.417325,1.417325 0 1 0 -2.83465,0 z M 10.8567,7.2 a 3.54331,3.54331 0 1 0 7.08661,0 3.54331,3.54331 0 1 0 -7.08661,0 z" gorn="0.3.0" style="fill:#014cb1;stroke:none;stroke-width:0" id="path8" />
        <g gorn="0.3.1" id="g10" >
            <title id="title12" >layer 21</title>
            <g gorn="0.3.1.1" id="g14" >
                <title id="title16" >text:VCC</title>
                <text y="29.5257" font-size="2.67264" gorn="0.3.1.1.1" style="font-size:2.67264009px;font-family:OCRA;text-anchor:start;fill:#ffffff;stroke:none;stroke-width:0" id="text18" x="3.4015801" >VCC</text>
            </g>
            <g gorn="0.3.1.2" id="g20" >
                <title id="title22" >text:OUT</title>
                <text y="29.52" font-size="2.67264" gorn="0.3.1.2.1" style="font-size:2.67264009px;font-family:OCRA;text-anchor:start;fill:#ffffff;stroke:none;stroke-width:0" id="text24" x="11.52" >OUT</text>
            </g>
            <g gorn="0.3.1.3" id="g26" >
                <title id="title28" >text:GND</title>
                <text y="29.52" font-size="2.67264" gorn="0.3.1.3.1" style="font-size:2.67264009px;font-family:OCRA;text-anchor:start;fill:#ffffff;stroke:none;stroke-width:0" id="text30" x="19.08" >GND</text>
            </g>
            <g gorn="0.3.1.4" id="g32" >
                <title id="title34" >text:GA1A1S202WP</title>
                <text y="16.559999" font-size="3.25728" gorn="0.3.1.4.1" style="font-size:3.25728011px;font-family:OCRA;text-anchor:start;fill:#ffffff;stroke:none;stroke-width:0" id="text36" x="0.36000001" >GA1A1S202WP</text>
            </g>
            <g gorn="0.3.1.5" id="g38" >
                <title id="title40" >element:C1</title>
                <g gorn="0.3.1.5.1" id="g42" >
                    <title id="title44" >package:_0805MP</title>
                    <line x1="4.3200002" gorn="0.3.1.5.1.1" y1="21.959999" style="stroke:#ffffff;stroke-width:0.57599998;stroke-linecap:round" id="line46"  x2="7.1999998" y2="21.959999"/>
                </g>
            </g>
            <g gorn="0.3.1.6" id="g48" >
                <title id="title50" >element:FID1</title>
                <g gorn="0.3.1.6.1" id="g52" >
                    <title id="title54" >package:FIDUCIAL_1MM</title>
                </g>
            </g>
            <g gorn="0.3.1.7" id="g56" >
                <title id="title58" >element:FID2</title>
                <g gorn="0.3.1.7.1" id="g60" >
                    <title id="title62" >package:FIDUCIAL_1MM</title>
                </g>
            </g>
            <g gorn="0.3.1.8" id="g64" >
                <title id="title66" >element:JP1</title>
                <g gorn="0.3.1.8.1" id="g68" >
                    <title id="title70" >package:1X03_ROUND</title>
                </g>
            </g>
            <g gorn="0.3.1.9" id="g72" >
                <title id="title74" >element:R1</title>
                <g gorn="0.3.1.9.1" id="g76" >
                    <title id="title78" >package:_0805MP</title>
                    <line x1="24.120001" gorn="0.3.1.9.1.1" y1="21.959999" style="stroke:#ffffff;stroke-width:0.57599998;stroke-linecap:round" id="line80"  x2="21.24" y2="21.959999"/>
                </g>
            </g>
            <g gorn="0.3.1.10" id="g82" >
                <title id="title84" >element:U$3</title>
                <g gorn="0.3.1.10.1" id="g86" >
                    <title id="title88" >package:MOUNTINGHOLE_2.5_PLATED</title>
                    <circle cx="14.4" cy="7.1999998" gorn="0.3.1.10.1.1" style="fill:none;stroke:#ffffff;stroke-width:0.57599998" id="circle90" r="5.6692901" />
                </g>
            </g>
            <g gorn="0.3.1.11" id="g92" >
                <title id="title94" >element:U$4</title>
                <g gorn="0.3.1.11.1" id="g96" >
                    <title id="title98" >package:ADAFRUIT_2.5MM</title>
                </g>
            </g>
            <g gorn="0.3.1.12" id="g100" >
                <title id="title102" >element:U1</title>
                <g gorn="0.3.1.12.1" id="g104" >
                    <title id="title106" >package:GA1A1S202WP</title>
                    <line x1="14.9669" gorn="0.3.1.12.1.1" y1="18.535801" style="stroke:#ffffff;stroke-width:0.36000001;stroke-linecap:round" id="line108"  x2="13.8331" y2="18.535801"/>
                    <line x1="17.2346" gorn="0.3.1.12.1.2" y1="21.086901" style="stroke:#ffffff;stroke-width:0.36000001;stroke-linecap:round" id="line110"  x2="17.2346" y2="22.787701"/>
                    <line x1="14.9669" gorn="0.3.1.12.1.3" y1="25.3389" style="stroke:#ffffff;stroke-width:0.36000001;stroke-linecap:round" id="line112"  x2="13.8331" y2="25.3389"/>
                    <line x1="11.5654" gorn="0.3.1.12.1.4" y1="21.086901" style="stroke:#ffffff;stroke-width:0.36000001;stroke-linecap:round" id="line114"  x2="11.5654" y2="22.787701"/>
                    <circle cx="9.9807796" cy="18.846399" gorn="0.3.1.12.1.5" style="fill:none;stroke:#ffffff;stroke-width:0.70866102" id="circle116" r="0.35433099" />
                    <circle cx="14.4" cy="19.9531" gorn="0.3.1.12.1.6" style="fill:none;stroke:#ffffff;stroke-width:0.36000001" id="circle118" r="0.283465" />
                </g>
            </g>
        </g>
        <g transform="matrix(0,-1,1,0,-19.08,30.6)" >
            <g gorn="0.3.2.0" id="g120" >
                <rect y="22.9974" gorn="0.3.2.0.0" style="fill:#9a916c;stroke:none;stroke-width:0" id="connector0pin" x="4.0592198" width="3.4015801"  height="3.68504"/>
            </g>
        </g>
        <g transform="matrix(0,-1,1,0,-13.32,24.84)" >
            <g gorn="0.3.3.0" id="g123" >
                <rect y="17.2374" gorn="0.3.3.0.0" style="fill:#9a916c;stroke:none;stroke-width:0" id="connector1pin" x="4.0592198" width="3.4015801"  height="3.68504"/>
            </g>
        </g>
        <rect ry="1.41732" y="2.1826799" gorn="0.3.4" style="fill:#9a916c;stroke:none;stroke-width:0" rx="1.41732" id="connector2pin" x="4.34268" width="2.83465"  height="2.83465"/>
        <rect ry="1.41732" y="2.1826799" gorn="0.3.5" style="fill:#9a916c;stroke:none;stroke-width:0" rx="1.41732" id="connector3pin" x="21.6227" width="2.83465"  height="2.83465"/>
        <circle cx="7.1999998" cy="32.3773" gorn="0.3.6" style="fill:none;stroke:#9a916c;stroke-width:0.95867997" id="connector4pin" connectorname="VCC" r="1.89666" />
        <rect y="30.4807" gorn="0.3.7" style="fill:none;stroke:#9a916c;stroke-width:0.95867997" id="rect129" x="5.30334" width="3.7933199"  height="3.7933199"/>
        <circle cx="14.4" cy="32.3773" gorn="0.3.8" style="fill:none;stroke:#9a916c;stroke-width:0.95867997" id="connector5pin" connectorname="OUT" r="1.89666" />
        <circle cx="21.6" cy="32.3773" gorn="0.3.9" style="fill:none;stroke:#9a916c;stroke-width:0.95867997" id="connector6pin" connectorname="GND" r="1.89666" />
        <g transform="matrix(0,1,-1,0,41.76,-3.6)" >
            <g gorn="0.3.10.0" id="g133" >
                <rect y="17.2374" gorn="0.3.10.0.0" style="fill:#9a916c;stroke:none;stroke-width:0" id="connector7pin" x="20.9792" width="3.4015801"  height="3.68504"/>
            </g>
        </g>
        <g transform="matrix(0,1,-1,0,47.52,2.16)" >
            <g gorn="0.3.11.0" id="g136" >
                <rect y="22.9974" gorn="0.3.11.0.0" style="fill:#9a916c;stroke:none;stroke-width:0" id="connector8pin" x="20.9792" width="3.4015801"  height="3.68504"/>
            </g>
        </g>
        <circle cx="14.4" cy="7.1999998" gorn="0.3.12" style="fill:none;stroke:#9a916c;stroke-width:1.44000006" id="connector9pin" connectorname="P$1" r="4.26331" />
        <g transform="matrix(0,1,-1,0,31.6601,7.11212)" >
            <g gorn="0.3.13.0" id="g140" >
                <rect y="18.2523" gorn="0.3.13.0.0" style="fill:#9a916c;stroke:none;stroke-width:0" id="connector10pin" x="11.1401" width="2.26772"  height="2.26772"/>
            </g>
        </g>
        <g transform="matrix(0,1,-1,0,35.9122,2.86016)" >
            <g gorn="0.3.14.0" id="g143" >
                <rect y="18.2523" gorn="0.3.14.0.0" style="fill:#9a916c;stroke:none;stroke-width:0" id="connector11pin" x="15.3922" width="2.26772"  height="2.26772"/>
            </g>
        </g>
        <g transform="matrix(0,1,-1,0,41.0145,7.96255)" >
            <g gorn="0.3.15.0" id="g146" >
                <rect y="23.354601" gorn="0.3.15.0.0" style="fill:#9a916c;stroke:none;stroke-width:0" id="connector12pin" x="15.3922" width="2.26772"  height="2.26772"/>
            </g>
        </g>
        <g transform="matrix(0,1,-1,0,36.7626,12.2145)" >
            <g gorn="0.3.16.0" id="g149" >
                <rect y="23.354601" gorn="0.3.16.0.0" style="fill:#9a916c;stroke:none;stroke-width:0" id="connector13pin" x="11.1401" width="2.26772"  height="2.26772"/>
            </g>
        </g>
    </g>
    <g transform="translate(2.9255,20.1885)" >
        <g gorn="0.4.0" id="0805-cap" >
            <g transform="matrix(0,-1,1,0,1.063,4.606)" >
                <g gorn="0.4.0.0.0" id="g153" >
                    <path d="m 5.386,3.543 -5.103,0 C 0.127,3.543 0,3.416 0,3.26 L 0,0.283 C 0,0.127 0.127,0 0.283,0 l 5.102,0 c 0.157,0 0.283,0.127 0.283,0.283 l 0,2.977 C 5.669,3.416 5.542,3.543 5.386,3.543 Z" gorn="0.4.0.0.0.0" style="fill:#dcdcdc" id="path155" />
                    <rect y="0" gorn="0.4.0.0.0.1" style="fill:#6e554b" id="rect157" x="1.063" width="3.543"  height="3.543"/>
                </g>
            </g>
        </g>
    </g>
    <g transform="translate(19.8455,20.1885)" >
        <g gorn="0.5.0" id="0805-res" >
            <g transform="matrix(0,1,-1,0,4.606,-1.063)" >
                <g gorn="0.5.0.0.0" id="g160" >
                    <path d="m 5.386,3.543 -5.103,0 C 0.127,3.543 0,3.416 0,3.26 L 0,0.283 C 0,0.127 0.127,0 0.283,0 l 5.102,0 c 0.157,0 0.283,0.127 0.283,0.283 l 0,2.977 C 5.669,3.416 5.542,3.543 5.386,3.543 Z" gorn="0.5.0.0.0.0" style="fill:#dcdcdc" id="path162" />
                    <rect y="0" gorn="0.5.0.0.0.1" style="fill:#333333" id="rect164" x="1.063" width="3.543"  height="3.543"/>
                </g>
            </g>
        </g>
    </g>
    <g transform="translate(18.069219,5.9015142)" >
        <g gorn="0.6.0" id="adafruit_2.5mm" >
            <path d="M 9.747,3.082 C 9.724,2.94 9.647,2.899 9.461,2.839 9.31903,2.794 8.37202,2.492 8.37202,2.492 c 0,0 -0.66,-0.249 -1.15,0.103 -0.066,0.048 -0.134,0.102 -0.203,0.16 0.058,-0.069 0.112,-0.137 0.159,-0.203 0.352,-0.49 0.101,-1.15 0.101,-1.15 0,0 -0.30302,-0.947 -0.34902,-1.089 C 6.87,0.127 6.83,0.05 6.687,0.028 6.545,0.005 6.483,0.066 6.369,0.225 6.282,0.345 5.702,1.153001 5.702,1.153001 5.702,1.153001 5.261,1.704 5.445,2.279 5.47,2.356 5.5,2.438 5.534,2.521 5.486,2.445 5.438,2.372 5.39,2.307 5.032,1.821 4.328,1.855 4.328,1.855 c 0,0 -0.995,-0.004 -1.143,-0.004 -0.195,0 -0.281,0.014 -0.347,0.143 -0.065,0.128 -0.027,0.206 0.089,0.364 0.088,0.12 0.677,0.921002 0.677,0.921002 0,0 0.388,0.59 0.991001,0.592 0.081,0 0.168,-0.003 0.257,-0.01 C 4.765,3.883 4.681,3.907 4.604,3.932 4.031,4.122 3.845998,4.802998 3.845998,4.802998 c 0,0 -0.31,0.943999 -0.357,1.085 C 3.428,6.074 3.416,6.16 3.518,6.262 3.62,6.364 3.706,6.352 3.892,6.29 4.033,6.244 4.977,5.931 4.977,5.931 c 0,0 0.681,-0.187 0.868997,-0.760003 0.025,-0.077 0.049,-0.16 0.07,-0.247 C 5.91,5.014 5.907,5.1 5.907,5.181 c 0.004,0.603 0.594,0.99 0.594,0.99 0,0 0.802001,0.588 0.922003,0.675 C 7.58102,6.962 7.659,7 7.78802,6.935 7.91597,6.869 7.93102,6.783 7.93001,6.588 7.929,6.439 7.92403,5.445 7.92403,5.445 7.92403,5.445 7.95701,4.74 7.47,4.383 7.40498,4.335 7.33198,4.287 7.25602,4.24 c 0.083,0.034 0.165,0.064 0.242,0.088 0.575,0.183 1.125,-0.259 1.125,-0.259 0,0 0.80696,-0.5809998 0.92699,-0.6679998 C 9.70898,3.286 9.76903,3.224 9.747,3.082 Z M 6.322,2.35 C 6.43,2.367 6.484,2.598 6.442,2.865 6.4,3.132 6.278,3.335 6.169,3.318 6.061,3.301 6.007,3.07 6.049,2.803 6.091,2.535 6.213,2.332 6.322,2.35 Z M 4.933,3.059 C 4.983,2.961 5.219,2.981 5.46,3.104 5.701,3.227 5.857,3.406 5.807,3.503 5.757,3.601 5.521,3.581 5.28,3.458 5.038,3.335 4.883,3.157 4.933,3.059 Z M 5.665,4.393 C 5.474,4.584 5.256,4.677 5.178,4.599 5.101,4.521 5.193,4.303 5.384,4.112 5.575,3.92 5.793,3.827 5.871,3.905 5.949,3.983 5.857,4.201 5.665,4.393 Z M 6.719,4.842 C 6.6210001,4.892 6.442,4.737 6.319,4.496 6.196,4.254 6.175,4.018 6.273,3.968 6.371,3.918 6.55,4.073 6.673,4.314 6.796,4.556 6.817,4.792 6.719,4.842 Z M 6.973,3.725 C 6.706,3.767 6.475,3.714 6.457,3.606 6.44,3.497 6.643,3.375 6.91,3.332 7.177,3.289 7.408,3.343 7.425,3.451 7.443,3.56 7.24003,3.682 6.973,3.725 Z" gorn="0.6.0.0" style="fill:#dcdcdc" id="path167" />
        </g>
    </g>
    <g transform="translate(11.538112,19.6696)" >
        <g gorn="0.7.0" id="ga1a1s202wp" >
            <g transform="matrix(0,1,-1,0,5.10236,-0.566928)" >
                <g gorn="0.7.0.0.0" id="g170" >
                    <metadata id="metadata17" >
                        <rdf:RDF xmlns:rdf="http://www.w3.org/1999/02/22-rdf-syntax-ns#">
                            <cc:Work xmlns:rdf="http://www.w3.org/1999/02/22-rdf-syntax-ns#" rdf:about="" xmlns:cc="http://creativecommons.org/ns#">
                                <dc:format xmlns:dc="http://purl.org/dc/elements/1.1/">image/svg+xml</dc:format>
                                <dc:type xmlns:rdf="http://www.w3.org/1999/02/22-rdf-syntax-ns#" rdf:resource="http://purl.org/dc/dcmitype/StillImage" xmlns:dc="http://purl.org/dc/elements/1.1/"/>
                                <dc:title xmlns:dc="http://purl.org/dc/elements/1.1/"/>
                            </cc:Work>
                        </rdf:RDF>
                    </metadata>
                    <defs id="defs15" />
                    <g transform="matrix(0,1,-1,0,0,0)" >
                        <rect y="-5.6692901" gorn="0.7.0.0.0.2.0" style="fill:#ececec;stroke:#cccccc;stroke-width:0;stroke-miterlimit:4;stroke-dasharray:none;stroke-dashoffset:11.71939468;stroke-opacity:1" id="rect8079" x="4e-006" width="4.5354199"  height="5.6692801"/>
                    </g>
                    <rect y="0.00023231401" gorn="0.7.0.0.0.3" style="fill:#d3bc5f;stroke:#cccccc;stroke-width:0;stroke-miterlimit:4;stroke-dasharray:none;stroke-dashoffset:11.71939468;stroke-opacity:1" id="rect8081" x="2.7276701e-009" width="1.94091"  height="1.63344"/>
                    <rect y="2.88169" gorn="0.7.0.0.0.4" style="fill:#d3bc5f;stroke:#cccccc;stroke-width:0;stroke-miterlimit:4;stroke-dasharray:none;stroke-dashoffset:11.71939468;stroke-opacity:1" id="rect8083" x="2.7276701e-009" width="1.94091"  height="1.63344"/>
                    <rect y="0.00023231401" gorn="0.7.0.0.0.5" style="fill:#d3bc5f;stroke:#cccccc;stroke-width:0;stroke-miterlimit:4;stroke-dasharray:none;stroke-dashoffset:11.71939468;stroke-opacity:1" id="rect8085" x="3.7123101" width="1.94091"  height="1.63344"/>
                    <rect y="2.88169" gorn="0.7.0.0.0.6" style="fill:#d3bc5f;stroke:#cccccc;stroke-width:0;stroke-miterlimit:4;stroke-dasharray:none;stroke-dashoffset:11.71939468;stroke-opacity:1" id="rect8087" x="3.7123101" width="1.94091"  height="1.63344"/>
                    <rect y="0.0099490304" gorn="0.7.0.0.0.7" style="fill:#abc837;stroke:#cccccc;stroke-width:0;stroke-miterlimit:4;stroke-dasharray:none;stroke-dashoffset:11.71939468;stroke-opacity:1" id="rect8089" x="1.80312" width="0.88388598"  height="4.5078001"/>
                    <rect y="0.68169999" gorn="0.7.0.0.0.8" style="fill:#e3e2db;stroke:#cccccc;stroke-width:0;stroke-miterlimit:4;stroke-dasharray:none;stroke-dashoffset:11.71939468;stroke-opacity:1" id="rect8091" x="1.1137" width="3.5355301"  height="3.0759101"/>
                    <rect y="1.10596" gorn="0.7.0.0.0.9" style="fill:#6c6753;stroke:#cccccc;stroke-width:0;stroke-miterlimit:4;stroke-dasharray:none;stroke-dashoffset:11.71939468;stroke-opacity:1" id="rect8093" x="2.42184" width="0.88388598"  height="0.81317502"/>
                    <rect y="2.4141099" gorn="0.7.0.0.0.10" style="fill:#6c6753;stroke:#cccccc;stroke-width:0;stroke-miterlimit:4;stroke-dasharray:none;stroke-dashoffset:11.71939468;stroke-opacity:1" id="rect8095" x="2.42184" width="0.88388598"  height="0.81317502"/>
                </g>
            </g>
        </g>
    </g>
</svg>
