<?xml version='1.0' encoding='UTF-8' standalone='no'?>
<!-- Created with Fritzing (http://www.fritzing.org/) -->
<svg xmlns="http://www.w3.org/2000/svg" version="1.2"  gorn="0" viewBox="0 0 108 108" x="0in" y="0in" height="1.5in" id="svg5056" width="1.5in">
    <desc>
        <referenceFile>Adafruit Analog 2-Axis Joystick_breadboard.svg</referenceFile>
    </desc>
    <metadata  id="metadata5468">
        <rdf:RDF xmlns:rdf="http://www.w3.org/1999/02/22-rdf-syntax-ns#">
            <cc:Work xmlns:rdf="http://www.w3.org/1999/02/22-rdf-syntax-ns#" rdf:about="" xmlns:cc="http://creativecommons.org/ns#">
                <dc:format xmlns:dc="http://purl.org/dc/elements/1.1/">image/svg+xml</dc:format>
                <dc:type xmlns:dc="http://purl.org/dc/elements/1.1/" xmlns:rdf="http://www.w3.org/1999/02/22-rdf-syntax-ns#" rdf:resource="http://purl.org/dc/dcmitype/StillImage"/>
            </cc:Work>
        </rdf:RDF>
    </metadata>
    <defs  id="defs5466"/>
    <desc  id="desc5058">Fritzing breadboard generated by brd2svg</desc>
    <path d="m 97.2,108 -86.4,0 A 10.8,10.8 0 0 1 0,97.2 L 0,10.8 A 10.8,10.8 0 0 1 10.8,0 L 97.2,0 A 10.8,10.8 0 0 1 108,10.8 l 0,86.4 A 10.8,10.8 0 0 1 97.2,108 M 6.26457,97.2 a 4.53543,4.53543 0 1 0 9.07085,0 4.53543,4.53543 0 1 0 -9.07085,0 z m 0,-86.4 a 4.53543,4.53543 0 1 0 9.07085,0 4.53543,4.53543 0 1 0 -9.07085,0 z m 86.40013,0 a 4.53543,4.53543 0 1 0 9.07085,0 4.53543,4.53543 0 1 0 -9.07085,0 z m 0,86.4 a 4.53543,4.53543 0 1 0 9.07085,0 4.53543,4.53543 0 1 0 -9.07085,0 z M 66.96,100.8 a 1.44,1.44 0 1 0 2.88,0 1.44,1.44 0 1 0 -2.88,0 z m -7.2,0 a 1.44,1.44 0 0 0 2.88,0 1.44,1.44 0 1 0 -2.88,0 z m -7.2,0 a 1.44,1.44 0 0 0 2.88,0 1.44,1.44 0 1 0 -2.88,0 z m -7.2,0 a 1.44,1.44 0 0 0 2.88,0 1.44,1.44 0 1 0 -2.88,0 z m -7.2,0 a 1.44,1.44 0 0 0 2.88,0 1.44,1.44 0 1 0 -2.88,0 z m 5.2809,-82.2359 a 1.559055,1.559055 0 0 0 3.11811,0 1.559055,1.559055 0 1 0 -3.11811,0 z m 18,0 a 1.559055,1.559055 0 0 0 3.11811,0 1.559055,1.559055 0 1 0 -3.11811,0 z m -18,12.7559 a 1.559055,1.559055 0 0 0 3.11811,0 1.559055,1.559055 0 1 0 -3.11811,0 z m 18,0 a 1.559055,1.559055 0 0 0 3.11811,0 1.559055,1.559055 0 1 0 -3.11811,0 z M 45.54,82.8 a 1.26,1.26 0 0 0 2.52,0 1.26,1.26 0 1 0 -2.52,0 z m 7.2,0 a 1.26,1.26 0 0 0 2.52,0 1.26,1.26 0 1 0 -2.52,0 z m 7.2,0 a 1.26,1.26 0 0 0 2.52,0 1.26,1.26 0 1 0 -2.52,0 z M 30.42,35.1 a 1.98,1.98 0 0 0 3.96,0 1.98,1.98 0 1 0 -3.96,0 z m 0,37.8 a 1.98,1.98 0 0 0 3.96,0 1.98,1.98 0 1 0 -3.96,0 z m 43.2,0 a 1.98,1.98 0 1 0 3.96,0 1.98,1.98 0 1 0 -3.96,0 z m 0,-37.8 a 1.98,1.98 0 1 0 3.96,0 1.98,1.98 0 1 0 -3.96,0 z M 23.94,46.8 a 1.26,1.26 0 1 0 2.52,0 1.26,1.26 0 1 0 -2.52,0 z m 0,7.2 a 1.26,1.26 0 1 0 2.52,0 1.26,1.26 0 1 0 -2.52,0 z m 0,7.2 a 1.26,1.26 0 1 0 2.52,0 1.26,1.26 0 1 0 -2.52,0 z" style="fill:#014cb1;stroke:none;stroke-width:0"  gorn="0.3" id="path5062"/>
    <line y1="23.439999" style="stroke:#ffffff;stroke-width:0.86400002;stroke-linecap:round"  x1="28.48" gorn="0.4" x2="13.359999" id="line5068" y2="23.439999"/>
    <line y1="23.439999" style="stroke:#ffffff;stroke-width:0.86400002;stroke-linecap:round"  x1="13.359999" gorn="0.5" x2="15.519999" id="line5070" y2="21.279999"/>
    <line y1="23.439999" style="stroke:#ffffff;stroke-width:0.86400002;stroke-linecap:round"  x1="13.359999" gorn="0.6" x2="15.519999" id="line5072" y2="25.599998"/>
    <line y1="20.559999" style="stroke:#ffffff;stroke-width:0.86400002;stroke-linecap:round"  x1="31.360003" gorn="0.7" x2="31.360003" id="line5074" y2="5.4400005"/>
    <line y1="5.4400005" style="stroke:#ffffff;stroke-width:0.86400002;stroke-linecap:round"  x1="31.360003" gorn="0.8" x2="29.200001" id="line5076" y2="7.5999999"/>
    <line y1="5.4400005" style="stroke:#ffffff;stroke-width:0.86400002;stroke-linecap:round"  x1="31.360003" gorn="0.9" x2="33.520004" id="line5078" y2="7.5999999"/>
    <g  gorn="0.10" id="g5080">
        <title  id="title5082">text:Vcc</title>
        <g  transform="translate(37.804088,96.496161)">
            <g  gorn="0.10.1.0" id="g5084">
                <g  transform="matrix(0,-1,1,0,0,0)">
                    <g  gorn="0.10.1.0.0.0" id="g5086">
                        <text style="font-size:3.34080005px;font-family:OCRA;text-anchor:start;fill:#ffffff;stroke:none;stroke-width:0"  gorn="0.10.1.0.0.0.0" x="0" y="0" id="text5088" font-size="3.3408">Vcc</text>
                    </g>
                </g>
            </g>
        </g>
    </g>
    <g  transform="matrix(0,1,-1,0,138.58634,47.300897)">
        <g  gorn="0.11.0" id="g5090">
            <title  id="title5092">text:Xout</title>
            <g  transform="translate(48.24,96.48)">
                <g  gorn="0.11.0.1.0" id="g5094">
                    <g  transform="matrix(0,-1,1,0,0,0)">
                        <g  gorn="0.11.0.1.0.0.0" id="g5096">
                            <text style="font-size:3.34080005px;font-family:OCRA;text-anchor:start;fill:#ffffff;stroke:none;stroke-width:0"  gorn="0.11.0.1.0.0.0.0" x="0" y="0" id="text5098" font-size="3.3408">Xout</text>
                        </g>
                    </g>
                </g>
            </g>
        </g>
    </g>
    <g  transform="matrix(0,1,-1,0,145.62455,52.235568)">
        <g  gorn="0.12.0" id="g5100">
            <title  id="title5102">text:Yout</title>
            <g  transform="translate(55.44,96.48)">
                <g  gorn="0.12.0.1.0" id="g5104">
                    <g  transform="matrix(0,-1,1,0,0,0)">
                        <g  gorn="0.12.0.1.0.0.0" id="g5106">
                            <text style="font-size:3.34080005px;font-family:OCRA;text-anchor:start;fill:#ffffff;stroke:none;stroke-width:0"  gorn="0.12.0.1.0.0.0.0" x="0" y="0" id="text5108" font-size="3.3408">Yout</text>
                        </g>
                    </g>
                </g>
            </g>
        </g>
    </g>
    <g  transform="matrix(0,1,-1,0,153.55699,32.824359)">
        <g  gorn="0.13.0" id="g5110">
            <title  id="title5112">text:Sel</title>
            <g  transform="translate(62.64,95.76)">
                <g  gorn="0.13.0.1.0" id="g5114">
                    <g  transform="matrix(0,-1,1,0,0,0)">
                        <g  gorn="0.13.0.1.0.0.0" id="g5116">
                            <text style="font-size:3.34080005px;font-family:OCRA;text-anchor:start;fill:#ffffff;stroke:none;stroke-width:0"  gorn="0.13.0.1.0.0.0.0" x="0" y="0" id="text5118" font-size="3.3408">Sel</text>
                        </g>
                    </g>
                </g>
            </g>
        </g>
    </g>
    <g  transform="translate(2.5887299,0.64718248)">
        <g  gorn="0.14.0" id="g5120">
            <title  id="title5122">text:GND</title>
            <g  transform="translate(69.84,95.76)">
                <g  gorn="0.14.0.1.0" id="g5124">
                    <g  transform="matrix(0,-1,1,0,0,0)">
                        <g  gorn="0.14.0.1.0.0.0" id="g5126">
                            <text style="font-size:3.34080005px;font-family:OCRA;text-anchor:start;fill:#ffffff;stroke:none;stroke-width:0"  gorn="0.14.0.1.0.0.0.0" x="0" y="0" id="text5128" font-size="3.3408">GND</text>
                        </g>
                    </g>
                </g>
            </g>
        </g>
    </g>
    <g  gorn="0.15" id="g5130">
        <title  id="title5132">text:Analog Thumb Joystick</title>
        <g  transform="translate(6.48,70.56)">
            <g  gorn="0.15.1.0" id="g5134">
                <g  transform="matrix(0,-1,1,0,0,0)">
                    <g  gorn="0.15.1.0.0.0" id="g5136">
                        <text style="font-size:3.34080005px;font-family:OCRA;text-anchor:start;fill:#ffffff;stroke:none;stroke-width:0"  gorn="0.15.1.0.0.0.0" x="0" y="0" id="text5138" font-size="3.3408">Analog Thumb Joystick</text>
                    </g>
                </g>
            </g>
        </g>
    </g>
    <g  gorn="0.16" id="g5140">
        <title  id="title5142">text:Breakout Board</title>
        <g  transform="translate(12.96,70.56)">
            <g  gorn="0.16.1.0" id="g5144">
                <g  transform="matrix(0,-1,1,0,0,0)">
                    <g  gorn="0.16.1.0.0.0" id="g5146">
                        <text style="font-size:3.34080005px;font-family:OCRA;text-anchor:start;fill:#ffffff;stroke:none;stroke-width:0"  gorn="0.16.1.0.0.0.0" x="0" y="0" id="text5148" font-size="3.3408">Breakout Board</text>
                    </g>
                </g>
            </g>
        </g>
    </g>
    <g  transform="translate(5.6089781,-2.7325693)">
        <g  gorn="0.17.0" id="g5150">
            <title  id="title5152">text:SEL shorts to ground when pressed</title>
            <g  transform="translate(88.56,96.48)">
                <g  gorn="0.17.0.1.0" id="g5154">
                    <g  transform="matrix(0,-1,1,0,0,0)">
                        <g  gorn="0.17.0.1.0.0.0" id="g5156">
                            <text style="font-size:3.34080005px;font-family:OCRA;text-anchor:start;fill:#ffffff;stroke:none;stroke-width:0"  gorn="0.17.0.1.0.0.0.0" x="0" y="0" id="text5158" font-size="3.3408">SEL shorts to ground when pressed</text>
                        </g>
                    </g>
                </g>
            </g>
        </g>
    </g>
    <g  transform="translate(5.6089781,-2.7325693)">
        <g  gorn="0.18.0" id="g5160">
            <title  id="title5162">text:X and Y act like 10K pots</title>
            <g  transform="translate(94.085387,84.24)">
                <g  gorn="0.18.0.1.0" id="g5164">
                    <g  transform="matrix(0,-1,1,0,0,0)">
                        <g  gorn="0.18.0.1.0.0.0" id="g5166">
                            <text style="font-size:3.34080005px;font-family:OCRA;text-anchor:start;fill:#ffffff;stroke:none;stroke-width:0"  gorn="0.18.0.1.0.0.0.0" x="0" y="0" id="text5168" font-size="3.3408">X and Y act like 10K pots</text>
                        </g>
                    </g>
                </g>
            </g>
        </g>
    </g>
    <g  transform="translate(5.6089781,-2.7325693)">
        <g  gorn="0.19.0" id="g5170">
            <title  id="title5172">text:Xout and Yout are Analog out</title>
            <g  transform="translate(99.36,89.28)">
                <g  gorn="0.19.0.1.0" id="g5174">
                    <g  transform="matrix(0,-1,1,0,0,0)">
                        <g  gorn="0.19.0.1.0.0.0" id="g5176">
                            <text style="font-size:3.34080005px;font-family:OCRA;text-anchor:start;fill:#ffffff;stroke:none;stroke-width:0"  gorn="0.19.0.1.0.0.0.0" x="0" y="0" id="text5178" font-size="3.3408">Xout and Yout are Analog out</text>
                        </g>
                    </g>
                </g>
            </g>
        </g>
    </g>
    <g  transform="translate(-3.2,-3.2)">
        <g  gorn="0.20.0" id="g5180">
            <title  id="title5182">text:X </title>
            <g  transform="translate(32.4,18)">
                <g  gorn="0.20.0.1.0" id="g5184">
                    <g  transform="matrix(0,-1,1,0,0,0)">
                        <g  gorn="0.20.0.1.0.0.0" id="g5186">
                            <text style="font-size:5.84639978px;font-family:OCRA;text-anchor:start;fill:#ffffff;stroke:none;stroke-width:0"  gorn="0.20.0.1.0.0.0.0" x="0" y="0" id="text5188" font-size="5.8464">X</text>
                        </g>
                    </g>
                </g>
            </g>
        </g>
    </g>
    <g  transform="translate(-3.2,-3.2)">
        <g  gorn="0.21.0" id="g5190">
            <title  id="title5192">text:Y</title>
            <g  transform="translate(27.36,24.48)">
                <g  gorn="0.21.0.1.0" id="g5194">
                    <g  transform="matrix(0,-1,1,0,0,0)">
                        <g  gorn="0.21.0.1.0.0.0" id="g5196">
                            <text style="font-size:5.84639978px;font-family:OCRA;text-anchor:start;fill:#ffffff;stroke:none;stroke-width:0"  gorn="0.21.0.1.0.0.0.0" x="0" y="0" id="text5198" font-size="5.8464">Y</text>
                        </g>
                    </g>
                </g>
            </g>
        </g>
    </g>
    <g  gorn="0.22" id="g5200">
        <title  id="title5202">element:JP1</title>
        <g  gorn="0.22.1" id="g5204">
            <title  id="title5206">package:1X05</title>
            <line y1="104.4" style="stroke:#ffffff;stroke-width:0.43200001;stroke-linecap:round"  x1="48.599998" gorn="0.22.1.1" x2="45" id="line5208" y2="104.4"/>
            <line y1="104.4" style="stroke:#ffffff;stroke-width:0.43200001;stroke-linecap:round"  x1="45" gorn="0.22.1.2" x2="43.200001" id="line5210" y2="102.6"/>
            <line y1="102.6" style="stroke:#ffffff;stroke-width:0.43200001;stroke-linecap:round"  x1="43.200001" gorn="0.22.1.3" x2="43.200001" id="line5212" y2="99"/>
            <line y1="99" style="stroke:#ffffff;stroke-width:0.43200001;stroke-linecap:round"  x1="43.200001" gorn="0.22.1.4" x2="45" id="line5214" y2="97.199997"/>
            <line y1="102.6" style="stroke:#ffffff;stroke-width:0.43200001;stroke-linecap:round"  x1="57.599998" gorn="0.22.1.5" x2="55.799999" id="line5216" y2="104.4"/>
            <line y1="104.4" style="stroke:#ffffff;stroke-width:0.43200001;stroke-linecap:round"  x1="55.799999" gorn="0.22.1.6" x2="52.200001" id="line5218" y2="104.4"/>
            <line y1="104.4" style="stroke:#ffffff;stroke-width:0.43200001;stroke-linecap:round"  x1="52.200001" gorn="0.22.1.7" x2="50.400002" id="line5220" y2="102.6"/>
            <line y1="102.6" style="stroke:#ffffff;stroke-width:0.43200001;stroke-linecap:round"  x1="50.400002" gorn="0.22.1.8" x2="50.400002" id="line5222" y2="99"/>
            <line y1="99" style="stroke:#ffffff;stroke-width:0.43200001;stroke-linecap:round"  x1="50.400002" gorn="0.22.1.9" x2="52.200001" id="line5224" y2="97.199997"/>
            <line y1="97.199997" style="stroke:#ffffff;stroke-width:0.43200001;stroke-linecap:round"  x1="52.200001" gorn="0.22.1.10" x2="55.799999" id="line5226" y2="97.199997"/>
            <line y1="97.199997" style="stroke:#ffffff;stroke-width:0.43200001;stroke-linecap:round"  x1="55.799999" gorn="0.22.1.11" x2="57.599998" id="line5228" y2="99"/>
            <line y1="104.4" style="stroke:#ffffff;stroke-width:0.43200001;stroke-linecap:round"  x1="48.599998" gorn="0.22.1.12" x2="50.400002" id="line5230" y2="102.6"/>
            <line y1="99" style="stroke:#ffffff;stroke-width:0.43200001;stroke-linecap:round"  x1="50.400002" gorn="0.22.1.13" x2="48.599998" id="line5232" y2="97.199997"/>
            <line y1="97.199997" style="stroke:#ffffff;stroke-width:0.43200001;stroke-linecap:round"  x1="45" gorn="0.22.1.14" x2="48.599998" id="line5234" y2="97.199997"/>
            <line y1="104.4" style="stroke:#ffffff;stroke-width:0.43200001;stroke-linecap:round"  x1="70.199997" gorn="0.22.1.15" x2="66.599998" id="line5236" y2="104.4"/>
            <line y1="104.4" style="stroke:#ffffff;stroke-width:0.43200001;stroke-linecap:round"  x1="66.599998" gorn="0.22.1.16" x2="64.800003" id="line5238" y2="102.6"/>
            <line y1="102.6" style="stroke:#ffffff;stroke-width:0.43200001;stroke-linecap:round"  x1="64.800003" gorn="0.22.1.17" x2="64.800003" id="line5240" y2="99"/>
            <line y1="99" style="stroke:#ffffff;stroke-width:0.43200001;stroke-linecap:round"  x1="64.800003" gorn="0.22.1.18" x2="66.599998" id="line5242" y2="97.199997"/>
            <line y1="102.6" style="stroke:#ffffff;stroke-width:0.43200001;stroke-linecap:round"  x1="64.800003" gorn="0.22.1.19" x2="63" id="line5244" y2="104.4"/>
            <line y1="104.4" style="stroke:#ffffff;stroke-width:0.43200001;stroke-linecap:round"  x1="63" gorn="0.22.1.20" x2="59.400002" id="line5246" y2="104.4"/>
            <line y1="104.4" style="stroke:#ffffff;stroke-width:0.43200001;stroke-linecap:round"  x1="59.400002" gorn="0.22.1.21" x2="57.599998" id="line5248" y2="102.6"/>
            <line y1="102.6" style="stroke:#ffffff;stroke-width:0.43200001;stroke-linecap:round"  x1="57.599998" gorn="0.22.1.22" x2="57.599998" id="line5250" y2="99"/>
            <line y1="99" style="stroke:#ffffff;stroke-width:0.43200001;stroke-linecap:round"  x1="57.599998" gorn="0.22.1.23" x2="59.400002" id="line5252" y2="97.199997"/>
            <line y1="97.199997" style="stroke:#ffffff;stroke-width:0.43200001;stroke-linecap:round"  x1="59.400002" gorn="0.22.1.24" x2="63" id="line5254" y2="97.199997"/>
            <line y1="97.199997" style="stroke:#ffffff;stroke-width:0.43200001;stroke-linecap:round"  x1="63" gorn="0.22.1.25" x2="64.800003" id="line5256" y2="99"/>
            <line y1="102.6" style="stroke:#ffffff;stroke-width:0.43200001;stroke-linecap:round"  x1="72" gorn="0.22.1.26" x2="72" id="line5258" y2="99"/>
            <line y1="104.4" style="stroke:#ffffff;stroke-width:0.43200001;stroke-linecap:round"  x1="70.199997" gorn="0.22.1.27" x2="72" id="line5260" y2="102.6"/>
            <line y1="99" style="stroke:#ffffff;stroke-width:0.43200001;stroke-linecap:round"  x1="72" gorn="0.22.1.28" x2="70.199997" id="line5262" y2="97.199997"/>
            <line y1="97.199997" style="stroke:#ffffff;stroke-width:0.43200001;stroke-linecap:round"  x1="66.599998" gorn="0.22.1.29" x2="70.199997" id="line5264" y2="97.199997"/>
            <line y1="104.4" style="stroke:#ffffff;stroke-width:0.43200001;stroke-linecap:round"  x1="41.400002" gorn="0.22.1.30" x2="37.799999" id="line5266" y2="104.4"/>
            <line y1="104.4" style="stroke:#ffffff;stroke-width:0.43200001;stroke-linecap:round"  x1="37.799999" gorn="0.22.1.31" x2="36" id="line5268" y2="102.6"/>
            <line y1="102.6" style="stroke:#ffffff;stroke-width:0.43200001;stroke-linecap:round"  x1="36" gorn="0.22.1.32" x2="36" id="line5270" y2="99"/>
            <line y1="99" style="stroke:#ffffff;stroke-width:0.43200001;stroke-linecap:round"  x1="36" gorn="0.22.1.33" x2="37.799999" id="line5272" y2="97.199997"/>
            <line y1="104.4" style="stroke:#ffffff;stroke-width:0.43200001;stroke-linecap:round"  x1="41.400002" gorn="0.22.1.34" x2="43.200001" id="line5274" y2="102.6"/>
            <line y1="99" style="stroke:#ffffff;stroke-width:0.43200001;stroke-linecap:round"  x1="43.200001" gorn="0.22.1.35" x2="41.400002" id="line5276" y2="97.199997"/>
            <line y1="97.199997" style="stroke:#ffffff;stroke-width:0.43200001;stroke-linecap:round"  x1="37.799999" gorn="0.22.1.36" x2="41.400002" id="line5278" y2="97.199997"/>
        </g>
    </g>
    <g  gorn="0.23" id="g5280">
        <title  id="title5282">element:U$1</title>
        <g  gorn="0.23.1" id="g5284">
            <title  id="title5286">package:ADAFRUIT_3.5MM</title>
        </g>
    </g>
    <g  gorn="0.24" id="g5288">
        <title  id="title5290">element:U1</title>
        <g  gorn="0.24.1" id="g5292">
            <title  id="title5294">package:JOYSTICK</title>
            <line y1="13.68" style="stroke:#ffffff;stroke-width:0.57599998;stroke-linecap:round"  x1="69.839996" gorn="0.24.1.1" x2="38.16" id="line5296" y2="13.68"/>
            <line y1="86.400002" style="stroke:#ffffff;stroke-width:0.57599998;stroke-linecap:round"  x1="67.68" gorn="0.24.1.2" x2="40.32" id="line5298" y2="86.400002"/>
            <line y1="86.400002" style="stroke:#ffffff;stroke-width:0.57599998;stroke-linecap:round"  x1="67.68" gorn="0.24.1.3" x2="67.68" id="line5300" y2="79.199997"/>
            <line y1="86.400002" style="stroke:#ffffff;stroke-width:0.57599998;stroke-linecap:round"  x1="40.32" gorn="0.24.1.4" x2="40.32" id="line5302" y2="79.199997"/>
            <line y1="79.199997" style="stroke:#ffffff;stroke-width:0.57599998;stroke-linecap:round"  x1="67.68" gorn="0.24.1.5" x2="75.599998" id="line5304" y2="79.199997"/>
            <line y1="79.199997" style="stroke:#ffffff;stroke-width:0.57599998;stroke-linecap:round"  x1="40.32" gorn="0.24.1.6" x2="32.400002" id="line5306" y2="79.199997"/>
            <line y1="42.48" style="stroke:#ffffff;stroke-width:0.57599998;stroke-linecap:round"  x1="81" gorn="0.24.1.7" x2="81" id="line5308" y2="65.519997"/>
            <line y1="42.48" style="stroke:#ffffff;stroke-width:0.57599998;stroke-linecap:round"  x1="75.599998" gorn="0.24.1.8" x2="75.599998" id="line5310" y2="34.200001"/>
            <line y1="65.519997" style="stroke:#ffffff;stroke-width:0.57599998;stroke-linecap:round"  x1="75.599998" gorn="0.24.1.9" x2="75.599998" id="line5312" y2="79.199997"/>
            <line y1="42.48" style="stroke:#ffffff;stroke-width:0.57599998;stroke-linecap:round"  x1="75.599998" gorn="0.24.1.10" x2="81" id="line5314" y2="42.48"/>
            <line y1="65.519997" style="stroke:#ffffff;stroke-width:0.57599998;stroke-linecap:round"  x1="75.599998" gorn="0.24.1.11" x2="81" id="line5316" y2="65.519997"/>
            <line y1="34.200001" style="stroke:#ffffff;stroke-width:0.57599998;stroke-linecap:round"  x1="75.599998" gorn="0.24.1.12" x2="69.839996" id="line5318" y2="34.200001"/>
            <line y1="34.200001" style="stroke:#ffffff;stroke-width:0.57599998;stroke-linecap:round"  x1="38.16" gorn="0.24.1.13" x2="32.400002" id="line5320" y2="34.200001"/>
            <line y1="13.68" style="stroke:#ffffff;stroke-width:0.57599998;stroke-linecap:round"  x1="69.839996" gorn="0.24.1.14" x2="69.839996" id="line5322" y2="34.200001"/>
            <line y1="13.68" style="stroke:#ffffff;stroke-width:0.57599998;stroke-linecap:round"  x1="38.16" gorn="0.24.1.15" x2="38.16" id="line5324" y2="34.200001"/>
            <line y1="40.32" style="stroke:#ffffff;stroke-width:0.57599998;stroke-linecap:round"  x1="32.400002" gorn="0.24.1.16" x2="22.32" id="line5326" y2="40.32"/>
            <line y1="67.68" style="stroke:#ffffff;stroke-width:0.57599998;stroke-linecap:round"  x1="32.400002" gorn="0.24.1.17" x2="22.32" id="line5328" y2="67.68"/>
            <line y1="40.32" style="stroke:#ffffff;stroke-width:0.57599998;stroke-linecap:round"  x1="22.32" gorn="0.24.1.18" x2="22.32" id="line5330" y2="67.68"/>
            <line y1="40.32" style="stroke:#ffffff;stroke-width:0.57599998;stroke-linecap:round"  x1="32.400002" gorn="0.24.1.19" x2="32.400002" id="line5332" y2="34.200001"/>
            <line y1="67.68" style="stroke:#ffffff;stroke-width:0.57599998;stroke-linecap:round"  x1="32.400002" gorn="0.24.1.20" x2="32.400002" id="line5334" y2="79.199997"/>
            <circle style="fill:none;stroke:#ffffff;stroke-width:0.57599998" r="1.8"  gorn="0.24.1.21" cx="54" cy="54" id="circle5336"/>
        </g>
    </g>
    <circle connectorname="GND" r="1.8" style="fill:none;stroke:#9a916c;stroke-width:0.72000003"  gorn="0.25" cx="68.400002" cy="100.8" id="connector0pin"/>
    <path d="m 66.6,96.66 3.6,0 0,8.28 -3.6,0 0,-8.28 m 0,4.14 a 1.8,1.8 0 1 0 3.6,0 1.8,1.8 0 1 0 -3.6,0 z" style="fill:#9a916c;stroke:none;stroke-width:0"  gorn="0.26" id="path5339"/>
    <circle connectorname="SWITCH" r="1.8" style="fill:none;stroke:#9a916c;stroke-width:0.72000003"  gorn="0.27" cx="61.200001" cy="100.8" id="connector1pin"/>
    <path d="m 59.4,96.66 3.6,0 0,8.28 -3.6,0 0,-8.28 m 0,4.14 a 1.8,1.8 0 0 0 3.6,0 1.8,1.8 0 1 0 -3.6,0 z" style="fill:#9a916c;stroke:none;stroke-width:0"  gorn="0.28" id="path5342"/>
    <circle connectorname="YOUT" r="1.8" style="fill:none;stroke:#9a916c;stroke-width:0.72000003"  gorn="0.29" cx="54" cy="100.8" id="connector2pin"/>
    <path d="m 52.2,96.66 3.6,0 0,8.28 -3.6,0 0,-8.28 m 0,4.14 a 1.8,1.8 0 0 0 3.6,0 1.8,1.8 0 1 0 -3.6,0 z" style="fill:#9a916c;stroke:none;stroke-width:0"  gorn="0.30" id="path5345"/>
    <circle connectorname="XOUT" r="1.8" style="fill:none;stroke:#9a916c;stroke-width:0.72000003"  gorn="0.31" cx="46.799999" cy="100.8" id="connector3pin"/>
    <path d="m 45,96.66 3.6,0 0,8.28 -3.6,0 0,-8.28 m 0,4.14 a 1.8,1.8 0 0 0 3.6,0 1.8,1.8 0 1 0 -3.6,0 z" style="fill:#9a916c;stroke:none;stroke-width:0"  gorn="0.32" id="path5348"/>
    <circle connectorname="VCC" r="1.8" style="fill:none;stroke:#9a916c;stroke-width:0.72000003"  gorn="0.33" cx="39.599998" cy="100.8" id="connector4pin"/>
    <path d="m 37.8,96.66 3.6,0 0,8.28 -3.6,0 0,-8.28 m 0,4.14 a 1.8,1.8 0 0 0 3.6,0 1.8,1.8 0 1 0 -3.6,0 z" style="fill:#9a916c;stroke:none;stroke-width:0"  gorn="0.34" id="path5351"/>
    <circle connectorname="SWITCH" r="2.03953" style="fill:none;stroke:#9a916c;stroke-width:0.96094799"  gorn="0.35" cx="45" cy="18.5641" id="connector5pin"/>
    <path d="m 40.3091,16.5246 9.38182,0 0,4.07905 -9.38182,0 0,-4.07905 m 2.6514,2.0395 a 2.03953,2.03953 0 1 0 4.07905,0 2.03953,2.03953 0 1 0 -4.07905,0 z" style="fill:#9a916c;stroke:none;stroke-width:0"  gorn="0.36" id="path5354"/>
    <circle connectorname="B1B" r="2.03953" style="fill:none;stroke:#9a916c;stroke-width:0.96094799"  gorn="0.37" cx="63" cy="18.5641" id="connector6pin"/>
    <path d="m 58.3091,16.5246 9.38182,0 0,4.07905 -9.38182,0 0,-4.07905 m 2.6514,2.0395 a 2.03953,2.03953 0 1 0 4.07905,0 2.03953,2.03953 0 1 0 -4.07905,0 z" style="fill:#9a916c;stroke:none;stroke-width:0"  gorn="0.38" id="path5357"/>
    <circle connectorname="GND" r="2.03953" style="fill:none;stroke:#9a916c;stroke-width:0.96094799"  gorn="0.39" cx="45" cy="31.32" id="connector7pin"/>
    <path d="m 40.3091,29.2805 9.38182,0 0,4.07905 -9.38182,0 0,-4.07905 m 2.6514,2.0395 a 2.03953,2.03953 0 1 0 4.07905,0 2.03953,2.03953 0 1 0 -4.07905,0 z" style="fill:#9a916c;stroke:none;stroke-width:0"  gorn="0.40" id="path5360"/>
    <circle connectorname="B2B" r="2.03953" style="fill:none;stroke:#9a916c;stroke-width:0.96094799"  gorn="0.41" cx="63" cy="31.32" id="connector8pin"/>
    <path d="m 58.3091,29.2805 9.38182,0 0,4.07905 -9.38182,0 0,-4.07905 m 2.6514,2.0395 a 2.03953,2.03953 0 1 0 4.07905,0 2.03953,2.03953 0 1 0 -4.07905,0 z" style="fill:#9a916c;stroke:none;stroke-width:0"  gorn="0.42" id="path5363"/>
    <circle connectorname="VCC" r="1.89" style="fill:none;stroke:#9a916c;stroke-width:1.25999999"  gorn="0.43" cx="46.799999" cy="82.800003" id="connector9pin"/>
    <circle connectorname="YOUT" r="1.89" style="fill:none;stroke:#9a916c;stroke-width:1.25999999"  gorn="0.44" cx="54" cy="82.800003" id="connector10pin"/>
    <circle connectorname="GND" r="1.89" style="fill:none;stroke:#9a916c;stroke-width:1.25999999"  gorn="0.45" cx="61.200001" cy="82.800003" id="connector11pin"/>
    <circle connectorname="MOUNT1" r="2.79" style="fill:none;stroke:#9a916c;stroke-width:1.62"  gorn="0.46" cx="32.400002" cy="35.099998" id="connector12pin"/>
    <circle connectorname="MOUNT2" r="2.79" style="fill:none;stroke:#9a916c;stroke-width:1.62"  gorn="0.47" cx="32.400002" cy="72.900002" id="connector13pin"/>
    <circle connectorname="MOUNT3" r="2.79" style="fill:none;stroke:#9a916c;stroke-width:1.62"  gorn="0.48" cx="75.599998" cy="72.900002" id="connector14pin"/>
    <circle connectorname="MOUNT4" r="2.79" style="fill:none;stroke:#9a916c;stroke-width:1.62"  gorn="0.49" cx="75.599998" cy="35.099998" id="connector15pin"/>
    <circle connectorname="VCC" r="1.89" style="fill:none;stroke:#9a916c;stroke-width:1.25999999"  gorn="0.50" cx="25.200001" cy="46.799999" id="connector16pin"/>
    <circle connectorname="XOUT" r="1.89" style="fill:none;stroke:#9a916c;stroke-width:1.25999999"  gorn="0.51" cx="25.200001" cy="54" id="connector17pin"/>
    <circle connectorname="GND" r="1.89" style="fill:none;stroke:#9a916c;stroke-width:1.25999999"  gorn="0.52" cx="25.200001" cy="61.200001" id="connector18pin"/>
    <g  transform="translate(2.67001,74.6712)">
        <g  gorn="0.53.0" id="adafruit_3.5mm">
            <g  transform="matrix(-1,0,0,-1,9.77998,9.77702)">
                <g  gorn="0.53.0.0.0" id="g5431">
                    <path d="M 9.77299,4.306 C 9.74099,4.106 9.63199,4.049 9.36999,3.965 9.171,3.901 7.83698,3.476 7.83698,3.476 c 0,0 -0.930002,-0.351 -1.619,0.146 C 6.125,3.688 6.029,3.765 5.932,3.846 6.014,3.749 6.09,3.653 6.156,3.56 6.651,2.87 6.299,1.941 6.299,1.941 6.299,1.941 5.872,0.607 5.807,0.408 5.7219997,0.146 5.665,0.038 5.465,0.006 5.265,-0.026 5.177,0.06 5.016,0.283 4.894,0.453 4.077,1.59 4.077,1.59 c 0,0 -0.621,0.777 -0.361,1.586 C 3.75,3.285 3.793,3.4 3.841,3.517 3.774,3.409 3.706,3.308 3.638,3.215 3.135,2.531 2.142,2.579 2.142,2.579 c 0,0 -1.4,-0.006 -1.61,-0.006 C 0.257,2.572 0.136,2.593 0.044,2.774 -0.047,2.955 0.007,3.065 0.17,3.287 c 0.124,0.169 0.952999,1.297 0.952999,1.297 0,0 0.546,0.830002 1.395,0.833998 0.114,0 0.236,-0.005 0.362,-0.014 -0.122,0.03 -0.24,0.064 -0.348,0.1 C 1.726,5.771 1.465,6.73 1.465,6.73 c 0,0 -0.438,1.32997 -0.503001,1.52898 -0.085997,0.261 -0.102996,0.38304 0.040001,0.52603 0.144,0.143 0.265,0.126 0.526,0.04 0.199,-0.06499 1.528,-0.50599 1.528,-0.50599 0,0 0.958003,-0.263 1.224,-1.07 0.036,-0.108 0.069,-0.225 0.1,-0.348 C 4.371,7.027 4.366,7.149 4.367,7.263 c 0.005,0.849002 0.835999,1.394 0.835999,1.394 0,0 1.13,0.826999 1.298,0.950998 C 6.724,9.76997 6.834,9.82397 7.015,9.73202 c 0.181,-0.092 0.201,-0.213 0.2,-0.488 -10e-4,-0.21 -0.009,-1.61 -0.009,-1.61 0,0 0.047,-0.993002 -0.639,-1.495 C 6.475,6.072 6.373,6.004 6.266,5.937 6.383,5.984 6.498,6.027 6.606,6.061 7.416,6.319 8.19,5.697 8.19,5.697 c 0,0 1.136,-0.819 1.306,-0.940997 C 9.71899,4.595 9.80503,4.507 9.77299,4.306 Z M 4.951,3.275 C 5.103,3.299 5.179,3.624 5.12,4.001 5.061,4.378 4.889,4.663 4.736,4.639 4.583,4.615 4.507,4.29 4.567,3.914 4.626,3.537 4.798,3.251 4.951,3.275 Z M 2.995,4.274 C 3.065,4.136 3.397,4.164 3.737003,4.337 4.077,4.51 4.295,4.762 4.225,4.9 4.155,5.038 3.823,5.01 3.483,4.837 3.143,4.664 2.925,4.412 2.995,4.274 Z M 4.026,6.152 C 3.757,6.422 3.449,6.552 3.34,6.443 3.231,6.334 3.36,6.027 3.63,5.757 3.899,5.487 4.206,5.357 4.316,5.466 4.425,5.575 4.295,5.882 4.026,6.152 Z M 5.51,6.785 C 5.372,6.855 5.12,6.637 4.947,6.298 4.773,5.958 4.744,5.625 4.882,5.555003 c 0.138,-0.069997 0.39,0.148 0.563,0.487 C 5.618,6.382 5.647,6.714 5.51,6.785 Z M 5.867,5.212 C 5.49,5.272 5.166,5.197 5.141,5.044 5.117,4.891 5.403,4.719 5.779,4.659 6.156,4.599 6.48,4.674 6.504998,4.827 6.529,4.98 6.244,5.152 5.867,5.212 Z" style="fill:#dcdcdc"  gorn="0.53.0.0.0.0" id="path5433"/>
                </g>
            </g>
        </g>
    </g>
    <g  transform="translate(15.2451,15.5905)">
        <g  gorn="0.54.0" id="joystick">
            <circle style="fill:#313131" r="38.408401"  gorn="0.54.0.0" cx="38.408401" cy="38.41" id="circle5436"/>
            <g style="opacity:0.5"  gorn="0.54.0.1" id="g5438">
                <circle style="fill:#161616" r="35.969501"  gorn="0.54.0.1.0" cx="38.408401" cy="38.41" id="circle5440"/>
            </g>
            <circle style="fill:#161616" r="34.041599"  gorn="0.54.0.2" cx="38.408401" cy="38.41" id="circle5442"/>
            <circle r="30.8277"  gorn="0.54.0.3" cx="38.407398" cy="38.41" id="circle5444"/>
            <circle style="fill:#313131" r="29.087799"  gorn="0.54.0.4" cx="38.407398" cy="38.41" id="circle5446"/>
            <g style="opacity:0.3"  gorn="0.54.0.5" id="g5448">
                <path d="M 42.3423,9.58802 C 26.4249,7.41499 11.7606,18.555 9.58759,34.473 c -2.17391,15.92 8.96861,30.584 24.886,32.758 15.9163,2.173 30.5808,-8.96897 32.7547,-24.888 C 69.4002,26.424 58.2596,11.761 42.3423,9.58802 Z M 55.6428,61.0929 c -11.8495,9.00202 -29.1678,6.142 -38.6864,-6.386 -9.51862,-12.529 -7.63171,-29.982 4.21782,-38.984 11.8475,-9.00202 29.1658,-6.142 38.6844,6.388 C 69.3762,34.638 67.4892,52.09 55.6428,61.0929 Z" style="fill:#ffffff"  gorn="0.54.0.5.0" id="path5450"/>
            </g>
            <g style="opacity:0.05"  gorn="0.54.0.6" id="g5452">
                <path d="m 54.4098,23.918 c 7.86571,8.16797 10.5895,19.312 8.14867,29.187 5.16579,-9.31097 4.47381,-21.55 -2.69989,-30.993 C 50.341,9.58399 33.0216,6.72399 21.1731,15.726 20.979108,15.873 20.795116,16.029 20.606123,16.182 31.6857,11.691 45.2121,14.368 54.4098,23.918 Z" style="fill:#ffffff"  gorn="0.54.0.6.0" id="path5454"/>
            </g>
            <g style="opacity:0.05"  gorn="0.54.0.7" id="g5456">
                <path d="m 57.8646,22.915 c 7.05571,9.288 8.34062,21.067 4.36882,30.75 5.51277,-9.37598 4.9438,-21.918 -2.37491,-31.553 C 54.0038,14.406 45.1981,10.365 36.5285,10.485 c 8.0677,0.995 15.8814,5.25 21.3361,12.43 z" style="fill:#ffffff"  gorn="0.54.0.7.0" id="path5458"/>
            </g>
            <g style="opacity:0.2"  gorn="0.54.0.8" id="g5460">
                <path d="m 10.9526,35.076 c -0.438982,6.703 1.50994,13.716 6.00376,19.632 5.37678,7.077 13.2425,11.066 21.2062,11.577 C 22.8361,63.305 11.9765,50.585 10.9526,35.076 Z"  gorn="0.54.0.8.0" id="path5462"/>
            </g>
        </g>
    </g>
</svg>
