<?xml version='1.0' encoding='UTF-8' standalone='no'?>
<!-- Created with Fritzing (http://www.fritzing.org/) -->
<svg xmlns="http://www.w3.org/2000/svg" viewBox="0 0 50.4 50.4" version="1.2"  id="svg4224" width="0.7in" y="0in" x="0in" height="0.7in" gorn="0">
    <desc >
        <referenceFile >Adafruit APDS-9960_breadboard.svg</referenceFile>
    </desc>
    <metadata  id="metadata4677"/>
    <defs  id="defs4675"/>
    <desc  id="desc4226">Fritzing breadboard generated by brd2svg</desc>
    <g  id="icon" gorn="0.4">
        <path d="m 50.4,7.2 0,36 a 7.2,7.2 0 0 1 -7.2,7.2 l -36,0 A 7.2,7.2 0 0 1 0,43.2 L 0,7.2 A 7.2,7.2 0 0 1 7.2,0 l 36,0 a 7.2,7.2 0 0 1 7.2,7.2 m -44.61732,36 a 1.417325,1.417325 0 1 0 2.83465,0 1.417325,1.417325 0 1 0 -2.83465,0 z m 7.20002,0 a 1.417325,1.417325 0 1 0 2.83465,0 1.417325,1.417325 0 1 0 -2.83465,0 z m 7.2,0 a 1.417325,1.417325 0 1 0 2.83465,0 1.417325,1.417325 0 1 0 -2.83465,0 z m 7.2,0 a 1.417325,1.417325 0 1 0 2.83465,0 1.417325,1.417325 0 1 0 -2.83465,0 z m 7.2,0 a 1.417325,1.417325 0 1 0 2.83465,0 1.417325,1.417325 0 1 0 -2.83465,0 z m 7.2,0 a 1.417325,1.417325 0 1 0 2.83465,0 1.417325,1.417325 0 1 0 -2.83465,0 z M 3.65669,7.2 a 3.54331,3.54331 0 1 0 7.08661,0 3.54331,3.54331 0 1 0 -7.08661,0 z m 36.00001,0 a 3.54331,3.54331 0 1 0 7.08661,0 3.54331,3.54331 0 1 0 -7.08661,0 z" style="fill:#014cb1;stroke:none;stroke-width:0"  id="path4230" gorn="0.4.0"/>
        <g  id="g4232" gorn="0.4.1">
            <title  id="title4234">layer 21</title>
            <g  id="g4236" gorn="0.4.1.1">
                <title  id="title4238">text:VIN</title>
                <text style="font-size:3.34080005px;font-family:OCRA;text-anchor:middle;fill:#ffffff;stroke:none;stroke-width:0"  id="text4240" y="49.9104" x="7.5599999" font-size="3.3408" gorn="0.4.1.1.1">VIN</text>
            </g>
            <g  id="g4242" gorn="0.4.1.2">
                <title  id="title4244">text:3Vo</title>
                <text style="font-size:3.34080005px;font-family:OCRA;text-anchor:middle;fill:#ffffff;stroke:none;stroke-width:0"  id="text4246" y="39.830399" x="14.4" font-size="3.3408" gorn="0.4.1.2.1">3Vo</text>
            </g>
            <g  id="g4248" gorn="0.4.1.3">
                <title  id="title4250">text:Gnd</title>
                <text style="font-size:3.34080005px;font-family:OCRA;text-anchor:middle;fill:#ffffff;stroke:none;stroke-width:0"  id="text4252" y="49.9104" x="21.6" font-size="3.3408" gorn="0.4.1.3.1">Gnd</text>
            </g>
            <g  id="g4254" gorn="0.4.1.4">
                <title  id="title4256">text:SCL</title>
                <text style="font-size:3.34080005px;font-family:OCRA;text-anchor:middle;fill:#ffffff;stroke:none;stroke-width:0"  id="text4258" y="39.830399" x="28.799999" font-size="3.3408" gorn="0.4.1.4.1">SCL</text>
            </g>
            <g  id="g4260" gorn="0.4.1.5">
                <title  id="title4262">text:SDA</title>
                <text style="font-size:3.34080005px;font-family:OCRA;text-anchor:middle;fill:#ffffff;stroke:none;stroke-width:0"  id="text4264" y="49.9104" x="36.360001" font-size="3.3408" gorn="0.4.1.5.1">SDA</text>
            </g>
            <g  id="g4266" gorn="0.4.1.6">
                <title  id="title4268">text:Int</title>
                <text style="font-size:3.34080005px;font-family:OCRA;text-anchor:middle;fill:#ffffff;stroke:none;stroke-width:0"  id="text4270" y="39.830399" x="43.200001" font-size="3.3408" gorn="0.4.1.6.1">Int</text>
            </g>
            <g  id="g4272" gorn="0.4.1.7">
                <title  id="title4274">text:APDS
9960</title>
                <g  transform="translate(0,-2.088)">
                    <g >
                        <g  id="g4276" gorn="0.4.1.7.1.0.0">
                            <text style="font-size:4.17600012px;font-family:OCRA;text-anchor:middle;fill:#ffffff;stroke:none;stroke-width:0"  id="text4278" y="7.4879999" x="25.200001" font-size="4.176" gorn="0.4.1.7.1.0.0.0">APDS</text>
                        </g>
                    </g>
                </g>
                <g  transform="translate(0,2.088)">
                    <g >
                        <g  id="g4280" gorn="0.4.1.7.2.0.0">
                            <text style="font-size:4.17600012px;font-family:OCRA;text-anchor:middle;fill:#ffffff;stroke:none;stroke-width:0"  id="text4282" y="7.4879999" x="25.200001" font-size="4.176" gorn="0.4.1.7.2.0.0.0">9960</text>
                        </g>
                    </g>
                </g>
            </g>
            <g  id="g4284" gorn="0.4.1.8">
                <title  id="title4286">element:C1</title>
                <g  id="g4288" gorn="0.4.1.8.1">
                    <title  id="title4290">package:0805-NO</title>
                    <line style="stroke:#ffffff;stroke-width:0.86400002;stroke-linecap:round"  id="line4292" y1="26.280001" x1="16.200001" x2="19.08" gorn="0.4.1.8.1.1" y2="26.280001"/>
                </g>
            </g>
            <g  id="g4294" gorn="0.4.1.9">
                <title  id="title4296">element:C2</title>
                <g  id="g4298" gorn="0.4.1.9.1">
                    <title  id="title4300">package:0805-NO</title>
                    <line style="stroke:#ffffff;stroke-width:0.86400002;stroke-linecap:round"  id="line4302" y1="32.400002" x1="7.1999998" x2="7.1999998" gorn="0.4.1.9.1.1" y2="35.279999"/>
                </g>
            </g>
            <g  id="g4304" gorn="0.4.1.10">
                <title  id="title4306">element:C3</title>
                <g  id="g4308" gorn="0.4.1.10.1">
                    <title  id="title4310">package:0805-NO</title>
                    <line style="stroke:#ffffff;stroke-width:0.86400002;stroke-linecap:round"  id="line4312" y1="19.440001" x1="7.1999998" x2="7.1999998" gorn="0.4.1.10.1.1" y2="16.559999"/>
                </g>
            </g>
            <g  id="g4314" gorn="0.4.1.11">
                <title  id="title4316">element:FID1</title>
                <g  id="g4318" gorn="0.4.1.11.1">
                    <title  id="title4320">package:FIDUCIAL_1MM</title>
                </g>
            </g>
            <g  id="g4322" gorn="0.4.1.12">
                <title  id="title4324">element:FID2</title>
                <g  id="g4326" gorn="0.4.1.12.1">
                    <title  id="title4328">package:FIDUCIAL_1MM</title>
                </g>
            </g>
            <g  id="g4330" gorn="0.4.1.13">
                <title  id="title4332">element:JP1</title>
                <g  id="g4334" gorn="0.4.1.13.1">
                    <title  id="title4336">package:1X06_ROUND_76</title>
                </g>
            </g>
            <g  id="g4338" gorn="0.4.1.14">
                <title  id="title4340">element:Q1</title>
                <g  id="g4342" gorn="0.4.1.14.1">
                    <title  id="title4344">package:SOT23-WIDE</title>
                    <line style="stroke:#ffffff;stroke-width:0.57599998;stroke-linecap:round"  id="line4346" y1="29.940701" x1="36.409302" x2="32.688" gorn="0.4.1.14.1.1" y2="29.940701"/>
                    <line style="stroke:#ffffff;stroke-width:0.57599998;stroke-linecap:round"  id="line4348" y1="29.940701" x1="32.688" x2="32.688" gorn="0.4.1.14.1.2" y2="27.222799"/>
                    <line style="stroke:#ffffff;stroke-width:0.57599998;stroke-linecap:round"  id="line4350" y1="20.459299" x1="32.688" x2="36.409302" gorn="0.4.1.14.1.3" y2="20.459299"/>
                    <line style="stroke:#ffffff;stroke-width:0.57599998;stroke-linecap:round"  id="line4352" y1="23.1772" x1="32.688" x2="32.688" gorn="0.4.1.14.1.4" y2="20.459299"/>
                    <line style="stroke:#ffffff;stroke-width:0.57599998;stroke-linecap:round"  id="line4354" y1="24.569599" x1="36.431999" x2="36.431999" gorn="0.4.1.14.1.5" y2="25.8701"/>
                </g>
            </g>
            <g  id="g4356" gorn="0.4.1.15">
                <title  id="title4358">element:Q2</title>
                <g  id="g4360" gorn="0.4.1.15.1">
                    <title  id="title4362">package:SOT23-WIDE</title>
                    <line style="stroke:#ffffff;stroke-width:0.57599998;stroke-linecap:round"  id="line4364" y1="20.459299" x1="42.790699" x2="46.512001" gorn="0.4.1.15.1.1" y2="20.459299"/>
                    <line style="stroke:#ffffff;stroke-width:0.57599998;stroke-linecap:round"  id="line4366" y1="20.459299" x1="46.512001" x2="46.512001" gorn="0.4.1.15.1.2" y2="23.1772"/>
                    <line style="stroke:#ffffff;stroke-width:0.57599998;stroke-linecap:round"  id="line4368" y1="29.940701" x1="46.512001" x2="42.790699" gorn="0.4.1.15.1.3" y2="29.940701"/>
                    <line style="stroke:#ffffff;stroke-width:0.57599998;stroke-linecap:round"  id="line4370" y1="27.222799" x1="46.512001" x2="46.512001" gorn="0.4.1.15.1.4" y2="29.940701"/>
                    <line style="stroke:#ffffff;stroke-width:0.57599998;stroke-linecap:round"  id="line4372" y1="25.8304" x1="42.768002" x2="42.768002" gorn="0.4.1.15.1.5" y2="24.5299"/>
                </g>
            </g>
            <g  id="g4374" gorn="0.4.1.16">
                <title  id="title4376">element:R1</title>
                <g  id="g4378" gorn="0.4.1.16.1">
                    <title  id="title4380">package:0805-NO</title>
                    <line style="stroke:#ffffff;stroke-width:0.86400002;stroke-linecap:round"  id="line4382" y1="18.719999" x1="34.560001" x2="34.560001" gorn="0.4.1.16.1.1" y2="15.84"/>
                </g>
            </g>
            <g  id="g4384" gorn="0.4.1.17">
                <title  id="title4386">element:R2</title>
                <g  id="g4388" gorn="0.4.1.17.1">
                    <title  id="title4390">package:0805-NO</title>
                    <line style="stroke:#ffffff;stroke-width:0.86400002;stroke-linecap:round"  id="line4392" y1="18.719999" x1="44.639999" x2="44.639999" gorn="0.4.1.17.1.1" y2="15.84"/>
                </g>
            </g>
            <g  id="g4394" gorn="0.4.1.18">
                <title  id="title4396">element:R3</title>
                <g  id="g4398" gorn="0.4.1.18.1">
                    <title  id="title4400">package:0805-NO</title>
                    <line style="stroke:#ffffff;stroke-width:0.86400002;stroke-linecap:round"  id="line4402" y1="31.68" x1="34.560001" x2="34.560001" gorn="0.4.1.18.1.1" y2="34.560001"/>
                </g>
            </g>
            <g  id="g4404" gorn="0.4.1.19">
                <title  id="title4406">element:R4</title>
                <g  id="g4408" gorn="0.4.1.19.1">
                    <title  id="title4410">package:0805-NO</title>
                    <line style="stroke:#ffffff;stroke-width:0.86400002;stroke-linecap:round"  id="line4412" y1="34.560001" x1="44.639999" x2="44.639999" gorn="0.4.1.19.1.1" y2="31.68"/>
                </g>
            </g>
            <g  id="g4414" gorn="0.4.1.20">
                <title  id="title4416">element:U$1</title>
                <g  id="g4418" gorn="0.4.1.20.1">
                    <title  id="title4420">package:MOUNTINGHOLE_2.5_PLATED</title>
                    <circle cy="7.1999998" style="fill:none;stroke:#ffffff;stroke-width:0.57599998"  cx="7.1999998" id="circle4422" gorn="0.4.1.20.1.1" r="5.6692901"/>
                </g>
            </g>
            <g  id="g4424" gorn="0.4.1.21">
                <title  id="title4426">element:U$2</title>
                <g  id="g4428" gorn="0.4.1.21.1">
                    <title  id="title4430">package:MOUNTINGHOLE_2.5_PLATED</title>
                    <circle cy="7.1999998" style="fill:none;stroke:#ffffff;stroke-width:0.57599998"  cx="43.200001" id="circle4432" gorn="0.4.1.21.1.1" r="5.6692901"/>
                </g>
            </g>
            <g  id="g4434" gorn="0.4.1.22">
                <title  id="title4436">element:U$17</title>
                <g  id="g4438" gorn="0.4.1.22.1">
                    <title  id="title4440">package:PCBFEAT-REV-040</title>
                </g>
            </g>
            <g  id="g4442" gorn="0.4.1.23">
                <title  id="title4444">element:U$18</title>
                <g  id="g4446" gorn="0.4.1.23.1">
                    <title  id="title4448">package:ADAFRUIT_2.5MM</title>
                </g>
            </g>
            <g  id="g4450" gorn="0.4.1.24">
                <title  id="title4452">element:U$19</title>
                <g  id="g4454" gorn="0.4.1.24.1">
                    <title  id="title4456">package:ADAFRUIT_3.5MM</title>
                </g>
            </g>
            <g  id="g4458" gorn="0.4.1.25">
                <title  id="title4460">element:U1</title>
                <g  id="g4462" gorn="0.4.1.25.1">
                    <title  id="title4464">package:APDS-9960</title>
                    <line style="stroke:#ffffff;stroke-width:0.36000001;stroke-linecap:round"  id="line4466" y1="19.247299" x1="21.514999" x2="28.885" gorn="0.4.1.25.1.1" y2="19.247299"/>
                    <line style="stroke:#ffffff;stroke-width:0.36000001;stroke-linecap:round"  id="line4468" y1="19.247299" x1="28.885" x2="28.885" gorn="0.4.1.25.1.2" y2="31.1527"/>
                    <line style="stroke:#ffffff;stroke-width:0.36000001;stroke-linecap:round"  id="line4470" y1="31.1527" x1="28.885" x2="21.514999" gorn="0.4.1.25.1.3" y2="31.1527"/>
                    <line style="stroke:#ffffff;stroke-width:0.36000001;stroke-linecap:round"  id="line4472" y1="31.1527" x1="21.514999" x2="21.514999" gorn="0.4.1.25.1.4" y2="19.247299"/>
                </g>
            </g>
            <g  id="g4474" gorn="0.4.1.26">
                <title  id="title4476">element:U2</title>
                <g  id="g4478" gorn="0.4.1.26.1">
                    <title  id="title4480">package:SOT23-5</title>
                    <line style="stroke:#ffffff;stroke-width:0.57599998;stroke-linecap:round"  id="line4482" y1="20.882799" x1="10.5477" x2="6.01228" gorn="0.4.1.26.1.1" y2="20.882799"/>
                    <line style="stroke:#ffffff;stroke-width:0.57599998;stroke-linecap:round"  id="line4484" y1="30.2372" x1="10.5477" x2="6.01228" gorn="0.4.1.26.1.2" y2="30.2372"/>
                    <line style="stroke:#ffffff;stroke-width:0.57599998;stroke-linecap:round"  id="line4486" y1="24.4261" x1="11.2564" x2="11.2564" gorn="0.4.1.26.1.3" y2="26.693899"/>
                </g>
            </g>
        </g>
        <g  transform="matrix(0,-1,1,0,-11.3329,46.6129)">
            <g >
                <g  id="g4488" gorn="0.4.2.0.0">
                    <rect style="fill:#9a916c;stroke:none;stroke-width:0"  id="connector0pin" width="3.5149601" y="26.846901" x="15.8826" height="4.2519698" gorn="0.4.2.0.0.0"/>
                </g>
            </g>
        </g>
        <g  transform="matrix(0,-1,1,0,-5.94708,41.2271)">
            <g >
                <g  id="g4491" gorn="0.4.3.0.0">
                    <rect style="fill:#9a916c;stroke:none;stroke-width:0"  id="connector1pin" width="3.5149601" y="21.4611" x="15.8826" height="4.2519698" gorn="0.4.3.0.0.0"/>
                </g>
            </g>
        </g>
        <rect style="fill:#9a916c;stroke:none;stroke-width:0"  id="connector2pin" width="3.5149601" y="31.714001" x="2.7496099" height="4.2519698" gorn="0.4.4"/>
        <rect style="fill:#9a916c;stroke:none;stroke-width:0"  id="connector3pin" width="3.5149601" y="31.714001" x="8.1354198" height="4.2519698" gorn="0.4.5"/>
        <g  transform="matrix(-1,0,0,-1,19.7858,36)">
            <g >
                <g  id="g4496" gorn="0.4.6.0.0">
                    <rect style="fill:#9a916c;stroke:none;stroke-width:0"  id="connector4pin" width="3.5149601" y="15.874" x="8.1354198" height="4.2519698" gorn="0.4.6.0.0.0"/>
                </g>
            </g>
        </g>
        <g  transform="matrix(-1,0,0,-1,9.01418,36)">
            <g >
                <g  id="g4499" gorn="0.4.7.0.0">
                    <rect style="fill:#9a916c;stroke:none;stroke-width:0"  id="connector5pin" width="3.5149601" y="15.874" x="2.7496099" height="4.2519698" gorn="0.4.7.0.0.0"/>
                </g>
            </g>
        </g>
        <rect style="fill:#9a916c;stroke:none;stroke-width:0" rx="1.41732"  id="connector6pin" width="2.83465" y="35.3027" ry="1.41732" x="19.822701" height="2.83465" gorn="0.4.8"/>
        <rect style="fill:#9a916c;stroke:none;stroke-width:0" rx="1.41732"  id="connector7pin" width="2.83465" y="2.1826799" ry="1.41732" x="33.502701" height="2.83465" gorn="0.4.9"/>
        <circle cy="43.200001" style="fill:none;stroke:#9a916c;stroke-width:1.31868005"  cx="7.1999998" id="connector8pin" connectorname="VIN" gorn="0.4.10" r="2.0766599"/>
        <circle cy="43.200001" style="fill:none;stroke:#9a916c;stroke-width:1.31868005"  cx="14.4" id="connector9pin" connectorname="3.3V" gorn="0.4.11" r="2.0766599"/>
        <circle cy="43.200001" style="fill:none;stroke:#9a916c;stroke-width:1.31868005"  cx="21.6" id="connector10pin" connectorname="GND" gorn="0.4.12" r="2.0766599"/>
        <circle cy="43.200001" style="fill:none;stroke:#9a916c;stroke-width:1.31868005"  cx="28.799999" id="connector11pin" connectorname="SCL" gorn="0.4.13" r="2.0766599"/>
        <circle cy="43.200001" style="fill:none;stroke:#9a916c;stroke-width:1.31868005"  cx="36" id="connector12pin" connectorname="SDA" gorn="0.4.14" r="2.0766599"/>
        <circle cy="43.200001" style="fill:none;stroke:#9a916c;stroke-width:1.31868005"  cx="43.200001" id="connector13pin" connectorname="INT" gorn="0.4.15" r="2.0766599"/>
        <g  transform="matrix(0,-1,1,0,9.50177,65.2876)">
            <g >
                <g  id="g4510" gorn="0.4.16.0.0">
                    <rect style="fill:#9a916c;stroke:none;stroke-width:0"  id="connector14pin" width="2.83465" y="26.1922" x="35.977299" height="3.4015801" gorn="0.4.16.0.0.0"/>
                </g>
            </g>
        </g>
        <g  transform="matrix(0,-1,1,0,14.8876,59.9018)">
            <g >
                <g  id="g4513" gorn="0.4.17.0.0">
                    <rect style="fill:#9a916c;stroke:none;stroke-width:0"  id="connector15pin" width="2.83465" y="20.806299" x="35.977299" height="3.4015801" gorn="0.4.17.0.0.0"/>
                </g>
            </g>
        </g>
        <g  transform="matrix(0,-1,1,0,6.52535,56.9254)">
            <g >
                <g  id="g4516" gorn="0.4.18.0.0">
                    <rect style="fill:#9a916c;stroke:none;stroke-width:0"  id="connector16pin" width="2.83465" y="23.499201" x="30.308001" height="3.4015801" gorn="0.4.18.0.0.0"/>
                </g>
            </g>
        </g>
        <g  transform="matrix(0,1,-1,0,64.3124,-19.2982)">
            <g >
                <g  id="g4519" gorn="0.4.19.0.0">
                    <rect style="fill:#9a916c;stroke:none;stroke-width:0"  id="connector17pin" width="2.83465" y="20.806299" x="40.388" height="3.4015801" gorn="0.4.19.0.0.0"/>
                </g>
            </g>
        </g>
        <g  transform="matrix(0,1,-1,0,69.6982,-13.9124)">
            <g >
                <g  id="g4522" gorn="0.4.20.0.0">
                    <rect style="fill:#9a916c;stroke:none;stroke-width:0"  id="connector18pin" width="2.83465" y="26.1922" x="40.388" height="3.4015801" gorn="0.4.20.0.0.0"/>
                </g>
            </g>
        </g>
        <g  transform="matrix(0,1,-1,0,72.6746,-22.2746)">
            <g >
                <g  id="g4525" gorn="0.4.21.0.0">
                    <rect style="fill:#9a916c;stroke:none;stroke-width:0"  id="connector19pin" width="2.83465" y="23.499201" x="46.057301" height="3.4015801" gorn="0.4.21.0.0.0"/>
                </g>
            </g>
        </g>
        <g  transform="matrix(-1,0,0,-1,74.5056,34.56)">
            <g >
                <g  id="g4528" gorn="0.4.22.0.0">
                    <rect style="fill:#9a916c;stroke:none;stroke-width:0"  id="connector20pin" width="3.5149601" y="15.154" x="35.495399" height="4.2519698" gorn="0.4.22.0.0.0"/>
                </g>
            </g>
        </g>
        <g  transform="matrix(-1,0,0,-1,63.7342,34.56)">
            <g >
                <g  id="g4531" gorn="0.4.23.0.0">
                    <rect style="fill:#9a916c;stroke:none;stroke-width:0"  id="connector21pin" width="3.5149601" y="15.154" x="30.1096" height="4.2519698" gorn="0.4.23.0.0.0"/>
                </g>
            </g>
        </g>
        <g  transform="matrix(-1,0,0,-1,94.6656,34.56)">
            <g >
                <g  id="g4534" gorn="0.4.24.0.0">
                    <rect style="fill:#9a916c;stroke:none;stroke-width:0"  id="connector22pin" width="3.5149601" y="15.154" x="45.575401" height="4.2519698" gorn="0.4.24.0.0.0"/>
                </g>
            </g>
        </g>
        <g  transform="matrix(-1,0,0,-1,83.8944,34.56)">
            <g >
                <g  id="g4537" gorn="0.4.25.0.0">
                    <rect style="fill:#9a916c;stroke:none;stroke-width:0"  id="connector23pin" width="3.5149601" y="15.154" x="40.189602" height="4.2519698" gorn="0.4.25.0.0.0"/>
                </g>
            </g>
        </g>
        <rect style="fill:#9a916c;stroke:none;stroke-width:0"  id="connector24pin" width="3.5149601" y="30.993999" x="30.1096" height="4.2519698" gorn="0.4.26"/>
        <rect style="fill:#9a916c;stroke:none;stroke-width:0"  id="connector25pin" width="3.5149601" y="30.993999" x="35.495399" height="4.2519698" gorn="0.4.27"/>
        <g  transform="matrix(-1,0,0,-1,94.6656,66.24)">
            <g >
                <g  id="g4542" gorn="0.4.28.0.0">
                    <rect style="fill:#9a916c;stroke:none;stroke-width:0"  id="connector26pin" width="3.5149601" y="30.993999" x="45.575401" height="4.2519698" gorn="0.4.28.0.0.0"/>
                </g>
            </g>
        </g>
        <g  transform="matrix(-1,0,0,-1,83.8944,66.24)">
            <g >
                <g  id="g4545" gorn="0.4.29.0.0">
                    <rect style="fill:#9a916c;stroke:none;stroke-width:0"  id="connector27pin" width="3.5149601" y="30.993999" x="40.189602" height="4.2519698" gorn="0.4.29.0.0.0"/>
                </g>
            </g>
        </g>
        <circle cy="7.1999998" style="fill:none;stroke:#9a916c;stroke-width:1.44000006"  cx="7.1999998" id="connector28pin" connectorname="P$1" gorn="0.4.30" r="4.26331"/>
        <circle cy="7.1999998" style="fill:none;stroke:#9a916c;stroke-width:1.44000006"  cx="43.200001" id="connector29pin" connectorname="P$1" gorn="0.4.31" r="4.26331"/>
        <rect style="fill:#9a916c;stroke:none;stroke-width:0"  id="connector30pin" width="1.70078" y="19.913401" x="26.3339" height="2.0409501" gorn="0.4.32"/>
        <rect style="fill:#9a916c;stroke:none;stroke-width:0"  id="connector31pin" width="1.70078" y="22.747999" x="26.3339" height="2.0409501" gorn="0.4.33"/>
        <rect style="fill:#9a916c;stroke:none;stroke-width:0"  id="connector32pin" width="1.70078" y="25.582701" x="26.3339" height="2.0409501" gorn="0.4.34"/>
        <rect style="fill:#9a916c;stroke:none;stroke-width:0"  id="connector33pin" width="1.70078" y="28.417299" x="26.3339" height="2.0409501" gorn="0.4.35"/>
        <rect style="fill:#9a916c;stroke:none;stroke-width:0"  id="connector34pin" width="1.70078" y="28.417299" x="22.3654" height="2.0409501" gorn="0.4.36"/>
        <rect style="fill:#9a916c;stroke:none;stroke-width:0"  id="connector35pin" width="1.70078" y="25.582701" x="22.3654" height="2.0409501" gorn="0.4.37"/>
        <rect style="fill:#9a916c;stroke:none;stroke-width:0"  id="connector36pin" width="1.70078" y="22.747999" x="22.3654" height="2.0409501" gorn="0.4.38"/>
        <rect style="fill:#9a916c;stroke:none;stroke-width:0"  id="connector37pin" width="1.70078" y="19.913401" x="22.3654" height="2.0409501" gorn="0.4.39"/>
        <g  transform="matrix(0,1,-1,0,27.4617,18.2724)">
            <g >
                <g  id="g4558" gorn="0.4.40.0.0">
                    <rect style="fill:#9a916c;stroke:none;stroke-width:0"  id="connector38pin" width="1.55905" y="21.1663" x="3.81515" height="3.4015801" gorn="0.4.40.0.0.0"/>
                </g>
            </g>
        </g>
        <g  transform="matrix(0,1,-1,0,30.1547,20.9653)">
            <g >
                <g  id="g4561" gorn="0.4.41.0.0">
                    <rect style="fill:#9a916c;stroke:none;stroke-width:0"  id="connector39pin" width="1.55905" y="23.8592" x="3.81515" height="3.4015801" gorn="0.4.41.0.0.0"/>
                </g>
            </g>
        </g>
        <g  transform="matrix(0,1,-1,0,32.8476,23.6583)">
            <g >
                <g  id="g4564" gorn="0.4.42.0.0">
                    <rect style="fill:#9a916c;stroke:none;stroke-width:0"  id="connector40pin" width="1.55905" y="26.5522" x="3.81515" height="3.4015801" gorn="0.4.42.0.0.0"/>
                </g>
            </g>
        </g>
        <g  transform="matrix(0,1,-1,0,40.2183,16.2876)">
            <g >
                <g  id="g4567" gorn="0.4.43.0.0">
                    <rect style="fill:#9a916c;stroke:none;stroke-width:0"  id="connector41pin" width="1.55905" y="26.5522" x="11.1858" height="3.4015801" gorn="0.4.43.0.0.0"/>
                </g>
            </g>
        </g>
        <g  transform="matrix(0,1,-1,0,34.8324,10.9017)">
            <g >
                <g  id="g4570" gorn="0.4.44.0.0">
                    <rect style="fill:#9a916c;stroke:none;stroke-width:0"  id="connector42pin" width="1.55905" y="21.1663" x="11.1858" height="3.4015801" gorn="0.4.44.0.0.0"/>
                </g>
            </g>
        </g>
    </g>
    <g  transform="translate(14.8055,24.5085)">
        <g >
            <g  id="0805-cap" gorn="0.5.0.0">
                <g  transform="matrix(0,-1,1,0,1.063,4.606)">
                    <g >
                        <g  id="g4574" gorn="0.5.0.0.0.0.0">
                            <path d="m 5.386,3.543 -5.103,0 C 0.127,3.543 0,3.416 0,3.26 L 0,0.283 C 0,0.127 0.127,0 0.283,0 l 5.102,0 c 0.157,0 0.283,0.127 0.283,0.283 l 0,2.977 C 5.669,3.416 5.542,3.543 5.386,3.543 Z" style="fill:#dcdcdc"  id="path4576" gorn="0.5.0.0.0.0.0.0"/>
                            <rect style="fill:#6e554b"  id="rect4578" width="3.543" y="0" x="1.063" height="3.543" gorn="0.5.0.0.0.0.0.1"/>
                        </g>
                    </g>
                </g>
            </g>
        </g>
    </g>
    <g  transform="translate(4.3655,32.0685)">
        <g >
            <g  id="g4580" gorn="0.6.0.0">
                <path d="m 5.386,3.543 -5.103,0 C 0.127,3.543 0,3.416 0,3.26 L 0,0.283 C 0,0.127 0.127,0 0.283,0 l 5.102,0 c 0.157,0 0.283,0.127 0.283,0.283 l 0,2.977 C 5.669,3.416 5.542,3.543 5.386,3.543 Z" style="fill:#dcdcdc"  id="path4582" gorn="0.6.0.0.0"/>
                <rect style="fill:#6e554b"  id="rect4584" width="3.543" y="0" x="1.063" height="3.543" gorn="0.6.0.0.1"/>
            </g>
        </g>
    </g>
    <g  transform="translate(4.3655,16.2285)">
        <g >
            <g  id="g4586" gorn="0.7.0.0">
                <g  transform="matrix(-1,0,0,-1,5.669,3.543)">
                    <g >
                        <g  id="g4588" gorn="0.7.0.0.0.0.0">
                            <path d="m 5.386,3.543 -5.103,0 C 0.127,3.543 0,3.416 0,3.26 L 0,0.283 C 0,0.127 0.127,0 0.283,0 l 5.102,0 c 0.157,0 0.283,0.127 0.283,0.283 l 0,2.977 C 5.669,3.416 5.542,3.543 5.386,3.543 Z" style="fill:#dcdcdc"  id="path4590" gorn="0.7.0.0.0.0.0.0"/>
                            <rect style="fill:#6e554b"  id="rect4592" width="3.543" y="0" x="1.063" height="3.543" gorn="0.7.0.0.0.0.0.1"/>
                        </g>
                    </g>
                </g>
            </g>
        </g>
    </g>
    <g  transform="translate(30.308,21.373)">
        <g >
            <g  id="sot23-wide" gorn="0.8.0.0">
                <g  transform="matrix(0,-1,1,0,0.42498,8.07898)">
                    <g >
                        <g  id="g4595" gorn="0.8.0.0.0.0.0">
                            <g  id="g4597" gorn="0.8.0.0.0.0.0.0">
                                <rect style="fill:#dcdcdc"  id="rect4599" width="1.4170001" y="4.677" x="0.850003" height="2.9760001" gorn="0.8.0.0.0.0.0.0.0"/>
                                <rect style="fill:#dcdcdc"  id="rect4601" width="1.4170001" y="4.677" x="6.2360001" height="2.9760001" gorn="0.8.0.0.0.0.0.0.1"/>
                                <rect style="fill:#dcdcdc"  id="rect4603" width="1.4170001" y="0" x="3.543" height="3.118" gorn="0.8.0.0.0.0.0.0.2"/>
                                <rect style="fill:#303030"  id="rect4605" width="8.5039902" y="1.984" x="0" height="3.6849999" gorn="0.8.0.0.0.0.0.0.3"/>
                            </g>
                        </g>
                    </g>
                </g>
            </g>
        </g>
    </g>
    <g  transform="translate(40.388,21.373)">
        <g >
            <g  id="g4607" gorn="0.9.0.0">
                <g  transform="matrix(0,1,-1,0,8.07898,-0.42498)">
                    <g >
                        <g  id="g4609" gorn="0.9.0.0.0.0.0">
                            <g  id="g4611" gorn="0.9.0.0.0.0.0.0">
                                <rect style="fill:#dcdcdc"  id="rect4613" width="1.4170001" y="4.677" x="0.850003" height="2.9760001" gorn="0.9.0.0.0.0.0.0.0"/>
                                <rect style="fill:#dcdcdc"  id="rect4615" width="1.4170001" y="4.677" x="6.2360001" height="2.9760001" gorn="0.9.0.0.0.0.0.0.1"/>
                                <rect style="fill:#dcdcdc"  id="rect4617" width="1.4170001" y="0" x="3.543" height="3.118" gorn="0.9.0.0.0.0.0.0.2"/>
                                <rect style="fill:#303030"  id="rect4619" width="8.5039902" y="1.984" x="0" height="3.6849999" gorn="0.9.0.0.0.0.0.0.3"/>
                            </g>
                        </g>
                    </g>
                </g>
            </g>
        </g>
    </g>
    <g  transform="translate(31.7255,15.5085)">
        <g >
            <g  id="0805-res" gorn="0.10.0.0">
                <g  transform="matrix(-1,0,0,-1,5.669,3.543)">
                    <g >
                        <g  id="g4622" gorn="0.10.0.0.0.0.0">
                            <path d="m 5.386,3.543 -5.103,0 C 0.127,3.543 0,3.416 0,3.26 L 0,0.283 C 0,0.127 0.127,0 0.283,0 l 5.102,0 c 0.157,0 0.283,0.127 0.283,0.283 l 0,2.977 C 5.669,3.416 5.542,3.543 5.386,3.543 Z" style="fill:#dcdcdc"  id="path4624" gorn="0.10.0.0.0.0.0.0"/>
                            <rect style="fill:#333333"  id="rect4626" width="3.543" y="0" x="1.063" height="3.543" gorn="0.10.0.0.0.0.0.1"/>
                        </g>
                    </g>
                </g>
            </g>
        </g>
    </g>
    <g  transform="translate(41.8055,15.5085)">
        <g >
            <g  id="g4628" gorn="0.11.0.0">
                <g  transform="matrix(-1,0,0,-1,5.669,3.543)">
                    <g >
                        <g  id="g4630" gorn="0.11.0.0.0.0.0">
                            <path d="m 5.386,3.543 -5.103,0 C 0.127,3.543 0,3.416 0,3.26 L 0,0.283 C 0,0.127 0.127,0 0.283,0 l 5.102,0 c 0.157,0 0.283,0.127 0.283,0.283 l 0,2.977 C 5.669,3.416 5.542,3.543 5.386,3.543 Z" style="fill:#dcdcdc"  id="path4632" gorn="0.11.0.0.0.0.0.0"/>
                            <rect style="fill:#333333"  id="rect4634" width="3.543" y="0" x="1.063" height="3.543" gorn="0.11.0.0.0.0.0.1"/>
                        </g>
                    </g>
                </g>
            </g>
        </g>
    </g>
    <g  transform="translate(31.7255,31.3485)">
        <g >
            <g  id="g4636" gorn="0.12.0.0">
                <path d="m 5.386,3.543 -5.103,0 C 0.127,3.543 0,3.416 0,3.26 L 0,0.283 C 0,0.127 0.127,0 0.283,0 l 5.102,0 c 0.157,0 0.283,0.127 0.283,0.283 l 0,2.977 C 5.669,3.416 5.542,3.543 5.386,3.543 Z" style="fill:#dcdcdc"  id="path4638" gorn="0.12.0.0.0"/>
                <rect style="fill:#333333"  id="rect4640" width="3.543" y="0" x="1.063" height="3.543" gorn="0.12.0.0.1"/>
            </g>
        </g>
    </g>
    <g  transform="translate(41.8055,31.3485)">
        <g >
            <g  id="g4642" gorn="0.13.0.0">
                <g  transform="matrix(-1,0,0,-1,5.669,3.543)">
                    <g >
                        <g  id="g4644" gorn="0.13.0.0.0.0.0">
                            <path d="m 5.386,3.543 -5.103,0 C 0.127,3.543 0,3.416 0,3.26 L 0,0.283 C 0,0.127 0.127,0 0.283,0 l 5.102,0 c 0.157,0 0.283,0.127 0.283,0.283 l 0,2.977 C 5.669,3.416 5.542,3.543 5.386,3.543 Z" style="fill:#dcdcdc"  id="path4646" gorn="0.13.0.0.0.0.0.0"/>
                            <rect style="fill:#333333"  id="rect4648" width="3.543" y="0" x="1.063" height="3.543" gorn="0.13.0.0.0.0.0.1"/>
                        </g>
                    </g>
                </g>
            </g>
        </g>
    </g>
    <g  transform="translate(12.03,10.2315)">
        <g >
            <g  id="adafruit_3.5mm" gorn="0.14.0.0">
                <path d="M 9.77299,4.306 C 9.74099,4.106 9.63199,4.049 9.36999,3.965 9.171,3.901 7.83698,3.476 7.83698,3.476 c 0,0 -0.930002,-0.351 -1.619,0.146 C 6.125,3.688 6.029,3.765 5.932,3.846 6.014,3.749 6.09,3.653 6.156,3.56 6.651,2.87 6.299,1.941 6.299,1.941 6.299,1.941 5.872,0.607 5.807,0.408 5.7219997,0.146 5.665,0.038 5.465,0.006 5.265,-0.026 5.177,0.06 5.016,0.283 4.894,0.453 4.077,1.59 4.077,1.59 c 0,0 -0.621,0.777 -0.361,1.586 C 3.75,3.285 3.793,3.4 3.841,3.517 3.774,3.409 3.706,3.308 3.638,3.215 3.135,2.531 2.142,2.579 2.142,2.579 c 0,0 -1.4,-0.006 -1.61,-0.006 C 0.257,2.572 0.136,2.593 0.044,2.774 -0.047,2.955 0.007,3.065 0.17,3.287 c 0.124,0.169 0.952999,1.297 0.952999,1.297 0,0 0.546,0.830002 1.395,0.833998 0.114,0 0.236,-0.005 0.362,-0.014 -0.122,0.03 -0.24,0.064 -0.348,0.1 C 1.726,5.771 1.465,6.73 1.465,6.73 c 0,0 -0.438,1.32997 -0.503001,1.52898 -0.085997,0.261 -0.102996,0.38304 0.040001,0.52603 0.144,0.143 0.265,0.126 0.526,0.04 0.199,-0.06499 1.528,-0.50599 1.528,-0.50599 0,0 0.958003,-0.263 1.224,-1.07 0.036,-0.108 0.069,-0.225 0.1,-0.348 C 4.371,7.027 4.366,7.149 4.367,7.263 c 0.005,0.849002 0.835999,1.394 0.835999,1.394 0,0 1.13,0.826999 1.298,0.950998 C 6.724,9.76997 6.834,9.82397 7.015,9.73202 c 0.181,-0.092 0.201,-0.213 0.2,-0.488 -10e-4,-0.21 -0.009,-1.61 -0.009,-1.61 0,0 0.047,-0.993002 -0.639,-1.495 C 6.475,6.072 6.373,6.004 6.266,5.937 6.383,5.984 6.498,6.027 6.606,6.061 7.416,6.319 8.19,5.697 8.19,5.697 c 0,0 1.136,-0.819 1.306,-0.940997 C 9.71899,4.595 9.80503,4.507 9.77299,4.306 Z M 4.951,3.275 C 5.103,3.299 5.179,3.624 5.12,4.001 5.061,4.378 4.889,4.663 4.736,4.639 4.583,4.615 4.507,4.29 4.567,3.914 4.626,3.537 4.798,3.251 4.951,3.275 Z M 2.995,4.274 C 3.065,4.136 3.397,4.164 3.737003,4.337 4.077,4.51 4.295,4.762 4.225,4.9 4.155,5.038 3.823,5.01 3.483,4.837 3.143,4.664 2.925,4.412 2.995,4.274 Z M 4.026,6.152 C 3.757,6.422 3.449,6.552 3.34,6.443 3.231,6.334 3.36,6.027 3.63,5.757 3.899,5.487 4.206,5.357 4.316,5.466 4.425,5.575 4.295,5.882 4.026,6.152 Z M 5.51,6.785 C 5.372,6.855 5.12,6.637 4.947,6.298 4.773,5.958 4.744,5.625 4.882,5.555003 c 0.138,-0.069997 0.39,0.148 0.563,0.487 C 5.618,6.382 5.647,6.714 5.51,6.785 Z M 5.867,5.212 C 5.49,5.272 5.166,5.197 5.141,5.044 5.117,4.891 5.403,4.719 5.779,4.659 6.156,4.599 6.48,4.674 6.504998,4.827 6.529,4.98 6.244,5.152 5.867,5.212 Z" style="fill:#dcdcdc"  id="path4651" gorn="0.14.0.0.0"/>
            </g>
        </g>
    </g>
    <g  transform="matrix(0,-1,1,0,21.798425,31.436175)">
        <g >
            <g  id="apds-9960" gorn="0.15.0.0">
                <metadata  id="metadata9">
                    <rdf:RDF xmlns:rdf="http://www.w3.org/1999/02/22-rdf-syntax-ns#">
                        <cc:Work rdf:about="" xmlns:cc="http://creativecommons.org/ns#" xmlns:rdf="http://www.w3.org/1999/02/22-rdf-syntax-ns#">
                            <dc:format xmlns:dc="http://purl.org/dc/elements/1.1/">image/svg+xml</dc:format>
                            <dc:type rdf:resource="http://purl.org/dc/dcmitype/StillImage" xmlns:rdf="http://www.w3.org/1999/02/22-rdf-syntax-ns#" xmlns:dc="http://purl.org/dc/elements/1.1/"/>
                            <dc:title xmlns:dc="http://purl.org/dc/elements/1.1/"/>
                        </cc:Work>
                    </rdf:RDF>
                </metadata>
                <defs  id="defs7"/>
                <g  transform="matrix(0,1,-1,0,0,0)">
                    <g >
                        <rect style="fill:#333333"  id="rect3" width="6.8031502" y="-12.4724" x="0" height="12.4724" gorn="0.15.0.0.2.0.0"/>
                    </g>
                </g>
                <circle cy="3.4015801" style="fill:#808000;fill-opacity:1;stroke:none;stroke-width:0.14173201;stroke-miterlimit:4;stroke-dasharray:none;stroke-dashoffset:11.71939468;stroke-opacity:1"  cx="10.2047" id="path8069" gorn="0.15.0.0.3" r="0.56692898"/>
                <circle cy="3.4015801" style="fill:#808000;fill-opacity:1;stroke:none;stroke-width:0.14173201;stroke-miterlimit:4;stroke-dasharray:none;stroke-dashoffset:11.71939468;stroke-opacity:1"  cx="2.1826799" id="circle8080" gorn="0.15.0.0.4" r="0.283465"/>
            </g>
        </g>
    </g>
    <g  transform="translate(4.16999,21.733)">
        <g >
            <g  id="sot23-5" gorn="0.16.0.0">
                <g  transform="matrix(0,1,-1,0,7.93706,-0.282996)">
                    <g >
                        <g  id="g4661" gorn="0.16.0.0.0.0.0">
                            <g  id="g4663" gorn="0.16.0.0.0.0.0.0">
                                <rect style="fill:#dcdcdc"  id="rect4665" width="1.1339999" y="0" x="0.850003" height="7.6540298" gorn="0.16.0.0.0.0.0.0.0"/>
                                <rect style="fill:#dcdcdc"  id="rect4667" width="1.1339999" y="0" x="6.2360001" height="7.6540298" gorn="0.16.0.0.0.0.0.0.1"/>
                                <rect style="fill:#dcdcdc"  id="rect4669" width="1.1339999" y="4.5349998" x="3.543" height="3.118" gorn="0.16.0.0.0.0.0.0.2"/>
                                <rect style="fill:#303030"  id="rect4671" width="8.2200203" y="1.559" x="0" height="4.5349998" gorn="0.16.0.0.0.0.0.0.3"/>
                            </g>
                        </g>
                    </g>
                </g>
            </g>
        </g>
    </g>
</svg>
