<?xml version='1.0' encoding='utf-8'?>
<!-- Generator: Adobe Illustrator 21.1.0, SVG Export Plug-In . SVG Version: 6.00 Build 0)  -->
<svg xmlns="http://www.w3.org/2000/svg" xmlns:xml="http://www.w3.org/XML/1998/namespace" baseProfile="tiny" viewBox="0 0 225 63" width="3.125in" height="0.875in" gorn="0" xml:space="preserve"  version="1.2" x="0px" y="0px" id="svg13574">
    <desc >
        <referenceFile >NeoPixel Black 30.svg</referenceFile>
    </desc>
    <g  transform="translate(0,-387)">
        <g >
            <g >
                <g >
                    <g gorn="0.1.0.0.0.0"  id="breadboard">
                        <path stroke-width="0.45" stroke="#000000" gorn="0.1.0.0.0.0.0" stroke-linecap="round" d="M4.5,400.5h108l-9,36h-99 M4.5,436.5v-36"  fill="#121212" id="path5607"/>
                        <path stroke-width="0.45" stroke="#000000" gorn="0.1.0.0.0.0.1" stroke-linecap="round" d="M220.5,436.5h-108l9-36h99 M220.5,400.5v36"  fill="#121212" id="path7626"/>
                        <rect width="3.933" height="23.6"  x="45.592" y="406.7" fill="#B1B1B1"/>
                        <rect width="3.933" height="23.6"  x="51.983" y="406.7" fill="#B1B1B1"/>
                        <rect width="3.933" height="23.6"  x="58.375" y="406.7" fill="#B1B1B1"/>
                        <rect width="3.933" height="23.6"  x="153.598" y="407.6" fill="#B1B1B1"/>
                        <rect width="3.933" height="23.6"  x="159.99" y="407.6" fill="#B1B1B1"/>
                        <rect width="3.933" height="23.6"  x="166.381" y="407.6" fill="#B1B1B1"/>
                        <path gorn="0.1.0.0.0.0.8" d="M7.875,416.25h2.25c1.243,0,2.25,1.007,2.25,2.25l0,0c0,1.243-1.007,2.25-2.25,2.25h-2.25c-1.243,0-2.25-1.007-2.25-2.25l0,0C5.625,417.257,6.632,416.25,7.875,416.25z"  fill="#FF9955" id="connector2pin"/>
                        <path gorn="0.1.0.0.0.0.9" d="M7.875,407.277h2.25c1.243,0,2.25,1.007,2.25,2.25l0,0c0,1.243-1.007,2.25-2.25,2.25h-2.25c-1.243,0-2.25-1.007-2.25-2.25l0,0C5.625,408.285,6.632,407.277,7.875,407.277z"  fill="#FF9955" id="connector1pin"/>
                        <path gorn="0.1.0.0.0.0.10" d="M7.875,425.277h2.25c1.243,0,2.25,1.007,2.25,2.25l0,0c0,1.243-1.007,2.25-2.25,2.25h-2.25c-1.243,0-2.25-1.007-2.25-2.25l0,0C5.625,426.285,6.632,425.277,7.875,425.277z"  fill="#FF9955" id="connector3pin"/>
                        <path gorn="0.1.0.0.0.0.11" d="M214.893,416.25h2.25c1.243,0,2.25,1.007,2.25,2.25l0,0c0,1.243-1.007,2.25-2.25,2.25h-2.25c-1.243,0-2.25-1.007-2.25-2.25l0,0C212.643,417.257,213.65,416.25,214.893,416.25z"  fill="#FF9955" id="connector5pin"/>
                        <path gorn="0.1.0.0.0.0.12" d="M214.893,407.277h2.25c1.243,0,2.25,1.007,2.25,2.25l0,0c0,1.243-1.007,2.25-2.25,2.25h-2.25c-1.243,0-2.25-1.007-2.25-2.25l0,0C212.643,408.285,213.65,407.277,214.893,407.277z"  fill="#FF9955" id="connector6pin"/>
                        <path gorn="0.1.0.0.0.0.13" d="M214.893,425.277h2.25c1.243,0,2.25,1.007,2.25,2.25l0,0c0,1.243-1.007,2.25-2.25,2.25h-2.25c-1.243,0-2.25-1.007-2.25-2.25l0,0C212.643,426.285,213.65,425.277,214.893,425.277z"  fill="#FF9955" id="connector4pin"/>
                        <path gorn="0.1.0.0.0.0.14" d="M9.675,409.5c0,0.373-0.302,0.675-0.675,0.675s-0.675-0.302-0.675-0.675l0,0c0-0.373,0.302-0.675,0.675-0.675S9.675,409.127,9.675,409.5z"  id="path8777"/>
                        <path gorn="0.1.0.0.0.0.15" d="M9.675,418.483c0,0.373-0.302,0.675-0.675,0.675s-0.675-0.302-0.675-0.675l0,0c0-0.373,0.302-0.675,0.675-0.675S9.675,418.11,9.675,418.483z"  id="path8779"/>
                        <path gorn="0.1.0.0.0.0.16" d="M9.675,427.483c0,0.373-0.302,0.675-0.675,0.675s-0.675-0.302-0.675-0.675l0,0c0-0.373,0.302-0.675,0.675-0.675S9.675,427.11,9.675,427.483z"  id="path8781"/>
                        <path gorn="0.1.0.0.0.0.17" d="M216.693,409.5c0,0.373-0.302,0.675-0.675,0.675s-0.675-0.302-0.675-0.675l0,0c0-0.373,0.302-0.675,0.675-0.675S216.693,409.127,216.693,409.5z"  id="path8783"/>
                        <path gorn="0.1.0.0.0.0.18" d="M216.693,418.483c0,0.373-0.302,0.675-0.675,0.675s-0.675-0.302-0.675-0.675l0,0c0-0.373,0.302-0.675,0.675-0.675S216.693,418.11,216.693,418.483z"  id="path8785"/>
                        <path gorn="0.1.0.0.0.0.19" d="M216.693,427.483c0,0.373-0.302,0.675-0.675,0.675s-0.675-0.302-0.675-0.675l0,0c0-0.373,0.302-0.675,0.675-0.675S216.693,427.11,216.693,427.483z"  id="path8787"/>
                        <g  transform="matrix(0,-1.0925926,1.0925926,0,29.366667,443.08333)">
                            <g >
                                <g >
                                    <g >
                                        <g gorn="0.1.0.0.0.0.20.0.0.0.0"  id="g4615">
                                            <g  transform="matrix(-2.535182e-06 -1 1 -2.535182e-06 5.768261e-05 45)">
                                                <g >
                                                    <g >
                                                        <g >
                                                            <rect stroke-width="0.0824" stroke="#000000" width="18" height="18" gorn="0.1.0.0.0.0.20.0.0.0.0.0.0.0.0.0"  x="13.5" stroke-opacity="0.5873" y="13.5" fill="#E6E6E6" id="rect21392"/>
                                                        </g>
                                                    </g>
                                                </g>
                                            </g>
                                            <path gorn="0.1.0.0.0.0.20.0.0.0.0.1" d="M29.25,22.5c0,3.728-3.022,6.75-6.75,6.75s-6.75-3.022-6.75-6.75l0,0c0-3.728,3.022-6.75,6.75-6.75S29.25,18.772,29.25,22.5z"  fill="#B1B1B1" id="path21480"/>
                                            <path gorn="0.1.0.0.0.0.20.0.0.0.0.2" d="M24.75,26.55c0,1.243-1.007,2.25-2.25,2.25s-2.25-1.007-2.25-2.25c0-1.243,1.007-2.25,2.25-2.25S24.75,25.307,24.75,26.55z"  fill="#1423FF" id="path21498"/>
                                            <path gorn="0.1.0.0.0.0.20.0.0.0.0.3" d="M20.7,22.5c0,1.243-1.007,2.25-2.25,2.25s-2.25-1.007-2.25-2.25c0-1.243,1.007-2.25,2.25-2.25S20.7,21.257,20.7,22.5z"  fill="#FF0000" id="path21500"/>
                                            <path gorn="0.1.0.0.0.0.20.0.0.0.0.4" d="M24.75,18.45c0,1.243-1.007,2.25-2.25,2.25s-2.25-1.007-2.25-2.25c0-1.243,1.007-2.25,2.25-2.25S24.75,17.207,24.75,18.45z"  fill="#00FF0B" id="path21526"/>
                                            <g gorn="0.1.0.0.0.0.20.0.0.0.0.5"  id="g4576">
                                                <rect width="3.933" height="3.933"  x="24.133" y="20.533" fill="#6C5D53"/>
                                            </g>
                                        </g>
                                    </g>
                                </g>
                            </g>
                        </g>
                        <path stroke-width="0.27" stroke="#FFFFFF" gorn="0.1.0.0.0.0.21" stroke-linecap="round" d="M42.75,434.25v-31.5H63l2.25,4.5v27H42.75z"  fill="none" id="path6264" stroke-linejoin="round"/>
                        <path stroke-width="0.27" stroke="#FFFFFF" gorn="0.1.0.0.0.0.22" stroke-linecap="round" d="M77.625,410.625v5.625 M77.625,410.627c0.001-0.621-0.502-1.126-1.123-1.127c-0.002,0-0.003,0-0.005,0 M69.75,409.5h6.75 M68.625,410.627c-0.001-0.621,0.502-1.126,1.123-1.127c0.002,0,0.003,0,0.005,0 M68.625,416.25v-5.625"  fill="none" id="path6316"/>
                        <path stroke-width="0.27" stroke="#FFFFFF" gorn="0.1.0.0.0.0.23" stroke-linecap="round" d="M77.625,426.375v-5.625 M77.625,426.373c0.001,0.621-0.502,1.126-1.123,1.127c-0.002,0-0.003,0-0.005,0 M69.75,427.5h6.75 M68.625,426.373c-0.001,0.621,0.502,1.126,1.123,1.127c0.002,0,0.003,0,0.005,0 M68.625,420.75v5.625"  fill="none" id="path6321"/>
                        <rect width="6.75" height="13.5" gorn="0.1.0.0.0.0.24"  x="69.75" y="411.75" fill="#B1B1B1" id="rect6325"/>
                        <g  transform="translate(-20.63981,17.347138)">
                            <g >
                                <g >
                                    <g >
                                        <g gorn="0.1.0.0.0.0.25.0.0.0.0"  id="text6339">
                                            <g gorn="0.1.0.0.0.0.25.0.0.0.0.0"  id="tspan6341">
                                                <g  transform="matrix(1 0 0 1 34.0741 411.75)">
                                                    <g >
                                                        <g >
                                                            <g >
                                                                <text font-family="OCRA" font-size="3.2"  fill="#FFFFFF">+5V</text>
                                                            </g>
                                                        </g>
                                                    </g>
                                                </g>
                                            </g>
                                        </g>
                                    </g>
                                </g>
                            </g>
                        </g>
                        <g  transform="translate(-20.63581,-17.26553)">
                            <g >
                                <g >
                                    <g >
                                        <g gorn="0.1.0.0.0.0.26.0.0.0.0"  id="text6343">
                                            <g gorn="0.1.0.0.0.0.26.0.0.0.0.0"  id="tspan6345">
                                                <g  transform="matrix(1 0 0 1 34.0741 428.4)">
                                                    <g >
                                                        <g >
                                                            <g >
                                                                <text font-family="OCRA" font-size="3.2"  fill="#FFFFFF">GND</text>
                                                            </g>
                                                        </g>
                                                    </g>
                                                </g>
                                            </g>
                                        </g>
                                    </g>
                                </g>
                            </g>
                        </g>
                        <g  transform="translate(15.317905,-14.790524)">
                            <g >
                                <g >
                                    <g >
                                        <g gorn="0.1.0.0.0.0.27.0.0.0.0"  id="text6347">
                                            <g gorn="0.1.0.0.0.0.27.0.0.0.0.0"  id="tspan6349">
                                                <g  transform="matrix(1 0 0 1 77.7241 425.925)">
                                                    <g >
                                                        <g >
                                                            <g >
                                                                <text font-family="OCRA" font-size="3.2"  fill="#FFFFFF">GND</text>
                                                            </g>
                                                        </g>
                                                    </g>
                                                </g>
                                            </g>
                                        </g>
                                    </g>
                                </g>
                            </g>
                        </g>
                        <g  transform="translate(15.542904,14.872132)">
                            <g >
                                <g >
                                    <g >
                                        <g gorn="0.1.0.0.0.0.28.0.0.0.0"  id="text6351">
                                            <g gorn="0.1.0.0.0.0.28.0.0.0.0.0"  id="tspan6353">
                                                <g  transform="matrix(1 0 0 1 77.4991 414.225)">
                                                    <g >
                                                        <g >
                                                            <g >
                                                                <text font-family="OCRA" font-size="3.2"  fill="#FFFFFF">+5V</text>
                                                            </g>
                                                        </g>
                                                    </g>
                                                </g>
                                            </g>
                                        </g>
                                    </g>
                                </g>
                            </g>
                        </g>
                        <g  transform="translate(-16.11981,15.073082)">
                            <g >
                                <g >
                                    <g >
                                        <g gorn="0.1.0.0.0.0.29.0.0.0.0"  id="text6355">
                                            <g >
                                                <g  transform="matrix(1 0 0 1 29.5741 405)">
                                                    <g >
                                                        <g >
                                                            <g >
                                                                <text font-family="OCRA" font-size="3.2"  fill="#FFFFFF">Din</text>
                                                            </g>
                                                        </g>
                                                    </g>
                                                </g>
                                            </g>
                                        </g>
                                    </g>
                                </g>
                            </g>
                        </g>
                        <g  transform="translate(18.234908,14.995082)">
                            <g >
                                <g >
                                    <g >
                                        <g gorn="0.1.0.0.0.0.30.0.0.0.0"  id="text6359">
                                            <g >
                                                <g  transform="matrix(1 0 0 1 71.9071 405)">
                                                    <g >
                                                        <g >
                                                            <g >
                                                                <text font-family="OCRA" font-size="3.2"  fill="#FFFFFF">Dout</text>
                                                            </g>
                                                        </g>
                                                    </g>
                                                </g>
                                            </g>
                                        </g>
                                    </g>
                                </g>
                            </g>
                        </g>
                        <path fill-opacity="0.9839" gorn="0.1.0.0.0.0.31" d="M28.065,417.03h6.3v-1.575l2.7,2.7l-2.475,2.7v-1.575h-6.525"  fill="#FFFFFF" id="path7613"/>
                        <g  transform="matrix(0,-1.0925926,1.0925926,0,137.37309,443.98333)">
                            <g >
                                <g >
                                    <g >
                                        <g gorn="0.1.0.0.0.0.32.0.0.0.0"  id="g7628">
                                            <g  transform="matrix(-2.535182e-06 -1 1 -2.535182e-06 5.699248e-05 45)">
                                                <g >
                                                    <g >
                                                        <g >
                                                            <rect stroke-width="0.0824" stroke="#000000" width="18" height="18" gorn="0.1.0.0.0.0.32.0.0.0.0.0.0.0.0.0"  x="13.5" stroke-opacity="0.5873" y="13.5" fill="#E6E6E6" id="rect7646"/>
                                                        </g>
                                                    </g>
                                                </g>
                                            </g>
                                            <path gorn="0.1.0.0.0.0.32.0.0.0.0.1" d="M29.25,22.5c0,3.728-3.022,6.75-6.75,6.75s-6.75-3.022-6.75-6.75l0,0c0-3.728,3.022-6.75,6.75-6.75S29.25,18.772,29.25,22.5z"  fill="#B1B1B1" id="path7648"/>
                                            <path gorn="0.1.0.0.0.0.32.0.0.0.0.2" d="M24.75,26.55c0,1.243-1.007,2.25-2.25,2.25c-1.243,0-2.25-1.007-2.25-2.25s1.007-2.25,2.25-2.25C23.743,24.3,24.75,25.307,24.75,26.55z"  fill="#1423FF" id="path7650"/>
                                            <path gorn="0.1.0.0.0.0.32.0.0.0.0.3" d="M20.7,22.5c0,1.243-1.007,2.25-2.25,2.25c-1.243,0-2.25-1.007-2.25-2.25c0-1.243,1.007-2.25,2.25-2.25C19.693,20.25,20.7,21.257,20.7,22.5z"  fill="#FF0000" id="path7652"/>
                                            <path gorn="0.1.0.0.0.0.32.0.0.0.0.4" d="M24.75,18.45c0,1.243-1.007,2.25-2.25,2.25c-1.243,0-2.25-1.007-2.25-2.25c0-1.243,1.007-2.25,2.25-2.25C23.743,16.2,24.75,17.207,24.75,18.45z"  fill="#00FF0B" id="path7654"/>
                                            <g gorn="0.1.0.0.0.0.32.0.0.0.0.5"  id="g7656">
                                                <rect width="3.933" height="3.933"  x="24.133" y="20.533" fill="#6C5D53"/>
                                            </g>
                                        </g>
                                    </g>
                                </g>
                            </g>
                        </g>
                        <path stroke-width="0.27" stroke="#FFFFFF" gorn="0.1.0.0.0.0.33" stroke-linecap="round" d="M150.756,435.15v-31.5h20.25l2.25,4.5v27H150.756z"  fill="none" id="path7664" stroke-linejoin="round"/>
                        <path stroke-width="0.27" stroke="#FFFFFF" gorn="0.1.0.0.0.0.34" stroke-linecap="round" d="M185.631,411.525v5.625 M185.631,411.527c0.001-0.621-0.502-1.126-1.123-1.127c-0.002,0-0.003,0-0.005,0 M177.756,410.4h6.75 M176.631,411.527c-0.001-0.621,0.502-1.126,1.123-1.127c0.002,0,0.003,0,0.005,0 M176.631,417.15v-5.625"  fill="none" id="path7666"/>
                        <path stroke-width="0.27" stroke="#FFFFFF" gorn="0.1.0.0.0.0.35" stroke-linecap="round" d="M185.631,427.275v-5.625 M185.631,427.273c0.001,0.621-0.502,1.126-1.123,1.127c-0.002,0-0.003,0-0.005,0 M177.756,428.4h6.75 M176.631,427.273c-0.001,0.621,0.502,1.126,1.123,1.127c0.002,0,0.003,0,0.005,0 M176.631,421.65v5.625"  fill="none" id="path7668"/>
                        <rect width="6.75" height="13.5" gorn="0.1.0.0.0.0.36"  x="177.756" y="412.65" fill="#B1B1B1" id="rect7672"/>
                        <g  transform="translate(-18.721418,16.447144)">
                            <g >
                                <g >
                                    <g >
                                        <g gorn="0.1.0.0.0.0.37.0.0.0.0"  id="text7676">
                                            <g gorn="0.1.0.0.0.0.37.0.0.0.0.0"  id="tspan7678">
                                                <g  transform="matrix(1 0 0 1 142.0806 412.65)">
                                                    <g >
                                                        <g >
                                                            <g >
                                                                <text font-family="OCRA" font-size="3.2"  fill="#FFFFFF">+5V</text>
                                                            </g>
                                                        </g>
                                                    </g>
                                                </g>
                                            </g>
                                        </g>
                                    </g>
                                </g>
                            </g>
                        </g>
                        <g  transform="translate(-18.717418,-18.165524)">
                            <g >
                                <g >
                                    <g >
                                        <g gorn="0.1.0.0.0.0.38.0.0.0.0"  id="text7680">
                                            <g gorn="0.1.0.0.0.0.38.0.0.0.0.0"  id="tspan7682">
                                                <g  transform="matrix(1 0 0 1 142.0805 429.3)">
                                                    <g >
                                                        <g >
                                                            <g >
                                                                <text font-family="OCRA" font-size="3.2"  fill="#FFFFFF">GND</text>
                                                            </g>
                                                        </g>
                                                    </g>
                                                </g>
                                            </g>
                                        </g>
                                    </g>
                                </g>
                            </g>
                        </g>
                        <g  transform="translate(17.539586,-15.690518)">
                            <g >
                                <g >
                                    <g >
                                        <g gorn="0.1.0.0.0.0.39.0.0.0.0"  id="text7684">
                                            <g gorn="0.1.0.0.0.0.39.0.0.0.0.0"  id="tspan7686">
                                                <g  transform="matrix(1 0 0 1 185.7306 426.825)">
                                                    <g >
                                                        <g >
                                                            <g >
                                                                <text font-family="OCRA" font-size="3.2"  fill="#FFFFFF">GND</text>
                                                            </g>
                                                        </g>
                                                    </g>
                                                </g>
                                            </g>
                                        </g>
                                    </g>
                                </g>
                            </g>
                        </g>
                        <g  transform="translate(17.764592,13.972138)">
                            <g >
                                <g >
                                    <g >
                                        <g gorn="0.1.0.0.0.0.40.0.0.0.0"  id="text7688">
                                            <g gorn="0.1.0.0.0.0.40.0.0.0.0.0"  id="tspan7690">
                                                <g  transform="matrix(1 0 0 1 185.5056 415.125)">
                                                    <g >
                                                        <g >
                                                            <g >
                                                                <text font-family="OCRA" font-size="3.2"  fill="#FFFFFF">+5V</text>
                                                            </g>
                                                        </g>
                                                    </g>
                                                </g>
                                            </g>
                                        </g>
                                    </g>
                                </g>
                            </g>
                        </g>
                        <g  transform="translate(-3.2391835,12.254692)">
                            <g >
                                <g >
                                    <g >
                                        <g gorn="0.1.0.0.0.0.41.0.0.0.0"  id="text7692">
                                            <g >
                                                <g  transform="matrix(1 0 0 1 126.6183 407.8184)">
                                                    <g >
                                                        <g >
                                                            <g >
                                                                <text font-family="OCRA" font-size="3.2"  fill="#FFFFFF">Din</text>
                                                            </g>
                                                        </g>
                                                    </g>
                                                </g>
                                            </g>
                                        </g>
                                    </g>
                                </g>
                            </g>
                        </g>
                        <g  transform="translate(17.167923,13.82104)">
                            <g >
                                <g >
                                    <g >
                                        <g gorn="0.1.0.0.0.0.42.0.0.0.0"  id="text7696">
                                            <g >
                                                <g  transform="matrix(1 0 0 1 183.2023 406.174)">
                                                    <g >
                                                        <g >
                                                            <g >
                                                                <text font-family="OCRA" font-size="3.2"  fill="#FFFFFF">Dout</text>
                                                            </g>
                                                        </g>
                                                    </g>
                                                </g>
                                            </g>
                                        </g>
                                    </g>
                                </g>
                            </g>
                        </g>
                        <path fill-opacity="0.9839" gorn="0.1.0.0.0.0.43" d="M137.99,416.559h6.3v-1.575l2.7,2.7l-2.475,2.7v-1.575h-6.525"  fill="#FFFFFF" id="path7700"/>
                        <g  transform="translate(-13,0)">
                            <g >
                                <g >
                                    <g >
                                        <g gorn="0.1.0.0.0.0.44.0.0.0.0"  id="g6613">
                                            <g  transform="matrix(0.2425 -0.9701 0.9701 0.2425 -344.4588 447.7565)">
                                                <g >
                                                    <g >
                                                        <g >
                                                            <ellipse cx="114.509" cy="444.466" rx="0.36" gorn="0.1.0.0.0.0.44.0.0.0.0.0.0.0.0.0" ry="0.36"  id="circle6615"/>
                                                        </g>
                                                    </g>
                                                </g>
                                            </g>
                                            <g  transform="matrix(0.2425 -0.9701 0.9701 0.2425 -342.6871 446.9698)">
                                                <g >
                                                    <g >
                                                        <g >
                                                            <ellipse cx="114.891" cy="442.938" rx="0.36" gorn="0.1.0.0.0.0.44.0.0.0.0.1.0.0.0.0" ry="0.36"  id="circle6617"/>
                                                        </g>
                                                    </g>
                                                </g>
                                            </g>
                                            <g  transform="matrix(0.2425 -0.9701 0.9701 0.2425 -340.9154 446.183)">
                                                <g >
                                                    <g >
                                                        <g >
                                                            <ellipse cx="115.273" cy="441.41" rx="0.36" gorn="0.1.0.0.0.0.44.0.0.0.0.2.0.0.0.0" ry="0.36"  id="circle6619"/>
                                                        </g>
                                                    </g>
                                                </g>
                                            </g>
                                        </g>
                                    </g>
                                </g>
                            </g>
                        </g>
                        <g gorn="0.1.0.0.0.0.45"  id="g6604">
                            <g  transform="matrix(0.2425 -0.9701 0.9701 0.2425 -297.6345 409.9774)">
                                <g >
                                    <g >
                                        <g >
                                            <ellipse cx="113.727" cy="395.59" rx="0.36" gorn="0.1.0.0.0.0.45.0.0.0.0.0" ry="0.36"  id="circle6606"/>
                                        </g>
                                    </g>
                                </g>
                            </g>
                            <g  transform="matrix(0.2425 -0.9701 0.9701 0.2425 -295.8628 409.1906)">
                                <g >
                                    <g >
                                        <g >
                                            <ellipse cx="114.109" cy="394.062" rx="0.36" gorn="0.1.0.0.0.0.45.1.0.0.0.0" ry="0.36"  id="circle6608"/>
                                        </g>
                                    </g>
                                </g>
                            </g>
                            <g  transform="matrix(0.2425 -0.9701 0.9701 0.2425 -294.0911 408.4038)">
                                <g >
                                    <g >
                                        <g >
                                            <ellipse cx="114.491" cy="392.534" rx="0.36" gorn="0.1.0.0.0.0.45.2.0.0.0.0" ry="0.36"  id="circle6610"/>
                                        </g>
                                    </g>
                                </g>
                            </g>
                        </g>
                        <g  transform="translate(-13,0)">
                            <g >
                                <g >
                                    <g >
                                        <g gorn="0.1.0.0.0.0.46.0.0.0.0"  id="g6613_1_">
                                            <g  transform="matrix(0.2425 -0.9701 0.9701 0.2425 -337.6417 456.4878)">
                                                <g >
                                                    <g >
                                                        <g >
                                                            <ellipse cx="123.509" cy="444.466" rx="0.36" gorn="0.1.0.0.0.0.46.0.0.0.0.0.0.0.0.0" ry="0.36"  id="circle6615_1_"/>
                                                        </g>
                                                    </g>
                                                </g>
                                            </g>
                                            <g  transform="matrix(0.2425 -0.9701 0.9701 0.2425 -335.87 455.701)">
                                                <g >
                                                    <g >
                                                        <g >
                                                            <ellipse cx="123.891" cy="442.938" rx="0.36" gorn="0.1.0.0.0.0.46.0.0.0.0.1.0.0.0.0" ry="0.36"  id="circle6617_1_"/>
                                                        </g>
                                                    </g>
                                                </g>
                                            </g>
                                            <g  transform="matrix(0.2425 -0.9701 0.9701 0.2425 -334.0983 454.9142)">
                                                <g >
                                                    <g >
                                                        <g >
                                                            <ellipse cx="124.273" cy="441.41" rx="0.36" gorn="0.1.0.0.0.0.46.0.0.0.0.2.0.0.0.0" ry="0.36"  id="circle6619_1_"/>
                                                        </g>
                                                    </g>
                                                </g>
                                            </g>
                                        </g>
                                    </g>
                                </g>
                            </g>
                        </g>
                        <g gorn="0.1.0.0.0.0.47"  id="g6604_1_">
                            <g  transform="matrix(0.2425 -0.9701 0.9701 0.2425 -290.8173 418.7086)">
                                <g >
                                    <g >
                                        <g >
                                            <ellipse cx="122.727" cy="395.59" rx="0.36" gorn="0.1.0.0.0.0.47.0.0.0.0.0" ry="0.36"  id="circle6606_1_"/>
                                        </g>
                                    </g>
                                </g>
                            </g>
                            <g  transform="matrix(0.2425 -0.9701 0.9701 0.2425 -289.0456 417.9218)">
                                <g >
                                    <g >
                                        <g >
                                            <ellipse cx="123.109" cy="394.062" rx="0.36" gorn="0.1.0.0.0.0.47.1.0.0.0.0" ry="0.36"  id="circle6608_1_"/>
                                        </g>
                                    </g>
                                </g>
                            </g>
                            <g  transform="matrix(0.2425 -0.9701 0.9701 0.2425 -287.2739 417.135)">
                                <g >
                                    <g >
                                        <g >
                                            <ellipse cx="123.491" cy="392.534" rx="0.36" gorn="0.1.0.0.0.0.47.2.0.0.0.0" ry="0.36"  id="circle6610_1_"/>
                                        </g>
                                    </g>
                                </g>
                            </g>
                        </g>
                        <rect width="6.75" height="6.75" gorn="0.1.0.0.0.0.48"  x="69.75" y="415.125" fill="#6C5D53" id="rect6323"/>
                        <rect width="6.75" height="6.75" gorn="0.1.0.0.0.0.49"  x="177.756" y="416.025" fill="#6C5D53" id="rect7670"/>
                    </g>
                </g>
            </g>
        </g>
    </g>
</svg>
