<?xml version='1.0' encoding='UTF-8' standalone='no'?>
<!-- Created with Fritzing (http://www.fritzing.org/) -->
<svg xmlns="http://www.w3.org/2000/svg" height="0.975in" baseProfile="tiny"  version="1.2" viewBox="0 0 79.2043 70.2" x="0in" width="1.10006in" y="0in">
    <desc >
        <referenceFile >coin20mm_breadboard.svg</referenceFile>
    </desc>
    <desc >Fritzing breadboard generated by brd2svg</desc>
    <g  gorn="0.2" id="breadboard">
        <g  gorn="0.2.0" id="icon">
            <path stroke="none"  fill="#014cb1" d="M0.00219686,63L0.00219686,10.8A7.38223,7.38223,0,0,1,7.20223,3.24L19.6169,3.24A7.03632,7.03632,0,0,1,24.3581,4.66145L30.3663,8.65858A9.47923,9.47923,0,0,0,36.5475,11.16L43.1975,11.16A7.2,7.2,0,0,0,48.1689,9.16819L53.3555,5.59184A11.0187,11.0187,0,0,1,61.2069,3.24L72.0022,3.24A7.38223,7.38223,0,0,1,79.2022,10.8L79.2022,63A7.2,7.2,0,0,1,72.0022,70.2L7.20223,70.2A7.2,7.2,0,0,1,0.00219686,63M48.2422,65.16a1.44,1.44,0,1,0,2.88,0,1.44,1.44,0,1,0,-2.88,0zM41.0422,65.16a1.44,1.44,0,1,0,2.88,0,1.44,1.44,0,1,0,-2.88,0zM33.8422,65.16a1.44,1.44,0,1,0,2.88,0,1.44,1.44,0,1,0,-2.88,0zM26.6422,65.16a1.44,1.44,0,1,0,2.88,0,1.44,1.44,0,1,0,-2.88,0zM3.65889,11.16a3.54331,3.54331,0,1,0,7.08661,0,3.54331,3.54331,0,1,0,-7.08661,0zM69.1789,11.16a3.54331,3.54331,0,1,0,7.08661,0,3.54331,3.54331,0,1,0,-7.08661,0zM3.65889,63a3.54331,3.54331,0,1,0,7.08661,0,3.54331,3.54331,0,1,0,-7.08661,0zM68.4589,63a3.54331,3.54331,0,1,0,7.08661,0,3.54331,3.54331,0,1,0,-7.08661,0z" stroke-width="0"/>
            <g >
                <title >layer 21</title>
                <g >
                    <title >text:</title>
                </g>
                <g >
                    <title >text:CR2032</title>
                    <text stroke="none"  font-family="OCRA" font-size="4.176" fill="#ffffff" x="11.5222" text-anchor="middle" y="55.008" stroke-width="0">CR2032</text>
                </g>
                <g >
                    <title >text:3V</title>
                    <text stroke="none"  font-family="OCRA" font-size="4.176" fill="#ffffff" x="28.8022" text-anchor="start" y="61.56" stroke-width="0">3V</text>
                </g>
                <g >
                    <title >text:GND</title>
                    <text stroke="none"  font-family="OCRA" font-size="4.176" fill="#ffffff" x="41.7622" text-anchor="start" y="61.56" stroke-width="0">GND</text>
                </g>
                <g >
                    <title >text:Coin
Cell</title>
                    <g  transform="matrix(1, 0, 0, 1, 0, -3.3408)">
                        <g >
                            <g >
                                <text stroke="none"  font-family="OCRA" font-size="3.3408" fill="#ffffff" x="2.1622" text-anchor="start" y="49.32" stroke-width="0">Coin</text>
                            </g>
                        </g>
                    </g>
                    <g  transform="translate(0,0)">
                        <g >
                            <g >
                                <text stroke="none"  font-family="OCRA" font-size="3.3408" fill="#ffffff" x="2.1622" text-anchor="start" y="49.32" stroke-width="0">Cell</text>
                            </g>
                        </g>
                    </g>
                </g>
                <g >
                    <title >element:B1</title>
                    <g >
                        <title >package:CR2032_SMT_BAT-HLD-001</title>
                        <line stroke="white"  stroke-linecap="round" x1="60.862" x2="18.9093" y1="49.2095" y2="49.2095" stroke-width="0.36"/>
                        <line stroke="white"  stroke-linecap="round" x1="18.0589" x2="10.4054" y1="49.2095" y2="41.5559" stroke-width="0.36"/>
                        <line stroke="white"  stroke-linecap="round" x1="10.4054" x2="10.4054" y1="41.5559" y2="35.6031" stroke-width="0.36"/>
                        <line stroke="white"  stroke-linecap="round" x1="10.4054" x2="10.4054" y1="21.4299" y2="16.8945" stroke-width="0.36"/>
                        <line stroke="white"  stroke-linecap="round" x1="10.4054" x2="18.9093" y1="16.8945" y2="8.39052" stroke-width="0.36"/>
                        <path stroke="white"  fill="none" d="M27.4132,7.54013A6.74814,6.74814,0,0,0,18.9093,8.39052" stroke-width="0.36"/>
                        <path stroke="white"  fill="none" d="M27.4132,7.54013A22.807,22.807,0,0,0,52.6416,7.54013" stroke-width="0.36"/>
                        <path stroke="white"  fill="none" d="M61.1455,8.39052A6.74814,6.74814,0,0,0,52.6416,7.54013" stroke-width="0.36"/>
                        <line stroke="white"  stroke-linecap="round" x1="61.1455" x2="69.0825" y1="8.39052" y2="16.3276" stroke-width="0.36"/>
                        <line stroke="white"  stroke-linecap="round" x1="69.0825" x2="69.0825" y1="16.3276" y2="21.4299" stroke-width="0.36"/>
                        <line stroke="white"  stroke-linecap="round" x1="69.0825" x2="69.0825" y1="35.8866" y2="40.989" stroke-width="0.36"/>
                        <line stroke="white"  stroke-linecap="round" x1="69.0825" x2="60.862" y1="40.989" y2="49.2095" stroke-width="0.36"/>
                    </g>
                </g>
                <g >
                    <title >element:CN1</title>
                    <g >
                        <title >package:1X04-CLEANBIG</title>
                    </g>
                </g>
                <g >
                    <title >element:FID1</title>
                    <g >
                        <title >package:FIDUCIAL_1MM</title>
                    </g>
                </g>
                <g >
                    <title >element:FID2</title>
                    <g >
                        <title >package:FIDUCIAL_1MM</title>
                    </g>
                </g>
                <g >
                    <title >element:U$1</title>
                    <g >
                        <title >package:MOUNTINGHOLE_2.5_PLATED</title>
                        <circle stroke="white" cx="7.20223"  cy="11.16" fill="none" r="5.66929" stroke-width="0.576"/>
                    </g>
                </g>
                <g >
                    <title >element:U$2</title>
                    <g >
                        <title >package:MOUNTINGHOLE_2.5_PLATED</title>
                        <circle stroke="white" cx="72.7222"  cy="11.16" fill="none" r="5.66929" stroke-width="0.576"/>
                    </g>
                </g>
                <g >
                    <title >element:U$3</title>
                    <g >
                        <title >package:MOUNTINGHOLE_2.5_PLATED</title>
                        <circle stroke="white" cx="7.20223"  cy="63" fill="none" r="5.66929" stroke-width="0.576"/>
                    </g>
                </g>
                <g >
                    <title >element:U$4</title>
                    <g >
                        <title >package:ADAFRUIT_5MM</title>
                    </g>
                </g>
                <g >
                    <title >element:U$5</title>
                    <g >
                        <title >package:MOUNTINGHOLE_2.5_PLATED</title>
                        <circle stroke="white" cx="72.0022"  cy="63" fill="none" r="5.66929" stroke-width="0.576"/>
                    </g>
                </g>
                <g >
                    <title >element:U$6</title>
                    <g >
                        <title >package:SYMBOL_PLUS</title>
                        <line stroke="white"  stroke-linecap="round" x1="23.087" x2="20.8372" y1="65.16" y2="65.16" stroke-width="0.864"/>
                        <line stroke="white"  stroke-linecap="round" x1="21.9622" x2="21.9622" y1="64.0352" y2="66.2848" stroke-width="0.864"/>
                        <circle stroke="white" cx="21.9622"  cy="65.16" fill="none" r="2.21584" stroke-width="0.576"/>
                    </g>
                </g>
                <g >
                    <title >element:U$7</title>
                    <g >
                        <title >package:SYMBOL_MINUS</title>
                        <line stroke="white"  stroke-linecap="round" x1="56.927" x2="54.6772" y1="65.16" y2="65.16" stroke-width="0.864"/>
                        <circle stroke="white" cx="55.8022"  cy="65.16" fill="none" r="2.21584" stroke-width="0.576"/>
                    </g>
                </g>
            </g>
            <g  transform="matrix(-1, 0, 0, -1, 144.004, 57.6)">
                <g >
                    <g >
                        <rect height="14.4" stroke="none"  fill="#9A916C" gorn="0.2.0.2.0.0.0" x="68.4022" id="connector0pin" width="7.2" y="21.6" stroke-width="0"/>
                    </g>
                </g>
            </g>
            <g  transform="matrix(-1, 0, 0, -1, 14.4044, 57.6)">
                <g >
                    <g >
                        <rect height="14.4" stroke="none"  fill="#9A916C" gorn="0.2.0.3.0.0.0" x="3.6022" id="connector1pin" width="7.2" y="21.6" stroke-width="0"/>
                    </g>
                </g>
            </g>
            <g  transform="matrix(-1, 0, 0, -1, 79.2043, 57.6)">
                <g >
                    <g >
                        <rect height="28.8" stroke="none"  ry="14.4" rx="14.4" fill="#9A916C" gorn="0.2.0.4.0.0.0" x="25.2022" id="connector2pin" width="28.8" y="14.4" stroke-width="0"/>
                    </g>
                </g>
            </g>
            <circle connectorname="GND" stroke="#9A916C" cx="49.6822"  cy="65.16" fill="none" gorn="0.2.0.5" r="1.98" id="connector3pin" stroke-width="1.08"/>
            <circle connectorname="GND" stroke="#9A916C" cx="42.4822"  cy="65.16" fill="none" gorn="0.2.0.6" r="1.98" id="connector4pin" stroke-width="1.08"/>
            <circle connectorname="V+" stroke="#9A916C" cx="35.2822"  cy="65.16" fill="none" gorn="0.2.0.7" r="1.98" id="connector5pin" stroke-width="1.08"/>
            <circle connectorname="V+" stroke="#9A916C" cx="28.0822"  cy="65.16" fill="none" gorn="0.2.0.8" r="1.98" id="connector6pin" stroke-width="1.08"/>
            <rect height="2.83465" stroke="none"  ry="1.41732" rx="1.41732" fill="#9A916C" gorn="0.2.0.9" x="57.6248" id="connector7pin" width="2.83465" y="53.6627" stroke-width="0"/>
            <rect height="2.83465" stroke="none"  ry="1.41732" rx="1.41732" fill="#9A916C" gorn="0.2.0.10" x="13.7048" id="connector8pin" width="2.83465" y="5.42268" stroke-width="0"/>
            <circle connectorname="P$1" stroke="#9A916C" cx="7.20223"  cy="11.16" fill="none" gorn="0.2.0.11" r="4.26331" id="connector9pin" stroke-width="1.44"/>
            <circle connectorname="P$1" stroke="#9A916C" cx="72.7222"  cy="11.16" fill="none" gorn="0.2.0.12" r="4.26331" id="connector10pin" stroke-width="1.44"/>
            <circle connectorname="P$1" stroke="#9A916C" cx="7.20223"  cy="63" fill="none" gorn="0.2.0.13" r="4.26331" id="connector11pin" stroke-width="1.44"/>
            <circle connectorname="P$1" stroke="#9A916C" cx="72.0022"  cy="63" fill="none" gorn="0.2.0.14" r="4.26331" id="connector12pin" stroke-width="1.44"/>
        </g>
        <g  transform="matrix(1, 0, 0, 1, 8.66174, -2.04149)">
            <g >
                <g  gorn="0.2.1.0.0" id="cr2032_smt_bat-hld-001">
                    <g  transform="matrix(-1, 0, 0, -1, 61.881, 61.683)">
                        <g >
                            <g >
                                <g >
                                    <g >
                                        <g >
                                            <circle cx="30.94"  cy="31.475" fill="#686868" r="29.619"/>
                                        </g>
                                        <g opacity="0.5" >
                                            <path  fill="#C6C6C6" d="M30.94,60.178c-3.443,0,-6.822,-0.577,-10.042,-1.715c-0.26,-0.0930002,-0.397,-0.378,-0.305,-0.639c0.0910001,-0.261,0.377,-0.396,0.638,-0.305c4.595,1.625,9.62899,2.061,14.436,1.276c0.267,-0.048,0.53,0.14,0.574,0.412c0.045,0.272,-0.14,0.53,-0.412,0.574C34.226,60.045,32.58,60.178,30.94,60.178z"/>
                                        </g>
                                        <g opacity="0.43" >
                                            <g >
                                                <path  fill="#020202" d="M4.497,28.04c0,-5.565,4.511,-10.076,10.076,-10.076c3.583,0,6.721,1.875,8.50702,4.692c-1.603,-3.441,-5.082,-5.832,-9.12902,-5.832c-5.565,0,-10.076,4.511,-10.076,10.076c0,1.982,0.581,3.826,1.569,5.385C4.843,30.993,4.497,29.559,4.497,28.04z"/>
                                            </g>
                                        </g>
                                        <g opacity="0.43" >
                                            <g >
                                                <path  fill="#020202" d="M38.409,28.04c0,-5.565,4.511,-10.076,10.076,-10.076c3.583,0,6.721,1.875,8.50702,4.692c-1.603,-3.441,-5.082,-5.832,-9.12902,-5.832c-5.565,0,-10.076,4.511,-10.076,10.076c0,1.982,0.58,3.826,1.569,5.385C38.755,30.993,38.409,29.559,38.409,28.04z"/>
                                            </g>
                                        </g>
                                        <g >
                                            <g >
                                                <g >
                                                    <path  fill="#9B9B9B" d="M9.28303,24.307c0,-2.246,2.02,-4.066,4.512,-4.066s4.513,1.82,4.513,4.066l0,4.799L9.28303,29.106L9.28303,24.307z"/>
                                                    <path  fill="#9B9B9B" d="M43.195,24.307c0,-2.246,2.021,-4.066,4.513,-4.066c2.492,0,4.513,1.82,4.513,4.066l0,4.799l-9.02498,0L43.196,24.307z"/>
                                                </g>
                                                <rect height="21.642"  fill="#898989" x="43.195" width="9.02498" y="29.105"/>
                                                <rect height="21.642"  fill="#898989" x="9.28303" width="9.02498" y="29.105"/>
                                                <g >
                                                    <path  fill="#898989" d="M42.543,1.418L42.543,0L18.847,0l0,1.418L0,18.183l0,35.065c0,4.639,3.71,8.43502,8.24299,8.43502c4.532,0,10.607,-7.75001,21.809,-7.75001c11.202,0,17.482,7.75001,22.267,7.75001l0.864,0c4.784,0,8.69803,-3.796,8.69803,-8.43502L61.881,18.183L42.543,1.418zM18.984,34.927l0,15.521L8.60602,50.448L8.60602,34.927c-2.737,-1.727,-4.562,-4.769,-4.562,-8.244c0,-5.385,4.365,-9.75002,9.75002,-9.75002s9.75002,4.365,9.75002,9.75002C23.545,30.158,21.722,33.2,18.984,34.927zM52.896,34.927l0,15.521L42.519,50.448L42.519,34.927c-2.737,-1.727,-4.562,-4.769,-4.562,-8.244c0,-5.385,4.365,-9.75002,9.75002,-9.75002s9.75002,4.365,9.75002,9.75002C57.457,30.158,55.634,33.2,52.896,34.927z"/>
                                                </g>
                                                <rect height="1.418" opacity="0.3"  enable-background="new    " fill="#FFFFFF" x="18.847" width="23.696"/>
                                                <g >
                                                    <path  fill="none" d="M13.795,16.933c-5.385,0,-9.75002,4.365,-9.75002,9.75002c0,3.476,1.824,6.519,4.562,8.24501l0,15.521l10.378,0L18.985,34.927c2.737,-1.728,4.561,-4.769,4.561,-8.244C23.545,21.298,19.18,16.933,13.795,16.933z"/>
                                                    <path  fill="none" d="M47.707,16.933c-5.385,0,-9.75002,4.365,-9.75002,9.75002c0,3.476,1.824,6.519,4.562,8.24501l0,15.521l10.378,0L52.897,34.927c2.737,-1.728,4.561,-4.769,4.561,-8.244C57.457,21.298,53.092,16.933,47.707,16.933z"/>
                                                    <path  fill="#898989" d="M0,18.183l0,35.065c0,1.55,0.421,3,1.142,4.252L1.142,17.167L0,18.183z"/>
                                                    <path opacity="0.3"  enable-background="new    " fill="#FFFFFF" d="M0,18.183l0,35.065c0,1.55,0.421,3,1.142,4.252L1.142,17.167L0,18.183z"/>
                                                    <path  fill="#898989" d="M61.881,18.183l-1.142,-0.988999L60.739,57.4c0.723002,-1.229,1.142,-2.645,1.142,-4.152L61.881,18.183z"/>
                                                    <path opacity="0.3"  enable-background="new    " fill="#FFFFFF" d="M61.881,18.183l-1.142,-0.988999L60.739,57.4c0.723002,-1.229,1.142,-2.645,1.142,-4.152L61.881,18.183z"/>
                                                </g>
                                                <g opacity="0.5" >
                                                    <path  fill="#FFFFFF" d="M31.426,4.588l0,5.397l5.2,0l0,0.882l-5.2,0l0,5.441l-0.947002,0l0,-5.441l-5.2,0L25.279,9.98503l5.2,0L30.479,4.588L31.426,4.588z"/>
                                                </g>
                                            </g>
                                        </g>
                                        <g >
                                            <path  fill="#828282" d="M17.049,29.426l-6.517,0c-0.276,0,-0.5,-0.224,-0.5,-0.5s0.224,-0.5,0.5,-0.5l6.517,0c0.276,0,0.5,0.224,0.5,0.5S17.325,29.426,17.049,29.426z"/>
                                        </g>
                                        <g >
                                            <path  fill="#828282" d="M50.966,29.426l-6.517,0c-0.276,0,-0.5,-0.224,-0.5,-0.5s0.224,-0.5,0.5,-0.5l6.517,0c0.276,0,0.5,0.224,0.5,0.5S51.242,29.426,50.966,29.426z"/>
                                        </g>
                                    </g>
                                    <path opacity="0.3"  fill="#FFFFFF" d="M9.29398,24.028c0,-2.078,2.041,-3.77,4.501,-3.77c2.461,0,4.486,1.691,4.486,3.77c0,-1.792,-2.312,-3.25,-4.486,-3.25C11.621,20.778,9.29398,22.236,9.29398,24.028z"/>
                                    <path opacity="0.3"  fill="#FFFFFF" d="M43.214,24.028c0,-2.078,2.041,-3.77,4.501,-3.77c2.461,0,4.486,1.691,4.486,3.77c0,-1.792,-2.312,-3.25,-4.486,-3.25C45.541,20.778,43.214,22.236,43.214,24.028z"/>
                                </g>
                            </g>
                        </g>
                    </g>
                </g>
            </g>
        </g>
        <g  transform="matrix(1, 0, 0, 1, 64.6879, 42.6156)">
            <g >
                <g  gorn="0.2.2.0.0" id="adafruit_5mm">
                    <path  fill="#DCDCDC" d="M14.022,6.179c-0.046,-0.288,-0.202,-0.37,-0.578,-0.49c-0.286,-0.0910001,-2.2,-0.701,-2.2,-0.701S9.91102,4.484,8.92102,5.196C8.78803,5.292,8.65001,5.401,8.51098,5.518c0.117,-0.139,0.226,-0.277,0.322,-0.41c0.711,-0.99,0.205,-2.323,0.205,-2.323S8.42501,0.870998,8.33198,0.586C8.21102,0.21,8.12902,0.054,7.84102,0.009C7.55402,-0.036,7.42802,0.0869998,7.197,0.407C7.022,0.651,5.85,2.283,5.85,2.283S4.959,3.396,5.331,4.557c0.05,0.156,0.111,0.321,0.18,0.489c-0.0959998,-0.154,-0.194,-0.3,-0.291,-0.433C4.497,3.632,3.073,3.701,3.073,3.701S1.064,3.693,0.763999,3.692c-0.395,-0.001,-0.568,0.029,-0.7,0.289C-0.068,4.24,0.01,4.398,0.243,4.716C0.42,4.958,1.61,6.577,1.61,6.577s0.783,1.191,2.002,1.196c0.164,0.001,0.339,-0.007,0.52,-0.02c-0.176,0.044,-0.345,0.0910001,-0.5,0.143c-1.156,0.385,-1.53,1.76,-1.53,1.76S1.473,11.564,1.38,11.85c-0.123,0.375,-0.148,0.549,0.058,0.754999s0.38,0.18,0.754999,0.057c0.285,-0.0940003,2.192,-0.725998,2.192,-0.725998s1.375,-0.377,1.757,-1.535c0.051,-0.155,0.0979999,-0.324,0.142,-0.499c-0.012,0.18,-0.02,0.355,-0.019,0.519c0.007,1.219,1.2,2,1.2,2s1.621,1.187,1.863,1.364c0.319,0.233,0.477,0.31,0.735998,0.178s0.289,-0.306,0.287,-0.701c-0.001,-0.3,-0.013,-2.309,-0.013,-2.309s0.067,-1.424,-0.916999,-2.145C9.29002,8.712,9.14501,8.61502,8.991,8.51897c0.168,0.068,0.332,0.129,0.488,0.178c1.161,0.37,2.273,-0.523,2.273,-0.523s1.63,-1.174,1.873,-1.35C13.945,6.592,14.068,6.466,14.022,6.179zM7.103,4.7c0.219,0.034,0.328,0.5,0.243,1.04S7.014,6.69,6.795,6.656c-0.219,-0.034,-0.328,-0.5,-0.243,-1.041C6.637,5.075,6.884,4.665,7.103,4.7zM4.297,6.132c0.101,-0.198,0.577,-0.157,1.065,0.0910001c0.487,0.248,0.801,0.61,0.701,0.806998C5.962,7.22801,5.485,7.187,4.997,6.94C4.51,6.692,4.196,6.33,4.297,6.132zM5.776,8.82698C5.39,9.21398,4.949,9.40097,4.792,9.24401C4.635,9.08798,4.821,8.64698,5.208,8.25998c0.386,-0.387,0.826999,-0.574,0.984002,-0.417C6.349,7.99898,6.163,8.43998,5.776,8.82698zM7.90502,9.73498c-0.198,0.1,-0.559,-0.213,-0.807998,-0.7C6.848,8.54798,6.807,8.07098,7.004,7.96997c0.198,-0.101,0.559,0.213,0.807998,0.7C8.06098,9.15703,8.10302,9.63403,7.90502,9.73498zM8.41802,7.47799c-0.54,0.0859997,-1.006,-0.022,-1.041,-0.241C7.34198,7.018,7.75202,6.771,8.29202,6.685s1.006,0.022,1.041,0.241C9.36799,7.145,8.95802,7.39202,8.41802,7.47799z"/>
                </g>
            </g>
        </g>
    </g>
</svg>
