<?xml version='1.0' encoding='UTF-8' standalone='no'?>
<!-- Created with Fritzing (http://www.fritzing.org/) -->
<svg xmlns="http://www.w3.org/2000/svg" version="1.2" gorn="0" width="2.1in" viewBox="0 0 151.2 93.6" x="0in" id="svg2" y="0in" height="1.3in" >
    <desc>
        <referenceFile>Adafruit Perma Proto Small Mint_breadboard.svg</referenceFile>
    </desc>
    <metadata id="metadata393" >
        <rdf:RDF xmlns:rdf="http://www.w3.org/1999/02/22-rdf-syntax-ns#">
            <cc:Work xmlns:cc="http://creativecommons.org/ns#" xmlns:rdf="http://www.w3.org/1999/02/22-rdf-syntax-ns#" rdf:about="">
                <dc:format xmlns:dc="http://purl.org/dc/elements/1.1/">image/svg+xml</dc:format>
                <dc:type xmlns:rdf="http://www.w3.org/1999/02/22-rdf-syntax-ns#" rdf:resource="http://purl.org/dc/dcmitype/StillImage" xmlns:dc="http://purl.org/dc/elements/1.1/"/>
            </cc:Work>
        </rdf:RDF>
    </metadata>
    <defs id="defs391" />
    <desc id="desc4" >Fritzing breadboard generated by brd2svg</desc>
    <path gorn="0.3" style="fill:#f4eed7;stroke:none;stroke-width:0" id="path8" d="M 133.2,93.6 18,93.6 A 18,18 0 0 1 0,75.6 L 0,18 A 18,18 0 0 1 18,0 l 115.2,0 a 18,18 0 0 1 18,18 l 0,57.6 a 18,18 0 0 1 -18,18 M 6.26457,10.8 a 4.53543,4.53543 0 1 0 9.07085,0 4.53543,4.53543 0 1 0 -9.07085,0 z m 129.60043,0 a 4.53543,4.53543 0 1 0 9.07085,0 4.53543,4.53543 0 1 0 -9.07085,0 z M 6.26457,82.8 a 4.53543,4.53543 0 1 0 9.07085,0 4.53543,4.53543 0 1 0 -9.07085,0 z m 129.60043,0 a 4.53543,4.53543 0 1 0 9.07085,0 4.53543,4.53543 0 1 0 -9.07085,0 z M 23.4992,86.4 a 1.70079,1.70079 0 1 0 3.40158,0 1.70079,1.70079 0 1 0 -3.40158,0 z m 0,-7.2 a 1.70079,1.70079 0 1 0 3.40158,0 1.70079,1.70079 0 1 0 -3.40158,0 z m 0,-7.2 a 1.70079,1.70079 0 1 0 3.40158,0 1.70079,1.70079 0 1 0 -3.40158,0 z m 0,-7.2 a 1.70079,1.70079 0 1 0 3.40158,0 1.70079,1.70079 0 1 0 -3.40158,0 z m 0,-7.2 a 1.70079,1.70079 0 1 0 3.40158,0 1.70079,1.70079 0 1 0 -3.40158,0 z m 21.6,-50.4 a 1.70079,1.70079 0 0 0 3.40158,0 1.70079,1.70079 0 1 0 -3.40158,0 z m 0,7.2 a 1.70079,1.70079 0 0 0 3.40158,0 1.70079,1.70079 0 1 0 -3.40158,0 z m 0,7.2 a 1.70079,1.70079 0 0 0 3.40158,0 1.70079,1.70079 0 1 0 -3.40158,0 z m 0,7.2 a 1.70079,1.70079 0 0 0 3.40158,0 1.70079,1.70079 0 1 0 -3.40158,0 z m 0,7.2 a 1.70079,1.70079 0 0 0 3.40158,0 1.70079,1.70079 0 1 0 -3.40158,0 z m -14.4,50.4 a 1.70079,1.70079 0 0 0 3.40158,0 1.70079,1.70079 0 1 0 -3.40158,0 z m 0,-7.2 a 1.70079,1.70079 0 0 0 3.40158,0 1.70079,1.70079 0 1 0 -3.40158,0 z m 0,-7.2 a 1.70079,1.70079 0 0 0 3.40158,0 1.70079,1.70079 0 1 0 -3.40158,0 z m 0,-7.2 a 1.70079,1.70079 0 0 0 3.40158,0 1.70079,1.70079 0 1 0 -3.40158,0 z m 0,-7.2 a 1.70079,1.70079 0 0 0 3.40158,0 1.70079,1.70079 0 1 0 -3.40158,0 z m 7.2,-50.4 a 1.70079,1.70079 0 0 0 3.40158,0 1.70079,1.70079 0 1 0 -3.40158,0 z m 0,7.2 a 1.70079,1.70079 0 0 0 3.40158,0 1.70079,1.70079 0 1 0 -3.40158,0 z m 0,7.2 a 1.70079,1.70079 0 0 0 3.40158,0 1.70079,1.70079 0 1 0 -3.40158,0 z m 0,7.2 a 1.70079,1.70079 0 0 0 3.40158,0 1.70079,1.70079 0 1 0 -3.40158,0 z m 0,7.2 a 1.70079,1.70079 0 0 0 3.40158,0 1.70079,1.70079 0 1 0 -3.40158,0 z m 0,50.4 a 1.70079,1.70079 0 0 0 3.40158,0 1.70079,1.70079 0 1 0 -3.40158,0 z m 0,-7.2 a 1.70079,1.70079 0 0 0 3.40158,0 1.70079,1.70079 0 1 0 -3.40158,0 z m 0,-7.2 a 1.70079,1.70079 0 0 0 3.40158,0 1.70079,1.70079 0 1 0 -3.40158,0 z m 0,-7.2 a 1.70079,1.70079 0 0 0 3.40158,0 1.70079,1.70079 0 1 0 -3.40158,0 z m 0,-7.2 a 1.70079,1.70079 0 0 0 3.40158,0 1.70079,1.70079 0 1 0 -3.40158,0 z m -7.2,-50.4 a 1.70079,1.70079 0 1 0 3.40158,0 1.70079,1.70079 0 1 0 -3.40158,0 z m 0,7.2 a 1.70079,1.70079 0 1 0 3.40158,0 1.70079,1.70079 0 1 0 -3.40158,0 z m 0,7.2 a 1.70079,1.70079 0 1 0 3.40158,0 1.70079,1.70079 0 1 0 -3.40158,0 z m 0,7.2 a 1.70079,1.70079 0 1 0 3.40158,0 1.70079,1.70079 0 1 0 -3.40158,0 z m 0,7.2 a 1.70079,1.70079 0 1 0 3.40158,0 1.70079,1.70079 0 1 0 -3.40158,0 z m 14.4,50.4 a 1.70079,1.70079 0 0 0 3.40158,0 1.70079,1.70079 0 1 0 -3.40158,0 z m 0,-7.2 a 1.70079,1.70079 0 0 0 3.40158,0 1.70079,1.70079 0 1 0 -3.40158,0 z m 0,-7.2 a 1.70079,1.70079 0 0 0 3.40158,0 1.70079,1.70079 0 1 0 -3.40158,0 z m 0,-7.2 a 1.70079,1.70079 0 0 0 3.40158,0 1.70079,1.70079 0 1 0 -3.40158,0 z m 0,-7.2 a 1.70079,1.70079 0 0 0 3.40158,0 1.70079,1.70079 0 1 0 -3.40158,0 z m -21.6,-50.4 a 1.70079,1.70079 0 1 0 3.40158,0 1.70079,1.70079 0 1 0 -3.40158,0 z m 0,7.2 a 1.70079,1.70079 0 1 0 3.40158,0 1.70079,1.70079 0 1 0 -3.40158,0 z m 0,7.2 a 1.70079,1.70079 0 1 0 3.40158,0 1.70079,1.70079 0 1 0 -3.40158,0 z m 0,7.2 a 1.70079,1.70079 0 1 0 3.40158,0 1.70079,1.70079 0 1 0 -3.40158,0 z m 0,7.2 a 1.70079,1.70079 0 1 0 3.40158,0 1.70079,1.70079 0 1 0 -3.40158,0 z m 28.8,50.4 a 1.70079,1.70079 0 0 0 3.40158,0 1.70079,1.70079 0 1 0 -3.40158,0 z m 0,-7.2 a 1.70079,1.70079 0 0 0 3.40158,0 1.70079,1.70079 0 1 0 -3.40158,0 z m 0,-7.2 a 1.70079,1.70079 0 0 0 3.40158,0 1.70079,1.70079 0 1 0 -3.40158,0 z m 0,-7.2 a 1.70079,1.70079 0 0 0 3.40158,0 1.70079,1.70079 0 1 0 -3.40158,0 z m 0,-7.2 a 1.70079,1.70079 0 0 0 3.40158,0 1.70079,1.70079 0 1 0 -3.40158,0 z m 7.2,28.8 a 1.70079,1.70079 0 0 0 3.40158,0 1.70079,1.70079 0 1 0 -3.40158,0 z m 0,-7.2 a 1.70079,1.70079 0 0 0 3.40158,0 1.70079,1.70079 0 1 0 -3.40158,0 z m 0,-7.2 a 1.70079,1.70079 0 0 0 3.40158,0 1.70079,1.70079 0 1 0 -3.40158,0 z m 0,-7.2 a 1.70079,1.70079 0 0 0 3.40158,0 1.70079,1.70079 0 1 0 -3.40158,0 z m 0,-7.2 a 1.70079,1.70079 0 0 0 3.40158,0 1.70079,1.70079 0 1 0 -3.40158,0 z m 7.2,28.8 a 1.70079,1.70079 0 1 0 3.40158,0 1.70079,1.70079 0 1 0 -3.40158,0 z m 0,-7.2 a 1.70079,1.70079 0 1 0 3.40158,0 1.70079,1.70079 0 1 0 -3.40158,0 z m 0,-7.2 a 1.70079,1.70079 0 1 0 3.40158,0 1.70079,1.70079 0 1 0 -3.40158,0 z m 0,-7.2 a 1.70079,1.70079 0 1 0 3.40158,0 1.70079,1.70079 0 1 0 -3.40158,0 z m 0,-7.2 a 1.70079,1.70079 0 1 0 3.40158,0 1.70079,1.70079 0 1 0 -3.40158,0 z M 124.299,43.2 a 1.70079,1.70079 0 1 0 3.40158,0 1.70079,1.70079 0 1 0 -3.40158,0 z m -7.2,0 a 1.70079,1.70079 0 1 0 3.40158,0 1.70079,1.70079 0 1 0 -3.40158,0 z m -7.2,0 a 1.70079,1.70079 0 1 0 3.40158,0 1.70079,1.70079 0 1 0 -3.40158,0 z m -7.2,0 a 1.70079,1.70079 0 1 0 3.40158,0 1.70079,1.70079 0 1 0 -3.40158,0 z m -7.1996,0 a 1.70079,1.70079 0 1 0 3.40158,0 1.70079,1.70079 0 1 0 -3.40158,0 z m -7.2,0 a 1.70079,1.70079 0 1 0 3.40158,0 1.70079,1.70079 0 1 0 -3.40158,0 z m -14.4,0 a 1.70079,1.70079 0 1 0 3.40158,0 1.70079,1.70079 0 1 0 -3.40158,0 z m 7.2,0 a 1.70079,1.70079 0 1 0 3.40158,0 1.70079,1.70079 0 1 0 -3.40158,0 z m -14.4002,0 a 1.70079,1.70079 0 1 0 3.40158,0 1.70079,1.70079 0 1 0 -3.40158,0 z m -7.2,0 a 1.70079,1.70079 0 0 0 3.40158,0 1.70079,1.70079 0 1 0 -3.40158,0 z m -7.2,0 a 1.70079,1.70079 0 0 0 3.40158,0 1.70079,1.70079 0 1 0 -3.40158,0 z m -7.2,0 a 1.70079,1.70079 0 0 0 3.40158,0 1.70079,1.70079 0 1 0 -3.40158,0 z m -7.2,0 a 1.70079,1.70079 0 0 0 3.40158,0 1.70079,1.70079 0 1 0 -3.40158,0 z m -7.2,0 a 1.70079,1.70079 0 1 0 3.40158,0 1.70079,1.70079 0 1 0 -3.40158,0 z m -7.2,0 a 1.70079,1.70079 0 1 0 3.40158,0 1.70079,1.70079 0 1 0 -3.40158,0 z m 50.4002,43.2 a 1.70079,1.70079 0 1 0 3.40158,0 1.70079,1.70079 0 1 0 -3.40158,0 z m 0,-7.2 a 1.70079,1.70079 0 1 0 3.40158,0 1.70079,1.70079 0 1 0 -3.40158,0 z m 0,-7.2 a 1.70079,1.70079 0 1 0 3.40158,0 1.70079,1.70079 0 1 0 -3.40158,0 z m 0,-7.2 a 1.70079,1.70079 0 1 0 3.40158,0 1.70079,1.70079 0 1 0 -3.40158,0 z m 0,-7.2 a 1.70079,1.70079 0 1 0 3.40158,0 1.70079,1.70079 0 1 0 -3.40158,0 z m 7.2,28.8 a 1.70079,1.70079 0 1 0 3.40158,0 1.70079,1.70079 0 1 0 -3.40158,0 z m 0,-7.2 a 1.70079,1.70079 0 1 0 3.40158,0 1.70079,1.70079 0 1 0 -3.40158,0 z m 0,-7.2 a 1.70079,1.70079 0 1 0 3.40158,0 1.70079,1.70079 0 1 0 -3.40158,0 z m 0,-7.2 a 1.70079,1.70079 0 1 0 3.40158,0 1.70079,1.70079 0 1 0 -3.40158,0 z m 0,-7.2 a 1.70079,1.70079 0 1 0 3.40158,0 1.70079,1.70079 0 1 0 -3.40158,0 z m 7.2,28.8 a 1.70079,1.70079 0 1 0 3.40158,0 1.70079,1.70079 0 1 0 -3.40158,0 z m 0,-7.2 a 1.70079,1.70079 0 1 0 3.40158,0 1.70079,1.70079 0 1 0 -3.40158,0 z m 0,-7.2 a 1.70079,1.70079 0 1 0 3.40158,0 1.70079,1.70079 0 1 0 -3.40158,0 z m 0,-7.2 a 1.70079,1.70079 0 1 0 3.40158,0 1.70079,1.70079 0 1 0 -3.40158,0 z m 0,-7.2 a 1.70079,1.70079 0 1 0 3.40158,0 1.70079,1.70079 0 1 0 -3.40158,0 z m 7.2,28.8 a 1.70079,1.70079 0 1 0 3.40158,0 1.70079,1.70079 0 1 0 -3.40158,0 z m 0,-7.2 a 1.70079,1.70079 0 1 0 3.40158,0 1.70079,1.70079 0 1 0 -3.40158,0 z m 0,-7.2 a 1.70079,1.70079 0 1 0 3.40158,0 1.70079,1.70079 0 1 0 -3.40158,0 z m 0,-7.2 a 1.70079,1.70079 0 1 0 3.40158,0 1.70079,1.70079 0 1 0 -3.40158,0 z m 0,-7.2 a 1.70079,1.70079 0 1 0 3.40158,0 1.70079,1.70079 0 1 0 -3.40158,0 z m 7.1996,28.8 a 1.70079,1.70079 0 1 0 3.40158,0 1.70079,1.70079 0 1 0 -3.40158,0 z m 0,-7.2 a 1.70079,1.70079 0 1 0 3.40158,0 1.70079,1.70079 0 1 0 -3.40158,0 z m 0,-7.2 a 1.70079,1.70079 0 1 0 3.40158,0 1.70079,1.70079 0 1 0 -3.40158,0 z m 0,-7.2 a 1.70079,1.70079 0 1 0 3.40158,0 1.70079,1.70079 0 1 0 -3.40158,0 z m 0,-7.2 a 1.70079,1.70079 0 1 0 3.40158,0 1.70079,1.70079 0 1 0 -3.40158,0 z m 7.2,28.8 a 1.70079,1.70079 0 1 0 3.40158,0 1.70079,1.70079 0 1 0 -3.40158,0 z m 0,-7.2 a 1.70079,1.70079 0 1 0 3.40158,0 1.70079,1.70079 0 1 0 -3.40158,0 z m 0,-7.2 a 1.70079,1.70079 0 1 0 3.40158,0 1.70079,1.70079 0 1 0 -3.40158,0 z m 0,-7.2 a 1.70079,1.70079 0 1 0 3.40158,0 1.70079,1.70079 0 1 0 -3.40158,0 z m 0,-7.2 a 1.70079,1.70079 0 1 0 3.40158,0 1.70079,1.70079 0 1 0 -3.40158,0 z m 7.2,28.8 a 1.70079,1.70079 0 1 0 3.40158,0 1.70079,1.70079 0 1 0 -3.40158,0 z m 0,-7.2 a 1.70079,1.70079 0 1 0 3.40158,0 1.70079,1.70079 0 1 0 -3.40158,0 z m 0,-7.2 a 1.70079,1.70079 0 1 0 3.40158,0 1.70079,1.70079 0 1 0 -3.40158,0 z m 0,-7.2 a 1.70079,1.70079 0 1 0 3.40158,0 1.70079,1.70079 0 1 0 -3.40158,0 z m 0,-7.2 a 1.70079,1.70079 0 1 0 3.40158,0 1.70079,1.70079 0 1 0 -3.40158,0 z M 16.2992,21.6 a 1.70079,1.70079 0 1 0 3.40158,0 1.70079,1.70079 0 1 0 -3.40158,0 z m 0,7.2 a 1.70079,1.70079 0 1 0 3.40158,0 1.70079,1.70079 0 1 0 -3.40158,0 z m 0,7.2 a 1.70079,1.70079 0 1 0 3.40158,0 1.70079,1.70079 0 1 0 -3.40158,0 z m -7.19998,0 a 1.70079,1.70079 0 1 0 3.40158,0 1.70079,1.70079 0 1 0 -3.40158,0 z m 0,-7.2 a 1.70079,1.70079 0 1 0 3.40158,0 1.70079,1.70079 0 1 0 -3.40158,0 z m 0,-7.2 a 1.70079,1.70079 0 1 0 3.40158,0 1.70079,1.70079 0 1 0 -3.40158,0 z m -7.2,0 a 1.70079,1.70079 0 0 0 3.40158,0 1.70079,1.70079 0 1 0 -3.40158,0 z m 0,7.2 a 1.70079,1.70079 0 0 0 3.40158,0 1.70079,1.70079 0 1 0 -3.40158,0 z m 0,7.2 a 1.70079,1.70079 0 0 0 3.40158,0 1.70079,1.70079 0 1 0 -3.40158,0 z m 0,7.2 a 1.70079,1.70079 0 0 0 3.40158,0 1.70079,1.70079 0 1 0 -3.40158,0 z m 7.2,0 a 1.70079,1.70079 0 1 0 3.40158,0 1.70079,1.70079 0 1 0 -3.40158,0 z m 7.19998,0 a 1.70079,1.70079 0 1 0 3.40158,0 1.70079,1.70079 0 1 0 -3.40158,0 z m 0,7.2 a 1.70079,1.70079 0 1 0 3.40158,0 1.70079,1.70079 0 1 0 -3.40158,0 z m -7.19998,0 a 1.70079,1.70079 0 1 0 3.40158,0 1.70079,1.70079 0 1 0 -3.40158,0 z m -7.2,0 a 1.70079,1.70079 0 0 0 3.40158,0 1.70079,1.70079 0 1 0 -3.40158,0 z m 0,7.2 a 1.70079,1.70079 0 0 0 3.40158,0 1.70079,1.70079 0 1 0 -3.40158,0 z m 7.2,0 a 1.70079,1.70079 0 1 0 3.40158,0 1.70079,1.70079 0 1 0 -3.40158,0 z m 7.19998,0 a 1.70079,1.70079 0 1 0 3.40158,0 1.70079,1.70079 0 1 0 -3.40158,0 z m 0,7.2 a 1.70079,1.70079 0 1 0 3.40158,0 1.70079,1.70079 0 1 0 -3.40158,0 z m -7.19998,0 a 1.70079,1.70079 0 1 0 3.40158,0 1.70079,1.70079 0 1 0 -3.40158,0 z m -7.2,0 a 1.70079,1.70079 0 0 0 3.40158,0 1.70079,1.70079 0 1 0 -3.40158,0 z m 0,7.2 a 1.70079,1.70079 0 0 0 3.40158,0 1.70079,1.70079 0 1 0 -3.40158,0 z m 7.2,0 a 1.70079,1.70079 0 1 0 3.40158,0 1.70079,1.70079 0 1 0 -3.40158,0 z m 7.19998,0 a 1.70079,1.70079 0 1 0 3.40158,0 1.70079,1.70079 0 1 0 -3.40158,0 z M 131.499,21.6 a 1.70079,1.70079 0 1 0 3.40158,0 1.70079,1.70079 0 1 0 -3.40158,0 z m 0,7.2 a 1.70079,1.70079 0 1 0 3.40158,0 1.70079,1.70079 0 1 0 -3.40158,0 z m 0,7.2 a 1.70079,1.70079 0 1 0 3.40158,0 1.70079,1.70079 0 1 0 -3.40158,0 z m 7.2,0 a 1.70079,1.70079 0 1 0 3.40158,0 1.70079,1.70079 0 1 0 -3.40158,0 z m 0,-7.2 a 1.70079,1.70079 0 1 0 3.40158,0 1.70079,1.70079 0 1 0 -3.40158,0 z m 0,-7.2 a 1.70079,1.70079 0 1 0 3.40158,0 1.70079,1.70079 0 1 0 -3.40158,0 z m 7.2,0 a 1.70079,1.70079 0 1 0 3.40158,0 1.70079,1.70079 0 1 0 -3.40158,0 z m 0,7.2 a 1.70079,1.70079 0 1 0 3.40158,0 1.70079,1.70079 0 1 0 -3.40158,0 z m 0,7.2 a 1.70079,1.70079 0 1 0 3.40158,0 1.70079,1.70079 0 1 0 -3.40158,0 z m 0,7.2 a 1.70079,1.70079 0 1 0 3.40158,0 1.70079,1.70079 0 1 0 -3.40158,0 z m 0,7.2 a 1.70079,1.70079 0 1 0 3.40158,0 1.70079,1.70079 0 1 0 -3.40158,0 z m 0,7.2 a 1.70079,1.70079 0 1 0 3.40158,0 1.70079,1.70079 0 1 0 -3.40158,0 z m 0,7.2 a 1.70079,1.70079 0 1 0 3.40158,0 1.70079,1.70079 0 1 0 -3.40158,0 z m 0,7.2 a 1.70079,1.70079 0 1 0 3.40158,0 1.70079,1.70079 0 1 0 -3.40158,0 z m -7.2,0 a 1.70079,1.70079 0 1 0 3.40158,0 1.70079,1.70079 0 1 0 -3.40158,0 z m -7.2,0 a 1.70079,1.70079 0 1 0 3.40158,0 1.70079,1.70079 0 1 0 -3.40158,0 z m 7.2,-7.2 a 1.70079,1.70079 0 1 0 3.40158,0 1.70079,1.70079 0 1 0 -3.40158,0 z m -7.2,0 a 1.70079,1.70079 0 1 0 3.40158,0 1.70079,1.70079 0 1 0 -3.40158,0 z m 0,-7.2 a 1.70079,1.70079 0 1 0 3.40158,0 1.70079,1.70079 0 1 0 -3.40158,0 z m 7.2,0 a 1.70079,1.70079 0 1 0 3.40158,0 1.70079,1.70079 0 1 0 -3.40158,0 z m 0,-7.2 a 1.70079,1.70079 0 1 0 3.40158,0 1.70079,1.70079 0 1 0 -3.40158,0 z m -7.2,0 a 1.70079,1.70079 0 1 0 3.40158,0 1.70079,1.70079 0 1 0 -3.40158,0 z m 0,-7.2 a 1.70079,1.70079 0 1 0 3.40158,0 1.70079,1.70079 0 1 0 -3.40158,0 z m 7.2,0 a 1.70079,1.70079 0 1 0 3.40158,0 1.70079,1.70079 0 1 0 -3.40158,0 z m -14.4,43.2 a 1.70079,1.70079 0 1 0 3.40158,0 1.70079,1.70079 0 1 0 -3.40158,0 z m 0,-7.2 a 1.70079,1.70079 0 1 0 3.40158,0 1.70079,1.70079 0 1 0 -3.40158,0 z m 0,-7.2 a 1.70079,1.70079 0 1 0 3.40158,0 1.70079,1.70079 0 1 0 -3.40158,0 z m 0,-7.2 a 1.70079,1.70079 0 1 0 3.40158,0 1.70079,1.70079 0 1 0 -3.40158,0 z m 0,-7.2 a 1.70079,1.70079 0 1 0 3.40158,0 1.70079,1.70079 0 1 0 -3.40158,0 z m 0,-50.4 a 1.70079,1.70079 0 1 0 3.40158,0 1.70079,1.70079 0 1 0 -3.40158,0 z m 0,7.2 a 1.70079,1.70079 0 1 0 3.40158,0 1.70079,1.70079 0 1 0 -3.40158,0 z m 0,7.2 a 1.70079,1.70079 0 1 0 3.40158,0 1.70079,1.70079 0 1 0 -3.40158,0 z m 0,7.2 a 1.70079,1.70079 0 1 0 3.40158,0 1.70079,1.70079 0 1 0 -3.40158,0 z m 0,7.2 a 1.70079,1.70079 0 1 0 3.40158,0 1.70079,1.70079 0 1 0 -3.40158,0 z m 0,14.4 a 1.70079,1.70079 0 1 0 3.40158,0 1.70079,1.70079 0 1 0 -3.40158,0 z m -7.2,0 a 1.70079,1.70079 0 1 0 3.40158,0 1.70079,1.70079 0 1 0 -3.40158,0 z m -7.2,0 a 1.70079,1.70079 0 1 0 3.40158,0 1.70079,1.70079 0 1 0 -3.40158,0 z m -7.2,0 a 1.70079,1.70079 0 1 0 3.40158,0 1.70079,1.70079 0 1 0 -3.40158,0 z m -7.1996,0 a 1.70079,1.70079 0 1 0 3.40158,0 1.70079,1.70079 0 1 0 -3.40158,0 z m -7.2,0 a 1.70079,1.70079 0 1 0 3.40158,0 1.70079,1.70079 0 1 0 -3.40158,0 z m -14.4,0 a 1.70079,1.70079 0 1 0 3.40158,0 1.70079,1.70079 0 1 0 -3.40158,0 z m 7.2,0 a 1.70079,1.70079 0 1 0 3.40158,0 1.70079,1.70079 0 1 0 -3.40158,0 z m -14.4002,0 a 1.70079,1.70079 0 1 0 3.40158,0 1.70079,1.70079 0 1 0 -3.40158,0 z m -7.2,0 a 1.70079,1.70079 0 0 0 3.40158,0 1.70079,1.70079 0 1 0 -3.40158,0 z m -7.2,0 a 1.70079,1.70079 0 0 0 3.40158,0 1.70079,1.70079 0 1 0 -3.40158,0 z m -7.2,0 a 1.70079,1.70079 0 0 0 3.40158,0 1.70079,1.70079 0 1 0 -3.40158,0 z m -7.2,0 a 1.70079,1.70079 0 0 0 3.40158,0 1.70079,1.70079 0 1 0 -3.40158,0 z m -7.2,0 a 1.70079,1.70079 0 1 0 3.40158,0 1.70079,1.70079 0 1 0 -3.40158,0 z m -7.2,0 a 1.70079,1.70079 0 1 0 3.40158,0 1.70079,1.70079 0 1 0 -3.40158,0 z M 117.099,7.2 a 1.70079,1.70079 0 1 0 3.40158,0 1.70079,1.70079 0 1 0 -3.40158,0 z m 0,7.2 a 1.70079,1.70079 0 1 0 3.40158,0 1.70079,1.70079 0 1 0 -3.40158,0 z m 0,7.2 a 1.70079,1.70079 0 1 0 3.40158,0 1.70079,1.70079 0 1 0 -3.40158,0 z m 0,7.2 a 1.70079,1.70079 0 1 0 3.40158,0 1.70079,1.70079 0 1 0 -3.40158,0 z m 0,7.2 a 1.70079,1.70079 0 1 0 3.40158,0 1.70079,1.70079 0 1 0 -3.40158,0 z m -7.2,-28.8 a 1.70079,1.70079 0 1 0 3.40158,0 1.70079,1.70079 0 1 0 -3.40158,0 z m 0,7.2 a 1.70079,1.70079 0 1 0 3.40158,0 1.70079,1.70079 0 1 0 -3.40158,0 z m 0,7.2 a 1.70079,1.70079 0 1 0 3.40158,0 1.70079,1.70079 0 1 0 -3.40158,0 z m 0,7.2 a 1.70079,1.70079 0 1 0 3.40158,0 1.70079,1.70079 0 1 0 -3.40158,0 z m 0,7.2 a 1.70079,1.70079 0 1 0 3.40158,0 1.70079,1.70079 0 1 0 -3.40158,0 z m -7.2,-28.8 a 1.70079,1.70079 0 1 0 3.40158,0 1.70079,1.70079 0 1 0 -3.40158,0 z m 0,7.2 a 1.70079,1.70079 0 1 0 3.40158,0 1.70079,1.70079 0 1 0 -3.40158,0 z m 0,7.2 a 1.70079,1.70079 0 1 0 3.40158,0 1.70079,1.70079 0 1 0 -3.40158,0 z m 0,7.2 a 1.70079,1.70079 0 1 0 3.40158,0 1.70079,1.70079 0 1 0 -3.40158,0 z m 0,7.2 a 1.70079,1.70079 0 1 0 3.40158,0 1.70079,1.70079 0 1 0 -3.40158,0 z M 95.4994,7.2 a 1.70079,1.70079 0 1 0 3.40158,0 1.70079,1.70079 0 1 0 -3.40158,0 z m 0,7.2 a 1.70079,1.70079 0 1 0 3.40158,0 1.70079,1.70079 0 1 0 -3.40158,0 z m 0,7.2 a 1.70079,1.70079 0 1 0 3.40158,0 1.70079,1.70079 0 1 0 -3.40158,0 z m 0,7.2 a 1.70079,1.70079 0 1 0 3.40158,0 1.70079,1.70079 0 1 0 -3.40158,0 z m 0,7.2 a 1.70079,1.70079 0 1 0 3.40158,0 1.70079,1.70079 0 1 0 -3.40158,0 z m -7.2,-28.8 a 1.70079,1.70079 0 1 0 3.40158,0 1.70079,1.70079 0 1 0 -3.40158,0 z m 0,7.2 a 1.70079,1.70079 0 1 0 3.40158,0 1.70079,1.70079 0 1 0 -3.40158,0 z m 0,7.2 a 1.70079,1.70079 0 1 0 3.40158,0 1.70079,1.70079 0 1 0 -3.40158,0 z m 0,7.2 a 1.70079,1.70079 0 1 0 3.40158,0 1.70079,1.70079 0 1 0 -3.40158,0 z m 0,7.2 a 1.70079,1.70079 0 1 0 3.40158,0 1.70079,1.70079 0 1 0 -3.40158,0 z m -7.2,-28.8 a 1.70079,1.70079 0 1 0 3.40158,0 1.70079,1.70079 0 1 0 -3.40158,0 z m 0,7.2 a 1.70079,1.70079 0 1 0 3.40158,0 1.70079,1.70079 0 1 0 -3.40158,0 z m 0,7.2 a 1.70079,1.70079 0 1 0 3.40158,0 1.70079,1.70079 0 1 0 -3.40158,0 z m 0,7.2 a 1.70079,1.70079 0 1 0 3.40158,0 1.70079,1.70079 0 1 0 -3.40158,0 z m 0,7.2 a 1.70079,1.70079 0 1 0 3.40158,0 1.70079,1.70079 0 1 0 -3.40158,0 z m -7.2,-28.8 a 1.70079,1.70079 0 1 0 3.40158,0 1.70079,1.70079 0 1 0 -3.40158,0 z m 0,7.2 a 1.70079,1.70079 0 1 0 3.40158,0 1.70079,1.70079 0 1 0 -3.40158,0 z m 0,7.2 a 1.70079,1.70079 0 1 0 3.40158,0 1.70079,1.70079 0 1 0 -3.40158,0 z m 0,14.4 a 1.70079,1.70079 0 1 0 3.40158,0 1.70079,1.70079 0 1 0 -3.40158,0 z m 0,-7.2 a 1.70079,1.70079 0 1 0 3.40158,0 1.70079,1.70079 0 1 0 -3.40158,0 z M 66.6992,7.2 a 1.70079,1.70079 0 1 0 3.40158,0 1.70079,1.70079 0 1 0 -3.40158,0 z m 0,7.2 a 1.70079,1.70079 0 1 0 3.40158,0 1.70079,1.70079 0 1 0 -3.40158,0 z m 0,7.2 a 1.70079,1.70079 0 1 0 3.40158,0 1.70079,1.70079 0 1 0 -3.40158,0 z m 0,7.2 a 1.70079,1.70079 0 1 0 3.40158,0 1.70079,1.70079 0 1 0 -3.40158,0 z m 0,7.2 a 1.70079,1.70079 0 1 0 3.40158,0 1.70079,1.70079 0 1 0 -3.40158,0 z m -7.2,-28.8 a 1.70079,1.70079 0 0 0 3.40158,0 1.70079,1.70079 0 1 0 -3.40158,0 z m 0,7.2 a 1.70079,1.70079 0 0 0 3.40158,0 1.70079,1.70079 0 1 0 -3.40158,0 z m 0,7.2 a 1.70079,1.70079 0 0 0 3.40158,0 1.70079,1.70079 0 1 0 -3.40158,0 z m 0,7.2 a 1.70079,1.70079 0 0 0 3.40158,0 1.70079,1.70079 0 1 0 -3.40158,0 z m 0,7.2 a 1.70079,1.70079 0 0 0 3.40158,0 1.70079,1.70079 0 1 0 -3.40158,0 z m -7.2,-28.8 a 1.70079,1.70079 0 0 0 3.40158,0 1.70079,1.70079 0 1 0 -3.40158,0 z m 0,7.2 a 1.70079,1.70079 0 0 0 3.40158,0 1.70079,1.70079 0 1 0 -3.40158,0 z m 0,7.2 a 1.70079,1.70079 0 0 0 3.40158,0 1.70079,1.70079 0 1 0 -3.40158,0 z m 0,7.2 a 1.70079,1.70079 0 0 0 3.40158,0 1.70079,1.70079 0 1 0 -3.40158,0 z m 0,7.2 a 1.70079,1.70079 0 0 0 3.40158,0 1.70079,1.70079 0 1 0 -3.40158,0 z" />
    <line gorn="0.4" style="stroke:#0000ff;stroke-width:1.15199995;stroke-linecap:round;stroke-opacity:1" y1="39.599998" y2="39.599998" id="line14" x1="23.76"  x2="127.44"/>
    <line gorn="0.5" style="stroke:#ff0000;stroke-width:1.15199995;stroke-linecap:round;stroke-opacity:1" y1="54" y2="54" id="line16" x1="127.44"  x2="23.76"/>
    <g gorn="0.6" style="fill:#000000" id="g18" >
        <title id="title20" >text:1</title>
        <text font-size="3.3408" gorn="0.6.1" style="font-size:3.34080005px;font-family:OCRA;text-anchor:start;fill:#000000;stroke:none;stroke-width:0" x="23.76" id="text22" y="3.5999999" >1</text>
    </g>
    <g gorn="0.7" style="fill:#000000" id="g24" >
        <title id="title26" >text:2</title>
        <text font-size="3.3408" gorn="0.7.1" style="font-size:3.34080005px;font-family:OCRA;text-anchor:start;fill:#000000;stroke:none;stroke-width:0" x="30.959999" id="text28" y="3.5999999" >2</text>
    </g>
    <g gorn="0.8" style="fill:#000000" id="g30" >
        <title id="title32" >text:3</title>
        <text font-size="3.3408" gorn="0.8.1" style="font-size:3.34080005px;font-family:OCRA;text-anchor:start;fill:#000000;stroke:none;stroke-width:0" x="38.16" id="text34" y="3.5999999" >3</text>
    </g>
    <g gorn="0.9" style="fill:#000000" id="g36" >
        <title id="title38" >text:4</title>
        <text font-size="3.3408" gorn="0.9.1" style="font-size:3.34080005px;font-family:OCRA;text-anchor:start;fill:#000000;stroke:none;stroke-width:0" x="45.360001" id="text40" y="3.5999999" >4</text>
    </g>
    <g gorn="0.10" style="fill:#000000" id="g42" >
        <title id="title44" >text:5</title>
        <text font-size="3.3408" gorn="0.10.1" style="font-size:3.34080005px;font-family:OCRA;text-anchor:start;fill:#000000;stroke:none;stroke-width:0" x="52.560001" id="text46" y="3.5999999" >5</text>
    </g>
    <g gorn="0.11" style="fill:#000000" id="g48" >
        <title id="title50" >text:6</title>
        <text font-size="3.3408" gorn="0.11.1" style="font-size:3.34080005px;font-family:OCRA;text-anchor:start;fill:#000000;stroke:none;stroke-width:0" x="59.759998" id="text52" y="3.5999999" >6</text>
    </g>
    <g gorn="0.12" style="fill:#000000" id="g54" >
        <title id="title56" >text:7</title>
        <text font-size="3.3408" gorn="0.12.1" style="font-size:3.34080005px;font-family:OCRA;text-anchor:start;fill:#000000;stroke:none;stroke-width:0" x="66.959999" id="text58" y="3.5999999" >7</text>
    </g>
    <g gorn="0.13" style="fill:#000000" id="g60" >
        <title id="title62" >text:8</title>
        <text font-size="3.3408" gorn="0.13.1" style="font-size:3.34080005px;font-family:OCRA;text-anchor:start;fill:#000000;stroke:none;stroke-width:0" x="74.160004" id="text64" y="3.5999999" >8</text>
    </g>
    <g gorn="0.14" style="fill:#000000" id="g66" >
        <title id="title68" >text:9</title>
        <text font-size="3.3408" gorn="0.14.1" style="font-size:3.34080005px;font-family:OCRA;text-anchor:start;fill:#000000;stroke:none;stroke-width:0" x="81.360001" id="text70" y="3.5999999" >9</text>
    </g>
    <g gorn="0.15" style="fill:#000000" id="g72" >
        <title id="title74" >text:10</title>
        <text font-size="3.3408" gorn="0.15.1" style="font-size:3.34080005px;font-family:OCRA;text-anchor:start;fill:#000000;stroke:none;stroke-width:0" x="87.839996" id="text76" y="3.5999999" >10</text>
    </g>
    <g gorn="0.16" style="fill:#000000" id="g78" >
        <title id="title80" >text:11</title>
        <text font-size="3.3408" gorn="0.16.1" style="font-size:3.34080005px;font-family:OCRA;text-anchor:start;fill:#000000;stroke:none;stroke-width:0" x="95.040001" id="text82" y="3.5999999" >11</text>
    </g>
    <g gorn="0.17" style="fill:#000000" id="g84" >
        <title id="title86" >text:12</title>
        <text font-size="3.3408" gorn="0.17.1" style="font-size:3.34080005px;font-family:OCRA;text-anchor:start;fill:#000000;stroke:none;stroke-width:0" x="102.24" id="text88" y="3.5999999" >12</text>
    </g>
    <g gorn="0.18" style="fill:#000000" id="g90" >
        <title id="title92" >text:13</title>
        <text font-size="3.3408" gorn="0.18.1" style="font-size:3.34080005px;font-family:OCRA;text-anchor:start;fill:#000000;stroke:none;stroke-width:0" x="109.44" id="text94" y="3.5999999" >13</text>
    </g>
    <g gorn="0.19" style="fill:#000000" id="g96" >
        <title id="title98" >text:14</title>
        <text font-size="3.3408" gorn="0.19.1" style="font-size:3.34080005px;font-family:OCRA;text-anchor:start;fill:#000000;stroke:none;stroke-width:0" x="116.64" id="text100" y="3.5999999" >14</text>
    </g>
    <g gorn="0.20" style="fill:#000000" id="g102" >
        <title id="title104" >text:15</title>
        <text font-size="3.3408" gorn="0.20.1" style="font-size:3.34080005px;font-family:OCRA;text-anchor:start;fill:#000000;stroke:none;stroke-width:0" x="123.84" id="text106" y="3.5999999" >15</text>
    </g>
    <g transform="translate(-1.2272728,0)" >
        <g gorn="0.21.0" style="fill:#000000" id="g108" >
            <title id="title110" >text:Adafruit Perma-Proto Small Tin</title>
            <text font-size="4.176" gorn="0.21.0.1" style="font-size:4.17600012px;font-family:OCRA;text-anchor:start;fill:#000000;stroke:none;stroke-width:0" x="31.68" id="text112" y="92.879997" >Adafruit Perma-Proto Small Tin</text>
        </g>
    </g>
    <g gorn="0.22" id="g114" >
        <title id="title116" >element:E$1</title>
        <g gorn="0.22.1" id="g118" >
            <title id="title120" >package:ADAFRUIT_2.5MM</title>
        </g>
    </g>
    <g gorn="0.23" id="g122" >
        <title id="title124" >element:E$2</title>
        <g gorn="0.23.1" id="g126" >
            <title id="title128" >package:ADAFRUIT_2.5MM</title>
        </g>
    </g>
    <circle gorn="0.24" cx="25.200001" style="fill:none;stroke:#9a916c;stroke-width:1.03522003" connectorname="A" r="2.21839" id="connector0pin" cy="86.400002" />
    <circle gorn="0.25" cx="25.200001" style="fill:none;stroke:#9a916c;stroke-width:1.03522003" connectorname="A" r="2.21839" id="connector1pin" cy="79.199997" />
    <circle gorn="0.26" cx="25.200001" style="fill:none;stroke:#9a916c;stroke-width:1.03522003" connectorname="A" r="2.21839" id="connector2pin" cy="72" />
    <circle gorn="0.27" cx="25.200001" style="fill:none;stroke:#9a916c;stroke-width:1.03522003" connectorname="A" r="2.21839" id="connector3pin" cy="64.800003" />
    <circle gorn="0.28" cx="25.200001" style="fill:none;stroke:#9a916c;stroke-width:1.03522003" connectorname="A" r="2.21839" id="connector4pin" cy="57.599998" />
    <circle gorn="0.29" cx="46.799999" style="fill:none;stroke:#9a916c;stroke-width:1.03522003" connectorname="AA" r="2.21839" id="connector5pin" cy="7.1999998" />
    <circle gorn="0.30" cx="46.799999" style="fill:none;stroke:#9a916c;stroke-width:1.03522003" connectorname="AA" r="2.21839" id="connector6pin" cy="14.4" />
    <circle gorn="0.31" cx="46.799999" style="fill:none;stroke:#9a916c;stroke-width:1.03522003" connectorname="AA" r="2.21839" id="connector7pin" cy="21.6" />
    <circle gorn="0.32" cx="46.799999" style="fill:none;stroke:#9a916c;stroke-width:1.03522003" connectorname="AA" r="2.21839" id="connector8pin" cy="28.799999" />
    <circle gorn="0.33" cx="46.799999" style="fill:none;stroke:#9a916c;stroke-width:1.03522003" connectorname="AA" r="2.21839" id="connector9pin" cy="36" />
    <circle gorn="0.34" cx="32.400002" style="fill:none;stroke:#9a916c;stroke-width:1.03522003" connectorname="B" r="2.21839" id="connector10pin" cy="86.400002" />
    <circle gorn="0.35" cx="32.400002" style="fill:none;stroke:#9a916c;stroke-width:1.03522003" connectorname="B" r="2.21839" id="connector11pin" cy="79.199997" />
    <circle gorn="0.36" cx="32.400002" style="fill:none;stroke:#9a916c;stroke-width:1.03522003" connectorname="B" r="2.21839" id="connector12pin" cy="72" />
    <circle gorn="0.37" cx="32.400002" style="fill:none;stroke:#9a916c;stroke-width:1.03522003" connectorname="B" r="2.21839" id="connector13pin" cy="64.800003" />
    <circle gorn="0.38" cx="32.400002" style="fill:none;stroke:#9a916c;stroke-width:1.03522003" connectorname="B" r="2.21839" id="connector14pin" cy="57.599998" />
    <circle gorn="0.39" cx="39.599998" style="fill:none;stroke:#9a916c;stroke-width:1.03522003" connectorname="BB" r="2.21839" id="connector15pin" cy="7.1999998" />
    <circle gorn="0.40" cx="39.599998" style="fill:none;stroke:#9a916c;stroke-width:1.03522003" connectorname="BB" r="2.21839" id="connector16pin" cy="14.4" />
    <circle gorn="0.41" cx="39.599998" style="fill:none;stroke:#9a916c;stroke-width:1.03522003" connectorname="BB" r="2.21839" id="connector17pin" cy="21.6" />
    <circle gorn="0.42" cx="39.599998" style="fill:none;stroke:#9a916c;stroke-width:1.03522003" connectorname="BB" r="2.21839" id="connector18pin" cy="28.799999" />
    <circle gorn="0.43" cx="39.599998" style="fill:none;stroke:#9a916c;stroke-width:1.03522003" connectorname="BB" r="2.21839" id="connector19pin" cy="36" />
    <circle gorn="0.44" cx="39.599998" style="fill:none;stroke:#9a916c;stroke-width:1.03522003" connectorname="C" r="2.21839" id="connector20pin" cy="86.400002" />
    <circle gorn="0.45" cx="39.599998" style="fill:none;stroke:#9a916c;stroke-width:1.03522003" connectorname="C" r="2.21839" id="connector21pin" cy="79.199997" />
    <circle gorn="0.46" cx="39.599998" style="fill:none;stroke:#9a916c;stroke-width:1.03522003" connectorname="C" r="2.21839" id="connector22pin" cy="72" />
    <circle gorn="0.47" cx="39.599998" style="fill:none;stroke:#9a916c;stroke-width:1.03522003" connectorname="C" r="2.21839" id="connector23pin" cy="64.800003" />
    <circle gorn="0.48" cx="39.599998" style="fill:none;stroke:#9a916c;stroke-width:1.03522003" connectorname="C" r="2.21839" id="connector24pin" cy="57.599998" />
    <circle gorn="0.49" cx="32.400002" style="fill:none;stroke:#9a916c;stroke-width:1.03522003" connectorname="CC" r="2.21839" id="connector25pin" cy="7.1999998" />
    <circle gorn="0.50" cx="32.400002" style="fill:none;stroke:#9a916c;stroke-width:1.03522003" connectorname="CC" r="2.21839" id="connector26pin" cy="14.4" />
    <circle gorn="0.51" cx="32.400002" style="fill:none;stroke:#9a916c;stroke-width:1.03522003" connectorname="CC" r="2.21839" id="connector27pin" cy="21.6" />
    <circle gorn="0.52" cx="32.400002" style="fill:none;stroke:#9a916c;stroke-width:1.03522003" connectorname="CC" r="2.21839" id="connector28pin" cy="28.799999" />
    <circle gorn="0.53" cx="32.400002" style="fill:none;stroke:#9a916c;stroke-width:1.03522003" connectorname="CC" r="2.21839" id="connector29pin" cy="36" />
    <circle gorn="0.54" cx="46.799999" style="fill:none;stroke:#9a916c;stroke-width:1.03522003" connectorname="D" r="2.21839" id="connector30pin" cy="86.400002" />
    <circle gorn="0.55" cx="46.799999" style="fill:none;stroke:#9a916c;stroke-width:1.03522003" connectorname="D" r="2.21839" id="connector31pin" cy="79.199997" />
    <circle gorn="0.56" cx="46.799999" style="fill:none;stroke:#9a916c;stroke-width:1.03522003" connectorname="D" r="2.21839" id="connector32pin" cy="72" />
    <circle gorn="0.57" cx="46.799999" style="fill:none;stroke:#9a916c;stroke-width:1.03522003" connectorname="D" r="2.21839" id="connector33pin" cy="64.800003" />
    <circle gorn="0.58" cx="46.799999" style="fill:none;stroke:#9a916c;stroke-width:1.03522003" connectorname="D" r="2.21839" id="connector34pin" cy="57.599998" />
    <circle gorn="0.59" cx="25.200001" style="fill:none;stroke:#9a916c;stroke-width:1.03522003" connectorname="DD" r="2.21839" id="connector35pin" cy="7.1999998" />
    <circle gorn="0.60" cx="25.200001" style="fill:none;stroke:#9a916c;stroke-width:1.03522003" connectorname="DD" r="2.21839" id="connector36pin" cy="14.4" />
    <circle gorn="0.61" cx="25.200001" style="fill:none;stroke:#9a916c;stroke-width:1.03522003" connectorname="DD" r="2.21839" id="connector37pin" cy="21.6" />
    <circle gorn="0.62" cx="25.200001" style="fill:none;stroke:#9a916c;stroke-width:1.03522003" connectorname="DD" r="2.21839" id="connector38pin" cy="28.799999" />
    <circle gorn="0.63" cx="25.200001" style="fill:none;stroke:#9a916c;stroke-width:1.03522003" connectorname="DD" r="2.21839" id="connector39pin" cy="36" />
    <circle gorn="0.64" cx="54" style="fill:none;stroke:#9a916c;stroke-width:1.03522003" connectorname="E" r="2.21839" id="connector40pin" cy="86.400002" />
    <circle gorn="0.65" cx="54" style="fill:none;stroke:#9a916c;stroke-width:1.03522003" connectorname="E" r="2.21839" id="connector41pin" cy="79.199997" />
    <circle gorn="0.66" cx="54" style="fill:none;stroke:#9a916c;stroke-width:1.03522003" connectorname="E" r="2.21839" id="connector42pin" cy="72" />
    <circle gorn="0.67" cx="54" style="fill:none;stroke:#9a916c;stroke-width:1.03522003" connectorname="E" r="2.21839" id="connector43pin" cy="64.800003" />
    <circle gorn="0.68" cx="54" style="fill:none;stroke:#9a916c;stroke-width:1.03522003" connectorname="E" r="2.21839" id="connector44pin" cy="57.599998" />
    <circle gorn="0.69" cx="61.200001" style="fill:none;stroke:#9a916c;stroke-width:1.03522003" connectorname="F" r="2.21839" id="connector45pin" cy="86.400002" />
    <circle gorn="0.70" cx="61.200001" style="fill:none;stroke:#9a916c;stroke-width:1.03522003" connectorname="F" r="2.21839" id="connector46pin" cy="79.199997" />
    <circle gorn="0.71" cx="61.200001" style="fill:none;stroke:#9a916c;stroke-width:1.03522003" connectorname="F" r="2.21839" id="connector47pin" cy="72" />
    <circle gorn="0.72" cx="61.200001" style="fill:none;stroke:#9a916c;stroke-width:1.03522003" connectorname="F" r="2.21839" id="connector48pin" cy="64.800003" />
    <circle gorn="0.73" cx="61.200001" style="fill:none;stroke:#9a916c;stroke-width:1.03522003" connectorname="F" r="2.21839" id="connector49pin" cy="57.599998" />
    <circle gorn="0.74" cx="68.400002" style="fill:none;stroke:#9a916c;stroke-width:1.03522003" connectorname="G" r="2.21839" id="connector50pin" cy="86.400002" />
    <circle gorn="0.75" cx="68.400002" style="fill:none;stroke:#9a916c;stroke-width:1.03522003" connectorname="G" r="2.21839" id="connector51pin" cy="79.199997" />
    <circle gorn="0.76" cx="68.400002" style="fill:none;stroke:#9a916c;stroke-width:1.03522003" connectorname="G" r="2.21839" id="connector52pin" cy="72" />
    <circle gorn="0.77" cx="68.400002" style="fill:none;stroke:#9a916c;stroke-width:1.03522003" connectorname="G" r="2.21839" id="connector53pin" cy="64.800003" />
    <circle gorn="0.78" cx="68.400002" style="fill:none;stroke:#9a916c;stroke-width:1.03522003" connectorname="G" r="2.21839" id="connector54pin" cy="57.599998" />
    <circle gorn="0.79" cx="126" style="fill:none;stroke:#9a916c;stroke-width:1.03522003" connectorname="GND" r="2.21839" id="connector55pin" cy="43.200001" />
    <circle gorn="0.80" cx="118.8" style="fill:none;stroke:#9a916c;stroke-width:1.03522003" connectorname="GND" r="2.21839" id="connector56pin" cy="43.200001" />
    <circle gorn="0.81" cx="111.6" style="fill:none;stroke:#9a916c;stroke-width:1.03522003" connectorname="GND" r="2.21839" id="connector57pin" cy="43.200001" />
    <circle gorn="0.82" cx="104.4" style="fill:none;stroke:#9a916c;stroke-width:1.03522003" connectorname="GND" r="2.21839" id="connector58pin" cy="43.200001" />
    <circle gorn="0.83" cx="97.199997" style="fill:none;stroke:#9a916c;stroke-width:1.03522003" connectorname="GND" r="2.21839" id="connector59pin" cy="43.200001" />
    <circle gorn="0.84" cx="90" style="fill:none;stroke:#9a916c;stroke-width:1.03522003" connectorname="GND" r="2.21839" id="connector60pin" cy="43.200001" />
    <circle gorn="0.85" cx="75.599998" style="fill:none;stroke:#9a916c;stroke-width:1.03522003" connectorname="GND" r="2.21839" id="connector61pin" cy="43.200001" />
    <circle gorn="0.86" cx="82.800003" style="fill:none;stroke:#9a916c;stroke-width:1.03522003" connectorname="GND" r="2.21839" id="connector62pin" cy="43.200001" />
    <circle gorn="0.87" cx="68.400002" style="fill:none;stroke:#9a916c;stroke-width:1.03522003" connectorname="GND" r="2.21839" id="connector63pin" cy="43.200001" />
    <circle gorn="0.88" cx="61.200001" style="fill:none;stroke:#9a916c;stroke-width:1.03522003" connectorname="GND" r="2.21839" id="connector64pin" cy="43.200001" />
    <circle gorn="0.89" cx="54" style="fill:none;stroke:#9a916c;stroke-width:1.03522003" connectorname="GND" r="2.21839" id="connector65pin" cy="43.200001" />
    <circle gorn="0.90" cx="46.799999" style="fill:none;stroke:#9a916c;stroke-width:1.03522003" connectorname="GND" r="2.21839" id="connector66pin" cy="43.200001" />
    <circle gorn="0.91" cx="39.599998" style="fill:none;stroke:#9a916c;stroke-width:1.03522003" connectorname="GND" r="2.21839" id="connector67pin" cy="43.200001" />
    <circle gorn="0.92" cx="32.400002" style="fill:none;stroke:#9a916c;stroke-width:1.03522003" connectorname="GND" r="2.21839" id="connector68pin" cy="43.200001" />
    <circle gorn="0.93" cx="25.200001" style="fill:none;stroke:#9a916c;stroke-width:1.03522003" connectorname="GND" r="2.21839" id="connector69pin" cy="43.200001" />
    <circle gorn="0.94" cx="75.599998" style="fill:none;stroke:#9a916c;stroke-width:1.03522003" connectorname="H" r="2.21839" id="connector70pin" cy="86.400002" />
    <circle gorn="0.95" cx="75.599998" style="fill:none;stroke:#9a916c;stroke-width:1.03522003" connectorname="H" r="2.21839" id="connector71pin" cy="79.199997" />
    <circle gorn="0.96" cx="75.599998" style="fill:none;stroke:#9a916c;stroke-width:1.03522003" connectorname="H" r="2.21839" id="connector72pin" cy="72" />
    <circle gorn="0.97" cx="75.599998" style="fill:none;stroke:#9a916c;stroke-width:1.03522003" connectorname="H" r="2.21839" id="connector73pin" cy="64.800003" />
    <circle gorn="0.98" cx="75.599998" style="fill:none;stroke:#9a916c;stroke-width:1.03522003" connectorname="H" r="2.21839" id="connector74pin" cy="57.599998" />
    <circle gorn="0.99" cx="82.800003" style="fill:none;stroke:#9a916c;stroke-width:1.03522003" connectorname="I" r="2.21839" id="connector75pin" cy="86.400002" />
    <circle gorn="0.100" cx="82.800003" style="fill:none;stroke:#9a916c;stroke-width:1.03522003" connectorname="I" r="2.21839" id="connector76pin" cy="79.199997" />
    <circle gorn="0.101" cx="82.800003" style="fill:none;stroke:#9a916c;stroke-width:1.03522003" connectorname="I" r="2.21839" id="connector77pin" cy="72" />
    <circle gorn="0.102" cx="82.800003" style="fill:none;stroke:#9a916c;stroke-width:1.03522003" connectorname="I" r="2.21839" id="connector78pin" cy="64.800003" />
    <circle gorn="0.103" cx="82.800003" style="fill:none;stroke:#9a916c;stroke-width:1.03522003" connectorname="I" r="2.21839" id="connector79pin" cy="57.599998" />
    <circle gorn="0.104" cx="90" style="fill:none;stroke:#9a916c;stroke-width:1.03522003" connectorname="J" r="2.21839" id="connector80pin" cy="86.400002" />
    <circle gorn="0.105" cx="90" style="fill:none;stroke:#9a916c;stroke-width:1.03522003" connectorname="J" r="2.21839" id="connector81pin" cy="79.199997" />
    <circle gorn="0.106" cx="90" style="fill:none;stroke:#9a916c;stroke-width:1.03522003" connectorname="J" r="2.21839" id="connector82pin" cy="72" />
    <circle gorn="0.107" cx="90" style="fill:none;stroke:#9a916c;stroke-width:1.03522003" connectorname="J" r="2.21839" id="connector83pin" cy="64.800003" />
    <circle gorn="0.108" cx="90" style="fill:none;stroke:#9a916c;stroke-width:1.03522003" connectorname="J" r="2.21839" id="connector84pin" cy="57.599998" />
    <circle gorn="0.109" cx="97.199997" style="fill:none;stroke:#9a916c;stroke-width:1.03522003" connectorname="K" r="2.21839" id="connector85pin" cy="86.400002" />
    <circle gorn="0.110" cx="97.199997" style="fill:none;stroke:#9a916c;stroke-width:1.03522003" connectorname="K" r="2.21839" id="connector86pin" cy="79.199997" />
    <circle gorn="0.111" cx="97.199997" style="fill:none;stroke:#9a916c;stroke-width:1.03522003" connectorname="K" r="2.21839" id="connector87pin" cy="72" />
    <circle gorn="0.112" cx="97.199997" style="fill:none;stroke:#9a916c;stroke-width:1.03522003" connectorname="K" r="2.21839" id="connector88pin" cy="64.800003" />
    <circle gorn="0.113" cx="97.199997" style="fill:none;stroke:#9a916c;stroke-width:1.03522003" connectorname="K" r="2.21839" id="connector89pin" cy="57.599998" />
    <circle gorn="0.114" cx="104.4" style="fill:none;stroke:#9a916c;stroke-width:1.03522003" connectorname="L" r="2.21839" id="connector90pin" cy="86.400002" />
    <circle gorn="0.115" cx="104.4" style="fill:none;stroke:#9a916c;stroke-width:1.03522003" connectorname="L" r="2.21839" id="connector91pin" cy="79.199997" />
    <circle gorn="0.116" cx="104.4" style="fill:none;stroke:#9a916c;stroke-width:1.03522003" connectorname="L" r="2.21839" id="connector92pin" cy="72" />
    <circle gorn="0.117" cx="104.4" style="fill:none;stroke:#9a916c;stroke-width:1.03522003" connectorname="L" r="2.21839" id="connector93pin" cy="64.800003" />
    <circle gorn="0.118" cx="104.4" style="fill:none;stroke:#9a916c;stroke-width:1.03522003" connectorname="L" r="2.21839" id="connector94pin" cy="57.599998" />
    <circle gorn="0.119" cx="111.6" style="fill:none;stroke:#9a916c;stroke-width:1.03522003" connectorname="M" r="2.21839" id="connector95pin" cy="86.400002" />
    <circle gorn="0.120" cx="111.6" style="fill:none;stroke:#9a916c;stroke-width:1.03522003" connectorname="M" r="2.21839" id="connector96pin" cy="79.199997" />
    <circle gorn="0.121" cx="111.6" style="fill:none;stroke:#9a916c;stroke-width:1.03522003" connectorname="M" r="2.21839" id="connector97pin" cy="72" />
    <circle gorn="0.122" cx="111.6" style="fill:none;stroke:#9a916c;stroke-width:1.03522003" connectorname="M" r="2.21839" id="connector98pin" cy="64.800003" />
    <circle gorn="0.123" cx="111.6" style="fill:none;stroke:#9a916c;stroke-width:1.03522003" connectorname="M" r="2.21839" id="connector99pin" cy="57.599998" />
    <circle gorn="0.124" cx="118.8" style="fill:none;stroke:#9a916c;stroke-width:1.03522003" connectorname="N" r="2.21839" id="connector100pin" cy="86.400002" />
    <circle gorn="0.125" cx="118.8" style="fill:none;stroke:#9a916c;stroke-width:1.03522003" connectorname="N" r="2.21839" id="connector101pin" cy="79.199997" />
    <circle gorn="0.126" cx="118.8" style="fill:none;stroke:#9a916c;stroke-width:1.03522003" connectorname="N" r="2.21839" id="connector102pin" cy="72" />
    <circle gorn="0.127" cx="118.8" style="fill:none;stroke:#9a916c;stroke-width:1.03522003" connectorname="N" r="2.21839" id="connector103pin" cy="64.800003" />
    <circle gorn="0.128" cx="118.8" style="fill:none;stroke:#9a916c;stroke-width:1.03522003" connectorname="N" r="2.21839" id="connector104pin" cy="57.599998" />
    <circle gorn="0.129" cx="18" style="fill:none;stroke:#9a916c;stroke-width:1.03522003" connectorname="N$16" r="2.21839" id="connector105pin" cy="21.6" />
    <circle gorn="0.130" cx="18" style="fill:none;stroke:#9a916c;stroke-width:1.03522003" connectorname="N$17" r="2.21839" id="connector106pin" cy="28.799999" />
    <circle gorn="0.131" cx="18" style="fill:none;stroke:#9a916c;stroke-width:1.03522003" connectorname="N$18" r="2.21839" id="connector107pin" cy="36" />
    <circle gorn="0.132" cx="10.8" style="fill:none;stroke:#9a916c;stroke-width:1.03522003" connectorname="N$19" r="2.21839" id="connector108pin" cy="36" />
    <circle gorn="0.133" cx="10.8" style="fill:none;stroke:#9a916c;stroke-width:1.03522003" connectorname="N$20" r="2.21839" id="connector109pin" cy="28.799999" />
    <circle gorn="0.134" cx="10.8" style="fill:none;stroke:#9a916c;stroke-width:1.03522003" connectorname="N$21" r="2.21839" id="connector110pin" cy="21.6" />
    <circle gorn="0.135" cx="3.5999999" style="fill:none;stroke:#9a916c;stroke-width:1.03522003" connectorname="N$22" r="2.21839" id="connector111pin" cy="21.6" />
    <circle gorn="0.136" cx="3.5999999" style="fill:none;stroke:#9a916c;stroke-width:1.03522003" connectorname="N$23" r="2.21839" id="connector112pin" cy="28.799999" />
    <circle gorn="0.137" cx="3.5999999" style="fill:none;stroke:#9a916c;stroke-width:1.03522003" connectorname="N$24" r="2.21839" id="connector113pin" cy="36" />
    <circle gorn="0.138" cx="3.5999999" style="fill:none;stroke:#9a916c;stroke-width:1.03522003" connectorname="N$25" r="2.21839" id="connector114pin" cy="43.200001" />
    <circle gorn="0.139" cx="10.8" style="fill:none;stroke:#9a916c;stroke-width:1.03522003" connectorname="N$26" r="2.21839" id="connector115pin" cy="43.200001" />
    <circle gorn="0.140" cx="18" style="fill:none;stroke:#9a916c;stroke-width:1.03522003" connectorname="N$27" r="2.21839" id="connector116pin" cy="43.200001" />
    <circle gorn="0.141" cx="18" style="fill:none;stroke:#9a916c;stroke-width:1.03522003" connectorname="N$28" r="2.21839" id="connector117pin" cy="50.400002" />
    <circle gorn="0.142" cx="10.8" style="fill:none;stroke:#9a916c;stroke-width:1.03522003" connectorname="N$29" r="2.21839" id="connector118pin" cy="50.400002" />
    <circle gorn="0.143" cx="3.5999999" style="fill:none;stroke:#9a916c;stroke-width:1.03522003" connectorname="N$30" r="2.21839" id="connector119pin" cy="50.400002" />
    <circle gorn="0.144" cx="3.5999999" style="fill:none;stroke:#9a916c;stroke-width:1.03522003" connectorname="N$31" r="2.21839" id="connector120pin" cy="57.599998" />
    <circle gorn="0.145" cx="10.8" style="fill:none;stroke:#9a916c;stroke-width:1.03522003" connectorname="N$32" r="2.21839" id="connector121pin" cy="57.599998" />
    <circle gorn="0.146" cx="18" style="fill:none;stroke:#9a916c;stroke-width:1.03522003" connectorname="N$33" r="2.21839" id="connector122pin" cy="57.599998" />
    <circle gorn="0.147" cx="18" style="fill:none;stroke:#9a916c;stroke-width:1.03522003" connectorname="N$34" r="2.21839" id="connector123pin" cy="64.800003" />
    <circle gorn="0.148" cx="10.8" style="fill:none;stroke:#9a916c;stroke-width:1.03522003" connectorname="N$35" r="2.21839" id="connector124pin" cy="64.800003" />
    <circle gorn="0.149" cx="3.5999999" style="fill:none;stroke:#9a916c;stroke-width:1.03522003" connectorname="N$36" r="2.21839" id="connector125pin" cy="64.800003" />
    <circle gorn="0.150" cx="3.5999999" style="fill:none;stroke:#9a916c;stroke-width:1.03522003" connectorname="N$37" r="2.21839" id="connector126pin" cy="72" />
    <circle gorn="0.151" cx="10.8" style="fill:none;stroke:#9a916c;stroke-width:1.03522003" connectorname="N$38" r="2.21839" id="connector127pin" cy="72" />
    <circle gorn="0.152" cx="18" style="fill:none;stroke:#9a916c;stroke-width:1.03522003" connectorname="N$39" r="2.21839" id="connector128pin" cy="72" />
    <circle gorn="0.153" cx="133.2" style="fill:none;stroke:#9a916c;stroke-width:1.03522003" connectorname="N$40" r="2.21839" id="connector129pin" cy="21.6" />
    <circle gorn="0.154" cx="133.2" style="fill:none;stroke:#9a916c;stroke-width:1.03522003" connectorname="N$41" r="2.21839" id="connector130pin" cy="28.799999" />
    <circle gorn="0.155" cx="133.2" style="fill:none;stroke:#9a916c;stroke-width:1.03522003" connectorname="N$42" r="2.21839" id="connector131pin" cy="36" />
    <circle gorn="0.156" cx="140.39999" style="fill:none;stroke:#9a916c;stroke-width:1.03522003" connectorname="N$43" r="2.21839" id="connector132pin" cy="36" />
    <circle gorn="0.157" cx="140.39999" style="fill:none;stroke:#9a916c;stroke-width:1.03522003" connectorname="N$44" r="2.21839" id="connector133pin" cy="28.799999" />
    <circle gorn="0.158" cx="140.39999" style="fill:none;stroke:#9a916c;stroke-width:1.03522003" connectorname="N$45" r="2.21839" id="connector134pin" cy="21.6" />
    <circle gorn="0.159" cx="147.60001" style="fill:none;stroke:#9a916c;stroke-width:1.03522003" connectorname="N$46" r="2.21839" id="connector135pin" cy="21.6" />
    <circle gorn="0.160" cx="147.60001" style="fill:none;stroke:#9a916c;stroke-width:1.03522003" connectorname="N$47" r="2.21839" id="connector136pin" cy="28.799999" />
    <circle gorn="0.161" cx="147.60001" style="fill:none;stroke:#9a916c;stroke-width:1.03522003" connectorname="N$65" r="2.21839" id="connector137pin" cy="36" />
    <circle gorn="0.162" cx="147.60001" style="fill:none;stroke:#9a916c;stroke-width:1.03522003" connectorname="N$66" r="2.21839" id="connector138pin" cy="43.200001" />
    <circle gorn="0.163" cx="147.60001" style="fill:none;stroke:#9a916c;stroke-width:1.03522003" connectorname="N$67" r="2.21839" id="connector139pin" cy="50.400002" />
    <circle gorn="0.164" cx="147.60001" style="fill:none;stroke:#9a916c;stroke-width:1.03522003" connectorname="N$68" r="2.21839" id="connector140pin" cy="57.599998" />
    <circle gorn="0.165" cx="147.60001" style="fill:none;stroke:#9a916c;stroke-width:1.03522003" connectorname="N$69" r="2.21839" id="connector141pin" cy="64.800003" />
    <circle gorn="0.166" cx="147.60001" style="fill:none;stroke:#9a916c;stroke-width:1.03522003" connectorname="N$70" r="2.21839" id="connector142pin" cy="72" />
    <circle gorn="0.167" cx="140.39999" style="fill:none;stroke:#9a916c;stroke-width:1.03522003" connectorname="N$71" r="2.21839" id="connector143pin" cy="72" />
    <circle gorn="0.168" cx="133.2" style="fill:none;stroke:#9a916c;stroke-width:1.03522003" connectorname="N$72" r="2.21839" id="connector144pin" cy="72" />
    <circle gorn="0.169" cx="140.39999" style="fill:none;stroke:#9a916c;stroke-width:1.03522003" connectorname="N$73" r="2.21839" id="connector145pin" cy="64.800003" />
    <circle gorn="0.170" cx="133.2" style="fill:none;stroke:#9a916c;stroke-width:1.03522003" connectorname="N$74" r="2.21839" id="connector146pin" cy="64.800003" />
    <circle gorn="0.171" cx="133.2" style="fill:none;stroke:#9a916c;stroke-width:1.03522003" connectorname="N$75" r="2.21839" id="connector147pin" cy="57.599998" />
    <circle gorn="0.172" cx="140.39999" style="fill:none;stroke:#9a916c;stroke-width:1.03522003" connectorname="N$76" r="2.21839" id="connector148pin" cy="57.599998" />
    <circle gorn="0.173" cx="140.39999" style="fill:none;stroke:#9a916c;stroke-width:1.03522003" connectorname="N$77" r="2.21839" id="connector149pin" cy="50.400002" />
    <circle gorn="0.174" cx="133.2" style="fill:none;stroke:#9a916c;stroke-width:1.03522003" connectorname="N$78" r="2.21839" id="connector150pin" cy="50.400002" />
    <circle gorn="0.175" cx="133.2" style="fill:none;stroke:#9a916c;stroke-width:1.03522003" connectorname="N$79" r="2.21839" id="connector151pin" cy="43.200001" />
    <circle gorn="0.176" cx="140.39999" style="fill:none;stroke:#9a916c;stroke-width:1.03522003" connectorname="N$80" r="2.21839" id="connector152pin" cy="43.200001" />
    <circle gorn="0.177" cx="126" style="fill:none;stroke:#9a916c;stroke-width:1.03522003" connectorname="O" r="2.21839" id="connector153pin" cy="86.400002" />
    <circle gorn="0.178" cx="126" style="fill:none;stroke:#9a916c;stroke-width:1.03522003" connectorname="O" r="2.21839" id="connector154pin" cy="79.199997" />
    <circle gorn="0.179" cx="126" style="fill:none;stroke:#9a916c;stroke-width:1.03522003" connectorname="O" r="2.21839" id="connector155pin" cy="72" />
    <circle gorn="0.180" cx="126" style="fill:none;stroke:#9a916c;stroke-width:1.03522003" connectorname="O" r="2.21839" id="connector156pin" cy="64.800003" />
    <circle gorn="0.181" cx="126" style="fill:none;stroke:#9a916c;stroke-width:1.03522003" connectorname="O" r="2.21839" id="connector157pin" cy="57.599998" />
    <circle gorn="0.182" cx="126" style="fill:none;stroke:#9a916c;stroke-width:1.03522003" connectorname="P" r="2.21839" id="connector158pin" cy="7.1999998" />
    <circle gorn="0.183" cx="126" style="fill:none;stroke:#9a916c;stroke-width:1.03522003" connectorname="P" r="2.21839" id="connector159pin" cy="14.4" />
    <circle gorn="0.184" cx="126" style="fill:none;stroke:#9a916c;stroke-width:1.03522003" connectorname="P" r="2.21839" id="connector160pin" cy="21.6" />
    <circle gorn="0.185" cx="126" style="fill:none;stroke:#9a916c;stroke-width:1.03522003" connectorname="P" r="2.21839" id="connector161pin" cy="28.799999" />
    <circle gorn="0.186" cx="126" style="fill:none;stroke:#9a916c;stroke-width:1.03522003" connectorname="P" r="2.21839" id="connector162pin" cy="36" />
    <circle gorn="0.187" cx="126" style="fill:none;stroke:#9a916c;stroke-width:1.03522003" connectorname="PWR" r="2.21839" id="connector163pin" cy="50.400002" />
    <circle gorn="0.188" cx="118.8" style="fill:none;stroke:#9a916c;stroke-width:1.03522003" connectorname="PWR" r="2.21839" id="connector164pin" cy="50.400002" />
    <circle gorn="0.189" cx="111.6" style="fill:none;stroke:#9a916c;stroke-width:1.03522003" connectorname="PWR" r="2.21839" id="connector165pin" cy="50.400002" />
    <circle gorn="0.190" cx="104.4" style="fill:none;stroke:#9a916c;stroke-width:1.03522003" connectorname="PWR" r="2.21839" id="connector166pin" cy="50.400002" />
    <circle gorn="0.191" cx="97.199997" style="fill:none;stroke:#9a916c;stroke-width:1.03522003" connectorname="PWR" r="2.21839" id="connector167pin" cy="50.400002" />
    <circle gorn="0.192" cx="90" style="fill:none;stroke:#9a916c;stroke-width:1.03522003" connectorname="PWR" r="2.21839" id="connector168pin" cy="50.400002" />
    <circle gorn="0.193" cx="75.599998" style="fill:none;stroke:#9a916c;stroke-width:1.03522003" connectorname="PWR" r="2.21839" id="connector169pin" cy="50.400002" />
    <circle gorn="0.194" cx="82.800003" style="fill:none;stroke:#9a916c;stroke-width:1.03522003" connectorname="PWR" r="2.21839" id="connector170pin" cy="50.400002" />
    <circle gorn="0.195" cx="68.400002" style="fill:none;stroke:#9a916c;stroke-width:1.03522003" connectorname="PWR" r="2.21839" id="connector171pin" cy="50.400002" />
    <circle gorn="0.196" cx="61.200001" style="fill:none;stroke:#9a916c;stroke-width:1.03522003" connectorname="PWR" r="2.21839" id="connector172pin" cy="50.400002" />
    <circle gorn="0.197" cx="54" style="fill:none;stroke:#9a916c;stroke-width:1.03522003" connectorname="PWR" r="2.21839" id="connector173pin" cy="50.400002" />
    <circle gorn="0.198" cx="46.799999" style="fill:none;stroke:#9a916c;stroke-width:1.03522003" connectorname="PWR" r="2.21839" id="connector174pin" cy="50.400002" />
    <circle gorn="0.199" cx="39.599998" style="fill:none;stroke:#9a916c;stroke-width:1.03522003" connectorname="PWR" r="2.21839" id="connector175pin" cy="50.400002" />
    <circle gorn="0.200" cx="32.400002" style="fill:none;stroke:#9a916c;stroke-width:1.03522003" connectorname="PWR" r="2.21839" id="connector176pin" cy="50.400002" />
    <circle gorn="0.201" cx="25.200001" style="fill:none;stroke:#9a916c;stroke-width:1.03522003" connectorname="PWR" r="2.21839" id="connector177pin" cy="50.400002" />
    <circle gorn="0.202" cx="118.8" style="fill:none;stroke:#9a916c;stroke-width:1.03522003" connectorname="Q" r="2.21839" id="connector178pin" cy="7.1999998" />
    <circle gorn="0.203" cx="118.8" style="fill:none;stroke:#9a916c;stroke-width:1.03522003" connectorname="Q" r="2.21839" id="connector179pin" cy="14.4" />
    <circle gorn="0.204" cx="118.8" style="fill:none;stroke:#9a916c;stroke-width:1.03522003" connectorname="Q" r="2.21839" id="connector180pin" cy="21.6" />
    <circle gorn="0.205" cx="118.8" style="fill:none;stroke:#9a916c;stroke-width:1.03522003" connectorname="Q" r="2.21839" id="connector181pin" cy="28.799999" />
    <circle gorn="0.206" cx="118.8" style="fill:none;stroke:#9a916c;stroke-width:1.03522003" connectorname="Q" r="2.21839" id="connector182pin" cy="36" />
    <circle gorn="0.207" cx="111.6" style="fill:none;stroke:#9a916c;stroke-width:1.03522003" connectorname="R" r="2.21839" id="connector183pin" cy="7.1999998" />
    <circle gorn="0.208" cx="111.6" style="fill:none;stroke:#9a916c;stroke-width:1.03522003" connectorname="R" r="2.21839" id="connector184pin" cy="14.4" />
    <circle gorn="0.209" cx="111.6" style="fill:none;stroke:#9a916c;stroke-width:1.03522003" connectorname="R" r="2.21839" id="connector185pin" cy="21.6" />
    <circle gorn="0.210" cx="111.6" style="fill:none;stroke:#9a916c;stroke-width:1.03522003" connectorname="R" r="2.21839" id="connector186pin" cy="28.799999" />
    <circle gorn="0.211" cx="111.6" style="fill:none;stroke:#9a916c;stroke-width:1.03522003" connectorname="R" r="2.21839" id="connector187pin" cy="36" />
    <circle gorn="0.212" cx="104.4" style="fill:none;stroke:#9a916c;stroke-width:1.03522003" connectorname="S" r="2.21839" id="connector188pin" cy="7.1999998" />
    <circle gorn="0.213" cx="104.4" style="fill:none;stroke:#9a916c;stroke-width:1.03522003" connectorname="S" r="2.21839" id="connector189pin" cy="14.4" />
    <circle gorn="0.214" cx="104.4" style="fill:none;stroke:#9a916c;stroke-width:1.03522003" connectorname="S" r="2.21839" id="connector190pin" cy="21.6" />
    <circle gorn="0.215" cx="104.4" style="fill:none;stroke:#9a916c;stroke-width:1.03522003" connectorname="S" r="2.21839" id="connector191pin" cy="28.799999" />
    <circle gorn="0.216" cx="104.4" style="fill:none;stroke:#9a916c;stroke-width:1.03522003" connectorname="S" r="2.21839" id="connector192pin" cy="36" />
    <circle gorn="0.217" cx="97.199997" style="fill:none;stroke:#9a916c;stroke-width:1.03522003" connectorname="T" r="2.21839" id="connector193pin" cy="7.1999998" />
    <circle gorn="0.218" cx="97.199997" style="fill:none;stroke:#9a916c;stroke-width:1.03522003" connectorname="T" r="2.21839" id="connector194pin" cy="14.4" />
    <circle gorn="0.219" cx="97.199997" style="fill:none;stroke:#9a916c;stroke-width:1.03522003" connectorname="T" r="2.21839" id="connector195pin" cy="21.6" />
    <circle gorn="0.220" cx="97.199997" style="fill:none;stroke:#9a916c;stroke-width:1.03522003" connectorname="T" r="2.21839" id="connector196pin" cy="28.799999" />
    <circle gorn="0.221" cx="97.199997" style="fill:none;stroke:#9a916c;stroke-width:1.03522003" connectorname="T" r="2.21839" id="connector197pin" cy="36" />
    <circle gorn="0.222" cx="90" style="fill:none;stroke:#9a916c;stroke-width:1.03522003" connectorname="U" r="2.21839" id="connector198pin" cy="7.1999998" />
    <circle gorn="0.223" cx="90" style="fill:none;stroke:#9a916c;stroke-width:1.03522003" connectorname="U" r="2.21839" id="connector199pin" cy="14.4" />
    <circle gorn="0.224" cx="90" style="fill:none;stroke:#9a916c;stroke-width:1.03522003" connectorname="U" r="2.21839" id="connector200pin" cy="21.6" />
    <circle gorn="0.225" cx="90" style="fill:none;stroke:#9a916c;stroke-width:1.03522003" connectorname="U" r="2.21839" id="connector201pin" cy="28.799999" />
    <circle gorn="0.226" cx="90" style="fill:none;stroke:#9a916c;stroke-width:1.03522003" connectorname="U" r="2.21839" id="connector202pin" cy="36" />
    <circle gorn="0.227" cx="82.800003" style="fill:none;stroke:#9a916c;stroke-width:1.03522003" connectorname="V" r="2.21839" id="connector203pin" cy="7.1999998" />
    <circle gorn="0.228" cx="82.800003" style="fill:none;stroke:#9a916c;stroke-width:1.03522003" connectorname="V" r="2.21839" id="connector204pin" cy="14.4" />
    <circle gorn="0.229" cx="82.800003" style="fill:none;stroke:#9a916c;stroke-width:1.03522003" connectorname="V" r="2.21839" id="connector205pin" cy="21.6" />
    <circle gorn="0.230" cx="82.800003" style="fill:none;stroke:#9a916c;stroke-width:1.03522003" connectorname="V" r="2.21839" id="connector206pin" cy="28.799999" />
    <circle gorn="0.231" cx="82.800003" style="fill:none;stroke:#9a916c;stroke-width:1.03522003" connectorname="V" r="2.21839" id="connector207pin" cy="36" />
    <circle gorn="0.232" cx="75.599998" style="fill:none;stroke:#9a916c;stroke-width:1.03522003" connectorname="W" r="2.21839" id="connector208pin" cy="7.1999998" />
    <circle gorn="0.233" cx="75.599998" style="fill:none;stroke:#9a916c;stroke-width:1.03522003" connectorname="W" r="2.21839" id="connector209pin" cy="14.4" />
    <circle gorn="0.234" cx="75.599998" style="fill:none;stroke:#9a916c;stroke-width:1.03522003" connectorname="W" r="2.21839" id="connector210pin" cy="21.6" />
    <circle gorn="0.235" cx="75.599998" style="fill:none;stroke:#9a916c;stroke-width:1.03522003" connectorname="W" r="2.21839" id="connector211pin" cy="36" />
    <circle gorn="0.236" cx="75.599998" style="fill:none;stroke:#9a916c;stroke-width:1.03522003" connectorname="W" r="2.21839" id="connector212pin" cy="28.799999" />
    <circle gorn="0.237" cx="68.400002" style="fill:none;stroke:#9a916c;stroke-width:1.03522003" connectorname="X" r="2.21839" id="connector213pin" cy="7.1999998" />
    <circle gorn="0.238" cx="68.400002" style="fill:none;stroke:#9a916c;stroke-width:1.03522003" connectorname="X" r="2.21839" id="connector214pin" cy="14.4" />
    <circle gorn="0.239" cx="68.400002" style="fill:none;stroke:#9a916c;stroke-width:1.03522003" connectorname="X" r="2.21839" id="connector215pin" cy="21.6" />
    <circle gorn="0.240" cx="68.400002" style="fill:none;stroke:#9a916c;stroke-width:1.03522003" connectorname="X" r="2.21839" id="connector216pin" cy="28.799999" />
    <circle gorn="0.241" cx="68.400002" style="fill:none;stroke:#9a916c;stroke-width:1.03522003" connectorname="X" r="2.21839" id="connector217pin" cy="36" />
    <circle gorn="0.242" cx="61.200001" style="fill:none;stroke:#9a916c;stroke-width:1.03522003" connectorname="Y" r="2.21839" id="connector218pin" cy="7.1999998" />
    <circle gorn="0.243" cx="61.200001" style="fill:none;stroke:#9a916c;stroke-width:1.03522003" connectorname="Y" r="2.21839" id="connector219pin" cy="14.4" />
    <circle gorn="0.244" cx="61.200001" style="fill:none;stroke:#9a916c;stroke-width:1.03522003" connectorname="Y" r="2.21839" id="connector220pin" cy="21.6" />
    <circle gorn="0.245" cx="61.200001" style="fill:none;stroke:#9a916c;stroke-width:1.03522003" connectorname="Y" r="2.21839" id="connector221pin" cy="28.799999" />
    <circle gorn="0.246" cx="61.200001" style="fill:none;stroke:#9a916c;stroke-width:1.03522003" connectorname="Y" r="2.21839" id="connector222pin" cy="36" />
    <circle gorn="0.247" cx="54" style="fill:none;stroke:#9a916c;stroke-width:1.03522003" connectorname="Z" r="2.21839" id="connector223pin" cy="7.1999998" />
    <circle gorn="0.248" cx="54" style="fill:none;stroke:#9a916c;stroke-width:1.03522003" connectorname="Z" r="2.21839" id="connector224pin" cy="14.4" />
    <circle gorn="0.249" cx="54" style="fill:none;stroke:#9a916c;stroke-width:1.03522003" connectorname="Z" r="2.21839" id="connector225pin" cy="21.6" />
    <circle gorn="0.250" cx="54" style="fill:none;stroke:#9a916c;stroke-width:1.03522003" connectorname="Z" r="2.21839" id="connector226pin" cy="28.799999" />
    <circle gorn="0.251" cx="54" style="fill:none;stroke:#9a916c;stroke-width:1.03522003" connectorname="Z" r="2.21839" id="connector227pin" cy="36" />
    <g transform="translate(13.6821,84.546)" >
        <g gorn="0.252.0" style="fill:#000000" id="adafruit_2.5mm" >
            <path gorn="0.252.0.0" style="fill:#000000" id="path383" d="m 8.2742727,3.5729091 c -0.023,-0.142 -0.1,-0.183 -0.286,-0.243 -0.14197,-0.045 -1.08898,-0.347 -1.08898,-0.347 0,0 -0.66,-0.249 -1.15,0.103 -0.066,0.048 -0.134,0.102 -0.203,0.16 0.058,-0.069 0.112,-0.137 0.159,-0.203 0.352,-0.49 0.101,-1.15 0.101,-1.15 0,0 -0.30302,-0.94699998 -0.34902,-1.08899998 -0.06,-0.186 -0.1,-0.263 -0.243,-0.285 -0.142,-0.023 -0.204,0.038 -0.318,0.197 -0.087,0.12 -0.667,0.92800098 -0.667,0.92800098 0,0 -0.441,0.550999 -0.257,1.125999 0.025,0.077 0.055,0.159 0.089,0.242 -0.048,-0.076 -0.096,-0.149 -0.144,-0.214 -0.358,-0.486 -1.062,-0.452 -1.062,-0.452 0,0 -0.995,-0.004 -1.143,-0.004 -0.195,0 -0.281,0.014 -0.347,0.143 -0.065,0.128 -0.027,0.206 0.089,0.364 0.088,0.12 0.677,0.921002 0.677,0.921002 0,0 0.388,0.59 0.991001,0.592 0.081,0 0.168,-0.003 0.257,-0.01 -0.087001,0.021998 -0.171001,0.045998 -0.248001,0.070998 -0.573,0.19 -0.758002,0.870998 -0.758002,0.870998 0,0 -0.31,0.943999 -0.357,1.085 -0.060998,0.186002 -0.072998,0.272002 0.029002,0.374002 0.102,0.102 0.188,0.09 0.374,0.028 0.141,-0.046 1.085,-0.359 1.085,-0.359 0,0 0.681,-0.187 0.868997,-0.760003 0.025,-0.077 0.049,-0.16 0.07,-0.247 -0.006,0.090003 -0.009,0.176003 -0.009,0.257003 0.004,0.603 0.594,0.99 0.594,0.99 0,0 0.802001,0.588 0.922003,0.675 0.158017,0.116 0.235997,0.154 0.365017,0.089 0.12795,-0.066 0.143,-0.152 0.14199,-0.347 -0.00101,-0.149 -0.00598,-1.143 -0.00598,-1.143 0,0 0.03298,-0.705 -0.45403,-1.062 -0.06502,-0.048 -0.13802,-0.096 -0.21398,-0.143 0.083,0.034 0.165,0.064 0.242,0.088 0.575,0.183 1.125,-0.259 1.125,-0.259 0,0 0.80696,-0.5809998 0.92699,-0.6679998 0.15897,-0.1150002 0.21902,-0.1770002 0.19699,-0.3190002 z m -3.425,-0.732 c 0.108,0.017 0.162,0.248 0.12,0.515 -0.042,0.267 -0.164,0.47 -0.273,0.453 -0.108,-0.017 -0.162,-0.248 -0.12,-0.515 0.042,-0.268 0.164,-0.471 0.273,-0.453 z m -1.389,0.709 c 0.05,-0.098 0.286,-0.078 0.527,0.045 0.241,0.123 0.397,0.302 0.347,0.399 -0.05,0.098 -0.286,0.078 -0.527,-0.045 -0.242,-0.123 -0.397,-0.301 -0.347,-0.399 z m 0.732,1.334 c -0.191,0.191 -0.409,0.284 -0.487,0.206 -0.077,-0.078 0.015,-0.296 0.206,-0.487 0.191,-0.192 0.409,-0.285 0.487,-0.207 0.078,0.078 -0.014,0.296 -0.206,0.488 z m 1.054,0.449 c -0.098,0.05 -0.277,-0.105 -0.4,-0.346 -0.123,-0.242 -0.144,-0.478 -0.046,-0.528 0.098,-0.05 0.277,0.105 0.4,0.346 0.123,0.242 0.144,0.478 0.046,0.528 z m 0.254,-1.117 c -0.267,0.042 -0.498,-0.011 -0.516,-0.119 -0.017,-0.109 0.186,-0.231 0.453,-0.274 0.267,-0.043 0.498,0.011 0.515,0.119 0.018,0.109 -0.18497,0.231 -0.452,0.274 z" />
        </g>
    </g>
    <g transform="translate(126.67291,85.036909)" >
        <g gorn="0.253.0" style="fill:#000000" id="g385" >
            <path gorn="0.253.0.0" style="fill:#000000" id="path387" d="M 9.747,3.082 C 9.724,2.94 9.647,2.899 9.461,2.839 9.31903,2.794 8.37202,2.492 8.37202,2.492 c 0,0 -0.66,-0.249 -1.15,0.103 -0.066,0.048 -0.134,0.102 -0.203,0.16 0.058,-0.069 0.112,-0.137 0.159,-0.203 0.352,-0.49 0.101,-1.15 0.101,-1.15 0,0 -0.30302,-0.947 -0.34902,-1.089 C 6.87,0.127 6.83,0.05 6.687,0.028 6.545,0.005 6.483,0.066 6.369,0.225 6.282,0.345 5.702,1.153001 5.702,1.153001 5.702,1.153001 5.261,1.704 5.445,2.279 5.47,2.356 5.5,2.438 5.534,2.521 5.486,2.445 5.438,2.372 5.39,2.307 5.032,1.821 4.328,1.855 4.328,1.855 c 0,0 -0.995,-0.004 -1.143,-0.004 -0.195,0 -0.281,0.014 -0.347,0.143 -0.065,0.128 -0.027,0.206 0.089,0.364 0.088,0.12 0.677,0.921002 0.677,0.921002 0,0 0.388,0.59 0.991001,0.592 0.081,0 0.168,-0.003 0.257,-0.01 C 4.765,3.883 4.681,3.907 4.604,3.932 4.031,4.122 3.845998,4.802998 3.845998,4.802998 c 0,0 -0.31,0.943999 -0.357,1.085 C 3.428,6.074 3.416,6.16 3.518,6.262 3.62,6.364 3.706,6.352 3.892,6.29 4.033,6.244 4.977,5.931 4.977,5.931 c 0,0 0.681,-0.187 0.868997,-0.760003 0.025,-0.077 0.049,-0.16 0.07,-0.247 C 5.91,5.014 5.907,5.1 5.907,5.181 c 0.004,0.603 0.594,0.99 0.594,0.99 0,0 0.802001,0.588 0.922003,0.675 C 7.58102,6.962 7.659,7 7.78802,6.935 7.91597,6.869 7.93102,6.783 7.93001,6.588 7.929,6.439 7.92403,5.445 7.92403,5.445 7.92403,5.445 7.95701,4.74 7.47,4.383 7.40498,4.335 7.33198,4.287 7.25602,4.24 c 0.083,0.034 0.165,0.064 0.242,0.088 0.575,0.183 1.125,-0.259 1.125,-0.259 0,0 0.80696,-0.5809998 0.92699,-0.6679998 C 9.70898,3.286 9.76903,3.224 9.747,3.082 Z M 6.322,2.35 C 6.43,2.367 6.484,2.598 6.442,2.865 6.4,3.132 6.278,3.335 6.169,3.318 6.061,3.301 6.007,3.07 6.049,2.803 6.091,2.535 6.213,2.332 6.322,2.35 Z M 4.933,3.059 C 4.983,2.961 5.219,2.981 5.46,3.104 5.701,3.227 5.857,3.406 5.807,3.503 5.757,3.601 5.521,3.581 5.28,3.458 5.038,3.335 4.883,3.157 4.933,3.059 Z M 5.665,4.393 C 5.474,4.584 5.256,4.677 5.178,4.599 5.101,4.521 5.193,4.303 5.384,4.112 5.575,3.92 5.793,3.827 5.871,3.905 5.949,3.983 5.857,4.201 5.665,4.393 Z M 6.719,4.842 C 6.6210001,4.892 6.442,4.737 6.319,4.496 6.196,4.254 6.175,4.018 6.273,3.968 6.371,3.918 6.55,4.073 6.673,4.314 6.796,4.556 6.817,4.792 6.719,4.842 Z M 6.973,3.725 C 6.706,3.767 6.475,3.714 6.457,3.606 6.44,3.497 6.643,3.375 6.91,3.332 7.177,3.289 7.408,3.343 7.425,3.451 7.443,3.56 7.24003,3.682 6.973,3.725 Z" />
        </g>
    </g>
</svg>
