<?xml version='1.0' encoding='UTF-8' standalone='no'?>
<!-- Created with Fritzing (http://www.fritzing.org/) -->
<svg xmlns="http://www.w3.org/2000/svg"  height="0.5in" viewBox="0 0 39.6 36" x="0in" baseProfile="tiny" width="0.55in" y="0in" version="1.2">
    <desc>
        <referenceFile>Adafruit PDM Mic_breadboard.svg</referenceFile>
    </desc>
    <desc >Fritzing breadboard generated by brd2svg</desc>
    <g  id="breadboard" gorn="0.1">
        <g  id="icon" gorn="0.1.0">
            <path stroke="none"  fill="#014cb1" d="M39.6,7.2L39.6,28.8A7.2,7.2,0,0,1,32.4,36L7.2,36A7.2,7.2,0,0,1,0,28.8L0,7.2A7.2,7.2,0,0,1,7.2,0L32.4,0A7.2,7.2,0,0,1,39.6,7.2M3.98268,28.8a1.41732,1.41732,0,1,0,2.83465,0,1.41732,1.41732,0,1,0,-2.83465,0zM11.1827,28.8a1.41732,1.41732,0,1,0,2.83465,0,1.41732,1.41732,0,1,0,-2.83465,0zM18.3827,28.8a1.41732,1.41732,0,1,0,2.83465,0,1.41732,1.41732,0,1,0,-2.83465,0zM25.5827,28.8a1.41732,1.41732,0,1,0,2.83465,0,1.41732,1.41732,0,1,0,-2.83465,0zM32.7827,28.8a1.41732,1.41732,0,1,0,2.83465,0,1.41732,1.41732,0,1,0,-2.83465,0zM28.8567,7.2a3.54331,3.54331,0,1,0,7.08661,0,3.54331,3.54331,0,1,0,-7.08661,0zM3.65669,7.2a3.54331,3.54331,0,1,0,7.08661,0,3.54331,3.54331,0,1,0,-7.08661,0z" stroke-width="0"/>
            <g >
                <title >layer 21</title>
                <g >
                    <title >text:GND</title>
                    <text stroke="none"  fill="#ffffff" x="12.6" text-anchor="middle" font-family="OCRA" font-size="3.3408" y="26.1504" stroke-width="0">GND</text>
                </g>
                <g >
                    <title >text:CLK</title>
                    <text stroke="none"  fill="#ffffff" x="27" text-anchor="middle" font-family="OCRA" font-size="3.3408" y="26.1504" stroke-width="0">CLK</text>
                </g>
                <g >
                    <title >text:DAT</title>
                    <text stroke="none"  fill="#ffffff" x="33.84" text-anchor="middle" font-family="OCRA" font-size="3.3408" y="34.7904" stroke-width="0">DAT</text>
                </g>
                <g >
                    <title >text:SEL</title>
                    <text stroke="none"  fill="#ffffff" x="19.8" text-anchor="middle" font-family="OCRA" font-size="3.3408" y="34.7904" stroke-width="0">SEL</text>
                </g>
                <g >
                    <title >text:3V</title>
                    <text stroke="none"  fill="#ffffff" x="6.12" text-anchor="middle" font-family="OCRA" font-size="3.3408" y="34.7904" stroke-width="0">3V</text>
                </g>
                <g >
                    <title >text:PDM
Mic</title>
                    <g  transform="matrix(1, 0, 0, 1, 0, -1.8792)">
                        <g >
                            <text stroke="none"  fill="#ffffff" x="19.8" text-anchor="middle" font-family="OCRA" font-size="3.7584" y="7.6392" stroke-width="0">PDM</text>
                        </g>
                    </g>
                    <g  transform="matrix(1, 0, 0, 1, 0, 1.8792)">
                        <g >
                            <text stroke="none"  fill="#ffffff" x="19.8" text-anchor="middle" font-family="OCRA" font-size="3.7584" y="7.6392" stroke-width="0">Mic</text>
                        </g>
                    </g>
                </g>
                <g >
                    <title >element:C2</title>
                    <g >
                        <title >package:0805-NO</title>
                        <line y2="18" y1="18" stroke="white"  x2="10.44" x1="13.32" stroke-linecap="round" stroke-width="0.864"/>
                    </g>
                </g>
                <g >
                    <title >element:C4</title>
                    <g >
                        <title >package:0805-NO</title>
                        <line y2="19.08" y1="19.08" stroke="white"  x2="4.68" x1="7.56" stroke-linecap="round" stroke-width="0.864"/>
                    </g>
                </g>
                <g >
                    <title >element:FID2</title>
                    <g >
                        <title >package:FIDUCIAL_1MM</title>
                    </g>
                </g>
                <g >
                    <title >element:IC2</title>
                    <g >
                        <title >package:SPK0415HM4H</title>
                        <line y2="21.8693" y1="21.8693" stroke="white"  x2="15.548" x1="24.052" stroke-linecap="round" stroke-width="0.36"/>
                        <line y2="10.5307" y1="21.8693" stroke="white"  x2="15.548" x1="15.548" stroke-linecap="round" stroke-width="0.36"/>
                        <line y2="10.5307" y1="10.5307" stroke="white"  x2="24.052" x1="15.548" stroke-linecap="round" stroke-width="0.36"/>
                        <line y2="21.8693" y1="10.5307" stroke="white"  x2="24.052" x1="24.052" stroke-linecap="round" stroke-width="0.36"/>
                        <circle cx="19.8" stroke="white"  fill="none" cy="18.0426" r="0.862121" stroke-width="0.36"/>
                    </g>
                </g>
                <g >
                    <title >element:JP1</title>
                    <g >
                        <title >package:1X05_ROUND</title>
                    </g>
                </g>
                <g >
                    <title >element:R1</title>
                    <g >
                        <title >package:0603-NO</title>
                        <line y2="21.8699" y1="19.6021" stroke="white"  x2="29.16" x1="29.16" stroke-linecap="round" stroke-width="0.864"/>
                    </g>
                </g>
                <g >
                    <title >element:U$5</title>
                    <g >
                        <title >package:ADAFRUIT_3.5MM</title>
                    </g>
                </g>
                <g >
                    <title >element:U$6</title>
                    <g >
                        <title >package:MOUNTINGHOLE_2.5_PLATED</title>
                        <circle cx="32.4" stroke="white"  fill="none" cy="7.2" r="5.66929" stroke-width="0.576"/>
                    </g>
                </g>
                <g >
                    <title >element:U$12</title>
                    <g >
                        <title >package:MOUNTINGHOLE_2.5_PLATED</title>
                        <circle cx="7.2" stroke="white"  fill="none" cy="7.2" r="5.66929" stroke-width="0.576"/>
                    </g>
                </g>
                <g >
                    <title >element:U$13</title>
                    <g >
                        <title >package:PCBFEAT-REV-040</title>
                        <circle cx="27.72" stroke="white"  fill="none" cy="15.84" r="2.54551" stroke-width="0.864"/>
                        <g >
                            <title >text:A</title>
                            <text stroke="none"  fill="#ffffff" x="26.712" text-anchor="start" font-family="OCRA" font-size="3.3408" y="17.28" stroke-width="0">A</text>
                        </g>
                    </g>
                </g>
            </g>
            <g  transform="matrix(0, 1, -1, 0, 27.1871, 3.42708)">
                <g >
                    <rect stroke="none"  height="4.25197" fill="#9A916C" x="10.1226" width="3.51496" id="connector5pin" y="13.1811" gorn="0.1.0.2.0.0" stroke-width="0"/>
                </g>
            </g>
            <g  transform="matrix(0, 1, -1, 0, 32.5729, 8.81294)">
                <g >
                    <rect stroke="none"  height="4.25197" fill="#9A916C" x="10.1226" width="3.51496" id="connector6pin" y="18.5669" gorn="0.1.0.3.0.0" stroke-width="0"/>
                </g>
            </g>
            <g  transform="matrix(0, 1, -1, 0, 22.5071, 10.2671)">
                <g >
                    <rect stroke="none"  height="4.25197" fill="#9A916C" x="4.36252" width="3.51496" id="connector7pin" y="14.2611" gorn="0.1.0.4.0.0" stroke-width="0"/>
                </g>
            </g>
            <g  transform="matrix(0, 1, -1, 0, 27.8929, 15.6529)">
                <g >
                    <rect stroke="none"  height="4.25197" fill="#9A916C" x="4.36252" width="3.51496" id="connector8pin" y="19.6469" gorn="0.1.0.5.0.0" stroke-width="0"/>
                </g>
            </g>
            <rect ry="1.41732" stroke="none"  height="2.83465" fill="#9A916C" x="34.9427" rx="1.41732" width="2.83465" id="connector9pin" y="21.6227" gorn="0.1.0.6" stroke-width="0"/>
            <g  transform="matrix(0, 1, -1, 0, 33.0236, -4.16693)">
                <g >
                    <rect stroke="none"  height="1.27559" fill="#9A916C" x="17.2488" width="2.69292" id="connector10pin" y="13.7905" gorn="0.1.0.7.0.0" stroke-width="0"/>
                </g>
            </g>
            <g  transform="matrix(0, 1, -1, 0, 36.5669, -0.623622)">
                <g >
                    <rect stroke="none"  height="1.27559" fill="#9A916C" x="17.2488" width="2.69292" id="connector11pin" y="17.3339" gorn="0.1.0.8.0.0" stroke-width="0"/>
                </g>
            </g>
            <g  transform="matrix(0, 1, -1, 0, 38.9764, -3.03307)">
                <g >
                    <rect stroke="none"  height="1.27559" fill="#9A916C" x="19.6582" width="2.69292" id="connector12pin" y="17.3339" gorn="0.1.0.9.0.0" stroke-width="0"/>
                </g>
            </g>
            <g  transform="matrix(0, 1, -1, 0, 35.4331, -6.57638)">
                <g >
                    <rect stroke="none"  height="1.27559" fill="#9A916C" x="19.6582" width="2.69292" id="connector13pin" y="13.7905" gorn="0.1.0.10.0.0" stroke-width="0"/>
                </g>
            </g>
            <g  transform="matrix(-1, 0, 0, -1, 39.6, 22.4788)">
                <g >
                    <rect stroke="none"  height="1.27559" fill="#9A916C" x="18.0992" width="3.40158" id="connector14pin" y="10.6016" gorn="0.1.0.11.0.0" stroke-width="0"/>
                </g>
            </g>
            <g  transform="matrix(0, 1, -1, 0, 32.4567, -0.0566929)">
                <g >
                    <rect stroke="none"  height="1.27559" fill="#9A916C" x="13.1386" width="6.23622" id="connector15pin" y="15.5622" gorn="0.1.0.12.0.0" stroke-width="0"/>
                </g>
            </g>
            <g  transform="matrix(-1, 0, 0, -1, 39.6, 42.3212)">
                <g >
                    <rect stroke="none"  height="1.27559" fill="#9A916C" x="18.0992" width="3.40158" id="connector16pin" y="20.5228" gorn="0.1.0.13.0.0" stroke-width="0"/>
                </g>
            </g>
            <g  transform="matrix(0, 1, -1, 0, 39.5433, -7.14331)">
                <g >
                    <rect stroke="none"  height="1.27559" fill="#9A916C" x="20.2252" width="6.23622" id="connector17pin" y="15.5622" gorn="0.1.0.14.0.0" stroke-width="0"/>
                </g>
            </g>
            <circle cx="5.4" stroke="#9A916C"  fill="none" cy="28.8" connectorname="VDD" r="1.89666" id="connector18pin" gorn="0.1.0.15" stroke-width="0.95868"/>
            <circle cx="12.6" stroke="#9A916C"  fill="none" cy="28.8" connectorname="GND" r="1.89666" id="connector19pin" gorn="0.1.0.16" stroke-width="0.95868"/>
            <circle cx="19.8" stroke="#9A916C"  fill="none" cy="28.8" connectorname="SELECT" r="1.89666" id="connector20pin" gorn="0.1.0.17" stroke-width="0.95868"/>
            <circle cx="27" stroke="#9A916C"  fill="none" cy="28.8" connectorname="CLK" r="1.89666" id="connector21pin" gorn="0.1.0.18" stroke-width="0.95868"/>
            <circle cx="34.2" stroke="#9A916C"  fill="none" cy="28.8" connectorname="DATA" r="1.89666" id="connector22pin" gorn="0.1.0.19" stroke-width="0.95868"/>
            <rect stroke="none"  height="2.83465" fill="#9A916C" x="25.2269" width="3.04724" id="connector23pin" y="19.3187" gorn="0.1.0.20" stroke-width="0"/>
            <rect stroke="none"  height="2.83465" fill="#9A916C" x="30.0458" width="3.04724" id="connector24pin" y="19.3187" gorn="0.1.0.21" stroke-width="0"/>
            <circle cx="32.4" stroke="#9A916C"  fill="none" cy="7.2" connectorname="P$1" r="4.26331" id="connector25pin" gorn="0.1.0.22" stroke-width="1.44"/>
            <circle cx="7.2" stroke="#9A916C"  fill="none" cy="7.2" connectorname="P$1" r="4.26331" id="connector26pin" gorn="0.1.0.23" stroke-width="1.44"/>
        </g>
        <g  transform="matrix(1, 0, 0, 1, 9.0455, 16.2285)">
            <g  id="0805-cap" gorn="0.1.1.0">
                <g  transform="matrix(0, 1, -1, 0, 4.606, -1.063)">
                    <g >
                        <path  fill="#DCDCDC" d="M5.386,3.543L0.283,3.543C0.127,3.543,0,3.416,0,3.26L0,0.283C0,0.127,0.127,0,0.283,0l5.102,0c0.157,0,0.283,0.127,0.283,0.283L5.668,3.26C5.669,3.416,5.542,3.543,5.386,3.543z"/>
                        <rect  height="3.543" fill="#6E554B" x="1.063" width="3.543"/>
                    </g>
                </g>
            </g>
        </g>
        <g  transform="matrix(1, 0, 0, 1, 3.2855, 17.3085)">
            <g  id="0805-cap" gorn="0.1.2.0">
                <g  transform="matrix(0, 1, -1, 0, 4.606, -1.063)">
                    <g >
                        <path  fill="#DCDCDC" d="M5.386,3.543L0.283,3.543C0.127,3.543,0,3.416,0,3.26L0,0.283C0,0.127,0.127,0,0.283,0l5.102,0c0.157,0,0.283,0.127,0.283,0.283L5.668,3.26C5.669,3.416,5.542,3.543,5.386,3.543z"/>
                        <rect  height="3.543" fill="#6E554B" x="1.063" width="3.543"/>
                    </g>
                </g>
            </g>
        </g>
        <g  transform="matrix(1, 0, 0, 1, 15.548, 10.5307)">
            <g  id="spk0415hm4h" gorn="0.1.3.0">
                <g  transform="matrix(-1, 0, 0, -1, 8.50392, 11.3386)">
                    <g >
                        <metadata  id="metadata15">
                            <rdf:RDF xmlns:rdf="http://www.w3.org/1999/02/22-rdf-syntax-ns#">
                                <cc:Work xmlns:cc="http://creativecommons.org/ns#" rdf:about="" xmlns:rdf="http://www.w3.org/1999/02/22-rdf-syntax-ns#">
                                    <dc:format xmlns:dc="http://purl.org/dc/elements/1.1/">image/svg+xml</dc:format>
                                    <dc:type xmlns:dc="http://purl.org/dc/elements/1.1/" xmlns:rdf="http://www.w3.org/1999/02/22-rdf-syntax-ns#" rdf:resource="http://purl.org/dc/dcmitype/StillImage"/>
                                    <dc:title xmlns:dc="http://purl.org/dc/elements/1.1/"/>
                                </cc:Work>
                            </rdf:RDF>
                        </metadata>
                        <defs  id="defs13"/>
                        <path  fill="#decd87" d="M0,10.4238,0,0.914774C0,0.409005,0.38038,0,0.850752,0l6.80243,0c0.469174,0,0.850752,0.409005,0.850752,0.914774l0,9.50904c0,0.504482,-0.380379,0.914774,-0.850752,0.914774l-6.80243,0C0.38038,11.3373,0,10.9283,0,10.4238Z" id="path5" connector-curvature="0" gorn="0.1.3.0.0.0.2"/>
                        <path  fill="#e9ddaf" d="m0.509972,0.914774c0,-0.201277,0.152392,-0.366427,0.339582,-0.366427l6.80363,0c0.18719,0,0.339582,0.16515,0.339582,0.366427l0,9.50904c0,0.201277,-0.152392,0.366427,-0.339582,0.366427l-6.80363,0c-0.18719,0,-0.339582,-0.165149,-0.339582,-0.366427l0,-9.50904z" id="path7" connector-curvature="0" gorn="0.1.3.0.0.0.3"/>
                        <ellipse ry="0.850392" cx="4.25137"  fill="#554400" cy="4.26925" rx="0.850752" id="circle9" gorn="0.1.3.0.0.0.4"/>
                    </g>
                </g>
            </g>
        </g>
        <g  transform="matrix(1, 0, 0, 1, 26.8925, 19.602)">
            <g  id="0603-res" gorn="0.1.4.0">
                <path  fill="#DCDCDC" d="M4.245,2.268L0.29,2.268C0.13,2.268,0,2.138,0,1.977L0,0.29C0,0.13,0.13,0,0.29,0l3.955,0c0.16,0,0.29,0.13,0.29,0.29l0,1.687C4.535,2.138,4.405,2.268,4.245,2.268z"/>
                <rect  height="2.268" fill="#333333" x="1.134" width="2.268" y="0"/>
            </g>
        </g>
    </g>
</svg>
