<?xml version='1.0' encoding='utf-8'?>
<!-- Generator: Adobe Illustrator 20.0.0, SVG Export Plug-In . SVG Version: 6.00 Build 0)  -->
<svg xmlns="http://www.w3.org/2000/svg" baseProfile="tiny" width="1.33858in" viewBox="0 0 96.378 58.11"  xml:space="preserve" id="Layer_1" xmlns:xml="http://www.w3.org/XML/1998/namespace" x="0px" height="0.807083in" gorn="0" y="0px" version="1.2">
    <desc >
        <referenceFile >Adafruit OLED Monochrome 128x32 I2C_breadboard.svg</referenceFile>
    </desc>
    <desc >Fritzing breadboard generated by brd2svg</desc>
    <g  id="breadboard" gorn="0.2">
        <g  id="icon" gorn="0.2.0">
            <path fill="#014CB1"  d="M0,52.441V5.669C0,2.538,2.538,0,5.669,0h85.039c3.131,0,5.669,2.538,5.669,5.669l0,0v46.772c0,3.131-2.538,5.669-5.669,5.669l0,0H5.669C2.538,58.11,0,55.572,0,52.441L0,52.441 M2.126,52.441c-0.003,1.957,1.58,3.546,3.537,3.549s3.546-1.58,3.549-3.537c0-0.004,0-0.008,0-0.012c0.003-1.957-1.58-3.546-3.537-3.549s-3.546,1.58-3.549,3.537C2.126,52.433,2.126,52.437,2.126,52.441z M2.126,5.669c-0.003,1.957,1.58,3.546,3.537,3.549s3.546-1.58,3.549-3.537c0-0.004,0-0.008,0-0.012c0.003-1.957-1.58-3.546-3.537-3.549C3.718,2.117,2.129,3.7,2.126,5.657C2.126,5.661,2.126,5.665,2.126,5.669z M87.165,5.669c-0.003,1.957,1.58,3.546,3.537,3.55c1.957,0.003,3.546-1.58,3.55-3.537c0-0.004,0-0.008,0-0.012c0.003-1.957-1.58-3.546-3.537-3.55c-1.957-0.003-3.546,1.58-3.55,3.537C87.165,5.661,87.165,5.665,87.165,5.669z M87.165,52.441c-0.003,1.957,1.58,3.546,3.537,3.55c1.957,0.003,3.546-1.58,3.55-3.537c0-0.004,0-0.008,0-0.012c0.003-1.957-1.58-3.546-3.537-3.55s-3.546,1.58-3.55,3.537C87.165,52.433,87.165,52.437,87.165,52.441z M64.772,51.721c0,0.783,0.635,1.417,1.417,1.417s1.417-0.635,1.417-1.417s-0.635-1.417-1.417-1.417S64.772,50.938,64.772,51.721L64.772,51.721z M57.572,51.721c0,0.783,0.635,1.417,1.417,1.417s1.417-0.635,1.417-1.417s-0.635-1.417-1.417-1.417S57.572,50.938,57.572,51.721L57.572,51.721z M50.372,51.721c0,0.783,0.635,1.417,1.417,1.417c0.783,0,1.417-0.635,1.417-1.417s-0.635-1.417-1.417-1.417S50.372,50.938,50.372,51.721L50.372,51.721z M43.172,51.721c0,0.783,0.635,1.417,1.417,1.417s1.417-0.635,1.417-1.417s-0.635-1.417-1.417-1.417S43.172,50.938,43.172,51.721L43.172,51.721z M35.972,51.721c0,0.783,0.635,1.417,1.417,1.417c0.783,0,1.417-0.635,1.417-1.417s-0.635-1.417-1.417-1.417S35.972,50.938,35.972,51.721L35.972,51.721z M28.772,51.721c0,0.783,0.635,1.417,1.417,1.417c0.783,0,1.417-0.635,1.417-1.417l0,0c0-0.783-0.635-1.417-1.417-1.417C29.406,50.304,28.772,50.938,28.772,51.721z"/>
            <g >
                <title >layer 21</title>
                <g >
                    <title >text:128x32 I2C OLED</title>
                    <g  transform="matrix(1 0 0 1 20.4973 8.4529)">
                        <g >
                            <g >
                                <text fill="#FFFFFF" font-size="3.74168" font-family="'OCRA'" >128x32 I2C OLED</text>
                            </g>
                        </g>
                    </g>
                </g>
                <g >
                    <title >text:VIN</title>
                    <g  transform="matrix(1 0 0 1 63.36 57.3903)">
                        <g >
                            <g >
                                <text fill="#FFFFFF" font-size="2.67264" font-family="'OCRA'" >VIN</text>
                            </g>
                        </g>
                    </g>
                </g>
                <g >
                    <title >text:3.3V</title>
                    <g  transform="matrix(1 0 0 1 55.08 48.7503)">
                        <g >
                            <g >
                                <text fill="#FFFFFF" font-size="2.67264" font-family="'OCRA'" >3.3V</text>
                            </g>
                        </g>
                    </g>
                </g>
                <g >
                    <title >text:GND</title>
                    <g  transform="matrix(1 0 0 1 48.6 57.3903)">
                        <g >
                            <g >
                                <text fill="#FFFFFF" font-size="2.67264" font-family="'OCRA'" >GND</text>
                            </g>
                        </g>
                    </g>
                </g>
                <g >
                    <title >text:RST</title>
                    <g  transform="matrix(1 0 0 1 41.76 48.7503)">
                        <g >
                            <g >
                                <text fill="#FFFFFF" font-size="2.67264" font-family="'OCRA'" >RST</text>
                            </g>
                        </g>
                    </g>
                </g>
                <g >
                    <title >text:SCL</title>
                    <g  transform="matrix(1 0 0 1 34.56 57.3903)">
                        <g >
                            <g >
                                <text fill="#FFFFFF" font-size="2.67264" font-family="'OCRA'" >SCL</text>
                            </g>
                        </g>
                    </g>
                </g>
                <g >
                    <title >text:SDA</title>
                    <g  transform="matrix(1 0 0 1 26.64 48.7503)">
                        <g >
                            <g >
                                <text fill="#FFFFFF" font-size="2.67264" font-family="'OCRA'" >SDA</text>
                            </g>
                        </g>
                    </g>
                </g>
                <g >
                    <title >element:C1</title>
                    <g >
                        <title >package:0805-NO</title>
                    </g>
                </g>
                <g >
                    <title >element:C2</title>
                    <g >
                        <title >package:0805-NO</title>
                    </g>
                </g>
                <g >
                    <title >element:C3</title>
                    <g >
                        <title >package:0805-NO</title>
                    </g>
                </g>
                <g >
                    <title >element:C4</title>
                    <g >
                        <title >package:0805-NO</title>
                    </g>
                </g>
                <g >
                    <title >element:C5</title>
                    <g >
                        <title >package:0805-NO</title>
                    </g>
                </g>
                <g >
                    <title >element:C6</title>
                    <g >
                        <title >package:0805-NO</title>
                    </g>
                </g>
                <g >
                    <title >element:C7</title>
                    <g >
                        <title >package:0805-NO</title>
                    </g>
                </g>
                <g >
                    <title >element:D1</title>
                    <g >
                        <title >package:SOD-323F</title>
                    </g>
                </g>
                <g >
                    <title >element:FID1</title>
                    <g >
                        <title >package:FIDUCIAL_1MM</title>
                    </g>
                </g>
                <g >
                    <title >element:FID2</title>
                    <g >
                        <title >package:FIDUCIAL_1MM</title>
                    </g>
                </g>
                <g >
                    <title >element:JP1</title>
                    <g >
                        <title >package:1X06_ROUND_70</title>
                    </g>
                </g>
                <g >
                    <title >element:LCD1</title>
                    <g >
                        <title >package:UG-2832HSWEG02_WRAPUNDER</title>
                        <line x2="4.961" fill="none"  stroke="#FFFFFF" stroke-width="0.576" stroke-linecap="round" y1="12.798" y2="12.798" x1="90"/>
                        <line x2="90" fill="none"  stroke="#FFFFFF" stroke-width="0.576" stroke-linecap="round" y1="12.798" y2="44.901" x1="90"/>
                        <line x2="4.961" fill="none"  stroke="#FFFFFF" stroke-width="0.576" stroke-linecap="round" y1="44.901" y2="44.901" x1="90"/>
                        <line x2="4.961" fill="none"  stroke="#FFFFFF" stroke-width="0.576" stroke-linecap="round" y1="12.798" y2="44.901" x1="4.961"/>
                    </g>
                </g>
                <g >
                    <title >element:Q1</title>
                    <g >
                        <title >package:SOT23-WIDE</title>
                    </g>
                </g>
                <g >
                    <title >element:Q2</title>
                    <g >
                        <title >package:SOT23-WIDE</title>
                    </g>
                </g>
                <g >
                    <title >element:R3</title>
                    <g >
                        <title >package:0805-NO</title>
                    </g>
                </g>
                <g >
                    <title >element:R4</title>
                    <g >
                        <title >package:0805-NO</title>
                    </g>
                </g>
                <g >
                    <title >element:R5</title>
                    <g >
                        <title >package:0805-NO</title>
                    </g>
                </g>
                <g >
                    <title >element:R7</title>
                    <g >
                        <title >package:0805-NO</title>
                    </g>
                </g>
                <g >
                    <title >element:R8</title>
                    <g >
                        <title >package:0805-NO</title>
                    </g>
                </g>
                <g >
                    <title >element:R9</title>
                    <g >
                        <title >package:0805-NO</title>
                    </g>
                </g>
                <g >
                    <title >element:U$16</title>
                    <g >
                        <title >package:ADAFRUIT_3.5MM</title>
                    </g>
                </g>
                <g >
                    <title >element:U1</title>
                    <g >
                        <title >package:SOT23-5</title>
                    </g>
                </g>
            </g>
            <circle fill="none" r="1.969"  stroke="#9A916C" id="connector5pin" stroke-width="1.1027" gorn="0.2.0.2" cx="66.189" cy="51.721"/>
            <rect fill="none" width="3.937"  stroke="#9A916C" stroke-width="1.1027" x="64.22" height="3.937" y="49.752"/>
            <circle fill="none" r="1.969"  stroke="#9A916C" id="connector6pin" stroke-width="1.1027" gorn="0.2.0.4" cx="58.989" cy="51.721"/>
            <circle fill="none" r="1.969"  stroke="#9A916C" id="connector7pin" stroke-width="1.1027" gorn="0.2.0.5" cx="51.789" cy="51.721"/>
            <circle fill="none" r="1.969"  stroke="#9A916C" id="connector8pin" stroke-width="1.1027" gorn="0.2.0.6" cx="44.589" cy="51.721"/>
            <circle fill="none" r="1.969"  stroke="#9A916C" id="connector9pin" stroke-width="1.1027" gorn="0.2.0.7" cx="37.389" cy="51.721"/>
            <circle fill="none" r="1.969"  stroke="#9A916C" id="connector10pin" stroke-width="1.1027" gorn="0.2.0.8" cx="30.189" cy="51.721"/>
        </g>
        <g  transform="matrix(1, 0, 0, 1, 77.2128, 2.48426)">
            <g >
                <g >
                    <g  id="adafruit_3.5mm" gorn="0.2.1.0.0.0">
                        <g  transform="matrix(0, -1, 1, 0, 0.001476, 9.77846)">
                            <g >
                                <g >
                                    <g >
                                        <path fill="#DCDCDC"  d="M10.706,3.375c-0.032-0.2-0.141-0.257-0.403-0.341C10.104,2.97,8.77,2.545,8.77,2.545S7.84,2.194,7.151,2.691C7.058,2.757,6.962,2.834,6.865,2.915c0.082-0.097,0.158-0.193,0.224-0.286C7.584,1.939,7.232,1.01,7.232,1.01S6.805-0.324,6.74-0.523c-0.085-0.262-0.142-0.37-0.342-0.402S6.11-0.871,5.949-0.648C5.827-0.478,5.01,0.659,5.01,0.659S4.389,1.436,4.649,2.245c0.034,0.109,0.077,0.224,0.125,0.341C4.707,2.478,4.639,2.377,4.571,2.284C4.068,1.6,3.075,1.648,3.075,1.648s-1.4-0.006-1.61-0.006C1.19,1.641,1.069,1.662,0.977,1.843C0.886,2.024,0.94,2.134,1.103,2.356c0.124,0.169,0.953,1.297,0.953,1.297s0.546,0.83,1.395,0.834c0.114,0,0.236-0.005,0.362-0.014c-0.122,0.03-0.24,0.064-0.348,0.1C2.659,4.84,2.398,5.799,2.398,5.799S1.96,7.129,1.895,7.328c-0.086,0.261-0.103,0.383,0.04,0.526C2.079,7.997,2.2,7.98,2.461,7.894C2.66,7.829,3.989,7.388,3.989,7.388s0.958-0.263,1.224-1.07c0.036-0.108,0.069-0.225,0.1-0.348C5.304,6.096,5.299,6.218,5.3,6.332c0.005,0.849,0.836,1.394,0.836,1.394s1.13,0.827,1.298,0.951c0.223,0.162,0.333,0.216,0.514,0.124c0.181-0.092,0.201-0.213,0.2-0.488c-0.001-0.21-0.009-1.61-0.009-1.61S8.186,5.71,7.5,5.208C7.408,5.141,7.306,5.073,7.199,5.006c0.117,0.047,0.232,0.09,0.34,0.124c0.81,0.258,1.584-0.364,1.584-0.364s1.136-0.819,1.306-0.941C10.652,3.664,10.738,3.576,10.706,3.375z M5.884,2.344C6.036,2.368,6.112,2.693,6.053,3.07S5.822,3.732,5.669,3.708S5.44,3.359,5.5,2.983C5.559,2.606,5.731,2.32,5.884,2.344z M3.928,3.343c0.07-0.138,0.402-0.11,0.742,0.063c0.34,0.173,0.558,0.425,0.488,0.563s-0.402,0.11-0.742-0.063C4.076,3.733,3.858,3.481,3.928,3.343z M4.959,5.221c-0.269,0.27-0.577,0.4-0.686,0.291c-0.109-0.109,0.02-0.416,0.29-0.686c0.269-0.27,0.576-0.4,0.686-0.291C5.358,4.644,5.228,4.951,4.959,5.221z M6.443,5.854c-0.138,0.07-0.39-0.148-0.563-0.487c-0.174-0.34-0.203-0.673-0.065-0.743s0.39,0.148,0.563,0.487C6.551,5.451,6.58,5.783,6.443,5.854z M6.8,4.281c-0.377,0.06-0.701-0.015-0.726-0.168C6.05,3.96,6.336,3.788,6.712,3.728c0.377-0.06,0.701,0.015,0.726,0.168C7.462,4.049,7.177,4.221,6.8,4.281z"/>
                                    </g>
                                </g>
                            </g>
                        </g>
                    </g>
                </g>
            </g>
        </g>
    </g>
    <g >
        <rect fill="#416699" width="85.039" stroke-miterlimit="10"  stroke="#0000FF" stroke-width="0.0318" x="4.961" height="32.609" y="12.545"/>
        <rect fill="#140A14" width="73.429"  x="5.937" height="24.903" y="13.992"/>
        <rect fill="#333333" width="63.435"  x="10.917" height="15.85" y="18.502"/>
        <path  d="M92.126,22.542h-3.09c-0.02-0.42-0.364-0.756-0.79-0.756h-7.115c-0.438,0-0.794,0.355-0.794,0.794v21.059c0,0.438,0.355,0.794,0.794,0.794h7.115c0.391,0,0.714-0.283,0.78-0.655h7.352V22.542H92.126z"/>
        <g  transform="matrix(1 0 0 1 21.7959 28.8498)">
            <g >
                <g >
                    <text fill="#FFFFFF" font-size="5.6" font-family="'DroidSans'" >128x32 OLED</text>
                </g>
            </g>
        </g>
    </g>
</svg>
