<?xml version='1.0' encoding='UTF-8' standalone='no'?>
<!-- Created with Fritzing (http://www.fritzing.org/) -->
<svg xmlns="http://www.w3.org/2000/svg" viewBox="0 0 64.8 50.4" width="0.9in" height="0.7in"  x="0in" version="1.2" baseProfile="tiny" y="0in">
    <desc >
        <referenceFile >DS3231 rev A_breadboard.svg</referenceFile>
    </desc>
    <desc >Fritzing breadboard generated by brd2svg</desc>
    <g id="breadboard"  gorn="0.2">
        <g id="icon"  gorn="0.2.0">
            <path stroke-width="0"  stroke="none" fill="#014cb1" d="M7.2,0L57.6,0A7.2,7.2,0,0,1,64.8,7.2L64.8,43.2A7.2,7.2,0,0,1,57.6,50.4L7.2,50.4A7.2,7.2,0,0,1,0,43.2L0,7.2A7.2,7.2,0,0,1,7.2,0M5.78268,43.2a1.41732,1.41732,0,1,0,2.83465,0,1.41732,1.41732,0,1,0,-2.83465,0zM12.9827,43.2a1.41732,1.41732,0,1,0,2.83465,0,1.41732,1.41732,0,1,0,-2.83465,0zM20.1827,43.2a1.41732,1.41732,0,1,0,2.83465,0,1.41732,1.41732,0,1,0,-2.83465,0zM27.3827,43.2a1.41732,1.41732,0,1,0,2.83465,0,1.41732,1.41732,0,1,0,-2.83465,0zM34.5827,43.2a1.41732,1.41732,0,1,0,2.83465,0,1.41732,1.41732,0,1,0,-2.83465,0zM41.7827,43.2a1.41732,1.41732,0,1,0,2.83465,0,1.41732,1.41732,0,1,0,-2.83465,0zM48.9827,43.2a1.41732,1.41732,0,1,0,2.83465,0,1.41732,1.41732,0,1,0,-2.83465,0zM56.1827,43.2a1.41732,1.41732,0,1,0,2.83465,0,1.41732,1.41732,0,1,0,-2.83465,0zM54.0567,7.2a3.54331,3.54331,0,1,0,7.08661,0,3.54331,3.54331,0,1,0,-7.08661,0zM3.65669,7.2a3.54331,3.54331,0,1,0,7.08661,0,3.54331,3.54331,0,1,0,-7.08661,0z"/>
            <g >
                <title >layer 21</title>
                <circle r="0.804974" stroke-width="1.152"  stroke="white" fill="none" cy="33.12" cx="38.88"/>
                <g >
                    <title >text:SQW</title>
                    <text stroke-width="0" font-size="3.3408"  text-anchor="middle" x="50.4" stroke="none" fill="#ffffff" font-family="OCRA" y="40.1904">SQW</text>
                </g>
                <g >
                    <title >text:32K</title>
                    <text stroke-width="0" font-size="3.3408"  text-anchor="middle" x="43.92" stroke="none" fill="#ffffff" font-family="OCRA" y="49.9104">32K</text>
                </g>
                <g >
                    <title >text:!RST</title>
                    <text stroke-width="0" font-size="3.3408"  text-anchor="middle" x="57.24" stroke="none" fill="#ffffff" font-family="OCRA" y="50.2704">!RST</text>
                </g>
                <g >
                    <title >text:BAT</title>
                    <text stroke-width="0" font-size="3.3408"  text-anchor="middle" x="36" stroke="none" fill="#ffffff" font-family="OCRA" y="39.8304">BAT</text>
                </g>
                <g >
                    <title >text:SDA</title>
                    <text stroke-width="0" font-size="3.3408"  text-anchor="middle" x="28.8" stroke="none" fill="#ffffff" font-family="OCRA" y="49.9104">SDA</text>
                </g>
                <g >
                    <title >text:SCL</title>
                    <text stroke-width="0" font-size="3.3408"  text-anchor="middle" x="21.6" stroke="none" fill="#ffffff" font-family="OCRA" y="39.8304">SCL</text>
                </g>
                <g >
                    <title >text:Vin</title>
                    <text stroke-width="0" font-size="3.3408"  text-anchor="middle" x="7.56" stroke="none" fill="#ffffff" font-family="OCRA" y="39.8304">Vin</text>
                </g>
                <g >
                    <title >text:GND</title>
                    <text stroke-width="0" font-size="3.3408"  text-anchor="middle" x="14.76" stroke="none" fill="#ffffff" font-family="OCRA" y="49.5504">GND</text>
                </g>
                <g >
                    <title >text:DS3231</title>
                    <text stroke-width="0" font-size="4.67712"  text-anchor="middle" x="31.68" stroke="none" fill="#ffffff" font-family="OCRA" y="5.21856">DS3231</text>
                </g>
                <g >
                    <title >text:Precision
I2C RTC</title>
                    <g transform="matrix(1, 0, 0, 1, 57.8808, 27.36)" >
                        <g >
                            <g >
                                <g >
                                    <g transform="rotate(90)" >
                                        <g >
                                            <g >
                                                <g >
                                                    <g transform="matrix(1, 0, 0, 1, 0, -1.8792)" >
                                                        <g >
                                                            <g >
                                                                <g >
                                                                    <text stroke-width="0" font-size="3.7584"  text-anchor="middle" x="0" stroke="none" fill="#ffffff" font-family="OCRA" y="0">Precision</text>
                                                                </g>
                                                            </g>
                                                        </g>
                                                    </g>
                                                    <g transform="matrix(1, 0, 0, 1, 0, 1.8792)" >
                                                        <g >
                                                            <g >
                                                                <g >
                                                                    <text stroke-width="0" font-size="3.7584"  text-anchor="middle" x="0" stroke="none" fill="#ffffff" font-family="OCRA" y="0">I2C RTC</text>
                                                                </g>
                                                            </g>
                                                        </g>
                                                    </g>
                                                </g>
                                            </g>
                                        </g>
                                    </g>
                                </g>
                            </g>
                        </g>
                    </g>
                </g>
                <g >
                    <title >element:B1</title>
                    <g >
                        <title >package:CR1220</title>
                    </g>
                </g>
                <g >
                    <title >element:C1</title>
                    <g >
                        <title >package:0805-NO</title>
                        <line stroke-linecap="round" stroke-width="0.864" x2="53.28" y1="31.68"  stroke="white" y2="31.68" x1="50.4"/>
                    </g>
                </g>
                <g >
                    <title >element:FID1</title>
                    <g >
                        <title >package:FIDUCIAL_1MM</title>
                    </g>
                </g>
                <g >
                    <title >element:FID2</title>
                    <g >
                        <title >package:FIDUCIAL_1MM</title>
                    </g>
                </g>
                <g >
                    <title >element:FID3</title>
                    <g >
                        <title >package:FIDUCIAL_1MM</title>
                    </g>
                </g>
                <g >
                    <title >element:FID4</title>
                    <g >
                        <title >package:FIDUCIAL_1MM</title>
                    </g>
                </g>
                <g >
                    <title >element:IC1</title>
                    <g >
                        <title >package:SO16W</title>
                    </g>
                </g>
                <g >
                    <title >element:JP1</title>
                    <g >
                        <title >package:1X08_ROUND_70</title>
                    </g>
                </g>
                <g >
                    <title >element:R1</title>
                    <g >
                        <title >package:0805-NO</title>
                        <line stroke-linecap="round" stroke-width="0.864" x2="8.64" y1="25.92"  stroke="white" y2="28.8" x1="8.64"/>
                    </g>
                </g>
                <g >
                    <title >element:R2</title>
                    <g >
                        <title >package:0805-NO</title>
                        <line stroke-linecap="round" stroke-width="0.864" x2="8.64" y1="31.68"  stroke="white" y2="34.56" x1="8.64"/>
                    </g>
                </g>
                <g >
                    <title >element:U$6</title>
                    <g >
                        <title >package:MOUNTINGHOLE_2.5_PLATED</title>
                        <circle r="5.66929" stroke-width="0.576"  stroke="white" fill="none" cy="7.2" cx="57.6"/>
                    </g>
                </g>
                <g >
                    <title >element:U$7</title>
                    <g >
                        <title >package:MOUNTINGHOLE_2.5_PLATED</title>
                        <circle r="5.66929" stroke-width="0.576"  stroke="white" fill="none" cy="7.2" cx="7.2"/>
                    </g>
                </g>
                <g >
                    <title >element:U$8</title>
                    <g >
                        <title >package:ADAFRUIT_3.5MM</title>
                    </g>
                </g>
                <g >
                    <title >element:U$9</title>
                    <g >
                        <title >text:A</title>
                        <text stroke-width="0" font-size="3.3408"  text-anchor="start" x="45.792" stroke="none" fill="#ffffff" font-family="OCRA" y="5.04">A</text>
                    </g>
                    <g >
                        <title >package:PCBFEAT-REV-040</title>
                        <circle r="2.54551" stroke-width="0.864"  stroke="white" fill="none" cy="3.6" cx="46.8"/>
                    </g>
                </g>
            </g>
            <g transform="matrix(0, -1, 1, 0, 17.4671, 86.2128)" >
                <g >
                    <g >
                        <g >
                            <rect id="connector0pin" stroke-width="0" width="3.68504" height="4.25197"  x="49.9974" stroke="none" fill="#9A916C" gorn="0.2.0.2.0.0.0.0" y="32.2469"/>
                        </g>
                    </g>
                </g>
            </g>
            <g transform="matrix(0, -1, 1, 0, 22.8529, 80.8272)" >
                <g >
                    <g >
                        <g >
                            <rect id="connector1pin" stroke-width="0" width="3.68504" height="4.25197"  x="49.9974" stroke="none" fill="#9A916C" gorn="0.2.0.3.0.0.0.0" y="26.8611"/>
                        </g>
                    </g>
                </g>
            </g>
            <rect id="connector2pin" stroke-width="0" width="2.83465" rx="1.41732" height="2.83465"  x="25.2227" stroke="none" fill="#9A916C" ry="1.41732" gorn="0.2.0.4" y="9.38268"/>
            <rect id="connector3pin" stroke-width="0" width="2.83465" rx="1.41732" height="2.83465"  x="50.4227" stroke="none" fill="#9A916C" ry="1.41732" gorn="0.2.0.5" y="17.3027"/>
            <g transform="matrix(0, -1, 1, 0, 11.2393, 78.1992)" >
                <g >
                    <g >
                        <g >
                            <rect id="connector4pin" stroke-width="0" width="1.70078" height="6.23622"  x="43.869" stroke="none" fill="#9A916C" gorn="0.2.0.6.0.0.0.0" y="30.3619"/>
                        </g>
                    </g>
                </g>
            </g>
            <g transform="matrix(0, -1, 1, 0, 14.8393, 74.5992)" >
                <g >
                    <g >
                        <g >
                            <rect id="connector5pin" stroke-width="0" width="1.70078" height="6.23622"  x="43.869" stroke="none" fill="#9A916C" gorn="0.2.0.7.0.0.0.0" y="26.7619"/>
                        </g>
                    </g>
                </g>
            </g>
            <g transform="matrix(0, -1, 1, 0, 18.4393, 70.9993)" >
                <g >
                    <g >
                        <g >
                            <rect id="connector6pin" stroke-width="0" width="1.70078" height="6.23622"  x="43.869" stroke="none" fill="#9A916C" gorn="0.2.0.8.0.0.0.0" y="23.1619"/>
                        </g>
                    </g>
                </g>
            </g>
            <g transform="matrix(0, -1, 1, 0, 22.0393, 67.3993)" >
                <g >
                    <g >
                        <g >
                            <rect id="connector7pin" stroke-width="0" width="1.70078" height="6.23622"  x="43.869" stroke="none" fill="#9A916C" gorn="0.2.0.9.0.0.0.0" y="19.5619"/>
                        </g>
                    </g>
                </g>
            </g>
            <g transform="matrix(0, -1, 1, 0, 25.6393, 63.7993)" >
                <g >
                    <g >
                        <g >
                            <rect id="connector8pin" stroke-width="0" width="1.70078" height="6.23622"  x="43.869" stroke="none" fill="#9A916C" gorn="0.2.0.10.0.0.0.0" y="15.9619"/>
                        </g>
                    </g>
                </g>
            </g>
            <g transform="matrix(0, -1, 1, 0, 29.2393, 60.1993)" >
                <g >
                    <g >
                        <g >
                            <rect id="connector9pin" stroke-width="0" width="1.70078" height="6.23622"  x="43.869" stroke="none" fill="#9A916C" gorn="0.2.0.11.0.0.0.0" y="12.3619"/>
                        </g>
                    </g>
                </g>
            </g>
            <g transform="matrix(0, -1, 1, 0, 32.8393, 56.5993)" >
                <g >
                    <g >
                        <g >
                            <rect id="connector10pin" stroke-width="0" width="1.70078" height="6.23622"  x="43.869" stroke="none" fill="#9A916C" gorn="0.2.0.12.0.0.0.0" y="8.7619"/>
                        </g>
                    </g>
                </g>
            </g>
            <g transform="matrix(0, -1, 1, 0, 36.4393, 52.9993)" >
                <g >
                    <g >
                        <g >
                            <rect id="connector11pin" stroke-width="0" width="1.70078" height="6.23622"  x="43.869" stroke="none" fill="#9A916C" gorn="0.2.0.13.0.0.0.0" y="5.16189"/>
                        </g>
                    </g>
                </g>
            </g>
            <g transform="matrix(0, -1, 1, 0, 10.3607, 26.9207)" >
                <g >
                    <g >
                        <g >
                            <rect id="connector12pin" stroke-width="0" width="1.70078" height="6.23622"  x="17.7903" stroke="none" fill="#9A916C" gorn="0.2.0.14.0.0.0.0" y="5.16189"/>
                        </g>
                    </g>
                </g>
            </g>
            <g transform="matrix(0, -1, 1, 0, 6.76063, 30.5207)" >
                <g >
                    <g >
                        <g >
                            <rect id="connector13pin" stroke-width="0" width="1.70078" height="6.23622"  x="17.7903" stroke="none" fill="#9A916C" gorn="0.2.0.15.0.0.0.0" y="8.7619"/>
                        </g>
                    </g>
                </g>
            </g>
            <g transform="matrix(0, -1, 1, 0, 3.16063, 34.1207)" >
                <g >
                    <g >
                        <g >
                            <rect id="connector14pin" stroke-width="0" width="1.70078" height="6.23622"  x="17.7903" stroke="none" fill="#9A916C" gorn="0.2.0.16.0.0.0.0" y="12.3619"/>
                        </g>
                    </g>
                </g>
            </g>
            <g transform="matrix(0, -1, 1, 0, -0.43937, 37.7207)" >
                <g >
                    <g >
                        <g >
                            <rect id="connector15pin" stroke-width="0" width="1.70078" height="6.23622"  x="17.7903" stroke="none" fill="#9A916C" gorn="0.2.0.17.0.0.0.0" y="15.9619"/>
                        </g>
                    </g>
                </g>
            </g>
            <g transform="matrix(0, -1, 1, 0, -4.03937, 41.3207)" >
                <g >
                    <g >
                        <g >
                            <rect id="connector16pin" stroke-width="0" width="1.70078" height="6.23622"  x="17.7903" stroke="none" fill="#9A916C" gorn="0.2.0.18.0.0.0.0" y="19.5619"/>
                        </g>
                    </g>
                </g>
            </g>
            <g transform="matrix(0, -1, 1, 0, -7.63934, 44.9207)" >
                <g >
                    <g >
                        <g >
                            <rect id="connector17pin" stroke-width="0" width="1.70078" height="6.23622"  x="17.7903" stroke="none" fill="#9A916C" gorn="0.2.0.19.0.0.0.0" y="23.1619"/>
                        </g>
                    </g>
                </g>
            </g>
            <g transform="matrix(0, -1, 1, 0, -11.2393, 48.5207)" >
                <g >
                    <g >
                        <g >
                            <rect id="connector18pin" stroke-width="0" width="1.70078" height="6.23622"  x="17.7903" stroke="none" fill="#9A916C" gorn="0.2.0.20.0.0.0.0" y="26.7619"/>
                        </g>
                    </g>
                </g>
            </g>
            <g transform="matrix(0, -1, 1, 0, -14.8393, 52.1207)" >
                <g >
                    <g >
                        <g >
                            <rect id="connector19pin" stroke-width="0" width="1.70078" height="6.23622"  x="17.7903" stroke="none" fill="#9A916C" gorn="0.2.0.21.0.0.0.0" y="30.3619"/>
                        </g>
                    </g>
                </g>
            </g>
            <circle r="1.96866" id="connector20pin" stroke-width="1.10268" connectorname="3.3V"  stroke="#9A916C" fill="none" cy="43.2" gorn="0.2.0.22" cx="7.2"/>
            <circle r="1.96866" id="connector21pin" stroke-width="1.10268" connectorname="GND"  stroke="#9A916C" fill="none" cy="43.2" gorn="0.2.0.23" cx="14.4"/>
            <circle r="1.96866" id="connector22pin" stroke-width="1.10268" connectorname="SCL"  stroke="#9A916C" fill="none" cy="43.2" gorn="0.2.0.24" cx="21.6"/>
            <circle r="1.96866" id="connector23pin" stroke-width="1.10268" connectorname="SDA"  stroke="#9A916C" fill="none" cy="43.2" gorn="0.2.0.25" cx="28.8"/>
            <circle r="1.96866" id="connector24pin" stroke-width="1.10268" connectorname="VBAT"  stroke="#9A916C" fill="none" cy="43.2" gorn="0.2.0.26" cx="36"/>
            <circle r="1.96866" id="connector25pin" stroke-width="1.10268" connectorname="32KHZ"  stroke="#9A916C" fill="none" cy="43.2" gorn="0.2.0.27" cx="43.2"/>
            <circle r="1.96866" id="connector26pin" stroke-width="1.10268" connectorname="SQW"  stroke="#9A916C" fill="none" cy="43.2" gorn="0.2.0.28" cx="50.4"/>
            <circle r="1.96866" id="connector27pin" stroke-width="1.10268" connectorname="!RTC_RST"  stroke="#9A916C" fill="none" cy="43.2" gorn="0.2.0.29" cx="57.6"/>
            <rect id="connector28pin" stroke-width="0" width="3.68504" height="4.25197"  x="4.10457" stroke="none" fill="#9A916C" gorn="0.2.0.30" y="25.234"/>
            <rect id="connector29pin" stroke-width="0" width="3.68504" height="4.25197"  x="9.49039" stroke="none" fill="#9A916C" gorn="0.2.0.31" y="25.234"/>
            <rect id="connector30pin" stroke-width="0" width="3.68504" height="4.25197"  x="4.10457" stroke="none" fill="#9A916C" gorn="0.2.0.32" y="30.994"/>
            <rect id="connector31pin" stroke-width="0" width="3.68504" height="4.25197"  x="9.49039" stroke="none" fill="#9A916C" gorn="0.2.0.33" y="30.994"/>
            <circle r="4.26331" id="connector32pin" stroke-width="1.44" connectorname="P$1"  stroke="#9A916C" fill="none" cy="7.2" gorn="0.2.0.34" cx="57.6"/>
            <circle r="4.26331" id="connector33pin" stroke-width="1.44" connectorname="P$1"  stroke="#9A916C" fill="none" cy="7.2" gorn="0.2.0.35" cx="7.2"/>
        </g>
        <g transform="matrix(1, 0, 0, 1, 49.0055, 29.9085)" >
            <g >
                <g >
                    <g id="0805-cap"  gorn="0.2.1.0.0.0">
                        <g transform="matrix(0, -1, 1, 0, 1.063, 4.606)" >
                            <g >
                                <g >
                                    <g >
                                        <path  fill="#DCDCDC" d="M5.386,3.543L0.283,3.543C0.127,3.543,0,3.416,0,3.26L0,0.283C0,0.127,0.127,0,0.283,0l5.102,0c0.157,0,0.283,0.127,0.283,0.283L5.668,3.26C5.669,3.416,5.542,3.543,5.386,3.543z"/>
                                        <rect width="3.543" height="3.543"  x="1.063" fill="#6E554B"/>
                                    </g>
                                </g>
                            </g>
                        </g>
                    </g>
                </g>
            </g>
        </g>
        <g transform="matrix(1, 0, 0, 1, 17.0815, 6.2815)" >
            <g >
                <g >
                    <g id="so16w"  gorn="0.2.2.0.0.0">
                        <g transform="matrix(0, -1, 1, 0, 0, 29.197)" >
                            <g >
                                <g >
                                    <g >
                                        <g >
                                            <g transform="matrix(8.98065e-11, -1, 1, 8.98065e-11, -12.6, 16.5968)" >
                                                <g >
                                                    <g >
                                                        <rect width="29.197" height="1.134"  x="-12.6" fill="#DCDCDC" y="14.031"/>
                                                    </g>
                                                </g>
                                            </g>
                                            <g transform="matrix(8.98065e-11, -1, 1, 8.98065e-11, -9, 20.1968)" >
                                                <g >
                                                    <g >
                                                        <rect width="29.197" height="1.134"  x="-9" fill="#DCDCDC" y="14.031"/>
                                                    </g>
                                                </g>
                                            </g>
                                            <g transform="matrix(8.98065e-11, -1, 1, 8.98065e-11, -5.4, 23.7969)" >
                                                <g >
                                                    <g >
                                                        <rect width="29.197" height="1.134"  x="-5.4" fill="#DCDCDC" y="14.031"/>
                                                    </g>
                                                </g>
                                            </g>
                                            <g transform="matrix(8.98065e-11, -1, 1, 8.98065e-11, -1.8, 27.3969)" >
                                                <g >
                                                    <g >
                                                        <rect width="29.197" height="1.134"  x="-1.8" fill="#DCDCDC" y="14.031"/>
                                                    </g>
                                                </g>
                                            </g>
                                            <g transform="matrix(8.98065e-11, -1, 1, 8.98065e-11, 1.8, 30.9969)" >
                                                <g >
                                                    <g >
                                                        <rect width="29.197" height="1.134"  x="1.8" fill="#DCDCDC" y="14.031"/>
                                                    </g>
                                                </g>
                                            </g>
                                            <g transform="matrix(8.98065e-11, -1, 1, 8.98065e-11, 5.4, 34.5969)" >
                                                <g >
                                                    <g >
                                                        <rect width="29.197" height="1.134"  x="5.4" fill="#DCDCDC" y="14.031"/>
                                                    </g>
                                                </g>
                                            </g>
                                            <g transform="matrix(8.98065e-11, -1, 1, 8.98065e-11, 9, 38.1968)" >
                                                <g >
                                                    <g >
                                                        <rect width="29.197" height="1.134"  x="9" fill="#DCDCDC" y="14.031"/>
                                                    </g>
                                                </g>
                                            </g>
                                            <g transform="matrix(8.98065e-11, -1, 1, 8.98065e-11, 12.6, 41.7969)" >
                                                <g >
                                                    <g >
                                                        <rect width="29.197" height="1.134"  x="12.6" fill="#DCDCDC" y="14.031"/>
                                                    </g>
                                                </g>
                                            </g>
                                            <g transform="matrix(8.97949e-11, -1, 1, 8.97949e-11, -1.53914e-09, 29.1968)" >
                                                <g >
                                                    <g >
                                                        <rect width="21.26" height="29.197"  x="3.969" fill="#333333" y="0"/>
                                                    </g>
                                                </g>
                                            </g>
                                            <g transform="matrix(8.98375e-11, -1, 1, 8.98375e-11, -9.92131, 39.1181)" >
                                                <g >
                                                    <g >
                                                        <rect width="1.417" height="29.197"  x="13.89" fill="#505050" y="9.92102"/>
                                                    </g>
                                                </g>
                                            </g>
                                            <path  d="M0,16.866c1.252,0,2.268,-1.015,2.268,-2.268S1.252,12.331,0,12.331L0,16.866z"/>
                                        </g>
                                    </g>
                                </g>
                            </g>
                        </g>
                    </g>
                </g>
            </g>
        </g>
        <g transform="matrix(1, 0, 0, 1, 5.8055, 25.5885)" >
            <g >
                <g >
                    <g id="0805-res"  gorn="0.2.3.0.0.0">
                        <path  fill="#DCDCDC" d="M5.386,3.543L0.283,3.543C0.127,3.543,0,3.416,0,3.26L0,0.283C0,0.127,0.127,0,0.283,0l5.102,0c0.157,0,0.283,0.127,0.283,0.283L5.668,3.26C5.669,3.416,5.542,3.543,5.386,3.543z"/>
                        <rect width="3.543" height="3.543"  x="1.063" fill="#333333"/>
                    </g>
                </g>
            </g>
        </g>
        <g transform="matrix(1, 0, 0, 1, 5.8055, 31.3485)" >
            <g >
                <g >
                    <g id="0805-res"  gorn="0.2.4.0.0.0">
                        <path  fill="#DCDCDC" d="M5.386,3.543L0.283,3.543C0.127,3.543,0,3.416,0,3.26L0,0.283C0,0.127,0.127,0,0.283,0l5.102,0c0.157,0,0.283,0.127,0.283,0.283L5.668,3.26C5.669,3.416,5.542,3.543,5.386,3.543z"/>
                        <rect width="3.543" height="3.543"  x="1.063" fill="#333333"/>
                    </g>
                </g>
            </g>
        </g>
        <g transform="matrix(1, 0, 0, 1, 1.92748, 14.934)" >
            <g >
                <g >
                    <g id="adafruit_3.5mm"  gorn="0.2.5.0.0.0">
                        <path  fill="#DCDCDC" d="M9.77299,4.306c-0.032,-0.2,-0.141,-0.257,-0.403,-0.341C9.171,3.901,7.83698,3.476,7.83698,3.476s-0.930002,-0.351,-1.619,0.146C6.125,3.688,6.029,3.765,5.932,3.846C6.014,3.749,6.09,3.653,6.156,3.56c0.495,-0.69,0.143,-1.619,0.143,-1.619S5.872,0.607,5.807,0.408c-0.0850003,-0.262,-0.142,-0.37,-0.342,-0.402S5.177,0.06,5.016,0.283C4.894,0.453,4.077,1.59,4.077,1.59S3.456,2.367,3.716,3.176C3.75,3.285,3.793,3.4,3.841,3.517C3.774,3.409,3.706,3.308,3.638,3.215C3.135,2.531,2.142,2.579,2.142,2.579s-1.4,-0.006,-1.61,-0.006c-0.275,-0.001,-0.396,0.02,-0.488,0.201C-0.047,2.955,0.007,3.065,0.17,3.287c0.124,0.169,0.952999,1.297,0.952999,1.297s0.546,0.830002,1.395,0.833998c0.114,0,0.236,-0.005,0.362,-0.014c-0.122,0.03,-0.24,0.064,-0.348,0.1C1.726,5.771,1.465,6.73,1.465,6.73S1.027,8.05997,0.961999,8.25898C0.876002,8.51998,0.859003,8.64202,1.002,8.78501c0.144,0.143,0.265,0.126,0.526,0.04C1.727,8.76002,3.056,8.31902,3.056,8.31902s0.958003,-0.263,1.224,-1.07c0.036,-0.108,0.069,-0.225,0.1,-0.348C4.371,7.027,4.366,7.149,4.367,7.263c0.005,0.849002,0.835999,1.394,0.835999,1.394s1.13,0.826999,1.298,0.950998C6.724,9.76997,6.834,9.82397,7.015,9.73202c0.181,-0.0920002,0.201,-0.213,0.2,-0.488c-0.001,-0.21,-0.009,-1.61,-0.009,-1.61s0.047,-0.993002,-0.639,-1.495C6.475,6.072,6.373,6.004,6.266,5.937c0.117,0.047,0.232,0.09,0.34,0.124C7.416,6.319,8.19,5.697,8.19,5.697s1.136,-0.819,1.306,-0.940997C9.71899,4.595,9.80503,4.507,9.77299,4.306zM4.951,3.275C5.103,3.299,5.179,3.624,5.12,4.001S4.889,4.663,4.736,4.639S4.507,4.29,4.567,3.914C4.626,3.537,4.798,3.251,4.951,3.275zM2.995,4.274c0.07,-0.138,0.402,-0.11,0.742003,0.063C4.077,4.51,4.295,4.762,4.225,4.9S3.823,5.01,3.483,4.837C3.143,4.664,2.925,4.412,2.995,4.274zM4.026,6.152c-0.269,0.27,-0.577,0.4,-0.686,0.291C3.231,6.334,3.36,6.027,3.63,5.757c0.269,-0.27,0.576,-0.4,0.686,-0.291C4.425,5.575,4.295,5.882,4.026,6.152zM5.51,6.785c-0.138,0.07,-0.39,-0.148,-0.563,-0.487c-0.174,-0.34,-0.203,-0.673,-0.065,-0.742997s0.39,0.148,0.563,0.487C5.618,6.382,5.647,6.714,5.51,6.785zM5.867,5.212C5.49,5.272,5.166,5.197,5.141,5.044C5.117,4.891,5.403,4.719,5.779,4.659c0.377,-0.06,0.701,0.015,0.725998,0.168C6.529,4.98,6.244,5.152,5.867,5.212z"/>
                    </g>
                </g>
            </g>
        </g>
    </g>
</svg>
