<?xml version='1.0' encoding='UTF-8' standalone='no'?>
<!-- Created with Fritzing (http://www.fritzing.org/) -->
<svg xmlns="http://www.w3.org/2000/svg" x="0in" width="0.65in" viewBox="0 0 46.8 43.2" y="0in" baseProfile="tiny" version="1.2"  height="0.6in">
    <desc>
        <referenceFile>protrinket backpack_breadboard.svg</referenceFile>
    </desc>
    <desc >Fritzing breadboard generated by brd2svg</desc>
    <g gorn="0.1" id="breadboard" >
        <g gorn="0.1.0" id="icon" >
            <path stroke-width="0" fill="#014cb1" stroke="none" d="M46.8,7.2L46.8,36A7.2,7.2,0,0,1,39.6,43.2L7.2,43.2A7.2,7.2,0,0,1,0,36L0,7.2A7.2,7.2,0,0,1,7.2,0L39.6,0A7.2,7.2,0,0,1,46.8,7.2M20.1827,3.6a1.41732,1.41732,0,1,0,2.83465,0,1.41732,1.41732,0,1,0,-2.83465,0zM12.9827,3.6a1.41732,1.41732,0,1,0,2.83465,0,1.41732,1.41732,0,1,0,-2.83465,0zM5.78268,3.6a1.41732,1.41732,0,1,0,2.83465,0,1.41732,1.41732,0,1,0,-2.83465,0zM27.3827,10.8a1.41732,1.41732,0,1,0,2.83465,0,1.41732,1.41732,0,1,0,-2.83465,0zM27.3827,3.6a1.41732,1.41732,0,1,0,2.83465,0,1.41732,1.41732,0,1,0,-2.83465,0zM36.0567,7.2a3.54331,3.54331,0,1,0,7.08661,0,3.54331,3.54331,0,1,0,-7.08661,0z" />
            <g >
                <title >layer 21</title>
                <line stroke-linecap="round" stroke-width="0.72" stroke="white" x1="25.56" x2="25.56" y1="0.36" y2="14.04" />
                <line stroke-linecap="round" stroke-width="0.72" stroke="white" x1="25.56" x2="32.04" y1="14.04" y2="14.04" />
                <line stroke-linecap="round" stroke-width="0.72" stroke="white" x1="32.04" x2="32.04" y1="14.04" y2="0.36" />
                <line stroke-linecap="round" stroke-width="0.72" stroke="white" x1="32.04" x2="25.56" y1="0.36" y2="0.36" />
                <g >
                    <title >text:CHG</title>
                    <text x="8.28" stroke-width="0" fill="#ffffff" stroke="none" text-anchor="end" y="23.8608"  font-family="OCRA" font-size="3.3408">CHG</text>
                </g>
                <g >
                    <title >text:DON</title>
                    <text x="0.72" stroke-width="0" fill="#ffffff" stroke="none" text-anchor="start" y="38.88"  font-family="OCRA" font-size="3.3408">DON</text>
                </g>
                <g >
                    <title >text:LiPoly</title>
                    <text x="41.04" stroke-width="0" fill="#ffffff" stroke="none" text-anchor="end" y="42.2208"  font-family="OCRA" font-size="3.3408">LiPoly</text>
                </g>
                <g >
                    <title >text:+</title>
                    <text x="24.12" stroke-width="0" fill="#ffffff" stroke="none" text-anchor="start" y="34.56"  font-family="OCRA" font-size="4.67712">+</text>
                </g>
                <g >
                    <title >text:-</title>
                    <text x="23.76" stroke-width="0" fill="#ffffff" stroke="none" text-anchor="start" y="21.24"  font-family="OCRA" font-size="4.67712">-</text>
                </g>
                <g >
                    <title >text:5V</title>
                    <text x="21.96" stroke-width="0" fill="#ffffff" stroke="none" text-anchor="middle" y="10.3104"  font-family="OCRA" font-size="3.3408">5V</text>
                </g>
                <g >
                    <title >text:G</title>
                    <text x="14.4" stroke-width="0" fill="#ffffff" stroke="none" text-anchor="middle" y="10.3104"  font-family="OCRA" font-size="3.3408">G</text>
                </g>
                <g >
                    <title >text:BAT</title>
                    <text x="7.2" stroke-width="0" fill="#ffffff" stroke="none" text-anchor="middle" y="9.9504"  font-family="OCRA" font-size="3.3408">BAT</text>
                </g>
                <g >
                    <title >element:C1</title>
                    <g >
                        <title >package:0805-NO</title>
                        <line stroke-linecap="round" stroke-width="0.864" stroke="white" x1="8.28" x2="11.16" y1="15.66" y2="15.66" />
                    </g>
                </g>
                <g >
                    <title >element:C2</title>
                    <g >
                        <title >package:0805-NO</title>
                        <line stroke-linecap="round" stroke-width="0.864" stroke="white" x1="13.68" x2="16.56" y1="15.66" y2="15.66" />
                    </g>
                </g>
                <g >
                    <title >element:CHG</title>
                    <g >
                        <title >package:CHIPLED_0805_NOOUTLINE</title>
                        <g >
                            <title >polygon</title>
                            <path stroke-linecap="round" stroke-width="0.432" fill="none" stroke="white" d="M3.96,14.22L5.04,15.66L2.88,15.66L3.96,14.22M3.096,15.372L4.824,15.372L3.096,15.372M3.42,14.94L4.5,14.94L3.42,14.94" />
                        </g>
                    </g>
                </g>
                <g >
                    <title >element:CN2</title>
                    <g >
                        <title >package:JSTPH2</title>
                        <line stroke-linecap="round" stroke-width="0.576" stroke="white" x1="45.2239" x2="45.2239" y1="19.542" y2="32.298" />
                        <line stroke-linecap="round" stroke-width="0.576" stroke="white" x1="35.3027" x2="23.9641" y1="37.2586" y2="37.2586" />
                        <line stroke-linecap="round" stroke-width="0.576" stroke="white" x1="23.9641" x2="23.9641" y1="37.2586" y2="34.8492" />
                        <line stroke-linecap="round" stroke-width="0.576" stroke="white" x1="23.9641" x2="31.0507" y1="34.8492" y2="34.8492" />
                        <line stroke-linecap="round" stroke-width="0.576" stroke="white" x1="31.0507" x2="31.0507" y1="34.8492" y2="30.8807" />
                        <line stroke-linecap="round" stroke-width="0.576" stroke="white" x1="31.0507" x2="31.0507" y1="20.9593" y2="16.9908" />
                        <line stroke-linecap="round" stroke-width="0.576" stroke="white" x1="31.0507" x2="23.9641" y1="16.9908" y2="16.9908" />
                        <line stroke-linecap="round" stroke-width="0.576" stroke="white" x1="23.9641" x2="23.9641" y1="16.9908" y2="14.5814" />
                        <line stroke-linecap="round" stroke-width="0.576" stroke="white" x1="23.9641" x2="35.3027" y1="14.5814" y2="14.5814" />
                    </g>
                </g>
                <g >
                    <title >element:DONE</title>
                    <g >
                        <title >package:CHIPLED_0805_NOOUTLINE</title>
                        <g >
                            <title >polygon</title>
                            <path stroke-linecap="round" stroke-width="0.432" fill="none" stroke="white" d="M3.96,30.42L5.04,31.86L2.88,31.86L3.96,30.42M3.096,31.572L4.824,31.572L3.096,31.572M3.42,31.14L4.5,31.14L3.42,31.14" />
                        </g>
                    </g>
                </g>
                <g >
                    <title >element:FID1</title>
                    <g >
                        <title >package:FIDUCIAL_1MM</title>
                    </g>
                </g>
                <g >
                    <title >element:JP1</title>
                    <g >
                        <title >package:1X03_ROUND_76</title>
                    </g>
                </g>
                <g >
                    <title >element:JP2</title>
                    <g >
                        <title >package:1X02_ROUND</title>
                    </g>
                </g>
                <g >
                    <title >element:R1</title>
                    <g >
                        <title >package:0805-NO</title>
                        <line stroke-linecap="round" stroke-width="0.864" stroke="white" x1="19.44" x2="22.32" y1="37.26" y2="37.26" />
                    </g>
                </g>
                <g >
                    <title >element:R2</title>
                    <g >
                        <title >package:0805-NO</title>
                        <line stroke-linecap="round" stroke-width="0.864" stroke="white" x1="14.04" x2="16.92" y1="37.26" y2="37.26" />
                    </g>
                </g>
                <g >
                    <title >element:R3</title>
                    <g >
                        <title >package:_0805MP</title>
                        <line stroke-linecap="round" stroke-width="0.576" stroke="white" x1="11.88" x2="9" y1="37.26" y2="37.26" />
                    </g>
                </g>
                <g >
                    <title >element:R4</title>
                    <g >
                        <title >package:0805-NO</title>
                        <line stroke-linecap="round" stroke-width="0.864" stroke="white" x1="21.96" x2="19.08" y1="15.84" y2="15.84" />
                    </g>
                </g>
                <g >
                    <title >element:SJ1</title>
                    <g >
                        <title >package:SOLDERJUMPER_ARROW_NOPASTE</title>
                    </g>
                </g>
                <g >
                    <title >element:U$9</title>
                    <g >
                        <title >package:ADAFRUIT_2.5MM</title>
                    </g>
                </g>
                <g >
                    <title >element:U$10</title>
                    <g >
                        <title >package:MOUNTINGHOLE_2.5_PLATED</title>
                        <circle cy="7.2" stroke-width="0.576" fill="none" stroke="white" cx="39.6" r="5.66929" />
                    </g>
                </g>
                <g >
                    <title >element:U1</title>
                    <g >
                        <title >package:SOT23-5</title>
                        <line stroke-linecap="round" stroke-width="0.576" stroke="white" x1="10.6923" x2="15.2277" y1="32.0372" y2="32.0372" />
                        <line stroke-linecap="round" stroke-width="0.576" stroke="white" x1="10.6923" x2="15.2277" y1="22.6828" y2="22.6828" />
                        <line stroke-linecap="round" stroke-width="0.576" stroke="white" x1="9.98359" x2="9.98359" y1="28.4939" y2="26.2261" />
                    </g>
                </g>
            </g>
            <g transform="matrix(0, -1, 1, 0, -8.63294, 28.0729)" >
                <g >
                    <rect x="7.87745" stroke-width="0" gorn="0.1.0.2.0.0" fill="#9A916C" stroke="none" id="connector0pin" width="3.68504" y="16.2269"  height="4.25197"/>
                </g>
            </g>
            <g transform="matrix(0, -1, 1, 0, -3.24708, 22.6871)" >
                <g >
                    <rect x="7.87745" stroke-width="0" gorn="0.1.0.3.0.0" fill="#9A916C" stroke="none" id="connector1pin" width="3.68504" y="10.8411"  height="4.25197"/>
                </g>
            </g>
            <g transform="matrix(0, -1, 1, 0, -3.23292, 33.4729)" >
                <g >
                    <rect x="13.2774" stroke-width="0" gorn="0.1.0.4.0.0" fill="#9A916C" stroke="none" id="connector2pin" width="3.68504" y="16.2269"  height="4.25197"/>
                </g>
            </g>
            <g transform="matrix(0, -1, 1, 0, 2.15292, 28.0871)" >
                <g >
                    <rect x="13.2774" stroke-width="0" gorn="0.1.0.5.0.0" fill="#9A916C" stroke="none" id="connector3pin" width="3.68504" y="10.8411"  height="4.25197"/>
                </g>
            </g>
            <rect x="2.25922" stroke-width="0" gorn="0.1.0.6" fill="#9A916C" stroke="none" id="connector4pin" width="3.40158" y="16.2156"  height="3.40158"/>
            <rect x="2.25922" stroke-width="0" gorn="0.1.0.7" fill="#9A916C" stroke="none" id="connector5pin" width="3.40158" y="10.2628"  height="3.40158"/>
            <g transform="matrix(0, 1, -1, 0, 49.3172, -3.14646)" >
                <g >
                    <rect x="24.8145" stroke-width="0" gorn="0.1.0.8.0.0" fill="#9A916C" stroke="none" id="connector6pin" width="2.83465" y="16.5657"  height="13.0393"/>
                </g>
            </g>
            <g transform="matrix(0, 1, -1, 0, 54.9865, 2.52284)" >
                <g >
                    <rect x="24.8145" stroke-width="0" gorn="0.1.0.9.0.0" fill="#9A916C" stroke="none" id="connector7pin" width="2.83465" y="22.235"  height="13.0393"/>
                </g>
            </g>
            <rect x="36.1531" stroke-width="0" gorn="0.1.0.10" fill="#9A916C" stroke="none" id="connector8pin" width="9.63778" y="14.0145"  height="4.53543"/>
            <rect x="36.1531" stroke-width="0" gorn="0.1.0.11" fill="#9A916C" stroke="none" id="connector9pin" width="9.63778" y="33.2901"  height="4.53543"/>
            <rect x="2.25922" stroke-width="0" gorn="0.1.0.12" fill="#9A916C" stroke="none" id="connector10pin" width="3.40158" y="32.4156"  height="3.40158"/>
            <rect x="2.25922" stroke-width="0" gorn="0.1.0.13" fill="#9A916C" stroke="none" id="connector11pin" width="3.40158" y="26.4628"  height="3.40158"/>
            <rect x="38.9027" stroke-width="0" gorn="0.1.0.14" fill="#9A916C" ry="1.41732" stroke="none" id="connector12pin" width="2.83465" rx="1.41732" y="24.3227"  height="2.83465"/>
            <circle cy="3.6" stroke-width="1.31868" gorn="0.1.0.15" fill="none" stroke="#9A916C" cx="21.6" id="connector13pin" r="2.07666" connectorname="VBUS" />
            <circle cy="3.6" stroke-width="1.31868" gorn="0.1.0.16" fill="none" stroke="#9A916C" cx="14.4" id="connector14pin" r="2.07666" connectorname="GND" />
            <circle cy="3.6" stroke-width="1.31868" gorn="0.1.0.17" fill="none" stroke="#9A916C" cx="7.2" id="connector15pin" r="2.07666" connectorname="VBAT" />
            <circle cy="10.8" stroke-width="1.10268" gorn="0.1.0.18" fill="none" stroke="#9A916C" cx="28.8" id="connector16pin" r="1.96866" connectorname="SW2" />
            <circle cy="3.6" stroke-width="1.10268" gorn="0.1.0.19" fill="none" stroke="#9A916C" cx="28.8" id="connector17pin" r="1.96866" connectorname="SW1" />
            <g transform="matrix(0, -1, 1, 0, -19.0729, 60.8329)" >
                <g >
                    <rect x="19.0374" stroke-width="0" gorn="0.1.0.20.0.0" fill="#9A916C" stroke="none" id="connector18pin" width="3.68504" y="37.8269"  height="4.25197"/>
                </g>
            </g>
            <g transform="matrix(0, -1, 1, 0, -13.6871, 55.4471)" >
                <g >
                    <rect x="19.0374" stroke-width="0" gorn="0.1.0.21.0.0" fill="#9A916C" stroke="none" id="connector19pin" width="3.68504" y="32.4411"  height="4.25197"/>
                </g>
            </g>
            <g transform="matrix(0, -1, 1, 0, -24.4729, 55.4329)" >
                <g >
                    <rect x="13.6374" stroke-width="0" gorn="0.1.0.22.0.0" fill="#9A916C" stroke="none" id="connector20pin" width="3.68504" y="37.8269"  height="4.25197"/>
                </g>
            </g>
            <g transform="matrix(0, -1, 1, 0, -19.0871, 50.0471)" >
                <g >
                    <rect x="13.6374" stroke-width="0" gorn="0.1.0.23.0.0" fill="#9A916C" stroke="none" id="connector21pin" width="3.68504" y="32.4411"  height="4.25197"/>
                </g>
            </g>
            <g transform="matrix(0, 1, -1, 0, 44.82, 23.94)" >
                <g >
                    <rect x="8.73922" stroke-width="0" gorn="0.1.0.24.0.0" fill="#9A916C" stroke="none" id="connector22pin" width="3.40158" y="32.5374"  height="3.68504"/>
                </g>
            </g>
            <g transform="matrix(0, 1, -1, 0, 50.58, 29.7)" >
                <g >
                    <rect x="8.73922" stroke-width="0" gorn="0.1.0.25.0.0" fill="#9A916C" stroke="none" id="connector23pin" width="3.40158" y="38.2974"  height="3.68504"/>
                </g>
            </g>
            <g transform="matrix(0, 1, -1, 0, 33.6671, -7.37294)" >
                <g >
                    <rect x="18.6774" stroke-width="0" gorn="0.1.0.26.0.0" fill="#9A916C" stroke="none" id="connector24pin" width="3.68504" y="11.0211"  height="4.25197"/>
                </g>
            </g>
            <g transform="matrix(0, 1, -1, 0, 39.0529, -1.98708)" >
                <g >
                    <rect x="18.6774" stroke-width="0" gorn="0.1.0.27.0.0" fill="#9A916C" stroke="none" id="connector25pin" width="3.68504" y="16.4069"  height="4.25197"/>
                </g>
            </g>
            <circle cy="7.2" stroke-width="1.44" gorn="0.1.0.28" fill="none" stroke="#9A916C" cx="39.6" id="connector26pin" r="4.26331" connectorname="P$1" />
            <g transform="matrix(0, -1, 1, 0, -13.4076, 46.6983)" >
                <g >
                    <rect x="15.8658" stroke-width="0" gorn="0.1.0.29.0.0" fill="#9A916C" stroke="none" id="connector27pin" width="1.55905" y="28.3522"  height="3.40158"/>
                </g>
            </g>
            <g transform="matrix(0, -1, 1, 0, -10.7147, 44.0053)" >
                <g >
                    <rect x="15.8658" stroke-width="0" gorn="0.1.0.30.0.0" fill="#9A916C" stroke="none" id="connector28pin" width="1.55905" y="25.6592"  height="3.40158"/>
                </g>
            </g>
            <g transform="matrix(0, -1, 1, 0, -8.02174, 41.3124)" >
                <g >
                    <rect x="15.8658" stroke-width="0" gorn="0.1.0.31.0.0" fill="#9A916C" stroke="none" id="connector29pin" width="1.55905" y="22.9663"  height="3.40158"/>
                </g>
            </g>
            <g transform="matrix(0, -1, 1, 0, -15.3924, 33.9417)" >
                <g >
                    <rect x="8.49514" stroke-width="0" gorn="0.1.0.32.0.0" fill="#9A916C" stroke="none" id="connector30pin" width="1.55905" y="22.9663"  height="3.40158"/>
                </g>
            </g>
            <g transform="matrix(0, -1, 1, 0, -20.7783, 39.3276)" >
                <g >
                    <rect x="8.49514" stroke-width="0" gorn="0.1.0.33.0.0" fill="#9A916C" stroke="none" id="connector31pin" width="1.55905" y="28.3522"  height="3.40158"/>
                </g>
            </g>
        </g>
        <g transform="matrix(1, 0, 0, 1, 6.8855, 13.8885)" >
            <g gorn="0.1.1.0" id="0805-cap" >
                <g transform="matrix(0, -1, 1, 0, 1.063, 4.606)" >
                    <g >
                        <path fill="#DCDCDC" d="M5.386,3.543L0.283,3.543C0.127,3.543,0,3.416,0,3.26L0,0.283C0,0.127,0.127,0,0.283,0l5.102,0c0.157,0,0.283,0.127,0.283,0.283L5.668,3.26C5.669,3.416,5.542,3.543,5.386,3.543z" />
                        <rect x="1.063" fill="#6E554B" width="3.543"  height="3.543"/>
                    </g>
                </g>
            </g>
        </g>
        <g transform="matrix(1, 0, 0, 1, 12.2855, 13.8885)" >
            <g gorn="0.1.2.0" id="0805-cap" >
                <g transform="matrix(0, -1, 1, 0, 1.063, 4.606)" >
                    <g >
                        <path fill="#DCDCDC" d="M5.386,3.543L0.283,3.543C0.127,3.543,0,3.416,0,3.26L0,0.283C0,0.127,0.127,0,0.283,0l5.102,0c0.157,0,0.283,0.127,0.283,0.283L5.668,3.26C5.669,3.416,5.542,3.543,5.386,3.543z" />
                        <rect x="1.063" fill="#6E554B" width="3.543"  height="3.543"/>
                    </g>
                </g>
            </g>
        </g>
        <g transform="matrix(1, 0, 0, 1, 2.1885, 12.106)" >
            <g gorn="0.1.3.0" id="0805-led-red" >
                <path fill="#DCDCDC" d="M3.543,0.282l0,5.103c0,0.156,-0.127,0.283,-0.283,0.283L0.283,5.668C0.127,5.668,0,5.541,0,5.385l0,-5.102C0,0.126,0.127,0,0.283,0L3.26,0C3.416,-0.001,3.543,0.126,3.543,0.282z" />
                <rect x="0" fill="#FF0000" width="3.543" y="1.062"  height="3.543"/>
                <circle cy="2.833" fill="#A00000" cx="1.772" r="0.567" />
            </g>
        </g>
        <g transform="matrix(1, 0, 0, 1, 21.413, 13.164)" >
            <g gorn="0.1.4.0" id="jstph2" >
                <g transform="matrix(0, 1, -1, 0, 24.0945, 1.4175)" >
                    <g >
                        <g >
                            <polygon fill="#666666" points="19.843,0,2.835,0,2.835,2.126,0,2.126,0,17.008,22.677,17.008,22.677,2.126,19.843,2.126" />
                            <rect x="4.252" width="2.835" y="5.669"  height="8.50399"/>
                            <rect x="15.591" width="2.835" y="5.669"  height="8.50399"/>
                            <rect x="4.252" fill="#333333" width="2.835" y="14.173"  height="2.835"/>
                            <rect x="15.591" fill="#333333" width="2.835" y="14.173"  height="2.835"/>
                            <rect x="0" fill="#333333" width="2.268" y="17.008"  height="4.252"/>
                            <rect x="20.409" fill="#333333" width="2.268" y="17.008"  height="4.252"/>
                            <rect x="7.51198" fill="#DCDCDC" width="1.984" y="17.008"  height="7.087"/>
                            <rect x="13.181" fill="#DCDCDC" width="1.984" y="17.008"  height="7.087"/>
                        </g>
                    </g>
                </g>
            </g>
        </g>
        <g transform="matrix(1, 0, 0, 1, 2.1885, 28.306)" >
            <g gorn="0.1.5.0" id="0805-led-green" >
                <path fill="#DCDCDC" d="M3.543,0.282l0,5.103c0,0.156,-0.127,0.283,-0.283,0.283L0.283,5.668C0.127,5.668,0,5.541,0,5.385l0,-5.102C0,0.126,0.127,0,0.283,0L3.26,0C3.416,-0.001,3.543,0.126,3.543,0.282z" />
                <rect x="0" fill="#00FF00" width="3.543" y="1.062"  height="3.543"/>
                <circle cy="2.833" fill="#00B400" cx="1.772" r="0.567" />
            </g>
        </g>
        <g transform="matrix(1, 0, 0, 1, 18.0455, 35.4885)" >
            <g gorn="0.1.6.0" id="0805-res" >
                <g transform="matrix(0, -1, 1, 0, 1.063, 4.606)" >
                    <g >
                        <path fill="#DCDCDC" d="M5.386,3.543L0.283,3.543C0.127,3.543,0,3.416,0,3.26L0,0.283C0,0.127,0.127,0,0.283,0l5.102,0c0.157,0,0.283,0.127,0.283,0.283L5.668,3.26C5.669,3.416,5.542,3.543,5.386,3.543z" />
                        <rect x="1.063" fill="#333333" width="3.543"  height="3.543"/>
                    </g>
                </g>
            </g>
        </g>
        <g transform="matrix(1, 0, 0, 1, 12.6455, 35.4885)" >
            <g gorn="0.1.7.0" id="0805-res" >
                <g transform="matrix(0, -1, 1, 0, 1.063, 4.606)" >
                    <g >
                        <path fill="#DCDCDC" d="M5.386,3.543L0.283,3.543C0.127,3.543,0,3.416,0,3.26L0,0.283C0,0.127,0.127,0,0.283,0l5.102,0c0.157,0,0.283,0.127,0.283,0.283L5.668,3.26C5.669,3.416,5.542,3.543,5.386,3.543z" />
                        <rect x="1.063" fill="#333333" width="3.543"  height="3.543"/>
                    </g>
                </g>
            </g>
        </g>
        <g transform="matrix(1, 0, 0, 1, 7.6055, 35.4885)" >
            <g gorn="0.1.8.0" id="0805-res" >
                <g transform="matrix(0, 1, -1, 0, 4.606, -1.063)" >
                    <g >
                        <path fill="#DCDCDC" d="M5.386,3.543L0.283,3.543C0.127,3.543,0,3.416,0,3.26L0,0.283C0,0.127,0.127,0,0.283,0l5.102,0c0.157,0,0.283,0.127,0.283,0.283L5.668,3.26C5.669,3.416,5.542,3.543,5.386,3.543z" />
                        <rect x="1.063" fill="#333333" width="3.543"  height="3.543"/>
                    </g>
                </g>
            </g>
        </g>
        <g transform="matrix(1, 0, 0, 1, 17.6855, 14.0685)" >
            <g gorn="0.1.9.0" id="0805-res" >
                <g transform="matrix(0, 1, -1, 0, 4.606, -1.063)" >
                    <g >
                        <path fill="#DCDCDC" d="M5.386,3.543L0.283,3.543C0.127,3.543,0,3.416,0,3.26L0,0.283C0,0.127,0.127,0,0.283,0l5.102,0c0.157,0,0.283,0.127,0.283,0.283L5.668,3.26C5.669,3.416,5.542,3.543,5.386,3.543z" />
                        <rect x="1.063" fill="#333333" width="3.543"  height="3.543"/>
                    </g>
                </g>
            </g>
        </g>
        <g transform="matrix(1, 0, 0, 1, 8.85002, 23.533)" >
            <g gorn="0.1.10.0" id="sot23-5" >
                <g transform="matrix(0, -1, 1, 0, 0.282996, 7.93706)" >
                    <g >
                        <g >
                            <rect x="0.850003" fill="#DCDCDC" width="1.134"  height="7.65403"/>
                            <rect x="6.236" fill="#DCDCDC" width="1.134"  height="7.65403"/>
                            <rect x="3.543" fill="#DCDCDC" width="1.134" y="4.535"  height="3.118"/>
                            <rect fill="#303030" width="8.22002" y="1.559"  height="4.535"/>
                        </g>
                    </g>
                </g>
            </g>
        </g>
    </g>
</svg>
