<?xml version='1.0' encoding='UTF-8' standalone='no'?>
<!-- Created with Fritzing (http://www.fritzing.org/) -->
<svg xmlns="http://www.w3.org/2000/svg" version="1.2" height="0.7in" width="0.65in" x="0in" gorn="0" y="0in" viewBox="0 0 46.8 50.4"  id="svg2">
    <desc >
        <referenceFile >VCNL4010_breadboard.svg</referenceFile>
    </desc>
    <metadata  id="metadata407"/>
    <defs  id="defs405"/>
    <desc  id="desc4">Fritzing breadboard generated by brd2svg</desc>
    <g gorn="0.4"  id="icon">
        <path gorn="0.4.0" style="fill:#014cb1;stroke:none;stroke-width:0"  id="path8" d="m 39.6,50.4 -32.4,0 A 7.2,7.2 0 0 1 0,43.2 L 0,7.2 A 7.2,7.2 0 0 1 7.2,0 l 32.4,0 a 7.2,7.2 0 0 1 7.2,7.2 l 0,36 a 7.2,7.2 0 0 1 -7.2,7.2 m 0.3827,-5.04 a 1.417325,1.417325 0 1 0 2.83465,0 1.417325,1.417325 0 1 0 -2.83465,0 z m -7.2,0 a 1.417325,1.417325 0 1 0 2.83465,0 1.417325,1.417325 0 1 0 -2.83465,0 z m -7.2,0 a 1.417325,1.417325 0 1 0 2.83465,0 1.417325,1.417325 0 1 0 -2.83465,0 z m -7.2,0 a 1.417325,1.417325 0 1 0 2.83465,0 1.417325,1.417325 0 1 0 -2.83465,0 z m -7.2,0 a 1.417325,1.417325 0 1 0 2.83465,0 1.417325,1.417325 0 1 0 -2.83465,0 z m -7.20002,0 a 1.417325,1.417325 0 1 0 2.83465,0 1.417325,1.417325 0 1 0 -2.83465,0 z M 3.65669,7.2 a 3.54331,3.54331 0 1 0 7.08661,0 3.54331,3.54331 0 1 0 -7.08661,0 z m 32.40001,0 a 3.54331,3.54331 0 1 0 7.08661,0 3.54331,3.54331 0 1 0 -7.08661,0 z"/>
        <g gorn="0.4.1"  id="g10">
            <title  id="title12">layer 21</title>
            <g gorn="0.4.1.1"  id="g14">
                <title  id="title16">text:Vin</title>
                <g  transform="translate(7.0704,41.4)">
                    <g >
                        <g >
                            <g gorn="0.4.1.1.1.0.0.0"  id="g18">
                                <g  transform="matrix(0,-1,1,0,0,0)">
                                    <g >
                                        <g >
                                            <g gorn="0.4.1.1.1.0.0.0.0.0.0.0"  id="g20">
                                                <text x="0" gorn="0.4.1.1.1.0.0.0.0.0.0.0.0" style="font-size:3.34080005px;font-family:OCRA;text-anchor:start;fill:#ffffff;stroke:none;stroke-width:0" y="0"  font-size="3.3408" id="text22">Vin</text>
                                            </g>
                                        </g>
                                    </g>
                                </g>
                            </g>
                        </g>
                    </g>
                </g>
            </g>
            <g gorn="0.4.1.2"  id="g24">
                <title  id="title26">text:GND</title>
                <g  transform="translate(21.4704,41.76)">
                    <g >
                        <g >
                            <g gorn="0.4.1.2.1.0.0.0"  id="g28">
                                <g  transform="matrix(0,-1,1,0,0,0)">
                                    <g >
                                        <g >
                                            <g gorn="0.4.1.2.1.0.0.0.0.0.0.0"  id="g30">
                                                <text x="0" gorn="0.4.1.2.1.0.0.0.0.0.0.0.0" style="font-size:3.34080005px;font-family:OCRA;text-anchor:start;fill:#ffffff;stroke:none;stroke-width:0" y="0"  font-size="3.3408" id="text32">GND</text>
                                            </g>
                                        </g>
                                    </g>
                                </g>
                            </g>
                        </g>
                    </g>
                </g>
            </g>
            <g gorn="0.4.1.3"  id="g34">
                <title  id="title36">text:SDA</title>
                <g  transform="translate(35.8704,41.76)">
                    <g >
                        <g >
                            <g gorn="0.4.1.3.1.0.0.0"  id="g38">
                                <g  transform="matrix(0,-1,1,0,0,0)">
                                    <g >
                                        <g >
                                            <g gorn="0.4.1.3.1.0.0.0.0.0.0.0"  id="g40">
                                                <text x="0" gorn="0.4.1.3.1.0.0.0.0.0.0.0.0" style="font-size:3.34080005px;font-family:OCRA;text-anchor:start;fill:#ffffff;stroke:none;stroke-width:0" y="0"  font-size="3.3408" id="text42">SDA</text>
                                            </g>
                                        </g>
                                    </g>
                                </g>
                            </g>
                        </g>
                    </g>
                </g>
            </g>
            <g gorn="0.4.1.4"  id="g44">
                <title  id="title46">text:SCL</title>
                <g  transform="translate(28.6704,41.76)">
                    <g >
                        <g >
                            <g gorn="0.4.1.4.1.0.0.0"  id="g48">
                                <g  transform="matrix(0,-1,1,0,0,0)">
                                    <g >
                                        <g >
                                            <g gorn="0.4.1.4.1.0.0.0.0.0.0.0"  id="g50">
                                                <text x="0" gorn="0.4.1.4.1.0.0.0.0.0.0.0.0" style="font-size:3.34080005px;font-family:OCRA;text-anchor:start;fill:#ffffff;stroke:none;stroke-width:0" y="0"  font-size="3.3408" id="text52">SCL</text>
                                            </g>
                                        </g>
                                    </g>
                                </g>
                            </g>
                        </g>
                    </g>
                </g>
            </g>
            <g gorn="0.4.1.5"  id="g54">
                <title  id="title56">text:3vo</title>
                <g  transform="translate(14.9904,41.76)">
                    <g >
                        <g >
                            <g gorn="0.4.1.5.1.0.0.0"  id="g58">
                                <g  transform="matrix(0,-1,1,0,0,0)">
                                    <g >
                                        <g >
                                            <g gorn="0.4.1.5.1.0.0.0.0.0.0.0"  id="g60">
                                                <text x="0" gorn="0.4.1.5.1.0.0.0.0.0.0.0.0" style="font-size:3.34080005px;font-family:OCRA;text-anchor:start;fill:#ffffff;stroke:none;stroke-width:0" y="0"  font-size="3.3408" id="text62">3vo</text>
                                            </g>
                                        </g>
                                    </g>
                                </g>
                            </g>
                        </g>
                    </g>
                </g>
            </g>
            <g gorn="0.4.1.6"  id="g64">
                <title  id="title66">text:VCNL4010</title>
                <text x="23.802601" gorn="0.4.1.6.1" style="font-size:3.34080005px;font-family:OCRA;text-anchor:middle;fill:#ffffff;stroke:none;stroke-width:0" y="5.4801602"  font-size="3.3408" id="text68">VCNL4010</text>
            </g>
            <g gorn="0.4.1.7"  id="g70">
                <title  id="title72">text:Proximity</title>
                <text x="23.802601" gorn="0.4.1.7.1" style="font-size:3.34080005px;font-family:OCRA;text-anchor:middle;fill:#ffffff;stroke:none;stroke-width:0" y="9.7094898"  font-size="3.3408" id="text74">Proximity</text>
            </g>
            <g gorn="0.4.1.8"  id="g76">
                <title  id="title78">text:Sensor</title>
                <text x="23.7572" gorn="0.4.1.8.1" style="font-size:3.34080005px;font-family:OCRA;text-anchor:middle;fill:#ffffff;stroke:none;stroke-width:0" y="13.9388"  font-size="3.3408" id="text80">Sensor</text>
            </g>
            <g gorn="0.4.1.9"  id="g82">
                <title  id="title84">text:INT</title>
                <g  transform="translate(43.0704,41.76)">
                    <g >
                        <g >
                            <g gorn="0.4.1.9.1.0.0.0"  id="g86">
                                <g  transform="matrix(0,-1,1,0,0,0)">
                                    <g >
                                        <g >
                                            <g gorn="0.4.1.9.1.0.0.0.0.0.0.0"  id="g88">
                                                <text x="0" gorn="0.4.1.9.1.0.0.0.0.0.0.0.0" style="font-size:3.34080005px;font-family:OCRA;text-anchor:start;fill:#ffffff;stroke:none;stroke-width:0" y="0"  font-size="3.3408" id="text90">INT</text>
                                            </g>
                                        </g>
                                    </g>
                                </g>
                            </g>
                        </g>
                    </g>
                </g>
            </g>
            <g gorn="0.4.1.10"  id="g92">
                <title  id="title94">element:C1</title>
                <g gorn="0.4.1.10.1"  id="g96">
                    <title  id="title98">package:0805-NO</title>
                    <line x2="38.52" y1="21.6" gorn="0.4.1.10.1.1" style="stroke:#ffffff;stroke-width:0.86400002;stroke-linecap:round"  y2="21.6" id="line100" x1="41.400002"/>
                </g>
            </g>
            <g gorn="0.4.1.11"  id="g102">
                <title  id="title104">element:C2</title>
                <g gorn="0.4.1.11.1"  id="g106">
                    <title  id="title108">package:0805-NO</title>
                    <line x2="5.4000001" y1="29.52" gorn="0.4.1.11.1.1" style="stroke:#ffffff;stroke-width:0.86400002;stroke-linecap:round"  y2="32.400002" id="line110" x1="5.4000001"/>
                </g>
            </g>
            <g gorn="0.4.1.12"  id="g112">
                <title  id="title114">element:C3</title>
                <g gorn="0.4.1.12.1"  id="g116">
                    <title  id="title118">package:0805-NO</title>
                    <line x2="32.759998" y1="21.6" gorn="0.4.1.12.1.1" style="stroke:#ffffff;stroke-width:0.86400002;stroke-linecap:round"  y2="21.6" id="line120" x1="35.639999"/>
                </g>
            </g>
            <g gorn="0.4.1.13"  id="g122">
                <title  id="title124">element:C4</title>
                <g gorn="0.4.1.13.1"  id="g126">
                    <title  id="title128">package:0805-NO</title>
                    <line x2="14.76" y1="18.719999" gorn="0.4.1.13.1.1" style="stroke:#ffffff;stroke-width:0.86400002;stroke-linecap:round"  y2="18.719999" id="line130" x1="11.88"/>
                </g>
            </g>
            <g gorn="0.4.1.14"  id="g132">
                <title  id="title134">element:C6</title>
                <g gorn="0.4.1.14.1"  id="g136">
                    <title  id="title138">package:0805-NO</title>
                    <line x2="11.88" y1="28.799999" gorn="0.4.1.14.1.1" style="stroke:#ffffff;stroke-width:0.86400002;stroke-linecap:round"  y2="28.799999" id="line140" x1="14.76"/>
                </g>
            </g>
            <g gorn="0.4.1.15"  id="g142">
                <title  id="title144">element:JP2</title>
                <g gorn="0.4.1.15.1"  id="g146">
                    <title  id="title148">package:1X06_ROUND_76</title>
                </g>
            </g>
            <g gorn="0.4.1.16"  id="g150">
                <title  id="title152">element:R1</title>
                <g gorn="0.4.1.16.1"  id="g154">
                    <title  id="title156">package:0805-NO</title>
                    <line x2="22.68" y1="33.119999" gorn="0.4.1.16.1.1" style="stroke:#ffffff;stroke-width:0.86400002;stroke-linecap:round"  y2="30.24" id="line158" x1="22.68"/>
                </g>
            </g>
            <g gorn="0.4.1.17"  id="g160">
                <title  id="title162">element:R2</title>
                <g gorn="0.4.1.17.1"  id="g164">
                    <title  id="title166">package:0805-NO</title>
                    <line x2="32.759998" y1="30.24" gorn="0.4.1.17.1.1" style="stroke:#ffffff;stroke-width:0.86400002;stroke-linecap:round"  y2="33.119999" id="line168" x1="32.759998"/>
                </g>
            </g>
            <g gorn="0.4.1.18"  id="g170">
                <title  id="title172">element:U$5</title>
                <g gorn="0.4.1.18.1"  id="g174">
                    <title  id="title176">package:MOUNTINGHOLE_2.5_PLATED</title>
                    <circle cy="7.1999998" cx="7.1999998" gorn="0.4.1.18.1.1" style="fill:none;stroke:#ffffff;stroke-width:0.57599998"  id="circle178" r="5.6692901"/>
                </g>
            </g>
            <g gorn="0.4.1.19"  id="g180">
                <title  id="title182">element:U$6</title>
                <g gorn="0.4.1.19.1"  id="g184">
                    <title  id="title186">package:MOUNTINGHOLE_2.5_PLATED</title>
                    <circle cy="7.1999998" cx="39.599998" gorn="0.4.1.19.1.1" style="fill:none;stroke:#ffffff;stroke-width:0.57599998"  id="circle188" r="5.6692901"/>
                </g>
            </g>
            <g gorn="0.4.1.20"  id="g190">
                <title  id="title192">element:U$7</title>
                <g gorn="0.4.1.20.1"  id="g194">
                    <title  id="title196">package:FIDUCIAL_1MM</title>
                </g>
            </g>
            <g gorn="0.4.1.21"  id="g198">
                <title  id="title200">element:U$8</title>
                <g gorn="0.4.1.21.1"  id="g202">
                    <title  id="title204">package:FIDUCIAL_1MM</title>
                </g>
            </g>
            <g gorn="0.4.1.22"  id="g206">
                <title  id="title208">element:U$13</title>
                <g gorn="0.4.1.22.1"  id="g210">
                    <title  id="title212">package:PCBFEAT-REV-040</title>
                </g>
            </g>
            <g gorn="0.4.1.23"  id="g214">
                <title  id="title216">element:U$14</title>
                <g gorn="0.4.1.23.1"  id="g218">
                    <title  id="title220">package:ADAFRUIT_3.5MM</title>
                </g>
            </g>
            <g gorn="0.4.1.24"  id="g222">
                <title  id="title224">element:U1</title>
                <g gorn="0.4.1.24.1"  id="g226">
                    <title  id="title228">package:VCNL4010</title>
                    <line x2="17.8016" y1="16.0016" gorn="0.4.1.24.1.1" style="stroke:#ffffff;stroke-width:0.57599998;stroke-linecap:round"  y2="21.068501" id="line230" x1="17.8016"/>
                    <line x2="17.8016" y1="27.1984" gorn="0.4.1.24.1.2" style="stroke:#ffffff;stroke-width:0.57599998;stroke-linecap:round"  y2="23.5488" id="line232" x1="17.8016"/>
                    <line x2="28.9984" y1="16.0016" gorn="0.4.1.24.1.3" style="stroke:#ffffff;stroke-width:0.57599998;stroke-linecap:round"  y2="22.4858" id="line234" x1="28.9984"/>
                    <line x2="28.9984" y1="27.1984" gorn="0.4.1.24.1.4" style="stroke:#ffffff;stroke-width:0.57599998;stroke-linecap:round"  y2="24.682699" id="line236" x1="28.9984"/>
                </g>
            </g>
            <g gorn="0.4.1.25"  id="g238">
                <title  id="title240">element:U2</title>
                <g gorn="0.4.1.25.1"  id="g242">
                    <title  id="title244">package:SOT23-5</title>
                    <line x2="0.72283697" y1="18.612301" gorn="0.4.1.25.1.1" style="stroke:#ffffff;stroke-width:0.57599998;stroke-linecap:round"  y2="23.147699" id="line246" x1="0.72283697"/>
                    <line x2="10.0772" y1="18.612301" gorn="0.4.1.25.1.2" style="stroke:#ffffff;stroke-width:0.57599998;stroke-linecap:round"  y2="23.147699" id="line248" x1="10.0772"/>
                    <line x2="6.5338602" y1="17.903601" gorn="0.4.1.25.1.3" style="stroke:#ffffff;stroke-width:0.57599998;stroke-linecap:round"  y2="17.903601" id="line250" x1="4.26614"/>
                </g>
            </g>
        </g>
        <g  transform="matrix(0,1,-1,0,58.8671,-21.0529)">
            <g >
                <g >
                    <g gorn="0.4.2.0.0.0"  id="g252">
                        <rect height="4.2519698" width="3.68504" x="38.117401" gorn="0.4.2.0.0.0.0" style="fill:#9a916c;stroke:none;stroke-width:0" y="16.781099"  id="connector5pin"/>
                    </g>
                </g>
            </g>
        </g>
        <g  transform="matrix(0,1,-1,0,64.2529,-15.6671)">
            <g >
                <g >
                    <g gorn="0.4.3.0.0.0"  id="g255">
                        <rect height="4.2519698" width="3.68504" x="38.117401" gorn="0.4.3.0.0.0.0" style="fill:#9a916c;stroke:none;stroke-width:0" y="22.166901"  id="connector6pin"/>
                    </g>
                </g>
            </g>
        </g>
        <rect height="4.2519698" width="3.68504" x="0.86456901" gorn="0.4.4" style="fill:#9a916c;stroke:none;stroke-width:0" y="28.834"  id="connector7pin"/>
        <rect height="4.2519698" width="3.68504" x="6.2503901" gorn="0.4.5" style="fill:#9a916c;stroke:none;stroke-width:0" y="28.834"  id="connector8pin"/>
        <g  transform="matrix(0,1,-1,0,53.1071,-15.2929)">
            <g >
                <g >
                    <g gorn="0.4.6.0.0.0"  id="g260">
                        <rect height="4.2519698" width="3.68504" x="32.357399" gorn="0.4.6.0.0.0.0" style="fill:#9a916c;stroke:none;stroke-width:0" y="16.781099"  id="connector9pin"/>
                    </g>
                </g>
            </g>
        </g>
        <g  transform="matrix(0,1,-1,0,58.4929,-9.90706)">
            <g >
                <g >
                    <g gorn="0.4.7.0.0.0"  id="g263">
                        <rect height="4.2519698" width="3.68504" x="32.357399" gorn="0.4.7.0.0.0.0" style="fill:#9a916c;stroke:none;stroke-width:0" y="22.166901"  id="connector10pin"/>
                    </g>
                </g>
            </g>
        </g>
        <g  transform="matrix(0,-1,1,0,-8.09294,34.7329)">
            <g >
                <g >
                    <g gorn="0.4.8.0.0.0"  id="g266">
                        <rect height="4.2519698" width="3.68504" x="11.4774" gorn="0.4.8.0.0.0.0" style="fill:#9a916c;stroke:none;stroke-width:0" y="19.2869"  id="connector11pin"/>
                    </g>
                </g>
            </g>
        </g>
        <g  transform="matrix(0,-1,1,0,-2.70708,29.3471)">
            <g >
                <g >
                    <g gorn="0.4.9.0.0.0"  id="g269">
                        <rect height="4.2519698" width="3.68504" x="11.4774" gorn="0.4.9.0.0.0.0" style="fill:#9a916c;stroke:none;stroke-width:0" y="13.9011"  id="connector12pin"/>
                    </g>
                </g>
            </g>
        </g>
        <g  transform="matrix(0,1,-1,0,39.4271,12.7871)">
            <g >
                <g >
                    <g gorn="0.4.10.0.0.0"  id="g272">
                        <rect height="4.2519698" width="3.68504" x="11.4774" gorn="0.4.10.0.0.0.0" style="fill:#9a916c;stroke:none;stroke-width:0" y="23.9811"  id="connector13pin"/>
                    </g>
                </g>
            </g>
        </g>
        <g  transform="matrix(0,1,-1,0,44.8129,18.1729)">
            <g >
                <g >
                    <g gorn="0.4.11.0.0.0"  id="g275">
                        <rect height="4.2519698" width="3.68504" x="11.4774" gorn="0.4.11.0.0.0.0" style="fill:#9a916c;stroke:none;stroke-width:0" y="29.366899"  id="connector14pin"/>
                    </g>
                </g>
            </g>
        </g>
        <circle cy="45.360001" cx="41.400002" gorn="0.4.12" style="fill:none;stroke:#9a916c;stroke-width:1.31868005" connectorname="INT"  id="connector15pin" r="2.0766599"/>
        <circle cy="45.360001" cx="34.200001" gorn="0.4.13" style="fill:none;stroke:#9a916c;stroke-width:1.31868005" connectorname="SDA"  id="connector16pin" r="2.0766599"/>
        <circle cy="45.360001" cx="27" gorn="0.4.14" style="fill:none;stroke:#9a916c;stroke-width:1.31868005" connectorname="SCL"  id="connector17pin" r="2.0766599"/>
        <circle cy="45.360001" cx="19.799999" gorn="0.4.15" style="fill:none;stroke:#9a916c;stroke-width:1.31868005" connectorname="GND"  id="connector18pin" r="2.0766599"/>
        <circle cy="45.360001" cx="12.6" gorn="0.4.16" style="fill:none;stroke:#9a916c;stroke-width:1.31868005" connectorname="3.3V"  id="connector19pin" r="2.0766599"/>
        <circle cy="45.360001" cx="5.4000001" gorn="0.4.17" style="fill:none;stroke:#9a916c;stroke-width:1.31868005" connectorname="VIN"  id="connector20pin" r="2.0766599"/>
        <g  transform="matrix(-1,0,0,-1,50.7458,63.36)">
            <g >
                <g >
                    <g gorn="0.4.18.0.0.0"  id="g284">
                        <rect height="4.2519698" width="3.68504" x="23.530399" gorn="0.4.18.0.0.0.0" style="fill:#9a916c;stroke:none;stroke-width:0" y="29.554001"  id="connector21pin"/>
                    </g>
                </g>
            </g>
        </g>
        <g  transform="matrix(-1,0,0,-1,39.9742,63.36)">
            <g >
                <g >
                    <g gorn="0.4.19.0.0.0"  id="g287">
                        <rect height="4.2519698" width="3.68504" x="18.1446" gorn="0.4.19.0.0.0.0" style="fill:#9a916c;stroke:none;stroke-width:0" y="29.554001"  id="connector22pin"/>
                    </g>
                </g>
            </g>
        </g>
        <rect height="4.2519698" width="3.68504" x="28.2246" gorn="0.4.20" style="fill:#9a916c;stroke:none;stroke-width:0" y="29.554001"  id="connector23pin"/>
        <rect height="4.2519698" width="3.68504" x="33.610401" gorn="0.4.21" style="fill:#9a916c;stroke:none;stroke-width:0" y="29.554001"  id="connector24pin"/>
        <circle cy="7.1999998" cx="7.1999998" gorn="0.4.22" style="fill:none;stroke:#9a916c;stroke-width:1.44000006" connectorname="P$1"  id="connector25pin" r="4.26331"/>
        <circle cy="7.1999998" cx="39.599998" gorn="0.4.23" style="fill:none;stroke:#9a916c;stroke-width:1.44000006" connectorname="P$1"  id="connector26pin" r="4.26331"/>
        <rect rx="1.41732" ry="1.41732" height="2.83465" width="2.83465" x="8.30268" gorn="0.4.24" style="fill:#9a916c;stroke:none;stroke-width:0" y="34.942699"  id="connector27pin"/>
        <rect rx="1.41732" ry="1.41732" height="2.83465" width="2.83465" x="32.062698" gorn="0.4.25" style="fill:#9a916c;stroke:none;stroke-width:0" y="12.2627"  id="connector28pin"/>
        <g  transform="matrix(0,-1,1,0,-7.47641,45.7724)">
            <g >
                <g >
                    <g gorn="0.4.26.0.0.0"  id="g296">
                        <rect height="0.99212402" width="2.2818899" x="18.007099" gorn="0.4.26.0.0.0.0" style="fill:#9a916c;stroke:none;stroke-width:0" y="26.128401"  id="connector29pin"/>
                    </g>
                </g>
            </g>
        </g>
        <g  transform="matrix(0,-1,1,0,-5.35039,47.8984)">
            <g >
                <g >
                    <g gorn="0.4.27.0.0.0"  id="g299">
                        <rect height="0.99212402" width="2.2818899" x="20.133101" gorn="0.4.27.0.0.0.0" style="fill:#9a916c;stroke:none;stroke-width:0" y="26.128401"  id="connector30pin"/>
                    </g>
                </g>
            </g>
        </g>
        <g  transform="matrix(0,-1,1,0,-3.22441,50.0244)">
            <g >
                <g >
                    <g gorn="0.4.28.0.0.0"  id="g302">
                        <rect height="0.99212402" width="2.2818899" x="22.2591" gorn="0.4.28.0.0.0.0" style="fill:#9a916c;stroke:none;stroke-width:0" y="26.128401"  id="connector31pin"/>
                    </g>
                </g>
            </g>
        </g>
        <g  transform="matrix(0,-1,1,0,-1.09842,52.1504)">
            <g >
                <g >
                    <g gorn="0.4.29.0.0.0"  id="g305">
                        <rect height="0.99212402" width="2.2818899" x="24.385" gorn="0.4.29.0.0.0.0" style="fill:#9a916c;stroke:none;stroke-width:0" y="26.128401"  id="connector32pin"/>
                    </g>
                </g>
            </g>
        </g>
        <g  transform="matrix(0,-1,1,0,1.02756,54.2764)">
            <g >
                <g >
                    <g gorn="0.4.30.0.0.0"  id="g308">
                        <rect height="0.99212402" width="2.2818899" x="26.511" gorn="0.4.30.0.0.0.0" style="fill:#9a916c;stroke:none;stroke-width:0" y="26.128401"  id="connector33pin"/>
                    </g>
                </g>
            </g>
        </g>
        <rect height="1.13386" width="2.2818899" x="27.283501" gorn="0.4.31" style="fill:#9a916c;stroke:none;stroke-width:0" y="23.3008"  id="connector34pin"/>
        <g  transform="matrix(0,1,-1,0,44.2276,-11.0764)">
            <g >
                <g >
                    <g gorn="0.4.32.0.0.0"  id="g312">
                        <rect height="0.99212402" width="2.2818899" x="26.511" gorn="0.4.32.0.0.0.0" style="fill:#9a916c;stroke:none;stroke-width:0" y="16.0795"  id="connector35pin"/>
                    </g>
                </g>
            </g>
        </g>
        <g  transform="matrix(0,1,-1,0,42.1016,-8.95039)">
            <g >
                <g >
                    <g gorn="0.4.33.0.0.0"  id="g315">
                        <rect height="0.99212402" width="2.2818899" x="24.385" gorn="0.4.33.0.0.0.0" style="fill:#9a916c;stroke:none;stroke-width:0" y="16.0795"  id="connector36pin"/>
                    </g>
                </g>
            </g>
        </g>
        <g  transform="matrix(0,1,-1,0,39.9756,-6.82441)">
            <g >
                <g >
                    <g gorn="0.4.34.0.0.0"  id="g318">
                        <rect height="0.99212402" width="2.2818899" x="22.2591" gorn="0.4.34.0.0.0.0" style="fill:#9a916c;stroke:none;stroke-width:0" y="16.0795"  id="connector37pin"/>
                    </g>
                </g>
            </g>
        </g>
        <g  transform="matrix(0,1,-1,0,37.8496,-4.69842)">
            <g >
                <g >
                    <g gorn="0.4.35.0.0.0"  id="g321">
                        <rect height="0.99212402" width="2.2818899" x="20.133101" gorn="0.4.35.0.0.0.0" style="fill:#9a916c;stroke:none;stroke-width:0" y="16.0795"  id="connector38pin"/>
                    </g>
                </g>
            </g>
        </g>
        <g  transform="matrix(0,1,-1,0,35.7236,-2.57244)">
            <g >
                <g >
                    <g gorn="0.4.36.0.0.0"  id="g324">
                        <rect height="0.99212402" width="2.2818899" x="18.007099" gorn="0.4.36.0.0.0.0" style="fill:#9a916c;stroke:none;stroke-width:0" y="16.0795"  id="connector39pin"/>
                    </g>
                </g>
            </g>
        </g>
        <rect height="1.13386" width="2.2818899" x="17.2346" gorn="0.4.37" style="fill:#9a916c;stroke:none;stroke-width:0" y="21.5292"  id="connector40pin"/>
        <rect height="1.13386" width="2.2818899" x="27.283501" gorn="0.4.38" style="fill:#9a916c;stroke:none;stroke-width:0" y="21.0331"  id="connector41pin"/>
        <rect height="3.4015801" width="1.55905" x="1.92756" gorn="0.4.39" style="fill:#9a916c;stroke:none;stroke-width:0" y="22.8645"  id="connector42pin"/>
        <rect height="3.4015801" width="1.55905" x="4.62047" gorn="0.4.40" style="fill:#9a916c;stroke:none;stroke-width:0" y="22.8645"  id="connector43pin"/>
        <rect height="3.4015801" width="1.55905" x="7.3133998" gorn="0.4.41" style="fill:#9a916c;stroke:none;stroke-width:0" y="22.8645"  id="connector44pin"/>
        <rect height="3.4015801" width="1.55905" x="7.3133998" gorn="0.4.42" style="fill:#9a916c;stroke:none;stroke-width:0" y="15.4939"  id="connector45pin"/>
        <rect height="3.4015801" width="1.55905" x="1.92756" gorn="0.4.43" style="fill:#9a916c;stroke:none;stroke-width:0" y="15.4939"  id="connector46pin"/>
    </g>
    <g  transform="translate(37.104539,19.991249)">
        <g >
            <g >
                <g gorn="0.5.0.0.0"  id="0805-cap">
                    <g  transform="matrix(0,1,-1,0,4.606,-1.063)">
                        <g >
                            <g >
                                <g gorn="0.5.0.0.0.0.0.0.0"  id="g335">
                                    <path gorn="0.5.0.0.0.0.0.0.0.0" style="fill:#dcdcdc"  id="path337" d="m 5.386,3.543 -5.103,0 C 0.127,3.543 0,3.416 0,3.26 L 0,0.283 C 0,0.127 0.127,0 0.283,0 l 5.102,0 c 0.157,0 0.283,0.127 0.283,0.283 l 0,2.977 C 5.669,3.416 5.542,3.543 5.386,3.543 Z"/>
                                    <rect height="3.543" width="3.543" x="1.063" gorn="0.5.0.0.0.0.0.0.0.1" style="fill:#6e554b" y="0"  id="rect339"/>
                                </g>
                            </g>
                        </g>
                    </g>
                </g>
            </g>
        </g>
    </g>
    <g  transform="translate(2.8350086,29.209461)">
        <g >
            <g >
                <g gorn="0.6.0.0.0"  id="g341">
                    <path gorn="0.6.0.0.0.0" style="fill:#dcdcdc"  id="path343" d="m 5.386,3.543 -5.103,0 C 0.127,3.543 0,3.416 0,3.26 L 0,0.283 C 0,0.127 0.127,0 0.283,0 l 5.102,0 c 0.157,0 0.283,0.127 0.283,0.283 l 0,2.977 C 5.669,3.416 5.542,3.543 5.386,3.543 Z"/>
                    <rect height="3.543" width="3.543" x="1.063" gorn="0.6.0.0.0.1" style="fill:#6e554b" y="0"  id="rect345"/>
                </g>
            </g>
        </g>
    </g>
    <g  transform="translate(31.344539,19.85089)">
        <g >
            <g >
                <g gorn="0.7.0.0.0"  id="g347">
                    <g  transform="matrix(0,1,-1,0,4.606,-1.063)">
                        <g >
                            <g >
                                <g gorn="0.7.0.0.0.0.0.0.0"  id="g349">
                                    <path gorn="0.7.0.0.0.0.0.0.0.0" style="fill:#dcdcdc"  id="path351" d="m 5.386,3.543 -5.103,0 C 0.127,3.543 0,3.416 0,3.26 L 0,0.283 C 0,0.127 0.127,0 0.283,0 l 5.102,0 c 0.157,0 0.283,0.127 0.283,0.283 l 0,2.977 C 5.669,3.416 5.542,3.543 5.386,3.543 Z"/>
                                    <rect height="3.543" width="3.543" x="1.063" gorn="0.7.0.0.0.0.0.0.0.1" style="fill:#6e554b" y="0"  id="rect353"/>
                                </g>
                            </g>
                        </g>
                    </g>
                </g>
            </g>
        </g>
    </g>
    <g  transform="translate(10.399681,17.10609)">
        <g >
            <g >
                <g gorn="0.8.0.0.0"  id="g355">
                    <g  transform="matrix(0,-1,1,0,1.063,4.606)">
                        <g >
                            <g >
                                <g gorn="0.8.0.0.0.0.0.0.0"  id="g357">
                                    <path gorn="0.8.0.0.0.0.0.0.0.0" style="fill:#dcdcdc"  id="path359" d="m 5.386,3.543 -5.103,0 C 0.127,3.543 0,3.416 0,3.26 L 0,0.283 C 0,0.127 0.127,0 0.283,0 l 5.102,0 c 0.157,0 0.283,0.127 0.283,0.283 l 0,2.977 C 5.669,3.416 5.542,3.543 5.386,3.543 Z"/>
                                    <rect height="3.543" width="3.543" x="1.063" gorn="0.8.0.0.0.0.0.0.0.1" style="fill:#6e554b" y="0"  id="rect361"/>
                                </g>
                            </g>
                        </g>
                    </g>
                </g>
            </g>
        </g>
    </g>
    <g  transform="translate(10.464539,27.05089)">
        <g >
            <g >
                <g gorn="0.9.0.0.0"  id="g363">
                    <g  transform="matrix(0,1,-1,0,4.606,-1.063)">
                        <g >
                            <g >
                                <g gorn="0.9.0.0.0.0.0.0.0"  id="g365">
                                    <path gorn="0.9.0.0.0.0.0.0.0.0" style="fill:#dcdcdc"  id="path367" d="m 5.386,3.543 -5.103,0 C 0.127,3.543 0,3.416 0,3.26 L 0,0.283 C 0,0.127 0.127,0 0.283,0 l 5.102,0 c 0.157,0 0.283,0.127 0.283,0.283 l 0,2.977 C 5.669,3.416 5.542,3.543 5.386,3.543 Z"/>
                                    <rect height="3.543" width="3.543" x="1.063" gorn="0.9.0.0.0.0.0.0.0.1" style="fill:#6e554b" y="0"  id="rect369"/>
                                </g>
                            </g>
                        </g>
                    </g>
                </g>
            </g>
        </g>
    </g>
    <g  transform="translate(20.10997,29.780759)">
        <g >
            <g >
                <g gorn="0.10.0.0.0"  id="0805-res">
                    <g  transform="matrix(-1,0,0,-1,5.669,3.543)">
                        <g >
                            <g >
                                <g gorn="0.10.0.0.0.0.0.0.0"  id="g372">
                                    <path gorn="0.10.0.0.0.0.0.0.0.0" style="fill:#dcdcdc"  id="path374" d="m 5.386,3.543 -5.103,0 C 0.127,3.543 0,3.416 0,3.26 L 0,0.283 C 0,0.127 0.127,0 0.283,0 l 5.102,0 c 0.157,0 0.283,0.127 0.283,0.283 l 0,2.977 C 5.669,3.416 5.542,3.543 5.386,3.543 Z"/>
                                    <rect height="3.543" width="3.543" x="1.063" gorn="0.10.0.0.0.0.0.0.0.1" style="fill:#333333" y="0"  id="rect376"/>
                                </g>
                            </g>
                        </g>
                    </g>
                </g>
            </g>
        </g>
    </g>
    <g  transform="translate(29.87459,29.929461)">
        <g >
            <g >
                <g gorn="0.11.0.0.0"  id="g378">
                    <path gorn="0.11.0.0.0.0" style="fill:#dcdcdc"  id="path380" d="m 5.386,3.543 -5.103,0 C 0.127,3.543 0,3.416 0,3.26 L 0,0.283 C 0,0.127 0.127,0 0.283,0 l 5.102,0 c 0.157,0 0.283,0.127 0.283,0.283 l 0,2.977 C 5.669,3.416 5.542,3.543 5.386,3.543 Z"/>
                    <rect height="3.543" width="3.543" x="1.063" gorn="0.11.0.0.0.1" style="fill:#333333" y="0"  id="rect382"/>
                </g>
            </g>
        </g>
    </g>
    <g  transform="translate(17.8016,16.0016)">
        <g >
            <g >
                <g gorn="0.12.0.0.0"  id="vcnl4010">
                    <metadata  id="metadata17">
                        <rdf:RDF xmlns:rdf="http://www.w3.org/1999/02/22-rdf-syntax-ns#">
                            <cc:Work xmlns:cc="http://creativecommons.org/ns#" rdf:about="" xmlns:rdf="http://www.w3.org/1999/02/22-rdf-syntax-ns#">
                                <dc:format xmlns:dc="http://purl.org/dc/elements/1.1/">image/svg+xml</dc:format>
                                <dc:type xmlns:dc="http://purl.org/dc/elements/1.1/" rdf:resource="http://purl.org/dc/dcmitype/StillImage" xmlns:rdf="http://www.w3.org/1999/02/22-rdf-syntax-ns#"/>
                                <dc:title xmlns:dc="http://purl.org/dc/elements/1.1/"/>
                            </cc:Work>
                        </rdf:RDF>
                    </metadata>
                    <defs  id="defs15"/>
                    <g  transform="matrix(0,1,-1,0,0,0)">
                        <g >
                            <g >
                                <rect height="11.1969" width="11.1969" x="0" gorn="0.12.0.0.0.2.0.0.0" style="opacity:1;fill:#000000;fill-opacity:1;stroke:none;stroke-width:3.38173008;stroke-linecap:butt;stroke-linejoin:miter;stroke-miterlimit:10;stroke-dasharray:none;stroke-opacity:1" y="-11.1969"  id="rect4145"/>
                            </g>
                        </g>
                    </g>
                    <rect rx="1.13386" height="2.76724" width="5.8035202" x="1.03771" gorn="0.12.0.0.0.3" style="opacity:1;fill:#1a1a1a;fill-opacity:1;stroke:none;stroke-width:3.38173008;stroke-linecap:butt;stroke-linejoin:miter;stroke-miterlimit:10;stroke-dasharray:none;stroke-opacity:1" y="7.6609402"  id="rect4149"/>
                    <rect rx="1.13386" height="4.34303" width="4.3045998" x="0.461207" gorn="0.12.0.0.0.4" style="opacity:1;fill:#1a1a1a;fill-opacity:1;stroke:none;stroke-width:3.38173008;stroke-linecap:butt;stroke-linejoin:miter;stroke-miterlimit:10;stroke-dasharray:none;stroke-opacity:1" y="0.47379199"  id="rect4151"/>
                    <rect rx="1.13386" height="2.45977" width="2.7288101" x="5.9956799" gorn="0.12.0.0.0.5" style="opacity:1;fill:#1a1a1a;fill-opacity:1;stroke:none;stroke-width:3.38173008;stroke-linecap:butt;stroke-linejoin:miter;stroke-miterlimit:10;stroke-dasharray:none;stroke-opacity:1" y="0.47379199"  id="rect4153"/>
                </g>
            </g>
        </g>
    </g>
    <g  transform="translate(1.3221182,17.15978)">
        <g >
            <g >
                <g gorn="0.13.0.0.0"  id="sot23-5">
                    <g gorn="0.13.0.0.0.0"  id="g393">
                        <rect height="7.6540298" width="1.1339999" x="0.850003" gorn="0.13.0.0.0.0.0" style="fill:#dcdcdc" y="0"  id="rect395"/>
                        <rect height="7.6540298" width="1.1339999" x="6.2360001" gorn="0.13.0.0.0.0.1" style="fill:#dcdcdc" y="0"  id="rect397"/>
                        <rect height="3.118" width="1.1339999" x="3.543" gorn="0.13.0.0.0.0.2" style="fill:#dcdcdc" y="4.5349998"  id="rect399"/>
                        <rect height="4.5349998" width="8.2200203" x="0" gorn="0.13.0.0.0.0.3" style="fill:#303030" y="1.559"  id="rect401"/>
                    </g>
                </g>
            </g>
        </g>
    </g>
</svg>
