<?xml version='1.0' encoding='UTF-8' standalone='no'?>
<!-- Created with Fritzing (http://www.fritzing.org/) -->
<svg xmlns="http://www.w3.org/2000/svg" viewBox="0 0 50.4 54" width="0.7in" height="0.75in" id="svg2" y="0in" x="0in" version="1.2" gorn="0" >
    <desc>
        <referenceFile>Adafruit TPL5111 Reset Enable Timer_breadboard.svg</referenceFile>
    </desc>
    <metadata id="metadata410" />
    <defs id="defs408" />
    <desc id="desc4" >Fritzing breadboard generated by brd2svg</desc>
    <g id="icon" gorn="0.3" >
        <path d="M 0,46.8 0,7.2 A 7.2,7.2 0 0 1 7.2,0 l 36,0 a 7.2,7.2 0 0 1 7.2,7.2 l 0,39.6 A 7.2,7.2 0 0 1 43.2,54 l -36,0 A 7.2,7.2 0 0 1 0,46.8 m 9.38268,0 a 1.417325,1.417325 0 1 0 2.83465,0 1.417325,1.417325 0 1 0 -2.83465,0 z m 7.20002,0 a 1.417325,1.417325 0 1 0 2.83465,0 1.417325,1.417325 0 1 0 -2.83465,0 z m 7.2,0 a 1.417325,1.417325 0 1 0 2.83465,0 1.417325,1.417325 0 1 0 -2.83465,0 z m 7.2,0 a 1.417325,1.417325 0 1 0 2.83465,0 1.417325,1.417325 0 1 0 -2.83465,0 z m 7.2,0 a 1.417325,1.417325 0 1 0 2.83465,0 1.417325,1.417325 0 1 0 -2.83465,0 z m 1.474,-39.6 a 3.54331,3.54331 0 1 0 7.08661,0 3.54331,3.54331 0 1 0 -7.08661,0 z m -36.00001,0 a 3.54331,3.54331 0 1 0 7.08661,0 3.54331,3.54331 0 1 0 -7.08661,0 z" id="path8" gorn="0.3.0"  style="fill:#014cb1;stroke:none;stroke-width:0"/>
        <g id="g10" gorn="0.3.1" >
            <title id="title12" >layer 21</title>
            <g id="g14" gorn="0.3.1.1" >
                <title id="title16" >text:TPL5111</title>
                <g transform="translate(49.248,35.64)" >
                    <g id="g18" gorn="0.3.1.1.1.0" >
                        <g transform="matrix(0,-1,1,0,0,0)" >
                            <g id="g20" gorn="0.3.1.1.1.0.0.0" >
                                <text font-size="4.176" id="text22" y="0" x="0" gorn="0.3.1.1.1.0.0.0.0"  style="font-size:4.17600012px;font-family:OCRA;text-anchor:middle;fill:#ffffff;stroke:none;stroke-width:0">TPL5111</text>
                            </g>
                        </g>
                    </g>
                </g>
            </g>
            <g id="g24" gorn="0.3.1.2" >
                <title id="title26" >text:VDD</title>
                <text font-size="3.3408" id="text28" y="43.790401" x="10.8" gorn="0.3.1.2.1"  style="font-size:3.34080005px;font-family:OCRA;text-anchor:middle;fill:#ffffff;stroke:none;stroke-width:0">VDD</text>
            </g>
            <g id="g30" gorn="0.3.1.3" >
                <title id="title32" >text:GND</title>
                <text font-size="3.3408" id="text34" y="53.510399" x="18" gorn="0.3.1.3.1"  style="font-size:3.34080005px;font-family:OCRA;text-anchor:middle;fill:#ffffff;stroke:none;stroke-width:0">GND</text>
            </g>
            <g id="g36" gorn="0.3.1.4" >
                <title id="title38" >text:Delay</title>
                <text font-size="3.3408" id="text40" y="43.430401" x="25.200001" gorn="0.3.1.4.1"  style="font-size:3.34080005px;font-family:OCRA;text-anchor:middle;fill:#ffffff;stroke:none;stroke-width:0">Delay</text>
            </g>
            <g id="g42" gorn="0.3.1.5" >
                <title id="title44" >text:ENout</title>
                <text font-size="3.3408" id="text46" y="53.510399" x="32.759998" gorn="0.3.1.5.1"  style="font-size:3.34080005px;font-family:OCRA;text-anchor:middle;fill:#ffffff;stroke:none;stroke-width:0">ENout</text>
            </g>
            <g id="g48" gorn="0.3.1.6" >
                <title id="title50" >text:DONE</title>
                <text font-size="3.3408" id="text52" y="43.790401" x="39.599998" gorn="0.3.1.6.1"  style="font-size:3.34080005px;font-family:OCRA;text-anchor:middle;fill:#ffffff;stroke:none;stroke-width:0">DONE</text>
            </g>
            <g id="g54" gorn="0.3.1.7" >
                <title id="title56" >text:Enable Timer</title>
                <g transform="translate(4.5504,29.16)" >
                    <g id="g58" gorn="0.3.1.7.1.0" >
                        <g transform="matrix(0,-1,1,0,0,0)" >
                            <g id="g60" gorn="0.3.1.7.1.0.0.0" >
                                <text font-size="3.3408" id="text62" y="0" x="0" gorn="0.3.1.7.1.0.0.0.0"  style="font-size:3.34080005px;font-family:OCRA;text-anchor:middle;fill:#ffffff;stroke:none;stroke-width:0">Enable Timer</text>
                            </g>
                        </g>
                    </g>
                </g>
            </g>
            <g id="g64" gorn="0.3.1.8" >
                <title id="title66" >element:B1</title>
                <g id="g68" gorn="0.3.1.8.1" >
                    <title id="title70" >package:JSTPH2</title>
                </g>
            </g>
            <g id="g72" gorn="0.3.1.9" >
                <title id="title74" >element:C1</title>
                <g id="g76" gorn="0.3.1.9.1" >
                    <title id="title78" >package:0805-NO</title>
                    <line y2="35.279999" id="line80" x2="10.8" x1="7.9200001" y1="35.279999" gorn="0.3.1.9.1.1"  style="stroke:#ffffff;stroke-width:0.86400002;stroke-linecap:round"/>
                </g>
            </g>
            <g id="g82" gorn="0.3.1.10" >
                <title id="title84" >element:D1</title>
                <g id="g86" gorn="0.3.1.10.1" >
                    <title id="title88" >package:CHIPLED_0805_NOOUTLINE</title>
                    <g id="g90" gorn="0.3.1.10.1.1" >
                        <title id="title92" >polygon</title>
                        <path d="m 43.92,21.96 -1.44,1.08 0,-2.16 1.44,1.08 m -1.152,-0.864 0,1.728 0,-1.728 m 0.432,0.324 0,1.08 0,-1.08" id="path94" gorn="0.3.1.10.1.1.1"  style="fill:none;stroke:#ffffff;stroke-width:0.43200001;stroke-linecap:round"/>
                    </g>
                </g>
            </g>
            <g id="g96" gorn="0.3.1.11" >
                <title id="title98" >element:FID2</title>
                <g id="g100" gorn="0.3.1.11.1" >
                    <title id="title102" >package:FIDUCIAL_1MM</title>
                </g>
            </g>
            <g id="g104" gorn="0.3.1.12" >
                <title id="title106" >element:FID3</title>
                <g id="g108" gorn="0.3.1.12.1" >
                    <title id="title110" >package:FIDUCIAL_1MM</title>
                </g>
            </g>
            <g id="g112" gorn="0.3.1.13" >
                <title id="title114" >element:JP1</title>
                <g id="g116" gorn="0.3.1.13.1" >
                    <title id="title118" >package:1X05_ROUND_76</title>
                </g>
            </g>
            <g id="g120" gorn="0.3.1.14" >
                <title id="title122" >element:R1</title>
                <g id="g124" gorn="0.3.1.14.1" >
                    <title id="title126" >package:0805-NO</title>
                    <line y2="34.919998" id="line128" x2="36.720001" x1="39.599998" y1="34.919998" gorn="0.3.1.14.1.1"  style="stroke:#ffffff;stroke-width:0.86400002;stroke-linecap:round"/>
                </g>
            </g>
            <g id="g130" gorn="0.3.1.15" >
                <title id="title132" >element:R2</title>
                <g id="g134" gorn="0.3.1.15.1" >
                    <title id="title136" >package:0805-NO</title>
                    <line y2="18.360001" id="line138" x2="42.84" x1="42.84" y1="15.48" gorn="0.3.1.15.1.1"  style="stroke:#ffffff;stroke-width:0.86400002;stroke-linecap:round"/>
                </g>
            </g>
            <g id="g140" gorn="0.3.1.16" >
                <title id="title142" >element:SJ1</title>
                <g id="g144" gorn="0.3.1.16.1" >
                    <title id="title146" >package:SOLDERJUMPER_CLOSEDWIRE</title>
                </g>
            </g>
            <g id="g148" gorn="0.3.1.17" >
                <title id="title150" >element:SJ2</title>
                <g id="g152" gorn="0.3.1.17.1" >
                    <title id="title154" >package:SOLDERJUMPER_CLOSEDWIRE</title>
                </g>
            </g>
            <g id="g156" gorn="0.3.1.18" >
                <title id="title158" >element:SW1</title>
                <g id="g160" gorn="0.3.1.18.1" >
                    <title id="title162" >package:EVQ-Q2_SMALLER</title>
                    <line y2="3.2456701" id="line164" x2="16.6961" x1="16.6961" y1="21.9543" gorn="0.3.1.18.1.1"  style="stroke:#ffffff;stroke-width:0.57599998;stroke-linecap:round"/>
                    <line y2="21.9543" id="line166" x2="33.703899" x1="33.703899" y1="3.2456701" gorn="0.3.1.18.1.2"  style="stroke:#ffffff;stroke-width:0.57599998;stroke-linecap:round"/>
                    <line y2="21.9543" id="line168" x2="21.798401" x1="28.601601" y1="21.9543" gorn="0.3.1.18.1.3"  style="stroke:#ffffff;stroke-width:0.57599998;stroke-linecap:round"/>
                    <line y2="3.2456701" id="line170" x2="28.601601" x1="21.798401" y1="3.2456701" gorn="0.3.1.18.1.4"  style="stroke:#ffffff;stroke-width:0.57599998;stroke-linecap:round"/>
                    <circle cy="12.6" id="circle172" cx="25.200001" r="4.2613201" gorn="0.3.1.18.1.5"  style="fill:none;stroke:#ffffff;stroke-width:0.57599998"/>
                    <circle cy="12.6" id="circle174" cx="25.200001" r="2.83465" gorn="0.3.1.18.1.6"  style="fill:none;stroke:#ffffff;stroke-width:0.57599998"/>
                </g>
            </g>
            <g id="g176" gorn="0.3.1.19" >
                <title id="title178" >element:U$8</title>
                <g id="g180" gorn="0.3.1.19.1" >
                    <title id="title182" >package:MOUNTINGHOLE_2.5_PLATED</title>
                    <circle cy="7.1999998" id="circle184" cx="43.200001" r="5.6692901" gorn="0.3.1.19.1.1"  style="fill:none;stroke:#ffffff;stroke-width:0.57599998"/>
                </g>
            </g>
            <g id="g186" gorn="0.3.1.20" >
                <title id="title188" >element:U$9</title>
                <g id="g190" gorn="0.3.1.20.1" >
                    <title id="title192" >package:MOUNTINGHOLE_2.5_PLATED</title>
                    <circle cy="7.1999998" id="circle194" cx="7.1999998" r="5.6692901" gorn="0.3.1.20.1.1"  style="fill:none;stroke:#ffffff;stroke-width:0.57599998"/>
                </g>
            </g>
            <g id="g196" gorn="0.3.1.21" >
                <title id="title198" >element:U$10</title>
                <g id="g200" gorn="0.3.1.21.1" >
                    <title id="title202" >package:ADAFRUIT_3.5MM</title>
                </g>
            </g>
            <g id="g204" gorn="0.3.1.22" >
                <title id="title206" >element:U$11</title>
                <g id="g208" gorn="0.3.1.22.1" >
                    <title id="title210" >package:SYMBOL_PLUS</title>
                </g>
            </g>
            <g id="g212" gorn="0.3.1.23" >
                <title id="title214" >element:U$12</title>
                <g id="g216" gorn="0.3.1.23.1" >
                    <title id="title218" >package:SYMBOL_MINUS</title>
                </g>
            </g>
            <g id="g220" gorn="0.3.1.24" >
                <title id="title222" >element:U$15</title>
                <g id="g224" gorn="0.3.1.24.1" >
                    <title id="title226" >package:PCBFEAT-REV-040</title>
                </g>
            </g>
            <g id="g228" gorn="0.3.1.25" >
                <title id="title230" >element:U1</title>
                <g id="g232" gorn="0.3.1.25.1" >
                    <title id="title234" >package:SOT23-6</title>
                    <line y2="29.7297" id="line236" x2="26.532301" x1="31.067699" y1="29.7297" gorn="0.3.1.25.1.1"  style="stroke:#ffffff;stroke-width:0.57599998;stroke-linecap:round"/>
                    <line y2="37.950298" id="line238" x2="31.067699" x1="26.532301" y1="37.950298" gorn="0.3.1.25.1.2"  style="stroke:#ffffff;stroke-width:0.57599998;stroke-linecap:round"/>
                    <circle cy="31.1471" id="circle240" cx="27.8078" r="0.283465" gorn="0.3.1.25.1.3"  style="fill:none;stroke:#ffffff;stroke-width:0.57599998"/>
                </g>
            </g>
            <g id="g242" gorn="0.3.1.26" >
                <title id="title244" >element:VR1</title>
                <g id="g246" gorn="0.3.1.26.1" >
                    <title id="title248" >package:TRIMPOT_BOURNS_TC33X-2</title>
                    <line y2="28.366301" id="line250" x2="13.7835" x1="14.5488" y1="28.366301" gorn="0.3.1.26.1.1"  style="stroke:#ffffff;stroke-width:0.36000001;stroke-linecap:round"/>
                    <path d="m 13.3299,28.8199 a 0.453543,0.453543 0 0 0 0.4536,-0.4536" id="path252" gorn="0.3.1.26.1.2"  style="fill:none;stroke:#ffffff;stroke-width:0.36000001"/>
                    <line y2="35.878101" id="line254" x2="13.3299" x1="13.3299" y1="28.819901" gorn="0.3.1.26.1.3"  style="stroke:#ffffff;stroke-width:0.36000001;stroke-linecap:round"/>
                    <line y2="28.337999" id="line256" x2="20.7199" x1="20.0112" y1="28.337999" gorn="0.3.1.26.1.4"  style="stroke:#ffffff;stroke-width:0.36000001;stroke-linecap:round"/>
                    <path d="m 20.7199,28.338 a 0.425197,0.425197 0 0 0 0.4251,0.4251" id="path258" gorn="0.3.1.26.1.5"  style="fill:none;stroke:#ffffff;stroke-width:0.36000001"/>
                    <line y2="35.849701" id="line260" x2="21.145" x1="21.145" y1="28.7631" gorn="0.3.1.26.1.6"  style="stroke:#ffffff;stroke-width:0.36000001;stroke-linecap:round"/>
                </g>
            </g>
        </g>
        <g transform="matrix(0,-1,1,0,-28.6129,47.3329)" >
            <g id="g262" gorn="0.3.2.0" >
                <rect width="3.5149601" height="4.2519698" id="connector0pin" y="35.846901" x="7.60255" gorn="0.3.2.0.0"  style="fill:#9a916c;stroke:none;stroke-width:0"/>
            </g>
        </g>
        <g transform="matrix(0,-1,1,0,-23.2271,41.9471)" >
            <g id="g265" gorn="0.3.3.0" >
                <rect width="3.5149601" height="4.2519698" id="connector1pin" y="30.4611" x="7.60255" gorn="0.3.3.0.0"  style="fill:#9a916c;stroke:none;stroke-width:0"/>
            </g>
        </g>
        <g transform="matrix(0,1,-1,0,62.1836,-18.2636)" >
            <g id="g268" gorn="0.3.4.0" >
                <rect width="3.4015801" height="3.4015801" id="connector2pin" y="20.259199" x="38.5228" gorn="0.3.4.0.0"  style="fill:#9a916c;stroke:none;stroke-width:0"/>
            </g>
        </g>
        <g transform="matrix(0,1,-1,0,68.1364,-24.2164)" >
            <g id="g271" gorn="0.3.5.0" >
                <rect width="3.4015801" height="3.4015801" id="connector3pin" y="20.259199" x="44.475601" gorn="0.3.5.0.0"  style="fill:#9a916c;stroke:none;stroke-width:0"/>
            </g>
        </g>
        <rect rx="1.41732" width="2.83465" height="2.83465" id="connector4pin" y="11.1827" x="23.7827" ry="1.41732" gorn="0.3.6"  style="fill:#9a916c;stroke:none;stroke-width:0"/>
        <rect rx="1.41732" width="2.83465" height="2.83465" id="connector5pin" y="46.4627" x="2.9026799" ry="1.41732" gorn="0.3.7"  style="fill:#9a916c;stroke:none;stroke-width:0"/>
        <circle cy="46.799999" id="connector6pin" cx="10.8" connectorname="VDD" r="2.0766599" gorn="0.3.8"  style="fill:none;stroke:#9a916c;stroke-width:1.31868005"/>
        <circle cy="46.799999" id="connector7pin" cx="18" connectorname="GND" r="2.0766599" gorn="0.3.9"  style="fill:none;stroke:#9a916c;stroke-width:1.31868005"/>
        <circle cy="46.799999" id="connector8pin" cx="25.200001" connectorname="DELAY" r="2.0766599" gorn="0.3.10"  style="fill:none;stroke:#9a916c;stroke-width:1.31868005"/>
        <circle cy="46.799999" id="connector9pin" cx="32.400002" connectorname="ENOUT" r="2.0766599" gorn="0.3.11"  style="fill:none;stroke:#9a916c;stroke-width:1.31868005"/>
        <circle cy="46.799999" id="connector10pin" cx="39.599998" connectorname="DONE" r="2.0766599" gorn="0.3.12"  style="fill:none;stroke:#9a916c;stroke-width:1.31868005"/>
        <g transform="matrix(0,1,-1,0,70.3871,-5.93292)" >
            <g id="g281" gorn="0.3.13.0" >
                <rect width="3.5149601" height="4.2519698" id="connector11pin" y="30.101101" x="36.402599" gorn="0.3.13.0.0"  style="fill:#9a916c;stroke:none;stroke-width:0"/>
            </g>
        </g>
        <g transform="matrix(0,1,-1,0,75.7728,-0.547087)" >
            <g id="g284" gorn="0.3.14.0" >
                <rect width="3.5149601" height="4.2519698" id="connector12pin" y="35.4869" x="36.402599" gorn="0.3.14.0.0"  style="fill:#9a916c;stroke:none;stroke-width:0"/>
            </g>
        </g>
        <rect width="3.5149601" height="4.2519698" id="connector13pin" y="14.794" x="38.389599" gorn="0.3.15"  style="fill:#9a916c;stroke:none;stroke-width:0"/>
        <rect width="3.5149601" height="4.2519698" id="connector14pin" y="14.794" x="43.775398" gorn="0.3.16"  style="fill:#9a916c;stroke:none;stroke-width:0"/>
        <g transform="matrix(0,-1,1,0,9.4819,52.2567)" >
            <g id="g289" gorn="0.3.17.0" >
                <rect width="5.6692901" height="3.4015801" id="connector15pin" y="19.6866" x="28.034599" gorn="0.3.17.0.0"  style="fill:#9a916c;stroke:none;stroke-width:0"/>
            </g>
        </g>
        <g transform="matrix(0,-1,1,0,27.0567,34.6819)" >
            <g id="g292" gorn="0.3.18.0" >
                <rect width="5.6692901" height="3.4015801" id="connector16pin" y="2.11181" x="28.034599" gorn="0.3.18.0.0"  style="fill:#9a916c;stroke:none;stroke-width:0"/>
            </g>
        </g>
        <g transform="matrix(0,-1,1,0,-1.85669,40.9181)" >
            <g id="g295" gorn="0.3.19.0" >
                <rect width="5.6692901" height="3.4015801" id="connector17pin" y="19.6866" x="16.6961" gorn="0.3.19.0.0"  style="fill:#9a916c;stroke:none;stroke-width:0"/>
            </g>
        </g>
        <g transform="matrix(0,-1,1,0,15.7181,23.3433)" >
            <g id="g298" gorn="0.3.20.0" >
                <rect width="5.6692901" height="3.4015801" id="connector18pin" y="2.11181" x="16.6961" gorn="0.3.20.0.0"  style="fill:#9a916c;stroke:none;stroke-width:0"/>
            </g>
        </g>
        <circle cy="7.1999998" id="connector19pin" cx="43.200001" connectorname="P$1" r="4.26331" gorn="0.3.21"  style="fill:none;stroke:#9a916c;stroke-width:1.44000006"/>
        <circle cy="7.1999998" id="connector20pin" cx="7.1999998" connectorname="P$1" r="4.26331" gorn="0.3.22"  style="fill:none;stroke:#9a916c;stroke-width:1.44000006"/>
        <g transform="matrix(0,1,-1,0,56.262,6.03212)" >
            <g id="g303" gorn="0.3.23.0" >
                <rect width="1.55905" height="3.4015801" id="connector21pin" y="29.446301" x="24.3354" gorn="0.3.23.0.0"  style="fill:#9a916c;stroke:none;stroke-width:0"/>
            </g>
        </g>
        <g transform="matrix(0,1,-1,0,58.955,8.72503)" >
            <g id="g306" gorn="0.3.24.0" >
                <rect width="1.55905" height="3.4015801" id="connector22pin" y="32.139198" x="24.3354" gorn="0.3.24.0.0"  style="fill:#9a916c;stroke:none;stroke-width:0"/>
            </g>
        </g>
        <g transform="matrix(0,1,-1,0,61.6478,11.418)" >
            <g id="g309" gorn="0.3.25.0" >
                <rect width="1.55905" height="3.4015801" id="connector23pin" y="34.832199" x="24.3354" gorn="0.3.25.0.0"  style="fill:#9a916c;stroke:none;stroke-width:0"/>
            </g>
        </g>
        <g transform="matrix(0,1,-1,0,69.018,4.04788)" >
            <g id="g312" gorn="0.3.26.0" >
                <rect width="1.55905" height="3.4015801" id="connector24pin" y="34.832199" x="31.7055" gorn="0.3.26.0.0"  style="fill:#9a916c;stroke:none;stroke-width:0"/>
            </g>
        </g>
        <g transform="matrix(0,1,-1,0,66.325,1.35496)" >
            <g id="g315" gorn="0.3.27.0" >
                <rect width="1.55905" height="3.4015801" id="connector25pin" y="32.139198" x="31.7055" gorn="0.3.27.0.0"  style="fill:#9a916c;stroke:none;stroke-width:0"/>
            </g>
        </g>
        <g transform="matrix(0,1,-1,0,63.6322,-1.33795)" >
            <g id="g318" gorn="0.3.28.0" >
                <rect width="1.55905" height="3.4015801" id="connector26pin" y="29.446301" x="31.7055" gorn="0.3.28.0.0"  style="fill:#9a916c;stroke:none;stroke-width:0"/>
            </g>
        </g>
        <rect width="3.4015801" height="3.4015801" id="connector27pin" y="36.341599" x="12.7446" gorn="0.3.29"  style="fill:#9a916c;stroke:none;stroke-width:0"/>
        <rect width="4.53543" height="4.2519698" id="connector28pin" y="26.7038" x="15.0123" gorn="0.3.30"  style="fill:#9a916c;stroke:none;stroke-width:0"/>
        <rect width="3.4015801" height="3.4015801" id="connector29pin" y="36.341599" x="18.4139" gorn="0.3.31"  style="fill:#9a916c;stroke:none;stroke-width:0"/>
    </g>
    <g transform="translate(6.5255,33.5085)" >
        <g id="0805-cap" gorn="0.4.0" >
            <g transform="matrix(0,-1,1,0,1.063,4.606)" >
                <g id="g325" gorn="0.4.0.0.0" >
                    <path d="m 5.386,3.543 -5.103,0 C 0.127,3.543 0,3.416 0,3.26 L 0,0.283 C 0,0.127 0.127,0 0.283,0 l 5.102,0 c 0.157,0 0.283,0.127 0.283,0.283 l 0,2.977 C 5.669,3.416 5.542,3.543 5.386,3.543 Z" id="path327" gorn="0.4.0.0.0.0"  style="fill:#dcdcdc"/>
                    <rect width="3.543" height="3.543" id="rect329" y="0" x="1.063" gorn="0.4.0.0.0.1"  style="fill:#6e554b"/>
                </g>
            </g>
        </g>
    </g>
    <g transform="translate(41.4285,19.126)" >
        <g id="0805-led-green" gorn="0.5.0" >
            <g transform="matrix(0,1,-1,0,4.60549,1.0625)" >
                <g id="g332" gorn="0.5.0.0.0" >
                    <path d="m 3.543,0.282 0,5.103 c 0,0.156 -0.127,0.283 -0.283,0.283 l -2.977,0 C 0.127,5.668 0,5.541 0,5.385 L 0,0.283 C 0,0.126 0.127,0 0.283,0 L 3.26,0 c 0.156,-0.001 0.283,0.126 0.283,0.282 z" id="path334" gorn="0.5.0.0.0.0"  style="fill:#dcdcdc"/>
                    <rect width="3.543" height="3.543" id="rect336" y="1.062" x="0" gorn="0.5.0.0.0.1"  style="fill:#00ff00"/>
                    <circle cy="2.8329999" id="circle338" cx="1.772" r="0.56699997" gorn="0.5.0.0.0.2"  style="fill:#00b400"/>
                </g>
            </g>
        </g>
    </g>
    <g transform="translate(35.3255,33.1485)" >
        <g id="0805-res" gorn="0.6.0" >
            <g transform="matrix(0,1,-1,0,4.606,-1.063)" >
                <g id="g341" gorn="0.6.0.0.0" >
                    <path d="m 5.386,3.543 -5.103,0 C 0.127,3.543 0,3.416 0,3.26 L 0,0.283 C 0,0.127 0.127,0 0.283,0 l 5.102,0 c 0.157,0 0.283,0.127 0.283,0.283 l 0,2.977 C 5.669,3.416 5.542,3.543 5.386,3.543 Z" id="path343" gorn="0.6.0.0.0.0"  style="fill:#dcdcdc"/>
                    <rect width="3.543" height="3.543" id="rect345" y="0" x="1.063" gorn="0.6.0.0.0.1"  style="fill:#333333"/>
                </g>
            </g>
        </g>
    </g>
    <g transform="translate(40.0055,15.1485)" >
        <g id="g347" gorn="0.7.0" >
            <path d="m 5.386,3.543 -5.103,0 C 0.127,3.543 0,3.416 0,3.26 L 0,0.283 C 0,0.127 0.127,0 0.283,0 l 5.102,0 c 0.157,0 0.283,0.127 0.283,0.283 l 0,2.977 C 5.669,3.416 5.542,3.543 5.386,3.543 Z" id="path349" gorn="0.7.0.0"  style="fill:#dcdcdc"/>
            <rect width="3.543" height="3.543" id="rect351" y="0" x="1.063" gorn="0.7.0.1"  style="fill:#333333"/>
        </g>
    </g>
    <g transform="translate(14.4285,4.09601)" >
        <g id="evq-q2_smaller" gorn="0.8.0" >
            <g transform="matrix(0,-1,1,0,2.2675,19.2755)" >
                <g id="g354" gorn="0.8.0.0.0" >
                    <g id="g356" gorn="0.8.0.0.0.0" >
                        <polygon id="polygon358" points="19.842,1.984 19.842,0.001 1.701,0.001 1.701,1.984 0,1.984 0,3.685 1.701,3.685 1.701,13.323 0,13.323 0,15.024 1.701,15.024 1.701,17.008 19.842,17.008 19.842,15.024 21.543,15.024 21.543,13.323 19.842,13.323 19.842,3.685 21.543,3.685 21.543,1.984 " gorn="0.8.0.0.0.0.0"  style="fill:#dcdcdc"/>
                        <circle cy="8.5039902" id="circle360" cx="10.772" r="4.2519999" gorn="0.8.0.0.0.0.1"  style="fill:#1e1e1e"/>
                        <rect width="0.56699997" height="17.007999" id="rect362" y="0" x="1.465" gorn="0.8.0.0.0.0.2"  style="fill:#b4b4b4"/>
                        <rect width="0.56699997" height="17.007999" id="rect364" y="0" x="19.559" gorn="0.8.0.0.0.0.3"  style="fill:#b4b4b4"/>
                    </g>
                </g>
            </g>
        </g>
    </g>
    <g transform="translate(5.55001,16.7115)" >
        <g id="adafruit_3.5mm" gorn="0.9.0" >
            <path d="M 9.77299,4.306 C 9.74099,4.106 9.63199,4.049 9.36999,3.965 9.171,3.901 7.83698,3.476 7.83698,3.476 c 0,0 -0.930002,-0.351 -1.619,0.146 C 6.125,3.688 6.029,3.765 5.932,3.846 6.014,3.749 6.09,3.653 6.156,3.56 6.651,2.87 6.299,1.941 6.299,1.941 6.299,1.941 5.872,0.607 5.807,0.408 5.7219997,0.146 5.665,0.038 5.465,0.006 5.265,-0.026 5.177,0.06 5.016,0.283 4.894,0.453 4.077,1.59 4.077,1.59 c 0,0 -0.621,0.777 -0.361,1.586 C 3.75,3.285 3.793,3.4 3.841,3.517 3.774,3.409 3.706,3.308 3.638,3.215 3.135,2.531 2.142,2.579 2.142,2.579 c 0,0 -1.4,-0.006 -1.61,-0.006 C 0.257,2.572 0.136,2.593 0.044,2.774 -0.047,2.955 0.007,3.065 0.17,3.287 c 0.124,0.169 0.952999,1.297 0.952999,1.297 0,0 0.546,0.830002 1.395,0.833998 0.114,0 0.236,-0.005 0.362,-0.014 -0.122,0.03 -0.24,0.064 -0.348,0.1 C 1.726,5.771 1.465,6.73 1.465,6.73 c 0,0 -0.438,1.32997 -0.503001,1.52898 -0.085997,0.261 -0.102996,0.38304 0.040001,0.52603 0.144,0.143 0.265,0.126 0.526,0.04 0.199,-0.06499 1.528,-0.50599 1.528,-0.50599 0,0 0.958003,-0.263 1.224,-1.07 0.036,-0.108 0.069,-0.225 0.1,-0.348 C 4.371,7.027 4.366,7.149 4.367,7.263 c 0.005,0.849002 0.835999,1.394 0.835999,1.394 0,0 1.13,0.826999 1.298,0.950998 C 6.724,9.76997 6.834,9.82397 7.015,9.73202 c 0.181,-0.092 0.201,-0.213 0.2,-0.488 -10e-4,-0.21 -0.009,-1.61 -0.009,-1.61 0,0 0.047,-0.993002 -0.639,-1.495 C 6.475,6.072 6.373,6.004 6.266,5.937 6.383,5.984 6.498,6.027 6.606,6.061 7.416,6.319 8.19,5.697 8.19,5.697 c 0,0 1.136,-0.819 1.306,-0.940997 C 9.71899,4.595 9.80503,4.507 9.77299,4.306 Z M 4.951,3.275 C 5.103,3.299 5.179,3.624 5.12,4.001 5.061,4.378 4.889,4.663 4.736,4.639 4.583,4.615 4.507,4.29 4.567,3.914 4.626,3.537 4.798,3.251 4.951,3.275 Z M 2.995,4.274 C 3.065,4.136 3.397,4.164 3.737003,4.337 4.077,4.51 4.295,4.762 4.225,4.9 4.155,5.038 3.823,5.01 3.483,4.837 3.143,4.664 2.925,4.412 2.995,4.274 Z M 4.026,6.152 C 3.757,6.422 3.449,6.552 3.34,6.443 3.231,6.334 3.36,6.027 3.63,5.757 3.899,5.487 4.206,5.357 4.316,5.466 4.425,5.575 4.295,5.882 4.026,6.152 Z M 5.51,6.785 C 5.372,6.855 5.12,6.637 4.947,6.298 4.773,5.958 4.744,5.625 4.882,5.555003 c 0.138,-0.069997 0.39,0.148 0.563,0.487 C 5.618,6.382 5.647,6.714 5.51,6.785 Z M 5.867,5.212 C 5.49,5.272 5.166,5.197 5.141,5.044 5.117,4.891 5.403,4.719 5.779,4.659 6.156,4.599 6.48,4.674 6.504998,4.827 6.529,4.98 6.244,5.152 5.867,5.212 Z" id="path367" gorn="0.9.0.0"  style="fill:#dcdcdc"/>
        </g>
    </g>
    <g transform="translate(24.69,30.013)" >
        <g id="sot23-6" gorn="0.10.0" >
            <g transform="matrix(0,1,-1,0,7.93706,-0.282996)" >
                <g id="g370" gorn="0.10.0.0.0" >
                    <metadata id="metadata17" >
                        <rdf:RDF xmlns:rdf="http://www.w3.org/1999/02/22-rdf-syntax-ns#">
                            <cc:Work rdf:about="" xmlns:rdf="http://www.w3.org/1999/02/22-rdf-syntax-ns#" xmlns:cc="http://creativecommons.org/ns#">
                                <dc:format xmlns:dc="http://purl.org/dc/elements/1.1/">image/svg+xml</dc:format>
                                <dc:type xmlns:dc="http://purl.org/dc/elements/1.1/" xmlns:rdf="http://www.w3.org/1999/02/22-rdf-syntax-ns#" rdf:resource="http://purl.org/dc/dcmitype/StillImage"/>
                                <dc:title xmlns:dc="http://purl.org/dc/elements/1.1/"/>
                            </cc:Work>
                        </rdf:RDF>
                    </metadata>
                    <defs id="defs15" />
                    <rect width="1.1339999" height="7.6540298" id="rect5" y="0" x="0.850003" gorn="0.10.0.0.0.2"  style="fill:#dcdcdc"/>
                    <rect width="1.1339999" height="7.6540298" id="rect7" y="0" x="6.2360001" gorn="0.10.0.0.0.3"  style="fill:#dcdcdc"/>
                    <rect width="1.1339999" height="7.6500001" id="rect9" y="0.0039998102" x="3.543" gorn="0.10.0.0.0.4"  style="fill:#dcdcdc"/>
                    <rect width="8.2200203" height="4.5349998" id="rect11" y="1.559" x="0" gorn="0.10.0.0.0.5"  style="fill:#303030"/>
                </g>
            </g>
        </g>
    </g>
    <g transform="translate(12.620058,27.019868)" >
        <g id="g8705" gorn="0.11.0" >
            <g id="legs" gorn="0.11.0.0" >
                <g id="pin0" gorn="0.11.0.0.0" >
                    <rect width="2.6530001" height="0.78099799" id="rect10" y="10.789" x="0.336" gorn="0.11.0.0.0.0"  style="fill:#8c8c8c"/>
                    <rect width="1.1720001" height="1.9960001" id="rect14" y="10.894" x="0.336" gorn="0.11.0.0.0.1"  style="fill:#8c8c8c"/>
                </g>
                <g id="pin2" gorn="0.11.0.0.1" >
                    <rect width="2.668" height="0.78099799" id="rect8" y="10.777" x="6.652" gorn="0.11.0.0.1.0"  style="fill:#8c8c8c"/>
                    <rect width="1.171" height="2.01" id="rect16" y="10.88" x="8.1490297" gorn="0.11.0.0.1.1"  style="fill:#8c8c8c"/>
                </g>
                <g id="pin1" gorn="0.11.0.0.2" >
                    <rect width="2.421" height="0.78099799" id="rect12" y="1.359" x="3.6170001" gorn="0.11.0.0.2.0"  style="fill:#8c8c8c"/>
                    <rect width="1.171" height="2.3429999" id="rect18" y="0" x="4.2420001" gorn="0.11.0.0.2.1"  style="fill:#8c8c8c"/>
                </g>
            </g>
            <path d="M 4.827,1.554 C 2.161,1.554 0,3.715 0,6.382 l 0,4.827 4.827,0 4.829,0 -1e-5,-4.827 C 9.65599,3.715 7.49398,1.554 4.827,1.554 Z m -2.705,6.66401 0,-3.67101 5.412,0 0,3.671 -5.412,10e-6 z" id="path20" gorn="0.11.0.1"  style="fill:#6b6b6b"/>
            <path d="M 3.994,3.294 C 2.292,3.754 1.285,5.508 1.743,7.21001 2.204,8.91403 3.956,9.92203 5.66,9.46303 7.364,9.00103 8.371,7.24803 7.911,5.54503 7.45099,3.842 5.698,2.833 3.994,3.294 Z M 3.708,7.22599 3.847,6.09799 5.535,5.64199 6.224,6.545993 3.708,7.22599 Z" id="path27" gorn="0.11.0.2"  style="fill:#cecece"/>
            <g id="g16" gorn="0.11.0.3" >
                <polygon id="rect31" points="4.898,8.65901 4.456,7.025 5.474,6.749 5.916,8.38202 " gorn="0.11.0.3.0" />
                <polygon id="polygon33" points="4.758,4.098 3.741,4.373 3.957,5.181 3.708,7.22599 3.847,6.098 5.534,5.642 6.224,6.546 4.977,4.906 " gorn="0.11.0.3.1" />
            </g>
            <g id="g35" gorn="0.11.0.4" >
                <polygon id="polygon37" points="3.847,6.098 2.547,6.449 2.821,7.46503 3.708,7.22599 " gorn="0.11.0.4.0"  style="fill:#4d4d4d"/>
                <polygon id="polygon39" points="6.835,5.291 5.534,5.642 6.224,6.546 7.109,6.309 " gorn="0.11.0.4.1"  style="fill:#4d4d4d"/>
            </g>
            <path d="M 9.27598,6.507 C 9.25798,6.21 9.21103,5.91 9.13298,5.612 9.05897,5.345 8.95997,5.093 8.84398,4.853 L 8.63503,4.924 8.32298,4.509 C 8.23298,4.374 8.136,4.245 8.03002,4.122 L 7.70198,3.688 7.88098,3.554 C 6.818,2.577 5.297,2.146 3.799,2.549 2.304,2.954 1.206,4.093 0.780998,5.472 l 0.22,0.026 L 0.936,6.039 C 0.909,6.196 0.888,6.357 0.879,6.519 L 0.816998,7.037 0.599,7.08 C 0.62,7.347 0.662,7.615 0.735,7.883002 0.816998,8.17798 0.927,8.46 1.062,8.72503 l 0.229,-0.184 c 0.265,0.542 0.642,0.999 1.092,1.363 l -0.229,0.182 c 1.051,0.874001 2.494,1.242 3.914,0.858002 1.42,-0.383998 2.48,-1.428 2.949,-2.713 L 8.72798,8.19 C 8.93498,7.65 9.03002,7.064 8.98603,6.462 L 9.27598,6.507 Z M 5.671,9.477 C 4.163,9.88301 2.61,8.99201 2.202,7.48498 1.796,5.97498 2.687,4.42198 4.196,4.01498 5.704,3.608 7.25602,4.5 7.66397,6.008 8.073,7.51802 7.18,9.06998 5.671,9.477 Z" enable-background="new    " id="path41" gorn="0.11.0.5"  style="opacity:0.3"/>
            <path d="M 3.769,2.456 C 1.601,3.04 0.319,5.271 0.905,7.436 1.489,9.605 3.72,10.888 5.888,10.302 8.05298,9.71597 9.33602,7.48699 8.75002,5.319 8.16502,3.153 5.936,1.871 3.769,2.456 Z M 5.661,9.46303 C 3.957,9.92203 2.204,8.91598 1.743,7.21001 c -0.46,-1.704 0.548,-3.458 2.251,-3.917 1.704,-0.459 3.459,0.549 3.918,2.253 0.45901,1.70302 -0.54698,3.45701 -2.251,3.91702 z" id="path43" gorn="0.11.0.6" />
            <path d="M 9.16999,6.139 C 9.15401,5.842 9.108,5.542 9.02599,5.243 8.95499,4.978 8.85599,4.725 8.73899,4.483998 l -0.208,0.07 L 7.59499,3.32 7.77499,3.186 C 6.712,2.208 5.191,1.777 3.694,2.181 2.197,2.585 1.1,3.724 0.675,5.103 l 0.22,0.026 -0.184,1.54 -0.216,0.042 c 0.02,0.267 0.063,0.533 0.134,0.801 0.0820001,0.298 0.192,0.58 0.327,0.844999 l 0.616,-0.496 1.094,1.358 -0.618,0.498981 c 1.049,0.871999 2.493,1.24 3.912,0.858002 1.42,-0.384 2.483,-1.427 2.95,-2.71 L 8.12801,7.74799 8.38501,6.02399 9.16999,6.139 Z M 5.566,9.10901 C 4.057,9.51502 2.503,8.62402 2.097,7.115 1.69,5.607 2.582,4.055 4.091,3.648 5.6,3.241 7.151,4.133 7.55798,5.642 7.96601,7.15 7.073,8.70199 5.566,9.10901 Z" id="path45" gorn="0.11.0.7"  style="fill:#1a1a1a"/>
            <circle cy="4.5430002" enable-background="new    " id="circle47" cx="1.569" r="0.32499999" gorn="0.11.0.8"  style="opacity:0.4;fill:#ffffff"/>
            <circle cy="3.152" enable-background="new    " id="circle49" cx="6.7199998" r="0.32600001" gorn="0.11.0.9"  style="opacity:0.4;fill:#ffffff"/>
            <g id="g51" gorn="0.11.0.10"  style="opacity:0.4">
                <path d="m 3.919,9.59501 -0.137,-0.03298 0.033,-0.138 0.135,0.03195 0.033,-0.135 0.275,0.064 -0.263,1.1 -0.275,-0.063 0.199,-0.82697 z" id="path53" gorn="0.11.0.10.0"  style="fill:#ffffff"/>
                <path d="M 6.168,10.359 5.619,10.497 5.585,10.359 5.448,10.394 5.24,9.57002 l 0.137,-0.035 -0.035,-0.136 0.551,-0.137 0.033,0.135 0.138,-0.033 0.208,0.821002 -0.14,0.035 L 6.168,10.359 Z M 5.997,10.253 5.787,9.434 5.515,9.50098 5.722,10.324977 5.997,10.253 Z" id="path55" gorn="0.11.0.10.1"  style="fill:#ffffff"/>
                <path d="m 7.68002,8.84902 0.10095,-0.099 0.1,0.101 -0.099,0.1 L 7.97998,9.14998 7.77902,9.35201 7.57699,9.15401 7.27697,9.45202 7.077,9.24898 7.176,9.1519802 6.979,8.94902 l 0.1,-0.1 0.199,0.199 -0.101,0.10397 0.09903,0.09799 0.202,-0.198 L 6.98,8.54899 l 0.202,-0.2 0.49802,0.50003 z" id="path57" gorn="0.11.0.10.2"  style="fill:#ffffff"/>
            </g>
        </g>
    </g>
</svg>
