<?xml version='1.0' encoding='utf-8'?>
<!-- Generator: Adobe Illustrator 20.0.0, SVG Export Plug-In . SVG Version: 6.00 Build 0)  -->
<svg xmlns="http://www.w3.org/2000/svg" viewBox="0 0 57.6 50.4" gorn="0" width="0.8in" xml:space="preserve"  version="1.2" xmlns:xml="http://www.w3.org/XML/1998/namespace" baseProfile="tiny" id="Layer_1" x="0px" y="0px" height="0.7in">
    <desc>
        <referenceFile>Adafruit SI1145 Digital UV Index + IR + Visible Light Sensor_breadboard.svg</referenceFile>
    </desc>
    <desc >Fritzing breadboard generated by brd2svg</desc>
    <g gorn="0.1"  id="breadboard">
        <g gorn="0.1.0"  id="icon">
            <path fill="#014CB1"  d="M0,43.2v-36C0,3.224,3.224,0,7.2,0c0,0,0,0,0,0h43.2c3.976,0,7.2,3.224,7.2,7.2v36c0,3.976-3.224,7.2-7.2,7.2H7.2C3.224,50.4,0,47.176,0,43.2C0,43.2,0,43.2,0,43.2 M5.783,43.2c0,0.783,0.635,1.417,1.417,1.417s1.417-0.635,1.417-1.417S7.983,41.783,7.2,41.783S5.783,42.417,5.783,43.2z M12.983,43.2c0,0.783,0.635,1.417,1.417,1.417s1.417-0.635,1.417-1.417s-0.635-1.417-1.417-1.417S12.983,42.417,12.983,43.2z M20.183,43.2c0,0.783,0.635,1.417,1.417,1.417c0.783,0,1.417-0.635,1.417-1.417s-0.635-1.417-1.417-1.417C20.817,41.783,20.183,42.417,20.183,43.2z M27.383,43.2c0,0.783,0.635,1.417,1.417,1.417c0.783,0,1.417-0.635,1.417-1.417s-0.635-1.417-1.417-1.417C28.017,41.783,27.383,42.417,27.383,43.2z M34.583,43.2c0,0.783,0.635,1.417,1.417,1.417c0.783,0,1.417-0.635,1.417-1.417S36.783,41.783,36,41.783S34.583,42.417,34.583,43.2z M41.783,43.2c0,0.783,0.635,1.417,1.417,1.417s1.417-0.635,1.417-1.417s-0.635-1.417-1.417-1.417S41.783,42.417,41.783,43.2z M48.983,43.2c0,0.783,0.635,1.417,1.417,1.417c0.783,0,1.417-0.635,1.417-1.417s-0.635-1.417-1.417-1.417S48.983,42.417,48.983,43.2z M3.657,7.2c-0.003,1.957,1.58,3.546,3.537,3.549s3.546-1.58,3.549-3.537c0-0.004,0-0.008,0-0.012c0.003-1.957-1.58-3.546-3.537-3.549C5.249,3.647,3.66,5.231,3.657,7.188C3.657,7.192,3.657,7.196,3.657,7.2z M46.857,7.2c-0.003,1.957,1.58,3.546,3.537,3.55s3.546-1.58,3.55-3.537c0-0.004,0-0.008,0-0.012c0.003-1.957-1.58-3.546-3.537-3.55c-1.957-0.003-3.546,1.58-3.55,3.537C46.857,7.192,46.857,7.196,46.857,7.2z"/>
            <g >
                <title >layer 21</title>
                <g >
                    <title >text:SI1145</title>
                    <g transform="matrix(1 0 0 1 19.7424 6.408)" >
                        <text font-size="3.3408" fill="#FFFFFF"  font-family="'OCRA'">SI1145</text>
                    </g>
                </g>
                <g >
                    <title >text:UV Sensor</title>
                    <g transform="matrix(1 0 0 1 15.2135 12.168)" >
                        <text font-size="3.3408" fill="#FFFFFF"  font-family="'OCRA'">UV Sensor</text>
                    </g>
                </g>
                <g >
                    <title >text:SDA</title>
                    <g transform="matrix(1 0 0 1 46.7769 40.1904)" >
                        <text font-size="2.67264" fill="#FFFFFF"  font-family="'OCRA'">SDA</text>
                    </g>
                </g>
                <g >
                    <title >text:SCL</title>
                    <g transform="matrix(1 0 0 1 39.5769 49.5504)" >
                        <text font-size="2.67264" fill="#FFFFFF"  font-family="'OCRA'">SCL</text>
                    </g>
                </g>
                <g >
                    <title >text:LED</title>
                    <g transform="matrix(1 0 0 1 32.377 40.1904)" >
                        <text font-size="2.67264" fill="#FFFFFF"  font-family="'OCRA'">LED</text>
                    </g>
                </g>
                <g >
                    <title >text:INT</title>
                    <g transform="matrix(1 0 0 1 25.8969 49.5504)" >
                        <text font-size="2.67264" fill="#FFFFFF"  font-family="'OCRA'">INT</text>
                    </g>
                </g>
                <g >
                    <title >text:GND</title>
                    <g transform="matrix(1 0 0 1 10.7769 49.5504)" >
                        <text font-size="2.67264" fill="#FFFFFF"  font-family="'OCRA'">GND</text>
                    </g>
                </g>
                <g >
                    <title >text:Vin</title>
                    <g transform="matrix(1 0 0 1 3.5769 40.1904)" >
                        <text font-size="2.67264" fill="#FFFFFF"  font-family="'OCRA'">Vin</text>
                    </g>
                </g>
                <g >
                    <title >text:3Vo</title>
                    <g transform="matrix(1 0 0 1 17.9769 40.1904)" >
                        <text font-size="2.67264" fill="#FFFFFF"  font-family="'OCRA'">3Vo</text>
                    </g>
                </g>
                <g >
                    <title >element:C1</title>
                    <g >
                        <title >package:0805-NO</title>
                        <line x1="15.84" x2="18.72" stroke-width="0.864" fill="none"  stroke="#FFFFFF" stroke-linecap="round" y1="18.72" y2="18.72"/>
                    </g>
                </g>
                <g >
                    <title >element:C2</title>
                    <g >
                        <title >package:0805-NO</title>
                        <line x1="4.32" x2="7.2" stroke-width="0.864" fill="none"  stroke="#FFFFFF" stroke-linecap="round" y1="30.24" y2="30.24"/>
                    </g>
                </g>
                <g >
                    <title >element:FID1</title>
                    <g >
                        <title >package:FIDUCIAL_1MM</title>
                    </g>
                </g>
                <g >
                    <title >element:FID2</title>
                    <g >
                        <title >package:FIDUCIAL_1MM</title>
                    </g>
                </g>
                <g >
                    <title >element:JP1</title>
                    <g >
                        <title >package:1X07_ROUND_70</title>
                    </g>
                </g>
                <g >
                    <title >element:Q1</title>
                    <g >
                        <title >package:SOT23-WIDE</title>
                        <line x1="42.791" x2="46.512" stroke-width="0.576" fill="none"  stroke="#FFFFFF" stroke-linecap="round" y1="14.699" y2="14.699"/>
                        <line x1="46.512" x2="46.512" stroke-width="0.576" fill="none"  stroke="#FFFFFF" stroke-linecap="round" y1="14.699" y2="17.417"/>
                        <line x1="46.512" x2="42.791" stroke-width="0.576" fill="none"  stroke="#FFFFFF" stroke-linecap="round" y1="24.181" y2="24.181"/>
                        <line x1="46.512" x2="46.512" stroke-width="0.576" fill="none"  stroke="#FFFFFF" stroke-linecap="round" y1="21.463" y2="24.181"/>
                        <line x1="42.768" x2="42.768" stroke-width="0.576" fill="none"  stroke="#FFFFFF" stroke-linecap="round" y1="20.07" y2="18.77"/>
                    </g>
                </g>
                <g >
                    <title >element:Q2</title>
                    <g >
                        <title >package:SOT23-WIDE</title>
                        <line x1="42.791" x2="46.512" stroke-width="0.576" fill="none"  stroke="#FFFFFF" stroke-linecap="round" y1="26.219" y2="26.219"/>
                        <line x1="46.512" x2="46.512" stroke-width="0.576" fill="none"  stroke="#FFFFFF" stroke-linecap="round" y1="26.219" y2="28.937"/>
                        <line x1="46.512" x2="42.791" stroke-width="0.576" fill="none"  stroke="#FFFFFF" stroke-linecap="round" y1="35.701" y2="35.701"/>
                        <line x1="46.512" x2="46.512" stroke-width="0.576" fill="none"  stroke="#FFFFFF" stroke-linecap="round" y1="32.983" y2="35.701"/>
                        <line x1="42.768" x2="42.768" stroke-width="0.576" fill="none"  stroke="#FFFFFF" stroke-linecap="round" y1="31.59" y2="30.29"/>
                    </g>
                </g>
                <g >
                    <title >element:R1</title>
                    <g >
                        <title >package:0805-NO</title>
                        <line x1="35.28" x2="38.16" stroke-width="0.864" fill="none"  stroke="#FFFFFF" stroke-linecap="round" y1="19.44" y2="19.44"/>
                    </g>
                </g>
                <g >
                    <title >element:R2</title>
                    <g >
                        <title >package:0805-NO</title>
                        <line x1="54" x2="51.12" stroke-width="0.864" fill="none"  stroke="#FFFFFF" stroke-linecap="round" y1="19.44" y2="19.44"/>
                    </g>
                </g>
                <g >
                    <title >element:R3</title>
                    <g >
                        <title >package:0805-NO</title>
                        <line x1="54" x2="51.12" stroke-width="0.864" fill="none"  stroke="#FFFFFF" stroke-linecap="round" y1="30.24" y2="30.24"/>
                    </g>
                </g>
                <g >
                    <title >element:R4</title>
                    <g >
                        <title >package:0805-NO</title>
                        <line x1="38.16" x2="35.28" stroke-width="0.864" fill="none"  stroke="#FFFFFF" stroke-linecap="round" y1="30.24" y2="30.24"/>
                    </g>
                </g>
                <g >
                    <title >element:R5</title>
                    <g >
                        <title >package:0805-NO</title>
                        <line x1="27.36" x2="27.36" stroke-width="0.864" fill="none"  stroke="#FFFFFF" stroke-linecap="round" y1="20.16" y2="17.28"/>
                    </g>
                </g>
                <g >
                    <title >element:U$3</title>
                    <g >
                        <title >package:ADAFRUIT_3.5MM</title>
                    </g>
                </g>
                <g >
                    <title >element:U$5</title>
                    <g >
                        <title >package:MOUNTINGHOLE_2.5_PLATED</title>
                        <circle stroke-width="0.576" r="5.669" fill="none"  stroke="#FFFFFF" cx="7.2" cy="7.2"/>
                    </g>
                </g>
                <g >
                    <title >element:U$6</title>
                    <g >
                        <title >package:MOUNTINGHOLE_2.5_PLATED</title>
                        <circle stroke-width="0.576" r="5.669" fill="none"  stroke="#FFFFFF" cx="50.4" cy="7.2"/>
                    </g>
                </g>
                <g >
                    <title >element:U$8</title>
                    <g >
                        <title >package:ADAFRUIT_5MM</title>
                    </g>
                </g>
                <g >
                    <title >element:U1</title>
                    <g >
                        <title >package:SI114X</title>
                        <circle stroke-width="1.152" r="0.401" fill="none"  stroke="#FFFFFF" cx="30.631" cy="30.892"/>
                    </g>
                </g>
                <g >
                    <title >element:U2</title>
                    <g >
                        <title >package:SOT23-5</title>
                        <line x1="17.388" x2="12.852" stroke-width="0.576" fill="none"  stroke="#FFFFFF" stroke-linecap="round" y1="24.843" y2="24.843"/>
                        <line x1="17.388" x2="12.852" stroke-width="0.576" fill="none"  stroke="#FFFFFF" stroke-linecap="round" y1="34.197" y2="34.197"/>
                        <line x1="18.096" x2="18.096" stroke-width="0.576" fill="none"  stroke="#FFFFFF" stroke-linecap="round" y1="28.386" y2="30.654"/>
                    </g>
                </g>
            </g>
            <g transform="matrix(0, -1, 1, 0, -4.13292, 38.6929)" >
                <g >
                    <g transform="matrix(-2.535182e-06 -1 1 -2.535182e-06 -4.1329 38.6929)" >
                        <rect gorn="0.1.0.2.0.0.0" width="4.252" fill="#9A916C"  id="connector5pin" x="15.154" y="19.57" height="3.685"/>
                    </g>
                </g>
            </g>
            <g transform="matrix(0, -1, 1, 0, 1.25292, 33.3071)" >
                <g >
                    <g transform="matrix(-2.535182e-06 -1 1 -2.535182e-06 1.2529 33.307)" >
                        <rect gorn="0.1.0.3.0.0.0" width="4.252" fill="#9A916C"  id="connector6pin" x="15.154" y="14.185" height="3.685"/>
                    </g>
                </g>
            </g>
            <g transform="matrix(0, -1, 1, 0, -27.1729, 38.6929)" >
                <g >
                    <g transform="matrix(-2.535182e-06 -1 1 -2.535182e-06 -27.1729 38.693)" >
                        <rect gorn="0.1.0.4.0.0.0" width="4.252" fill="#9A916C"  id="connector7pin" x="3.634" y="31.09" height="3.685"/>
                    </g>
                </g>
            </g>
            <g transform="matrix(0, -1, 1, 0, -21.7871, 33.3071)" >
                <g >
                    <g transform="matrix(-2.535182e-06 -1 1 -2.535182e-06 -21.7871 33.3072)" >
                        <rect gorn="0.1.0.5.0.0.0" width="4.252" fill="#9A916C"  id="connector8pin" x="3.634" y="25.705" height="3.685"/>
                    </g>
                </g>
            </g>
            <path gorn="0.1.0.6" fill="#9A916C"  d="M41.04,2.903L41.04,2.903c0.783,0,1.417,0.635,1.417,1.417v0c0,0.783-0.635,1.417-1.417,1.417h0c-0.783,0-1.417-0.635-1.417-1.417v0C39.623,3.537,40.257,2.903,41.04,2.903z" id="connector9pin"/>
            <path gorn="0.1.0.7" fill="#9A916C"  d="M14.4,36.023L14.4,36.023c0.783,0,1.417,0.635,1.417,1.417v0c0,0.783-0.635,1.417-1.417,1.417h0c-0.783,0-1.417-0.635-1.417-1.417v0C12.983,36.657,13.617,36.023,14.4,36.023z" id="connector10pin"/>
            <circle stroke-width="1.1027" gorn="0.1.0.8" r="1.969" fill="none"  id="connector11pin" stroke="#9A916C" cx="7.2" cy="43.2"/>
            <rect stroke-width="1.1027" width="3.937" fill="none"  stroke="#9A916C" x="5.231" y="41.231" height="3.937"/>
            <circle stroke-width="1.1027" gorn="0.1.0.10" r="1.969" fill="none"  id="connector12pin" stroke="#9A916C" cx="14.4" cy="43.2"/>
            <circle stroke-width="1.1027" gorn="0.1.0.11" r="1.969" fill="none"  id="connector13pin" stroke="#9A916C" cx="21.6" cy="43.2"/>
            <circle stroke-width="1.1027" gorn="0.1.0.12" r="1.969" fill="none"  id="connector14pin" stroke="#9A916C" cx="28.8" cy="43.2"/>
            <circle stroke-width="1.1027" gorn="0.1.0.13" r="1.969" fill="none"  id="connector15pin" stroke="#9A916C" cx="36" cy="43.2"/>
            <circle stroke-width="1.1027" gorn="0.1.0.14" r="1.969" fill="none"  id="connector16pin" stroke="#9A916C" cx="43.2" cy="43.2"/>
            <circle stroke-width="1.1027" gorn="0.1.0.15" r="1.969" fill="none"  id="connector17pin" stroke="#9A916C" cx="50.4" cy="43.2"/>
            <g transform="matrix(0, 1, -1, 0, 58.5524, -25.0582)" >
                <g >
                    <g transform="matrix(2.535182e-06 1 -1 2.535182e-06 58.5523 -25.0583)" >
                        <rect gorn="0.1.0.16.0.0.0" width="3.402" fill="#9A916C"  id="connector18pin" x="40.105" y="15.33" height="2.835"/>
                    </g>
                </g>
            </g>
            <g transform="matrix(0, 1, -1, 0, 63.9382, -19.6724)" >
                <g >
                    <g transform="matrix(2.535182e-06 1 -1 2.535182e-06 63.9382 -19.6724)" >
                        <rect gorn="0.1.0.17.0.0.0" width="3.402" fill="#9A916C"  id="connector19pin" x="40.105" y="20.716" height="2.835"/>
                    </g>
                </g>
            </g>
            <g transform="matrix(0, 1, -1, 0, 66.9146, -28.0346)" >
                <g >
                    <g transform="matrix(2.535182e-06 1 -1 2.535182e-06 66.9145 -28.0347)" >
                        <rect gorn="0.1.0.18.0.0.0" width="3.402" fill="#9A916C"  id="connector20pin" x="45.774" y="18.023" height="2.835"/>
                    </g>
                </g>
            </g>
            <g transform="matrix(0, 1, -1, 0, 70.0724, -13.5382)" >
                <g >
                    <g transform="matrix(2.535182e-06 1 -1 2.535182e-06 70.0723 -13.5383)" >
                        <rect gorn="0.1.0.19.0.0.0" width="3.402" fill="#9A916C"  id="connector21pin" x="40.105" y="26.85" height="2.835"/>
                    </g>
                </g>
            </g>
            <g transform="matrix(0, 1, -1, 0, 75.4582, -8.15242)" >
                <g >
                    <g transform="matrix(2.535182e-06 1 -1 2.535182e-06 75.4582 -8.1524)" >
                        <rect gorn="0.1.0.20.0.0.0" width="3.402" fill="#9A916C"  id="connector22pin" x="40.105" y="32.236" height="2.835"/>
                    </g>
                </g>
            </g>
            <g transform="matrix(0, 1, -1, 0, 78.4346, -16.5146)" >
                <g >
                    <g transform="matrix(2.535182e-06 1 -1 2.535182e-06 78.4345 -16.5147)" >
                        <rect gorn="0.1.0.21.0.0.0" width="3.402" fill="#9A916C"  id="connector23pin" x="45.774" y="29.543" height="2.835"/>
                    </g>
                </g>
            </g>
            <g transform="matrix(0, -1, 1, 0, 14.5871, 58.8529)" >
                <g >
                    <g transform="matrix(-2.535182e-06 -1 1 -2.535182e-06 14.5871 58.8529)" >
                        <rect gorn="0.1.0.22.0.0.0" width="4.252" fill="#9A916C"  id="connector24pin" x="34.594" y="20.29" height="3.685"/>
                    </g>
                </g>
            </g>
            <g transform="matrix(0, -1, 1, 0, 19.9729, 53.4671)" >
                <g >
                    <g transform="matrix(-2.535182e-06 -1 1 -2.535182e-06 19.9729 53.467)" >
                        <rect gorn="0.1.0.23.0.0.0" width="4.252" fill="#9A916C"  id="connector25pin" x="34.594" y="14.905" height="3.685"/>
                    </g>
                </g>
            </g>
            <g transform="matrix(0, 1, -1, 0, 69.3071, -35.8129)" >
                <g >
                    <g transform="matrix(2.535182e-06 1 -1 2.535182e-06 69.3069 -35.8129)" >
                        <rect gorn="0.1.0.24.0.0.0" width="4.252" fill="#9A916C"  id="connector26pin" x="50.434" y="14.905" height="3.685"/>
                    </g>
                </g>
            </g>
            <g transform="matrix(0, 1, -1, 0, 74.6928, -30.4271)" >
                <g >
                    <g transform="matrix(2.535182e-06 1 -1 2.535182e-06 74.6927 -30.4271)" >
                        <rect gorn="0.1.0.25.0.0.0" width="4.252" fill="#9A916C"  id="connector27pin" x="50.434" y="20.29" height="3.685"/>
                    </g>
                </g>
            </g>
            <g transform="matrix(0, 1, -1, 0, 80.1072, -25.0129)" >
                <g >
                    <g transform="matrix(2.535182e-06 1 -1 2.535182e-06 80.1069 -25.0129)" >
                        <rect gorn="0.1.0.26.0.0.0" width="4.252" fill="#9A916C"  id="connector28pin" x="50.434" y="25.705" height="3.685"/>
                    </g>
                </g>
            </g>
            <g transform="matrix(0, 1, -1, 0, 85.4928, -19.6271)" >
                <g >
                    <g transform="matrix(2.535182e-06 1 -1 2.535182e-06 85.4927 -19.6271)" >
                        <rect gorn="0.1.0.27.0.0.0" width="4.252" fill="#9A916C"  id="connector29pin" x="50.434" y="31.09" height="3.685"/>
                    </g>
                </g>
            </g>
            <g transform="matrix(0, 1, -1, 0, 64.2671, -9.17294)" >
                <g >
                    <g transform="matrix(2.535182e-06 1 -1 2.535182e-06 64.2669 -9.1729)" >
                        <rect gorn="0.1.0.28.0.0.0" width="4.252" fill="#9A916C"  id="connector30pin" x="34.594" y="25.705" height="3.685"/>
                    </g>
                </g>
            </g>
            <g transform="matrix(0, 1, -1, 0, 69.6529, -3.78708)" >
                <g >
                    <g transform="matrix(2.535182e-06 1 -1 2.535182e-06 69.6527 -3.7871)" >
                        <rect gorn="0.1.0.29.0.0.0" width="4.252" fill="#9A916C"  id="connector31pin" x="34.594" y="31.09" height="3.685"/>
                    </g>
                </g>
            </g>
            <g transform="matrix(-1, 0, 0, -1, 60.1058, 37.44)" >
                <g >
                    <rect gorn="0.1.0.30.0.0" width="3.685" fill="#9A916C"  id="connector32pin" x="28.21" y="16.594" height="4.252"/>
                </g>
            </g>
            <g transform="matrix(-1, 0, 0, -1, 49.3342, 37.44)" >
                <g >
                    <rect gorn="0.1.0.31.0.0" width="3.685" fill="#9A916C"  id="connector33pin" x="22.825" y="16.594" height="4.252"/>
                </g>
            </g>
            <circle stroke-width="1.44" gorn="0.1.0.32" r="4.263" fill="none"  id="connector34pin" stroke="#9A916C" cx="7.2" cy="7.2"/>
            <circle stroke-width="1.44" gorn="0.1.0.33" r="4.263" fill="none"  id="connector35pin" stroke="#9A916C" cx="50.4" cy="7.2"/>
            <g transform="matrix(0, 1, -1, 0, 59.5389, -2.00693)" >
                <g >
                    <g transform="matrix(2.535182e-06 1 -1 2.535182e-06 59.5389 -2.0069)" >
                        <rect gorn="0.1.0.34.0.0.0" width="2.268" fill="#9A916C"  id="connector36pin" x="29.639" y="28.398" height="0.737"/>
                    </g>
                </g>
            </g>
            <g transform="matrix(0, 1, -1, 0, 58.1216, -3.42426)" >
                <g >
                    <g transform="matrix(2.535182e-06 1 -1 2.535182e-06 58.1215 -3.4243)" >
                        <rect gorn="0.1.0.35.0.0.0" width="2.268" fill="#9A916C"  id="connector37pin" x="29.639" y="26.98" height="0.737"/>
                    </g>
                </g>
            </g>
            <g transform="matrix(0, 1, -1, 0, 56.7042, -4.84158)" >
                <g >
                    <g transform="matrix(2.535182e-06 1 -1 2.535182e-06 56.7041 -4.8417)" >
                        <rect gorn="0.1.0.36.0.0.0" width="2.268" fill="#9A916C"  id="connector38pin" x="29.639" y="25.563" height="0.737"/>
                    </g>
                </g>
            </g>
            <g transform="matrix(0, 1, -1, 0, 55.2869, -6.2589)" >
                <g >
                    <g transform="matrix(2.535182e-06 1 -1 2.535182e-06 55.2868 -6.259)" >
                        <rect gorn="0.1.0.37.0.0.0" width="2.268" fill="#9A916C"  id="connector39pin" x="29.639" y="24.145" height="0.737"/>
                    </g>
                </g>
            </g>
            <rect gorn="0.1.0.38" width="0.737" fill="#9A916C"  id="connector40pin" x="27.712" y="22.813" height="2.268"/>
            <g transform="matrix(0, -1, 1, 0, 0.873072, 49.9011)" >
                <g >
                    <g transform="matrix(-2.535182e-06 -1 1 -2.535182e-06 0.8732 49.9011)" >
                        <rect gorn="0.1.0.39.0.0.0" width="2.268" fill="#9A916C"  id="connector41pin" x="24.253" y="24.145" height="0.737"/>
                    </g>
                </g>
            </g>
            <g transform="matrix(0, -1, 1, 0, -0.544252, 51.3184)" >
                <g >
                    <g transform="matrix(-2.535182e-06 -1 1 -2.535182e-06 -0.5441 51.3184)" >
                        <rect gorn="0.1.0.40.0.0.0" width="2.268" fill="#9A916C"  id="connector42pin" x="24.253" y="25.563" height="0.737"/>
                    </g>
                </g>
            </g>
            <g transform="matrix(0, -1, 1, 0, -1.96158, 52.7358)" >
                <g >
                    <g transform="matrix(-2.535182e-06 -1 1 -2.535182e-06 -1.9615 52.7358)" >
                        <rect gorn="0.1.0.41.0.0.0" width="2.268" fill="#9A916C"  id="connector43pin" x="24.253" y="26.98" height="0.737"/>
                    </g>
                </g>
            </g>
            <g transform="matrix(0, -1, 1, 0, -3.3789, 54.1531)" >
                <g >
                    <g transform="matrix(-2.535182e-06 -1 1 -2.535182e-06 -3.3789 54.1532)" >
                        <rect gorn="0.1.0.42.0.0.0" width="2.268" fill="#9A916C"  id="connector44pin" x="24.253" y="28.398" height="0.737"/>
                    </g>
                </g>
            </g>
            <rect gorn="0.1.0.43" width="0.737" fill="#9A916C"  id="connector45pin" x="27.712" y="28.199" height="2.268"/>
            <g transform="matrix(0, 1, -1, 0, 38.2617, 15.3924)" >
                <g >
                    <g transform="matrix(2.535182e-06 1 -1 2.535182e-06 38.2617 15.3924)" >
                        <rect gorn="0.1.0.44.0.0.0" width="3.402" fill="#9A916C"  id="connector46pin" x="9.734" y="26.048" height="1.559"/>
                    </g>
                </g>
            </g>
            <g transform="matrix(0, 1, -1, 0, 40.9547, 18.0853)" >
                <g >
                    <g transform="matrix(2.535182e-06 1 -1 2.535182e-06 40.9546 18.0853)" >
                        <rect gorn="0.1.0.45.0.0.0" width="3.402" fill="#9A916C"  id="connector47pin" x="9.734" y="28.74" height="1.559"/>
                    </g>
                </g>
            </g>
            <g transform="matrix(0, 1, -1, 0, 43.6476, 20.7783)" >
                <g >
                    <g transform="matrix(2.535182e-06 1 -1 2.535182e-06 43.6476 20.7783)" >
                        <rect gorn="0.1.0.46.0.0.0" width="3.402" fill="#9A916C"  id="connector48pin" x="9.734" y="31.433" height="1.559"/>
                    </g>
                </g>
            </g>
            <g transform="matrix(0, 1, -1, 0, 51.0183, 13.4076)" >
                <g >
                    <g transform="matrix(2.535182e-06 1 -1 2.535182e-06 51.0183 13.4076)" >
                        <rect gorn="0.1.0.47.0.0.0" width="3.402" fill="#9A916C"  id="connector49pin" x="17.105" y="31.433" height="1.559"/>
                    </g>
                </g>
            </g>
            <g transform="matrix(0, 1, -1, 0, 45.6324, 8.02174)" >
                <g >
                    <g transform="matrix(2.535182e-06 1 -1 2.535182e-06 45.6324 8.0217)" >
                        <rect gorn="0.1.0.48.0.0.0" width="3.402" fill="#9A916C"  id="connector50pin" x="17.105" y="26.048" height="1.559"/>
                    </g>
                </g>
            </g>
        </g>
        <g transform="matrix(1, 0, 0, 1, 14.4455, 16.9485)" >
            <g gorn="0.1.1.0"  id="_x30_805-cap">
                <g transform="matrix(0, -1, 1, 0, 1.063, 4.606)" >
                    <g >
                        <path fill="#DCDCDC"  d="M5.386,3.543H0.283C0.127,3.543,0,3.416,0,3.26V0.283C0,0.127,0.127,0,0.283,0h5.102c0.157,0,0.283,0.127,0.283,0.283V3.26C5.669,3.416,5.542,3.543,5.386,3.543z"/>
                        <g transform="matrix(-2.535182e-06 -1 1 -2.535182e-06 1.063 4.606)" >
                            <rect width="3.543" fill="#6E554B"  x="1.063" y="0" height="3.543"/>
                        </g>
                    </g>
                </g>
            </g>
        </g>
        <g transform="matrix(1, 0, 0, 1, 2.9255, 28.4685)" >
            <g gorn="0.1.2.0"  id="_x30_805-cap_1_">
                <g transform="matrix(0, -1, 1, 0, 1.063, 4.606)" >
                    <g >
                        <path fill="#DCDCDC"  d="M5.386,3.543H0.283C0.127,3.543,0,3.416,0,3.26V0.283C0,0.127,0.127,0,0.283,0h5.102c0.157,0,0.283,0.127,0.283,0.283V3.26C5.669,3.416,5.542,3.543,5.386,3.543z"/>
                        <g transform="matrix(-2.535182e-06 -1 1 -2.535182e-06 1.063 4.606)" >
                            <rect width="3.543" fill="#6E554B"  x="1.063" y="0" height="3.543"/>
                        </g>
                    </g>
                </g>
            </g>
        </g>
        <g transform="matrix(1, 0, 0, 1, 40.388, 15.613)" >
            <g gorn="0.1.3.0"  id="sot23-wide">
                <g transform="matrix(0, 1, -1, 0, 8.07898, -0.42498)" >
                    <g >
                        <g >
                            <g transform="matrix(2.535182e-06 1 -1 2.535182e-06 7.7235 4.6065)" >
                                <rect width="2.976" fill="#DCDCDC"  x="0.071" y="5.456" height="1.417"/>
                            </g>
                            <g transform="matrix(2.535182e-06 1 -1 2.535182e-06 13.1095 -0.7795)" >
                                <rect width="2.976" fill="#DCDCDC"  x="5.457" y="5.456" height="1.417"/>
                            </g>
                            <g transform="matrix(2.535182e-06 1 -1 2.535182e-06 5.8105 -2.6925)" >
                                <rect width="3.118" fill="#DCDCDC"  x="2.692" y="0.85" height="1.417"/>
                            </g>
                            <g transform="matrix(2.535182e-06 1 -1 2.535182e-06 8.0785 -0.4255)" >
                                <rect width="3.685" fill="#303030"  x="2.409" y="-0.425" height="8.504"/>
                            </g>
                        </g>
                    </g>
                </g>
            </g>
        </g>
        <g transform="matrix(1, 0, 0, 1, 40.388, 27.133)" >
            <g gorn="0.1.4.0"  id="sot23-wide_1_">
                <g transform="matrix(0, 1, -1, 0, 8.07898, -0.42498)" >
                    <g >
                        <g >
                            <g transform="matrix(2.535182e-06 1 -1 2.535182e-06 7.7235 4.6065)" >
                                <rect width="2.976" fill="#DCDCDC"  x="0.071" y="5.456" height="1.417"/>
                            </g>
                            <g transform="matrix(2.535182e-06 1 -1 2.535182e-06 13.1095 -0.7795)" >
                                <rect width="2.976" fill="#DCDCDC"  x="5.457" y="5.456" height="1.417"/>
                            </g>
                            <g transform="matrix(2.535182e-06 1 -1 2.535182e-06 5.8105 -2.6925)" >
                                <rect width="3.118" fill="#DCDCDC"  x="2.693" y="0.85" height="1.417"/>
                            </g>
                            <g transform="matrix(2.535182e-06 1 -1 2.535182e-06 8.0785 -0.4255)" >
                                <rect width="3.685" fill="#303030"  x="2.409" y="-0.425" height="8.504"/>
                            </g>
                        </g>
                    </g>
                </g>
            </g>
        </g>
        <g transform="matrix(1, 0, 0, 1, 33.8855, 17.6685)" >
            <g gorn="0.1.5.0"  id="_x30_805-res">
                <g transform="matrix(0, -1, 1, 0, 1.063, 4.606)" >
                    <g >
                        <path fill="#DCDCDC"  d="M5.386,3.543H0.283C0.127,3.543,0,3.416,0,3.26V0.283C0,0.127,0.127,0,0.283,0h5.102c0.157,0,0.283,0.127,0.283,0.283V3.26C5.669,3.416,5.542,3.543,5.386,3.543z"/>
                        <g transform="matrix(-2.535182e-06 -1 1 -2.535182e-06 1.063 4.606)" >
                            <rect width="3.543" fill="#333333"  x="1.063" y="0" height="3.543"/>
                        </g>
                    </g>
                </g>
            </g>
        </g>
        <g transform="matrix(1, 0, 0, 1, 49.7255, 17.6685)" >
            <g gorn="0.1.6.0"  id="_x30_805-res_1_">
                <g transform="matrix(0, 1, -1, 0, 4.606, -1.063)" >
                    <g >
                        <path fill="#DCDCDC"  d="M5.386,3.543H0.283C0.127,3.543,0,3.416,0,3.26V0.283C0,0.127,0.127,0,0.283,0h5.102c0.157,0,0.283,0.127,0.283,0.283V3.26C5.669,3.416,5.542,3.543,5.386,3.543z"/>
                        <g transform="matrix(2.535182e-06 1 -1 2.535182e-06 4.606 -1.063)" >
                            <rect width="3.543" fill="#333333"  x="1.063" y="0" height="3.543"/>
                        </g>
                    </g>
                </g>
            </g>
        </g>
        <g transform="matrix(1, 0, 0, 1, 49.7255, 28.4685)" >
            <g gorn="0.1.7.0"  id="_x30_805-res_2_">
                <g transform="matrix(0, 1, -1, 0, 4.606, -1.063)" >
                    <g >
                        <path fill="#DCDCDC"  d="M5.386,3.543H0.283C0.127,3.543,0,3.416,0,3.26V0.283C0,0.127,0.127,0,0.283,0h5.102c0.157,0,0.283,0.127,0.283,0.283V3.26C5.669,3.416,5.542,3.543,5.386,3.543z"/>
                        <g transform="matrix(2.535182e-06 1 -1 2.535182e-06 4.606 -1.063)" >
                            <rect width="3.543" fill="#333333"  x="1.063" y="0" height="3.543"/>
                        </g>
                    </g>
                </g>
            </g>
        </g>
        <g transform="matrix(1, 0, 0, 1, 33.8855, 28.4685)" >
            <g gorn="0.1.8.0"  id="_x30_805-res_3_">
                <g transform="matrix(0, 1, -1, 0, 4.606, -1.063)" >
                    <g >
                        <path fill="#DCDCDC"  d="M5.386,3.543H0.283C0.127,3.543,0,3.416,0,3.26V0.283C0,0.127,0.127,0,0.283,0h5.102c0.157,0,0.283,0.127,0.283,0.283V3.26C5.669,3.416,5.542,3.543,5.386,3.543z"/>
                        <g transform="matrix(2.535182e-06 1 -1 2.535182e-06 4.606 -1.063)" >
                            <rect width="3.543" fill="#333333"  x="1.063" y="0" height="3.543"/>
                        </g>
                    </g>
                </g>
            </g>
        </g>
        <g transform="matrix(1, 0, 0, 1, 24.5255, 16.9485)" >
            <g gorn="0.1.9.0"  id="_x30_805-res_4_">
                <g transform="matrix(-1, 0, 0, -1, 5.669, 3.543)" >
                    <g >
                        <path fill="#DCDCDC"  d="M5.386,3.543H0.283C0.127,3.543,0,3.416,0,3.26V0.283C0,0.127,0.127,0,0.283,0h5.102c0.157,0,0.283,0.127,0.283,0.283V3.26C5.669,3.416,5.542,3.543,5.386,3.543z"/>
                        <rect width="3.543" fill="#333333"  x="1.063" y="0" height="3.543"/>
                    </g>
                </g>
            </g>
        </g>
        <g transform="matrix(1, 0, 0, 1, 0.487477, 16.374)" >
            <g gorn="0.1.10.0"  id="adafruit_3.5mm">
                <path fill="#DCDCDC"  d="M11.596,2.614c-0.032-0.2-0.141-0.257-0.403-0.341C10.994,2.209,9.66,1.784,9.66,1.784S8.73,1.433,8.041,1.93C7.948,1.996,7.852,2.073,7.755,2.154c0.082-0.097,0.158-0.193,0.224-0.286c0.495-0.69,0.143-1.619,0.143-1.619S7.695-1.085,7.63-1.284c-0.085-0.262-0.142-0.37-0.342-0.402C7.088-1.718,7-1.632,6.839-1.409C6.717-1.239,5.9-0.102,5.9-0.102S5.279,0.675,5.539,1.484c0.034,0.109,0.077,0.224,0.125,0.341C5.597,1.717,5.529,1.616,5.461,1.523C4.958,0.839,3.965,0.887,3.965,0.887s-1.4-0.006-1.61-0.006C2.08,0.88,1.959,0.901,1.867,1.082C1.776,1.263,1.83,1.373,1.993,1.595c0.124,0.169,0.953,1.297,0.953,1.297s0.546,0.83,1.395,0.834c0.114,0,0.236-0.005,0.362-0.014c-0.122,0.03-0.24,0.064-0.348,0.1C3.549,4.079,3.288,5.038,3.288,5.038S2.85,6.368,2.785,6.567C2.699,6.828,2.682,6.95,2.825,7.093c0.144,0.143,0.265,0.126,0.526,0.04C3.55,7.068,4.879,6.627,4.879,6.627s0.958-0.263,1.224-1.07c0.036-0.108,0.069-0.225,0.1-0.348C6.194,5.335,6.189,5.457,6.19,5.571C6.195,6.42,7.026,6.965,7.026,6.965s1.13,0.827,1.298,0.951C8.547,8.078,8.657,8.132,8.838,8.04c0.181-0.092,0.201-0.213,0.2-0.488c-0.001-0.21-0.009-1.61-0.009-1.61S9.076,4.949,8.39,4.447C8.298,4.38,8.196,4.312,8.089,4.245c0.117,0.047,0.232,0.09,0.34,0.124c0.81,0.258,1.584-0.364,1.584-0.364s1.136-0.819,1.306-0.941C11.542,2.903,11.628,2.815,11.596,2.614z M6.774,1.583c0.152,0.024,0.228,0.349,0.169,0.726S6.712,2.971,6.559,2.947S6.33,2.598,6.39,2.222C6.449,1.845,6.621,1.559,6.774,1.583z M4.818,2.582c0.07-0.138,0.402-0.11,0.742,0.063C5.9,2.818,6.118,3.07,6.048,3.208s-0.402,0.11-0.742-0.063C4.966,2.972,4.748,2.72,4.818,2.582z M5.849,4.46C5.58,4.73,5.272,4.86,5.163,4.751c-0.109-0.109,0.02-0.416,0.29-0.686c0.269-0.27,0.576-0.4,0.686-0.291C6.248,3.883,6.118,4.19,5.849,4.46z M7.333,5.093c-0.138,0.07-0.39-0.148-0.563-0.487c-0.174-0.34-0.203-0.673-0.065-0.743s0.39,0.148,0.563,0.487C7.441,4.69,7.47,5.022,7.333,5.093z M7.69,3.52C7.313,3.58,6.989,3.505,6.964,3.352C6.94,3.199,7.226,3.027,7.602,2.967c0.377-0.06,0.701,0.015,0.726,0.168C8.352,3.288,8.067,3.46,7.69,3.52z"/>
            </g>
        </g>
        <g transform="matrix(1, 0, 0, 1, 25.2455, 24.4356)" >
            <g gorn="0.1.11.0"  id="si114x">
                <g transform="matrix(-1, 0, 0, -1, 5.669, 5.669)" >
                    <g >
                        <rect width="5.669" fill="#C8C8C8"  x="0" y="0.631" height="5.669"/>
                        <rect width="0.992" fill="#DCDCDC"  x="0" y="0.985" height="0.709"/>
                        <rect width="0.992" fill="#DCDCDC"  x="4.677" y="0.985" height="0.709"/>
                        <polygon fill="#DCDCDC"  points="0,5.237 0,5.946 2.48,5.946 2.48,6.3 3.189,6.3 3.189,5.946 5.669,5.946 5.669,5.237 3.189,5.237 3.189,4.529 5.669,4.529 5.669,3.82 3.189,3.82 3.189,3.111 5.669,3.111 5.669,2.403 3.189,2.403 3.189,0.631 2.48,0.631 2.48,2.403 0,2.403 0,3.111 2.48,3.111 2.48,3.82 0,3.82 0,4.529 2.48,4.529 2.48,5.237 "/>
                        <rect width="3.685" fill="#646464"  x="0.992" y="1.339" height="4.606"/>
                    </g>
                </g>
            </g>
        </g>
        <g transform="matrix(1, 0, 0, 1, 11.01, 25.693)" >
            <g gorn="0.1.12.0"  id="sot23-5">
                <g transform="matrix(0, 1, -1, 0, 7.93706, -0.282996)" >
                    <g >
                        <g >
                            <g transform="matrix(2.535182e-06 1 -1 2.535182e-06 5.244 2.41)" >
                                <rect width="7.654" fill="#DCDCDC"  x="-2.41" y="3.26" height="1.134"/>
                            </g>
                            <g transform="matrix(2.535182e-06 1 -1 2.535182e-06 10.63 -2.976)" >
                                <rect width="7.654" fill="#DCDCDC"  x="2.976" y="3.26" height="1.134"/>
                            </g>
                            <g transform="matrix(2.535182e-06 1 -1 2.535182e-06 10.204 1.984)" >
                                <rect width="3.118" fill="#DCDCDC"  x="2.551" y="5.527" height="1.134"/>
                            </g>
                            <g transform="matrix(2.535182e-06 1 -1 2.535182e-06 7.9365 -0.2835)" >
                                <rect width="4.535" fill="#303030"  x="1.843" y="-0.284" height="8.22"/>
                            </g>
                        </g>
                    </g>
                </g>
            </g>
        </g>
    </g>
</svg>
