<?xml version='1.0' encoding='UTF-8' standalone='no'?>
<!-- Created with Fritzing (http://www.fritzing.org/) -->
<svg xmlns="http://www.w3.org/2000/svg" y="0in" x="0in"  viewBox="0 0 54 54" width="0.75in" height="0.75in" baseProfile="tiny" version="1.2">
    <desc>
        <referenceFile>Adafruit_ADXL377_breadboard.svg</referenceFile>
    </desc>
    <desc >Fritzing breadboard generated by brd2svg</desc>
    <g  gorn="0.1" id="breadboard">
        <g  gorn="0.1.0" id="icon">
            <path d="M54,7.2L54,46.8A7.2,7.2,0,0,1,46.8,54L7.2,54A7.2,7.2,0,0,1,0,46.8L0,7.2A7.2,7.2,0,0,1,7.2,0L46.8,0A7.2,7.2,0,0,1,54,7.2M3.98268,48.6a1.41732,1.41732,0,1,0,2.83465,0,1.41732,1.41732,0,1,0,-2.83465,0zM11.1827,48.6a1.41732,1.41732,0,1,0,2.83465,0,1.41732,1.41732,0,1,0,-2.83465,0zM18.3827,48.6a1.41732,1.41732,0,1,0,2.83465,0,1.41732,1.41732,0,1,0,-2.83465,0zM25.5827,48.6a1.41732,1.41732,0,1,0,2.83465,0,1.41732,1.41732,0,1,0,-2.83465,0zM32.7827,48.6a1.41732,1.41732,0,1,0,2.83465,0,1.41732,1.41732,0,1,0,-2.83465,0zM39.9827,48.6a1.41732,1.41732,0,1,0,2.83465,0,1.41732,1.41732,0,1,0,-2.83465,0zM47.1827,48.6a1.41732,1.41732,0,1,0,2.83465,0,1.41732,1.41732,0,1,0,-2.83465,0zM43.2567,7.2a3.54331,3.54331,0,1,0,7.08661,0,3.54331,3.54331,0,1,0,-7.08661,0zM3.65669,7.2a3.54331,3.54331,0,1,0,7.08661,0,3.54331,3.54331,0,1,0,-7.08661,0zM3.65669,36a3.54331,3.54331,0,1,0,7.08661,0,3.54331,3.54331,0,1,0,-7.08661,0zM43.2567,36a3.54331,3.54331,0,1,0,7.08661,0,3.54331,3.54331,0,1,0,-7.08661,0z"  stroke="none" stroke-width="0" fill="#014cb1"/>
            <g >
                <title >layer 21</title>
                <line  stroke="white" x2="43.56" x1="43.56" stroke-linecap="round" stroke-width="0.72" y1="20.16" y2="14.76"/>
                <line  stroke="white" x2="42.12" x1="43.56" stroke-linecap="round" stroke-width="0.72" y1="14.76" y2="16.2"/>
                <line  stroke="white" x2="45" x1="43.56" stroke-linecap="round" stroke-width="0.72" y1="14.76" y2="16.2"/>
                <line  stroke="white" x2="51.48" x1="45.72" stroke-linecap="round" stroke-width="0.72" y1="22.32" y2="22.32"/>
                <line  stroke="white" x2="51.48" x1="50.04" stroke-linecap="round" stroke-width="0.72" y1="20.88" y2="22.32"/>
                <line  stroke="white" x2="50.04" x1="51.48" stroke-linecap="round" stroke-width="0.72" y1="22.32" y2="23.76"/>
                <circle r="0.72"  stroke="white" cy="22.32" stroke-width="0.72" cx="43.56" fill="none"/>
                <circle r="2.03646"  stroke="white" cy="22.32" stroke-width="0.72" cx="43.56" fill="none"/>
                <g >
                    <title >text:ADXL377</title>
                    <text font-family="OCRA" y="7.01856" x="27.36"  stroke="none" font-size="4.67712" text-anchor="middle" stroke-width="0" fill="#ffffff">ADXL377</text>
                </g>
                <g >
                    <title >text:VIN</title>
                    <text font-family="OCRA" y="45.36" x="1.8"  stroke="none" font-size="3.3408" text-anchor="start" stroke-width="0" fill="#ffffff">VIN</text>
                </g>
                <g >
                    <title >text:3V</title>
                    <text font-family="OCRA" y="45.36" x="10.08"  stroke="none" font-size="3.3408" text-anchor="start" stroke-width="0" fill="#ffffff">3V</text>
                </g>
                <g >
                    <title >text:GND</title>
                    <text font-family="OCRA" y="45.72" x="16.92"  stroke="none" font-size="3.3408" text-anchor="start" stroke-width="0" fill="#ffffff">GND</text>
                </g>
                <g >
                    <title >text:Z</title>
                    <text font-family="OCRA" y="45.36" x="33.12"  stroke="none" font-size="3.3408" text-anchor="start" stroke-width="0" fill="#ffffff">Z</text>
                </g>
                <g >
                    <title >text:Y</title>
                    <text font-family="OCRA" y="45.36" x="40.32"  stroke="none" font-size="3.3408" text-anchor="start" stroke-width="0" fill="#ffffff">Y</text>
                </g>
                <g >
                    <title >text:X</title>
                    <text font-family="OCRA" y="45.72" x="47.52"  stroke="none" font-size="3.3408" text-anchor="start" stroke-width="0" fill="#ffffff">X</text>
                </g>
                <g >
                    <title >text:Z</title>
                    <text font-family="OCRA" y="28.44" x="42.48"  stroke="none" font-size="3.3408" text-anchor="start" stroke-width="0" fill="#ffffff">Z</text>
                </g>
                <g >
                    <title >text:X</title>
                    <text font-family="OCRA" y="19.8" x="49.68"  stroke="none" font-size="3.3408" text-anchor="start" stroke-width="0" fill="#ffffff">X</text>
                </g>
                <g >
                    <title >text:Y</title>
                    <text font-family="OCRA" y="16.56" x="46.08"  stroke="none" font-size="3.3408" text-anchor="start" stroke-width="0" fill="#ffffff">Y</text>
                </g>
                <g >
                    <title >text:T</title>
                    <text font-family="OCRA" y="45.72" x="25.92"  stroke="none" font-size="3.3408" text-anchor="start" stroke-width="0" fill="#ffffff">T</text>
                </g>
                <g >
                    <title >text:3-Axis 200g</title>
                    <text font-family="OCRA" y="13.32" x="13.32"  stroke="none" font-size="3.3408" text-anchor="start" stroke-width="0" fill="#ffffff">3-Axis 200g</text>
                </g>
                <g >
                    <title >element:C1</title>
                    <g >
                        <title >package:_0805</title>
                        <line  stroke="white" x2="14.04" x1="14.04" stroke-linecap="round" stroke-width="0.576" y1="25.92" y2="15.12"/>
                        <line  stroke="white" x2="19.08" x1="14.04" stroke-linecap="round" stroke-width="0.576" y1="15.12" y2="15.12"/>
                        <line  stroke="white" x2="19.08" x1="19.08" stroke-linecap="round" stroke-width="0.576" y1="15.12" y2="25.92"/>
                        <line  stroke="white" x2="14.04" x1="19.08" stroke-linecap="round" stroke-width="0.576" y1="25.92" y2="25.92"/>
                    </g>
                </g>
                <g >
                    <title >element:C2</title>
                    <g >
                        <title >package:_0805</title>
                        <line  stroke="white" x2="19.8" x1="30.6" stroke-linecap="round" stroke-width="0.576" y1="32.76" y2="32.76"/>
                        <line  stroke="white" x2="19.8" x1="19.8" stroke-linecap="round" stroke-width="0.576" y1="32.76" y2="27.72"/>
                        <line  stroke="white" x2="30.6" x1="19.8" stroke-linecap="round" stroke-width="0.576" y1="27.72" y2="27.72"/>
                        <line  stroke="white" x2="30.6" x1="30.6" stroke-linecap="round" stroke-width="0.576" y1="27.72" y2="32.76"/>
                    </g>
                </g>
                <g >
                    <title >element:C3</title>
                    <g >
                        <title >package:_0805</title>
                        <line  stroke="white" x2="35.64" x1="35.64" stroke-linecap="round" stroke-width="0.576" y1="26.28" y2="15.48"/>
                        <line  stroke="white" x2="40.68" x1="35.64" stroke-linecap="round" stroke-width="0.576" y1="15.48" y2="15.48"/>
                        <line  stroke="white" x2="40.68" x1="40.68" stroke-linecap="round" stroke-width="0.576" y1="15.48" y2="26.28"/>
                        <line  stroke="white" x2="35.64" x1="40.68" stroke-linecap="round" stroke-width="0.576" y1="26.28" y2="26.28"/>
                    </g>
                </g>
                <g >
                    <title >element:C4</title>
                    <g >
                        <title >package:_0805</title>
                        <line  stroke="white" x2="36.72" x1="36.72" stroke-linecap="round" stroke-width="0.576" y1="30.96" y2="41.76"/>
                        <line  stroke="white" x2="31.68" x1="36.72" stroke-linecap="round" stroke-width="0.576" y1="41.76" y2="41.76"/>
                        <line  stroke="white" x2="31.68" x1="31.68" stroke-linecap="round" stroke-width="0.576" y1="41.76" y2="30.96"/>
                        <line  stroke="white" x2="36.72" x1="31.68" stroke-linecap="round" stroke-width="0.576" y1="30.96" y2="30.96"/>
                    </g>
                </g>
                <g >
                    <title >element:C5</title>
                    <g >
                        <title >package:_0805</title>
                        <line  stroke="white" x2="18.72" x1="18.72" stroke-linecap="round" stroke-width="0.576" y1="29.16" y2="39.96"/>
                        <line  stroke="white" x2="13.68" x1="18.72" stroke-linecap="round" stroke-width="0.576" y1="39.96" y2="39.96"/>
                        <line  stroke="white" x2="13.68" x1="13.68" stroke-linecap="round" stroke-width="0.576" y1="39.96" y2="29.16"/>
                        <line  stroke="white" x2="18.72" x1="13.68" stroke-linecap="round" stroke-width="0.576" y1="29.16" y2="29.16"/>
                    </g>
                </g>
                <g >
                    <title >element:FID1</title>
                    <g >
                        <title >package:FIDUCIAL_1MM</title>
                    </g>
                </g>
                <g >
                    <title >element:FID2</title>
                    <g >
                        <title >package:FIDUCIAL_1MM</title>
                    </g>
                </g>
                <g >
                    <title >element:FID3</title>
                    <g >
                        <title >package:FIDUCIAL_1MM</title>
                    </g>
                </g>
                <g >
                    <title >element:JP2</title>
                    <g >
                        <title >package:1X07_ROUND_70</title>
                    </g>
                </g>
                <g >
                    <title >element:U$2</title>
                    <g >
                        <title >package:MOUNTINGHOLE_2.5_PLATED</title>
                        <circle r="5.66929"  stroke="white" cy="7.2" stroke-width="0.576" cx="46.8" fill="none"/>
                    </g>
                </g>
                <g >
                    <title >element:U$3</title>
                    <g >
                        <title >package:MOUNTINGHOLE_2.5_PLATED</title>
                        <circle r="5.66929"  stroke="white" cy="7.2" stroke-width="0.576" cx="7.2" fill="none"/>
                    </g>
                </g>
                <g >
                    <title >element:U$16</title>
                    <g >
                        <title >package:ADAFRUIT_2.5MM</title>
                    </g>
                </g>
                <g >
                    <title >element:U$17</title>
                    <g >
                        <title >package:MOUNTINGHOLE_2.5_PLATED</title>
                        <circle r="5.66929"  stroke="white" cy="36" stroke-width="0.576" cx="7.2" fill="none"/>
                    </g>
                </g>
                <g >
                    <title >element:U$18</title>
                    <g >
                        <title >package:MOUNTINGHOLE_2.5_PLATED</title>
                        <circle r="5.66929"  stroke="white" cy="36" stroke-width="0.576" cx="46.8" fill="none"/>
                    </g>
                </g>
                <g >
                    <title >element:U$19</title>
                    <g >
                        <title >package:ADAFRUIT_2.5MM</title>
                    </g>
                </g>
                <g >
                    <title >element:U1</title>
                    <g >
                        <title >package:LFCSP16_LQ</title>
                        <line  stroke="white" x2="22.4646" x1="23.8819" stroke-linecap="round" stroke-width="0.36" y1="24.6189" y2="24.6189"/>
                        <line  stroke="white" x2="22.4646" x1="22.4646" stroke-linecap="round" stroke-width="0.36" y1="24.6189" y2="24.3354"/>
                        <line  stroke="white" x2="22.4646" x1="22.4646" stroke-linecap="round" stroke-width="0.36" y1="24.3354" y2="22.9181"/>
                        <line  stroke="white" x2="22.4646" x1="22.4646" stroke-linecap="round" stroke-width="0.36" y1="16.6819" y2="15.2646"/>
                        <line  stroke="white" x2="22.4646" x1="22.4646" stroke-linecap="round" stroke-width="0.36" y1="15.2646" y2="14.9811"/>
                        <line  stroke="white" x2="23.8819" x1="22.4646" stroke-linecap="round" stroke-width="0.36" y1="14.9811" y2="14.9811"/>
                        <line  stroke="white" x2="31.5354" x1="30.1181" stroke-linecap="round" stroke-width="0.36" y1="14.9811" y2="14.9811"/>
                        <line  stroke="white" x2="31.5354" x1="31.5354" stroke-linecap="round" stroke-width="0.36" y1="14.9811" y2="15.2646"/>
                        <line  stroke="white" x2="31.5354" x1="31.5354" stroke-linecap="round" stroke-width="0.36" y1="15.2646" y2="16.6819"/>
                        <line  stroke="white" x2="31.5354" x1="31.5354" stroke-linecap="round" stroke-width="0.36" y1="22.9181" y2="24.3354"/>
                        <line  stroke="white" x2="31.5354" x1="31.5354" stroke-linecap="round" stroke-width="0.36" y1="24.3354" y2="24.6189"/>
                        <line  stroke="white" x2="30.1181" x1="31.5354" stroke-linecap="round" stroke-width="0.36" y1="24.6189" y2="24.6189"/>
                        <line  stroke="white" x2="23.8819" x1="23.8819" stroke-linecap="round" stroke-width="0.36" y1="14.9811" y2="15.2646"/>
                        <line  stroke="white" x2="22.4646" x1="23.8819" stroke-linecap="round" stroke-width="0.36" y1="15.2646" y2="15.2646"/>
                        <line  stroke="white" x2="30.1181" x1="30.1181" stroke-linecap="round" stroke-width="0.36" y1="24.6189" y2="24.3354"/>
                        <line  stroke="white" x2="31.5354" x1="30.1181" stroke-linecap="round" stroke-width="0.36" y1="24.3354" y2="24.3354"/>
                        <line  stroke="white" x2="30.1181" x1="30.1181" stroke-linecap="round" stroke-width="0.36" y1="14.9811" y2="15.2646"/>
                        <line  stroke="white" x2="31.5354" x1="30.1181" stroke-linecap="round" stroke-width="0.36" y1="15.2646" y2="15.2646"/>
                        <line  stroke="white" x2="23.8819" x1="23.8819" stroke-linecap="round" stroke-width="0.36" y1="24.6189" y2="24.3354"/>
                        <line  stroke="white" x2="22.4646" x1="23.8819" stroke-linecap="round" stroke-width="0.36" y1="24.3354" y2="24.3354"/>
                        <circle r="0.509111"  stroke="white" cy="26.28" stroke-width="0.36" cx="22.176" fill="none"/>
                    </g>
                </g>
                <g >
                    <title >element:U2</title>
                    <g >
                        <title >package:SOT23-5</title>
                        <line  stroke="white" x2="22.9323" x1="27.4677" stroke-linecap="round" stroke-width="0.576" y1="32.7628" y2="32.7628"/>
                        <line  stroke="white" x2="22.9323" x1="27.4677" stroke-linecap="round" stroke-width="0.576" y1="42.1172" y2="42.1172"/>
                        <line  stroke="white" x2="28.1764" x1="28.1764" stroke-linecap="round" stroke-width="0.576" y1="36.3061" y2="38.5739"/>
                    </g>
                </g>
            </g>
            <g transform="matrix(0, -1, 1, 0, -6.84, 39.96)" >
                <g >
                    <rect y="21.5574" x="14.8592"  stroke="none" gorn="0.1.0.2.0.0" ry="0.289134" stroke-width="0" rx="0.289134" width="3.40158" height="3.68504" fill="#9A916C" id="connector0pin"/>
                </g>
            </g>
            <g transform="matrix(0, -1, 1, 0, -1.08, 34.2)" >
                <g >
                    <rect y="15.7974" x="14.8592"  stroke="none" gorn="0.1.0.3.0.0" ry="0.289134" stroke-width="0" rx="0.289134" width="3.40158" height="3.68504" fill="#9A916C" id="connector1pin"/>
                </g>
            </g>
            <g transform="matrix(-1, 0, 0, -1, 56.16, 60.48)" >
                <g >
                    <rect y="28.3974" x="26.3792"  stroke="none" gorn="0.1.0.4.0.0" ry="0.289134" stroke-width="0" rx="0.289134" width="3.40158" height="3.68504" fill="#9A916C" id="connector2pin"/>
                </g>
            </g>
            <g transform="matrix(-1, 0, 0, -1, 44.64, 60.48)" >
                <g >
                    <rect y="28.3974" x="20.6192"  stroke="none" gorn="0.1.0.5.0.0" ry="0.289134" stroke-width="0" rx="0.289134" width="3.40158" height="3.68504" fill="#9A916C" id="connector3pin"/>
                </g>
            </g>
            <g transform="matrix(0, -1, 1, 0, 14.4, 61.92)" >
                <g >
                    <rect y="21.9174" x="36.4592"  stroke="none" gorn="0.1.0.6.0.0" ry="0.289134" stroke-width="0" rx="0.289134" width="3.40158" height="3.68504" fill="#9A916C" id="connector4pin"/>
                </g>
            </g>
            <g transform="matrix(0, -1, 1, 0, 20.16, 56.16)" >
                <g >
                    <rect y="16.1574" x="36.4592"  stroke="none" gorn="0.1.0.7.0.0" ry="0.289134" stroke-width="0" rx="0.289134" width="3.40158" height="3.68504" fill="#9A916C" id="connector5pin"/>
                </g>
            </g>
            <g transform="matrix(0, 1, -1, 0, 67.68, -0.72)" >
                <g >
                    <rect y="31.6374" x="32.4992"  stroke="none" gorn="0.1.0.8.0.0" ry="0.289134" stroke-width="0" rx="0.289134" width="3.40158" height="3.68504" fill="#9A916C" id="connector6pin"/>
                </g>
            </g>
            <g transform="matrix(0, 1, -1, 0, 73.44, 5.04)" >
                <g >
                    <rect y="37.3974" x="32.4992"  stroke="none" gorn="0.1.0.9.0.0" ry="0.289134" stroke-width="0" rx="0.289134" width="3.40158" height="3.68504" fill="#9A916C" id="connector7pin"/>
                </g>
            </g>
            <g transform="matrix(0, 1, -1, 0, 47.88, 15.48)" >
                <g >
                    <rect y="29.8374" x="14.4992"  stroke="none" gorn="0.1.0.10.0.0" ry="0.289134" stroke-width="0" rx="0.289134" width="3.40158" height="3.68504" fill="#9A916C" id="connector8pin"/>
                </g>
            </g>
            <g transform="matrix(0, 1, -1, 0, 53.64, 21.24)" >
                <g >
                    <rect y="35.5974" x="14.4992"  stroke="none" gorn="0.1.0.11.0.0" ry="0.289134" stroke-width="0" rx="0.289134" width="3.40158" height="3.68504" fill="#9A916C" id="connector9pin"/>
                </g>
            </g>
            <rect y="14.4947" x="3.19068"  stroke="none" gorn="0.1.0.12" ry="1.41732" stroke-width="0" rx="1.41732" width="2.83465" height="2.83465" fill="#9A916C" id="connector10pin"/>
            <rect y="25.9427" x="48.9827"  stroke="none" gorn="0.1.0.13" ry="1.41732" stroke-width="0" rx="1.41732" width="2.83465" height="2.83465" fill="#9A916C" id="connector11pin"/>
            <rect y="25.5827" x="31.7027"  stroke="none" gorn="0.1.0.14" ry="1.41732" stroke-width="0" rx="1.41732" width="2.83465" height="2.83465" fill="#9A916C" id="connector12pin"/>
            <circle r="1.96866"  stroke="#9A916C" gorn="0.1.0.15" cy="48.6" stroke-width="1.10268" cx="5.4" connectorname="VIN" fill="none" id="connector13pin"/>
            <rect y="46.6313" x="3.43134"  stroke="#9A916C" stroke-width="1.10268" width="3.93732" height="3.93732" fill="none"/>
            <circle r="1.96866"  stroke="#9A916C" gorn="0.1.0.17" cy="48.6" stroke-width="1.10268" cx="12.6" connectorname="3.3V" fill="none" id="connector14pin"/>
            <circle r="1.96866"  stroke="#9A916C" gorn="0.1.0.18" cy="48.6" stroke-width="1.10268" cx="19.8" connectorname="GND" fill="none" id="connector15pin"/>
            <circle r="1.96866"  stroke="#9A916C" gorn="0.1.0.19" cy="48.6" stroke-width="1.10268" cx="27" connectorname="SELFTEST" fill="none" id="connector16pin"/>
            <circle r="1.96866"  stroke="#9A916C" gorn="0.1.0.20" cy="48.6" stroke-width="1.10268" cx="34.2" connectorname="ZOUT" fill="none" id="connector17pin"/>
            <circle r="1.96866"  stroke="#9A916C" gorn="0.1.0.21" cy="48.6" stroke-width="1.10268" cx="41.4" connectorname="YOUT" fill="none" id="connector18pin"/>
            <circle r="1.96866"  stroke="#9A916C" gorn="0.1.0.22" cy="48.6" stroke-width="1.10268" cx="48.6" connectorname="XOUT" fill="none" id="connector19pin"/>
            <circle r="4.03937"  stroke="#9A916C" gorn="0.1.0.23" cy="7.2" stroke-width="0.992124" cx="46.8" connectorname="P$1" fill="none" id="connector20pin"/>
            <circle r="4.03937"  stroke="#9A916C" gorn="0.1.0.24" cy="7.2" stroke-width="0.992124" cx="7.2" connectorname="P$1" fill="none" id="connector21pin"/>
            <circle r="4.03937"  stroke="#9A916C" gorn="0.1.0.25" cy="36" stroke-width="0.992124" cx="7.2" connectorname="P$1" fill="none" id="connector22pin"/>
            <circle r="4.03937"  stroke="#9A916C" gorn="0.1.0.26" cy="36" stroke-width="0.992124" cx="46.8" connectorname="P$1" fill="none" id="connector23pin"/>
            <g transform="matrix(0, -1, 1, 0, 0.820915, 48.9271)" >
                <g >
                    <rect y="23.6988" x="23.7401"  stroke="none" gorn="0.1.0.27.0.0" ry="0.354331" stroke-width="0" rx="0.354331" width="2.26772" height="0.708661" fill="#9A916C" id="connector24pin"/>
                </g>
            </g>
            <g transform="matrix(0, -1, 1, 0, 2.23824, 50.3444)" >
                <g >
                    <rect y="23.6988" x="25.1574"  stroke="none" gorn="0.1.0.28.0.0" ry="0.354331" stroke-width="0" rx="0.354331" width="2.26772" height="0.708661" fill="#9A916C" id="connector25pin"/>
                </g>
            </g>
            <g transform="matrix(0, -1, 1, 0, 3.65556, 51.7617)" >
                <g >
                    <rect y="23.6988" x="26.5748"  stroke="none" gorn="0.1.0.29.0.0" ry="0.354331" stroke-width="0" rx="0.354331" width="2.26772" height="0.708661" fill="#9A916C" id="connector26pin"/>
                </g>
            </g>
            <g transform="matrix(0, -1, 1, 0, 5.07288, 53.1791)" >
                <g >
                    <rect y="23.6988" x="27.9922"  stroke="none" gorn="0.1.0.30.0.0" ry="0.354331" stroke-width="0" rx="0.354331" width="2.26772" height="0.708661" fill="#9A916C" id="connector27pin"/>
                </g>
            </g>
            <g transform="matrix(-1, 0, 0, -1, 62.5062, 43.852)" >
                <g >
                    <rect y="21.5716" x="30.1193"  stroke="none" gorn="0.1.0.31.0.0" ry="0.354331" stroke-width="0" rx="0.354331" width="2.26772" height="0.708661" fill="#9A916C" id="connector28pin"/>
                </g>
            </g>
            <g transform="matrix(-1, 0, 0, -1, 62.5062, 41.0173)" >
                <g >
                    <rect y="20.1543" x="30.1193"  stroke="none" gorn="0.1.0.32.0.0" ry="0.354331" stroke-width="0" rx="0.354331" width="2.26772" height="0.708661" fill="#9A916C" id="connector29pin"/>
                </g>
            </g>
            <g transform="matrix(-1, 0, 0, -1, 62.5062, 38.1827)" >
                <g >
                    <rect y="18.737" x="30.1193"  stroke="none" gorn="0.1.0.33.0.0" ry="0.354331" stroke-width="0" rx="0.354331" width="2.26772" height="0.708661" fill="#9A916C" id="connector30pin"/>
                </g>
            </g>
            <g transform="matrix(-1, 0, 0, -1, 62.5062, 35.348)" >
                <g >
                    <rect y="17.3197" x="30.1193"  stroke="none" gorn="0.1.0.34.0.0" ry="0.354331" stroke-width="0" rx="0.354331" width="2.26772" height="0.708661" fill="#9A916C" id="connector31pin"/>
                </g>
            </g>
            <g transform="matrix(0, 1, -1, 0, 44.6729, -13.5791)" >
                <g >
                    <rect y="15.1926" x="27.9922"  stroke="none" gorn="0.1.0.35.0.0" ry="0.354331" stroke-width="0" rx="0.354331" width="2.26772" height="0.708661" fill="#9A916C" id="connector32pin"/>
                </g>
            </g>
            <g transform="matrix(0, 1, -1, 0, 43.2556, -12.1617)" >
                <g >
                    <rect y="15.1926" x="26.5748"  stroke="none" gorn="0.1.0.36.0.0" ry="0.354331" stroke-width="0" rx="0.354331" width="2.26772" height="0.708661" fill="#9A916C" id="connector33pin"/>
                </g>
            </g>
            <g transform="matrix(0, 1, -1, 0, 41.8383, -10.7444)" >
                <g >
                    <rect y="15.1926" x="25.1574"  stroke="none" gorn="0.1.0.37.0.0" ry="0.354331" stroke-width="0" rx="0.354331" width="2.26772" height="0.708661" fill="#9A916C" id="connector34pin"/>
                </g>
            </g>
            <g transform="matrix(0, 1, -1, 0, 40.4209, -9.3271)" >
                <g >
                    <rect y="15.1926" x="23.7401"  stroke="none" gorn="0.1.0.38.0.0" ry="0.354331" stroke-width="0" rx="0.354331" width="2.26772" height="0.708661" fill="#9A916C" id="connector35pin"/>
                </g>
            </g>
            <rect y="17.3197" x="21.613"  stroke="none" gorn="0.1.0.39" ry="0.354331" stroke-width="0" rx="0.354331" width="2.26772" height="0.708661" fill="#9A916C" id="connector36pin"/>
            <rect y="18.737" x="21.613"  stroke="none" gorn="0.1.0.40" ry="0.354331" stroke-width="0" rx="0.354331" width="2.26772" height="0.708661" fill="#9A916C" id="connector37pin"/>
            <rect y="20.1543" x="21.613"  stroke="none" gorn="0.1.0.41" ry="0.354331" stroke-width="0" rx="0.354331" width="2.26772" height="0.708661" fill="#9A916C" id="connector38pin"/>
            <rect y="21.5716" x="21.613"  stroke="none" gorn="0.1.0.42" ry="0.354331" stroke-width="0" rx="0.354331" width="2.26772" height="0.708661" fill="#9A916C" id="connector39pin"/>
            <g transform="matrix(0, 1, -1, 0, 56.2617, 13.2324)" >
                <g >
                    <rect y="33.0463" x="20.7351"  stroke="none" gorn="0.1.0.43.0.0" ry="0.288426" stroke-width="0" rx="0.288426" width="1.55905" height="3.40158" fill="#9A916C" id="connector40pin"/>
                </g>
            </g>
            <g transform="matrix(0, 1, -1, 0, 58.9547, 15.9253)" >
                <g >
                    <rect y="35.7392" x="20.7351"  stroke="none" gorn="0.1.0.44.0.0" ry="0.288426" stroke-width="0" rx="0.288426" width="1.55905" height="3.40158" fill="#9A916C" id="connector41pin"/>
                </g>
            </g>
            <g transform="matrix(0, 1, -1, 0, 61.6476, 18.6183)" >
                <g >
                    <rect y="38.4322" x="20.7351"  stroke="none" gorn="0.1.0.45.0.0" ry="0.288426" stroke-width="0" rx="0.288426" width="1.55905" height="3.40158" fill="#9A916C" id="connector42pin"/>
                </g>
            </g>
            <g transform="matrix(0, 1, -1, 0, 69.0183, 11.2476)" >
                <g >
                    <rect y="38.4322" x="28.1058"  stroke="none" gorn="0.1.0.46.0.0" ry="0.288426" stroke-width="0" rx="0.288426" width="1.55905" height="3.40158" fill="#9A916C" id="connector43pin"/>
                </g>
            </g>
            <g transform="matrix(0, 1, -1, 0, 63.6324, 5.86176)" >
                <g >
                    <rect y="33.0463" x="28.1058"  stroke="none" gorn="0.1.0.47.0.0" ry="0.288426" stroke-width="0" rx="0.288426" width="1.55905" height="3.40158" fill="#9A916C" id="connector44pin"/>
                </g>
            </g>
        </g>
        <g transform="matrix(1, 0, 0, 1, 13.7255, 18.7485)" >
            <g  gorn="0.1.1.0" id="_0805">
                <g transform="matrix(0, -1, 1, 0, 1.063, 4.606)" >
                    <g >
                        <path d="M5.386,3.543L0.283,3.543C0.127,3.543,0,3.416,0,3.26L0,0.283C0,0.127,0.127,0,0.283,0l5.102,0c0.157,0,0.283,0.127,0.283,0.283L5.668,3.26C5.669,3.416,5.542,3.543,5.386,3.543z"  fill="#DCDCDC"/>
                        <rect x="1.063"  width="3.543" height="3.543" fill="#6E554B"/>
                    </g>
                </g>
            </g>
        </g>
        <g transform="matrix(1, 0, 0, 1, 22.3655, 28.4685)" >
            <g  gorn="0.1.2.0" id="_0805">
                <g transform="matrix(-1, 0, 0, -1, 5.669, 3.543)" >
                    <g >
                        <path d="M5.386,3.543L0.283,3.543C0.127,3.543,0,3.416,0,3.26L0,0.283C0,0.127,0.127,0,0.283,0l5.102,0c0.157,0,0.283,0.127,0.283,0.283L5.668,3.26C5.669,3.416,5.542,3.543,5.386,3.543z"  fill="#DCDCDC"/>
                        <rect x="1.063"  width="3.543" height="3.543" fill="#6E554B"/>
                    </g>
                </g>
            </g>
        </g>
        <g transform="matrix(1, 0, 0, 1, 35.3255, 19.1085)" >
            <g  gorn="0.1.3.0" id="_0805">
                <g transform="matrix(0, -1, 1, 0, 1.063, 4.606)" >
                    <g >
                        <path d="M5.386,3.543L0.283,3.543C0.127,3.543,0,3.416,0,3.26L0,0.283C0,0.127,0.127,0,0.283,0l5.102,0c0.157,0,0.283,0.127,0.283,0.283L5.668,3.26C5.669,3.416,5.542,3.543,5.386,3.543z"  fill="#DCDCDC"/>
                        <rect x="1.063"  width="3.543" height="3.543" fill="#6E554B"/>
                    </g>
                </g>
            </g>
        </g>
        <g transform="matrix(1, 0, 0, 1, 31.3655, 34.5885)" >
            <g  gorn="0.1.4.0" id="_0805">
                <g transform="matrix(0, 1, -1, 0, 4.606, -1.063)" >
                    <g >
                        <path d="M5.386,3.543L0.283,3.543C0.127,3.543,0,3.416,0,3.26L0,0.283C0,0.127,0.127,0,0.283,0l5.102,0c0.157,0,0.283,0.127,0.283,0.283L5.668,3.26C5.669,3.416,5.542,3.543,5.386,3.543z"  fill="#DCDCDC"/>
                        <rect x="1.063"  width="3.543" height="3.543" fill="#6E554B"/>
                    </g>
                </g>
            </g>
        </g>
        <g transform="matrix(1, 0, 0, 1, 13.3655, 32.7885)" >
            <g  gorn="0.1.5.0" id="_0805">
                <g transform="matrix(0, 1, -1, 0, 4.606, -1.063)" >
                    <g >
                        <path d="M5.386,3.543L0.283,3.543C0.127,3.543,0,3.416,0,3.26L0,0.283C0,0.127,0.127,0,0.283,0l5.102,0c0.157,0,0.283,0.127,0.283,0.283L5.668,3.26C5.669,3.416,5.542,3.543,5.386,3.543z"  fill="#DCDCDC"/>
                        <rect x="1.063"  width="3.543" height="3.543" fill="#6E554B"/>
                    </g>
                </g>
            </g>
        </g>
        <g transform="matrix(1, 0, 0, 1, 1.0821, 19.7463)" >
            <g  gorn="0.1.6.0" id="adafruit_2.5mm">
                <path d="M9.747,3.082c-0.023,-0.142,-0.1,-0.183,-0.286,-0.243C9.31903,2.794,8.37202,2.492,8.37202,2.492s-0.66,-0.249,-1.15,0.103C7.156,2.643,7.088,2.697,7.019,2.755c0.058,-0.069,0.112,-0.137,0.159,-0.203c0.352,-0.49,0.101,-1.15,0.101,-1.15S6.976,0.455,6.93,0.313C6.87,0.127,6.83,0.05,6.687,0.028C6.545,0.005,6.483,0.066,6.369,0.225C6.282,0.345,5.702,1.153,5.702,1.153S5.261,1.704,5.445,2.279C5.47,2.356,5.5,2.438,5.534,2.521C5.486,2.445,5.438,2.372,5.39,2.307C5.032,1.821,4.328,1.855,4.328,1.855S3.333,1.851,3.185,1.851c-0.195,0,-0.281,0.014,-0.347,0.143C2.773,2.122,2.811,2.2,2.927,2.358c0.0879998,0.12,0.677,0.921002,0.677,0.921002s0.388,0.59,0.991001,0.592c0.081,0,0.168,-0.003,0.257,-0.01C4.765,3.883,4.681,3.907,4.604,3.932c-0.573,0.19,-0.758002,0.870998,-0.758002,0.870998S3.536,5.747,3.489,5.888C3.428,6.074,3.416,6.16,3.518,6.262C3.62,6.364,3.706,6.352,3.892,6.29c0.141,-0.046,1.085,-0.359,1.085,-0.359s0.681,-0.187,0.868997,-0.760003c0.025,-0.0769997,0.049,-0.16,0.07,-0.247C5.91,5.014,5.907,5.1,5.907,5.181c0.004,0.603,0.594,0.99,0.594,0.99s0.802001,0.588,0.922003,0.675C7.58102,6.962,7.659,7,7.78802,6.935C7.91597,6.869,7.93102,6.783,7.93001,6.588C7.929,6.439,7.92403,5.445,7.92403,5.445S7.95701,4.74,7.47,4.383C7.40498,4.335,7.33198,4.287,7.25602,4.24c0.0830002,0.034,0.165,0.064,0.242,0.0879998c0.575,0.183,1.125,-0.259,1.125,-0.259S9.42998,3.488,9.55001,3.401C9.70898,3.286,9.76903,3.224,9.747,3.082zM6.322,2.35c0.108,0.017,0.162,0.248,0.12,0.515C6.4,3.132,6.278,3.335,6.169,3.318C6.061,3.301,6.007,3.07,6.049,2.803C6.091,2.535,6.213,2.332,6.322,2.35zM4.933,3.059c0.05,-0.0979999,0.286,-0.0779998,0.527,0.045c0.241,0.123,0.397,0.302,0.347,0.399C5.757,3.601,5.521,3.581,5.28,3.458C5.038,3.335,4.883,3.157,4.933,3.059zM5.665,4.393C5.474,4.584,5.256,4.677,5.178,4.599C5.101,4.521,5.193,4.303,5.384,4.112C5.575,3.92,5.793,3.827,5.871,3.905C5.949,3.983,5.857,4.201,5.665,4.393zM6.719,4.842c-0.0979999,0.05,-0.277,-0.105,-0.4,-0.346C6.196,4.254,6.175,4.018,6.273,3.968c0.0979999,-0.05,0.277,0.105,0.4,0.346C6.796,4.556,6.817,4.792,6.719,4.842zM6.973,3.725C6.706,3.767,6.475,3.714,6.457,3.606C6.44,3.497,6.643,3.375,6.91,3.332c0.267,-0.043,0.498,0.011,0.515,0.119C7.443,3.56,7.24003,3.682,6.973,3.725z"  fill="#9FBBE0"/>
            </g>
        </g>
        <g transform="matrix(1, 0, 0, 1, 22.105, 16.3311)" >
            <g  gorn="0.1.7.0" id="lfcsp16_lq">
                <g transform="matrix(0, -1, 1, 0, 0.642996, 9.14695)" >
                    <g >
                        <rect x="1.286"  width="8.50399" height="8.50399" fill="#333333"/>
                    </g>
                </g>
            </g>
        </g>
        <g transform="matrix(1, 0, 0, 1, 21.09, 33.613)" >
            <g  gorn="0.1.8.0" id="sot23-5">
                <g transform="matrix(0, 1, -1, 0, 7.93706, -0.282996)" >
                    <g >
                        <g >
                            <rect x="0.850003"  width="1.134" height="7.65403" fill="#DCDCDC"/>
                            <rect x="6.236"  width="1.134" height="7.65403" fill="#DCDCDC"/>
                            <rect y="4.535" x="3.543"  width="1.134" height="3.118" fill="#DCDCDC"/>
                            <rect y="1.559"  width="8.22002" height="4.535" fill="#303030"/>
                        </g>
                    </g>
                </g>
            </g>
        </g>
    </g>
</svg>
