<?xml version='1.0' encoding='utf-8'?>
<!-- Generator: Adobe Illustrator 20.0.0, SVG Export Plug-In . SVG Version: 6.00 Build 0)  -->
<svg xmlns="http://www.w3.org/2000/svg" baseProfile="tiny" width="1.25983in" viewBox="0 0 90.708 65.197"  xml:space="preserve" id="Layer_1" xmlns:xml="http://www.w3.org/XML/1998/namespace" x="0px" height="0.905514in" gorn="0" y="0px" version="1.2">
    <desc >
        <referenceFile >Adafruit OLED Monochrome 128x32 SPI_breadboard.svg</referenceFile>
    </desc>
    <desc >Fritzing breadboard generated by brd2svg</desc>
    <g  id="breadboard" gorn="0.2">
        <g  id="icon" gorn="0.2.0">
            <path fill="#014CB1"  d="M0,56.693V8.504C0,3.808,3.807,0,8.503,0c0,0,0.001,0,0.001,0h73.701c4.696,0,8.503,3.806,8.504,8.502c0,0.001,0,0.001,0,0.002v48.189c0,4.697-3.807,8.504-8.504,8.504H8.504C3.807,65.197,0,61.389,0,56.693 M18.737,57.277c0,0.783,0.635,1.417,1.417,1.417c0.783,0,1.417-0.635,1.417-1.417s-0.635-1.417-1.417-1.417C19.372,55.86,18.737,56.494,18.737,57.277z M25.937,57.277c0,0.783,0.635,1.417,1.417,1.417c0.783,0,1.417-0.635,1.417-1.417s-0.635-1.417-1.417-1.417C26.572,55.86,25.937,56.494,25.937,57.277z M33.137,57.277c0,0.783,0.635,1.417,1.417,1.417s1.417-0.635,1.417-1.417s-0.635-1.417-1.417-1.417S33.137,56.494,33.137,57.277z M40.337,57.277c0,0.783,0.635,1.417,1.417,1.417c0.783,0,1.417-0.635,1.417-1.417s-0.635-1.417-1.417-1.417S40.337,56.494,40.337,57.277z M47.537,57.277c0,0.783,0.635,1.417,1.417,1.417c0.783,0,1.417-0.635,1.417-1.417s-0.635-1.417-1.417-1.417S47.537,56.494,47.537,57.277z M54.737,57.277c0,0.783,0.635,1.417,1.417,1.417s1.417-0.635,1.417-1.417s-0.635-1.417-1.417-1.417S54.737,56.494,54.737,57.277z M61.937,57.277c0,0.783,0.635,1.417,1.417,1.417c0.783,0,1.417-0.635,1.417-1.417s-0.635-1.417-1.417-1.417C62.572,55.86,61.937,56.494,61.937,57.277z M69.137,57.277c0,0.783,0.635,1.417,1.417,1.417c0.783,0,1.417-0.635,1.417-1.417s-0.635-1.417-1.417-1.417C69.772,55.86,69.137,56.494,69.137,57.277z M5.669,56.693c-0.003,1.566,1.264,2.837,2.829,2.84s2.837-1.264,2.84-2.829c0-0.004,0-0.007,0-0.011c0.003-1.566-1.264-2.837-2.829-2.84s-2.837,1.264-2.84,2.829C5.669,56.686,5.669,56.689,5.669,56.693z M5.669,8.277c-0.003,1.566,1.264,2.837,2.829,2.84c1.566,0.003,2.837-1.264,2.84-2.829c0-0.004,0-0.007,0-0.011c0.003-1.566-1.264-2.837-2.829-2.84s-2.837,1.264-2.84,2.829C5.669,8.27,5.669,8.274,5.669,8.277z M78.916,56.693c-0.003,1.566,1.263,2.837,2.829,2.84c1.566,0.003,2.837-1.263,2.84-2.829c0-0.004,0-0.008,0-0.011c0.003-1.566-1.263-2.837-2.829-2.84c-1.566-0.003-2.837,1.263-2.84,2.829C78.916,56.685,78.916,56.689,78.916,56.693z M78.916,8.277c-0.003,1.566,1.263,2.837,2.829,2.84c1.566,0.003,2.837-1.263,2.84-2.829c0-0.004,0-0.008,0-0.011c0.003-1.566-1.263-2.837-2.829-2.84s-2.837,1.263-2.84,2.829C78.916,8.27,78.916,8.273,78.916,8.277z"/>
            <g >
                <title >layer 21</title>
                <g >
                    <title >text:GND</title>
                    <g  transform="matrix(1 0 0 1 66.96 53.6769)">
                        <g >
                            <text fill="#FFFFFF" font-size="2.67264" font-family="'OCRA'" >GND</text>
                        </g>
                    </g>
                </g>
                <g >
                    <title >text:3.3Vo</title>
                    <g  transform="matrix(1 0 0 1 58.32 63.3969)">
                        <g >
                            <text fill="#FFFFFF" font-size="2.67264" font-family="'OCRA'" >3.3Vo</text>
                        </g>
                    </g>
                </g>
                <g >
                    <title >text:DATA</title>
                    <g  transform="matrix(1 0 0 1 44.64 63.3969)">
                        <g >
                            <text fill="#FFFFFF" font-size="2.67264" font-family="'OCRA'" >DATA</text>
                        </g>
                    </g>
                </g>
                <g >
                    <title >text:CLK</title>
                    <g  transform="matrix(1 0 0 1 38.52 53.6769)">
                        <g >
                            <text fill="#FFFFFF" font-size="2.67264" font-family="'OCRA'" >CLK</text>
                        </g>
                    </g>
                </g>
                <g >
                    <title >text:D/C</title>
                    <g  transform="matrix(1 0 0 1 31.32 63.3969)">
                        <g >
                            <text fill="#FFFFFF" font-size="2.67264" font-family="'OCRA'" >D/C</text>
                        </g>
                    </g>
                </g>
                <g >
                    <title >text:RST</title>
                    <g  transform="matrix(1 0 0 1 23.76 53.6769)">
                        <g >
                            <text fill="#FFFFFF" font-size="2.67264" font-family="'OCRA'" >RST</text>
                        </g>
                    </g>
                </g>
                <g >
                    <title >text:CS</title>
                    <g  transform="matrix(1 0 0 1 18 63.7569)">
                        <g >
                            <text fill="#FFFFFF" font-size="2.67264" font-family="'OCRA'" >CS</text>
                        </g>
                    </g>
                </g>
                <g >
                    <title >text:128x32 SPI</title>
                    <g  transform="matrix(1 0 0 1 34.56 9.7568)">
                        <g >
                            <text fill="#FFFFFF" font-size="2.67264" font-family="'OCRA'" >128x32 SPI</text>
                        </g>
                    </g>
                </g>
                <g >
                    <title >text:SSD1306</title>
                    <g  transform="matrix(1 0 0 1 37.8 5.7969)">
                        <g >
                            <text fill="#FFFFFF" font-size="2.67264" font-family="'OCRA'" >SSD1306</text>
                        </g>
                    </g>
                </g>
                <g >
                    <title >text:VIN</title>
                    <g  transform="matrix(1 0 0 1 53.28 53.6769)">
                        <g >
                            <text fill="#FFFFFF" font-size="2.67264" font-family="'OCRA'" >VIN</text>
                        </g>
                    </g>
                </g>
                <g >
                    <title >text:OLED Display</title>
                    <g  transform="matrix(1 0 0 1 32.76 13.7169)">
                        <g >
                            <text fill="#FFFFFF" font-size="2.67264" font-family="'OCRA'" >OLED Display</text>
                        </g>
                    </g>
                </g>
                <g >
                    <title >element:C1</title>
                    <g >
                        <title >package:0805</title>
                    </g>
                </g>
                <g >
                    <title >element:C2</title>
                    <g >
                        <title >package:0805</title>
                    </g>
                </g>
                <g >
                    <title >element:C3</title>
                    <g >
                        <title >package:0805</title>
                    </g>
                </g>
                <g >
                    <title >element:C4</title>
                    <g >
                        <title >package:0805</title>
                    </g>
                </g>
                <g >
                    <title >element:C5</title>
                    <g >
                        <title >package:0805</title>
                    </g>
                </g>
                <g >
                    <title >element:C6</title>
                    <g >
                        <title >package:0805</title>
                    </g>
                </g>
                <g >
                    <title >element:C7</title>
                    <g >
                        <title >package:0805</title>
                    </g>
                </g>
                <g >
                    <title >element:C8</title>
                    <g >
                        <title >package:0805</title>
                    </g>
                </g>
                <g >
                    <title >element:JP1</title>
                    <g >
                        <title >package:1X08_ROUND_76</title>
                    </g>
                </g>
                <g >
                    <title >element:LCD1</title>
                    <g >
                        <title >package:UG-2832HSWEG04_WRAPAROUND</title>
                        <line x2="1.361" fill="none"  stroke="#FFFFFF" stroke-width="0.36" stroke-linecap="round" y1="16.994" y2="16.994" x1="86.4"/>
                        <line x2="86.4" fill="none"  stroke="#FFFFFF" stroke-width="0.36" stroke-linecap="round" y1="16.994" y2="49.096" x1="86.4"/>
                        <line x2="1.361" fill="none"  stroke="#FFFFFF" stroke-width="0.36" stroke-linecap="round" y1="49.096" y2="49.096" x1="86.4"/>
                        <line x2="1.361" fill="none"  stroke="#FFFFFF" stroke-width="0.36" stroke-linecap="round" y1="16.994" y2="49.096" x1="1.361"/>
                    </g>
                </g>
                <g >
                    <title >element:R1</title>
                    <g >
                        <title >package:0805</title>
                    </g>
                </g>
                <g >
                    <title >element:U$2</title>
                    <g >
                        <title >package:MOUNTINGHOLE_2.0_PLATED</title>
                        <circle fill="none" r="4.961"  stroke="#FFFFFF" stroke-width="0.432" cx="8.504" cy="56.693"/>
                    </g>
                </g>
                <g >
                    <title >element:U$3</title>
                    <g >
                        <title >package:MOUNTINGHOLE_2.0_PLATED</title>
                        <circle fill="none" r="4.961"  stroke="#FFFFFF" stroke-width="0.432" cx="8.504" cy="8.277"/>
                    </g>
                </g>
                <g >
                    <title >element:U$4</title>
                    <g >
                        <title >package:MOUNTINGHOLE_2.0_PLATED</title>
                        <circle fill="none" r="4.961"  stroke="#FFFFFF" stroke-width="0.432" cx="81.751" cy="56.693"/>
                    </g>
                </g>
                <g >
                    <title >element:U$5</title>
                    <g >
                        <title >package:MOUNTINGHOLE_2.0_PLATED</title>
                        <circle fill="none" r="4.961"  stroke="#FFFFFF" stroke-width="0.432" cx="81.751" cy="8.277"/>
                    </g>
                </g>
                <g >
                    <title >element:U$6</title>
                    <g >
                        <title >package:FIDUCIAL_1MM</title>
                    </g>
                </g>
                <g >
                    <title >element:U$7</title>
                    <g >
                        <title >package:FIDUCIAL_1MM</title>
                    </g>
                </g>
                <g >
                    <title >element:U$10</title>
                    <g >
                        <title >package:ADAFRUIT200MIL</title>
                    </g>
                </g>
                <g >
                    <title >element:U1</title>
                    <g >
                        <title >package:SOIC16</title>
                    </g>
                </g>
                <g >
                    <title >element:U2</title>
                    <g >
                        <title >package:SOT23-5</title>
                    </g>
                </g>
            </g>
            <circle fill="none" r="2.077"  stroke="#9A916C" id="connector5pin" stroke-width="1.3187" gorn="0.2.0.2" cx="20.154" cy="57.277"/>
            <circle fill="none" r="2.077"  stroke="#9A916C" id="connector6pin" stroke-width="1.3187" gorn="0.2.0.3" cx="27.354" cy="57.277"/>
            <circle fill="none" r="2.077"  stroke="#9A916C" id="connector7pin" stroke-width="1.3187" gorn="0.2.0.4" cx="34.554" cy="57.277"/>
            <circle fill="none" r="2.077"  stroke="#9A916C" id="connector8pin" stroke-width="1.3187" gorn="0.2.0.5" cx="41.754" cy="57.277"/>
            <circle fill="none" r="2.077"  stroke="#9A916C" id="connector9pin" stroke-width="1.3187" gorn="0.2.0.6" cx="48.954" cy="57.277"/>
            <circle fill="none" r="2.077"  stroke="#9A916C" id="connector10pin" stroke-width="1.3187" gorn="0.2.0.7" cx="56.154" cy="57.277"/>
            <circle fill="none" r="2.077"  stroke="#9A916C" id="connector11pin" stroke-width="1.3187" gorn="0.2.0.8" cx="63.354" cy="57.277"/>
            <circle fill="none" r="2.077"  stroke="#9A916C" id="connector12pin" stroke-width="1.3187" gorn="0.2.0.9" cx="70.554" cy="57.277"/>
            <circle fill="none" r="3.543"  stroke="#9A916C" id="connector13pin" stroke-width="1.4173" gorn="0.2.0.10" cx="8.504" cy="56.693"/>
            <circle fill="none" r="3.543"  stroke="#9A916C" id="connector14pin" stroke-width="1.4173" gorn="0.2.0.11" cx="8.504" cy="8.277"/>
            <circle fill="none" r="3.543"  stroke="#9A916C" id="connector15pin" stroke-width="1.4173" gorn="0.2.0.12" cx="81.751" cy="56.693"/>
            <circle fill="none" r="3.543"  stroke="#9A916C" id="connector16pin" stroke-width="1.4173" gorn="0.2.0.13" cx="81.751" cy="8.277"/>
        </g>
        <g  transform="matrix(1, 0, 0, 1, 19.7599, 3.81727)">
            <g >
                <g  id="adafruit200mil" gorn="0.2.1.0.0">
                    <g  transform="matrix(0, 1, -1, 0, 8.16502, -0.029016)">
                        <g >
                            <g >
                                <path fill="#DCDCDC"  d="M5.144,0.638c-0.67-0.401-1.013-0.607-1.013-0.633L4.105,0C3.187,0.839,2.818,1.541,2.997,2.1c0.179,0.565-0.006,0.786-0.554,0.659C1.889,2.638,1.076,2.818,0,3.282c0.021,0,0.216,0.253,0.601,0.755c0.38,0.507,1.087,0.855,2.121,1.055C2.601,5.076,2.4,5.308,2.11,5.772C1.83,6.231,1.762,7.017,1.904,8.13l0.059,0.006c1.15-0.032,1.841-0.343,2.073-0.939c0.237-0.586,0.528-0.665,0.865-0.243c0.348,0.438,0.807,0.707,1.372,0.802c0.543,0.084,0.834,0.132,0.87,0.153C7.212,6.732,7.064,5.93,6.7,5.498C6.325,5.081,6.104,4.875,6.025,4.891C7.08,4.643,7.755,4.242,8.04,3.688c0.28-0.554,0.179-0.96-0.301-1.224c-0.49-0.248-1.018-0.248-1.588,0.011C5.587,2.738,5.292,2.886,5.265,2.923C5.861,1.81,5.819,1.05,5.144,0.638z M3.498,5.888c-0.121,0.09-0.211,0.116-0.264,0.084c-0.063-0.036-0.09-0.126-0.063-0.274C3.202,5.54,3.26,5.382,3.35,5.223c0.111-0.185,0.216-0.317,0.322-0.401c0.116-0.09,0.206-0.127,0.28-0.09c0.058,0.032,0.073,0.133,0.047,0.28C3.983,5.134,3.92,5.292,3.82,5.498C3.709,5.672,3.603,5.804,3.498,5.888z M2.575,3.978c-0.121-0.09-0.169-0.169-0.142-0.232c0.02-0.079,0.105-0.121,0.247-0.137s0.311,0,0.512,0.058C3.387,3.72,3.54,3.794,3.656,3.878C3.783,3.957,3.83,4.036,3.814,4.115c-0.016,0.063-0.1,0.106-0.253,0.127c-0.169,0.011-0.338-0.01-0.512-0.063C2.875,4.137,2.717,4.073,2.575,3.978z M4.178,3.614C4.12,3.466,4.094,3.298,4.094,3.113c0-0.19,0.026-0.359,0.084-0.517c0.058-0.132,0.121-0.2,0.19-0.2c0.069,0,0.132,0.069,0.19,0.2c0.053,0.158,0.079,0.327,0.079,0.517c0,0.179-0.021,0.348-0.074,0.501C4.511,3.757,4.447,3.825,4.379,3.825C4.3,3.825,4.236,3.757,4.178,3.614z M4.891,4.115C4.864,4.036,4.917,3.957,5.038,3.878C5.149,3.799,5.307,3.73,5.513,3.672c0.18-0.058,0.348-0.074,0.507-0.058c0.142,0.011,0.232,0.048,0.253,0.127c0.021,0.068-0.032,0.148-0.158,0.237c-0.142,0.095-0.301,0.164-0.464,0.2c-0.18,0.054-0.349,0.075-0.518,0.064C4.991,4.221,4.912,4.179,4.891,4.115z M4.658,5.055C4.606,4.917,4.6,4.823,4.648,4.77c0.053-0.053,0.142-0.048,0.28,0.016c0.126,0.058,0.258,0.163,0.416,0.306C5.482,5.234,5.582,5.371,5.64,5.498c0.069,0.142,0.074,0.237,0.021,0.29C5.608,5.836,5.513,5.825,5.376,5.772C5.26,5.725,5.123,5.624,4.97,5.466C4.817,5.324,4.716,5.187,4.658,5.055z"/>
                            </g>
                        </g>
                    </g>
                </g>
            </g>
        </g>
    </g>
    <g >
        <rect fill="#416699" width="85.039" stroke-miterlimit="10"  stroke="#0000FF" stroke-width="0.0318" x="1.361" height="32.609" y="16.74"/>
        <rect fill="#140A14" width="73.429"  x="2.337" height="24.903" y="18.187"/>
        <rect fill="#333333" width="63.435"  x="7.317" height="15.85" y="22.697"/>
        <path  d="M90.708,26.738h-5.273c-0.02-0.42-0.364-0.756-0.79-0.756h-7.115c-0.438,0-0.794,0.355-0.794,0.794v21.059c0,0.438,0.355,0.794,0.794,0.794h7.115c0.391,0,0.714-0.283,0.78-0.655h5.283V26.738z"/>
        <g  transform="matrix(1 0 0 1 18.1953 33.0451)">
            <g >
                <text fill="#FFFFFF" font-size="5.6" font-family="'DroidSans'" >128x32 OLED</text>
            </g>
        </g>
    </g>
</svg>
