<?xml version='1.0' encoding='UTF-8' standalone='no'?>
<!-- Created with Fritzing (http://www.fritzing.org/) -->
<svg xmlns="http://www.w3.org/2000/svg" x="0in" version="1.2" baseProfile="tiny" height="0.8in" y="0in" viewBox="0 0 72 57.6"  width="1in">
    <desc>
        <referenceFile>Adafruit_ADXL345_breadboard.svg</referenceFile>
    </desc>
    <desc >Fritzing breadboard generated by brd2svg</desc>
    <g gorn="0.1"  id="breadboard">
        <g gorn="0.1.0"  id="icon">
            <path d="M7.2,0L64.8,0A7.2,7.2,0,0,1,72,7.2L72,50.4A7.2,7.2,0,0,1,64.8,57.6L7.2,57.6A7.2,7.2,0,0,1,0,50.4L0,7.2A7.2,7.2,0,0,1,7.2,0M6.50268,51.84a1.41732,1.41732,0,1,0,2.83465,0,1.41732,1.41732,0,1,0,-2.83465,0zM13.7027,51.84a1.41732,1.41732,0,1,0,2.83465,0,1.41732,1.41732,0,1,0,-2.83465,0zM20.9027,51.84a1.41732,1.41732,0,1,0,2.83465,0,1.41732,1.41732,0,1,0,-2.83465,0zM28.1027,51.84a1.41732,1.41732,0,1,0,2.83465,0,1.41732,1.41732,0,1,0,-2.83465,0zM35.3027,51.84a1.41732,1.41732,0,1,0,2.83465,0,1.41732,1.41732,0,1,0,-2.83465,0zM42.5027,51.84a1.41732,1.41732,0,1,0,2.83465,0,1.41732,1.41732,0,1,0,-2.83465,0zM49.7027,51.84a1.41732,1.41732,0,1,0,2.83465,0,1.41732,1.41732,0,1,0,-2.83465,0zM56.9027,51.84a1.41732,1.41732,0,1,0,2.83465,0,1.41732,1.41732,0,1,0,-2.83465,0zM64.1027,51.84a1.41732,1.41732,0,1,0,2.83465,0,1.41732,1.41732,0,1,0,-2.83465,0zM61.2567,7.2a3.54331,3.54331,0,1,0,7.08661,0,3.54331,3.54331,0,1,0,-7.08661,0zM3.65669,7.2a3.54331,3.54331,0,1,0,7.08661,0,3.54331,3.54331,0,1,0,-7.08661,0z" stroke="none" fill="#014cb1" stroke-width="0" />
            <g >
                <title >layer 21</title>
                <line y2="14.472" x1="61.848" stroke="white" stroke-linecap="round" y1="17.352" stroke-width="0.72" x2="61.848" />
                <line y2="14.4" x1="61.848" stroke="white" stroke-linecap="round" y1="14.472" stroke-width="0.72" x2="61.848" />
                <line y2="15.192" x1="61.848" stroke="white" stroke-linecap="round" y1="14.4" stroke-width="0.72" x2="61.056" />
                <line y2="15.192" x1="61.056" stroke="white" stroke-linecap="round" y1="15.192" stroke-width="0.72" x2="62.568" />
                <line y2="15.192" x1="62.64" stroke="white" stroke-linecap="round" y1="15.192" stroke-width="0.72" x2="62.568" />
                <line y2="14.472" x1="62.568" stroke="white" stroke-linecap="round" y1="15.192" stroke-width="0.72" x2="61.848" />
                <line y2="23.328" x1="67.176" stroke="white" stroke-linecap="round" y1="23.328" stroke-width="0.72" x2="70.056" />
                <line y2="23.328" x1="70.056" stroke="white" stroke-linecap="round" y1="23.328" stroke-width="0.72" x2="70.128" />
                <line y2="22.536" x1="70.128" stroke="white" stroke-linecap="round" y1="23.328" stroke-width="0.72" x2="69.336" />
                <line y2="24.048" x1="69.336" stroke="white" stroke-linecap="round" y1="22.536" stroke-width="0.72" x2="69.336" />
                <line y2="24.048" x1="69.336" stroke="white" stroke-linecap="round" y1="24.12" stroke-width="0.72" x2="69.336" />
                <line y2="23.328" x1="69.336" stroke="white" stroke-linecap="round" y1="24.048" stroke-width="0.72" x2="70.056" />
                <line y2="47.52" x1="6.48" stroke="white" stroke-linecap="round" y1="47.52" stroke-width="1.152" x2="9.36" />
                <line y2="46.08" x1="9.36" stroke="white" stroke-linecap="round" y1="47.52" stroke-width="1.152" x2="7.92" />
                <line y2="47.52" x1="7.92" stroke="white" stroke-linecap="round" y1="46.08" stroke-width="1.152" x2="6.48" />
                <line y2="46.08" x1="13.68" stroke="white" stroke-linecap="round" y1="46.08" stroke-width="1.152" x2="16.56" />
                <line y2="47.52" x1="16.56" stroke="white" stroke-linecap="round" y1="46.08" stroke-width="1.152" x2="15.12" />
                <line y2="46.08" x1="15.12" stroke="white" stroke-linecap="round" y1="47.52" stroke-width="1.152" x2="13.68" />
                <line y2="47.52" x1="28.08" stroke="white" stroke-linecap="round" y1="47.52" stroke-width="1.152" x2="30.96" />
                <line y2="46.08" x1="30.96" stroke="white" stroke-linecap="round" y1="47.52" stroke-width="1.152" x2="29.52" />
                <line y2="47.52" x1="29.52" stroke="white" stroke-linecap="round" y1="46.08" stroke-width="1.152" x2="28.08" />
                <line y2="46.08" x1="38.16" stroke="white" stroke-linecap="round" y1="46.08" stroke-width="1.152" x2="35.28" />
                <line y2="47.52" x1="35.28" stroke="white" stroke-linecap="round" y1="46.08" stroke-width="1.152" x2="36.72" />
                <line y2="46.08" x1="36.72" stroke="white" stroke-linecap="round" y1="47.52" stroke-width="1.152" x2="38.16" />
                <line y2="46.08" x1="42.48" stroke="white" stroke-linecap="round" y1="46.08" stroke-width="1.152" x2="45.36" />
                <line y2="47.52" x1="45.36" stroke="white" stroke-linecap="round" y1="46.08" stroke-width="1.152" x2="43.92" />
                <line y2="46.08" x1="43.92" stroke="white" stroke-linecap="round" y1="47.52" stroke-width="1.152" x2="42.48" />
                <line y2="46.08" x1="49.68" stroke="white" stroke-linecap="round" y1="46.08" stroke-width="1.152" x2="52.56" />
                <line y2="47.52" x1="52.56" stroke="white" stroke-linecap="round" y1="46.08" stroke-width="1.152" x2="51.12" />
                <line y2="46.08" x1="51.12" stroke="white" stroke-linecap="round" y1="47.52" stroke-width="1.152" x2="49.68" />
                <line y2="47.52" x1="56.88" stroke="white" stroke-linecap="round" y1="47.52" stroke-width="1.152" x2="59.76" />
                <line y2="46.08" x1="59.76" stroke="white" stroke-linecap="round" y1="47.52" stroke-width="1.152" x2="58.32" />
                <line y2="47.52" x1="58.32" stroke="white" stroke-linecap="round" y1="46.08" stroke-width="1.152" x2="56.88" />
                <line y2="47.52" x1="64.08" stroke="white" stroke-linecap="round" y1="47.52" stroke-width="1.152" x2="66.96" />
                <line y2="46.08" x1="66.96" stroke="white" stroke-linecap="round" y1="47.52" stroke-width="1.152" x2="65.52" />
                <line y2="47.52" x1="65.52" stroke="white" stroke-linecap="round" y1="46.08" stroke-width="1.152" x2="64.08" />
                <circle r="1.872" stroke="white" cy="18.432" fill="none" stroke-width="0.72"  cx="65.952"/>
                <circle r="0.072" stroke="white" cy="18.504" fill="none" stroke-width="0.72"  cx="65.952"/>
                <circle r="0.576" stroke="white" cy="11.52" fill="none" stroke-width="1.296"  cx="43.2"/>
                <g >
                    <title >text:GND</title>
                    <g  transform="matrix(1, 0, 0, 1, 23.76, 47.88)">
                        <g >
                            <g  transform="rotate(270)">
                                <g >
                                    <text font-size="3.3408" font-family="OCRA" x="0" stroke="none" fill="#ffffff" text-anchor="start" stroke-width="0" y="0" >GND</text>
                                </g>
                            </g>
                        </g>
                    </g>
                </g>
                <g >
                    <title >text:CS</title>
                    <g  transform="matrix(1, 0, 0, 1, 30.96, 44.64)">
                        <g >
                            <g  transform="rotate(270)">
                                <g >
                                    <text font-size="3.3408" font-family="OCRA" x="0" stroke="none" fill="#ffffff" text-anchor="start" stroke-width="0" y="0" >CS</text>
                                </g>
                            </g>
                        </g>
                    </g>
                </g>
                <g >
                    <title >text:INT1</title>
                    <g  transform="matrix(1, 0, 0, 1, 38.16, 44.64)">
                        <g >
                            <g  transform="rotate(270)">
                                <g >
                                    <text font-size="3.3408" font-family="OCRA" x="0" stroke="none" fill="#ffffff" text-anchor="start" stroke-width="0" y="0" >INT1</text>
                                </g>
                            </g>
                        </g>
                    </g>
                </g>
                <g >
                    <title >text:INT2</title>
                    <g  transform="matrix(1, 0, 0, 1, 45.36, 44.64)">
                        <g >
                            <g  transform="rotate(270)">
                                <g >
                                    <text font-size="3.3408" font-family="OCRA" x="0" stroke="none" fill="#ffffff" text-anchor="start" stroke-width="0" y="0" >INT2</text>
                                </g>
                            </g>
                        </g>
                    </g>
                </g>
                <g >
                    <title >text:SDO</title>
                    <g  transform="matrix(1, 0, 0, 1, 52.56, 44.64)">
                        <g >
                            <g  transform="rotate(270)">
                                <g >
                                    <text font-size="3.3408" font-family="OCRA" x="0" stroke="none" fill="#ffffff" text-anchor="start" stroke-width="0" y="0" >SDO</text>
                                </g>
                            </g>
                        </g>
                    </g>
                </g>
                <g >
                    <title >text:SDA</title>
                    <g  transform="matrix(1, 0, 0, 1, 59.76, 44.64)">
                        <g >
                            <g  transform="rotate(270)">
                                <g >
                                    <text font-size="3.3408" font-family="OCRA" x="0" stroke="none" fill="#ffffff" text-anchor="start" stroke-width="0" y="0" >SDA</text>
                                </g>
                            </g>
                        </g>
                    </g>
                </g>
                <g >
                    <title >text:SCL</title>
                    <g  transform="matrix(1, 0, 0, 1, 66.96, 44.64)">
                        <g >
                            <g  transform="rotate(270)">
                                <g >
                                    <text font-size="3.3408" font-family="OCRA" x="0" stroke="none" fill="#ffffff" text-anchor="start" stroke-width="0" y="0" >SCL</text>
                                </g>
                            </g>
                        </g>
                    </g>
                </g>
                <g >
                    <title >text:ADXL345 Digital</title>
                    <text font-size="3.3408" font-family="OCRA" x="18" stroke="none" fill="#ffffff" text-anchor="start" stroke-width="0" y="5.04" >ADXL345 Digital</text>
                </g>
                <g >
                    <title >text:Accelerometer</title>
                    <text font-size="3.3408" font-family="OCRA" x="20.16" stroke="none" fill="#ffffff" text-anchor="start" stroke-width="0" y="8.64" >Accelerometer</text>
                </g>
                <g >
                    <title >text:Y</title>
                    <text font-size="3.3408" font-family="OCRA" x="60.84" stroke="none" fill="#ffffff" text-anchor="start" stroke-width="0" y="21.096" >Y</text>
                </g>
                <g >
                    <title >text:X</title>
                    <text font-size="3.3408" font-family="OCRA" x="64.008" stroke="none" fill="#ffffff" text-anchor="start" stroke-width="0" y="24.696" >X</text>
                </g>
                <g >
                    <title >text:Z</title>
                    <text font-size="3.3408" font-family="OCRA" x="68.472" stroke="none" fill="#ffffff" text-anchor="start" stroke-width="0" y="16.632" >Z</text>
                </g>
                <g >
                    <title >text:3V3</title>
                    <g  transform="matrix(1, 0, 0, 1, 16.56, 44.64)">
                        <g >
                            <g  transform="rotate(270)">
                                <g >
                                    <text font-size="3.3408" font-family="OCRA" x="0" stroke="none" fill="#ffffff" text-anchor="start" stroke-width="0" y="0" >3V3</text>
                                </g>
                            </g>
                        </g>
                    </g>
                </g>
                <g >
                    <title >text:VIN</title>
                    <g  transform="matrix(1, 0, 0, 1, 9.36, 44.64)">
                        <g >
                            <g  transform="rotate(270)">
                                <g >
                                    <text font-size="3.3408" font-family="OCRA" x="0" stroke="none" fill="#ffffff" text-anchor="start" stroke-width="0" y="0" >VIN</text>
                                </g>
                            </g>
                        </g>
                    </g>
                </g>
                <g >
                    <title >element:C1</title>
                    <g >
                        <title >package:0805-NO</title>
                        <line y2="17.64" x1="27.36" stroke="white" stroke-linecap="round" y1="17.64" stroke-width="0.864" x2="24.48" />
                    </g>
                </g>
                <g >
                    <title >element:C3</title>
                    <g >
                        <title >package:0805-NO</title>
                        <line y2="32.04" x1="2.52" stroke="white" stroke-linecap="round" y1="32.04" stroke-width="0.864" x2="5.4" />
                    </g>
                </g>
                <g >
                    <title >element:D1</title>
                    <g >
                        <title >package:SOD-323</title>
                        <line y2="35.28" x1="22.32" stroke="white" stroke-linecap="round" y1="35.28" stroke-width="0.36" x2="32.4" />
                        <line y2="39.6" x1="32.4" stroke="white" stroke-linecap="round" y1="35.28" stroke-width="0.36" x2="32.4" />
                        <line y2="39.6" x1="32.4" stroke="white" stroke-linecap="round" y1="39.6" stroke-width="0.36" x2="22.32" />
                        <line y2="35.28" x1="22.32" stroke="white" stroke-linecap="round" y1="39.6" stroke-width="0.36" x2="22.32" />
                    </g>
                </g>
                <g >
                    <title >element:JP1</title>
                    <g >
                        <title >package:1X09_ROUND_70</title>
                    </g>
                </g>
                <g >
                    <title >element:Q1</title>
                    <g >
                        <title >package:SOT23-WIDE</title>
                        <line y2="25.7828" x1="41.3507" stroke="white" stroke-linecap="round" y1="25.7828" stroke-width="0.432" x2="45.072" />
                        <line y2="28.7842" x1="45.072" stroke="white" stroke-linecap="round" y1="25.7828" stroke-width="0.432" x2="45.072" />
                        <line y2="34.6972" x1="45.072" stroke="white" stroke-linecap="round" y1="34.6972" stroke-width="0.432" x2="41.3507" />
                        <line y2="34.6972" x1="45.072" stroke="white" stroke-linecap="round" y1="31.8376" stroke-width="0.432" x2="45.072" />
                        <line y2="29.003" x1="41.328" stroke="white" stroke-linecap="round" y1="31.4374" stroke-width="0.432" x2="41.328" />
                    </g>
                </g>
                <g >
                    <title >element:Q2</title>
                    <g >
                        <title >package:SOT23-WIDE</title>
                        <line y2="14.2628" x1="53.9507" stroke="white" stroke-linecap="round" y1="14.2628" stroke-width="0.432" x2="57.672" />
                        <line y2="17.2642" x1="57.672" stroke="white" stroke-linecap="round" y1="14.2628" stroke-width="0.432" x2="57.672" />
                        <line y2="23.1772" x1="57.672" stroke="white" stroke-linecap="round" y1="23.1772" stroke-width="0.432" x2="53.9507" />
                        <line y2="23.1772" x1="57.672" stroke="white" stroke-linecap="round" y1="20.3176" stroke-width="0.432" x2="57.672" />
                        <line y2="17.483" x1="53.928" stroke="white" stroke-linecap="round" y1="19.9174" stroke-width="0.432" x2="53.928" />
                    </g>
                </g>
                <g >
                    <title >element:R1</title>
                    <g >
                        <title >package:0805-NO</title>
                        <line y2="29.52" x1="65.16" stroke="white" stroke-linecap="round" y1="26.64" stroke-width="0.864" x2="65.16" />
                    </g>
                </g>
                <g >
                    <title >element:R2</title>
                    <g >
                        <title >package:0805-NO</title>
                        <line y2="29.16" x1="27.36" stroke="white" stroke-linecap="round" y1="29.16" stroke-width="0.864" x2="24.48" />
                    </g>
                </g>
                <g >
                    <title >element:R3</title>
                    <g >
                        <title >package:0805-NO</title>
                        <line y2="18.72" x1="46.8" stroke="white" stroke-linecap="round" y1="18.72" stroke-width="0.864" x2="49.68" />
                    </g>
                </g>
                <g >
                    <title >element:R5</title>
                    <g >
                        <title >package:0805-NO</title>
                        <line y2="29.52" x1="53.64" stroke="white" stroke-linecap="round" y1="26.64" stroke-width="0.864" x2="53.64" />
                    </g>
                </g>
                <g >
                    <title >element:R6</title>
                    <g >
                        <title >package:0805-NO</title>
                        <line y2="32.4" x1="57.96" stroke="white" stroke-linecap="round" y1="35.28" stroke-width="0.864" x2="57.96" />
                    </g>
                </g>
                <g >
                    <title >element:R7</title>
                    <g >
                        <title >package:0805-NO</title>
                        <line y2="19.08" x1="10.08" stroke="white" stroke-linecap="round" y1="16.2" stroke-width="0.864" x2="10.08" />
                    </g>
                </g>
                <g >
                    <title >element:U$1</title>
                    <g >
                        <title >package:FIDUCIAL_1MM</title>
                    </g>
                </g>
                <g >
                    <title >element:U$3</title>
                    <g >
                        <title >package:FIDUCIAL_1MM</title>
                    </g>
                </g>
                <g >
                    <title >element:U$4</title>
                    <g >
                        <title >package:MOUNTINGHOLE_2.5_PLATED</title>
                        <circle r="5.66929" stroke="white" cy="7.2" fill="none" stroke-width="0.576"  cx="64.8"/>
                    </g>
                </g>
                <g >
                    <title >element:U$6</title>
                    <g >
                        <title >package:MOUNTINGHOLE_2.5_PLATED</title>
                        <circle r="5.66929" stroke="white" cy="7.2" fill="none" stroke-width="0.576"  cx="7.2"/>
                    </g>
                </g>
                <g >
                    <title >element:U$7</title>
                    <g >
                        <title >package:ADAFRUIT_TEXT_20MM</title>
                    </g>
                </g>
                <g >
                    <title >element:U1</title>
                    <g >
                        <title >package:LGA14</title>
                        <line y2="16.7358" x1="44.5266" stroke="white" stroke-linecap="round" y1="14.468" stroke-width="0.576" x2="44.5266" />
                        <line y2="22.972" x1="44.5266" stroke="white" stroke-linecap="round" y1="20.7042" stroke-width="0.576" x2="44.5266" />
                        <line y2="20.7042" x1="30.3534" stroke="white" stroke-linecap="round" y1="22.972" stroke-width="0.576" x2="30.3534" />
                        <line y2="14.468" x1="30.3534" stroke="white" stroke-linecap="round" y1="16.7358" stroke-width="0.576" x2="30.3534" />
                        <circle r="0.283465" stroke="white" cy="18.72" fill="none" stroke-width="0.576"  cx="40.2746"/>
                    </g>
                </g>
                <g >
                    <title >element:U2</title>
                    <g >
                        <title >package:SOT23-5</title>
                        <line y2="28.0828" x1="16.6677" stroke="white" stroke-linecap="round" y1="28.0828" stroke-width="0.576" x2="12.1323" />
                        <line y2="37.4372" x1="16.6677" stroke="white" stroke-linecap="round" y1="37.4372" stroke-width="0.576" x2="12.1323" />
                        <line y2="33.8939" x1="17.3764" stroke="white" stroke-linecap="round" y1="31.6261" stroke-width="0.576" x2="17.3764" />
                    </g>
                </g>
            </g>
            <rect x="30.3534" stroke="none" fill="#333333" stroke-width="0" height="8.50392" y="14.468" fill-opacity="1"  width="14.1732"/>
            <g  transform="matrix(0, 1, -1, 0, 40.8671, -10.9729)">
                <g >
                    <rect x="24.1626" stroke="none" gorn="0.1.0.3.0.0" fill="#9A916C" stroke-width="0" height="4.25197" y="12.8211"  width="3.51496" id="connector0pin"/>
                </g>
            </g>
            <g  transform="matrix(0, 1, -1, 0, 46.2529, -5.58708)">
                <g >
                    <rect x="24.1626" stroke="none" gorn="0.1.0.4.0.0" fill="#9A916C" stroke-width="0" height="4.25197" y="18.2069"  width="3.51496" id="connector1pin"/>
                </g>
            </g>
            <g  transform="matrix(0, -1, 1, 0, -30.7729, 38.6929)">
                <g >
                    <rect x="2.20252" stroke="none" gorn="0.1.0.5.0.0" fill="#9A916C" stroke-width="0" height="4.25197" y="32.6069"  width="3.51496" id="connector2pin"/>
                </g>
            </g>
            <g  transform="matrix(0, -1, 1, 0, -25.3871, 33.3071)">
                <g >
                    <rect x="2.20252" stroke="none" gorn="0.1.0.6.0.0" fill="#9A916C" stroke-width="0" height="4.25197" y="27.2211"  width="3.51496" id="connector3pin"/>
                </g>
            </g>
            <rect x="29.6277" stroke="none" gorn="0.1.0.7" fill="#9A916C" stroke-width="0" height="2.26772" y="36.3061"  width="2.26772" id="connector4pin"/>
            <rect x="22.8246" stroke="none" gorn="0.1.0.8" fill="#9A916C" stroke-width="0" height="2.26772" y="36.3061"  width="2.26772" id="connector5pin"/>
            <circle r="1.96866" stroke="#9A916C" cy="51.84" gorn="0.1.0.9" fill="none" stroke-width="1.10268"  id="connector6pin" cx="7.92" connectorname="VIN"/>
            <circle r="1.96866" stroke="#9A916C" cy="51.84" gorn="0.1.0.10" fill="none" stroke-width="1.10268"  id="connector7pin" cx="15.12" connectorname="3.3V"/>
            <circle r="1.96866" stroke="#9A916C" cy="51.84" gorn="0.1.0.11" fill="none" stroke-width="1.10268"  id="connector8pin" cx="22.32" connectorname="GND"/>
            <circle r="1.96866" stroke="#9A916C" cy="51.84" gorn="0.1.0.12" fill="none" stroke-width="1.10268"  id="connector9pin" cx="29.52" connectorname="CS"/>
            <circle r="1.96866" stroke="#9A916C" cy="51.84" gorn="0.1.0.13" fill="none" stroke-width="1.10268"  id="connector10pin" cx="36.72" connectorname="INT1"/>
            <circle r="1.96866" stroke="#9A916C" cy="51.84" gorn="0.1.0.14" fill="none" stroke-width="1.10268"  id="connector11pin" cx="43.92" connectorname="INT2"/>
            <circle r="1.96866" stroke="#9A916C" cy="51.84" gorn="0.1.0.15" fill="none" stroke-width="1.10268"  id="connector12pin" cx="51.12" connectorname="SDO/ADDR"/>
            <circle r="1.96866" stroke="#9A916C" cy="51.84" gorn="0.1.0.16" fill="none" stroke-width="1.10268"  id="connector13pin" cx="58.32" connectorname="SDA/SDIO"/>
            <circle r="1.96866" stroke="#9A916C" cy="51.84" gorn="0.1.0.17" fill="none" stroke-width="1.10268"  id="connector14pin" cx="65.52" connectorname="SCL"/>
            <g  transform="matrix(0, 1, -1, 0, 67.9124, -12.8182)">
                <g >
                    <rect x="38.948" stroke="none" gorn="0.1.0.18.0.0" fill="#9A916C" stroke-width="0" height="3.6" y="25.7471"  width="2.83465" id="connector15pin"/>
                </g>
            </g>
            <g  transform="matrix(0, 1, -1, 0, 73.2982, -7.43242)">
                <g >
                    <rect x="38.948" stroke="none" gorn="0.1.0.19.0.0" fill="#9A916C" stroke-width="0" height="3.6" y="31.1329"  width="2.83465" id="connector16pin"/>
                </g>
            </g>
            <g  transform="matrix(0, 1, -1, 0, 76.2746, -15.7946)">
                <g >
                    <rect x="44.6173" stroke="none" gorn="0.1.0.20.0.0" fill="#9A916C" stroke-width="0" height="3.6" y="28.44"  width="2.83465" id="connector17pin"/>
                </g>
            </g>
            <g  transform="matrix(0, 1, -1, 0, 68.9924, -36.9382)">
                <g >
                    <rect x="51.548" stroke="none" gorn="0.1.0.21.0.0" fill="#9A916C" stroke-width="0" height="3.6" y="14.2271"  width="2.83465" id="connector18pin"/>
                </g>
            </g>
            <g  transform="matrix(0, 1, -1, 0, 74.3782, -31.5524)">
                <g >
                    <rect x="51.548" stroke="none" gorn="0.1.0.22.0.0" fill="#9A916C" stroke-width="0" height="3.6" y="19.6129"  width="2.83465" id="connector19pin"/>
                </g>
            </g>
            <g  transform="matrix(0, 1, -1, 0, 77.3546, -39.9146)">
                <g >
                    <rect x="57.2173" stroke="none" gorn="0.1.0.23.0.0" fill="#9A916C" stroke-width="0" height="3.6" y="16.92"  width="2.83465" id="connector20pin"/>
                </g>
            </g>
            <rect x="60.7096" stroke="none" gorn="0.1.0.24" fill="#9A916C" stroke-width="0" height="4.25197" y="25.954"  width="3.51496" id="connector21pin"/>
            <rect x="66.0954" stroke="none" gorn="0.1.0.25" fill="#9A916C" stroke-width="0" height="4.25197" y="25.954"  width="3.51496" id="connector22pin"/>
            <g  transform="matrix(0, 1, -1, 0, 52.3871, 0.547087)">
                <g >
                    <rect x="24.1626" stroke="none" gorn="0.1.0.26.0.0" fill="#9A916C" stroke-width="0" height="4.25197" y="24.3411"  width="3.51496" id="connector23pin"/>
                </g>
            </g>
            <g  transform="matrix(0, 1, -1, 0, 57.7729, 5.93292)">
                <g >
                    <rect x="24.1626" stroke="none" gorn="0.1.0.27.0.0" fill="#9A916C" stroke-width="0" height="4.25197" y="29.7269"  width="3.51496" id="connector24pin"/>
                </g>
            </g>
            <g  transform="matrix(0, -1, 1, 0, 26.8271, 69.6529)">
                <g >
                    <rect x="46.4826" stroke="none" gorn="0.1.0.28.0.0" fill="#9A916C" stroke-width="0" height="4.25197" y="19.2869"  width="3.51496" id="connector25pin"/>
                </g>
            </g>
            <g  transform="matrix(0, -1, 1, 0, 32.2129, 64.2671)">
                <g >
                    <rect x="46.4826" stroke="none" gorn="0.1.0.29.0.0" fill="#9A916C" stroke-width="0" height="4.25197" y="13.9011"  width="3.51496" id="connector26pin"/>
                </g>
            </g>
            <rect x="49.1896" stroke="none" gorn="0.1.0.30" fill="#9A916C" stroke-width="0" height="4.25197" y="25.954"  width="3.51496" id="connector27pin"/>
            <rect x="54.5754" stroke="none" gorn="0.1.0.31" fill="#9A916C" stroke-width="0" height="4.25197" y="25.954"  width="3.51496" id="connector28pin"/>
            <g  transform="matrix(-1, 0, 0, -1, 121.306, 67.68)">
                <g >
                    <rect x="58.8954" stroke="none" gorn="0.1.0.32.0.0" fill="#9A916C" stroke-width="0" height="4.25197" y="31.714"  width="3.51496" id="connector29pin"/>
                </g>
            </g>
            <g  transform="matrix(-1, 0, 0, -1, 110.534, 67.68)">
                <g >
                    <rect x="53.5096" stroke="none" gorn="0.1.0.33.0.0" fill="#9A916C" stroke-width="0" height="4.25197" y="31.714"  width="3.51496" id="connector30pin"/>
                </g>
            </g>
            <rect x="5.62961" stroke="none" gorn="0.1.0.34" fill="#9A916C" stroke-width="0" height="4.25197" y="15.514"  width="3.51496" id="connector31pin"/>
            <rect x="11.0154" stroke="none" gorn="0.1.0.35" fill="#9A916C" stroke-width="0" height="4.25197" y="15.514"  width="3.51496" id="connector32pin"/>
            <rect x="15.3587" stroke="none" gorn="0.1.0.36" fill="#9A916C" stroke-width="0" height="2.83465" y="7.29468"  ry="1.41732" width="2.83465" rx="1.41732" id="connector33pin"/>
            <rect x="65.9027" stroke="none" gorn="0.1.0.37" fill="#9A916C" stroke-width="0" height="2.83465" y="33.1427"  ry="1.41732" width="2.83465" rx="1.41732" id="connector34pin"/>
            <circle r="4.03937" stroke="#9A916C" cy="7.2" gorn="0.1.0.38" fill="none" stroke-width="0.992124"  id="connector35pin" cx="64.8" connectorname="P$1"/>
            <circle r="4.03937" stroke="#9A916C" cy="7.2" gorn="0.1.0.39" fill="none" stroke-width="0.992124"  id="connector36pin" cx="7.2" connectorname="P$1"/>
            <rect x="42.4007" stroke="none" gorn="0.1.0.40" fill="#9A916C" stroke-width="0" height="3.40158" y="13.9011"  width="1.41732" id="connector37pin"/>
            <g  transform="matrix(-1, 0, 0, -1, 81.6833, 31.2038)">
                <g >
                    <rect x="40.1329" stroke="none" gorn="0.1.0.41.0.0" fill="#9A916C" stroke-width="0" height="3.40158" y="13.9011"  width="1.41732" id="connector38pin"/>
                </g>
            </g>
            <g  transform="matrix(-1, 0, 0, -1, 77.148, 31.2038)">
                <g >
                    <rect x="37.8652" stroke="none" gorn="0.1.0.42.0.0" fill="#9A916C" stroke-width="0" height="3.40158" y="13.9011"  width="1.41732" id="connector39pin"/>
                </g>
            </g>
            <g  transform="matrix(-1, 0, 0, -1, 72.612, 31.2038)">
                <g >
                    <rect x="35.5974" stroke="none" gorn="0.1.0.43.0.0" fill="#9A916C" stroke-width="0" height="3.40158" y="13.9011"  width="1.41732" id="connector40pin"/>
                </g>
            </g>
            <g  transform="matrix(-1, 0, 0, -1, 68.0769, 31.2038)">
                <g >
                    <rect x="33.3297" stroke="none" gorn="0.1.0.44.0.0" fill="#9A916C" stroke-width="0" height="3.40158" y="13.9011"  width="1.41732" id="connector41pin"/>
                </g>
            </g>
            <g  transform="matrix(-1, 0, 0, -1, 63.5414, 31.2038)">
                <g >
                    <rect x="31.062" stroke="none" gorn="0.1.0.45.0.0" fill="#9A916C" stroke-width="0" height="3.40158" y="13.9011"  width="1.41732" id="connector42pin"/>
                </g>
            </g>
            <g  transform="matrix(0, 1, -1, 0, 50.2073, -12.7673)">
                <g >
                    <rect x="30.7786" stroke="none" gorn="0.1.0.46.0.0" fill="#9A916C" stroke-width="0" height="3.40158" y="17.0192"  width="1.41732" id="connector43pin"/>
                </g>
            </g>
            <g  transform="matrix(-1, 0, 0, -1, 63.5414, 43.6762)">
                <g >
                    <rect x="31.062" stroke="none" gorn="0.1.0.47.0.0" fill="#9A916C" stroke-width="0" height="3.40158" y="20.1373"  width="1.41732" id="connector44pin"/>
                </g>
            </g>
            <g  transform="matrix(-1, 0, 0, -1, 68.0769, 43.6762)">
                <g >
                    <rect x="33.3297" stroke="none" gorn="0.1.0.48.0.0" fill="#9A916C" stroke-width="0" height="3.40158" y="20.1373"  width="1.41732" id="connector45pin"/>
                </g>
            </g>
            <rect x="35.5974" stroke="none" gorn="0.1.0.49" fill="#9A916C" stroke-width="0" height="3.40158" y="20.1373"  width="1.41732" id="connector46pin"/>
            <rect x="37.8652" stroke="none" gorn="0.1.0.50" fill="#9A916C" stroke-width="0" height="3.40158" y="20.1373"  width="1.41732" id="connector47pin"/>
            <rect x="40.1329" stroke="none" gorn="0.1.0.51" fill="#9A916C" stroke-width="0" height="3.40158" y="20.1373"  width="1.41732" id="connector48pin"/>
            <rect x="42.4007" stroke="none" gorn="0.1.0.52" fill="#9A916C" stroke-width="0" height="3.40158" y="20.1373"  width="1.41732" id="connector49pin"/>
            <g  transform="matrix(0, -1, 1, 0, 24.6727, 62.1127)">
                <g >
                    <rect x="42.6841" stroke="none" gorn="0.1.0.53.0.0" fill="#9A916C" stroke-width="0" height="3.40158" y="17.0192"  width="1.41732" id="connector50pin"/>
                </g>
            </g>
            <g  transform="matrix(0, 1, -1, 0, 40.7817, 19.3524)">
                <g >
                    <rect x="9.93514" stroke="none" gorn="0.1.0.54.0.0" fill="#9A916C" stroke-width="0" height="3.40158" y="28.3663"  width="1.55905" id="connector51pin"/>
                </g>
            </g>
            <g  transform="matrix(0, 1, -1, 0, 43.4747, 22.0453)">
                <g >
                    <rect x="9.93514" stroke="none" gorn="0.1.0.55.0.0" fill="#9A916C" stroke-width="0" height="3.40158" y="31.0592"  width="1.55905" id="connector52pin"/>
                </g>
            </g>
            <g  transform="matrix(0, 1, -1, 0, 46.1676, 24.7383)">
                <g >
                    <rect x="9.93514" stroke="none" gorn="0.1.0.56.0.0" fill="#9A916C" stroke-width="0" height="3.40158" y="33.7522"  width="1.55905" id="connector53pin"/>
                </g>
            </g>
            <g  transform="matrix(0, 1, -1, 0, 53.5383, 17.3676)">
                <g >
                    <rect x="17.3058" stroke="none" gorn="0.1.0.57.0.0" fill="#9A916C" stroke-width="0" height="3.40158" y="33.7522"  width="1.55905" id="connector54pin"/>
                </g>
            </g>
            <g  transform="matrix(0, 1, -1, 0, 48.1524, 11.9817)">
                <g >
                    <rect x="17.3058" stroke="none" gorn="0.1.0.58.0.0" fill="#9A916C" stroke-width="0" height="3.40158" y="28.3663"  width="1.55905" id="connector55pin"/>
                </g>
            </g>
        </g>
        <g  transform="matrix(1, 0, 0, 1, 23.0855, 15.8685)">
            <g gorn="0.1.1.0"  id="0805-cap">
                <g  transform="matrix(0, 1, -1, 0, 4.606, -1.063)">
                    <g >
                        <path d="M5.386,3.543L0.283,3.543C0.127,3.543,0,3.416,0,3.26L0,0.283C0,0.127,0.127,0,0.283,0l5.102,0c0.157,0,0.283,0.127,0.283,0.283L5.668,3.26C5.669,3.416,5.542,3.543,5.386,3.543z" fill="#DCDCDC" />
                        <rect x="1.063" fill="#6E554B" height="3.543"  width="3.543"/>
                    </g>
                </g>
            </g>
        </g>
        <g  transform="matrix(1, 0, 0, 1, 1.1255, 30.2685)">
            <g gorn="0.1.2.0"  id="0805-cap">
                <g  transform="matrix(0, -1, 1, 0, 1.063, 4.606)">
                    <g >
                        <path d="M5.386,3.543L0.283,3.543C0.127,3.543,0,3.416,0,3.26L0,0.283C0,0.127,0.127,0,0.283,0l5.102,0c0.157,0,0.283,0.127,0.283,0.283L5.668,3.26C5.669,3.416,5.542,3.543,5.386,3.543z" fill="#DCDCDC" />
                        <rect x="1.063" fill="#6E554B" height="3.543"  width="3.543"/>
                    </g>
                </g>
            </g>
        </g>
        <g  transform="matrix(1, 0, 0, 1, 23.8165, 35.6685)">
            <g gorn="0.1.3.0"  id="sod-323">
                <metadata  id="metadata11">
                    <rdf:RDF xmlns:rdf="http://www.w3.org/1999/02/22-rdf-syntax-ns#">
                        <cc:Work xmlns:cc="http://creativecommons.org/ns#" rdf:about="" xmlns:rdf="http://www.w3.org/1999/02/22-rdf-syntax-ns#">
                            <dc:format xmlns:dc="http://purl.org/dc/elements/1.1/">image/svg+xml</dc:format>
                            <dc:type xmlns:dc="http://purl.org/dc/elements/1.1/" rdf:resource="http://purl.org/dc/dcmitype/StillImage" xmlns:rdf="http://www.w3.org/1999/02/22-rdf-syntax-ns#"/>
                        </cc:Work>
                    </rdf:RDF>
                </metadata>
                <defs  id="defs9"/>
                <rect gorn="0.1.3.0.2" fill="#DCDCDC" height="0.850003" y="1.346"  width="7.087" id="rect3"/>
                <rect x="1.134" gorn="0.1.3.0.3" fill="#303030" height="3.543"  width="4.819" id="rect5"/>
                <rect x="1.55866" gorn="0.1.3.0.4" fill="#666666" height="3.55568" y="0.011677"  width="0.633203" id="rect3339"/>
            </g>
        </g>
        <g  transform="matrix(1, 0, 0, 1, 38.948, 26.413)">
            <g gorn="0.1.4.0"  id="sot23-wide">
                <g  transform="matrix(0, 1, -1, 0, 8.07898, -0.42498)">
                    <g >
                        <g >
                            <rect x="0.850003" fill="#DCDCDC" height="2.976" y="4.677"  width="1.417"/>
                            <rect x="6.236" fill="#DCDCDC" height="2.976" y="4.677"  width="1.417"/>
                            <rect x="3.543" fill="#DCDCDC" height="3.118"  width="1.417"/>
                            <rect fill="#303030" height="3.685" y="1.984"  width="8.50399"/>
                        </g>
                    </g>
                </g>
            </g>
        </g>
        <g  transform="matrix(1, 0, 0, 1, 51.548, 14.893)">
            <g gorn="0.1.5.0"  id="sot23-wide">
                <g  transform="matrix(0, 1, -1, 0, 8.07898, -0.42498)">
                    <g >
                        <g >
                            <rect x="0.850003" fill="#DCDCDC" height="2.976" y="4.677"  width="1.417"/>
                            <rect x="6.236" fill="#DCDCDC" height="2.976" y="4.677"  width="1.417"/>
                            <rect x="3.543" fill="#DCDCDC" height="3.118"  width="1.417"/>
                            <rect fill="#303030" height="3.685" y="1.984"  width="8.50399"/>
                        </g>
                    </g>
                </g>
            </g>
        </g>
        <g  transform="matrix(1, 0, 0, 1, 62.3255, 26.3085)">
            <g gorn="0.1.6.0"  id="0805-res">
                <path d="M5.386,3.543L0.283,3.543C0.127,3.543,0,3.416,0,3.26L0,0.283C0,0.127,0.127,0,0.283,0l5.102,0c0.157,0,0.283,0.127,0.283,0.283L5.668,3.26C5.669,3.416,5.542,3.543,5.386,3.543z" fill="#DCDCDC" />
                <rect x="1.063" fill="#333333" height="3.543"  width="3.543"/>
            </g>
        </g>
        <g  transform="matrix(1, 0, 0, 1, 23.0855, 27.3885)">
            <g gorn="0.1.7.0"  id="0805-res">
                <g  transform="matrix(0, 1, -1, 0, 4.606, -1.063)">
                    <g >
                        <path d="M5.386,3.543L0.283,3.543C0.127,3.543,0,3.416,0,3.26L0,0.283C0,0.127,0.127,0,0.283,0l5.102,0c0.157,0,0.283,0.127,0.283,0.283L5.668,3.26C5.669,3.416,5.542,3.543,5.386,3.543z" fill="#DCDCDC" />
                        <rect x="1.063" fill="#333333" height="3.543"  width="3.543"/>
                    </g>
                </g>
            </g>
        </g>
        <g  transform="matrix(1, 0, 0, 1, 45.4055, 16.9485)">
            <g gorn="0.1.8.0"  id="0805-res">
                <g  transform="matrix(0, -1, 1, 0, 1.063, 4.606)">
                    <g >
                        <path d="M5.386,3.543L0.283,3.543C0.127,3.543,0,3.416,0,3.26L0,0.283C0,0.127,0.127,0,0.283,0l5.102,0c0.157,0,0.283,0.127,0.283,0.283L5.668,3.26C5.669,3.416,5.542,3.543,5.386,3.543z" fill="#DCDCDC" />
                        <rect x="1.063" fill="#333333" height="3.543"  width="3.543"/>
                    </g>
                </g>
            </g>
        </g>
        <g  transform="matrix(1, 0, 0, 1, 50.8055, 26.3085)">
            <g gorn="0.1.9.0"  id="0805-res">
                <path d="M5.386,3.543L0.283,3.543C0.127,3.543,0,3.416,0,3.26L0,0.283C0,0.127,0.127,0,0.283,0l5.102,0c0.157,0,0.283,0.127,0.283,0.283L5.668,3.26C5.669,3.416,5.542,3.543,5.386,3.543z" fill="#DCDCDC" />
                <rect x="1.063" fill="#333333" height="3.543"  width="3.543"/>
            </g>
        </g>
        <g  transform="matrix(1, 0, 0, 1, 55.1255, 32.0685)">
            <g gorn="0.1.10.0"  id="0805-res">
                <g  transform="matrix(-1, 0, 0, -1, 5.669, 3.543)">
                    <g >
                        <path d="M5.386,3.543L0.283,3.543C0.127,3.543,0,3.416,0,3.26L0,0.283C0,0.127,0.127,0,0.283,0l5.102,0c0.157,0,0.283,0.127,0.283,0.283L5.668,3.26C5.669,3.416,5.542,3.543,5.386,3.543z" fill="#DCDCDC" />
                        <rect x="1.063" fill="#333333" height="3.543"  width="3.543"/>
                    </g>
                </g>
            </g>
        </g>
        <g  transform="matrix(1, 0, 0, 1, 7.2455, 15.8685)">
            <g gorn="0.1.11.0"  id="0805-res">
                <path d="M5.386,3.543L0.283,3.543C0.127,3.543,0,3.416,0,3.26L0,0.283C0,0.127,0.127,0,0.283,0l5.102,0c0.157,0,0.283,0.127,0.283,0.283L5.668,3.26C5.669,3.416,5.542,3.543,5.386,3.543z" fill="#DCDCDC" />
                <rect x="1.063" fill="#333333" height="3.543"  width="3.543"/>
            </g>
        </g>
        <g  transform="matrix(1, 0, 0, 1, 30.3534, 14.468)">
            <g gorn="0.1.12.0"  id="lga14">
                <metadata  id="metadata9">
                    <rdf:RDF xmlns:rdf="http://www.w3.org/1999/02/22-rdf-syntax-ns#">
                        <cc:Work xmlns:cc="http://creativecommons.org/ns#" rdf:about="" xmlns:rdf="http://www.w3.org/1999/02/22-rdf-syntax-ns#">
                            <dc:format xmlns:dc="http://purl.org/dc/elements/1.1/">image/svg+xml</dc:format>
                            <dc:type xmlns:dc="http://purl.org/dc/elements/1.1/" rdf:resource="http://purl.org/dc/dcmitype/StillImage" xmlns:rdf="http://www.w3.org/1999/02/22-rdf-syntax-ns#"/>
                            <dc:title xmlns:dc="http://purl.org/dc/elements/1.1/"/>
                        </cc:Work>
                    </rdf:RDF>
                </metadata>
                <defs  id="defs7"/>
                <g  transform="matrix(0, 1, -1, 0, 14.1732, 0)">
                    <g gorn="0.1.12.0.2.0"  id="g3339">
                        <rect x="0" gorn="0.1.12.0.2.0.0" fill="#333333" height="14.1732" y="-7.71948e-07"  width="8.50392" id="rect3"/>
                        <circle r="0.454491" cy="0.963655" gorn="0.1.12.0.2.0.1" fill="#b3b3b3"  id="path3337" cx="1.04093"/>
                    </g>
                </g>
            </g>
        </g>
        <g  transform="matrix(1, 0, 0, 1, 10.29, 28.933)">
            <g gorn="0.1.13.0"  id="sot23-5">
                <g  transform="matrix(0, 1, -1, 0, 7.93706, -0.282996)">
                    <g >
                        <g >
                            <rect x="0.850003" fill="#DCDCDC" height="7.65403"  width="1.134"/>
                            <rect x="6.236" fill="#DCDCDC" height="7.65403"  width="1.134"/>
                            <rect x="3.543" fill="#DCDCDC" height="3.118" y="4.535"  width="1.134"/>
                            <rect fill="#303030" height="4.535" y="1.559"  width="8.22002"/>
                        </g>
                    </g>
                </g>
            </g>
        </g>
    </g>
</svg>
