<?xml version='1.0' encoding='UTF-8' standalone='no'?>
<!-- Created with Fritzing (http://www.fritzing.org/) -->
<svg xmlns="http://www.w3.org/2000/svg" width="0.8in"  height="0.95in" x="0in" gorn="0" y="0in" viewBox="0 0 57.6 68.4" id="svg2" version="1.2">
    <desc >
        <referenceFile >Adafruit_DRV8871_breadboard.svg</referenceFile>
    </desc>
    <metadata  id="metadata520"/>
    <defs  id="defs518"/>
    <desc  id="desc4">Fritzing breadboard generated by brd2svg</desc>
    <path style="fill:#014cb1;stroke:none;stroke-width:0"  d="m 7.2,0 43.2,0 a 7.2,7.2 0 0 1 7.2,7.2 l 0,54 a 7.2,7.2 0 0 1 -7.2,7.2 l -43.2,0 A 7.2,7.2 0 0 1 0,61.2 L 0,7.2 A 7.2,7.2 0 0 1 7.2,0 m 30.9827,61.2 a 1.417325,1.417325 0 0 0 2.83465,0 1.417325,1.417325 0 1 0 -2.83465,0 z m -7.2,0 a 1.417325,1.417325 0 0 0 2.83465,0 1.417325,1.417325 0 1 0 -2.83465,0 z m -7.2,0 a 1.417325,1.417325 0 0 0 2.83465,0 1.417325,1.417325 0 1 0 -2.83465,0 z m -7.2,0 a 1.417325,1.417325 0 0 0 2.83465,0 1.417325,1.417325 0 1 0 -2.83465,0 z M 50.328,50.4 a 1.152,1.152 0 0 0 2.304,0 1.152,1.152 0 1 0 -2.304,0 z m -28.8,0 a 1.152,1.152 0 1 0 2.304,0 1.152,1.152 0 1 0 -2.304,0 z M 3.65669,61.2 a 3.54331,3.54331 0 1 0 7.08661,0 3.54331,3.54331 0 1 0 -7.08661,0 z m 43.20001,0 a 3.54331,3.54331 0 1 0 7.08661,0 3.54331,3.54331 0 1 0 -7.08661,0 z M 9.91843,35.314 a 0.56693,0.56693 0 0 0 1.13386,0 0.56693,0.56693 0 1 0 -1.13386,0 z m 0,4.252 a 0.56693,0.56693 0 0 0 1.13386,0 0.56693,0.56693 0 1 0 -1.13386,0 z m 5.66927,0 a 0.56693,0.56693 0 1 0 1.13386,0 0.56693,0.56693 0 1 0 -1.13386,0 z m 0,-4.252 a 0.56693,0.56693 0 1 0 1.13386,0 0.56693,0.56693 0 1 0 -1.13386,0 z M 10.0403,10.8 a 1.417325,1.417325 0 0 0 2.83465,0 1.417325,1.417325 0 1 0 -2.83465,0 z m 9.9213,0 a 1.417325,1.417325 0 0 0 2.83465,0 1.417325,1.417325 0 1 0 -2.83465,0 z m 14.5587,0 a 1.417325,1.417325 0 0 0 2.83465,0 1.417325,1.417325 0 1 0 -2.83465,0 z m 9.9213,0 a 1.417325,1.417325 0 0 0 2.83465,0 1.417325,1.417325 0 1 0 -2.83465,0 z" gorn="0.4" id="path8"/>
    <g  gorn="0.5" id="g14">
        <title  id="title16">text:DRV8871</title>
        <g transform="translate(5.1192,29.52)" >
            <g >
                <g  gorn="0.5.1.0.0" id="g18">
                    <g transform="matrix(0,-1,1,0,0,0)" >
                        <g >
                            <g  gorn="0.5.1.0.0.0.0.0" id="g20">
                                <text style="font-size:3.75839996px;font-family:OCRA;text-anchor:middle;fill:#ffffff;stroke:none;stroke-width:0"  font-size="3.7584" x="0" gorn="0.5.1.0.0.0.0.0.0" id="text22" y="0">DRV8871</text>
                            </g>
                        </g>
                    </g>
                </g>
            </g>
        </g>
    </g>
    <g  gorn="0.6" id="g24">
        <title  id="title26">text:IN2</title>
        <text style="font-size:3.34080005px;font-family:OCRA;text-anchor:start;fill:#ffffff;stroke:none;stroke-width:0"  font-size="3.3408" x="15.12" gorn="0.6.1" id="text28" y="57.959999">IN2</text>
    </g>
    <g  gorn="0.7" id="g30">
        <title  id="title32">text:IN1</title>
        <text style="font-size:3.34080005px;font-family:OCRA;text-anchor:start;fill:#ffffff;stroke:none;stroke-width:0"  font-size="3.3408" x="21.959999" gorn="0.7.1" id="text34" y="67.32">IN1</text>
    </g>
    <g  gorn="0.8" id="g36">
        <title  id="title38">text:GND</title>
        <text style="font-size:3.34080005px;font-family:OCRA;text-anchor:start;fill:#ffffff;stroke:none;stroke-width:0"  font-size="3.3408" x="36" gorn="0.8.1" id="text40" y="67.32">GND</text>
    </g>
    <g  gorn="0.9" id="g42">
        <title  id="title44">text:POWER</title>
        <text style="font-size:4.17600012px;font-family:OCRA;text-anchor:end;fill:#ffffff;stroke:none;stroke-width:0"  font-size="4.176" x="50.040001" gorn="0.9.1" id="text46" y="25.775999">POWER</text>
    </g>
    <g  gorn="0.10" id="g48">
        <title  id="title50">text:MOTOR</title>
        <text style="font-size:4.17600012px;font-family:OCRA;text-anchor:start;fill:#ffffff;stroke:none;stroke-width:0"  font-size="4.176" x="7.9200001" gorn="0.10.1" id="text52" y="25.200001">MOTOR</text>
    </g>
    <g  gorn="0.11" id="g54">
        <title  id="title56">text:VM</title>
        <text style="font-size:3.34080005px;font-family:OCRA;text-anchor:start;fill:#ffffff;stroke:none;stroke-width:0"  font-size="3.3408" x="29.879999" gorn="0.11.1" id="text58" y="57.959999">VM</text>
    </g>
    <g  gorn="0.12" id="g60">
        <title  id="title62">text:Rlim</title>
        <g transform="translate(56.2608,38.88)" >
            <g >
                <g  gorn="0.12.1.0.0" id="g64">
                    <g transform="matrix(0,-1,1,0,0,0)" >
                        <g >
                            <g  gorn="0.12.1.0.0.0.0.0" id="g66">
                                <text style="font-size:3.34080005px;font-family:OCRA;text-anchor:end;fill:#ffffff;stroke:none;stroke-width:0"  font-size="3.3408" x="0" gorn="0.12.1.0.0.0.0.0.0" id="text68" y="0">Rlim</text>
                            </g>
                        </g>
                    </g>
                </g>
            </g>
        </g>
    </g>
    <g  gorn="0.13" id="g70">
        <title  id="title72">text:1</title>
        <text style="font-size:3.34080005px;font-family:OCRA;text-anchor:start;fill:#ffffff;stroke:none;stroke-width:0"  font-size="3.3408" x="27" gorn="0.13.1" id="text74" y="11.88">1</text>
    </g>
    <g  gorn="0.14" id="g76">
        <title  id="title78">text:2</title>
        <text style="font-size:3.34080005px;font-family:OCRA;text-anchor:start;fill:#ffffff;stroke:none;stroke-width:0"  font-size="3.3408" x="3.24" gorn="0.14.1" id="text80" y="11.88">2</text>
    </g>
    <g  gorn="0.15" id="g82">
        <title  id="title84">element:C1</title>
        <g  gorn="0.15.1" id="g86">
            <title  id="title88">package:0805-NO</title>
            <line x1="26.280001" y1="33.119999" style="stroke:#ffffff;stroke-width:0.86400002;stroke-linecap:round"  y2="33.119999" gorn="0.15.1.1" x2="23.4" id="line90"/>
        </g>
    </g>
    <g  gorn="0.16" id="g92">
        <title  id="title94">element:C2</title>
        <g  gorn="0.16.1" id="g96">
            <title  id="title98">package:PANASONIC_D</title>
            <line x1="50.252602" y1="39.412899" style="stroke:#ffffff;stroke-width:0.57599998;stroke-linecap:round"  y2="45.932598" gorn="0.16.1.1" x2="50.252602" id="line100"/>
            <line x1="50.252602" y1="45.932598" style="stroke:#ffffff;stroke-width:0.57599998;stroke-linecap:round"  y2="45.932598" gorn="0.16.1.2" x2="36.646301" id="line102"/>
            <line x1="36.646301" y1="45.932598" style="stroke:#ffffff;stroke-width:0.57599998;stroke-linecap:round"  y2="41.113701" gorn="0.16.1.3" x2="31.8274" id="line104"/>
            <line x1="31.8274" y1="41.113701" style="stroke:#ffffff;stroke-width:0.57599998;stroke-linecap:round"  y2="39.412899" gorn="0.16.1.4" x2="31.8274" id="line106"/>
            <line x1="31.8274" y1="34.0271" style="stroke:#ffffff;stroke-width:0.57599998;stroke-linecap:round"  y2="32.326302" gorn="0.16.1.5" x2="31.8274" id="line108"/>
            <line x1="31.8274" y1="32.326302" style="stroke:#ffffff;stroke-width:0.57599998;stroke-linecap:round"  y2="27.507401" gorn="0.16.1.6" x2="36.646301" id="line110"/>
            <line x1="36.646301" y1="27.507401" style="stroke:#ffffff;stroke-width:0.57599998;stroke-linecap:round"  y2="27.507401" gorn="0.16.1.7" x2="50.252602" id="line112"/>
            <line x1="50.252602" y1="27.507401" style="stroke:#ffffff;stroke-width:0.57599998;stroke-linecap:round"  y2="34.0271" gorn="0.16.1.8" x2="50.252602" id="line114"/>
        </g>
    </g>
    <g  gorn="0.17" id="g116">
        <title  id="title118">element:FID1</title>
        <g  gorn="0.17.1" id="g120">
            <title  id="title122">package:FIDUCIAL_1MM</title>
        </g>
    </g>
    <g  gorn="0.18" id="g124">
        <title  id="title126">element:FID2</title>
        <g  gorn="0.18.1" id="g128">
            <title  id="title130">package:FIDUCIAL_1MM</title>
        </g>
    </g>
    <g  gorn="0.19" id="g132">
        <title  id="title134">element:JP2</title>
        <g  gorn="0.19.1" id="g136">
            <title  id="title138">package:1X04_ROUND_76</title>
        </g>
    </g>
    <g  gorn="0.20" id="g140">
        <title  id="title142">element:R1</title>
        <g  gorn="0.20.1" id="g144">
            <title  id="title146">package:0805-THM</title>
            <path style="fill:none;stroke:#ffffff;stroke-width:0.43200001"  d="m 45.36,53.64 a 0.72,0.72 0 0 0 0.72,-0.72" gorn="0.20.1.1" id="path148"/>
            <path style="fill:none;stroke:#ffffff;stroke-width:0.43200001"  d="M 46.08,47.88 A 0.72,0.72 0 0 0 45.36,47.16" gorn="0.20.1.2" id="path150"/>
            <path style="fill:none;stroke:#ffffff;stroke-width:0.43200001"  d="m 28.8,47.16 a 0.72,0.72 0 0 0 -0.72,0.72" gorn="0.20.1.3" id="path152"/>
            <path style="fill:none;stroke:#ffffff;stroke-width:0.43200001"  d="m 28.08,52.92 a 0.72,0.72 0 0 0 0.72,0.72" gorn="0.20.1.4" id="path154"/>
            <line x1="46.080002" y1="47.880001" style="stroke:#ffffff;stroke-width:0.43200001;stroke-linecap:round"  y2="52.919998" gorn="0.20.1.5" x2="46.080002" id="line156"/>
            <line x1="45.360001" y1="53.639999" style="stroke:#ffffff;stroke-width:0.43200001;stroke-linecap:round"  y2="53.639999" gorn="0.20.1.6" x2="44.279999" id="line158"/>
            <line x1="43.919998" y1="53.279999" style="stroke:#ffffff;stroke-width:0.43200001;stroke-linecap:round"  y2="53.639999" gorn="0.20.1.7" x2="44.279999" id="line160"/>
            <line x1="45.360001" y1="47.16" style="stroke:#ffffff;stroke-width:0.43200001;stroke-linecap:round"  y2="47.16" gorn="0.20.1.8" x2="44.279999" id="line162"/>
            <line x1="43.919998" y1="47.52" style="stroke:#ffffff;stroke-width:0.43200001;stroke-linecap:round"  y2="47.16" gorn="0.20.1.9" x2="44.279999" id="line164"/>
            <line x1="30.24" y1="53.279999" style="stroke:#ffffff;stroke-width:0.43200001;stroke-linecap:round"  y2="53.639999" gorn="0.20.1.10" x2="29.879999" id="line166"/>
            <line x1="30.24" y1="53.279999" style="stroke:#ffffff;stroke-width:0.43200001;stroke-linecap:round"  y2="53.279999" gorn="0.20.1.11" x2="43.919998" id="line168"/>
            <line x1="30.24" y1="47.52" style="stroke:#ffffff;stroke-width:0.43200001;stroke-linecap:round"  y2="47.16" gorn="0.20.1.12" x2="29.879999" id="line170"/>
            <line x1="30.24" y1="47.52" style="stroke:#ffffff;stroke-width:0.43200001;stroke-linecap:round"  y2="47.52" gorn="0.20.1.13" x2="43.919998" id="line172"/>
            <line x1="28.799999" y1="53.639999" style="stroke:#ffffff;stroke-width:0.43200001;stroke-linecap:round"  y2="53.639999" gorn="0.20.1.14" x2="29.879999" id="line174"/>
            <line x1="28.799999" y1="47.16" style="stroke:#ffffff;stroke-width:0.43200001;stroke-linecap:round"  y2="47.16" gorn="0.20.1.15" x2="29.879999" id="line176"/>
            <line x1="28.08" y1="47.880001" style="stroke:#ffffff;stroke-width:0.43200001;stroke-linecap:round"  y2="52.919998" gorn="0.20.1.16" x2="28.08" id="line178"/>
        </g>
    </g>
    <g  gorn="0.21" id="g180">
        <title  id="title182">element:U$9</title>
        <g  gorn="0.21.1" id="g184">
            <title  id="title186">package:MOUNTINGHOLE_2.5_PLATED</title>
            <circle style="fill:none;stroke:#ffffff;stroke-width:0.57599998"  gorn="0.21.1.1" cy="61.200001" cx="7.1999998" id="circle188" r="5.6692901"/>
        </g>
    </g>
    <g  gorn="0.22" id="g190">
        <title  id="title192">element:U$10</title>
        <g  gorn="0.22.1" id="g194">
            <title  id="title196">package:MOUNTINGHOLE_2.5_PLATED</title>
            <circle style="fill:none;stroke:#ffffff;stroke-width:0.57599998"  gorn="0.22.1.1" cy="61.200001" cx="50.400002" id="circle198" r="5.6692901"/>
        </g>
    </g>
    <g  gorn="0.23" id="g200">
        <title  id="title202">element:U$11</title>
        <g  gorn="0.23.1" id="g204">
            <title  id="title206">package:SYMBOL_PLUS</title>
            <line x1="30.24" y1="22.2752" style="stroke:#ffffff;stroke-width:0.86400002;stroke-linecap:round"  y2="24.525101" gorn="0.23.1.1" x2="30.24" id="line208"/>
            <line x1="29.1152" y1="23.4" style="stroke:#ffffff;stroke-width:0.86400002;stroke-linecap:round"  y2="23.4" gorn="0.23.1.2" x2="31.364799" id="line210"/>
            <circle style="fill:none;stroke:#ffffff;stroke-width:0.57599998"  gorn="0.23.1.3" cy="23.4" cx="30.24" id="circle212" r="2.2158401"/>
        </g>
    </g>
    <g  gorn="0.24" id="g214">
        <title  id="title216">element:U$12</title>
        <g  gorn="0.24.1" id="g218">
            <title  id="title220">package:SYMBOL_MINUS</title>
            <line x1="51.075199" y1="23.4" style="stroke:#ffffff;stroke-width:0.86400002;stroke-linecap:round"  y2="23.4" gorn="0.24.1.1" x2="53.3251" id="line222"/>
            <circle style="fill:none;stroke:#ffffff;stroke-width:0.57599998"  gorn="0.24.1.2" cy="23.4" cx="52.200001" id="circle224" r="2.2158401"/>
        </g>
    </g>
    <g  gorn="0.25" id="g226">
        <title  id="title228">element:U$14</title>
        <g  gorn="0.25.1" id="g230">
            <title  id="title232">package:ADAFRUIT_3.5MM</title>
        </g>
    </g>
    <g  gorn="0.26" id="g254">
        <title  id="title256">element:U1</title>
        <g  gorn="0.26.1" id="g258">
            <title  id="title260">package:HSOP8</title>
            <line x1="6.8003101" y1="31.487301" style="stroke:#ffffff;stroke-width:0.36000001;stroke-linecap:round"  y2="31.487301" gorn="0.26.1.1" x2="5.9499202" id="line262"/>
            <line x1="5.9499202" y1="31.487301" style="stroke:#ffffff;stroke-width:0.36000001;stroke-linecap:round"  y2="43.3927" gorn="0.26.1.2" x2="5.9499202" id="line264"/>
            <line x1="5.9499202" y1="43.3927" style="stroke:#ffffff;stroke-width:0.36000001;stroke-linecap:round"  y2="43.3927" gorn="0.26.1.3" x2="6.8003101" id="line266"/>
            <line x1="19.839701" y1="31.487301" style="stroke:#ffffff;stroke-width:0.36000001;stroke-linecap:round"  y2="31.487301" gorn="0.26.1.4" x2="20.6901" id="line268"/>
            <line x1="20.6901" y1="31.487301" style="stroke:#ffffff;stroke-width:0.36000001;stroke-linecap:round"  y2="43.3927" gorn="0.26.1.5" x2="20.6901" id="line270"/>
            <line x1="20.6901" y1="43.3927" style="stroke:#ffffff;stroke-width:0.36000001;stroke-linecap:round"  y2="43.3927" gorn="0.26.1.6" x2="19.839701" id="line272"/>
            <circle style="fill:none;stroke:#ffffff;stroke-width:0.85039198"  gorn="0.26.1.7" cy="42.2589" cx="4.5325999" id="circle274" r="0.42519701"/>
        </g>
    </g>
    <g  gorn="0.27" id="g276">
        <title  id="title278">element:X1</title>
        <g  gorn="0.27.1" id="g280">
            <title  id="title282">package:TERMBLOCK_1X2-3.5MM</title>
            <line x1="26.1978" y1="20.437799" style="stroke:#ffffff;stroke-width:0.57599998;stroke-linecap:round"  y2="4.5637798" gorn="0.27.1.1" x2="26.1978" id="line284"/>
            <line x1="26.1978" y1="4.5637798" style="stroke:#ffffff;stroke-width:0.57599998;stroke-linecap:round"  y2="0.595276" gorn="0.27.1.2" x2="26.1978" id="line286"/>
            <line x1="26.1978" y1="0.595276" style="stroke:#ffffff;stroke-width:0.57599998;stroke-linecap:round"  y2="0.595276" gorn="0.27.1.3" x2="6.3552699" id="line288"/>
            <line x1="6.3552699" y1="0.595276" style="stroke:#ffffff;stroke-width:0.57599998;stroke-linecap:round"  y2="4.5637798" gorn="0.27.1.4" x2="6.3552699" id="line290"/>
            <line x1="6.3552699" y1="4.5637798" style="stroke:#ffffff;stroke-width:0.57599998;stroke-linecap:round"  y2="20.437799" gorn="0.27.1.5" x2="6.3552699" id="line292"/>
            <line x1="6.3552699" y1="20.437799" style="stroke:#ffffff;stroke-width:0.57599998;stroke-linecap:round"  y2="20.437799" gorn="0.27.1.6" x2="26.1978" id="line294"/>
            <line x1="26.1978" y1="4.5637798" style="stroke:#ffffff;stroke-width:0.57599998;stroke-linecap:round"  y2="4.5637798" gorn="0.27.1.7" x2="6.3552699" id="line296"/>
        </g>
    </g>
    <g  gorn="0.28" id="g298">
        <title  id="title300">element:X2</title>
        <g  gorn="0.28.1" id="g302">
            <title  id="title304">package:TERMBLOCK_1X2-3.5MM</title>
            <line x1="50.677799" y1="20.437799" style="stroke:#ffffff;stroke-width:0.57599998;stroke-linecap:round"  y2="4.5637798" gorn="0.28.1.1" x2="50.677799" id="line306"/>
            <line x1="50.677799" y1="4.5637798" style="stroke:#ffffff;stroke-width:0.57599998;stroke-linecap:round"  y2="0.595276" gorn="0.28.1.2" x2="50.677799" id="line308"/>
            <line x1="50.677799" y1="0.595276" style="stroke:#ffffff;stroke-width:0.57599998;stroke-linecap:round"  y2="0.595276" gorn="0.28.1.3" x2="30.8353" id="line310"/>
            <line x1="30.8353" y1="0.595276" style="stroke:#ffffff;stroke-width:0.57599998;stroke-linecap:round"  y2="4.5637798" gorn="0.28.1.4" x2="30.8353" id="line312"/>
            <line x1="30.8353" y1="4.5637798" style="stroke:#ffffff;stroke-width:0.57599998;stroke-linecap:round"  y2="20.437799" gorn="0.28.1.5" x2="30.8353" id="line314"/>
            <line x1="30.8353" y1="20.437799" style="stroke:#ffffff;stroke-width:0.57599998;stroke-linecap:round"  y2="20.437799" gorn="0.28.1.6" x2="50.677799" id="line316"/>
            <line x1="50.677799" y1="4.5637798" style="stroke:#ffffff;stroke-width:0.57599998;stroke-linecap:round"  y2="4.5637798" gorn="0.28.1.7" x2="30.8353" id="line318"/>
        </g>
    </g>
    <g transform="matrix(0,1,-1,0,55.2671,5.58708)" >
        <g >
            <g  gorn="0.29.0.0" id="g320">
                <rect width="3.5149601" style="fill:#9a916c;stroke:none;stroke-width:0"  height="4.2519698" x="23.0826" gorn="0.29.0.0.0" y="28.3011" id="connector0pin"/>
            </g>
        </g>
    </g>
    <g transform="matrix(0,1,-1,0,60.6529,10.9729)" >
        <g >
            <g  gorn="0.30.0.0" id="g323">
                <rect width="3.5149601" style="fill:#9a916c;stroke:none;stroke-width:0"  height="4.2519698" x="23.0826" gorn="0.30.0.0.0" y="33.686901" id="connector1pin"/>
            </g>
        </g>
    </g>
    <g transform="matrix(-1,0,0,-1,67.0337,73.44)" >
        <g >
            <g  gorn="0.31.0.0" id="g326">
                <rect width="10.08" style="fill:#9a916c;stroke:none;stroke-width:0"  height="3.9684999" x="28.4769" gorn="0.31.0.0.0" y="34.735802" id="connector2pin"/>
            </g>
        </g>
    </g>
    <g transform="matrix(-1,0,0,-1,97.1266,73.44)" >
        <g >
            <g  gorn="0.32.0.0" id="g329">
                <rect width="10.08" style="fill:#9a916c;stroke:none;stroke-width:0"  height="3.9684999" x="43.523102" gorn="0.32.0.0.0" y="34.735802" id="connector3pin"/>
            </g>
        </g>
    </g>
    <g transform="matrix(0,-1,1,0,46.8,61.2)" >
        <g >
            <g  gorn="0.33.0.0" id="g332">
                <rect width="2.83465" rx="1.41732" style="fill:#9a916c;stroke:none;stroke-width:0"  height="2.83465" x="52.582699" gorn="0.33.0.0.0" ry="1.41732" y="5.78268" id="connector4pin"/>
            </g>
        </g>
    </g>
    <g transform="matrix(0,-1,1,0,-48.96,56.88)" >
        <g >
            <g  gorn="0.34.0.0" id="g335">
                <rect width="2.83465" rx="1.41732" style="fill:#9a916c;stroke:none;stroke-width:0"  height="2.83465" x="2.54268" gorn="0.34.0.0.0" ry="1.41732" y="51.502701" id="connector5pin"/>
            </g>
        </g>
    </g>
    <circle connectorname="GND" style="fill:none;stroke:#9a916c;stroke-width:1.31868005"  gorn="0.35" cy="61.200001" cx="39.599998" id="connector6pin" r="2.0766599"/>
    <circle connectorname="VMOTOR" style="fill:none;stroke:#9a916c;stroke-width:1.31868005"  gorn="0.36" cy="61.200001" cx="32.400002" id="connector7pin" r="2.0766599"/>
    <circle connectorname="IN1" style="fill:none;stroke:#9a916c;stroke-width:1.31868005"  gorn="0.37" cy="61.200001" cx="25.200001" id="connector8pin" r="2.0766599"/>
    <circle connectorname="IN2" style="fill:none;stroke:#9a916c;stroke-width:1.31868005"  gorn="0.38" cy="61.200001" cx="18" id="connector9pin" r="2.0766599"/>
    <circle connectorname="GND" style="fill:none;stroke:#9a916c;stroke-width:1.22399998"  gorn="0.39" cy="50.400002" cx="51.48" id="connector10pin" r="1.7640001"/>
    <circle connectorname="2" style="fill:none;stroke:#9a916c;stroke-width:1.22399998"  gorn="0.40" cy="50.400002" cx="22.68" id="connector11pin" r="1.7640001"/>
    <circle connectorname="P$1" style="fill:none;stroke:#9a916c;stroke-width:1.44000006"  gorn="0.41" cy="61.200001" cx="7.1999998" id="connector12pin" r="4.26331"/>
    <circle connectorname="P$1" style="fill:none;stroke:#9a916c;stroke-width:1.44000006"  gorn="0.42" cy="61.200001" cx="50.400002" id="connector13pin" r="4.26331"/>
    <g transform="matrix(0,-1,1,0,-37.6696,53.5096)" >
        <g >
            <g  gorn="0.43.0.0" id="g346">
                <rect width="6.0944901" style="fill:#9a916c;stroke:none;stroke-width:0"  height="1.2755899" x="4.8727598" gorn="0.43.0.0.0" y="44.951801" id="connector14pin"/>
            </g>
        </g>
    </g>
    <g transform="matrix(0,-1,1,0,-34.0696,57.1096)" >
        <g >
            <g  gorn="0.44.0.0" id="g349">
                <rect width="6.0944901" style="fill:#9a916c;stroke:none;stroke-width:0"  height="1.2755899" x="8.4727402" gorn="0.44.0.0.0" y="44.951801" id="connector15pin"/>
            </g>
        </g>
    </g>
    <g transform="matrix(0,-1,1,0,-30.4696,60.7096)" >
        <g >
            <g  gorn="0.45.0.0" id="g352">
                <rect width="6.0944901" style="fill:#9a916c;stroke:none;stroke-width:0"  height="1.2755899" x="12.0727" gorn="0.45.0.0.0" y="44.951801" id="connector16pin"/>
            </g>
        </g>
    </g>
    <g transform="matrix(0,-1,1,0,-26.8696,64.3096)" >
        <g >
            <g  gorn="0.46.0.0" id="g355">
                <rect width="6.0944901" style="fill:#9a916c;stroke:none;stroke-width:0"  height="1.2755899" x="15.6727" gorn="0.46.0.0.0" y="44.951801" id="connector17pin"/>
            </g>
        </g>
    </g>
    <g transform="matrix(0,-1,1,0,-10.5704,48.0104)" >
        <g >
            <g  gorn="0.47.0.0" id="g358">
                <rect width="6.0944901" style="fill:#9a916c;stroke:none;stroke-width:0"  height="1.2755899" x="15.6727" gorn="0.47.0.0.0" y="28.652599" id="connector18pin"/>
            </g>
        </g>
    </g>
    <g transform="matrix(0,-1,1,0,-14.1704,44.4104)" >
        <g >
            <g  gorn="0.48.0.0" id="g361">
                <rect width="6.0944901" style="fill:#9a916c;stroke:none;stroke-width:0"  height="1.2755899" x="12.0727" gorn="0.48.0.0.0" y="28.652599" id="connector19pin"/>
            </g>
        </g>
    </g>
    <g transform="matrix(0,-1,1,0,-17.7704,40.8104)" >
        <g >
            <g  gorn="0.49.0.0" id="g364">
                <rect width="6.0944901" style="fill:#9a916c;stroke:none;stroke-width:0"  height="1.2755899" x="8.4727402" gorn="0.49.0.0.0" y="28.652599" id="connector20pin"/>
            </g>
        </g>
    </g>
    <g transform="matrix(0,-1,1,0,-21.3704,37.2104)" >
        <g >
            <g  gorn="0.50.0.0" id="g367">
                <rect width="6.0944901" style="fill:#9a916c;stroke:none;stroke-width:0"  height="1.2755899" x="4.8727598" gorn="0.50.0.0.0" y="28.652599" id="connector21pin"/>
            </g>
        </g>
    </g>
    <g transform="matrix(0,-1,1,0,-24.12,50.76)" >
        <g >
            <g  gorn="0.51.0.0" id="g370">
                <rect width="8.3622198" style="fill:#9a916c;stroke:none;stroke-width:0"  height="13.8897" x="9.1388903" gorn="0.51.0.0.0" y="30.4951" id="connector22pin"/>
            </g>
        </g>
    </g>
    <circle connectorname="GND" style="fill:none;stroke:#9a916c;stroke-width:0.72000003"  gorn="0.52" cy="35.313999" cx="10.4854" id="connector23pin" r="0.92692798"/>
    <circle connectorname="GND" style="fill:none;stroke:#9a916c;stroke-width:0.72000003"  gorn="0.53" cy="39.566002" cx="10.4854" id="connector24pin" r="0.92692798"/>
    <circle connectorname="GND" style="fill:none;stroke:#9a916c;stroke-width:0.72000003"  gorn="0.54" cy="39.566002" cx="16.1546" id="connector25pin" r="0.92692798"/>
    <circle connectorname="GND" style="fill:none;stroke:#9a916c;stroke-width:0.72000003"  gorn="0.55" cy="35.313999" cx="16.1546" id="connector26pin" r="0.92692798"/>
    <circle connectorname="OUT2" style="fill:none;stroke:#9a916c;stroke-width:1.67867994"  gorn="0.56" cy="10.8" cx="11.4576" id="connector27pin" r="2.25666"/>
    <circle connectorname="OUT1" style="fill:none;stroke:#9a916c;stroke-width:1.67867994"  gorn="0.57" cy="10.8" cx="21.378901" id="connector28pin" r="2.25666"/>
    <circle connectorname="VMOTOR" style="fill:none;stroke:#9a916c;stroke-width:1.67867994"  gorn="0.58" cy="10.8" cx="35.937599" id="connector29pin" r="2.25666"/>
    <circle connectorname="GND" style="fill:none;stroke:#9a916c;stroke-width:1.67867994"  gorn="0.59" cy="10.8" cx="45.858898" id="connector30pin" r="2.25666"/>
    <g transform="translate(22.0055,31.3485)" >
        <g >
            <g  gorn="0.60.0.0" id="0805-cap">
                <g transform="matrix(0,1,-1,0,4.606,-1.063)" >
                    <g >
                        <g  gorn="0.60.0.0.0.0.0" id="g382">
                            <path style="fill:#dcdcdc"  d="m 5.386,3.543 -5.103,0 C 0.127,3.543 0,3.416 0,3.26 L 0,0.283 C 0,0.127 0.127,0 0.283,0 l 5.102,0 c 0.157,0 0.283,0.127 0.283,0.283 l 0,2.977 C 5.669,3.416 5.542,3.543 5.386,3.543 Z" gorn="0.60.0.0.0.0.0.0" id="path384"/>
                            <rect width="3.543" style="fill:#6e554b"  height="3.543" x="1.063" gorn="0.60.0.0.0.0.0.1" y="0" id="rect386"/>
                        </g>
                    </g>
                </g>
            </g>
        </g>
    </g>
    <g transform="translate(30.8255,27.5445)" >
        <g >
            <g  gorn="0.61.0.0" id="panasonic_d">
                <g transform="matrix(-1,0,0,-1,20.429,18.351)" >
                    <g >
                        <g  gorn="0.61.0.0.0.0.0" id="g389">
                            <g  gorn="0.61.0.0.0.0.0.0" id="g391">
                                <rect width="1.039" style="fill:#cccccc"  height="1.272" x="0.0020000001" gorn="0.61.0.0.0.0.0.0.0" id="rect393" y="8.5679998"/>
                                <rect width="1.0369999" style="fill:#cccccc"  height="1.272" x="19.392" gorn="0.61.0.0.0.0.0.0.1" id="rect395" y="8.5679998"/>
                                <rect width="1.039" style="opacity:0.1"  height="0.20299999" x="0.0020000001" gorn="0.61.0.0.0.0.0.0.2" id="rect397" y="9.63799"/>
                                <rect width="1.0369999" style="opacity:0.1"  height="0.20299999" x="19.392" gorn="0.61.0.0.0.0.0.0.3" id="rect399" y="9.63799"/>
                                <rect width="1.039" style="opacity:0.2;fill:#ffffff"  height="0.204" x="0.0020000001" gorn="0.61.0.0.0.0.0.0.4" id="rect401" y="8.5679998"/>
                                <rect width="1.0369999" style="opacity:0.2;fill:#ffffff"  height="0.204" x="19.392" gorn="0.61.0.0.0.0.0.0.5" id="rect403" y="8.5679998"/>
                                <path style="fill:#1a1a1a"  d="M 15.583,0 2.426,0 C 1.665997,0 1.041,0.623 1.041,1.383 l 0,15.58 c 0,0.763999 0.625,1.387 1.385,1.387 l 13.157,0 3.809,-3.811 0,-3.633 0,-3.63501 0,-3.46299 L 15.583,0 Z" gorn="0.61.0.0.0.0.0.0.6" id="path405"/>
                                <circle style="fill:#e6e6e6"  gorn="0.61.0.0.0.0.0.0.7" cy="9.1750298" cx="10.216" id="circle407" r="8.7030001"/>
                                <path style="fill:#333333"  d="M 15.583,0 2.426,0 C 1.665997,0 1.041,0.623 1.041,1.383 l 0,15.58 c 0,0.763999 0.625,1.387 1.385,1.387 l 2.752,0 10.405,0 3.809,-3.811 0,-3.633 0,-3.63501 0,-3.46299 L 15.583,0 Z" gorn="0.61.0.0.0.0.0.0.8" id="path409"/>
                                <path  d="m 19.392,14.356 -3.809,3.811 -10.405,0 -2.752,0 c -0.760003,0 -1.385,-0.623 -1.385,-1.387 l 0,0.184 c 0,0.763999 0.625,1.387 1.385,1.387 l 2.752,0 10.405,0 3.809,-3.811 0,-0.184 z" gorn="0.61.0.0.0.0.0.0.9" id="path411"/>
                                <path style="opacity:0.1;fill:#ffffff"  d="m 1.041,1.568 c 0,-0.760997 0.625,-1.384 1.385,-1.384 l 13.157,0 3.809,3.807 0,-0.183 L 15.583,0 2.426,0 C 1.665997,0 1.041,0.623 1.041,1.383 l 0,0.185 z" gorn="0.61.0.0.0.0.0.0.10" id="path413"/>
                                <path style="fill:#e6e6e6"  d="m 10.216,17.999 c -1.88,0 -3.615,-0.604 -5.038,-1.614 C 2.963,14.806 1.514,12.222 1.514,9.297 1.514,6.37 2.963,3.788 5.178,2.21 6.601,1.197 8.336,0.595 10.216,0.595 c 4.806,0 8.703,3.896 8.703,8.703 0,4.804 -3.898,8.701 -8.703,8.701 z" gorn="0.61.0.0.0.0.0.0.11" id="path415"/>
                                <path  d="m 1.514,9.17503 c 0,2.926 1.449,5.509 3.664,7.088 L 5.178,2.088 C 2.963,3.665 1.514,6.248 1.514,9.17503 Z" gorn="0.61.0.0.0.0.0.0.12" id="path417"/>
                                <path style="opacity:0.3;fill:#ffffff"  d="m 18.919,9.41897 c 0,-4.807 -3.897,-8.703 -8.703,-8.703 -1.88,0 -3.615,0.604 -5.038,1.616 C 2.963,3.91 1.514,6.493 1.514,9.41897 l 0,-0.24394 c 0,-2.927 1.449,-5.51 3.664,-7.087 1.423,-1.014 3.158,-1.615 5.038,-1.615 4.806,0 8.703,3.896 8.703,8.70199 l 0,0.24395 z" gorn="0.61.0.0.0.0.0.0.13" id="path419"/>
                                <path style="opacity:0.5;fill:#ffffff"  d="m 1.514,8.946 c 0,2.925 1.449,5.508 3.664,7.088 l 0,0.229 C 2.963,14.684 1.514,12.101 1.514,9.175 l 0,-0.229 z" gorn="0.61.0.0.0.0.0.0.14" id="path421"/>
                                <path style="opacity:0.2"  d="m 5.178,16.034 c 1.423,1.012 3.158,1.615 5.038,1.615 4.806,0 8.703,-3.898 8.703,-8.703 l 0,0.229 c 0,4.805 -3.897,8.703 -8.703,8.703 -1.88,0 -3.615,-0.604 -5.038,-1.615 l 0,-0.229 z" gorn="0.61.0.0.0.0.0.0.15" id="path423"/>
                            </g>
                        </g>
                    </g>
                </g>
            </g>
        </g>
    </g>
    <g transform="translate(34.2455,48.6285)" >
        <g >
            <g  gorn="0.62.0.0" id="0805-thm">
                <g transform="matrix(-1,0,0,-1,5.669,3.543)" >
                    <g >
                        <g  gorn="0.62.0.0.0.0.0" id="g426">
                            <path style="fill:#dcdcdc"  d="m 5.386,3.543 -5.103,0 C 0.127,3.543 0,3.416 0,3.26 L 0,0.283 C 0,0.127 0.127,0 0.283,0 l 5.102,0 c 0.157,0 0.283,0.127 0.283,0.283 l 0,2.977 C 5.669,3.416 5.542,3.543 5.386,3.543 Z" gorn="0.62.0.0.0.0.0.0" id="path428"/>
                            <rect width="3.543" style="fill:#333333"  height="3.543" x="1.063" gorn="0.62.0.0.0.0.0.1" y="0" id="rect430"/>
                        </g>
                    </g>
                </g>
            </g>
        </g>
    </g>
    <g transform="translate(21.03,38.6715)" >
        <g >
            <g  gorn="0.63.0.0" id="adafruit_3.5mm">
                <g transform="matrix(-1,0,0,-1,9.77998,9.77702)" >
                    <g >
                        <g  gorn="0.63.0.0.0.0.0" id="g433">
                            <path style="fill:#dcdcdc"  d="M 9.77299,4.306 C 9.74099,4.106 9.63199,4.049 9.36999,3.965 9.171,3.901 7.83698,3.476 7.83698,3.476 c 0,0 -0.930002,-0.351 -1.619,0.146 C 6.125,3.688 6.029,3.765 5.932,3.846 6.014,3.749 6.09,3.653 6.156,3.56 6.651,2.87 6.299,1.941 6.299,1.941 6.299,1.941 5.872,0.607 5.807,0.408 5.7219997,0.146 5.665,0.038 5.465,0.006 5.265,-0.026 5.177,0.06 5.016,0.283 4.894,0.453 4.077,1.59 4.077,1.59 c 0,0 -0.621,0.777 -0.361,1.586 C 3.75,3.285 3.793,3.4 3.841,3.517 3.774,3.409 3.706,3.308 3.638,3.215 3.135,2.531 2.142,2.579 2.142,2.579 c 0,0 -1.4,-0.006 -1.61,-0.006 C 0.257,2.572 0.136,2.593 0.044,2.774 -0.047,2.955 0.007,3.065 0.17,3.287 c 0.124,0.169 0.952999,1.297 0.952999,1.297 0,0 0.546,0.830002 1.395,0.833998 0.114,0 0.236,-0.005 0.362,-0.014 -0.122,0.03 -0.24,0.064 -0.348,0.1 C 1.726,5.771 1.465,6.73 1.465,6.73 c 0,0 -0.438,1.32997 -0.503001,1.52898 -0.085997,0.261 -0.102996,0.38304 0.040001,0.52603 0.144,0.143 0.265,0.126 0.526,0.04 0.199,-0.06499 1.528,-0.50599 1.528,-0.50599 0,0 0.958003,-0.263 1.224,-1.07 0.036,-0.108 0.069,-0.225 0.1,-0.348 C 4.371,7.027 4.366,7.149 4.367,7.263 c 0.005,0.849002 0.835999,1.394 0.835999,1.394 0,0 1.13,0.826999 1.298,0.950998 C 6.724,9.76997 6.834,9.82397 7.015,9.73202 c 0.181,-0.092 0.201,-0.213 0.2,-0.488 -10e-4,-0.21 -0.009,-1.61 -0.009,-1.61 0,0 0.047,-0.993002 -0.639,-1.495 C 6.475,6.072 6.373,6.004 6.266,5.937 6.383,5.984 6.498,6.027 6.606,6.061 7.416,6.319 8.19,5.697 8.19,5.697 c 0,0 1.136,-0.819 1.306,-0.940997 C 9.71899,4.595 9.80503,4.507 9.77299,4.306 Z M 4.951,3.275 C 5.103,3.299 5.179,3.624 5.12,4.001 5.061,4.378 4.889,4.663 4.736,4.639 4.583,4.615 4.507,4.29 4.567,3.914 4.626,3.537 4.798,3.251 4.951,3.275 Z M 2.995,4.274 C 3.065,4.136 3.397,4.164 3.737003,4.337 4.077,4.51 4.295,4.762 4.225,4.9 4.155,5.038 3.823,5.01 3.483,4.837 3.143,4.664 2.925,4.412 2.995,4.274 Z M 4.026,6.152 C 3.757,6.422 3.449,6.552 3.34,6.443 3.231,6.334 3.36,6.027 3.63,5.757 3.899,5.487 4.206,5.357 4.316,5.466 4.425,5.575 4.295,5.882 4.026,6.152 Z M 5.51,6.785 C 5.372,6.855 5.12,6.637 4.947,6.298 4.773,5.958 4.744,5.625 4.882,5.555003 c 0.138,-0.069997 0.39,0.148 0.563,0.487 C 5.618,6.382 5.647,6.714 5.51,6.785 Z M 5.867,5.212 C 5.49,5.272 5.166,5.197 5.141,5.044 5.117,4.891 5.403,4.719 5.779,4.659 6.156,4.599 6.48,4.674 6.504998,4.827 6.529,4.98 6.244,5.152 5.867,5.212 Z" gorn="0.63.0.0.0.0.0.0" id="path435"/>
                        </g>
                    </g>
                </g>
            </g>
        </g>
    </g>
    <g transform="translate(6.2142456,28.9367)" >
        <g >
            <g  gorn="0.64.0.0" id="hsop8">
                <defs  id="defs8426"/>
                <metadata  id="metadata8429">
                    <rdf:RDF xmlns:rdf="http://www.w3.org/1999/02/22-rdf-syntax-ns#">
                        <cc:Work xmlns:rdf="http://www.w3.org/1999/02/22-rdf-syntax-ns#" xmlns:cc="http://creativecommons.org/ns#" rdf:about="">
                            <dc:format xmlns:dc="http://purl.org/dc/elements/1.1/">image/svg+xml</dc:format>
                            <dc:type xmlns:rdf="http://www.w3.org/1999/02/22-rdf-syntax-ns#" xmlns:dc="http://purl.org/dc/elements/1.1/" rdf:resource="http://purl.org/dc/dcmitype/StillImage"/>
                            <dc:title xmlns:dc="http://purl.org/dc/elements/1.1/"/>
                        </cc:Work>
                    </rdf:RDF>
                </metadata>
                <g transform="translate(-298.069,-415.574)" >
                    <g >
                        <g  gorn="0.64.0.0.2.0.0" label="Layer 1" id="layer1">
                            <g transform="matrix(0,-1,1,0,-118.922,729.23)" >
                                <g >
                                    <g  gorn="0.64.0.0.2.0.0.0.0.0" id="g13095">
                                        <g  gorn="0.64.0.0.2.0.0.0.0.0.0" id="g13076">
                                            <g transform="matrix(2.10758,0,0,2.11685,-327.119,-477.469)" >
                                                <g >
                                                    <g  gorn="0.64.0.0.2.0.0.0.0.0.0.0.0.0" id="g12969">
                                                        <g transform="matrix(0,1,-1,0,0,0)" >
                                                            <g >
                                                                <rect width="6.6954002" style="fill:#303030;stroke:none;stroke-width:0"  height="5.1108999" x="422.54199" gorn="0.64.0.0.2.0.0.0.0.0.0.0.0.0.0.0.0" id="rect30" y="-302.556"/>
                                                            </g>
                                                        </g>
                                                        <g transform="matrix(0,0.625,-0.625,0,305.274,422.434)" >
                                                            <g >
                                                                <polygon points="10.8859,4.34971 10.3099,4.92571 0.749254,4.92571 0.173254,4.34971 " style="fill:#1f1f1f;stroke-width:0"  gorn="0.64.0.0.2.0.0.0.0.0.0.0.0.0.1.0.0" id="polygon32"/>
                                                            </g>
                                                        </g>
                                                        <g transform="matrix(0,0.625,-0.625,0,305.274,422.434)" >
                                                            <g >
                                                                <polygon points="10.8859,12.5271 10.3099,11.9511 0.749254,11.9511 0.173254,12.5271 " style="fill:#1f1f1f;stroke-width:0"  gorn="0.64.0.0.2.0.0.0.0.0.0.0.0.0.2.0.0" id="polygon34"/>
                                                            </g>
                                                        </g>
                                                        <g transform="matrix(0,0.625,-0.625,0,305.274,422.434)" >
                                                            <g >
                                                                <polygon points="0.173254,12.5271 0.749254,11.9511 0.749254,4.92571 0.173254,4.34971 " style="fill:#000000;stroke-width:0"  gorn="0.64.0.0.2.0.0.0.0.0.0.0.0.0.3.0.0" id="polygon36"/>
                                                            </g>
                                                        </g>
                                                        <g transform="matrix(0,0.625,-0.625,0,305.274,422.434)" >
                                                            <g >
                                                                <polygon points="10.8859,12.5271 10.3099,11.9511 10.3099,4.92571 10.8859,4.34971 " style="fill:#3d3d3d;stroke-width:0"  gorn="0.64.0.0.2.0.0.0.0.0.0.0.0.0.4.0.0" id="polygon38"/>
                                                            </g>
                                                        </g>
                                                        <g transform="matrix(0,1,-1,0,0,0)" >
                                                            <g >
                                                                <circle style="fill:#1f1f1f;stroke:none;stroke-width:0"  gorn="0.64.0.0.2.0.0.0.0.0.0.0.0.0.5.0.0" cy="-298.52499" cx="423.62201" id="circle40" r="0.36000001"/>
                                                            </g>
                                                        </g>
                                                    </g>
                                                </g>
                                            </g>
                                            <g transform="translate(0,-1.07143)" >
                                                <g >
                                                    <g  gorn="0.64.0.0.2.0.0.0.0.0.0.1.0.0" id="g13034">
                                                        <g transform="matrix(0,1,-1,0,0,0)" >
                                                            <g >
                                                                <rect width="1.13386" style="fill:#8c8c8c;stroke:none;stroke-width:0"  height="3.1181099" x="430.03" gorn="0.64.0.0.2.0.0.0.0.0.0.1.0.0.0.0.0" id="rect14-8" y="-299.771"/>
                                                            </g>
                                                        </g>
                                                        <g transform="matrix(0,1,-1,0,0,0)" >
                                                            <g >
                                                                <rect width="1.13386" style="fill:#8c8c8c;stroke:none;stroke-width:0"  height="3.1181099" x="426.42999" gorn="0.64.0.0.2.0.0.0.0.0.0.1.0.0.1.0.0" id="rect13010" y="-299.771"/>
                                                            </g>
                                                        </g>
                                                        <g transform="matrix(0,1,-1,0,0,0)" >
                                                            <g >
                                                                <rect width="1.13386" style="fill:#8c8c8c;stroke:none;stroke-width:0"  height="3.1181099" x="422.82999" gorn="0.64.0.0.2.0.0.0.0.0.0.1.0.0.2.0.0" id="rect13030" y="-299.771"/>
                                                            </g>
                                                        </g>
                                                        <g transform="matrix(0,1,-1,0,0,0)" >
                                                            <g >
                                                                <rect width="1.13386" style="fill:#8c8c8c;stroke:none;stroke-width:0"  height="3.1181099" x="419.23001" gorn="0.64.0.0.2.0.0.0.0.0.0.1.0.0.3.0.0" id="rect13032" y="-299.771"/>
                                                            </g>
                                                        </g>
                                                    </g>
                                                </g>
                                            </g>
                                            <g transform="translate(13.8887,-1.07715)" >
                                                <g >
                                                    <g  gorn="0.64.0.0.2.0.0.0.0.0.0.2.0.0" id="g13066">
                                                        <g transform="matrix(0,1,-1,0,0,0)" >
                                                            <g >
                                                                <rect width="1.13386" style="fill:#8c8c8c;stroke:none;stroke-width:0"  height="3.1181099" x="430.03" gorn="0.64.0.0.2.0.0.0.0.0.0.2.0.0.0.0.0" id="rect13068" y="-299.771"/>
                                                            </g>
                                                        </g>
                                                        <g transform="matrix(0,1,-1,0,0,0)" >
                                                            <g >
                                                                <rect width="1.13386" style="fill:#8c8c8c;stroke:none;stroke-width:0"  height="3.1181099" x="426.42999" gorn="0.64.0.0.2.0.0.0.0.0.0.2.0.0.1.0.0" id="rect13070" y="-299.771"/>
                                                            </g>
                                                        </g>
                                                        <g transform="matrix(0,1,-1,0,0,0)" >
                                                            <g >
                                                                <rect width="1.13386" style="fill:#8c8c8c;stroke:none;stroke-width:0"  height="3.1181099" x="422.82999" gorn="0.64.0.0.2.0.0.0.0.0.0.2.0.0.2.0.0" id="rect13072" y="-299.771"/>
                                                            </g>
                                                        </g>
                                                        <g transform="matrix(0,1,-1,0,0,0)" >
                                                            <g >
                                                                <rect width="1.13386" style="fill:#8c8c8c;stroke:none;stroke-width:0"  height="3.1181099" x="419.23001" gorn="0.64.0.0.2.0.0.0.0.0.0.2.0.0.3.0.0" id="rect13074" y="-299.771"/>
                                                            </g>
                                                        </g>
                                                    </g>
                                                </g>
                                            </g>
                                        </g>
                                    </g>
                                </g>
                            </g>
                        </g>
                    </g>
                </g>
            </g>
        </g>
    </g>
    <g transform="translate(5.22155,0.595043)" >
        <g >
            <g  gorn="0.65.0.0" id="termblock_1x2-3.5mm">
                <g transform="matrix(-1,0,0,-1,22.11,19.843)" >
                    <g >
                        <g  gorn="0.65.0.0.0.0.0" id="g462">
                            <rect width="2.2679999" style="fill:#0c3878"  height="5.1020002" x="18.709" gorn="0.65.0.0.0.0.0.0" id="rect464" y="12.189"/>
                            <rect width="2.2679999" style="fill:#0c3878"  height="2.2679999" x="19.843" gorn="0.65.0.0.0.0.0.1" id="rect466" y="1.1339999"/>
                            <polygon points="1.134,0 1.134,13.606 0,13.606 0,15.874 1.134,15.874 1.134,18.425 20.976,18.425 20.976,15.874 19.843,15.874 19.843,13.606 20.976,13.606 20.976,0 " style="fill:#015dd9"  gorn="0.65.0.0.0.0.0.2" id="polygon468"/>
                            <circle style="fill:#b4b4b4"  gorn="0.65.0.0.0.0.0.3" cy="9.9210196" cx="6.0949998" id="circle470" r="3.6849999"/>
                            <circle style="fill:#b4b4b4"  gorn="0.65.0.0.0.0.0.4" cy="9.9210196" cx="16.016001" id="circle472" r="3.6849999"/>
                            <rect width="7.3699899" style="fill:#0c3878"  height="2.835" x="2.5510001" gorn="0.65.0.0.0.0.0.5" id="rect474" y="1.4170001"/>
                            <rect width="7.3699899" style="fill:#0c3878"  height="2.835" x="11.339" gorn="0.65.0.0.0.0.0.6" id="rect476" y="1.4170001"/>
                            <polygon points="4.677,19.843 4.677,18.089 7.51198,18.089 7.51198,19.843 14.598,19.843 14.598,18.089 17.433,18.089 17.433,19.843 20.976,19.843 20.976,17.008 1.134,17.008 1.134,19.843 " style="fill:#0c3878"  gorn="0.65.0.0.0.0.0.7" id="polygon478"/>
                            <rect width="8.5039902" style="fill:#8c8c8c"  height="1.701" x="1.8430001" gorn="0.65.0.0.0.0.0.8" id="rect480" y="17.805"/>
                            <rect width="8.5039902" style="fill:#8c8c8c"  height="1.701" x="11.764" gorn="0.65.0.0.0.0.0.9" id="rect482" y="17.805"/>
                            <path style="fill:#646464"  d="M 6.182,6.963 4.539,7.403 5.053,9.31997 2.42,10.026 c 0.008,0.282 0.039,0.565 0.115,0.849002 0.076,0.284002 0.191,0.545 0.325,0.793001 l 2.633,-0.706 0.514,1.917 1.643,-0.44 -0.514,-1.917 2.633,-0.706 C 9.76097,9.53503 9.73001,9.25099 9.65398,8.96803 9.57795,8.68507 9.46303,8.42198 9.32897,8.17402 L 6.696,8.87998 6.182,6.963 Z" gorn="0.65.0.0.0.0.0.10" id="path484"/>
                            <path style="fill:#646464"  d="m 13.498,8.36597 -0.44,1.643 1.917,0.514 -0.706,2.633 c 0.248,0.134 0.509,0.249 0.793001,0.325 0.284,0.076 0.568,0.107 0.849002,0.115 l 0.706,-2.633 1.917,0.514 0.44,-1.643 -1.917003,-0.514 0.706,-2.633 c -0.248,-0.134 -0.509,-0.249 -0.793001,-0.325 -0.284,-0.076 -0.568,-0.107 -0.849002,-0.115 L 15.414,8.87998 13.498,8.36597 Z" gorn="0.65.0.0.0.0.0.11" id="path486"/>
                        </g>
                    </g>
                </g>
            </g>
        </g>
    </g>
    <g transform="translate(29.7015,0.595043)" >
        <g >
            <g  gorn="0.66.0.0" id="g488">
                <g transform="matrix(-1,0,0,-1,22.11,19.843)" >
                    <g >
                        <g  gorn="0.66.0.0.0.0.0" id="g490">
                            <rect width="2.2679999" style="fill:#0c3878"  height="5.1020002" x="18.709" gorn="0.66.0.0.0.0.0.0" id="rect492" y="12.189"/>
                            <rect width="2.2679999" style="fill:#0c3878"  height="2.2679999" x="19.843" gorn="0.66.0.0.0.0.0.1" id="rect494" y="1.1339999"/>
                            <polygon points="1.134,0 1.134,13.606 0,13.606 0,15.874 1.134,15.874 1.134,18.425 20.976,18.425 20.976,15.874 19.843,15.874 19.843,13.606 20.976,13.606 20.976,0 " style="fill:#015dd9"  gorn="0.66.0.0.0.0.0.2" id="polygon496"/>
                            <circle style="fill:#b4b4b4"  gorn="0.66.0.0.0.0.0.3" cy="9.9210196" cx="6.0949998" id="circle498" r="3.6849999"/>
                            <circle style="fill:#b4b4b4"  gorn="0.66.0.0.0.0.0.4" cy="9.9210196" cx="16.016001" id="circle500" r="3.6849999"/>
                            <rect width="7.3699899" style="fill:#0c3878"  height="2.835" x="2.5510001" gorn="0.66.0.0.0.0.0.5" id="rect502" y="1.4170001"/>
                            <rect width="7.3699899" style="fill:#0c3878"  height="2.835" x="11.339" gorn="0.66.0.0.0.0.0.6" id="rect504" y="1.4170001"/>
                            <polygon points="4.677,19.843 4.677,18.089 7.51198,18.089 7.51198,19.843 14.598,19.843 14.598,18.089 17.433,18.089 17.433,19.843 20.976,19.843 20.976,17.008 1.134,17.008 1.134,19.843 " style="fill:#0c3878"  gorn="0.66.0.0.0.0.0.7" id="polygon506"/>
                            <rect width="8.5039902" style="fill:#8c8c8c"  height="1.701" x="1.8430001" gorn="0.66.0.0.0.0.0.8" id="rect508" y="17.805"/>
                            <rect width="8.5039902" style="fill:#8c8c8c"  height="1.701" x="11.764" gorn="0.66.0.0.0.0.0.9" id="rect510" y="17.805"/>
                            <path style="fill:#646464"  d="M 6.182,6.963 4.539,7.403 5.053,9.31997 2.42,10.026 c 0.008,0.282 0.039,0.565 0.115,0.849002 0.076,0.284002 0.191,0.545 0.325,0.793001 l 2.633,-0.706 0.514,1.917 1.643,-0.44 -0.514,-1.917 2.633,-0.706 C 9.76097,9.53503 9.73001,9.25099 9.65398,8.96803 9.57795,8.68507 9.46303,8.42198 9.32897,8.17402 L 6.696,8.87998 6.182,6.963 Z" gorn="0.66.0.0.0.0.0.10" id="path512"/>
                            <path style="fill:#646464"  d="m 13.498,8.36597 -0.44,1.643 1.917,0.514 -0.706,2.633 c 0.248,0.134 0.509,0.249 0.793001,0.325 0.284,0.076 0.568,0.107 0.849002,0.115 l 0.706,-2.633 1.917,0.514 0.44,-1.643 -1.917003,-0.514 0.706,-2.633 c -0.248,-0.134 -0.509,-0.249 -0.793001,-0.325 -0.284,-0.076 -0.568,-0.107 -0.849002,-0.115 L 15.414,8.87998 13.498,8.36597 Z" gorn="0.66.0.0.0.0.0.11" id="path514"/>
                        </g>
                    </g>
                </g>
            </g>
        </g>
    </g>
</svg>
