<?xml version='1.0' encoding='UTF-8' standalone='no'?>
<!-- Created with Fritzing (http://www.fritzing.org/) -->
<svg xmlns="http://www.w3.org/2000/svg" viewBox="0 0 59.76 38.9593" width="0.83in"  version="1.2" baseProfile="tiny" x="0in" y="0in" height="0.541102in">
    <desc>
        <referenceFile>Adafruit USB Mini-B Breakout_breadboard.svg</referenceFile>
    </desc>
    <desc >Fritzing breadboard generated by brd2svg</desc>
    <g gorn="0.1"  id="breadboard">
        <g gorn="0.1.0"  id="icon">
            <path stroke-width="0" fill="#014cb1"  d="M7.2,1.15937L52.56,1.15937A7.2,7.2,0,0,1,59.76,8.35934L59.76,31.7593A7.2,7.2,0,0,1,52.56,38.9593L7.2,38.9593A7.2,7.2,0,0,1,0,31.7593L0,8.35934A7.2,7.2,0,0,1,7.2,1.15937M34.6989,15.874a1.41732,1.41732,0,1,0,2.83465,0,1.41732,1.41732,0,1,0,-2.83465,0zM22.2265,15.874a1.41732,1.41732,0,1,0,2.83465,0,1.41732,1.41732,0,1,0,-2.83465,0zM14.0627,35.3593a1.41732,1.41732,0,1,0,2.83465,0,1.41732,1.41732,0,1,0,-2.83465,0zM21.2627,35.3593a1.41732,1.41732,0,1,0,2.83465,0,1.41732,1.41732,0,1,0,-2.83465,0zM28.4627,35.3593a1.41732,1.41732,0,1,0,2.83465,0,1.41732,1.41732,0,1,0,-2.83465,0zM35.6627,35.3593a1.41732,1.41732,0,1,0,2.83465,0,1.41732,1.41732,0,1,0,-2.83465,0zM42.8627,35.3593a1.41732,1.41732,0,1,0,2.83465,0,1.41732,1.41732,0,1,0,-2.83465,0zM3.65669,8.35934a3.54331,3.54331,0,1,0,7.08661,0,3.54331,3.54331,0,1,0,-7.08661,0zM49.0167,8.35934a3.54331,3.54331,0,1,0,7.08661,0,3.54331,3.54331,0,1,0,-7.08661,0z" stroke="none"/>
            <g >
                <title >layer 21</title>
                <g >
                    <title >text:D-</title>
                    <text stroke-width="0" font-size="3.3408" text-anchor="middle" fill="#ffffff"  stroke="none" x="37.08" y="32.3497" font-family="OCRA">D-</text>
                </g>
                <g >
                    <title >text:D+</title>
                    <text stroke-width="0" font-size="3.3408" text-anchor="middle" fill="#ffffff"  stroke="none" x="29.88" y="32.3497" font-family="OCRA">D+</text>
                </g>
                <g >
                    <title >text:ID</title>
                    <text stroke-width="0" font-size="3.3408" text-anchor="middle" fill="#ffffff"  stroke="none" x="22.68" y="32.3497" font-family="OCRA">ID</text>
                </g>
                <g >
                    <title >text:GND</title>
                    <text stroke-width="0" font-size="3.3408" text-anchor="middle" fill="#ffffff"  stroke="none" x="15.12" y="32.3497" font-family="OCRA">GND</text>
                </g>
                <g >
                    <title >text:5V</title>
                    <text stroke-width="0" font-size="3.3408" text-anchor="middle" fill="#ffffff"  stroke="none" x="44.28" y="32.3497" font-family="OCRA">5V</text>
                </g>
                <g >
                    <title >text:Mini-B
USB</title>
                    <g transform="matrix(1, 0, 0, 1, 8.928, 23.8393)" >
                        <g >
                            <g transform="rotate(270)" >
                                <g >
                                    <g transform="matrix(1, 0, 0, 1, 0, -2.088)" >
                                        <g >
                                            <text stroke-width="0" font-size="4.176" text-anchor="middle" fill="#ffffff"  stroke="none" x="0" y="0" font-family="OCRA">Mini-B</text>
                                        </g>
                                    </g>
                                    <g transform="matrix(1, 0, 0, 1, 0, 2.088)" >
                                        <g >
                                            <text stroke-width="0" font-size="4.176" text-anchor="middle" fill="#ffffff"  stroke="none" x="0" y="0" font-family="OCRA">USB</text>
                                        </g>
                                    </g>
                                </g>
                            </g>
                        </g>
                    </g>
                </g>
                <g >
                    <title >element:FID1</title>
                    <g >
                        <title >package:FIDUCIAL_1MM</title>
                    </g>
                </g>
                <g >
                    <title >element:FID2</title>
                    <g >
                        <title >package:FIDUCIAL_1MM</title>
                    </g>
                </g>
                <g >
                    <title >element:JP2</title>
                    <g >
                        <title >package:1X05_ROUND_70</title>
                    </g>
                </g>
                <g >
                    <title >element:U$1</title>
                    <g >
                        <title >package:MOUNTINGHOLE_2.5_PLATED</title>
                        <circle stroke-width="0.576" r="5.66929" fill="none"  stroke="white" cx="7.2" cy="8.35934"/>
                    </g>
                </g>
                <g >
                    <title >element:U$2</title>
                    <g >
                        <title >package:MOUNTINGHOLE_2.5_PLATED</title>
                        <circle stroke-width="0.576" r="5.66929" fill="none"  stroke="white" cx="52.56" cy="8.35934"/>
                    </g>
                </g>
                <g >
                    <title >element:U$4</title>
                    <g >
                        <title >package:ADAFRUIT_3.5MM</title>
                    </g>
                </g>
                <g >
                    <title >element:X1</title>
                    <g >
                        <title >package:USB-MINIB_LARGER</title>
                        <line x1="40.9351" x2="40.9351" stroke-width="0.576"  stroke="white" stroke-linecap="round" y1="11.3386" y2="18.9922"/>
                        <line x1="18.8249" x2="18.8249" stroke-width="0.576"  stroke="white" stroke-linecap="round" y1="18.9922" y2="11.3386"/>
                        <line x1="38.9508" x2="35.8327" stroke-width="0.576"  stroke="white" stroke-linecap="round" y1="26.0788" y2="26.0788"/>
                        <line x1="23.9273" x2="20.8092" stroke-width="0.576"  stroke="white" stroke-linecap="round" y1="26.0788" y2="26.0788"/>
                    </g>
                </g>
            </g>
            <rect stroke-width="0" gorn="0.1.0.2" width="2.83465" rx="1.41732" ry="1.41732" fill="#9A916C"  id="connector5pin" stroke="none" x="6.86268" y="33.582" height="2.83465"/>
            <rect stroke-width="0" gorn="0.1.0.3" width="2.83465" rx="1.41732" ry="1.41732" fill="#9A916C"  id="connector6pin" stroke="none" x="49.3427" y="33.582" height="2.83465"/>
            <circle stroke-width="1.10268" gorn="0.1.0.4" r="1.96866" fill="none"  id="connector7pin" stroke="#9A916C" cx="15.48" connectorname="GND" cy="35.3593"/>
            <rect stroke-width="1.10268" width="3.93732" fill="none"  stroke="#9A916C" x="13.5113" y="33.3907" height="3.93732"/>
            <circle stroke-width="1.10268" gorn="0.1.0.6" r="1.96866" fill="none"  id="connector8pin" stroke="#9A916C" cx="22.68" connectorname="ID" cy="35.3593"/>
            <circle stroke-width="1.10268" gorn="0.1.0.7" r="1.96866" fill="none"  id="connector9pin" stroke="#9A916C" cx="29.88" connectorname="D+" cy="35.3593"/>
            <circle stroke-width="1.10268" gorn="0.1.0.8" r="1.96866" fill="none"  id="connector10pin" stroke="#9A916C" cx="37.08" connectorname="D-" cy="35.3593"/>
            <circle stroke-width="1.10268" gorn="0.1.0.9" r="1.96866" fill="none"  id="connector11pin" stroke="#9A916C" cx="44.28" connectorname="VBUS" cy="35.3593"/>
            <circle stroke-width="1.44" gorn="0.1.0.10" r="4.26331" fill="none"  id="connector12pin" stroke="#9A916C" cx="7.2" connectorname="P$1" cy="8.35934"/>
            <circle stroke-width="1.44" gorn="0.1.0.11" r="4.26331" fill="none"  id="connector13pin" stroke="#9A916C" cx="52.56" connectorname="P$1" cy="8.35934"/>
            <rect stroke-width="0" gorn="0.1.0.12" width="1.41732" fill="#9A916C"  id="connector14pin" stroke="none" x="29.1713" y="21.2882" height="6.54236"/>
            <rect stroke-width="0" gorn="0.1.0.13" width="1.41732" fill="#9A916C"  id="connector15pin" stroke="none" x="31.4391" y="21.2882" height="6.54236"/>
            <rect stroke-width="0" gorn="0.1.0.14" width="1.41732" fill="#9A916C"  id="connector16pin" stroke="none" x="24.6359" y="21.2882" height="6.54236"/>
            <g transform="matrix(-1, 0, 0, -1, 84.7051, 14.7401)" >
                <g >
                    <rect stroke-width="0" gorn="0.1.0.15.0.0" width="7.2" fill="#9A916C"  id="connector17pin" stroke="none" x="38.7524" y="1.97008" height="10.8"/>
                </g>
            </g>
            <g transform="matrix(-1, 0, 0, -1, 84.7051, 45.9212)" >
                <g >
                    <rect stroke-width="0" gorn="0.1.0.16.0.0" width="5.66929" fill="#9A916C"  id="connector18pin" stroke="none" x="39.5178" y="19.5591" height="6.80315"/>
                </g>
            </g>
            <g transform="matrix(-1, 0, 0, -1, 34.8151, 45.9212)" >
                <g >
                    <rect stroke-width="0" gorn="0.1.0.17.0.0" width="5.66929" fill="#9A916C"  id="connector19pin" stroke="none" x="14.5729" y="19.5591" height="6.80315"/>
                </g>
            </g>
            <g transform="matrix(-1, 0, 0, -1, 34.8151, 14.7401)" >
                <g >
                    <rect stroke-width="0" gorn="0.1.0.18.0.0" width="7.2" fill="#9A916C"  id="connector20pin" stroke="none" x="13.8076" y="1.97008" height="10.8"/>
                </g>
            </g>
            <rect stroke-width="0" gorn="0.1.0.19" width="1.41732" fill="#9A916C"  id="connector21pin" stroke="none" x="26.9036" y="21.2882" height="6.54236"/>
            <rect stroke-width="0" gorn="0.1.0.20" width="1.41732" fill="#9A916C"  id="connector22pin" stroke="none" x="33.7068" y="21.2882" height="6.54236"/>
        </g>
        <g transform="matrix(1, 0, 0, 1, 46.9275, 18.9734)" >
            <g gorn="0.1.1.0"  id="adafruit_3.5mm">
                <path fill="#DCDCDC"  d="M9.77299,4.306c-0.032,-0.2,-0.141,-0.257,-0.403,-0.341C9.171,3.901,7.83698,3.476,7.83698,3.476s-0.930002,-0.351,-1.619,0.146C6.125,3.688,6.029,3.765,5.932,3.846C6.014,3.749,6.09,3.653,6.156,3.56c0.495,-0.69,0.143,-1.619,0.143,-1.619S5.872,0.607,5.807,0.408c-0.0850003,-0.262,-0.142,-0.37,-0.342,-0.402S5.177,0.06,5.016,0.283C4.894,0.453,4.077,1.59,4.077,1.59S3.456,2.367,3.716,3.176C3.75,3.285,3.793,3.4,3.841,3.517C3.774,3.409,3.706,3.308,3.638,3.215C3.135,2.531,2.142,2.579,2.142,2.579s-1.4,-0.006,-1.61,-0.006c-0.275,-0.001,-0.396,0.02,-0.488,0.201C-0.047,2.955,0.007,3.065,0.17,3.287c0.124,0.169,0.952999,1.297,0.952999,1.297s0.546,0.830002,1.395,0.833998c0.114,0,0.236,-0.005,0.362,-0.014c-0.122,0.03,-0.24,0.064,-0.348,0.1C1.726,5.771,1.465,6.73,1.465,6.73S1.027,8.05997,0.961999,8.25898C0.876002,8.51998,0.859003,8.64202,1.002,8.78501c0.144,0.143,0.265,0.126,0.526,0.04C1.727,8.76002,3.056,8.31902,3.056,8.31902s0.958003,-0.263,1.224,-1.07c0.036,-0.108,0.069,-0.225,0.1,-0.348C4.371,7.027,4.366,7.149,4.367,7.263c0.005,0.849002,0.835999,1.394,0.835999,1.394s1.13,0.826999,1.298,0.950998C6.724,9.76997,6.834,9.82397,7.015,9.73202c0.181,-0.0920002,0.201,-0.213,0.2,-0.488c-0.001,-0.21,-0.009,-1.61,-0.009,-1.61s0.047,-0.993002,-0.639,-1.495C6.475,6.072,6.373,6.004,6.266,5.937c0.117,0.047,0.232,0.09,0.34,0.124C7.416,6.319,8.19,5.697,8.19,5.697s1.136,-0.819,1.306,-0.940997C9.71899,4.595,9.80503,4.507,9.77299,4.306zM4.951,3.275C5.103,3.299,5.179,3.624,5.12,4.001S4.889,4.663,4.736,4.639S4.507,4.29,4.567,3.914C4.626,3.537,4.798,3.251,4.951,3.275zM2.995,4.274c0.07,-0.138,0.402,-0.11,0.742003,0.063C4.077,4.51,4.295,4.762,4.225,4.9S3.823,5.01,3.483,4.837C3.143,4.664,2.925,4.412,2.995,4.274zM4.026,6.152c-0.269,0.27,-0.577,0.4,-0.686,0.291C3.231,6.334,3.36,6.027,3.63,5.757c0.269,-0.27,0.576,-0.4,0.686,-0.291C4.425,5.575,4.295,5.882,4.026,6.152zM5.51,6.785c-0.138,0.07,-0.39,-0.148,-0.563,-0.487c-0.174,-0.34,-0.203,-0.673,-0.065,-0.742997s0.39,0.148,0.563,0.487C5.618,6.382,5.647,6.714,5.51,6.785zM5.867,5.212C5.49,5.272,5.166,5.197,5.141,5.044C5.117,4.891,5.403,4.719,5.779,4.659c0.377,-0.06,0.701,0.015,0.725998,0.168C6.529,4.98,6.244,5.152,5.867,5.212z"/>
            </g>
        </g>
        <g transform="matrix(1, 0, 0, 1, 15.668, 0.50128)" >
            <g gorn="0.1.2.0"  id="usb-minib_larger">
                <g transform="matrix(-1, 0, 0, -1, 28.424, 26.828)" >
                    <g >
                        <rect gorn="0.1.2.0.0.0.0" width="4.991" fill="#CCCCCC"  id="rect5568" x="23.433" y="1.044" height="6.64"/>
                        <rect gorn="0.1.2.0.0.0.1" width="28.424" fill="#CCCCCC"  id="rect5570" x="0" y="16.621" height="6.64"/>
                        <rect gorn="0.1.2.0.0.0.2" width="4.991" fill="#CCCCCC"  id="rect5580" x="0" y="1.021" height="6.64"/>
                        <rect gorn="0.1.2.0.0.0.3" width="1.163" fill="#B3B3B3"  id="rect5588" x="9.288" y="0.001" height="2.769"/>
                        <g transform="matrix(1.81373, 0, 0, 1.81373, 27.0045, 167.847)" >
                            <g gorn="0.1.2.0.0.0.4.0"  id="g5592">
                                <rect gorn="0.1.2.0.0.0.4.0.0" width="0.642" fill="#B3B3B3"  id="rect5594" x="-8.57398" y="-92.5423" height="1.527"/>
                            </g>
                        </g>
                        <g transform="matrix(1.81373, 0, 0, 1.81373, 27.0045, 167.847)" >
                            <g gorn="0.1.2.0.0.0.5.0"  id="g5598">
                                <rect gorn="0.1.2.0.0.0.5.0.0" width="0.642" fill="#B3B3B3"  id="rect5600" x="-7.38202" y="-92.5423" height="1.527"/>
                            </g>
                        </g>
                        <g transform="matrix(1.81373, 0, 0, 1.81373, 27.0045, 167.847)" >
                            <g gorn="0.1.2.0.0.0.6.0"  id="g5604">
                                <rect gorn="0.1.2.0.0.0.6.0.0" width="0.642" fill="#B3B3B3"  id="rect5606" x="-6.188" y="-92.5423" height="1.527"/>
                            </g>
                        </g>
                        <g transform="matrix(1.81373, 0, 0, 1.81373, 27.0045, 167.847)" >
                            <g gorn="0.1.2.0.0.0.7.0"  id="g5610">
                                <rect gorn="0.1.2.0.0.0.7.0.0" width="0.641" fill="#B3B3B3"  id="rect5612" x="-4.995" y="-92.5423" height="1.527"/>
                            </g>
                        </g>
                        <g transform="matrix(1.8737, 0, 0, 1.8737, 27.3106, 173.295)" >
                            <g gorn="0.1.2.0.0.0.8.0"  id="g5616">
                                <rect gorn="0.1.2.0.0.0.8.0.0" width="9.18403" fill="#333333"  id="rect5622" x="-11.589" y="-91.1657" height="12.193"/>
                                <path gorn="0.1.2.0.0.0.8.0.1" fill="#E6E6E6"  d="M-1.441,-78.1697l0,-12.997l-3.146,0l0,0.326l-4.822,0l0,-0.326l-3.145,0l0,12.997L-1.441,-78.1697L-1.441,-78.1697zM-3.3,-84.5402c0,-0.071,0.056,-0.128,0.128,-0.128l0.373,0c0.071,0,0.128,0.057,0.128,0.128l0,3.405c0,0.071,-0.057,0.128,-0.128,0.128l-0.373,0c-0.072,0,-0.128,-0.057,-0.128,-0.128L-3.3,-84.5402zM-5.422,-79.4779l-0.09,0c-0.072,0,-0.131,-0.057,-0.137,-0.128l-0.288,-5.077c-0.004,-0.071,-0.065,-0.128,-0.136,-0.128l-1.879,0c-0.071,0,-0.132,0.057,-0.136,0.128l-0.289,5.077c-0.005,0.071,-0.065,0.128,-0.137,0.128l-0.0889999,0c-0.071,0,-0.125,-0.057,-0.121,-0.128l0.368,-6.421c0.004,-0.071,0.065,-0.128,0.136,-0.128l2.415,0c0.071,0,0.132,0.057,0.137,0.128l0.367,6.421C-5.297,-79.5348,-5.352,-79.4779,-5.422,-79.4779zM-3.495,-80.0107l-0.441,0.442c-0.051,0.05,-0.148,0.0910001,-0.22,0.0910001l-0.308,0c-0.07,0,-0.128,-0.057,-0.128,-0.128l0,-4.935c0,-0.071,0.058,-0.128,0.128,-0.128l0.308,0c0.072,0,0.128,0.057,0.128,0.128l0,3.687c0,0.071,0.041,0.169,0.0920002,0.219l0.441,0.442C-3.446,-80.1418,-3.446,-80.0597,-3.495,-80.0107zM-10.629,-89.2908c0,-0.071,0.057,-0.128,0.128,-0.128l6.743,0c0.07,0,0.128,0.057,0.128,0.128l0,0.427c0,0.071,-0.058,0.128,-0.128,0.128l-6.743,0c-0.071,0,-0.128,-0.057,-0.128,-0.128L-10.629,-89.2908zM-10.641,-80.1907l0.442,-0.442c0.051,-0.05,0.0910001,-0.148,0.0910001,-0.219l0,-3.687c0,-0.071,0.057,-0.128,0.128,-0.128l0.309,0c0.07,0,0.128,0.057,0.128,0.128l0,4.935c0,0.071,-0.058,0.128,-0.128,0.128L-9.97999,-79.4758c-0.071,0,-0.168,-0.041,-0.219,-0.0910001l-0.442,-0.442C-10.69,-80.0597,-10.69,-80.1418,-10.641,-80.1907L-10.641,-80.1907zM-11.466,-84.5402c0,-0.071,0.056,-0.128,0.128,-0.128l0.373,0c0.071,0,0.128,0.057,0.128,0.128l0,3.405c0,0.071,-0.057,0.128,-0.128,0.128l-0.373,0c-0.072,0,-0.128,-0.057,-0.128,-0.128L-11.466,-84.5402L-11.466,-84.5402z" id="path5628" connector-curvature="0"/>
                                <polygon gorn="0.1.2.0.0.0.8.0.2" fill="#F2F2F2"  id="polygon5630" points="-12.555,-91.1743,-11.671,-91.1743,-12.321,-78.169,-12.555,-78.169"/>
                                <polyline gorn="0.1.2.0.0.0.8.0.3" fill="#F2F2F2"  id="polygon5632_1_" points="-1.442,-78.169,-2.095,-91.1743,-1.441,-91.1743,-1.441,-78.169"/>
                            </g>
                        </g>
                    </g>
                </g>
            </g>
        </g>
    </g>
</svg>
