<?xml version='1.0' encoding='UTF-8' standalone='no'?>
<!-- Created with Fritzing (http://www.fritzing.org/) -->
<svg xmlns="http://www.w3.org/2000/svg" id="svg2" width="0.7in" height="0.6in" version="1.2" gorn="0" x="0in" viewBox="0 0 50.4 43.2"  y="0in">
    <desc>
        <referenceFile>Adafruit AVR 6-ISP Breakout_breadboard.svg</referenceFile>
    </desc>
    <metadata id="metadata134" >
        <rdf:RDF xmlns:rdf="http://www.w3.org/1999/02/22-rdf-syntax-ns#">
            <cc:Work rdf:about="" xmlns:rdf="http://www.w3.org/1999/02/22-rdf-syntax-ns#" xmlns:cc="http://creativecommons.org/ns#">
                <dc:format xmlns:dc="http://purl.org/dc/elements/1.1/">image/svg+xml</dc:format>
                <dc:type rdf:resource="http://purl.org/dc/dcmitype/StillImage" xmlns:dc="http://purl.org/dc/elements/1.1/" xmlns:rdf="http://www.w3.org/1999/02/22-rdf-syntax-ns#"/>
                <dc:title xmlns:dc="http://purl.org/dc/elements/1.1/"/>
            </cc:Work>
        </rdf:RDF>
    </metadata>
    <defs id="defs132" />
    <desc id="desc4" >Fritzing breadboard generated by brd2svg</desc>
    <g id="breadboard" gorn="0.3" >
        <g id="icon" gorn="0.3.0" >
            <path d="M0,7.2A7.2,7.2,0,0,1,7.2,0L43.2,0A7.2,7.2,0,0,1,50.4,7.2L50.4,36A7.2,7.2,0,0,1,43.2,43.2L7.2,43.2A7.2,7.2,0,0,1,0,36L0,7.2M19.9644,14.4a1.27559,1.27559,0,1,0,2.55118,0,1.27559,1.27559,0,1,0,-2.55118,0zM27.8844,14.4a1.27559,1.27559,0,1,0,2.55118,0,1.27559,1.27559,0,1,0,-2.55118,0zM20.6844,21.6a1.27559,1.27559,0,1,0,2.55118,0,1.27559,1.27559,0,1,0,-2.55118,0zM27.1644,21.6a1.27559,1.27559,0,1,0,2.55118,0,1.27559,1.27559,0,1,0,-2.55118,0zM19.9644,28.8a1.27559,1.27559,0,1,0,2.55118,0,1.27559,1.27559,0,1,0,-2.55118,0zM27.8844,28.8a1.27559,1.27559,0,1,0,2.55118,0,1.27559,1.27559,0,1,0,-2.55118,0zM2.16,28.8a1.44,1.44,0,1,0,2.88,0,1.44,1.44,0,1,0,-2.88,0zM2.16,21.6a1.44,1.44,0,1,0,2.88,0,1.44,1.44,0,1,0,-2.88,0zM2.16,14.4a1.44,1.44,0,1,0,2.88,0,1.44,1.44,0,1,0,-2.88,0zM45.36,14.4a1.44,1.44,0,1,0,2.88,0,1.44,1.44,0,1,0,-2.88,0zM45.36,21.6a1.44,1.44,0,1,0,2.88,0,1.44,1.44,0,1,0,-2.88,0zM45.36,28.8a1.44,1.44,0,1,0,2.88,0,1.44,1.44,0,1,0,-2.88,0z" id="path8" fill="#014cb1" gorn="0.3.0.0" stroke="none"  stroke-width="0"/>
            <g id="g10" gorn="0.3.0.1" >
                <title id="title12" >layer 21</title>
                <circle id="circle14" cy="6.48" cx="19.44" fill="none" gorn="0.3.0.1.1" stroke="white" r="2.16"  stroke-width="1.152"/>
                <g id="g16" gorn="0.3.0.1.2" >
                    <title id="title18" >text:MISO</title>
                    <text id="text20" font-family="OCRA" text-anchor="start" fill="#ffffff" gorn="0.3.0.1.2.1" stroke="none" x="0.72" font-size="4.176"  stroke-width="0" y="11.448">MISO</text>
                </g>
                <g id="g22" gorn="0.3.0.1.3" >
                    <title id="title24" >text:SCK</title>
                    <g transform="matrix(1, 0, 0, 1, 11.448, 25.92)" >
                        <g id="g26" gorn="0.3.0.1.3.1.0" >
                            <g transform="rotate(270)" >
                                <g id="g28" gorn="0.3.0.1.3.1.0.0.0" >
                                    <text id="text30" font-family="OCRA" text-anchor="start" fill="#ffffff" gorn="0.3.0.1.3.1.0.0.0.0" stroke="none" x="0" font-size="4.176"  stroke-width="0" y="0">SCK</text>
                                </g>
                            </g>
                        </g>
                    </g>
                </g>
                <g id="g32" gorn="0.3.0.1.4" >
                    <title id="title34" >text:RST</title>
                    <text id="text36" font-family="OCRA" text-anchor="start" fill="#ffffff" gorn="0.3.0.1.4.1" stroke="none" x="0.72" font-size="4.176"  stroke-width="0" y="35.928">RST</text>
                </g>
                <g id="g38" gorn="0.3.0.1.5" >
                    <title id="title40" >text:MOSI</title>
                    <g transform="matrix(1, 0, 0, 1, 43.128, 28.08)" >
                        <g id="g42" gorn="0.3.0.1.5.1.0" >
                            <g transform="rotate(270)" >
                                <g id="g44" gorn="0.3.0.1.5.1.0.0.0" >
                                    <text id="text46" font-family="OCRA" text-anchor="start" fill="#ffffff" gorn="0.3.0.1.5.1.0.0.0.0" stroke="none" x="0" font-size="4.176"  stroke-width="0" y="0">MOSI</text>
                                </g>
                            </g>
                        </g>
                    </g>
                </g>
                <g id="g48" gorn="0.3.0.1.6" >
                    <title id="title50" >text:VCC</title>
                    <text id="text52" font-family="OCRA" text-anchor="end" fill="#ffffff" gorn="0.3.0.1.6.1" stroke="none" x="50.4" font-size="4.176"  stroke-width="0" y="11.448">VCC</text>
                </g>
                <g id="g54" gorn="0.3.0.1.7" >
                    <title id="title56" >text:GND</title>
                    <text id="text58" font-family="OCRA" text-anchor="end" fill="#ffffff" gorn="0.3.0.1.7.1" stroke="none" x="50.4" font-size="4.176"  stroke-width="0" y="35.928">GND</text>
                </g>
                <g id="g60" gorn="0.3.0.1.8" >
                    <title id="title62" >element:ISP1</title>
                    <g id="g64" gorn="0.3.0.1.8.1" >
                        <title id="title66" >package:AVRISP-BOX</title>
                        <line id="line68" gorn="0.3.0.1.8.1.1" stroke-linecap="round" x1="12.7276" stroke="white" y1="0.0566929" x2="37.6724"  y2="0.0566929" stroke-width="0.36"/>
                        <line id="line70" gorn="0.3.0.1.8.1.2" stroke-linecap="round" x1="37.6724" stroke="white" y1="0.0566929" x2="37.6724"  y2="43.1433" stroke-width="0.36"/>
                        <line id="line72" gorn="0.3.0.1.8.1.3" stroke-linecap="round" x1="37.6724" stroke="white" y1="43.1433" x2="12.7276"  y2="43.1433" stroke-width="0.36"/>
                        <line id="line74" gorn="0.3.0.1.8.1.4" stroke-linecap="round" x1="12.7276" stroke="white" y1="43.1433" x2="12.7276"  y2="25.852" stroke-width="0.36"/>
                        <line id="line76" gorn="0.3.0.1.8.1.5" stroke-linecap="round" x1="12.7276" stroke="white" y1="25.852" x2="12.7276"  y2="17.348" stroke-width="0.36"/>
                        <line id="line78" gorn="0.3.0.1.8.1.6" stroke-linecap="round" x1="12.7276" stroke="white" y1="17.348" x2="12.7276"  y2="0.0566929" stroke-width="0.36"/>
                        <line id="line80" gorn="0.3.0.1.8.1.7" stroke-linecap="round" x1="12.7276" stroke="white" y1="17.348" x2="15.8457"  y2="17.348" stroke-width="0.36"/>
                        <line id="line82" gorn="0.3.0.1.8.1.8" stroke-linecap="round" x1="15.8457" stroke="white" y1="17.348" x2="15.8457"  y2="25.852" stroke-width="0.36"/>
                        <line id="line84" gorn="0.3.0.1.8.1.9" stroke-linecap="round" x1="15.8457" stroke="white" y1="25.852" x2="12.7276"  y2="25.852" stroke-width="0.36"/>
                        <line id="line86" gorn="0.3.0.1.8.1.10" stroke-linecap="round" x1="16.1292" stroke="white" y1="3.1748" x2="34.2708"  y2="3.1748" stroke-width="0.36"/>
                        <line id="line88" gorn="0.3.0.1.8.1.11" stroke-linecap="round" x1="34.2708" stroke="white" y1="3.1748" x2="34.2708"  y2="40.0252" stroke-width="0.36"/>
                        <line id="line90" gorn="0.3.0.1.8.1.12" stroke-linecap="round" x1="34.2708" stroke="white" y1="40.0252" x2="16.1292"  y2="40.0252" stroke-width="0.36"/>
                        <line id="line92" gorn="0.3.0.1.8.1.13" stroke-linecap="round" x1="16.1292" stroke="white" y1="40.0252" x2="16.1292"  y2="3.1748" stroke-width="0.36"/>
                    </g>
                </g>
                <g id="g94" gorn="0.3.0.1.9" >
                    <title id="title96" >element:JP1</title>
                    <g id="g98" gorn="0.3.0.1.9.1" >
                        <title id="title100" >package:1X03-CLEANBIG</title>
                    </g>
                </g>
                <g id="g102" gorn="0.3.0.1.10" >
                    <title id="title104" >element:JP2</title>
                    <g id="g106" gorn="0.3.0.1.10.1" >
                        <title id="title108" >package:1X03-CLEANBIG</title>
                    </g>
                </g>
                <g id="g110" gorn="0.3.0.1.11" >
                    <title id="title112" >element:U$1</title>
                    <g id="g114" gorn="0.3.0.1.11.1" >
                        <title id="title116" >package:ADAFRUIT_3.5MM</title>
                    </g>
                </g>
            </g>
            <circle id="connector0pin" cy="14.4" cx="21.24" fill="none" gorn="0.3.0.2" stroke="#9A916C" r="1.92359"  stroke-width="1.296" connectorname="MISO"/>
            <circle id="connector1pin" cy="14.4" cx="29.16" fill="none" gorn="0.3.0.3" stroke="#9A916C" r="1.92359"  stroke-width="1.296" connectorname="VCC"/>
            <circle id="connector2pin" cy="21.6" cx="21.96" fill="none" gorn="0.3.0.4" stroke="#9A916C" r="1.92359"  stroke-width="1.296" connectorname="SCK"/>
            <circle id="connector3pin" cy="21.6" cx="28.44" fill="none" gorn="0.3.0.5" stroke="#9A916C" r="1.92359"  stroke-width="1.296" connectorname="MOSI"/>
            <circle id="connector4pin" cy="28.8" cx="21.24" fill="none" gorn="0.3.0.6" stroke="#9A916C" r="1.92359"  stroke-width="1.296" connectorname="RST"/>
            <circle id="connector5pin" cy="28.8" cx="29.16" fill="none" gorn="0.3.0.7" stroke="#9A916C" r="1.92359"  stroke-width="1.296" connectorname="GND"/>
            <circle id="connector6pin" cy="28.8" cx="3.6" fill="none" gorn="0.3.0.8" stroke="#9A916C" r="2.088"  stroke-width="1.296" connectorname="RST"/>
            <circle id="connector7pin" cy="21.6" cx="3.6" fill="none" gorn="0.3.0.9" stroke="#9A916C" r="2.088"  stroke-width="1.296" connectorname="SCK"/>
            <circle id="connector8pin" cy="14.4" cx="3.6" fill="none" gorn="0.3.0.10" stroke="#9A916C" r="2.088"  stroke-width="1.296" connectorname="MISO"/>
            <circle id="connector9pin" cy="14.4" cx="46.8" fill="none" gorn="0.3.0.11" stroke="#9A916C" r="2.088"  stroke-width="1.296" connectorname="VCC"/>
            <circle id="connector10pin" cy="21.6" cx="46.8" fill="none" gorn="0.3.0.12" stroke="#9A916C" r="2.088"  stroke-width="1.296" connectorname="MOSI"/>
            <circle id="connector11pin" cy="28.8" cx="46.8" fill="none" gorn="0.3.0.13" stroke="#9A916C" r="2.088"  stroke-width="1.296" connectorname="GND"/>
        </g>
    </g>
    <g transform="matrix(0,0.8,-0.8,0,37.76299,-2.151178e-6)" >
        <g id="g4334" gorn="0.4.0" >
            <rect id="bgnd" width="53.280003" height="31.357502" gorn="0.4.0.0" style="fill:#1a1a1a;stroke:none;stroke-width:0" x="0"  y="0.033200264"/>
            <rect id="top inset" width="54.000004" height="3.4974899" gorn="0.4.0.1" style="fill:#2a2a29;stroke:none;stroke-width:0" x="0"  y="0.033200264"/>
            <rect id="bottom inset" width="53.910004" height="3.4974899" gorn="0.4.0.2" style="fill:#595959;stroke:none;stroke-width:0" x="0"  y="27.893215"/>
            <path d="m 1.8652344e-6,0.03319864 0,31.35750336 L 3.4974919,27.893212 l 0,-24.3625234 z" id="left inset" gorn="0.4.0.3" style="fill:#373737;stroke:none;stroke-width:0" />
            <path d="m 53.987493,0.04997454 0,31.35750346 -3.49749,-3.49749 0,-24.3625235 z" id="right inset" gorn="0.4.0.4" style="fill:#474747;stroke:none;stroke-width:0" />
            <rect id="top border" width="54.000004" height="2.2474799" gorn="0.4.0.5" style="fill:#404040;stroke:none;stroke-width:0" x="0"  y="-1.9073486e-006"/>
            <rect id="bottom border" width="53.730003" height="2.2474799" gorn="0.4.0.6" style="fill:#404040;stroke:none;stroke-width:0" x="0"  y="29.143219"/>
            <rect id="left border" width="2.2474799" height="31.357502" gorn="0.4.0.7" style="fill:#404040;stroke:none;stroke-width:0" x="0"  y="0.033200264"/>
            <rect id="right border" width="2.2474799" height="31.357502" gorn="0.4.0.8" style="fill:#404040;stroke:none;stroke-width:0" x="51.740021"  y="0.04997611"/>
            <rect id="upper connector bgnd" width="4.7487502" height="4.7487502" gorn="0.4.0.9" style="fill:#141414;stroke:none;stroke-width:0" x="15.625622"  y="8.6707277"/>
            <rect id="connector9pin-4" width="2.8737502" height="2.8737502" gorn="0.4.0.10" style="fill:#8c8663;stroke:none;stroke-width:0" x="16.563152"  y="9.6082277"/>
            <rect id="upper connector top inset" width="2.8737502" height="0.69749999" gorn="0.4.0.11" style="fill:#b8af82;stroke:none;stroke-width:0" x="16.563152"  y="9.6082277"/>
            <rect id="upper connector bottom inset" width="2.8737502" height="0.69749999" gorn="0.4.0.12" style="fill:#5e5b43;stroke:none;stroke-width:0" x="16.563152"  y="11.784479"/>
            <path d="m 16.563152,9.6082271 0,2.8737499 0.6975,-0.6975 0,-1.47875 z" id="upper connector left inset" gorn="0.4.0.13" style="fill:#9a916c;stroke:none;stroke-width:0" />
            <path d="m 19.436852,9.6082271 0,2.8737499 -0.6975,-0.6975 0,-1.47875 z" id="upper connector right inset" gorn="0.4.0.14" style="fill:#9a916c;stroke:none;stroke-width:0" />
            <rect id="rect22" width="4.7487502" height="4.7487502" gorn="0.4.0.15" style="fill:#141414;stroke:none;stroke-width:0" x="24.625624"  y="8.6707277"/>
            <rect id="connector8pin-0" width="2.8737502" height="2.8737502" gorn="0.4.0.16" style="fill:#8c8663;stroke:none;stroke-width:0" x="25.563152"  y="9.6082277"/>
            <rect id="rect25-4" width="2.8737502" height="0.69749999" gorn="0.4.0.17" style="fill:#b8af82;stroke:none;stroke-width:0" x="25.563152"  y="9.6082277"/>
            <rect id="rect27-4" width="2.8737502" height="0.69749999" gorn="0.4.0.18" style="fill:#5e5b43;stroke:none;stroke-width:0" x="25.563152"  y="11.784479"/>
            <path d="m 25.563152,9.6082271 0,2.8737499 0.6975,-0.6975 0,-1.47875 z" id="path29" gorn="0.4.0.19" style="fill:#9a916c;stroke:none;stroke-width:0" />
            <path d="m 28.436852,9.6082271 0,2.8737499 -0.6975,-0.6975 0,-1.47875 z" id="path31" gorn="0.4.0.20" style="fill:#9a916c;stroke:none;stroke-width:0" />
            <rect id="rect33" width="4.7487502" height="4.7487502" gorn="0.4.0.21" style="fill:#141414;stroke:none;stroke-width:0" x="33.625622"  y="8.6707277"/>
            <rect id="connector7pin-3" width="2.8737502" height="2.8737502" gorn="0.4.0.22" style="fill:#8c8663;stroke:none;stroke-width:0" x="34.563152"  y="9.6082277"/>
            <rect id="rect36" width="2.8737502" height="0.69749999" gorn="0.4.0.23" style="fill:#b8af82;stroke:none;stroke-width:0" x="34.563152"  y="9.6082277"/>
            <rect id="rect38" width="2.8737502" height="0.69749999" gorn="0.4.0.24" style="fill:#5e5b43;stroke:none;stroke-width:0" x="34.563152"  y="11.784479"/>
            <path d="m 34.563152,9.6082271 0,2.8737499 0.6975,-0.6975 0,-1.47875 z" id="path40" gorn="0.4.0.25" style="fill:#9a916c;stroke:none;stroke-width:0" />
            <path d="m 37.436852,9.6082271 0,2.8737499 -0.6975,-0.6975 0,-1.47875 z" id="path42" gorn="0.4.0.26" style="fill:#9a916c;stroke:none;stroke-width:0" />
            <rect id="lower connector bgnd" width="4.7487502" height="4.7487502" gorn="0.4.0.27" style="fill:#141414;stroke:none;stroke-width:0" x="15.625622"  y="17.670731"/>
            <rect id="connector0pin-5" width="2.8737502" height="2.8737502" gorn="0.4.0.28" style="fill:#8c8663;stroke:none;stroke-width:0" x="16.563152"  y="18.608231"/>
            <rect id="lower connector top inset" width="2.8737502" height="0.69749999" gorn="0.4.0.29" style="fill:#b8af82;stroke:none;stroke-width:0" x="16.563152"  y="18.608231"/>
            <rect id="lower connector bottom inset" width="2.8737502" height="0.69749999" gorn="0.4.0.30" style="fill:#5e5b43;stroke:none;stroke-width:0" x="16.563152"  y="20.784481"/>
            <path d="m 16.563152,18.608227 0,2.87375 0.6975,-0.6975 0,-1.47875 z" id="lower connector left inset" gorn="0.4.0.31" style="fill:#9a916c;stroke:none;stroke-width:0" />
            <path d="m 19.436852,18.608227 0,2.87375 -0.6975,-0.6975 0,-1.47875 z" id="lower connector right inset" gorn="0.4.0.32" style="fill:#9a916c;stroke:none;stroke-width:0" />
            <rect id="rect72" width="4.7487502" height="4.7487502" gorn="0.4.0.33" style="fill:#141414;stroke:none;stroke-width:0" x="24.625624"  y="17.670731"/>
            <rect id="connector1pin-5" width="2.8737502" height="2.8737502" gorn="0.4.0.34" style="fill:#8c8663;stroke:none;stroke-width:0" x="25.563152"  y="18.608231"/>
            <rect id="rect75" width="2.8737502" height="0.69749999" gorn="0.4.0.35" style="fill:#b8af82;stroke:none;stroke-width:0" x="25.563152"  y="18.608231"/>
            <rect id="rect77" width="2.8737502" height="0.69749999" gorn="0.4.0.36" style="fill:#5e5b43;stroke:none;stroke-width:0" x="25.563152"  y="20.784481"/>
            <path d="m 25.563152,18.608227 0,2.87375 0.6975,-0.6975 0,-1.47875 z" id="path79" gorn="0.4.0.37" style="fill:#9a916c;stroke:none;stroke-width:0" />
            <path d="m 28.436852,18.608227 0,2.87375 -0.6975,-0.6975 0,-1.47875 z" id="path81" gorn="0.4.0.38" style="fill:#9a916c;stroke:none;stroke-width:0" />
            <rect id="rect83-0" width="4.7487502" height="4.7487502" gorn="0.4.0.39" style="fill:#141414;stroke:none;stroke-width:0" x="33.625622"  y="17.670731"/>
            <rect id="connector2pin-9" width="2.8737502" height="2.8737502" gorn="0.4.0.40" style="fill:#8c8663;stroke:none;stroke-width:0" x="34.563152"  y="18.608231"/>
            <rect id="rect86" width="2.8737502" height="0.69749999" gorn="0.4.0.41" style="fill:#b8af82;stroke:none;stroke-width:0" x="34.563152"  y="18.608231"/>
            <rect id="rect88" width="2.8737502" height="0.69749999" gorn="0.4.0.42" style="fill:#5e5b43;stroke:none;stroke-width:0" x="34.563152"  y="20.784481"/>
            <path d="m 34.563152,18.608227 0,2.87375 0.6975,-0.6975 0,-1.47875 z" id="path90" gorn="0.4.0.43" style="fill:#9a916c;stroke:none;stroke-width:0" />
            <path d="m 37.436852,18.608227 0,2.87375 -0.6975,-0.6975 0,-1.47875 z" id="path92" gorn="0.4.0.44" style="fill:#9a916c;stroke:none;stroke-width:0" />
            <rect id="slot" width="15.128748" height="6.1127462" gorn="0.4.0.45" style="fill:#1a1a1a;stroke:none;stroke-width:0" x="19.440001"  y="25.277958"/>
        </g>
    </g>
</svg>
