<?xml version='1.0' encoding='UTF-8' standalone='no'?>
<!-- Created with Fritzing (http://www.fritzing.org/) -->
<svg xmlns="http://www.w3.org/2000/svg" version="1.2"  width="0.750213in" baseProfile="tiny" height="0.750008in" x="0in" viewBox="0 0 54.0153 54.0006" y="0in">
    <desc>
        <referenceFile>Adafruit_ADXL326_breadboard.svg</referenceFile>
    </desc>
    <desc >Fritzing breadboard generated by brd2svg</desc>
    <g  gorn="0.1" id="breadboard">
        <g  gorn="0.1.0" id="icon">
            <path fill="#014cb1" stroke-width="0" d="M54.0153,7.2L54.0153,46.8006A7.2,7.2,0,0,1,46.8153,54.0006L7.2,54.0006A7.2,7.2,0,0,1,0,46.8006L0,7.2A7.2,7.2,0,0,1,7.2,-3.54516e-15L46.8153,-3.54516e-15A7.2,7.2,0,0,1,54.0153,7.2M3.9685,46.8363a1.41732,1.41732,0,1,0,2.83465,0,1.41732,1.41732,0,1,0,-2.83465,0zM11.1685,46.8363a1.41732,1.41732,0,1,0,2.83465,0,1.41732,1.41732,0,1,0,-2.83465,0zM18.3685,46.8363a1.41732,1.41732,0,1,0,2.83465,0,1.41732,1.41732,0,1,0,-2.83465,0zM25.5685,46.8363a1.41732,1.41732,0,1,0,2.83465,0,1.41732,1.41732,0,1,0,-2.83465,0zM32.7685,46.8363a1.41732,1.41732,0,1,0,2.83465,0,1.41732,1.41732,0,1,0,-2.83465,0zM39.9685,46.8363a1.41732,1.41732,0,1,0,2.83465,0,1.41732,1.41732,0,1,0,-2.83465,0zM47.1685,46.8363a1.41732,1.41732,0,1,0,2.83465,0,1.41732,1.41732,0,1,0,-2.83465,0zM43.9512,7.23629a2.83465,2.83465,0,1,0,5.66929,0,2.83465,2.83465,0,1,0,-5.66929,0zM4.35118,7.23629a2.83465,2.83465,0,1,0,5.66929,0,2.83465,2.83465,0,1,0,-5.66929,0z"  stroke="none"/>
            <g >
                <title >layer 21</title>
                <line stroke-width="0.72"  stroke-linecap="round" y1="12.9963" x1="30.9458" y2="12.9963" x2="21.5858" stroke="white"/>
                <line stroke-width="0.72"  stroke-linecap="round" y1="12.9963" x1="21.5858" y2="14.4363" x2="23.0258" stroke="white"/>
                <line stroke-width="0.72"  stroke-linecap="round" y1="12.9963" x1="21.5858" y2="11.5563" x2="23.0258" stroke="white"/>
                <line stroke-width="0.72"  stroke-linecap="round" y1="17.3163" x1="35.2658" y2="25.9563" x2="35.2658" stroke="white"/>
                <line stroke-width="0.72"  stroke-linecap="round" y1="25.9563" x1="35.2658" y2="23.7963" x2="36.7058" stroke="white"/>
                <line stroke-width="0.72"  stroke-linecap="round" y1="25.9563" x1="35.2658" y2="23.7963" x2="33.8258" stroke="white"/>
                <line stroke-width="1.152"  stroke-linecap="round" y1="52.5963" x1="41.3858" y2="50.7963" x2="43.5458" stroke="white"/>
                <line stroke-width="1.152"  stroke-linecap="round" y1="50.7963" x1="43.5458" y2="50.7963" x2="39.2258" stroke="white"/>
                <line stroke-width="1.152"  stroke-linecap="round" y1="50.7963" x1="39.2258" y2="52.5963" x2="41.3858" stroke="white"/>
                <line stroke-width="1.152"  stroke-linecap="round" y1="52.5963" x1="34.1858" y2="50.7963" x2="36.3458" stroke="white"/>
                <line stroke-width="1.152"  stroke-linecap="round" y1="50.7963" x1="36.3458" y2="50.7963" x2="32.0258" stroke="white"/>
                <line stroke-width="1.152"  stroke-linecap="round" y1="50.7963" x1="32.0258" y2="52.5963" x2="34.1858" stroke="white"/>
                <line stroke-width="1.152"  stroke-linecap="round" y1="52.5963" x1="26.9858" y2="50.7963" x2="29.1458" stroke="white"/>
                <line stroke-width="1.152"  stroke-linecap="round" y1="50.7963" x1="29.1458" y2="50.7963" x2="24.8258" stroke="white"/>
                <line stroke-width="1.152"  stroke-linecap="round" y1="50.7963" x1="24.8258" y2="52.5963" x2="26.9858" stroke="white"/>
                <line stroke-width="1.152"  stroke-linecap="round" y1="52.5963" x1="7.54582" y2="52.5963" x2="3.94583" stroke="white"/>
                <line stroke-width="1.152"  stroke-linecap="round" y1="52.5963" x1="3.94583" y2="50.7963" x2="5.74583" stroke="white"/>
                <line stroke-width="1.152"  stroke-linecap="round" y1="50.7963" x1="5.74583" y2="52.5963" x2="7.54582" stroke="white"/>
                <line stroke-width="1.152"  stroke-linecap="round" y1="52.5963" x1="12.5858" y2="50.7963" x2="14.7458" stroke="white"/>
                <line stroke-width="1.152"  stroke-linecap="round" y1="50.7963" x1="14.7458" y2="50.7963" x2="10.4258" stroke="white"/>
                <line stroke-width="1.152"  stroke-linecap="round" y1="50.7963" x1="10.4258" y2="52.5963" x2="12.5858" stroke="white"/>
                <line stroke-width="1.152"  stroke-linecap="round" y1="50.7963" x1="19.7858" y2="52.5963" x2="17.6258" stroke="white"/>
                <line stroke-width="1.152"  stroke-linecap="round" y1="52.5963" x1="17.6258" y2="52.5963" x2="21.9458" stroke="white"/>
                <line stroke-width="1.152"  stroke-linecap="round" y1="52.5963" x1="21.9458" y2="50.7963" x2="19.7858" stroke="white"/>
                <circle fill="none" stroke-width="0.72" r="2.27678" cy="12.9963" cx="35.2658"  stroke="white"/>
                <circle fill="none" stroke-width="0.72" r="0.72" cy="12.9963" cx="35.2658"  stroke="white"/>
                <g >
                    <title >text:X</title>
                    <text fill="#ffffff" stroke-width="0"  font-size="4.176" x="18.2018" text-anchor="start" font-family="OCRA" stroke="none" y="14.7963">X</text>
                </g>
                <g >
                    <title >text:Y</title>
                    <text fill="#ffffff" stroke-width="0"  font-size="4.176" x="39.9458" text-anchor="end" font-family="OCRA" stroke="none" y="23.0043">Y</text>
                </g>
                <g >
                    <title >text:GND</title>
                    <g  transform="matrix(1, 0, 0, 1, 21.2258, 43.3083)">
                        <g >
                            <g  transform="rotate(270)">
                                <g >
                                    <text fill="#ffffff" stroke-width="0"  font-size="3.3408" x="0" text-anchor="start" font-family="OCRA" stroke="none" y="-3.54516e-15">GND</text>
                                </g>
                            </g>
                        </g>
                    </g>
                </g>
                <g >
                    <title >text:Zout</title>
                    <g  transform="matrix(1, 0, 0, 1, 28.1378, 43.5963)">
                        <g >
                            <g  transform="rotate(270)">
                                <g >
                                    <text fill="#ffffff" stroke-width="0"  font-size="3.3408" x="0" text-anchor="start" font-family="OCRA" stroke="none" y="-3.54516e-15">Zout</text>
                                </g>
                            </g>
                        </g>
                    </g>
                </g>
                <g >
                    <title >text:3Vo</title>
                    <g  transform="matrix(1, 0, 0, 1, 13.7378, 42.8763)">
                        <g >
                            <g  transform="rotate(270)">
                                <g >
                                    <text fill="#ffffff" stroke-width="0"  font-size="3.3408" x="0" text-anchor="start" font-family="OCRA" stroke="none" y="-3.54516e-15">3Vo</text>
                                </g>
                            </g>
                        </g>
                    </g>
                </g>
                <g >
                    <title >text:ADXL326</title>
                    <text fill="#ffffff" stroke-width="0"  font-size="4.176" x="16.1138" text-anchor="start" font-family="OCRA" stroke="none" y="7.45229">ADXL326</text>
                </g>
                <g >
                    <title >text:Z</title>
                    <text fill="#ffffff" stroke-width="0"  font-size="4.176" x="38.7938" text-anchor="start" font-family="OCRA" stroke="none" y="14.2923">Z</text>
                </g>
                <g >
                    <title >text:v2</title>
                    <text fill="#ffffff" stroke-width="0"  font-size="3.3408" x="15.8113" text-anchor="start" font-family="OCRA" stroke="none" y="27.4683">v2</text>
                </g>
                <g >
                    <title >text:Yout</title>
                    <g  transform="matrix(1, 0, 0, 1, 35.3378, 43.5963)">
                        <g >
                            <g  transform="rotate(270)">
                                <g >
                                    <text fill="#ffffff" stroke-width="0"  font-size="3.3408" x="0" text-anchor="start" font-family="OCRA" stroke="none" y="-3.54516e-15">Yout</text>
                                </g>
                            </g>
                        </g>
                    </g>
                </g>
                <g >
                    <title >text:Xout</title>
                    <g  transform="matrix(1, 0, 0, 1, 42.5378, 43.5963)">
                        <g >
                            <g  transform="rotate(270)">
                                <g >
                                    <text fill="#ffffff" stroke-width="0"  font-size="3.3408" x="0" text-anchor="start" font-family="OCRA" stroke="none" y="-3.54516e-15">Xout</text>
                                </g>
                            </g>
                        </g>
                    </g>
                </g>
                <g >
                    <title >text:Vin</title>
                    <g  transform="matrix(1, 0, 0, 1, 6.53783, 42.8763)">
                        <g >
                            <g  transform="rotate(270)">
                                <g >
                                    <text fill="#ffffff" stroke-width="0"  font-size="3.3408" x="0" text-anchor="start" font-family="OCRA" stroke="none" y="-3.54516e-15">Vin</text>
                                </g>
                            </g>
                        </g>
                    </g>
                </g>
                <g >
                    <title >text:Test</title>
                    <g  transform="matrix(1, 0, 0, 1, 51.1778, 43.5963)">
                        <g >
                            <g  transform="rotate(270)">
                                <g >
                                    <text fill="#ffffff" stroke-width="0"  font-size="3.3408" x="0" text-anchor="start" font-family="OCRA" stroke="none" y="-3.54516e-15">Test</text>
                                </g>
                            </g>
                        </g>
                    </g>
                </g>
                <g >
                    <title >element:C1</title>
                    <g >
                        <title >package:C0805K</title>
                    </g>
                </g>
                <g >
                    <title >element:C2</title>
                    <g >
                        <title >package:C0805K</title>
                    </g>
                </g>
                <g >
                    <title >element:C3</title>
                    <g >
                        <title >package:C0805K</title>
                    </g>
                </g>
                <g >
                    <title >element:C4</title>
                    <g >
                        <title >package:C0805K</title>
                    </g>
                </g>
                <g >
                    <title >element:C5</title>
                    <g >
                        <title >package:C0805K</title>
                    </g>
                </g>
                <g >
                    <title >element:IC1</title>
                    <g >
                        <title >package:16LCSP</title>
                        <line stroke-width="0.36"  stroke-linecap="round" y1="15.247" x1="21.3165" y2="26.5856" x2="21.3165" stroke="white"/>
                        <line stroke-width="0.36"  stroke-linecap="round" y1="26.5856" x1="21.3165" y2="26.5856" x2="32.6551" stroke="white"/>
                        <line stroke-width="0.36"  stroke-linecap="round" y1="26.5856" x1="32.6551" y2="15.247" x2="32.6551" stroke="white"/>
                        <line stroke-width="0.36"  stroke-linecap="round" y1="15.247" x1="32.6551" y2="15.247" x2="21.3165" stroke="white"/>
                        <circle fill="none" stroke-width="0.36" r="0.283465" cy="16.0974" cx="31.8047"  stroke="white"/>
                    </g>
                </g>
                <g >
                    <title >element:IC2</title>
                    <g >
                        <title >package:SOT23-5L</title>
                        <line stroke-width="0.432"  stroke-linecap="round" y1="23.5071" x1="12.3619" y2="23.5071" x2="7.76974" stroke="white"/>
                        <line stroke-width="0.432"  stroke-linecap="round" y1="15.4454" x1="7.76974" y2="15.4454" x2="12.3619" stroke="white"/>
                        <line stroke-width="0.432"  stroke-linecap="round" y1="17.9966" x1="12.3619" y2="20.956" x2="12.3619" stroke="white"/>
                        <line stroke-width="0.432"  stroke-linecap="round" y1="18.2631" x1="7.76974" y2="17.9966" x2="7.76974" stroke="white"/>
                        <line stroke-width="0.432"  stroke-linecap="round" y1="20.956" x1="7.76974" y2="20.6895" x2="7.76974" stroke="white"/>
                        <line stroke-width="0.432"  stroke-linecap="round" y1="15.7118" x1="7.76974" y2="15.4454" x2="7.76974" stroke="white"/>
                        <line stroke-width="0.432"  stroke-linecap="round" y1="23.5071" x1="7.76974" y2="23.2407" x2="7.76974" stroke="white"/>
                        <line stroke-width="0.432"  stroke-linecap="round" y1="23.2407" x1="12.3619" y2="23.5071" x2="12.3619" stroke="white"/>
                        <line stroke-width="0.432"  stroke-linecap="round" y1="15.4454" x1="12.3619" y2="15.7118" x2="12.3619" stroke="white"/>
                    </g>
                </g>
                <g >
                    <title >element:JP2</title>
                    <g >
                        <title >package:1X07_ROUND_76</title>
                    </g>
                </g>
                <g >
                    <title >element:U$1</title>
                    <g >
                        <title >package:FIDUCIAL_1MM</title>
                    </g>
                </g>
                <g >
                    <title >element:U$2</title>
                    <g >
                        <title >package:FIDUCIAL_1MM</title>
                    </g>
                </g>
                <g >
                    <title >element:U$4</title>
                    <g >
                        <title >package:ADAFRUIT_2.5MM</title>
                    </g>
                </g>
                <g >
                    <title >element:U$5</title>
                    <g >
                        <title >package:MOUNTINGHOLE_2.0_PLATED</title>
                        <circle fill="none" stroke-width="0.432" r="4.96063" cy="7.23629" cx="46.7858"  stroke="white"/>
                    </g>
                </g>
                <g >
                    <title >element:U$8</title>
                    <g >
                        <title >package:MOUNTINGHOLE_2.0_PLATED</title>
                        <circle fill="none" stroke-width="0.432" r="4.96063" cy="7.23629" cx="7.18583"  stroke="white"/>
                    </g>
                </g>
            </g>
            <rect fill="#9A916C" stroke-width="0"  width="3.11811" height="3.9685" x="40.9522" gorn="0.1.0.2" stroke="none" y="23.252" id="connector0pin"/>
            <rect fill="#9A916C" stroke-width="0"  width="3.11811" height="3.9685" x="46.6214" gorn="0.1.0.3" stroke="none" y="23.252" id="connector1pin"/>
            <g  transform="matrix(-1, 0, 0, -1, 47.4009, 63.4326)">
                <g >
                    <rect fill="#9A916C" stroke-width="0"  width="3.11811" height="3.9685" x="22.1414" gorn="0.1.0.4.0.0" stroke="none" y="29.732" id="connector2pin"/>
                </g>
            </g>
            <g  transform="matrix(-1, 0, 0, -1, 36.0624, 63.4326)">
                <g >
                    <rect fill="#9A916C" stroke-width="0"  width="3.11811" height="3.9685" x="16.4722" gorn="0.1.0.5.0.0" stroke="none" y="29.732" id="connector3pin"/>
                </g>
            </g>
            <rect fill="#9A916C" stroke-width="0"  width="3.11811" height="3.9685" x="28.7122" gorn="0.1.0.6" stroke="none" y="29.732" id="connector4pin"/>
            <rect fill="#9A916C" stroke-width="0"  width="3.11811" height="3.9685" x="34.3814" gorn="0.1.0.7" stroke="none" y="29.732" id="connector5pin"/>
            <rect fill="#9A916C" stroke-width="0"  width="3.11811" height="3.9685" x="40.9522" gorn="0.1.0.8" stroke="none" y="29.732" id="connector6pin"/>
            <rect fill="#9A916C" stroke-width="0"  width="3.11811" height="3.9685" x="46.6214" gorn="0.1.0.9" stroke="none" y="29.732" id="connector7pin"/>
            <rect fill="#9A916C" stroke-width="0"  width="3.11811" height="3.9685" x="4.95212" gorn="0.1.0.10" stroke="none" y="25.412" id="connector8pin"/>
            <rect fill="#9A916C" stroke-width="0"  width="3.11811" height="3.9685" x="10.6214" gorn="0.1.0.11" stroke="none" y="25.412" id="connector9pin"/>
            <g  transform="matrix(0, 1, -1, 0, 45.4927, -14.0065)">
                <g >
                    <rect fill="#9A916C" stroke-width="0"  width="1.98426" height="0.992124" x="28.7574" gorn="0.1.0.12.0.0" stroke="none" y="15.247" id="connector10pin"/>
                </g>
            </g>
            <g  transform="matrix(0, 1, -1, 0, 43.6501, -12.164)">
                <g >
                    <rect fill="#9A916C" stroke-width="0"  width="1.98426" height="0.992124" x="26.915" gorn="0.1.0.13.0.0" stroke="none" y="15.247" id="connector11pin"/>
                </g>
            </g>
            <g  transform="matrix(0, 1, -1, 0, 41.8076, -10.3215)">
                <g >
                    <rect fill="#9A916C" stroke-width="0"  width="1.98426" height="0.992124" x="25.0724" gorn="0.1.0.14.0.0" stroke="none" y="15.247" id="connector12pin"/>
                </g>
            </g>
            <g  transform="matrix(0, 1, -1, 0, 39.9651, -8.47901)">
                <g >
                    <rect fill="#9A916C" stroke-width="0"  width="1.98426" height="0.992124" x="23.2299" gorn="0.1.0.15.0.0" stroke="none" y="15.247" id="connector13pin"/>
                </g>
            </g>
            <rect fill="#9A916C" stroke-width="0"  width="1.98426" height="0.992124" x="20.7496" gorn="0.1.0.16" stroke="none" y="17.6564" id="connector14pin"/>
            <rect fill="#9A916C" stroke-width="0"  width="1.98426" height="0.992124" x="20.7496" gorn="0.1.0.17" stroke="none" y="19.4281" id="connector15pin"/>
            <rect fill="#9A916C" stroke-width="0"  width="1.98426" height="0.992124" x="20.7496" gorn="0.1.0.18" stroke="none" y="21.3414" id="connector16pin"/>
            <rect fill="#9A916C" stroke-width="0"  width="1.98426" height="0.992124" x="20.7496" gorn="0.1.0.19" stroke="none" y="23.184" id="connector17pin"/>
            <g  transform="matrix(0, -1, 1, 0, -1.86746, 50.3116)">
                <g >
                    <rect fill="#9A916C" stroke-width="0"  width="1.98426" height="0.992124" x="23.2299" gorn="0.1.0.20.0.0" stroke="none" y="25.5935" id="connector18pin"/>
                </g>
            </g>
            <g  transform="matrix(0, -1, 1, 0, -0.0249449, 52.1541)">
                <g >
                    <rect fill="#9A916C" stroke-width="0"  width="1.98426" height="0.992124" x="25.0724" gorn="0.1.0.21.0.0" stroke="none" y="25.5935" id="connector19pin"/>
                </g>
            </g>
            <g  transform="matrix(0, -1, 1, 0, 1.81758, 53.9966)">
                <g >
                    <rect fill="#9A916C" stroke-width="0"  width="1.98426" height="0.992124" x="26.915" gorn="0.1.0.22.0.0" stroke="none" y="25.5935" id="connector20pin"/>
                </g>
            </g>
            <g  transform="matrix(0, -1, 1, 0, 3.66009, 55.8391)">
                <g >
                    <rect fill="#9A916C" stroke-width="0"  width="1.98426" height="0.992124" x="28.7574" gorn="0.1.0.23.0.0" stroke="none" y="25.5935" id="connector21pin"/>
                </g>
            </g>
            <g  transform="matrix(-1, 0, 0, -1, 64.3181, 47.3602)">
                <g >
                    <rect fill="#9A916C" stroke-width="0"  width="1.98426" height="0.992124" x="31.1669" gorn="0.1.0.24.0.0" stroke="none" y="23.184" id="connector22pin"/>
                </g>
            </g>
            <g  transform="matrix(-1, 0, 0, -1, 64.3181, 43.6751)">
                <g >
                    <rect fill="#9A916C" stroke-width="0"  width="1.98426" height="0.992124" x="31.1669" gorn="0.1.0.25.0.0" stroke="none" y="21.3414" id="connector23pin"/>
                </g>
            </g>
            <g  transform="matrix(-1, 0, 0, -1, 64.3181, 39.99)">
                <g >
                    <rect fill="#9A916C" stroke-width="0"  width="1.98426" height="0.992124" x="31.1669" gorn="0.1.0.26.0.0" stroke="none" y="19.499" id="connector24pin"/>
                </g>
            </g>
            <g  transform="matrix(-1, 0, 0, -1, 64.3181, 36.305)">
                <g >
                    <rect fill="#9A916C" stroke-width="0"  width="1.98426" height="0.992124" x="31.1669" gorn="0.1.0.27.0.0" stroke="none" y="17.6564" id="connector25pin"/>
                </g>
            </g>
            <g  transform="matrix(0, 1, -1, 0, 23.1641, 10.4026)">
                <g >
                    <rect fill="#9A916C" stroke-width="0"  width="1.55905" height="3.40158" x="5.60126" gorn="0.1.0.28.0.0" stroke="none" y="15.0826" id="connector26pin"/>
                </g>
            </g>
            <g  transform="matrix(0, 1, -1, 0, 25.8571, 13.0955)">
                <g >
                    <rect fill="#9A916C" stroke-width="0"  width="1.55905" height="3.40158" x="5.60126" gorn="0.1.0.29.0.0" stroke="none" y="17.7755" id="connector27pin"/>
                </g>
            </g>
            <g  transform="matrix(0, 1, -1, 0, 28.55, 15.7884)">
                <g >
                    <rect fill="#9A916C" stroke-width="0"  width="1.55905" height="3.40158" x="5.60126" gorn="0.1.0.30.0.0" stroke="none" y="20.4684" id="connector28pin"/>
                </g>
            </g>
            <g  transform="matrix(0, 1, -1, 0, 35.9201, 8.41831)">
                <g >
                    <rect fill="#9A916C" stroke-width="0"  width="1.55905" height="3.40158" x="12.9713" gorn="0.1.0.31.0.0" stroke="none" y="20.4684" id="connector29pin"/>
                </g>
            </g>
            <g  transform="matrix(0, 1, -1, 0, 30.5343, 3.0325)">
                <g >
                    <rect fill="#9A916C" stroke-width="0"  width="1.55905" height="3.40158" x="12.9713" gorn="0.1.0.32.0.0" stroke="none" y="15.0826" id="connector30pin"/>
                </g>
            </g>
            <circle fill="none" stroke-width="1.31868" r="2.07666" cy="46.8363" cx="5.38583"  gorn="0.1.0.33" stroke="#9A916C" connectorname="VIN" id="connector31pin"/>
            <circle fill="none" stroke-width="1.31868" r="2.07666" cy="46.8363" cx="12.5858"  gorn="0.1.0.34" stroke="#9A916C" connectorname="+3V3" id="connector32pin"/>
            <circle fill="none" stroke-width="1.31868" r="2.07666" cy="46.8363" cx="19.7858"  gorn="0.1.0.35" stroke="#9A916C" connectorname="GND" id="connector33pin"/>
            <circle fill="none" stroke-width="1.31868" r="2.07666" cy="46.8363" cx="26.9858"  gorn="0.1.0.36" stroke="#9A916C" connectorname="ZOUT" id="connector34pin"/>
            <circle fill="none" stroke-width="1.31868" r="2.07666" cy="46.8363" cx="34.1858"  gorn="0.1.0.37" stroke="#9A916C" connectorname="YOUT" id="connector35pin"/>
            <circle fill="none" stroke-width="1.31868" r="2.07666" cy="46.8363" cx="41.3858"  gorn="0.1.0.38" stroke="#9A916C" connectorname="XOUT" id="connector36pin"/>
            <circle fill="none" stroke-width="1.31868" r="2.07666" cy="46.8363" cx="48.5858"  gorn="0.1.0.39" stroke="#9A916C" connectorname="TEST" id="connector37pin"/>
            <rect fill="#9A916C" stroke-width="0"  width="2.83465" height="2.83465" ry="1.41732" rx="1.41732" x="44.4325" gorn="0.1.0.40" stroke="none" y="37.067" id="connector38pin"/>
            <rect fill="#9A916C" stroke-width="0"  width="2.83465" height="2.83465" ry="1.41732" rx="1.41732" x="13.7605" gorn="0.1.0.41" stroke="none" y="10.499" id="connector39pin"/>
            <circle fill="none" stroke-width="1.41732" r="3.54331" cy="7.23629" cx="46.7858"  gorn="0.1.0.42" stroke="#9A916C" connectorname="P$1" id="connector40pin"/>
            <circle fill="none" stroke-width="1.41732" r="3.54331" cy="7.23629" cx="7.18583"  gorn="0.1.0.43" stroke="#9A916C" connectorname="P$1" id="connector41pin"/>
        </g>
        <g  transform="matrix(1, 0, 0, 1, 42.5113, 23.4648)">
            <g  gorn="0.1.1.0" id="c0805k">
                <path fill="#DCDCDC" d="M5.386,3.543L0.283,3.543C0.127,3.543,0,3.416,0,3.26L0,0.283C0,0.127,0.127,0,0.283,0l5.102,0c0.157,0,0.283,0.127,0.283,0.283L5.668,3.26C5.669,3.416,5.542,3.543,5.386,3.543z" />
                <rect fill="#6E554B"  width="3.543" height="3.543" x="1.063"/>
            </g>
        </g>
        <g  transform="matrix(1, 0, 0, 1, 18.0313, 29.9448)">
            <g  gorn="0.1.2.0" id="c0805k">
                <g  transform="matrix(-1, 0, 0, -1, 5.669, 3.543)">
                    <g >
                        <path fill="#DCDCDC" d="M5.386,3.543L0.283,3.543C0.127,3.543,0,3.416,0,3.26L0,0.283C0,0.127,0.127,0,0.283,0l5.102,0c0.157,0,0.283,0.127,0.283,0.283L5.668,3.26C5.669,3.416,5.542,3.543,5.386,3.543z" />
                        <rect fill="#6E554B"  width="3.543" height="3.543" x="1.063"/>
                    </g>
                </g>
            </g>
        </g>
        <g  transform="matrix(1, 0, 0, 1, 30.2713, 29.9448)">
            <g  gorn="0.1.3.0" id="c0805k">
                <path fill="#DCDCDC" d="M5.386,3.543L0.283,3.543C0.127,3.543,0,3.416,0,3.26L0,0.283C0,0.127,0.127,0,0.283,0l5.102,0c0.157,0,0.283,0.127,0.283,0.283L5.668,3.26C5.669,3.416,5.542,3.543,5.386,3.543z" />
                <rect fill="#6E554B"  width="3.543" height="3.543" x="1.063"/>
            </g>
        </g>
        <g  transform="matrix(1, 0, 0, 1, 42.5113, 29.9448)">
            <g  gorn="0.1.4.0" id="c0805k">
                <path fill="#DCDCDC" d="M5.386,3.543L0.283,3.543C0.127,3.543,0,3.416,0,3.26L0,0.283C0,0.127,0.127,0,0.283,0l5.102,0c0.157,0,0.283,0.127,0.283,0.283L5.668,3.26C5.669,3.416,5.542,3.543,5.386,3.543z" />
                <rect fill="#6E554B"  width="3.543" height="3.543" x="1.063"/>
            </g>
        </g>
        <g  transform="matrix(1, 0, 0, 1, 6.51133, 25.6248)">
            <g  gorn="0.1.5.0" id="c0805k">
                <path fill="#DCDCDC" d="M5.386,3.543L0.283,3.543C0.127,3.543,0,3.416,0,3.26L0,0.283C0,0.127,0.127,0,0.283,0l5.102,0c0.157,0,0.283,0.127,0.283,0.283L5.668,3.26C5.669,3.416,5.542,3.543,5.386,3.543z" />
                <rect fill="#6E554B"  width="3.543" height="3.543" x="1.063"/>
            </g>
        </g>
        <g  transform="matrix(1, 0, 0, 1, 21.2811, 15.247)">
            <g  gorn="0.1.6.0" id="16lcsp">
                <g  transform="matrix(0, 1, -1, 0, 11.3386, 0)">
                    <g >
                        <metadata  id="metadata9">
                            <rdf:RDF xmlns:rdf="http://www.w3.org/1999/02/22-rdf-syntax-ns#">
                                <cc:Work xmlns:cc="http://creativecommons.org/ns#" rdf:about="" xmlns:rdf="http://www.w3.org/1999/02/22-rdf-syntax-ns#">
                                    <dc:format xmlns:dc="http://purl.org/dc/elements/1.1/">image/svg+xml</dc:format>
                                    <dc:type rdf:resource="http://purl.org/dc/dcmitype/StillImage" xmlns:dc="http://purl.org/dc/elements/1.1/" xmlns:rdf="http://www.w3.org/1999/02/22-rdf-syntax-ns#"/>
                                    <dc:title xmlns:dc="http://purl.org/dc/elements/1.1/"/>
                                </cc:Work>
                            </rdf:RDF>
                        </metadata>
                        <defs  id="defs7"/>
                        <rect fill="#333333"  width="11.3386" height="11.3386" x="0" gorn="0.1.6.0.0.0.2" y="-5.29152e-07" id="rect3"/>
                    </g>
                </g>
            </g>
        </g>
        <g  transform="matrix(1, 0, 0, 1, 5.95582, 15.6493)">
            <g  gorn="0.1.7.0" id="sot23-5l">
                <g  transform="matrix(0, 1, -1, 0, 7.93706, -0.282996)">
                    <g >
                        <g >
                            <rect fill="#DCDCDC"  width="1.134" height="7.65403" x="0.850003"/>
                            <rect fill="#DCDCDC"  width="1.134" height="7.65403" x="6.236"/>
                            <rect fill="#DCDCDC"  width="1.134" height="3.118" x="3.543" y="4.535"/>
                            <rect fill="#303030"  width="8.22002" height="4.535" y="1.559"/>
                        </g>
                    </g>
                </g>
            </g>
        </g>
    </g>
</svg>
