<?xml version='1.0' encoding='UTF-8' standalone='no'?>
<!-- Created with Fritzing (http://www.fritzing.org/) -->
<svg xmlns="http://www.w3.org/2000/svg"  gorn="0" width="0.7in" id="svg2" viewBox="0 0 50.4 38.88" x="0in" version="1.2" y="0in" height="0.54in">
    <desc>
        <referenceFile>Adafruit 2x5 SWD Breakout_breadboard.svg</referenceFile>
    </desc>
    <metadata  id="metadata435"/>
    <defs  id="defs433"/>
    <desc  id="desc4">Fritzing breadboard generated by brd2svg</desc>
    <g  gorn="0.3" id="icon">
        <path style="fill:#014cb1;stroke:none;stroke-width:0"  d="m 3.6,0 43.2,0 a 3.6,3.6 0 0 1 3.6,3.6 l 0,31.68 a 3.6,3.6 0 0 1 -3.6,3.6 l -43.2,0 A 3.6,3.6 0 0 1 0,35.28 L 0,3.6 A 3.6,3.6 0 0 1 3.6,0 m 20.1827,14.04 a 1.417325,1.417325 0 1 0 2.83465,0 1.417325,1.417325 0 1 0 -2.83465,0 z m 0,10.8 a 1.417325,1.417325 0 1 0 2.83465,0 1.417325,1.417325 0 1 0 -2.83465,0 z m 21.6,-19.8 a 1.417325,1.417325 0 1 0 2.83465,0 1.417325,1.417325 0 1 0 -2.83465,0 z m 0,7.2 a 1.417325,1.417325 0 1 0 2.83465,0 1.417325,1.417325 0 1 0 -2.83465,0 z m 0,7.2 a 1.417325,1.417325 0 1 0 2.83465,0 1.417325,1.417325 0 1 0 -2.83465,0 z m 0,7.2 a 1.417325,1.417325 0 1 0 2.83465,0 1.417325,1.417325 0 1 0 -2.83465,0 z m 0,7.2 a 1.417325,1.417325 0 1 0 2.83465,0 1.417325,1.417325 0 1 0 -2.83465,0 z M 2.18268,5.04 a 1.417325,1.417325 0 1 0 2.83465,0 1.417325,1.417325 0 1 0 -2.83465,0 z m 0,7.2 a 1.417325,1.417325 0 1 0 2.83465,0 1.417325,1.417325 0 1 0 -2.83465,0 z m 0,7.2 a 1.417325,1.417325 0 1 0 2.83465,0 1.417325,1.417325 0 1 0 -2.83465,0 z m 0,7.2 a 1.417325,1.417325 0 1 0 2.83465,0 1.417325,1.417325 0 1 0 -2.83465,0 z m 0,7.2 a 1.417325,1.417325 0 1 0 2.83465,0 1.417325,1.417325 0 1 0 -2.83465,0 z" gorn="0.3.0" id="path8"/>
        <g  gorn="0.3.1" id="g10">
            <title  id="title12">layer 21</title>
            <g  gorn="0.3.1.1" id="g14">
                <title  id="title16">text:GND</title>
                <text style="font-size:3.34080005px;font-family:OCRA;text-anchor:middle;fill:#ffffff;stroke:none;stroke-width:0" font-size="3.3408"  gorn="0.3.1.1.1" id="text18" x="10.8" y="13.9104">GND</text>
            </g>
            <g  gorn="0.3.1.2" id="g20">
                <title  id="title22">text:GND</title>
                <text style="font-size:3.34080005px;font-family:OCRA;text-anchor:middle;fill:#ffffff;stroke:none;stroke-width:0" font-size="3.3408"  gorn="0.3.1.2.1" id="text24" x="10.8" y="21.110399">GND</text>
            </g>
            <g  gorn="0.3.1.3" id="g26">
                <title  id="title28">text:KEY</title>
                <text style="font-size:3.34080005px;font-family:OCRA;text-anchor:middle;fill:#ffffff;stroke:none;stroke-width:0" font-size="3.3408"  gorn="0.3.1.3.1" id="text30" x="10.8" y="28.3104">KEY</text>
            </g>
            <g  gorn="0.3.1.4" id="g32">
                <title  id="title34">text:Vref</title>
                <text style="font-size:3.34080005px;font-family:OCRA;text-anchor:middle;fill:#ffffff;stroke:none;stroke-width:0" font-size="3.3408"  gorn="0.3.1.4.1" id="text36" x="11.52" y="6.7104001">Vref</text>
            </g>
            <g  gorn="0.3.1.5" id="g38">
                <title  id="title40">text:GNDd</title>
                <text style="font-size:3.34080005px;font-family:OCRA;text-anchor:middle;fill:#ffffff;stroke:none;stroke-width:0" font-size="3.3408"  gorn="0.3.1.5.1" id="text42" x="12.24" y="35.510399">GNDd</text>
            </g>
            <g  gorn="0.3.1.6" id="g44">
                <title  id="title46">text:!RST</title>
                <text style="font-size:3.34080005px;font-family:OCRA;text-anchor:middle;fill:#ffffff;stroke:none;stroke-width:0" font-size="3.3408"  gorn="0.3.1.6.1" id="text48" x="39.599998" y="35.510399">!RST</text>
            </g>
            <g  gorn="0.3.1.7" id="g50">
                <title  id="title52">text:SWIO</title>
                <text style="font-size:3.34080005px;font-family:OCRA;text-anchor:middle;fill:#ffffff;stroke:none;stroke-width:0" font-size="3.3408"  gorn="0.3.1.7.1" id="text54" x="38.880001" y="6.7104001">SWIO</text>
            </g>
            <g  gorn="0.3.1.8" id="g56">
                <title  id="title58">text:CLK</title>
                <text style="font-size:3.34080005px;font-family:OCRA;text-anchor:middle;fill:#ffffff;stroke:none;stroke-width:0" font-size="3.3408"  gorn="0.3.1.8.1" id="text60" x="40.32" y="13.9104">CLK</text>
            </g>
            <g  gorn="0.3.1.9" id="g62">
                <title  id="title64">text:SWO</title>
                <text style="font-size:3.34080005px;font-family:OCRA;text-anchor:middle;fill:#ffffff;stroke:none;stroke-width:0" font-size="3.3408"  gorn="0.3.1.9.1" id="text66" x="40.32" y="21.110399">SWO</text>
            </g>
            <g  gorn="0.3.1.10" id="g68">
                <title  id="title70">text:NC</title>
                <text style="font-size:3.34080005px;font-family:OCRA;text-anchor:middle;fill:#ffffff;stroke:none;stroke-width:0" font-size="3.3408"  gorn="0.3.1.10.1" id="text72" x="41.040001" y="28.3104">NC</text>
            </g>
            <g  gorn="0.3.1.11" id="g74">
                <title  id="title76">element:FID1</title>
                <g  gorn="0.3.1.11.1" id="g78">
                    <title  id="title80">package:FIDUCIAL_1MM</title>
                </g>
            </g>
            <g  gorn="0.3.1.12" id="g82">
                <title  id="title84">element:FID2</title>
                <g  gorn="0.3.1.12.1" id="g86">
                    <title  id="title88">package:FIDUCIAL_1MM</title>
                </g>
            </g>
            <g  gorn="0.3.1.13" id="g90">
                <title  id="title92">element:JP1</title>
                <g  gorn="0.3.1.13.1" id="g94">
                    <title  id="title96">package:1X05_ROUND_FULL_76</title>
                </g>
            </g>
            <g  gorn="0.3.1.14" id="g98">
                <title  id="title100">element:JP2</title>
                <g  gorn="0.3.1.14.1" id="g102">
                    <title  id="title104">package:1X05_ROUND_FULL_76</title>
                </g>
            </g>
            <g  gorn="0.3.1.15" id="g106">
                <title  id="title108">element:U$2</title>
                <g  gorn="0.3.1.15.1" id="g110">
                    <title  id="title112">package:ADAFRUIT_2.5MM</title>
                </g>
            </g>
            <g  gorn="0.3.1.16" id="g114">
                <title  id="title116">element:X1</title>
                <g  gorn="0.3.1.16.1" id="g118">
                    <title  id="title120">package:2X05_1.27MM_BOX_POSTS</title>
                    <line style="stroke:#ffffff;stroke-width:0.36000001;stroke-linecap:round" y2="1.0148"  gorn="0.3.1.16.1.1" y1="10.3692" id="line122" x1="32.8535" x2="32.8535"/>
                    <line style="stroke:#ffffff;stroke-width:0.36000001;stroke-linecap:round" y2="1.0148"  gorn="0.3.1.16.1.2" y1="1.0148" id="line124" x1="32.8535" x2="17.546499"/>
                    <line style="stroke:#ffffff;stroke-width:0.36000001;stroke-linecap:round" y2="10.3692"  gorn="0.3.1.16.1.3" y1="1.0148" id="line126" x1="17.546499" x2="17.546499"/>
                    <line style="stroke:#ffffff;stroke-width:0.36000001;stroke-linecap:round" y2="37.8652"  gorn="0.3.1.16.1.4" y1="28.510799" id="line128" x1="32.8535" x2="32.8535"/>
                    <line style="stroke:#ffffff;stroke-width:0.36000001;stroke-linecap:round" y2="37.8652"  gorn="0.3.1.16.1.5" y1="37.8652" id="line130" x1="32.8535" x2="17.546499"/>
                    <line style="stroke:#ffffff;stroke-width:0.36000001;stroke-linecap:round" y2="28.510799"  gorn="0.3.1.16.1.6" y1="37.8652" id="line132" x1="17.546499" x2="17.546499"/>
                    <g  gorn="0.3.1.16.1.7" id="g134">
                        <title  id="title136">polygon</title>
                        <path style="fill:none;stroke:#ffffff;stroke-width:0.36000001;stroke-linecap:round"  d="m 13.8614,1.0148 2.8347,1.41732 -2.8347,1.41733 0,-2.83465 m 0.1786,0.08929 0,2.65607 0,-2.65607 m 0.36,0.18 0,2.29607 0,-2.29607 m 0.36,0.18 0,1.93607 0,-1.93607 m 0.36,0.18 0,1.57607 0,-1.57607 m 0.36,0.18 0,1.21607 0,-1.21607 m 0.36,0.18 0,0.85607 0,-0.85607 m 0.36,0.18 0,0.49607 0,-0.49607" gorn="0.3.1.16.1.7.1" id="path138"/>
                    </g>
                </g>
            </g>
        </g>
        <g  transform="matrix(0,1,-1,0,55.44,12.24)">
            <g  gorn="0.3.2.0" id="g140">
                <rect style="fill:#9a916c;stroke:none;stroke-width:0" rx="1.41732"  gorn="0.3.2.0.0" width="2.83465" id="connector0pin" ry="1.41732" x="20.182699" y="32.422699" height="2.83465"/>
            </g>
        </g>
        <g  transform="matrix(0,1,-1,0,33.84,-23.76)">
            <g  gorn="0.3.3.0" id="g143">
                <rect style="fill:#9a916c;stroke:none;stroke-width:0" rx="1.41732"  gorn="0.3.3.0.0" width="2.83465" id="connector1pin" ry="1.41732" x="27.3827" y="3.6226799" height="2.83465"/>
            </g>
        </g>
        <circle cx="46.799999" style="fill:none;stroke:#9a916c;stroke-width:1.31868005" r="2.0766599"  gorn="0.3.4" cy="5.04" id="connector2pin" connectorname="SWIO"/>
        <circle cx="46.799999" style="fill:none;stroke:#9a916c;stroke-width:1.31868005" r="2.0766599"  gorn="0.3.5" cy="12.24" id="connector3pin" connectorname="CLK"/>
        <circle cx="46.799999" style="fill:none;stroke:#9a916c;stroke-width:1.31868005" r="2.0766599"  gorn="0.3.6" cy="19.440001" id="connector4pin" connectorname="SWO"/>
        <circle cx="46.799999" style="fill:none;stroke:#9a916c;stroke-width:1.31868005" r="2.0766599"  gorn="0.3.7" cy="26.639999" id="connector5pin" connectorname="NC"/>
        <circle cx="46.799999" style="fill:none;stroke:#9a916c;stroke-width:1.31868005" r="2.0766599"  gorn="0.3.8" cy="33.84" id="connector6pin" connectorname="RESET"/>
        <circle cx="3.5999999" style="fill:none;stroke:#9a916c;stroke-width:1.31868005" r="2.0766599"  gorn="0.3.9" cy="5.04" id="connector7pin" connectorname="VREF"/>
        <circle cx="3.5999999" style="fill:none;stroke:#9a916c;stroke-width:1.31868005" r="2.0766599"  gorn="0.3.10" cy="12.24" id="connector8pin" connectorname="GND"/>
        <circle cx="3.5999999" style="fill:none;stroke:#9a916c;stroke-width:1.31868005" r="2.0766599"  gorn="0.3.11" cy="19.440001" id="connector9pin" connectorname="GND2"/>
        <circle cx="3.5999999" style="fill:none;stroke:#9a916c;stroke-width:1.31868005" r="2.0766599"  gorn="0.3.12" cy="26.639999" id="connector10pin" connectorname="KEY"/>
        <circle cx="3.5999999" style="fill:none;stroke:#9a916c;stroke-width:1.31868005" r="2.0766599"  gorn="0.3.13" cy="33.84" id="connector11pin" connectorname="GNDD"/>
        <g  transform="matrix(0,1,-1,0,31.3455,-6.86551)">
            <g  gorn="0.3.14.0" id="g156">
                <rect style="fill:#9a916c;stroke:none;stroke-width:0"  gorn="0.3.14.0.0" width="2.15433" id="connector12pin" x="18.0284" y="8.5549698" height="7.37006"/>
            </g>
        </g>
        <g  transform="matrix(0,1,-1,0,43.5345,-19.0545)">
            <g  gorn="0.3.15.0" id="g159">
                <rect style="fill:#9a916c;stroke:none;stroke-width:0"  gorn="0.3.15.0.0" width="2.15433" id="connector13pin" x="30.2173" y="8.5549698" height="7.37006"/>
            </g>
        </g>
        <g  transform="matrix(0,1,-1,0,34.9455,-3.26551)">
            <g  gorn="0.3.16.0" id="g162">
                <rect style="fill:#9a916c;stroke:none;stroke-width:0"  gorn="0.3.16.0.0" width="2.15433" id="connector14pin" x="18.0284" y="12.155" height="7.37006"/>
            </g>
        </g>
        <g  transform="matrix(0,1,-1,0,47.1345,-15.4545)">
            <g  gorn="0.3.17.0" id="g165">
                <rect style="fill:#9a916c;stroke:none;stroke-width:0"  gorn="0.3.17.0.0" width="2.15433" id="connector15pin" x="30.2173" y="12.155" height="7.37006"/>
            </g>
        </g>
        <g  transform="matrix(0,1,-1,0,38.5455,0.334488)">
            <g  gorn="0.3.18.0" id="g168">
                <rect style="fill:#9a916c;stroke:none;stroke-width:0"  gorn="0.3.18.0.0" width="2.15433" id="connector16pin" x="18.0284" y="15.755" height="7.37006"/>
            </g>
        </g>
        <g  transform="matrix(0,1,-1,0,50.7345,-11.8545)">
            <g  gorn="0.3.19.0" id="g171">
                <rect style="fill:#9a916c;stroke:none;stroke-width:0"  gorn="0.3.19.0.0" width="2.15433" id="connector17pin" x="30.2173" y="15.755" height="7.37006"/>
            </g>
        </g>
        <g  transform="matrix(0,1,-1,0,42.1455,3.93449)">
            <g  gorn="0.3.20.0" id="g174">
                <rect style="fill:#9a916c;stroke:none;stroke-width:0"  gorn="0.3.20.0.0" width="2.15433" id="connector18pin" x="18.0284" y="19.355" height="7.37006"/>
            </g>
        </g>
        <g  transform="matrix(0,1,-1,0,54.3345,-8.25451)">
            <g  gorn="0.3.21.0" id="g177">
                <rect style="fill:#9a916c;stroke:none;stroke-width:0"  gorn="0.3.21.0.0" width="2.15433" id="connector19pin" x="30.2173" y="19.355" height="7.37006"/>
            </g>
        </g>
        <g  transform="matrix(0,1,-1,0,45.7455,7.53451)">
            <g  gorn="0.3.22.0" id="g180">
                <rect style="fill:#9a916c;stroke:none;stroke-width:0"  gorn="0.3.22.0.0" width="2.15433" id="connector20pin" x="18.0284" y="22.955" height="7.37006"/>
            </g>
        </g>
        <g  transform="matrix(0,1,-1,0,57.9345,-4.65449)">
            <g  gorn="0.3.23.0" id="g183">
                <rect style="fill:#9a916c;stroke:none;stroke-width:0"  gorn="0.3.23.0.0" width="2.15433" id="connector21pin" x="30.2173" y="22.955" height="7.37006"/>
            </g>
        </g>
    </g>
    <g  transform="translate(7.5096588,10.9361)">
        <g  gorn="0.4.0" id="2x05_1.27mm_box_posts">
            <g  transform="matrix(0,1,-1,0,26.2205,-9.21262)">
                <g  gorn="0.4.0.0.0" id="g187">
                    <metadata  id="metadata99">
                        <rdf:RDF xmlns:rdf="http://www.w3.org/1999/02/22-rdf-syntax-ns#">
                            <cc:Work xmlns:cc="http://creativecommons.org/ns#" xmlns:rdf="http://www.w3.org/1999/02/22-rdf-syntax-ns#" rdf:about="">
                                <dc:format xmlns:dc="http://purl.org/dc/elements/1.1/">image/svg+xml</dc:format>
                                <dc:type xmlns:dc="http://purl.org/dc/elements/1.1/" rdf:resource="http://purl.org/dc/dcmitype/StillImage" xmlns:rdf="http://www.w3.org/1999/02/22-rdf-syntax-ns#"/>
                                <dc:title xmlns:dc="http://purl.org/dc/elements/1.1/"/>
                            </cc:Work>
                        </rdf:RDF>
                    </metadata>
                    <defs  id="defs97">
                        <pattern patternUnits="userSpaceOnUse"  width="6" id="EMFhbasepattern-2" x="0" y="0" height="6"/>
                    </defs>
                    <rect style="fill:#cccccc;stroke:#cccccc;stroke-width:0;stroke-miterlimit:4;stroke-dasharray:none;stroke-dashoffset:11.71939468;stroke-opacity:1"  gorn="0.4.0.0.0.2" width="1.41732" id="rect21733" x="24.1455" y="-1.49191e-006" height="17.007799"/>
                    <rect style="fill:#cccccc;stroke:#cccccc;stroke-width:0;stroke-miterlimit:4;stroke-dasharray:none;stroke-dashoffset:11.71939468;stroke-opacity:1"  gorn="0.4.0.0.0.3" width="1.41732" id="rect21731" x="20.5455" y="-1.49191e-006" height="17.007799"/>
                    <rect style="fill:#cccccc;stroke:#cccccc;stroke-width:0;stroke-miterlimit:4;stroke-dasharray:none;stroke-dashoffset:11.71939468;stroke-opacity:1"  gorn="0.4.0.0.0.4" width="1.41732" id="rect21729" x="16.945499" y="-1.49191e-006" height="17.007799"/>
                    <rect style="fill:#cccccc;stroke:#cccccc;stroke-width:0;stroke-miterlimit:4;stroke-dasharray:none;stroke-dashoffset:11.71939468;stroke-opacity:1"  gorn="0.4.0.0.0.5" width="1.41732" id="rect21727" x="13.3455" y="-1.49191e-006" height="17.007799"/>
                    <rect style="fill:#cccccc;stroke:#cccccc;stroke-width:0;stroke-miterlimit:4;stroke-dasharray:none;stroke-dashoffset:11.71939468;stroke-opacity:1"  gorn="0.4.0.0.0.6" width="1.41732" id="rect21725" x="9.7444096" y="-1.49191e-006" height="17.007799"/>
                    <path style="fill:#014cb1;fill-opacity:1;fill-rule:nonzero;stroke:none"  d="m 0.209362,15.5905 2.35522,0 c 0.157016,0 0.209363,-0.09255 0.209363,-0.185121 l 0,-1.57339 c 0,-0.09255 -0.052347,-0.138835 -0.209363,-0.138835 l -2.35522,0 c -0.104669,0 -0.209363,0.04629 -0.209363,0.138835 l 0,1.5734 c 0,0.09255 0.104669,0.18512 0.209363,0.18512 m 1.09911,-0.694173 c 0,-0.09255 0.157016,-0.09255 0.157016,0 0,0.09255 -0.157016,0.09255 -0.157016,0 z m 0,-0.555278 c 0,-0.09255 0.157016,-0.09255 0.157016,0 0,0.09255 -0.157016,0.09255 -0.157016,0 z m 1.20378,0.971777 c 0,-0.09255 0.157016,-0.09255 0.157016,0 0,0.09255 -0.157016,0.09255 -0.157016,0 z m 0,-0.323947 c 0,-0.09255 0.157016,-0.09255 0.157016,0 0,0.09255 -0.157016,0.09255 -0.157016,0 z m 0,-0.370227 c 0,-0.09255 0.157016,-0.09255 0.157016,0 0,0.09255 -0.157016,0.09255 -0.157016,0 z m 0,-0.323885 c 0,-0.09255 0.157016,-0.09255 0.157016,0 0,0.09255 -0.157016,0.09255 -0.157016,0 z m 0,-0.370225 c 0,-0.09255 0.157016,-0.09255 0.157016,0 0,0.09255 -0.157016,0.09255 -0.157016,0 z m -2.40756,1.38828 c 0,-0.09255 0.157016,-0.09255 0.157016,0 0,0.09255 -0.157016,0.09255 -0.157016,0 z m 0,-0.323947 c 0,-0.09255 0.157016,-0.09255 0.157016,0 0,0.09255 -0.157016,0.09255 -0.157016,0 z m 0,-0.370227 c 0,-0.09255 0.157016,-0.09255 0.157016,0 0,0.09255 -0.157016,0.09255 -0.157016,0 z m 0,-0.323885 c 0,-0.09255 0.157016,-0.09255 0.157016,0 0,0.09255 -0.157016,0.09255 -0.157016,0 z m 0,-0.370225 c 0,-0.09255 0.157016,-0.09255 0.157016,0 0,0.09255 -0.157016,0.09255 -0.157016,0 z" gorn="0.4.0.0.0.7" id="path8409" connector-curvature="0"/>
                    <path style="fill:#ffffff;fill-opacity:1;fill-rule:nonzero;stroke:none"  d="m 0.418715,14.9427 0,0.04629 c 0,0 0,0 0,0 l 0.052347,0.04629 c 0,0 0,0 0,0 l 0.052347,0 c 0,0 0,0 0,0 0,0 0,0 0,0 0,0 0,0 0,-0.04629 0,0 0,0 0,0 l -0.052347,0 c 0,0 0,0 0,0 l -0.052347,0 c 0,0 0,0 0,0 l 0,-0.04629 c 0,0 0,-0.04629 0,-0.04629 0,0 0,0 0.052347,0 l 0,0 c 0,0 0,0 0,0 0,0 0,0.04629 0,0.04629 l 0,0 0,0 c 0,0 0,0 0,0 0,0 0,0 0,0 0,0 0,0 0,0 0,0 0,0 0,0 l 0.052347,0 0,0 c 0,-0.04629 0,-0.04629 0,-0.04629 -0.052347,0 -0.052347,0 -0.052347,0 l 0,0 c -0.052347,0 -0.052347,0 -0.052347,0 0,0 0,0 0,0.04629 z" gorn="0.4.0.0.0.8" id="path8411" connector-curvature="0"/>
                    <path style="fill:#ffffff;fill-opacity:1;fill-rule:nonzero;stroke:none"  d="m 0.575729,14.8964 0,0.138835 0,0 0.052347,-0.09255 0,0.09255 c 0,0 0,0 0,0 0,0 0,0 0,0 0,0 0,0 0,0 0,0 0,0 0,0 l 0,-0.138835 0,0 -0.052347,0.09255 0,-0.09255 c 0,0 0,0 0,0 0,0 0,0 0,0 0,0 0,0 0,0 0,0 0,0 0,0 z" gorn="0.4.0.0.0.9" id="path8413" connector-curvature="0"/>
                    <path style="fill:#ffffff;fill-opacity:1;fill-rule:nonzero;stroke:none"  d="m 0.680406,14.8964 c 0,0 0,0 0,0 0,0 0,0 0,0 l 0,0 0,0.09255 0,0 c 0,0 0,0 0,0 0,0.04629 0,0.04629 0,0.04629 0,0 0,0 0,0 0,0 0,0 0,0 l 0.0523468,0 c 0,0 0,0 0,0 0,0 0,0 0,0 l 0.0523469,-0.04629 c 0,0 0,0 0,-0.04629 0,0 0,0 0,0 L 0.7327528,14.89637 c 0,0 0,0 0,0 0,0 0,0 0,0 l -0.0523468,0 c 0,0 0,0 0,0 0,0 0,0 0,0 z m 0.0523468,0 0,0 c 0,0 0,0 0,0 l 0,0.04629 c 0,0 0,0 0,0 0,0 0,0.04629 0,0.04629 l 0,0 c 0,0 0,0 0,0 l 0,0 0,-0.09255 z" gorn="0.4.0.0.0.10" id="path8415" connector-curvature="0"/>
                    <path style="fill:#ffffff;fill-opacity:1;fill-rule:nonzero;stroke:none"  d="m 0.418715,14.5724 0,0.04629 c 0,0 0,0 0,0 l 0.052347,0.04629 c 0,0 0,0 0,0 l 0.052347,0 c 0,0 0,0 0,0 0,0 0,0 0,0 0,0 0,0 0,0 0,0 0,0 0,0 l -0.052347,0 c 0,0 0,0 0,0 L 0.418715,14.61869 c 0,0 0,0 0,0 l 0,-0.04629 c 0,0 0,0 0,0 0,0 0,0 0.052347,0 l 0,0 c 0,0 0,0 0,0 0,0 0,0 0,0 l 0,0 0,0 c 0,0 0,0 0,0 0,0 0,0 0,0.04629 0,0 0,0 0,0 0,0 0,0 0,0 l 0.052347,0 0,-0.04629 c 0,0 0,0 0,0 C 0.471062,14.52611 0.471062,14.52611 0.471062,14.52611 l 0,0 c -0.052347,0 -0.052347,0 -0.052347,0.04629 0,0 0,0 0,0 z" gorn="0.4.0.0.0.11" id="path8417" connector-curvature="0"/>
                    <path style="fill:#ffffff;fill-opacity:1;fill-rule:nonzero;stroke:none"  d="m 0.575729,14.5724 0,0.09255 0,0 0.052347,-0.09255 0,0.09255 c 0,0 0,0 0,0 0,0 0,0 0,0 0,0 0,0 0,0 0,0 0,0 0,0 l 0,-0.138835 0,0 -0.052347,0.138835 0,-0.09255 c 0,0 0,0 0,-0.04629 0,0 0,0 0,0 0,0 0,0 0,0 0,0.04629 0,0.04629 0,0.04629 z" gorn="0.4.0.0.0.12" id="path8419" connector-curvature="0"/>
                    <path style="fill:#ffffff;fill-opacity:1;fill-rule:nonzero;stroke:none"  d="m 0.680406,14.5724 c 0,0 0,0 0,0 0,0 0,0 0,0 l 0,0 0,0.09255 0,0 c 0,0 0,0 0,0 0,0 0,0 0,0 0,0 0,0 0,0 0,0 0,0 0,0 l 0.0523468,0 c 0,0 0,0 0,0 0,0 0,0 0,0 l 0.0523469,-0.04629 c 0,0 0,0 0,0 0,0 0,0 0,-0.04629 l -0.0523469,0 c 0,0 0,0 0,0 0,-0.04629 0,-0.04629 0,-0.04629 l -0.0523468,0 c 0,0 0,0 0,0 0,0.04629 0,0.04629 0,0.04629 z m 0.0523468,0 0,0 c 0,0 0,0 0,0 l 0,0.04629 c 0,0 0,0 0,0 0,0 0,0 0,0 l 0,0.04629 c 0,0 0,0 0,0 l 0,0 0,-0.09255 z" gorn="0.4.0.0.0.13" id="path8421" connector-curvature="0"/>
                    <path style="fill:#ffffff;fill-opacity:1;fill-rule:nonzero;stroke:none"  d="m 0.418715,14.2023 0,0.09255 c 0,0 0,0 0,0.04629 0,0 0,0 0,0 0,0 0,0 0,0 0,-0.04629 0,-0.04629 0,-0.04629 l 0,0 0.052347,0.04629 c 0,0 0.052347,0 0.052347,0 0,0 0,0 0,0 0,-0.04629 0,-0.04629 0,-0.04629 0,0 0,0 0,0 L 0.41874,14.24856 0.523409,14.20227 c 0,0 0,0 0,0 0,0 0,0 0,0 0,0 0,0 0,0 0,0 -0.052347,0 -0.052347,0 l -0.052347,0.04629 0,-0.04629 c 0,0 0,0 0,0 0,0 0,0 0,0 0,0 0,0 0,0 0,0 0,0 0,0 z" gorn="0.4.0.0.0.14" id="path8423" connector-curvature="0"/>
                    <path style="fill:#ffffff;fill-opacity:1;fill-rule:nonzero;stroke:none"  d="m 0.575729,14.2023 0,0.138835 0.052347,0 c 0,0 0,0 0,0 0,-0.04629 0,-0.04629 0,-0.04629 0,0 0,0 0,0 0,0 0,0 0,0 l -0.052347,0 0,-0.04629 0,0 c 0,0 0.052347,0 0.052347,0 0,0 0,0 0,0 0,0 0,0 0,0 0,0 -0.052347,0 -0.052347,0 l 0,0 0,-0.04629 0.052347,0 c 0,0 0,0 0,0 0,0 0,0 0,0 0,0 0,0 0,0 0,0 0,0 0,0 l -0.052347,0 z" gorn="0.4.0.0.0.15" id="path8425" connector-curvature="0"/>
                    <path style="fill:#ffffff;fill-opacity:1;fill-rule:nonzero;stroke:none"  d="m 0.680406,14.2948 0,0 c 0,0 0,0 0,0.04629 0,0 0,0 0,0 0,0 0,0 0,0 0,-0.04629 0,-0.04629 0,-0.04629 l 0,0 0.0523468,-0.04629 0,0.04629 0,0 c 0,0 0.0523469,0 0.0523469,0.04629 0,0 0,0 0,0 0,0 0,0 0,0 0,-0.04629 0,-0.04629 0,-0.04629 l 0,0 -0.0523469,-0.04629 0,-0.04629 c 0,0 0,0 0,0 0,0 0,0 0,0 0,0 0,0 0,0 0,0 0,0 0,0 l 0,0.04629 -0.0523468,0.04629 z" gorn="0.4.0.0.0.16" id="path8427" connector-curvature="0"/>
                    <path style="fill:#ffffff;fill-opacity:1;fill-rule:nonzero;stroke:none"  d="m 0.366376,15.3592 0,0 c 0,0 0,0 0.052347,0 0,0 0,0 0,0 0,0 0,0 0,0 0,0 0,0 0,0 l 0,0 0,-0.09255 0.052347,0.09255 0,0 c 0,0 0,0 0,0 0,0 0,0 0,0 0,0 0,0 0,0 0,0 0,0 0,0 l 0,0 0,-0.09255 c -0.052347,0 -0.052347,0 -0.052347,0 0,0 0,0 0,0 L 0.366376,15.3592 Z" gorn="0.4.0.0.0.17" id="path8429" connector-curvature="0"/>
                    <path style="fill:#ffffff;fill-opacity:1;fill-rule:nonzero;stroke:none"  d="m 0.523392,15.2666 0,0.04629 c 0,0.04629 0,0.04629 0,0.04629 0,0 0,0 0,0 0,0 0,0 0,0 0,0 0,0 0,-0.04629 l 0,0 0.052347,0.04629 c 0,0 0,0 0,0 l 0,0 c 0,0 0.052347,0 0.052347,0 0,-0.04629 0,-0.04629 0,-0.04629 l 0,0 c 0,0 0,0 0,0 0,0 0,0 0,0 0,0 0,0 -0.052347,0 0,0 0,0 0,0 l 0,0 c 0,0 0,0 0,0 0,0 0,0 0,0 l 0,0 -0.052347,0 0,-0.04629 c 0,0 0,0 0,0 0,0 0,0 0,0 0,0 0,0 0,0 0,0 0,0 0,0 z" gorn="0.4.0.0.0.18" id="path8431" connector-curvature="0"/>
                    <path style="fill:#ffffff;fill-opacity:1;fill-rule:nonzero;stroke:none"  d="m 0.680406,15.2666 0,0.04629 c 0,0 0,0 0,0 0,0 0,0 0,0 l 0,0.04629 c 0,0 0,0 0,0 l 0.0523468,0 0,0 0,0 0,0 0,0 0,0 0,0 0,0 0,-0.04629 0,0 c 0,0 0,0 0,0 l 0,0 c 0,0 0,-0.04629 0,-0.04629 0,0 0,0 0,0 l -0.0523468,0 0,0 c 0,0 0,0 0,0 l 0,0 0,0 0,0 c 0,0 0,0 0,0 l 0.0523468,0 c 0,0 0,0 0,0 0,0 0,0 0,0 0,0 0,0 0,0 0,0 0,0 0,0 l -0.0523468,0 0,0 0,0 0,0 0,0 0,0 0,0 0,0 0,0 0,0 c 0,0 0,0 0,0 z m 0,0.04629 0.0523468,0 0,0 c 0,0 0,0 0,0 0,0 0,0 0,0 l -0.0523468,0 c 0,0 0,0 0,0 0,0 0,0 0,0 l 0,0 c 0,0 0,0 0,0 l 0,0 z" gorn="0.4.0.0.0.19" id="path8433" connector-curvature="0"/>
                    <path style="fill:#ffffff;fill-opacity:1;fill-rule:nonzero;stroke:none"  d="m 0.785081,15.3129 c 0,0 0,0 0,0 0,0.04629 0,0.04629 0,0.04629 0,0 0,0 0,0 l 0.0523468,0 0,0 c 0,0 0,0 0,0 0,0 0,0 0,0 l 0.0523472,0 c 0,0 0,0 0,0 0,0 0,0 0,0 0,0 0,0 0,0 0,0 0,0 0,0 l -0.0523472,0 c 0,0 0,0 0,0 0,0 0,0 0,0 l 0,0 0,0 c 0,0 0,0 0,0 0,0 0,0 0,-0.04629 0,0 0,0 0,0 0,0 0,0 0,0 l 0,0 0,-0.04629 c 0,0 0,0 0,0 0,0 0,0 0,0 0,0 0,0 0,0 0,0 0,0 0,0 l 0,0.04629 -0.0523468,0 c 0,0 0,0 0,0 z" gorn="0.4.0.0.0.20" id="path8435" connector-curvature="0"/>
                    <path style="fill:#ffffff;fill-opacity:1;fill-rule:nonzero;stroke:none"  d="m 0.418715,13.8783 0,0.04629 c 0,0 0,0 0,0 l 0.052347,0.04629 c 0,0 0,0 0,0 l 0.052347,0 c 0,0 0,0 0,0 0,0 0,0 0,0 0,0 0,0 0,0 0,0 0,0 0,0 l -0.052347,0 c 0,0 0,0 0,0 l 0,-0.04629 c 0,0 0,0 0,0 l 0,-0.04629 c 0,0 0,0 0,0 0,0 0,0 0,0 l 0,0 c 0.052347,0 0.052347,0 0.052347,0 0,0 0,0 0,0 l 0,0 -0.052347,0 c 0,0 0,0 0,0 0,0 0,0 0,0 0,0 0,0 0,0 0,0 0,0 0,0 l 0.052347,0 0,0 c 0,0 0,-0.04629 0,-0.04629 0,0 0,0 -0.052347,0 l 0,0 c 0,0 -0.052347,0 -0.052347,0 0,0 0,0.04629 0,0.04629 z" gorn="0.4.0.0.0.21" id="path8437" connector-curvature="0"/>
                    <path style="fill:#ffffff;fill-opacity:1;fill-rule:nonzero;stroke:none"  d="m 0.575729,13.8321 0,0.138835 0,0 0.052347,-0.09255 0,0.09255 c 0,0 0,0 0,0 0,0 0,0 0,0 0,0 0,0 0,0 0.0523472,0 0.0523472,0 0.0523472,0 l 0,-0.138835 -0.0523472,0 -0.052347,0.09255 0,-0.09255 c 0,0 0,0 0,0 0,0 0,0 0,0 0,0 0,0 0,0 0,0 0,0 0,0 z" gorn="0.4.0.0.0.22" id="path8439" connector-curvature="0"/>
                    <path style="fill:#ffffff;fill-opacity:1;fill-rule:nonzero;stroke:none"  d="m 0.680406,13.8321 c 0,0 0,0 0,0.04629 0,0 0,0 0.0523468,0 l 0,0 0,0.09255 0,0 c -0.0523468,0 -0.0523468,0 -0.0523468,0 0,0 0,0 0,0 0,0 0,0 0,0 0,0 0,0 0.0523468,0 l 0,0 c 0,0 0,0 0,0 0.0523469,0 0.0523469,0 0.0523469,0 l 0,-0.04629 c 0,0 0,0 0,0 0,-0.04629 0,-0.04629 0,-0.04629 l 0,-0.04629 c 0,0 0,0 -0.0523469,0 0,0 0,0 0,0 l 0,0 c -0.0523468,0 -0.0523468,0 -0.0523468,0 0,0 0,0 0,0 z m 0.0523468,0.04629 0,0 c 0,0 0,0 0,0 l 0.0523469,0 c 0,0 0,0.04629 0,0.04629 0,0 0,0 0,0 l -0.0523469,0.04629 c 0,0 0,0 0,0 l 0,0 0,-0.09255 z" gorn="0.4.0.0.0.23" id="path8441" connector-curvature="0"/>
                    <path style="fill:#ffffff;fill-opacity:1;fill-rule:nonzero;stroke:none"  d="m 0.837418,13.8783 0,0.04629 c 0,0 0,0 0,0 0,0 0,0 0,0 l 0,0 c 0,0 0,0 0.0523464,0 l 0,0 c 0,0 0,0 0,0 l 0,0 c 0,0 0,0 0,0 l 0,0 0,0 0,0 0,0.04629 c 0,0 0,0 0,0 0,0 0,0 0,0 0.0523472,0 0.0523472,0 0.0523472,0 0,0 0,0 0,0 l 0,-0.138835 c 0,0 0,0 0,0 0,0 0,0 -0.0523472,0 0,0 0,0 0,0 0,0 0,0 0,0 l 0,0 c 0,0 0,0 0,0 0,0 0,0 0,0 0,0 0,0 0,0 l 0,0 -0.0523464,0 0,0 0,0 0,0 0,0 0,0 0,0 0,0 0,0 c 0,0.04629 0,0.04629 0,0.04629 z m 0,0 c 0,0 0,0 0,0 l 0,0 0,0 0,0 c 0,0 0.0523464,0 0.0523464,0 l 0,0 c 0,0 0,0 0,0 l 0,0 c 0,0 0,0 0,0 l 0,0 c 0,0 0,0.04629 0,0.04629 l 0,0 c 0,0 0,0 0,0 l 0,0 c 0,0 -0.0523464,0 -0.0523464,0 0,0 0,0 0,0 l 0,0 c 0,0 0,0 0,0 l 0,-0.04629 z" gorn="0.4.0.0.0.24" id="path8443" connector-curvature="0"/>
                    <path style="fill:#ffffff;fill-opacity:1;fill-rule:nonzero;stroke:none"  d="m 1.98886,13.8321 0,0.04629 c 0,0 0,0 0,0 0,0 0,0 0,0 l 0,0 c 0,0 0,0 0,0 0,0 0,0 0,0 l 0,-0.04629 c 0,0 0,0 0,0 0,0 0,0 0,0 l 0,0 c 0,0 0,0 0,0 0,0 0,0 0,0 z m 0,0.138835 c 0,0 0,0 0,0 0,0 0,0 0,0 l 0,0 c 0,0 0,0 0,0 0,0 0,0 0,0 l 0,0 0,-0.09255 c 0,0 0,0 0,0 0,0 0,0 0,0 0,0 0,0 0,0 0,0 0,0 0,0 l 0,0.09255 z" gorn="0.4.0.0.0.25" id="path8445" connector-curvature="0"/>
                    <path style="fill:#ffffff;fill-opacity:1;fill-rule:nonzero;stroke:none"  d="m 2.09354,13.8321 0,0.138835 0.052347,0 c 0,0 0,0 0,0 0,0 0,0 0,-0.04629 l 0,0 c 0,0 0,0 0,0 0,0 0,0 0,0 l 0,0 0,-0.09255 c 0,0 0,0 0,0 0,0 0,0 0,0 0,0 0,0 0,0 0,0 0,0 0,0 l -0.052347,0.09255 0,0 0,-0.09255 c 0,0 0,0 0,0 0,0 0,0 0,0 0,0 0,0 0,0 0,0 0,0 0,0 z m 0,0.09255 0.052347,0 c 0,0 0,0 0,0 0,0 0,0 0,0 l 0,0 c 0,0 0,0.04629 0,0.04629 0,0 0,0 0,0 l -0.052347,0 0,-0.04629 z" gorn="0.4.0.0.0.26" id="path8447" connector-curvature="0"/>
                    <path style="fill:#ffffff;fill-opacity:1;fill-rule:nonzero;stroke:none"  d="m 2.19822,13.8783 c 0,0 0,0 0,0 0,0 0,0 0,0 0.052347,0 0.052347,0 0.052347,0 0,0 0,0 0,0 0,0 0,0 0,0 0,0 0,0 0,0 l 0.052347,0 c 0,0 0,0 0,0 l -0.104669,0.04629 c 0,0 0,0 0,0.04629 l 0,0 c 0,0 0,0 0,0 0,0 0.052346,0 0.052346,0 l 0.052347,0 c 0,0 0,0 0,0 0,0 0,0 0,-0.04629 0,0 0,0 0,0 0,0 0,0 0,0 0,0 0,0 0,0 0,0 0,0 0,0 0,0.04629 0,0.04629 0,0.04629 0,0 0,0 0,0 l -0.052347,0 c 0,0 0,0 0,0 l 0,0 0,0 0.052347,-0.09255 c 0,0 0,0 0,0 0,-0.04629 0,-0.04629 0,-0.04629 0,0 0,0 0,0 l -0.052347,0 c 0,0 0,0 -0.052346,0 0,0 0,0.04629 0,0.04629 z" gorn="0.4.0.0.0.27" id="path8449" connector-curvature="0"/>
                    <path style="fill:#ffffff;fill-opacity:1;fill-rule:nonzero;stroke:none"  d="m 2.35524,13.9246 0,0.04629 0.104669,0 0,-0.04629 c 0,0 0,0 0,0 -0.052346,0 -0.052346,0 -0.052346,0 0,0 0,0 0,0 0,0 0,0 0,0 l 0,0.04629 0,0 0,-0.138835 c 0,0 0,0 0,0 0,0 0,0 0,0 0,0 0,0 0,0 0,0 0,0 0,0 l 0,0.138835 -0.052322,0 0,-0.04629 c 0,0 0,0 0,0 0,0 0,0 0,0 0,0 0,0 0,0 0,0 0,0 0,0 z" gorn="0.4.0.0.0.28" id="path8451" connector-curvature="0"/>
                    <path style="fill:#ffffff;fill-opacity:1;fill-rule:nonzero;stroke:none"  d="m 1.88419,15.2666 c 0,0 0,0 0,0 0,0 0.052347,0 0.052347,0 0,0 0,0 0,0 0,0 0,0 0,0 0,0 0,0 0,0 0,0 0,0 0,0 l 0.052347,0 c 0,0 0,0 0,0 l -0.104669,0.09255 c 0,0 0,0 0,0 l 0,0 c 0,0 0,0 0.052347,0 0,0 0,0 0,0 l 0.052347,0 c 0,0 0,0 0,0 0,0 0,0 0,0 0,0 0,0 0,0 0,0 0,0 0,0 0,0 0,0 0,0 0,0 0,0 0,0 0,0 0,0 0,0 0,0 0,0 0,0 l -0.052347,0 c 0,0 0,0 0,0 l 0,0 0,0 0.052347,-0.09255 c 0,0 0,0 0,0 0,0 0,0 0,0 0,0 0,0 0,0 l -0.052347,0 c 0,0 0,0 0,0 -0.052347,0 -0.052347,0 -0.052347,0 z" gorn="0.4.0.0.0.29" id="path8453" connector-curvature="0"/>
                    <path style="fill:#ffffff;fill-opacity:1;fill-rule:nonzero;stroke:none"  d="m 2.04121,15.2666 0,0.09255 c 0,0 0,0 0,0 0,0 0,0 0,0 0,0 0,0 0,0 0,0 0,0 0,0 l 0,-0.09255 0,0 0.052347,0 0,0 0,0 0,0.04629 c 0,0 0,0 0,0 0,0 0,0.04629 0,0.04629 0,0 0,-0.04629 0,-0.04629 0,0 0,0 0,0 l 0,-0.04629 0,0 0,0 0,0 0,0 0,0.09255 c 0,0 0,0 0,0 0,0 0,0 0.052347,0 0,0 0,0 0,0 0,0 0,0 0,0 l 0,-0.09255 0,0 c -0.052347,0 -0.052347,0 -0.052347,0 l 0,0 c 0,0 0,0 0,0 0,0 0,0 0,0 l -0.052347,0 c 0,0 0,0 0,0 l 0,0 z" gorn="0.4.0.0.0.30" id="path8455" connector-curvature="0"/>
                    <path style="fill:#ffffff;fill-opacity:1;fill-rule:nonzero;stroke:none"  d="m 2.19822,15.2666 c 0,0 0,0 0,0 0,0 0,0 0,0 l 0,0 0,0.09255 0,0 c 0,0 0,0 0,0 0,0 0,0 0,0 0,0 0,0 0,0 0,0 0,0 0,0 l 0.052347,0 c 0,0 0,0 0,0 0,0 0,0 0,0 0,0 0,0 0,0 0,0 0,0 0,0 l 0,0 0,-0.09255 0,0 c 0,0 0,0 0,0 0,0 0,0 0,0 0,0 0,0 0,0 0,0 0,0 0,0 l -0.052347,0 c 0,0 0,0 0,0 0,0 0,0 0,0 z" gorn="0.4.0.0.0.31" id="path8457" connector-curvature="0"/>
                    <path style="fill:#ffffff;fill-opacity:1;fill-rule:nonzero;stroke:none"  d="m 2.3029,15.3129 c 0,0 0,0 0,0 l 0.052347,0.04629 c 0,0 0,0 0,0 0,0 0,0 0,0 0,0 0,0 0,0 0,0 0,0 0,0 L 2.407569,15.3129 c 0,0 0,0 0,0 0,0 0,0 0,0 L 2.355247,15.26661 c 0,0 0,0 0,0 0,0 0,0 0,0 0,0 0,0 0,0 0,0 0,0 0,0 L 2.3029,15.3129 c 0,0 0,0 0,0 z m 0,0 c 0,0 0,0 0,0 0,0 0,0 0,0 l 0.052347,-0.04629 c 0,0 0,0 0,0 0,0 0,0 0,0 l 0,0.04629 c 0,0 0,0 0,0 0,0 0,0 0,0 l 0,0.04629 c 0,0 0,0 0,0 0,0 0,0 0,0 L 2.3029,15.3129 Z" gorn="0.4.0.0.0.32" id="path8459" connector-curvature="0"/>
                    <path style="fill:#ffffff;fill-opacity:1;fill-rule:nonzero;stroke:none"  d="m 2.04121,14.9427 c 0,0.04629 0,0.04629 0,0.04629 l 0.052347,0.04629 c 0,0 0,0 0,0 0,0 0,0 0,0 l 0.052347,0 c 0,0 0,0 0,0 0,0 0,0 0,0 0,0 0,0 0,-0.04629 0,0 0,0 0,0 l -0.052347,0 c 0,0 0,0 0,0 l 0,0 c 0,0 0,-0.04629 0,-0.04629 0,0 0,0 0,0 l 0,-0.04629 c 0,0 0,0 0,0 l 0.052347,0 c 0,0 0,0 0,0 0,0 0,0 0,0 0,0 0,0 0,0 0,0 0,0 0,0 l -0.052347,0 c 0,0 0,0 0,0 0,0 0,0 0,0 C 2.04121,14.9427 2.04121,14.9427 2.04121,14.9427 c 0,0 0,0 0,0 z" gorn="0.4.0.0.0.33" id="path8461" connector-curvature="0"/>
                    <path style="fill:#ffffff;fill-opacity:1;fill-rule:nonzero;stroke:none"  d="m 2.19822,14.8964 0,0.138835 c 0,0 0,0 0,0 0,0 0,0 0,0 0,0 0,0 0,0 0,0 0,0 0,0 l 0,-0.138835 0.052347,0 c 0,0 0,0 0,0 0.052347,0 0.052347,0 0.052347,0 0,0 0,0 -0.052347,0 0,0 0,0 0,0 l -0.052347,0 z" gorn="0.4.0.0.0.34" id="path8463" connector-curvature="0"/>
                    <path style="fill:#ffffff;fill-opacity:1;fill-rule:nonzero;stroke:none"  d="m 2.3029,14.8964 0,0.138835 c 0,0 0,0 0,0 0,0 0,0 0,0 0.052347,0 0.052347,0 0.052347,0 0,0 0,0 0,0 l 0,-0.04629 0.052322,0.04629 c 0,0 0,0 0,0 0,0 0,0 0,0 0,0 0,0 0,0 0,0 0,0 0,-0.04629 l -0.052322,-0.04629 0.052322,-0.04629 c 0,0 0,0 0,0 0,0 0,0 0,0 0,0 0,0 0,0 0,0 0,0 0,0 l -0.052322,0.04629 0,-0.04629 c 0,0 0,0 0,0 0,0 0,0 -0.052347,0 0,0 0,0 0,0 0,0 0,0 0,0 z" gorn="0.4.0.0.0.35" id="path8465" connector-curvature="0"/>
                    <path style="fill:#ffffff;fill-opacity:1;fill-rule:nonzero;stroke:none"  d="m 2.04121,14.5724 c 0,0 0,0 0,0 0,0 0,0 0,0 0,0 0,0 0.052347,0 0,0 0,0 0,0 0,0 0,0 0,0 0,0 0,0 0,0 l 0.052347,0 c 0,0 0,0 0,0 L 2.04123,14.665 c 0,0 0,0 0,0 l 0,0 c 0,0 0,0 0,0 0,0 0,0 0.052347,0 l 0,0 c 0.052346,0 0.052346,0 0.052346,0 0,0 0,0 0,0 0,0 0,0 0,0 0,0 0,0 0,0 0,0 0,0 0,0 0,0 0,0 0,0 0,0 0,0 0,0 0,0 0,0 -0.052346,0 l 0,0 c 0,0 0,0 0,0 l 0,0 0,0 0.052346,-0.09255 c 0,0 0,0 0,0 0,0 0,0 0,0 0,-0.04629 0,-0.04629 0,-0.04629 l -0.052346,0 c 0,0 -0.052347,0 -0.052347,0.04629 0,0 0,0 0,0 z" gorn="0.4.0.0.0.36" id="path8467" connector-curvature="0"/>
                    <path style="fill:#ffffff;fill-opacity:1;fill-rule:nonzero;stroke:none"  d="m 2.19822,14.5724 0,0.09255 c 0,0 0,0 0,0 0,0 0,0 0,0 0,0 0,0 0,0 0,0 0,0 0,0 l 0,-0.09255 0,0 0,0 0,0 0,0 0,0.04629 c 0,0 0,0 0.052347,0 0,0 0,0 0,0 0,0 0,0 0,0 0,0 0,0 0,0 l 0,-0.04629 0,0 0,0 0,0 0,0 0,0.09255 c 0,0 0,0 0,0 0,0 0,0 0,0 0,0 0,0 0,0 0.052347,0 0.052347,0 0.052347,0 l 0,-0.09255 -0.052347,0 c 0,-0.04629 0,-0.04629 0,-0.04629 l 0,0 c 0,0 0,0 0,0.04629 0,-0.04629 0,-0.04629 -0.052347,-0.04629 l 0,0 c 0,0 0,0 0,0.04629 l 0,0 z" gorn="0.4.0.0.0.37" id="path8469" connector-curvature="0"/>
                    <path style="fill:#ffffff;fill-opacity:1;fill-rule:nonzero;stroke:none"  d="m 2.3029,14.6187 c 0,0 0,0 0,0 l 0.052347,0.04629 c 0,0 0,0 0,0 0,0 0,0 0,0 0,0 0,0 0,0 0.052322,0 0.052322,0 0.052322,0 l 0,-0.04629 c 0,0 0,0 0,0 0,0 0,0 0,-0.04629 l 0,0 c 0,0 0,0 -0.052322,-0.04629 0,0 0,0 0,0 0,0 0,0 0,0 0,0.04629 0,0.04629 0,0.04629 l -0.052347,0 c 0,0.04629 0,0.04629 0,0.04629 z m 0.052347,0 c 0,0 0,0 0,0 0,0 0,0 0,0 l 0,-0.04629 c 0,0 0,0 0,0 0,0 0,0 0,0 l 0.052322,0.04629 c 0,0 0,0 0,0 0,0 0,0 0,0 l -0.052322,0.04629 c 0,0 0,0 0,0 0,0 0,0 0,0 l 0,-0.04629 z" gorn="0.4.0.0.0.38" id="path8471" connector-curvature="0"/>
                    <path style="fill:#ffffff;fill-opacity:1;fill-rule:nonzero;stroke:none"  d="m 2.14588,14.2023 0,0.138835 0.052347,0 0.052347,-0.138835 0,0.09255 c 0,0 0,0 0,0.04629 0,0 0,0 0,0 0,0 0,0 0,0 0,-0.04629 0,-0.04629 0,-0.04629 l 0,-0.09255 0,0 -0.052347,0.09255 0,-0.09255 c 0,0 0,0 0,0 0,0 -0.052347,0 -0.052347,0 0,0 0,0 0,0 0,0 0,0 0,0 z" gorn="0.4.0.0.0.39" id="path8473" connector-curvature="0"/>
                    <path style="fill:#ffffff;fill-opacity:1;fill-rule:nonzero;stroke:none"  d="m 2.3029,14.2485 c 0,0 0,0 0,0.04629 l 0,0 c 0,0 0,0 0,0 0.052347,0.04629 0.052347,0.04629 0.052347,0.04629 l 0,0 c 0,0 0,0 0.052322,0 0,-0.04629 0,-0.04629 0,-0.04629 0,0 0,0 0,0 -0.052322,0 -0.052322,0 -0.052322,0 l 0,0 c 0,0 0,0 0,0 L 2.3029,14.2485 c 0,0 0,0 0,0 0,0 0,0 0,0 l 0.052347,-0.04629 c 0,0 0,0 0,0 l 0,0 c 0,0 0,0 0.052322,0 0,0 0,0 0,0 0,0 0,0 0,0 -0.052322,0 -0.052322,0 -0.052322,0 l 0,0 c 0,0 0,0 -0.052347,0 0,0 0,0 0,0 0,0 0,0.04629 0,0.04629 0,0 0,0 0,0 z" gorn="0.4.0.0.0.40" id="path8475" connector-curvature="0"/>
                    <path style="fill:#000000;fill-opacity:1;fill-rule:nonzero;stroke:none"  d="m 1.83185,15.0815 0,0.462782 z" gorn="0.4.0.0.0.41" id="path8477" connector-curvature="0"/>
                    <path style="fill:none;stroke:#ffffff;stroke-width:0;stroke-linecap:round;stroke-linejoin:miter;stroke-miterlimit:4;stroke-dasharray:none;stroke-opacity:1"  d="m 1.83185,15.0815 0,0.462782" gorn="0.4.0.0.0.42" id="path8479" connector-curvature="0"/>
                    <path style="fill:#000000;fill-opacity:1;fill-rule:nonzero;stroke:none"  d="m 1.83185,15.5443 -0.83741,0 z" gorn="0.4.0.0.0.43" id="path8481" connector-curvature="0"/>
                    <path style="fill:none;stroke:#ffffff;stroke-width:0;stroke-linecap:round;stroke-linejoin:miter;stroke-miterlimit:4;stroke-dasharray:none;stroke-opacity:1"  d="m 1.83185,15.5443 -0.83741,0" gorn="0.4.0.0.0.44" id="path8483" connector-curvature="0"/>
                    <path style="fill:#000000;fill-opacity:1;fill-rule:nonzero;stroke:none"  d="m 0.994435,15.5443 0,-0.462782 z" gorn="0.4.0.0.0.45" id="path8485" connector-curvature="0"/>
                    <path style="fill:none;stroke:#ffffff;stroke-width:0;stroke-linecap:round;stroke-linejoin:miter;stroke-miterlimit:4;stroke-dasharray:none;stroke-opacity:1"  d="m 0.994435,15.5443 0,-0.462782" gorn="0.4.0.0.0.46" id="path8487" connector-curvature="0"/>
                    <path style="fill:#000000;fill-opacity:1;fill-rule:nonzero;stroke:none"  d="m 1.83185,14.2023 0,-0.462783 z" gorn="0.4.0.0.0.47" id="path8489" connector-curvature="0"/>
                    <path style="fill:none;stroke:#ffffff;stroke-width:0;stroke-linecap:round;stroke-linejoin:miter;stroke-miterlimit:4;stroke-dasharray:none;stroke-opacity:1"  d="m 1.83185,14.2023 0,-0.462783" gorn="0.4.0.0.0.48" id="path8491" connector-curvature="0"/>
                    <path style="fill:#000000;fill-opacity:1;fill-rule:nonzero;stroke:none"  d="m 1.83185,13.7395 -0.83741,0 z" gorn="0.4.0.0.0.49" id="path8493" connector-curvature="0"/>
                    <path style="fill:none;stroke:#ffffff;stroke-width:0;stroke-linecap:round;stroke-linejoin:miter;stroke-miterlimit:4;stroke-dasharray:none;stroke-opacity:1"  d="m 1.83185,13.7395 -0.83741,0" gorn="0.4.0.0.0.50" id="path8495" connector-curvature="0"/>
                    <path style="fill:#000000;fill-opacity:1;fill-rule:nonzero;stroke:none"  d="m 0.994435,13.7395 0,0.462783 z" gorn="0.4.0.0.0.51" id="path8497" connector-curvature="0"/>
                    <path style="fill:none;stroke:#ffffff;stroke-width:0;stroke-linecap:round;stroke-linejoin:miter;stroke-miterlimit:4;stroke-dasharray:none;stroke-opacity:1"  d="m 0.994435,13.7395 0,0.462783" gorn="0.4.0.0.0.52" id="path8499" connector-curvature="0"/>
                    <path style="fill:none;stroke:#ffffff;stroke-width:0;stroke-linecap:round;stroke-linejoin:miter;stroke-miterlimit:4;stroke-dasharray:none;stroke-opacity:1"  d="m 0.785081,15.5443 0.157017,-0.0926 -0.157017,-0.0463 0,0.138835 m 0,0 0,-0.138835 0,0.138835 m 0,-0.04629 0,-0.09255 0,0.09255 m 0.0523468,0 0,-0.09255 0,0.09255 m 0,0 0,-0.09255 0,0.09255 m 0,0 0,-0.04629 0,0.04629 m 0.0523472,0 0,-0.04629 0,0.04629 m 0,-0.04629 0,0 0,0" gorn="0.4.0.0.0.53" id="path8501" connector-curvature="0"/>
                    <path style="fill:#9a916c;fill-opacity:1;fill-rule:nonzero;stroke:none"  d="m 1.25613,13.9246 0,0 c 0,-0.04629 0,-0.09255 -0.052346,-0.09255 l 0,0 c -0.052347,0 -0.104669,0.04629 -0.104669,0.09255 l 0,0 c 0,0.04629 0.052347,0.04629 0.104669,0.04629 l 0,0 c 0.052346,0 0.052346,0 0.052346,-0.04629 z" gorn="0.4.0.0.0.54" id="path8503" connector-curvature="0"/>
                    <path style="fill:#9a916c;fill-opacity:1;fill-rule:nonzero;stroke:none"  d="m 1.67484,15.3129 0,0 c 0,0 -0.052347,-0.04629 -0.104669,-0.04629 l 0,0 c 0,0 -0.052346,0.04629 -0.052346,0.04629 l 0,0 c 0,0.04629 0.052346,0.09255 0.052346,0.09255 l 0,0 c 0.052347,0 0.104669,-0.04629 0.104669,-0.09255 z" gorn="0.4.0.0.0.55" id="path8505" connector-curvature="0"/>
                    <path style="fill:none;stroke:#9a916c;stroke-width:0;stroke-linecap:butt;stroke-linejoin:miter;stroke-miterlimit:4;stroke-dasharray:none;stroke-opacity:1"  d="m 2.7216,15.3129 c 0,-0.04629 -0.052346,-0.09255 -0.157016,-0.09255 -0.052346,0 -0.104669,0.04629 -0.104669,0.09255 0,0.09255 0.052347,0.138835 0.104669,0.138835 0.104669,0 0.157016,-0.04629 0.157016,-0.138835 z" gorn="0.4.0.0.0.56" id="path8507" connector-curvature="0"/>
                    <path style="fill:none;stroke:#9a916c;stroke-width:0;stroke-linecap:butt;stroke-linejoin:miter;stroke-miterlimit:4;stroke-dasharray:none;stroke-opacity:1"  d="m 2.7216,14.989 c 0,-0.04629 -0.052346,-0.09255 -0.157016,-0.09255 -0.052346,0 -0.104669,0.04629 -0.104669,0.09255 0,0.04629 0.052347,0.09255 0.104669,0.09255 0.104669,0 0.157016,-0.04629 0.157016,-0.09255 z" gorn="0.4.0.0.0.57" id="path8509" connector-curvature="0"/>
                    <path style="fill:none;stroke:#9a916c;stroke-width:0;stroke-linecap:butt;stroke-linejoin:miter;stroke-miterlimit:4;stroke-dasharray:none;stroke-opacity:1"  d="m 2.7216,14.6187 c 0,-0.04629 -0.052346,-0.09255 -0.157016,-0.09255 -0.052346,0 -0.104669,0.04629 -0.104669,0.09255 0,0.04629 0.052347,0.09255 0.104669,0.09255 0.104669,0 0.157016,-0.04629 0.157016,-0.09255 z" gorn="0.4.0.0.0.58" id="path8511" connector-curvature="0"/>
                    <path style="fill:none;stroke:#9a916c;stroke-width:0;stroke-linecap:butt;stroke-linejoin:miter;stroke-miterlimit:4;stroke-dasharray:none;stroke-opacity:1"  d="m 2.7216,14.2948 c 0,-0.09255 -0.052346,-0.138835 -0.157016,-0.138835 -0.052346,0 -0.104669,0.04629 -0.104669,0.138835 0,0.04629 0.052347,0.09255 0.104669,0.09255 0.104669,0 0.157016,-0.04629 0.157016,-0.09255 z" gorn="0.4.0.0.0.59" id="path8513" connector-curvature="0"/>
                    <path style="fill:none;stroke:#9a916c;stroke-width:0;stroke-linecap:butt;stroke-linejoin:miter;stroke-miterlimit:4;stroke-dasharray:none;stroke-opacity:1"  d="m 2.7216,13.9246 c 0,-0.04629 -0.052346,-0.09255 -0.157016,-0.09255 -0.052346,0 -0.104669,0.04629 -0.104669,0.09255 0,0.04629 0.052347,0.09255 0.104669,0.09255 0.104669,0 0.157016,-0.04629 0.157016,-0.09255 z" gorn="0.4.0.0.0.60" id="path8515" connector-curvature="0"/>
                    <path style="fill:none;stroke:#9a916c;stroke-width:0;stroke-linecap:butt;stroke-linejoin:miter;stroke-miterlimit:4;stroke-dasharray:none;stroke-opacity:1"  d="m 0.314039,15.3129 c 0,-0.04629 -0.052347,-0.09255 -0.104669,-0.09255 -0.052347,0 -0.104669,0.04629 -0.104669,0.09255 0,0.09255 0.052347,0.138835 0.104669,0.138835 0.052347,0 0.104669,-0.04629 0.104669,-0.138835 z" gorn="0.4.0.0.0.61" id="path8517" connector-curvature="0"/>
                    <path style="fill:none;stroke:#9a916c;stroke-width:0;stroke-linecap:butt;stroke-linejoin:miter;stroke-miterlimit:4;stroke-dasharray:none;stroke-opacity:1"  d="m 0.314039,14.989 c 0,-0.04629 -0.052347,-0.09255 -0.104669,-0.09255 -0.052347,0 -0.104669,0.04629 -0.104669,0.09255 0,0.04629 0.052347,0.09255 0.104669,0.09255 0.052347,0 0.104669,-0.04629 0.104669,-0.09255 z" gorn="0.4.0.0.0.62" id="path8519" connector-curvature="0"/>
                    <path style="fill:none;stroke:#9a916c;stroke-width:0;stroke-linecap:butt;stroke-linejoin:miter;stroke-miterlimit:4;stroke-dasharray:none;stroke-opacity:1"  d="m 0.314039,14.6187 c 0,-0.04629 -0.052347,-0.09255 -0.104669,-0.09255 -0.052347,0 -0.104669,0.04629 -0.104669,0.09255 0,0.04629 0.052347,0.09255 0.104669,0.09255 0.052347,0 0.104669,-0.04629 0.104669,-0.09255 z" gorn="0.4.0.0.0.63" id="path8521" connector-curvature="0"/>
                    <path style="fill:none;stroke:#9a916c;stroke-width:0;stroke-linecap:butt;stroke-linejoin:miter;stroke-miterlimit:4;stroke-dasharray:none;stroke-opacity:1"  d="m 0.314039,14.2948 c 0,-0.09255 -0.052347,-0.138835 -0.104669,-0.138835 -0.052347,0 -0.104669,0.04629 -0.104669,0.138835 0,0.04629 0.052347,0.09255 0.104669,0.09255 0.052347,0 0.104669,-0.04629 0.104669,-0.09255 z" gorn="0.4.0.0.0.64" id="path8523" connector-curvature="0"/>
                    <path style="fill:none;stroke:#9a916c;stroke-width:0;stroke-linecap:butt;stroke-linejoin:miter;stroke-miterlimit:4;stroke-dasharray:none;stroke-opacity:1"  d="m 0.314039,13.9246 c 0,-0.04629 -0.052347,-0.09255 -0.104669,-0.09255 -0.052347,0 -0.104669,0.04629 -0.104669,0.09255 0,0.04629 0.052347,0.09255 0.104669,0.09255 0.052347,0 0.104669,-0.04629 0.104669,-0.09255 z" gorn="0.4.0.0.0.65" id="path8525" connector-curvature="0"/>
                    <path style="fill:#9a916c;fill-opacity:1;fill-rule:nonzero;stroke:none"  d="m 1.25613,15.0352 0,-0.09255 -0.418712,0 0,0.09255 z" gorn="0.4.0.0.0.66" id="path8527" connector-curvature="0"/>
                    <path style="fill:#9a916c;fill-opacity:1;fill-rule:nonzero;stroke:none"  d="m 1.93653,15.0352 0,-0.09255 -0.418712,0 0,0.09255 z" gorn="0.4.0.0.0.67" id="path8529" connector-curvature="0"/>
                    <path style="fill:#9a916c;fill-opacity:1;fill-rule:nonzero;stroke:none"  d="m 1.25613,14.8501 0,-0.09255 -0.418712,0 0,0.09255 z" gorn="0.4.0.0.0.68" id="path8531" connector-curvature="0"/>
                    <path style="fill:#9a916c;fill-opacity:1;fill-rule:nonzero;stroke:none"  d="m 1.93653,14.8501 0,-0.09255 -0.418712,0 0,0.09255 z" gorn="0.4.0.0.0.69" id="path8533" connector-curvature="0"/>
                    <path style="fill:#9a916c;fill-opacity:1;fill-rule:nonzero;stroke:none"  d="m 1.25613,14.665 0,-0.09255 -0.418712,0 0,0.09255 z" gorn="0.4.0.0.0.70" id="path8535" connector-curvature="0"/>
                    <path style="fill:#9a916c;fill-opacity:1;fill-rule:nonzero;stroke:none"  d="m 1.93653,14.665 0,-0.09255 -0.418712,0 0,0.09255 z" gorn="0.4.0.0.0.71" id="path8537" connector-curvature="0"/>
                    <path style="fill:#9a916c;fill-opacity:1;fill-rule:nonzero;stroke:none"  d="m 1.25613,14.5261 0,-0.138768 -0.418712,0 0,0.138768 z" gorn="0.4.0.0.0.72" id="path8539" connector-curvature="0"/>
                    <path style="fill:#9a916c;fill-opacity:1;fill-rule:nonzero;stroke:none"  d="m 1.93653,14.5261 0,-0.138768 -0.418712,0 0,0.138768 z" gorn="0.4.0.0.0.73" id="path8541" connector-curvature="0"/>
                    <path style="fill:#9a916c;fill-opacity:1;fill-rule:nonzero;stroke:none"  d="m 1.25613,14.3411 0,-0.138835 -0.418712,0 0,0.138835 z" gorn="0.4.0.0.0.74" id="path8543" connector-curvature="0"/>
                    <path style="fill:#9a916c;fill-opacity:1;fill-rule:nonzero;stroke:none"  d="m 1.93653,14.3411 0,-0.138835 -0.418712,0 0,0.138835 z" gorn="0.4.0.0.0.75" id="path8545" connector-curvature="0"/>
                    <path style="fill:#1a1a1a;fill-opacity:1;fill-rule:nonzero;stroke:none"  d="m 8.3641e-6,15.5905 35.4330996359,0 0,-13.6519 -35.4330996359,0 z" gorn="0.4.0.0.0.76" id="path8547" connector-curvature="0"/>
                    <path style="fill:#2a2a29;fill-opacity:1;fill-rule:nonzero;stroke:none"  d="m 8.3641e-6,15.5905 35.4330996359,0 0,-1.52712 -35.4330996359,0 z" gorn="0.4.0.0.0.77" id="path8549" connector-curvature="0"/>
                    <path style="fill:#595959;fill-opacity:1;fill-rule:nonzero;stroke:none"  d="m 8.3641e-6,3.46577 35.4330996359,0 0,-1.52717 -35.4330996359,0 z" gorn="0.4.0.0.0.78" id="path8551" connector-curvature="0"/>
                    <path style="fill:#373737;fill-opacity:1;fill-rule:nonzero;stroke:none"  d="m 8.3641e-6,15.5905 0,-13.6519 L 1.72717,3.46577 l 0,10.5977 z" gorn="0.4.0.0.0.79" id="path8553" connector-curvature="0"/>
                    <path style="fill:#474747;fill-opacity:1;fill-rule:nonzero;stroke:none"  d="m 35.4331,15.5905 0,-13.6519 -1.72718,1.52717 0,10.5977 z" gorn="0.4.0.0.0.80" id="path8555" connector-curvature="0"/>
                    <path style="fill:#404040;fill-opacity:1;fill-rule:nonzero;stroke:none"  d="m 8.3641e-6,15.5905 35.4330996359,0 0,-0.971842 -35.4330996359,0 z" gorn="0.4.0.0.0.81" id="path8557" connector-curvature="0"/>
                    <path style="fill:#404040;fill-opacity:1;fill-rule:nonzero;stroke:none"  d="m 8.3641e-6,2.91043 35.4330996359,0 0,-0.971842 -35.4330996359,0 z" gorn="0.4.0.0.0.82" id="path8559" connector-curvature="0"/>
                    <path style="fill:#404040;fill-opacity:1;fill-rule:nonzero;stroke:none"  d="m 8.3641e-6,15.5905 1.0991100359,0 0,-13.6519 -1.0991100359,0 z" gorn="0.4.0.0.0.83" id="path8561" connector-curvature="0"/>
                    <path style="fill:#404040;fill-opacity:1;fill-rule:nonzero;stroke:none"  d="m 34.334,15.5905 1.09912,0 0,-13.6519 -1.09912,0 z" gorn="0.4.0.0.0.84" id="path8563" connector-curvature="0"/>
                    <path style="fill:#1a1a1a;fill-opacity:1;fill-rule:nonzero;stroke:none"  d="m 13.9744,4.57644 7.43206,0 0,-2.63784 -7.43206,0 z" gorn="0.4.0.0.0.85" id="path8685" connector-curvature="0"/>
                    <path style="fill:#014cb1;fill-opacity:1;fill-rule:nonzero;stroke:none"  d="m 0.209362,15.0692 2.35522,0 c 0.157016,0 0.209363,-0.09255 0.209363,-0.18512 l 0,-1.57339 c 0,-0.09255 -0.052347,-0.138835 -0.209363,-0.138835 l -2.35522,0 c -0.104669,0 -0.209363,0.04629 -0.209363,0.138835 l 0,1.57339 c 0,0.09255 0.104669,0.18512 0.209363,0.18512 m 1.09911,-0.694174 c 0,-0.09255 0.157016,-0.09255 0.157016,0 0,0.09255 -0.157016,0.09255 -0.157016,0 z m 0,-0.555276 c 0,-0.09255 0.157016,-0.09255 0.157016,0 0,0.09255 -0.157016,0.09255 -0.157016,0 z m 1.20378,0.971777 c 0,-0.09255 0.157016,-0.09255 0.157016,0 0,0.09255 -0.157016,0.09255 -0.157016,0 z m 0,-0.323948 c 0,-0.09255 0.157016,-0.09255 0.157016,0 0,0.09255 -0.157016,0.09255 -0.157016,0 z m 0,-0.370225 c 0,-0.09255 0.157016,-0.09255 0.157016,0 0,0.09255 -0.157016,0.09255 -0.157016,0 z m 0,-0.323885 c 0,-0.09255 0.157016,-0.09255 0.157016,0 0,0.09255 -0.157016,0.09255 -0.157016,0 z m 0,-0.370227 c 0,-0.09255 0.157016,-0.09255 0.157016,0 0,0.09255 -0.157016,0.09255 -0.157016,0 z m -2.40756,1.38828 c 0,-0.09255 0.157016,-0.09255 0.157016,0 0,0.09255 -0.157016,0.09255 -0.157016,0 z m 0,-0.323948 c 0,-0.09255 0.157016,-0.09255 0.157016,0 0,0.09255 -0.157016,0.09255 -0.157016,0 z m 0,-0.370225 c 0,-0.09255 0.157016,-0.09255 0.157016,0 0,0.09255 -0.157016,0.09255 -0.157016,0 z m 0,-0.323885 c 0,-0.09255 0.157016,-0.09255 0.157016,0 0,0.09255 -0.157016,0.09255 -0.157016,0 z m 0,-0.370227 c 0,-0.09255 0.157016,-0.09255 0.157016,0 0,0.09255 -0.157016,0.09255 -0.157016,0 z" gorn="0.4.0.0.0.86" id="path8836" connector-curvature="0"/>
                    <path style="fill:#ffffff;fill-opacity:1;fill-rule:nonzero;stroke:none"  d="m 0.418715,14.4214 0,0.04629 c 0,0 0,0 0,0 l 0.052347,0.04629 c 0,0 0,0 0,0 l 0.052347,0 c 0,0 0,0 0,0 0,0 0,0 0,0 0,0 0,0 0,-0.04629 0,0 0,0 0,0 l -0.052347,0 c 0,0 0,0 0,0 l -0.052347,0 c 0,0 0,0 0,0 l 0,-0.04629 c 0,0 0,-0.04629 0,-0.04629 0,0 0,0 0.052347,0 l 0,0 c 0,0 0,0 0,0 0,0 0,0.04629 0,0.04629 l 0,0 0,0 c 0,0 0,0 0,0 0,0 0,0 0,0 0,0 0,0 0,0 0,0 0,0 0,0 l 0.052347,0 0,0 c 0,-0.04629 0,-0.04629 0,-0.04629 -0.052347,0 -0.052347,0 -0.052347,0 l 0,0 c -0.052347,0 -0.052347,0 -0.052347,0 0,0 0,0 0,0.04629 z" gorn="0.4.0.0.0.87" id="path8838" connector-curvature="0"/>
                    <path style="fill:#ffffff;fill-opacity:1;fill-rule:nonzero;stroke:none"  d="m 0.575729,14.3751 0,0.138835 0,0 0.052347,-0.09255 0,0.09255 c 0,0 0,0 0,0 0,0 0,0 0,0 0,0 0,0 0,0 0,0 0,0 0,0 l 0,-0.138835 0,0 -0.052347,0.09255 0,-0.09255 c 0,0 0,0 0,0 0,0 0,0 0,0 0,0 0,0 0,0 0,0 0,0 0,0 z" gorn="0.4.0.0.0.88" id="path8840" connector-curvature="0"/>
                    <path style="fill:#ffffff;fill-opacity:1;fill-rule:nonzero;stroke:none"  d="m 0.680406,14.3751 c 0,0 0,0 0,0 0,0 0,0 0,0 l 0,0 0,0.09255 0,0 c 0,0 0,0 0,0 0,0.04629 0,0.04629 0,0.04629 0,0 0,0 0,0 0,0 0,0 0,0 l 0.0523468,0 c 0,0 0,0 0,0 0,0 0,0 0,0 l 0.0523469,-0.04629 c 0,0 0,0 0,-0.04629 0,0 0,0 0,0 L 0.7327528,14.37507 c 0,0 0,0 0,0 0,0 0,0 0,0 l -0.0523468,0 c 0,0 0,0 0,0 0,0 0,0 0,0 z m 0.0523468,0 0,0 c 0,0 0,0 0,0 l 0,0.04629 c 0,0 0,0 0,0 0,0 0,0.04629 0,0.04629 l 0,0 c 0,0 0,0 0,0 l 0,0 0,-0.09255 z" gorn="0.4.0.0.0.89" id="path8842" connector-curvature="0"/>
                    <path style="fill:#ffffff;fill-opacity:1;fill-rule:nonzero;stroke:none"  d="m 0.418715,14.0512 0,0.04629 c 0,0 0,0 0,0 l 0.052347,0.04629 c 0,0 0,0 0,0 l 0.052347,0 c 0,0 0,0 0,0 0,0 0,0 0,0 0,0 0,0 0,0 0,0 0,0 0,0 l -0.052347,0 c 0,0 0,0 0,0 L 0.418715,14.0975 c 0,0 0,0 0,0 l 0,-0.04629 c 0,0 0,0 0,0 0,0 0,0 0.052347,0 l 0,0 c 0,0 0,0 0,0 0,0 0,0 0,0 l 0,0 0,0 c 0,0 0,0 0,0 0,0 0,0 0,0.04629 0,0 0,0 0,0 0,0 0,0 0,0 l 0.052347,0 0,-0.04629 c 0,0 0,0 0,0 C 0.471062,14.00492 0.471062,14.00492 0.471062,14.00492 l 0,0 c -0.052347,0 -0.052347,0 -0.052347,0.04629 0,0 0,0 0,0 z" gorn="0.4.0.0.0.90" id="path8844" connector-curvature="0"/>
                    <path style="fill:#ffffff;fill-opacity:1;fill-rule:nonzero;stroke:none"  d="m 0.575729,14.0512 0,0.09255 0,0 0.052347,-0.09255 0,0.09255 c 0,0 0,0 0,0 0,0 0,0 0,0 0,0 0,0 0,0 0,0 0,0 0,0 l 0,-0.138835 0,0 -0.052347,0.138835 0,-0.09255 c 0,0 0,0 0,-0.04629 0,0 0,0 0,0 0,0 0,0 0,0 0,0.04629 0,0.04629 0,0.04629 z" gorn="0.4.0.0.0.91" id="path8846" connector-curvature="0"/>
                    <path style="fill:#ffffff;fill-opacity:1;fill-rule:nonzero;stroke:none"  d="m 0.680406,14.0512 c 0,0 0,0 0,0 0,0 0,0 0,0 l 0,0 0,0.09255 0,0 c 0,0 0,0 0,0 0,0 0,0 0,0 0,0 0,0 0,0 0,0 0,0 0,0 l 0.0523468,0 c 0,0 0,0 0,0 0,0 0,0 0,0 l 0.0523469,-0.04629 c 0,0 0,0 0,0 0,0 0,0 0,-0.04629 l -0.0523469,0 c 0,0 0,0 0,0 0,-0.04629 0,-0.04629 0,-0.04629 l -0.0523468,0 c 0,0 0,0 0,0 0,0.04629 0,0.04629 0,0.04629 z m 0.0523468,0 0,0 c 0,0 0,0 0,0 l 0,0.04629 c 0,0 0,0 0,0 0,0 0,0 0,0 l 0,0.04629 c 0,0 0,0 0,0 l 0,0 0,-0.09255 z" gorn="0.4.0.0.0.92" id="path8848" connector-curvature="0"/>
                    <path style="fill:#ffffff;fill-opacity:1;fill-rule:nonzero;stroke:none"  d="m 0.418715,13.681 0,0.09255 c 0,0 0,0 0,0.04629 0,0 0,0 0,0 0,0 0,0 0,0 0,-0.04629 0,-0.04629 0,-0.04629 l 0,0 0.052347,0.04629 c 0,0 0.052347,0 0.052347,0 0,0 0,0 0,0 0,-0.04629 0,-0.04629 0,-0.04629 0,0 0,0 0,0 L 0.41874,13.72726 0.523409,13.68097 c 0,0 0,0 0,0 0,0 0,0 0,0 0,0 0,0 0,0 0,0 -0.052347,0 -0.052347,0 l -0.052347,0.04629 0,-0.04629 c 0,0 0,0 0,0 0,0 0,0 0,0 0,0 0,0 0,0 0,0 0,0 0,0 z" gorn="0.4.0.0.0.93" id="path8850" connector-curvature="0"/>
                    <path style="fill:#ffffff;fill-opacity:1;fill-rule:nonzero;stroke:none"  d="m 0.575729,13.681 0,0.138835 0.052347,0 c 0,0 0,0 0,0 0,-0.04629 0,-0.04629 0,-0.04629 0,0 0,0 0,0 0,0 0,0 0,0 l -0.052347,0 0,-0.04629 0,0 c 0,0 0.052347,0 0.052347,0 0,0 0,0 0,0 0,0 0,0 0,0 0,0 -0.052347,0 -0.052347,0 l 0,0 0,-0.04629 0.052347,0 c 0,0 0,0 0,0 0,0 0,0 0,0 0,0 0,0 0,0 0,0 0,0 0,0 l -0.052347,0 z" gorn="0.4.0.0.0.94" id="path8852" connector-curvature="0"/>
                    <path style="fill:#ffffff;fill-opacity:1;fill-rule:nonzero;stroke:none"  d="m 0.680406,13.7735 0,0 c 0,0 0,0 0,0.04629 0,0 0,0 0,0 0,0 0,0 0,0 0,-0.04629 0,-0.04629 0,-0.04629 l 0,0 0.0523468,-0.04629 0,0.04629 0,0 c 0,0 0.0523469,0 0.0523469,0.04629 0,0 0,0 0,0 0,0 0,0 0,0 0,-0.04629 0,-0.04629 0,-0.04629 l 0,0 -0.0523469,-0.04629 0,-0.04629 c 0,0 0,0 0,0 0,0 0,0 0,0 0,0 0,0 0,0 0,0 0,0 0,0 l 0,0.04629 -0.0523468,0.04629 z" gorn="0.4.0.0.0.95" id="path8854" connector-curvature="0"/>
                    <path style="fill:#ffffff;fill-opacity:1;fill-rule:nonzero;stroke:none"  d="m 0.366376,14.8379 0,0 c 0,0 0,0 0.052347,0 0,0 0,0 0,0 0,0 0,0 0,0 0,0 0,0 0,0 l 0,0 0,-0.09255 0.052347,0.09255 0,0 c 0,0 0,0 0,0 0,0 0,0 0,0 0,0 0,0 0,0 0,0 0,0 0,0 l 0,0 0,-0.09255 c -0.052347,0 -0.052347,0 -0.052347,0 0,0 0,0 0,0 L 0.366376,14.8379 Z" gorn="0.4.0.0.0.96" id="path8856" connector-curvature="0"/>
                    <path style="fill:#ffffff;fill-opacity:1;fill-rule:nonzero;stroke:none"  d="m 0.523392,14.7453 0,0.04629 c 0,0.04629 0,0.04629 0,0.04629 0,0 0,0 0,0 0,0 0,0 0,0 0,0 0,0 0,-0.04629 l 0,0 0.052347,0.04629 c 0,0 0,0 0,0 l 0,0 c 0,0 0.052347,0 0.052347,0 0,-0.04629 0,-0.04629 0,-0.04629 l 0,0 c 0,0 0,0 0,0 0,0 0,0 0,0 0,0 0,0 -0.052347,0 0,0 0,0 0,0 l 0,0 c 0,0 0,0 0,0 0,0 0,0 0,0 l 0,0 -0.052347,0 0,-0.04629 c 0,0 0,0 0,0 0,0 0,0 0,0 0,0 0,0 0,0 0,0 0,0 0,0 z" gorn="0.4.0.0.0.97" id="path8858" connector-curvature="0"/>
                    <path style="fill:#ffffff;fill-opacity:1;fill-rule:nonzero;stroke:none"  d="m 0.680406,14.7453 0,0.04629 c 0,0 0,0 0,0 0,0 0,0 0,0 l 0,0.04629 c 0,0 0,0 0,0 l 0.0523468,0 0,0 0,0 0,0 0,0 0,0 0,0 0,0 0,-0.04629 0,0 c 0,0 0,0 0,0 l 0,0 c 0,0 0,-0.04629 0,-0.04629 0,0 0,0 0,0 l -0.0523468,0 0,0 c 0,0 0,0 0,0 l 0,0 0,0 0,0 c 0,0 0,0 0,0 l 0.0523468,0 c 0,0 0,0 0,0 0,0 0,0 0,0 0,0 0,0 0,0 0,0 0,0 0,0 l -0.0523468,0 0,0 0,0 0,0 0,0 0,0 0,0 0,0 0,0 0,0 c 0,0 0,0 0,0 z m 0,0.04629 0.0523468,0 0,0 c 0,0 0,0 0,0 0,0 0,0 0,0 l -0.0523468,0 c 0,0 0,0 0,0 0,0 0,0 0,0 l 0,0 c 0,0 0,0 0,0 l 0,0 z" gorn="0.4.0.0.0.98" id="path8860" connector-curvature="0"/>
                    <path style="fill:#ffffff;fill-opacity:1;fill-rule:nonzero;stroke:none"  d="m 0.785081,14.7916 c 0,0 0,0 0,0 0,0.04629 0,0.04629 0,0.04629 0,0 0,0 0,0 l 0.0523468,0 0,0 c 0,0 0,0 0,0 0,0 0,0 0,0 l 0.0523472,0 c 0,0 0,0 0,0 0,0 0,0 0,0 0,0 0,0 0,0 0,0 0,0 0,0 l -0.0523472,0 c 0,0 0,0 0,0 0,0 0,0 0,0 l 0,0 0,0 c 0,0 0,0 0,0 0,0 0,0 0,-0.04629 0,0 0,0 0,0 0,0 0,0 0,0 l 0,0 0,-0.04629 c 0,0 0,0 0,0 0,0 0,0 0,0 0,0 0,0 0,0 0,0 0,0 0,0 l 0,0.04629 -0.0523468,0 c 0,0 0,0 0,0 z" gorn="0.4.0.0.0.99" id="path8862" connector-curvature="0"/>
                    <path style="fill:#ffffff;fill-opacity:1;fill-rule:nonzero;stroke:none"  d="m 0.418715,13.357 0,0.04629 c 0,0 0,0 0,0 l 0.052347,0.04629 c 0,0 0,0 0,0 l 0.052347,0 c 0,0 0,0 0,0 0,0 0,0 0,0 0,0 0,0 0,0 0,0 0,0 0,0 l -0.052347,0 c 0,0 0,0 0,0 l 0,-0.04629 c 0,0 0,0 0,0 l 0,-0.04629 c 0,0 0,0 0,0 0,0 0,0 0,0 l 0,0 c 0.052347,0 0.052347,0 0.052347,0 0,0 0,0 0,0 l 0,0 -0.052347,0 c 0,0 0,0 0,0 0,0 0,0 0,0 0,0 0,0 0,0 0,0 0,0 0,0 l 0.052347,0 0,0 c 0,0 0,-0.04629 0,-0.04629 0,0 0,0 -0.052347,0 l 0,0 c 0,0 -0.052347,0 -0.052347,0 0,0 0,0.04629 0,0.04629 z" gorn="0.4.0.0.0.100" id="path8864" connector-curvature="0"/>
                    <path style="fill:#ffffff;fill-opacity:1;fill-rule:nonzero;stroke:none"  d="m 0.575729,13.3108 0,0.138835 0,0 0.052347,-0.09255 0,0.09255 c 0,0 0,0 0,0 0,0 0,0 0,0 0,0 0,0 0,0 0.0523472,0 0.0523472,0 0.0523472,0 l 0,-0.138835 -0.0523472,0 -0.052347,0.09255 0,-0.09255 c 0,0 0,0 0,0 0,0 0,0 0,0 0,0 0,0 0,0 0,0 0,0 0,0 z" gorn="0.4.0.0.0.101" id="path8866" connector-curvature="0"/>
                    <path style="fill:#ffffff;fill-opacity:1;fill-rule:nonzero;stroke:none"  d="m 0.680406,13.3108 c 0,0 0,0 0,0.04629 0,0 0,0 0.0523468,0 l 0,0 0,0.09255 0,0 c -0.0523468,0 -0.0523468,0 -0.0523468,0 0,0 0,0 0,0 0,0 0,0 0,0 0,0 0,0 0.0523468,0 l 0,0 c 0,0 0,0 0,0 0.0523469,0 0.0523469,0 0.0523469,0 l 0,-0.04629 c 0,0 0,0 0,0 0,-0.04629 0,-0.04629 0,-0.04629 l 0,-0.04629 c 0,0 0,0 -0.0523469,0 0,0 0,0 0,0 l 0,0 c -0.0523468,0 -0.0523468,0 -0.0523468,0 0,0 0,0 0,0 z m 0.0523468,0.04629 0,0 c 0,0 0,0 0,0 l 0.0523469,0 c 0,0 0,0.04629 0,0.04629 0,0 0,0 0,0 l -0.0523469,0.04629 c 0,0 0,0 0,0 l 0,0 0,-0.09255 z" gorn="0.4.0.0.0.102" id="path8868" connector-curvature="0"/>
                    <path style="fill:#ffffff;fill-opacity:1;fill-rule:nonzero;stroke:none"  d="m 0.837418,13.357 0,0.04629 c 0,0 0,0 0,0 0,0 0,0 0,0 l 0,0 c 0,0 0,0 0.0523464,0 l 0,0 c 0,0 0,0 0,0 l 0,0 c 0,0 0,0 0,0 l 0,0 0,0 0,0 0,0.04629 c 0,0 0,0 0,0 0,0 0,0 0,0 0.0523472,0 0.0523472,0 0.0523472,0 0,0 0,0 0,0 l 0,-0.138835 c 0,0 0,0 0,0 0,0 0,0 -0.0523472,0 0,0 0,0 0,0 0,0 0,0 0,0 l 0,0 c 0,0 0,0 0,0 0,0 0,0 0,0 0,0 0,0 0,0 l 0,0 -0.0523464,0 0,0 0,0 0,0 0,0 0,0 0,0 0,0 0,0 c 0,0.04629 0,0.04629 0,0.04629 z m 0,0 c 0,0 0,0 0,0 l 0,0 0,0 0,0 c 0,0 0.0523464,0 0.0523464,0 l 0,0 c 0,0 0,0 0,0 l 0,0 c 0,0 0,0 0,0 l 0,0 c 0,0 0,0.04629 0,0.04629 l 0,0 c 0,0 0,0 0,0 l 0,0 c 0,0 -0.0523464,0 -0.0523464,0 0,0 0,0 0,0 l 0,0 c 0,0 0,0 0,0 l 0,-0.04629 z" gorn="0.4.0.0.0.103" id="path8870" connector-curvature="0"/>
                    <path style="fill:#ffffff;fill-opacity:1;fill-rule:nonzero;stroke:none"  d="m 1.98886,13.3108 0,0.04629 c 0,0 0,0 0,0 0,0 0,0 0,0 l 0,0 c 0,0 0,0 0,0 0,0 0,0 0,0 l 0,-0.04629 c 0,0 0,0 0,0 0,0 0,0 0,0 l 0,0 c 0,0 0,0 0,0 0,0 0,0 0,0 z m 0,0.138835 c 0,0 0,0 0,0 0,0 0,0 0,0 l 0,0 c 0,0 0,0 0,0 0,0 0,0 0,0 l 0,0 0,-0.09255 c 0,0 0,0 0,0 0,0 0,0 0,0 0,0 0,0 0,0 0,0 0,0 0,0 l 0,0.09255 z" gorn="0.4.0.0.0.104" id="path8872" connector-curvature="0"/>
                    <path style="fill:#ffffff;fill-opacity:1;fill-rule:nonzero;stroke:none"  d="m 2.09354,13.3108 0,0.138835 0.052347,0 c 0,0 0,0 0,0 0,0 0,0 0,-0.04629 l 0,0 c 0,0 0,0 0,0 0,0 0,0 0,0 l 0,0 0,-0.09255 c 0,0 0,0 0,0 0,0 0,0 0,0 0,0 0,0 0,0 0,0 0,0 0,0 l -0.052347,0.09255 0,0 0,-0.09255 c 0,0 0,0 0,0 0,0 0,0 0,0 0,0 0,0 0,0 0,0 0,0 0,0 z m 0,0.09255 0.052347,0 c 0,0 0,0 0,0 0,0 0,0 0,0 l 0,0 c 0,0 0,0.04629 0,0.04629 0,0 0,0 0,0 l -0.052347,0 0,-0.04629 z" gorn="0.4.0.0.0.105" id="path8874" connector-curvature="0"/>
                    <path style="fill:#ffffff;fill-opacity:1;fill-rule:nonzero;stroke:none"  d="m 2.19822,13.357 c 0,0 0,0 0,0 0,0 0,0 0,0 0.052347,0 0.052347,0 0.052347,0 0,0 0,0 0,0 0,0 0,0 0,0 0,0 0,0 0,0 l 0.052347,0 c 0,0 0,0 0,0 l -0.104669,0.04629 c 0,0 0,0 0,0.04629 l 0,0 c 0,0 0,0 0,0 0,0 0.052346,0 0.052346,0 l 0.052347,0 c 0,0 0,0 0,0 0,0 0,0 0,-0.04629 0,0 0,0 0,0 0,0 0,0 0,0 0,0 0,0 0,0 0,0 0,0 0,0 0,0.04629 0,0.04629 0,0.04629 0,0 0,0 0,0 l -0.052347,0 c 0,0 0,0 0,0 l 0,0 0,0 0.052347,-0.09255 c 0,0 0,0 0,0 0,-0.04629 0,-0.04629 0,-0.04629 0,0 0,0 0,0 l -0.052347,0 c 0,0 0,0 -0.052346,0 0,0 0,0.04629 0,0.04629 z" gorn="0.4.0.0.0.106" id="path8876" connector-curvature="0"/>
                    <path style="fill:#ffffff;fill-opacity:1;fill-rule:nonzero;stroke:none"  d="m 2.35524,13.4033 0,0.04629 0.104669,0 0,-0.04629 c 0,0 0,0 0,0 -0.052346,0 -0.052346,0 -0.052346,0 0,0 0,0 0,0 0,0 0,0 0,0 l 0,0.04629 0,0 0,-0.138835 c 0,0 0,0 0,0 0,0 0,0 0,0 0,0 0,0 0,0 0,0 0,0 0,0 l 0,0.138835 -0.052322,0 0,-0.04629 c 0,0 0,0 0,0 0,0 0,0 0,0 0,0 0,0 0,0 0,0 0,0 0,0 z" gorn="0.4.0.0.0.107" id="path8878" connector-curvature="0"/>
                    <path style="fill:#ffffff;fill-opacity:1;fill-rule:nonzero;stroke:none"  d="m 1.88419,14.7453 c 0,0 0,0 0,0 0,0 0.052347,0 0.052347,0 0,0 0,0 0,0 0,0 0,0 0,0 0,0 0,0 0,0 0,0 0,0 0,0 l 0.052347,0 c 0,0 0,0 0,0 l -0.104669,0.09255 c 0,0 0,0 0,0 l 0,0 c 0,0 0,0 0.052347,0 0,0 0,0 0,0 l 0.052347,0 c 0,0 0,0 0,0 0,0 0,0 0,0 0,0 0,0 0,0 0,0 0,0 0,0 0,0 0,0 0,0 0,0 0,0 0,0 0,0 0,0 0,0 0,0 0,0 0,0 l -0.052347,0 c 0,0 0,0 0,0 l 0,0 0,0 0.052347,-0.09255 c 0,0 0,0 0,0 0,0 0,0 0,0 0,0 0,0 0,0 l -0.052347,0 c 0,0 0,0 0,0 -0.052347,0 -0.052347,0 -0.052347,0 z" gorn="0.4.0.0.0.108" id="path8880" connector-curvature="0"/>
                    <path style="fill:#ffffff;fill-opacity:1;fill-rule:nonzero;stroke:none"  d="m 2.04121,14.7453 0,0.09255 c 0,0 0,0 0,0 0,0 0,0 0,0 0,0 0,0 0,0 0,0 0,0 0,0 l 0,-0.09255 0,0 0.052347,0 0,0 0,0 0,0.04629 c 0,0 0,0 0,0 0,0 0,0.04629 0,0.04629 0,0 0,-0.04629 0,-0.04629 0,0 0,0 0,0 l 0,-0.04629 0,0 0,0 0,0 0,0 0,0.09255 c 0,0 0,0 0,0 0,0 0,0 0.052347,0 0,0 0,0 0,0 0,0 0,0 0,0 l 0,-0.09255 0,0 c -0.052347,0 -0.052347,0 -0.052347,0 l 0,0 c 0,0 0,0 0,0 0,0 0,0 0,0 l -0.052347,0 c 0,0 0,0 0,0 l 0,0 z" gorn="0.4.0.0.0.109" id="path8882" connector-curvature="0"/>
                    <path style="fill:#ffffff;fill-opacity:1;fill-rule:nonzero;stroke:none"  d="m 2.19822,14.7453 c 0,0 0,0 0,0 0,0 0,0 0,0 l 0,0 0,0.09255 0,0 c 0,0 0,0 0,0 0,0 0,0 0,0 0,0 0,0 0,0 0,0 0,0 0,0 l 0.052347,0 c 0,0 0,0 0,0 0,0 0,0 0,0 0,0 0,0 0,0 0,0 0,0 0,0 l 0,0 0,-0.09255 0,0 c 0,0 0,0 0,0 0,0 0,0 0,0 0,0 0,0 0,0 0,0 0,0 0,0 l -0.052347,0 c 0,0 0,0 0,0 0,0 0,0 0,0 z" gorn="0.4.0.0.0.110" id="path8884" connector-curvature="0"/>
                    <path style="fill:#ffffff;fill-opacity:1;fill-rule:nonzero;stroke:none"  d="m 2.3029,14.7916 c 0,0 0,0 0,0 l 0.052347,0.04629 c 0,0 0,0 0,0 0,0 0,0 0,0 0,0 0,0 0,0 0,0 0,0 0,0 L 2.407569,14.7916 c 0,0 0,0 0,0 0,0 0,0 0,0 L 2.355247,14.74531 c 0,0 0,0 0,0 0,0 0,0 0,0 0,0 0,0 0,0 0,0 0,0 0,0 L 2.3029,14.7916 c 0,0 0,0 0,0 z m 0,0 c 0,0 0,0 0,0 0,0 0,0 0,0 l 0.052347,-0.04629 c 0,0 0,0 0,0 0,0 0,0 0,0 l 0,0.04629 c 0,0 0,0 0,0 0,0 0,0 0,0 l 0,0.04629 c 0,0 0,0 0,0 0,0 0,0 0,0 L 2.3029,14.7916 Z" gorn="0.4.0.0.0.111" id="path8886" connector-curvature="0"/>
                    <path style="fill:#ffffff;fill-opacity:1;fill-rule:nonzero;stroke:none"  d="m 2.04121,14.4214 c 0,0.04629 0,0.04629 0,0.04629 l 0.052347,0.04629 c 0,0 0,0 0,0 0,0 0,0 0,0 l 0.052347,0 c 0,0 0,0 0,0 0,0 0,0 0,0 0,0 0,0 0,-0.04629 0,0 0,0 0,0 l -0.052347,0 c 0,0 0,0 0,0 l 0,0 c 0,0 0,-0.04629 0,-0.04629 0,0 0,0 0,0 l 0,-0.04629 c 0,0 0,0 0,0 l 0.052347,0 c 0,0 0,0 0,0 0,0 0,0 0,0 0,0 0,0 0,0 0,0 0,0 0,0 l -0.052347,0 c 0,0 0,0 0,0 0,0 0,0 0,0 C 2.04121,14.4214 2.04121,14.4214 2.04121,14.4214 c 0,0 0,0 0,0 z" gorn="0.4.0.0.0.112" id="path8888" connector-curvature="0"/>
                    <path style="fill:#ffffff;fill-opacity:1;fill-rule:nonzero;stroke:none"  d="m 2.19822,14.3751 0,0.138835 c 0,0 0,0 0,0 0,0 0,0 0,0 0,0 0,0 0,0 0,0 0,0 0,0 l 0,-0.138835 0.052347,0 c 0,0 0,0 0,0 0.052347,0 0.052347,0 0.052347,0 0,0 0,0 -0.052347,0 0,0 0,0 0,0 l -0.052347,0 z" gorn="0.4.0.0.0.113" id="path8890" connector-curvature="0"/>
                    <path style="fill:#ffffff;fill-opacity:1;fill-rule:nonzero;stroke:none"  d="m 2.3029,14.3751 0,0.138835 c 0,0 0,0 0,0 0,0 0,0 0,0 0.052347,0 0.052347,0 0.052347,0 0,0 0,0 0,0 l 0,-0.04629 0.052322,0.04629 c 0,0 0,0 0,0 0,0 0,0 0,0 0,0 0,0 0,0 0,0 0,0 0,-0.04629 l -0.052322,-0.04629 0.052322,-0.04629 c 0,0 0,0 0,0 0,0 0,0 0,0 0,0 0,0 0,0 0,0 0,0 0,0 l -0.052322,0.04629 0,-0.04629 c 0,0 0,0 0,0 0,0 0,0 -0.052347,0 0,0 0,0 0,0 0,0 0,0 0,0 z" gorn="0.4.0.0.0.114" id="path8892" connector-curvature="0"/>
                    <path style="fill:#ffffff;fill-opacity:1;fill-rule:nonzero;stroke:none"  d="m 2.04121,14.0512 c 0,0 0,0 0,0 0,0 0,0 0,0 0,0 0,0 0.052347,0 0,0 0,0 0,0 0,0 0,0 0,0 0,0 0,0 0,0 l 0.052347,0 c 0,0 0,0 0,0 L 2.04123,14.1437 c 0,0 0,0 0,0 l 0,0 c 0,0 0,0 0,0 0,0 0,0 0.052347,0 l 0,0 c 0.052346,0 0.052346,0 0.052346,0 0,0 0,0 0,0 0,0 0,0 0,0 0,0 0,0 0,0 0,0 0,0 0,0 0,0 0,0 0,0 0,0 0,0 0,0 0,0 0,0 -0.052346,0 l 0,0 c 0,0 0,0 0,0 l 0,0 0,0 0.052346,-0.09255 c 0,0 0,0 0,0 0,0 0,0 0,0 0,-0.04629 0,-0.04629 0,-0.04629 l -0.052346,0 c 0,0 -0.052347,0 -0.052347,0.04629 0,0 0,0 0,0 z" gorn="0.4.0.0.0.115" id="path8894" connector-curvature="0"/>
                    <path style="fill:#ffffff;fill-opacity:1;fill-rule:nonzero;stroke:none"  d="m 2.19822,14.0512 0,0.09255 c 0,0 0,0 0,0 0,0 0,0 0,0 0,0 0,0 0,0 0,0 0,0 0,0 l 0,-0.09255 0,0 0,0 0,0 0,0 0,0.04629 c 0,0 0,0 0.052347,0 0,0 0,0 0,0 0,0 0,0 0,0 0,0 0,0 0,0 l 0,-0.04629 0,0 0,0 0,0 0,0 0,0.09255 c 0,0 0,0 0,0 0,0 0,0 0,0 0,0 0,0 0,0 0.052347,0 0.052347,0 0.052347,0 l 0,-0.09255 -0.052347,0 c 0,-0.04629 0,-0.04629 0,-0.04629 l 0,0 c 0,0 0,0 0,0.04629 0,-0.04629 0,-0.04629 -0.052347,-0.04629 l 0,0 c 0,0 0,0 0,0.04629 l 0,0 z" gorn="0.4.0.0.0.116" id="path8896" connector-curvature="0"/>
                    <path style="fill:#ffffff;fill-opacity:1;fill-rule:nonzero;stroke:none"  d="m 2.3029,14.0975 c 0,0 0,0 0,0 l 0.052347,0.04629 c 0,0 0,0 0,0 0,0 0,0 0,0 0,0 0,0 0,0 0.052322,0 0.052322,0 0.052322,0 l 0,-0.04629 c 0,0 0,0 0,0 0,0 0,0 0,-0.04629 l 0,0 c 0,0 0,0 -0.052322,-0.04629 0,0 0,0 0,0 0,0 0,0 0,0 0,0.04629 0,0.04629 0,0.04629 l -0.052347,0 c 0,0.04629 0,0.04629 0,0.04629 z m 0.052347,0 c 0,0 0,0 0,0 0,0 0,0 0,0 l 0,-0.04629 c 0,0 0,0 0,0 0,0 0,0 0,0 l 0.052322,0.04629 c 0,0 0,0 0,0 0,0 0,0 0,0 l -0.052322,0.04629 c 0,0 0,0 0,0 0,0 0,0 0,0 l 0,-0.04629 z" gorn="0.4.0.0.0.117" id="path8898" connector-curvature="0"/>
                    <path style="fill:#ffffff;fill-opacity:1;fill-rule:nonzero;stroke:none"  d="m 2.14588,13.681 0,0.138835 0.052347,0 0.052347,-0.138835 0,0.09255 c 0,0 0,0 0,0.04629 0,0 0,0 0,0 0,0 0,0 0,0 0,-0.04629 0,-0.04629 0,-0.04629 l 0,-0.09255 0,0 -0.052347,0.09255 0,-0.09255 c 0,0 0,0 0,0 0,0 -0.052347,0 -0.052347,0 0,0 0,0 0,0 0,0 0,0 0,0 z" gorn="0.4.0.0.0.118" id="path8900" connector-curvature="0"/>
                    <path style="fill:#ffffff;fill-opacity:1;fill-rule:nonzero;stroke:none"  d="m 2.3029,13.7273 c 0,0 0,0 0,0.04629 l 0,0 c 0,0 0,0 0,0 0.052347,0.04629 0.052347,0.04629 0.052347,0.04629 l 0,0 c 0,0 0,0 0.052322,0 0,-0.04629 0,-0.04629 0,-0.04629 0,0 0,0 0,0 -0.052322,0 -0.052322,0 -0.052322,0 l 0,0 c 0,0 0,0 0,0 L 2.3029,13.7273 c 0,0 0,0 0,0 0,0 0,0 0,0 l 0.052347,-0.04629 c 0,0 0,0 0,0 l 0,0 c 0,0 0,0 0.052322,0 0,0 0,0 0,0 0,0 0,0 0,0 -0.052322,0 -0.052322,0 -0.052322,0 l 0,0 c 0,0 0,0 -0.052347,0 0,0 0,0 0,0 0,0 0,0.04629 0,0.04629 0,0 0,0 0,0 z" gorn="0.4.0.0.0.119" id="path8902" connector-curvature="0"/>
                    <path style="fill:#000000;fill-opacity:1;fill-rule:nonzero;stroke:none"  d="m 1.83185,14.5602 0,0.462781 z" gorn="0.4.0.0.0.120" id="path8904" connector-curvature="0"/>
                    <path style="fill:none;stroke:#ffffff;stroke-width:0;stroke-linecap:round;stroke-linejoin:miter;stroke-miterlimit:4;stroke-dasharray:none;stroke-opacity:1"  d="m 1.83185,14.5602 0,0.462781" gorn="0.4.0.0.0.121" id="path8906" connector-curvature="0"/>
                    <path style="fill:#000000;fill-opacity:1;fill-rule:nonzero;stroke:none"  d="m 1.83185,15.023 -0.83741,0 z" gorn="0.4.0.0.0.122" id="path8908" connector-curvature="0"/>
                    <path style="fill:none;stroke:#ffffff;stroke-width:0;stroke-linecap:round;stroke-linejoin:miter;stroke-miterlimit:4;stroke-dasharray:none;stroke-opacity:1"  d="m 1.83185,15.023 -0.83741,0" gorn="0.4.0.0.0.123" id="path8910" connector-curvature="0"/>
                    <path style="fill:#000000;fill-opacity:1;fill-rule:nonzero;stroke:none"  d="m 0.994435,15.023 0,-0.462781 z" gorn="0.4.0.0.0.124" id="path8912" connector-curvature="0"/>
                    <path style="fill:none;stroke:#ffffff;stroke-width:0;stroke-linecap:round;stroke-linejoin:miter;stroke-miterlimit:4;stroke-dasharray:none;stroke-opacity:1"  d="m 0.994435,15.023 0,-0.462781" gorn="0.4.0.0.0.125" id="path8914" connector-curvature="0"/>
                    <path style="fill:#000000;fill-opacity:1;fill-rule:nonzero;stroke:none"  d="m 1.83185,13.681 0,-0.46278 z" gorn="0.4.0.0.0.126" id="path8916" connector-curvature="0"/>
                    <path style="fill:none;stroke:#ffffff;stroke-width:0;stroke-linecap:round;stroke-linejoin:miter;stroke-miterlimit:4;stroke-dasharray:none;stroke-opacity:1"  d="m 1.83185,13.681 0,-0.46278" gorn="0.4.0.0.0.127" id="path8918" connector-curvature="0"/>
                    <path style="fill:#000000;fill-opacity:1;fill-rule:nonzero;stroke:none"  d="m 1.83185,13.2182 -0.83741,0 z" gorn="0.4.0.0.0.128" id="path8920" connector-curvature="0"/>
                    <path style="fill:none;stroke:#ffffff;stroke-width:0;stroke-linecap:round;stroke-linejoin:miter;stroke-miterlimit:4;stroke-dasharray:none;stroke-opacity:1"  d="m 1.83185,13.2182 -0.83741,0" gorn="0.4.0.0.0.129" id="path8922" connector-curvature="0"/>
                    <path style="fill:#000000;fill-opacity:1;fill-rule:nonzero;stroke:none"  d="m 0.994435,13.2182 0,0.46278 z" gorn="0.4.0.0.0.130" id="path8924" connector-curvature="0"/>
                    <path style="fill:none;stroke:#ffffff;stroke-width:0;stroke-linecap:round;stroke-linejoin:miter;stroke-miterlimit:4;stroke-dasharray:none;stroke-opacity:1"  d="m 0.994435,13.2182 0,0.46278" gorn="0.4.0.0.0.131" id="path8926" connector-curvature="0"/>
                    <path style="fill:none;stroke:#ffffff;stroke-width:0;stroke-linecap:round;stroke-linejoin:miter;stroke-miterlimit:4;stroke-dasharray:none;stroke-opacity:1"  d="m 0.785081,15.023 0.157017,-0.0926 -0.157017,-0.0463 0,0.138835 m 0,0 0,-0.138835 0,0.138835 m 0,-0.04629 0,-0.09255 0,0.09255 m 0.0523468,0 0,-0.09255 0,0.09255 m 0,0 0,-0.09255 0,0.09255 m 0,0 0,-0.04629 0,0.04629 m 0.0523472,0 0,-0.04629 0,0.04629 m 0,-0.04629 0,0 0,0" gorn="0.4.0.0.0.132" id="path8928" connector-curvature="0"/>
                    <path style="fill:#9a916c;fill-opacity:1;fill-rule:nonzero;stroke:none"  d="m 1.25613,13.4033 0,0 c 0,-0.04629 0,-0.09255 -0.052346,-0.09255 l 0,0 c -0.052347,0 -0.104669,0.04629 -0.104669,0.09255 l 0,0 c 0,0.04629 0.052347,0.04629 0.104669,0.04629 l 0,0 c 0.052346,0 0.052346,0 0.052346,-0.04629 z" gorn="0.4.0.0.0.133" id="path8930" connector-curvature="0"/>
                    <path style="fill:#9a916c;fill-opacity:1;fill-rule:nonzero;stroke:none"  d="m 1.67484,14.7916 0,0 c 0,0 -0.052347,-0.04629 -0.104669,-0.04629 l 0,0 c 0,0 -0.052346,0.04629 -0.052346,0.04629 l 0,0 c 0,0.04629 0.052346,0.09255 0.052346,0.09255 l 0,0 c 0.052347,0 0.104669,-0.04629 0.104669,-0.09255 z" gorn="0.4.0.0.0.134" id="path8932" connector-curvature="0"/>
                    <path style="fill:none;stroke:#9a916c;stroke-width:0;stroke-linecap:butt;stroke-linejoin:miter;stroke-miterlimit:4;stroke-dasharray:none;stroke-opacity:1"  d="m 2.7216,14.7916 c 0,-0.04629 -0.052346,-0.09255 -0.157016,-0.09255 -0.052346,0 -0.104669,0.04629 -0.104669,0.09255 0,0.09255 0.052347,0.138835 0.104669,0.138835 0.104669,0 0.157016,-0.04629 0.157016,-0.138835 z" gorn="0.4.0.0.0.135" id="path8934" connector-curvature="0"/>
                    <path style="fill:none;stroke:#9a916c;stroke-width:0;stroke-linecap:butt;stroke-linejoin:miter;stroke-miterlimit:4;stroke-dasharray:none;stroke-opacity:1"  d="m 2.7216,14.4677 c 0,-0.04629 -0.052346,-0.09255 -0.157016,-0.09255 -0.052346,0 -0.104669,0.04629 -0.104669,0.09255 0,0.04629 0.052347,0.09255 0.104669,0.09255 0.104669,0 0.157016,-0.04629 0.157016,-0.09255 z" gorn="0.4.0.0.0.136" id="path8936" connector-curvature="0"/>
                    <path style="fill:none;stroke:#9a916c;stroke-width:0;stroke-linecap:butt;stroke-linejoin:miter;stroke-miterlimit:4;stroke-dasharray:none;stroke-opacity:1"  d="m 2.7216,14.0975 c 0,-0.04629 -0.052346,-0.09255 -0.157016,-0.09255 -0.052346,0 -0.104669,0.04629 -0.104669,0.09255 0,0.04629 0.052347,0.09255 0.104669,0.09255 0.104669,0 0.157016,-0.04629 0.157016,-0.09255 z" gorn="0.4.0.0.0.137" id="path8938" connector-curvature="0"/>
                    <path style="fill:none;stroke:#9a916c;stroke-width:0;stroke-linecap:butt;stroke-linejoin:miter;stroke-miterlimit:4;stroke-dasharray:none;stroke-opacity:1"  d="m 2.7216,13.7735 c 0,-0.09255 -0.052346,-0.138835 -0.157016,-0.138835 -0.052346,0 -0.104669,0.04629 -0.104669,0.138835 0,0.04629 0.052347,0.09255 0.104669,0.09255 0.104669,0 0.157016,-0.04629 0.157016,-0.09255 z" gorn="0.4.0.0.0.138" id="path8940" connector-curvature="0"/>
                    <path style="fill:none;stroke:#9a916c;stroke-width:0;stroke-linecap:butt;stroke-linejoin:miter;stroke-miterlimit:4;stroke-dasharray:none;stroke-opacity:1"  d="m 2.7216,13.4033 c 0,-0.04629 -0.052346,-0.09255 -0.157016,-0.09255 -0.052346,0 -0.104669,0.04629 -0.104669,0.09255 0,0.04629 0.052347,0.09255 0.104669,0.09255 0.104669,0 0.157016,-0.04629 0.157016,-0.09255 z" gorn="0.4.0.0.0.139" id="path8942" connector-curvature="0"/>
                    <path style="fill:none;stroke:#9a916c;stroke-width:0;stroke-linecap:butt;stroke-linejoin:miter;stroke-miterlimit:4;stroke-dasharray:none;stroke-opacity:1"  d="m 0.314039,14.7916 c 0,-0.04629 -0.052347,-0.09255 -0.104669,-0.09255 -0.052347,0 -0.104669,0.04629 -0.104669,0.09255 0,0.09255 0.052347,0.138835 0.104669,0.138835 0.052347,0 0.104669,-0.04629 0.104669,-0.138835 z" gorn="0.4.0.0.0.140" id="path8944" connector-curvature="0"/>
                    <path style="fill:none;stroke:#9a916c;stroke-width:0;stroke-linecap:butt;stroke-linejoin:miter;stroke-miterlimit:4;stroke-dasharray:none;stroke-opacity:1"  d="m 0.314039,14.4677 c 0,-0.04629 -0.052347,-0.09255 -0.104669,-0.09255 -0.052347,0 -0.104669,0.04629 -0.104669,0.09255 0,0.04629 0.052347,0.09255 0.104669,0.09255 0.052347,0 0.104669,-0.04629 0.104669,-0.09255 z" gorn="0.4.0.0.0.141" id="path8946" connector-curvature="0"/>
                    <path style="fill:none;stroke:#9a916c;stroke-width:0;stroke-linecap:butt;stroke-linejoin:miter;stroke-miterlimit:4;stroke-dasharray:none;stroke-opacity:1"  d="m 0.314039,14.0975 c 0,-0.04629 -0.052347,-0.09255 -0.104669,-0.09255 -0.052347,0 -0.104669,0.04629 -0.104669,0.09255 0,0.04629 0.052347,0.09255 0.104669,0.09255 0.052347,0 0.104669,-0.04629 0.104669,-0.09255 z" gorn="0.4.0.0.0.142" id="path8948" connector-curvature="0"/>
                    <path style="fill:none;stroke:#9a916c;stroke-width:0;stroke-linecap:butt;stroke-linejoin:miter;stroke-miterlimit:4;stroke-dasharray:none;stroke-opacity:1"  d="m 0.314039,13.7735 c 0,-0.09255 -0.052347,-0.138835 -0.104669,-0.138835 -0.052347,0 -0.104669,0.04629 -0.104669,0.138835 0,0.04629 0.052347,0.09255 0.104669,0.09255 0.052347,0 0.104669,-0.04629 0.104669,-0.09255 z" gorn="0.4.0.0.0.143" id="path8950" connector-curvature="0"/>
                    <path style="fill:none;stroke:#9a916c;stroke-width:0;stroke-linecap:butt;stroke-linejoin:miter;stroke-miterlimit:4;stroke-dasharray:none;stroke-opacity:1"  d="m 0.314039,13.4033 c 0,-0.04629 -0.052347,-0.09255 -0.104669,-0.09255 -0.052347,0 -0.104669,0.04629 -0.104669,0.09255 0,0.04629 0.052347,0.09255 0.104669,0.09255 0.052347,0 0.104669,-0.04629 0.104669,-0.09255 z" gorn="0.4.0.0.0.144" id="path8952" connector-curvature="0"/>
                    <path style="fill:#9a916c;fill-opacity:1;fill-rule:nonzero;stroke:none"  d="m 1.25613,14.5139 0,-0.09255 -0.418712,0 0,0.09255 z" gorn="0.4.0.0.0.145" id="path8954" connector-curvature="0"/>
                    <path style="fill:#9a916c;fill-opacity:1;fill-rule:nonzero;stroke:none"  d="m 1.93653,14.5139 0,-0.09255 -0.418712,0 0,0.09255 z" gorn="0.4.0.0.0.146" id="path8956" connector-curvature="0"/>
                    <path style="fill:#9a916c;fill-opacity:1;fill-rule:nonzero;stroke:none"  d="m 1.25613,14.3288 0,-0.09255 -0.418712,0 0,0.09255 z" gorn="0.4.0.0.0.147" id="path8958" connector-curvature="0"/>
                    <path style="fill:#9a916c;fill-opacity:1;fill-rule:nonzero;stroke:none"  d="m 1.93653,14.3288 0,-0.09255 -0.418712,0 0,0.09255 z" gorn="0.4.0.0.0.148" id="path8960" connector-curvature="0"/>
                    <path style="fill:#9a916c;fill-opacity:1;fill-rule:nonzero;stroke:none"  d="m 1.25613,14.1437 0,-0.09255 -0.418712,0 0,0.09255 z" gorn="0.4.0.0.0.149" id="path8962" connector-curvature="0"/>
                    <path style="fill:#9a916c;fill-opacity:1;fill-rule:nonzero;stroke:none"  d="m 1.93653,14.1437 0,-0.09255 -0.418712,0 0,0.09255 z" gorn="0.4.0.0.0.150" id="path8964" connector-curvature="0"/>
                    <path style="fill:#9a916c;fill-opacity:1;fill-rule:nonzero;stroke:none"  d="m 1.25613,14.0049 0,-0.13877 -0.418712,0 0,0.13877 z" gorn="0.4.0.0.0.151" id="path8966" connector-curvature="0"/>
                    <path style="fill:#9a916c;fill-opacity:1;fill-rule:nonzero;stroke:none"  d="m 1.93653,14.0049 0,-0.13877 -0.418712,0 0,0.13877 z" gorn="0.4.0.0.0.152" id="path8968" connector-curvature="0"/>
                    <path style="fill:#9a916c;fill-opacity:1;fill-rule:nonzero;stroke:none"  d="m 1.25613,13.8198 0,-0.138835 -0.418712,0 0,0.138835 z" gorn="0.4.0.0.0.153" id="path8970" connector-curvature="0"/>
                    <path style="fill:#9a916c;fill-opacity:1;fill-rule:nonzero;stroke:none"  d="m 1.93653,13.8198 0,-0.138835 -0.418712,0 0,0.138835 z" gorn="0.4.0.0.0.154" id="path8972" connector-curvature="0"/>
                    <path style="fill:#1a1a1a;fill-opacity:1;fill-rule:nonzero;stroke:none"  d="m 8.3641e-6,15.0692 35.4330996359,0 0,-13.6519 -35.4330996359,0 z" gorn="0.4.0.0.0.155" id="path8974" connector-curvature="0"/>
                    <path style="fill:#2a2a29;fill-opacity:1;fill-rule:nonzero;stroke:none"  d="m 8.3641e-6,15.0692 35.4330996359,0 0,-1.52712 -35.4330996359,0 z" gorn="0.4.0.0.0.156" id="path8976" connector-curvature="0"/>
                    <path style="fill:#595959;fill-opacity:1;fill-rule:nonzero;stroke:none"  d="m 8.3641e-6,2.94449 35.4330996359,0 0,-1.52717 -35.4330996359,0 z" gorn="0.4.0.0.0.157" id="path8978" connector-curvature="0"/>
                    <path style="fill:#373737;fill-opacity:1;fill-rule:nonzero;stroke:none"  d="m 8.3641e-6,15.0692 0,-13.6519 L 1.72717,2.94449 l 0,10.5977 z" gorn="0.4.0.0.0.158" id="path8980" connector-curvature="0"/>
                    <path style="fill:#474747;fill-opacity:1;fill-rule:nonzero;stroke:none"  d="m 35.4331,15.0692 0,-13.6519 -1.72718,1.52717 0,10.5977 z" gorn="0.4.0.0.0.159" id="path8982" connector-curvature="0"/>
                    <path style="fill:#404040;fill-opacity:1;fill-rule:nonzero;stroke:none"  d="m 8.3641e-6,15.0692 35.4330996359,0 0,-0.971842 -35.4330996359,0 z" gorn="0.4.0.0.0.160" id="path8984" connector-curvature="0"/>
                    <path style="fill:#404040;fill-opacity:1;fill-rule:nonzero;stroke:none"  d="m 8.3641e-6,2.38916 35.4330996359,0 0,-0.971834 -35.4330996359,0 z" gorn="0.4.0.0.0.161" id="path8986" connector-curvature="0"/>
                    <path style="fill:#404040;fill-opacity:1;fill-rule:nonzero;stroke:none"  d="m 8.3641e-6,15.0692 1.0991100359,0 0,-13.6519 -1.0991100359,0 z" gorn="0.4.0.0.0.162" id="path8988" connector-curvature="0"/>
                    <path style="fill:#404040;fill-opacity:1;fill-rule:nonzero;stroke:none"  d="m 34.334,15.0692 1.09912,0 0,-13.6519 -1.09912,0 z" gorn="0.4.0.0.0.163" id="path8990" connector-curvature="0"/>
                    <path style="fill:#1a1a1a;fill-opacity:1;fill-rule:nonzero;stroke:none"  d="m 13.9744,4.05516 7.43206,0 0,-2.63784 -7.43206,0 z" gorn="0.4.0.0.0.164" id="path9112" connector-curvature="0"/>
                    <g  transform="translate(1.11269,-12.9138)">
                        <g  gorn="0.4.0.0.0.165.0" id="g21215">
                            <g  gorn="0.4.0.0.0.165.0.0" id="g21106">
                                <g  transform="translate(0,3.2)">
                                    <g  gorn="0.4.0.0.0.165.0.0.0.0" id="g21042">
                                        <rect style="fill:#141414;stroke:none;stroke-width:0"  gorn="0.4.0.0.0.165.0.0.0.0.0" width="2.14991" id="upper connector bgnd" x="8.3188105" y="18.9865" height="2.1463799"/>
                                        <rect style="fill:#8c8663;stroke:none;stroke-width:0"  gorn="0.4.0.0.0.165.0.0.0.0.1" width="1.3010401" id="rect361" x="8.7432499" y="19.4102" height="1.2989"/>
                                        <rect style="fill:#b8af82;stroke:none;stroke-width:0"  gorn="0.4.0.0.0.165.0.0.0.0.2" width="1.3010401" id="upper connector top inset" x="8.7432499" y="19.4102" height="0.31526199"/>
                                        <rect style="fill:#5e5b43;stroke:none;stroke-width:0"  gorn="0.4.0.0.0.165.0.0.0.0.3" width="1.3010401" id="upper connector bottom inset" x="8.7432499" y="20.3939" height="0.31526199"/>
                                        <path style="fill:#9a916c;stroke:none;stroke-width:0"  d="m 8.74325,19.4102 0,1.2989 0.31578,-0.315261 0,-0.668378 z" gorn="0.4.0.0.0.165.0.0.0.0.4" id="upper connector left inset" connector-curvature="0"/>
                                        <path style="fill:#9a916c;stroke:none;stroke-width:0"  d="m 10.0443,19.4102 0,1.2989 -0.31578,-0.315261 0,-0.668378 z" gorn="0.4.0.0.0.165.0.0.0.0.5" id="upper connector right inset" connector-curvature="0"/>
                                    </g>
                                </g>
                                <g  transform="translate(3.60089,3.2)">
                                    <g  gorn="0.4.0.0.0.165.0.0.1.0" id="g21050">
                                        <rect style="fill:#141414;stroke:none;stroke-width:0"  gorn="0.4.0.0.0.165.0.0.1.0.0" width="2.14991" id="rect21052" x="8.3188105" y="18.9865" height="2.1463799"/>
                                        <rect style="fill:#8c8663;stroke:none;stroke-width:0"  gorn="0.4.0.0.0.165.0.0.1.0.1" width="1.3010401" id="rect21054" x="8.7432499" y="19.4102" height="1.2989"/>
                                        <rect style="fill:#b8af82;stroke:none;stroke-width:0"  gorn="0.4.0.0.0.165.0.0.1.0.2" width="1.3010401" id="rect21056" x="8.7432499" y="19.4102" height="0.31526199"/>
                                        <rect style="fill:#5e5b43;stroke:none;stroke-width:0"  gorn="0.4.0.0.0.165.0.0.1.0.3" width="1.3010401" id="rect21058" x="8.7432499" y="20.3939" height="0.31526199"/>
                                        <path style="fill:#9a916c;stroke:none;stroke-width:0"  d="m 8.74325,19.4102 0,1.2989 0.31578,-0.315261 0,-0.668378 z" gorn="0.4.0.0.0.165.0.0.1.0.4" id="path21060" connector-curvature="0"/>
                                        <path style="fill:#9a916c;stroke:none;stroke-width:0"  d="m 10.0443,19.4102 0,1.2989 -0.31578,-0.315261 0,-0.668378 z" gorn="0.4.0.0.0.165.0.0.1.0.5" id="path21062" connector-curvature="0"/>
                                    </g>
                                </g>
                                <g  transform="translate(7.20086,3.2)">
                                    <g  gorn="0.4.0.0.0.165.0.0.2.0" id="g21064">
                                        <rect style="fill:#141414;stroke:none;stroke-width:0"  gorn="0.4.0.0.0.165.0.0.2.0.0" width="2.14991" id="rect21066" x="8.3188105" y="18.9865" height="2.1463799"/>
                                        <rect style="fill:#8c8663;stroke:none;stroke-width:0"  gorn="0.4.0.0.0.165.0.0.2.0.1" width="1.3010401" id="rect21068" x="8.7432499" y="19.4102" height="1.2989"/>
                                        <rect style="fill:#b8af82;stroke:none;stroke-width:0"  gorn="0.4.0.0.0.165.0.0.2.0.2" width="1.3010401" id="rect21070" x="8.7432499" y="19.4102" height="0.31526199"/>
                                        <rect style="fill:#5e5b43;stroke:none;stroke-width:0"  gorn="0.4.0.0.0.165.0.0.2.0.3" width="1.3010401" id="rect21072" x="8.7432499" y="20.3939" height="0.31526199"/>
                                        <path style="fill:#9a916c;stroke:none;stroke-width:0"  d="m 8.74325,19.4102 0,1.2989 0.31578,-0.315261 0,-0.668378 z" gorn="0.4.0.0.0.165.0.0.2.0.4" id="path21074" connector-curvature="0"/>
                                        <path style="fill:#9a916c;stroke:none;stroke-width:0"  d="m 10.0443,19.4102 0,1.2989 -0.31578,-0.315261 0,-0.668378 z" gorn="0.4.0.0.0.165.0.0.2.0.5" id="path21076" connector-curvature="0"/>
                                    </g>
                                </g>
                                <g  transform="translate(10.8018,3.2)">
                                    <g  gorn="0.4.0.0.0.165.0.0.3.0" id="g21078">
                                        <rect style="fill:#141414;stroke:none;stroke-width:0"  gorn="0.4.0.0.0.165.0.0.3.0.0" width="2.14991" id="rect21080" x="8.3188105" y="18.9865" height="2.1463799"/>
                                        <rect style="fill:#8c8663;stroke:none;stroke-width:0"  gorn="0.4.0.0.0.165.0.0.3.0.1" width="1.3010401" id="rect21082" x="8.7432499" y="19.4102" height="1.2989"/>
                                        <rect style="fill:#b8af82;stroke:none;stroke-width:0"  gorn="0.4.0.0.0.165.0.0.3.0.2" width="1.3010401" id="rect21084" x="8.7432499" y="19.4102" height="0.31526199"/>
                                        <rect style="fill:#5e5b43;stroke:none;stroke-width:0"  gorn="0.4.0.0.0.165.0.0.3.0.3" width="1.3010401" id="rect21086" x="8.7432499" y="20.3939" height="0.31526199"/>
                                        <path style="fill:#9a916c;stroke:none;stroke-width:0"  d="m 8.74325,19.4102 0,1.2989 0.31578,-0.315261 0,-0.668378 z" gorn="0.4.0.0.0.165.0.0.3.0.4" id="path21088" connector-curvature="0"/>
                                        <path style="fill:#9a916c;stroke:none;stroke-width:0"  d="m 10.0443,19.4102 0,1.2989 -0.31578,-0.315261 0,-0.668378 z" gorn="0.4.0.0.0.165.0.0.3.0.5" id="path21090" connector-curvature="0"/>
                                    </g>
                                </g>
                                <g  transform="translate(14.4009,3.2)">
                                    <g  gorn="0.4.0.0.0.165.0.0.4.0" id="g21092">
                                        <rect style="fill:#141414;stroke:none;stroke-width:0"  gorn="0.4.0.0.0.165.0.0.4.0.0" width="2.14991" id="rect21094" x="8.3188105" y="18.9865" height="2.1463799"/>
                                        <rect style="fill:#8c8663;stroke:none;stroke-width:0"  gorn="0.4.0.0.0.165.0.0.4.0.1" width="1.3010401" id="rect21096" x="8.7432499" y="19.4102" height="1.2989"/>
                                        <rect style="fill:#b8af82;stroke:none;stroke-width:0"  gorn="0.4.0.0.0.165.0.0.4.0.2" width="1.3010401" id="rect21098" x="8.7432499" y="19.4102" height="0.31526199"/>
                                        <rect style="fill:#5e5b43;stroke:none;stroke-width:0"  gorn="0.4.0.0.0.165.0.0.4.0.3" width="1.3010401" id="rect21100" x="8.7432499" y="20.3939" height="0.31526199"/>
                                        <path style="fill:#9a916c;stroke:none;stroke-width:0"  d="m 8.74325,19.4102 0,1.2989 0.31578,-0.315261 0,-0.668378 z" gorn="0.4.0.0.0.165.0.0.4.0.4" id="path21102" connector-curvature="0"/>
                                        <path style="fill:#9a916c;stroke:none;stroke-width:0"  d="m 10.0443,19.4102 0,1.2989 -0.31578,-0.315261 0,-0.668378 z" gorn="0.4.0.0.0.165.0.0.4.0.5" id="path21104" connector-curvature="0"/>
                                    </g>
                                </g>
                            </g>
                            <g  transform="translate(0,-3.60024)">
                                <g  gorn="0.4.0.0.0.165.0.1.0" id="g21143">
                                    <g  transform="translate(0,3.2)">
                                        <g  gorn="0.4.0.0.0.165.0.1.0.0.0" id="g21145">
                                            <rect style="fill:#141414;stroke:none;stroke-width:0"  gorn="0.4.0.0.0.165.0.1.0.0.0.0" width="2.14991" id="rect21147" x="8.3188105" y="18.9865" height="2.1463799"/>
                                            <rect style="fill:#8c8663;stroke:none;stroke-width:0"  gorn="0.4.0.0.0.165.0.1.0.0.0.1" width="1.3010401" id="rect21149" x="8.7432499" y="19.4102" height="1.2989"/>
                                            <rect style="fill:#b8af82;stroke:none;stroke-width:0"  gorn="0.4.0.0.0.165.0.1.0.0.0.2" width="1.3010401" id="rect21151" x="8.7432499" y="19.4102" height="0.31526199"/>
                                            <rect style="fill:#5e5b43;stroke:none;stroke-width:0"  gorn="0.4.0.0.0.165.0.1.0.0.0.3" width="1.3010401" id="rect21153" x="8.7432499" y="20.3939" height="0.31526199"/>
                                            <path style="fill:#9a916c;stroke:none;stroke-width:0"  d="m 8.74325,19.4102 0,1.2989 0.31578,-0.315261 0,-0.668378 z" gorn="0.4.0.0.0.165.0.1.0.0.0.4" id="path21155" connector-curvature="0"/>
                                            <path style="fill:#9a916c;stroke:none;stroke-width:0"  d="m 10.0443,19.4102 0,1.2989 -0.31578,-0.315261 0,-0.668378 z" gorn="0.4.0.0.0.165.0.1.0.0.0.5" id="path21157" connector-curvature="0"/>
                                        </g>
                                    </g>
                                    <g  transform="translate(3.60089,3.2)">
                                        <g  gorn="0.4.0.0.0.165.0.1.0.1.0" id="g21159">
                                            <rect style="fill:#141414;stroke:none;stroke-width:0"  gorn="0.4.0.0.0.165.0.1.0.1.0.0" width="2.14991" id="rect21161" x="8.3188105" y="18.9865" height="2.1463799"/>
                                            <rect style="fill:#8c8663;stroke:none;stroke-width:0"  gorn="0.4.0.0.0.165.0.1.0.1.0.1" width="1.3010401" id="rect21163" x="8.7432499" y="19.4102" height="1.2989"/>
                                            <rect style="fill:#b8af82;stroke:none;stroke-width:0"  gorn="0.4.0.0.0.165.0.1.0.1.0.2" width="1.3010401" id="rect21165" x="8.7432499" y="19.4102" height="0.31526199"/>
                                            <rect style="fill:#5e5b43;stroke:none;stroke-width:0"  gorn="0.4.0.0.0.165.0.1.0.1.0.3" width="1.3010401" id="rect21167" x="8.7432499" y="20.3939" height="0.31526199"/>
                                            <path style="fill:#9a916c;stroke:none;stroke-width:0"  d="m 8.74325,19.4102 0,1.2989 0.31578,-0.315261 0,-0.668378 z" gorn="0.4.0.0.0.165.0.1.0.1.0.4" id="path21169" connector-curvature="0"/>
                                            <path style="fill:#9a916c;stroke:none;stroke-width:0"  d="m 10.0443,19.4102 0,1.2989 -0.31578,-0.315261 0,-0.668378 z" gorn="0.4.0.0.0.165.0.1.0.1.0.5" id="path21171" connector-curvature="0"/>
                                        </g>
                                    </g>
                                    <g  transform="translate(7.20086,3.2)">
                                        <g  gorn="0.4.0.0.0.165.0.1.0.2.0" id="g21173">
                                            <rect style="fill:#141414;stroke:none;stroke-width:0"  gorn="0.4.0.0.0.165.0.1.0.2.0.0" width="2.14991" id="rect21175" x="8.3188105" y="18.9865" height="2.1463799"/>
                                            <rect style="fill:#8c8663;stroke:none;stroke-width:0"  gorn="0.4.0.0.0.165.0.1.0.2.0.1" width="1.3010401" id="rect21177" x="8.7432499" y="19.4102" height="1.2989"/>
                                            <rect style="fill:#b8af82;stroke:none;stroke-width:0"  gorn="0.4.0.0.0.165.0.1.0.2.0.2" width="1.3010401" id="rect21179" x="8.7432499" y="19.4102" height="0.31526199"/>
                                            <rect style="fill:#5e5b43;stroke:none;stroke-width:0"  gorn="0.4.0.0.0.165.0.1.0.2.0.3" width="1.3010401" id="rect21181" x="8.7432499" y="20.3939" height="0.31526199"/>
                                            <path style="fill:#9a916c;stroke:none;stroke-width:0"  d="m 8.74325,19.4102 0,1.2989 0.31578,-0.315261 0,-0.668378 z" gorn="0.4.0.0.0.165.0.1.0.2.0.4" id="path21183" connector-curvature="0"/>
                                            <path style="fill:#9a916c;stroke:none;stroke-width:0"  d="m 10.0443,19.4102 0,1.2989 -0.31578,-0.315261 0,-0.668378 z" gorn="0.4.0.0.0.165.0.1.0.2.0.5" id="path21185" connector-curvature="0"/>
                                        </g>
                                    </g>
                                    <g  transform="translate(10.8018,3.2)">
                                        <g  gorn="0.4.0.0.0.165.0.1.0.3.0" id="g21187">
                                            <rect style="fill:#141414;stroke:none;stroke-width:0"  gorn="0.4.0.0.0.165.0.1.0.3.0.0" width="2.14991" id="rect21189" x="8.3188105" y="18.9865" height="2.1463799"/>
                                            <rect style="fill:#8c8663;stroke:none;stroke-width:0"  gorn="0.4.0.0.0.165.0.1.0.3.0.1" width="1.3010401" id="rect21191" x="8.7432499" y="19.4102" height="1.2989"/>
                                            <rect style="fill:#b8af82;stroke:none;stroke-width:0"  gorn="0.4.0.0.0.165.0.1.0.3.0.2" width="1.3010401" id="rect21193" x="8.7432499" y="19.4102" height="0.31526199"/>
                                            <rect style="fill:#5e5b43;stroke:none;stroke-width:0"  gorn="0.4.0.0.0.165.0.1.0.3.0.3" width="1.3010401" id="rect21195" x="8.7432499" y="20.3939" height="0.31526199"/>
                                            <path style="fill:#9a916c;stroke:none;stroke-width:0"  d="m 8.74325,19.4102 0,1.2989 0.31578,-0.315261 0,-0.668378 z" gorn="0.4.0.0.0.165.0.1.0.3.0.4" id="path21197" connector-curvature="0"/>
                                            <path style="fill:#9a916c;stroke:none;stroke-width:0"  d="m 10.0443,19.4102 0,1.2989 -0.31578,-0.315261 0,-0.668378 z" gorn="0.4.0.0.0.165.0.1.0.3.0.5" id="path21199" connector-curvature="0"/>
                                        </g>
                                    </g>
                                    <g  transform="translate(14.4009,3.2)">
                                        <g  gorn="0.4.0.0.0.165.0.1.0.4.0" id="g21201">
                                            <rect style="fill:#141414;stroke:none;stroke-width:0"  gorn="0.4.0.0.0.165.0.1.0.4.0.0" width="2.14991" id="rect21203" x="8.3188105" y="18.9865" height="2.1463799"/>
                                            <rect style="fill:#8c8663;stroke:none;stroke-width:0"  gorn="0.4.0.0.0.165.0.1.0.4.0.1" width="1.3010401" id="rect21205" x="8.7432499" y="19.4102" height="1.2989"/>
                                            <rect style="fill:#b8af82;stroke:none;stroke-width:0"  gorn="0.4.0.0.0.165.0.1.0.4.0.2" width="1.3010401" id="rect21207" x="8.7432499" y="19.4102" height="0.31526199"/>
                                            <rect style="fill:#5e5b43;stroke:none;stroke-width:0"  gorn="0.4.0.0.0.165.0.1.0.4.0.3" width="1.3010401" id="rect21209" x="8.7432499" y="20.3939" height="0.31526199"/>
                                            <path style="fill:#9a916c;stroke:none;stroke-width:0"  d="m 8.74325,19.4102 0,1.2989 0.31578,-0.315261 0,-0.668378 z" gorn="0.4.0.0.0.165.0.1.0.4.0.4" id="path21211" connector-curvature="0"/>
                                            <path style="fill:#9a916c;stroke:none;stroke-width:0"  d="m 10.0443,19.4102 0,1.2989 -0.31578,-0.315261 0,-0.668378 z" gorn="0.4.0.0.0.165.0.1.0.4.0.5" id="path21213" connector-curvature="0"/>
                                        </g>
                                    </g>
                                </g>
                            </g>
                        </g>
                    </g>
                </g>
            </g>
        </g>
    </g>
</svg>
