<?xml version='1.0' encoding='UTF-8' standalone='no'?>
<!-- Created with Fritzing (http://www.fritzing.org/) -->
<svg xmlns="http://www.w3.org/2000/svg" x="0in" gorn="0"  height="0.7in" width="0.6in" id="svg5928" version="1.2" y="0in" viewBox="0 0 43.2 50.4">
    <desc>
        <referenceFile>Adafruit Si7021 Temp Humidity_breadboard.svg</referenceFile>
    </desc>
    <metadata  id="metadata6378"/>
    <defs  id="defs6376"/>
    <desc  id="desc5930">Fritzing breadboard generated by brd2svg</desc>
    <g gorn="0.3"  id="icon">
        <path gorn="0.3.0"  d="M 0,43.2 0,7.2 A 7.2,7.2 0 0 1 7.2,0 L 36,0 a 7.2,7.2 0 0 1 7.2,7.2 l 0,36 A 7.2,7.2 0 0 1 36,50.4 l -28.8,0 A 7.2,7.2 0 0 1 0,43.2 m 34.5827,0 a 1.417325,1.417325 0 1 0 2.83465,0 1.417325,1.417325 0 1 0 -2.83465,0 z m -7.2,0 a 1.417325,1.417325 0 1 0 2.83465,0 1.417325,1.417325 0 1 0 -2.83465,0 z m -7.2,0 a 1.417325,1.417325 0 1 0 2.83465,0 1.417325,1.417325 0 1 0 -2.83465,0 z m -7.2,0 a 1.417325,1.417325 0 1 0 2.83465,0 1.417325,1.417325 0 1 0 -2.83465,0 z m -7.20002,0 a 1.417325,1.417325 0 1 0 2.83465,0 1.417325,1.417325 0 1 0 -2.83465,0 z M 32.4567,7.2 a 3.54331,3.54331 0 1 0 7.08661,0 3.54331,3.54331 0 1 0 -7.08661,0 z m -28.80001,0 a 3.54331,3.54331 0 1 0 7.08661,0 3.54331,3.54331 0 1 0 -7.08661,0 z" id="path5934" style="fill:#014cb1;stroke:none;stroke-width:0"/>
        <g gorn="0.3.1"  id="g5936">
            <title  id="title5938">layer 21</title>
            <g gorn="0.3.1.1"  id="g5940">
                <title  id="title5942">text:Si7021</title>
                <text x="20.52" gorn="0.3.1.1.1"  id="text5944" y="4.5503998" font-size="3.3408" style="font-size:3.34080005px;font-family:OCRA;text-anchor:middle;fill:#ffffff;stroke:none;stroke-width:0">Si7021</text>
            </g>
            <g gorn="0.3.1.2"  id="g5946">
                <title  id="title5948">text:RH%</title>
                <text x="18.719999" gorn="0.3.1.2.1"  id="text5950" y="9.5903997" font-size="3.3408" style="font-size:3.34080005px;font-family:OCRA;text-anchor:middle;fill:#ffffff;stroke:none;stroke-width:0">RH%</text>
            </g>
            <g gorn="0.3.1.3"  id="g5952">
                <title  id="title5954">text:SDA</title>
                <text x="36.360001" gorn="0.3.1.3.1"  id="text5956" y="40.190399" font-size="3.3408" style="font-size:3.34080005px;font-family:OCRA;text-anchor:middle;fill:#ffffff;stroke:none;stroke-width:0">SDA</text>
            </g>
            <g gorn="0.3.1.4"  id="g5958">
                <title  id="title5960">text:SCL</title>
                <text x="28.799999" gorn="0.3.1.4.1"  id="text5962" y="49.5504" font-size="3.3408" style="font-size:3.34080005px;font-family:OCRA;text-anchor:middle;fill:#ffffff;stroke:none;stroke-width:0">SCL</text>
            </g>
            <g gorn="0.3.1.5"  id="g5964">
                <title  id="title5966">text:GND</title>
                <text x="21.6" gorn="0.3.1.5.1"  id="text5968" y="40.190399" font-size="3.3408" style="font-size:3.34080005px;font-family:OCRA;text-anchor:middle;fill:#ffffff;stroke:none;stroke-width:0">GND</text>
            </g>
            <g gorn="0.3.1.6"  id="g5970">
                <title  id="title5972">text:3Vo</title>
                <text x="14.76" gorn="0.3.1.6.1"  id="text5974" y="49.5504" font-size="3.3408" style="font-size:3.34080005px;font-family:OCRA;text-anchor:middle;fill:#ffffff;stroke:none;stroke-width:0">3Vo</text>
            </g>
            <g gorn="0.3.1.7"  id="g5976">
                <title  id="title5978">text:VIN</title>
                <text x="7.1999998" gorn="0.3.1.7.1"  id="text5980" y="40.190399" font-size="3.3408" style="font-size:3.34080005px;font-family:OCRA;text-anchor:middle;fill:#ffffff;stroke:none;stroke-width:0">VIN</text>
            </g>
            <g gorn="0.3.1.8"  id="g5982">
                <title  id="title5984">element:C1</title>
                <g gorn="0.3.1.8.1"  id="g5986">
                    <title  id="title5988">package:0805-NO</title>
                    <line gorn="0.3.1.8.1.1"  id="line5990" y2="14.76" x1="21.24" x2="21.24" y1="11.88" style="stroke:#ffffff;stroke-width:0.86400002;stroke-linecap:round"/>
                </g>
            </g>
            <g gorn="0.3.1.9"  id="g5992">
                <title  id="title5994">element:C2</title>
                <g gorn="0.3.1.9.1"  id="g5996">
                    <title  id="title5998">package:0805-NO</title>
                    <line gorn="0.3.1.9.1.1"  id="line6000" y2="35.639999" x1="5.4000001" x2="5.4000001" y1="32.759998" style="stroke:#ffffff;stroke-width:0.86400002;stroke-linecap:round"/>
                </g>
            </g>
            <g gorn="0.3.1.10"  id="g6002">
                <title  id="title6004">element:C3</title>
                <g gorn="0.3.1.10.1"  id="g6006">
                    <title  id="title6008">package:0805-NO</title>
                    <line gorn="0.3.1.10.1.1"  id="line6010" y2="18.719999" x1="6.1199999" x2="6.1199999" y1="15.84" style="stroke:#ffffff;stroke-width:0.86400002;stroke-linecap:round"/>
                </g>
            </g>
            <g gorn="0.3.1.11"  id="g6012">
                <title  id="title6014">element:FID1</title>
                <g gorn="0.3.1.11.1"  id="g6016">
                    <title  id="title6018">package:FIDUCIAL_1MM</title>
                </g>
            </g>
            <g gorn="0.3.1.12"  id="g6020">
                <title  id="title6022">element:FID2</title>
                <g gorn="0.3.1.12.1"  id="g6024">
                    <title  id="title6026">package:FIDUCIAL_1MM</title>
                </g>
            </g>
            <g gorn="0.3.1.13"  id="g6028">
                <title  id="title6030">element:JP1</title>
                <g gorn="0.3.1.13.1"  id="g6032">
                    <title  id="title6034">package:1X05_ROUND_70</title>
                </g>
            </g>
            <g gorn="0.3.1.14"  id="g6036">
                <title  id="title6038">element:Q1</title>
                <g gorn="0.3.1.14.1"  id="g6040">
                    <title  id="title6042">package:SOT23-WIDE</title>
                    <line gorn="0.3.1.14.1.1"  id="line6044" y2="26.939301" x1="20.470699" x2="24.191999" y1="26.939301" style="stroke:#ffffff;stroke-width:0.57599998;stroke-linecap:round"/>
                    <line gorn="0.3.1.14.1.2"  id="line6046" y2="29.6572" x1="24.191999" x2="24.191999" y1="26.939301" style="stroke:#ffffff;stroke-width:0.57599998;stroke-linecap:round"/>
                    <line gorn="0.3.1.14.1.3"  id="line6048" y2="36.4207" x1="24.191999" x2="20.470699" y1="36.4207" style="stroke:#ffffff;stroke-width:0.57599998;stroke-linecap:round"/>
                    <line gorn="0.3.1.14.1.4"  id="line6050" y2="36.4207" x1="24.191999" x2="24.191999" y1="33.702801" style="stroke:#ffffff;stroke-width:0.57599998;stroke-linecap:round"/>
                    <line gorn="0.3.1.14.1.5"  id="line6052" y2="31.009899" x1="20.448" x2="20.448" y1="32.310398" style="stroke:#ffffff;stroke-width:0.57599998;stroke-linecap:round"/>
                </g>
            </g>
            <g gorn="0.3.1.15"  id="g6054">
                <title  id="title6056">element:Q2</title>
                <g gorn="0.3.1.15.1"  id="g6058">
                    <title  id="title6060">package:SOT23-WIDE</title>
                    <line gorn="0.3.1.15.1.1"  id="line6062" y2="16.4993" x1="35.950699" x2="39.672001" y1="16.4993" style="stroke:#ffffff;stroke-width:0.57599998;stroke-linecap:round"/>
                    <line gorn="0.3.1.15.1.2"  id="line6064" y2="19.217199" x1="39.672001" x2="39.672001" y1="16.4993" style="stroke:#ffffff;stroke-width:0.57599998;stroke-linecap:round"/>
                    <line gorn="0.3.1.15.1.3"  id="line6066" y2="25.9807" x1="39.672001" x2="35.950699" y1="25.9807" style="stroke:#ffffff;stroke-width:0.57599998;stroke-linecap:round"/>
                    <line gorn="0.3.1.15.1.4"  id="line6068" y2="25.9807" x1="39.672001" x2="39.672001" y1="23.2628" style="stroke:#ffffff;stroke-width:0.57599998;stroke-linecap:round"/>
                    <line gorn="0.3.1.15.1.5"  id="line6070" y2="20.569901" x1="35.928001" x2="35.928001" y1="21.870399" style="stroke:#ffffff;stroke-width:0.57599998;stroke-linecap:round"/>
                </g>
            </g>
            <g gorn="0.3.1.16"  id="g6072">
                <title  id="title6074">element:R1</title>
                <g gorn="0.3.1.16.1"  id="g6076">
                    <title  id="title6078">package:0805-NO</title>
                    <line gorn="0.3.1.16.1.1"  id="line6080" y2="32.040001" x1="13.32" x2="16.200001" y1="32.040001" style="stroke:#ffffff;stroke-width:0.86400002;stroke-linecap:round"/>
                </g>
            </g>
            <g gorn="0.3.1.17"  id="g6082">
                <title  id="title6084">element:R2</title>
                <g gorn="0.3.1.17.1"  id="g6086">
                    <title  id="title6088">package:0805-NO</title>
                    <line gorn="0.3.1.17.1.1"  id="line6090" y2="31.32" x1="28.440001" x2="31.32" y1="31.32" style="stroke:#ffffff;stroke-width:0.86400002;stroke-linecap:round"/>
                </g>
            </g>
            <g gorn="0.3.1.18"  id="g6092">
                <title  id="title6094">element:R3</title>
                <g gorn="0.3.1.18.1"  id="g6096">
                    <title  id="title6098">package:0805-NO</title>
                    <line gorn="0.3.1.18.1.1"  id="line6100" y2="31.32" x1="37.080002" x2="34.200001" y1="31.32" style="stroke:#ffffff;stroke-width:0.86400002;stroke-linecap:round"/>
                </g>
            </g>
            <g gorn="0.3.1.19"  id="g6102">
                <title  id="title6104">element:R4</title>
                <g gorn="0.3.1.19.1"  id="g6106">
                    <title  id="title6108">package:0805-NO</title>
                    <line gorn="0.3.1.19.1.1"  id="line6110" y2="21.24" x1="31.68" x2="28.799999" y1="21.24" style="stroke:#ffffff;stroke-width:0.86400002;stroke-linecap:round"/>
                </g>
            </g>
            <g gorn="0.3.1.20"  id="g6112">
                <title  id="title6114">element:U$1</title>
                <g gorn="0.3.1.20.1"  id="g6116">
                    <title  id="title6118">package:ADAFRUIT_2.5MM</title>
                </g>
            </g>
            <g gorn="0.3.1.21"  id="g6120">
                <title  id="title6122">element:U$6</title>
                <g gorn="0.3.1.21.1"  id="g6124">
                    <title  id="title6126">package:MOUNTINGHOLE_2.5_PLATED</title>
                    <circle gorn="0.3.1.21.1.1"  id="circle6128" cy="7.1999998" r="5.6692901" style="fill:none;stroke:#ffffff;stroke-width:0.57599998" cx="36"/>
                </g>
            </g>
            <g gorn="0.3.1.22"  id="g6130">
                <title  id="title6132">element:U$7</title>
                <g gorn="0.3.1.22.1"  id="g6134">
                    <title  id="title6136">package:MOUNTINGHOLE_2.5_PLATED</title>
                    <circle gorn="0.3.1.22.1.1"  id="circle6138" cy="7.1999998" r="5.6692901" style="fill:none;stroke:#ffffff;stroke-width:0.57599998" cx="7.1999998"/>
                </g>
            </g>
            <g gorn="0.3.1.23"  id="g6140">
                <title  id="title6142">element:U$9</title>
                <g gorn="0.3.1.23.1"  id="g6144">
                    <title  id="title6146">package:PCBFEAT-REV-040</title>
                </g>
            </g>
            <g gorn="0.3.1.24"  id="g6148">
                <title  id="title6150">element:U$10</title>
                <g gorn="0.3.1.24.1"  id="g6152">
                    <title  id="title6154">package:ADAFRUIT_3.5MM</title>
                </g>
            </g>
            <g gorn="0.3.1.25"  id="g6156">
                <title  id="title6158">element:U1</title>
                <g gorn="0.3.1.25.1"  id="g6160">
                    <title  id="title6162">package:SOT23-5</title>
                    <line gorn="0.3.1.25.1.1"  id="line6164" y2="27.8277" x1="1.44284" x2="1.44284" y1="23.292299" style="stroke:#ffffff;stroke-width:0.57599998;stroke-linecap:round"/>
                    <line gorn="0.3.1.25.1.2"  id="line6166" y2="27.8277" x1="10.7972" x2="10.7972" y1="23.292299" style="stroke:#ffffff;stroke-width:0.57599998;stroke-linecap:round"/>
                    <line gorn="0.3.1.25.1.3"  id="line6168" y2="22.583599" x1="4.9861398" x2="7.25386" y1="22.583599" style="stroke:#ffffff;stroke-width:0.57599998;stroke-linecap:round"/>
                </g>
            </g>
            <g gorn="0.3.1.26"  id="g6170">
                <title  id="title6172">element:U2</title>
                <g gorn="0.3.1.26.1"  id="g6174">
                    <title  id="title6176">package:DFN6_3X3_SI</title>
                    <line gorn="0.3.1.26.1.1"  id="line6178" y2="25.7754" x1="25.4154" x2="25.4154" y1="25.492001" style="stroke:#ffffff;stroke-width:0.36000001;stroke-linecap:round"/>
                    <line gorn="0.3.1.26.1.2"  id="line6180" y2="25.7754" x1="25.4154" x2="16.344601" y1="25.7754" style="stroke:#ffffff;stroke-width:0.36000001;stroke-linecap:round"/>
                    <line gorn="0.3.1.26.1.3"  id="line6182" y2="25.492001" x1="16.344601" x2="16.344601" y1="25.7754" style="stroke:#ffffff;stroke-width:0.36000001;stroke-linecap:round"/>
                    <line gorn="0.3.1.26.1.4"  id="line6184" y2="16.704599" x1="25.4154" x2="25.4154" y1="16.988001" style="stroke:#ffffff;stroke-width:0.36000001;stroke-linecap:round"/>
                    <line gorn="0.3.1.26.1.5"  id="line6186" y2="16.704599" x1="25.4154" x2="16.344601" y1="16.704599" style="stroke:#ffffff;stroke-width:0.36000001;stroke-linecap:round"/>
                    <line gorn="0.3.1.26.1.6"  id="line6188" y2="16.988001" x1="16.344601" x2="16.344601" y1="16.704599" style="stroke:#ffffff;stroke-width:0.36000001;stroke-linecap:round"/>
                    <circle gorn="0.3.1.26.1.7"  id="circle6190" cy="26.3424" r="0.283465" style="fill:none;stroke:#ffffff;stroke-width:1.72800004" cx="26.832701"/>
                </g>
            </g>
        </g>
        <rect x="16.7896" gorn="0.3.2"  height="4.2519698" width="3.5149601" id="connector0pin" y="11.194" style="fill:#9a916c;stroke:none;stroke-width:0"/>
        <rect x="22.1754" gorn="0.3.3"  height="4.2519698" width="3.5149601" id="connector1pin" y="11.194" style="fill:#9a916c;stroke:none;stroke-width:0"/>
        <rect x="0.94960803" gorn="0.3.4"  height="4.2519698" width="3.5149601" id="connector2pin" y="32.074001" style="fill:#9a916c;stroke:none;stroke-width:0"/>
        <rect x="6.3354301" gorn="0.3.5"  height="4.2519698" width="3.5149601" id="connector3pin" y="32.074001" style="fill:#9a916c;stroke:none;stroke-width:0"/>
        <rect x="1.66961" gorn="0.3.6"  height="4.2519698" width="3.5149601" id="connector4pin" y="15.154" style="fill:#9a916c;stroke:none;stroke-width:0"/>
        <rect x="7.0554299" gorn="0.3.7"  height="4.2519698" width="3.5149601" id="connector5pin" y="15.154" style="fill:#9a916c;stroke:none;stroke-width:0"/>
        <rect x="0.74268001" gorn="0.3.8"  height="2.83465" ry="1.41732" rx="1.41732" width="2.83465" id="connector6pin" y="40.342701" style="fill:#9a916c;stroke:none;stroke-width:0"/>
        <rect x="28.4627" gorn="0.3.9"  height="2.83465" ry="1.41732" rx="1.41732" width="2.83465" id="connector7pin" y="12.2627" style="fill:#9a916c;stroke:none;stroke-width:0"/>
        <circle gorn="0.3.10"  id="connector8pin" cy="43.200001" r="1.96866" connectorname="SDA" style="fill:none;stroke:#9a916c;stroke-width:1.10267997" cx="36"/>
        <circle gorn="0.3.11"  id="connector9pin" cy="43.200001" r="1.96866" connectorname="SCL" style="fill:none;stroke:#9a916c;stroke-width:1.10267997" cx="28.799999"/>
        <circle gorn="0.3.12"  id="connector10pin" cy="43.200001" r="1.96866" connectorname="GND" style="fill:none;stroke:#9a916c;stroke-width:1.10267997" cx="21.6"/>
        <circle gorn="0.3.13"  id="connector11pin" cy="43.200001" r="1.96866" connectorname="+3V3" style="fill:none;stroke:#9a916c;stroke-width:1.10267997" cx="14.4"/>
        <circle gorn="0.3.14"  id="connector12pin" cy="43.200001" r="1.96866" connectorname="VIN" style="fill:none;stroke:#9a916c;stroke-width:1.10267997" cx="7.1999998"/>
        <g  transform="matrix(0,1,-1,0,48.4724,9.50177)">
            <g gorn="0.3.15.0"  id="g6205">
                <rect x="18.068001" gorn="0.3.15.0.0"  height="3.4015801" width="2.83465" id="connector13pin" y="27.286301" style="fill:#9a916c;stroke:none;stroke-width:0"/>
            </g>
        </g>
        <g  transform="matrix(0,1,-1,0,53.8582,14.8876)">
            <g gorn="0.3.16.0"  id="g6208">
                <rect x="18.068001" gorn="0.3.16.0.0"  height="3.4015801" width="2.83465" id="connector14pin" y="32.672199" style="fill:#9a916c;stroke:none;stroke-width:0"/>
            </g>
        </g>
        <g  transform="matrix(0,1,-1,0,56.8346,6.52535)">
            <g gorn="0.3.17.0"  id="g6211">
                <rect x="23.737301" gorn="0.3.17.0.0"  height="3.4015801" width="2.83465" id="connector15pin" y="29.9792" style="fill:#9a916c;stroke:none;stroke-width:0"/>
            </g>
        </g>
        <g  transform="matrix(0,1,-1,0,53.5124,-16.4182)">
            <g gorn="0.3.18.0"  id="g6214">
                <rect x="33.548" gorn="0.3.18.0.0"  height="3.4015801" width="2.83465" id="connector16pin" y="16.8463" style="fill:#9a916c;stroke:none;stroke-width:0"/>
            </g>
        </g>
        <g  transform="matrix(0,1,-1,0,58.8982,-11.0324)">
            <g gorn="0.3.19.0"  id="g6217">
                <rect x="33.548" gorn="0.3.19.0.0"  height="3.4015801" width="2.83465" id="connector17pin" y="22.232201" style="fill:#9a916c;stroke:none;stroke-width:0"/>
            </g>
        </g>
        <g  transform="matrix(0,1,-1,0,61.8746,-19.3946)">
            <g gorn="0.3.20.0"  id="g6220">
                <rect x="39.2173" gorn="0.3.20.0.0"  height="3.4015801" width="2.83465" id="connector18pin" y="19.5392" style="fill:#9a916c;stroke:none;stroke-width:0"/>
            </g>
        </g>
        <g  transform="matrix(0,-1,1,0,-19.9729,49.4929)">
            <g gorn="0.3.21.0"  id="g6223">
                <rect x="13.0026" gorn="0.3.21.0.0"  height="4.2519698" width="3.5149601" id="connector19pin" y="32.606899" style="fill:#9a916c;stroke:none;stroke-width:0"/>
            </g>
        </g>
        <g  transform="matrix(0,-1,1,0,-14.5871,44.1071)">
            <g gorn="0.3.22.0"  id="g6226">
                <rect x="13.0026" gorn="0.3.22.0.0"  height="4.2519698" width="3.5149601" id="connector20pin" y="27.2211" style="fill:#9a916c;stroke:none;stroke-width:0"/>
            </g>
        </g>
        <g  transform="matrix(0,-1,1,0,-4.13292,63.8929)">
            <g gorn="0.3.23.0"  id="g6229">
                <rect x="28.122601" gorn="0.3.23.0.0"  height="4.2519698" width="3.5149601" id="connector21pin" y="31.8869" style="fill:#9a916c;stroke:none;stroke-width:0"/>
            </g>
        </g>
        <g  transform="matrix(0,-1,1,0,1.25292,58.5071)">
            <g gorn="0.3.24.0"  id="g6232">
                <rect x="28.122601" gorn="0.3.24.0.0"  height="4.2519698" width="3.5149601" id="connector22pin" y="26.501101" style="fill:#9a916c;stroke:none;stroke-width:0"/>
            </g>
        </g>
        <g  transform="matrix(0,1,-1,0,64.2671,-7.01292)">
            <g gorn="0.3.25.0"  id="g6235">
                <rect x="33.882599" gorn="0.3.25.0.0"  height="4.2519698" width="3.5149601" id="connector23pin" y="26.501101" style="fill:#9a916c;stroke:none;stroke-width:0"/>
            </g>
        </g>
        <g  transform="matrix(0,1,-1,0,69.6529,-1.62708)">
            <g gorn="0.3.26.0"  id="g6238">
                <rect x="33.882599" gorn="0.3.26.0.0"  height="4.2519698" width="3.5149601" id="connector24pin" y="31.8869" style="fill:#9a916c;stroke:none;stroke-width:0"/>
            </g>
        </g>
        <g  transform="matrix(0,1,-1,0,48.7871,-11.6929)">
            <g gorn="0.3.27.0"  id="g6241">
                <rect x="28.482599" gorn="0.3.27.0.0"  height="4.2519698" width="3.5149601" id="connector25pin" y="16.421101" style="fill:#9a916c;stroke:none;stroke-width:0"/>
            </g>
        </g>
        <g  transform="matrix(0,1,-1,0,54.1729,-6.30708)">
            <g gorn="0.3.28.0"  id="g6244">
                <rect x="28.482599" gorn="0.3.28.0.0"  height="4.2519698" width="3.5149601" id="connector26pin" y="21.8069" style="fill:#9a916c;stroke:none;stroke-width:0"/>
            </g>
        </g>
        <circle gorn="0.3.29"  id="connector27pin" cy="7.1999998" r="4.26331" connectorname="P$1" style="fill:none;stroke:#9a916c;stroke-width:1.44000006" cx="36"/>
        <circle gorn="0.3.30"  id="connector28pin" cy="7.1999998" r="4.26331" connectorname="P$1" style="fill:none;stroke:#9a916c;stroke-width:1.44000006" cx="7.1999998"/>
        <rect x="2.6475599" gorn="0.3.31"  height="3.4015801" width="1.55905" id="connector29pin" y="27.5445" style="fill:#9a916c;stroke:none;stroke-width:0"/>
        <rect x="5.3404698" gorn="0.3.32"  height="3.4015801" width="1.55905" id="connector30pin" y="27.5445" style="fill:#9a916c;stroke:none;stroke-width:0"/>
        <rect x="8.0333996" gorn="0.3.33"  height="3.4015801" width="1.55905" id="connector31pin" y="27.5445" style="fill:#9a916c;stroke:none;stroke-width:0"/>
        <rect x="8.0333996" gorn="0.3.34"  height="3.4015801" width="1.55905" id="connector32pin" y="20.173901" style="fill:#9a916c;stroke:none;stroke-width:0"/>
        <rect x="2.6475599" gorn="0.3.35"  height="3.4015801" width="1.55905" id="connector33pin" y="20.173901" style="fill:#9a916c;stroke:none;stroke-width:0"/>
        <g  transform="matrix(-1,0,0,-1,49.9805,48.1493)">
            <g gorn="0.3.36.0"  id="g6254">
                <rect x="23.7855" gorn="0.3.36.0.0"  height="1.2755899" ry="0.63779497" rx="0.63779497" width="2.4094501" id="connector34pin" y="23.436899" style="fill:#9a916c;stroke:none;stroke-width:0"/>
            </g>
        </g>
        <g  transform="matrix(-1,0,0,-1,49.9805,42.48)">
            <g gorn="0.3.37.0"  id="g6257">
                <rect x="23.7855" gorn="0.3.37.0.0"  height="1.2755899" ry="0.63779497" rx="0.63779497" width="2.4094501" id="connector35pin" y="20.6022" style="fill:#9a916c;stroke:none;stroke-width:0"/>
            </g>
        </g>
        <g  transform="matrix(-1,0,0,-1,49.9805,36.8107)">
            <g gorn="0.3.38.0"  id="g6260">
                <rect x="23.7855" gorn="0.3.38.0.0"  height="1.2755899" ry="0.63779497" rx="0.63779497" width="2.4094501" id="connector36pin" y="17.767599" style="fill:#9a916c;stroke:none;stroke-width:0"/>
            </g>
        </g>
        <g  transform="matrix(-1,0,0,-1,33.5395,36.8107)">
            <g gorn="0.3.39.0"  id="g6263">
                <rect x="15.565" gorn="0.3.39.0.0"  height="1.2755899" ry="0.63779497" rx="0.63779497" width="2.4094501" id="connector37pin" y="17.767599" style="fill:#9a916c;stroke:none;stroke-width:0"/>
            </g>
        </g>
        <g  transform="matrix(-1,0,0,-1,33.5395,42.48)">
            <g gorn="0.3.40.0"  id="g6266">
                <rect x="15.565" gorn="0.3.40.0.0"  height="1.2755899" ry="0.63779497" rx="0.63779497" width="2.4094501" id="connector38pin" y="20.6022" style="fill:#9a916c;stroke:none;stroke-width:0"/>
            </g>
        </g>
        <g  transform="matrix(-1,0,0,-1,33.5395,48.1493)">
            <g gorn="0.3.41.0"  id="g6269">
                <rect x="15.565" gorn="0.3.41.0.0"  height="1.2755899" ry="0.63779497" rx="0.63779497" width="2.4094501" id="connector39pin" y="23.436899" style="fill:#9a916c;stroke:none;stroke-width:0"/>
            </g>
        </g>
        <g  transform="matrix(-1,0,0,-1,41.76,42.48)">
            <g gorn="0.3.42.0"  id="g6272">
                <rect x="18.612301" gorn="0.3.42.0.0"  height="7.0866098" width="4.53543" id="connector40pin" y="17.696699" style="fill:#9a916c;stroke:none;stroke-width:0"/>
            </g>
        </g>
    </g>
    <g  transform="translate(18.4055,11.5485)">
        <g gorn="0.4.0"  id="0805-cap">
            <path gorn="0.4.0.0"  d="m 5.386,3.543 -5.103,0 C 0.127,3.543 0,3.416 0,3.26 L 0,0.283 C 0,0.127 0.127,0 0.283,0 l 5.102,0 c 0.157,0 0.283,0.127 0.283,0.283 l 0,2.977 C 5.669,3.416 5.542,3.543 5.386,3.543 Z" id="path6276" style="fill:#dcdcdc"/>
            <rect x="1.063" gorn="0.4.0.1"  height="3.543" width="3.543" id="rect6278" y="0" style="fill:#6e554b"/>
        </g>
    </g>
    <g  transform="translate(2.5655,32.4285)">
        <g gorn="0.5.0"  id="g6280">
            <path gorn="0.5.0.0"  d="m 5.386,3.543 -5.103,0 C 0.127,3.543 0,3.416 0,3.26 L 0,0.283 C 0,0.127 0.127,0 0.283,0 l 5.102,0 c 0.157,0 0.283,0.127 0.283,0.283 l 0,2.977 C 5.669,3.416 5.542,3.543 5.386,3.543 Z" id="path6282" style="fill:#dcdcdc"/>
            <rect x="1.063" gorn="0.5.0.1"  height="3.543" width="3.543" id="rect6284" y="0" style="fill:#6e554b"/>
        </g>
    </g>
    <g  transform="translate(3.2855,15.5085)">
        <g gorn="0.6.0"  id="g6286">
            <path gorn="0.6.0.0"  d="m 5.386,3.543 -5.103,0 C 0.127,3.543 0,3.416 0,3.26 L 0,0.283 C 0,0.127 0.127,0 0.283,0 l 5.102,0 c 0.157,0 0.283,0.127 0.283,0.283 l 0,2.977 C 5.669,3.416 5.542,3.543 5.386,3.543 Z" id="path6288" style="fill:#dcdcdc"/>
            <rect x="1.063" gorn="0.6.0.1"  height="3.543" width="3.543" id="rect6290" y="0" style="fill:#6e554b"/>
        </g>
    </g>
    <g  transform="translate(18.068,27.853)">
        <g gorn="0.7.0"  id="sot23-wide">
            <g  transform="matrix(0,1,-1,0,8.07898,-0.42498)">
                <g gorn="0.7.0.0.0"  id="g6293">
                    <g gorn="0.7.0.0.0.0"  id="g6295">
                        <rect x="0.850003" gorn="0.7.0.0.0.0.0"  height="2.9760001" width="1.4170001" id="rect6297" y="4.677" style="fill:#dcdcdc"/>
                        <rect x="6.2360001" gorn="0.7.0.0.0.0.1"  height="2.9760001" width="1.4170001" id="rect6299" y="4.677" style="fill:#dcdcdc"/>
                        <rect x="3.543" gorn="0.7.0.0.0.0.2"  height="3.118" width="1.4170001" id="rect6301" y="0" style="fill:#dcdcdc"/>
                        <rect x="0" gorn="0.7.0.0.0.0.3"  height="3.6849999" width="8.5039902" id="rect6303" y="1.984" style="fill:#303030"/>
                    </g>
                </g>
            </g>
        </g>
    </g>
    <g  transform="translate(33.548,17.413)">
        <g gorn="0.8.0"  id="g6305">
            <g  transform="matrix(0,1,-1,0,8.07898,-0.42498)">
                <g gorn="0.8.0.0.0"  id="g6307">
                    <g gorn="0.8.0.0.0.0"  id="g6309">
                        <rect x="0.850003" gorn="0.8.0.0.0.0.0"  height="2.9760001" width="1.4170001" id="rect6311" y="4.677" style="fill:#dcdcdc"/>
                        <rect x="6.2360001" gorn="0.8.0.0.0.0.1"  height="2.9760001" width="1.4170001" id="rect6313" y="4.677" style="fill:#dcdcdc"/>
                        <rect x="3.543" gorn="0.8.0.0.0.0.2"  height="3.118" width="1.4170001" id="rect6315" y="0" style="fill:#dcdcdc"/>
                        <rect x="0" gorn="0.8.0.0.0.0.3"  height="3.6849999" width="8.5039902" id="rect6317" y="1.984" style="fill:#303030"/>
                    </g>
                </g>
            </g>
        </g>
    </g>
    <g  transform="translate(11.9255,30.2685)">
        <g gorn="0.9.0"  id="0805-res">
            <g  transform="matrix(0,-1,1,0,1.063,4.606)">
                <g gorn="0.9.0.0.0"  id="g6320">
                    <path gorn="0.9.0.0.0.0"  d="m 5.386,3.543 -5.103,0 C 0.127,3.543 0,3.416 0,3.26 L 0,0.283 C 0,0.127 0.127,0 0.283,0 l 5.102,0 c 0.157,0 0.283,0.127 0.283,0.283 l 0,2.977 C 5.669,3.416 5.542,3.543 5.386,3.543 Z" id="path6322" style="fill:#dcdcdc"/>
                    <rect x="1.063" gorn="0.9.0.0.0.1"  height="3.543" width="3.543" id="rect6324" y="0" style="fill:#333333"/>
                </g>
            </g>
        </g>
    </g>
    <g  transform="translate(27.0455,29.5485)">
        <g gorn="0.10.0"  id="g6326">
            <g  transform="matrix(0,-1,1,0,1.063,4.606)">
                <g gorn="0.10.0.0.0"  id="g6328">
                    <path gorn="0.10.0.0.0.0"  d="m 5.386,3.543 -5.103,0 C 0.127,3.543 0,3.416 0,3.26 L 0,0.283 C 0,0.127 0.127,0 0.283,0 l 5.102,0 c 0.157,0 0.283,0.127 0.283,0.283 l 0,2.977 C 5.669,3.416 5.542,3.543 5.386,3.543 Z" id="path6330" style="fill:#dcdcdc"/>
                    <rect x="1.063" gorn="0.10.0.0.0.1"  height="3.543" width="3.543" id="rect6332" y="0" style="fill:#333333"/>
                </g>
            </g>
        </g>
    </g>
    <g  transform="translate(32.8055,29.5485)">
        <g gorn="0.11.0"  id="g6334">
            <g  transform="matrix(0,1,-1,0,4.606,-1.063)">
                <g gorn="0.11.0.0.0"  id="g6336">
                    <path gorn="0.11.0.0.0.0"  d="m 5.386,3.543 -5.103,0 C 0.127,3.543 0,3.416 0,3.26 L 0,0.283 C 0,0.127 0.127,0 0.283,0 l 5.102,0 c 0.157,0 0.283,0.127 0.283,0.283 l 0,2.977 C 5.669,3.416 5.542,3.543 5.386,3.543 Z" id="path6338" style="fill:#dcdcdc"/>
                    <rect x="1.063" gorn="0.11.0.0.0.1"  height="3.543" width="3.543" id="rect6340" y="0" style="fill:#333333"/>
                </g>
            </g>
        </g>
    </g>
    <g  transform="translate(27.4055,19.4685)">
        <g gorn="0.12.0"  id="g6342">
            <g  transform="matrix(0,1,-1,0,4.606,-1.063)">
                <g gorn="0.12.0.0.0"  id="g6344">
                    <path gorn="0.12.0.0.0.0"  d="m 5.386,3.543 -5.103,0 C 0.127,3.543 0,3.416 0,3.26 L 0,0.283 C 0,0.127 0.127,0 0.283,0 l 5.102,0 c 0.157,0 0.283,0.127 0.283,0.283 l 0,2.977 C 5.669,3.416 5.542,3.543 5.386,3.543 Z" id="path6346" style="fill:#dcdcdc"/>
                    <rect x="1.063" gorn="0.12.0.0.0.1"  height="3.543" width="3.543" id="rect6348" y="0" style="fill:#333333"/>
                </g>
            </g>
        </g>
    </g>
    <g  transform="matrix(-1,0,0,-1,29.878705,14.366261)">
        <g gorn="0.13.0"  id="adafruit_2.5mm">
            <g  transform="matrix(-1,0,0,-1,9.77702,9.77702)">
                <g gorn="0.13.0.0.0"  id="g6351">
                    <path gorn="0.13.0.0.0.0"  d="M 9.747,3.082 C 9.724,2.94 9.647,2.899 9.461,2.839 9.31903,2.794 8.37202,2.492 8.37202,2.492 c 0,0 -0.66,-0.249 -1.15,0.103 -0.066,0.048 -0.134,0.102 -0.203,0.16 0.058,-0.069 0.112,-0.137 0.159,-0.203 0.352,-0.49 0.101,-1.15 0.101,-1.15 0,0 -0.30302,-0.947 -0.34902,-1.089 C 6.87,0.127 6.83,0.05 6.687,0.028 6.545,0.005 6.483,0.066 6.369,0.225 6.282,0.345 5.702,1.153001 5.702,1.153001 5.702,1.153001 5.261,1.704 5.445,2.279 5.47,2.356 5.5,2.438 5.534,2.521 5.486,2.445 5.438,2.372 5.39,2.307 5.032,1.821 4.328,1.855 4.328,1.855 c 0,0 -0.995,-0.004 -1.143,-0.004 -0.195,0 -0.281,0.014 -0.347,0.143 -0.065,0.128 -0.027,0.206 0.089,0.364 0.088,0.12 0.677,0.921002 0.677,0.921002 0,0 0.388,0.59 0.991001,0.592 0.081,0 0.168,-0.003 0.257,-0.01 C 4.765,3.883 4.681,3.907 4.604,3.932 4.031,4.122 3.845998,4.802998 3.845998,4.802998 c 0,0 -0.31,0.943999 -0.357,1.085 C 3.428,6.074 3.416,6.16 3.518,6.262 3.62,6.364 3.706,6.352 3.892,6.29 4.033,6.244 4.977,5.931 4.977,5.931 c 0,0 0.681,-0.187 0.868997,-0.760003 0.025,-0.077 0.049,-0.16 0.07,-0.247 C 5.91,5.014 5.907,5.1 5.907,5.181 c 0.004,0.603 0.594,0.99 0.594,0.99 0,0 0.802001,0.588 0.922003,0.675 C 7.58102,6.962 7.659,7 7.78802,6.935 7.91597,6.869 7.93102,6.783 7.93001,6.588 7.929,6.439 7.92403,5.445 7.92403,5.445 7.92403,5.445 7.95701,4.74 7.47,4.383 7.40498,4.335 7.33198,4.287 7.25602,4.24 c 0.083,0.034 0.165,0.064 0.242,0.088 0.575,0.183 1.125,-0.259 1.125,-0.259 0,0 0.80696,-0.5809998 0.92699,-0.6679998 C 9.70898,3.286 9.76903,3.224 9.747,3.082 Z M 6.322,2.35 C 6.43,2.367 6.484,2.598 6.442,2.865 6.4,3.132 6.278,3.335 6.169,3.318 6.061,3.301 6.007,3.07 6.049,2.803 6.091,2.535 6.213,2.332 6.322,2.35 Z M 4.933,3.059 C 4.983,2.961 5.219,2.981 5.46,3.104 5.701,3.227 5.857,3.406 5.807,3.503 5.757,3.601 5.521,3.581 5.28,3.458 5.038,3.335 4.883,3.157 4.933,3.059 Z M 5.665,4.393 C 5.474,4.584 5.256,4.677 5.178,4.599 5.101,4.521 5.193,4.303 5.384,4.112 5.575,3.92 5.793,3.827 5.871,3.905 5.949,3.983 5.857,4.201 5.665,4.393 Z M 6.719,4.842 C 6.6210001,4.892 6.442,4.737 6.319,4.496 6.196,4.254 6.175,4.018 6.273,3.968 6.371,3.918 6.55,4.073 6.673,4.314 6.796,4.556 6.817,4.792 6.719,4.842 Z M 6.973,3.725 C 6.706,3.767 6.475,3.714 6.457,3.606 6.44,3.497 6.643,3.375 6.91,3.332 7.177,3.289 7.408,3.343 7.425,3.451 7.443,3.56 7.24003,3.682 6.973,3.725 Z" id="path6353" style="fill:#dcdcdc"/>
                </g>
            </g>
        </g>
    </g>
    <g  transform="translate(2.00999,21.733)">
        <g gorn="0.14.0"  id="sot23-5">
            <g gorn="0.14.0.0"  id="g6356">
                <rect x="0.850003" gorn="0.14.0.0.0"  height="7.6540298" width="1.1339999" id="rect6358" y="0" style="fill:#dcdcdc"/>
                <rect x="6.2360001" gorn="0.14.0.0.1"  height="7.6540298" width="1.1339999" id="rect6360" y="0" style="fill:#dcdcdc"/>
                <rect x="3.543" gorn="0.14.0.0.2"  height="3.118" width="1.1339999" id="rect6362" y="4.5349998" style="fill:#dcdcdc"/>
                <rect x="0" gorn="0.14.0.0.3"  height="4.5349998" width="8.2200203" id="rect6364" y="1.559" style="fill:#303030"/>
            </g>
        </g>
    </g>
    <g  transform="translate(16.618149,16.924749)">
        <g gorn="0.15.0"  id="dfn6_3x3_si">
            <g  transform="matrix(-1,0,0,-1,8.50392,8.50392)">
                <g gorn="0.15.0.0.0"  id="g6367">
                    <metadata  id="metadata13">
                        <rdf:RDF xmlns:rdf="http://www.w3.org/1999/02/22-rdf-syntax-ns#">
                            <cc:Work rdf:about="" xmlns:cc="http://creativecommons.org/ns#" xmlns:rdf="http://www.w3.org/1999/02/22-rdf-syntax-ns#">
                                <dc:format xmlns:dc="http://purl.org/dc/elements/1.1/">image/svg+xml</dc:format>
                                <dc:type rdf:resource="http://purl.org/dc/dcmitype/StillImage" xmlns:dc="http://purl.org/dc/elements/1.1/" xmlns:rdf="http://www.w3.org/1999/02/22-rdf-syntax-ns#"/>
                                <dc:title xmlns:dc="http://purl.org/dc/elements/1.1/"/>
                            </cc:Work>
                        </rdf:RDF>
                    </metadata>
                    <defs  id="defs11"/>
                    <rect x="0" gorn="0.15.0.0.0.2"  height="8.5039196" width="8.5039196" id="rect5" y="0" style="fill:#333333"/>
                    <path gorn="0.15.0.0.0.3"  d="m 1.41732,0.283465 6.78874,0 0,7.93699 -7.93699,0 0.0144135,-6.80315" id="rect4154" style="opacity:1;fill:#ececec;fill-opacity:1;stroke:none;stroke-width:2.4000001;stroke-linecap:butt;stroke-linejoin:miter;stroke-miterlimit:10;stroke-dasharray:none;stroke-opacity:1"/>
                </g>
            </g>
        </g>
    </g>
</svg>
