<?xml version='1.0' encoding='UTF-8' standalone='no'?>
<!-- Created with Fritzing (http://www.fritzing.org/) -->
<svg xmlns="http://www.w3.org/2000/svg" height="0.751732in" gorn="0" x="0in" width="0.7in" viewBox="0 0 50.4 54.1247"  version="1.2" id="svg8503" y="0in">
    <desc>
        <referenceFile>MAX98357_REV-A_breadboard.svg</referenceFile>
    </desc>
    <metadata  id="metadata8949">
        <rdf:RDF xmlns:rdf="http://www.w3.org/1999/02/22-rdf-syntax-ns#">
            <cc:Work xmlns:rdf="http://www.w3.org/1999/02/22-rdf-syntax-ns#" xmlns:cc="http://creativecommons.org/ns#" rdf:about="">
                <dc:format xmlns:dc="http://purl.org/dc/elements/1.1/">image/svg+xml</dc:format>
                <dc:type xmlns:rdf="http://www.w3.org/1999/02/22-rdf-syntax-ns#" rdf:resource="http://purl.org/dc/dcmitype/StillImage" xmlns:dc="http://purl.org/dc/elements/1.1/"/>
                <dc:title xmlns:dc="http://purl.org/dc/elements/1.1/"/>
            </cc:Work>
        </rdf:RDF>
    </metadata>
    <defs  id="defs8947"/>
    <desc  id="desc8505">Fritzing breadboard generated by brd2svg</desc>
    <g gorn="0.3"  id="icon">
        <path gorn="0.3.0" style="fill:#014cb1;stroke:none;stroke-width:0"  id="path8509" d="m 0,46.9247 0,-39.6 A 7.2,7.2 0 0 1 7.2,0.124724 l 36,0 A 7.2,7.2 0 0 1 50.4,7.3247 l 0,39.6 a 7.2,7.2 0 0 1 -7.2,7.2 l -36,0 a 7.2,7.2 0 0 1 -7.2,-7.2 m 45.3827,0 a 1.417325,1.417325 0 1 0 2.83465,0 1.417325,1.417325 0 1 0 -2.83465,0 z m -7.2,0 a 1.417325,1.417325 0 1 0 2.83465,0 1.417325,1.417325 0 1 0 -2.83465,0 z m -7.2,0 a 1.417325,1.417325 0 1 0 2.83465,0 1.417325,1.417325 0 1 0 -2.83465,0 z m -7.2,0 a 1.417325,1.417325 0 1 0 2.83465,0 1.417325,1.417325 0 1 0 -2.83465,0 z m -7.2,0 a 1.417325,1.417325 0 1 0 2.83465,0 1.417325,1.417325 0 1 0 -2.83465,0 z m -7.20002,0 a 1.417325,1.417325 0 1 0 2.83465,0 1.417325,1.417325 0 1 0 -2.83465,0 z m -7.2,0 a 1.417325,1.417325 0 1 0 2.83465,0 1.417325,1.417325 0 1 0 -2.83465,0 z m 37.47402,-39.6 a 3.54331,3.54331 0 1 0 7.08661,0 3.54331,3.54331 0 1 0 -7.08661,0 z m -36.00001,0 a 3.54331,3.54331 0 1 0 7.08661,0 3.54331,3.54331 0 1 0 -7.08661,0 z m 15.02361,2.88 a 1.417325,1.417325 0 1 0 2.83465,0 1.417325,1.417325 0 1 0 -2.83465,0 z m 9.9213,0 a 1.417325,1.417325 0 1 0 2.83465,0 1.417325,1.417325 0 1 0 -2.83465,0 z"/>
        <g gorn="0.3.1"  id="g8511">
            <title  id="title8513">layer 21</title>
            <g gorn="0.3.1.1"  id="g8515">
                <title  id="title8517">text:LRC</title>
                <text gorn="0.3.1.1.1" x="5.04" font-size="3.3408" style="font-size:3.34080005px;font-family:OCRA;text-anchor:middle;fill:#ffffff;stroke:none;stroke-width:0"  id="text8519" y="43.555099">LRC</text>
            </g>
            <g gorn="0.3.1.2"  id="g8521">
                <title  id="title8523">text:BCLK</title>
                <text gorn="0.3.1.2.1" x="10.8" font-size="3.3408" style="font-size:3.34080005px;font-family:OCRA;text-anchor:middle;fill:#ffffff;stroke:none;stroke-width:0"  id="text8525" y="53.635101">BCLK</text>
            </g>
            <g gorn="0.3.1.3"  id="g8527">
                <title  id="title8529">text:DIN</title>
                <text gorn="0.3.1.3.1" x="18.360001" font-size="3.3408" style="font-size:3.34080005px;font-family:OCRA;text-anchor:middle;fill:#ffffff;stroke:none;stroke-width:0"  id="text8531" y="43.555099">DIN</text>
            </g>
            <g gorn="0.3.1.4"  id="g8533">
                <title  id="title8535">text:GAIN</title>
                <text gorn="0.3.1.4.1" x="25.200001" font-size="3.3408" style="font-size:3.34080005px;font-family:OCRA;text-anchor:middle;fill:#ffffff;stroke:none;stroke-width:0"  id="text8537" y="53.635101">GAIN</text>
            </g>
            <g gorn="0.3.1.5"  id="g8539">
                <title  id="title8541">text:SD</title>
                <text gorn="0.3.1.5.1" x="32.040001" font-size="3.3408" style="font-size:3.34080005px;font-family:OCRA;text-anchor:middle;fill:#ffffff;stroke:none;stroke-width:0"  id="text8543" y="43.555099">SD</text>
            </g>
            <g gorn="0.3.1.6"  id="g8545">
                <title  id="title8547">text:Vin</title>
                <text gorn="0.3.1.6.1" x="47.16" font-size="3.3408" style="font-size:3.34080005px;font-family:OCRA;text-anchor:middle;fill:#ffffff;stroke:none;stroke-width:0"  id="text8549" y="43.555099">Vin</text>
            </g>
            <g gorn="0.3.1.7"  id="g8551">
                <title  id="title8553">text:GND</title>
                <text gorn="0.3.1.7.1" x="39.599998" font-size="3.3408" style="font-size:3.34080005px;font-family:OCRA;text-anchor:middle;fill:#ffffff;stroke:none;stroke-width:0"  id="text8555" y="53.635101">GND</text>
            </g>
            <g gorn="0.3.1.8"  id="g8557">
                <title  id="title8559">text:MAX
98357A
I2S Amp</title>
                <g transform="translate(0,-3.7584)" >
                    <g gorn="0.3.1.8.1.0"  id="g8561">
                        <text gorn="0.3.1.8.1.0.0" x="10.44" font-size="3.7584" style="font-size:3.75839996px;font-family:OCRA;text-anchor:middle;fill:#ffffff;stroke:none;stroke-width:0"  id="text8563" y="34.0439">MAX</text>
                    </g>
                </g>
                <g gorn="0.3.1.8.2"  id="g8565">
                    <text gorn="0.3.1.8.2.0" x="10.44" font-size="3.7584" style="font-size:3.75839996px;font-family:OCRA;text-anchor:middle;fill:#ffffff;stroke:none;stroke-width:0"  id="text8567" y="34.0439">98357A</text>
                </g>
                <g transform="translate(0,3.7584)" >
                    <g gorn="0.3.1.8.3.0"  id="g8569">
                        <text gorn="0.3.1.8.3.0.0" x="10.44" font-size="3.7584" style="font-size:3.75839996px;font-family:OCRA;text-anchor:middle;fill:#ffffff;stroke:none;stroke-width:0"  id="text8571" y="34.0439">I2S Amp</text>
                    </g>
                </g>
            </g>
            <g gorn="0.3.1.9"  id="g8573">
                <title  id="title8575">element:C1</title>
                <g gorn="0.3.1.9.1"  id="g8577">
                    <title  id="title8579">package:0805-NO</title>
                    <line x2="37.439999" y1="31.0847" gorn="0.3.1.9.1.1" x1="34.560001" style="stroke:#ffffff;stroke-width:0.86400002;stroke-linecap:round"  id="line8581" y2="31.0847"/>
                </g>
            </g>
            <g gorn="0.3.1.10"  id="g8583">
                <title  id="title8585">element:C2</title>
                <g gorn="0.3.1.10.1"  id="g8587">
                    <title  id="title8589">package:0805-NO</title>
                    <line x2="43.200001" y1="31.0847" gorn="0.3.1.10.1.1" x1="40.32" style="stroke:#ffffff;stroke-width:0.86400002;stroke-linecap:round"  id="line8591" y2="31.0847"/>
                </g>
            </g>
            <g gorn="0.3.1.11"  id="g8593">
                <title  id="title8595">element:C4</title>
                <g gorn="0.3.1.11.1"  id="g8597">
                    <title  id="title8599">package:0805-NO</title>
                    <line x2="7.1999998" y1="24.6047" gorn="0.3.1.11.1.1" x1="7.1999998" style="stroke:#ffffff;stroke-width:0.86400002;stroke-linecap:round"  id="line8601" y2="21.724701"/>
                </g>
            </g>
            <g gorn="0.3.1.12"  id="g8603">
                <title  id="title8605">element:C5</title>
                <g gorn="0.3.1.12.1"  id="g8607">
                    <title  id="title8609">package:0805-NO</title>
                    <line x2="42.84" y1="21.724701" gorn="0.3.1.12.1.1" x1="42.84" style="stroke:#ffffff;stroke-width:0.86400002;stroke-linecap:round"  id="line8611" y2="24.6047"/>
                </g>
            </g>
            <g gorn="0.3.1.13"  id="g8613">
                <title  id="title8615">element:FB1</title>
                <g gorn="0.3.1.13.1"  id="g8617">
                    <title  id="title8619">package:0805-NO</title>
                    <line x2="32.400002" y1="21.724701" gorn="0.3.1.13.1.1" x1="32.400002" style="stroke:#ffffff;stroke-width:0.86400002;stroke-linecap:round"  id="line8621" y2="24.6047"/>
                </g>
            </g>
            <g gorn="0.3.1.14"  id="g8623">
                <title  id="title8625">element:FB2</title>
                <g gorn="0.3.1.14.1"  id="g8627">
                    <title  id="title8629">package:0805-NO</title>
                    <line x2="18" y1="24.6047" gorn="0.3.1.14.1.1" x1="18" style="stroke:#ffffff;stroke-width:0.86400002;stroke-linecap:round"  id="line8631" y2="21.724701"/>
                </g>
            </g>
            <g gorn="0.3.1.15"  id="g8633">
                <title  id="title8635">element:FID1</title>
                <g gorn="0.3.1.15.1"  id="g8637">
                    <title  id="title8639">package:FIDUCIAL_1MM</title>
                </g>
            </g>
            <g gorn="0.3.1.16"  id="g8641">
                <title  id="title8643">element:FID2</title>
                <g gorn="0.3.1.16.1"  id="g8645">
                    <title  id="title8647">package:FIDUCIAL_1MM</title>
                </g>
            </g>
            <g gorn="0.3.1.17"  id="g8649">
                <title  id="title8651">element:JP1</title>
                <g gorn="0.3.1.17.1"  id="g8653">
                    <title  id="title8655">package:1X07_ROUND_76</title>
                </g>
            </g>
            <g gorn="0.3.1.18"  id="g8657">
                <title  id="title8659">element:R1</title>
                <g gorn="0.3.1.18.1"  id="g8661">
                    <title  id="title8663">package:0805-NO</title>
                    <line x2="38.880001" y1="37.564701" gorn="0.3.1.18.1.1" x1="38.880001" style="stroke:#ffffff;stroke-width:0.86400002;stroke-linecap:round"  id="line8665" y2="40.444698"/>
                </g>
            </g>
            <g gorn="0.3.1.19"  id="g8667">
                <title  id="title8669">element:U$6</title>
                <g gorn="0.3.1.19.1"  id="g8671">
                    <title  id="title8673">package:SYMBOL_PLUS</title>
                    <line x2="37.034901" y1="15.9647" gorn="0.3.1.19.1.1" x1="39.284801" style="stroke:#ffffff;stroke-width:0.86400002;stroke-linecap:round"  id="line8675" y2="15.9647"/>
                    <line x2="38.16" y1="14.8399" gorn="0.3.1.19.1.2" x1="38.16" style="stroke:#ffffff;stroke-width:0.86400002;stroke-linecap:round"  id="line8677" y2="17.0895"/>
                    <circle gorn="0.3.1.19.1.3" cy="15.9647" style="fill:none;stroke:#ffffff;stroke-width:0.57599998"  id="circle8679" cx="38.16" r="2.2158401"/>
                </g>
            </g>
            <g gorn="0.3.1.20"  id="g8681">
                <title  id="title8683">element:U$9</title>
                <g gorn="0.3.1.20.1"  id="g8685">
                    <title  id="title8687">package:MOUNTINGHOLE_2.5_PLATED</title>
                    <circle gorn="0.3.1.20.1.1" cy="7.3246999" style="fill:none;stroke:#ffffff;stroke-width:0.57599998"  id="circle8689" cx="43.200001" r="5.6692901"/>
                </g>
            </g>
            <g gorn="0.3.1.21"  id="g8691">
                <title  id="title8693">element:U$10</title>
                <g gorn="0.3.1.21.1"  id="g8695">
                    <title  id="title8697">package:MOUNTINGHOLE_2.5_PLATED</title>
                    <circle gorn="0.3.1.21.1.1" cy="7.3246999" style="fill:none;stroke:#ffffff;stroke-width:0.57599998"  id="circle8699" cx="7.1999998" r="5.6692901"/>
                </g>
            </g>
            <g gorn="0.3.1.22"  id="g8701">
                <title  id="title8703">element:U$11</title>
                <g gorn="0.3.1.22.1"  id="g8705">
                    <title  id="title8707">package:SYMBOL_MINUS</title>
                    <line x2="13.0051" y1="15.9647" gorn="0.3.1.22.1.1" x1="10.7552" style="stroke:#ffffff;stroke-width:0.86400002;stroke-linecap:round"  id="line8709" y2="15.9647"/>
                    <circle gorn="0.3.1.22.1.2" cy="15.9647" style="fill:none;stroke:#ffffff;stroke-width:0.57599998"  id="circle8711" cx="11.88" r="2.2158401"/>
                </g>
            </g>
            <g gorn="0.3.1.23"  id="g8713">
                <title  id="title8715">element:U$14</title>
                <g gorn="0.3.1.23.1"  id="g8717">
                    <title  id="title8719">package:ADAFRUIT_2.5MM</title>
                </g>
            </g>
            <g gorn="0.3.1.24"  id="g8721">
                <title  id="title8723">element:U$15</title>
                <g gorn="0.3.1.24.1"  id="g8725">
                    <title  id="title8727">package:PCBFEAT-REV-040</title>
                </g>
            </g>
            <g gorn="0.3.1.25"  id="g8729">
                <title  id="title8731">element:U1</title>
                <g gorn="0.3.1.25.1"  id="g8733">
                    <title  id="title8735">package:QFN16_3MM</title>
                    <line x2="20.5228" y1="35.798801" gorn="0.3.1.25.1.1" x1="20.5228" style="stroke:#ffffff;stroke-width:0.36000001;stroke-linecap:round"  id="line8737" y2="37.2019"/>
                    <line x2="21.926001" y1="37.2019" gorn="0.3.1.25.1.2" x1="20.5228" style="stroke:#ffffff;stroke-width:0.36000001;stroke-linecap:round"  id="line8739" y2="37.2019"/>
                    <line x2="20.5228" y1="29.2507" gorn="0.3.1.25.1.3" x1="20.5228" style="stroke:#ffffff;stroke-width:0.36000001;stroke-linecap:round"  id="line8741" y2="27.847601"/>
                    <line x2="21.926001" y1="27.847601" gorn="0.3.1.25.1.4" x1="20.5228" style="stroke:#ffffff;stroke-width:0.36000001;stroke-linecap:round"  id="line8743" y2="27.847601"/>
                    <line x2="29.877199" y1="37.2019" gorn="0.3.1.25.1.5" x1="28.474001" style="stroke:#ffffff;stroke-width:0.36000001;stroke-linecap:round"  id="line8745" y2="37.2019"/>
                    <line x2="29.877199" y1="37.2019" gorn="0.3.1.25.1.6" x1="29.877199" style="stroke:#ffffff;stroke-width:0.36000001;stroke-linecap:round"  id="line8747" y2="35.798801"/>
                    <line x2="29.877199" y1="27.847601" gorn="0.3.1.25.1.7" x1="28.474001" style="stroke:#ffffff;stroke-width:0.36000001;stroke-linecap:round"  id="line8749" y2="27.847601"/>
                    <line x2="29.877199" y1="27.847601" gorn="0.3.1.25.1.8" x1="29.877199" style="stroke:#ffffff;stroke-width:0.36000001;stroke-linecap:round"  id="line8751" y2="29.2507"/>
                    <circle gorn="0.3.1.25.1.9" cy="38.477402" style="fill:none;stroke:#ffffff;stroke-width:0.86400002"  id="circle8753" cx="21.231501" r="0.40087199"/>
                </g>
            </g>
            <g gorn="0.3.1.26"  id="g8755">
                <title  id="title8757">element:X1</title>
                <g gorn="0.3.1.26.1"  id="g8759">
                    <title  id="title8761">package:TERMBLOCK_1X2-3.5MM</title>
                    <line x2="34.837799" y1="19.8426" gorn="0.3.1.26.1.1" x1="34.837799" style="stroke:#ffffff;stroke-width:0.57599998;stroke-linecap:round"  id="line8763" y2="3.9684999"/>
                    <line x2="34.837799" y1="3.9684999" gorn="0.3.1.26.1.2" x1="34.837799" style="stroke:#ffffff;stroke-width:0.57599998;stroke-linecap:round"  id="line8765" y2="0"/>
                    <line x2="14.9953" y1="0" gorn="0.3.1.26.1.3" x1="34.837799" style="stroke:#ffffff;stroke-width:0.57599998;stroke-linecap:round"  id="line8767" y2="0"/>
                    <line x2="14.9953" y1="0" gorn="0.3.1.26.1.4" x1="14.9953" style="stroke:#ffffff;stroke-width:0.57599998;stroke-linecap:round"  id="line8769" y2="3.9684999"/>
                    <line x2="14.9953" y1="3.9684999" gorn="0.3.1.26.1.5" x1="14.9953" style="stroke:#ffffff;stroke-width:0.57599998;stroke-linecap:round"  id="line8771" y2="19.8426"/>
                    <line x2="34.837799" y1="19.8426" gorn="0.3.1.26.1.6" x1="14.9953" style="stroke:#ffffff;stroke-width:0.57599998;stroke-linecap:round"  id="line8773" y2="19.8426"/>
                    <line x2="14.9953" y1="3.9684999" gorn="0.3.1.26.1.7" x1="34.837799" style="stroke:#ffffff;stroke-width:0.57599998;stroke-linecap:round"  id="line8775" y2="3.9684999"/>
                </g>
            </g>
        </g>
        <g transform="matrix(0,-1,1,0,2.22236,69.7776)" >
            <g gorn="0.3.2.0"  id="g8777">
                <rect height="4.2519698" gorn="0.3.2.0.0" x="34.242599" width="3.5149601" style="fill:#9a916c;stroke:none;stroke-width:0"  id="connector0pin" y="31.6516"/>
            </g>
        </g>
        <g transform="matrix(0,-1,1,0,7.60817,64.3918)" >
            <g gorn="0.3.3.0"  id="g8780">
                <rect height="4.2519698" gorn="0.3.3.0.0" x="34.242599" width="3.5149601" style="fill:#9a916c;stroke:none;stroke-width:0"  id="connector1pin" y="26.2658"/>
            </g>
        </g>
        <g transform="matrix(0,-1,1,0,7.98235,75.5374)" >
            <g gorn="0.3.4.0"  id="g8783">
                <rect height="4.2519698" gorn="0.3.4.0.0" x="40.002602" width="3.5149601" style="fill:#9a916c;stroke:none;stroke-width:0"  id="connector2pin" y="31.6516"/>
            </g>
        </g>
        <g transform="matrix(0,-1,1,0,13.3682,70.1518)" >
            <g gorn="0.3.5.0"  id="g8786">
                <rect height="4.2519698" gorn="0.3.5.0.0" x="40.002602" width="3.5149601" style="fill:#9a916c;stroke:none;stroke-width:0"  id="connector3pin" y="26.2658"/>
            </g>
        </g>
        <g transform="matrix(-1,0,0,-1,19.7858,46.3295)" >
            <g gorn="0.3.6.0"  id="g8789">
                <rect height="4.2519698" gorn="0.3.6.0.0" x="8.1354198" width="3.5149601" style="fill:#9a916c;stroke:none;stroke-width:0"  id="connector4pin" y="21.038799"/>
            </g>
        </g>
        <g transform="matrix(-1,0,0,-1,9.01418,46.3295)" >
            <g gorn="0.3.7.0"  id="g8792">
                <rect height="4.2519698" gorn="0.3.7.0.0" x="2.7496099" width="3.5149601" style="fill:#9a916c;stroke:none;stroke-width:0"  id="connector5pin" y="21.038799"/>
            </g>
        </g>
        <rect height="4.2519698" gorn="0.3.8" x="38.389599" width="3.5149601" style="fill:#9a916c;stroke:none;stroke-width:0"  id="connector6pin" y="21.038799"/>
        <rect height="4.2519698" gorn="0.3.9" x="43.775398" width="3.5149601" style="fill:#9a916c;stroke:none;stroke-width:0"  id="connector7pin" y="21.038799"/>
        <rect height="4.2519698" gorn="0.3.10" x="27.9496" width="3.5149601" style="fill:#9a916c;stroke:none;stroke-width:0"  id="connector8pin" y="21.038799"/>
        <rect height="4.2519698" gorn="0.3.11" x="33.3354" width="3.5149601" style="fill:#9a916c;stroke:none;stroke-width:0"  id="connector9pin" y="21.038799"/>
        <g transform="matrix(-1,0,0,-1,41.3858,46.3295)" >
            <g gorn="0.3.12.0"  id="g8799">
                <rect height="4.2519698" gorn="0.3.12.0.0" x="18.9354" width="3.5149601" style="fill:#9a916c;stroke:none;stroke-width:0"  id="connector10pin" y="21.038799"/>
            </g>
        </g>
        <g transform="matrix(-1,0,0,-1,30.6142,46.3295)" >
            <g gorn="0.3.13.0"  id="g8802">
                <rect height="4.2519698" gorn="0.3.13.0.0" x="13.5496" width="3.5149601" style="fill:#9a916c;stroke:none;stroke-width:0"  id="connector11pin" y="21.038799"/>
            </g>
        </g>
        <rect ry="1.41732" height="2.83465" gorn="0.3.14" x="45.742699" width="2.83465" style="fill:#9a916c;stroke:none;stroke-width:0"  id="connector12pin" rx="1.41732" y="30.027399"/>
        <rect ry="1.41732" height="2.83465" gorn="0.3.15" x="16.942699" width="2.83465" style="fill:#9a916c;stroke:none;stroke-width:0"  id="connector13pin" rx="1.41732" y="2.3074"/>
        <circle gorn="0.3.16" cy="46.924702" connectorname="VIN" style="fill:none;stroke:#9a916c;stroke-width:1.31868005"  id="connector14pin" cx="46.799999" r="2.0766599"/>
        <circle gorn="0.3.17" cy="46.924702" connectorname="GND" style="fill:none;stroke:#9a916c;stroke-width:1.31868005"  id="connector15pin" cx="39.599998" r="2.0766599"/>
        <circle gorn="0.3.18" cy="46.924702" connectorname="SD_MODE" style="fill:none;stroke:#9a916c;stroke-width:1.31868005"  id="connector16pin" cx="32.400002" r="2.0766599"/>
        <circle gorn="0.3.19" cy="46.924702" connectorname="GAIN" style="fill:none;stroke:#9a916c;stroke-width:1.31868005"  id="connector17pin" cx="25.200001" r="2.0766599"/>
        <circle gorn="0.3.20" cy="46.924702" connectorname="DIN" style="fill:none;stroke:#9a916c;stroke-width:1.31868005"  id="connector18pin" cx="18" r="2.0766599"/>
        <circle gorn="0.3.21" cy="46.924702" connectorname="BCLK" style="fill:none;stroke:#9a916c;stroke-width:1.31868005"  id="connector19pin" cx="10.8" r="2.0766599"/>
        <circle gorn="0.3.22" cy="46.924702" connectorname="LRCLK" style="fill:none;stroke:#9a916c;stroke-width:1.31868005"  id="connector20pin" cx="3.5999999" r="2.0766599"/>
        <rect height="4.2519698" gorn="0.3.23" x="34.4296" width="3.5149601" style="fill:#9a916c;stroke:none;stroke-width:0"  id="connector21pin" y="36.878799"/>
        <rect height="4.2519698" gorn="0.3.24" x="39.815399" width="3.5149601" style="fill:#9a916c;stroke:none;stroke-width:0"  id="connector22pin" y="36.878799"/>
        <circle gorn="0.3.25" cy="7.3246999" connectorname="P$1" style="fill:none;stroke:#9a916c;stroke-width:1.44000006"  id="connector23pin" cx="43.200001" r="4.26331"/>
        <circle gorn="0.3.26" cy="7.3246999" connectorname="P$1" style="fill:none;stroke:#9a916c;stroke-width:1.44000006"  id="connector24pin" cx="7.1999998" r="4.26331"/>
        <g transform="matrix(0,-1,1,0,-13.7027,59.8507)" >
            <g gorn="0.3.27.0"  id="g8818">
                <rect height="0.79369903" gorn="0.3.27.0.0" x="21.9401" width="2.26772" style="fill:#9a916c;stroke:none;stroke-width:0"  id="connector25pin" y="36.379902"/>
            </g>
        </g>
        <g transform="matrix(0,-1,1,0,-12.2854,61.268)" >
            <g gorn="0.3.28.0"  id="g8821">
                <rect height="0.79369903" gorn="0.3.28.0.0" x="23.357401" width="2.26772" style="fill:#9a916c;stroke:none;stroke-width:0"  id="connector26pin" y="36.379902"/>
            </g>
        </g>
        <g transform="matrix(0,-1,1,0,-10.868,62.6854)" >
            <g gorn="0.3.29.0"  id="g8824">
                <rect height="0.79369903" gorn="0.3.29.0.0" x="24.774799" width="2.26772" style="fill:#9a916c;stroke:none;stroke-width:0"  id="connector27pin" y="36.379902"/>
            </g>
        </g>
        <g transform="matrix(0,-1,1,0,-9.45072,64.1027)" >
            <g gorn="0.3.30.0"  id="g8827">
                <rect height="0.79369903" gorn="0.3.30.0.0" x="26.1922" width="2.26772" style="fill:#9a916c;stroke:none;stroke-width:0"  id="connector28pin" y="36.379902"/>
            </g>
        </g>
        <g transform="matrix(-1,0,0,-1,58.9039,69.3014)" >
            <g gorn="0.3.31.0"  id="g8830">
                <rect height="0.79369903" gorn="0.3.31.0.0" x="28.3181" width="2.26772" style="fill:#9a916c;stroke:none;stroke-width:0"  id="connector29pin" y="34.253899"/>
            </g>
        </g>
        <g transform="matrix(-1,0,0,-1,58.9039,66.4668)" >
            <g gorn="0.3.32.0"  id="g8833">
                <rect height="0.79369903" gorn="0.3.32.0.0" x="28.3181" width="2.26772" style="fill:#9a916c;stroke:none;stroke-width:0"  id="connector30pin" y="32.836498"/>
            </g>
        </g>
        <g transform="matrix(-1,0,0,-1,58.9039,63.6322)" >
            <g gorn="0.3.33.0"  id="g8836">
                <rect height="0.79369903" gorn="0.3.33.0.0" x="28.3181" width="2.26772" style="fill:#9a916c;stroke:none;stroke-width:0"  id="connector31pin" y="31.419201"/>
            </g>
        </g>
        <g transform="matrix(-1,0,0,-1,58.9039,60.7974)" >
            <g gorn="0.3.34.0"  id="g8839">
                <rect height="0.79369903" gorn="0.3.34.0.0" x="28.3181" width="2.26772" style="fill:#9a916c;stroke:none;stroke-width:0"  id="connector32pin" y="30.0019"/>
            </g>
        </g>
        <g transform="matrix(0,1,-1,0,55.5988,0.946771)" >
            <g gorn="0.3.35.0"  id="g8842">
                <rect height="0.79369903" gorn="0.3.35.0.0" x="26.1922" width="2.26772" style="fill:#9a916c;stroke:none;stroke-width:0"  id="connector33pin" y="27.8759"/>
            </g>
        </g>
        <g transform="matrix(0,1,-1,0,54.1814,2.36409)" >
            <g gorn="0.3.36.0"  id="g8845">
                <rect height="0.79369903" gorn="0.3.36.0.0" x="24.774799" width="2.26772" style="fill:#9a916c;stroke:none;stroke-width:0"  id="connector34pin" y="27.8759"/>
            </g>
        </g>
        <g transform="matrix(0,1,-1,0,52.7641,3.78142)" >
            <g gorn="0.3.37.0"  id="g8848">
                <rect height="0.79369903" gorn="0.3.37.0.0" x="23.357401" width="2.26772" style="fill:#9a916c;stroke:none;stroke-width:0"  id="connector35pin" y="27.8759"/>
            </g>
        </g>
        <g transform="matrix(0,1,-1,0,51.3468,5.19874)" >
            <g gorn="0.3.38.0"  id="g8851">
                <rect height="0.79369903" gorn="0.3.38.0.0" x="21.9401" width="2.26772" style="fill:#9a916c;stroke:none;stroke-width:0"  id="connector36pin" y="27.8759"/>
            </g>
        </g>
        <rect height="0.79369903" gorn="0.3.39" x="19.814199" width="2.26772" style="fill:#9a916c;stroke:none;stroke-width:0"  id="connector37pin" y="30.0019"/>
        <rect height="0.79369903" gorn="0.3.40" x="19.814199" width="2.26772" style="fill:#9a916c;stroke:none;stroke-width:0"  id="connector38pin" y="31.419201"/>
        <rect height="0.79369903" gorn="0.3.41" x="19.814199" width="2.26772" style="fill:#9a916c;stroke:none;stroke-width:0"  id="connector39pin" y="32.836498"/>
        <rect height="0.79369903" gorn="0.3.42" x="19.814199" width="2.26772" style="fill:#9a916c;stroke:none;stroke-width:0"  id="connector40pin" y="34.253899"/>
        <g transform="matrix(0,-1,1,0,-7.3247,57.7247)" >
            <g gorn="0.3.43.0"  id="g8858">
                <rect height="4.2519698" gorn="0.3.43.0.0" x="23.073999" width="4.2519698" style="fill:#9a916c;stroke:none;stroke-width:0"  id="connector41pin" y="30.3988"/>
            </g>
        </g>
        <circle gorn="0.3.44" cy="10.2047" connectorname="VO-" style="fill:none;stroke:#9a916c;stroke-width:1.67867994"  id="connector42pin" cx="20.097601" r="2.25666"/>
        <circle gorn="0.3.45" cy="10.2047" connectorname="VO+" style="fill:none;stroke:#9a916c;stroke-width:1.67867994"  id="connector43pin" cx="30.0189" r="2.25666"/>
    </g>
    <g transform="translate(33.1655,29.3132)" >
        <g gorn="0.4.0"  id="0805-cap">
            <g transform="matrix(0,-1,1,0,1.063,4.606)" >
                <g gorn="0.4.0.0.0"  id="g8864">
                    <path gorn="0.4.0.0.0.0" style="fill:#dcdcdc"  id="path8866" d="m 5.386,3.543 -5.103,0 C 0.127,3.543 0,3.416 0,3.26 L 0,0.283 C 0,0.127 0.127,0 0.283,0 l 5.102,0 c 0.157,0 0.283,0.127 0.283,0.283 l 0,2.977 C 5.669,3.416 5.542,3.543 5.386,3.543 Z"/>
                    <rect height="3.543" gorn="0.4.0.0.0.1" x="1.063" width="3.543" style="fill:#6e554b"  id="rect8868" y="0"/>
                </g>
            </g>
        </g>
    </g>
    <g transform="translate(38.9255,29.3132)" >
        <g gorn="0.5.0"  id="g8870">
            <g transform="matrix(0,-1,1,0,1.063,4.606)" >
                <g gorn="0.5.0.0.0"  id="g8872">
                    <path gorn="0.5.0.0.0.0" style="fill:#dcdcdc"  id="path8874" d="m 5.386,3.543 -5.103,0 C 0.127,3.543 0,3.416 0,3.26 L 0,0.283 C 0,0.127 0.127,0 0.283,0 l 5.102,0 c 0.157,0 0.283,0.127 0.283,0.283 l 0,2.977 C 5.669,3.416 5.542,3.543 5.386,3.543 Z"/>
                    <rect height="3.543" gorn="0.5.0.0.0.1" x="1.063" width="3.543" style="fill:#6e554b"  id="rect8876" y="0"/>
                </g>
            </g>
        </g>
    </g>
    <g transform="translate(4.3655,21.3932)" >
        <g gorn="0.6.0"  id="g8878">
            <g transform="matrix(-1,0,0,-1,5.669,3.543)" >
                <g gorn="0.6.0.0.0"  id="g8880">
                    <path gorn="0.6.0.0.0.0" style="fill:#dcdcdc"  id="path8882" d="m 5.386,3.543 -5.103,0 C 0.127,3.543 0,3.416 0,3.26 L 0,0.283 C 0,0.127 0.127,0 0.283,0 l 5.102,0 c 0.157,0 0.283,0.127 0.283,0.283 l 0,2.977 C 5.669,3.416 5.542,3.543 5.386,3.543 Z"/>
                    <rect height="3.543" gorn="0.6.0.0.0.1" x="1.063" width="3.543" style="fill:#6e554b"  id="rect8884" y="0"/>
                </g>
            </g>
        </g>
    </g>
    <g transform="translate(40.0055,21.3932)" >
        <g gorn="0.7.0"  id="g8886">
            <path gorn="0.7.0.0" style="fill:#dcdcdc"  id="path8888" d="m 5.386,3.543 -5.103,0 C 0.127,3.543 0,3.416 0,3.26 L 0,0.283 C 0,0.127 0.127,0 0.283,0 l 5.102,0 c 0.157,0 0.283,0.127 0.283,0.283 l 0,2.977 C 5.669,3.416 5.542,3.543 5.386,3.543 Z"/>
            <rect height="3.543" gorn="0.7.0.1" x="1.063" width="3.543" style="fill:#6e554b"  id="rect8890" y="0"/>
        </g>
    </g>
    <g transform="translate(29.5655,21.3932)" >
        <g gorn="0.8.0"  id="0805-no">
            <path gorn="0.8.0.0" style="fill:#dcdcdc"  id="path8893" d="m 5.386,3.543 -5.103,0 C 0.127,3.543 0,3.416 0,3.26 L 0,0.283 C 0,0.127 0.127,0 0.283,0 l 5.102,0 c 0.157,0 0.283,0.127 0.283,0.283 l 0,2.977 C 5.669,3.416 5.542,3.543 5.386,3.543 Z"/>
            <rect height="3.543" gorn="0.8.0.1" x="1.063" width="3.543" style="fill:#333333"  id="rect8895" y="0"/>
        </g>
    </g>
    <g transform="translate(15.1655,21.3932)" >
        <g gorn="0.9.0"  id="g8897">
            <g transform="matrix(-1,0,0,-1,5.669,3.543)" >
                <g gorn="0.9.0.0.0"  id="g8899">
                    <path gorn="0.9.0.0.0.0" style="fill:#dcdcdc"  id="path8901" d="m 5.386,3.543 -5.103,0 C 0.127,3.543 0,3.416 0,3.26 L 0,0.283 C 0,0.127 0.127,0 0.283,0 l 5.102,0 c 0.157,0 0.283,0.127 0.283,0.283 l 0,2.977 C 5.669,3.416 5.542,3.543 5.386,3.543 Z"/>
                    <rect height="3.543" gorn="0.9.0.0.0.1" x="1.063" width="3.543" style="fill:#333333"  id="rect8903" y="0"/>
                </g>
            </g>
        </g>
    </g>
    <g transform="translate(36.0455,37.2332)" >
        <g gorn="0.10.0"  id="0805-res">
            <path gorn="0.10.0.0" style="fill:#dcdcdc"  id="path8906" d="m 5.386,3.543 -5.103,0 C 0.127,3.543 0,3.416 0,3.26 L 0,0.283 C 0,0.127 0.127,0 0.283,0 l 5.102,0 c 0.157,0 0.283,0.127 0.283,0.283 l 0,2.977 C 5.669,3.416 5.542,3.543 5.386,3.543 Z"/>
            <rect height="3.543" gorn="0.10.0.1" x="1.063" width="3.543" style="fill:#333333"  id="rect8908" y="0"/>
        </g>
    </g>
    <g transform="translate(-1.3309135,13.410524)" >
        <g gorn="0.11.0"  id="adafruit_2.5mm">
            <path gorn="0.11.0.0" style="fill:#dcdcdc"  id="path8911" d="M 9.747,3.082 C 9.724,2.94 9.647,2.899 9.461,2.839 9.31903,2.794 8.37202,2.492 8.37202,2.492 c 0,0 -0.66,-0.249 -1.15,0.103 -0.066,0.048 -0.134,0.102 -0.203,0.16 0.058,-0.069 0.112,-0.137 0.159,-0.203 0.352,-0.49 0.101,-1.15 0.101,-1.15 0,0 -0.30302,-0.947 -0.34902,-1.089 C 6.87,0.127 6.83,0.05 6.687,0.028 6.545,0.005 6.483,0.066 6.369,0.225 6.282,0.345 5.702,1.153001 5.702,1.153001 5.702,1.153001 5.261,1.704 5.445,2.279 5.47,2.356 5.5,2.438 5.534,2.521 5.486,2.445 5.438,2.372 5.39,2.307 5.032,1.821 4.328,1.855 4.328,1.855 c 0,0 -0.995,-0.004 -1.143,-0.004 -0.195,0 -0.281,0.014 -0.347,0.143 -0.065,0.128 -0.027,0.206 0.089,0.364 0.088,0.12 0.677,0.921002 0.677,0.921002 0,0 0.388,0.59 0.991001,0.592 0.081,0 0.168,-0.003 0.257,-0.01 C 4.765,3.883 4.681,3.907 4.604,3.932 4.031,4.122 3.845998,4.802998 3.845998,4.802998 c 0,0 -0.31,0.943999 -0.357,1.085 C 3.428,6.074 3.416,6.16 3.518,6.262 3.62,6.364 3.706,6.352 3.892,6.29 4.033,6.244 4.977,5.931 4.977,5.931 c 0,0 0.681,-0.187 0.868997,-0.760003 0.025,-0.077 0.049,-0.16 0.07,-0.247 C 5.91,5.014 5.907,5.1 5.907,5.181 c 0.004,0.603 0.594,0.99 0.594,0.99 0,0 0.802001,0.588 0.922003,0.675 C 7.58102,6.962 7.659,7 7.78802,6.935 7.91597,6.869 7.93102,6.783 7.93001,6.588 7.929,6.439 7.92403,5.445 7.92403,5.445 7.92403,5.445 7.95701,4.74 7.47,4.383 7.40498,4.335 7.33198,4.287 7.25602,4.24 c 0.083,0.034 0.165,0.064 0.242,0.088 0.575,0.183 1.125,-0.259 1.125,-0.259 0,0 0.80696,-0.5809998 0.92699,-0.6679998 C 9.70898,3.286 9.76903,3.224 9.747,3.082 Z M 6.322,2.35 C 6.43,2.367 6.484,2.598 6.442,2.865 6.4,3.132 6.278,3.335 6.169,3.318 6.061,3.301 6.007,3.07 6.049,2.803 6.091,2.535 6.213,2.332 6.322,2.35 Z M 4.933,3.059 C 4.983,2.961 5.219,2.981 5.46,3.104 5.701,3.227 5.857,3.406 5.807,3.503 5.757,3.601 5.521,3.581 5.28,3.458 5.038,3.335 4.883,3.157 4.933,3.059 Z M 5.665,4.393 C 5.474,4.584 5.256,4.677 5.178,4.599 5.101,4.521 5.193,4.303 5.384,4.112 5.575,3.92 5.793,3.827 5.871,3.905 5.949,3.983 5.857,4.201 5.665,4.393 Z M 6.719,4.842 C 6.6210001,4.892 6.442,4.737 6.319,4.496 6.196,4.254 6.175,4.018 6.273,3.968 6.371,3.918 6.55,4.073 6.673,4.314 6.796,4.556 6.817,4.792 6.719,4.842 Z M 6.973,3.725 C 6.706,3.767 6.475,3.714 6.457,3.606 6.44,3.497 6.643,3.375 6.91,3.332 7.177,3.289 7.408,3.343 7.425,3.451 7.443,3.56 7.24003,3.682 6.973,3.725 Z"/>
        </g>
    </g>
    <g transform="translate(20.305,28.9159)" >
        <g gorn="0.12.0"  id="qfn16_3mm">
            <g transform="matrix(0,-1,1,0,0.642996,9.14695)" >
                <g gorn="0.12.0.0.0"  id="g8914">
                    <rect height="8.5039902" gorn="0.12.0.0.0.0" x="1.286" width="8.5039902" style="fill:#333333"  id="rect8916" y="0"/>
                </g>
            </g>
        </g>
    </g>
    <g transform="translate(13.8615,-2.32164e-4)" >
        <g gorn="0.13.0"  id="termblock_1x2-3.5mm">
            <g transform="matrix(-1,0,0,-1,22.11,19.843)" >
                <g gorn="0.13.0.0.0"  id="g8919">
                    <rect height="5.1020002" gorn="0.13.0.0.0.0" x="18.709" width="2.2679999" style="fill:#0c3878"  id="rect8921" y="12.189"/>
                    <rect height="2.2679999" gorn="0.13.0.0.0.1" x="19.843" width="2.2679999" style="fill:#0c3878"  id="rect8923" y="1.1339999"/>
                    <polygon gorn="0.13.0.0.0.2" style="fill:#015dd9"  points="1.134,0 1.134,13.606 0,13.606 0,15.874 1.134,15.874 1.134,18.425 20.976,18.425 20.976,15.874 19.843,15.874 19.843,13.606 20.976,13.606 20.976,0 " id="polygon8925"/>
                    <circle gorn="0.13.0.0.0.3" cy="9.9210196" style="fill:#b4b4b4"  id="circle8927" cx="6.0949998" r="3.6849999"/>
                    <circle gorn="0.13.0.0.0.4" cy="9.9210196" style="fill:#b4b4b4"  id="circle8929" cx="16.016001" r="3.6849999"/>
                    <rect height="2.835" gorn="0.13.0.0.0.5" x="2.5510001" width="7.3699899" style="fill:#0c3878"  id="rect8931" y="1.4170001"/>
                    <rect height="2.835" gorn="0.13.0.0.0.6" x="11.339" width="7.3699899" style="fill:#0c3878"  id="rect8933" y="1.4170001"/>
                    <polygon gorn="0.13.0.0.0.7" style="fill:#0c3878"  points="4.677,19.843 4.677,18.089 7.51198,18.089 7.51198,19.843 14.598,19.843 14.598,18.089 17.433,18.089 17.433,19.843 20.976,19.843 20.976,17.008 1.134,17.008 1.134,19.843 " id="polygon8935"/>
                    <rect height="1.701" gorn="0.13.0.0.0.8" x="1.8430001" width="8.5039902" style="fill:#8c8c8c"  id="rect8937" y="17.805"/>
                    <rect height="1.701" gorn="0.13.0.0.0.9" x="11.764" width="8.5039902" style="fill:#8c8c8c"  id="rect8939" y="17.805"/>
                    <path gorn="0.13.0.0.0.10" style="fill:#646464"  id="path8941" d="M 6.182,6.963 4.539,7.403 5.053,9.31997 2.42,10.026 c 0.008,0.282 0.039,0.565 0.115,0.849002 0.076,0.284002 0.191,0.545 0.325,0.793001 l 2.633,-0.706 0.514,1.917 1.643,-0.44 -0.514,-1.917 2.633,-0.706 C 9.76097,9.53503 9.73001,9.25099 9.65398,8.96803 9.57795,8.68507 9.46303,8.42198 9.32897,8.17402 L 6.696,8.87998 6.182,6.963 Z"/>
                    <path gorn="0.13.0.0.0.11" style="fill:#646464"  id="path8943" d="m 13.498,8.36597 -0.44,1.643 1.917,0.514 -0.706,2.633 c 0.248,0.134 0.509,0.249 0.793001,0.325 0.284,0.076 0.568,0.107 0.849002,0.115 l 0.706,-2.633 1.917,0.514 0.44,-1.643 -1.917003,-0.514 0.706,-2.633 c -0.248,-0.134 -0.509,-0.249 -0.793001,-0.325 -0.284,-0.076 -0.568,-0.107 -0.849002,-0.115 L 15.414,8.87998 13.498,8.36597 Z"/>
                </g>
            </g>
        </g>
    </g>
</svg>
