<?xml version='1.0' encoding='UTF-8' standalone='no'?>
<!-- Created with Fritzing (http://www.fritzing.org/) -->
<svg xmlns="http://www.w3.org/2000/svg" gorn="0"  viewBox="0 0 122.4 126" height="1.75in" y="0in" version="1.2" id="svg4866" x="0in" width="1.7in">
    <desc>
        <referenceFile>Adafruit 1.44 inch TFT_breadboard.svg</referenceFile>
    </desc>
    <metadata  id="metadata5233">
        <rdf:RDF xmlns:rdf="http://www.w3.org/1999/02/22-rdf-syntax-ns#">
            <cc:Work xmlns:cc="http://creativecommons.org/ns#" rdf:about="" xmlns:rdf="http://www.w3.org/1999/02/22-rdf-syntax-ns#">
                <dc:format xmlns:dc="http://purl.org/dc/elements/1.1/">image/svg+xml</dc:format>
                <dc:type xmlns:dc="http://purl.org/dc/elements/1.1/" rdf:resource="http://purl.org/dc/dcmitype/StillImage" xmlns:rdf="http://www.w3.org/1999/02/22-rdf-syntax-ns#"/>
            </cc:Work>
        </rdf:RDF>
    </metadata>
    <defs  id="defs5231"/>
    <desc  id="desc4868">Fritzing breadboard generated by brd2svg</desc>
    <path style="fill:#014cb1;stroke:none;stroke-width:0" gorn="0.3"  d="m 108,111.6 7.2,0 a 7.2,7.2 0 0 1 7.2,7.2 7.2,7.2 0 0 1 -7.2,7.2 l -108,0 A 7.2,7.2 0 0 1 0,118.8 7.2,7.2 0 0 1 7.2,111.6 l 7.2,0 0,-97.2 -7.2,0 A 7.2,7.2 0 0 1 0,7.2 7.2,7.2 0 0 1 7.2,0 l 108,0 a 7.2,7.2 0 0 1 7.2,7.2 7.2,7.2 0 0 1 -7.2,7.2 l -7.2,0 0,97.2 m -84.2173,9 a 1.417325,1.417325 0 0 0 2.83465,0 1.417325,1.417325 0 1 0 -2.83465,0 z m 7.2,0 a 1.417325,1.417325 0 0 0 2.83465,0 1.417325,1.417325 0 1 0 -2.83465,0 z m 7.2,0 a 1.417325,1.417325 0 0 0 2.83465,0 1.417325,1.417325 0 1 0 -2.83465,0 z m 7.2,0 a 1.417325,1.417325 0 0 0 2.83465,0 1.417325,1.417325 0 1 0 -2.83465,0 z m 7.2,0 a 1.417325,1.417325 0 0 0 2.83465,0 1.417325,1.417325 0 1 0 -2.83465,0 z m 7.2,0 a 1.417325,1.417325 0 0 0 2.83465,0 1.417325,1.417325 0 1 0 -2.83465,0 z m 7.2,0 a 1.417325,1.417325 0 1 0 2.83465,0 1.417325,1.417325 0 1 0 -2.83465,0 z m 7.1996,0 a 1.417325,1.417325 0 1 0 2.83465,0 1.417325,1.417325 0 1 0 -2.83465,0 z m 7.2,0 a 1.417325,1.417325 0 1 0 2.83465,0 1.417325,1.417325 0 1 0 -2.83465,0 z m 7.2,0 a 1.417325,1.417325 0 1 0 2.83465,0 1.417325,1.417325 0 1 0 -2.83465,0 z m 7.2,0 a 1.417325,1.417325 0 1 0 2.83465,0 1.417325,1.417325 0 1 0 -2.83465,0 z M 3.65669,7.2 a 3.54331,3.54331 0 1 0 7.08661,0 3.54331,3.54331 0 1 0 -7.08661,0 z m 108.00031,0 a 3.54331,3.54331 0 1 0 7.08661,0 3.54331,3.54331 0 1 0 -7.08661,0 z M 3.65669,118.8 a 3.54331,3.54331 0 1 0 7.08661,0 3.54331,3.54331 0 1 0 -7.08661,0 z m 108.00031,0 a 3.54331,3.54331 0 1 0 7.08661,0 3.54331,3.54331 0 1 0 -7.08661,0 z" id="path4872"/>
    <g gorn="0.4"  id="g4878">
        <title  id="title4880">text:Vin</title>
        <g transform="translate(26.8704,117.36)" >
            <g gorn="0.4.1.0"  id="g4882">
                <g transform="matrix(0,-1,1,0,0,0)" >
                    <g gorn="0.4.1.0.0.0"  id="g4884">
                        <text style="font-size:3.34080005px;font-family:OCRA;text-anchor:start;fill:#ffffff;stroke:none;stroke-width:0" gorn="0.4.1.0.0.0.0"  font-size="3.3408" y="0" id="text4886" x="0">Vin</text>
                    </g>
                </g>
            </g>
        </g>
    </g>
    <g gorn="0.5"  id="g4888">
        <title  id="title4890">text:3v3</title>
        <g transform="translate(34.0704,117.36)" >
            <g gorn="0.5.1.0"  id="g4892">
                <g transform="matrix(0,-1,1,0,0,0)" >
                    <g gorn="0.5.1.0.0.0"  id="g4894">
                        <text style="font-size:3.34080005px;font-family:OCRA;text-anchor:start;fill:#ffffff;stroke:none;stroke-width:0" gorn="0.5.1.0.0.0.0"  font-size="3.3408" y="0" id="text4896" x="0">3v3</text>
                    </g>
                </g>
            </g>
        </g>
    </g>
    <g gorn="0.6"  id="g4898">
        <title  id="title4900">text:Gnd</title>
        <g transform="translate(41.2704,117.36)" >
            <g gorn="0.6.1.0"  id="g4902">
                <g transform="matrix(0,-1,1,0,0,0)" >
                    <g gorn="0.6.1.0.0.0"  id="g4904">
                        <text style="font-size:3.34080005px;font-family:OCRA;text-anchor:start;fill:#ffffff;stroke:none;stroke-width:0" gorn="0.6.1.0.0.0.0"  font-size="3.3408" y="0" id="text4906" x="0">Gnd</text>
                    </g>
                </g>
            </g>
        </g>
    </g>
    <g gorn="0.7"  id="g4908">
        <title  id="title4910">text:SCK</title>
        <g transform="translate(48.4704,117.36)" >
            <g gorn="0.7.1.0"  id="g4912">
                <g transform="matrix(0,-1,1,0,0,0)" >
                    <g gorn="0.7.1.0.0.0"  id="g4914">
                        <text style="font-size:3.34080005px;font-family:OCRA;text-anchor:start;fill:#ffffff;stroke:none;stroke-width:0" gorn="0.7.1.0.0.0.0"  font-size="3.3408" y="0" id="text4916" x="0">SCK</text>
                    </g>
                </g>
            </g>
        </g>
    </g>
    <g gorn="0.8"  id="g4918">
        <title  id="title4920">text:SO</title>
        <g transform="translate(55.6704,117.36)" >
            <g gorn="0.8.1.0"  id="g4922">
                <g transform="matrix(0,-1,1,0,0,0)" >
                    <g gorn="0.8.1.0.0.0"  id="g4924">
                        <text style="font-size:3.34080005px;font-family:OCRA;text-anchor:start;fill:#ffffff;stroke:none;stroke-width:0" gorn="0.8.1.0.0.0.0"  font-size="3.3408" y="0" id="text4926" x="0">SO</text>
                    </g>
                </g>
            </g>
        </g>
    </g>
    <g gorn="0.9"  id="g4928">
        <title  id="title4930">text:SI</title>
        <g transform="translate(62.8704,117.36)" >
            <g gorn="0.9.1.0"  id="g4932">
                <g transform="matrix(0,-1,1,0,0,0)" >
                    <g gorn="0.9.1.0.0.0"  id="g4934">
                        <text style="font-size:3.34080005px;font-family:OCRA;text-anchor:start;fill:#ffffff;stroke:none;stroke-width:0" gorn="0.9.1.0.0.0.0"  font-size="3.3408" y="0" id="text4936" x="0">SI</text>
                    </g>
                </g>
            </g>
        </g>
    </g>
    <g gorn="0.10"  id="g4938">
        <title  id="title4940">text:TCS</title>
        <g transform="translate(70.0704,117.36)" >
            <g gorn="0.10.1.0"  id="g4942">
                <g transform="matrix(0,-1,1,0,0,0)" >
                    <g gorn="0.10.1.0.0.0"  id="g4944">
                        <text style="font-size:3.34080005px;font-family:OCRA;text-anchor:start;fill:#ffffff;stroke:none;stroke-width:0" gorn="0.10.1.0.0.0.0"  font-size="3.3408" y="0" id="text4946" x="0">TCS</text>
                    </g>
                </g>
            </g>
        </g>
    </g>
    <g gorn="0.11"  id="g4948">
        <title  id="title4950">text:RST</title>
        <g transform="translate(77.2704,117.36)" >
            <g gorn="0.11.1.0"  id="g4952">
                <g transform="matrix(0,-1,1,0,0,0)" >
                    <g gorn="0.11.1.0.0.0"  id="g4954">
                        <text style="font-size:3.34080005px;font-family:OCRA;text-anchor:start;fill:#ffffff;stroke:none;stroke-width:0" gorn="0.11.1.0.0.0.0"  font-size="3.3408" y="0" id="text4956" x="0">RST</text>
                    </g>
                </g>
            </g>
        </g>
    </g>
    <g gorn="0.12"  id="g4958">
        <title  id="title4960">text:D/C</title>
        <g transform="translate(84.4704,117.36)" >
            <g gorn="0.12.1.0"  id="g4962">
                <g transform="matrix(0,-1,1,0,0,0)" >
                    <g gorn="0.12.1.0.0.0"  id="g4964">
                        <text style="font-size:3.34080005px;font-family:OCRA;text-anchor:start;fill:#ffffff;stroke:none;stroke-width:0" gorn="0.12.1.0.0.0.0"  font-size="3.3408" y="0" id="text4966" x="0">D/C</text>
                    </g>
                </g>
            </g>
        </g>
    </g>
    <g gorn="0.13"  id="g4968">
        <title  id="title4970">text:CCS</title>
        <g transform="translate(91.6704,117.36)" >
            <g gorn="0.13.1.0"  id="g4972">
                <g transform="matrix(0,-1,1,0,0,0)" >
                    <g gorn="0.13.1.0.0.0"  id="g4974">
                        <text style="font-size:3.34080005px;font-family:OCRA;text-anchor:start;fill:#ffffff;stroke:none;stroke-width:0" gorn="0.13.1.0.0.0.0"  font-size="3.3408" y="0" id="text4976" x="0">CCS</text>
                    </g>
                </g>
            </g>
        </g>
    </g>
    <g gorn="0.14"  id="g4978">
        <title  id="title4980">text:Lite</title>
        <g transform="translate(98.8704,117.36)" >
            <g gorn="0.14.1.0"  id="g4982">
                <g transform="matrix(0,-1,1,0,0,0)" >
                    <g gorn="0.14.1.0.0.0"  id="g4984">
                        <text style="font-size:3.34080005px;font-family:OCRA;text-anchor:start;fill:#ffffff;stroke:none;stroke-width:0" gorn="0.14.1.0.0.0.0"  font-size="3.3408" y="0" id="text4986" x="0">Lite</text>
                    </g>
                </g>
            </g>
        </g>
    </g>
    <g gorn="0.15"  id="g4988">
        <title  id="title4990">element:C1</title>
        <g gorn="0.15.1"  id="g4992">
            <title  id="title4994">package:0805-NO</title>
        </g>
    </g>
    <g gorn="0.16"  id="g4996">
        <title  id="title4998">element:C2</title>
        <g gorn="0.16.1"  id="g5000">
            <title  id="title5002">package:0805-NO</title>
        </g>
    </g>
    <g gorn="0.17"  id="g5004">
        <title  id="title5006">element:C4</title>
        <g gorn="0.17.1"  id="g5008">
            <title  id="title5010">package:0805-NO</title>
        </g>
    </g>
    <g gorn="0.18"  id="g5012">
        <title  id="title5014">element:IC1</title>
        <g gorn="0.18.1"  id="g5016">
            <title  id="title5018">package:SO16</title>
        </g>
    </g>
    <g gorn="0.19"  id="g5020">
        <title  id="title5022">element:IC2</title>
        <g gorn="0.19.1"  id="g5024">
            <title  id="title5026">package:SOT23-5L</title>
        </g>
    </g>
    <g gorn="0.20"  id="g5028">
        <title  id="title5030">element:JP1</title>
        <g gorn="0.20.1"  id="g5032">
            <title  id="title5034">package:1X11_ROUND_76</title>
        </g>
    </g>
    <g gorn="0.21"  id="g5036">
        <title  id="title5038">element:Q2</title>
        <g gorn="0.21.1"  id="g5040">
            <title  id="title5042">package:MICROSD</title>
        </g>
    </g>
    <g gorn="0.22"  id="g5044">
        <title  id="title5046">element:Q3</title>
        <g gorn="0.22.1"  id="g5048">
            <title  id="title5050">package:SOT23-WIDE</title>
        </g>
    </g>
    <g gorn="0.23"  id="g5052">
        <title  id="title5054">element:R1</title>
        <g gorn="0.23.1"  id="g5056">
            <title  id="title5058">package:0805-NO</title>
        </g>
    </g>
    <g gorn="0.24"  id="g5060">
        <title  id="title5062">element:R2</title>
        <g gorn="0.24.1"  id="g5064">
            <title  id="title5066">package:0805-NO</title>
        </g>
    </g>
    <g gorn="0.25"  id="g5068">
        <title  id="title5070">element:R3</title>
        <g gorn="0.25.1"  id="g5072">
            <title  id="title5074">package:0805-NO</title>
        </g>
    </g>
    <g gorn="0.26"  id="g5076">
        <title  id="title5078">element:R4</title>
        <g gorn="0.26.1"  id="g5080">
            <title  id="title5082">package:0805-NO</title>
        </g>
    </g>
    <g gorn="0.27"  id="g5084">
        <title  id="title5086">element:TFT2</title>
        <g gorn="0.27.1"  id="g5088">
            <title  id="title5090">package:TFT_1.44IN_128_128</title>
            <line style="stroke:#ffffff;stroke-width:0.57599998;stroke-linecap:round" gorn="0.27.1.1"  x2="15.84" x1="106.56" id="line5092" y2="108.36" y1="108.36"/>
            <line style="stroke:#ffffff;stroke-width:0.57599998;stroke-linecap:round" gorn="0.27.1.2"  x2="15.84" x1="15.84" id="line5094" y2="2.1600001" y1="108.36"/>
            <line style="stroke:#ffffff;stroke-width:0.57599998;stroke-linecap:round" gorn="0.27.1.3"  x2="106.56" x1="15.84" id="line5096" y2="2.1600001" y1="2.1600001"/>
            <line style="stroke:#ffffff;stroke-width:0.57599998;stroke-linecap:round" gorn="0.27.1.4"  x2="106.56" x1="106.56" id="line5098" y2="108.36" y1="2.1600001"/>
        </g>
    </g>
    <g gorn="0.28"  id="g5100">
        <title  id="title5102">element:U$1</title>
        <g gorn="0.28.1"  id="g5104">
            <title  id="title5106">package:ADAFRUIT_5MM</title>
        </g>
    </g>
    <g gorn="0.29"  id="g5108">
        <title  id="title5110">element:U$2</title>
        <g gorn="0.29.1"  id="g5112">
            <title  id="title5114">package:PCBFEAT-REV-040</title>
        </g>
    </g>
    <g gorn="0.30"  id="g5116">
        <title  id="title5118">element:U$3</title>
        <g gorn="0.30.1"  id="g5120">
            <title  id="title5122">package:FIDUCIAL_1MM</title>
        </g>
    </g>
    <g gorn="0.31"  id="g5124">
        <title  id="title5126">element:U$4</title>
        <g gorn="0.31.1"  id="g5128">
            <title  id="title5130">package:FIDUCIAL_1MM</title>
        </g>
    </g>
    <g gorn="0.32"  id="g5132">
        <title  id="title5134">element:U$5</title>
        <g gorn="0.32.1"  id="g5136">
            <title  id="title5138">package:FIDUCIAL_1MM</title>
        </g>
    </g>
    <g gorn="0.33"  id="g5140">
        <title  id="title5142">element:U$7</title>
        <g gorn="0.33.1"  id="g5144">
            <title  id="title5146">package:MOUNTINGHOLE_2.5_PLATED</title>
        </g>
    </g>
    <g gorn="0.34"  id="g5148">
        <title  id="title5150">element:U$8</title>
        <g gorn="0.34.1"  id="g5152">
            <title  id="title5154">package:MOUNTINGHOLE_2.5_PLATED</title>
        </g>
    </g>
    <g gorn="0.35"  id="g5156">
        <title  id="title5158">element:U$9</title>
        <g gorn="0.35.1"  id="g5160">
            <title  id="title5162">package:MOUNTINGHOLE_2.5_PLATED</title>
        </g>
    </g>
    <g gorn="0.36"  id="g5164">
        <title  id="title5166">element:U$10</title>
        <g gorn="0.36.1"  id="g5168">
            <title  id="title5170">package:MOUNTINGHOLE_2.5_PLATED</title>
        </g>
    </g>
    <circle connectorname="VIN" style="fill:none;stroke:#9a916c;stroke-width:1.31868005" gorn="0.37"  cy="120.6" id="connector0pin" cx="25.200001" r="2.0766599"/>
    <circle connectorname="+3V3" style="fill:none;stroke:#9a916c;stroke-width:1.31868005" gorn="0.38"  cy="120.6" id="connector1pin" cx="32.400002" r="2.0766599"/>
    <circle connectorname="GND" style="fill:none;stroke:#9a916c;stroke-width:1.31868005" gorn="0.39"  cy="120.6" id="connector2pin" cx="39.599998" r="2.0766599"/>
    <circle connectorname="SCK" style="fill:none;stroke:#9a916c;stroke-width:1.31868005" gorn="0.40"  cy="120.6" id="connector3pin" cx="46.799999" r="2.0766599"/>
    <circle connectorname="MISO" style="fill:none;stroke:#9a916c;stroke-width:1.31868005" gorn="0.41"  cy="120.6" id="connector4pin" cx="54" r="2.0766599"/>
    <circle connectorname="MOSI" style="fill:none;stroke:#9a916c;stroke-width:1.31868005" gorn="0.42"  cy="120.6" id="connector5pin" cx="61.200001" r="2.0766599"/>
    <circle connectorname="TFTCS" style="fill:none;stroke:#9a916c;stroke-width:1.31868005" gorn="0.43"  cy="120.6" id="connector6pin" cx="68.400002" r="2.0766599"/>
    <circle connectorname="RESET" style="fill:none;stroke:#9a916c;stroke-width:1.31868005" gorn="0.44"  cy="120.6" id="connector7pin" cx="75.599998" r="2.0766599"/>
    <circle connectorname="TFTDC" style="fill:none;stroke:#9a916c;stroke-width:1.31868005" gorn="0.45"  cy="120.6" id="connector8pin" cx="82.800003" r="2.0766599"/>
    <circle connectorname="CARDCS" style="fill:none;stroke:#9a916c;stroke-width:1.31868005" gorn="0.46"  cy="120.6" id="connector9pin" cx="90" r="2.0766599"/>
    <circle connectorname="LITE" style="fill:none;stroke:#9a916c;stroke-width:1.31868005" gorn="0.47"  cy="120.6" id="connector10pin" cx="97.199997" r="2.0766599"/>
    <g transform="matrix(0,1,-1,0,85.0594,-7.86046)" >
        <g gorn="0.48.0"  id="g5183">
            <rect style="fill:#9a916c;stroke:none;stroke-width:0" gorn="0.48.0.0"  height="1.41732" y="37.890701" id="connector11pin" x="43.625198" width="5.6692901"/>
        </g>
    </g>
    <g transform="matrix(0,1,-1,0,87.3266,-10.1282)" >
        <g gorn="0.49.0"  id="g5186">
            <rect style="fill:#9a916c;stroke:none;stroke-width:0" gorn="0.49.0.0"  height="1.41732" y="37.890701" id="connector12pin" x="45.892899" width="5.6692901"/>
        </g>
    </g>
    <g transform="matrix(0,1,-1,0,89.5946,-12.3959)" >
        <g gorn="0.50.0"  id="g5189">
            <rect style="fill:#9a916c;stroke:none;stroke-width:0" gorn="0.50.0.0"  height="1.41732" y="37.890701" id="connector13pin" x="48.160702" width="5.6692901"/>
        </g>
    </g>
    <g transform="matrix(0,1,-1,0,91.8626,-14.6636)" >
        <g gorn="0.51.0"  id="g5192">
            <rect style="fill:#9a916c;stroke:none;stroke-width:0" gorn="0.51.0.0"  height="1.41732" y="37.890701" id="connector14pin" x="50.428398" width="5.6692901"/>
        </g>
    </g>
    <g transform="matrix(0,1,-1,0,94.1299,-16.9313)" >
        <g gorn="0.52.0"  id="g5195">
            <rect style="fill:#9a916c;stroke:none;stroke-width:0" gorn="0.52.0.0"  height="1.41732" y="37.890701" id="connector15pin" x="52.696098" width="5.6692901"/>
        </g>
    </g>
    <g transform="matrix(0,1,-1,0,96.3979,-19.1991)" >
        <g gorn="0.53.0"  id="g5198">
            <rect style="fill:#9a916c;stroke:none;stroke-width:0" gorn="0.53.0.0"  height="1.41732" y="37.890701" id="connector16pin" x="54.963799" width="5.6692901"/>
        </g>
    </g>
    <g transform="matrix(0,1,-1,0,98.6652,-21.4668)" >
        <g gorn="0.54.0"  id="g5201">
            <rect style="fill:#9a916c;stroke:none;stroke-width:0" gorn="0.54.0.0"  height="1.41732" y="37.890701" id="connector17pin" x="57.231499" width="5.6692901"/>
        </g>
    </g>
    <g transform="matrix(0,1,-1,0,100.933,-23.7345)" >
        <g gorn="0.55.0"  id="g5204">
            <rect style="fill:#9a916c;stroke:none;stroke-width:0" gorn="0.55.0.0"  height="1.41732" y="37.890701" id="connector18pin" x="59.499199" width="5.6692901"/>
        </g>
    </g>
    <g transform="matrix(0,1,-1,0,103.201,-26.0022)" >
        <g gorn="0.56.0"  id="g5207">
            <rect style="fill:#9a916c;stroke:none;stroke-width:0" gorn="0.56.0.0"  height="1.41732" y="37.890701" id="connector19pin" x="61.766899" width="5.6692901"/>
        </g>
    </g>
    <g transform="matrix(0,1,-1,0,105.468,-28.2699)" >
        <g gorn="0.57.0"  id="g5210">
            <rect style="fill:#9a916c;stroke:none;stroke-width:0" gorn="0.57.0.0"  height="1.41732" y="37.890701" id="connector20pin" x="64.034599" width="5.6692901"/>
        </g>
    </g>
    <g transform="matrix(0,1,-1,0,107.736,-30.5376)" >
        <g gorn="0.58.0"  id="g5213">
            <rect style="fill:#9a916c;stroke:none;stroke-width:0" gorn="0.58.0.0"  height="1.41732" y="37.890701" id="connector21pin" x="66.302399" width="5.6692901"/>
        </g>
    </g>
    <g transform="matrix(0,1,-1,0,110.004,-32.8054)" >
        <g gorn="0.59.0"  id="g5216">
            <rect style="fill:#9a916c;stroke:none;stroke-width:0" gorn="0.59.0.0"  height="1.41732" y="37.890701" id="connector22pin" x="68.570099" width="5.6692901"/>
        </g>
    </g>
    <g transform="matrix(0,1,-1,0,112.272,-35.0731)" >
        <g gorn="0.60.0"  id="g5219">
            <rect style="fill:#9a916c;stroke:none;stroke-width:0" gorn="0.60.0.0"  height="1.41732" y="37.890701" id="connector23pin" x="70.837799" width="5.6692901"/>
        </g>
    </g>
    <g transform="matrix(0,1,-1,0,114.54,-37.3408)" >
        <g gorn="0.61.0"  id="g5222">
            <rect style="fill:#9a916c;stroke:none;stroke-width:0" gorn="0.61.0.0"  height="1.41732" y="37.890701" id="connector24pin" x="73.105202" width="5.6692901"/>
        </g>
    </g>
    <circle connectorname="P$1" style="fill:none;stroke:#9a916c;stroke-width:1.44000006" gorn="0.62"  cy="7.1999998" id="connector25pin" cx="7.1999998" r="4.26331"/>
    <circle connectorname="P$1" style="fill:none;stroke:#9a916c;stroke-width:1.44000006" gorn="0.63"  cy="7.1999998" id="connector26pin" cx="115.2" r="4.26331"/>
    <circle connectorname="P$1" style="fill:none;stroke:#9a916c;stroke-width:1.44000006" gorn="0.64"  cy="118.8" id="connector27pin" cx="7.1999998" r="4.26331"/>
    <circle connectorname="P$1" style="fill:none;stroke:#9a916c;stroke-width:1.44000006" gorn="0.65"  cy="118.8" id="connector28pin" cx="115.2" r="4.26331"/>
    <g transform="matrix(1.2499009,0,0,1.1579341,10.839726,159.30585)" >
        <g gorn="0.66.0"  id="g7635">
            <g transform="matrix(0,-1,1,0,0,0)" >
                <rect style="fill:#e3e2db;stroke:none" gorn="0.66.0.0.0"  height="72.801071" y="3.6223826" id="rect23197" x="44.08176" width="91.559082"/>
            </g>
            <rect style="fill:#333333;fill-opacity:1;fill-rule:evenodd;stroke:none" gorn="0.66.0.1"  height="78.336639" y="-129.25821" id="rect23207" x="9.1675911" width="62.820728"/>
            <path style="color:#000000;display:inline;overflow:visible;visibility:visible;fill:none;stroke:#433a32;stroke-width:0.47124746;stroke-linecap:butt;stroke-linejoin:miter;stroke-miterlimit:4;stroke-dasharray:none;stroke-dashoffset:0;stroke-opacity:1;marker:none;enable-background:accumulate" gorn="0.66.0.2"  d="m 60.650902,-43.149106 0,-7.772462" id="path23257"/>
            <path style="color:#000000;display:inline;overflow:visible;visibility:visible;fill:none;stroke:#8c4405;stroke-width:0.47124746;stroke-linecap:butt;stroke-linejoin:miter;stroke-miterlimit:4;stroke-dasharray:none;stroke-dashoffset:0;stroke-opacity:1;marker:none;enable-background:accumulate" gorn="0.66.0.3"  d="m 59.498811,-43.149106 0,-7.772462" id="path23270"/>
            <path style="color:#000000;display:inline;overflow:visible;visibility:visible;fill:none;stroke:#8c4405;stroke-width:0.47124746;stroke-linecap:butt;stroke-linejoin:miter;stroke-miterlimit:4;stroke-dasharray:none;stroke-dashoffset:0;stroke-opacity:1;marker:none;enable-background:accumulate" gorn="0.66.0.4"  d="m 58.34672,-43.149106 0,-7.772462" id="path23272"/>
            <path style="color:#000000;display:inline;overflow:visible;visibility:visible;fill:none;stroke:#8c4405;stroke-width:0.47124746;stroke-linecap:butt;stroke-linejoin:miter;stroke-miterlimit:4;stroke-dasharray:none;stroke-dashoffset:0;stroke-opacity:1;marker:none;enable-background:accumulate" gorn="0.66.0.5"  d="m 57.194628,-43.149106 0,-7.772462" id="path23274"/>
            <path style="color:#000000;display:inline;overflow:visible;visibility:visible;fill:none;stroke:#8c4405;stroke-width:0.47124746;stroke-linecap:butt;stroke-linejoin:miter;stroke-miterlimit:4;stroke-dasharray:none;stroke-dashoffset:0;stroke-opacity:1;marker:none;enable-background:accumulate" gorn="0.66.0.6"  d="m 56.042537,-43.149106 0,-7.772462" id="path23276"/>
            <path style="color:#000000;display:inline;overflow:visible;visibility:visible;fill:none;stroke:#8c4405;stroke-width:0.47124746;stroke-linecap:butt;stroke-linejoin:miter;stroke-miterlimit:4;stroke-dasharray:none;stroke-dashoffset:0;stroke-opacity:1;marker:none;enable-background:accumulate" gorn="0.66.0.7"  d="m 37.609078,-43.149106 0,-7.772462" id="path23278"/>
            <path style="color:#000000;display:inline;overflow:visible;visibility:visible;fill:none;stroke:#8c4405;stroke-width:0.47124746;stroke-linecap:butt;stroke-linejoin:miter;stroke-miterlimit:4;stroke-dasharray:none;stroke-dashoffset:0;stroke-opacity:1;marker:none;enable-background:accumulate" gorn="0.66.0.8"  d="m 36.745009,-43.149106 0,-7.461564 0,-0.310898" id="path23280"/>
            <path style="color:#000000;display:inline;overflow:visible;visibility:visible;fill:none;stroke:#8c4405;stroke-width:0.47124746;stroke-linecap:butt;stroke-linejoin:miter;stroke-miterlimit:4;stroke-dasharray:none;stroke-dashoffset:0;stroke-opacity:1;marker:none;enable-background:accumulate" gorn="0.66.0.9"  d="m 35.880941,-43.149106 0,-7.772462" id="path23282"/>
            <path style="color:#000000;display:inline;overflow:visible;visibility:visible;fill:none;stroke:#8c4405;stroke-width:0.47124746;stroke-linecap:butt;stroke-linejoin:miter;stroke-miterlimit:4;stroke-dasharray:none;stroke-dashoffset:0;stroke-opacity:1;marker:none;enable-background:accumulate" gorn="0.66.0.10"  d="m 35.016872,-43.149106 0,-7.772462" id="path23284"/>
            <path style="color:#000000;display:inline;overflow:visible;visibility:visible;fill:none;stroke:#8c4405;stroke-width:0.47124746;stroke-linecap:butt;stroke-linejoin:miter;stroke-miterlimit:4;stroke-dasharray:none;stroke-dashoffset:0;stroke-opacity:1;marker:none;enable-background:accumulate" gorn="0.66.0.11"  d="m 34.152804,-43.149106 0,-7.772462" id="path23286"/>
            <path style="color:#000000;display:inline;overflow:visible;visibility:visible;fill:none;stroke:#8c4405;stroke-width:0.47124746;stroke-linecap:butt;stroke-linejoin:miter;stroke-miterlimit:4;stroke-dasharray:none;stroke-dashoffset:0;stroke-opacity:1;marker:none;enable-background:accumulate" gorn="0.66.0.12"  d="m 43.369534,-43.149106 0,-4.041681 -3.168251,-3.730781" id="path23288"/>
            <path style="color:#000000;display:inline;overflow:visible;visibility:visible;fill:none;stroke:#8c4405;stroke-width:0.47124746;stroke-linecap:butt;stroke-linejoin:miter;stroke-miterlimit:4;stroke-dasharray:none;stroke-dashoffset:0;stroke-opacity:1;marker:none;enable-background:accumulate" gorn="0.66.0.13"  d="m 44.233602,-43.149106 0,-4.663477 -2.880228,-3.108985" id="path23290"/>
            <path style="color:#000000;display:inline;overflow:visible;visibility:visible;fill:none;stroke:#8c4405;stroke-width:0.47124746;stroke-linecap:butt;stroke-linejoin:miter;stroke-miterlimit:4;stroke-dasharray:none;stroke-dashoffset:0;stroke-opacity:1;marker:none;enable-background:accumulate" gorn="0.66.0.14"  d="m 45.09767,-43.149106 0,-5.285274 -2.304182,-2.487188" id="path23292"/>
            <path style="color:#000000;display:inline;overflow:visible;visibility:visible;fill:none;stroke:#8c4405;stroke-width:0.47124746;stroke-linecap:butt;stroke-linejoin:miter;stroke-miterlimit:4;stroke-dasharray:none;stroke-dashoffset:0;stroke-opacity:1;marker:none;enable-background:accumulate" gorn="0.66.0.15"  d="m 45.961739,-43.149106 0,-5.907071 -1.728137,-1.865391" id="path23294"/>
            <rect style="opacity:0.82700004;fill:#c87137;fill-opacity:1;fill-rule:evenodd;stroke:none" gorn="0.66.0.16"  height="7.7724624" y="-50.921566" id="rect23234" x="20.327709" width="46.169216"/>
            <rect style="fill:#1a1a1a;fill-opacity:1;fill-rule:evenodd;stroke:none" gorn="0.66.0.17"  height="7.7724624" y="-50.921566" id="rect23261" x="13.317656" width="8.101449"/>
            <rect style="fill:#000000;fill-opacity:1;fill-rule:evenodd;stroke:none" gorn="0.66.0.18"  height="7.7724624" y="-50.921566" id="rect23259" x="61.802994" width="6.042016"/>
            <rect style="fill:#1a1a1a;fill-opacity:1;fill-rule:evenodd;stroke:none" gorn="0.66.0.19"  height="64.872528" y="-127.43539" id="rect23296" x="11.456184" width="57.831356"/>
        </g>
    </g>
</svg>
