<?xml version='1.0' encoding='UTF-8' standalone='no'?>
<!-- Created with Fritzing (http://www.fritzing.org/) -->
<svg xmlns="http://www.w3.org/2000/svg" width="0.7in" version="1.2" gorn="0" x="0in" height="0.75in" id="svg2"  y="0in" viewBox="0 0 50.4 54">
    <desc>
        <referenceFile>Adafruit_BMP280_breadboard.svg</referenceFile>
    </desc>
    <metadata id="metadata500" />
    <defs id="defs498" />
    <desc id="desc4" >Fritzing breadboard generated by brd2svg</desc>
    <g gorn="0.3" id="icon" >
        <path d="m 43.2,54 -36,0 A 7.2,7.2 0 0 1 0,46.8 L 0,7.2 A 7.2,7.2 0 0 1 7.2,0 l 36,0 a 7.2,7.2 0 0 1 7.2,7.2 l 0,39.6 A 7.2,7.2 0 0 1 43.2,54 M 2.18268,46.8 a 1.417325,1.417325 0 1 0 2.83465,0 1.417325,1.417325 0 1 0 -2.83465,0 z m 7.2,0 a 1.417325,1.417325 0 1 0 2.83465,0 1.417325,1.417325 0 1 0 -2.83465,0 z m 7.20002,0 a 1.417325,1.417325 0 1 0 2.83465,0 1.417325,1.417325 0 1 0 -2.83465,0 z m 7.2,0 a 1.417325,1.417325 0 1 0 2.83465,0 1.417325,1.417325 0 1 0 -2.83465,0 z m 7.2,0 a 1.417325,1.417325 0 1 0 2.83465,0 1.417325,1.417325 0 1 0 -2.83465,0 z m 7.2,0 a 1.417325,1.417325 0 1 0 2.83465,0 1.417325,1.417325 0 1 0 -2.83465,0 z m 7.2,0 a 1.417325,1.417325 0 1 0 2.83465,0 1.417325,1.417325 0 1 0 -2.83465,0 z M 4.08189,7.2 a 3.11811,3.11811 0 1 0 6.23622,0 3.11811,3.11811 0 1 0 -6.23622,0 z m 36.00001,0 a 3.11811,3.11811 0 1 0 6.23622,0 3.11811,3.11811 0 1 0 -6.23622,0 z" style="fill:#014cb1;stroke:none;stroke-width:0" gorn="0.3.0" id="path8" />
        <g gorn="0.3.1" id="g10" >
            <title id="title12" >layer 21</title>
            <g gorn="0.3.1.1" id="g14" >
                <title id="title16" >text:BMP280</title>
                <text style="font-size:4.17600012px;font-family:OCRA;text-anchor:start;fill:#ffffff;stroke:none;stroke-width:0" gorn="0.3.1.1.1" x="16.200001" id="text18"  y="6.1199999" font-size="4.176">BMP280</text>
            </g>
            <g gorn="0.3.1.2" id="g20" >
                <title id="title22" >text:VIN</title>
                <text style="font-size:3.34080005px;font-family:OCRA;text-anchor:end;fill:#ffffff;stroke:none;stroke-width:0" gorn="0.3.1.2.1" x="7.5599999" id="text24"  y="44.020802" font-size="3.3408">VIN</text>
            </g>
            <g gorn="0.3.1.3" id="g26" >
                <title id="title28" >text:3Vo</title>
                <text style="font-size:3.34080005px;font-family:OCRA;text-anchor:end;fill:#ffffff;stroke:none;stroke-width:0" gorn="0.3.1.3.1" x="14.4" id="text30"  y="53.380798" font-size="3.3408">3Vo</text>
            </g>
            <g gorn="0.3.1.4" id="g32" >
                <title id="title34" >text:GND</title>
                <text style="font-size:3.34080005px;font-family:OCRA;text-anchor:end;fill:#ffffff;stroke:none;stroke-width:0" gorn="0.3.1.4.1" x="22.32" id="text36"  y="44.020802" font-size="3.3408">GND</text>
            </g>
            <g gorn="0.3.1.5" id="g38" >
                <title id="title40" >text:SCK</title>
                <text style="font-size:3.34080005px;font-family:OCRA;text-anchor:end;fill:#ffffff;stroke:none;stroke-width:0" gorn="0.3.1.5.1" x="29.16" id="text42"  y="53.380798" font-size="3.3408">SCK</text>
            </g>
            <g gorn="0.3.1.6" id="g44" >
                <title id="title46" >text:SDO</title>
                <text style="font-size:3.34080005px;font-family:OCRA;text-anchor:end;fill:#ffffff;stroke:none;stroke-width:0" gorn="0.3.1.6.1" x="36.720001" id="text48"  y="44.020802" font-size="3.3408">SDO</text>
            </g>
            <g gorn="0.3.1.7" id="g50" >
                <title id="title52" >text:SDI</title>
                <text style="font-size:3.34080005px;font-family:OCRA;text-anchor:end;fill:#ffffff;stroke:none;stroke-width:0" gorn="0.3.1.7.1" x="43.200001" id="text54"  y="53.380798" font-size="3.3408">SDI</text>
            </g>
            <g gorn="0.3.1.8" id="g56" >
                <title id="title58" >text:CS</title>
                <text style="font-size:3.34080005px;font-family:OCRA;text-anchor:end;fill:#ffffff;stroke:none;stroke-width:0" gorn="0.3.1.8.1" x="49.68" id="text60"  y="44.020802" font-size="3.3408">CS</text>
            </g>
            <g gorn="0.3.1.9" id="g62" >
                <title id="title64" >text:Pressure &amp;
Temp Sensor</title>
                <g transform="translate(0,-1.58688)" >
                    <g gorn="0.3.1.9.1.0" id="g66" >
                        <text style="font-size:3.17375994px;font-family:OCRA;text-anchor:middle;fill:#ffffff;stroke:none;stroke-width:0" gorn="0.3.1.9.1.0.0" x="25.92" id="text68"  y="12.3869" font-size="3.17376">Pressure &amp;</text>
                    </g>
                </g>
                <g transform="translate(0,1.58688)" >
                    <g gorn="0.3.1.9.2.0" id="g70" >
                        <text style="font-size:3.17375994px;font-family:OCRA;text-anchor:middle;fill:#ffffff;stroke:none;stroke-width:0" gorn="0.3.1.9.2.0.0" x="25.92" id="text72"  y="12.3869" font-size="3.17376">Temp Sensor</text>
                    </g>
                </g>
            </g>
            <g gorn="0.3.1.10" id="g74" >
                <title id="title76" >element:C1</title>
                <g gorn="0.3.1.10.1" id="g78" >
                    <title id="title80" >package:0805-NO</title>
                    <line style="stroke:#ffffff;stroke-width:0.86400002;stroke-linecap:round" x2="6.48" gorn="0.3.1.10.1.1" id="line82" x1="6.48" y1="36"  y2="38.880001"/>
                </g>
            </g>
            <g gorn="0.3.1.11" id="g84" >
                <title id="title86" >element:C3</title>
                <g gorn="0.3.1.11.1" id="g88" >
                    <title id="title90" >package:0805-NO</title>
                    <line style="stroke:#ffffff;stroke-width:0.86400002;stroke-linecap:round" x2="6.8400002" gorn="0.3.1.11.1.1" id="line92" x1="6.8400002" y1="18.360001"  y2="21.24"/>
                </g>
            </g>
            <g gorn="0.3.1.12" id="g94" >
                <title id="title96" >element:D2</title>
                <g gorn="0.3.1.12.1" id="g98" >
                    <title id="title100" >package:SOD-323</title>
                    <line style="stroke:#ffffff;stroke-width:0.57599998;stroke-linecap:round" x2="36.045399" gorn="0.3.1.12.1.1" id="line102" x1="41.7146" y1="23.5842"  y2="23.5842"/>
                    <line style="stroke:#ffffff;stroke-width:0.57599998;stroke-linecap:round" x2="41.7146" gorn="0.3.1.12.1.2" id="line104" x1="36.045399" y1="19.615801"  y2="19.615801"/>
                    <line style="stroke:#ffffff;stroke-width:0.57599998;stroke-linecap:round" x2="37.887798" gorn="0.3.1.12.1.3" id="line106" x1="39.588699" y1="21.6"  y2="22.7339"/>
                    <line style="stroke:#ffffff;stroke-width:0.57599998;stroke-linecap:round" x2="37.887798" gorn="0.3.1.12.1.4" id="line108" x1="37.887798" y1="22.7339"  y2="20.466101"/>
                    <line style="stroke:#ffffff;stroke-width:0.57599998;stroke-linecap:round" x2="39.588699" gorn="0.3.1.12.1.5" id="line110" x1="37.887798" y1="20.466101"  y2="21.6"/>
                    <g gorn="0.3.1.12.1.6" id="g112" >
                        <title id="title114" >polygon</title>
                        <path d="m 39.1635,21.6 -0.8504,0.5669 0,-1.1338 0.8504,0.5669 -0.8504,0 0.8504,0" style="fill:none;stroke:#ffffff;stroke-width:0.57599998;stroke-linecap:round" gorn="0.3.1.12.1.6.1" id="path116" />
                    </g>
                </g>
            </g>
            <g gorn="0.3.1.13" id="g118" >
                <title id="title120" >element:JP2</title>
                <g gorn="0.3.1.13.1" id="g122" >
                    <title id="title124" >package:1X07_ROUND_70</title>
                </g>
            </g>
            <g gorn="0.3.1.14" id="g126" >
                <title id="title128" >element:Q3</title>
                <g gorn="0.3.1.14.1" id="g130" >
                    <title id="title132" >package:SOT23-WIDE</title>
                    <line style="stroke:#ffffff;stroke-width:0.57599998;stroke-linecap:round" x2="27.780701" gorn="0.3.1.14.1.1" id="line134" x1="27.780701" y1="34.1507"  y2="37.872002"/>
                    <line style="stroke:#ffffff;stroke-width:0.57599998;stroke-linecap:round" x2="25.062799" gorn="0.3.1.14.1.2" id="line136" x1="27.780701" y1="37.872002"  y2="37.872002"/>
                    <line style="stroke:#ffffff;stroke-width:0.57599998;stroke-linecap:round" x2="18.299299" gorn="0.3.1.14.1.3" id="line138" x1="18.299299" y1="37.872002"  y2="34.1507"/>
                    <line style="stroke:#ffffff;stroke-width:0.57599998;stroke-linecap:round" x2="18.299299" gorn="0.3.1.14.1.4" id="line140" x1="21.0172" y1="37.872002"  y2="37.872002"/>
                    <line style="stroke:#ffffff;stroke-width:0.57599998;stroke-linecap:round" x2="23.7101" gorn="0.3.1.14.1.5" id="line142" x1="22.409599" y1="34.127998"  y2="34.127998"/>
                </g>
            </g>
            <g gorn="0.3.1.15" id="g144" >
                <title id="title146" >element:Q4</title>
                <g gorn="0.3.1.15.1" id="g148" >
                    <title id="title150" >package:SOT23-WIDE</title>
                    <line style="stroke:#ffffff;stroke-width:0.57599998;stroke-linecap:round" x2="44.700699" gorn="0.3.1.15.1.1" id="line152" x1="44.700699" y1="33.070702"  y2="36.792"/>
                    <line style="stroke:#ffffff;stroke-width:0.57599998;stroke-linecap:round" x2="41.9828" gorn="0.3.1.15.1.2" id="line154" x1="44.700699" y1="36.792"  y2="36.792"/>
                    <line style="stroke:#ffffff;stroke-width:0.57599998;stroke-linecap:round" x2="35.219299" gorn="0.3.1.15.1.3" id="line156" x1="35.219299" y1="36.792"  y2="33.070702"/>
                    <line style="stroke:#ffffff;stroke-width:0.57599998;stroke-linecap:round" x2="35.219299" gorn="0.3.1.15.1.4" id="line158" x1="37.937199" y1="36.792"  y2="36.792"/>
                    <line style="stroke:#ffffff;stroke-width:0.57599998;stroke-linecap:round" x2="40.6301" gorn="0.3.1.15.1.5" id="line160" x1="39.329601" y1="33.048"  y2="33.048"/>
                </g>
            </g>
            <g gorn="0.3.1.16" id="g162" >
                <title id="title164" >element:R1</title>
                <g gorn="0.3.1.16.1" id="g166" >
                    <title id="title168" >package:0805-NO</title>
                    <line style="stroke:#ffffff;stroke-width:0.86400002;stroke-linecap:round" x2="39.959999" gorn="0.3.1.16.1.1" id="line170" x1="39.959999" y1="25.559999"  y2="28.440001"/>
                </g>
            </g>
            <g gorn="0.3.1.17" id="g172" >
                <title id="title174" >element:R2</title>
                <g gorn="0.3.1.17.1" id="g176" >
                    <title id="title178" >package:0805-NO</title>
                    <line style="stroke:#ffffff;stroke-width:0.86400002;stroke-linecap:round" x2="23.040001" gorn="0.3.1.17.1.1" id="line180" x1="23.040001" y1="27"  y2="29.879999"/>
                </g>
            </g>
            <g gorn="0.3.1.18" id="g182" >
                <title id="title184" >element:R4</title>
                <g gorn="0.3.1.18.1" id="g186" >
                    <title id="title188" >package:_0805MP</title>
                    <line style="stroke:#ffffff;stroke-width:0.57599998;stroke-linecap:round" x2="13.32" gorn="0.3.1.18.1.1" id="line190" x1="16.200001" y1="22.68"  y2="22.68"/>
                </g>
            </g>
            <g gorn="0.3.1.19" id="g192" >
                <title id="title194" >element:R7</title>
                <g gorn="0.3.1.19.1" id="g196" >
                    <title id="title198" >package:0805-NO</title>
                    <line style="stroke:#ffffff;stroke-width:0.86400002;stroke-linecap:round" x2="16.200001" gorn="0.3.1.19.1.1" id="line200" x1="13.32" y1="35.279999"  y2="35.279999"/>
                </g>
            </g>
            <g gorn="0.3.1.20" id="g202" >
                <title id="title204" >element:R8</title>
                <g gorn="0.3.1.20.1" id="g206" >
                    <title id="title208" >package:0805-NO</title>
                    <line style="stroke:#ffffff;stroke-width:0.86400002;stroke-linecap:round" x2="32.400002" gorn="0.3.1.20.1.1" id="line210" x1="29.52" y1="35.279999"  y2="35.279999"/>
                </g>
            </g>
            <g gorn="0.3.1.21" id="g212" >
                <title id="title214" >element:U$2</title>
                <g gorn="0.3.1.21.1" id="g216" >
                    <title id="title218" >package:ADAFRUIT_2.5MM</title>
                </g>
            </g>
            <g gorn="0.3.1.22" id="g220" >
                <title id="title222" >element:U$5</title>
                <g gorn="0.3.1.22.1" id="g224" >
                    <title id="title226" >package:FIDUCIAL_1MM</title>
                </g>
            </g>
            <g gorn="0.3.1.23" id="g228" >
                <title id="title230" >element:U$6</title>
                <g gorn="0.3.1.23.1" id="g232" >
                    <title id="title234" >package:ADAFRUIT_2.5MM</title>
                </g>
            </g>
            <g gorn="0.3.1.24" id="g236" >
                <title id="title238" >element:U$7</title>
                <g gorn="0.3.1.24.1" id="g240" >
                    <title id="title242" >package:MOUNTINGHOLE_2.0_PLATED</title>
                    <circle style="fill:none;stroke:#ffffff;stroke-width:0.57599998" cy="7.1999998" gorn="0.3.1.24.1.1" id="circle244"  r="5.1023598" cx="7.1999998"/>
                </g>
            </g>
            <g gorn="0.3.1.25" id="g246" >
                <title id="title248" >element:U$8</title>
                <g gorn="0.3.1.25.1" id="g250" >
                    <title id="title252" >package:MOUNTINGHOLE_2.0_PLATED</title>
                    <circle style="fill:none;stroke:#ffffff;stroke-width:0.57599998" cy="7.1999998" gorn="0.3.1.25.1.1" id="circle254"  r="5.1023598" cx="43.200001"/>
                </g>
            </g>
            <g gorn="0.3.1.26" id="g256" >
                <title id="title258" >element:U$15</title>
                <g gorn="0.3.1.26.1" id="g260" >
                    <title id="title262" >package:FIDUCIAL_1MM</title>
                </g>
            </g>
            <g gorn="0.3.1.27" id="g264" >
                <title id="title266" >element:U$20</title>
                <g gorn="0.3.1.27.1" id="g268" >
                    <title id="title270" >package:PCBFEAT-REV-040</title>
                </g>
            </g>
            <g gorn="0.3.1.28" id="g272" >
                <title id="title274" >element:U1</title>
                <g gorn="0.3.1.28.1" id="g276" >
                    <title id="title278" >package:BME280</title>
                    <line style="stroke:#ffffff;stroke-width:0.36000001;stroke-linecap:round" x2="29.0268" gorn="0.3.1.28.1.1" id="line280" x1="29.0268" y1="14.8932"  y2="22.546801"/>
                    <line style="stroke:#ffffff;stroke-width:0.36000001;stroke-linecap:round" x2="21.373199" gorn="0.3.1.28.1.2" id="line282" x1="21.373199" y1="14.8932"  y2="22.546801"/>
                    <circle style="fill:none;stroke:#ffffff;stroke-width:0.99212402" cy="24.247601" gorn="0.3.1.28.1.3" id="circle284"  r="0.56692898" cx="28.034599"/>
                </g>
            </g>
            <g gorn="0.3.1.29" id="g286" >
                <title id="title288" >element:U2</title>
                <g gorn="0.3.1.29.1" id="g290" >
                    <title id="title292" >package:SOT23-5</title>
                    <line style="stroke:#ffffff;stroke-width:0.57599998;stroke-linecap:round" x2="2.1628399" gorn="0.3.1.29.1.1" id="line294" x1="2.1628399" y1="26.1723"  y2="30.707701"/>
                    <line style="stroke:#ffffff;stroke-width:0.57599998;stroke-linecap:round" x2="11.5172" gorn="0.3.1.29.1.2" id="line296" x1="11.5172" y1="26.1723"  y2="30.707701"/>
                    <line style="stroke:#ffffff;stroke-width:0.57599998;stroke-linecap:round" x2="7.9738598" gorn="0.3.1.29.1.3" id="line298" x1="5.70614" y1="25.4636"  y2="25.4636"/>
                </g>
            </g>
        </g>
        <rect width="3.68504" style="fill:#9a916c;stroke:none;stroke-width:0" gorn="0.3.2" x="1.9445699" id="connector0pin" height="4.2519698"  y="35.313999"/>
        <rect width="3.68504" style="fill:#9a916c;stroke:none;stroke-width:0" gorn="0.3.3" x="7.33039" id="connector1pin" height="4.2519698"  y="35.313999"/>
        <rect width="3.68504" style="fill:#9a916c;stroke:none;stroke-width:0" gorn="0.3.4" x="2.30457" id="connector2pin" height="4.2519698"  y="17.674"/>
        <rect width="3.68504" style="fill:#9a916c;stroke:none;stroke-width:0" gorn="0.3.5" x="7.6903901" id="connector3pin" height="4.2519698"  y="17.674"/>
        <g transform="matrix(-1,0,0,-1,70.56,43.2)" >
            <g gorn="0.3.6.0" id="g304" >
                <rect width="3.8267701" style="fill:#9a916c;stroke:none;stroke-width:0" gorn="0.3.6.0.0" x="33.3666" id="connector4pin" height="2.26772"  y="20.466101"/>
            </g>
        </g>
        <g transform="matrix(-1,0,0,-1,84.96,43.2)" >
            <g gorn="0.3.7.0" id="g307" >
                <rect width="3.8267701" style="fill:#9a916c;stroke:none;stroke-width:0" gorn="0.3.7.0.0" x="40.566601" id="connector5pin" height="2.26772"  y="20.466101"/>
            </g>
        </g>
        <circle style="fill:none;stroke:#9a916c;stroke-width:1.10267997" cy="46.799999" gorn="0.3.8" id="connector6pin"  r="1.96866" connectorname="VIN" cx="3.5999999"/>
        <circle style="fill:none;stroke:#9a916c;stroke-width:1.10267997" cy="46.799999" gorn="0.3.9" id="connector7pin"  r="1.96866" connectorname="3.3V" cx="10.8"/>
        <circle style="fill:none;stroke:#9a916c;stroke-width:1.10267997" cy="46.799999" gorn="0.3.10" id="connector8pin"  r="1.96866" connectorname="GND" cx="18"/>
        <circle style="fill:none;stroke:#9a916c;stroke-width:1.10267997" cy="46.799999" gorn="0.3.11" id="connector9pin"  r="1.96866" connectorname="SCK/SCL" cx="25.200001"/>
        <circle style="fill:none;stroke:#9a916c;stroke-width:1.10267997" cy="46.799999" gorn="0.3.12" id="connector10pin"  r="1.96866" connectorname="SDO/ADR" cx="32.400002"/>
        <circle style="fill:none;stroke:#9a916c;stroke-width:1.10267997" cy="46.799999" gorn="0.3.13" id="connector11pin"  r="1.96866" connectorname="SDI/SDA" cx="39.599998"/>
        <circle style="fill:none;stroke:#9a916c;stroke-width:1.10267997" cy="46.799999" gorn="0.3.14" id="connector12pin"  r="1.96866" connectorname="CS" cx="46.799999"/>
        <g transform="matrix(-1,0,0,-1,51.4658,66.3307)" >
            <g gorn="0.3.15.0" id="g317" >
                <rect width="2.83465" style="fill:#9a916c;stroke:none;stroke-width:0" gorn="0.3.15.0.0" x="24.315599" id="connector13pin" height="3.4015801"  y="31.4646"/>
            </g>
        </g>
        <g transform="matrix(-1,0,0,-1,40.6942,66.3307)" >
            <g gorn="0.3.16.0" id="g320" >
                <rect width="2.83465" style="fill:#9a916c;stroke:none;stroke-width:0" gorn="0.3.16.0.0" x="18.929701" id="connector14pin" height="3.4015801"  y="31.4646"/>
            </g>
        </g>
        <g transform="matrix(-1,0,0,-1,46.08,77.6693)" >
            <g gorn="0.3.17.0" id="g323" >
                <rect width="2.83465" style="fill:#9a916c;stroke:none;stroke-width:0" gorn="0.3.17.0.0" x="21.6227" id="connector15pin" height="3.4015801"  y="37.1339"/>
            </g>
        </g>
        <g transform="matrix(-1,0,0,-1,85.3056,64.1707)" >
            <g gorn="0.3.18.0" id="g326" >
                <rect width="2.83465" style="fill:#9a916c;stroke:none;stroke-width:0" gorn="0.3.18.0.0" x="41.2356" id="connector16pin" height="3.4015801"  y="30.3846"/>
            </g>
        </g>
        <g transform="matrix(-1,0,0,-1,74.5344,64.1707)" >
            <g gorn="0.3.19.0" id="g329" >
                <rect width="2.83465" style="fill:#9a916c;stroke:none;stroke-width:0" gorn="0.3.19.0.0" x="35.849701" id="connector17pin" height="3.4015801"  y="30.3846"/>
            </g>
        </g>
        <g transform="matrix(-1,0,0,-1,79.92,75.5093)" >
            <g gorn="0.3.20.0" id="g332" >
                <rect width="2.83465" style="fill:#9a916c;stroke:none;stroke-width:0" gorn="0.3.20.0.0" x="38.542702" id="connector18pin" height="3.4015801"  y="36.053902"/>
            </g>
        </g>
        <rect width="3.68504" style="fill:#9a916c;stroke:none;stroke-width:0" gorn="0.3.21" x="35.424599" id="connector19pin" height="4.2519698"  y="24.874001"/>
        <rect width="3.68504" style="fill:#9a916c;stroke:none;stroke-width:0" gorn="0.3.22" x="40.810398" id="connector20pin" height="4.2519698"  y="24.874001"/>
        <rect width="3.68504" style="fill:#9a916c;stroke:none;stroke-width:0" gorn="0.3.23" x="18.504601" id="connector21pin" height="4.2519698"  y="26.313999"/>
        <rect width="3.68504" style="fill:#9a916c;stroke:none;stroke-width:0" gorn="0.3.24" x="23.8904" id="connector22pin" height="4.2519698"  y="26.313999"/>
        <g transform="matrix(0,1,-1,0,34.56,5.04)" >
            <g gorn="0.3.25.0" id="g339" >
                <rect width="3.4015801" style="fill:#9a916c;stroke:none;stroke-width:0" gorn="0.3.25.0.0" x="13.0592" id="connector23pin" height="3.68504"  y="17.957399"/>
            </g>
        </g>
        <g transform="matrix(0,1,-1,0,40.32,10.8)" >
            <g gorn="0.3.26.0" id="g342" >
                <rect width="3.4015801" style="fill:#9a916c;stroke:none;stroke-width:0" gorn="0.3.26.0.0" x="13.0592" id="connector24pin" height="3.68504"  y="23.7174"/>
            </g>
        </g>
        <g transform="matrix(0,-1,1,0,-23.2129,52.7329)" >
            <g gorn="0.3.27.0" id="g345" >
                <rect width="3.68504" style="fill:#9a916c;stroke:none;stroke-width:0" gorn="0.3.27.0.0" x="12.9174" id="connector25pin" height="4.2519698"  y="35.846901"/>
            </g>
        </g>
        <g transform="matrix(0,-1,1,0,-17.8271,47.3471)" >
            <g gorn="0.3.28.0" id="g348" >
                <rect width="3.68504" style="fill:#9a916c;stroke:none;stroke-width:0" gorn="0.3.28.0.0" x="12.9174" id="connector26pin" height="4.2519698"  y="30.4611"/>
            </g>
        </g>
        <g transform="matrix(0,-1,1,0,-7.01292,68.9329)" >
            <g gorn="0.3.29.0" id="g351" >
                <rect width="3.68504" style="fill:#9a916c;stroke:none;stroke-width:0" gorn="0.3.29.0.0" x="29.117399" id="connector27pin" height="4.2519698"  y="35.846901"/>
            </g>
        </g>
        <g transform="matrix(0,-1,1,0,-1.62708,63.5471)" >
            <g gorn="0.3.30.0" id="g354" >
                <rect width="3.68504" style="fill:#9a916c;stroke:none;stroke-width:0" gorn="0.3.30.0.0" x="29.117399" id="connector28pin" height="4.2519698"  y="30.4611"/>
            </g>
        </g>
        <rect width="2.83465" style="fill:#9a916c;stroke:none;stroke-width:0" gorn="0.3.31" x="1.46268" id="connector29pin" height="2.83465"  y="12.9827" rx="1.41732" ry="1.41732"/>
        <circle style="fill:none;stroke:#9a916c;stroke-width:1.44000006" cy="7.1999998" gorn="0.3.32" id="connector30pin"  r="3.83811" connectorname="P$1" cx="7.1999998"/>
        <circle style="fill:none;stroke:#9a916c;stroke-width:1.44000006" cy="7.1999998" gorn="0.3.33" id="connector31pin"  r="3.83811" connectorname="P$1" cx="43.200001"/>
        <rect width="2.83465" style="fill:#9a916c;stroke:none;stroke-width:0" gorn="0.3.34" x="46.4627" id="connector32pin" height="2.83465"  y="35.662701" rx="1.41732" ry="1.41732"/>
        <g transform="matrix(0,1,-1,0,49.5893,-6.33827)" >
            <g gorn="0.3.35.0" id="g361" >
                <rect width="1.98426" style="fill:#9a916c;stroke:none;stroke-width:0" gorn="0.3.35.0.0" x="26.9716" id="connector33pin" height="0.99212402"  y="21.129499"/>
            </g>
        </g>
        <g transform="matrix(0,1,-1,0,47.7468,-4.49574)" >
            <g gorn="0.3.36.0" id="g364" >
                <rect width="1.98426" style="fill:#9a916c;stroke:none;stroke-width:0" gorn="0.3.36.0.0" x="25.1292" id="connector34pin" height="0.99212402"  y="21.129499"/>
            </g>
        </g>
        <g transform="matrix(0,1,-1,0,45.9042,-2.65323)" >
            <g gorn="0.3.37.0" id="g367" >
                <rect width="1.98426" style="fill:#9a916c;stroke:none;stroke-width:0" gorn="0.3.37.0.0" x="23.2866" id="connector35pin" height="0.99212402"  y="21.129499"/>
            </g>
        </g>
        <g transform="matrix(0,1,-1,0,44.0618,-0.810706)" >
            <g gorn="0.3.38.0" id="g370" >
                <rect width="1.98426" style="fill:#9a916c;stroke:none;stroke-width:0" gorn="0.3.38.0.0" x="21.444099" id="connector36pin" height="0.99212402"  y="21.129499"/>
            </g>
        </g>
        <g transform="matrix(0,1,-1,0,38.2507,-6.62173)" >
            <g gorn="0.3.39.0" id="g373" >
                <rect width="1.98426" style="fill:#9a916c;stroke:none;stroke-width:0" gorn="0.3.39.0.0" x="21.444099" id="connector37pin" height="0.99212402"  y="15.3184"/>
            </g>
        </g>
        <g transform="matrix(0,1,-1,0,40.0932,-8.46425)" >
            <g gorn="0.3.40.0" id="g376" >
                <rect width="1.98426" style="fill:#9a916c;stroke:none;stroke-width:0" gorn="0.3.40.0.0" x="23.2866" id="connector38pin" height="0.99212402"  y="15.3184"/>
            </g>
        </g>
        <g transform="matrix(0,1,-1,0,41.9358,-10.3068)" >
            <g gorn="0.3.41.0" id="g379" >
                <rect width="1.98426" style="fill:#9a916c;stroke:none;stroke-width:0" gorn="0.3.41.0.0" x="25.1292" id="connector39pin" height="0.99212402"  y="15.3184"/>
            </g>
        </g>
        <g transform="matrix(0,1,-1,0,43.7782,-12.1493)" >
            <g gorn="0.3.42.0" id="g382" >
                <rect width="1.98426" style="fill:#9a916c;stroke:none;stroke-width:0" gorn="0.3.42.0.0" x="26.9716" id="connector40pin" height="0.99212402"  y="15.3184"/>
            </g>
        </g>
        <rect width="1.55905" style="fill:#9a916c;stroke:none;stroke-width:0" gorn="0.3.43" x="3.3675599" id="connector41pin" height="3.4015801"  y="30.4245"/>
        <rect width="1.55905" style="fill:#9a916c;stroke:none;stroke-width:0" gorn="0.3.44" x="6.0604701" id="connector42pin" height="3.4015801"  y="30.4245"/>
        <rect width="1.55905" style="fill:#9a916c;stroke:none;stroke-width:0" gorn="0.3.45" x="8.7533998" id="connector43pin" height="3.4015801"  y="30.4245"/>
        <rect width="1.55905" style="fill:#9a916c;stroke:none;stroke-width:0" gorn="0.3.46" x="8.7533998" id="connector44pin" height="3.4015801"  y="23.0539"/>
        <rect width="1.55905" style="fill:#9a916c;stroke:none;stroke-width:0" gorn="0.3.47" x="3.3675599" id="connector45pin" height="3.4015801"  y="23.0539"/>
    </g>
    <g transform="translate(3.6455,35.6685)" >
        <g gorn="0.4.0" id="0805-cap" >
            <path d="m 5.386,3.543 -5.103,0 C 0.127,3.543 0,3.416 0,3.26 L 0,0.283 C 0,0.127 0.127,0 0.283,0 l 5.102,0 c 0.157,0 0.283,0.127 0.283,0.283 l 0,2.977 C 5.669,3.416 5.542,3.543 5.386,3.543 Z" style="fill:#dcdcdc" gorn="0.4.0.0" id="path391" />
            <rect width="3.543" style="fill:#6e554b" gorn="0.4.0.1" x="1.063" id="rect393" height="3.543"  y="0"/>
        </g>
    </g>
    <g transform="translate(4.0055,18.0285)" >
        <g gorn="0.5.0" id="g395" >
            <path d="m 5.386,3.543 -5.103,0 C 0.127,3.543 0,3.416 0,3.26 L 0,0.283 C 0,0.127 0.127,0 0.283,0 l 5.102,0 c 0.157,0 0.283,0.127 0.283,0.283 l 0,2.977 C 5.669,3.416 5.542,3.543 5.386,3.543 Z" style="fill:#dcdcdc" gorn="0.5.0.0" id="path397" />
            <rect width="3.543" style="fill:#6e554b" gorn="0.5.0.1" x="1.063" id="rect399" height="3.543"  y="0"/>
        </g>
    </g>
    <g transform="translate(35.3365,19.8285)" >
        <g gorn="0.6.0" id="sod-323" >
            <g transform="matrix(-1,0,0,-1,7.087,3.543)" >
                <g gorn="0.6.0.0.0" id="g402" >
                    <rect width="7.0869999" style="fill:#dcdcdc" gorn="0.6.0.0.0.0" x="0" id="rect404" height="0.850003"  y="1.346"/>
                    <rect width="4.8189998" style="fill:#303030" gorn="0.6.0.0.0.1" x="1.1339999" id="rect406" height="3.543"  y="0"/>
                </g>
            </g>
        </g>
    </g>
    <g transform="translate(18.788,32.173)" >
        <g gorn="0.7.0" id="sot23-wide" >
            <g transform="matrix(-1,0,0,-1,8.50399,7.65403)" >
                <g gorn="0.7.0.0.0" id="g409" >
                    <g gorn="0.7.0.0.0.0" id="g411" >
                        <rect width="1.4170001" style="fill:#dcdcdc" gorn="0.7.0.0.0.0.0" x="0.850003" id="rect413" height="2.9760001"  y="4.677"/>
                        <rect width="1.4170001" style="fill:#dcdcdc" gorn="0.7.0.0.0.0.1" x="6.2360001" id="rect415" height="2.9760001"  y="4.677"/>
                        <rect width="1.4170001" style="fill:#dcdcdc" gorn="0.7.0.0.0.0.2" x="3.543" id="rect417" height="3.118"  y="0"/>
                        <rect width="8.5039902" style="fill:#303030" gorn="0.7.0.0.0.0.3" x="0" id="rect419" height="3.6849999"  y="1.984"/>
                    </g>
                </g>
            </g>
        </g>
    </g>
    <g transform="translate(35.708,31.093)" >
        <g gorn="0.8.0" id="g421" >
            <g transform="matrix(-1,0,0,-1,8.50399,7.65403)" >
                <g gorn="0.8.0.0.0" id="g423" >
                    <g gorn="0.8.0.0.0.0" id="g425" >
                        <rect width="1.4170001" style="fill:#dcdcdc" gorn="0.8.0.0.0.0.0" x="0.850003" id="rect427" height="2.9760001"  y="4.677"/>
                        <rect width="1.4170001" style="fill:#dcdcdc" gorn="0.8.0.0.0.0.1" x="6.2360001" id="rect429" height="2.9760001"  y="4.677"/>
                        <rect width="1.4170001" style="fill:#dcdcdc" gorn="0.8.0.0.0.0.2" x="3.543" id="rect431" height="3.118"  y="0"/>
                        <rect width="8.5039902" style="fill:#303030" gorn="0.8.0.0.0.0.3" x="0" id="rect433" height="3.6849999"  y="1.984"/>
                    </g>
                </g>
            </g>
        </g>
    </g>
    <g transform="translate(37.1255,25.2285)" >
        <g gorn="0.9.0" id="0805-res" >
            <path d="m 5.386,3.543 -5.103,0 C 0.127,3.543 0,3.416 0,3.26 L 0,0.283 C 0,0.127 0.127,0 0.283,0 l 5.102,0 c 0.157,0 0.283,0.127 0.283,0.283 l 0,2.977 C 5.669,3.416 5.542,3.543 5.386,3.543 Z" style="fill:#dcdcdc" gorn="0.9.0.0" id="path436" />
            <rect width="3.543" style="fill:#333333" gorn="0.9.0.1" x="1.063" id="rect438" height="3.543"  y="0"/>
        </g>
    </g>
    <g transform="translate(20.2055,26.6685)" >
        <g gorn="0.10.0" id="g440" >
            <path d="m 5.386,3.543 -5.103,0 C 0.127,3.543 0,3.416 0,3.26 L 0,0.283 C 0,0.127 0.127,0 0.283,0 l 5.102,0 c 0.157,0 0.283,0.127 0.283,0.283 l 0,2.977 C 5.669,3.416 5.542,3.543 5.386,3.543 Z" style="fill:#dcdcdc" gorn="0.10.0.0" id="path442" />
            <rect width="3.543" style="fill:#333333" gorn="0.10.0.1" x="1.063" id="rect444" height="3.543"  y="0"/>
        </g>
    </g>
    <g transform="translate(11.9255,20.9085)" >
        <g gorn="0.11.0" id="g446" >
            <g transform="matrix(0,1,-1,0,4.606,-1.063)" >
                <g gorn="0.11.0.0.0" id="g448" >
                    <path d="m 5.386,3.543 -5.103,0 C 0.127,3.543 0,3.416 0,3.26 L 0,0.283 C 0,0.127 0.127,0 0.283,0 l 5.102,0 c 0.157,0 0.283,0.127 0.283,0.283 l 0,2.977 C 5.669,3.416 5.542,3.543 5.386,3.543 Z" style="fill:#dcdcdc" gorn="0.11.0.0.0.0" id="path450" />
                    <rect width="3.543" style="fill:#333333" gorn="0.11.0.0.0.1" x="1.063" id="rect452" height="3.543"  y="0"/>
                </g>
            </g>
        </g>
    </g>
    <g transform="translate(11.9255,33.5085)" >
        <g gorn="0.12.0" id="g454" >
            <g transform="matrix(0,-1,1,0,1.063,4.606)" >
                <g gorn="0.12.0.0.0" id="g456" >
                    <path d="m 5.386,3.543 -5.103,0 C 0.127,3.543 0,3.416 0,3.26 L 0,0.283 C 0,0.127 0.127,0 0.283,0 l 5.102,0 c 0.157,0 0.283,0.127 0.283,0.283 l 0,2.977 C 5.669,3.416 5.542,3.543 5.386,3.543 Z" style="fill:#dcdcdc" gorn="0.12.0.0.0.0" id="path458" />
                    <rect width="3.543" style="fill:#333333" gorn="0.12.0.0.0.1" x="1.063" id="rect460" height="3.543"  y="0"/>
                </g>
            </g>
        </g>
    </g>
    <g transform="translate(28.1255,33.5085)" >
        <g gorn="0.13.0" id="g462" >
            <g transform="matrix(0,-1,1,0,1.063,4.606)" >
                <g gorn="0.13.0.0.0" id="g464" >
                    <path d="m 5.386,3.543 -5.103,0 C 0.127,3.543 0,3.416 0,3.26 L 0,0.283 C 0,0.127 0.127,0 0.283,0 l 5.102,0 c 0.157,0 0.283,0.127 0.283,0.283 l 0,2.977 C 5.669,3.416 5.542,3.543 5.386,3.543 Z" style="fill:#dcdcdc" gorn="0.13.0.0.0.0" id="path466" />
                    <rect width="3.543" style="fill:#333333" gorn="0.13.0.0.0.1" x="1.063" id="rect468" height="3.543"  y="0"/>
                </g>
            </g>
        </g>
    </g>
    <g transform="translate(40.6821,11.8263)" >
        <g gorn="0.14.0" id="adafruit_2.5mm" >
            <path d="M 9.747,3.082 C 9.724,2.94 9.647,2.899 9.461,2.839 9.31903,2.794 8.37202,2.492 8.37202,2.492 c 0,0 -0.66,-0.249 -1.15,0.103 C 7.156,2.643 7.088,2.697 7.019,2.755 7.077,2.686 7.131,2.618 7.178,2.552 7.53,2.062 7.279,1.402 7.279,1.402 7.279,1.402 6.976,0.455 6.93,0.313 6.87,0.127 6.83,0.05 6.687,0.028 6.545,0.005 6.483,0.066 6.369,0.225 6.282,0.345 5.702,1.153 5.702,1.153 c 0,0 -0.441,0.551 -0.257,1.126 C 5.47,2.356 5.5,2.438 5.534,2.521 5.486,2.445 5.438,2.372 5.39,2.307 5.032,1.821 4.328,1.855 4.328,1.855 c 0,0 -0.995,-0.004 -1.143,-0.004 -0.195,0 -0.281,0.014 -0.347,0.143 -0.065,0.128 -0.027,0.206 0.089,0.364 0.088,0.12 0.677,0.921002 0.677,0.921002 0,0 0.388,0.59 0.991001,0.592 0.081,0 0.168,-0.003 0.257,-0.01 C 4.765,3.883 4.681,3.907 4.604,3.932 4.031,4.122 3.845998,4.802998 3.845998,4.802998 3.845998,4.802998 3.536,5.747 3.489,5.888 3.428,6.074 3.416,6.16 3.518,6.262 3.62,6.364 3.706,6.352 3.892,6.29 4.033,6.244 4.977,5.931 4.977,5.931 c 0,0 0.681,-0.187 0.868997,-0.760003 0.025,-0.077 0.049,-0.16 0.07,-0.247 C 5.91,5.014 5.907,5.1 5.907,5.181 c 0.004,0.603 0.594,0.99 0.594,0.99 0,0 0.802001,0.588 0.922003,0.675 C 7.58102,6.962 7.659,7 7.78802,6.935 7.91597,6.869 7.93102,6.783 7.93001,6.588 7.929,6.439 7.92403,5.445 7.92403,5.445 7.92403,5.445 7.95701,4.74 7.47,4.383 7.40498,4.335 7.33198,4.287 7.25602,4.24 c 0.083,0.034 0.165,0.064 0.242,0.088 0.575,0.183 1.125,-0.259 1.125,-0.259 0,0 0.80696,-0.5809998 0.92699,-0.6679998 C 9.70898,3.286 9.76903,3.224 9.747,3.082 Z M 6.322,2.35 C 6.43,2.367 6.484,2.598 6.442,2.865 6.4,3.132 6.278,3.335 6.169,3.318 6.061,3.301 6.007,3.07 6.049,2.803 6.091,2.535 6.213,2.332 6.322,2.35 Z M 4.933,3.059 C 4.983,2.961 5.219,2.981 5.46,3.104 5.701,3.227 5.857,3.406 5.807,3.503 5.757,3.601 5.521,3.581 5.28,3.458 5.038,3.335 4.883,3.157 4.933,3.059 Z M 5.665,4.393 C 5.474,4.584 5.256,4.677 5.178,4.599 5.101,4.521 5.193,4.303 5.384,4.112 5.575,3.92 5.793,3.827 5.871,3.905 5.949,3.983 5.857,4.201 5.665,4.393 Z M 6.719,4.842 C 6.6210001,4.892 6.442,4.737 6.319,4.496 6.196,4.254 6.175,4.018 6.273,3.968 6.371,3.918 6.55,4.073 6.673,4.314 6.796,4.556 6.817,4.792 6.719,4.842 Z M 6.973,3.725 C 6.706,3.767 6.475,3.714 6.457,3.606 6.44,3.497 6.643,3.375 6.91,3.332 7.177,3.289 7.408,3.343 7.425,3.451 7.443,3.56 7.24003,3.682 6.973,3.725 Z" style="fill:#9fbbe0" gorn="0.14.0.0" id="path471" />
        </g>
    </g>
    <g transform="translate(22.3654,15.078219)" >
        <g gorn="0.15.0" id="bme280" >
            <g transform="matrix(0,1,-1,0,6.37795,0.70866)" >
                <g gorn="0.15.0.0.0" id="g474" >
                    <metadata id="metadata15" >
                        <rdf:RDF xmlns:rdf="http://www.w3.org/1999/02/22-rdf-syntax-ns#">
                            <cc:Work xmlns:rdf="http://www.w3.org/1999/02/22-rdf-syntax-ns#" rdf:about="" xmlns:cc="http://creativecommons.org/ns#">
                                <dc:format xmlns:dc="http://purl.org/dc/elements/1.1/">image/svg+xml</dc:format>
                                <dc:type xmlns:rdf="http://www.w3.org/1999/02/22-rdf-syntax-ns#" xmlns:dc="http://purl.org/dc/elements/1.1/" rdf:resource="http://purl.org/dc/dcmitype/StillImage"/>
                                <dc:title xmlns:dc="http://purl.org/dc/elements/1.1/"/>
                            </cc:Work>
                        </rdf:RDF>
                    </metadata>
                    <defs id="defs13" />
                    <g transform="matrix(1.56238,0,0,1.44742,-0.708661,-3.79797)" >
                        <g gorn="0.15.0.0.0.2.0" id="g3350" >
                            <g transform="matrix(0.941756,0,0,0.932305,0,0.475924)" >
                                <g gorn="0.15.0.0.0.2.0.0.0" id="g3346" />
                            </g>
                            <g transform="matrix(0,1.07942,-0.926421,0,6.96668,2.62397)" >
                                <g gorn="0.15.0.0.0.2.0.1.0" id="g3339" >
                                    <g transform="matrix(0.941756,0,0,0.932305,0,0.475924)" >
                                        <path d="M 0,6.4616 0,3.39797 C 0,3.08348 0.250848,2.82917 0.561046,2.82917 l 3.69423,0 c 0.309406,0 0.561046,0.254318 0.561046,0.568805 l 0,3.06362 C 4.81632,6.77528 4.56547,7.0304 4.25527,7.0304 l -3.69423,0 C 0.250848,7.0296 0,6.77528 0,6.4616 Z" style="fill:#b4b4b4" gorn="0.15.0.0.0.2.0.1.0.0.0" connector-curvature="0" id="path5" />
                                    </g>
                                    <g transform="matrix(0.941756,0,0,0.932305,0,0.475924)" >
                                        <path d="M 0.376726,3.40126 C 0.376722,3.2761 0.477223,3.17341 0.600669,3.17341 l 3.68217,0 c 0.123446,0 0.22394,0.10269 0.223944,0.227843 l 7.34e-5,3.03826 c 3.1e-6,0.125153 -0.100498,0.227843 -0.223944,0.227843 l -3.68216996,0 c -0.123446,0 -0.22394,-0.10269 -0.223944,-0.227843 z" style="fill:#dcdcdc" gorn="0.15.0.0.0.2.0.1.0.1.0" connector-curvature="0" id="path7" />
                                    </g>
                                    <ellipse cy="4.20502" gorn="0.15.0.0.0.2.0.1.0.2" id="circle9"  rx="0.44865799" ry="0.49099001" cx="1.18454"/>
                                </g>
                            </g>
                        </g>
                    </g>
                </g>
            </g>
        </g>
    </g>
    <g transform="translate(2.72999,24.613)" >
        <g gorn="0.16.0" id="sot23-5" >
            <g gorn="0.16.0.0" id="g486" >
                <rect width="1.1339999" style="fill:#dcdcdc" gorn="0.16.0.0.0" x="0.850003" id="rect488" height="7.6540298"  y="0"/>
                <rect width="1.1339999" style="fill:#dcdcdc" gorn="0.16.0.0.1" x="6.2360001" id="rect490" height="7.6540298"  y="0"/>
                <rect width="1.1339999" style="fill:#dcdcdc" gorn="0.16.0.0.2" x="3.543" id="rect492" height="3.118"  y="4.5349998"/>
                <rect width="8.2200203" style="fill:#303030" gorn="0.16.0.0.3" x="0" id="rect494" height="4.5349998"  y="1.559"/>
            </g>
        </g>
    </g>
</svg>
