<?xml version="1.0" encoding="UTF-8" standalone="no"?>
<!-- Created with Inkscape (http://www.inkscape.org/) -->

<svg
   xmlns:dc="http://purl.org/dc/elements/1.1/"
   xmlns:cc="http://creativecommons.org/ns#"
   xmlns:rdf="http://www.w3.org/1999/02/22-rdf-syntax-ns#"
   xmlns:svg="http://www.w3.org/2000/svg"
   xmlns="http://www.w3.org/2000/svg"
   xmlns:xlink="http://www.w3.org/1999/xlink"
   version="1.1"
   width="108"
   height="225"
   id="svg7148">
  <defs
     id="defs7150">
    <linearGradient
       id="linearGradient7995">
      <stop
         id="stop7997"
         style="stop-color:#ffffff;stop-opacity:0"
         offset="0" />
      <stop
         id="stop8003"
         style="stop-color:#ffffff;stop-opacity:0.58035713"
         offset="0.5" />
      <stop
         id="stop7999"
         style="stop-color:#a92729;stop-opacity:0"
         offset="1" />
    </linearGradient>
    <linearGradient
       id="linearGradient7938">
      <stop
         id="stop7940"
         style="stop-color:#7a7a7a;stop-opacity:1"
         offset="0" />
      <stop
         id="stop7942"
         style="stop-color:#7a7a7a;stop-opacity:0"
         offset="1" />
    </linearGradient>
    <linearGradient
       id="linearGradient7715">
      <stop
         id="stop7717"
         style="stop-color:#a9a9a9;stop-opacity:1"
         offset="0" />
      <stop
         id="stop7725"
         style="stop-color:#f5f5f5;stop-opacity:1"
         offset="0.2" />
      <stop
         id="stop7719"
         style="stop-color:#ffffff;stop-opacity:1"
         offset="0.5" />
      <stop
         id="stop7723"
         style="stop-color:#f5f5f5;stop-opacity:1"
         offset="0.80000001" />
      <stop
         id="stop7721"
         style="stop-color:#a9a9a9;stop-opacity:1"
         offset="1" />
    </linearGradient>
    <linearGradient
       id="linearGradient7699">
      <stop
         id="stop7701"
         style="stop-color:#bebebe;stop-opacity:1"
         offset="0" />
      <stop
         id="stop7705"
         style="stop-color:#fafafa;stop-opacity:1"
         offset="0.5" />
      <stop
         id="stop7703"
         style="stop-color:#bebebe;stop-opacity:1"
         offset="1" />
    </linearGradient>
    <linearGradient
       x1="60.75"
       y1="834.125"
       x2="72"
       y2="834.125"
       id="linearGradient8092"
       xlink:href="#linearGradient7938"
       gradientUnits="userSpaceOnUse"
       gradientTransform="translate(-27.006251,-108.01525)" />
    <linearGradient
       x1="58.275002"
       y1="1016.375"
       x2="103.725"
       y2="1016.375"
       id="linearGradient8095"
       xlink:href="#linearGradient7699"
       gradientUnits="userSpaceOnUse"
       gradientTransform="translate(-27.006251,-108.01525)" />
    <linearGradient
       x1="35.775002"
       y1="912.875"
       x2="126.225"
       y2="912.875"
       id="linearGradient8098"
       xlink:href="#linearGradient7715"
       gradientUnits="userSpaceOnUse"
       gradientTransform="translate(-27.006251,-108.01525)" />
    <linearGradient
       x1="35.775002"
       y1="912.875"
       x2="126.225"
       y2="912.875"
       id="linearGradient8823"
       xlink:href="#linearGradient7715"
       gradientUnits="userSpaceOnUse"
       gradientTransform="translate(-27.006251,-108.01525)" />
    <linearGradient
       x1="58.275002"
       y1="1016.375"
       x2="103.725"
       y2="1016.375"
       id="linearGradient8825"
       xlink:href="#linearGradient7699"
       gradientUnits="userSpaceOnUse"
       gradientTransform="translate(-27.006251,-108.01525)" />
    <linearGradient
       x1="60.75"
       y1="834.125"
       x2="72"
       y2="834.125"
       id="linearGradient8827"
       xlink:href="#linearGradient7938"
       gradientUnits="userSpaceOnUse"
       gradientTransform="translate(-27.006251,-108.01525)" />
  </defs>
  <metadata
     id="metadata7153">
    <rdf:RDF>
      <cc:Work
         rdf:about="">
        <dc:format>image/svg+xml</dc:format>
        <dc:type
           rdf:resource="http://purl.org/dc/dcmitype/StillImage" />
        <dc:title></dc:title>
      </cc:Work>
    </rdf:RDF>
  </metadata>
  <g
     transform="translate(0,-827.36218)"
     id="layer16" />
  <g
     transform="translate(0,-827.35975)"
     id="layer1"
     style="display:inline">
    <g
       transform="translate(1e-6,130.5)"
       id="icon">
      <rect
         width="90"
         height="135.00002"
         x="8.9937487"
         y="746.34692"
         id="rect7882"
         style="fill:#214478;fill-opacity:1;fill-rule:evenodd;stroke:none" />
      <rect
         width="40.658638"
         height="29.344931"
         x="32.390717"
         y="844.29132"
         id="rect7880"
         style="fill:#c5c5c5;fill-opacity:1;stroke:#9f9f9f;stroke-width:3.5999999;stroke-linecap:round;stroke-linejoin:miter;stroke-miterlimit:4;stroke-opacity:1;stroke-dasharray:none;display:inline" />
      <rect
         width="86.400002"
         height="122.40001"
         x="10.793748"
         y="748.14691"
         id="rect7878"
         style="fill:none;stroke:#9f9f9f;stroke-width:3.5999999;stroke-linecap:round;stroke-linejoin:miter;stroke-miterlimit:4;stroke-opacity:1;stroke-dasharray:none;display:inline" />
      <path
         d="m 31.493749,710.35975 c -12.465,0 -22.5,10.035 -22.5,22.5 l 0,29.25 15.1875,0 c 0.659538,-0.82889 1.670915,-1.375 2.8125,-1.375 1.988225,0 3.59375,1.63677 3.59375,3.625 0,1.98823 -1.605525,3.59375 -3.59375,3.59375 -1.126113,0 -2.121122,-0.53409 -2.78125,-1.34375 l -15.21875,0 0,13.5 15.1875,0 c 0.659538,-0.82889 1.670915,-1.375 2.8125,-1.375 1.988225,0 3.59375,1.63677 3.59375,3.625 0,1.98823 -1.605525,3.59375 -3.59375,3.59375 -1.126113,0 -2.121122,-0.53409 -2.78125,-1.34375 l -15.21875,0 0,13.5 15.1875,0 c 0.659538,-0.82889 1.670915,-1.375 2.8125,-1.375 1.988225,0 3.59375,1.63677 3.59375,3.625 0,1.98823 -1.605525,3.59375 -3.59375,3.59375 -1.126113,0 -2.121122,-0.53409 -2.78125,-1.34375 l -15.21875,0 0,13.5 15.1875,0 c 0.659538,-0.82889 1.670915,-1.375 2.8125,-1.375 1.988225,0 3.59375,1.63677 3.59375,3.625 0,1.98823 -1.605525,3.59375 -3.59375,3.59375 -1.126113,0 -2.121122,-0.53409 -2.78125,-1.34375 l -15.21875,0 0,13.5 15.1875,0 c 0.659538,-0.82889 1.670915,-1.375 2.8125,-1.375 1.988225,0 3.59375,1.63677 3.59375,3.625 0,1.98823 -1.605525,3.59375 -3.59375,3.59375 -1.126113,0 -2.121122,-0.53409 -2.78125,-1.34375 l -15.21875,0 0,13.5 15.1875,0 c 0.659538,-0.82889 1.670915,-1.375 2.8125,-1.375 1.988225,0 3.59375,1.63677 3.59375,3.625 0,1.98823 -1.605525,3.59375 -3.59375,3.59375 -1.126113,0 -2.121122,-0.53409 -2.78125,-1.34375 l -15.21875,0 0,2.25 0,18 0,18 c 0,2.493 2.007,4.5 4.5,4.5 l 18,0 45,0 18,0 c 2.493,0 4.5,-2.007 4.5,-4.5 l 0,-18 0,-18 0,-2.25 -15.21875,0 c -0.66013,0.80966 -1.65514,1.34375 -2.78125,1.34375 -1.98823,0 -3.59375,-1.60552 -3.59375,-3.59375 0,-1.98823 1.60552,-3.625 3.59375,-3.625 1.14159,0 2.15296,0.54611 2.8125,1.375 l 15.1875,0 0,-13.5 -15.21875,0 c -0.66013,0.80966 -1.65514,1.34375 -2.78125,1.34375 -1.98823,0 -3.59375,-1.60552 -3.59375,-3.59375 0,-1.98823 1.60552,-3.625 3.59375,-3.625 1.14159,0 2.15296,0.54611 2.8125,1.375 l 15.1875,0 0,-13.5 -15.21875,0 c -0.66013,0.80966 -1.65514,1.34375 -2.78125,1.34375 -1.98823,0 -3.59375,-1.60552 -3.59375,-3.59375 0,-1.98823 1.60552,-3.625 3.59375,-3.625 1.14159,0 2.15296,0.54611 2.8125,1.375 l 15.1875,0 0,-13.5 -15.21875,0 c -0.66013,0.80966 -1.65514,1.34375 -2.78125,1.34375 -1.98823,0 -3.59375,-1.60552 -3.59375,-3.59375 0,-1.98823 1.60552,-3.625 3.59375,-3.625 1.14159,0 2.15296,0.54611 2.8125,1.375 l 15.1875,0 0,-13.5 -15.21875,0 c -0.66013,0.80966 -1.65514,1.34375 -2.78125,1.34375 -1.98823,0 -3.59375,-1.60552 -3.59375,-3.59375 0,-1.98823 1.60552,-3.625 3.59375,-3.625 1.14159,0 2.15296,0.54611 2.8125,1.375 l 15.1875,0 0,-13.5 -15.21875,0 c -0.66013,0.80966 -1.65514,1.34375 -2.78125,1.34375 -1.98823,0 -3.59375,-1.60552 -3.59375,-3.59375 0,-1.98823 1.60552,-3.625 3.59375,-3.625 1.14159,0 2.15296,0.54611 2.8125,1.375 l 15.1875,0 0,-29.25 c 0,-12.465 -10.035,-22.5 -22.5,-22.5 l -45,0 z m 22.5,6.75 c 4.970563,0 9,4.02944 9,9 0,4.97056 -4.029437,9 -9,9 -4.970563,0 -9,-4.02944 -9,-9 0,-4.97056 4.029437,-9 9,-9 z m -9,43.625 c 1.988225,0 3.59375,1.63677 3.59375,3.625 0,1.98823 -1.605525,3.59375 -3.59375,3.59375 -1.988225,0 -3.59375,-1.60552 -3.59375,-3.59375 0,-1.98823 1.605525,-3.625 3.59375,-3.625 z m 18,0 c 1.988225,0 3.59375,1.63677 3.59375,3.625 0,1.98823 -1.605525,3.59375 -3.59375,3.59375 -1.988225,0 -3.59375,-1.60552 -3.59375,-3.59375 0,-1.98823 1.605525,-3.625 3.59375,-3.625 z m -18,18 c 1.988225,0 3.59375,1.63677 3.59375,3.625 0,1.98823 -1.605525,3.59375 -3.59375,3.59375 -1.988225,0 -3.59375,-1.60552 -3.59375,-3.59375 0,-1.98823 1.605525,-3.625 3.59375,-3.625 z m 18,0 c 1.988225,0 3.59375,1.63677 3.59375,3.625 0,1.98823 -1.605525,3.59375 -3.59375,3.59375 -1.988225,0 -3.59375,-1.60552 -3.59375,-3.59375 0,-1.98823 1.605525,-3.625 3.59375,-3.625 z m -18,18 c 1.988225,0 3.59375,1.63677 3.59375,3.625 0,1.98823 -1.605525,3.59375 -3.59375,3.59375 -1.988225,0 -3.59375,-1.60552 -3.59375,-3.59375 0,-1.98823 1.605525,-3.625 3.59375,-3.625 z m 18,0 c 1.988225,0 3.59375,1.63677 3.59375,3.625 0,1.98823 -1.605525,3.59375 -3.59375,3.59375 -1.988225,0 -3.59375,-1.60552 -3.59375,-3.59375 0,-1.98823 1.605525,-3.625 3.59375,-3.625 z m -18,18 c 1.988225,0 3.59375,1.63677 3.59375,3.625 0,1.98823 -1.605525,3.59375 -3.59375,3.59375 -1.988225,0 -3.59375,-1.60552 -3.59375,-3.59375 0,-1.98823 1.605525,-3.625 3.59375,-3.625 z m 18,0 c 1.988225,0 3.59375,1.63677 3.59375,3.625 0,1.98823 -1.605525,3.59375 -3.59375,3.59375 -1.988225,0 -3.59375,-1.60552 -3.59375,-3.59375 0,-1.98823 1.605525,-3.625 3.59375,-3.625 z m -18,18 c 1.988225,0 3.59375,1.63677 3.59375,3.625 0,1.98823 -1.605525,3.59375 -3.59375,3.59375 -1.988225,0 -3.59375,-1.60552 -3.59375,-3.59375 0,-1.98823 1.605525,-3.625 3.59375,-3.625 z m 18,0 c 1.988225,0 3.59375,1.63677 3.59375,3.625 0,1.98823 -1.605525,3.59375 -3.59375,3.59375 -1.988225,0 -3.59375,-1.60552 -3.59375,-3.59375 0,-1.98823 1.605525,-3.625 3.59375,-3.625 z m -18,18 c 1.988225,0 3.59375,1.63677 3.59375,3.625 0,1.98823 -1.605525,3.59375 -3.59375,3.59375 -1.988225,0 -3.59375,-1.60552 -3.59375,-3.59375 0,-1.98823 1.605525,-3.625 3.59375,-3.625 z m 18,0 c 1.988225,0 3.59375,1.63677 3.59375,3.625 0,1.98823 -1.605525,3.59375 -3.59375,3.59375 -1.988225,0 -3.59375,-1.60552 -3.59375,-3.59375 0,-1.98823 1.605525,-3.625 3.59375,-3.625 z"
         id="rect7158"
         style="fill:url(#linearGradient8823);fill-opacity:1;fill-rule:evenodd;stroke:#000000;stroke-width:0.44999999;stroke-miterlimit:4;stroke-opacity:1;stroke-dasharray:none;display:inline" />
      <path
         d="m 31.493749,899.35975 0,0.875 0,8.125 0,8.0938 c 0,0.4985 0.40765,0.9062 0.90625,0.9062 l 43.1875,0 c 0.4986,0 0.90625,-0.4077 0.90625,-0.9062 l 0,-8.0938 0,-8.125 0,-0.875 -0.90625,0 -43.1875,0 -0.90625,0 z"
         id="rect7683"
         style="fill:url(#linearGradient8825);fill-opacity:1;fill-rule:evenodd;stroke:#000000;stroke-width:0.44999999;stroke-linecap:round;stroke-linejoin:miter;stroke-miterlimit:4;stroke-opacity:1;stroke-dasharray:none;display:inline" />
      <path
         d="m 33.743749,710.35975 0,4.5 0,22.5 c 0,2.493 2.007,4.5 4.5,4.5 l 2.25,0 4.5,0 0,-4.5 0,-22.5 0,-4.5 -11.25,0 z"
         id="rect7916"
         style="fill:url(#linearGradient8827);fill-opacity:1;stroke:none;display:inline" />
      <path
         d="m 33.743749,710.34693 0,4.5 0,4.5 0,18 c 0,2.493 2.007,4.5 4.5,4.5 l 31.5,0 c 2.493,0 4.5,-2.007 4.5,-4.5 l 0,-18 0,-4.5 0,-4.5 -4.5,0 -31.5,0 -4.5,0 z"
         id="rect7900"
         style="fill:none;stroke:#000000;stroke-width:0.44999999;stroke-linecap:round;stroke-linejoin:miter;stroke-miterlimit:4;stroke-opacity:1;stroke-dasharray:none;display:inline" />
    </g>
  </g>
  <g
     transform="translate(0,-827.36218)"
     id="layer10"
     style="display:inline" />
  <g
     transform="translate(0,-827.36218)"
     id="layer12"
     style="display:inline" />
  <g
     transform="translate(0,-827.36218)"
     id="layer13"
     style="display:inline" />
  <g
     transform="translate(0,-827.36218)"
     id="layer14"
     style="display:inline">
    <rect
       width="36"
       height="27"
       x="63"
       y="818.36218"
       id="rect7888"
       style="fill:#c5c5c5;fill-opacity:1;fill-rule:evenodd;stroke:#000000;stroke-width:4.5;stroke-linecap:round;stroke-linejoin:miter;stroke-miterlimit:4;stroke-opacity:1;stroke-dasharray:none;display:none" />
  </g>
  <g
     transform="translate(0,-827.36218)"
     id="layer15"
     style="display:none" />
</svg>
