<?xml version="1.0" encoding="UTF-8" standalone="no"?>
<!-- Created with Inkscape (http://www.inkscape.org/) -->

<svg
   xmlns:dc="http://purl.org/dc/elements/1.1/"
   xmlns:cc="http://creativecommons.org/ns#"
   xmlns:rdf="http://www.w3.org/1999/02/22-rdf-syntax-ns#"
   xmlns:svg="http://www.w3.org/2000/svg"
   xmlns="http://www.w3.org/2000/svg"
   xmlns:xlink="http://www.w3.org/1999/xlink"
   version="1.1"
   width="131.10236"
   height="145.27559"
   id="svg13574">
  <defs
     id="defs13576">
    <linearGradient
       id="linearGradient31306">
      <stop
         id="stop31308"
         style="stop-color:#000000;stop-opacity:1"
         offset="0" />
      <stop
         id="stop31310"
         style="stop-color:#000000;stop-opacity:0"
         offset="1" />
    </linearGradient>
    <linearGradient
       id="linearGradient31298">
      <stop
         id="stop31300"
         style="stop-color:#b3b3b3;stop-opacity:0"
         offset="0" />
      <stop
         id="stop31304"
         style="stop-color:#ffffff;stop-opacity:0.4509804"
         offset="0.30555555" />
      <stop
         id="stop31302"
         style="stop-color:#464646;stop-opacity:0.0625"
         offset="1" />
    </linearGradient>
    <linearGradient
       id="linearGradient31244">
      <stop
         id="stop31246"
         style="stop-color:#878787;stop-opacity:0"
         offset="0" />
      <stop
         id="stop31248"
         style="stop-color:#c3c3c3;stop-opacity:0"
         offset="0.24999918" />
      <stop
         id="stop31250"
         style="stop-color:#ffffff;stop-opacity:0.49803922"
         offset="0.32499924" />
      <stop
         id="stop31252"
         style="stop-color:#c0c0c0;stop-opacity:0"
         offset="0.49999937" />
      <stop
         id="stop31254"
         style="stop-color:#818181;stop-opacity:0"
         offset="1" />
    </linearGradient>
    <linearGradient
       id="linearGradient31212">
      <stop
         id="stop31214"
         style="stop-color:#878787;stop-opacity:0"
         offset="0" />
      <stop
         id="stop31216"
         style="stop-color:#c3c3c3;stop-opacity:0.24705882"
         offset="0.24999967" />
      <stop
         id="stop31218"
         style="stop-color:#ffffff;stop-opacity:0.49803922"
         offset="0.3999998" />
      <stop
         id="stop31220"
         style="stop-color:#c0c0c0;stop-opacity:0.24705882"
         offset="0.59999996" />
      <stop
         id="stop31222"
         style="stop-color:#818181;stop-opacity:0"
         offset="1" />
    </linearGradient>
    <linearGradient
       id="linearGradient31191">
      <stop
         id="stop31193"
         style="stop-color:#878787;stop-opacity:0"
         offset="0" />
      <stop
         id="stop31199"
         style="stop-color:#c3c3c3;stop-opacity:0"
         offset="0.19444445" />
      <stop
         id="stop31197"
         style="stop-color:#ffffff;stop-opacity:0.49803922"
         offset="0.25617284" />
      <stop
         id="stop31201"
         style="stop-color:#c0c0c0;stop-opacity:0"
         offset="0.32848936" />
      <stop
         id="stop31195"
         style="stop-color:#818181;stop-opacity:0"
         offset="1" />
    </linearGradient>
    <linearGradient
       x1="63.692665"
       y1="363.1875"
       x2="166.61983"
       y2="363.1875"
       id="linearGradient31189"
       xlink:href="#linearGradient31191"
       gradientUnits="userSpaceOnUse"
       gradientTransform="translate(-49.608022,7.0829232)" />
    <linearGradient
       x1="95.669289"
       y1="322.44095"
       x2="95.669289"
       y2="329.52756"
       id="linearGradient31224"
       xlink:href="#linearGradient31212"
       gradientUnits="userSpaceOnUse"
       gradientTransform="translate(-49.608022,7.0829232)" />
    <linearGradient
       x1="56.692913"
       y1="325.98425"
       x2="173.62204"
       y2="325.98425"
       id="linearGradient31229"
       xlink:href="#linearGradient31191"
       gradientUnits="userSpaceOnUse"
       gradientTransform="translate(-49.608022,7.0829232)" />
    <linearGradient
       x1="70.773621"
       y1="315.35434"
       x2="159.54015"
       y2="315.35434"
       id="linearGradient31237"
       xlink:href="#linearGradient31191"
       gradientUnits="userSpaceOnUse"
       gradientTransform="translate(-49.608022,7.0829232)" />
    <linearGradient
       x1="113.38583"
       y1="308.26773"
       x2="113.38583"
       y2="322.44095"
       id="linearGradient31242"
       xlink:href="#linearGradient31244"
       gradientUnits="userSpaceOnUse"
       gradientTransform="translate(-49.608022,7.0829232)" />
    <linearGradient
       x1="28.346457"
       y1="40.748032"
       x2="31.889765"
       y2="40.748032"
       id="linearGradient31296"
       xlink:href="#linearGradient31298"
       gradientUnits="userSpaceOnUse" />
    <linearGradient
       x1="28.346457"
       y1="40.748032"
       x2="31.889765"
       y2="40.748032"
       id="linearGradient31316"
       xlink:href="#linearGradient31298"
       gradientUnits="userSpaceOnUse"
       gradientTransform="translate(71.574801,304.72441)" />
  </defs>
  <metadata
     id="metadata13579">
    <rdf:RDF>
      <cc:Work
         rdf:about="">
        <dc:format>image/svg+xml</dc:format>
        <dc:type
           rdf:resource="http://purl.org/dc/dcmitype/StillImage" />
        <dc:title></dc:title>
      </cc:Work>
    </rdf:RDF>
  </metadata>
  <g
     transform="translate(0,-907.08416)"
     id="layer1" />
  <g
     transform="translate(0,-304.72442)"
     id="layer2"
     style="display:inline" />
  <g
     transform="translate(0,-304.72442)"
     id="layer3"
     style="display:inline" />
  <g
     transform="translate(0,-304.72442)"
     id="layer4"
     style="display:inline" />
  <g
     transform="translate(0,-304.72442)"
     id="layer5" />
  <g
     id="layer6">
    <g
       id="icon">
      <path
         d="m 76.179378,1016.9233 c -1.96299,0 -3.53125,1.5995 -3.53125,3.5625 l 0,21.25 c 0,1.9629 1.56826,3.5312 3.53125,3.5312 1.96299,0 3.5625,-1.5683 3.5625,-3.5312 l 0,-21.25 c 0,-1.963 -1.59951,-3.5625 -3.5625,-3.5625 z m 0,23.0312 c 0.97846,0 1.78125,0.8028 1.78125,1.7813 0,0.9784 -0.80279,1.7812 -1.78125,1.7812 -0.97846,0 -1.78125,-0.8028 -1.78125,-1.7812 0,-0.9785 0.80279,-1.7813 1.78125,-1.7813 z"
         transform="translate(0,-907.08416)"
         id="path31274"
         style="fill:#decd87;fill-opacity:1;fill-rule:evenodd;stroke:none" />
      <path
         d="m 54.919538,1016.9232 c -1.96299,0 -3.53125,1.5995 -3.53125,3.5625 l 0,21.25 c 0,1.963 1.56826,3.5313 3.53125,3.5313 1.96299,0 3.5625,-1.5683 3.5625,-3.5313 l 0,-21.25 c 0,-1.963 -1.59951,-3.5625 -3.5625,-3.5625 z m 0,23.0313 c 0.97846,0 1.78125,0.8027 1.78125,1.7812 0,0.9785 -0.80279,1.7813 -1.78125,1.7813 -0.97846,0 -1.78125,-0.8028 -1.78125,-1.7813 0,-0.9785 0.80279,-1.7812 1.78125,-1.7812 z"
         transform="translate(0,-907.08416)"
         id="rect31269"
         style="fill:#decd87;fill-opacity:1;fill-rule:evenodd;stroke:none" />
      <rect
         width="95.669289"
         height="67.322838"
         rx="7.0866141"
         x="17.714817"
         y="935.42694"
         transform="translate(0,-907.08416)"
         id="rect31123"
         style="fill:#ffffff;stroke:#000000;stroke-width:0.17716534;stroke-linecap:butt;stroke-linejoin:round;stroke-miterlimit:4;stroke-opacity:1;stroke-dasharray:none;stroke-dashoffset:0.28800001" />
      <rect
         width="38.976357"
         height="21.259762"
         x="46.061268"
         y="1002.7498"
         transform="translate(0,-907.08416)"
         id="rect31258"
         style="fill:#1a1a1a;fill-opacity:1;fill-rule:evenodd;stroke:none" />
      <path
         d="m 47.832923,1023.659 1.771653,7.4372 10.629922,0 1.77165,-7.4372 z"
         transform="translate(0,-907.08416)"
         id="path31276"
         style="color:#000000;fill:#1a1a1a;stroke:none;stroke-width:0.89999998;marker:none;visibility:visible;display:inline;overflow:visible;enable-background:accumulate" />
      <path
         d="m 69.092768,1023.659 1.77165,7.4372 10.62992,0 1.77165,-7.4372 z"
         transform="translate(0,-907.08416)"
         id="path31278"
         style="color:#000000;fill:#1a1a1a;stroke:none;stroke-width:0.89999998;marker:none;visibility:visible;display:inline;overflow:visible;enable-background:accumulate" />
      <path
         d="m 21.25812,319.60261 0,9.92125 88.58268,0 0,-10.62992 m -88.586619,0.72843 c 28.806871,-5.4673 59.579337,-5.69119 88.589359,-0.64456"
         transform="translate(0,-304.72442)"
         id="path31168"
         style="color:#000000;fill:#b3b3b3;fill-opacity:0.76630435;stroke:none;stroke-width:0.17716534;marker:none;visibility:visible;display:inline;overflow:visible;enable-background:accumulate" />
      <path
         d="m 14.173228,336.61417 0,7.09375 0,17.71875 0,35.40625 c 0,3.92598 3.167766,7.09375 7.09375,7.09375 l 88.562502,0 c 3.92598,0 7.09375,-3.16777 7.09375,-7.09375 l 0,-35.40625 0,-17.71875 0,-7.09375 -7.09375,0 -88.562502,0 -7.09375,0 z"
         transform="translate(0,-304.72442)"
         id="path31170"
         style="fill:#b3b3b3;fill-opacity:0.72282607;stroke:none;display:inline" />
      <path
         d="m 14.173228,329.52042 c -3.925984,0 -7.0937497,3.16777 -7.0937497,7.09375 l 116.9375017,0 c 0,-3.92598 -3.16777,-7.09375 -7.09375,-7.09375 l -102.750002,0 z"
         transform="translate(0,-304.72442)"
         id="path31172"
         style="fill:#b3b3b3;fill-opacity:0.76630435;fill-rule:evenodd;stroke:#545454;stroke-width:0.17716534;stroke-linecap:butt;stroke-linejoin:round;stroke-miterlimit:4;stroke-opacity:1;stroke-dasharray:none;stroke-dashoffset:0.28800001;display:inline" />
      <path
         d="m 21.25812,319.60261 0,9.92125 88.58268,0 0,-10.62992 m -88.586619,0.72843 c 28.806871,-5.4673 59.579337,-5.69119 88.589359,-0.64456"
         transform="translate(0,-304.72442)"
         id="path30592"
         style="color:#000000;fill:url(#linearGradient31237);fill-opacity:1;stroke:none;stroke-width:0.17716534;marker:none;visibility:visible;display:inline;overflow:visible;enable-background:accumulate" />
      <path
         d="m 14.173228,336.61417 0,7.09375 0,17.71875 0,35.40625 c 0,3.92598 3.167766,7.09375 7.09375,7.09375 l 88.562502,0 c 3.92598,0 7.09375,-3.16777 7.09375,-7.09375 l 0,-35.40625 0,-17.71875 0,-7.09375 -7.09375,0 -88.562502,0 -7.09375,0 z"
         transform="translate(0,-304.72442)"
         id="rect31115"
         style="fill:url(#linearGradient31189);fill-opacity:1;stroke:none;display:inline" />
      <path
         d="m 14.173228,329.52042 c -3.925984,0 -7.0937497,3.16777 -7.0937497,7.09375 l 116.9375017,0 c 0,-3.92598 -3.16777,-7.09375 -7.09375,-7.09375 l -102.750002,0 z"
         transform="translate(0,-304.72442)"
         id="path31226"
         style="fill:url(#linearGradient31229);fill-opacity:1;fill-rule:evenodd;stroke:none;display:inline" />
      <path
         d="m 60.236221,134.64566 a 5.3149605,5.3149605 0 1 1 -10.629921,0 5.3149605,5.3149605 0 1 1 10.629921,0 z"
         id="connector1pin"
         style="fill:#8dd35f;fill-opacity:0;fill-rule:evenodd;stroke:none;display:inline" />
      <path
         d="m 60.236221,134.64566 a 5.3149605,5.3149605 0 1 1 -10.629921,0 5.3149605,5.3149605 0 1 1 10.629921,0 z"
         transform="translate(21.259842,1e-5)"
         id="connector2pin"
         style="fill:#8dd35f;fill-opacity:0;fill-rule:evenodd;stroke:none;display:inline" />
      <path
         d="m 14.173228,329.52042 c -3.925984,0 -7.0937497,3.16777 -7.0937497,7.09375 l 116.9375017,0 c 0,-3.92598 -3.16777,-7.09375 -7.09375,-7.09375 l -102.750002,0 z"
         transform="translate(0,-304.72442)"
         id="rect31150"
         style="fill:url(#linearGradient31224);fill-opacity:1;fill-rule:evenodd;stroke:none;display:inline" />
      <path
         d="m 21.25812,319.60261 0,9.92125 88.58268,0 0,-10.62992 m -88.586619,0.72843 c 28.806871,-5.4673 59.579337,-5.69119 88.589359,-0.64456"
         transform="translate(0,-304.72442)"
         id="path31239"
         style="color:#000000;fill:url(#linearGradient31242);fill-opacity:1;stroke:none;stroke-width:0.17716534;marker:none;visibility:visible;display:inline;overflow:visible;enable-background:accumulate" />
      <rect
         width="2.8346457"
         height="17.716536"
         x="28.346457"
         y="31.889763"
         id="rect31280"
         style="fill:url(#linearGradient31296);fill-opacity:1;fill-rule:evenodd;stroke:#000000;stroke-width:0.17716534;stroke-miterlimit:4;stroke-opacity:0.11956524;stroke-dasharray:none" />
      <rect
         width="2.8346457"
         height="17.716536"
         x="99.921257"
         y="336.6142"
         transform="translate(0,-304.72442)"
         id="rect31314"
         style="fill:url(#linearGradient31316);fill-opacity:1;fill-rule:evenodd;stroke:#000000;stroke-width:0.17716534;stroke-miterlimit:4;stroke-opacity:0.11956524;stroke-dasharray:none" />
      <rect
         width="95.669289"
         height="67.322838"
         rx="7.0866141"
         x="17.714817"
         y="935.42694"
         transform="translate(0,-907.08416)"
         id="rect31319"
         style="fill:#ffffff;fill-opacity:0.36956524;stroke:none;display:inline" />
    </g>
  </g>
</svg>
