<?xml version="1.0" encoding="UTF-8" standalone="no"?>
<!-- Created with Inkscape (http://www.inkscape.org/) -->

<svg
   xmlns:dc="http://purl.org/dc/elements/1.1/"
   xmlns:cc="http://creativecommons.org/ns#"
   xmlns:rdf="http://www.w3.org/1999/02/22-rdf-syntax-ns#"
   xmlns:svg="http://www.w3.org/2000/svg"
   xmlns="http://www.w3.org/2000/svg"
   xmlns:xlink="http://www.w3.org/1999/xlink"
   xmlns:sodipodi="http://sodipodi.sourceforge.net/DTD/sodipodi-0.dtd"
   xmlns:inkscape="http://www.inkscape.org/namespaces/inkscape"
   width="36"
   height="36"
   id="svg7292"
   version="1.1"
   
   >
  <defs
     id="defs7294">
    <linearGradient
       id="linearGradient214493">
      <stop
         style="stop-color:#000000;stop-opacity:0.375;"
         offset="0"
         id="stop214495" />
      <stop
         style="stop-color:#000000;stop-opacity:0;"
         offset="1"
         id="stop214497" />
    </linearGradient>
    <linearGradient
       
       xlink:href="#linearGradient214493"
       id="linearGradient214499"
       x1="13.4375"
       y1="1034.375"
       x2="22.5625"
       y2="1034.375"
       gradientUnits="userSpaceOnUse" />
  </defs>
  <sodipodi:namedview
     id="base"
     pagecolor="#ffffff"
     bordercolor="#666666"
     borderopacity="1.0"
     
     
     
     
     
     
     
     showgrid="true"
     units="in"
     objecttolerance="10000"
     
     
     
     
     
     showguides="false"
     >
    <inkscape:grid
       type="xygrid"
       id="grid7300"
       units="in"
       empspacing="20"
       visible="true"
       enabled="true"
       snapvisiblegridlinesonly="true"
       spacingx="0.005in"
       spacingy="0.005in" />
    <sodipodi:guide
       orientation="0,1"
       position="18,31.5"
       id="guide7843" />
    <sodipodi:guide
       orientation="1,0"
       position="4.5,18"
       id="guide7845" />
    <sodipodi:guide
       orientation="1,0"
       position="31.5,18"
       id="guide7847" />
    <sodipodi:guide
       orientation="0,1"
       position="18,4.5"
       id="guide7849" />
    <sodipodi:guide
       orientation="1,0"
       position="13.5,18"
       id="guide214472" />
    <sodipodi:guide
       orientation="1,0"
       position="22.5,18"
       id="guide214474" />
    <sodipodi:guide
       orientation="0,1"
       position="15.3,19.8"
       id="guide214476" />
    <sodipodi:guide
       orientation="0,1"
       position="16.2,28.35"
       id="guide214478" />
    <sodipodi:guide
       orientation="1,0"
       position="16.2,16.2"
       id="guide214480" />
    <sodipodi:guide
       orientation="1,0"
       position="19.8,13.95"
       id="guide214482" />
    <sodipodi:guide
       orientation="0,1"
       position="14.4,8.1"
       id="guide214484" />
  </sodipodi:namedview>
  <metadata
     id="metadata7297">
    <rdf:RDF>
      <cc:Work
         rdf:about="">
        <dc:format>image/svg+xml</dc:format>
        <dc:type
           rdf:resource="http://purl.org/dc/dcmitype/StillImage" />
        <dc:title></dc:title>
      </cc:Work>
    </rdf:RDF>
  </metadata>
  <g
     
     
     id="layer1"
     transform="translate(0,-1016.3597)"
     style="display:inline">
    <g
       id="icon"
       >
      <rect
         
         style="fill:#999999;fill-opacity:1;stroke:none;display:inline"
         id="connector2pin"
         width="1.8"
         height="1.8"
         x="17.1"
         y="1051.4597" />
      <rect
         
         y="1051.4597"
         x="26.1"
         height="1.8"
         width="1.8"
         id="connector3pin"
         style="fill:#999999;fill-opacity:1;stroke:none;display:inline" />
      <rect
         
         y="1051.4597"
         x="8.1000004"
         height="1.8"
         width="1.8"
         id="connector1pin"
         style="fill:#999999;fill-opacity:1;stroke:none;display:inline" />
      <rect
         y="1017.2598"
         x="0.89999998"
         height="34.200001"
         width="34.200001"
         id="rect7302"
         style="fill:#55acff;fill-opacity:1;stroke:#000000;stroke-width:0.22499999;stroke-miterlimit:4;stroke-opacity:1;stroke-dasharray:none;display:inline" />
      <path
         transform="translate(0,-0.00243262)"
         d="m 34.200001,1034.3622 c 0,8.947 -7.252988,16.2 -16.200001,16.2 -8.9470134,0 -16.2000008,-7.253 -16.2000008,-16.2 0,-8.947 7.2529874,-16.2 16.2000008,-16.2 8.947013,0 16.200001,7.253 16.200001,16.2 z"
         
         
         
         
         id="path7839"
         style="fill:none;stroke:#000000;stroke-width:0.25;stroke-linecap:butt;stroke-linejoin:round;stroke-miterlimit:4;stroke-opacity:1;stroke-dasharray:none;stroke-dashoffset:0;display:inline"
          />
      <path
         transform="translate(0,-0.00243262)"
         d="m 28.8,1034.3622 c 0,5.9647 -4.835325,10.8 -10.8,10.8 -5.964675,0 -10.8000002,-4.8353 -10.8000002,-10.8 0,-5.9647 4.8353252,-10.8 10.8000002,-10.8 5.964675,0 10.8,4.8353 10.8,10.8 z"
         
         
         
         
         id="path7841"
         style="fill:none;stroke:#000000;stroke-width:0.25;stroke-linecap:butt;stroke-linejoin:round;stroke-miterlimit:4;stroke-opacity:1;stroke-dasharray:none;stroke-dashoffset:0;display:inline"
          />
      <path
         transform="translate(0,-0.00243262)"
         
         id="path214468"
         d="m 18,1025.375 c -0.257162,0 -0.498304,0.01 -0.75,0.031 l -3.75,7.1563 2.6875,0 0,10.625 c 0.585878,0.1199 1.19118,0.1875 1.8125,0.1875 0.62132,0 1.226622,-0.068 1.8125,-0.1875 l 0,-10.625 2.6875,0 -3.75,-7.1563 c -0.251696,-0.021 -0.492838,-0.031 -0.75,-0.031 z"
         style="fill:url(#linearGradient214499);fill-opacity:1;fill-rule:evenodd;stroke:#000000;stroke-width:0.25;stroke-linecap:butt;stroke-linejoin:round;stroke-miterlimit:4;stroke-opacity:1;stroke-dasharray:none;stroke-dashoffset:0;display:inline" />
      <path
         transform="translate(0,-0.00243262)"
         d="m 27,1034.3622 c 0,4.9705 -4.029437,9 -9,9 -4.970563,0 -9,-4.0295 -9,-9 0,-4.9706 4.029437,-9 9,-9 4.970563,0 9,4.0294 9,9 z"
         
         
         
         
         id="path214491"
         style="fill:none;stroke:#000000;stroke-width:0.25;stroke-linecap:butt;stroke-linejoin:round;stroke-miterlimit:4;stroke-opacity:1;stroke-dasharray:none;stroke-dashoffset:0;display:inline"
          />
      <path
         transform="translate(0,-0.00243262)"
         
         d="m 18,1019.0847 0.824292,-0.4509 0.772642,0.5346 0.86691,-0.3623 0.712527,0.6124 0.90003,-0.2696 0.644607,0.6835 0.923288,-0.1741 0.569624,0.7472 0.936431,-0.077 0.488399,0.8027 0.939315,0.022 0.401825,0.8493 0.931907,0.1197 0.310846,0.8867 0.914289,0.2165 0.216463,0.9142 0.886654,0.3109 0.119708,0.9319 0.849305,0.4018 0.02164,0.9393 0.80265,0.4884 -0.07666,0.9365 0.747201,0.5696 -0.174126,0.9233 0.683566,0.6446 -0.269682,0.9 0.612441,0.7125 -0.362283,0.8669 0.534607,0.7727 -0.450915,0.8243 0.450915,0.8243 -0.534607,0.7726 0.362283,0.8669 -0.612441,0.7126 0.269682,0.9 -0.683566,0.6446 0.174125,0.9233 -0.7472,0.5696 0.07666,0.9364 -0.802649,0.4884 -0.02164,0.9393 -0.849304,0.4019 -0.119709,0.9319 -0.886653,0.3108 -0.216464,0.9143 -0.914288,0.2165 -0.310847,0.8866 -0.931907,0.1197 -0.401825,0.8493 -0.939314,0.022 -0.4884,0.8026 -0.936431,-0.077 -0.569625,0.7472 -0.923287,-0.1742 -0.644608,0.6836 -0.900029,-0.2697 -0.712528,0.6125 -0.866909,-0.3623 -0.772642,0.5346 L 18,1049.6397 l -0.824292,0.4509 -0.772642,-0.5346 -0.86691,0.3623 -0.712527,-0.6125 -0.90003,0.2697 -0.644607,-0.6836 -0.923288,0.1742 -0.569624,-0.7472 -0.936431,0.077 -0.488399,-0.8026 -0.9393155,-0.022 -0.4018241,-0.8493 -0.9319072,-0.1197 -0.3108464,-0.8866 -0.9142892,-0.2165 -0.2164631,-0.9143 -0.8866539,-0.3108 -0.1197081,-0.9319 -0.8493044,-0.4019 -0.021642,-0.9393 -0.8026497,-0.4884 0.076662,-0.9364 -0.747201,-0.5696 0.1741258,-0.9233 -0.6835658,-0.6446 0.2696818,-0.9 -0.6124413,-0.7126 0.362283,-0.8669 -0.5346067,-0.7726 0.450915,-0.8243 -0.4509149,-0.8243 0.5346067,-0.7727 -0.3622828,-0.8669 0.6124412,-0.7125 -0.2696816,-0.9 0.6835657,-0.6446 -0.1741255,-0.9233 0.7472007,-0.5696 -0.076662,-0.9365 0.8026494,-0.4884 0.021642,-0.9393 0.849304,-0.4018 0.1197086,-0.9319 0.8866535,-0.3109 0.2164636,-0.9142 0.9142887,-0.2165 0.310847,-0.8867 0.9319066,-0.1197 0.4018248,-0.8493 0.9393142,-0.022 0.4884,-0.8027 0.936431,0.077 0.569625,-0.7472 0.923287,0.1741 0.644608,-0.6835 0.900029,0.2696 0.712528,-0.6124 0.866909,0.3623 0.772642,-0.5346 z"
         
         
         
         
         
         
         
         
         
         
         id="path7818"
         style="fill:none;stroke:#000000;stroke-width:0.09;stroke-linecap:butt;stroke-linejoin:round;stroke-miterlimit:4;stroke-opacity:1;stroke-dasharray:none;stroke-dashoffset:0;display:inline"
          />
      <path
         transform="matrix(0.96592583,-0.25881905,0.25881905,0.96592583,-267.0993,39.901347)"
         d="m 2.25,1034.3622 3.9536887,-0.6182 -3.8674085,-1.0281 3.9966514,-0.2016 -3.7387562,-1.4267 3.995826,0.2173 -3.5691413,-1.8097 3.9512214,0.6338 -3.3604222,-2.1729 3.8633265,1.0433 -3.1148855,-2.5122 3.7331041,1.4414 -2.8352216,-2.824 3.561981,1.8237 -2.5244943,-3.1049 3.3518322,2.1861 -2.1861082,-3.3518 3.1049605,2.5244 -1.8237711,-3.5619 2.8240691,2.8352 -1.441451,-3.7331 2.512237,3.1149 -1.043339,-3.8634 2.17288,3.3605 -0.633796,-3.9513 1.809718,3.5692 -0.217309,-3.9958 1.426727,3.7387 0.201558,-3.9966 1.028105,3.8674 0.618219,-3.9537 0.618218,3.9537 1.028105,-3.8674 0.201559,3.9966 1.426727,-3.7387 -0.217309,3.9958 1.809717,-3.5692 -0.633796,3.9513 2.172881,-3.3605 -1.043339,3.8634 2.512237,-3.1149 -1.441452,3.7331 2.824069,-2.8352 -1.82377,3.5619 3.10496,-2.5244 -2.186109,3.3518 3.351832,-2.1861 -2.524494,3.1049 3.561981,-1.8237 -2.835221,2.824 3.733103,-1.4414 -3.114885,2.5122 3.863326,-1.0433 -3.360422,2.1729 3.951221,-0.6338 -3.569141,1.8097 3.995826,-0.2173 -3.738756,1.4267 3.996651,0.2016 -3.867409,1.0281 3.953689,0.6182 -3.953689,0.6182 3.867409,1.0281 -3.996652,0.2016 3.738757,1.4267 -3.995826,-0.2173 3.569141,1.8097 -3.951222,-0.6338 3.360423,2.1729 -3.863327,-1.0434 3.114886,2.5123 -3.733104,-1.4415 2.835221,2.8241 -3.561981,-1.8238 2.524495,3.105 -3.351833,-2.1861 2.186109,3.3518 -3.104961,-2.5245 1.823771,3.562 -2.824069,-2.8352 1.441451,3.7331 -2.512237,-3.1149 1.043339,3.8633 -2.17288,-3.3604 0.633796,3.9512 -1.809718,-3.5691 0.217309,3.9958 -1.426727,-3.7387 -0.201558,3.9966 -1.028105,-3.8674 -0.618219,3.9537 -0.618218,-3.9537 -1.028105,3.8674 -0.201559,-3.9966 -1.426727,3.7387 0.217309,-3.9958 -1.809717,3.5691 0.633796,-3.9512 -2.172881,3.3604 1.043339,-3.8633 -2.512237,3.1149 1.441452,-3.7331 -2.8240693,2.8352 1.8237703,-3.562 -3.1049596,2.5245 2.1861082,-3.3518 -3.3518321,2.1861 2.5244943,-3.105 -3.5619809,1.8238 2.8352216,-2.8241 -3.733104,1.4415 3.1148856,-2.5123 -3.8633264,1.0434 3.3604222,-2.1729 -3.9512213,0.6338 3.5691414,-1.8097 -3.9958259,0.2173 3.7387562,-1.4267 -3.9966512,-0.2016 3.8674085,-1.0281 z"
         
         
         
         
         
         
         
         
         
         
         id="path7826"
         style="fill:none;stroke:#000000;stroke-width:0.09;stroke-linecap:butt;stroke-linejoin:round;stroke-miterlimit:4;stroke-opacity:1;stroke-dasharray:none;stroke-dashoffset:0;display:inline"
          />
      <path
         transform="matrix(0.96592583,-0.25881905,0.25881905,0.96592583,-267.0993,39.901347)"
         d="m 5.8500004,1034.3622 0.5019852,-0.6105 -0.4354262,-0.6595 0.5630444,-0.5547 -0.3640967,-0.7014 0.6179347,-0.4928 -0.2887779,-0.7357 0.6660547,-0.4254 -0.2102953,-0.7619 0.7068774,-0.3535 -0.1295087,-0.7796 0.7399553,-0.2777 -0.047303,-0.7889 0.7649262,-0.1988 0.035421,-0.7896 0.7815164,-0.1177 0.1177564,-0.7815 0.7895442,-0.035 0.198802,-0.765 0.788921,0.047 0.27767,-0.7399 0.779655,0.1295 0.353494,-0.7069 0.761847,0.2103 0.425447,-0.6661 0.735692,0.2888 0.492738,-0.6179 0.701475,0.3641 0.554631,-0.5631 0.659574,0.4355 0.610447,-0.502 0.610446,0.502 0.659574,-0.4355 0.554631,0.5631 0.701476,-0.3641 0.492738,0.6179 0.735691,-0.2888 0.425447,0.6661 0.761847,-0.2103 0.353495,0.7069 0.779654,-0.1295 0.27767,0.7399 0.788921,-0.047 0.198802,0.765 0.789544,0.035 0.117757,0.7815 0.781516,0.1177 0.03542,0.7896 0.764926,0.1988 -0.0473,0.7889 0.739955,0.2777 -0.129509,0.7796 0.706877,0.3535 -0.210295,0.7619 0.666054,0.4254 -0.288777,0.7357 0.617934,0.4928 -0.364097,0.7014 0.563045,0.5547 -0.435427,0.6595 0.501986,0.6105 -0.501986,0.6104 0.435427,0.6596 -0.563045,0.5546 0.364097,0.7015 -0.617935,0.4927 0.288778,0.7357 -0.666055,0.4255 0.210296,0.7618 -0.706878,0.3535 0.129509,0.7797 -0.739955,0.2777 0.0473,0.7889 -0.764926,0.1988 -0.03542,0.7895 -0.781516,0.1178 -0.117757,0.7815 -0.789544,0.035 -0.198802,0.7649 -0.788921,-0.047 -0.27767,0.74 -0.779655,-0.1295 -0.353494,0.7069 -0.761847,-0.2103 -0.425447,0.666 -0.735692,-0.2888 -0.492738,0.618 -0.701475,-0.3641 -0.554631,0.563 -0.659574,-0.4354 -0.610447,0.502 -0.610446,-0.502 -0.659574,0.4354 -0.554631,-0.563 -0.701476,0.3641 -0.492738,-0.618 -0.735691,0.2888 -0.425447,-0.666 -0.761847,0.2103 -0.353495,-0.7069 -0.779654,0.1295 -0.27767,-0.74 -0.788921,0.047 -0.198802,-0.7649 -0.789544,-0.035 -0.1177568,-0.7815 -0.7815159,-0.1178 -0.035421,-0.7895 -0.7649258,-0.1988 0.047303,-0.7889 -0.739955,-0.2777 0.1295085,-0.7797 -0.7068771,-0.3535 0.2102952,-0.7618 -0.6660545,-0.4255 0.2887779,-0.7357 -0.6179345,-0.4927 0.3640966,-0.7015 -0.5630442,-0.5546 0.4354262,-0.6596 z"
         
         
         
         
         
         
         
         
         
         
         id="path7830"
         style="fill:none;stroke:#000000;stroke-width:0.09;stroke-linecap:butt;stroke-linejoin:round;stroke-miterlimit:4;stroke-opacity:1;stroke-dasharray:none;stroke-dashoffset:0;display:inline"
          />
      <path
         
         style="opacity:0.14479639;fill:none;stroke:#ffffff;stroke-width:5.4000001;stroke-linecap:butt;stroke-linejoin:miter;stroke-miterlimit:4;stroke-opacity:1;stroke-dasharray:none;stroke-dashoffset:0;display:inline"
         id="path7861"
         
         
         
         
         d="m 26.995469,1024.2958 c 5.559495,4.9681 6.038948,13.5024 1.070888,19.0619 -4.862938,5.4418 -13.170307,6.0337 -18.7556616,1.3363"
         transform="matrix(-1,0,0,-1,35.949456,2068.797)"
         
         
          />
      <path
         transform="translate(0,-0.00243262)"
         
         
         
         d="m 26.995469,1024.2958 c 5.559495,4.9681 6.038948,13.5024 1.070888,19.0619 -4.862938,5.4418 -13.170307,6.0337 -18.7556616,1.3363"
         
         
         
         
         id="path7851"
         style="fill:none;stroke:#000000;stroke-width:5.4000001;stroke-linecap:butt;stroke-linejoin:miter;stroke-miterlimit:4;stroke-opacity:0.11956524;stroke-dasharray:none;stroke-dashoffset:0;display:inline"
          />
    </g>
  </g>
</svg>
