<?xml version="1.0" encoding="UTF-8" standalone="no"?>
<!-- Created with Inkscape (http://www.inkscape.org/) -->

<svg
   xmlns:dc="http://purl.org/dc/elements/1.1/"
   xmlns:cc="http://creativecommons.org/ns#"
   xmlns:rdf="http://www.w3.org/1999/02/22-rdf-syntax-ns#"
   xmlns:svg="http://www.w3.org/2000/svg"
   xmlns="http://www.w3.org/2000/svg"
   xmlns:xlink="http://www.w3.org/1999/xlink"
   xmlns:sodipodi="http://sodipodi.sourceforge.net/DTD/sodipodi-0.dtd"
   xmlns:inkscape="http://www.inkscape.org/namespaces/inkscape"
   version="1.1"
   width="13mm"
   height="23mm"
   viewBox="0 0 13 23"
   id="svg2985"
   xml:space="preserve"
   style="fill-rule:evenodd"
   
   ><sodipodi:namedview
   pagecolor="#ffffff"
   bordercolor="#666666"
   borderopacity="1"
   objecttolerance="10"
   gridtolerance="10"
   guidetolerance="10"
   
   
   
   
   id="namedview4416"
   showgrid="false"
   
   
   
   
   
   
    /><metadata
   id="metadata3162"><rdf:RDF><cc:Work
       rdf:about=""><dc:format>image/svg+xml</dc:format><dc:type
         rdf:resource="http://purl.org/dc/dcmitype/StillImage" /><dc:title></dc:title></cc:Work></rdf:RDF></metadata><defs
   id="defs3160"><linearGradient
   x1="4.6118999"
   y1="4.9299998"
   x2="4.6118999"
   y2="4.2379999"
   id="linearGradient3164"
   xlink:href="#id0"
   gradientUnits="userSpaceOnUse" /><linearGradient
   x1="4.6118999"
   y1="4.9299998"
   x2="4.6118999"
   y2="4.2379999"
   id="linearGradient3166"
   xlink:href="#id0"
   gradientUnits="userSpaceOnUse" /><linearGradient
   x1="4.6118999"
   y1="4.9299998"
   x2="4.6118999"
   y2="4.2379999"
   id="linearGradient3168"
   xlink:href="#id0"
   gradientUnits="userSpaceOnUse" />
  <defs
   id="defs2988">
   <style
   type="text/css"
   id="style2990" />
   <linearGradient
   x1="4.6118999"
   y1="4.9299998"
   x2="4.6118999"
   y2="4.2379999"
   id="id0"
   gradientUnits="userSpaceOnUse">
    <stop
   id="stop2993"
   style="stop-color:#a8a89e;stop-opacity:1"
   offset="0" />
    <stop
   id="stop2995"
   style="stop-color:#ffffff;stop-opacity:1"
   offset="1" />
   </linearGradient>
  </defs>
  
  
  
  
  
 </defs>
 <g
   id="icon"
   ><g
     id="Capa_x0020_1">
   <metadata
   id="CorelCorpID_0Corel-Layer" />
   <g
   id="_144824656">
    <g
   id="g3000">
     <rect
   width="10.9479"
   height="16.616301"
   rx="2.8585999"
   ry="2.8585999"
   x="0.88529998"
   y="0.61339998"
   id="_144825976"
   style="fill:#e6e6e6" />
     <ellipse
   cx="6.4336801"
   cy="2.8522999"
   rx="1.03627"
   ry="1.071"
   id="_144821416"
   style="fill:#1e1e1e;stroke:#1e1e1e;stroke-width:0.0762" />
    </g>
    <g
   id="g3004">
     <rect
   width="11.2103"
   height="10.9803"
   x="0.9914"
   y="6.5258899"
   id="_144822136"
   style="fill:#c3c3c3" />
     <rect
   width="0.92940003"
   height="3.8782101"
   rx="0.068400003"
   ry="0.068400003"
   x="0.98860002"
   y="4.3703799"
   id="_144818704"
   style="fill:#c3c3c3" />
     <rect
   width="0.9181"
   height="3.8782101"
   rx="0.068400003"
   ry="0.068400003"
   x="11.2886"
   y="4.3703799"
   id="_144826744"
   style="fill:#c3c3c3" />
     <rect
   width="0.92940003"
   height="3.65203"
   rx="0.228"
   ry="0.228"
   x="0.98860002"
   y="15.4243"
   id="_144823288"
   style="fill:#c3c3c3" />
     <rect
   width="1.6246001"
   height="2.0243199"
   rx="0.228"
   ry="0.228"
   x="10.577"
   y="17.052"
   id="_144827656"
   style="fill:#c3c3c3" />
     <rect
   width="9.7676897"
   height="12.8996"
   x="1.71401"
   y="5.3063002"
   id="_144829120"
   style="fill:#c3c3c3" />
     <rect
   width="10.3351"
   height="14.7276"
   x="1.3713"
   y="4.3487"
   id="_144820960"
   style="fill:#c3c3c3" />
    </g>
    <g
   id="g3013">
     <line
   class="fil3 str1"
   id="_144824728"
   y1="18.934401"
   x1="7.5868001"
   y2="22.188499"
   x2="7.5893998"
   style="fill:none;stroke:#8c8c8c;stroke-width:0.76200002" />
     <line
   class="fil3 str1"
   id="_144822016"
   y1="18.932199"
   x1="10.1268"
   y2="22.1863"
   x2="10.1294"
   style="fill:none;stroke:#8c8c8c;stroke-width:0.76200002" />
     <line
   class="fil3 str1"
   id="_144829456"
   y1="18.932199"
   x1="2.5067999"
   y2="22.1863"
   x2="2.5093999"
   style="fill:none;stroke:#8c8c8c;stroke-width:0.76200002" />
     <line
   class="fil3 str1"
   id="_144819832"
   y1="18.932199"
   x1="5.0468001"
   y2="22.1863"
   x2="5.0493999"
   style="fill:none;stroke:#8c8c8c;stroke-width:0.76200002" />
    </g>
    <g
   id="g3019">
     <g
   id="g3021">
      <rect
   width="2.5327001"
   height="0.93980002"
   x="9.3413"
   y="6.8729501"
   id="_144826048"
   style="fill:#cbcbcb" />
      <rect
   width="2.5327001"
   height="0.93980002"
   x="9.3413"
   y="8.7729502"
   id="_144823816"
   style="fill:#cbcbcb" />
      <rect
   width="2.5314"
   height="0.93980002"
   x="9.3425999"
   y="10.6729"
   id="_144826288"
   style="fill:#cbcbcb" />
      <rect
   width="2.5325999"
   height="0.93980002"
   x="9.3414001"
   y="12.5729"
   id="_144823936"
   style="fill:#cbcbcb" />
      <rect
   width="2.5327001"
   height="0.93980002"
   x="9.3413"
   y="14.4729"
   id="_144820816"
   style="fill:#cbcbcb" />
     </g>
     <g
   id="g3028">
      <rect
   width="0.704"
   height="0.93980002"
   x="0.86519998"
   y="6.8729501"
   id="_144817768"
   style="fill:#cbcbcb" />
      <rect
   width="0.704"
   height="0.93980002"
   x="0.86519998"
   y="8.7729502"
   id="_144819880"
   style="fill:#cbcbcb" />
      <rect
   width="0.704"
   height="0.93980002"
   x="0.86519998"
   y="10.6729"
   id="_144822112"
   style="fill:#cbcbcb" />
      <rect
   width="0.704"
   height="0.93980002"
   x="0.86519998"
   y="12.5729"
   id="_144820576"
   style="fill:#cbcbcb" />
      <rect
   width="0.704"
   height="0.93980002"
   x="0.86519998"
   y="14.4729"
   id="_144821872"
   style="fill:#cbcbcb" />
     </g>
    </g>
    <g
   id="g3035">
     <g
   id="g3037">
      <rect
   width="0.93980002"
   height="0.93982202"
   x="4.1430001"
   y="6.8727298"
   id="_144818008"
   style="fill:#1e1e1e" />
      <rect
   width="0.93980002"
   height="0.93982202"
   x="5.9429998"
   y="6.8727298"
   id="_144821656"
   style="fill:#1e1e1e" />
      <rect
   width="0.93980002"
   height="0.93982202"
   x="7.6430001"
   y="6.8727298"
   id="_144829816"
   style="fill:#1e1e1e" />
      <path
   d="m 9.343,6.8727 1.5828,0 c 0.2071,0 0.3763,0.0839 0.3763,0.1866 l 0,0.5666 c 0,0.1027 -0.1692,0.1867 -0.3763,0.1867 l -1.5828,0 0,-0.9399 z"
   id="_144831328"
   style="fill:#1e1e1e" />
      <rect
   width="1.7133"
   height="0.93982202"
   x="1.5695"
   y="6.8727298"
   id="_144827224"
   style="fill:#1e1e1e" />
     </g>
     <g
   id="g3044">
      <rect
   width="0.93980002"
   height="0.93982202"
   x="4.1430001"
   y="8.7727299"
   id="_144824824"
   style="fill:#1e1e1e" />
      <rect
   width="0.93980002"
   height="0.93982202"
   x="5.9429998"
   y="8.7727299"
   id="_144817504"
   style="fill:#1e1e1e" />
      <rect
   width="0.93980002"
   height="0.93982202"
   x="7.6430001"
   y="8.7727299"
   id="_144825928"
   style="fill:#1e1e1e" />
      <path
   d="m 9.343,8.7727 1.5828,0 c 0.2071,0 0.3763,0.0839 0.3763,0.1866 l 0,0.5666 c 0,0.1027 -0.1692,0.1867 -0.3763,0.1867 l -1.5828,0 0,-0.9399 z"
   id="_144829048"
   style="fill:#1e1e1e" />
      <rect
   width="1.7133"
   height="0.93982202"
   x="1.5695"
   y="8.7727299"
   id="_144825112"
   style="fill:#1e1e1e" />
     </g>
     <g
   id="g3051">
      <rect
   width="0.93980002"
   height="0.93982202"
   x="4.1430001"
   y="10.6727"
   id="_144821512"
   style="fill:#1e1e1e" />
      <rect
   width="0.93980002"
   height="0.93982202"
   x="5.9429998"
   y="10.6727"
   id="_144822784"
   style="fill:#1e1e1e" />
      <rect
   width="0.93980002"
   height="0.93982202"
   x="7.6430001"
   y="10.6727"
   id="_144822664"
   style="fill:#1e1e1e" />
      <path
   d="m 9.343,10.6727 1.5828,0 c 0.2071,0 0.3763,0.0839 0.3763,0.1866 l 0,0.5666 c 0,0.1027 -0.1692,0.1867 -0.3763,0.1867 l -1.5828,0 0,-0.9399 z"
   id="_144820672"
   style="fill:#1e1e1e" />
      <rect
   width="1.7133"
   height="0.93982202"
   x="1.5695"
   y="10.6727"
   id="_144824752"
   style="fill:#1e1e1e" />
     </g>
     <g
   id="g3058">
      <rect
   width="0.93980002"
   height="0.93982202"
   x="4.1430001"
   y="12.5727"
   id="_144828472"
   style="fill:#1e1e1e" />
      <rect
   width="0.93980002"
   height="0.93982202"
   x="5.9429998"
   y="12.5727"
   id="_144821968"
   style="fill:#1e1e1e" />
      <rect
   width="0.93980002"
   height="0.93982202"
   x="7.6430001"
   y="12.5727"
   id="_144828256"
   style="fill:#1e1e1e" />
      <path
   d="m 9.343,12.5727 1.5828,0 c 0.2071,0 0.3763,0.0839 0.3763,0.1866 l 0,0.5666 c 0,0.1027 -0.1692,0.1867 -0.3763,0.1867 l -1.5828,0 0,-0.9399 z"
   id="_144828376"
   style="fill:#1e1e1e" />
      <rect
   width="1.7133"
   height="0.93982202"
   x="1.5695"
   y="12.5727"
   id="_144823504"
   style="fill:#1e1e1e" />
     </g>
     <g
   id="g3065">
      <rect
   width="0.93980002"
   height="0.93982202"
   x="4.1430001"
   y="14.4727"
   id="_144825784"
   style="fill:#1e1e1e" />
      <rect
   width="0.93980002"
   height="0.93982202"
   x="5.9429998"
   y="14.4727"
   id="_144826936"
   style="fill:#1e1e1e" />
      <rect
   width="0.93980002"
   height="0.93982202"
   x="7.6430001"
   y="14.4727"
   id="_144826912"
   style="fill:#1e1e1e" />
      <path
   d="m 9.343,14.4727 1.5828,0 c 0.2071,0 0.3763,0.0839 0.3763,0.1866 l 0,0.5666 c 0,0.1027 -0.1692,0.1867 -0.3763,0.1867 l -1.5828,0 0,-0.9399 z"
   id="_144827152"
   style="fill:#1e1e1e" />
      <rect
   width="1.7133"
   height="0.93982202"
   x="1.5695"
   y="14.4727"
   id="_144827080"
   style="fill:#1e1e1e" />
     </g>
    </g>
    <g
   id="g3072">
     <g
   id="g3074">
      <g
   id="g3076">
       <g
   id="g3078">
        <rect
   width="0.8599"
   height="13.9826"
   x="3.2832"
   y="4.2381501"
   id="_144817024"
   style="fill:#f0f0f0" />
        <rect
   width="0.85479999"
   height="0.74903798"
   rx="0.058800001"
   ry="0.058800001"
   x="3.2874501"
   y="3.9563999"
   id="_144817168"
   style="fill:#f0f0f0" />
       </g>
       <g
   id="g3082">
        <rect
   width="0.8599"
   height="13.9826"
   x="5.0832"
   y="4.2381501"
   id="_144817240"
   style="fill:#f0f0f0" />
        <rect
   width="0.85479999"
   height="0.74903798"
   rx="0.058800001"
   ry="0.058800001"
   x="5.08745"
   y="3.9563999"
   id="_144816328"
   style="fill:#f0f0f0" />
       </g>
       <g
   id="g3086">
        <rect
   width="0.8599"
   height="13.9826"
   x="6.8832002"
   y="4.2381501"
   id="_144815368"
   style="fill:#f0f0f0" />
        <rect
   width="0.85479999"
   height="0.74903798"
   rx="0.058800001"
   ry="0.058800001"
   x="6.8874502"
   y="3.9563999"
   id="_144818248"
   style="fill:#f0f0f0" />
       </g>
       <g
   id="g3090">
        <rect
   width="0.8599"
   height="13.9826"
   x="8.5832005"
   y="4.2381501"
   id="_144817960"
   style="fill:#f0f0f0" />
        <rect
   width="0.85479999"
   height="0.74903798"
   rx="0.058800001"
   ry="0.058800001"
   x="8.58745"
   y="3.9563999"
   id="_144818128"
   style="fill:#f0f0f0" />
       </g>
      </g>
      <g
   id="g3094">
       <g
   id="g3096">
        <rect
   width="10.8352"
   height="1.2553999"
   x="0.9928"
   y="5.6143999"
   id="_144817864"
   style="fill:#f0f0f0" />
        <rect
   width="1.2051001"
   height="1.2553"
   rx="0.090400003"
   ry="0.090400003"
   x="0.66600001"
   y="5.6173"
   id="_144817720"
   style="fill:#f0f0f0" />
        <rect
   width="1.2561001"
   height="1.2553"
   rx="0.090400003"
   ry="0.090400003"
   x="10.766"
   y="5.6173"
   id="_144817408"
   style="fill:#f0f0f0" />
       </g>
       <g
   id="g3101">
        <rect
   width="10.8352"
   height="0.94080198"
   x="0.9928"
   y="7.8281002"
   id="_144817744"
   style="fill:#f0f0f0" />
        <rect
   width="1.2051001"
   height="0.940727"
   rx="0.090400003"
   ry="0.090400003"
   x="0.66600001"
   y="7.8302698"
   id="_144828448"
   style="fill:#f0f0f0" />
        <rect
   width="1.2561001"
   height="0.940727"
   rx="0.090400003"
   ry="0.090400003"
   x="10.766"
   y="7.8302698"
   id="_144815320"
   style="fill:#f0f0f0" />
       </g>
       <g
   id="g3106">
        <rect
   width="10.8352"
   height="0.95497"
   x="0.9928"
   y="9.7138996"
   id="_144826264"
   style="fill:#f0f0f0" />
        <rect
   width="1.2051001"
   height="0.95489401"
   rx="0.090400003"
   ry="0.090400003"
   x="0.66600001"
   y="9.7161102"
   id="_144825736"
   style="fill:#f0f0f0" />
        <rect
   width="1.2561001"
   height="0.95489401"
   rx="0.090400003"
   ry="0.090400003"
   x="10.766"
   y="9.7161102"
   id="_144821320"
   style="fill:#f0f0f0" />
       </g>
       <g
   id="g3111">
        <rect
   width="10.8352"
   height="0.95497"
   x="0.9928"
   y="11.6139"
   id="_144828688"
   style="fill:#f0f0f0" />
        <rect
   width="1.2051001"
   height="0.95489401"
   rx="0.090400003"
   ry="0.090400003"
   x="0.66600001"
   y="11.6161"
   id="_144819808"
   style="fill:#f0f0f0" />
        <rect
   width="1.2561001"
   height="0.95489401"
   rx="0.090400003"
   ry="0.090400003"
   x="10.766"
   y="11.6161"
   id="_144820288"
   style="fill:#f0f0f0" />
       </g>
       <g
   id="g3116">
        <rect
   width="10.8352"
   height="0.95497"
   x="0.9928"
   y="13.5139"
   id="_144820888"
   style="fill:#f0f0f0" />
        <rect
   width="1.2051001"
   height="0.95489401"
   rx="0.090400003"
   ry="0.090400003"
   x="0.66600001"
   y="13.5161"
   id="_144819568"
   style="fill:#f0f0f0" />
        <rect
   width="1.2561001"
   height="0.95489401"
   rx="0.090400003"
   ry="0.090400003"
   x="10.766"
   y="13.5161"
   id="_144818536"
   style="fill:#f0f0f0" />
       </g>
      </g>
     </g>
     <g
   id="g3121">
      <g
   id="g3123">
       <rect
   width="11.2103"
   height="2.5827"
   x="0.79140002"
   y="15.9243"
   id="_144827800"
   style="fill:#f0f0f0" />
       <rect
   width="0.92940003"
   height="0.91219997"
   rx="0.068400003"
   ry="0.068400003"
   x="0.78860003"
   y="15.4173"
   id="_144826000"
   style="fill:#f0f0f0" />
       <rect
   width="0.9181"
   height="0.91219997"
   rx="0.068400003"
   ry="0.068400003"
   x="11.0886"
   y="15.4173"
   id="_144827488"
   style="fill:#f0f0f0" />
       <rect
   width="0.92940003"
   height="0.85900003"
   rx="0.228"
   ry="0.228"
   x="0.78860003"
   y="18.0173"
   id="_144825808"
   style="fill:#f0f0f0" />
       <rect
   width="0.91299999"
   height="0.85900003"
   rx="0.228"
   ry="0.228"
   x="11.0886"
   y="18.0173"
   id="_144825208"
   style="fill:#f0f0f0" />
       <rect
   width="9.7676897"
   height="3.0341201"
   x="1.51401"
   y="15.6374"
   id="_144821752"
   style="fill:#f0f0f0" />
       <rect
   width="10.3351"
   height="3.4640999"
   x="1.1713001"
   y="15.4122"
   id="_144821560"
   style="fill:#f0f0f0" />
      </g>
      <g
   id="g3132">
       <rect
   width="3.1861"
   height="2.2342"
   rx="0.44679999"
   ry="0.44679999"
   x="0.67110002"
   y="3.9540999"
   id="_144822040"
   style="fill:#f0f0f0" />
       <rect
   width="3.1505001"
   height="2.2342"
   rx="0.44679999"
   ry="0.44679999"
   x="8.8664999"
   y="3.9540999"
   id="_144822280"
   style="fill:#f0f0f0" />
      </g>
     </g>
    </g>
    <g
   id="g3136">
     <g
   id="g3138">
      <g
   id="g3140">
       <rect
   width="0.93690002"
   height="0.69209999"
   x="4.1434999"
   y="4.9225998"
   id="_144827680"
   style="fill:#323232" />
       <rect
   width="0.93690002"
   height="0.69209999"
   x="5.9435"
   y="4.9225998"
   id="_144824176"
   style="fill:#323232" />
       <rect
   width="0.79509997"
   height="0.69209999"
   x="7.7456999"
   y="4.9225998"
   id="_144822616"
   style="fill:#323232" />
      </g>
      <g
   id="g3145">
       <path
   d="m 4.1431,5.2274 c 0.9396,0 0.9396,0 0.9396,0"
   id="_144828880"
   style="fill:none;stroke:#78786e;stroke-width:0.25" />
       <path
   d="M 5.9433,5.1839 C 6.2376,5.1821 6.3992,5.3257 6.4179,5.6124"
   id="_144823480"
   style="fill:none;stroke:#78786e;stroke-width:0.0762" />
      </g>
     </g>
     <g
   id="g3149">
      <rect
   width="0.93690002"
   height="0.69209999"
   x="4.1434999"
   y="4.2379999"
   id="_144817384"
   style="fill:url(#linearGradient3164)" />
      <rect
   width="0.93690002"
   height="0.69209999"
   x="5.9435"
   y="4.2379999"
   id="_144825040"
   style="fill:url(#linearGradient3166)" />
      <rect
   width="0.79509997"
   height="0.69209999"
   x="7.7456999"
   y="4.2379999"
   id="_144817648"
   style="fill:url(#linearGradient3168)" />
     </g>
    </g>
   </g>
  </g><rect
     width="1.4111111"
     height="1.4111111"
     x="1.7852287"
     y="20.730328"
     id="connector1"
     style="fill:none" /><rect
     width="1.4111111"
     height="1.4111111"
     x="4.3750329"
     y="20.730328"
     id="connector2"
     style="fill:none" /><rect
     width="1.4111111"
     height="1.4111111"
     x="6.832026"
     y="20.796732"
     id="connector3"
     style="fill:none" /><rect
     width="1.4111111"
     height="1.4111111"
     x="9.4218302"
     y="20.730328"
     id="connector4"
     style="fill:none" /></g>
</svg>