<?xml version='1.0' encoding='utf-8'?>
<!-- Generator: Adobe Illustrator 20.0.0, SVG Export Plug-In . SVG Version: 6.00 Build 0)  -->
<svg xmlns="http://www.w3.org/2000/svg" gorn="0" baseProfile="tiny" viewBox="0 0 43.2 43.2" xmlns:xml="http://www.w3.org/XML/1998/namespace" height="0.6in" id="Layer_1" width="0.6in"  version="1.2" x="0px" y="0px" xml:space="preserve">
    <desc >
        <referenceFile >Flora_TCS34725_v0.1_breadboard.svg</referenceFile>
    </desc>
    <desc >Fritzing breadboard generated by brd2svg</desc>
    <g gorn="0.2" id="breadboard" >
        <g gorn="0.2.0" id="icon" >
            <path fill="#0A0A0A" d="M0,21.6C-0.002,9.671,9.667-0.002,21.597-0.003S43.198,9.664,43.2,21.593c0,0.002,0,0.005,0,0.007c0.002,11.929-9.667,21.602-21.597,21.603S0.002,33.536,0,21.607C0,21.605,0,21.602,0,21.6z M19.899,39.6c0,0.939,0.761,1.701,1.701,1.701s1.701-0.761,1.701-1.701s-0.761-1.701-1.701-1.701S19.899,38.661,19.899,39.6z M19.899,3.6c0,0.939,0.761,1.701,1.701,1.701s1.701-0.761,1.701-1.701S22.539,1.899,21.6,1.899S19.899,2.661,19.899,3.6z M4.059,30.6c0,0.939,0.761,1.701,1.701,1.701s1.701-0.761,1.701-1.701s-0.761-1.701-1.701-1.701S4.059,29.661,4.059,30.6z M35.739,30.6c0,0.939,0.761,1.701,1.701,1.701s1.701-0.761,1.701-1.701l0,0c0-0.939-0.761-1.701-1.701-1.701S35.739,29.661,35.739,30.6z M4.059,12.6c0,0.939,0.761,1.701,1.701,1.701s1.701-0.761,1.701-1.701s-0.761-1.701-1.701-1.701C4.821,10.899,4.059,11.661,4.059,12.6z M35.739,12.6c0,0.939,0.761,1.701,1.701,1.701s1.701-0.761,1.701-1.701l0,0c0-0.939-0.761-1.701-1.701-1.701S35.739,11.661,35.739,12.6z" />
            <g >
                <title >layer 21</title>
                <g >
                    <title >text:SCL</title>
                    <g transform="matrix(1 0 0 1 1.08 19.8)" >
                        <g >
                            <g >
                                <g >
                                    <g >
                                        <text fill="#FFFFFF" font-family="'OCRA'"  font-size="2.67264">SCL</text>
                                    </g>
                                </g>
                            </g>
                        </g>
                    </g>
                </g>
                <g >
                    <title >text:SCL</title>
                    <g transform="matrix(1 0 0 1 34.92 19.8)" >
                        <g >
                            <g >
                                <g >
                                    <g >
                                        <text fill="#FFFFFF" font-family="'OCRA'"  font-size="2.67264">SCL</text>
                                    </g>
                                </g>
                            </g>
                        </g>
                    </g>
                </g>
                <g >
                    <title >text:SDA</title>
                    <g transform="matrix(1 0 0 1 0.72 26.64)" >
                        <g >
                            <g >
                                <g >
                                    <g >
                                        <text fill="#FFFFFF" font-family="'OCRA'"  font-size="2.67264">SDA</text>
                                    </g>
                                </g>
                            </g>
                        </g>
                    </g>
                </g>
                <g >
                    <title >text:SDA</title>
                    <g transform="matrix(1 0 0 1 34.56 26.64)" >
                        <g >
                            <g >
                                <g >
                                    <g >
                                        <text fill="#FFFFFF" font-family="'OCRA'"  font-size="2.67264">SDA</text>
                                    </g>
                                </g>
                            </g>
                        </g>
                    </g>
                </g>
                <g >
                    <title >text:3V</title>
                    <g transform="matrix(1 0 0 1 12.96 39.96)" >
                        <g >
                            <g >
                                <g >
                                    <g >
                                        <text fill="#FFFFFF" font-family="'OCRA'"  font-size="2.67264">3V</text>
                                    </g>
                                </g>
                            </g>
                        </g>
                    </g>
                </g>
                <g >
                    <title >text:GND</title>
                    <g transform="matrix(1 0 0 1 25.3585 5.9984)" >
                        <g >
                            <g >
                                <g >
                                    <g >
                                        <text fill="#FFFFFF" font-family="'OCRA'"  font-size="2.67264">GND</text>
                                    </g>
                                </g>
                            </g>
                        </g>
                    </g>
                </g>
                <g >
                    <title >element:C1</title>
                    <g >
                        <title >package:_0805</title>
                        <line stroke="#FFFFFF" fill="none" stroke-linecap="round" stroke-width="0.576" y1="29.336" y2="29.336"  x1="10.176" x2="20.976"/>
                        <line stroke="#FFFFFF" fill="none" stroke-linecap="round" stroke-width="0.576" y1="29.336" y2="34.376"  x1="20.976" x2="20.976"/>
                        <line stroke="#FFFFFF" fill="none" stroke-linecap="round" stroke-width="0.576" y1="34.376" y2="34.376"  x1="20.976" x2="10.176"/>
                        <line stroke="#FFFFFF" fill="none" stroke-linecap="round" stroke-width="0.576" y1="34.376" y2="29.336"  x1="10.176" x2="10.176"/>
                    </g>
                </g>
                <g >
                    <title >element:FID1</title>
                    <g >
                        <title >package:FIDUCIAL_1MM</title>
                    </g>
                </g>
                <g >
                    <title >element:FID2</title>
                    <g >
                        <title >package:FIDUCIAL_1MM</title>
                    </g>
                </g>
                <g >
                    <title >element:LED1</title>
                    <g >
                        <title >package:EVERLIGHT_45-21</title>
                        <line stroke="#FFFFFF" fill="none" stroke-linecap="round" stroke-width="0.36" y1="26.719" y2="26.719"  x1="9.825" x2="9.116"/>
                        <line stroke="#FFFFFF" fill="none" stroke-linecap="round" stroke-width="0.36" y1="26.719" y2="18.499"  x1="9.116" x2="9.116"/>
                        <line stroke="#FFFFFF" fill="none" stroke-linecap="round" stroke-width="0.36" y1="18.499" y2="18.499"  x1="9.116" x2="9.683"/>
                        <line stroke="#FFFFFF" fill="none" stroke-linecap="round" stroke-width="0.36" y1="18.499" y2="18.499"  x1="9.683" x2="9.825"/>
                        <line stroke="#FFFFFF" fill="none" stroke-linecap="round" stroke-width="0.36" y1="26.719" y2="26.719"  x1="14.644" x2="15.352"/>
                        <line stroke="#FFFFFF" fill="none" stroke-linecap="round" stroke-width="0.36" y1="26.719" y2="18.499"  x1="15.352" x2="15.352"/>
                        <line stroke="#FFFFFF" fill="none" stroke-linecap="round" stroke-width="0.36" y1="18.499" y2="18.499"  x1="15.352" x2="14.644"/>
                        <g >
                            <title >polygon</title>
                            <path stroke="#FFFFFF" fill="none" stroke-linecap="round" stroke-width="0.432" d="M12.234,21.889v1.723V21.889l1.364,1.723h-2.727L12.234,21.889 M13.53,23.613v-0.085V23.613 M13.098,23.613v-0.631V23.613 M12.666,23.613v-1.177V23.613 M11.802,23.613v-1.177V23.613 M11.37,23.613v-0.631V23.613" />
                        </g>
                    </g>
                </g>
                <g >
                    <title >element:Q3</title>
                    <g >
                        <title >package:SOT23-WIDE</title>
                        <line stroke="#FFFFFF" fill="none" stroke-linecap="round" stroke-width="0.576" y1="10.771" y2="14.492"  x1="21.346" x2="21.346"/>
                        <line stroke="#FFFFFF" fill="none" stroke-linecap="round" stroke-width="0.576" y1="14.492" y2="14.492"  x1="21.346" x2="18.628"/>
                        <line stroke="#FFFFFF" fill="none" stroke-linecap="round" stroke-width="0.576" y1="14.492" y2="10.771"  x1="11.865" x2="11.865"/>
                        <line stroke="#FFFFFF" fill="none" stroke-linecap="round" stroke-width="0.576" y1="14.492" y2="14.492"  x1="14.583" x2="11.865"/>
                        <line stroke="#FFFFFF" fill="none" stroke-linecap="round" stroke-width="0.576" y1="10.748" y2="10.748"  x1="15.975" x2="17.275"/>
                    </g>
                </g>
                <g >
                    <title >element:R1</title>
                    <g >
                        <title >package:_0805</title>
                        <line stroke="#FFFFFF" fill="none" stroke-linecap="round" stroke-width="0.576" y1="16.824" y2="27.624"  x1="33.387" x2="33.387"/>
                        <line stroke="#FFFFFF" fill="none" stroke-linecap="round" stroke-width="0.576" y1="27.624" y2="27.624"  x1="33.387" x2="28.347"/>
                        <line stroke="#FFFFFF" fill="none" stroke-linecap="round" stroke-width="0.576" y1="27.624" y2="16.824"  x1="28.347" x2="28.347"/>
                        <line stroke="#FFFFFF" fill="none" stroke-linecap="round" stroke-width="0.576" y1="16.824" y2="16.824"  x1="28.347" x2="33.387"/>
                    </g>
                </g>
                <g >
                    <title >element:R2</title>
                    <g >
                        <title >package:_0805</title>
                        <line stroke="#FFFFFF" fill="none" stroke-linecap="round" stroke-width="0.576" y1="34.316" y2="34.316"  x1="32.78" x2="21.98"/>
                        <line stroke="#FFFFFF" fill="none" stroke-linecap="round" stroke-width="0.576" y1="34.316" y2="29.276"  x1="21.98" x2="21.98"/>
                        <line stroke="#FFFFFF" fill="none" stroke-linecap="round" stroke-width="0.576" y1="29.276" y2="29.276"  x1="21.98" x2="32.78"/>
                        <line stroke="#FFFFFF" fill="none" stroke-linecap="round" stroke-width="0.576" y1="29.276" y2="34.316"  x1="32.78" x2="32.78"/>
                    </g>
                </g>
                <g >
                    <title >element:R6</title>
                    <g >
                        <title >package:_0805</title>
                        <line stroke="#FFFFFF" fill="none" stroke-linecap="round" stroke-width="0.576" y1="9.36" y2="9.36"  x1="21.96" x2="32.76"/>
                        <line stroke="#FFFFFF" fill="none" stroke-linecap="round" stroke-width="0.576" y1="9.36" y2="14.4"  x1="32.76" x2="32.76"/>
                        <line stroke="#FFFFFF" fill="none" stroke-linecap="round" stroke-width="0.576" y1="14.4" y2="14.4"  x1="32.76" x2="21.96"/>
                        <line stroke="#FFFFFF" fill="none" stroke-linecap="round" stroke-width="0.576" y1="14.4" y2="9.36"  x1="21.96" x2="21.96"/>
                    </g>
                </g>
                <g >
                    <title >element:TP1</title>
                    <g >
                        <title >package:SEWINGTAP_0.5</title>
                    </g>
                </g>
                <g >
                    <title >element:TP2</title>
                    <g >
                        <title >package:SEWINGTAP_0.5</title>
                    </g>
                </g>
                <g >
                    <title >element:TP3</title>
                    <g >
                        <title >package:SEWINGTAP_0.5</title>
                    </g>
                </g>
                <g >
                    <title >element:TP4</title>
                    <g >
                        <title >package:SEWINGTAP_0.5</title>
                    </g>
                </g>
                <g >
                    <title >element:TP5</title>
                    <g >
                        <title >package:SEWINGTAP_0.5</title>
                    </g>
                </g>
                <g >
                    <title >element:TP6</title>
                    <g >
                        <title >package:SEWINGTAP_0.5</title>
                    </g>
                </g>
                <g >
                    <title >element:U$8</title>
                    <g >
                        <title >package:ADAFRUIT_3.5MM</title>
                    </g>
                </g>
                <g >
                    <title >element:U1</title>
                    <g >
                        <title >package:TCS3472_FN6</title>
                        <line stroke="#FFFFFF" fill="none" stroke-linecap="round" stroke-width="0.36" y1="24.795" y2="25.645"  x1="25.078" x2="25.078"/>
                        <line stroke="#FFFFFF" fill="none" stroke-linecap="round" stroke-width="0.36" y1="25.645" y2="25.645"  x1="25.078" x2="18.842"/>
                        <line stroke="#FFFFFF" fill="none" stroke-linecap="round" stroke-width="0.36" y1="25.645" y2="24.795"  x1="18.842" x2="18.842"/>
                        <line stroke="#FFFFFF" fill="none" stroke-linecap="round" stroke-width="0.36" y1="19.125" y2="18.275"  x1="25.078" x2="25.078"/>
                        <line stroke="#FFFFFF" fill="none" stroke-linecap="round" stroke-width="0.36" y1="18.275" y2="18.275"  x1="25.078" x2="18.842"/>
                        <line stroke="#FFFFFF" fill="none" stroke-linecap="round" stroke-width="0.36" y1="18.275" y2="19.125"  x1="18.842" x2="18.842"/>
                        <circle stroke="#FFFFFF" r="0.283" fill="none" stroke-width="0.8504" cx="27.346" cy="23.803" />
                    </g>
                </g>
            </g>
            <rect gorn="0.2.0.2" height="3.685" id="connector0pin" fill="#9A916C" width="3.402"  x="10.996" y="30.013"/>
            <rect gorn="0.2.0.3" height="3.685" id="connector1pin" fill="#9A916C" width="3.402"  x="16.756" y="30.013"/>
            <path gorn="0.2.0.4" id="connector2pin" fill="#9A916C" d="M13.68,3.263L13.68,3.263c0.783,0,1.417,0.635,1.417,1.417v0c0,0.783-0.635,1.417-1.417,1.417h0c-0.783,0-1.417-0.635-1.417-1.417v0C12.263,3.897,12.897,3.263,13.68,3.263z" />
            <path gorn="0.2.0.5" id="connector3pin" fill="#9A916C" d="M29.16,36.383L29.16,36.383c0.783,0,1.417,0.635,1.417,1.417v0c0,0.783-0.635,1.417-1.417,1.417h0c-0.783,0-1.417-0.635-1.417-1.417v0C27.743,37.017,28.377,36.383,29.16,36.383z" />
            <g transform="matrix(0, -1, 1, 0, -14.485, 38.9537)" >
                <g >
                    <g >
                        <g >
                            <g >
                                <g >
                                    <g transform="matrix(-2.535182e-06 -1 1 -2.535182e-06 -14.485 38.9538)" >
                                        <g >
                                            <g >
                                                <g >
                                                    <g >
                                                        <rect gorn="0.2.0.6.0.0.0.0.0.0.0.0.0.0.0" height="3.969" id="connector4pin" fill="#9A916C" width="3.969"  x="10.25" y="24.735"/>
                                                    </g>
                                                </g>
                                            </g>
                                        </g>
                                    </g>
                                </g>
                            </g>
                        </g>
                    </g>
                </g>
            </g>
            <g transform="matrix(0, -1, 1, 0, -6.26457, 30.7332)" >
                <g >
                    <g >
                        <g >
                            <g >
                                <g >
                                    <g transform="matrix(-2.535182e-06 -1 1 -2.535182e-06 -6.2645 30.7332)" >
                                        <g >
                                            <g >
                                                <g >
                                                    <g >
                                                        <rect gorn="0.2.0.7.0.0.0.0.0.0.0.0.0.0.0" height="3.969" id="connector5pin" fill="#9A916C" width="3.969"  x="10.25" y="16.515"/>
                                                    </g>
                                                </g>
                                            </g>
                                        </g>
                                    </g>
                                </g>
                            </g>
                        </g>
                    </g>
                </g>
            </g>
            <g transform="matrix(-1, 0, 0, -1, 38.5965, 19.5704)" >
                <g >
                    <g >
                        <g >
                            <g >
                                <g >
                                    <rect gorn="0.2.0.8.0.0.0.0.0.0" height="3.402" id="connector6pin" fill="#9A916C" width="2.835"  x="17.881" y="8.084"/>
                                </g>
                            </g>
                        </g>
                    </g>
                </g>
            </g>
            <g transform="matrix(-1, 0, 0, -1, 27.8249, 19.5704)" >
                <g >
                    <g >
                        <g >
                            <g >
                                <g >
                                    <rect gorn="0.2.0.9.0.0.0.0.0.0" height="3.402" id="connector7pin" fill="#9A916C" width="2.835"  x="12.495" y="8.084"/>
                                </g>
                            </g>
                        </g>
                    </g>
                </g>
            </g>
            <g transform="matrix(-1, 0, 0, -1, 33.2107, 30.909)" >
                <g >
                    <g >
                        <g >
                            <g >
                                <g >
                                    <rect gorn="0.2.0.10.0.0.0.0.0.0" height="3.402" id="connector8pin" fill="#9A916C" width="2.835"  x="15.188" y="13.754"/>
                                </g>
                            </g>
                        </g>
                    </g>
                </g>
            </g>
            <g transform="matrix(0, 1, -1, 0, 50.2101, -11.5228)" >
                <g >
                    <g >
                        <g >
                            <g >
                                <g >
                                    <g transform="matrix(2.535182e-06 1 -1 2.535182e-06 50.21 -11.5229)" >
                                        <g >
                                            <g >
                                                <g >
                                                    <g >
                                                        <rect gorn="0.2.0.11.0.0.0.0.0.0.0.0.0.0.0" height="3.402" id="connector9pin" fill="#9A916C" width="3.685"  x="29.024" y="17.643"/>
                                                    </g>
                                                </g>
                                            </g>
                                        </g>
                                    </g>
                                </g>
                            </g>
                        </g>
                    </g>
                </g>
            </g>
            <g transform="matrix(0, 1, -1, 0, 55.9701, -5.76284)" >
                <g >
                    <g >
                        <g >
                            <g >
                                <g >
                                    <g transform="matrix(2.535182e-06 1 -1 2.535182e-06 55.97 -5.7629)" >
                                        <g >
                                            <g >
                                                <g >
                                                    <g >
                                                        <rect gorn="0.2.0.12.0.0.0.0.0.0.0.0.0.0.0" height="3.402" id="connector10pin" fill="#9A916C" width="3.685"  x="29.024" y="23.403"/>
                                                    </g>
                                                </g>
                                            </g>
                                        </g>
                                    </g>
                                </g>
                            </g>
                        </g>
                    </g>
                </g>
            </g>
            <g transform="matrix(-1, 0, 0, -1, 60.5197, 63.5924)" >
                <g >
                    <g >
                        <g >
                            <g >
                                <g >
                                    <rect gorn="0.2.0.13.0.0.0.0.0.0" height="3.685" id="connector11pin" fill="#9A916C" width="3.402"  x="28.559" y="29.954"/>
                                </g>
                            </g>
                        </g>
                    </g>
                </g>
            </g>
            <g transform="matrix(-1, 0, 0, -1, 48.9997, 63.5924)" >
                <g >
                    <g >
                        <g >
                            <g >
                                <g >
                                    <rect gorn="0.2.0.14.0.0.0.0.0.0" height="3.685" id="connector12pin" fill="#9A916C" width="3.402"  x="22.799" y="29.954"/>
                                </g>
                            </g>
                        </g>
                    </g>
                </g>
            </g>
            <rect gorn="0.2.0.15" height="3.685" id="connector13pin" fill="#9A916C" width="3.402"  x="22.779" y="10.037"/>
            <rect gorn="0.2.0.16" height="3.685" id="connector14pin" fill="#9A916C" width="3.402"  x="28.539" y="10.037"/>
            <circle gorn="0.2.0.17" stroke="#9A916C" id="connector15pin" r="2.398" fill="none" stroke-width="1.3952" cx="21.6" cy="39.6" />
            <circle gorn="0.2.0.18" stroke="#9A916C" id="connector16pin" r="2.398" fill="none" stroke-width="1.3952" cx="21.6" cy="3.6" />
            <circle gorn="0.2.0.19" stroke="#9A916C" id="connector17pin" r="2.398" fill="none" stroke-width="1.3952" cx="5.76" cy="30.6" />
            <circle gorn="0.2.0.20" stroke="#9A916C" id="connector18pin" r="2.398" fill="none" stroke-width="1.3952" cx="37.44" cy="30.6" />
            <circle gorn="0.2.0.21" stroke="#9A916C" id="connector19pin" r="2.398" fill="none" stroke-width="1.3952" cx="5.76" cy="12.6" />
            <circle gorn="0.2.0.22" stroke="#9A916C" id="connector20pin" r="2.398" fill="none" stroke-width="1.3952" cx="37.44" cy="12.6" />
            <g transform="matrix(-1, 0, 0, -1, 48.7389, 47.605)" >
                <g >
                    <g >
                        <g >
                            <g >
                                <g >
                                    <rect gorn="0.2.0.23.0.0.0.0.0.0" height="1.134" id="connector21pin" fill="#9A916C" width="3.402"  x="22.669" y="23.236"/>
                                </g>
                            </g>
                        </g>
                    </g>
                </g>
            </g>
            <g transform="matrix(-1, 0, 0, -1, 49.3058, 43.92)" >
                <g >
                    <g >
                        <g >
                            <g >
                                <g >
                                    <rect gorn="0.2.0.24.0.0.0.0.0.0" height="1.134" id="connector22pin" fill="#9A916C" width="2.835"  x="23.236" y="21.393"/>
                                </g>
                            </g>
                        </g>
                    </g>
                </g>
            </g>
            <g transform="matrix(-1, 0, 0, -1, 49.3058, 40.235)" >
                <g >
                    <g >
                        <g >
                            <g >
                                <g >
                                    <rect gorn="0.2.0.25.0.0.0.0.0.0" height="1.134" id="connector23pin" fill="#9A916C" width="2.835"  x="23.236" y="19.551"/>
                                </g>
                            </g>
                        </g>
                    </g>
                </g>
            </g>
            <g transform="matrix(-1, 0, 0, -1, 38.5342, 40.235)" >
                <g >
                    <g >
                        <g >
                            <g >
                                <g >
                                    <rect gorn="0.2.0.26.0.0.0.0.0.0" height="1.134" id="connector24pin" fill="#9A916C" width="2.835"  x="17.85" y="19.551"/>
                                </g>
                            </g>
                        </g>
                    </g>
                </g>
            </g>
            <g transform="matrix(-1, 0, 0, -1, 38.5342, 43.92)" >
                <g >
                    <g >
                        <g >
                            <g >
                                <g >
                                    <rect gorn="0.2.0.27.0.0.0.0.0.0" height="1.134" id="connector25pin" fill="#9A916C" width="2.835"  x="17.85" y="21.393"/>
                                </g>
                            </g>
                        </g>
                    </g>
                </g>
            </g>
            <g transform="matrix(-1, 0, 0, -1, 38.5342, 47.605)" >
                <g >
                    <g >
                        <g >
                            <g >
                                <g >
                                    <rect gorn="0.2.0.28.0.0.0.0.0.0" height="1.134" id="connector26pin" fill="#9A916C" width="2.835"  x="17.85" y="23.236"/>
                                </g>
                            </g>
                        </g>
                    </g>
                </g>
            </g>
        </g>
        <g transform="matrix(1, 0, 0, 1, 12.7419, 30.0843)" >
            <g >
                <g >
                    <g >
                        <g >
                            <g gorn="0.2.1.0.0.0.0.0" id="_0805" >
                                <path fill="#DCDCDC" d="M5.386,3.543H0.283C0.127,3.543,0,3.416,0,3.26V0.283C0,0.127,0.127,0,0.283,0h5.102c0.157,0,0.283,0.127,0.283,0.283V3.26C5.669,3.416,5.542,3.543,5.386,3.543z" />
                                <rect height="3.543" fill="#6E554B" width="3.543"  x="1.063" y="0"/>
                            </g>
                        </g>
                    </g>
                </g>
            </g>
        </g>
        <g transform="matrix(1, 0, 0, 1, 7.98235, 19.7747)" >
            <g >
                <g >
                    <g >
                        <g >
                            <g gorn="0.2.2.0.0.0.0.0" id="everlight_45-21" >
                                <g transform="matrix(0, -1, 1, 0, 1.41749, 7.0865)" >
                                    <g >
                                        <g >
                                            <g >
                                                <g >
                                                    <g >
                                                        <g >
                                                            <g transform="matrix(-2.535182e-06 -1 1 -2.535182e-06 1.4175 7.0865)" >
                                                                <g >
                                                                    <g >
                                                                        <g >
                                                                            <g >
                                                                                <rect height="8.504" fill="#DCDCDC" width="3.969"  x="2.267" y="-1.417"/>
                                                                            </g>
                                                                        </g>
                                                                    </g>
                                                                </g>
                                                            </g>
                                                            <g transform="matrix(-2.535182e-06 -1 1 -2.535182e-06 1.4175 7.0865)" >
                                                                <g >
                                                                    <g >
                                                                        <g >
                                                                            <g >
                                                                                <rect height="7.654" fill="#F5F5F5" width="5.669"  x="1.418" y="-0.993"/>
                                                                            </g>
                                                                        </g>
                                                                    </g>
                                                                </g>
                                                            </g>
                                                            <path fill="#FFFF96" d="M0.993,3.968V1.701c0-0.626,0.508-1.134,1.134-1.134h4.251c0.626,0,1.134,0.508,1.134,1.134v2.268c0,0.626-0.508,1.134-1.134,1.134l-4.252,0C1.5,5.102,0.993,4.595,0.993,3.968z" />
                                                            <path fill="#F0F050" d="M2.126,4.535c-0.312,0-0.566-0.254-0.566-0.567V1.7c0-0.312,0.254-0.567,0.566-0.567h4.251c0.312,0,0.566,0.254,0.566,0.567v2.268c0,0.313-0.254,0.567-0.566,0.567H2.126z" />
                                                        </g>
                                                    </g>
                                                </g>
                                            </g>
                                        </g>
                                    </g>
                                </g>
                            </g>
                        </g>
                    </g>
                </g>
            </g>
        </g>
        <g transform="matrix(1, 0, 0, 1, 12.3533, 8.79286)" >
            <g >
                <g >
                    <g >
                        <g >
                            <g gorn="0.2.3.0.0.0.0.0" id="sot23-wide" >
                                <g transform="matrix(-1, 0, 0, -1, 8.50399, 7.65403)" >
                                    <g >
                                        <g >
                                            <g >
                                                <g >
                                                    <g >
                                                        <g >
                                                            <rect height="2.976" fill="#DCDCDC" width="1.417"  x="0.85" y="4.677"/>
                                                            <rect height="2.976" fill="#DCDCDC" width="1.417"  x="6.236" y="4.677"/>
                                                            <rect height="3.118" fill="#DCDCDC" width="1.417"  x="3.543" y="0"/>
                                                            <rect height="3.685" fill="#303030" width="8.504"  x="0" y="1.984"/>
                                                        </g>
                                                    </g>
                                                </g>
                                            </g>
                                        </g>
                                    </g>
                                </g>
                            </g>
                        </g>
                    </g>
                </g>
            </g>
        </g>
        <g transform="matrix(1, 0, 0, 1, 28.032, 20.4521)" >
            <g >
                <g >
                    <g >
                        <g >
                            <g gorn="0.2.4.0.0.0.0.0" id="_0805_1_" >
                                <g transform="matrix(0, 1, -1, 0, 4.606, -1.063)" >
                                    <g >
                                        <g >
                                            <g >
                                                <g >
                                                    <g >
                                                        <path fill="#DCDCDC" d="M5.386,3.543H0.283C0.127,3.543,0,3.416,0,3.26V0.283C0,0.127,0.127,0,0.283,0h5.102c0.157,0,0.283,0.127,0.283,0.283V3.26C5.669,3.416,5.542,3.543,5.386,3.543z" />
                                                        <g transform="matrix(2.535182e-06 1 -1 2.535182e-06 4.606 -1.063)" >
                                                            <g >
                                                                <g >
                                                                    <g >
                                                                        <g >
                                                                            <rect height="3.543" fill="#333333" width="3.543"  x="1.063" y="0"/>
                                                                        </g>
                                                                    </g>
                                                                </g>
                                                            </g>
                                                        </g>
                                                    </g>
                                                </g>
                                            </g>
                                        </g>
                                    </g>
                                </g>
                            </g>
                        </g>
                    </g>
                </g>
            </g>
        </g>
        <g transform="matrix(1, 0, 0, 1, 24.5454, 30.0247)" >
            <g >
                <g >
                    <g >
                        <g >
                            <g gorn="0.2.5.0.0.0.0.0" id="_0805_2_" >
                                <g transform="matrix(-1, 0, 0, -1, 5.669, 3.543)" >
                                    <g >
                                        <g >
                                            <g >
                                                <g >
                                                    <g >
                                                        <path fill="#DCDCDC" d="M5.386,3.543H0.283C0.127,3.543,0,3.416,0,3.26V0.283C0,0.127,0.127,0,0.283,0h5.102c0.157,0,0.283,0.127,0.283,0.283V3.26C5.669,3.416,5.542,3.543,5.386,3.543z" />
                                                        <rect height="3.543" fill="#333333" width="3.543"  x="1.063" y="0"/>
                                                    </g>
                                                </g>
                                            </g>
                                        </g>
                                    </g>
                                </g>
                            </g>
                        </g>
                    </g>
                </g>
            </g>
        </g>
        <g transform="matrix(1, 0, 0, 1, 24.5255, 10.1085)" >
            <g >
                <g >
                    <g >
                        <g >
                            <g gorn="0.2.6.0.0.0.0.0" id="_0805_3_" >
                                <path fill="#DCDCDC" d="M5.386,3.543H0.283C0.127,3.543,0,3.416,0,3.26V0.283C0,0.127,0.127,0,0.283,0h5.102c0.157,0,0.283,0.127,0.283,0.283V3.26C5.669,3.416,5.542,3.543,5.386,3.543z" />
                                <rect height="3.543" fill="#333333" width="3.543"  x="1.063" y="0"/>
                            </g>
                        </g>
                    </g>
                </g>
            </g>
        </g>
        <g transform="matrix(1, 0, 0, 1, 17.348, 36.1132)" >
            <g >
                <g >
                    <g >
                        <g >
                            <g gorn="0.2.7.0.0.0.0.0" id="sewingtap_0.5" >
                                <g transform="matrix(-1, 0, 0, -1, 8.50399, 7.164)" >
                                    <g >
                                        <g >
                                            <g >
                                                <g >
                                                    <g >
                                                        <path fill="#9A916C" d="M4.252,7.164c2.426-0.558,4.252-3.201,4.252-6.115c0-0.129-0.022-0.251-0.029-0.378c-1.37-0.25-2.78-0.388-4.222-0.388S1.4,0.421,0.029,0.671C0.022,0.798,0,0.92,0,1.049C0,3.963,1.826,6.606,4.252,7.164z M4.252,2.336c0.855,0,1.548,0.693,1.548,1.548S5.107,5.432,4.252,5.432S2.704,4.738,2.704,3.883C2.704,3.029,3.397,2.336,4.252,2.336z" />
                                                    </g>
                                                </g>
                                            </g>
                                        </g>
                                    </g>
                                </g>
                            </g>
                        </g>
                    </g>
                </g>
            </g>
        </g>
        <g transform="matrix(1, 0, 0, 1, 17.348, -0.0772085)" >
            <g >
                <g >
                    <g >
                        <g >
                            <g gorn="0.2.8.0.0.0.0.0" id="sewingtap_0.5_1_" >
                                <path fill="#9A916C" d="M4.252,7.164c2.426-0.558,4.252-3.201,4.252-6.115c0-0.129-0.022-0.251-0.029-0.378c-1.37-0.25-2.78-0.388-4.222-0.388S1.4,0.421,0.029,0.671C0.022,0.798,0,0.92,0,1.049C0,3.963,1.826,6.606,4.252,7.164z M4.252,2.336c0.855,0,1.548,0.693,1.548,1.548S5.107,5.432,4.252,5.432S2.704,4.738,2.704,3.883C2.704,3.029,3.397,2.336,4.252,2.336z" />
                            </g>
                        </g>
                    </g>
                </g>
            </g>
        </g>
        <g transform="matrix(1, 0, 0, 1, 1.42556, 27.0656)" >
            <g >
                <g >
                    <g >
                        <g >
                            <g gorn="0.2.9.0.0.0.0.0" id="sewingtap_0.5_2_" >
                                <g transform="matrix(-0.5, -0.866025, 0.866025, -0.5, 3.27589, 9.05537)" >
                                    <g >
                                        <g >
                                            <g >
                                                <g >
                                                    <g >
                                                        <path fill="#9A916C" d="M4.252,7.164c2.426-0.558,4.252-3.201,4.252-6.115c0-0.129-0.022-0.251-0.029-0.378c-1.37-0.25-2.78-0.388-4.222-0.388S1.4,0.421,0.029,0.671C0.022,0.798,0,0.92,0,1.049C0,3.963,1.826,6.606,4.252,7.164z M4.252,2.336c0.855,0,1.548,0.693,1.548,1.548S5.107,5.432,4.252,5.432S2.704,4.738,2.704,3.883C2.704,3.029,3.397,2.336,4.252,2.336z" />
                                                    </g>
                                                </g>
                                            </g>
                                        </g>
                                    </g>
                                </g>
                            </g>
                        </g>
                    </g>
                </g>
            </g>
        </g>
        <g transform="matrix(1, 0, 0, 1, 33.2705, 27.0656)" >
            <g >
                <g >
                    <g >
                        <g >
                            <g gorn="0.2.10.0.0.0.0.0" id="sewingtap_0.5_3_" >
                                <g transform="matrix(-0.5, 0.866025, -0.866025, -0.5, 9.4801, 1.69066)" >
                                    <g >
                                        <g >
                                            <g >
                                                <g >
                                                    <g >
                                                        <path fill="#9A916C" d="M4.252,7.164c2.426-0.558,4.252-3.201,4.252-6.115c0-0.129-0.022-0.251-0.029-0.378c-1.37-0.25-2.78-0.388-4.222-0.388c-1.442,0-2.853,0.138-4.224,0.388C0.022,0.798,0,0.92,0,1.049C0,3.963,1.826,6.606,4.252,7.164z M4.252,2.336c0.855,0,1.548,0.693,1.548,1.548c0,0.855-0.693,1.548-1.548,1.548S2.704,4.738,2.704,3.883C2.704,3.029,3.397,2.336,4.252,2.336z" />
                                                    </g>
                                                </g>
                                            </g>
                                        </g>
                                    </g>
                                </g>
                            </g>
                        </g>
                    </g>
                </g>
            </g>
        </g>
        <g transform="matrix(1, 0, 0, 1, 1.42556, 8.97041)" >
            <g >
                <g >
                    <g >
                        <g >
                            <g gorn="0.2.11.0.0.0.0.0" id="sewingtap_0.5_4_" >
                                <g transform="matrix(0.5, -0.866025, 0.866025, 0.5, -0.976104, 5.47334)" >
                                    <g >
                                        <g >
                                            <g >
                                                <g >
                                                    <g >
                                                        <path fill="#9A916C" d="M4.252,7.164c2.426-0.558,4.252-3.201,4.252-6.115c0-0.129-0.022-0.251-0.029-0.378c-1.37-0.25-2.78-0.388-4.222-0.388c-1.442,0-2.853,0.138-4.224,0.388C0.022,0.798,0,0.92,0,1.049C0,3.963,1.826,6.606,4.252,7.164z M4.252,2.336c0.855,0,1.548,0.693,1.548,1.548S5.107,5.432,4.252,5.432S2.704,4.738,2.704,3.883C2.704,3.029,3.397,2.336,4.252,2.336z" />
                                                    </g>
                                                </g>
                                            </g>
                                        </g>
                                    </g>
                                </g>
                            </g>
                        </g>
                    </g>
                </g>
            </g>
        </g>
        <g transform="matrix(1, 0, 0, 1, 33.2705, 8.97041)" >
            <g >
                <g >
                    <g >
                        <g >
                            <g gorn="0.2.12.0.0.0.0.0" id="sewingtap_0.5_5_" >
                                <g transform="matrix(0.5, 0.866025, -0.866025, 0.5, 5.2281, -1.89134)" >
                                    <g >
                                        <g >
                                            <g >
                                                <g >
                                                    <g >
                                                        <path fill="#9A916C" d="M4.252,7.164c2.426-0.558,4.252-3.201,4.252-6.115c0-0.129-0.022-0.251-0.029-0.378c-1.37-0.25-2.78-0.388-4.222-0.388S1.4,0.421,0.029,0.671C0.022,0.798,0,0.92,0,1.049C0,3.963,1.826,6.606,4.252,7.164z M4.252,2.336c0.855,0,1.548,0.693,1.548,1.548S5.107,5.432,4.252,5.432S2.704,4.738,2.704,3.883C2.704,3.029,3.397,2.336,4.252,2.336z" />
                                                    </g>
                                                </g>
                                            </g>
                                        </g>
                                    </g>
                                </g>
                            </g>
                        </g>
                    </g>
                </g>
            </g>
        </g>
        <g transform="matrix(1, 0, 0, 1, 19.9736, 18.5585)" >
            <g >
                <g >
                    <g >
                        <g >
                            <g gorn="0.2.13.0.0.0.0.0" id="tcs3472_fn6" >
                                <g transform="matrix(-1, 0, 0, -1, 5.669, 6.803)" >
                                    <g >
                                        <g >
                                            <g >
                                                <g >
                                                    <g >
                                                        <g >
                                                            <rect height="6.803" fill="#D2D2B4" width="5.669"  x="0.848" y="0"/>
                                                            <path fill="#DCDCDC" d="M1.131,5.811V5.669H0.848v-0.85h0.283V4.677h1.488V3.969H1.131V3.827H0.848v-0.85h0.283V2.835h1.488V2.126H1.131V1.984H0.848v-0.85h0.283V0.993h0.497c0.157,0,0.283-0.127,0.283-0.283l0-0.354h0.496l0.354,0.354h1.276l0-0.354h1.417v0.354c0,0.157,0.127,0.283,0.283,0.283h0.496v0.142h0.284v0.85l-0.283,0v0.142H4.745v0.709h1.489v0.142h0.284v0.85l-0.284,0v0.142l-1.489,0v0.709h1.489V4.82h0.284v0.85l-0.284,0v0.142l-0.497,0c-0.157,0-0.283,0.127-0.283,0.283v0.354H4.037V6.094H3.328v0.354H1.911V6.095c0-0.157-0.127-0.283-0.283-0.283L1.131,5.811L1.131,5.811z" />
                                                            <rect height="5.669" fill="#AA8246" width="3.118"  x="2.124" y="0.567"/>
                                                            <rect height="1.134" fill="#554123" width="1.049"  x="3.334" y="2.469"/>
                                                        </g>
                                                    </g>
                                                </g>
                                            </g>
                                        </g>
                                    </g>
                                </g>
                            </g>
                        </g>
                    </g>
                </g>
            </g>
        </g>
    </g>
</svg>
