<?xml version='1.0' encoding='utf-8'?>
<!-- Generator: Adobe Illustrator 20.0.0, SVG Export Plug-In . SVG Version: 6.00 Build 0)  -->
<svg xmlns="http://www.w3.org/2000/svg" baseProfile="tiny" height="0.6in" gorn="0" xml:space="preserve" width="0.8in" version="1.2" xmlns:xml="http://www.w3.org/XML/1998/namespace"  id="Layer_1" x="0px" y="0px" viewBox="0 0 57.6 43.2">
    <desc>
        <referenceFile>Adafruit SPI Non-Volatile FRAM 8KB_breadboard.svg</referenceFile>
    </desc>
    <desc >Fritzing breadboard generated by brd2svg</desc>
    <g gorn="0.1"  id="breadboard">
        <g gorn="0.1.0"  id="icon">
            <path fill="#014CB1" d="M0,7.2C0,3.224,3.224,0,7.2,0c0,0,0,0,0,0h43.2c3.976,0,7.2,3.224,7.2,7.2V36c0,3.976-3.224,7.2-7.2,7.2H7.2C3.224,43.2,0,39.976,0,36c0,0,0,0,0,0V7.2 M52.583,36c0,0.783,0.635,1.417,1.417,1.417c0.783,0,1.417-0.635,1.417-1.417S54.783,34.583,54,34.583S52.583,35.217,52.583,36z M45.383,36c0,0.783,0.635,1.417,1.417,1.417c0.783,0,1.417-0.635,1.417-1.417s-0.635-1.417-1.417-1.417S45.383,35.217,45.383,36z M38.183,36c0,0.783,0.635,1.417,1.417,1.417s1.417-0.635,1.417-1.417s-0.635-1.417-1.417-1.417S38.183,35.217,38.183,36z M30.983,36c0,0.783,0.635,1.417,1.417,1.417c0.783,0,1.417-0.635,1.417-1.417s-0.635-1.417-1.417-1.417C31.617,34.583,30.983,35.217,30.983,36z M23.783,36c0,0.783,0.635,1.417,1.417,1.417c0.783,0,1.417-0.635,1.417-1.417l0,0c0-0.783-0.635-1.417-1.417-1.417C24.417,34.583,23.783,35.217,23.783,36z M16.583,36c0,0.783,0.635,1.417,1.417,1.417c0.783,0,1.417-0.635,1.417-1.417l0,0c0-0.783-0.635-1.417-1.417-1.417C17.217,34.583,16.583,35.217,16.583,36z M9.383,36c0,0.783,0.635,1.417,1.417,1.417s1.417-0.635,1.417-1.417l0,0c0-0.783-0.635-1.417-1.417-1.417S9.383,35.217,9.383,36z M2.183,36c0,0.783,0.635,1.417,1.417,1.417S5.017,36.783,5.017,36S4.383,34.583,3.6,34.583S2.183,35.217,2.183,36z M46.857,7.2c-0.003,1.957,1.58,3.546,3.537,3.55c1.957,0.003,3.546-1.58,3.55-3.537c0-0.004,0-0.008,0-0.012c0.003-1.957-1.58-3.546-3.537-3.55c-1.957-0.003-3.546,1.58-3.55,3.537C46.857,7.192,46.857,7.196,46.857,7.2z M3.657,7.2c-0.003,1.957,1.58,3.546,3.537,3.549s3.546-1.58,3.549-3.537c0-0.004,0-0.008,0-0.012c0.003-1.957-1.58-3.546-3.537-3.549C5.249,3.647,3.66,5.231,3.657,7.188C3.657,7.192,3.657,7.196,3.657,7.2z" />
            <g >
                <title >layer 21</title>
                <g >
                    <title >text:VCC</title>
                    <g transform="matrix(1, 0, 0, 1, 5.46316, 28.1934)" >
                        <g >
                            <g transform="rotate(270)" >
                                <g >
                                    <g transform="matrix(1 0 0 1 -4.7597 -0.4943)" >
                                        <text font-size="2.67264" font-family="'OCRA'" fill="#FFFFFF" >VCC</text>
                                    </g>
                                </g>
                            </g>
                        </g>
                    </g>
                </g>
                <g >
                    <title >text:GND</title>
                    <g transform="matrix(1 0 0 1 6.9388 42.7444)" >
                        <text font-size="2.67264" font-family="'OCRA'" fill="#FFFFFF" >GND</text>
                    </g>
                </g>
                <g >
                    <title >text:MOSI</title>
                    <g transform="matrix(1 0 0 1 35.1378 42.9031)" >
                        <text font-size="2.67264" font-family="'OCRA'" fill="#FFFFFF" >MOSI</text>
                    </g>
                </g>
                <g >
                    <title >text:MISO</title>
                    <g transform="matrix(1 0 0 1 27.8244 32.6644)" >
                        <text font-size="2.67264" font-family="'OCRA'" fill="#FFFFFF" >MISO</text>
                    </g>
                </g>
                <g >
                    <title >text:SCK</title>
                    <g transform="matrix(1 0 0 1 21.7188 42.9031)" >
                        <text font-size="2.67264" font-family="'OCRA'" fill="#FFFFFF" >SCK</text>
                    </g>
                </g>
                <g >
                    <title >text:!CS</title>
                    <g transform="matrix(1 0 0 1 44.2434 32.6644)" >
                        <text font-size="2.67264" font-family="'OCRA'" fill="#FFFFFF" >CS</text>
                    </g>
                </g>
                <g >
                    <title >text:!WP</title>
                    <g transform="matrix(1 0 0 1 51.3186 32.8231)" >
                        <text font-size="2.67264" font-family="'OCRA'" fill="#FFFFFF" >WP</text>
                    </g>
                </g>
                <g >
                    <title >text:!HOLD</title>
                    <g transform="matrix(1 0 0 1 13.2133 32.6644)" >
                        <text font-size="2.67264" font-family="'OCRA'" fill="#FFFFFF" >HOLD</text>
                    </g>
                </g>
                <g >
                    <title >text:SPI FRAM
Breakout</title>
                    <g transform="matrix(1, 0, 0, 1, 0, -1.8792)" >
                        <g >
                            <g transform="matrix(1 0 0 1 18.8492 8.0304)" >
                                <text font-size="3.00672" font-family="'OCRA'" fill="#FFFFFF" >SPI FRAM</text>
                            </g>
                        </g>
                    </g>
                    <g transform="matrix(1, 0, 0, 1, 0, 1.8792)" >
                        <g >
                            <g transform="matrix(1 0 0 1 18.8492 8.0304)" >
                                <text font-size="3.00672" font-family="'OCRA'" fill="#FFFFFF" >Breakout</text>
                            </g>
                        </g>
                    </g>
                </g>
                <g >
                    <title >element:C1</title>
                    <g >
                        <title >package:_0805MP</title>
                        <line x1="45.06" stroke-linecap="round" x2="47.939" fill="none"  stroke-width="0.576" stroke="#FFFFFF" y1="20.432" y2="20.432"/>
                    </g>
                </g>
                <g >
                    <title >element:FID1</title>
                    <g >
                        <title >package:FIDUCIAL_1MM</title>
                    </g>
                </g>
                <g >
                    <title >element:FID2</title>
                    <g >
                        <title >package:FIDUCIAL_1MM</title>
                    </g>
                </g>
                <g >
                    <title >element:JP1</title>
                    <g >
                        <title >package:1X08_ROUND_70</title>
                    </g>
                </g>
                <g >
                    <title >element:R2</title>
                    <g >
                        <title >package:_0805MP</title>
                        <line x1="15.897" stroke-linecap="round" x2="13.017" fill="none"  stroke-width="0.576" stroke="#FFFFFF" y1="21.657" y2="21.657"/>
                    </g>
                </g>
                <g >
                    <title >element:U$4</title>
                    <g >
                        <title >package:ADAFRUIT_3.5MM</title>
                    </g>
                </g>
                <g >
                    <title >element:U$5</title>
                    <g >
                        <title >package:MOUNTINGHOLE_2.5_PLATED</title>
                        <circle cy="7.2" r="5.669" fill="none"  stroke-width="0.576" stroke="#FFFFFF" cx="50.4"/>
                    </g>
                </g>
                <g >
                    <title >element:U$6</title>
                    <g >
                        <title >package:MOUNTINGHOLE_2.5_PLATED</title>
                        <circle cy="7.2" r="5.669" fill="none"  stroke-width="0.576" stroke="#FFFFFF" cx="7.2"/>
                    </g>
                </g>
                <g >
                    <title >element:U$7</title>
                    <g >
                        <title >package:ADAFRUIT_3.5MM</title>
                    </g>
                </g>
                <g >
                    <title >element:U1</title>
                    <g >
                        <title >package:SOIC8_150MIL</title>
                        <line x1="34.186" stroke-linecap="round" x2="23.414" fill="none"  stroke-width="0.576" stroke="#FFFFFF" y1="26.243" y2="26.243"/>
                        <line x1="23.414" stroke-linecap="round" x2="34.186" fill="none"  stroke-width="0.576" stroke="#FFFFFF" y1="12.637" y2="12.637"/>
                    </g>
                </g>
            </g>
            <g transform="matrix(0, -1, 1, 0, 23.1874, 69.8116)" >
                <g >
                    <g transform="matrix(-2.535182e-06 -1 1 -2.535182e-06 23.1876 69.8118)" >
                        <rect height="3.402" gorn="0.1.0.2.0.0.0" width="3.685" fill="#9A916C"  id="connector5pin" x="44.657" y="21.611"/>
                    </g>
                </g>
            </g>
            <g transform="matrix(0, -1, 1, 0, 28.9474, 64.0516)" >
                <g >
                    <g transform="matrix(-2.535182e-06 -1 1 -2.535182e-06 28.9476 64.0518)" >
                        <rect height="3.402" gorn="0.1.0.3.0.0.0" width="3.685" fill="#9A916C"  id="connector6pin" x="44.657" y="15.851"/>
                    </g>
                </g>
            </g>
            <path gorn="0.1.0.4" fill="#9A916C" d="M14.451,11.713L14.451,11.713c0.783,0,1.417,0.635,1.417,1.417v0c0,0.783-0.635,1.417-1.417,1.417h0c-0.783,0-1.417-0.635-1.417-1.417v0C13.034,12.347,13.668,11.713,14.451,11.713z"  id="connector7pin"/>
            <path gorn="0.1.0.5" fill="#9A916C" d="M52.917,23.726L52.917,23.726c0.783,0,1.417,0.635,1.417,1.417v0c0,0.783-0.635,1.417-1.417,1.417h0c-0.783,0-1.417-0.635-1.417-1.417v0C51.5,24.361,52.134,23.726,52.917,23.726z"  id="connector8pin"/>
            <circle cy="36" gorn="0.1.0.6" r="1.969" fill="none"  stroke-width="1.1027" id="connector9pin" stroke="#9A916C" cx="54"/>
            <circle cy="36" gorn="0.1.0.7" r="1.969" fill="none"  stroke-width="1.1027" id="connector10pin" stroke="#9A916C" cx="46.8"/>
            <circle cy="36" gorn="0.1.0.8" r="1.969" fill="none"  stroke-width="1.1027" id="connector11pin" stroke="#9A916C" cx="39.6"/>
            <circle cy="36" gorn="0.1.0.9" r="1.969" fill="none"  stroke-width="1.1027" id="connector12pin" stroke="#9A916C" cx="32.4"/>
            <circle cy="36" gorn="0.1.0.10" r="1.969" fill="none"  stroke-width="1.1027" id="connector13pin" stroke="#9A916C" cx="25.2"/>
            <circle cy="36" gorn="0.1.0.11" r="1.969" fill="none"  stroke-width="1.1027" id="connector14pin" stroke="#9A916C" cx="18"/>
            <circle cy="36" gorn="0.1.0.12" r="1.969" fill="none"  stroke-width="1.1027" id="connector15pin" stroke="#9A916C" cx="10.8"/>
            <circle cy="36" gorn="0.1.0.13" r="1.969" fill="none"  stroke-width="1.1027" id="connector16pin" stroke="#9A916C" cx="3.6"/>
            <g transform="matrix(0, 1, -1, 0, 33.2334, 4.32)" >
                <g >
                    <g transform="matrix(2.535182e-06 1 -1 2.535182e-06 33.2334 4.32)" >
                        <rect height="3.402" gorn="0.1.0.14.0.0.0" width="3.685" fill="#9A916C"  id="connector17pin" x="12.614" y="17.076"/>
                    </g>
                </g>
            </g>
            <g transform="matrix(0, 1, -1, 0, 38.9934, 10.08)" >
                <g >
                    <g transform="matrix(2.535182e-06 1 -1 2.535182e-06 38.9934 10.08)" >
                        <rect height="3.402" gorn="0.1.0.15.0.0.0" width="3.685" fill="#9A916C"  id="connector18pin" x="12.614" y="22.836"/>
                    </g>
                </g>
            </g>
            <circle cy="7.2" gorn="0.1.0.16" r="4.263" fill="none"  stroke-width="1.44" id="connector19pin" stroke="#9A916C" cx="50.4"/>
            <circle cy="7.2" gorn="0.1.0.17" r="4.263" fill="none"  stroke-width="1.44" id="connector20pin" stroke="#9A916C" cx="7.2"/>
            <g transform="matrix(0, -1, 1, 0, 11.3301, 61.0101)" >
                <g >
                    <g transform="matrix(-2.535182e-06 -1 1 -2.535182e-06 11.3302 61.0102)" >
                        <rect height="1.701" gorn="0.1.0.18.0.0.0" width="6.236" fill="#9A916C"  id="connector21pin" x="33.052" y="23.99"/>
                    </g>
                </g>
            </g>
            <g transform="matrix(0, -1, 1, 0, 14.9301, 57.4101)" >
                <g >
                    <g transform="matrix(-2.535182e-06 -1 1 -2.535182e-06 14.9302 57.4102)" >
                        <rect height="1.701" gorn="0.1.0.19.0.0.0" width="6.236" fill="#9A916C"  id="connector22pin" x="33.052" y="20.39"/>
                    </g>
                </g>
            </g>
            <g transform="matrix(0, -1, 1, 0, 18.5301, 53.8101)" >
                <g >
                    <g transform="matrix(-2.535182e-06 -1 1 -2.535182e-06 18.5302 53.8101)" >
                        <rect height="1.701" gorn="0.1.0.20.0.0.0" width="6.236" fill="#9A916C"  id="connector23pin" x="33.052" y="16.79"/>
                    </g>
                </g>
            </g>
            <g transform="matrix(0, -1, 1, 0, 22.1301, 50.2101)" >
                <g >
                    <g transform="matrix(-2.535182e-06 -1 1 -2.535182e-06 22.1302 50.2101)" >
                        <rect height="1.701" gorn="0.1.0.21.0.0.0" width="6.236" fill="#9A916C"  id="connector24pin" x="33.052" y="13.19"/>
                    </g>
                </g>
            </g>
            <g transform="matrix(0, -1, 1, 0, 7.38994, 35.4699)" >
                <g >
                    <g transform="matrix(-2.535182e-06 -1 1 -2.535182e-06 7.3899 35.4699)" >
                        <rect height="1.701" gorn="0.1.0.22.0.0.0" width="6.236" fill="#9A916C"  id="connector25pin" x="18.312" y="13.19"/>
                    </g>
                </g>
            </g>
            <g transform="matrix(0, -1, 1, 0, 3.78992, 39.0699)" >
                <g >
                    <g transform="matrix(-2.535182e-06 -1 1 -2.535182e-06 3.7899 39.0699)" >
                        <rect height="1.701" gorn="0.1.0.23.0.0.0" width="6.236" fill="#9A916C"  id="connector26pin" x="18.312" y="16.79"/>
                    </g>
                </g>
            </g>
            <g transform="matrix(0, -1, 1, 0, 0.189921, 42.6699)" >
                <g >
                    <g transform="matrix(-2.535182e-06 -1 1 -2.535182e-06 0.1899 42.67)" >
                        <rect height="1.701" gorn="0.1.0.24.0.0.0" width="6.236" fill="#9A916C"  id="connector27pin" x="18.312" y="20.39"/>
                    </g>
                </g>
            </g>
            <g transform="matrix(0, -1, 1, 0, -3.41008, 46.2699)" >
                <g >
                    <g transform="matrix(-2.535182e-06 -1 1 -2.535182e-06 -3.4101 46.27)" >
                        <rect height="1.701" gorn="0.1.0.25.0.0.0" width="6.236" fill="#9A916C"  id="connector28pin" x="18.312" y="23.99"/>
                    </g>
                </g>
            </g>
        </g>
        <g transform="matrix(1, 0, 0, 1, 43.665, 18.6606)" >
            <g gorn="0.1.1.0"  id="_x30_805-cap">
                <g transform="matrix(0, -1, 1, 0, 1.063, 4.606)" >
                    <g >
                        <path fill="#DCDCDC" d="M5.386,3.543H0.283C0.127,3.543,0,3.416,0,3.26V0.283C0,0.127,0.127,0,0.283,0h5.102c0.157,0,0.283,0.127,0.283,0.283V3.26C5.669,3.416,5.542,3.543,5.386,3.543z" />
                        <g transform="matrix(-2.535182e-06 -1 1 -2.535182e-06 1.063 4.606)" >
                            <rect height="3.543" width="3.543" fill="#6E554B"  x="1.063" y="0"/>
                        </g>
                    </g>
                </g>
            </g>
        </g>
        <g transform="matrix(1, 0, 0, 1, 11.6222, 19.8852)" >
            <g gorn="0.1.2.0"  id="_x30_805-res">
                <g transform="matrix(0, 1, -1, 0, 4.606, -1.063)" >
                    <g >
                        <path fill="#DCDCDC" d="M5.386,3.543H0.283C0.127,3.543,0,3.416,0,3.26V0.283C0,0.127,0.127,0,0.283,0h5.102c0.157,0,0.283,0.127,0.283,0.283V3.26C5.669,3.416,5.542,3.543,5.386,3.543z" />
                        <g transform="matrix(2.535182e-06 1 -1 2.535182e-06 4.606 -1.063)" >
                            <rect height="3.543" width="3.543" fill="#333333"  x="1.063" y="0"/>
                        </g>
                    </g>
                </g>
            </g>
        </g>
        <g transform="matrix(1, 0, 0, 1, 2.98168, 15.2005)" >
            <g gorn="0.1.3.0"  id="adafruit_3.5mm">
                <g transform="matrix(0, -1, 1, 0, 0.001476, 9.77846)" >
                    <g >
                        <path fill="#DCDCDC" d="M11.305,3.416c-0.032-0.2-0.141-0.257-0.403-0.341c-0.199-0.064-1.533-0.489-1.533-0.489S8.439,2.235,7.75,2.732C7.657,2.798,7.561,2.875,7.464,2.956C7.546,2.859,7.622,2.763,7.688,2.67c0.495-0.69,0.143-1.619,0.143-1.619S7.404-0.283,7.339-0.482c-0.085-0.262-0.142-0.37-0.342-0.402S6.709-0.83,6.548-0.607C6.426-0.437,5.609,0.7,5.609,0.7S4.988,1.477,5.248,2.286C5.282,2.395,5.325,2.51,5.373,2.627C5.306,2.519,5.238,2.418,5.17,2.325C4.667,1.641,3.674,1.689,3.674,1.689s-1.4-0.006-1.61-0.006c-0.275-0.001-0.396,0.02-0.488,0.201C1.485,2.065,1.539,2.175,1.702,2.397c0.124,0.169,0.953,1.297,0.953,1.297s0.546,0.83,1.395,0.834c0.114,0,0.236-0.005,0.362-0.014c-0.122,0.03-0.24,0.064-0.348,0.1C3.258,4.881,2.997,5.84,2.997,5.84S2.559,7.17,2.494,7.369C2.408,7.63,2.391,7.752,2.534,7.895c0.144,0.143,0.265,0.126,0.526,0.04C3.259,7.87,4.588,7.429,4.588,7.429s0.958-0.263,1.224-1.07c0.036-0.108,0.069-0.225,0.1-0.348C5.903,6.137,5.898,6.259,5.899,6.373c0.005,0.849,0.836,1.394,0.836,1.394s1.13,0.827,1.298,0.951C8.256,8.88,8.366,8.934,8.547,8.842c0.181-0.092,0.201-0.213,0.2-0.488c-0.001-0.21-0.009-1.61-0.009-1.61s0.047-0.993-0.639-1.495C8.007,5.182,7.905,5.114,7.798,5.047c0.117,0.047,0.232,0.09,0.34,0.124c0.81,0.258,1.584-0.364,1.584-0.364s1.136-0.819,1.306-0.941C11.251,3.705,11.337,3.617,11.305,3.416z M6.483,2.385c0.152,0.024,0.228,0.349,0.169,0.726S6.421,3.773,6.268,3.749S6.039,3.4,6.099,3.024C6.158,2.647,6.33,2.361,6.483,2.385z M4.527,3.384c0.07-0.138,0.402-0.11,0.742,0.063C5.609,3.62,5.827,3.872,5.757,4.01S5.355,4.12,5.015,3.947C4.675,3.774,4.457,3.522,4.527,3.384z M5.558,5.262c-0.269,0.27-0.577,0.4-0.686,0.291c-0.109-0.109,0.02-0.416,0.29-0.686c0.269-0.27,0.576-0.4,0.686-0.291C5.957,4.685,5.827,4.992,5.558,5.262z M7.042,5.895c-0.138,0.07-0.39-0.148-0.563-0.487c-0.174-0.34-0.203-0.673-0.065-0.743s0.39,0.148,0.563,0.487C7.15,5.492,7.179,5.824,7.042,5.895z M7.399,4.322c-0.377,0.06-0.701-0.015-0.726-0.168C6.649,4.001,6.935,3.829,7.311,3.769c0.377-0.06,0.701,0.015,0.726,0.168C8.061,4.09,7.776,4.262,7.399,4.322z" />
                    </g>
                </g>
            </g>
        </g>
        <g transform="matrix(1, 0, 0, 1, 21.7134, 10.9367)" >
            <g gorn="0.1.4.0"  id="soic8_150mil">
                <g transform="matrix(0, -1, 1, 0, -1.41678, 15.5899)" >
                    <g >
                        <g transform="matrix(1, 0, 0, 1, -298.069, -415.574)" >
                            <g gorn="0.1.4.0.0.0.0.0"  id="layer1">
                                <g gorn="0.1.4.0.0.0.0.0.0"  id="g8119">
                                    <g transform="matrix(0, -2.10758, 2.11685, 0, -596.39, 1056.36)" >
                                        <g gorn="0.1.4.0.0.0.0.0.0.0.0"  id="g12969">
                                            <rect height="6.695" gorn="0.1.4.0.0.0.0.0.0.0.0.0" width="5.111" fill="#303030"  id="rect30" x="297.445" y="422.515"/>
                                            <polygon gorn="0.1.4.0.0.0.0.0.0.0.0.1" fill="#1F1F1F"  id="polygon32" points="302.195,428.851 302.195,422.875 302.555,422.515 302.555,429.211 "/>
                                            <polygon gorn="0.1.4.0.0.0.0.0.0.0.0.2" fill="#1F1F1F"  id="polygon34" points="297.805,428.851 297.805,422.875 297.445,422.515 297.445,429.211 "/>
                                            <polygon gorn="0.1.4.0.0.0.0.0.0.0.0.3"  id="polygon36" points="297.805,422.875 302.195,422.875 302.555,422.515 297.445,422.515 "/>
                                            <polygon gorn="0.1.4.0.0.0.0.0.0.0.0.4" fill="#3D3D3D"  id="polygon38" points="297.805,428.851 302.195,428.851 302.555,429.211 297.445,429.211 "/>
                                            <ellipse cy="423.595" gorn="0.1.4.0.0.0.0.0.0.0.0.5" rx="0.759" ry="0.762" fill="#1F1F1F"  id="circle40" cx="298.525"/>
                                        </g>
                                    </g>
                                    <g transform="matrix(0, -1, 1, 0, -119.993, 729.23)" >
                                        <g gorn="0.1.4.0.0.0.0.0.0.1.0"  id="g13034">
                                            <rect height="1.139" gorn="0.1.4.0.0.0.0.0.0.1.0.0" width="3.104" fill="#CCCCCC"  id="rect14-8" x="296.66" y="429.971"/>
                                            <rect height="1.139" gorn="0.1.4.0.0.0.0.0.0.1.0.1" width="3.104" fill="#CCCCCC"  id="rect13010" x="296.66" y="426.371"/>
                                            <rect height="1.139" gorn="0.1.4.0.0.0.0.0.0.1.0.2" width="3.104" fill="#CCCCCC"  id="rect13030" x="296.66" y="422.771"/>
                                            <rect height="1.139" gorn="0.1.4.0.0.0.0.0.0.1.0.3" width="3.104" fill="#CCCCCC"  id="rect13032" x="296.66" y="419.171"/>
                                        </g>
                                    </g>
                                    <g transform="matrix(0, -1, 1, 0, -119.999, 715.344)" >
                                        <g gorn="0.1.4.0.0.0.0.0.0.2.0"  id="g13066">
                                            <rect height="1.129" gorn="0.1.4.0.0.0.0.0.0.2.0.0" width="3.132" fill="#CCCCCC"  id="rect13068" x="296.646" y="429.976"/>
                                            <rect height="1.129" gorn="0.1.4.0.0.0.0.0.0.2.0.1" width="3.132" fill="#CCCCCC"  id="rect13070" x="296.646" y="426.376"/>
                                            <rect height="1.129" gorn="0.1.4.0.0.0.0.0.0.2.0.2" width="3.132" fill="#CCCCCC"  id="rect13072" x="296.646" y="422.776"/>
                                            <rect height="1.129" gorn="0.1.4.0.0.0.0.0.0.2.0.3" width="3.132" fill="#CCCCCC"  id="rect13074" x="296.646" y="419.176"/>
                                        </g>
                                    </g>
                                </g>
                            </g>
                        </g>
                    </g>
                </g>
            </g>
        </g>
    </g>
    <line x1="13.562" stroke-linecap="round" x2="22.281" fill="none"  stroke-width="0.2835" stroke="#FFFFFF" y1="29.344" y2="29.344"/>
    <line x1="44.833" stroke-linecap="round" x2="48.865" fill="none"  stroke-width="0.2835" stroke="#FFFFFF" y1="29.344" y2="29.344"/>
    <line x1="51.667" stroke-linecap="round" x2="55.698" fill="none"  stroke-width="0.2835" stroke="#FFFFFF" y1="29.344" y2="29.344"/>
</svg>
