<?xml version="1.0" encoding="utf-8"?>
<!-- Generator: Adobe Illustrator 15.0.2, SVG Export Plug-In . SVG Version: 6.00 Build 0)  -->
<!DOCTYPE svg PUBLIC "-//W3C//DTD SVG 1.1 Basic//EN" "http://www.w3.org/Graphics/SVG/1.1/DTD/svg11-basic.dtd">
<svg version="1.1" baseProfile="basic" id="Layer_1" xmlns:xml="http://www.w3.org/XML/1998/namespace"
	 xmlns="http://www.w3.org/2000/svg" xmlns:xlink="http://www.w3.org/1999/xlink" x="0px" y="0px" width="291.025px"
	 height="61.025px" viewBox="0 0 291.025 61.025" xml:space="preserve">
<path fill="#FF7F21" d="M290.5,0.475l0.025,0.022v60l-0.025,0.025H0.5L0.475,60.5v-60L0.5,0.475H290.5z M283.35,19.15h-8
	c-1.103-0.033-2.053,0.397-2.853,1.3c-0.79,0.888-1.173,1.955-1.147,3.2v0.05c-0.022,1.212,0.358,2.262,1.147,3.15
	c0.603,0.697,1.3,1.133,2.103,1.3c0.23,0,0.48,0.017,0.75,0.05h8c1.064-0.034,2-0.483,2.801-1.35c0.8-0.9,1.199-1.97,1.199-3.2
	c0-1.233-0.399-2.3-1.199-3.2C285.35,19.55,284.417,19.117,283.35,19.15z M0.5,60.525V60.5V44V30.25V16.5v-16h290h0.025H290.5H0.5
	v16v13.75V44v16.5V60.525z M290.5,0.5v16v13.75V44v16.5H0.5h290V44V30.25V16.5V0.5z M267.35,9v0.05
	c-0.021,1.215,0.463,2.265,1.447,3.15c0.77,0.7,1.65,1.133,2.65,1.3c0.3,0.033,0.6,0.05,0.9,0.05h10c1.364,0,2.551-0.447,3.551-1.35
	s1.5-1.967,1.5-3.2c0-1.23-0.5-2.3-1.5-3.2c-0.988-0.889-2.155-1.319-3.5-1.3h-0.051h-10c-1.367-0.033-2.553,0.4-3.553,1.3
	C267.813,6.688,267.33,7.755,267.35,9z M283.35,32.8h-8c-1.103-0.03-2.053,0.4-2.853,1.303c-0.79,0.888-1.173,1.955-1.147,3.197
	v0.053c-0.022,1.212,0.358,2.262,1.147,3.147c0.603,0.667,1.3,1.103,2.103,1.3c0.23,0.034,0.48,0.053,0.75,0.053h8
	c1.064,0,2-0.45,2.801-1.353c0.8-0.897,1.199-1.967,1.199-3.2c0-1.23-0.399-2.3-1.199-3.197C285.35,33.2,284.417,32.767,283.35,32.8
	z M267.35,51.95V52c-0.021,1.212,0.463,2.265,1.447,3.15c0.77,0.7,1.65,1.133,2.65,1.3c0.3,0.033,0.6,0.05,0.9,0.05h10
	c1.364,0,2.551-0.45,3.551-1.35c1-0.9,1.5-1.967,1.5-3.2s-0.5-2.3-1.5-3.2c-0.988-0.889-2.155-1.322-3.5-1.3h-0.051h-10
	c-1.367-0.034-2.553,0.4-3.553,1.3C267.813,49.638,267.33,50.705,267.35,51.95z M260.5,44h30H260.5z M260.5,30.25h30H260.5z
	 M260.5,16.5h30H260.5z M226.375,15.475h-6.7V10.5l-0.022-0.022h-3.25l-0.025,0.022v4.978h-6.699V10.5l-0.023-0.022h-3.25
	l-0.025,0.022v4.978H203l-0.022,0.022v30L203,45.525h3.375V50.5l0.025,0.025h3.25l0.022-0.025v-4.975h6.7V50.5l0.025,0.025h3.25
	l0.022-0.025v-4.975h6.7V50.5l0.025,0.025h3.25l0.022-0.025v-4.975H233l0.025-0.025v-30L233,15.475h-3.325V10.5l-0.022-0.022h-3.25
	l-0.025,0.022L226.375,15.475L226.375,15.475z M158.025,6.475V5.5L158,5.475h-25L132.975,5.5v0.978H128L127.975,6.5v3L128,9.525
	h4.978v3.35H128l-0.022,0.025v3L128,15.925h4.978v3.353H128l-0.022,0.022v3L128,22.325h4.978v3.35H128l-0.022,0.025v3L128,28.725
	h4.978v3.35H128l-0.022,0.025v3L128,35.125h4.978v3.353H128l-0.022,0.022v3L128,41.525h4.978v3.35H128l-0.022,0.025v3L128,47.925
	h4.978v3.353H128l-0.022,0.022v3L128,54.325h4.978V55.5L133,55.525h23.853H158l0.025-0.025v-1.175l5-0.025L163,51.275h-4.975v-3.353
	l5-0.022L163,44.875h-4.975v-3.35l5-0.025L163,38.475h-4.975v-3.353H163l0.025-0.022v-3L163,32.075h-4.975v-3.35H163l0.025-0.025v-3
	L163,25.675h-4.975v-3.35H163l0.025-0.025v-3L163,19.275h-4.975v-3.353H163l0.025-0.022v-3L163,12.875h-4.975v-3.35H163l0.025-0.025
	v-3L163,6.475H158.025z M84.675,15.475V10.5l-0.022-0.022H81.4L81.375,10.5v4.978h-6.7V10.5l-0.022-0.022H71.4L71.375,10.5v4.978
	h-6.7V10.5l-0.022-0.022H61.4L61.375,10.5v4.978H58L57.975,15.5v30L58,45.525h3.375V50.5l0.025,0.025l3.272-0.025v-4.975h6.7V50.5
	l0.025,0.025h3.25l0.022-0.025v-4.975h6.7V50.5l0.025,0.025h3.25l0.022-0.025v-4.975H88l0.025-0.025v-30L88,15.475H84.675z M23.15,9
	c0-1.23-0.5-2.3-1.5-3.2c-1-0.897-2.186-1.333-3.55-1.3h-10C6.733,4.467,5.55,4.9,4.55,5.8C3.563,6.688,3.08,7.755,3.1,9v0.05
	C3.08,10.262,3.563,11.312,4.55,12.2c0.77,0.7,1.65,1.133,2.65,1.3c0.3,0.033,0.6,0.05,0.9,0.05h10c1.364,0,2.55-0.447,3.55-1.35
	S23.15,10.233,23.15,9z M6.4,28.15c0.23,0.033,0.467,0.05,0.7,0.05h8c1.1,0,2.05-0.45,2.85-1.35c0.8-0.9,1.2-1.97,1.2-3.2
	c0-1.233-0.4-2.3-1.2-3.2c-0.788-0.887-1.721-1.32-2.8-1.3H7.1C6,19.117,5.05,19.55,4.25,20.45c-0.79,0.888-1.173,1.955-1.147,3.2
	v0.05c-0.022,1.212,0.358,2.262,1.147,3.15C4.883,27.55,5.6,27.983,6.4,28.15z M6.4,41.8c0.23,0.034,0.467,0.053,0.7,0.053h8
	c1.1,0,2.05-0.45,2.85-1.353c0.8-0.897,1.2-1.967,1.2-3.2c0-1.23-0.4-2.3-1.2-3.197c-0.788-0.889-1.721-1.32-2.8-1.303H7.1
	C6,32.767,5.05,33.2,4.25,34.1C3.46,34.988,3.077,36.055,3.1,37.3v0.053C3.078,38.563,3.46,39.613,4.249,40.5
	C4.883,41.2,5.6,41.633,6.4,41.8z M3.1,52c-0.021,1.212,0.463,2.265,1.447,3.15c0.77,0.7,1.65,1.133,2.65,1.3
	c0.3,0.033,0.6,0.05,0.9,0.05h10c1.364,0,2.55-0.45,3.55-1.35c1-0.9,1.5-1.967,1.5-3.2s-0.5-2.3-1.5-3.2
	c-1-0.897-2.186-1.333-3.55-1.3h-10c-1.367-0.034-2.553,0.4-3.553,1.3c-0.984,0.891-1.47,1.955-1.447,3.2L3.1,52L3.1,52z M0.5,44h30
	H0.5z M0.5,30.25h30H0.5z M0.5,16.5h30H0.5z"/>
<path fill="#EEEEEE" d="M219.675,15.475h6.7V15.5l0.025,0.025h3.25l0.022-0.025v-0.022H233l0.025,0.022v30L233,45.525h-3.325V45.5
	l-0.022-0.022h-3.25l-0.025,0.022v0.025h-6.699V45.5l-0.023-0.022h-3.25l-0.025,0.022v0.025h-6.698V45.5l-0.024-0.022h-3.25
	l-0.025,0.022v0.025H203l-0.022-0.025v-30L203,15.475h3.375V15.5l0.025,0.025h3.25l0.022-0.025v-0.022h6.7V15.5l0.025,0.025h3.25
	l0.022-0.025v-0.023L219.675,15.475L219.675,15.475z M225.1,23.45c-1.97-1.967-4.333-2.95-7.103-2.95c-2.73,0-5.1,0.983-7.1,2.95
	c-1.936,1.966-2.9,4.316-2.9,7.05c0,2.77,0.967,5.133,2.9,7.103l0.05,0.05c1.966,1.897,4.316,2.867,7.05,2.897
	c2.77-0.03,5.133-1.017,7.103-2.947c1.933-1.97,2.917-4.333,2.947-7.103C228.017,27.767,227.033,25.417,225.1,23.45z M84.675,45.525
	V45.5l-0.022-0.022H81.4L81.375,45.5v0.025h-6.7V45.5l-0.022-0.022H71.4L71.375,45.5v0.025h-6.7V45.5l-0.022-0.022H61.4L61.375,45.5
	v0.025H58L57.975,45.5v-30L58,15.475h3.375V15.5l0.025,0.025l3.272-0.025v-0.022h6.7V15.5l0.025,0.025h3.25l0.022-0.025v-0.022h6.7
	V15.5l0.025,0.025h3.25l0.022-0.025v-0.022H88l0.025,0.022v30L88,45.525H84.675z M65.95,37.65c1.966,1.897,4.316,2.867,7.05,2.897
	c2.77-0.03,5.133-1.017,7.103-2.947c1.933-1.97,2.917-4.333,2.947-7.103c-0.03-2.73-1.017-5.083-2.947-7.05
	C78.133,21.483,75.767,20.5,73,20.5c-2.73,0-5.1,0.983-7.1,2.95c-1.936,1.966-2.9,4.316-2.9,7.05c0,2.77,0.967,5.133,2.9,7.103
	L65.95,37.65z"/>
<path fill="#8C8C8C" d="M274.6,28.15V28.1c5.966-0.333,10.216-1.817,12.75-4.45c0,1.23-0.399,2.3-1.199,3.2
	c-0.801,0.864-1.733,1.313-2.801,1.35h-8C275.083,28.167,274.833,28.15,274.6,28.15z M287.4,9c0,1.233-0.5,2.3-1.5,3.2
	s-2.187,1.35-3.551,1.35h-10c-0.303,0-0.603-0.017-0.9-0.05v-0.05c7.434-0.333,12.733-1.817,15.899-4.45H287.4z M274.6,41.8
	c3-0.167,5.564-0.614,7.697-1.35c2.104-0.733,3.783-1.784,5.053-3.15c0,1.233-0.399,2.303-1.199,3.2
	c-0.801,0.9-1.733,1.353-2.801,1.353h-8C275.083,41.85,274.833,41.833,274.6,41.8z M271.45,56.45V56.4
	c7.434-0.333,12.733-1.816,15.899-4.45h0.051c0,1.233-0.5,2.3-1.5,3.2c-1,0.897-2.187,1.35-3.551,1.35h-10
	C272.05,56.5,271.75,56.483,271.45,56.45z M229.675,15.475V15.5l-0.022,0.025h-3.25l-0.025-0.025v-0.022V10.5l0.025-0.022h3.25
	l0.022,0.022V15.475z M209.675,45.525V50.5l-0.022,0.025h-3.25l-0.025-0.025v-4.975V45.5l0.025-0.022h3.25l0.022,0.022V45.525z
	 M216.375,45.525V45.5l0.025-0.022h3.25l0.022,0.022v0.025V50.5l-0.022,0.025h-3.25l-0.025-0.025V45.525z M226.375,45.525V45.5
	l0.025-0.022h3.25l0.022,0.022v0.025V50.5l-0.022,0.025h-3.25l-0.025-0.025V45.525z M206.375,15.475V10.5l0.025-0.022h3.25
	l0.022,0.022v4.978V15.5l-0.022,0.025h-3.25l-0.025-0.025V15.475z M219.675,15.475V15.5l-0.022,0.025h-3.25l-0.025-0.025v-0.022
	V10.5l0.025-0.022h3.25l0.022,0.022V15.475z M210.95,37.65l-0.05-0.05c-1.936-1.97-2.9-4.333-2.9-7.103c0-2.73,0.967-5.083,2.9-7.05
	c2-1.967,4.367-2.95,7.1-2.95c2.77,0,5.133,0.983,7.103,2.95v0.05l-1.375,1.375L223.7,24.9h-0.05c-0.3-0.3-0.603-0.55-0.9-0.75
	c-0.3-0.233-0.6-0.436-0.897-0.603c-0.32-0.157-0.611-0.301-0.875-0.425L220.95,23.1l-0.7-0.25l-0.7-0.15L218,22.55
	c-0.5,0-0.98,0.034-1.45,0.103c-0.466,0.1-0.897,0.23-1.3,0.397c-0.02,0.009-0.037,0.018-0.05,0.025
	c-0.316,0.093-0.6,0.218-0.85,0.375c-0.367,0.167-0.72,0.383-1.053,0.65c-0.333,0.23-0.647,0.5-0.947,0.8
	c-0.333,0.333-0.636,0.717-0.9,1.147c-0.934,1.27-1.4,2.553-1.4,3.853v0.6c0,2.2,0.77,4.083,2.303,5.65l0.05,0.05v0.05l-0.025,0.025
	L211,37.65H210.95z M158.025,6.475H163l0.025,0.022v3L163,9.525h-4.975H158v-3.05H158.025z M158,9.525L157.975,9.5v-3L158,6.475
	V9.525z M158,15.925v-3.05h0.025H163l0.025,0.025v3L163,15.925h-4.975H158l-0.022-0.022v-3L158,12.875V15.925z M158.025,19.275H163
	l0.025,0.022v3L163,22.325h-4.975H158l-0.022-0.025v-3L158,19.275v3.05v-3.05H158.025z M158,28.725l-0.022-0.025v-3L158,25.675
	V28.725v-3.053h0.025H163l0.025,0.025v3L163,28.725h-4.975H158z M158.025,32.075H163l0.025,0.025v3L163,35.125h-4.975H158v-3.05
	v3.05l-0.022-0.022v-3L158,32.075H158.025z M158,38.475h0.025H163l0.025,3.022l-5,0.025H158V38.475v3.05l-0.022-0.025v-3L158,38.475
	z M158,47.925l-0.022-0.022v-3L158,44.875V47.925v-3.05h0.025H163l0.025,3.025l-5,0.022L158,47.925L158,47.925z M158.025,54.325H158
	l-0.022-0.025v-3L158,51.275h0.025H163l0.025,3.022L158.025,54.325z M132.975,51.275H133v3.05v-3.05l0.025,0.022v3L133,54.325
	h-0.022H128l-0.022-0.025v-3L128,51.275H132.975z M133,47.925h-0.022H128l-0.022-0.022v-3L128,44.875h4.978H133l0.025,0.025v3
	L133,47.925v-3.05V47.925z M133,41.525h-0.022H128l-0.022-0.025v-3L128,38.475h4.978H133l0.025,0.022v3L133,41.525v-3.05V41.525z
	 M133,35.125h-0.022H128l-0.022-0.022v-3L128,32.075h4.978H133l0.025,0.025v3L133,35.125v-3.05V35.125z M133,28.725h-0.022H128
	l-0.022-0.025v-3L128,25.675h4.978H133l0.025,0.025v3L133,28.725v-3.053V28.725z M133,22.325h-0.022H128l-0.022-0.025v-3L128,19.275
	h4.978H133l0.025,0.022v3L133,22.325v-3.05V22.325z M133,15.925h-0.022H128l-0.022-0.022v-3L128,12.875h4.978H133l0.025,0.025v3
	L133,15.925v-3.05V15.925z M132.975,6.475H133v3.05v-3.05l0.025,0.022v3L133,9.525h-0.022H128L127.975,9.5v-3L128,6.475H132.975z
	 M141.8,15.45c-0.23-0.167-0.48-0.25-0.75-0.25c-0.267,0-0.517,0.083-0.75,0.25c-0.197,0.167-0.3,0.383-0.3,0.65l0.25,0.6
	c0.167,0.167,0.417,0.25,0.75,0.25c0.367,0,0.633-0.083,0.8-0.25c0.2-0.133,0.303-0.35,0.303-0.65
	C142.1,15.817,142,15.617,141.8,15.45z M139.9,14.95c0.333-0.267,0.717-0.4,1.147-0.4c0.437,0,0.817,0.136,1.15,0.4
	c0.267,0.267,0.4,0.633,0.4,1.1c0,0.534-0.187,0.937-0.553,1.2c-0.397,0.3-0.947,0.45-1.647,0.45c-0.936,0-1.633-0.217-2.103-0.65
	c-0.563-0.466-0.85-1.063-0.85-1.8c0-0.167,0.017-0.333,0.05-0.5c0.033-0.064,0.117-0.117,0.25-0.147c0.167,0,0.25,0.167,0.25,0.5
	c0,0.133,0.02,0.28,0.05,0.447c0.034,0.4,0.233,0.733,0.603,1c0.397,0.303,0.833,0.47,1.3,0.5l-0.4-0.447L139.4,16
	C139.4,15.6,139.567,15.25,139.9,14.95z M140.3,30.55c0,0.303,0.083,0.52,0.25,0.65c0.167,0.2,0.386,0.3,0.65,0.3
	c0.3,0,0.517-0.1,0.65-0.3l0.25-0.65c0-0.333-0.083-0.563-0.25-0.697c-0.136-0.2-0.353-0.303-0.65-0.303
	c-0.267,0-0.483,0.103-0.65,0.303C140.383,29.983,140.3,30.217,140.3,30.55z M139.5,29.85l-0.647-0.25l-0.603,0.25
	c-0.167,0.167-0.25,0.397-0.25,0.697c0,0.27,0.083,0.483,0.25,0.65l0.603,0.25l0.647-0.25l0.25-0.65
	C139.75,30.317,139.667,30.083,139.5,29.85z M137.45,30.55c0-0.433,0.133-0.813,0.4-1.147c0.267-0.27,0.583-0.4,0.947-0.4l0.7,0.15
	l0.5,0.6l0.45-0.6l0.75-0.2c0.466,0,0.816,0.15,1.05,0.45c0.233,0.23,0.353,0.617,0.353,1.147c0,0.5-0.117,0.867-0.353,1.103
	c-0.3,0.3-0.647,0.45-1.05,0.45l-0.75-0.2L140,31.3l-0.5,0.603l-0.647,0.147c-0.4,0-0.733-0.133-1-0.397
	C137.583,31.317,137.45,30.95,137.45,30.55z M141.85,25.05c-0.136-0.197-0.353-0.3-0.65-0.3c-0.267,0-0.483,0.103-0.65,0.3
	c-0.167,0.136-0.25,0.367-0.25,0.7c0,0.3,0.083,0.52,0.25,0.65c0.167,0.2,0.386,0.3,0.65,0.3c0.3,0,0.517-0.1,0.65-0.3l0.25-0.65
	C142.1,25.417,142.017,25.183,141.85,25.05z M138.8,24.2l0.7,0.15l0.5,0.6l0.45-0.6l0.75-0.2c0.466,0,0.816,0.147,1.05,0.45
	c0.233,0.23,0.353,0.614,0.353,1.147c0,0.5-0.117,0.867-0.353,1.103c-0.3,0.3-0.647,0.447-1.05,0.447l-0.75-0.197L140,26.5
	l-0.5,0.603l-0.647,0.147c-0.4,0-0.733-0.133-1-0.397c-0.27-0.333-0.4-0.7-0.4-1.103c0-0.433,0.133-0.814,0.4-1.147
	C138.117,24.333,138.433,24.2,138.8,24.2z M138.85,24.8l-0.603,0.25c-0.167,0.167-0.25,0.4-0.25,0.7c0,0.27,0.083,0.483,0.25,0.65
	l0.603,0.25l0.647-0.25l0.25-0.65c0-0.23-0.083-0.467-0.25-0.7L138.85,24.8z M140.05,21.9c0.603,0,1.103-0.083,1.5-0.25
	c0.367-0.2,0.553-0.436,0.553-0.7c0-0.3-0.187-0.55-0.553-0.75c-0.397-0.167-0.897-0.25-1.5-0.25c-0.6,0-1.1,0.083-1.5,0.25
	c-0.333,0.2-0.5,0.45-0.5,0.75c0,0.267,0.167,0.5,0.5,0.7C138.95,21.817,139.45,21.9,140.05,21.9z M140.05,19.3
	c0.833,0,1.47,0.15,1.9,0.45s0.65,0.7,0.65,1.2c0,0.466-0.22,0.85-0.65,1.15c-0.4,0.267-1.034,0.397-1.9,0.397
	c-0.833,0-1.466-0.133-1.897-0.397c-0.467-0.303-0.7-0.687-0.7-1.15c0-0.5,0.233-0.9,0.7-1.2C138.65,19.45,139.283,19.3,140.05,19.3
	z M141.95,43.45h-1c-0.133,0-0.267-0.017-0.4-0.05c-0.03-0.066-0.05-0.15-0.05-0.25l0.05-0.2c0.034-0.034,0.117-0.05,0.25-0.05h1.45
	c0.067,0,0.133,0.017,0.2,0.05c0.033,0.033,0.05,0.1,0.05,0.2V46.8c0,0.067-0.017,0.15-0.05,0.25c-0.034,0.034-0.1,0.053-0.2,0.053
	c-0.064,0-0.133-0.033-0.2-0.103c-0.063-0.1-0.1-0.217-0.1-0.35v-0.5h-3.5v0.5c0,0.133-0.017,0.25-0.05,0.35
	c-0.066,0.067-0.15,0.103-0.25,0.103l-0.2-0.053c-0.034-0.03-0.05-0.114-0.05-0.25v-2.1c0-0.067,0.017-0.133,0.05-0.2
	c0.033-0.033,0.1-0.064,0.2-0.1c0.1,0,0.184,0.033,0.25,0.1c0.033,0.133,0.05,0.27,0.05,0.4v0.647h3.5V43.45z M140.25,40.05
	c0-0.433-0.064-0.73-0.2-0.897c-0.133-0.2-0.364-0.3-0.697-0.3c-0.27,0-0.483,0.1-0.65,0.3c-0.167,0.23-0.25,0.533-0.25,0.897v0.75
	h1.8L140.25,40.05L140.25,40.05z M141.95,39.95c0-0.067,0.033-0.15,0.1-0.25c0.034-0.034,0.103-0.067,0.2-0.1
	c0.067,0,0.133,0.03,0.2,0.1c0.033,0.1,0.05,0.2,0.05,0.3v1.9c0,0.064-0.017,0.133-0.05,0.2c-0.034,0.03-0.1,0.063-0.2,0.1
	c-0.064,0-0.133-0.034-0.2-0.1c-0.03-0.033-0.063-0.103-0.1-0.2v-0.5h-3.5v0.25c0,0.167-0.017,0.314-0.05,0.45
	c-0.066,0.063-0.15,0.1-0.25,0.1c-0.033,0-0.103-0.034-0.2-0.1c-0.034-0.033-0.05-0.103-0.05-0.2v-1.8
	c0-0.636,0.117-1.117,0.35-1.45c0.27-0.333,0.633-0.5,1.103-0.5c0.467,0,0.813,0.167,1.05,0.5c0.267,0.367,0.397,0.85,0.397,1.45
	V40.8h1.15V39.95z M141.55,34.35c-0.23-0.303-0.683-0.45-1.35-0.45c-0.6,0-1.05,0.147-1.35,0.45c-0.27,0.333-0.4,0.813-0.4,1.447
	v0.45h3.5c0.033-0.033,0.05-0.117,0.05-0.25v-0.25C142,35.117,141.85,34.65,141.55,34.35z M140.2,33.25l1,0.2l0.75,0.45l0.45,0.75
	l0.1,2.397c0,0.067-0.017,0.136-0.05,0.2c-0.034,0.033-0.1,0.067-0.2,0.103c-0.064,0-0.133-0.033-0.2-0.103
	c-0.063-0.1-0.1-0.2-0.1-0.3v-0.1h-3.5v0.1c0,0.1-0.017,0.2-0.05,0.3c-0.066,0.067-0.15,0.103-0.25,0.103
	c-0.033,0-0.103-0.033-0.2-0.103c-0.034-0.033-0.05-0.1-0.05-0.2V35.4c0-0.633,0.2-1.15,0.6-1.55
	C138.967,33.45,139.533,33.25,140.2,33.25z M81.375,15.475V10.5l0.025-0.022h3.25l0.022,0.022v4.978V15.5l-0.022,0.025H81.4
	L81.375,15.5V15.475z M81.375,45.525V45.5l0.025-0.022h3.25l0.022,0.022v0.025V50.5l-0.022,0.025H81.4L81.375,50.5V45.525z
	 M64.675,45.525V50.5L61.4,50.525L61.375,50.5v-4.975V45.5l0.025-0.022h3.25l0.022,0.022L64.675,45.525L64.675,45.525z
	 M71.375,45.525V45.5l0.025-0.022h3.25l0.022,0.022v0.025V50.5l-0.022,0.025H71.4L71.375,50.5V45.525z M64.675,15.475V15.5
	L61.4,15.525L61.375,15.5v-0.022V10.5l0.025-0.022h3.25l0.022,0.022L64.675,15.475L64.675,15.475z M74.675,15.475V15.5l-0.022,0.025
	H71.4L71.375,15.5v-0.022V10.5l0.025-0.022h3.25l0.022,0.022L74.675,15.475L74.675,15.475z M158,51.275v3.05V51.275z M67.325,36.225
	L65.95,37.6v0.05L65.9,37.6C63.967,35.633,63,33.267,63,30.5c0-2.73,0.967-5.083,2.9-7.05c2-1.967,4.367-2.95,7.1-2.95
	c2.77,0,5.133,0.983,7.103,2.95H80.05l-1.375,1.375c-0.292-0.29-0.583-0.548-0.875-0.775c-0.3-0.23-0.6-0.433-0.897-0.6
	s-0.603-0.3-0.9-0.4c-0.467-0.197-0.95-0.35-1.45-0.447L73,22.5c-0.5-0.033-0.98,0-1.45,0.103c-0.451,0.062-0.896,0.188-1.322,0.375
	L70.2,22.95c-0.322,0.096-0.613,0.238-0.875,0.425L69.3,23.35c-0.364,0.197-0.716,0.417-1.05,0.647
	c-0.334,0.233-0.647,0.52-0.95,0.853c-0.364,0.333-0.683,0.697-0.947,1.1C65.45,27.25,65,28.567,65,29.9v0.6
	c-0.033,2.2,0.733,4.103,2.3,5.7L67.325,36.225z M7.2,13.5v-0.05c3.7-0.167,6.883-0.617,9.55-1.35C19.417,11.333,21.533,10.3,23.1,9
	h0.05c0,1.233-0.5,2.3-1.5,3.2s-2.186,1.35-3.55,1.35h-10C7.8,13.55,7.5,13.533,7.2,13.5z M19.15,23.65c0,1.23-0.4,2.3-1.2,3.2
	c-0.8,0.897-1.75,1.35-2.85,1.35h-8c-0.233,0-0.47-0.017-0.7-0.05V28.1c2.934-0.167,5.467-0.617,7.6-1.353
	c2.133-0.73,3.833-1.767,5.103-3.1L19.15,23.65L19.15,23.65z M19.15,37.3c0,1.233-0.4,2.303-1.2,3.2c-0.8,0.9-1.75,1.353-2.85,1.353
	h-8c-0.233,0-0.47-0.02-0.7-0.053v-0.05c2.934-0.167,5.467-0.617,7.6-1.35c2.133-0.733,3.833-1.77,5.103-3.103L19.15,37.3
	L19.15,37.3z M7.2,56.45V56.4c3.7-0.167,6.883-0.617,9.55-1.353c2.667-0.73,4.783-1.767,6.353-3.1h0.05c0,1.233-0.5,2.3-1.5,3.2
	c-1,0.897-2.186,1.35-3.55,1.35h-10C7.8,56.5,7.5,56.483,7.2,56.45z"/>
<path fill="#333333" d="M158.025,9.525v3.35H158v-3.35H158.025z M158,6.475L157.975,6.5v3L158,9.525v3.35l-0.022,0.025v3L158,15.925
	h0.025v3.353H158v-3.353v3.353l-0.022,0.022v3L158,22.325v3.35l-0.022,0.025v3L158,28.725h0.025v3.35H158v-3.35v3.35l-0.022,0.025v3
	L158,35.125v3.353v-3.353h0.025v3.353H158l-0.022,0.022v3L158,41.525h0.025v3.35H158l-0.022,0.025v3L158,47.925h0.025v3.353H158
	l-0.022,0.022v3L158,54.325V55.5l-1.147,0.025H133l-0.022-0.025v-1.175H133v1.2v-1.2l0.025-0.025v-3L133,51.275h-0.022v-3.353H133
	l0.025-0.022v-3L133,44.875v-3.35l0.025-0.025v-3L133,38.475v-3.353l0.025-0.022v-3L133,32.075v-3.35l0.025-0.025v-3L133,25.675
	v-3.35l0.025-0.025v-3L133,19.275v-3.353l0.025-0.022v-3L133,12.875v-3.35l0.025-0.025v-3L133,6.475V5.5h25.025H133v0.978h-0.022
	V5.5L133,5.475h25l0.025,0.022v0.978H158l0.025-0.978L158,6.475z M158.025,22.325v3.35H158v-3.35H158.025z M158,54.325h0.025V55.5
	L158,55.525h-1.147L158,55.5V54.325z M133,44.875h-0.022v-3.35H133V44.875z M133,38.475h-0.022v-3.353H133V38.475z M133,32.075
	h-0.022v-3.35H133V32.075z M133,25.675h-0.022v-3.35H133V25.675z M133,19.275h-0.022v-3.353H133V19.275z M133,9.525v3.35h-0.022
	v-3.35H133z M133,47.925v3.353V47.925z M155.3,49.1c0.47,0.467,0.7,1.05,0.7,1.75c0,0.697-0.23,1.3-0.7,1.8
	c-0.5,0.467-1.1,0.7-1.8,0.7c-0.667,0-1.25-0.233-1.75-0.7c-0.5-0.5-0.75-1.103-0.75-1.8c0-0.7,0.25-1.283,0.75-1.75
	c0.5-0.5,1.083-0.75,1.75-0.75C154.2,48.35,154.8,48.6,155.3,49.1c-0.5-0.5-1.1-0.75-1.8-0.75c-0.667,0-1.25,0.25-1.75,0.75
	c-0.5,0.467-0.75,1.05-0.75,1.75c0,0.697,0.25,1.3,0.75,1.8c0.5,0.467,1.083,0.7,1.75,0.7c0.7,0,1.3-0.233,1.8-0.7
	c0.47-0.5,0.7-1.103,0.7-1.8C156,50.15,155.767,49.567,155.3,49.1z M158,44.875v-3.35V44.875z M158,51.275v-3.353V51.275z"/>
<path fill="#999999" d="M287.35,23.65c-2.533,2.633-6.783,4.117-12.75,4.45v0.05c-0.803-0.167-1.5-0.603-2.103-1.3
	c-0.789-0.891-1.172-1.938-1.147-3.15c1.767-2.7,5.766-4.2,12-4.5v-0.05c1.064-0.033,2,0.397,2.801,1.3
	C286.95,21.35,287.35,22.417,287.35,23.65z M271.45,13.5c-1-0.167-1.883-0.6-2.65-1.3c-0.983-0.888-1.47-1.938-1.447-3.15V9
	c2.197-2.7,7.197-4.2,15-4.5h0.051c1.345-0.021,2.512,0.411,3.5,1.3c1,0.9,1.5,1.97,1.5,3.2h-0.051
	c-3.166,2.633-8.469,4.117-15.899,4.45L271.45,13.5L271.45,13.5z M271.35,37.3c1.73-2.697,5.73-4.197,12-4.5
	c1.064-0.03,2,0.4,2.801,1.303c0.8,0.897,1.199,1.967,1.199,3.197c-1.27,1.367-2.949,2.417-5.053,3.15
	c-2.133,0.733-4.697,1.183-7.697,1.35c-0.803-0.197-1.5-0.633-2.103-1.3c-0.789-0.888-1.172-1.938-1.147-3.147V37.3z M267.35,51.95
	c2.197-2.7,7.197-4.2,15-4.5h0.051c1.345-0.022,2.512,0.411,3.5,1.3c1,0.9,1.5,1.967,1.5,3.2h-0.051
	c-3.166,2.633-8.469,4.117-15.899,4.45v0.05c-1-0.167-1.883-0.6-2.65-1.3c-0.983-0.888-1.47-1.938-1.447-3.15L267.35,51.95
	L267.35,51.95z M223.725,24.875c0.225,0.229,0.447,0.468,0.675,0.728c0.2,0.267,0.383,0.55,0.55,0.85c0.233,0.367,0.433,0.8,0.6,1.3
	s0.317,1.083,0.45,1.75l0.05,0.3L226,29.85l0.05,0.05v0.6c-0.03,2.2-0.813,4.103-2.35,5.7c-0.567,0.5-1.15,0.95-1.75,1.35
	c-1.263-5.016-1.296-9.683-0.1-14c0.3,0.167,0.6,0.367,0.897,0.603c0.3,0.2,0.603,0.45,0.9,0.75h0.05L223.725,24.875z M214.35,23.45
	c1.163,4.383,1.146,9.1-0.053,14.15l-0.05,0.05c-0.333-0.2-0.667-0.417-1-0.65c-0.323-0.226-0.615-0.468-0.875-0.725l0.025-0.025
	V36.2l-0.05-0.05c-1.533-1.566-2.303-3.45-2.303-5.65v-0.6c0-1.3,0.47-2.583,1.4-3.853c0.267-0.433,0.566-0.813,0.9-1.147
	c0.3-0.3,0.614-0.566,0.947-0.8C213.633,23.833,213.983,23.617,214.35,23.45z M215.2,23.075c0.013-0.011,0.03-0.019,0.05-0.025
	c0.4-0.167,0.833-0.3,1.3-0.397c0.47-0.066,0.95-0.103,1.45-0.103l1.55,0.15l0.7,0.15l0.7,0.25l0.025,0.022L221,23.15
	c-1.3,4.564-1.283,9.48,0.05,14.75v0.05c-0.5,0.2-1,0.35-1.5,0.45c-0.5,0.1-1.017,0.147-1.55,0.147c-0.5,0-0.98-0.05-1.45-0.147
	c-0.5-0.066-0.966-0.186-1.397-0.353V38l0.05-0.05c1.268-5.3,1.283-10.233,0.05-14.8C215.219,23.119,215.203,23.094,215.2,23.075z
	 M222.45,29.9l0.1,0.1c0.2,0.2,0.437,0.3,0.7,0.3c0.269,0,0.52-0.1,0.75-0.3l0.103-0.1c0.133-0.2,0.197-0.417,0.197-0.65
	c0-0.3-0.1-0.55-0.3-0.75c-0.23-0.2-0.48-0.283-0.75-0.25c-0.267-0.033-0.5,0.05-0.7,0.25c-0.23,0.2-0.333,0.45-0.3,0.75
	C222.217,29.483,222.283,29.7,222.45,29.9z M218,31c-0.267-0.033-0.5,0.05-0.7,0.25c-0.23,0.233-0.333,0.483-0.3,0.75
	c-0.033,0.27,0.067,0.52,0.3,0.75c0.2,0.2,0.437,0.3,0.7,0.3c0.3,0,0.55-0.1,0.75-0.3c0.2-0.23,0.3-0.48,0.3-0.75
	c0-0.267-0.1-0.517-0.3-0.75C218.55,31.05,218.3,30.967,218,31z M213.5,29.75c0.2-0.23,0.3-0.48,0.3-0.75c0-0.3-0.1-0.55-0.3-0.75
	c-0.23-0.2-0.48-0.283-0.75-0.25c-0.267-0.033-0.5,0.05-0.7,0.25c-0.23,0.2-0.333,0.45-0.3,0.75c-0.033,0.27,0.067,0.52,0.3,0.75
	l0.053,0.05c0.167,0.167,0.383,0.25,0.647,0.25C213.017,30.05,213.267,29.95,213.5,29.75z M67.325,36.225L67.3,36.2
	c-1.563-1.6-2.333-3.5-2.3-5.7v-0.6c0-1.333,0.45-2.65,1.353-3.95c0.267-0.4,0.583-0.767,0.947-1.1
	c0.303-0.333,0.617-0.617,0.95-0.853c0.333-0.23,0.686-0.45,1.05-0.647l0.025,0.022L69.3,23.4c1.167,4.397,1.15,9.117-0.05,14.147
	c-0.333-0.167-0.647-0.364-0.95-0.6c-0.333-0.233-0.633-0.483-0.897-0.75h-0.05L67.325,36.225z M76,23.05h-0.05L75.9,23.15
	c-1.3,4.564-1.283,9.5,0.05,14.8c-0.467,0.167-0.934,0.3-1.4,0.4c-0.5,0.063-1.017,0.114-1.55,0.147
	c-0.5-0.033-0.98-0.083-1.45-0.147c-0.466-0.103-0.917-0.233-1.35-0.4c1.333-5.3,1.35-10.25,0.05-14.85V23l-0.022-0.022
	c0.429-0.188,0.871-0.312,1.322-0.375C72.017,22.5,72.5,22.467,73,22.5l1.55,0.103C75.05,22.7,75.533,22.85,76,23.05z
	 M78.675,24.825L78.65,24.85v0.05c0.467,0.467,0.883,0.98,1.25,1.55c0.2,0.367,0.397,0.816,0.6,1.35c0.167,0.5,0.317,1.067,0.45,1.7
	l0.05,1c-0.033,2.2-0.814,4.083-2.35,5.65c-0.27,0.23-0.55,0.467-0.853,0.7c-0.3,0.23-0.583,0.433-0.85,0.6
	c-1.233-4.967-1.25-9.633-0.05-14c0.3,0.167,0.6,0.367,0.897,0.6C78.092,24.277,78.383,24.535,78.675,24.825z M77.55,28.5
	c-0.23,0.2-0.333,0.45-0.3,0.75c-0.033,0.233,0.033,0.45,0.2,0.65l0.1,0.1c0.2,0.2,0.437,0.3,0.7,0.3c0.269,0,0.52-0.1,0.75-0.3
	l0.103-0.1c0.133-0.2,0.197-0.417,0.197-0.65c0-0.3-0.1-0.55-0.3-0.75c-0.23-0.2-0.48-0.283-0.75-0.25
	C77.983,28.217,77.75,28.3,77.55,28.5z M73,31c-0.267-0.033-0.5,0.05-0.7,0.25c-0.23,0.233-0.333,0.483-0.3,0.75
	c-0.033,0.27,0.067,0.52,0.3,0.75c0.2,0.2,0.437,0.3,0.7,0.3c0.3,0,0.55-0.1,0.75-0.3c0.2-0.23,0.3-0.48,0.3-0.75
	c0-0.267-0.114-0.533-0.35-0.8C73.533,31.033,73.3,30.967,73,31z M68.5,28.25c-0.23-0.2-0.48-0.283-0.75-0.25
	c-0.267-0.033-0.5,0.05-0.7,0.25c-0.23,0.2-0.333,0.45-0.3,0.75c-0.033,0.27,0.067,0.52,0.3,0.75c0.2,0.2,0.437,0.3,0.7,0.3
	c0.269,0,0.52-0.1,0.75-0.3c0.2-0.23,0.3-0.48,0.3-0.75C68.8,28.7,68.7,28.45,68.5,28.25z M3.1,9C5.3,6.3,10.3,4.8,18.1,4.5
	c1.364-0.033,2.55,0.4,3.55,1.3c1,0.9,1.5,1.97,1.5,3.2H23.1c-1.567,1.3-3.687,2.333-6.353,3.103c-2.667,0.73-5.85,1.183-9.55,1.35
	v0.05c-1-0.167-1.883-0.6-2.65-1.3C3.564,11.312,3.08,10.262,3.1,9.05V9z M15.15,19.15c1.079-0.021,2.012,0.414,2.8,1.3
	c0.8,0.9,1.2,1.966,1.2,3.2H19.1c-1.27,1.333-2.97,2.367-5.103,3.1c-2.133,0.733-4.667,1.186-7.6,1.353v0.05
	c-0.8-0.167-1.52-0.603-2.15-1.3c-0.787-0.891-1.17-1.94-1.147-3.152h0.05C4.917,21,8.9,19.5,15.1,19.2L15.15,19.15z M6.4,41.8
	c-0.8-0.167-1.52-0.6-2.15-1.3C3.461,39.612,3.078,38.562,3.1,37.35h0.05c1.767-2.7,5.75-4.2,11.95-4.5l0.05-0.053
	c1.079-0.02,2.012,0.414,2.8,1.303c0.8,0.897,1.2,1.967,1.2,3.197H19.1C17.833,38.633,16.133,39.667,14,40.4
	c-2.133,0.73-4.667,1.184-7.6,1.35V41.8z M23.15,51.95H23.1c-1.567,1.333-3.687,2.367-6.353,3.1c-2.667,0.733-5.85,1.187-9.55,1.353
	v0.05c-1-0.167-1.883-0.6-2.65-1.3C3.563,54.262,3.08,53.212,3.1,52h0.05c1.095-1.344,2.878-2.399,5.35-3.175L18.1,47.45
	c1.364-0.034,2.55,0.4,3.55,1.3C22.65,49.65,23.15,50.717,23.15,51.95z"/>
<path fill="#CCCCCC" d="M283.35,19.15v0.05c-6.233,0.3-10.233,1.8-12,4.5v-0.05c-0.023-1.245,0.357-2.312,1.147-3.2
	c0.8-0.9,1.75-1.333,2.853-1.3H283.35z M283.35,32.8c-6.27,0.303-10.269,1.803-12,4.5c-0.023-1.242,0.357-2.312,1.147-3.197
	c0.8-0.9,1.75-1.333,2.853-1.303H283.35z M267.35,9c-0.021-1.245,0.463-2.312,1.447-3.2c1-0.897,2.187-1.333,3.553-1.3h10
	C274.55,4.8,269.55,6.3,267.35,9z M282.35,47.45c-7.803,0.3-12.803,1.8-15,4.5c-0.021-1.246,0.463-2.312,1.447-3.2
	c1-0.897,2.187-1.333,3.553-1.3H282.35z M220.975,23.125c0.264,0.124,0.555,0.268,0.875,0.425c-1.196,4.317-1.163,8.984,0.1,14
	c0.6-0.397,1.183-0.85,1.75-1.35c1.533-1.6,2.316-3.5,2.35-5.7v-0.6L226,29.85l0.05-0.053L226,29.5
	c-0.133-0.667-0.283-1.25-0.45-1.75s-0.364-0.933-0.6-1.3c-0.167-0.3-0.35-0.583-0.55-0.85c-0.228-0.26-0.45-0.499-0.675-0.728
	L225.1,23.5v-0.05c1.933,1.966,2.917,4.316,2.947,7.05c-0.03,2.77-1.017,5.133-2.947,7.103c-1.97,1.933-4.333,2.917-7.103,2.947
	c-2.73-0.03-5.083-1-7.05-2.897H211l1.375-1.375c0.26,0.257,0.552,0.499,0.875,0.725c0.333,0.233,0.667,0.45,1,0.65l0.05-0.05
	c1.196-5.053,1.216-9.77,0.053-14.15c0.25-0.157,0.531-0.282,0.85-0.375c0.002,0.02,0.021,0.044,0.05,0.075
	c1.233,4.564,1.218,9.5-0.05,14.8L215.15,38v0.05c0.434,0.167,0.897,0.284,1.397,0.353c0.47,0.1,0.95,0.147,1.45,0.147
	c0.533,0,1.05-0.05,1.55-0.147c0.5-0.103,1-0.25,1.5-0.45V37.9c-1.333-5.27-1.35-10.186-0.05-14.75L220.975,23.125z M70.225,22.975
	L70.25,23V23.1c1.3,4.6,1.283,9.55-0.05,14.85c0.433,0.167,0.883,0.3,1.35,0.4c0.47,0.063,0.95,0.114,1.45,0.147
	c0.533-0.033,1.05-0.083,1.55-0.147c0.47-0.103,0.937-0.233,1.4-0.4c-1.333-5.3-1.35-10.233-0.05-14.8l0.05-0.103H76
	c0.3,0.103,0.603,0.233,0.9,0.4c-1.2,4.367-1.186,9.033,0.05,14c0.267-0.167,0.55-0.367,0.85-0.6c0.303-0.233,0.583-0.47,0.853-0.7
	c1.533-1.566,2.314-3.45,2.35-5.65l-0.05-1c-0.133-0.633-0.284-1.2-0.45-1.7c-0.2-0.53-0.397-0.98-0.6-1.35
	c-0.367-0.567-0.783-1.083-1.25-1.55v-0.05l0.022-0.025l1.375-1.375H80.1c1.933,1.966,2.917,4.316,2.947,7.05
	c-0.03,2.77-1.017,5.133-2.947,7.103c-1.97,1.933-4.333,2.917-7.103,2.947c-2.73-0.03-5.083-1-7.05-2.897V37.6l1.375-1.375
	L67.35,36.2h0.05c0.267,0.267,0.564,0.517,0.897,0.75c0.303,0.233,0.617,0.433,0.95,0.6c1.2-5.03,1.217-9.75,0.05-14.147
	l0.025-0.025c0.262-0.187,0.553-0.329,0.875-0.425L70.225,22.975z M18.1,4.5C10.3,4.8,5.3,6.3,3.1,9
	C3.08,7.755,3.563,6.688,4.55,5.8C5.55,4.9,6.734,4.467,8.1,4.5H18.1z M3.1,23.7v-0.05c-0.023-1.245,0.357-2.312,1.147-3.2
	c0.8-0.9,1.75-1.333,2.853-1.3h8.05L15.1,19.2C8.9,19.5,4.917,21,3.15,23.7H3.1z M3.1,37.35V37.3
	C3.077,36.055,3.46,34.988,4.25,34.1C5.05,33.2,6,32.767,7.1,32.8h8.05L15.1,32.85c-6.2,0.3-10.187,1.8-11.95,4.5H3.1z M18.1,47.45
	L8.5,48.825C6.028,49.598,4.245,50.656,3.15,52H3.1v-0.05c-0.021-1.246,0.463-2.312,1.447-3.2c1-0.897,2.187-1.333,3.553-1.3H18.1z"
	/>
<path fill="#0000FF" d="M222.45,29.9c-0.167-0.2-0.233-0.417-0.2-0.65c-0.033-0.3,0.067-0.55,0.3-0.75c0.2-0.2,0.437-0.283,0.7-0.25
	c0.27-0.033,0.52,0.05,0.75,0.25c0.2,0.2,0.3,0.45,0.3,0.75c0,0.233-0.063,0.45-0.197,0.65L224,30c-0.23,0.2-0.48,0.3-0.75,0.3
	c-0.267,0-0.5-0.1-0.7-0.3L222.45,29.9z M77.55,28.5c0.2-0.2,0.437-0.283,0.7-0.25c0.27-0.033,0.52,0.05,0.75,0.25
	c0.2,0.2,0.3,0.45,0.3,0.75c0,0.233-0.063,0.45-0.197,0.65L79,30c-0.23,0.2-0.48,0.3-0.75,0.3c-0.267,0-0.5-0.1-0.7-0.3l-0.1-0.1
	c-0.167-0.2-0.233-0.417-0.2-0.65C77.217,28.95,77.317,28.7,77.55,28.5z"/>
<path fill="#FF0000" d="M218,31c0.3-0.033,0.55,0.05,0.75,0.25c0.2,0.233,0.3,0.483,0.3,0.75c0,0.27-0.1,0.52-0.3,0.75
	c-0.2,0.2-0.45,0.3-0.75,0.3c-0.267,0-0.5-0.1-0.7-0.3c-0.23-0.23-0.333-0.48-0.3-0.75c-0.033-0.267,0.067-0.517,0.3-0.75
	C217.5,31.05,217.733,30.967,218,31z M73,31c0.3-0.033,0.533,0.033,0.7,0.2c0.233,0.267,0.35,0.533,0.35,0.8
	c0,0.27-0.1,0.52-0.3,0.75c-0.2,0.2-0.45,0.3-0.75,0.3c-0.267,0-0.5-0.1-0.7-0.3c-0.23-0.23-0.333-0.48-0.3-0.75
	c-0.033-0.267,0.067-0.517,0.3-0.75C72.5,31.05,72.733,30.967,73,31z"/>
<path fill="#00FF00" d="M213.5,29.75c-0.23,0.2-0.48,0.3-0.75,0.3c-0.267,0-0.48-0.083-0.647-0.25l-0.053-0.05
	c-0.23-0.23-0.333-0.48-0.3-0.75c-0.033-0.3,0.067-0.55,0.3-0.75c0.2-0.2,0.437-0.283,0.7-0.25c0.27-0.033,0.52,0.05,0.75,0.25
	c0.2,0.2,0.3,0.45,0.3,0.75C213.8,29.267,213.7,29.517,213.5,29.75z M68.5,28.25c0.2,0.2,0.3,0.45,0.3,0.75
	c0,0.27-0.1,0.52-0.3,0.75c-0.23,0.2-0.48,0.3-0.75,0.3c-0.267,0-0.5-0.1-0.7-0.3c-0.23-0.23-0.333-0.48-0.3-0.75
	c-0.033-0.3,0.067-0.55,0.3-0.75c0.2-0.2,0.437-0.283,0.7-0.25C68.017,27.967,68.267,28.05,68.5,28.25z"/>
<polyline fill="none" stroke="#FF8C38" stroke-linecap="round" stroke-linejoin="round" stroke-miterlimit="3" points="0.5,60.525 
	0.5,60.5 0.5,44 0.5,30.25 0.5,16.5 0.5,0.5 290.5,0.5 290.525,0.5 "/>
<polyline fill="none" stroke="#BB4B00" stroke-linecap="round" stroke-linejoin="round" stroke-miterlimit="3" points="290.5,0.5 
	290.5,16.5 290.5,30.25 290.5,44 290.5,60.5 0.5,60.5 "/>
<path fill="none" stroke="#FFFFFF" stroke-linecap="round" stroke-linejoin="round" stroke-miterlimit="3" stroke-opacity="0.6" d="
	M260.5,44h30 M260.5,30.25h30 M260.5,16.5h30 M0.5,44h30 M0.5,30.25h30 M0.5,16.5h30"/>
<path fill="none" stroke="#000000" stroke-linecap="round" stroke-linejoin="round" stroke-miterlimit="3" d="M156.85,55.525H133
	 M158.025,5.5L158,6.475 M158,9.525v3.35 M158,9.525v-3.05 M158,15.925v-3.05 M158,15.925v3.353v3.05v3.35v3.053 M158,32.075v3.05
	 M158,32.075v-3.35 M158,38.475v3.05 M158,38.475v-3.353 M151.75,52.65c-0.5-0.5-0.75-1.103-0.75-1.8c0-0.7,0.25-1.283,0.75-1.75
	c0.5-0.5,1.083-0.75,1.75-0.75c0.7,0,1.3,0.25,1.8,0.75 M158,44.875v3.05 M158,44.875v-3.35 M158,51.275v-3.353 M158,54.325V55.5
	l-1.147,0.025 M158,51.275v3.05"/>
<path fill="none" stroke="#666666" stroke-linecap="round" stroke-linejoin="round" stroke-miterlimit="3" d="M133,6.475V5.5h25.025
	 M133,9.525v3.35 M133,15.925v3.353 M133,22.325v3.35 M133,28.725v3.35 M133,35.125v3.353 M133,41.525v3.35 M133,47.925v3.353
	 M133,54.325v1.2 M133,6.475v3.05 M133,15.925v-3.05 M133,22.325v-3.05 M133,28.725v-3.053 M133,35.125v-3.05 M133,41.525v-3.05
	 M133,47.925v-3.05 M155.3,49.1c0.47,0.467,0.7,1.05,0.7,1.75c0,0.697-0.23,1.3-0.7,1.8c-0.5,0.467-1.1,0.7-1.8,0.7
	c-0.667,0-1.25-0.233-1.75-0.7 M133,54.325v-3.05"/>
<text transform="matrix(1 0 0 1 27.6799 12.3455)" fill="#FFFFFF" font-family="DroidSans" font-size="9">GND</text>
<text transform="matrix(1 0 0 1 27.6799 27.3455)" fill="#FFFFFF" font-family="DroidSans" font-size="9">DI</text>
<text transform="matrix(1 0 0 1 27.6799 40.3455)" fill="#FFFFFF" font-family="DroidSans" font-size="9">CI</text>
<text transform="matrix(1 0 0 1 28.6799 55.3455)" fill="#FFFFFF" font-family="DroidSans" font-size="9">+5V</text>
<text transform="matrix(1 0 0 1 27.6799 12.3455)" fill="#FFFFFF" font-family="DroidSans" font-size="9">GND</text>
<text transform="matrix(1 0 0 1 27.6799 27.3455)" fill="#FFFFFF" font-family="DroidSans" font-size="9">DI</text>
<text transform="matrix(1 0 0 1 27.6799 40.3455)" fill="#FFFFFF" font-family="DroidSans" font-size="9">CI</text>
<text transform="matrix(1 0 0 1 28.6799 55.3455)" fill="#FFFFFF" font-family="DroidSans" font-size="9">+5V</text>
<text transform="matrix(1 0 0 1 27.6799 12.3455)" fill="#FFFFFF" font-family="DroidSans" font-size="9">GND</text>
<text transform="matrix(1 0 0 1 27.6799 27.3455)" fill="#FFFFFF" font-family="DroidSans" font-size="9">DI</text>
<text transform="matrix(1 0 0 1 27.6799 40.3455)" fill="#FFFFFF" font-family="DroidSans" font-size="9">CI</text>
<text transform="matrix(1 0 0 1 28.6799 55.3455)" fill="#FFFFFF" font-family="DroidSans" font-size="9">+5V</text>
<text transform="matrix(1 0 0 1 27.6799 12.3455)" fill="#FFFFFF" font-family="DroidSans" font-size="9">GND</text>
<text transform="matrix(1 0 0 1 27.6799 27.3455)" fill="#FFFFFF" font-family="DroidSans" font-size="9">DI</text>
<text transform="matrix(1 0 0 1 27.6799 40.3455)" fill="#FFFFFF" font-family="DroidSans" font-size="9">CI</text>
<text transform="matrix(1 0 0 1 28.6799 55.3455)" fill="#FFFFFF" font-family="DroidSans" font-size="9">+5V</text>
<text transform="matrix(1 0 0 1 27.6799 12.3455)" fill="#FFFFFF" font-family="DroidSans" font-size="9">GND</text>
<text transform="matrix(1 0 0 1 27.6799 27.3455)" fill="#FFFFFF" font-family="DroidSans" font-size="9">DI</text>
<text transform="matrix(1 0 0 1 27.6799 40.3455)" fill="#FFFFFF" font-family="DroidSans" font-size="9">CI</text>
<text transform="matrix(1 0 0 1 28.6799 55.3455)" fill="#FFFFFF" font-family="DroidSans" font-size="9">+5V</text>
<g>
	<path fill="#FFFFFF" d="M31.116,8.953h2.127v3.151c-0.161,0.053-0.324,0.1-0.488,0.141s-0.333,0.076-0.505,0.103
		c-0.173,0.028-0.354,0.049-0.545,0.064s-0.396,0.022-0.615,0.022c-0.46,0-0.867-0.077-1.222-0.23
		c-0.354-0.154-0.653-0.374-0.896-0.659c-0.243-0.286-0.428-0.633-0.554-1.042c-0.126-0.408-0.189-0.868-0.189-1.377
		c0-0.504,0.069-0.959,0.208-1.367s0.342-0.754,0.609-1.039c0.267-0.286,0.595-0.506,0.987-0.659
		c0.391-0.154,0.837-0.231,1.338-0.231c0.325,0,0.637,0.032,0.936,0.097s0.577,0.158,0.835,0.281l-0.316,0.712
		c-0.105-0.05-0.219-0.097-0.34-0.141c-0.122-0.044-0.247-0.083-0.376-0.117C31.981,6.628,31.848,6.6,31.712,6.58
		c-0.137-0.021-0.272-0.031-0.407-0.031c-0.357,0-0.674,0.059-0.949,0.178c-0.275,0.118-0.506,0.289-0.692,0.512
		c-0.187,0.223-0.328,0.494-0.424,0.813s-0.145,0.68-0.145,1.081c0,0.381,0.04,0.729,0.121,1.046
		c0.08,0.316,0.208,0.589,0.384,0.817s0.403,0.406,0.681,0.532s0.614,0.189,1.006,0.189c0.129,0,0.247-0.003,0.354-0.011
		c0.106-0.007,0.206-0.017,0.296-0.028s0.176-0.025,0.257-0.042c0.08-0.016,0.159-0.031,0.235-0.046V9.674h-1.314V8.953z"/>
	<path fill="#FFFFFF" d="M39.576,12.345h-0.945l-3.16-5.317h-0.035c0.018,0.226,0.032,0.45,0.044,0.672
		c0.012,0.19,0.021,0.39,0.028,0.598s0.011,0.396,0.011,0.562v3.485h-0.756V5.921H35.7l3.146,5.291h0.031
		c-0.009-0.223-0.019-0.442-0.031-0.659c-0.003-0.094-0.007-0.189-0.011-0.288c-0.005-0.098-0.009-0.196-0.014-0.294
		c-0.004-0.098-0.007-0.193-0.009-0.284s-0.002-0.174-0.002-0.25V5.921h0.765V12.345z"/>
	<path fill="#FFFFFF" d="M46.058,9.072c0,0.542-0.07,1.017-0.211,1.426c-0.141,0.408-0.344,0.75-0.611,1.023
		c-0.267,0.274-0.594,0.48-0.982,0.618c-0.389,0.138-0.829,0.207-1.321,0.207h-1.608V5.921h1.789c0.448,0,0.854,0.067,1.217,0.202
		s0.672,0.335,0.927,0.6c0.255,0.266,0.452,0.594,0.591,0.987S46.058,8.556,46.058,9.072z M45.192,9.098
		c0-0.428-0.048-0.797-0.145-1.11c-0.097-0.312-0.237-0.569-0.422-0.771s-0.412-0.352-0.681-0.451
		c-0.27-0.098-0.576-0.147-0.918-0.147h-0.883v5.023h0.712c0.773,0,1.356-0.214,1.749-0.642S45.192,9.939,45.192,9.098z"/>
</g>
<g>
	<path fill="#FFFFFF" d="M33.287,24.072c0,0.542-0.07,1.017-0.211,1.426c-0.141,0.408-0.344,0.75-0.611,1.023
		c-0.267,0.274-0.594,0.48-0.982,0.618c-0.389,0.138-0.829,0.207-1.321,0.207h-1.608v-6.425h1.789c0.448,0,0.854,0.067,1.217,0.202
		s0.672,0.335,0.927,0.6c0.255,0.266,0.452,0.594,0.591,0.987S33.287,23.556,33.287,24.072z M32.422,24.098
		c0-0.428-0.048-0.797-0.145-1.11c-0.097-0.312-0.237-0.569-0.422-0.771s-0.412-0.352-0.681-0.451
		c-0.27-0.098-0.576-0.147-0.918-0.147h-0.883v5.023h0.712c0.773,0,1.356-0.214,1.749-0.642S32.422,24.939,32.422,24.098z"/>
	<path fill="#FFFFFF" d="M36.438,27.345h-2.329v-0.448l0.756-0.18v-5.168l-0.756-0.18v-0.448h2.329v0.448l-0.756,0.18v5.168
		l0.756,0.18V27.345z"/>
</g>
<g>
	<path fill="#FFFFFF" d="M31.165,34.55c-0.313,0-0.598,0.059-0.853,0.178c-0.255,0.118-0.472,0.289-0.653,0.512
		c-0.18,0.223-0.319,0.494-0.417,0.812c-0.099,0.32-0.147,0.68-0.147,1.082c0,0.412,0.043,0.779,0.13,1.101
		c0.086,0.32,0.216,0.591,0.389,0.811s0.388,0.387,0.646,0.501s0.56,0.172,0.905,0.172c0.261,0,0.508-0.025,0.743-0.077
		s0.466-0.11,0.694-0.179v0.713c-0.114,0.043-0.229,0.082-0.343,0.116s-0.234,0.061-0.358,0.081s-0.258,0.035-0.399,0.046
		c-0.143,0.011-0.3,0.016-0.473,0.016c-0.48,0-0.896-0.079-1.248-0.237s-0.643-0.383-0.872-0.672
		c-0.23-0.291-0.401-0.639-0.512-1.047c-0.111-0.406-0.167-0.857-0.167-1.354c0-0.486,0.064-0.932,0.191-1.336
		c0.128-0.404,0.315-0.751,0.562-1.041s0.555-0.516,0.921-0.677s0.787-0.241,1.261-0.241c0.316,0,0.618,0.031,0.905,0.096
		s0.546,0.158,0.778,0.281l-0.343,0.686c-0.185-0.094-0.385-0.174-0.602-0.241S31.44,34.55,31.165,34.55z"/>
	<path fill="#FFFFFF" d="M35.797,40.345h-2.329v-0.448l0.756-0.18V34.55l-0.756-0.181v-0.448h2.329v0.448l-0.756,0.181v5.168
		l0.756,0.18V40.345z"/>
</g>
<g>
	<path fill="#FFFFFF" d="M30.829,52.503h-1.701v-0.66h1.701v-1.709h0.659v1.709h1.701v0.66h-1.701v1.691h-0.659V52.503z"/>
	<path fill="#FFFFFF" d="M36.032,51.403c0.29,0,0.56,0.041,0.811,0.121c0.25,0.081,0.468,0.2,0.654,0.358s0.332,0.354,0.438,0.589
		s0.158,0.506,0.158,0.812c0,0.334-0.05,0.635-0.149,0.901s-0.248,0.492-0.444,0.677s-0.439,0.326-0.727,0.424
		c-0.289,0.098-0.621,0.147-0.996,0.147c-0.149,0-0.296-0.007-0.442-0.022c-0.145-0.014-0.284-0.035-0.417-0.063
		c-0.134-0.027-0.26-0.063-0.38-0.107s-0.229-0.095-0.325-0.153v-0.756c0.097,0.066,0.21,0.127,0.34,0.18s0.268,0.097,0.411,0.132
		s0.288,0.062,0.433,0.081c0.146,0.02,0.279,0.029,0.402,0.029c0.231,0,0.438-0.027,0.62-0.082c0.182-0.054,0.335-0.139,0.461-0.252
		c0.126-0.115,0.223-0.258,0.29-0.432c0.067-0.172,0.101-0.377,0.101-0.615c0-0.418-0.129-0.738-0.387-0.96
		c-0.258-0.221-0.633-0.331-1.125-0.331c-0.079,0-0.165,0.004-0.257,0.011c-0.092,0.007-0.185,0.017-0.276,0.028
		c-0.093,0.012-0.181,0.024-0.264,0.037c-0.084,0.014-0.156,0.025-0.218,0.037l-0.396-0.25l0.242-3.023h3.032v0.729h-2.338
		l-0.171,1.841c0.094-0.018,0.218-0.036,0.371-0.057C35.639,51.414,35.821,51.403,36.032,51.403z"/>
	<path fill="#FFFFFF" d="M42.835,48.921h0.87l-2.149,6.425h-0.822l-2.14-6.425h0.866l1.296,4.074
		c0.085,0.266,0.158,0.523,0.22,0.771c0.062,0.248,0.117,0.479,0.167,0.696c0.044-0.217,0.1-0.448,0.167-0.696
		c0.067-0.247,0.146-0.513,0.237-0.798L42.835,48.921z"/>
</g>
<g>
	<path fill="#FFFFFF" d="M248.116,8.953h2.127v3.151c-0.16,0.053-0.323,0.1-0.487,0.141s-0.333,0.076-0.505,0.103
		c-0.174,0.028-0.355,0.049-0.545,0.064c-0.191,0.015-0.396,0.022-0.615,0.022c-0.461,0-0.867-0.077-1.223-0.23
		c-0.354-0.154-0.652-0.374-0.896-0.659c-0.242-0.286-0.428-0.633-0.553-1.042c-0.127-0.408-0.189-0.868-0.189-1.377
		c0-0.504,0.069-0.959,0.209-1.367c0.139-0.407,0.342-0.754,0.608-1.039c0.267-0.286,0.595-0.506,0.987-0.659
		c0.391-0.154,0.836-0.231,1.338-0.231c0.324,0,0.637,0.032,0.936,0.097s0.577,0.158,0.835,0.281l-0.316,0.712
		c-0.105-0.05-0.22-0.097-0.341-0.141s-0.246-0.083-0.375-0.117c-0.129-0.033-0.262-0.061-0.398-0.081s-0.271-0.031-0.406-0.031
		c-0.357,0-0.674,0.059-0.949,0.178c-0.275,0.118-0.506,0.289-0.691,0.512c-0.188,0.223-0.328,0.494-0.425,0.813
		s-0.146,0.68-0.146,1.081c0,0.381,0.041,0.729,0.121,1.046s0.209,0.589,0.385,0.817s0.402,0.406,0.682,0.532
		c0.277,0.126,0.613,0.189,1.006,0.189c0.129,0,0.246-0.003,0.354-0.011c0.107-0.007,0.206-0.017,0.297-0.028
		s0.176-0.025,0.258-0.042c0.08-0.016,0.158-0.031,0.234-0.046V9.674h-1.314V8.953z"/>
	<path fill="#FFFFFF" d="M256.576,12.345h-0.944l-3.16-5.317h-0.035c0.018,0.226,0.032,0.45,0.044,0.672
		c0.012,0.19,0.021,0.39,0.028,0.598s0.012,0.396,0.012,0.562v3.485h-0.756V5.921h0.936l3.146,5.291h0.031
		c-0.01-0.223-0.02-0.442-0.031-0.659c-0.003-0.094-0.007-0.189-0.011-0.288c-0.005-0.098-0.009-0.196-0.014-0.294
		c-0.004-0.098-0.007-0.193-0.009-0.284s-0.002-0.174-0.002-0.25V5.921h0.765V12.345z"/>
	<path fill="#FFFFFF" d="M263.057,9.072c0,0.542-0.07,1.017-0.211,1.426c-0.141,0.408-0.344,0.75-0.61,1.023
		c-0.267,0.274-0.595,0.48-0.981,0.618c-0.389,0.138-0.829,0.207-1.321,0.207h-1.608V5.921h1.789c0.447,0,0.854,0.067,1.217,0.202
		s0.672,0.335,0.928,0.6c0.254,0.266,0.451,0.594,0.59,0.987C262.988,8.102,263.057,8.556,263.057,9.072z M262.192,9.098
		c0-0.428-0.049-0.797-0.145-1.11c-0.098-0.312-0.238-0.569-0.422-0.771c-0.186-0.202-0.412-0.352-0.682-0.451
		c-0.27-0.098-0.576-0.147-0.918-0.147h-0.884v5.023h0.712c0.773,0,1.356-0.214,1.749-0.642S262.192,9.939,262.192,9.098z"/>
</g>
<g>
	<path fill="#FFFFFF" d="M256.288,24.072c0,0.542-0.07,1.017-0.211,1.426c-0.141,0.408-0.345,0.75-0.611,1.023
		c-0.267,0.274-0.594,0.48-0.982,0.618s-0.828,0.207-1.32,0.207h-1.608v-6.425h1.788c0.449,0,0.854,0.067,1.218,0.202
		s0.673,0.335,0.927,0.6c0.256,0.266,0.452,0.594,0.592,0.987C256.218,23.102,256.288,23.556,256.288,24.072z M255.422,24.098
		c0-0.428-0.048-0.797-0.146-1.11c-0.096-0.312-0.236-0.569-0.422-0.771c-0.184-0.202-0.411-0.352-0.681-0.451
		c-0.27-0.098-0.575-0.147-0.919-0.147h-0.883v5.023h0.712c0.773,0,1.356-0.214,1.749-0.642S255.422,24.939,255.422,24.098z"/>
	<path fill="#FFFFFF" d="M262.958,24.124c0,0.495-0.059,0.946-0.178,1.354c-0.118,0.407-0.295,0.756-0.529,1.046
		s-0.525,0.514-0.872,0.672c-0.348,0.158-0.748,0.237-1.202,0.237c-0.478,0-0.892-0.079-1.241-0.237
		c-0.351-0.158-0.641-0.382-0.87-0.672c-0.23-0.29-0.4-0.639-0.512-1.048c-0.111-0.408-0.168-0.862-0.168-1.36
		s0.057-0.95,0.168-1.356c0.111-0.405,0.282-0.752,0.514-1.039s0.523-0.509,0.875-0.666c0.352-0.156,0.766-0.235,1.243-0.235
		c0.454,0,0.853,0.079,1.197,0.235c0.345,0.157,0.634,0.38,0.868,0.668c0.234,0.289,0.411,0.636,0.529,1.042
		C262.899,23.17,262.958,23.623,262.958,24.124z M258.252,24.124c0,0.401,0.038,0.762,0.114,1.083
		c0.076,0.32,0.192,0.593,0.35,0.817c0.156,0.224,0.355,0.396,0.598,0.514c0.241,0.119,0.529,0.178,0.863,0.178
		s0.622-0.059,0.863-0.178c0.242-0.118,0.441-0.29,0.598-0.514c0.156-0.225,0.271-0.497,0.346-0.817
		c0.072-0.321,0.109-0.682,0.109-1.083c0-0.404-0.037-0.766-0.109-1.085c-0.074-0.319-0.188-0.589-0.344-0.811
		c-0.154-0.221-0.353-0.392-0.593-0.51c-0.24-0.119-0.527-0.178-0.861-0.178s-0.622,0.059-0.866,0.178
		c-0.242,0.118-0.443,0.289-0.602,0.51s-0.275,0.491-0.352,0.811S258.252,23.72,258.252,24.124z"/>
</g>
<g>
	<path fill="#FFFFFF" d="M254.165,34.55c-0.313,0-0.598,0.059-0.853,0.178c-0.255,0.118-0.472,0.289-0.653,0.512
		c-0.18,0.223-0.318,0.494-0.416,0.812c-0.1,0.32-0.148,0.68-0.148,1.082c0,0.412,0.043,0.779,0.131,1.101
		c0.086,0.32,0.215,0.591,0.389,0.811c0.172,0.22,0.388,0.387,0.646,0.501s0.56,0.172,0.905,0.172c0.261,0,0.508-0.025,0.742-0.077
		s0.467-0.11,0.695-0.179v0.713c-0.115,0.043-0.229,0.082-0.344,0.116c-0.113,0.034-0.233,0.061-0.357,0.081
		c-0.125,0.021-0.258,0.035-0.4,0.046s-0.299,0.016-0.473,0.016c-0.48,0-0.896-0.079-1.248-0.237s-0.643-0.383-0.871-0.672
		c-0.23-0.291-0.401-0.639-0.513-1.047c-0.111-0.406-0.167-0.857-0.167-1.354c0-0.486,0.064-0.932,0.191-1.336
		s0.314-0.751,0.562-1.041c0.247-0.29,0.555-0.516,0.92-0.677c0.367-0.161,0.787-0.241,1.262-0.241c0.316,0,0.618,0.031,0.905,0.096
		s0.546,0.158,0.778,0.281l-0.344,0.686c-0.184-0.094-0.385-0.174-0.602-0.241S254.44,34.55,254.165,34.55z"/>
	<path fill="#FFFFFF" d="M262.049,37.124c0,0.496-0.06,0.947-0.179,1.354c-0.117,0.408-0.295,0.756-0.529,1.047
		c-0.234,0.289-0.525,0.514-0.871,0.672c-0.348,0.158-0.748,0.237-1.203,0.237c-0.477,0-0.891-0.079-1.24-0.237
		c-0.352-0.158-0.641-0.383-0.871-0.672c-0.23-0.291-0.4-0.64-0.512-1.049c-0.111-0.408-0.167-0.861-0.167-1.359
		s0.056-0.95,0.167-1.356c0.111-0.405,0.283-0.752,0.514-1.039c0.232-0.287,0.523-0.509,0.875-0.666
		c0.352-0.156,0.766-0.235,1.244-0.235c0.453,0,0.853,0.079,1.197,0.235c0.344,0.157,0.633,0.38,0.867,0.668
		c0.234,0.289,0.412,0.636,0.529,1.042C261.989,36.171,262.049,36.624,262.049,37.124z M257.343,37.124
		c0,0.402,0.037,0.763,0.113,1.084c0.076,0.32,0.193,0.593,0.35,0.817c0.156,0.224,0.355,0.396,0.598,0.514
		c0.242,0.119,0.529,0.179,0.863,0.179s0.623-0.06,0.863-0.179c0.242-0.118,0.441-0.29,0.598-0.514
		c0.157-0.225,0.272-0.497,0.346-0.817c0.073-0.321,0.109-0.682,0.109-1.084c0-0.404-0.036-0.766-0.109-1.085
		s-0.188-0.589-0.343-0.811s-0.353-0.392-0.593-0.51c-0.24-0.119-0.527-0.179-0.861-0.179s-0.623,0.06-0.866,0.179
		c-0.243,0.118-0.444,0.288-0.603,0.51s-0.275,0.491-0.352,0.811S257.343,36.719,257.343,37.124z"/>
</g>
<g>
	<path fill="#FFFFFF" d="M247.829,52.503h-1.701v-0.66h1.701v-1.709h0.659v1.709h1.7v0.66h-1.7v1.691h-0.659V52.503z"/>
	<path fill="#FFFFFF" d="M253.032,51.403c0.29,0,0.561,0.041,0.811,0.121c0.25,0.081,0.469,0.2,0.654,0.358
		c0.187,0.158,0.332,0.354,0.438,0.589s0.158,0.506,0.158,0.812c0,0.334-0.049,0.635-0.148,0.901s-0.248,0.492-0.444,0.677
		s-0.438,0.326-0.728,0.424s-0.62,0.147-0.995,0.147c-0.149,0-0.296-0.007-0.442-0.022c-0.145-0.014-0.283-0.035-0.416-0.063
		c-0.135-0.027-0.261-0.063-0.381-0.107s-0.229-0.095-0.325-0.153v-0.756c0.097,0.066,0.21,0.127,0.341,0.18
		c0.13,0.053,0.268,0.097,0.41,0.132c0.145,0.035,0.289,0.062,0.434,0.081c0.145,0.02,0.279,0.029,0.402,0.029
		c0.23,0,0.438-0.027,0.619-0.082c0.182-0.054,0.336-0.139,0.461-0.252c0.127-0.115,0.223-0.258,0.291-0.432
		c0.066-0.172,0.101-0.377,0.101-0.615c0-0.418-0.129-0.738-0.387-0.96c-0.258-0.221-0.633-0.331-1.125-0.331
		c-0.079,0-0.165,0.004-0.257,0.011s-0.186,0.017-0.277,0.028s-0.18,0.024-0.264,0.037c-0.084,0.014-0.156,0.025-0.217,0.037
		l-0.396-0.25l0.242-3.023h3.032v0.729h-2.338l-0.171,1.841c0.094-0.018,0.217-0.036,0.371-0.057S252.821,51.403,253.032,51.403z"/>
	<path fill="#FFFFFF" d="M259.835,48.921h0.87l-2.149,6.425h-0.821l-2.14-6.425h0.865l1.297,4.074
		c0.084,0.266,0.158,0.523,0.219,0.771c0.062,0.248,0.117,0.479,0.168,0.696c0.043-0.217,0.1-0.448,0.166-0.696
		c0.068-0.247,0.146-0.513,0.238-0.798L259.835,48.921z"/>
</g>
<g>
	<path fill="#6B6B6B" d="M140.535,48.698c0-0.131,0.07-0.25,0.25-0.25c0.18,0,0.25,0.119,0.25,0.25v2.223h-3.644
		c-0.16,0-0.25-0.07-0.25-0.251s0.09-0.25,0.25-0.25h3.143V48.698z"/>
	<path fill="#6B6B6B" d="M140.785,46.819c0.16,0,0.25,0.07,0.25,0.25c0,0.181-0.09,0.251-0.25,0.251h-3.644v-1.661
		c0-0.23,0.035-0.396,0.205-0.576c0.2-0.215,0.385-0.235,0.655-0.235h0.681c0.255,0,0.436,0.021,0.641,0.205
		c0.221,0.195,0.24,0.4,0.24,0.671v1.096H140.785z M139.064,46.819v-1.111c0-0.295-0.075-0.359-0.36-0.359h-0.701
		c-0.285,0-0.36,0.064-0.36,0.359v1.111H139.064z"/>
	<path fill="#6B6B6B" d="M137.642,43.229v0.186c0,0.166-0.06,0.306-0.25,0.306c-0.18,0-0.25-0.136-0.25-0.29v-0.836
		c0-0.391,0.16-0.586,0.5-0.756l0.881-0.44c0.206-0.101,0.351-0.15,0.581-0.15c0.2,0,0.37,0.056,0.55,0.146l0.911,0.455
		c0.355,0.176,0.471,0.4,0.471,0.791v0.83c0,0.131-0.07,0.251-0.25,0.251c-0.181,0-0.25-0.12-0.25-0.251v-0.24H137.642z
		 M140.535,42.729v-0.095c0-0.21-0.025-0.261-0.21-0.351l-0.891-0.44c-0.115-0.056-0.2-0.095-0.325-0.095
		c-0.17,0-0.266,0.055-0.411,0.125l-0.846,0.415c-0.215,0.105-0.21,0.15-0.21,0.38v0.061H140.535z"/>
	<path fill="#6B6B6B" d="M137.142,38.399c0-0.171,0.12-0.251,0.25-0.251h1.446c0-0.155,0.055-0.275,0.14-0.365
		c0.085-0.09,0.21-0.136,0.366-0.136h1.191c0.305,0,0.5,0.191,0.5,0.501v1.472c0,0.311-0.195,0.5-0.5,0.5h-1.191
		c-0.155,0-0.28-0.045-0.366-0.135c-0.085-0.09-0.14-0.21-0.14-0.365h-1.446c-0.13,0-0.25-0.08-0.25-0.25V38.399z M138.838,38.649
		h-1.196v0.471h1.196V38.649z M140.535,38.148h-1.196v1.472h1.196V38.148z"/>
	<path fill="#6B6B6B" d="M137.142,34.799c0-0.171,0.12-0.251,0.25-0.251h1.446c0-0.154,0.055-0.274,0.14-0.365
		c0.085-0.09,0.21-0.135,0.366-0.135h1.191c0.305,0,0.5,0.19,0.5,0.5v1.473c0,0.31-0.195,0.5-0.5,0.5h-1.191
		c-0.155,0-0.28-0.045-0.366-0.135c-0.085-0.091-0.14-0.211-0.14-0.365h-1.446c-0.13,0-0.25-0.08-0.25-0.251V34.799z
		 M138.838,35.049h-1.196v0.471h1.196V35.049z M140.535,34.548h-1.196v1.473h1.196V34.548z"/>
	<path fill="#6B6B6B" d="M137.142,30.948c0-0.275,0.225-0.5,0.5-0.5h2.893c0.28,0,0.5,0.215,0.5,0.5v1.472c0,0.285-0.22,0.5-0.5,0.5
		h-2.893c-0.275,0-0.5-0.226-0.5-0.5V30.948z M140.535,30.948h-2.893v1.472h2.893V30.948z"/>
	<path fill="#6B6B6B" d="M139.264,28.82v-1.672c0-0.25,0.105-0.3,0.335-0.3h1.121c0.235,0,0.315,0.1,0.315,0.326v1.821
		c0,0.235-0.085,0.326-0.315,0.326h-3.328c-0.115,0-0.25-0.04-0.25-0.215v-0.3c0-0.13,0.12-0.235,0.25-0.235
		c0.15,0,0.25,0.105,0.25,0.25H139.264z M139.764,28.82h0.771v-1.472h-0.771V28.82z"/>
</g>
</svg>
