<?xml version='1.0' encoding='utf-8'?>
<!-- Generator: Adobe Illustrator 20.0.0, SVG Export Plug-In . SVG Version: 6.00 Build 0)  -->
<svg xmlns="http://www.w3.org/2000/svg" version="1.2"  id="Layer_1" gorn="0" baseProfile="tiny" viewBox="0 0 176.4 149.04" xml:space="preserve" width="2.45in" xmlns:xml="http://www.w3.org/XML/1998/namespace" height="2.07in" x="0px" y="0px">
    <desc>
        <referenceFile>Adafruit 2.4 Touchscreen TFT Breakout w:MicroSD_breadboard.svg</referenceFile>
    </desc>
    <desc >Fritzing breadboard generated by brd2svg</desc>
    <g  id="breadboard" gorn="0.1">
        <g  id="icon" gorn="0.1.0">
            <path  fill="#014CB1" d="M176.4,141.84c0,3.976-3.224,7.2-7.2,7.2H7.2c-3.976,0-7.2-3.224-7.2-7.2V7.2C0,3.224,3.224,0,7.2,0c0,0,0,0,0,0h162c3.976,0,7.2,3.224,7.2,7.2V141.84 M18.743,6.12c0,0.783,0.635,1.417,1.417,1.417c0.783,0,1.417-0.635,1.417-1.417s-0.635-1.417-1.417-1.417C19.377,4.703,18.743,5.337,18.743,6.12z M25.943,6.12c0,0.783,0.635,1.417,1.417,1.417c0.783,0,1.417-0.635,1.417-1.417s-0.635-1.417-1.417-1.417C26.577,4.703,25.943,5.337,25.943,6.12z M33.143,6.12c0,0.783,0.635,1.417,1.417,1.417s1.417-0.635,1.417-1.417s-0.635-1.417-1.417-1.417S33.143,5.337,33.143,6.12z M40.343,6.12c0,0.783,0.635,1.417,1.417,1.417c0.783,0,1.417-0.635,1.417-1.417c0-0.783-0.635-1.417-1.417-1.417S40.343,5.337,40.343,6.12z M47.543,6.12c0,0.783,0.635,1.417,1.417,1.417s1.417-0.635,1.417-1.417s-0.635-1.417-1.417-1.417S47.543,5.337,47.543,6.12z M54.743,6.12c0,0.783,0.635,1.417,1.417,1.417s1.417-0.635,1.417-1.417s-0.635-1.417-1.417-1.417S54.743,5.337,54.743,6.12z M61.943,6.12c0,0.783,0.635,1.417,1.417,1.417c0.783,0,1.417-0.635,1.417-1.417c0-0.783-0.635-1.417-1.417-1.417C62.577,4.703,61.943,5.337,61.943,6.12z M69.143,6.12c0,0.783,0.635,1.417,1.417,1.417c0.783,0,1.417-0.635,1.417-1.417s-0.635-1.417-1.417-1.417C69.777,4.703,69.143,5.337,69.143,6.12z M76.342,6.12c0,0.783,0.635,1.417,1.417,1.417c0.783,0,1.417-0.635,1.417-1.417s-0.635-1.417-1.417-1.417C76.977,4.703,76.342,5.337,76.342,6.12z M83.542,6.12c0,0.783,0.635,1.417,1.417,1.417c0.783,0,1.417-0.635,1.417-1.417s-0.635-1.417-1.417-1.417C84.177,4.703,83.542,5.337,83.542,6.12z M90.742,6.12c0,0.783,0.635,1.417,1.417,1.417c0.783,0,1.417-0.635,1.417-1.417s-0.635-1.417-1.417-1.417C91.377,4.703,90.742,5.337,90.742,6.12z M97.942,6.12c0,0.783,0.635,1.417,1.417,1.417c0.783,0,1.417-0.635,1.417-1.417s-0.635-1.417-1.417-1.417C98.577,4.703,97.942,5.337,97.942,6.12z M105.142,6.12c0,0.783,0.635,1.417,1.417,1.417c0.783,0,1.417-0.635,1.417-1.417s-0.635-1.417-1.417-1.417C105.777,4.703,105.142,5.337,105.142,6.12z M112.342,6.12c0,0.783,0.635,1.417,1.417,1.417c0.783,0,1.417-0.635,1.417-1.417s-0.635-1.417-1.417-1.417C112.977,4.703,112.342,5.337,112.342,6.12z M119.542,6.12c0,0.783,0.635,1.417,1.417,1.417c0.783,0,1.417-0.635,1.417-1.417s-0.635-1.417-1.417-1.417C120.177,4.703,119.542,5.337,119.542,6.12z M126.742,6.12c0,0.783,0.635,1.417,1.417,1.417c0.783,0,1.417-0.635,1.417-1.417s-0.635-1.417-1.417-1.417C127.377,4.703,126.742,5.337,126.742,6.12z M133.942,6.12c0,0.783,0.635,1.417,1.417,1.417s1.417-0.635,1.417-1.417s-0.635-1.417-1.417-1.417S133.942,5.337,133.942,6.12z M141.142,6.12c0,0.783,0.635,1.417,1.417,1.417s1.417-0.635,1.417-1.417s-0.635-1.417-1.417-1.417S141.142,5.337,141.142,6.12z M148.342,6.12c0,0.783,0.635,1.417,1.417,1.417s1.417-0.635,1.417-1.417s-0.635-1.417-1.417-1.417S148.342,5.337,148.342,6.12z M155.542,6.12c0,0.783,0.635,1.417,1.417,1.417s1.417-0.635,1.417-1.417s-0.635-1.417-1.417-1.417S155.542,5.337,155.542,6.12z M18.743,142.92c0,0.783,0.635,1.417,1.417,1.417c0.783,0,1.417-0.635,1.417-1.417s-0.635-1.417-1.417-1.417C19.377,141.503,18.743,142.137,18.743,142.92z M25.943,142.92c0,0.783,0.635,1.417,1.417,1.417c0.783,0,1.417-0.635,1.417-1.417s-0.635-1.417-1.417-1.417C26.577,141.503,25.943,142.137,25.943,142.92z M33.143,142.92c0,0.783,0.635,1.417,1.417,1.417s1.417-0.635,1.417-1.417s-0.635-1.417-1.417-1.417S33.143,142.137,33.143,142.92z M40.343,142.92c0,0.783,0.635,1.417,1.417,1.417c0.783,0,1.417-0.635,1.417-1.417s-0.635-1.417-1.417-1.417S40.343,142.137,40.343,142.92z M47.543,142.92c0,0.783,0.635,1.417,1.417,1.417s1.417-0.635,1.417-1.417s-0.635-1.417-1.417-1.417S47.543,142.137,47.543,142.92z M54.743,142.92c0,0.783,0.635,1.417,1.417,1.417s1.417-0.635,1.417-1.417s-0.635-1.417-1.417-1.417S54.743,142.137,54.743,142.92z M61.943,142.92c0,0.783,0.635,1.417,1.417,1.417c0.783,0,1.417-0.635,1.417-1.417s-0.635-1.417-1.417-1.417C62.577,141.503,61.943,142.137,61.943,142.92z M69.143,142.92c0,0.783,0.635,1.417,1.417,1.417c0.783,0,1.417-0.635,1.417-1.417s-0.635-1.417-1.417-1.417C69.777,141.503,69.143,142.137,69.143,142.92z M76.342,142.92c0,0.783,0.635,1.417,1.417,1.417c0.783,0,1.417-0.635,1.417-1.417s-0.635-1.417-1.417-1.417C76.977,141.503,76.342,142.137,76.342,142.92z M83.542,142.92c0,0.783,0.635,1.417,1.417,1.417c0.783,0,1.417-0.635,1.417-1.417s-0.635-1.417-1.417-1.417C84.177,141.503,83.542,142.137,83.542,142.92z M90.742,142.92c0,0.783,0.635,1.417,1.417,1.417c0.783,0,1.417-0.635,1.417-1.417s-0.635-1.417-1.417-1.417C91.377,141.503,90.742,142.137,90.742,142.92z M97.942,142.92c0,0.783,0.635,1.417,1.417,1.417c0.783,0,1.417-0.635,1.417-1.417s-0.635-1.417-1.417-1.417C98.577,141.503,97.942,142.137,97.942,142.92z M105.142,142.92c0,0.783,0.635,1.417,1.417,1.417c0.783,0,1.417-0.635,1.417-1.417s-0.635-1.417-1.417-1.417C105.777,141.503,105.142,142.137,105.142,142.92z M112.342,142.92c0,0.783,0.635,1.417,1.417,1.417c0.783,0,1.417-0.635,1.417-1.417s-0.635-1.417-1.417-1.417C112.977,141.503,112.342,142.137,112.342,142.92z M119.542,142.92c0,0.783,0.635,1.417,1.417,1.417c0.783,0,1.417-0.635,1.417-1.417s-0.635-1.417-1.417-1.417C120.177,141.503,119.542,142.137,119.542,142.92z M126.742,142.92c0,0.783,0.635,1.417,1.417,1.417c0.783,0,1.417-0.635,1.417-1.417s-0.635-1.417-1.417-1.417C127.377,141.503,126.742,142.137,126.742,142.92z M133.942,142.92c0,0.783,0.635,1.417,1.417,1.417s1.417-0.635,1.417-1.417l0,0c0-0.783-0.635-1.417-1.417-1.417S133.942,142.137,133.942,142.92z M141.142,142.92c0,0.783,0.635,1.417,1.417,1.417s1.417-0.635,1.417-1.417l0,0c0-0.783-0.635-1.417-1.417-1.417S141.142,142.137,141.142,142.92z M148.342,142.92c0,0.783,0.635,1.417,1.417,1.417s1.417-0.635,1.417-1.417l0,0c0-0.783-0.635-1.417-1.417-1.417S148.342,142.137,148.342,142.92z M155.542,142.92c0,0.783,0.635,1.417,1.417,1.417s1.417-0.635,1.417-1.417l0,0c0-0.783-0.635-1.417-1.417-1.417S155.542,142.137,155.542,142.92z M165.657,141.84c-0.003,1.957,1.58,3.546,3.537,3.55s3.546-1.58,3.55-3.537c0-0.004,0-0.008,0-0.012c0.003-1.957-1.58-3.546-3.537-3.55s-3.546,1.58-3.55,3.537C165.657,141.832,165.657,141.836,165.657,141.84z M3.657,141.84c-0.003,1.957,1.58,3.546,3.537,3.549c1.957,0.003,3.546-1.58,3.549-3.537c0-0.004,0-0.008,0-0.012c0.003-1.957-1.58-3.546-3.537-3.549s-3.546,1.58-3.549,3.537C3.657,141.832,3.657,141.836,3.657,141.84z M165.657,7.2c-0.003,1.957,1.58,3.546,3.537,3.55s3.546-1.58,3.55-3.537c0-0.004,0-0.008,0-0.012c0.003-1.957-1.58-3.546-3.537-3.55c-1.957-0.003-3.546,1.58-3.55,3.537C165.657,7.192,165.657,7.196,165.657,7.2z M3.657,7.2c-0.003,1.957,1.58,3.546,3.537,3.549s3.546-1.58,3.549-3.537c0-0.004,0-0.008,0-0.012c0.003-1.957-1.58-3.546-3.537-3.549C5.249,3.647,3.66,5.231,3.657,7.188C3.657,7.192,3.657,7.196,3.657,7.2z"/>
            <g >
                <title >layer 21</title>
                <g >
                    <title >text:D6</title>
                    <g  transform="matrix(1 0 0 1 147.7046 12.3408)">
                        <text  font-size="2.67264" fill="#FFFFFF" font-family="'OCRA'">D6</text>
                    </g>
                </g>
                <g >
                    <title >text:D5</title>
                    <g  transform="matrix(1 0 0 1 140.5046 3.49)">
                        <text  font-size="2.67264" fill="#FFFFFF" font-family="'OCRA'">D5</text>
                    </g>
                </g>
                <g >
                    <title >text:D4</title>
                    <g  transform="matrix(1 0 0 1 133.3046 12.3408)">
                        <text  font-size="2.67264" fill="#FFFFFF" font-family="'OCRA'">D4</text>
                    </g>
                </g>
                <g >
                    <title >text:D3</title>
                    <g  transform="matrix(1 0 0 1 126.1046 3.49)">
                        <text  font-size="2.67264" fill="#FFFFFF" font-family="'OCRA'">D3</text>
                    </g>
                </g>
                <g >
                    <title >text:D7</title>
                    <g  transform="matrix(1 0 0 1 154.9046 3.49)">
                        <text  font-size="2.67264" fill="#FFFFFF" font-family="'OCRA'">D7</text>
                    </g>
                </g>
                <g >
                    <title >text:D2</title>
                    <g  transform="matrix(1 0 0 1 118.9046 12.3408)">
                        <text  font-size="2.67264" fill="#FFFFFF" font-family="'OCRA'">D2</text>
                    </g>
                </g>
                <g >
                    <title >text:D1</title>
                    <g  transform="matrix(1 0 0 1 111.7047 3.49)">
                        <text  font-size="2.67264" fill="#FFFFFF" font-family="'OCRA'">D1</text>
                    </g>
                </g>
                <g >
                    <title >text:D0</title>
                    <g  transform="matrix(1 0 0 1 104.5046 12.3408)">
                        <text  font-size="2.67264" fill="#FFFFFF" font-family="'OCRA'">D0</text>
                    </g>
                </g>
                <g >
                    <title >text:Y-</title>
                    <g  transform="matrix(1 0 0 1 97.3046 3.6604)">
                        <text  font-size="2.67264" fill="#FFFFFF" font-family="'OCRA'">Y-</text>
                    </g>
                </g>
                <g >
                    <title >text:X-</title>
                    <g  transform="matrix(1 0 0 1 89.7446 12.7008)">
                        <text  font-size="2.67264" fill="#FFFFFF" font-family="'OCRA'">X-</text>
                    </g>
                </g>
                <g >
                    <title >text:Y+</title>
                    <g  transform="matrix(1 0 0 1 82.9046 3.6604)">
                        <text  font-size="2.67264" fill="#FFFFFF" font-family="'OCRA'">Y+</text>
                    </g>
                </g>
                <g >
                    <title >text:X+</title>
                    <g  transform="matrix(1 0 0 1 75.3446 12.7008)">
                        <text  font-size="2.67264" fill="#FFFFFF" font-family="'OCRA'">X+</text>
                    </g>
                </g>
                <g >
                    <title >text:Lite</title>
                    <g  transform="matrix(1 0 0 1 66.0893 3.3004)">
                        <text  font-size="2.67264" fill="#FFFFFF" font-family="'OCRA'">Lite</text>
                    </g>
                </g>
                <g >
                    <title >text:RST</title>
                    <g  transform="matrix(1 0 0 1 60.097 12.7008)">
                        <text  font-size="2.67264" fill="#FFFFFF" font-family="'OCRA'">RST</text>
                    </g>
                </g>
                <g >
                    <title >text:RD</title>
                    <g  transform="matrix(1 0 0 1 54.1046 3.3004)">
                        <text  font-size="2.67264" fill="#FFFFFF" font-family="'OCRA'">RD</text>
                    </g>
                </g>
                <g >
                    <title >text:WR</title>
                    <g  transform="matrix(1 0 0 1 46.9046 12.7008)">
                        <text  font-size="2.67264" fill="#FFFFFF" font-family="'OCRA'">WR</text>
                    </g>
                </g>
                <g >
                    <title >text:C/D</title>
                    <g  transform="matrix(1 0 0 1 38.4969 3.6604)">
                        <text  font-size="2.67264" fill="#FFFFFF" font-family="'OCRA'">C/D</text>
                    </g>
                </g>
                <g >
                    <title >text:CS</title>
                    <g  transform="matrix(1 0 0 1 32.5046 12.7008)">
                        <text  font-size="2.67264" fill="#FFFFFF" font-family="'OCRA'">CS</text>
                    </g>
                </g>
                <g >
                    <title >text:Vin</title>
                    <g  transform="matrix(1 0 0 1 24.097 3.6604)">
                        <text  font-size="2.67264" fill="#FFFFFF" font-family="'OCRA'">Vin</text>
                    </g>
                </g>
                <g >
                    <title >text:GND</title>
                    <g  transform="matrix(1 0 0 1 16.537 12.7008)">
                        <text  font-size="2.67264" fill="#FFFFFF" font-family="'OCRA'">GND</text>
                    </g>
                </g>
                <g >
                    <title >text:CD</title>
                    <g  transform="matrix(1 0 0 1 154.9046 140.04)">
                        <text  font-size="2.67264" fill="#FFFFFF" font-family="'OCRA'">CD</text>
                    </g>
                </g>
                <g >
                    <title >text:CCS</title>
                    <g  transform="matrix(1 0 0 1 146.1369 148.516)">
                        <text  font-size="2.67264" fill="#FFFFFF" font-family="'OCRA'">CCS</text>
                    </g>
                </g>
                <g >
                    <title >text:IM0</title>
                    <g  transform="matrix(1 0 0 1 118.0569 148.516)">
                        <text  font-size="2.67264" fill="#FFFFFF" font-family="'OCRA'">IM0</text>
                    </g>
                </g>
                <g >
                    <title >text:IM1</title>
                    <g  transform="matrix(1 0 0 1 125.257 140.04)">
                        <text  font-size="2.67264" fill="#FFFFFF" font-family="'OCRA'">IM1</text>
                    </g>
                </g>
                <g >
                    <title >text:IM2</title>
                    <g  transform="matrix(1 0 0 1 132.4569 148.516)">
                        <text  font-size="2.67264" fill="#FFFFFF" font-family="'OCRA'">IM2</text>
                    </g>
                </g>
                <g >
                    <title >text:IM3</title>
                    <g  transform="matrix(1 0 0 1 138.937 140.04)">
                        <text  font-size="2.67264" fill="#FFFFFF" font-family="'OCRA'">IM3</text>
                    </g>
                </g>
                <g >
                    <title >text:X-</title>
                    <g  transform="matrix(1 0 0 1 111.7047 140.04)">
                        <text  font-size="2.67264" fill="#FFFFFF" font-family="'OCRA'">X-</text>
                    </g>
                </g>
                <g >
                    <title >text:Y-</title>
                    <g  transform="matrix(1 0 0 1 104.8646 148.516)">
                        <text  font-size="2.67264" fill="#FFFFFF" font-family="'OCRA'">Y-</text>
                    </g>
                </g>
                <g >
                    <title >text:X+</title>
                    <g  transform="matrix(1 0 0 1 97.3046 140.04)">
                        <text  font-size="2.67264" fill="#FFFFFF" font-family="'OCRA'">X+</text>
                    </g>
                </g>
                <g >
                    <title >text:Y+</title>
                    <g  transform="matrix(1 0 0 1 90.1046 148.516)">
                        <text  font-size="2.67264" fill="#FFFFFF" font-family="'OCRA'">Y+</text>
                    </g>
                </g>
                <g >
                    <title >text:Lite</title>
                    <g  transform="matrix(1 0 0 1 80.1293 140.04)">
                        <text  font-size="2.67264" fill="#FFFFFF" font-family="'OCRA'">Lite</text>
                    </g>
                </g>
                <g >
                    <title >text:RST</title>
                    <g  transform="matrix(1 0 0 1 74.4969 148.516)">
                        <text  font-size="2.67264" fill="#FFFFFF" font-family="'OCRA'">RST</text>
                    </g>
                </g>
                <g >
                    <title >text:D/C</title>
                    <g  transform="matrix(1 0 0 1 66.937 140.04)">
                        <text  font-size="2.67264" fill="#FFFFFF" font-family="'OCRA'">D/C</text>
                    </g>
                </g>
                <g >
                    <title >text:CS</title>
                    <g  transform="matrix(1 0 0 1 61.3046 148.516)">
                        <text  font-size="2.67264" fill="#FFFFFF" font-family="'OCRA'">CS</text>
                    </g>
                </g>
                <g >
                    <title >text:MOSI</title>
                    <g  transform="matrix(1 0 0 1 51.3293 140.04)">
                        <text  font-size="2.67264" fill="#FFFFFF" font-family="'OCRA'">MOSI</text>
                    </g>
                </g>
                <g >
                    <title >text:MISO</title>
                    <g  transform="matrix(1 0 0 1 44.4893 148.516)">
                        <text  font-size="2.67264" fill="#FFFFFF" font-family="'OCRA'">MISO</text>
                    </g>
                </g>
                <g >
                    <title >text:CLK</title>
                    <g  transform="matrix(1 0 0 1 38.4969 140.04)">
                        <text  font-size="2.67264" fill="#FFFFFF" font-family="'OCRA'">CLK</text>
                    </g>
                </g>
                <g >
                    <title >text:3Vo</title>
                    <g  transform="matrix(1 0 0 1 31.2969 148.516)">
                        <text  font-size="2.67264" fill="#FFFFFF" font-family="'OCRA'">3Vo</text>
                    </g>
                </g>
                <g >
                    <title >text:Vin</title>
                    <g  transform="matrix(1 0 0 1 24.097 140.04)">
                        <text  font-size="2.67264" fill="#FFFFFF" font-family="'OCRA'">Vin</text>
                    </g>
                </g>
                <g >
                    <title >text:GND</title>
                    <g  transform="matrix(1 0 0 1 16.537 148.516)">
                        <text  font-size="2.67264" fill="#FFFFFF" font-family="'OCRA'">GND</text>
                    </g>
                </g>
                <g >
                    <title >element:C1</title>
                    <g >
                        <title >package:0805-NO</title>
                    </g>
                </g>
                <g >
                    <title >element:C2</title>
                    <g >
                        <title >package:0805-NO</title>
                    </g>
                </g>
                <g >
                    <title >element:C3</title>
                    <g >
                        <title >package:0805-NO</title>
                    </g>
                </g>
                <g >
                    <title >element:C4</title>
                    <g >
                        <title >package:0805-NO</title>
                    </g>
                </g>
                <g >
                    <title >element:C5</title>
                    <g >
                        <title >package:0805-NO</title>
                    </g>
                </g>
                <g >
                    <title >element:C6</title>
                    <g >
                        <title >package:0805-NO</title>
                    </g>
                </g>
                <g >
                    <title >element:IC1</title>
                    <g >
                        <title >package:SOT23-5L</title>
                    </g>
                </g>
                <g >
                    <title >element:IC2</title>
                    <g >
                        <title >package:SO20W</title>
                    </g>
                </g>
                <g >
                    <title >element:IC3</title>
                    <g >
                        <title >package:SO20W</title>
                    </g>
                </g>
                <g >
                    <title >element:IC4</title>
                    <g >
                        <title >package:SOT23</title>
                    </g>
                </g>
                <g >
                    <title >element:JP1</title>
                    <g >
                        <title >package:1X20_ROUND</title>
                    </g>
                </g>
                <g >
                    <title >element:JP2</title>
                    <g >
                        <title >package:1X20_ROUND</title>
                    </g>
                </g>
                <g >
                    <title >element:Q1</title>
                    <g >
                        <title >package:SOT23-BEC</title>
                    </g>
                </g>
                <g >
                    <title >element:R1</title>
                    <g >
                        <title >package:0805-NO</title>
                    </g>
                </g>
                <g >
                    <title >element:R2</title>
                    <g >
                        <title >package:0805-NO</title>
                    </g>
                </g>
                <g >
                    <title >element:R3</title>
                    <g >
                        <title >package:0805-NO</title>
                    </g>
                </g>
                <g >
                    <title >element:R4</title>
                    <g >
                        <title >package:0805-NO</title>
                    </g>
                </g>
                <g >
                    <title >element:R5</title>
                    <g >
                        <title >package:0805-NO</title>
                    </g>
                </g>
                <g >
                    <title >element:R6</title>
                    <g >
                        <title >package:R0805</title>
                    </g>
                </g>
                <g >
                    <title >element:R7</title>
                    <g >
                        <title >package:0805-NO</title>
                    </g>
                </g>
                <g >
                    <title >element:R8</title>
                    <g >
                        <title >package:0805-NO</title>
                    </g>
                </g>
                <g >
                    <title >element:R9</title>
                    <g >
                        <title >package:0805-NO</title>
                    </g>
                </g>
                <g >
                    <title >element:R10</title>
                    <g >
                        <title >package:0805-NO</title>
                    </g>
                </g>
                <g >
                    <title >element:R11</title>
                    <g >
                        <title >package:0805-NO</title>
                    </g>
                </g>
                <g >
                    <title >element:R12</title>
                    <g >
                        <title >package:0805-NO</title>
                    </g>
                </g>
                <g >
                    <title >element:SJ1</title>
                    <g >
                        <title >package:SOLDERJUMPER_ARROW_NOPASTE</title>
                    </g>
                </g>
                <g >
                    <title >element:SJ2</title>
                    <g >
                        <title >package:SOLDERJUMPER_ARROW_NOPASTE</title>
                    </g>
                </g>
                <g >
                    <title >element:SJ3</title>
                    <g >
                        <title >package:SOLDERJUMPER_ARROW_NOPASTE</title>
                    </g>
                </g>
                <g >
                    <title >element:SJ4</title>
                    <g >
                        <title >package:SOLDERJUMPER_ARROW_NOPASTE</title>
                    </g>
                </g>
                <g >
                    <title >element:U$7</title>
                    <g >
                        <title >package:MOUNTINGHOLE_2.5_PLATED</title>
                    </g>
                </g>
                <g >
                    <title >element:U$9</title>
                    <g >
                        <title >package:FIDUCIAL_1MM</title>
                    </g>
                </g>
                <g >
                    <title >element:U$10</title>
                    <g >
                        <title >package:TFT_2.4IN_240X320_50PIN</title>
                        <line stroke-width="0.36"  y1="14.142" y2="134.898" fill="none" x1="173.049" x2="173.049" stroke="#FFFFFF" stroke-linecap="round"/>
                        <line stroke-width="0.36"  y1="134.898" y2="134.898" fill="none" x1="173.049" x2="2.971" stroke="#FFFFFF" stroke-linecap="round"/>
                        <line stroke-width="0.36"  y1="134.898" y2="14.142" fill="none" x1="2.971" x2="2.971" stroke="#FFFFFF" stroke-linecap="round"/>
                        <line stroke-width="0.36"  y1="14.142" y2="14.142" fill="none" x1="2.971" x2="173.049" stroke="#FFFFFF" stroke-linecap="round"/>
                    </g>
                </g>
                <g >
                    <title >element:U$11</title>
                    <g >
                        <title >package:FIDUCIAL_1MM</title>
                    </g>
                </g>
                <g >
                    <title >element:U$15</title>
                    <g >
                        <title >package:MOUNTINGHOLE_2.5_PLATED</title>
                    </g>
                </g>
                <g >
                    <title >element:U$16</title>
                    <g >
                        <title >package:MOUNTINGHOLE_2.5_PLATED</title>
                    </g>
                </g>
                <g >
                    <title >element:U$17</title>
                    <g >
                        <title >package:MOUNTINGHOLE_2.5_PLATED</title>
                    </g>
                </g>
                <g >
                    <title >element:U$19</title>
                    <g >
                        <title >package:ADAFRUIT_TEXT_30MM</title>
                    </g>
                </g>
                <g >
                    <title >element:U$23</title>
                    <g >
                        <title >package:FIDUCIAL_1MM</title>
                    </g>
                </g>
                <g >
                    <title >element:U$26</title>
                    <g >
                        <title >package:PCBFEAT-REV-040</title>
                    </g>
                </g>
                <g >
                    <title >element:X1</title>
                    <g >
                        <title >package:MICROSD</title>
                    </g>
                </g>
            </g>
            <circle stroke-width="0.9587"  id="connector0pin" gorn="0.1.0.2" cx="20.16" cy="6.12" fill="none" r="1.897" stroke="#9A916C"/>
            <circle stroke-width="0.9587"  id="connector1pin" gorn="0.1.0.3" cx="27.36" cy="6.12" fill="none" r="1.897" stroke="#9A916C"/>
            <circle stroke-width="0.9587"  id="connector2pin" gorn="0.1.0.4" cx="34.56" cy="6.12" fill="none" r="1.897" stroke="#9A916C"/>
            <circle stroke-width="0.9587"  id="connector3pin" gorn="0.1.0.5" cx="41.76" cy="6.12" fill="none" r="1.897" stroke="#9A916C"/>
            <circle stroke-width="0.9587"  id="connector4pin" gorn="0.1.0.6" cx="48.96" cy="6.12" fill="none" r="1.897" stroke="#9A916C"/>
            <circle stroke-width="0.9587"  id="connector5pin" gorn="0.1.0.7" cx="56.16" cy="6.12" fill="none" r="1.897" stroke="#9A916C"/>
            <circle stroke-width="0.9587"  id="connector6pin" gorn="0.1.0.8" cx="63.36" cy="6.12" fill="none" r="1.897" stroke="#9A916C"/>
            <circle stroke-width="0.9587"  id="connector7pin" gorn="0.1.0.9" cx="70.56" cy="6.12" fill="none" r="1.897" stroke="#9A916C"/>
            <circle stroke-width="0.9587"  id="connector8pin" gorn="0.1.0.10" cx="77.76" cy="6.12" fill="none" r="1.897" stroke="#9A916C"/>
            <circle stroke-width="0.9587"  id="connector9pin" gorn="0.1.0.11" cx="84.96" cy="6.12" fill="none" r="1.897" stroke="#9A916C"/>
            <circle stroke-width="0.9587"  id="connector10pin" gorn="0.1.0.12" cx="92.16" cy="6.12" fill="none" r="1.897" stroke="#9A916C"/>
            <circle stroke-width="0.9587"  id="connector11pin" gorn="0.1.0.13" cx="99.36" cy="6.12" fill="none" r="1.897" stroke="#9A916C"/>
            <circle stroke-width="0.9587"  id="connector12pin" gorn="0.1.0.14" cx="106.56" cy="6.12" fill="none" r="1.897" stroke="#9A916C"/>
            <circle stroke-width="0.9587"  id="connector13pin" gorn="0.1.0.15" cx="113.76" cy="6.12" fill="none" r="1.897" stroke="#9A916C"/>
            <circle stroke-width="0.9587"  id="connector14pin" gorn="0.1.0.16" cx="120.96" cy="6.12" fill="none" r="1.897" stroke="#9A916C"/>
            <circle stroke-width="0.9587"  id="connector15pin" gorn="0.1.0.17" cx="128.16" cy="6.12" fill="none" r="1.897" stroke="#9A916C"/>
            <circle stroke-width="0.9587"  id="connector16pin" gorn="0.1.0.18" cx="135.36" cy="6.12" fill="none" r="1.897" stroke="#9A916C"/>
            <circle stroke-width="0.9587"  id="connector17pin" gorn="0.1.0.19" cx="142.56" cy="6.12" fill="none" r="1.897" stroke="#9A916C"/>
            <circle stroke-width="0.9587"  id="connector18pin" gorn="0.1.0.20" cx="149.76" cy="6.12" fill="none" r="1.897" stroke="#9A916C"/>
            <circle stroke-width="0.9587"  id="connector19pin" gorn="0.1.0.21" cx="156.96" cy="6.12" fill="none" r="1.897" stroke="#9A916C"/>
            <circle stroke-width="0.9587"  id="connector20pin" gorn="0.1.0.22" cx="20.16" cy="142.92" fill="none" r="1.897" stroke="#9A916C"/>
            <circle stroke-width="0.9587"  id="connector21pin" gorn="0.1.0.23" cx="27.36" cy="142.92" fill="none" r="1.897" stroke="#9A916C"/>
            <circle stroke-width="0.9587"  id="connector22pin" gorn="0.1.0.24" cx="34.56" cy="142.92" fill="none" r="1.897" stroke="#9A916C"/>
            <circle stroke-width="0.9587"  id="connector23pin" gorn="0.1.0.25" cx="41.76" cy="142.92" fill="none" r="1.897" stroke="#9A916C"/>
            <circle stroke-width="0.9587"  id="connector24pin" gorn="0.1.0.26" cx="48.96" cy="142.92" fill="none" r="1.897" stroke="#9A916C"/>
            <circle stroke-width="0.9587"  id="connector25pin" gorn="0.1.0.27" cx="56.16" cy="142.92" fill="none" r="1.897" stroke="#9A916C"/>
            <circle stroke-width="0.9587"  id="connector26pin" gorn="0.1.0.28" cx="63.36" cy="142.92" fill="none" r="1.897" stroke="#9A916C"/>
            <circle stroke-width="0.9587"  id="connector27pin" gorn="0.1.0.29" cx="70.56" cy="142.92" fill="none" r="1.897" stroke="#9A916C"/>
            <circle stroke-width="0.9587"  id="connector28pin" gorn="0.1.0.30" cx="77.76" cy="142.92" fill="none" r="1.897" stroke="#9A916C"/>
            <circle stroke-width="0.9587"  id="connector29pin" gorn="0.1.0.31" cx="84.96" cy="142.92" fill="none" r="1.897" stroke="#9A916C"/>
            <circle stroke-width="0.9587"  id="connector30pin" gorn="0.1.0.32" cx="92.16" cy="142.92" fill="none" r="1.897" stroke="#9A916C"/>
            <circle stroke-width="0.9587"  id="connector31pin" gorn="0.1.0.33" cx="99.36" cy="142.92" fill="none" r="1.897" stroke="#9A916C"/>
            <circle stroke-width="0.9587"  id="connector32pin" gorn="0.1.0.34" cx="106.56" cy="142.92" fill="none" r="1.897" stroke="#9A916C"/>
            <circle stroke-width="0.9587"  id="connector33pin" gorn="0.1.0.35" cx="113.76" cy="142.92" fill="none" r="1.897" stroke="#9A916C"/>
            <circle stroke-width="0.9587"  id="connector34pin" gorn="0.1.0.36" cx="120.96" cy="142.92" fill="none" r="1.897" stroke="#9A916C"/>
            <circle stroke-width="0.9587"  id="connector35pin" gorn="0.1.0.37" cx="128.16" cy="142.92" fill="none" r="1.897" stroke="#9A916C"/>
            <circle stroke-width="0.9587"  id="connector36pin" gorn="0.1.0.38" cx="135.36" cy="142.92" fill="none" r="1.897" stroke="#9A916C"/>
            <circle stroke-width="0.9587"  id="connector37pin" gorn="0.1.0.39" cx="142.56" cy="142.92" fill="none" r="1.897" stroke="#9A916C"/>
            <circle stroke-width="0.9587"  id="connector38pin" gorn="0.1.0.40" cx="149.76" cy="142.92" fill="none" r="1.897" stroke="#9A916C"/>
            <circle stroke-width="0.9587"  id="connector39pin" gorn="0.1.0.41" cx="156.96" cy="142.92" fill="none" r="1.897" stroke="#9A916C"/>
            <circle stroke-width="1.44"  id="connector40pin" gorn="0.1.0.42" cx="169.2" cy="141.84" fill="none" r="4.263" stroke="#9A916C"/>
            <circle stroke-width="1.44"  id="connector41pin" gorn="0.1.0.43" cx="7.2" cy="141.84" fill="none" r="4.263" stroke="#9A916C"/>
            <circle stroke-width="1.44"  id="connector42pin" gorn="0.1.0.44" cx="169.2" cy="7.2" fill="none" r="4.263" stroke="#9A916C"/>
            <circle stroke-width="1.44"  id="connector43pin" gorn="0.1.0.45" cx="7.2" cy="7.2" fill="none" r="4.263" stroke="#9A916C"/>
        </g>
    </g>
    <g >
        <g  transform="matrix(-1.836970e-16 1 -1 -1.836970e-16 162.5162 -13.4713)">
            <rect  fill="#DCDCDC" width="121.096" height="170.816" x="27.446" y="-10.885"/>
        </g>
        <g  transform="matrix(-1.836970e-16 1 -1 -1.836970e-16 165.6343 -16.5894)">
            <rect  fill="#333333" width="109.191" height="153.241" x="36.517" y="-2.098"/>
        </g>
        <g  transform="matrix(-1.836970e-16 1 -1 -1.836970e-16 165.6343 -16.5894)">
            <rect  width="106.923" height="150.973" x="37.65" y="-0.964"/>
        </g>
        <g  transform="matrix(-1.836970e-16 1 -1 -1.836970e-16 170.8784 -21.8335)">
            <rect  fill="#FFFFFF" width="104.088" height="138.784" x="44.312" y="5.13"/>
        </g>
        <g >
            <rect  fill="#FF0000" width="1.084" height="104.088" x="164.664" y="22.478"/>
            <rect  fill="#FF0000" width="1.084" height="104.088" x="163.58" y="22.478"/>
            <rect  fill="#FF0007" width="1.084" height="104.088" x="162.495" y="22.478"/>
            <rect  fill="#FF0011" width="1.084" height="104.088" x="161.411" y="22.478"/>
            <rect  fill="#FF001D" width="1.084" height="104.088" x="160.327" y="22.478"/>
            <rect  fill="#FF0029" width="1.084" height="104.088" x="159.243" y="22.478"/>
            <rect  fill="#FF0037" width="1.084" height="104.088" x="158.158" y="22.478"/>
            <rect  fill="#FF0046" width="1.084" height="104.088" x="157.074" y="22.478"/>
            <rect  fill="#FF0056" width="1.084" height="104.088" x="155.99" y="22.478"/>
            <rect  fill="#FF0066" width="1.084" height="104.088" x="154.906" y="22.478"/>
            <rect  fill="#FF0077" width="1.084" height="104.088" x="153.821" y="22.478"/>
            <rect  fill="#FF0088" width="1.084" height="104.088" x="152.737" y="22.478"/>
            <rect  fill="#FF0099" width="1.084" height="104.088" x="151.653" y="22.478"/>
            <rect  fill="#FF00A9" width="1.084" height="104.088" x="150.569" y="22.478"/>
            <rect  fill="#FF00B8" width="1.084" height="104.088" x="149.484" y="22.478"/>
            <rect  fill="#FF00C8" width="1.084" height="104.088" x="148.4" y="22.478"/>
            <rect  fill="#FF00D5" width="1.084" height="104.088" x="147.316" y="22.478"/>
            <rect  fill="#FF00E2" width="1.084" height="104.088" x="146.232" y="22.478"/>
            <rect  fill="#FF00ED" width="1.084" height="104.088" x="145.147" y="22.478"/>
            <rect  fill="#FF00F7" width="1.084" height="104.088" x="144.063" y="22.478"/>
            <rect  fill="#FF00FF" width="1.084" height="104.088" x="142.979" y="22.478"/>
            <rect  fill="#F900FF" width="1.084" height="104.088" x="141.895" y="22.478"/>
            <rect  fill="#F100FF" width="1.084" height="104.088" x="140.81" y="22.478"/>
            <rect  fill="#E900FF" width="1.084" height="104.088" x="139.726" y="22.478"/>
            <rect  fill="#DF00FF" width="1.084" height="104.088" x="138.642" y="22.478"/>
            <rect  fill="#D400FF" width="1.084" height="104.088" x="137.558" y="22.478"/>
            <rect  fill="#C900FF" width="1.084" height="104.088" x="136.473" y="22.478"/>
            <rect  fill="#BC00FF" width="1.084" height="104.088" x="135.389" y="22.478"/>
            <rect  fill="#AF00FF" width="1.084" height="104.088" x="134.305" y="22.478"/>
            <rect  fill="#A200FF" width="1.084" height="104.088" x="133.221" y="22.478"/>
            <rect  fill="#9400FF" width="1.084" height="104.088" x="132.136" y="22.478"/>
            <rect  fill="#8600FF" width="1.084" height="104.088" x="131.052" y="22.478"/>
            <rect  fill="#7800FF" width="1.084" height="104.088" x="129.968" y="22.478"/>
            <rect  fill="#6B00FF" width="1.084" height="104.088" x="128.884" y="22.478"/>
            <rect  fill="#5D00FF" width="1.084" height="104.088" x="127.799" y="22.478"/>
            <rect  fill="#4F00FF" width="1.084" height="104.088" x="126.715" y="22.478"/>
            <rect  fill="#4200FF" width="1.084" height="104.088" x="125.631" y="22.478"/>
            <rect  fill="#3600FF" width="1.084" height="104.088" x="124.547" y="22.478"/>
            <rect  fill="#2A00FF" width="1.084" height="104.088" x="123.462" y="22.478"/>
            <rect  fill="#2000FF" width="1.084" height="104.088" x="122.378" y="22.478"/>
            <rect  fill="#1600FF" width="1.084" height="104.088" x="121.294" y="22.478"/>
            <rect  fill="#0D00FF" width="1.084" height="104.088" x="120.21" y="22.478"/>
            <rect  fill="#0500FF" width="1.084" height="104.088" x="119.125" y="22.478"/>
            <rect  fill="#0000FF" width="1.084" height="104.088" x="118.041" y="22.478"/>
            <rect  fill="#0007FF" width="1.084" height="104.088" x="116.957" y="22.478"/>
            <rect  fill="#0011FF" width="1.084" height="104.088" x="115.873" y="22.478"/>
            <rect  fill="#001BFF" width="1.084" height="104.088" x="114.788" y="22.478"/>
            <rect  fill="#0027FF" width="1.084" height="104.088" x="113.704" y="22.478"/>
            <rect  fill="#0034FF" width="1.084" height="104.088" x="112.62" y="22.478"/>
            <rect  fill="#0042FF" width="1.084" height="104.088" x="111.535" y="22.478"/>
            <rect  fill="#0050FF" width="1.084" height="104.088" x="110.451" y="22.478"/>
            <rect  fill="#005FFF" width="1.084" height="104.088" x="109.367" y="22.478"/>
            <rect  fill="#006FFF" width="1.084" height="104.088" x="108.283" y="22.478"/>
            <rect  fill="#007FFF" width="1.084" height="104.088" x="107.198" y="22.478"/>
            <rect  fill="#008EFF" width="1.084" height="104.088" x="106.114" y="22.478"/>
            <rect  fill="#009DFF" width="1.084" height="104.088" x="105.03" y="22.478"/>
            <rect  fill="#00ACFF" width="1.084" height="104.088" x="103.946" y="22.478"/>
            <rect  fill="#00BBFF" width="1.084" height="104.088" x="102.861" y="22.478"/>
            <rect  fill="#00C9FF" width="1.084" height="104.088" x="101.777" y="22.478"/>
            <rect  fill="#00D7FF" width="1.084" height="104.088" x="100.693" y="22.478"/>
            <rect  fill="#00E2FF" width="1.084" height="104.088" x="99.609" y="22.478"/>
            <rect  fill="#00ECFF" width="1.084" height="104.088" x="98.524" y="22.478"/>
            <rect  fill="#00F5FF" width="1.084" height="104.088" x="97.44" y="22.478"/>
            <rect  fill="#00FDFF" width="1.084" height="104.088" x="96.356" y="22.478"/>
            <rect  fill="#00FFFA" width="1.084" height="104.088" x="95.272" y="22.478"/>
            <rect  fill="#00FFF3" width="1.084" height="104.088" x="94.187" y="22.478"/>
            <rect  fill="#00FFEA" width="1.084" height="104.088" x="93.103" y="22.478"/>
            <rect  fill="#00FFE1" width="1.084" height="104.088" x="92.019" y="22.478"/>
            <rect  fill="#00FFD6" width="1.084" height="104.088" x="90.935" y="22.478"/>
            <rect  fill="#00FFCB" width="1.084" height="104.088" x="89.85" y="22.478"/>
            <rect  fill="#00FFBE" width="1.084" height="104.088" x="88.766" y="22.478"/>
            <rect  fill="#00FFB2" width="1.084" height="104.088" x="87.682" y="22.478"/>
            <rect  fill="#00FFA4" width="1.084" height="104.088" x="86.598" y="22.478"/>
            <rect  fill="#00FF97" width="1.084" height="104.088" x="85.513" y="22.478"/>
            <rect  fill="#00FF89" width="1.084" height="104.088" x="84.429" y="22.478"/>
            <rect  fill="#00FF7B" width="1.084" height="104.088" x="83.345" y="22.478"/>
            <rect  fill="#00FF6D" width="1.084" height="104.088" x="82.261" y="22.478"/>
            <rect  fill="#00FF60" width="1.084" height="104.088" x="81.176" y="22.478"/>
            <rect  fill="#00FF52" width="1.084" height="104.088" x="80.092" y="22.478"/>
            <rect  fill="#00FF45" width="1.084" height="104.088" x="79.008" y="22.478"/>
            <rect  fill="#00FF38" width="1.084" height="104.088" x="77.924" y="22.478"/>
            <rect  fill="#00FF2C" width="1.084" height="104.088" x="76.839" y="22.478"/>
            <rect  fill="#00FF22" width="1.084" height="104.088" x="75.755" y="22.478"/>
            <rect  fill="#00FF17" width="1.084" height="104.088" x="74.671" y="22.478"/>
            <rect  fill="#00FF0E" width="1.084" height="104.088" x="73.587" y="22.478"/>
            <rect  fill="#00FF07" width="1.084" height="104.088" x="72.502" y="22.478"/>
            <rect  fill="#00FF00" width="1.084" height="104.088" x="71.418" y="22.478"/>
            <rect  fill="#06FF00" width="1.084" height="104.088" x="70.334" y="22.478"/>
            <rect  fill="#0EFF00" width="1.084" height="104.088" x="69.25" y="22.478"/>
            <rect  fill="#17FF00" width="1.084" height="104.088" x="68.165" y="22.478"/>
            <rect  fill="#22FF00" width="1.084" height="104.088" x="67.081" y="22.478"/>
            <rect  fill="#2EFF00" width="1.084" height="104.088" x="65.997" y="22.478"/>
            <rect  fill="#3AFF00" width="1.084" height="104.088" x="64.913" y="22.478"/>
            <rect  fill="#47FF00" width="1.084" height="104.088" x="63.828" y="22.478"/>
            <rect  fill="#56FF00" width="1.084" height="104.088" x="62.744" y="22.478"/>
            <rect  fill="#64FF00" width="1.084" height="104.088" x="61.66" y="22.478"/>
            <rect  fill="#73FF00" width="1.084" height="104.088" x="60.576" y="22.478"/>
            <rect  fill="#81FF00" width="1.084" height="104.088" x="59.491" y="22.478"/>
            <rect  fill="#8FFF00" width="1.084" height="104.088" x="58.407" y="22.478"/>
            <rect  fill="#9EFF00" width="1.084" height="104.088" x="57.323" y="22.478"/>
            <rect  fill="#ACFF00" width="1.084" height="104.088" x="56.239" y="22.478"/>
            <rect  fill="#BBFF00" width="1.084" height="104.088" x="55.154" y="22.478"/>
            <rect  fill="#C7FF00" width="1.084" height="104.088" x="54.07" y="22.478"/>
            <rect  fill="#D4FF00" width="1.084" height="104.088" x="52.986" y="22.478"/>
            <rect  fill="#E0FF00" width="1.084" height="104.088" x="51.902" y="22.478"/>
            <rect  fill="#EAFF00" width="1.084" height="104.088" x="50.817" y="22.478"/>
            <rect  fill="#F3FF00" width="1.084" height="104.088" x="49.733" y="22.478"/>
            <rect  fill="#FBFF00" width="1.084" height="104.088" x="48.649" y="22.478"/>
            <rect  fill="#FFFD00" width="1.084" height="104.088" x="47.565" y="22.478"/>
            <rect  fill="#FFF500" width="1.084" height="104.088" x="46.48" y="22.478"/>
            <rect  fill="#FFED00" width="1.084" height="104.088" x="45.396" y="22.478"/>
            <rect  fill="#FFE100" width="1.084" height="104.088" x="44.312" y="22.478"/>
            <rect  fill="#FFD500" width="1.084" height="104.088" x="43.228" y="22.478"/>
            <rect  fill="#FFC800" width="1.084" height="104.088" x="42.143" y="22.478"/>
            <rect  fill="#FFBB00" width="1.084" height="104.088" x="41.059" y="22.478"/>
            <rect  fill="#FFAC00" width="1.084" height="104.088" x="39.975" y="22.478"/>
            <rect  fill="#FF9C00" width="1.084" height="104.088" x="38.891" y="22.478"/>
            <rect  fill="#FF8D00" width="1.084" height="104.088" x="37.806" y="22.478"/>
            <rect  fill="#FF7D00" width="1.084" height="104.088" x="36.722" y="22.478"/>
            <rect  fill="#FF6E00" width="1.084" height="104.088" x="35.638" y="22.478"/>
            <rect  fill="#FF5E00" width="1.084" height="104.088" x="34.554" y="22.478"/>
            <rect  fill="#FF5000" width="1.084" height="104.088" x="33.469" y="22.478"/>
            <rect  fill="#FF4100" width="1.084" height="104.088" x="32.385" y="22.478"/>
            <rect  fill="#FF3200" width="1.084" height="104.088" x="31.301" y="22.478"/>
            <rect  fill="#FF2600" width="1.084" height="104.088" x="30.217" y="22.478"/>
            <rect  fill="#FF1A00" width="1.084" height="104.088" x="29.132" y="22.478"/>
            <rect  fill="#FF1000" width="1.084" height="104.088" x="28.048" y="22.478"/>
            <rect  fill="#FF0800" width="1.084" height="104.088" x="26.964" y="22.478"/>
        </g>
        <g  transform="matrix(1 0 0 1 53.3169 68.8558)">
            <text  font-size="19.2" font-family="'DroidSans'">2</text>
        </g>
        <g  transform="matrix(1 0 0 1 66.4038 68.8558)">
            <text  font-size="19.2" font-family="'DroidSans'">.</text>
        </g>
        <g  transform="matrix(1 0 0 1 72.8804 68.8558)">
            <text  font-size="19.2" font-family="'DroidSans'">4</text>
        </g>
        <g  transform="matrix(1 0 0 1 85.749 68.8558)">
            <text  font-size="19.2" font-family="'DroidSans'">"</text>
        </g>
        <g  transform="matrix(1 0 0 1 95.3936 68.8558)">
            <text  font-size="19.2" font-family="'DroidSans'"/>
        </g>
        <g  transform="matrix(1 0 0 1 101.6279 68.8558)">
            <text  font-size="19.2" font-family="'DroidSans'">T</text>
        </g>
        <g  transform="matrix(1 0 0 1 114.1592 68.8558)">
            <text  font-size="19.2" font-family="'DroidSans'">F</text>
        </g>
        <g  transform="matrix(1 0 0 1 126.9395 68.8558)">
            <text  font-size="19.2" font-family="'DroidSans'">T</text>
        </g>
        <g  transform="matrix(1 0 0 1 50.4878 97.6556)">
            <text  font-size="19.2" font-family="'DroidSans'">3</text>
        </g>
        <g  transform="matrix(1 0 0 1 63.4663 97.6556)">
            <text  font-size="19.2" font-family="'DroidSans'">2</text>
        </g>
        <g  transform="matrix(1 0 0 1 76.3228 97.6556)">
            <text  font-size="19.2" font-family="'DroidSans'">0</text>
        </g>
        <g  transform="matrix(1 0 0 1 89.7554 97.6556)">
            <text  font-size="19.2" font-family="'DroidSans'">x</text>
        </g>
        <g  transform="matrix(1 0 0 1 102.2856 97.6556)">
            <text  font-size="19.2" font-family="'DroidSans'">2</text>
        </g>
        <g  transform="matrix(1 0 0 1 115.2788 97.6556)">
            <text  font-size="19.2" font-family="'DroidSans'">4</text>
        </g>
        <g  transform="matrix(1 0 0 1 129.0063 97.6556)">
            <text  font-size="19.2" font-family="'DroidSans'">0</text>
        </g>
    </g>
</svg>
