<?xml version='1.0' encoding='utf-8'?>
<!-- Generator: Adobe Illustrator 20.0.0, SVG Export Plug-In . SVG Version: 6.00 Build 0)  -->
<svg xmlns="http://www.w3.org/2000/svg" gorn="0" baseProfile="tiny" viewBox="0 0 57.6 57.6" xmlns:xml="http://www.w3.org/XML/1998/namespace" height="0.8in" id="Layer_1" width="0.8in"  version="1.2" x="0px" y="0px" xml:space="preserve">
    <desc >
        <referenceFile >TMP007_REV-A_breadboard.svg</referenceFile>
    </desc>
    <desc >Fritzing breadboard generated by brd2svg</desc>
    <g gorn="0.2" id="breadboard" >
        <g gorn="0.2.0" id="icon" >
            <path fill="#014CB1" d="M0,7.2C0,3.224,3.224,0,7.2,0c0,0,0,0,0,0h43.2c3.976,0,7.2,3.224,7.2,7.2v43.2c0,3.976-3.224,7.2-7.2,7.2H7.2c-3.976,0-7.2-3.224-7.2-7.2V7.2 M5.783,50.4c0,0.783,0.635,1.417,1.417,1.417s1.417-0.635,1.417-1.417S7.983,48.983,7.2,48.983S5.783,49.617,5.783,50.4C5.783,50.4,5.783,50.4,5.783,50.4z M12.983,50.4c0,0.783,0.635,1.417,1.417,1.417s1.417-0.635,1.417-1.417s-0.635-1.417-1.417-1.417S12.983,49.617,12.983,50.4L12.983,50.4z M20.183,50.4c0,0.783,0.635,1.417,1.417,1.417c0.783,0,1.417-0.635,1.417-1.417s-0.635-1.417-1.417-1.417C20.817,48.983,20.183,49.617,20.183,50.4L20.183,50.4z M27.383,50.4c0,0.783,0.635,1.417,1.417,1.417c0.783,0,1.417-0.635,1.417-1.417s-0.635-1.417-1.417-1.417C28.017,48.983,27.383,49.617,27.383,50.4L27.383,50.4z M34.583,50.4c0,0.783,0.635,1.417,1.417,1.417c0.783,0,1.417-0.635,1.417-1.417S36.783,48.983,36,48.983S34.583,49.617,34.583,50.4z M41.783,50.4c0,0.783,0.635,1.417,1.417,1.417s1.417-0.635,1.417-1.417l0,0c0-0.783-0.635-1.417-1.417-1.417S41.783,49.617,41.783,50.4z M48.983,50.4c0,0.783,0.635,1.417,1.417,1.417c0.783,0,1.417-0.635,1.417-1.417s-0.635-1.417-1.417-1.417S48.983,49.617,48.983,50.4z M46.857,7.2c-0.003,1.957,1.58,3.546,3.537,3.55s3.546-1.58,3.55-3.537c0-0.004,0-0.008,0-0.012c0.003-1.957-1.58-3.546-3.537-3.55c-1.957-0.003-3.546,1.58-3.55,3.537C46.857,7.192,46.857,7.196,46.857,7.2z M3.657,7.2c-0.003,1.957,1.58,3.546,3.537,3.549s3.546-1.58,3.549-3.537c0-0.004,0-0.008,0-0.012c0.003-1.957-1.58-3.546-3.537-3.549C5.249,3.647,3.66,5.231,3.657,7.188C3.657,7.192,3.657,7.196,3.657,7.2z" />
            <g >
                <title >layer 21</title>
                <g >
                    <title >text:TMP007</title>
                    <g transform="matrix(1 0 0 1 18.72 5.76)" >
                        <g >
                            <g >
                                <text fill="#FFFFFF" font-family="'OCRA'"  font-size="3.3408">TMP007</text>
                            </g>
                        </g>
                    </g>
                </g>
                <g >
                    <title >text:Temp Sensor</title>
                    <g transform="matrix(1 0 0 1 15.12 10.08)" >
                        <g >
                            <g >
                                <text fill="#FFFFFF" font-family="'OCRA'"  font-size="2.67264">Temp Sensor</text>
                            </g>
                        </g>
                    </g>
                </g>
                <g >
                    <title >text:VCC</title>
                    <g transform="matrix(1 0 0 1 4.32 56.16)" >
                        <g >
                            <g >
                                <text fill="#FFFFFF" font-family="'OCRA'"  font-size="2.13808">VCC</text>
                            </g>
                        </g>
                    </g>
                </g>
                <g >
                    <title >text:GND</title>
                    <g transform="matrix(1 0 0 1 11.52 46.8)" >
                        <g >
                            <g >
                                <text fill="#FFFFFF" font-family="'OCRA'"  font-size="2.13808">GND</text>
                            </g>
                        </g>
                    </g>
                </g>
                <g >
                    <title >text:ALERT</title>
                    <g transform="matrix(1 0 0 1 30.96 56.16)" >
                        <g >
                            <g >
                                <text fill="#FFFFFF" font-family="'OCRA'"  font-size="2.13808">ALERT</text>
                            </g>
                        </g>
                    </g>
                </g>
                <g >
                    <title >text:AD1</title>
                    <g transform="matrix(1 0 0 1 40.32 46.8)" >
                        <g >
                            <g >
                                <text fill="#FFFFFF" font-family="'OCRA'"  font-size="2.13808">AD1</text>
                            </g>
                        </g>
                    </g>
                </g>
                <g >
                    <title >text:AD0</title>
                    <g transform="matrix(1 0 0 1 47.52 56.16)" >
                        <g >
                            <g >
                                <text fill="#FFFFFF" font-family="'OCRA'"  font-size="2.13808">AD0</text>
                            </g>
                        </g>
                    </g>
                </g>
                <g >
                    <title >text:SDA</title>
                    <g transform="matrix(1 0 0 1 18.72 56.16)" >
                        <g >
                            <g >
                                <text fill="#FFFFFF" font-family="'OCRA'"  font-size="2.13808">SDA</text>
                            </g>
                        </g>
                    </g>
                </g>
                <g >
                    <title >text:SCL</title>
                    <g transform="matrix(1 0 0 1 25.92 46.8)" >
                        <g >
                            <g >
                                <text fill="#FFFFFF" font-family="'OCRA'"  font-size="2.13808">SCL</text>
                            </g>
                        </g>
                    </g>
                </g>
                <g >
                    <title >element:C1</title>
                    <g >
                        <title >package:_0805</title>
                        <line stroke="#FFFFFF" fill="none" stroke-linecap="round" stroke-width="0.576" y1="38.52" y2="38.52"  x1="14.04" x2="3.24"/>
                        <line stroke="#FFFFFF" fill="none" stroke-linecap="round" stroke-width="0.576" y1="38.52" y2="33.48"  x1="3.24" x2="3.24"/>
                        <line stroke="#FFFFFF" fill="none" stroke-linecap="round" stroke-width="0.576" y1="33.48" y2="33.48"  x1="3.24" x2="14.04"/>
                        <line stroke="#FFFFFF" fill="none" stroke-linecap="round" stroke-width="0.576" y1="33.48" y2="38.52"  x1="14.04" x2="14.04"/>
                    </g>
                </g>
                <g >
                    <title >element:FID1</title>
                    <g >
                        <title >package:FIDUCIAL_1MM</title>
                    </g>
                </g>
                <g >
                    <title >element:FID2</title>
                    <g >
                        <title >package:FIDUCIAL_1MM</title>
                    </g>
                </g>
                <g >
                    <title >element:JP1</title>
                    <g >
                        <title >package:1X07_ROUND_76</title>
                    </g>
                </g>
                <g >
                    <title >element:R1</title>
                    <g >
                        <title >package:_0805</title>
                        <line stroke="#FFFFFF" fill="none" stroke-linecap="round" stroke-width="0.576" y1="31.32" y2="31.32"  x1="14.04" x2="3.24"/>
                        <line stroke="#FFFFFF" fill="none" stroke-linecap="round" stroke-width="0.576" y1="31.32" y2="26.28"  x1="3.24" x2="3.24"/>
                        <line stroke="#FFFFFF" fill="none" stroke-linecap="round" stroke-width="0.576" y1="26.28" y2="26.28"  x1="3.24" x2="14.04"/>
                        <line stroke="#FFFFFF" fill="none" stroke-linecap="round" stroke-width="0.576" y1="26.28" y2="31.32"  x1="14.04" x2="14.04"/>
                    </g>
                </g>
                <g >
                    <title >element:R2</title>
                    <g >
                        <title >package:_0805</title>
                        <line stroke="#FFFFFF" fill="none" stroke-linecap="round" stroke-width="0.576" y1="25.56" y2="25.56"  x1="14.04" x2="3.24"/>
                        <line stroke="#FFFFFF" fill="none" stroke-linecap="round" stroke-width="0.576" y1="25.56" y2="20.52"  x1="3.24" x2="3.24"/>
                        <line stroke="#FFFFFF" fill="none" stroke-linecap="round" stroke-width="0.576" y1="20.52" y2="20.52"  x1="3.24" x2="14.04"/>
                        <line stroke="#FFFFFF" fill="none" stroke-linecap="round" stroke-width="0.576" y1="20.52" y2="25.56"  x1="14.04" x2="14.04"/>
                    </g>
                </g>
                <g >
                    <title >element:R3</title>
                    <g >
                        <title >package:_0805</title>
                        <line stroke="#FFFFFF" fill="none" stroke-linecap="round" stroke-width="0.576" y1="19.8" y2="19.8"  x1="14.04" x2="3.24"/>
                        <line stroke="#FFFFFF" fill="none" stroke-linecap="round" stroke-width="0.576" y1="19.8" y2="14.76"  x1="3.24" x2="3.24"/>
                        <line stroke="#FFFFFF" fill="none" stroke-linecap="round" stroke-width="0.576" y1="14.76" y2="14.76"  x1="3.24" x2="14.04"/>
                        <line stroke="#FFFFFF" fill="none" stroke-linecap="round" stroke-width="0.576" y1="14.76" y2="19.8"  x1="14.04" x2="14.04"/>
                    </g>
                </g>
                <g >
                    <title >element:R4</title>
                    <g >
                        <title >package:_0805</title>
                        <line stroke="#FFFFFF" fill="none" stroke-linecap="round" stroke-width="0.576" y1="27.72" y2="27.72"  x1="42.84" x2="53.64"/>
                        <line stroke="#FFFFFF" fill="none" stroke-linecap="round" stroke-width="0.576" y1="27.72" y2="32.76"  x1="53.64" x2="53.64"/>
                        <line stroke="#FFFFFF" fill="none" stroke-linecap="round" stroke-width="0.576" y1="32.76" y2="32.76"  x1="53.64" x2="42.84"/>
                        <line stroke="#FFFFFF" fill="none" stroke-linecap="round" stroke-width="0.576" y1="32.76" y2="27.72"  x1="42.84" x2="42.84"/>
                    </g>
                </g>
                <g >
                    <title >element:R5</title>
                    <g >
                        <title >package:_0805</title>
                        <line stroke="#FFFFFF" fill="none" stroke-linecap="round" stroke-width="0.576" y1="21.96" y2="21.96"  x1="42.84" x2="53.64"/>
                        <line stroke="#FFFFFF" fill="none" stroke-linecap="round" stroke-width="0.576" y1="21.96" y2="27"  x1="53.64" x2="53.64"/>
                        <line stroke="#FFFFFF" fill="none" stroke-linecap="round" stroke-width="0.576" y1="27" y2="27"  x1="53.64" x2="42.84"/>
                        <line stroke="#FFFFFF" fill="none" stroke-linecap="round" stroke-width="0.576" y1="27" y2="21.96"  x1="42.84" x2="42.84"/>
                    </g>
                </g>
                <g >
                    <title >element:U$6</title>
                    <g >
                        <title >package:MOUNTINGHOLE_2.5_PLATED</title>
                        <circle stroke="#FFFFFF" r="5.669" fill="none" stroke-width="0.576" cx="50.4" cy="7.2" />
                    </g>
                </g>
                <g >
                    <title >element:U$7</title>
                    <g >
                        <title >package:MOUNTINGHOLE_2.5_PLATED</title>
                        <circle stroke="#FFFFFF" r="5.669" fill="none" stroke-width="0.576" cx="7.2" cy="7.2" />
                    </g>
                </g>
                <g >
                    <title >element:U$9</title>
                    <g >
                        <title >package:ADAFRUIT_3.5MM</title>
                    </g>
                </g>
                <g >
                    <title >element:U1</title>
                    <g >
                        <title >package:WCSP-8</title>
                        <line stroke="#FFFFFF" fill="none" stroke-linecap="round" stroke-width="0.36" y1="26.107" y2="26.107"  x1="26.107" x2="31.493"/>
                        <line stroke="#FFFFFF" fill="none" stroke-linecap="round" stroke-width="0.36" y1="26.107" y2="31.493"  x1="31.493" x2="31.493"/>
                        <line stroke="#FFFFFF" fill="none" stroke-linecap="round" stroke-width="0.36" y1="31.493" y2="31.493"  x1="31.493" x2="26.107"/>
                        <line stroke="#FFFFFF" fill="none" stroke-linecap="round" stroke-width="0.36" y1="31.493" y2="26.107"  x1="26.107" x2="26.107"/>
                        <circle stroke="#FFFFFF" r="0.401" fill="none" stroke-width="0.864" cx="32.769" cy="30.784" />
                    </g>
                </g>
            </g>
            <g transform="matrix(-1, 0, 0, -1, 23.04, 72)" >
                <g >
                    <g >
                        <g >
                            <rect gorn="0.2.0.2.0.0.0.0" height="3.685" id="connector0pin" fill="#9A916C" width="3.402"  x="9.819" y="34.157"/>
                        </g>
                    </g>
                </g>
            </g>
            <g transform="matrix(-1, 0, 0, -1, 11.52, 72)" >
                <g >
                    <g >
                        <g >
                            <rect gorn="0.2.0.3.0.0.0.0" height="3.685" id="connector1pin" fill="#9A916C" width="3.402"  x="4.059" y="34.157"/>
                        </g>
                    </g>
                </g>
            </g>
            <path gorn="0.2.0.4" id="connector2pin" fill="#9A916C" d="M7.2,42.503L7.2,42.503c0.783,0,1.417,0.635,1.417,1.417v0c0,0.783-0.635,1.417-1.417,1.417h0c-0.783,0-1.417-0.635-1.417-1.417v0C5.783,43.137,6.417,42.503,7.2,42.503z" />
            <path gorn="0.2.0.5" id="connector3pin" fill="#9A916C" d="M43.92,12.983L43.92,12.983c0.783,0,1.417,0.635,1.417,1.417v0c0,0.783-0.635,1.417-1.417,1.417h0c-0.783,0-1.417-0.635-1.417-1.417v0C42.503,13.617,43.137,12.983,43.92,12.983z" />
            <circle gorn="0.2.0.6" stroke="#9A916C" id="connector4pin" r="2.077" fill="none" stroke-width="1.3187" cx="7.2" cy="50.4" />
            <rect stroke="#9A916C" height="4.153" fill="none" width="4.153" stroke-width="1.3187"  x="5.123" y="48.323"/>
            <circle gorn="0.2.0.8" stroke="#9A916C" id="connector5pin" r="2.077" fill="none" stroke-width="1.3187" cx="14.4" cy="50.4" />
            <circle gorn="0.2.0.9" stroke="#9A916C" id="connector6pin" r="2.077" fill="none" stroke-width="1.3187" cx="21.6" cy="50.4" />
            <circle gorn="0.2.0.10" stroke="#9A916C" id="connector7pin" r="2.077" fill="none" stroke-width="1.3187" cx="28.8" cy="50.4" />
            <circle gorn="0.2.0.11" stroke="#9A916C" id="connector8pin" r="2.077" fill="none" stroke-width="1.3187" cx="36" cy="50.4" />
            <circle gorn="0.2.0.12" stroke="#9A916C" id="connector9pin" r="2.077" fill="none" stroke-width="1.3187" cx="43.2" cy="50.4" />
            <circle gorn="0.2.0.13" stroke="#9A916C" id="connector10pin" r="2.077" fill="none" stroke-width="1.3187" cx="50.4" cy="50.4" />
            <g transform="matrix(-1, 0, 0, -1, 23.04, 57.6)" >
                <g >
                    <g >
                        <g >
                            <rect gorn="0.2.0.14.0.0.0.0" height="3.685" id="connector11pin" fill="#9A916C" width="3.402"  x="9.819" y="26.957"/>
                        </g>
                    </g>
                </g>
            </g>
            <g transform="matrix(-1, 0, 0, -1, 11.52, 57.6)" >
                <g >
                    <g >
                        <g >
                            <rect gorn="0.2.0.15.0.0.0.0" height="3.685" id="connector12pin" fill="#9A916C" width="3.402"  x="4.059" y="26.957"/>
                        </g>
                    </g>
                </g>
            </g>
            <g transform="matrix(-1, 0, 0, -1, 23.04, 46.08)" >
                <g >
                    <g >
                        <g >
                            <rect gorn="0.2.0.16.0.0.0.0" height="3.685" id="connector13pin" fill="#9A916C" width="3.402"  x="9.819" y="21.197"/>
                        </g>
                    </g>
                </g>
            </g>
            <g transform="matrix(-1, 0, 0, -1, 11.52, 46.08)" >
                <g >
                    <g >
                        <g >
                            <rect gorn="0.2.0.17.0.0.0.0" height="3.685" id="connector14pin" fill="#9A916C" width="3.402"  x="4.059" y="21.197"/>
                        </g>
                    </g>
                </g>
            </g>
            <g transform="matrix(-1, 0, 0, -1, 23.04, 34.56)" >
                <g >
                    <g >
                        <g >
                            <rect gorn="0.2.0.18.0.0.0.0" height="3.685" id="connector15pin" fill="#9A916C" width="3.402"  x="9.819" y="15.437"/>
                        </g>
                    </g>
                </g>
            </g>
            <g transform="matrix(-1, 0, 0, -1, 11.52, 34.56)" >
                <g >
                    <g >
                        <g >
                            <rect gorn="0.2.0.19.0.0.0.0" height="3.685" id="connector16pin" fill="#9A916C" width="3.402"  x="4.059" y="15.437"/>
                        </g>
                    </g>
                </g>
            </g>
            <rect gorn="0.2.0.20" height="3.685" id="connector17pin" fill="#9A916C" width="3.402"  x="43.659" y="28.397"/>
            <rect gorn="0.2.0.21" height="3.685" id="connector18pin" fill="#9A916C" width="3.402"  x="49.419" y="28.397"/>
            <rect gorn="0.2.0.22" height="3.685" id="connector19pin" fill="#9A916C" width="3.402"  x="43.659" y="22.637"/>
            <rect gorn="0.2.0.23" height="3.685" id="connector20pin" fill="#9A916C" width="3.402"  x="49.419" y="22.637"/>
            <circle gorn="0.2.0.24" stroke="#9A916C" id="connector21pin" r="4.263" fill="none" stroke-width="1.44" cx="50.4" cy="7.2" />
            <circle gorn="0.2.0.25" stroke="#9A916C" id="connector22pin" r="4.263" fill="none" stroke-width="1.44" cx="7.2" cy="7.2" />
            <path gorn="0.2.0.26" id="connector23pin" fill="#9A916C" d="M30.217,29.863L30.217,29.863c0.196,0,0.354,0.159,0.354,0.354l0,0c0,0.196-0.159,0.354-0.354,0.354l0,0c-0.196,0-0.354-0.159-0.354-0.354l0,0C29.863,30.022,30.022,29.863,30.217,29.863z" />
            <path gorn="0.2.0.27" id="connector24pin" fill="#9A916C" d="M28.8,29.863L28.8,29.863c0.196,0,0.354,0.159,0.354,0.354l0,0c0,0.196-0.159,0.354-0.354,0.354l0,0c-0.196,0-0.354-0.159-0.354-0.354l0,0C28.446,30.022,28.604,29.863,28.8,29.863z" />
            <path gorn="0.2.0.28" id="connector25pin" fill="#9A916C" d="M27.383,29.863L27.383,29.863c0.196,0,0.354,0.159,0.354,0.354l0,0c0,0.196-0.159,0.354-0.354,0.354l0,0c-0.196,0-0.354-0.159-0.354-0.354l0,0C27.028,30.022,27.187,29.863,27.383,29.863z" />
            <path gorn="0.2.0.29" id="connector26pin" fill="#9A916C" d="M30.217,28.446L30.217,28.446c0.196,0,0.354,0.159,0.354,0.354l0,0c0,0.196-0.159,0.354-0.354,0.354l0,0c-0.196,0-0.354-0.159-0.354-0.354l0,0C29.863,28.604,30.022,28.446,30.217,28.446z" />
            <path gorn="0.2.0.30" id="connector27pin" fill="#9A916C" d="M27.383,28.446L27.383,28.446c0.196,0,0.354,0.159,0.354,0.354l0,0c0,0.196-0.159,0.354-0.354,0.354l0,0c-0.196,0-0.354-0.159-0.354-0.354l0,0C27.028,28.604,27.187,28.446,27.383,28.446z" />
            <path gorn="0.2.0.31" id="connector28pin" fill="#9A916C" d="M30.217,27.028L30.217,27.028c0.196,0,0.354,0.159,0.354,0.354l0,0c0,0.196-0.159,0.354-0.354,0.354l0,0c-0.196,0-0.354-0.159-0.354-0.354l0,0C29.863,27.187,30.022,27.028,30.217,27.028z" />
            <path gorn="0.2.0.32" id="connector29pin" fill="#9A916C" d="M28.8,27.028L28.8,27.028c0.196,0,0.354,0.159,0.354,0.354l0,0c0,0.196-0.159,0.354-0.354,0.354l0,0c-0.196,0-0.354-0.159-0.354-0.354l0,0C28.446,27.187,28.604,27.028,28.8,27.028z" />
            <path gorn="0.2.0.33" id="connector30pin" fill="#9A916C" d="M27.383,27.028L27.383,27.028c0.196,0,0.354,0.159,0.354,0.354l0,0c0,0.196-0.159,0.354-0.354,0.354l0,0c-0.196,0-0.354-0.159-0.354-0.354l0,0C27.028,27.187,27.187,27.028,27.383,27.028z" />
        </g>
        <g transform="matrix(1, 0, 0, 1, 5.8055, 34.2285)" >
            <g >
                <g >
                    <g gorn="0.2.1.0.0.0" id="_0805" >
                        <g transform="matrix(-1, 0, 0, -1, 5.669, 3.543)" >
                            <g >
                                <g >
                                    <g >
                                        <path fill="#DCDCDC" d="M5.386,3.543H0.283C0.127,3.543,0,3.416,0,3.26V0.283C0,0.127,0.127,0,0.283,0h5.102c0.157,0,0.283,0.127,0.283,0.283V3.26C5.669,3.416,5.542,3.543,5.386,3.543z" />
                                        <rect height="3.543" fill="#6E554B" width="3.543"  x="1.063" y="0"/>
                                    </g>
                                </g>
                            </g>
                        </g>
                    </g>
                </g>
            </g>
        </g>
        <g transform="matrix(1, 0, 0, 1, 5.8055, 27.0285)" >
            <g >
                <g >
                    <g gorn="0.2.2.0.0.0" id="_0805_1_" >
                        <g transform="matrix(-1, 0, 0, -1, 5.669, 3.543)" >
                            <g >
                                <g >
                                    <g >
                                        <path fill="#DCDCDC" d="M5.386,3.543H0.283C0.127,3.543,0,3.416,0,3.26V0.283C0,0.127,0.127,0,0.283,0h5.102c0.157,0,0.283,0.127,0.283,0.283V3.26C5.669,3.416,5.542,3.543,5.386,3.543z" />
                                        <rect height="3.543" fill="#333333" width="3.543"  x="1.063" y="0"/>
                                    </g>
                                </g>
                            </g>
                        </g>
                    </g>
                </g>
            </g>
        </g>
        <g transform="matrix(1, 0, 0, 1, 5.8055, 21.2685)" >
            <g >
                <g >
                    <g gorn="0.2.3.0.0.0" id="_0805_2_" >
                        <g transform="matrix(-1, 0, 0, -1, 5.669, 3.543)" >
                            <g >
                                <g >
                                    <g >
                                        <path fill="#DCDCDC" d="M5.386,3.543H0.283C0.127,3.543,0,3.416,0,3.26V0.283C0,0.127,0.127,0,0.283,0h5.102c0.157,0,0.283,0.127,0.283,0.283V3.26C5.669,3.416,5.542,3.543,5.386,3.543z" />
                                        <rect height="3.543" fill="#333333" width="3.543"  x="1.063" y="0"/>
                                    </g>
                                </g>
                            </g>
                        </g>
                    </g>
                </g>
            </g>
        </g>
        <g transform="matrix(1, 0, 0, 1, 5.8055, 15.5085)" >
            <g >
                <g >
                    <g gorn="0.2.4.0.0.0" id="_0805_3_" >
                        <g transform="matrix(-1, 0, 0, -1, 5.669, 3.543)" >
                            <g >
                                <g >
                                    <g >
                                        <path fill="#DCDCDC" d="M5.386,3.543H0.283C0.127,3.543,0,3.416,0,3.26V0.283C0,0.127,0.127,0,0.283,0h5.102c0.157,0,0.283,0.127,0.283,0.283V3.26C5.669,3.416,5.542,3.543,5.386,3.543z" />
                                        <rect height="3.543" fill="#333333" width="3.543"  x="1.063" y="0"/>
                                    </g>
                                </g>
                            </g>
                        </g>
                    </g>
                </g>
            </g>
        </g>
        <g transform="matrix(1, 0, 0, 1, 45.4055, 28.4685)" >
            <g >
                <g >
                    <g gorn="0.2.5.0.0.0" id="_0805_4_" >
                        <path fill="#DCDCDC" d="M5.386,3.543H0.283C0.127,3.543,0,3.416,0,3.26V0.283C0,0.127,0.127,0,0.283,0h5.102c0.157,0,0.283,0.127,0.283,0.283V3.26C5.669,3.416,5.542,3.543,5.386,3.543z" />
                        <rect height="3.543" fill="#333333" width="3.543"  x="1.063" y="0"/>
                    </g>
                </g>
            </g>
        </g>
        <g transform="matrix(1, 0, 0, 1, 45.4055, 22.7085)" >
            <g >
                <g >
                    <g gorn="0.2.6.0.0.0" id="_0805_5_" >
                        <path fill="#DCDCDC" d="M5.386,3.543H0.283C0.127,3.543,0,3.416,0,3.26V0.283C0,0.127,0.127,0,0.283,0h5.102c0.157,0,0.283,0.127,0.283,0.283V3.26C5.669,3.416,5.542,3.543,5.386,3.543z" />
                        <rect height="3.543" fill="#333333" width="3.543"  x="1.063" y="0"/>
                    </g>
                </g>
            </g>
        </g>
        <g transform="matrix(1, 0, 0, 1, 25.0125, 12.774)" >
            <g >
                <g >
                    <g gorn="0.2.7.0.0.0" id="adafruit_3.5mm" >
                        <g transform="matrix(0, -1, 1, 0, 0.001476, 9.77846)" >
                            <g >
                                <g >
                                    <g >
                                        <path fill="#DCDCDC" d="M9.773,3.204c-0.032-0.2-0.141-0.257-0.403-0.341C9.171,2.799,7.837,2.374,7.837,2.374S6.907,2.023,6.218,2.52C6.125,2.586,6.029,2.663,5.932,2.744C6.014,2.647,6.09,2.551,6.156,2.458c0.495-0.69,0.143-1.619,0.143-1.619S5.872-0.495,5.807-0.694c-0.085-0.262-0.142-0.37-0.342-0.402c-0.2-0.032-0.288,0.054-0.449,0.277c-0.122,0.17-0.939,1.307-0.939,1.307S3.456,1.265,3.716,2.074C3.75,2.183,3.793,2.298,3.841,2.415C3.774,2.307,3.706,2.206,3.638,2.113C3.135,1.429,2.142,1.477,2.142,1.477s-1.4-0.006-1.61-0.006C0.257,1.47,0.136,1.491,0.044,1.672C-0.047,1.853,0.007,1.963,0.17,2.185c0.124,0.169,0.953,1.297,0.953,1.297s0.546,0.83,1.395,0.834c0.114,0,0.236-0.005,0.362-0.014c-0.122,0.03-0.24,0.064-0.348,0.1C1.726,4.669,1.465,5.628,1.465,5.628s-0.438,1.33-0.503,1.529C0.876,7.418,0.859,7.54,1.002,7.683c0.144,0.143,0.265,0.126,0.526,0.04c0.199-0.065,1.528-0.506,1.528-0.506s0.958-0.263,1.224-1.07c0.036-0.108,0.069-0.225,0.1-0.348C4.371,5.925,4.366,6.047,4.367,6.161C4.372,7.01,5.203,7.555,5.203,7.555s1.13,0.827,1.298,0.951C6.724,8.668,6.834,8.722,7.015,8.63c0.181-0.092,0.201-0.213,0.2-0.488c-0.001-0.21-0.009-1.61-0.009-1.61s0.047-0.993-0.639-1.495C6.475,4.97,6.373,4.902,6.266,4.835c0.117,0.047,0.232,0.09,0.34,0.124C7.416,5.217,8.19,4.595,8.19,4.595s1.136-0.819,1.306-0.941C9.719,3.493,9.805,3.405,9.773,3.204z M4.951,2.173C5.103,2.197,5.179,2.522,5.12,2.899S4.889,3.561,4.736,3.537S4.507,3.188,4.567,2.812C4.626,2.435,4.798,2.149,4.951,2.173z M2.995,3.172c0.07-0.138,0.402-0.11,0.742,0.063c0.34,0.173,0.558,0.425,0.488,0.563s-0.402,0.11-0.742-0.063C3.143,3.562,2.925,3.31,2.995,3.172z M4.026,5.05C3.757,5.32,3.449,5.45,3.34,5.341C3.231,5.232,3.36,4.925,3.63,4.655c0.269-0.27,0.576-0.4,0.686-0.291C4.425,4.473,4.295,4.78,4.026,5.05z M5.51,5.683c-0.138,0.07-0.39-0.148-0.563-0.487c-0.174-0.34-0.203-0.673-0.065-0.743s0.39,0.148,0.563,0.487C5.618,5.28,5.647,5.612,5.51,5.683z M5.867,4.11C5.49,4.17,5.166,4.095,5.141,3.942C5.117,3.789,5.403,3.617,5.779,3.557c0.377-0.06,0.701,0.015,0.726,0.168C6.529,3.878,6.244,4.05,5.867,4.11z" />
                                    </g>
                                </g>
                            </g>
                        </g>
                    </g>
                </g>
            </g>
        </g>
        <g transform="matrix(1, 0, 0, 1, 27.0358, 26.107)" >
            <g >
                <g >
                    <g gorn="0.2.8.0.0.0" id="wcsp-8" >
                        <rect height="5.386" fill="#333333" width="5.386"  x="-0.929" y="0"/>
                    </g>
                </g>
            </g>
        </g>
    </g>
</svg>
