<?xml version='1.0' encoding='utf-8'?>
<!-- Generator: Adobe Illustrator 20.0.0, SVG Export Plug-In . SVG Version: 6.00 Build 0)  -->
<svg xmlns="http://www.w3.org/2000/svg" baseProfile="tiny" height="1.1in" gorn="0" xml:space="preserve" width="0.61in" version="1.2" xmlns:xml="http://www.w3.org/XML/1998/namespace"  id="Layer_1" x="0px" y="0px" viewBox="0 0 43.92 79.2">
    <desc>
        <referenceFile>Adafruit TXB0108 8-channel Bi-directional Logic Level Converter_breadboard.svg</referenceFile>
    </desc>
    <desc >Fritzing breadboard generated by brd2svg</desc>
    <g gorn="0.1"  id="breadboard">
        <g gorn="0.1.0"  id="icon">
            <path fill="#014CB1" d="M43.92,75.6c0,1.988-1.612,3.6-3.6,3.6H3.6c-1.988,0-3.6-1.612-3.6-3.6v-72C0,1.612,1.612,0,3.6,0c0,0,0,0,0,0h36.72c1.988,0,3.6,1.612,3.6,3.6V75.6 M38.543,7.92c0,0.783,0.635,1.417,1.417,1.417s1.417-0.635,1.417-1.417s-0.635-1.417-1.417-1.417S38.543,7.137,38.543,7.92z M38.543,15.12c0,0.783,0.635,1.417,1.417,1.417s1.417-0.635,1.417-1.417s-0.635-1.417-1.417-1.417S38.543,14.337,38.543,15.12z M38.543,22.32c0,0.783,0.635,1.417,1.417,1.417s1.417-0.635,1.417-1.417s-0.635-1.417-1.417-1.417S38.543,21.537,38.543,22.32z M38.543,29.52c0,0.783,0.635,1.417,1.417,1.417s1.417-0.635,1.417-1.417s-0.635-1.417-1.417-1.417S38.543,28.737,38.543,29.52z M38.543,36.72c0,0.783,0.635,1.417,1.417,1.417s1.417-0.635,1.417-1.417s-0.635-1.417-1.417-1.417S38.543,35.937,38.543,36.72z M38.543,43.92c0,0.783,0.635,1.417,1.417,1.417s1.417-0.635,1.417-1.417s-0.635-1.417-1.417-1.417S38.543,43.137,38.543,43.92z M38.543,51.12c0,0.783,0.635,1.417,1.417,1.417s1.417-0.635,1.417-1.417l0,0c0-0.783-0.635-1.417-1.417-1.417S38.543,50.337,38.543,51.12z M38.543,58.32c0,0.783,0.635,1.417,1.417,1.417s1.417-0.635,1.417-1.417l0,0c0-0.783-0.635-1.417-1.417-1.417S38.543,57.537,38.543,58.32z M38.543,65.52c0,0.783,0.635,1.417,1.417,1.417s1.417-0.635,1.417-1.417s-0.635-1.417-1.417-1.417S38.543,64.737,38.543,65.52z M38.543,72.72c0,0.783,0.635,1.417,1.417,1.417s1.417-0.635,1.417-1.417s-0.635-1.417-1.417-1.417S38.543,71.937,38.543,72.72z M2.543,72.72c0,0.783,0.635,1.417,1.417,1.417s1.417-0.635,1.417-1.417s-0.635-1.417-1.417-1.417S2.543,71.937,2.543,72.72z M2.543,65.52c0,0.783,0.635,1.417,1.417,1.417s1.417-0.635,1.417-1.417s-0.635-1.417-1.417-1.417S2.543,64.737,2.543,65.52z M2.543,58.32c0,0.783,0.635,1.417,1.417,1.417s1.417-0.635,1.417-1.417s-0.635-1.417-1.417-1.417S2.543,57.537,2.543,58.32z M2.543,51.12c0,0.783,0.635,1.417,1.417,1.417s1.417-0.635,1.417-1.417l0,0c0-0.783-0.635-1.417-1.417-1.417S2.543,50.337,2.543,51.12z M2.543,43.92c0,0.783,0.635,1.417,1.417,1.417s1.417-0.635,1.417-1.417s-0.635-1.417-1.417-1.417S2.543,43.137,2.543,43.92z M2.543,36.72c0,0.783,0.635,1.417,1.417,1.417s1.417-0.635,1.417-1.417s-0.635-1.417-1.417-1.417S2.543,35.937,2.543,36.72z M2.543,29.52c0,0.783,0.635,1.417,1.417,1.417s1.417-0.635,1.417-1.417s-0.635-1.417-1.417-1.417S2.543,28.737,2.543,29.52z M2.543,22.32c0,0.783,0.635,1.417,1.417,1.417s1.417-0.635,1.417-1.417l0,0c0-0.783-0.635-1.417-1.417-1.417S2.543,21.537,2.543,22.32z M2.543,15.12c0,0.783,0.635,1.417,1.417,1.417s1.417-0.635,1.417-1.417s-0.635-1.417-1.417-1.417S2.543,14.337,2.543,15.12z M2.543,7.92c0,0.783,0.635,1.417,1.417,1.417S5.377,8.703,5.377,7.92S4.743,6.503,3.96,6.503S2.543,7.137,2.543,7.92C2.543,7.92,2.543,7.92,2.543,7.92z" />
            <g >
                <title >layer 21</title>
                <line x1="21.6" stroke-linecap="round" x2="21.6" fill="none"  stroke-width="0.72" stroke="#FFFFFF" y1="0.72" y2="3.634"/>
                <line x1="21.6" stroke-linecap="round" x2="21.6" fill="none"  stroke-width="0.72" stroke="#FFFFFF" y1="6.469" y2="9.383"/>
                <line x1="21.6" stroke-linecap="round" x2="21.6" fill="none"  stroke-width="0.72" stroke="#FFFFFF" y1="12.217" y2="15.131"/>
                <line x1="21.6" stroke-linecap="round" x2="21.6" fill="none"  stroke-width="0.72" stroke="#FFFFFF" y1="17.966" y2="20.88"/>
                <line x1="13.68" stroke-linecap="round" x2="30.24" fill="none"  stroke-width="0.72" stroke="#FFFFFF" y1="65.52" y2="65.52"/>
                <line x1="30.24" stroke-linecap="round" x2="28.8" fill="none"  stroke-width="0.72" stroke="#FFFFFF" y1="65.52" y2="64.08"/>
                <line x1="30.24" stroke-linecap="round" x2="28.8" fill="none"  stroke-width="0.72" stroke="#FFFFFF" y1="65.52" y2="66.96"/>
                <line x1="13.68" stroke-linecap="round" x2="15.12" fill="none"  stroke-width="0.72" stroke="#FFFFFF" y1="65.52" y2="64.08"/>
                <line x1="13.68" stroke-linecap="round" x2="15.12" fill="none"  stroke-width="0.72" stroke="#FFFFFF" y1="65.52" y2="66.96"/>
                <g >
                    <title >text:OE</title>
                    <g transform="matrix(1 0 0 1 7.2518 74.16)" >
                        <text font-size="2.67264" font-family="'OCRA'" fill="#FFFFFF" >OE</text>
                    </g>
                </g>
                <g >
                    <title >text:A8</title>
                    <g transform="matrix(1 0 0 1 7.2518 66.96)" >
                        <text font-size="2.67264" font-family="'OCRA'" fill="#FFFFFF" >A8</text>
                    </g>
                </g>
                <g >
                    <title >text:A7</title>
                    <g transform="matrix(1 0 0 1 7.2518 59.76)" >
                        <text font-size="2.67264" font-family="'OCRA'" fill="#FFFFFF" >A7</text>
                    </g>
                </g>
                <g >
                    <title >text:A6</title>
                    <g transform="matrix(1 0 0 1 7.2518 52.56)" >
                        <text font-size="2.67264" font-family="'OCRA'" fill="#FFFFFF" >A6</text>
                    </g>
                </g>
                <g >
                    <title >text:A5</title>
                    <g transform="matrix(1 0 0 1 6.8918 45.36)" >
                        <text font-size="2.67264" font-family="'OCRA'" fill="#FFFFFF" >A5</text>
                    </g>
                </g>
                <g >
                    <title >text:A4</title>
                    <g transform="matrix(1 0 0 1 6.8918 38.16)" >
                        <text font-size="2.67264" font-family="'OCRA'" fill="#FFFFFF" >A4</text>
                    </g>
                </g>
                <g >
                    <title >text:A3</title>
                    <g transform="matrix(1 0 0 1 7.2518 30.96)" >
                        <text font-size="2.67264" font-family="'OCRA'" fill="#FFFFFF" >A3</text>
                    </g>
                </g>
                <g >
                    <title >text:A2</title>
                    <g transform="matrix(1 0 0 1 7.2518 23.76)" >
                        <text font-size="2.67264" font-family="'OCRA'" fill="#FFFFFF" >A2</text>
                    </g>
                </g>
                <g >
                    <title >text:A1</title>
                    <g transform="matrix(1 0 0 1 7.2518 16.56)" >
                        <text font-size="2.67264" font-family="'OCRA'" fill="#FFFFFF" >A1</text>
                    </g>
                </g>
                <g >
                    <title >text:VCCA</title>
                    <g transform="matrix(1 0 0 1 7.2518 9.36)" >
                        <text font-size="2.67264" font-family="'OCRA'" fill="#FFFFFF" >VCCA</text>
                    </g>
                </g>
                <g >
                    <title >text:VCCB</title>
                    <g transform="matrix(1 0 0 1 27.4185 9.8208)" >
                        <text font-size="2.67264" font-family="'OCRA'" fill="#FFFFFF" >VCCB</text>
                    </g>
                </g>
                <g >
                    <title >text:B1</title>
                    <g transform="matrix(1 0 0 1 32.2493 17.0208)" >
                        <text font-size="2.67264" font-family="'OCRA'" fill="#FFFFFF" >B1</text>
                    </g>
                </g>
                <g >
                    <title >text:B2</title>
                    <g transform="matrix(1 0 0 1 32.2493 24.2208)" >
                        <text font-size="2.67264" font-family="'OCRA'" fill="#FFFFFF" >B2</text>
                    </g>
                </g>
                <g >
                    <title >text:B3</title>
                    <g transform="matrix(1 0 0 1 32.2493 31.4208)" >
                        <text font-size="2.67264" font-family="'OCRA'" fill="#FFFFFF" >B3</text>
                    </g>
                </g>
                <g >
                    <title >text:B4</title>
                    <g transform="matrix(1 0 0 1 32.6093 38.6208)" >
                        <text font-size="2.67264" font-family="'OCRA'" fill="#FFFFFF" >B4</text>
                    </g>
                </g>
                <g >
                    <title >text:B5</title>
                    <g transform="matrix(1 0 0 1 32.6093 45.8208)" >
                        <text font-size="2.67264" font-family="'OCRA'" fill="#FFFFFF" >B5</text>
                    </g>
                </g>
                <g >
                    <title >text:B6</title>
                    <g transform="matrix(1 0 0 1 32.2493 53.0208)" >
                        <text font-size="2.67264" font-family="'OCRA'" fill="#FFFFFF" >B6</text>
                    </g>
                </g>
                <g >
                    <title >text:B7</title>
                    <g transform="matrix(1 0 0 1 32.2493 60.2208)" >
                        <text font-size="2.67264" font-family="'OCRA'" fill="#FFFFFF" >B7</text>
                    </g>
                </g>
                <g >
                    <title >text:B8</title>
                    <g transform="matrix(1 0 0 1 32.2493 67.4208)" >
                        <text font-size="2.67264" font-family="'OCRA'" fill="#FFFFFF" >B8</text>
                    </g>
                </g>
                <g >
                    <title >text:GND</title>
                    <g transform="matrix(1 0 0 1 29.8339 74.6208)" >
                        <text font-size="2.67264" font-family="'OCRA'" fill="#FFFFFF" >GND</text>
                    </g>
                </g>
                <g >
                    <title >text:1.2-3.6V</title>
                    <g transform="matrix(1 0 0 1 1.8 4.32)" >
                        <text font-size="2.67264" font-family="'OCRA'" fill="#FFFFFF" >1.2-3.6V</text>
                    </g>
                </g>
                <g >
                    <title >text:1.7-5.5V</title>
                    <g transform="matrix(1 0 0 1 24.12 4.32)" >
                        <text font-size="2.67264" font-family="'OCRA'" fill="#FFFFFF" >1.7-5.5V</text>
                    </g>
                </g>
                <g >
                    <title >text:Bidirectional</title>
                    <g transform="matrix(1 0 0 1 10.44 77.9393)" >
                        <text font-size="2.13808" font-family="'OCRA'" fill="#FFFFFF" >Bidirectional</text>
                    </g>
                </g>
                <g >
                    <title >text:Level</title>
                    <g transform="matrix(1 0 0 1 16.2 58.68)" >
                        <text font-size="2.67264" font-family="'OCRA'" fill="#FFFFFF" >Level</text>
                    </g>
                </g>
                <g >
                    <title >text:Shifter</title>
                    <g transform="matrix(1 0 0 1 14.76 63)" >
                        <text font-size="2.67264" font-family="'OCRA'" fill="#FFFFFF" >Shifter</text>
                    </g>
                </g>
                <g >
                    <title >text:TXB0108</title>
                    <g transform="matrix(1 0 0 1 13.32 54.72)" >
                        <text font-size="2.67264" font-family="'OCRA'" fill="#FFFFFF" >TXB0108</text>
                    </g>
                </g>
                <g >
                    <title >element:C1</title>
                    <g >
                        <title >package:C0805</title>
                    </g>
                </g>
                <g >
                    <title >element:C2</title>
                    <g >
                        <title >package:C0805</title>
                    </g>
                </g>
                <g >
                    <title >element:JP1</title>
                    <g >
                        <title >package:1X10_ROUND_76</title>
                    </g>
                </g>
                <g >
                    <title >element:JP2</title>
                    <g >
                        <title >package:1X10_ROUND_76</title>
                    </g>
                </g>
                <g >
                    <title >element:U$4</title>
                    <g >
                        <title >package:ADAFRUIT200MIL</title>
                    </g>
                </g>
                <g >
                    <title >element:U$6</title>
                    <g >
                        <title >package:FIDUCIAL_1MM</title>
                    </g>
                </g>
                <g >
                    <title >element:U1</title>
                    <g >
                        <title >package:TSSOP20</title>
                        <line x1="28.431" stroke-linecap="round" x2="15.489" fill="none"  stroke-width="0.432" stroke="#FFFFFF" y1="49.291" y2="49.291"/>
                        <line x1="15.489" stroke-linecap="round" x2="28.431" fill="none"  stroke-width="0.432" stroke="#FFFFFF" y1="31.349" y2="31.349"/>
                    </g>
                </g>
            </g>
            <g transform="matrix(0, 1, -1, 0, 33.2305, -2.04945)" >
                <g >
                    <g transform="matrix(2.535182e-06 1 -1 2.535182e-06 33.2305 -2.0494)" >
                        <rect height="3.685" gorn="0.1.0.2.0.0.0" width="4.252" fill="#9A916C"  id="connector5pin" x="15.514" y="13.748"/>
                    </g>
                </g>
            </g>
            <g transform="matrix(0, 1, -1, 0, 38.0495, 2.76945)" >
                <g >
                    <g transform="matrix(2.535182e-06 1 -1 2.535182e-06 38.0494 2.7695)" >
                        <rect height="3.685" gorn="0.1.0.3.0.0.0" width="4.252" fill="#9A916C"  id="connector6pin" x="15.514" y="18.567"/>
                    </g>
                </g>
            </g>
            <g transform="matrix(0, 1, -1, 0, 41.1505, -9.96948)" >
                <g >
                    <g transform="matrix(2.535182e-06 1 -1 2.535182e-06 41.1504 -9.9694)" >
                        <rect height="3.685" gorn="0.1.0.4.0.0.0" width="4.252" fill="#9A916C"  id="connector7pin" x="23.434" y="13.748"/>
                    </g>
                </g>
            </g>
            <g transform="matrix(0, 1, -1, 0, 45.9695, -5.15055)" >
                <g >
                    <g transform="matrix(2.535182e-06 1 -1 2.535182e-06 45.9693 -5.1505)" >
                        <rect height="3.685" gorn="0.1.0.5.0.0.0" width="4.252" fill="#9A916C"  id="connector8pin" x="23.434" y="18.567"/>
                    </g>
                </g>
            </g>
            <circle cy="7.92" gorn="0.1.0.6" r="2.077" fill="none"  stroke-width="1.3187" id="connector9pin" stroke="#9A916C" cx="39.96"/>
            <circle cy="15.12" gorn="0.1.0.7" r="2.077" fill="none"  stroke-width="1.3187" id="connector10pin" stroke="#9A916C" cx="39.96"/>
            <circle cy="22.32" gorn="0.1.0.8" r="2.077" fill="none"  stroke-width="1.3187" id="connector11pin" stroke="#9A916C" cx="39.96"/>
            <circle cy="29.52" gorn="0.1.0.9" r="2.077" fill="none"  stroke-width="1.3187" id="connector12pin" stroke="#9A916C" cx="39.96"/>
            <circle cy="36.72" gorn="0.1.0.10" r="2.077" fill="none"  stroke-width="1.3187" id="connector13pin" stroke="#9A916C" cx="39.96"/>
            <circle cy="43.92" gorn="0.1.0.11" r="2.077" fill="none"  stroke-width="1.3187" id="connector14pin" stroke="#9A916C" cx="39.96"/>
            <circle cy="51.12" gorn="0.1.0.12" r="2.077" fill="none"  stroke-width="1.3187" id="connector15pin" stroke="#9A916C" cx="39.96"/>
            <circle cy="58.32" gorn="0.1.0.13" r="2.077" fill="none"  stroke-width="1.3187" id="connector16pin" stroke="#9A916C" cx="39.96"/>
            <circle cy="65.52" gorn="0.1.0.14" r="2.077" fill="none"  stroke-width="1.3187" id="connector17pin" stroke="#9A916C" cx="39.96"/>
            <circle cy="72.72" gorn="0.1.0.15" r="2.077" fill="none"  stroke-width="1.3187" id="connector18pin" stroke="#9A916C" cx="39.96"/>
            <circle cy="72.72" gorn="0.1.0.16" r="2.077" fill="none"  stroke-width="1.3187" id="connector19pin" stroke="#9A916C" cx="3.96"/>
            <circle cy="65.52" gorn="0.1.0.17" r="2.077" fill="none"  stroke-width="1.3187" id="connector20pin" stroke="#9A916C" cx="3.96"/>
            <circle cy="58.32" gorn="0.1.0.18" r="2.077" fill="none"  stroke-width="1.3187" id="connector21pin" stroke="#9A916C" cx="3.96"/>
            <circle cy="51.12" gorn="0.1.0.19" r="2.077" fill="none"  stroke-width="1.3187" id="connector22pin" stroke="#9A916C" cx="3.96"/>
            <circle cy="43.92" gorn="0.1.0.20" r="2.077" fill="none"  stroke-width="1.3187" id="connector23pin" stroke="#9A916C" cx="3.96"/>
            <circle cy="36.72" gorn="0.1.0.21" r="2.077" fill="none"  stroke-width="1.3187" id="connector24pin" stroke="#9A916C" cx="3.96"/>
            <circle cy="29.52" gorn="0.1.0.22" r="2.077" fill="none"  stroke-width="1.3187" id="connector25pin" stroke="#9A916C" cx="3.96"/>
            <circle cy="22.32" gorn="0.1.0.23" r="2.077" fill="none"  stroke-width="1.3187" id="connector26pin" stroke="#9A916C" cx="3.96"/>
            <circle cy="15.12" gorn="0.1.0.24" r="2.077" fill="none"  stroke-width="1.3187" id="connector27pin" stroke="#9A916C" cx="3.96"/>
            <circle cy="7.92" gorn="0.1.0.25" r="2.077" fill="none"  stroke-width="1.3187" id="connector28pin" stroke="#9A916C" cx="3.96"/>
            <rect height="3.968" gorn="0.1.0.26" width="3.118" fill="#9A916C"  id="connector29pin" x="17.206" y="68.576"/>
            <rect height="3.968" gorn="0.1.0.27" width="3.118" fill="#9A916C"  id="connector30pin" x="22.876" y="68.576"/>
            <g transform="matrix(0, 1, -1, 0, 45.7178, 18.3396)" >
                <g >
                    <g transform="matrix(2.535182e-06 1 -1 2.535182e-06 45.7178 18.3395)" >
                        <rect height="0.864" gorn="0.1.0.28.0.0.0" width="2.808" fill="#9A916C"  id="connector32pin" x="12.285" y="31.597"/>
                    </g>
                </g>
            </g>
            <g transform="matrix(0, 1, -1, 0, 47.5602, 20.1821)" >
                <g >
                    <g transform="matrix(2.535182e-06 1 -1 2.535182e-06 47.5603 20.182)" >
                        <rect height="0.864" gorn="0.1.0.29.0.0.0" width="2.808" fill="#9A916C"  id="connector33pin" x="12.285" y="33.439"/>
                    </g>
                </g>
            </g>
            <g transform="matrix(0, 1, -1, 0, 49.4028, 22.0247)" >
                <g >
                    <g transform="matrix(2.535182e-06 1 -1 2.535182e-06 49.4028 22.0245)" >
                        <rect height="0.864" gorn="0.1.0.30.0.0.0" width="2.808" fill="#9A916C"  id="connector34pin" x="12.285" y="35.282"/>
                    </g>
                </g>
            </g>
            <g transform="matrix(0, 1, -1, 0, 51.2453, 23.8671)" >
                <g >
                    <g transform="matrix(2.535182e-06 1 -1 2.535182e-06 51.2453 23.867)" >
                        <rect height="0.864" gorn="0.1.0.31.0.0.0" width="2.808" fill="#9A916C"  id="connector35pin" x="12.285" y="37.124"/>
                    </g>
                </g>
            </g>
            <g transform="matrix(0, 1, -1, 0, 53.0878, 25.7097)" >
                <g >
                    <g transform="matrix(2.535182e-06 1 -1 2.535182e-06 53.0879 25.7096)" >
                        <rect height="0.864" gorn="0.1.0.32.0.0.0" width="2.808" fill="#9A916C"  id="connector36pin" x="12.285" y="38.967"/>
                    </g>
                </g>
            </g>
            <g transform="matrix(0, 1, -1, 0, 54.9303, 27.5522)" >
                <g >
                    <g transform="matrix(2.535182e-06 1 -1 2.535182e-06 54.9303 27.552)" >
                        <rect height="0.864" gorn="0.1.0.33.0.0.0" width="2.808" fill="#9A916C"  id="connector37pin" x="12.285" y="40.809"/>
                    </g>
                </g>
            </g>
            <g transform="matrix(0, 1, -1, 0, 56.7729, 29.3947)" >
                <g >
                    <g transform="matrix(2.535182e-06 1 -1 2.535182e-06 56.7729 29.3946)" >
                        <rect height="0.864" gorn="0.1.0.34.0.0.0" width="2.808" fill="#9A916C"  id="connector38pin" x="12.285" y="42.652"/>
                    </g>
                </g>
            </g>
            <g transform="matrix(0, 1, -1, 0, 58.6153, 31.2372)" >
                <g >
                    <g transform="matrix(2.535182e-06 1 -1 2.535182e-06 58.6154 31.2371)" >
                        <rect height="0.864" gorn="0.1.0.35.0.0.0" width="2.808" fill="#9A916C"  id="connector39pin" x="12.285" y="44.494"/>
                    </g>
                </g>
            </g>
            <g transform="matrix(0, 1, -1, 0, 60.4579, 33.0798)" >
                <g >
                    <g transform="matrix(2.535182e-06 1 -1 2.535182e-06 60.4579 33.0796)" >
                        <rect height="0.864" gorn="0.1.0.36.0.0.0" width="2.808" fill="#9A916C"  id="connector40pin" x="12.285" y="46.337"/>
                    </g>
                </g>
            </g>
            <g transform="matrix(0, 1, -1, 0, 62.3004, 34.9222)" >
                <g >
                    <g transform="matrix(2.535182e-06 1 -1 2.535182e-06 62.3004 34.9221)" >
                        <rect height="0.864" gorn="0.1.0.37.0.0.0" width="2.808" fill="#9A916C"  id="connector41pin" x="12.285" y="48.179"/>
                    </g>
                </g>
            </g>
            <g transform="matrix(0, 1, -1, 0, 78.8422, 18.3804)" >
                <g >
                    <g transform="matrix(2.535182e-06 1 -1 2.535182e-06 78.8421 18.3803)" >
                        <rect height="0.864" gorn="0.1.0.38.0.0.0" width="2.808" fill="#9A916C"  id="connector42pin" x="28.827" y="48.179"/>
                    </g>
                </g>
            </g>
            <g transform="matrix(0, 1, -1, 0, 76.9997, 16.5379)" >
                <g >
                    <g transform="matrix(2.535182e-06 1 -1 2.535182e-06 76.9996 16.5378)" >
                        <rect height="0.864" gorn="0.1.0.39.0.0.0" width="2.808" fill="#9A916C"  id="connector43pin" x="28.827" y="46.337"/>
                    </g>
                </g>
            </g>
            <g transform="matrix(0, 1, -1, 0, 75.1572, 14.6953)" >
                <g >
                    <g transform="matrix(2.535182e-06 1 -1 2.535182e-06 75.1571 14.6953)" >
                        <rect height="0.864" gorn="0.1.0.40.0.0.0" width="2.808" fill="#9A916C"  id="connector44pin" x="28.827" y="44.494"/>
                    </g>
                </g>
            </g>
            <g transform="matrix(0, 1, -1, 0, 73.3147, 12.8529)" >
                <g >
                    <g transform="matrix(2.535182e-06 1 -1 2.535182e-06 73.3146 12.8528)" >
                        <rect height="0.864" gorn="0.1.0.41.0.0.0" width="2.808" fill="#9A916C"  id="connector45pin" x="28.827" y="42.652"/>
                    </g>
                </g>
            </g>
            <g transform="matrix(0, 1, -1, 0, 71.4722, 11.0103)" >
                <g >
                    <g transform="matrix(2.535182e-06 1 -1 2.535182e-06 71.472 11.0102)" >
                        <rect height="0.864" gorn="0.1.0.42.0.0.0" width="2.808" fill="#9A916C"  id="connector46pin" x="28.827" y="40.809"/>
                    </g>
                </g>
            </g>
            <g transform="matrix(0, 1, -1, 0, 69.6297, 9.16783)" >
                <g >
                    <g transform="matrix(2.535182e-06 1 -1 2.535182e-06 69.6296 9.1678)" >
                        <rect height="0.864" gorn="0.1.0.43.0.0.0" width="2.808" fill="#9A916C"  id="connector47pin" x="28.827" y="38.967"/>
                    </g>
                </g>
            </g>
            <g transform="matrix(0, 1, -1, 0, 67.7871, 7.32528)" >
                <g >
                    <g transform="matrix(2.535182e-06 1 -1 2.535182e-06 67.787 7.3252)" >
                        <rect height="0.864" gorn="0.1.0.44.0.0.0" width="2.808" fill="#9A916C"  id="connector48pin" x="28.827" y="37.124"/>
                    </g>
                </g>
            </g>
            <g transform="matrix(0, 1, -1, 0, 65.9447, 5.48277)" >
                <g >
                    <g transform="matrix(2.535182e-06 1 -1 2.535182e-06 65.9445 5.4827)" >
                        <rect height="0.864" gorn="0.1.0.45.0.0.0" width="2.808" fill="#9A916C"  id="connector49pin" x="28.827" y="35.282"/>
                    </g>
                </g>
            </g>
            <g transform="matrix(0, 1, -1, 0, 64.1021, 3.64026)" >
                <g >
                    <g transform="matrix(2.535182e-06 1 -1 2.535182e-06 64.102 3.6402)" >
                        <rect height="0.864" gorn="0.1.0.46.0.0.0" width="2.808" fill="#9A916C"  id="connector50pin" x="28.827" y="33.439"/>
                    </g>
                </g>
            </g>
            <g transform="matrix(0, 1, -1, 0, 62.2596, 1.79773)" >
                <g >
                    <g transform="matrix(2.535182e-06 1 -1 2.535182e-06 62.2595 1.7977)" >
                        <rect height="0.864" gorn="0.1.0.47.0.0.0" width="2.808" fill="#9A916C"  id="connector51pin" x="28.827" y="31.597"/>
                    </g>
                </g>
            </g>
        </g>
        <g transform="matrix(1, 0, 0, 1, 14.8055, 16.2285)" >
            <g gorn="0.1.1.0"  id="_x30_805-cap">
                <g transform="matrix(0, 1, -1, 0, 4.606, -1.063)" >
                    <g >
                        <path fill="#DCDCDC" d="M5.386,3.543H0.283C0.127,3.543,0,3.416,0,3.26V0.283C0,0.127,0.127,0,0.283,0h5.102c0.157,0,0.283,0.127,0.283,0.283V3.26C5.669,3.416,5.542,3.543,5.386,3.543z" />
                        <g transform="matrix(2.535182e-06 1 -1 2.535182e-06 4.606 -1.063)" >
                            <rect height="3.543" width="3.543" fill="#6E554B"  x="1.063" y="0"/>
                        </g>
                    </g>
                </g>
            </g>
        </g>
        <g transform="matrix(1, 0, 0, 1, 22.7255, 16.2285)" >
            <g gorn="0.1.2.0"  id="_x30_805-cap_1_">
                <g transform="matrix(0, 1, -1, 0, 4.606, -1.063)" >
                    <g >
                        <path fill="#DCDCDC" d="M5.386,3.543H0.283C0.127,3.543,0,3.416,0,3.26V0.283C0,0.127,0.127,0,0.283,0h5.102c0.157,0,0.283,0.127,0.283,0.283V3.26C5.669,3.416,5.542,3.543,5.386,3.543z" />
                        <g transform="matrix(2.535182e-06 1 -1 2.535182e-06 4.606 -1.063)" >
                            <rect height="3.543" width="3.543" fill="#6E554B"  x="1.063" y="0"/>
                        </g>
                    </g>
                </g>
            </g>
        </g>
        <g transform="matrix(1, 0, 0, 1, 18.7655, 68.7885)" >
            <g gorn="0.1.3.0"  id="_x30_805-res">
                <path fill="#DCDCDC" d="M5.386,3.543H0.283C0.127,3.543,0,3.416,0,3.26V0.283C0,0.127,0.127,0,0.283,0h5.102c0.157,0,0.283,0.127,0.283,0.283V3.26C5.669,3.416,5.542,3.543,5.386,3.543z" />
                <rect height="3.543" width="3.543" fill="#333333"  x="1.063" y="0"/>
            </g>
        </g>
        <g transform="matrix(1, 0, 0, 1, 16.8799, 22.5004)" >
            <g gorn="0.1.4.0"  id="adafruit200mil">
                <g transform="matrix(0, 1, -1, 0, 8.16502, -0.029016)" >
                    <g >
                        <path fill="#DCDCDC" d="M4.633,0.638C3.963,0.237,3.62,0.031,3.62,0.005L3.594,0C2.676,0.839,2.307,1.541,2.486,2.1C2.665,2.665,2.48,2.886,1.932,2.759C1.378,2.638,0.565,2.818-0.511,3.282c0.021,0,0.216,0.253,0.601,0.755c0.38,0.507,1.087,0.855,2.121,1.055C2.09,5.076,1.889,5.308,1.599,5.772C1.319,6.231,1.251,7.017,1.393,8.13l0.059,0.006c1.15-0.032,1.841-0.343,2.073-0.939C3.762,6.611,4.053,6.532,4.39,6.954c0.348,0.438,0.807,0.707,1.372,0.802c0.543,0.084,0.834,0.132,0.87,0.153C6.701,6.732,6.553,5.93,6.189,5.498C5.814,5.081,5.593,4.875,5.514,4.891c1.055-0.248,1.73-0.649,2.015-1.203c0.28-0.554,0.179-0.96-0.301-1.224C6.738,2.216,6.21,2.216,5.64,2.475C5.076,2.738,4.781,2.886,4.754,2.923C5.35,1.81,5.308,1.05,4.633,0.638z M2.987,5.888c-0.121,0.09-0.211,0.116-0.264,0.084C2.66,5.936,2.633,5.846,2.66,5.698C2.691,5.54,2.749,5.382,2.839,5.223C2.95,5.038,3.055,4.906,3.161,4.822c0.116-0.09,0.206-0.127,0.28-0.09c0.058,0.032,0.073,0.133,0.047,0.28c-0.016,0.122-0.079,0.28-0.179,0.486C3.198,5.672,3.092,5.804,2.987,5.888z M2.064,3.978c-0.121-0.09-0.169-0.169-0.142-0.232c0.02-0.079,0.105-0.121,0.247-0.137s0.311,0,0.512,0.058C2.876,3.72,3.029,3.794,3.145,3.878c0.127,0.079,0.174,0.158,0.158,0.237c-0.016,0.063-0.1,0.106-0.253,0.127c-0.169,0.011-0.338-0.01-0.512-0.063C2.364,4.137,2.206,4.073,2.064,3.978z M3.667,3.614C3.609,3.466,3.583,3.298,3.583,3.113c0-0.19,0.026-0.359,0.084-0.517c0.058-0.132,0.121-0.2,0.19-0.2c0.069,0,0.132,0.069,0.19,0.2C4.1,2.754,4.126,2.923,4.126,3.113c0,0.179-0.021,0.348-0.074,0.501C4,3.757,3.936,3.825,3.868,3.825C3.789,3.825,3.725,3.757,3.667,3.614z M4.38,4.115C4.353,4.036,4.406,3.957,4.527,3.878C4.638,3.799,4.796,3.73,5.002,3.672c0.18-0.058,0.348-0.074,0.507-0.058c0.142,0.011,0.232,0.048,0.253,0.127C5.783,3.809,5.73,3.889,5.604,3.978c-0.142,0.095-0.301,0.164-0.464,0.2C4.96,4.232,4.791,4.253,4.622,4.242C4.48,4.221,4.401,4.179,4.38,4.115z M4.147,5.055C4.095,4.917,4.089,4.823,4.137,4.77c0.053-0.053,0.142-0.048,0.28,0.016c0.126,0.058,0.258,0.163,0.416,0.306c0.138,0.142,0.238,0.279,0.296,0.406C5.198,5.64,5.203,5.735,5.15,5.788C5.097,5.836,5.002,5.825,4.865,5.772C4.749,5.725,4.612,5.624,4.459,5.466C4.306,5.324,4.205,5.187,4.147,5.055z" />
                    </g>
                </g>
            </g>
        </g>
        <g transform="matrix(1, 0, 0, 1, 11.642, 31.391)" >
            <g gorn="0.1.5.0"  id="tssop20">
                <g transform="matrix(0, 1, -1, 0, 19.247, -1.38899)" >
                    <g >
                        <g >
                            <path fill="#DCDCDC" d="M2.379,0v17.858H1.67V0H2.379z M3.513,0v17.858h0.709V0H3.513z M5.355,0v17.858h0.709V0H5.355z M7.198,0v17.858h0.709L7.907,0H7.198z M9.04,0v17.858h0.709L9.749,0H9.04z M10.883,0v17.858h0.709V0H10.883z M12.725,0v17.858h0.709V0H12.725z M14.568,0v17.858h0.709l0-17.858H14.568z M16.41,0v17.858h0.709V0H16.41z M18.253,0v17.858h0.709l0-17.858H18.253z" />
                            <g transform="matrix(2.535182e-06 1 -1 2.535182e-06 19.2757 -1.4177)" >
                                <rect height="19.843" width="12.472" fill="#333333"  x="4.111" y="-0.993"/>
                            </g>
                            <circle cy="13.039" r="1.134"  cx="2.551"/>
                        </g>
                    </g>
                </g>
            </g>
        </g>
    </g>
</svg>
